<?xml version="1.0" encoding="UTF-8" standalone="no"?>
<!DOCTYPE svg PUBLIC "-//W3C//DTD SVG 1.1//EN"
 "http://www.w3.org/Graphics/SVG/1.1/DTD/svg11.dtd">
<!-- Generated by graphviz version 2.43.0 (0)
 -->
<!-- Title: sl::tuple::is_apply_invocable&lt; TFunc, TTuple &gt; Pages: 1 -->
<!--zoomable 78 -->
<svg id="main" version="1.1" xmlns="http://www.w3.org/2000/svg" xmlns:xlink="http://www.w3.org/1999/xlink" xml:space="preserve" onload="init(evt)">
<style type="text/css"><![CDATA[
.edge:hover path { stroke: red; }
.edge:hover polygon { stroke: red; fill: red; }
]]></style>
<script type="text/javascript"><![CDATA[
var edges = document.getElementsByTagName('g');
if (edges && edges.length) {
  for (var i=0;i<edges.length;i++) {
    if (edges[i].id.substr(0,4)=='edge') {
      edges[i].setAttribute('class','edge');
    }
  }
}
]]></script>
        <defs>
                <circle id="rim" cx="0" cy="0" r="7"/>
                <circle id="rim2" cx="0" cy="0" r="3.5"/>
                <g id="zoomPlus">
                        <use xlink:href="#rim" fill="#404040">
                                <set attributeName="fill" to="#808080" begin="zoomplus.mouseover" end="zoomplus.mouseout"/>
                        </use>
                        <path d="M-4,0h8M0,-4v8" fill="none" stroke="white" stroke-width="1.5" pointer-events="none"/>
                </g>
                <g id="zoomMin">
                        <use xlink:href="#rim" fill="#404040">
                                <set attributeName="fill" to="#808080" begin="zoomminus.mouseover" end="zoomminus.mouseout"/>
                        </use>
                        <path d="M-4,0h8" fill="none" stroke="white" stroke-width="1.5" pointer-events="none"/>
                </g>
                <g id="dirArrow">
                        <path fill="none" stroke="white" stroke-width="1.5" d="M0,-3.0v7 M-2.5,-0.5L0,-3.0L2.5,-0.5"/>
                </g>
               <g id="resetDef">
                       <use xlink:href="#rim2" fill="#404040">
                               <set attributeName="fill" to="#808080" begin="reset.mouseover" end="reset.mouseout"/>
                       </use>
               </g>
        </defs>

<script type="text/javascript">
var viewWidth = 833;
var viewHeight = 78;
var sectionId = 'dynsection-1';
</script>
<script xlink:href="../../svgpan.js"/>
<svg id="graph" class="graph">
<g id="viewport">
<title>sl::tuple::is_apply_invocable&lt; TFunc, TTuple &gt;</title>
<polygon fill="white" stroke="transparent" points="-4,4 -4,-73.5 829,-73.5 829,4 -4,4"/>
<!-- Node1 -->
<g id="node1" class="node">
<title>Node1</title>
<g id="a_node1"><a xlink:title="Trait type determining whether the function is invocable with elements of the given tuple.">
<polygon fill="#bfbfbf" stroke="black" points="667,-22.5 667,-52.5 825,-52.5 825,-22.5 667,-22.5"/>
<text text-anchor="start" x="675" y="-40.5" font-family="Helvetica,sans-Serif" font-size="10.00">sl::tuple::is_apply</text>
<text text-anchor="middle" x="746" y="-29.5" font-family="Helvetica,sans-Serif" font-size="10.00">_invocable&lt; TFunc, TTuple &gt;</text>
</a>
</g>
</g>
<!-- Node2 -->
<g id="node2" class="node">
<title>Node2</title>
<g id="a_node2"><a xlink:title=" ">
<polygon fill="white" stroke="#bfbfbf" points="470,-6 470,-69 630,-69 630,-6 470,-6"/>
<text text-anchor="start" x="478" y="-57" font-family="Helvetica,sans-Serif" font-size="10.00">sl::tuple::detail::</text>
<text text-anchor="start" x="478" y="-46" font-family="Helvetica,sans-Serif" font-size="10.00">is_apply_invocable&lt;</text>
<text text-anchor="start" x="478" y="-35" font-family="Helvetica,sans-Serif" font-size="10.00"> TFunc, TTuple, std::</text>
<text text-anchor="start" x="478" y="-24" font-family="Helvetica,sans-Serif" font-size="10.00">make_index_sequence&lt; std</text>
<text text-anchor="middle" x="550" y="-13" font-family="Helvetica,sans-Serif" font-size="10.00">::tuple_size_v&lt; TTuple &gt; &gt; &gt;</text>
</a>
</g>
</g>
<!-- Node2&#45;&gt;Node1 -->
<g id="edge1" class="edge">
<title>Node2&#45;&gt;Node1</title>
<path fill="none" stroke="midnightblue" d="M640.43,-37.5C649.2,-37.5 658.05,-37.5 666.69,-37.5"/>
<polygon fill="midnightblue" stroke="midnightblue" points="640.19,-34 630.19,-37.5 640.19,-41 640.19,-34"/>
</g>
<!-- Node3 -->
<g id="node3" class="node">
<title>Node3</title>
<g id="a_node3"><a xlink:title=" ">
<polygon fill="white" stroke="#bfbfbf" points="0,-30 0,-49 89,-49 89,-30 0,-30"/>
<text text-anchor="middle" x="44.5" y="-37" font-family="Helvetica,sans-Serif" font-size="10.00">std::false_type</text>
</a>
</g>
</g>
<!-- Node3&#45;&gt;Node2 -->
<g id="edge2" class="edge">
<title>Node3&#45;&gt;Node2</title>
<path fill="none" stroke="midnightblue" d="M99.28,-43.13C101.89,-43.26 104.47,-43.39 107,-43.5 260.2,-50.23 298.86,-55.37 452,-47.5 457.83,-47.2 463.86,-46.8 469.91,-46.33"/>
<polygon fill="midnightblue" stroke="midnightblue" points="99.34,-39.63 89.16,-42.57 98.95,-46.62 99.34,-39.63"/>
</g>
<!-- Node4 -->
<g id="node4" class="node">
<title>Node4</title>
<g id="a_node4"><a xlink:title=" ">
<polygon fill="white" stroke="#bfbfbf" points="126,-0.5 126,-30.5 264,-30.5 264,-0.5 126,-0.5"/>
<text text-anchor="start" x="134" y="-18.5" font-family="Helvetica,sans-Serif" font-size="10.00">sl::tuple::detail::</text>
<text text-anchor="middle" x="195" y="-7.5" font-family="Helvetica,sans-Serif" font-size="10.00">is_apply_invocable&lt;... &gt;</text>
</a>
</g>
</g>
<!-- Node3&#45;&gt;Node4 -->
<g id="edge4" class="edge">
<title>Node3&#45;&gt;Node4</title>
<path fill="none" stroke="midnightblue" d="M99.17,-30.83C107.81,-29.43 116.85,-27.97 125.77,-26.53"/>
<polygon fill="midnightblue" stroke="midnightblue" points="98.57,-27.38 89.25,-32.43 99.68,-34.29 98.57,-27.38"/>
</g>
<!-- Node4&#45;&gt;Node2 -->
<g id="edge3" class="edge">
<title>Node4&#45;&gt;Node2</title>
<path fill="none" stroke="orange" stroke-dasharray="5,2" d="M274.42,-10.33C325.23,-8.18 392.74,-7.57 452,-14.5 457.84,-15.18 463.85,-16.09 469.86,-17.15"/>
<polygon fill="orange" stroke="orange" points="273.99,-6.85 264.16,-10.8 274.31,-13.84 273.99,-6.85"/>
<text text-anchor="start" x="282" y="-39.5" font-family="Helvetica,sans-Serif" font-size="10.00"> &lt; TFunc, TTuple, std</text>
<text text-anchor="start" x="282" y="-28.5" font-family="Helvetica,sans-Serif" font-size="10.00">::make_index_sequence</text>
<text text-anchor="middle" x="367" y="-17.5" font-family="Helvetica,sans-Serif" font-size="10.00">&lt; std::tuple_size_v&lt; TTuple &gt; &gt; &gt;</text>
</g>
</g>
</svg>
        <g id="navigator" transform="translate(0 0)" fill="#404254">
                <rect fill="#f2f5e9" fill-opacity="0.5" stroke="#606060" stroke-width=".5" x="0" y="0" width="60" height="60"/>
                <use id="zoomplus" xlink:href="#zoomPlus" x="17" y="9" onmousedown="handleZoom(evt,'in')"/>
                <use id="zoomminus" xlink:href="#zoomMin" x="42" y="9" onmousedown="handleZoom(evt,'out')"/>
                <use id="reset" xlink:href="#resetDef" x="30" y="36" onmousedown="handleReset()"/>
                <g id="arrowUp" xlink:href="#dirArrow" transform="translate(30 24)" onmousedown="handlePan(0,-1)">
                  <use xlink:href="#rim" fill="#404040">
                        <set attributeName="fill" to="#808080" begin="arrowUp.mouseover" end="arrowUp.mouseout"/>
                  </use>
                  <path fill="none" stroke="white" stroke-width="1.5" d="M0,-3.0v7 M-2.5,-0.5L0,-3.0L2.5,-0.5"/>
                </g>
                <g id="arrowRight" xlink:href="#dirArrow" transform="rotate(90) translate(36 -43)" onmousedown="handlePan(1,0)">
                  <use xlink:href="#rim" fill="#404040">
                        <set attributeName="fill" to="#808080" begin="arrowRight.mouseover" end="arrowRight.mouseout"/>
                  </use>
                  <path fill="none" stroke="white" stroke-width="1.5" d="M0,-3.0v7 M-2.5,-0.5L0,-3.0L2.5,-0.5"/>
                </g>
                <g id="arrowDown" xlink:href="#dirArrow" transform="rotate(180) translate(-30 -48)" onmousedown="handlePan(0,1)">
                  <use xlink:href="#rim" fill="#404040">
                        <set attributeName="fill" to="#808080" begin="arrowDown.mouseover" end="arrowDown.mouseout"/>
                  </use>
                  <path fill="none" stroke="white" stroke-width="1.5" d="M0,-3.0v7 M-2.5,-0.5L0,-3.0L2.5,-0.5"/>
                </g>
                <g id="arrowLeft" xlink:href="#dirArrow" transform="rotate(270) translate(-36 17)" onmousedown="handlePan(-1,0)">
                  <use xlink:href="#rim" fill="#404040">
                        <set attributeName="fill" to="#808080" begin="arrowLeft.mouseover" end="arrowLeft.mouseout"/>
                  </use>
                  <path fill="none" stroke="white" stroke-width="1.5" d="M0,-3.0v7 M-2.5,-0.5L0,-3.0L2.5,-0.5"/>
                </g>
        </g>
        <svg viewBox="0 0 15 15" width="100%" height="30px" preserveAspectRatio="xMaxYMin meet">
         <g id="arrow_out" transform="scale(0.3 0.3)">
          <a xlink:href="structsl_1_1tuple_1_1is__apply__invocable__coll__graph_org.svg" target="_base">
           <rect id="button" ry="5" rx="5" y="6" x="6" height="38" width="38"
                fill="#f2f5e9" fill-opacity="0.5" stroke="#606060" stroke-width="1.0"/>
           <path id="arrow"
             d="M 11.500037,31.436501 C 11.940474,20.09759 22.043105,11.32322 32.158766,21.979434 L 37.068811,17.246167 C 37.068811,17.246167 37.088388,32 37.088388,32 L 22.160133,31.978069 C 22.160133,31.978069 26.997745,27.140456 26.997745,27.140456 C 18.528582,18.264221 13.291696,25.230495 11.500037,31.436501 z"
             style="fill:#404040;"/>
          </a>
         </g>
        </svg>
</svg>
