<?xml version="1.0" encoding="UTF-8" standalone="no"?>
<!DOCTYPE svg PUBLIC "-//W3C//DTD SVG 1.1//EN"
 "http://www.w3.org/Graphics/SVG/1.1/DTD/svg11.dtd">
<!-- Generated by graphviz version 8.0.5 (20230430.1635)
 -->
<!-- Title: sl::tuple::is_apply_invocable&lt; TFunc, TTuple &gt; Pages: 1 -->
<svg width="751pt" height="83pt"
 viewBox="0.00 0.00 751.25 82.62" xmlns="http://www.w3.org/2000/svg" xmlns:xlink="http://www.w3.org/1999/xlink">
<g id="graph0" class="graph" transform="scale(1 1) rotate(0) translate(4 78.62)">
<title>sl::tuple::is_apply_invocable&lt; TFunc, TTuple &gt;</title>
<!-- Node1 -->
<g id="node1" class="node">
<title>Node1</title>
<g id="a_node1"><a xlink:title="Trait type determining whether the function is invocable with elements of the given tuple.">
<polygon fill="#999999" stroke="#666666" points="743.25,-55.5 599,-55.5 599,-22 743.25,-22 743.25,-55.5"/>
<text text-anchor="start" x="607" y="-42" font-family="Helvetica,sans-Serif" font-size="10.00">sl::tuple::is_apply</text>
<text text-anchor="middle" x="671.12" y="-29.25" font-family="Helvetica,sans-Serif" font-size="10.00">_invocable&lt; TFunc, TTuple &gt;</text>
</a>
</g>
</g>
<!-- Node2 -->
<g id="node2" class="node">
<title>Node2</title>
<g id="a_node2"><a xlink:title=" ">
<polygon fill="white" stroke="#666666" points="562,-74.62 422.25,-74.62 422.25,-2.88 562,-2.88 562,-74.62"/>
<text text-anchor="start" x="430.25" y="-61.12" font-family="Helvetica,sans-Serif" font-size="10.00">sl::tuple::detail::</text>
<text text-anchor="start" x="430.25" y="-48.38" font-family="Helvetica,sans-Serif" font-size="10.00">is_apply_invocable&lt;</text>
<text text-anchor="start" x="430.25" y="-35.62" font-family="Helvetica,sans-Serif" font-size="10.00"> TFunc, TTuple, std::</text>
<text text-anchor="start" x="430.25" y="-22.88" font-family="Helvetica,sans-Serif" font-size="10.00">make_index_sequence&lt; std</text>
<text text-anchor="middle" x="492.12" y="-10.12" font-family="Helvetica,sans-Serif" font-size="10.00">::tuple_size_v&lt; TTuple &gt; &gt; &gt;</text>
</a>
</g>
</g>
<!-- Node2&#45;&gt;Node1 -->
<g id="edge1" class="edge">
<title>Node2&#45;&gt;Node1</title>
<path fill="none" stroke="#63b8ff" d="M573.05,-38.75C581.58,-38.75 590.22,-38.75 598.65,-38.75"/>
<polygon fill="#63b8ff" stroke="#63b8ff" points="573.32,-35.25 563.32,-38.75 573.32,-42.25 573.32,-35.25"/>
</g>
<!-- Node3 -->
<g id="node3" class="node">
<title>Node3</title>
<g id="a_node3"><a xlink:title=" ">
<polygon fill="white" stroke="#666666" points="81.25,-53.12 0,-53.12 0,-32.38 81.25,-32.38 81.25,-53.12"/>
<text text-anchor="middle" x="40.62" y="-39.62" font-family="Helvetica,sans-Serif" font-size="10.00">std::false_type</text>
</a>
</g>
</g>
<!-- Node3&#45;&gt;Node2 -->
<g id="edge2" class="edge">
<title>Node3&#45;&gt;Node2</title>
<path fill="none" stroke="#63b8ff" d="M92.4,-47.17C162.6,-52.57 293.22,-60.01 404.25,-51.75 410.03,-51.32 416.01,-50.73 422,-50.04"/>
<polygon fill="#63b8ff" stroke="#63b8ff" points="92.91,-43.62 82.67,-46.33 92.36,-50.6 92.91,-43.62"/>
</g>
<!-- Node4 -->
<g id="node4" class="node">
<title>Node4</title>
<g id="a_node4"><a xlink:title=" ">
<polygon fill="white" stroke="#666666" points="240,-33.5 118.25,-33.5 118.25,0 240,0 240,-33.5"/>
<text text-anchor="start" x="126.25" y="-20" font-family="Helvetica,sans-Serif" font-size="10.00">sl::tuple::detail::</text>
<text text-anchor="middle" x="179.12" y="-7.25" font-family="Helvetica,sans-Serif" font-size="10.00">is_apply_invocable&lt;... &gt;</text>
</a>
</g>
</g>
<!-- Node3&#45;&gt;Node4 -->
<g id="edge4" class="edge">
<title>Node3&#45;&gt;Node4</title>
<path fill="none" stroke="#63b8ff" d="M92.22,-33.11C100.59,-31.52 109.34,-29.85 117.93,-28.22"/>
<polygon fill="#63b8ff" stroke="#63b8ff" points="91.64,-29.85 82.47,-35.16 92.95,-36.73 91.64,-29.85"/>
</g>
<!-- Node4&#45;&gt;Node2 -->
<g id="edge3" class="edge">
<title>Node4&#45;&gt;Node2</title>
<path fill="none" stroke="orange" stroke-dasharray="5,2" d="M251.31,-10.09C295.55,-7.35 353.46,-6.27 404.25,-13.5 410,-14.32 415.91,-15.43 421.8,-16.73"/>
<polygon fill="orange" stroke="orange" points="251.12,-6.67 241.38,-10.82 251.59,-13.65 251.12,-6.67"/>
<text text-anchor="start" x="258" y="-42.5" font-family="Helvetica,sans-Serif" font-size="10.00"> &lt; TFunc, TTuple, std</text>
<text text-anchor="start" x="258" y="-29.75" font-family="Helvetica,sans-Serif" font-size="10.00">::make_index_sequence</text>
<text text-anchor="middle" x="331.12" y="-17" font-family="Helvetica,sans-Serif" font-size="10.00">&lt; std::tuple_size_v&lt; TTuple &gt; &gt; &gt;</text>
</g>
</g>
</svg>
