<?xml version="1.0" encoding="UTF-8" standalone="no"?>
<!DOCTYPE svg PUBLIC "-//W3C//DTD SVG 1.1//EN"
 "http://www.w3.org/Graphics/SVG/1.1/DTD/svg11.dtd">
<!-- Generated by graphviz version 8.0.5 (20230430.1635)
 -->
<!-- Title: nullables Pages: 1 -->
<svg width="211pt" height="146pt"
 viewBox="0.00 0.00 211.00 145.75" xmlns="http://www.w3.org/2000/svg" xmlns:xlink="http://www.w3.org/1999/xlink">
<g id="graph0" class="graph" transform="scale(1 1) rotate(0) translate(4 141.75)">
<title>nullables</title>
<!-- Node1 -->
<g id="node1" class="node">
<title>Node1</title>
<g id="a_node1"><a xlink:title="This library offers some simple algorithms for convenient working with nullable types.">
<polygon fill="#999999" stroke="#666666" points="57.25,-78.75 0,-78.75 0,-58 57.25,-58 57.25,-78.75"/>
<text text-anchor="middle" x="28.62" y="-65.25" font-family="Helvetica,sans-Serif" font-size="10.00">nullables</text>
</a>
</g>
</g>
<!-- Node2 -->
<g id="node2" class="node">
<title>Node2</title>
<g id="a_node2"><a xlink:href="../../df/dc9/group___g_r_o_u_p___n_u_l_l_a_b_l_e_s___a_d_a_p_t_e_r.html" target="_top" xlink:title=" ">
<polygon fill="white" stroke="#666666" points="173.75,-137.75 122.5,-137.75 122.5,-117 173.75,-117 173.75,-137.75"/>
<text text-anchor="middle" x="148.12" y="-124.25" font-family="Helvetica,sans-Serif" font-size="10.00">adapter</text>
</a>
</g>
</g>
<!-- Node1&#45;&gt;Node2 -->
<g id="edge1" class="edge">
<title>Node1&#45;&gt;Node2</title>
<path fill="none" stroke="black" d="M54.36,-85.09C65.88,-92.47 79.96,-100.91 93.25,-107.38 102.4,-111.83 112.81,-115.91 122.03,-119.2"/>
<polygon fill="black" stroke="black" points="56.64,-81.74 46.35,-79.21 52.81,-87.6 56.64,-81.74"/>
</g>
<!-- Node3 -->
<g id="node3" class="node">
<title>Node3</title>
<g id="a_node3"><a xlink:href="../../d6/d1d/group___g_r_o_u_p___n_u_l_l_a_b_l_e_s___a_l_g_o_r_i_t_h_m_s.html" target="_top" xlink:title="Contains nullable algorithm related symbols.">
<polygon fill="white" stroke="#666666" points="180.88,-98.75 115.38,-98.75 115.38,-78 180.88,-78 180.88,-98.75"/>
<text text-anchor="middle" x="148.12" y="-85.25" font-family="Helvetica,sans-Serif" font-size="10.00">algorithms</text>
</a>
</g>
</g>
<!-- Node1&#45;&gt;Node3 -->
<g id="edge2" class="edge">
<title>Node1&#45;&gt;Node3</title>
<path fill="none" stroke="black" d="M68.07,-74.92C83.22,-77.5 100.42,-80.43 114.9,-82.89"/>
<polygon fill="black" stroke="black" points="68.92,-71.34 58.47,-73.11 67.74,-78.24 68.92,-71.34"/>
</g>
<!-- Node4 -->
<g id="node4" class="node">
<title>Node4</title>
<g id="a_node4"><a xlink:href="../../d5/d8f/group___g_r_o_u_p___n_u_l_l_a_b_l_e_s___c_u_s_t_o_m_i_z_a_t_i_o_n___p_o_i_n_t_s.html" target="_top" xlink:title="Contains several customization points, which users may hook for their custom types.">
<polygon fill="white" stroke="#666666" points="203,-59.75 93.25,-59.75 93.25,-39 203,-39 203,-59.75"/>
<text text-anchor="middle" x="148.12" y="-46.25" font-family="Helvetica,sans-Serif" font-size="10.00">customization points</text>
</a>
</g>
</g>
<!-- Node1&#45;&gt;Node4 -->
<g id="edge3" class="edge">
<title>Node1&#45;&gt;Node4</title>
<path fill="none" stroke="black" d="M68.29,-62.12C76.26,-60.83 84.79,-59.45 93.19,-58.1"/>
<polygon fill="black" stroke="black" points="67.78,-58.82 58.47,-63.87 68.9,-65.73 67.78,-58.82"/>
</g>
<!-- Node5 -->
<g id="node5" class="node">
<title>Node5</title>
<g id="a_node5"><a xlink:href="../../dd/dc8/group___g_r_o_u_p___n_u_l_l_a_b_l_e_s___t_r_a_i_t_s.html" target="_top" xlink:title="These traits are used by the algorithms and my be specialized by users for their custom types.">
<polygon fill="white" stroke="#666666" points="167.75,-20.75 128.5,-20.75 128.5,0 167.75,0 167.75,-20.75"/>
<text text-anchor="middle" x="148.12" y="-7.25" font-family="Helvetica,sans-Serif" font-size="10.00">traits</text>
</a>
</g>
</g>
<!-- Node1&#45;&gt;Node5 -->
<g id="edge4" class="edge">
<title>Node1&#45;&gt;Node5</title>
<path fill="none" stroke="black" d="M54.88,-51.84C66.33,-44.73 80.2,-36.63 93.25,-30.38 104.5,-24.98 117.6,-20.09 128.08,-16.49"/>
<polygon fill="black" stroke="black" points="53.49,-49.21 46.91,-57.52 57.23,-55.13 53.49,-49.21"/>
</g>
</g>
</svg>
