<?xml version="1.0" encoding="UTF-8" standalone="no"?>
<!DOCTYPE svg PUBLIC "-//W3C//DTD SVG 1.1//EN"
 "http://www.w3.org/Graphics/SVG/1.1/DTD/svg11.dtd">
<!-- Generated by graphviz version 2.43.0 (0)
 -->
<!-- Title: nullables Pages: 1 -->
<svg width="224pt" height="138pt"
 viewBox="0.00 0.00 224.00 138.00" xmlns="http://www.w3.org/2000/svg" xmlns:xlink="http://www.w3.org/1999/xlink">
<g id="graph0" class="graph" transform="scale(1 1) rotate(0) translate(4 134)">
<title>nullables</title>
<polygon fill="white" stroke="transparent" points="-4,4 -4,-134 220,-134 220,4 -4,4"/>
<!-- Node3 -->
<g id="node1" class="node">
<title>Node3</title>
<g id="a_node1"><a xlink:href="../../d6/d1d/group___g_r_o_u_p___n_u_l_l_a_b_l_e_s___a_l_g_o_r_i_t_h_m_s.html" target="_top" xlink:title="Contains nullable algorithm related symbols.">
<polygon fill="white" stroke="black" points="191,-130 122,-130 122,-111 191,-111 191,-130"/>
<text text-anchor="middle" x="156.5" y="-118" font-family="Helvetica,sans-Serif" font-size="10.00">algorithms</text>
</a>
</g>
</g>
<!-- Node2 -->
<g id="node2" class="node">
<title>Node2</title>
<g id="a_node2"><a xlink:href="../../df/dc9/group___g_r_o_u_p___n_u_l_l_a_b_l_e_s___a_d_a_p_t_e_r.html" target="_top" xlink:title=" ">
<polygon fill="white" stroke="black" points="183.5,-93 129.5,-93 129.5,-74 183.5,-74 183.5,-93"/>
<text text-anchor="middle" x="156.5" y="-81" font-family="Helvetica,sans-Serif" font-size="10.00">adapter</text>
</a>
</g>
</g>
<!-- Node4 -->
<g id="node3" class="node">
<title>Node4</title>
<g id="a_node3"><a xlink:href="../../d5/d8f/group___g_r_o_u_p___n_u_l_l_a_b_l_e_s___c_u_s_t_o_m_i_z_a_t_i_o_n___p_o_i_n_t_s.html" target="_top" xlink:title="Contains several customization points, which users may hook for their custom types.">
<polygon fill="white" stroke="black" points="216,-56 97,-56 97,-37 216,-37 216,-56"/>
<text text-anchor="middle" x="156.5" y="-44" font-family="Helvetica,sans-Serif" font-size="10.00">customization points</text>
</a>
</g>
</g>
<!-- Node5 -->
<g id="node4" class="node">
<title>Node5</title>
<g id="a_node4"><a xlink:href="../../dd/dc8/group___g_r_o_u_p___n_u_l_l_a_b_l_e_s___t_r_a_i_t_s.html" target="_top" xlink:title="These traits are used by the algorithms and my be specialized by users for their custom types.">
<polygon fill="white" stroke="black" points="177.5,-19 135.5,-19 135.5,0 177.5,0 177.5,-19"/>
<text text-anchor="middle" x="156.5" y="-7" font-family="Helvetica,sans-Serif" font-size="10.00">traits</text>
</a>
</g>
</g>
<!-- Node1 -->
<g id="node5" class="node">
<title>Node1</title>
<g id="a_node5"><a xlink:title="This library offers some simple algorithms for convenient working with nullable types.">
<polygon fill="#bfbfbf" stroke="black" points="61,-74 0,-74 0,-55 61,-55 61,-74"/>
<text text-anchor="middle" x="30.5" y="-62" font-family="Helvetica,sans-Serif" font-size="10.00">nullables</text>
</a>
</g>
</g>
<!-- Node1&#45;&gt;Node3 -->
<g id="edge2" class="edge">
<title>Node1&#45;&gt;Node3</title>
<path fill="none" stroke="black" d="M54.49,-79.57C66.76,-87.16 82.31,-96.08 97,-102.5 104.89,-105.95 113.64,-109.02 121.92,-111.6"/>
<polygon fill="black" stroke="black" points="56.15,-76.47 45.83,-74.09 52.41,-82.39 56.15,-76.47"/>
</g>
<!-- Node1&#45;&gt;Node2 -->
<g id="edge1" class="edge">
<title>Node1&#45;&gt;Node2</title>
<path fill="none" stroke="black" d="M71.11,-70.57C90.18,-73.49 112.51,-76.91 129.41,-79.5"/>
<polygon fill="black" stroke="black" points="71.62,-67.11 61.2,-69.05 70.56,-74.03 71.62,-67.11"/>
</g>
<!-- Node1&#45;&gt;Node4 -->
<g id="edge3" class="edge">
<title>Node1&#45;&gt;Node4</title>
<path fill="none" stroke="black" d="M71.2,-58.74C79.38,-57.55 88.16,-56.27 96.86,-55.01"/>
<polygon fill="black" stroke="black" points="70.59,-55.29 61.2,-60.19 71.6,-62.22 70.59,-55.29"/>
</g>
<!-- Node1&#45;&gt;Node5 -->
<g id="edge4" class="edge">
<title>Node1&#45;&gt;Node5</title>
<path fill="none" stroke="black" d="M55.6,-49.83C67.75,-42.8 82.86,-34.62 97,-28.5 109.45,-23.12 123.94,-18.4 135.39,-15.01"/>
<polygon fill="black" stroke="black" points="53.8,-46.82 46.96,-54.91 57.36,-52.86 53.8,-46.82"/>
</g>
</g>
</svg>
