<?xml version="1.0" encoding="UTF-8" standalone="no"?>
<!DOCTYPE svg PUBLIC "-//W3C//DTD SVG 1.1//EN"
 "http://www.w3.org/Graphics/SVG/1.1/DTD/svg11.dtd">
<!-- Generated by graphviz version 7.0.5 (20221223.1930)
 -->
<!-- Title: nullables Pages: 1 -->
<svg width="212pt" height="138pt"
 viewBox="0.00 0.00 212.00 138.00" xmlns="http://www.w3.org/2000/svg" xmlns:xlink="http://www.w3.org/1999/xlink">
<g id="graph0" class="graph" transform="scale(1 1) rotate(0) translate(4 134)">
<title>nullables</title>
<!-- Node1 -->
<g id="node1" class="node">
<title>Node1</title>
<g id="a_node1"><a xlink:title="This library offers some simple algorithms for convenient working with nullable types.">
<polygon fill="#999999" stroke="#666666" points="58,-74 0,-74 0,-55 58,-55 58,-74"/>
<text text-anchor="middle" x="29" y="-62" font-family="Helvetica,sans-Serif" font-size="10.00">nullables</text>
</a>
</g>
</g>
<!-- Node2 -->
<g id="node2" class="node">
<title>Node2</title>
<g id="a_node2"><a xlink:href="../../df/dc9/group___g_r_o_u_p___n_u_l_l_a_b_l_e_s___a_d_a_p_t_e_r.html" target="_top" xlink:title=" ">
<polygon fill="white" stroke="#666666" points="175,-130 123,-130 123,-111 175,-111 175,-130"/>
<text text-anchor="middle" x="149" y="-118" font-family="Helvetica,sans-Serif" font-size="10.00">adapter</text>
</a>
</g>
</g>
<!-- Node1&#45;&gt;Node2 -->
<g id="edge1" class="edge">
<title>Node1&#45;&gt;Node2</title>
<path fill="none" stroke="black" d="M54.02,-80.42C65.75,-87.77 80.27,-96.23 94,-102.5 103.08,-106.65 113.4,-110.33 122.57,-113.26"/>
<polygon fill="black" stroke="black" points="56.1,-77.6 45.79,-75.16 52.32,-83.49 56.1,-77.6"/>
</g>
<!-- Node3 -->
<g id="node3" class="node">
<title>Node3</title>
<g id="a_node3"><a xlink:href="../../d6/d1d/group___g_r_o_u_p___n_u_l_l_a_b_l_e_s___a_l_g_o_r_i_t_h_m_s.html" target="_top" xlink:title="Contains nullable algorithm related symbols.">
<polygon fill="white" stroke="#666666" points="182,-93 116,-93 116,-74 182,-74 182,-93"/>
<text text-anchor="middle" x="149" y="-81" font-family="Helvetica,sans-Serif" font-size="10.00">algorithms</text>
</a>
</g>
</g>
<!-- Node1&#45;&gt;Node3 -->
<g id="edge2" class="edge">
<title>Node1&#45;&gt;Node3</title>
<path fill="none" stroke="black" d="M69.35,-70.84C84.43,-73.26 101.46,-76.01 115.8,-78.32"/>
<polygon fill="black" stroke="black" points="70.19,-67.43 59.76,-69.29 69.07,-74.34 70.19,-67.43"/>
</g>
<!-- Node4 -->
<g id="node4" class="node">
<title>Node4</title>
<g id="a_node4"><a xlink:href="../../d5/d8f/group___g_r_o_u_p___n_u_l_l_a_b_l_e_s___c_u_s_t_o_m_i_z_a_t_i_o_n___p_o_i_n_t_s.html" target="_top" xlink:title="Contains several customization points, which users may hook for their custom types.">
<polygon fill="white" stroke="#666666" points="204,-56 94,-56 94,-37 204,-37 204,-56"/>
<text text-anchor="middle" x="149" y="-44" font-family="Helvetica,sans-Serif" font-size="10.00">customization points</text>
</a>
</g>
</g>
<!-- Node1&#45;&gt;Node4 -->
<g id="edge3" class="edge">
<title>Node1&#45;&gt;Node4</title>
<path fill="none" stroke="black" d="M69.53,-58.47C77.26,-57.29 85.49,-56.04 93.61,-54.8"/>
<polygon fill="black" stroke="black" points="69.12,-54.99 59.76,-59.96 70.17,-61.91 69.12,-54.99"/>
</g>
<!-- Node5 -->
<g id="node5" class="node">
<title>Node5</title>
<g id="a_node5"><a xlink:href="../../dd/dc8/group___g_r_o_u_p___n_u_l_l_a_b_l_e_s___t_r_a_i_t_s.html" target="_top" xlink:title="These traits are used by the algorithms and my be specialized by users for their custom types.">
<polygon fill="white" stroke="#666666" points="169,-19 129,-19 129,0 169,0 169,-19"/>
<text text-anchor="middle" x="149" y="-7" font-family="Helvetica,sans-Serif" font-size="10.00">traits</text>
</a>
</g>
</g>
<!-- Node1&#45;&gt;Node5 -->
<g id="edge4" class="edge">
<title>Node1&#45;&gt;Node5</title>
<path fill="none" stroke="black" d="M55.69,-48.7C67.17,-41.99 81.02,-34.38 94,-28.5 105.23,-23.41 118.25,-18.8 128.69,-15.39"/>
<polygon fill="black" stroke="black" points="54,-45.63 47.2,-53.75 57.59,-51.64 54,-45.63"/>
</g>
</g>
</svg>
