<?xml version="1.0" encoding="UTF-8" standalone="no"?>
<!DOCTYPE svg PUBLIC "-//W3C//DTD SVG 1.1//EN"
 "http://www.w3.org/Graphics/SVG/1.1/DTD/svg11.dtd">
<!-- Generated by graphviz version 7.0.5 (20221223.1930)
 -->
<!-- Title: sl::tuple::is_apply_invocable&lt; TFunc, TTuple &gt; Pages: 1 -->
<svg width="754pt" height="76pt"
 viewBox="0.00 0.00 754.00 75.50" xmlns="http://www.w3.org/2000/svg" xmlns:xlink="http://www.w3.org/1999/xlink">
<g id="graph0" class="graph" transform="scale(1 1) rotate(0) translate(4 71.5)">
<title>sl::tuple::is_apply_invocable&lt; TFunc, TTuple &gt;</title>
<!-- Node1 -->
<g id="node1" class="node">
<title>Node1</title>
<g id="a_node1"><a xlink:title="Trait type determining whether the function is invocable with elements of the given tuple.">
<polygon fill="#999999" stroke="#666666" points="746,-51 601,-51 601,-21 746,-21 746,-51"/>
<text text-anchor="start" x="609" y="-39" font-family="Helvetica,sans-Serif" font-size="10.00">sl::tuple::is_apply</text>
<text text-anchor="middle" x="673.5" y="-28" font-family="Helvetica,sans-Serif" font-size="10.00">_invocable&lt; TFunc, TTuple &gt;</text>
</a>
</g>
</g>
<!-- Node2 -->
<g id="node2" class="node">
<title>Node2</title>
<g id="a_node2"><a xlink:title=" ">
<polygon fill="white" stroke="#666666" points="564,-67.5 424,-67.5 424,-4.5 564,-4.5 564,-67.5"/>
<text text-anchor="start" x="432" y="-55.5" font-family="Helvetica,sans-Serif" font-size="10.00">sl::tuple::detail::</text>
<text text-anchor="start" x="432" y="-44.5" font-family="Helvetica,sans-Serif" font-size="10.00">is_apply_invocable&lt;</text>
<text text-anchor="start" x="432" y="-33.5" font-family="Helvetica,sans-Serif" font-size="10.00"> TFunc, TTuple, std::</text>
<text text-anchor="start" x="432" y="-22.5" font-family="Helvetica,sans-Serif" font-size="10.00">make_index_sequence&lt; std</text>
<text text-anchor="middle" x="494" y="-11.5" font-family="Helvetica,sans-Serif" font-size="10.00">::tuple_size_v&lt; TTuple &gt; &gt; &gt;</text>
</a>
</g>
</g>
<!-- Node2&#45;&gt;Node1 -->
<g id="edge1" class="edge">
<title>Node2&#45;&gt;Node1</title>
<path fill="none" stroke="#63b8ff" d="M575.62,-36C583.93,-36 592.33,-36 600.53,-36"/>
<polygon fill="#63b8ff" stroke="#63b8ff" points="575.9,-32.5 565.9,-36 575.9,-39.5 575.9,-32.5"/>
</g>
<!-- Node3 -->
<g id="node3" class="node">
<title>Node3</title>
<g id="a_node3"><a xlink:title=" ">
<polygon fill="white" stroke="#666666" points="82,-47.5 0,-47.5 0,-28.5 82,-28.5 82,-47.5"/>
<text text-anchor="middle" x="41" y="-35.5" font-family="Helvetica,sans-Serif" font-size="10.00">std::false_type</text>
</a>
</g>
</g>
<!-- Node3&#45;&gt;Node2 -->
<g id="edge2" class="edge">
<title>Node3&#45;&gt;Node2</title>
<path fill="none" stroke="#63b8ff" d="M93.65,-41.7C164.25,-46.18 294.81,-52.37 406,-46 411.77,-45.67 417.74,-45.22 423.73,-44.69"/>
<polygon fill="#63b8ff" stroke="#63b8ff" points="94.15,-38.23 83.95,-41.07 93.7,-45.22 94.15,-38.23"/>
</g>
<!-- Node4 -->
<g id="node4" class="node">
<title>Node4</title>
<g id="a_node4"><a xlink:title=" ">
<polygon fill="white" stroke="#666666" points="241,-30 119,-30 119,0 241,0 241,-30"/>
<text text-anchor="start" x="127" y="-18" font-family="Helvetica,sans-Serif" font-size="10.00">sl::tuple::detail::</text>
<text text-anchor="middle" x="180" y="-7" font-family="Helvetica,sans-Serif" font-size="10.00">is_apply_invocable&lt;... &gt;</text>
</a>
</g>
</g>
<!-- Node3&#45;&gt;Node4 -->
<g id="edge4" class="edge">
<title>Node3&#45;&gt;Node4</title>
<path fill="none" stroke="#63b8ff" d="M93.62,-29.33C101.78,-27.96 110.27,-26.54 118.61,-25.14"/>
<polygon fill="#63b8ff" stroke="#63b8ff" points="93.14,-25.87 83.86,-30.97 94.3,-32.77 93.14,-25.87"/>
</g>
<!-- Node4&#45;&gt;Node2 -->
<g id="edge3" class="edge">
<title>Node4&#45;&gt;Node2</title>
<path fill="none" stroke="orange" stroke-dasharray="5,2" d="M252.69,-9.35C297.04,-7.09 355.04,-6.38 406,-13 411.73,-13.74 417.63,-14.75 423.51,-15.94"/>
<polygon fill="orange" stroke="orange" points="252.74,-5.84 242.95,-9.88 253.12,-12.83 252.74,-5.84"/>
<text text-anchor="start" x="259" y="-38" font-family="Helvetica,sans-Serif" font-size="10.00"> &lt; TFunc, TTuple, std</text>
<text text-anchor="start" x="259" y="-27" font-family="Helvetica,sans-Serif" font-size="10.00">::make_index_sequence</text>
<text text-anchor="middle" x="332.5" y="-16" font-family="Helvetica,sans-Serif" font-size="10.00">&lt; std::tuple_size_v&lt; TTuple &gt; &gt; &gt;</text>
</g>
</g>
</svg>
