<?xml version="1.0" encoding="UTF-8" standalone="no"?>
<!DOCTYPE svg PUBLIC "-//W3C//DTD SVG 1.1//EN"
 "http://www.w3.org/Graphics/SVG/1.1/DTD/svg11.dtd">
<!-- Generated by graphviz version 7.0.5 (20221223.1930)
 -->
<!-- Title: sl::tuple::is_apply_invocable&lt; TFunc, TTuple &gt; Pages: 1 -->
<!--zoomable 76 -->
<svg id="main" version="1.1" xmlns="http://www.w3.org/2000/svg" xmlns:xlink="http://www.w3.org/1999/xlink" xml:space="preserve" onload="init(evt)">
<style type="text/css"><![CDATA[
.edge:hover path { stroke: red; }
.edge:hover polygon { stroke: red; fill: red; }
]]></style>
<script type="text/javascript"><![CDATA[
var edges = document.getElementsByTagName('g');
if (edges && edges.length) {
  for (var i=0;i<edges.length;i++) {
    if (edges[i].id.substr(0,4)=='edge') {
      edges[i].setAttribute('class','edge');
    }
  }
}
]]></script>
        <defs>
                <circle id="rim" cx="0" cy="0" r="7"/>
                <circle id="rim2" cx="0" cy="0" r="3.5"/>
                <g id="zoomPlus">
                        <use xlink:href="#rim" fill="#404040">
                                <set attributeName="fill" to="#808080" begin="zoomplus.mouseover" end="zoomplus.mouseout"/>
                        </use>
                        <path d="M-4,0h8M0,-4v8" fill="none" stroke="white" stroke-width="1.5" pointer-events="none"/>
                </g>
                <g id="zoomMin">
                        <use xlink:href="#rim" fill="#404040">
                                <set attributeName="fill" to="#808080" begin="zoomminus.mouseover" end="zoomminus.mouseout"/>
                        </use>
                        <path d="M-4,0h8" fill="none" stroke="white" stroke-width="1.5" pointer-events="none"/>
                </g>
                <g id="dirArrow">
                        <path fill="none" stroke="white" stroke-width="1.5" d="M0,-3.0v7 M-2.5,-0.5L0,-3.0L2.5,-0.5"/>
                </g>
               <g id="resetDef">
                       <use xlink:href="#rim2" fill="#404040">
                               <set attributeName="fill" to="#808080" begin="reset.mouseover" end="reset.mouseout"/>
                       </use>
               </g>
        </defs>

<script type="text/javascript">
var viewWidth = 754;
var viewHeight = 76;
var sectionId = 'dynsection-0';
</script>
<script xlink:href="../../svgpan.js"/>
<svg id="graph" class="graph">
<g id="viewport">
<title>sl::tuple::is_apply_invocable&lt; TFunc, TTuple &gt;</title>
<!-- Node1 -->
<g id="node1" class="node">
<title>Node1</title>
<g id="a_node1"><a xlink:title="Trait type determining whether the function is invocable with elements of the given tuple.">
<polygon fill="#999999" stroke="#666666" points="746,-51 601,-51 601,-21 746,-21 746,-51"/>
<text text-anchor="start" x="609" y="-39" font-family="Helvetica,sans-Serif" font-size="10.00">sl::tuple::is_apply</text>
<text text-anchor="middle" x="673.5" y="-28" font-family="Helvetica,sans-Serif" font-size="10.00">_invocable&lt; TFunc, TTuple &gt;</text>
</a>
</g>
</g>
<!-- Node2 -->
<g id="node2" class="node">
<title>Node2</title>
<g id="a_node2"><a xlink:title=" ">
<polygon fill="white" stroke="#666666" points="564,-67.5 424,-67.5 424,-4.5 564,-4.5 564,-67.5"/>
<text text-anchor="start" x="432" y="-55.5" font-family="Helvetica,sans-Serif" font-size="10.00">sl::tuple::detail::</text>
<text text-anchor="start" x="432" y="-44.5" font-family="Helvetica,sans-Serif" font-size="10.00">is_apply_invocable&lt;</text>
<text text-anchor="start" x="432" y="-33.5" font-family="Helvetica,sans-Serif" font-size="10.00"> TFunc, TTuple, std::</text>
<text text-anchor="start" x="432" y="-22.5" font-family="Helvetica,sans-Serif" font-size="10.00">make_index_sequence&lt; std</text>
<text text-anchor="middle" x="494" y="-11.5" font-family="Helvetica,sans-Serif" font-size="10.00">::tuple_size_v&lt; TTuple &gt; &gt; &gt;</text>
</a>
</g>
</g>
<!-- Node2&#45;&gt;Node1 -->
<g id="edge1" class="edge">
<title>Node2&#45;&gt;Node1</title>
<path fill="none" stroke="#63b8ff" d="M575.62,-36C583.93,-36 592.33,-36 600.53,-36"/>
<polygon fill="#63b8ff" stroke="#63b8ff" points="575.9,-32.5 565.9,-36 575.9,-39.5 575.9,-32.5"/>
</g>
<!-- Node3 -->
<g id="node3" class="node">
<title>Node3</title>
<g id="a_node3"><a xlink:title=" ">
<polygon fill="white" stroke="#666666" points="82,-47.5 0,-47.5 0,-28.5 82,-28.5 82,-47.5"/>
<text text-anchor="middle" x="41" y="-35.5" font-family="Helvetica,sans-Serif" font-size="10.00">std::false_type</text>
</a>
</g>
</g>
<!-- Node3&#45;&gt;Node2 -->
<g id="edge2" class="edge">
<title>Node3&#45;&gt;Node2</title>
<path fill="none" stroke="#63b8ff" d="M93.65,-41.7C164.25,-46.18 294.81,-52.37 406,-46 411.77,-45.67 417.74,-45.22 423.73,-44.69"/>
<polygon fill="#63b8ff" stroke="#63b8ff" points="94.15,-38.23 83.95,-41.07 93.7,-45.22 94.15,-38.23"/>
</g>
<!-- Node4 -->
<g id="node4" class="node">
<title>Node4</title>
<g id="a_node4"><a xlink:title=" ">
<polygon fill="white" stroke="#666666" points="241,-30 119,-30 119,0 241,0 241,-30"/>
<text text-anchor="start" x="127" y="-18" font-family="Helvetica,sans-Serif" font-size="10.00">sl::tuple::detail::</text>
<text text-anchor="middle" x="180" y="-7" font-family="Helvetica,sans-Serif" font-size="10.00">is_apply_invocable&lt;... &gt;</text>
</a>
</g>
</g>
<!-- Node3&#45;&gt;Node4 -->
<g id="edge4" class="edge">
<title>Node3&#45;&gt;Node4</title>
<path fill="none" stroke="#63b8ff" d="M93.62,-29.33C101.78,-27.96 110.27,-26.54 118.61,-25.14"/>
<polygon fill="#63b8ff" stroke="#63b8ff" points="93.14,-25.87 83.86,-30.97 94.3,-32.77 93.14,-25.87"/>
</g>
<!-- Node4&#45;&gt;Node2 -->
<g id="edge3" class="edge">
<title>Node4&#45;&gt;Node2</title>
<path fill="none" stroke="orange" stroke-dasharray="5,2" d="M252.69,-9.35C297.04,-7.09 355.04,-6.38 406,-13 411.73,-13.74 417.63,-14.75 423.51,-15.94"/>
<polygon fill="orange" stroke="orange" points="252.74,-5.84 242.95,-9.88 253.12,-12.83 252.74,-5.84"/>
<text text-anchor="start" x="259" y="-38" font-family="Helvetica,sans-Serif" font-size="10.00"> &lt; TFunc, TTuple, std</text>
<text text-anchor="start" x="259" y="-27" font-family="Helvetica,sans-Serif" font-size="10.00">::make_index_sequence</text>
<text text-anchor="middle" x="332.5" y="-16" font-family="Helvetica,sans-Serif" font-size="10.00">&lt; std::tuple_size_v&lt; TTuple &gt; &gt; &gt;</text>
</g>
</g>
</svg>
        <g id="navigator" transform="translate(0 0)" fill="#404254">
                <rect fill="#f2f5e9" fill-opacity="0.5" stroke="#606060" stroke-width=".5" x="0" y="0" width="60" height="60"/>
                <use id="zoomplus" xlink:href="#zoomPlus" x="17" y="9" onmousedown="handleZoom(evt,'in')"/>
                <use id="zoomminus" xlink:href="#zoomMin" x="42" y="9" onmousedown="handleZoom(evt,'out')"/>
                <use id="reset" xlink:href="#resetDef" x="30" y="36" onmousedown="handleReset()"/>
                <g id="arrowUp" xlink:href="#dirArrow" transform="translate(30 24)" onmousedown="handlePan(0,-1)">
                  <use xlink:href="#rim" fill="#404040">
                        <set attributeName="fill" to="#808080" begin="arrowUp.mouseover" end="arrowUp.mouseout"/>
                  </use>
                  <path fill="none" stroke="white" stroke-width="1.5" d="M0,-3.0v7 M-2.5,-0.5L0,-3.0L2.5,-0.5"/>
                </g>
                <g id="arrowRight" xlink:href="#dirArrow" transform="rotate(90) translate(36 -43)" onmousedown="handlePan(1,0)">
                  <use xlink:href="#rim" fill="#404040">
                        <set attributeName="fill" to="#808080" begin="arrowRight.mouseover" end="arrowRight.mouseout"/>
                  </use>
                  <path fill="none" stroke="white" stroke-width="1.5" d="M0,-3.0v7 M-2.5,-0.5L0,-3.0L2.5,-0.5"/>
                </g>
                <g id="arrowDown" xlink:href="#dirArrow" transform="rotate(180) translate(-30 -48)" onmousedown="handlePan(0,1)">
                  <use xlink:href="#rim" fill="#404040">
                        <set attributeName="fill" to="#808080" begin="arrowDown.mouseover" end="arrowDown.mouseout"/>
                  </use>
                  <path fill="none" stroke="white" stroke-width="1.5" d="M0,-3.0v7 M-2.5,-0.5L0,-3.0L2.5,-0.5"/>
                </g>
                <g id="arrowLeft" xlink:href="#dirArrow" transform="rotate(270) translate(-36 17)" onmousedown="handlePan(-1,0)">
                  <use xlink:href="#rim" fill="#404040">
                        <set attributeName="fill" to="#808080" begin="arrowLeft.mouseover" end="arrowLeft.mouseout"/>
                  </use>
                  <path fill="none" stroke="white" stroke-width="1.5" d="M0,-3.0v7 M-2.5,-0.5L0,-3.0L2.5,-0.5"/>
                </g>
        </g>
        <svg viewBox="0 0 15 15" width="100%" height="30px" preserveAspectRatio="xMaxYMin meet">
         <g id="arrow_out" transform="scale(0.3 0.3)">
          <a xlink:href="structsl_1_1tuple_1_1is__apply__invocable__inherit__graph_org.svg" target="_base">
           <rect id="button" ry="5" rx="5" y="6" x="6" height="38" width="38"
                fill="#f2f5e9" fill-opacity="0.5" stroke="#606060" stroke-width="1.0"/>
           <path id="arrow"
             d="M 11.500037,31.436501 C 11.940474,20.09759 22.043105,11.32322 32.158766,21.979434 L 37.068811,17.246167 C 37.068811,17.246167 37.088388,32 37.088388,32 L 22.160133,31.978069 C 22.160133,31.978069 26.997745,27.140456 26.997745,27.140456 C 18.528582,18.264221 13.291696,25.230495 11.500037,31.436501 z"
             style="fill:#404040;"/>
          </a>
         </g>
        </svg>
</svg>
