<?xml version="1.0" encoding="UTF-8" standalone="no"?>
<!DOCTYPE svg PUBLIC "-//W3C//DTD SVG 1.1//EN"
 "http://www.w3.org/Graphics/SVG/1.1/DTD/svg11.dtd">
<!-- Generated by graphviz version 2.43.0 (0)
 -->
<!-- Title: sl::tuple::is_apply_invocable&lt; TFunc, TTuple &gt; Pages: 1 -->
<svg width="833pt" height="78pt"
 viewBox="0.00 0.00 833.00 77.50" xmlns="http://www.w3.org/2000/svg" xmlns:xlink="http://www.w3.org/1999/xlink">
<g id="graph0" class="graph" transform="scale(1 1) rotate(0) translate(4 73.5)">
<title>sl::tuple::is_apply_invocable&lt; TFunc, TTuple &gt;</title>
<polygon fill="white" stroke="transparent" points="-4,4 -4,-73.5 829,-73.5 829,4 -4,4"/>
<!-- Node1 -->
<g id="node1" class="node">
<title>Node1</title>
<g id="a_node1"><a xlink:title="Trait type determining whether the function is invocable with elements of the given tuple.">
<polygon fill="#bfbfbf" stroke="black" points="667,-22.5 667,-52.5 825,-52.5 825,-22.5 667,-22.5"/>
<text text-anchor="start" x="675" y="-40.5" font-family="Helvetica,sans-Serif" font-size="10.00">sl::tuple::is_apply</text>
<text text-anchor="middle" x="746" y="-29.5" font-family="Helvetica,sans-Serif" font-size="10.00">_invocable&lt; TFunc, TTuple &gt;</text>
</a>
</g>
</g>
<!-- Node2 -->
<g id="node2" class="node">
<title>Node2</title>
<g id="a_node2"><a xlink:title=" ">
<polygon fill="white" stroke="#bfbfbf" points="470,-6 470,-69 630,-69 630,-6 470,-6"/>
<text text-anchor="start" x="478" y="-57" font-family="Helvetica,sans-Serif" font-size="10.00">sl::tuple::detail::</text>
<text text-anchor="start" x="478" y="-46" font-family="Helvetica,sans-Serif" font-size="10.00">is_apply_invocable&lt;</text>
<text text-anchor="start" x="478" y="-35" font-family="Helvetica,sans-Serif" font-size="10.00"> TFunc, TTuple, std::</text>
<text text-anchor="start" x="478" y="-24" font-family="Helvetica,sans-Serif" font-size="10.00">make_index_sequence&lt; std</text>
<text text-anchor="middle" x="550" y="-13" font-family="Helvetica,sans-Serif" font-size="10.00">::tuple_size_v&lt; TTuple &gt; &gt; &gt;</text>
</a>
</g>
</g>
<!-- Node2&#45;&gt;Node1 -->
<g id="edge1" class="edge">
<title>Node2&#45;&gt;Node1</title>
<path fill="none" stroke="midnightblue" d="M640.43,-37.5C649.2,-37.5 658.05,-37.5 666.69,-37.5"/>
<polygon fill="midnightblue" stroke="midnightblue" points="640.19,-34 630.19,-37.5 640.19,-41 640.19,-34"/>
</g>
<!-- Node3 -->
<g id="node3" class="node">
<title>Node3</title>
<g id="a_node3"><a xlink:title=" ">
<polygon fill="white" stroke="#bfbfbf" points="0,-30 0,-49 89,-49 89,-30 0,-30"/>
<text text-anchor="middle" x="44.5" y="-37" font-family="Helvetica,sans-Serif" font-size="10.00">std::false_type</text>
</a>
</g>
</g>
<!-- Node3&#45;&gt;Node2 -->
<g id="edge2" class="edge">
<title>Node3&#45;&gt;Node2</title>
<path fill="none" stroke="midnightblue" d="M99.28,-43.13C101.89,-43.26 104.47,-43.39 107,-43.5 260.2,-50.23 298.86,-55.37 452,-47.5 457.83,-47.2 463.86,-46.8 469.91,-46.33"/>
<polygon fill="midnightblue" stroke="midnightblue" points="99.34,-39.63 89.16,-42.57 98.95,-46.62 99.34,-39.63"/>
</g>
<!-- Node4 -->
<g id="node4" class="node">
<title>Node4</title>
<g id="a_node4"><a xlink:title=" ">
<polygon fill="white" stroke="#bfbfbf" points="126,-0.5 126,-30.5 264,-30.5 264,-0.5 126,-0.5"/>
<text text-anchor="start" x="134" y="-18.5" font-family="Helvetica,sans-Serif" font-size="10.00">sl::tuple::detail::</text>
<text text-anchor="middle" x="195" y="-7.5" font-family="Helvetica,sans-Serif" font-size="10.00">is_apply_invocable&lt;... &gt;</text>
</a>
</g>
</g>
<!-- Node3&#45;&gt;Node4 -->
<g id="edge4" class="edge">
<title>Node3&#45;&gt;Node4</title>
<path fill="none" stroke="midnightblue" d="M99.17,-30.83C107.81,-29.43 116.85,-27.97 125.77,-26.53"/>
<polygon fill="midnightblue" stroke="midnightblue" points="98.57,-27.38 89.25,-32.43 99.68,-34.29 98.57,-27.38"/>
</g>
<!-- Node4&#45;&gt;Node2 -->
<g id="edge3" class="edge">
<title>Node4&#45;&gt;Node2</title>
<path fill="none" stroke="orange" stroke-dasharray="5,2" d="M274.42,-10.33C325.23,-8.18 392.74,-7.57 452,-14.5 457.84,-15.18 463.85,-16.09 469.86,-17.15"/>
<polygon fill="orange" stroke="orange" points="273.99,-6.85 264.16,-10.8 274.31,-13.84 273.99,-6.85"/>
<text text-anchor="start" x="282" y="-39.5" font-family="Helvetica,sans-Serif" font-size="10.00"> &lt; TFunc, TTuple, std</text>
<text text-anchor="start" x="282" y="-28.5" font-family="Helvetica,sans-Serif" font-size="10.00">::make_index_sequence</text>
<text text-anchor="middle" x="367" y="-17.5" font-family="Helvetica,sans-Serif" font-size="10.00">&lt; std::tuple_size_v&lt; TTuple &gt; &gt; &gt;</text>
</g>
</g>
</svg>
