<?xml version="1.0" encoding="UTF-8" standalone="no"?>
<!DOCTYPE svg PUBLIC "-//W3C//DTD SVG 1.1//EN"
 "http://www.w3.org/Graphics/SVG/1.1/DTD/svg11.dtd">
<!-- Generated by graphviz version 8.0.5 (20230430.1635)
 -->
<!-- Title: Simple&#45;Utility/tuple/General.hpp Pages: 1 -->
<svg width="342pt" height="155pt"
 viewBox="0.00 0.00 341.62 155.00" xmlns="http://www.w3.org/2000/svg" xmlns:xlink="http://www.w3.org/1999/xlink">
<g id="graph0" class="graph" transform="scale(1 1) rotate(0) translate(4 151)">
<title>Simple&#45;Utility/tuple/General.hpp</title>
<!-- Node1 -->
<g id="node1" class="node">
<title>Node1</title>
<g id="a_node1"><a xlink:title=" ">
<polygon fill="#999999" stroke="#666666" points="216.5,-147 112,-147 112,-113.5 216.5,-113.5 216.5,-147"/>
<text text-anchor="start" x="120" y="-133.5" font-family="Helvetica,sans-Serif" font-size="10.00">Simple&#45;Utility/tuple</text>
<text text-anchor="middle" x="164.25" y="-120.75" font-family="Helvetica,sans-Serif" font-size="10.00">/General.hpp</text>
</a>
</g>
</g>
<!-- Node2 -->
<g id="node2" class="node">
<title>Node2</title>
<g id="a_node2"><a xlink:title=" ">
<polygon fill="#e0e0e0" stroke="#999999" points="56.5,-20.75 0,-20.75 0,0 56.5,0 56.5,-20.75"/>
<text text-anchor="middle" x="28.25" y="-7.25" font-family="Helvetica,sans-Serif" font-size="10.00">concepts</text>
</a>
</g>
</g>
<!-- Node1&#45;&gt;Node2 -->
<g id="edge1" class="edge">
<title>Node1&#45;&gt;Node2</title>
<path fill="none" stroke="#63b8ff" d="M130.35,-113.15C113.33,-104.1 93.03,-91.76 77.25,-77.5 61.89,-63.62 48.23,-44.28 39.26,-30.1"/>
<polygon fill="#63b8ff" stroke="#63b8ff" points="41.8,-28.55 33.6,-21.84 35.82,-32.2 41.8,-28.55"/>
</g>
<!-- Node3 -->
<g id="node3" class="node">
<title>Node3</title>
<g id="a_node3"><a xlink:title=" ">
<polygon fill="#e0e0e0" stroke="#999999" points="113.88,-20.75 74.62,-20.75 74.62,0 113.88,0 113.88,-20.75"/>
<text text-anchor="middle" x="94.25" y="-7.25" font-family="Helvetica,sans-Serif" font-size="10.00">tuple</text>
</a>
</g>
</g>
<!-- Node1&#45;&gt;Node3 -->
<g id="edge2" class="edge">
<title>Node1&#45;&gt;Node3</title>
<path fill="none" stroke="#63b8ff" d="M124.42,-113.21C109.33,-104.94 93.75,-93.22 85.25,-77.5 77.51,-63.18 80.98,-44.67 85.68,-30.88"/>
<polygon fill="#63b8ff" stroke="#63b8ff" points="89.16,-32.59 89.52,-22 82.63,-30.05 89.16,-32.59"/>
</g>
<!-- Node4 -->
<g id="node4" class="node">
<title>Node4</title>
<g id="a_node4"><a xlink:title=" ">
<polygon fill="#e0e0e0" stroke="#999999" points="275.25,-20.75 211.25,-20.75 211.25,0 275.25,0 275.25,-20.75"/>
<text text-anchor="middle" x="243.25" y="-7.25" font-family="Helvetica,sans-Serif" font-size="10.00">type_traits</text>
</a>
</g>
</g>
<!-- Node1&#45;&gt;Node4 -->
<g id="edge3" class="edge">
<title>Node1&#45;&gt;Node4</title>
<path fill="none" stroke="#63b8ff" d="M203.47,-113.03C218.36,-104.73 233.76,-93.04 242.25,-77.5 249.83,-63.63 249.55,-45.55 247.66,-31.81"/>
<polygon fill="#63b8ff" stroke="#63b8ff" points="250.95,-31.29 245.76,-22.06 244.06,-32.51 250.95,-31.29"/>
</g>
<!-- Node5 -->
<g id="node5" class="node">
<title>Node5</title>
<g id="a_node5"><a xlink:title=" ">
<polygon fill="#e0e0e0" stroke="#999999" points="333.62,-20.75 292.88,-20.75 292.88,0 333.62,0 333.62,-20.75"/>
<text text-anchor="middle" x="313.25" y="-7.25" font-family="Helvetica,sans-Serif" font-size="10.00">utility</text>
</a>
</g>
</g>
<!-- Node1&#45;&gt;Node5 -->
<g id="edge4" class="edge">
<title>Node1&#45;&gt;Node5</title>
<path fill="none" stroke="#63b8ff" d="M202.43,-113.04C220.98,-104.12 242.94,-91.92 260.25,-77.5 276.78,-63.72 291.72,-44.11 301.49,-29.82"/>
<polygon fill="#63b8ff" stroke="#63b8ff" points="304.79,-32.19 307.39,-21.92 298.95,-28.32 304.79,-32.19"/>
</g>
<!-- Node6 -->
<g id="node6" class="node">
<title>Node6</title>
<g id="a_node6"><a xlink:href="../../df/d2e/_type_list_8hpp.html" target="_top" xlink:title=" ">
<polygon fill="white" stroke="#666666" points="233.75,-77.5 94.75,-77.5 94.75,-56.75 233.75,-56.75 233.75,-77.5"/>
<text text-anchor="middle" x="164.25" y="-64" font-family="Helvetica,sans-Serif" font-size="10.00">Simple&#45;Utility/TypeList.hpp</text>
</a>
</g>
</g>
<!-- Node1&#45;&gt;Node6 -->
<g id="edge5" class="edge">
<title>Node1&#45;&gt;Node6</title>
<path fill="none" stroke="#63b8ff" d="M164.25,-113.19C164.25,-105.77 164.25,-96.86 164.25,-88.93"/>
<polygon fill="#63b8ff" stroke="#63b8ff" points="167.75,-88.97 164.25,-78.97 160.75,-88.97 167.75,-88.97"/>
</g>
<!-- Node6&#45;&gt;Node2 -->
<g id="edge7" class="edge">
<title>Node6&#45;&gt;Node2</title>
<path fill="none" stroke="#63b8ff" d="M139.94,-56.34C118.37,-47.66 86.64,-34.88 62.51,-25.17"/>
<polygon fill="#63b8ff" stroke="#63b8ff" points="63.94,-21.57 53.35,-21.08 61.32,-28.06 63.94,-21.57"/>
</g>
<!-- Node6&#45;&gt;Node3 -->
<g id="edge8" class="edge">
<title>Node6&#45;&gt;Node3</title>
<path fill="none" stroke="#63b8ff" d="M151.74,-56.34C141.58,-48.4 127.05,-37.03 115.14,-27.71"/>
<polygon fill="#63b8ff" stroke="#63b8ff" points="117.69,-24.48 107.66,-21.08 113.38,-30 117.69,-24.48"/>
</g>
<!-- Node6&#45;&gt;Node4 -->
<g id="edge9" class="edge">
<title>Node6&#45;&gt;Node4</title>
<path fill="none" stroke="#63b8ff" d="M178.37,-56.34C190.06,-48.24 206.88,-36.58 220.46,-27.17"/>
<polygon fill="#63b8ff" stroke="#63b8ff" points="222.02,-29.65 228.25,-21.08 218.04,-23.9 222.02,-29.65"/>
</g>
<!-- Node6&#45;&gt;Node5 -->
<g id="edge10" class="edge">
<title>Node6&#45;&gt;Node5</title>
<path fill="none" stroke="#63b8ff" d="M190.89,-56.34C216.6,-46.89 255.51,-32.59 282.53,-22.66"/>
<polygon fill="#63b8ff" stroke="#63b8ff" points="283.42,-25.7 291.6,-18.96 281,-19.13 283.42,-25.7"/>
</g>
<!-- Node7 -->
<g id="node7" class="node">
<title>Node7</title>
<g id="a_node7"><a xlink:title=" ">
<polygon fill="#e0e0e0" stroke="#999999" points="192.75,-20.75 131.75,-20.75 131.75,0 192.75,0 192.75,-20.75"/>
<text text-anchor="middle" x="162.25" y="-7.25" font-family="Helvetica,sans-Serif" font-size="10.00">algorithm</text>
</a>
</g>
</g>
<!-- Node6&#45;&gt;Node7 -->
<g id="edge6" class="edge">
<title>Node6&#45;&gt;Node7</title>
<path fill="none" stroke="#63b8ff" d="M163.89,-56.34C163.65,-49.56 163.31,-40.3 163,-31.94"/>
<polygon fill="#63b8ff" stroke="#63b8ff" points="166.47,-31.94 162.6,-22.08 159.47,-32.2 166.47,-31.94"/>
</g>
</g>
</svg>
