<?xml version="1.0" encoding="UTF-8" standalone="no"?>
<!DOCTYPE svg PUBLIC "-//W3C//DTD SVG 1.1//EN"
 "http://www.w3.org/Graphics/SVG/1.1/DTD/svg11.dtd">
<!-- Generated by graphviz version 7.0.5 (20221223.1930)
 -->
<!-- Title: sl::type_list::unordered_equal&lt; FirstContainer&lt;&gt;, OtherLists... &gt; Pages: 1 -->
<svg width="220pt" height="260pt"
 viewBox="0.00 0.00 220.00 260.00" xmlns="http://www.w3.org/2000/svg" xmlns:xlink="http://www.w3.org/1999/xlink">
<g id="graph0" class="graph" transform="scale(1 1) rotate(0) translate(4 256)">
<title>sl::type_list::unordered_equal&lt; FirstContainer&lt;&gt;, OtherLists... &gt;</title>
<!-- Node1 -->
<g id="node1" class="node">
<title>Node1</title>
<g id="a_node1"><a xlink:title="Root specialization, determining whether all type&#45;lists are empty.">
<polygon fill="#999999" stroke="#666666" points="144,-41 24,-41 24,0 144,0 144,-41"/>
<text text-anchor="start" x="32" y="-29" font-family="Helvetica,sans-Serif" font-size="10.00">sl::type_list::unordered</text>
<text text-anchor="start" x="32" y="-18" font-family="Helvetica,sans-Serif" font-size="10.00">_equal&lt; FirstContainer</text>
<text text-anchor="middle" x="84" y="-7" font-family="Helvetica,sans-Serif" font-size="10.00">&lt;&gt;, OtherLists... &gt;</text>
</a>
</g>
</g>
<!-- Node2 -->
<g id="node2" class="node">
<title>Node2</title>
<g id="a_node2"><a xlink:href="../../dd/d9c/structsl_1_1type__list_1_1equal.html" target="_top" xlink:title=" ">
<polygon fill="white" stroke="#666666" points="168,-108 0,-108 0,-78 168,-78 168,-108"/>
<text text-anchor="start" x="8" y="-96" font-family="Helvetica,sans-Serif" font-size="10.00">sl::type_list::equal</text>
<text text-anchor="middle" x="84" y="-85" font-family="Helvetica,sans-Serif" font-size="10.00">&lt; FirstContainer&lt;&gt;, OtherLists... &gt;</text>
</a>
</g>
</g>
<!-- Node2&#45;&gt;Node1 -->
<g id="edge1" class="edge">
<title>Node2&#45;&gt;Node1</title>
<path fill="none" stroke="#63b8ff" d="M84,-66.42C84,-58.16 84,-49.14 84,-41.36"/>
<polygon fill="#63b8ff" stroke="#63b8ff" points="80.5,-66.22 84,-76.22 87.5,-66.22 80.5,-66.22"/>
</g>
<!-- Node3 -->
<g id="node3" class="node">
<title>Node3</title>
<g id="a_node3"><a xlink:title=" ">
<polygon fill="white" stroke="#666666" points="121,-252 39,-252 39,-233 121,-233 121,-252"/>
<text text-anchor="middle" x="80" y="-240" font-family="Helvetica,sans-Serif" font-size="10.00">std::false_type</text>
</a>
</g>
</g>
<!-- Node3&#45;&gt;Node2 -->
<g id="edge2" class="edge">
<title>Node3&#45;&gt;Node2</title>
<path fill="none" stroke="#63b8ff" d="M80.54,-221.56C81.36,-191.38 82.89,-134.82 83.61,-108.35"/>
<polygon fill="#63b8ff" stroke="#63b8ff" points="77.05,-221.11 80.28,-231.2 84.05,-221.3 77.05,-221.11"/>
</g>
<!-- Node4 -->
<g id="node4" class="node">
<title>Node4</title>
<g id="a_node4"><a xlink:href="../../dd/d9c/structsl_1_1type__list_1_1equal.html" target="_top" xlink:title="Primary template yields false.">
<polygon fill="white" stroke="#666666" points="192,-196 96,-196 96,-166 192,-166 192,-196"/>
<text text-anchor="start" x="104" y="-184" font-family="Helvetica,sans-Serif" font-size="10.00">sl::type_list::equal</text>
<text text-anchor="middle" x="144" y="-173" font-family="Helvetica,sans-Serif" font-size="10.00">&lt; First, Others &gt;</text>
</a>
</g>
</g>
<!-- Node3&#45;&gt;Node4 -->
<g id="edge4" class="edge">
<title>Node3&#45;&gt;Node4</title>
<path fill="none" stroke="#63b8ff" d="M97.59,-225.15C107.29,-216.13 119.22,-205.04 128.56,-196.36"/>
<polygon fill="#63b8ff" stroke="#63b8ff" points="95.49,-222.32 90.55,-231.69 100.26,-227.44 95.49,-222.32"/>
</g>
<!-- Node4&#45;&gt;Node2 -->
<g id="edge3" class="edge">
<title>Node4&#45;&gt;Node2</title>
<path fill="none" stroke="orange" stroke-dasharray="5,2" d="M127.52,-156.38C116.75,-140.94 103.05,-121.3 93.92,-108.22"/>
<polygon fill="orange" stroke="orange" points="124.63,-158.36 133.23,-164.56 130.37,-154.35 124.63,-158.36"/>
<text text-anchor="start" x="121" y="-140" font-family="Helvetica,sans-Serif" font-size="10.00"> &lt; FirstContainer&lt;&gt;,</text>
<text text-anchor="middle" x="166.5" y="-129" font-family="Helvetica,sans-Serif" font-size="10.00"> OtherLists... &gt;</text>
</g>
</g>
</svg>
