<?xml version="1.0" encoding="UTF-8" standalone="no"?>
<!DOCTYPE svg PUBLIC "-//W3C//DTD SVG 1.1//EN"
 "http://www.w3.org/Graphics/SVG/1.1/DTD/svg11.dtd">
<!-- Generated by graphviz version 8.0.5 (20230430.1635)
 -->
<!-- Title: sl::type_list::unordered_equal&lt; FirstContainer&lt;&gt;, OtherLists... &gt; Pages: 1 -->
<svg width="219pt" height="278pt"
 viewBox="0.00 0.00 218.75 277.50" xmlns="http://www.w3.org/2000/svg" xmlns:xlink="http://www.w3.org/1999/xlink">
<g id="graph0" class="graph" transform="scale(1 1) rotate(0) translate(4 273.5)">
<title>sl::type_list::unordered_equal&lt; FirstContainer&lt;&gt;, OtherLists... &gt;</title>
<!-- Node1 -->
<g id="node1" class="node">
<title>Node1</title>
<g id="a_node1"><a xlink:title="Root specialization, determining whether all type&#45;lists are empty.">
<polygon fill="#999999" stroke="#666666" points="143.5,-46.25 24,-46.25 24,0 143.5,0 143.5,-46.25"/>
<text text-anchor="start" x="32" y="-32.75" font-family="Helvetica,sans-Serif" font-size="10.00">sl::type_list::unordered</text>
<text text-anchor="start" x="32" y="-20" font-family="Helvetica,sans-Serif" font-size="10.00">_equal&lt; FirstContainer</text>
<text text-anchor="middle" x="83.75" y="-7.25" font-family="Helvetica,sans-Serif" font-size="10.00">&lt;&gt;, OtherLists... &gt;</text>
</a>
</g>
</g>
<!-- Node2 -->
<g id="node2" class="node">
<title>Node2</title>
<g id="a_node2"><a xlink:href="../../dd/d9c/structsl_1_1type__list_1_1equal.html" target="_top" xlink:title=" ">
<polygon fill="white" stroke="#666666" points="167.5,-116.75 0,-116.75 0,-83.25 167.5,-83.25 167.5,-116.75"/>
<text text-anchor="start" x="8" y="-103.25" font-family="Helvetica,sans-Serif" font-size="10.00">sl::type_list::equal</text>
<text text-anchor="middle" x="83.75" y="-90.5" font-family="Helvetica,sans-Serif" font-size="10.00">&lt; FirstContainer&lt;&gt;, OtherLists... &gt;</text>
</a>
</g>
</g>
<!-- Node2&#45;&gt;Node1 -->
<g id="edge1" class="edge">
<title>Node2&#45;&gt;Node1</title>
<path fill="none" stroke="#63b8ff" d="M83.75,-72.02C83.75,-63.68 83.75,-54.59 83.75,-46.59"/>
<polygon fill="#63b8ff" stroke="#63b8ff" points="80.25,-71.75 83.75,-81.75 87.25,-71.75 80.25,-71.75"/>
</g>
<!-- Node3 -->
<g id="node3" class="node">
<title>Node3</title>
<g id="a_node3"><a xlink:title=" ">
<polygon fill="white" stroke="#666666" points="120.38,-269.5 39.12,-269.5 39.12,-248.75 120.38,-248.75 120.38,-269.5"/>
<text text-anchor="middle" x="79.75" y="-256" font-family="Helvetica,sans-Serif" font-size="10.00">std::false_type</text>
</a>
</g>
</g>
<!-- Node3&#45;&gt;Node2 -->
<g id="edge2" class="edge">
<title>Node3&#45;&gt;Node2</title>
<path fill="none" stroke="#63b8ff" d="M80.27,-237.7C81.07,-206.08 82.61,-145.93 83.34,-117.14"/>
<polygon fill="#63b8ff" stroke="#63b8ff" points="76.76,-237.21 80,-247.3 83.75,-237.39 76.76,-237.21"/>
</g>
<!-- Node4 -->
<g id="node4" class="node">
<title>Node4</title>
<g id="a_node4"><a xlink:href="../../dd/d9c/structsl_1_1type__list_1_1equal.html" target="_top" xlink:title="Primary template yields false.">
<polygon fill="white" stroke="#666666" points="191.5,-211.75 96,-211.75 96,-178.25 191.5,-178.25 191.5,-211.75"/>
<text text-anchor="start" x="104" y="-198.25" font-family="Helvetica,sans-Serif" font-size="10.00">sl::type_list::equal</text>
<text text-anchor="middle" x="143.75" y="-185.5" font-family="Helvetica,sans-Serif" font-size="10.00">&lt; First, Others &gt;</text>
</a>
</g>
</g>
<!-- Node3&#45;&gt;Node4 -->
<g id="edge4" class="edge">
<title>Node3&#45;&gt;Node4</title>
<path fill="none" stroke="#63b8ff" d="M97.56,-240.83C106.81,-231.86 118.03,-220.96 127.1,-212.16"/>
<polygon fill="#63b8ff" stroke="#63b8ff" points="95.49,-237.94 90.75,-247.42 100.36,-242.96 95.49,-237.94"/>
</g>
<!-- Node4&#45;&gt;Node2 -->
<g id="edge3" class="edge">
<title>Node4&#45;&gt;Node2</title>
<path fill="none" stroke="orange" stroke-dasharray="5,2" d="M127.43,-168.71C116.8,-152.23 103.25,-131.22 94.08,-117.01"/>
<polygon fill="orange" stroke="orange" points="124.94,-170.3 133.3,-176.8 130.82,-166.5 124.94,-170.3"/>
<text text-anchor="start" x="120.75" y="-150.75" font-family="Helvetica,sans-Serif" font-size="10.00"> &lt; FirstContainer&lt;&gt;,</text>
<text text-anchor="middle" x="165.75" y="-138" font-family="Helvetica,sans-Serif" font-size="10.00"> OtherLists... &gt;</text>
</g>
</g>
</svg>
