<?xml version="1.0" encoding="UTF-8" standalone="no"?>
<!DOCTYPE svg PUBLIC "-//W3C//DTD SVG 1.1//EN"
 "http://www.w3.org/Graphics/SVG/1.1/DTD/svg11.dtd">
<!-- Generated by graphviz version 7.0.5 (20221223.1930)
 -->
<!-- Title: sl::type_list::difference_as&lt; TargetContainer, First, Second &gt; Pages: 1 -->
<svg width="666pt" height="249pt"
 viewBox="0.00 0.00 666.00 249.00" xmlns="http://www.w3.org/2000/svg" xmlns:xlink="http://www.w3.org/1999/xlink">
<g id="graph0" class="graph" transform="scale(1 1) rotate(0) translate(4 245)">
<title>sl::type_list::difference_as&lt; TargetContainer, First, Second &gt;</title>
<!-- Node1 -->
<g id="node1" class="node">
<title>Node1</title>
<g id="a_node1"><a xlink:title="Primary template, yielding a the elements of First in the TargetContainer.">
<polygon fill="#999999" stroke="#666666" points="142,-121.5 0,-121.5 0,-80.5 142,-80.5 142,-121.5"/>
<text text-anchor="start" x="8" y="-109.5" font-family="Helvetica,sans-Serif" font-size="10.00">sl::type_list::difference</text>
<text text-anchor="start" x="8" y="-98.5" font-family="Helvetica,sans-Serif" font-size="10.00">_as&lt; TargetContainer, First,</text>
<text text-anchor="middle" x="71" y="-87.5" font-family="Helvetica,sans-Serif" font-size="10.00"> Second &gt;</text>
</a>
</g>
</g>
<!-- Node2 -->
<g id="node2" class="node">
<title>Node2</title>
<g id="a_node2"><a xlink:href="../../d2/d4c/structsl_1_1type__list_1_1difference__as.html" target="_top" xlink:title=" ">
<polygon fill="white" stroke="#666666" points="476,-149.5 308,-149.5 308,-86.5 476,-86.5 476,-149.5"/>
<text text-anchor="start" x="316" y="-137.5" font-family="Helvetica,sans-Serif" font-size="10.00">sl::type_list::difference</text>
<text text-anchor="start" x="316" y="-126.5" font-family="Helvetica,sans-Serif" font-size="10.00">_as&lt; TargetContainer, remove</text>
<text text-anchor="start" x="316" y="-115.5" font-family="Helvetica,sans-Serif" font-size="10.00">_at_t&lt; First, index_of_v&lt; First,</text>
<text text-anchor="start" x="316" y="-104.5" font-family="Helvetica,sans-Serif" font-size="10.00"> front_t&lt; Second &gt; &gt; &gt;, pop_front</text>
<text text-anchor="middle" x="392" y="-93.5" font-family="Helvetica,sans-Serif" font-size="10.00">_t&lt; Second &gt; &gt;</text>
</a>
</g>
</g>
<!-- Node1&#45;&gt;Node2 -->
<g id="edge2" class="edge">
<title>Node1&#45;&gt;Node2</title>
<path fill="none" stroke="orange" stroke-dasharray="5,2" d="M97.22,-130.17C113.31,-146.47 135.67,-165.22 160,-174 213.09,-193.16 232.27,-187.8 287,-174 306.59,-169.06 326.5,-159.63 343.58,-149.9"/>
<polygon fill="orange" stroke="orange" points="99.87,-127.87 90.44,-123.03 94.79,-132.7 99.87,-127.87"/>
<text text-anchor="start" x="160" y="-233" font-family="Helvetica,sans-Serif" font-size="10.00"> &lt; TargetContainer,</text>
<text text-anchor="start" x="160" y="-222" font-family="Helvetica,sans-Serif" font-size="10.00"> remove_at_t&lt; First,</text>
<text text-anchor="start" x="160" y="-211" font-family="Helvetica,sans-Serif" font-size="10.00"> index_of_v&lt; First, front</text>
<text text-anchor="start" x="160" y="-200" font-family="Helvetica,sans-Serif" font-size="10.00">_t&lt; Second &gt; &gt; &gt;, pop_front</text>
<text text-anchor="middle" x="223.5" y="-189" font-family="Helvetica,sans-Serif" font-size="10.00">_t&lt; Second &gt; &gt;</text>
</g>
<!-- Node1&#45;&gt;Node2 -->
<g id="edge3" class="edge">
<title>Node1&#45;&gt;Node2</title>
<path fill="none" stroke="orange" stroke-dasharray="5,2" d="M153.83,-105.36C201.06,-107.88 260.31,-111.04 307.78,-113.57"/>
<polygon fill="orange" stroke="orange" points="154.08,-101.87 143.91,-104.83 153.71,-108.86 154.08,-101.87"/>
<text text-anchor="start" x="160" y="-159" font-family="Helvetica,sans-Serif" font-size="10.00"> &lt; TargetContainer,</text>
<text text-anchor="start" x="160" y="-148" font-family="Helvetica,sans-Serif" font-size="10.00"> remove_at_t&lt; First,</text>
<text text-anchor="start" x="160" y="-137" font-family="Helvetica,sans-Serif" font-size="10.00"> index_of_v&lt; First, front</text>
<text text-anchor="start" x="160" y="-126" font-family="Helvetica,sans-Serif" font-size="10.00">_t&lt; Second &gt; &gt; &gt;, pop_front</text>
<text text-anchor="middle" x="223.5" y="-115" font-family="Helvetica,sans-Serif" font-size="10.00">_t&lt; Second &gt; &gt;</text>
</g>
<!-- Node3 -->
<g id="node3" class="node">
<title>Node3</title>
<g id="a_node3"><a xlink:href="../../d2/d4c/structsl_1_1type__list_1_1difference__as.html" target="_top" xlink:title=" ">
<polygon fill="white" stroke="#666666" points="479,-52 305,-52 305,0 479,0 479,-52"/>
<text text-anchor="start" x="313" y="-40" font-family="Helvetica,sans-Serif" font-size="10.00">sl::type_list::difference</text>
<text text-anchor="start" x="313" y="-29" font-family="Helvetica,sans-Serif" font-size="10.00">_as&lt; TargetContainer, First,</text>
<text text-anchor="start" x="313" y="-18" font-family="Helvetica,sans-Serif" font-size="10.00"> difference_as_t&lt; TargetContainer,</text>
<text text-anchor="middle" x="392" y="-7" font-family="Helvetica,sans-Serif" font-size="10.00"> First, Second &gt; &gt;</text>
</a>
</g>
</g>
<!-- Node1&#45;&gt;Node3 -->
<g id="edge4" class="edge">
<title>Node1&#45;&gt;Node3</title>
<path fill="none" stroke="orange" stroke-dasharray="5,2" d="M108.82,-73.78C123.93,-63.99 142.08,-53.91 160,-48 206.29,-32.73 260.43,-26.99 304.66,-25.17"/>
<polygon fill="orange" stroke="orange" points="106.97,-70.81 100.61,-79.29 110.86,-76.62 106.97,-70.81"/>
<text text-anchor="start" x="163.5" y="-84" font-family="Helvetica,sans-Serif" font-size="10.00"> &lt; TargetContainer,</text>
<text text-anchor="start" x="163.5" y="-73" font-family="Helvetica,sans-Serif" font-size="10.00"> First, difference_as</text>
<text text-anchor="start" x="163.5" y="-62" font-family="Helvetica,sans-Serif" font-size="10.00">_t&lt; TargetContainer, First,</text>
<text text-anchor="middle" x="223.5" y="-51" font-family="Helvetica,sans-Serif" font-size="10.00"> Second &gt; &gt;</text>
</g>
<!-- Node2&#45;&gt;Node1 -->
<g id="edge1" class="edge">
<title>Node2&#45;&gt;Node1</title>
<path fill="none" stroke="#63b8ff" d="M296.63,-100C293.39,-99.62 290.17,-99.29 287,-99 230.79,-93.91 216.44,-98.36 160,-99 154.19,-99.07 148.17,-99.16 142.13,-99.26"/>
<polygon fill="#63b8ff" stroke="#63b8ff" points="295.87,-103.43 306.24,-101.23 296.76,-96.49 295.87,-103.43"/>
</g>
<!-- Node4 -->
<g id="node4" class="node">
<title>Node4</title>
<g id="a_node4"><a xlink:href="../../d0/d83/structsl_1_1type__list_1_1intersection__as.html" target="_top" xlink:title="Determines the intersection between the elements of two type&#45;lists. The order doesn&#39;t matter.">
<polygon fill="white" stroke="#666666" points="658,-46.5 516,-46.5 516,-5.5 658,-5.5 658,-46.5"/>
<text text-anchor="start" x="524" y="-34.5" font-family="Helvetica,sans-Serif" font-size="10.00">sl::type_list::intersection</text>
<text text-anchor="start" x="524" y="-23.5" font-family="Helvetica,sans-Serif" font-size="10.00">_as&lt; TargetContainer, First,</text>
<text text-anchor="middle" x="587" y="-12.5" font-family="Helvetica,sans-Serif" font-size="10.00"> Second &gt;</text>
</a>
</g>
</g>
<!-- Node3&#45;&gt;Node4 -->
<g id="edge5" class="edge">
<title>Node3&#45;&gt;Node4</title>
<path fill="none" stroke="#63b8ff" d="M490.76,-26C499.15,-26 507.53,-26 515.64,-26"/>
<polygon fill="#63b8ff" stroke="#63b8ff" points="490.85,-22.5 480.85,-26 490.85,-29.5 490.85,-22.5"/>
</g>
</g>
</svg>
