<?xml version="1.0" encoding="UTF-8" standalone="no"?>
<!DOCTYPE svg PUBLIC "-//W3C//DTD SVG 1.1//EN"
 "http://www.w3.org/Graphics/SVG/1.1/DTD/svg11.dtd">
<!-- Generated by graphviz version 8.0.5 (20230430.1635)
 -->
<!-- Title: sl::type_list::difference_as&lt; TargetContainer, First, Second &gt; Pages: 1 -->
<!--zoomable 278 -->
<svg id="main" version="1.1" xmlns="http://www.w3.org/2000/svg" xmlns:xlink="http://www.w3.org/1999/xlink" xml:space="preserve" onload="init(evt)">
<style type="text/css"><![CDATA[
.edge:hover path { stroke: red; }
.edge:hover polygon { stroke: red; fill: red; }
]]></style>
<script type="text/javascript"><![CDATA[
var edges = document.getElementsByTagName('g');
if (edges && edges.length) {
  for (var i=0;i<edges.length;i++) {
    if (edges[i].id.substr(0,4)=='edge') {
      edges[i].setAttribute('class','edge');
    }
  }
}
]]></script>
        <defs>
                <circle id="rim" cx="0" cy="0" r="7"/>
                <circle id="rim2" cx="0" cy="0" r="3.5"/>
                <g id="zoomPlus">
                        <use xlink:href="#rim" fill="#404040">
                                <set attributeName="fill" to="#808080" begin="zoomplus.mouseover" end="zoomplus.mouseout"/>
                        </use>
                        <path d="M-4,0h8M0,-4v8" fill="none" stroke="white" stroke-width="1.5" pointer-events="none"/>
                </g>
                <g id="zoomMin">
                        <use xlink:href="#rim" fill="#404040">
                                <set attributeName="fill" to="#808080" begin="zoomminus.mouseover" end="zoomminus.mouseout"/>
                        </use>
                        <path d="M-4,0h8" fill="none" stroke="white" stroke-width="1.5" pointer-events="none"/>
                </g>
                <g id="dirArrow">
                        <path fill="none" stroke="white" stroke-width="1.5" d="M0,-3.0v7 M-2.5,-0.5L0,-3.0L2.5,-0.5"/>
                </g>
               <g id="resetDef">
                       <use xlink:href="#rim2" fill="#404040">
                               <set attributeName="fill" to="#808080" begin="reset.mouseover" end="reset.mouseout"/>
                       </use>
               </g>
        </defs>

<script type="text/javascript">
var viewWidth = 663;
var viewHeight = 278;
var sectionId = 'dynsection-0';
</script>
<script xlink:href="../../svgpan.js"/>
<svg id="graph" class="graph">
<g id="viewport">
<title>sl::type_list::difference_as&lt; TargetContainer, First, Second &gt;</title>
<!-- Node1 -->
<g id="node1" class="node">
<title>Node1</title>
<g id="a_node1"><a xlink:title="Primary template, yielding a the elements of First in the TargetContainer.">
<polygon fill="#999999" stroke="#666666" points="141.25,-134.62 0,-134.62 0,-88.38 141.25,-88.38 141.25,-134.62"/>
<text text-anchor="start" x="8" y="-121.12" font-family="Helvetica,sans-Serif" font-size="10.00">sl::type_list::difference</text>
<text text-anchor="start" x="8" y="-108.38" font-family="Helvetica,sans-Serif" font-size="10.00">_as&lt; TargetContainer, First,</text>
<text text-anchor="middle" x="70.62" y="-95.62" font-family="Helvetica,sans-Serif" font-size="10.00"> Second &gt;</text>
</a>
</g>
</g>
<!-- Node2 -->
<g id="node2" class="node">
<title>Node2</title>
<g id="a_node2"><a xlink:href="../../d2/d4c/structsl_1_1type__list_1_1difference__as.html" target="_top" xlink:title=" ">
<polygon fill="white" stroke="#666666" points="473.75,-164.38 306.25,-164.38 306.25,-92.62 473.75,-92.62 473.75,-164.38"/>
<text text-anchor="start" x="314.25" y="-150.88" font-family="Helvetica,sans-Serif" font-size="10.00">sl::type_list::difference</text>
<text text-anchor="start" x="314.25" y="-138.12" font-family="Helvetica,sans-Serif" font-size="10.00">_as&lt; TargetContainer, remove</text>
<text text-anchor="start" x="314.25" y="-125.38" font-family="Helvetica,sans-Serif" font-size="10.00">_at_t&lt; First, index_of_v&lt; First,</text>
<text text-anchor="start" x="314.25" y="-112.62" font-family="Helvetica,sans-Serif" font-size="10.00"> front_t&lt; Second &gt; &gt; &gt;, pop_front</text>
<text text-anchor="middle" x="390" y="-99.88" font-family="Helvetica,sans-Serif" font-size="10.00">_t&lt; Second &gt; &gt;</text>
</a>
</g>
</g>
<!-- Node1&#45;&gt;Node2 -->
<g id="edge2" class="edge">
<title>Node1&#45;&gt;Node2</title>
<path fill="none" stroke="orange" stroke-dasharray="5,2" d="M95.35,-143.43C111.15,-161.89 133.65,-183.39 159.25,-193.5 211.34,-214.07 231.43,-208.97 285.25,-193.5 305.78,-187.6 326.18,-176.31 343.39,-164.78"/>
<polygon fill="orange" stroke="orange" points="97.43,-141.45 88.37,-135.95 92.02,-145.9 97.43,-141.45"/>
<text text-anchor="start" x="159.25" y="-260.75" font-family="Helvetica,sans-Serif" font-size="10.00"> &lt; TargetContainer,</text>
<text text-anchor="start" x="159.25" y="-248" font-family="Helvetica,sans-Serif" font-size="10.00"> remove_at_t&lt; First,</text>
<text text-anchor="start" x="159.25" y="-235.25" font-family="Helvetica,sans-Serif" font-size="10.00"> index_of_v&lt; First, front</text>
<text text-anchor="start" x="159.25" y="-222.5" font-family="Helvetica,sans-Serif" font-size="10.00">_t&lt; Second &gt; &gt; &gt;, pop_front</text>
<text text-anchor="middle" x="222.25" y="-209.75" font-family="Helvetica,sans-Serif" font-size="10.00">_t&lt; Second &gt; &gt;</text>
</g>
<!-- Node1&#45;&gt;Node2 -->
<g id="edge3" class="edge">
<title>Node1&#45;&gt;Node2</title>
<path fill="none" stroke="orange" stroke-dasharray="5,2" d="M152.42,-115.83C199.41,-118.34 258.53,-121.51 305.92,-124.05"/>
<polygon fill="orange" stroke="orange" points="152.84,-112.29 142.67,-115.25 152.47,-119.28 152.84,-112.29"/>
<text text-anchor="start" x="159.25" y="-176.75" font-family="Helvetica,sans-Serif" font-size="10.00"> &lt; TargetContainer,</text>
<text text-anchor="start" x="159.25" y="-164" font-family="Helvetica,sans-Serif" font-size="10.00"> remove_at_t&lt; First,</text>
<text text-anchor="start" x="159.25" y="-151.25" font-family="Helvetica,sans-Serif" font-size="10.00"> index_of_v&lt; First, front</text>
<text text-anchor="start" x="159.25" y="-138.5" font-family="Helvetica,sans-Serif" font-size="10.00">_t&lt; Second &gt; &gt; &gt;, pop_front</text>
<text text-anchor="middle" x="222.25" y="-125.75" font-family="Helvetica,sans-Serif" font-size="10.00">_t&lt; Second &gt; &gt;</text>
</g>
<!-- Node3 -->
<g id="node3" class="node">
<title>Node3</title>
<g id="a_node3"><a xlink:href="../../d2/d4c/structsl_1_1type__list_1_1difference__as.html" target="_top" xlink:title=" ">
<polygon fill="white" stroke="#666666" points="476.75,-59 303.25,-59 303.25,0 476.75,0 476.75,-59"/>
<text text-anchor="start" x="311.25" y="-45.5" font-family="Helvetica,sans-Serif" font-size="10.00">sl::type_list::difference</text>
<text text-anchor="start" x="311.25" y="-32.75" font-family="Helvetica,sans-Serif" font-size="10.00">_as&lt; TargetContainer, First,</text>
<text text-anchor="start" x="311.25" y="-20" font-family="Helvetica,sans-Serif" font-size="10.00"> difference_as_t&lt; TargetContainer,</text>
<text text-anchor="middle" x="390" y="-7.25" font-family="Helvetica,sans-Serif" font-size="10.00"> First, Second &gt; &gt;</text>
</a>
</g>
</g>
<!-- Node1&#45;&gt;Node3 -->
<g id="edge4" class="edge">
<title>Node1&#45;&gt;Node3</title>
<path fill="none" stroke="orange" stroke-dasharray="5,2" d="M106.57,-81.54C121.78,-70.18 140.41,-58.33 159.25,-51.5 204.92,-34.93 258.87,-29.13 303.01,-27.6"/>
<polygon fill="orange" stroke="orange" points="104.81,-79.26 99.04,-88.14 109.09,-84.8 104.81,-79.26"/>
<text text-anchor="start" x="162.62" y="-93" font-family="Helvetica,sans-Serif" font-size="10.00"> &lt; TargetContainer,</text>
<text text-anchor="start" x="162.62" y="-80.25" font-family="Helvetica,sans-Serif" font-size="10.00"> First, difference_as</text>
<text text-anchor="start" x="162.62" y="-67.5" font-family="Helvetica,sans-Serif" font-size="10.00">_t&lt; TargetContainer, First,</text>
<text text-anchor="middle" x="222.25" y="-54.75" font-family="Helvetica,sans-Serif" font-size="10.00"> Second &gt; &gt;</text>
</g>
<!-- Node2&#45;&gt;Node1 -->
<g id="edge1" class="edge">
<title>Node2&#45;&gt;Node1</title>
<path fill="none" stroke="#63b8ff" d="M295.18,-110.54C291.84,-110.15 288.52,-109.8 285.25,-109.5 229.48,-104.44 215.25,-108.86 159.25,-109.5 153.47,-109.57 147.47,-109.66 141.45,-109.76"/>
<polygon fill="#63b8ff" stroke="#63b8ff" points="294.57,-114.12 304.94,-111.92 295.47,-107.17 294.57,-114.12"/>
</g>
<!-- Node4 -->
<g id="node4" class="node">
<title>Node4</title>
<g id="a_node4"><a xlink:href="../../d0/d83/structsl_1_1type__list_1_1intersection__as.html" target="_top" xlink:title="Determines the intersection between the elements of two type&#45;lists. The order doesn&#39;t matter.">
<polygon fill="white" stroke="#666666" points="655,-52.62 513.75,-52.62 513.75,-6.38 655,-6.38 655,-52.62"/>
<text text-anchor="start" x="521.75" y="-39.12" font-family="Helvetica,sans-Serif" font-size="10.00">sl::type_list::intersection</text>
<text text-anchor="start" x="521.75" y="-26.38" font-family="Helvetica,sans-Serif" font-size="10.00">_as&lt; TargetContainer, First,</text>
<text text-anchor="middle" x="584.38" y="-13.62" font-family="Helvetica,sans-Serif" font-size="10.00"> Second &gt;</text>
</a>
</g>
</g>
<!-- Node3&#45;&gt;Node4 -->
<g id="edge5" class="edge">
<title>Node3&#45;&gt;Node4</title>
<path fill="none" stroke="#63b8ff" d="M487.97,-29.5C496.59,-29.5 505.21,-29.5 513.54,-29.5"/>
<polygon fill="#63b8ff" stroke="#63b8ff" points="488.06,-26 478.06,-29.5 488.06,-33 488.06,-26"/>
</g>
</g>
</svg>
        <g id="navigator" transform="translate(0 0)" fill="#404254">
                <rect fill="#f2f5e9" fill-opacity="0.5" stroke="#606060" stroke-width=".5" x="0" y="0" width="60" height="60"/>
                <use id="zoomplus" xlink:href="#zoomPlus" x="17" y="9" onmousedown="handleZoom(evt,'in')"/>
                <use id="zoomminus" xlink:href="#zoomMin" x="42" y="9" onmousedown="handleZoom(evt,'out')"/>
                <use id="reset" xlink:href="#resetDef" x="30" y="36" onmousedown="handleReset()"/>
                <g id="arrowUp" xlink:href="#dirArrow" transform="translate(30 24)" onmousedown="handlePan(0,-1)">
                  <use xlink:href="#rim" fill="#404040">
                        <set attributeName="fill" to="#808080" begin="arrowUp.mouseover" end="arrowUp.mouseout"/>
                  </use>
                  <path fill="none" stroke="white" stroke-width="1.5" d="M0,-3.0v7 M-2.5,-0.5L0,-3.0L2.5,-0.5"/>
                </g>
                <g id="arrowRight" xlink:href="#dirArrow" transform="rotate(90) translate(36 -43)" onmousedown="handlePan(1,0)">
                  <use xlink:href="#rim" fill="#404040">
                        <set attributeName="fill" to="#808080" begin="arrowRight.mouseover" end="arrowRight.mouseout"/>
                  </use>
                  <path fill="none" stroke="white" stroke-width="1.5" d="M0,-3.0v7 M-2.5,-0.5L0,-3.0L2.5,-0.5"/>
                </g>
                <g id="arrowDown" xlink:href="#dirArrow" transform="rotate(180) translate(-30 -48)" onmousedown="handlePan(0,1)">
                  <use xlink:href="#rim" fill="#404040">
                        <set attributeName="fill" to="#808080" begin="arrowDown.mouseover" end="arrowDown.mouseout"/>
                  </use>
                  <path fill="none" stroke="white" stroke-width="1.5" d="M0,-3.0v7 M-2.5,-0.5L0,-3.0L2.5,-0.5"/>
                </g>
                <g id="arrowLeft" xlink:href="#dirArrow" transform="rotate(270) translate(-36 17)" onmousedown="handlePan(-1,0)">
                  <use xlink:href="#rim" fill="#404040">
                        <set attributeName="fill" to="#808080" begin="arrowLeft.mouseover" end="arrowLeft.mouseout"/>
                  </use>
                  <path fill="none" stroke="white" stroke-width="1.5" d="M0,-3.0v7 M-2.5,-0.5L0,-3.0L2.5,-0.5"/>
                </g>
        </g>
        <svg viewBox="0 0 15 15" width="100%" height="30px" preserveAspectRatio="xMaxYMin meet">
         <g id="arrow_out" transform="scale(0.3 0.3)">
          <a xlink:href="structsl_1_1type__list_1_1difference__as__inherit__graph_org.svg" target="_base">
           <rect id="button" ry="5" rx="5" y="6" x="6" height="38" width="38"
                fill="#f2f5e9" fill-opacity="0.5" stroke="#606060" stroke-width="1.0"/>
           <path id="arrow"
             d="M 11.500037,31.436501 C 11.940474,20.09759 22.043105,11.32322 32.158766,21.979434 L 37.068811,17.246167 C 37.068811,17.246167 37.088388,32 37.088388,32 L 22.160133,31.978069 C 22.160133,31.978069 26.997745,27.140456 26.997745,27.140456 C 18.528582,18.264221 13.291696,25.230495 11.500037,31.436501 z"
             style="fill:#404040;"/>
          </a>
         </g>
        </svg>
</svg>
