<?xml version="1.0" encoding="UTF-8" standalone="no"?>
<!DOCTYPE svg PUBLIC "-//W3C//DTD SVG 1.1//EN"
 "http://www.w3.org/Graphics/SVG/1.1/DTD/svg11.dtd">
<!-- Generated by graphviz version 8.0.5 (20230430.1635)
 -->
<!-- Title: Simple&#45;Utility/Tuple.hpp Pages: 1 -->
<!--zoomable 364 -->
<svg id="main" version="1.1" xmlns="http://www.w3.org/2000/svg" xmlns:xlink="http://www.w3.org/1999/xlink" xml:space="preserve" onload="init(evt)">
<style type="text/css"><![CDATA[
.edge:hover path { stroke: red; }
.edge:hover polygon { stroke: red; fill: red; }
]]></style>
<script type="text/javascript"><![CDATA[
var edges = document.getElementsByTagName('g');
if (edges && edges.length) {
  for (var i=0;i<edges.length;i++) {
    if (edges[i].id.substr(0,4)=='edge') {
      edges[i].setAttribute('class','edge');
    }
  }
}
]]></script>
        <defs>
                <circle id="rim" cx="0" cy="0" r="7"/>
                <circle id="rim2" cx="0" cy="0" r="3.5"/>
                <g id="zoomPlus">
                        <use xlink:href="#rim" fill="#404040">
                                <set attributeName="fill" to="#808080" begin="zoomplus.mouseover" end="zoomplus.mouseout"/>
                        </use>
                        <path d="M-4,0h8M0,-4v8" fill="none" stroke="white" stroke-width="1.5" pointer-events="none"/>
                </g>
                <g id="zoomMin">
                        <use xlink:href="#rim" fill="#404040">
                                <set attributeName="fill" to="#808080" begin="zoomminus.mouseover" end="zoomminus.mouseout"/>
                        </use>
                        <path d="M-4,0h8" fill="none" stroke="white" stroke-width="1.5" pointer-events="none"/>
                </g>
                <g id="dirArrow">
                        <path fill="none" stroke="white" stroke-width="1.5" d="M0,-3.0v7 M-2.5,-0.5L0,-3.0L2.5,-0.5"/>
                </g>
               <g id="resetDef">
                       <use xlink:href="#rim2" fill="#404040">
                               <set attributeName="fill" to="#808080" begin="reset.mouseover" end="reset.mouseout"/>
                       </use>
               </g>
        </defs>

<script type="text/javascript">
var viewWidth = 1018;
var viewHeight = 364;
var sectionId = 'dynsection-1';
</script>
<script xlink:href="../../svgpan.js"/>
<svg id="graph" class="graph">
<g id="viewport">
<title>Simple&#45;Utility/Tuple.hpp</title>
<!-- Node1 -->
<g id="node1" class="node">
<title>Node1</title>
<g id="a_node1"><a xlink:title=" ">
<polygon fill="#999999" stroke="#666666" points="405.57,-355.5 278.57,-355.5 278.57,-334.75 405.57,-334.75 405.57,-355.5"/>
<text text-anchor="middle" x="342.07" y="-342" font-family="Helvetica,sans-Serif" font-size="10.00">Simple&#45;Utility/Tuple.hpp</text>
</a>
</g>
</g>
<!-- Node2 -->
<g id="node2" class="node">
<title>Node2</title>
<g id="a_node2"><a xlink:href="../../d3/d48/_composition_8hpp.html" target="_top" xlink:title=" ">
<polygon fill="white" stroke="#666666" points="359.57,-298.75 232.57,-298.75 232.57,-265.25 359.57,-265.25 359.57,-298.75"/>
<text text-anchor="start" x="240.57" y="-285.25" font-family="Helvetica,sans-Serif" font-size="10.00">Simple&#45;Utility/functional</text>
<text text-anchor="middle" x="296.07" y="-272.5" font-family="Helvetica,sans-Serif" font-size="10.00">/Composition.hpp</text>
</a>
</g>
</g>
<!-- Node1&#45;&gt;Node2 -->
<g id="edge1" class="edge">
<title>Node1&#45;&gt;Node2</title>
<path fill="none" stroke="#63b8ff" d="M328.13,-325.6C321.81,-317.19 314.39,-307.34 308.29,-299.23"/>
<polygon fill="#63b8ff" stroke="#63b8ff" points="325.87,-327.42 334.68,-333.3 331.46,-323.21 325.87,-327.42"/>
</g>
<!-- Node9 -->
<g id="node9" class="node">
<title>Node9</title>
<g id="a_node9"><a xlink:href="../../d2/df5/_pipe_8hpp.html" target="_top" xlink:title=" ">
<polygon fill="white" stroke="#666666" points="577.57,-229.25 450.57,-229.25 450.57,-195.75 577.57,-195.75 577.57,-229.25"/>
<text text-anchor="start" x="458.57" y="-215.75" font-family="Helvetica,sans-Serif" font-size="10.00">Simple&#45;Utility/functional</text>
<text text-anchor="middle" x="514.07" y="-203" font-family="Helvetica,sans-Serif" font-size="10.00">/mixins/Pipe.hpp</text>
</a>
</g>
</g>
<!-- Node1&#45;&gt;Node9 -->
<g id="edge27" class="edge">
<title>Node1&#45;&gt;Node9</title>
<path fill="none" stroke="#63b8ff" d="M363.49,-327.86C396.62,-302.7 459.88,-254.66 492.87,-229.6"/>
<polygon fill="#63b8ff" stroke="#63b8ff" points="361.85,-325.47 356,-334.31 366.08,-331.05 361.85,-325.47"/>
</g>
<!-- Node3 -->
<g id="node3" class="node">
<title>Node3</title>
<g id="a_node3"><a xlink:href="../../d2/db4/functional_8hpp.html" target="_top" xlink:title=" ">
<polygon fill="white" stroke="#666666" points="453.7,-20.75 306.45,-20.75 306.45,0 453.7,0 453.7,-20.75"/>
<text text-anchor="middle" x="380.07" y="-7.25" font-family="Helvetica,sans-Serif" font-size="10.00">Simple&#45;Utility/functional.hpp</text>
</a>
</g>
</g>
<!-- Node2&#45;&gt;Node3 -->
<g id="edge2" class="edge">
<title>Node2&#45;&gt;Node3</title>
<path fill="none" stroke="#63b8ff" d="M221.78,-278.25C145.14,-273.67 33.08,-261.5 6.07,-229.25 -3.49,-217.83 0.02,-209.36 6.07,-195.75 43.52,-111.5 77.82,-98.41 160.07,-56.75 205.47,-33.75 261.76,-22.41 306.03,-16.82"/>
<polygon fill="#63b8ff" stroke="#63b8ff" points="221.16,-281.78 231.35,-278.85 221.56,-274.79 221.16,-281.78"/>
</g>
<!-- Node4 -->
<g id="node4" class="node">
<title>Node4</title>
<g id="a_node4"><a xlink:href="../../d7/d0e/_conjunction_8hpp.html" target="_top" xlink:title=" ">
<polygon fill="white" stroke="#666666" points="287.57,-229.25 160.57,-229.25 160.57,-195.75 287.57,-195.75 287.57,-229.25"/>
<text text-anchor="start" x="168.57" y="-215.75" font-family="Helvetica,sans-Serif" font-size="10.00">Simple&#45;Utility/functional</text>
<text text-anchor="middle" x="224.07" y="-203" font-family="Helvetica,sans-Serif" font-size="10.00">/mixins/Conjunction.hpp</text>
</a>
</g>
</g>
<!-- Node2&#45;&gt;Node4 -->
<g id="edge3" class="edge">
<title>Node2&#45;&gt;Node4</title>
<path fill="none" stroke="#63b8ff" d="M271.04,-257.53C261.11,-248.23 249.96,-237.77 241.01,-229.38"/>
<polygon fill="#63b8ff" stroke="#63b8ff" points="268.32,-259.72 278.01,-264 273.11,-254.61 268.32,-259.72"/>
</g>
<!-- Node7 -->
<g id="node7" class="node">
<title>Node7</title>
<g id="a_node7"><a xlink:href="../../d7/ddc/_disjunction_8hpp.html" target="_top" xlink:title=" ">
<polygon fill="white" stroke="#666666" points="432.57,-229.25 305.57,-229.25 305.57,-195.75 432.57,-195.75 432.57,-229.25"/>
<text text-anchor="start" x="313.57" y="-215.75" font-family="Helvetica,sans-Serif" font-size="10.00">Simple&#45;Utility/functional</text>
<text text-anchor="middle" x="369.07" y="-203" font-family="Helvetica,sans-Serif" font-size="10.00">/mixins/Disjunction.hpp</text>
</a>
</g>
</g>
<!-- Node2&#45;&gt;Node7 -->
<g id="edge9" class="edge">
<title>Node2&#45;&gt;Node7</title>
<path fill="none" stroke="#63b8ff" d="M321.39,-257.59C331.38,-248.35 342.6,-237.98 351.64,-229.62"/>
<polygon fill="#63b8ff" stroke="#63b8ff" points="319.34,-254.64 314.37,-264 324.09,-259.78 319.34,-254.64"/>
</g>
<!-- Node8 -->
<g id="node8" class="node">
<title>Node8</title>
<g id="a_node8"><a xlink:href="../../de/d71/_equality_8hpp.html" target="_top" xlink:title=" ">
<polygon fill="white" stroke="#666666" points="142.57,-229.25 15.57,-229.25 15.57,-195.75 142.57,-195.75 142.57,-229.25"/>
<text text-anchor="start" x="23.57" y="-215.75" font-family="Helvetica,sans-Serif" font-size="10.00">Simple&#45;Utility/functional</text>
<text text-anchor="middle" x="79.07" y="-203" font-family="Helvetica,sans-Serif" font-size="10.00">/mixins/Equality.hpp</text>
</a>
</g>
</g>
<!-- Node2&#45;&gt;Node8 -->
<g id="edge12" class="edge">
<title>Node2&#45;&gt;Node8</title>
<path fill="none" stroke="#63b8ff" d="M233.79,-261.63C201.24,-251.5 161.88,-239.26 131,-229.65"/>
<polygon fill="#63b8ff" stroke="#63b8ff" points="232.51,-265.2 243.09,-264.83 234.59,-258.52 232.51,-265.2"/>
</g>
<!-- Node2&#45;&gt;Node9 -->
<g id="edge15" class="edge">
<title>Node2&#45;&gt;Node9</title>
<path fill="none" stroke="#63b8ff" d="M358.64,-261.63C391.34,-251.5 430.88,-239.26 461.9,-229.65"/>
<polygon fill="#63b8ff" stroke="#63b8ff" points="357.81,-258.53 349.29,-264.83 359.88,-265.22 357.81,-258.53"/>
</g>
<!-- Node4&#45;&gt;Node3 -->
<g id="edge4" class="edge">
<title>Node4&#45;&gt;Node3</title>
<path fill="none" stroke="#63b8ff" d="M196.12,-188.08C188.45,-179.99 181.14,-170.28 177.07,-159.75 171.71,-145.86 169.73,-139.2 177.07,-126.25 211.11,-66.18 289.85,-35.17 338.66,-21.16"/>
<polygon fill="#63b8ff" stroke="#63b8ff" points="193.21,-190.11 202.8,-194.61 198.11,-185.11 193.21,-190.11"/>
</g>
<!-- Node5 -->
<g id="node5" class="node">
<title>Node5</title>
<g id="a_node5"><a xlink:href="../../d4/d53/_predicate_8hpp.html" target="_top" xlink:title=" ">
<polygon fill="white" stroke="#666666" points="313.57,-159.75 186.57,-159.75 186.57,-126.25 313.57,-126.25 313.57,-159.75"/>
<text text-anchor="start" x="194.57" y="-146.25" font-family="Helvetica,sans-Serif" font-size="10.00">Simple&#45;Utility/functional</text>
<text text-anchor="middle" x="250.07" y="-133.5" font-family="Helvetica,sans-Serif" font-size="10.00">/Predicate.hpp</text>
</a>
</g>
</g>
<!-- Node4&#45;&gt;Node5 -->
<g id="edge5" class="edge">
<title>Node4&#45;&gt;Node5</title>
<path fill="none" stroke="#63b8ff" d="M234.09,-185.49C237.41,-176.86 241.01,-167.51 243.95,-159.88"/>
<polygon fill="#63b8ff" stroke="#63b8ff" points="230.56,-183.91 230.23,-194.5 237.09,-186.43 230.56,-183.91"/>
</g>
<!-- Node5&#45;&gt;Node3 -->
<g id="edge6" class="edge">
<title>Node5&#45;&gt;Node3</title>
<path fill="none" stroke="#63b8ff" d="M270.92,-117.79C286.25,-100.35 307.85,-76.51 328.07,-56.75 341.27,-43.86 357.41,-30.06 368.17,-21.1"/>
<polygon fill="#63b8ff" stroke="#63b8ff" points="267.87,-114.96 263.93,-124.79 273.15,-119.56 267.87,-114.96"/>
</g>
<!-- Node6 -->
<g id="node6" class="node">
<title>Node6</title>
<g id="a_node6"><a xlink:href="../../d8/d60/_compare_8hpp.html" target="_top" xlink:title=" ">
<polygon fill="white" stroke="#666666" points="535.57,-90.25 408.57,-90.25 408.57,-56.75 535.57,-56.75 535.57,-90.25"/>
<text text-anchor="start" x="416.57" y="-76.75" font-family="Helvetica,sans-Serif" font-size="10.00">Simple&#45;Utility/functional</text>
<text text-anchor="middle" x="472.07" y="-64" font-family="Helvetica,sans-Serif" font-size="10.00">/Compare.hpp</text>
</a>
</g>
</g>
<!-- Node5&#45;&gt;Node6 -->
<g id="edge7" class="edge">
<title>Node5&#45;&gt;Node6</title>
<path fill="none" stroke="#63b8ff" d="M313.36,-122.76C346.74,-112.61 387.22,-100.3 418.95,-90.65"/>
<polygon fill="#63b8ff" stroke="#63b8ff" points="312.8,-119.57 304.25,-125.83 314.83,-126.27 312.8,-119.57"/>
</g>
<!-- Node6&#45;&gt;Node3 -->
<g id="edge8" class="edge">
<title>Node6&#45;&gt;Node3</title>
<path fill="none" stroke="#63b8ff" d="M438.84,-50.42C423.77,-40.41 406.73,-29.08 394.89,-21.22"/>
<polygon fill="#63b8ff" stroke="#63b8ff" points="436.63,-53.82 446.9,-56.44 440.51,-47.99 436.63,-53.82"/>
</g>
<!-- Node7&#45;&gt;Node3 -->
<g id="edge10" class="edge">
<title>Node7&#45;&gt;Node3</title>
<path fill="none" stroke="#63b8ff" d="M365.84,-184.81C362.72,-153.83 359.36,-101.28 366.07,-56.75 367.99,-44.03 372.77,-29.97 376.21,-20.92"/>
<polygon fill="#63b8ff" stroke="#63b8ff" points="362.45,-185 367.01,-194.57 369.41,-184.25 362.45,-185"/>
</g>
<!-- Node7&#45;&gt;Node5 -->
<g id="edge11" class="edge">
<title>Node7&#45;&gt;Node5</title>
<path fill="none" stroke="#63b8ff" d="M331.36,-190.11C314.18,-180.37 294.2,-169.03 278.34,-160.04"/>
<polygon fill="#63b8ff" stroke="#63b8ff" points="329.14,-193.44 339.57,-195.33 332.6,-187.35 329.14,-193.44"/>
</g>
<!-- Node8&#45;&gt;Node3 -->
<g id="edge13" class="edge">
<title>Node8&#45;&gt;Node3</title>
<path fill="none" stroke="#63b8ff" d="M92.42,-186.11C111.98,-151.45 151.73,-89.88 203.07,-56.75 233.72,-36.97 272.56,-25.8 306.03,-19.5"/>
<polygon fill="#63b8ff" stroke="#63b8ff" points="88.99,-184.08 87.23,-194.53 95.12,-187.46 88.99,-184.08"/>
</g>
<!-- Node8&#45;&gt;Node5 -->
<g id="edge14" class="edge">
<title>Node8&#45;&gt;Node5</title>
<path fill="none" stroke="#63b8ff" d="M130.16,-191.33C155.4,-181.37 185.45,-169.51 209.15,-160.15"/>
<polygon fill="#63b8ff" stroke="#63b8ff" points="129.05,-188.4 121.03,-195.33 131.62,-194.92 129.05,-188.4"/>
</g>
<!-- Node9&#45;&gt;Node3 -->
<g id="edge16" class="edge">
<title>Node9&#45;&gt;Node3</title>
<path fill="none" stroke="#63b8ff" d="M485.11,-188.3C459.06,-165.89 421.66,-129.63 400.07,-90.25 387.58,-67.46 382.71,-36.68 380.96,-21.17"/>
<polygon fill="#63b8ff" stroke="#63b8ff" points="482.57,-191.58 492.47,-195.35 487.08,-186.23 482.57,-191.58"/>
</g>
<!-- Node9&#45;&gt;Node5 -->
<g id="edge17" class="edge">
<title>Node9&#45;&gt;Node5</title>
<path fill="none" stroke="#63b8ff" d="M440.35,-192.65C400.37,-182.43 351.46,-169.92 313.25,-160.15"/>
<polygon fill="#63b8ff" stroke="#63b8ff" points="439.28,-196.25 449.84,-195.33 441.02,-189.46 439.28,-196.25"/>
</g>
<!-- Node10 -->
<g id="node10" class="node">
<title>Node10</title>
<g id="a_node10"><a xlink:href="../../d9/d8c/_transform_8hpp.html" target="_top" xlink:title=" ">
<polygon fill="white" stroke="#666666" points="752.57,-159.75 625.57,-159.75 625.57,-126.25 752.57,-126.25 752.57,-159.75"/>
<text text-anchor="start" x="633.57" y="-146.25" font-family="Helvetica,sans-Serif" font-size="10.00">Simple&#45;Utility/functional</text>
<text text-anchor="middle" x="689.07" y="-133.5" font-family="Helvetica,sans-Serif" font-size="10.00">/Transform.hpp</text>
</a>
</g>
</g>
<!-- Node9&#45;&gt;Node10 -->
<g id="edge18" class="edge">
<title>Node9&#45;&gt;Node10</title>
<path fill="none" stroke="#63b8ff" d="M566.01,-191.47C591.92,-181.47 622.83,-169.55 647.19,-160.15"/>
<polygon fill="#63b8ff" stroke="#63b8ff" points="565.06,-188.47 556.99,-195.33 567.58,-195 565.06,-188.47"/>
</g>
<!-- Node10&#45;&gt;Node3 -->
<g id="edge19" class="edge">
<title>Node10&#45;&gt;Node3</title>
<path fill="none" stroke="#63b8ff" d="M763.55,-125.66C812.88,-111.52 863.67,-88.34 835.07,-56.75 810.03,-29.09 576.39,-17.58 454.03,-13.42"/>
<polygon fill="#63b8ff" stroke="#63b8ff" points="762.78,-122.52 754.07,-128.55 764.64,-129.27 762.78,-122.52"/>
</g>
<!-- Node10&#45;&gt;Node6 -->
<g id="edge22" class="edge">
<title>Node10&#45;&gt;Node6</title>
<path fill="none" stroke="#63b8ff" d="M626.79,-122.63C594.24,-112.5 554.88,-100.26 524,-90.65"/>
<polygon fill="#63b8ff" stroke="#63b8ff" points="625.51,-126.2 636.09,-125.83 627.59,-119.52 625.51,-126.2"/>
</g>
<!-- Node11 -->
<g id="node11" class="node">
<title>Node11</title>
<g id="a_node11"><a xlink:href="../../d3/dc2/_arithmetic_8hpp.html" target="_top" xlink:title=" ">
<polygon fill="white" stroke="#666666" points="1009.57,-90.25 882.57,-90.25 882.57,-56.75 1009.57,-56.75 1009.57,-90.25"/>
<text text-anchor="start" x="890.57" y="-76.75" font-family="Helvetica,sans-Serif" font-size="10.00">Simple&#45;Utility/functional</text>
<text text-anchor="middle" x="946.07" y="-64" font-family="Helvetica,sans-Serif" font-size="10.00">/Arithmetic.hpp</text>
</a>
</g>
</g>
<!-- Node10&#45;&gt;Node11 -->
<g id="edge20" class="edge">
<title>Node10&#45;&gt;Node11</title>
<path fill="none" stroke="#63b8ff" d="M760.84,-123.15C799.76,-112.93 847.37,-100.42 884.57,-90.65"/>
<polygon fill="#63b8ff" stroke="#63b8ff" points="760.41,-119.91 751.63,-125.83 762.19,-126.68 760.41,-119.91"/>
</g>
<!-- Node12 -->
<g id="node12" class="node">
<title>Node12</title>
<g id="a_node12"><a xlink:href="../../da/dae/functional_2_tuple_8hpp.html" target="_top" xlink:title=" ">
<polygon fill="white" stroke="#666666" points="680.57,-90.25 553.57,-90.25 553.57,-56.75 680.57,-56.75 680.57,-90.25"/>
<text text-anchor="start" x="561.57" y="-76.75" font-family="Helvetica,sans-Serif" font-size="10.00">Simple&#45;Utility/functional</text>
<text text-anchor="middle" x="617.07" y="-64" font-family="Helvetica,sans-Serif" font-size="10.00">/Tuple.hpp</text>
</a>
</g>
</g>
<!-- Node10&#45;&gt;Node12 -->
<g id="edge23" class="edge">
<title>Node10&#45;&gt;Node12</title>
<path fill="none" stroke="#63b8ff" d="M664.04,-118.53C654.11,-109.23 642.96,-98.77 634.01,-90.38"/>
<polygon fill="#63b8ff" stroke="#63b8ff" points="661.32,-120.72 671.01,-125 666.11,-115.61 661.32,-120.72"/>
</g>
<!-- Node13 -->
<g id="node13" class="node">
<title>Node13</title>
<g id="a_node13"><a xlink:href="../../de/d61/functional_2_utility_8hpp.html" target="_top" xlink:title=" ">
<polygon fill="white" stroke="#666666" points="825.57,-90.25 698.57,-90.25 698.57,-56.75 825.57,-56.75 825.57,-90.25"/>
<text text-anchor="start" x="706.57" y="-76.75" font-family="Helvetica,sans-Serif" font-size="10.00">Simple&#45;Utility/functional</text>
<text text-anchor="middle" x="762.07" y="-64" font-family="Helvetica,sans-Serif" font-size="10.00">/Utility.hpp</text>
</a>
</g>
</g>
<!-- Node10&#45;&gt;Node13 -->
<g id="edge25" class="edge">
<title>Node10&#45;&gt;Node13</title>
<path fill="none" stroke="#63b8ff" d="M714.39,-118.59C724.38,-109.35 735.6,-98.98 744.64,-90.62"/>
<polygon fill="#63b8ff" stroke="#63b8ff" points="712.34,-115.64 707.37,-125 717.09,-120.78 712.34,-115.64"/>
</g>
<!-- Node11&#45;&gt;Node3 -->
<g id="edge21" class="edge">
<title>Node11&#45;&gt;Node3</title>
<path fill="none" stroke="#63b8ff" d="M871.58,-57.28C870.4,-57.1 869.23,-56.92 868.07,-56.75 722.01,-35.28 549.78,-22.07 453.94,-15.78"/>
<polygon fill="#63b8ff" stroke="#63b8ff" points="870.88,-60.88 881.32,-59.05 872.02,-53.97 870.88,-60.88"/>
</g>
<!-- Node12&#45;&gt;Node3 -->
<g id="edge24" class="edge">
<title>Node12&#45;&gt;Node3</title>
<path fill="none" stroke="#63b8ff" d="M543.54,-53.54C501.98,-42.82 451.75,-29.86 418.03,-21.17"/>
<polygon fill="#63b8ff" stroke="#63b8ff" points="542.63,-57.17 553.18,-56.28 544.37,-50.39 542.63,-57.17"/>
</g>
<!-- Node13&#45;&gt;Node3 -->
<g id="edge26" class="edge">
<title>Node13&#45;&gt;Node3</title>
<path fill="none" stroke="#63b8ff" d="M687.48,-56.34C602.29,-41.05 514.34,-28.68 453.91,-20.7"/>
<polygon fill="#63b8ff" stroke="#63b8ff" points="686.66,-59.93 697.13,-58.27 687.91,-53.04 686.66,-59.93"/>
</g>
</g>
</svg>
        <g id="navigator" transform="translate(0 0)" fill="#404254">
                <rect fill="#f2f5e9" fill-opacity="0.5" stroke="#606060" stroke-width=".5" x="0" y="0" width="60" height="60"/>
                <use id="zoomplus" xlink:href="#zoomPlus" x="17" y="9" onmousedown="handleZoom(evt,'in')"/>
                <use id="zoomminus" xlink:href="#zoomMin" x="42" y="9" onmousedown="handleZoom(evt,'out')"/>
                <use id="reset" xlink:href="#resetDef" x="30" y="36" onmousedown="handleReset()"/>
                <g id="arrowUp" xlink:href="#dirArrow" transform="translate(30 24)" onmousedown="handlePan(0,-1)">
                  <use xlink:href="#rim" fill="#404040">
                        <set attributeName="fill" to="#808080" begin="arrowUp.mouseover" end="arrowUp.mouseout"/>
                  </use>
                  <path fill="none" stroke="white" stroke-width="1.5" d="M0,-3.0v7 M-2.5,-0.5L0,-3.0L2.5,-0.5"/>
                </g>
                <g id="arrowRight" xlink:href="#dirArrow" transform="rotate(90) translate(36 -43)" onmousedown="handlePan(1,0)">
                  <use xlink:href="#rim" fill="#404040">
                        <set attributeName="fill" to="#808080" begin="arrowRight.mouseover" end="arrowRight.mouseout"/>
                  </use>
                  <path fill="none" stroke="white" stroke-width="1.5" d="M0,-3.0v7 M-2.5,-0.5L0,-3.0L2.5,-0.5"/>
                </g>
                <g id="arrowDown" xlink:href="#dirArrow" transform="rotate(180) translate(-30 -48)" onmousedown="handlePan(0,1)">
                  <use xlink:href="#rim" fill="#404040">
                        <set attributeName="fill" to="#808080" begin="arrowDown.mouseover" end="arrowDown.mouseout"/>
                  </use>
                  <path fill="none" stroke="white" stroke-width="1.5" d="M0,-3.0v7 M-2.5,-0.5L0,-3.0L2.5,-0.5"/>
                </g>
                <g id="arrowLeft" xlink:href="#dirArrow" transform="rotate(270) translate(-36 17)" onmousedown="handlePan(-1,0)">
                  <use xlink:href="#rim" fill="#404040">
                        <set attributeName="fill" to="#808080" begin="arrowLeft.mouseover" end="arrowLeft.mouseout"/>
                  </use>
                  <path fill="none" stroke="white" stroke-width="1.5" d="M0,-3.0v7 M-2.5,-0.5L0,-3.0L2.5,-0.5"/>
                </g>
        </g>
        <svg viewBox="0 0 15 15" width="100%" height="30px" preserveAspectRatio="xMaxYMin meet">
         <g id="arrow_out" transform="scale(0.3 0.3)">
          <a xlink:href="_tuple_8hpp__dep__incl_org.svg" target="_base">
           <rect id="button" ry="5" rx="5" y="6" x="6" height="38" width="38"
                fill="#f2f5e9" fill-opacity="0.5" stroke="#606060" stroke-width="1.0"/>
           <path id="arrow"
             d="M 11.500037,31.436501 C 11.940474,20.09759 22.043105,11.32322 32.158766,21.979434 L 37.068811,17.246167 C 37.068811,17.246167 37.088388,32 37.088388,32 L 22.160133,31.978069 C 22.160133,31.978069 26.997745,27.140456 26.997745,27.140456 C 18.528582,18.264221 13.291696,25.230495 11.500037,31.436501 z"
             style="fill:#404040;"/>
          </a>
         </g>
        </svg>
</svg>
