<?xml version="1.0" encoding="UTF-8" standalone="no"?>
<!DOCTYPE svg PUBLIC "-//W3C//DTD SVG 1.1//EN"
 "http://www.w3.org/Graphics/SVG/1.1/DTD/svg11.dtd">
<!-- Generated by graphviz version 7.0.5 (20221223.1930)
 -->
<!-- Title: Simple&#45;Utility/concepts/utility.hpp Pages: 1 -->
<!--zoomable 423 -->
<svg id="main" version="1.1" xmlns="http://www.w3.org/2000/svg" xmlns:xlink="http://www.w3.org/1999/xlink" xml:space="preserve" onload="init(evt)">
<style type="text/css"><![CDATA[
.edge:hover path { stroke: red; }
.edge:hover polygon { stroke: red; fill: red; }
]]></style>
<script type="text/javascript"><![CDATA[
var edges = document.getElementsByTagName('g');
if (edges && edges.length) {
  for (var i=0;i<edges.length;i++) {
    if (edges[i].id.substr(0,4)=='edge') {
      edges[i].setAttribute('class','edge');
    }
  }
}
]]></script>
        <defs>
                <circle id="rim" cx="0" cy="0" r="7"/>
                <circle id="rim2" cx="0" cy="0" r="3.5"/>
                <g id="zoomPlus">
                        <use xlink:href="#rim" fill="#404040">
                                <set attributeName="fill" to="#808080" begin="zoomplus.mouseover" end="zoomplus.mouseout"/>
                        </use>
                        <path d="M-4,0h8M0,-4v8" fill="none" stroke="white" stroke-width="1.5" pointer-events="none"/>
                </g>
                <g id="zoomMin">
                        <use xlink:href="#rim" fill="#404040">
                                <set attributeName="fill" to="#808080" begin="zoomminus.mouseover" end="zoomminus.mouseout"/>
                        </use>
                        <path d="M-4,0h8" fill="none" stroke="white" stroke-width="1.5" pointer-events="none"/>
                </g>
                <g id="dirArrow">
                        <path fill="none" stroke="white" stroke-width="1.5" d="M0,-3.0v7 M-2.5,-0.5L0,-3.0L2.5,-0.5"/>
                </g>
               <g id="resetDef">
                       <use xlink:href="#rim2" fill="#404040">
                               <set attributeName="fill" to="#808080" begin="reset.mouseover" end="reset.mouseout"/>
                       </use>
               </g>
        </defs>

<script type="text/javascript">
var viewWidth = 2349;
var viewHeight = 423;
var sectionId = 'dynsection-1';
</script>
<script xlink:href="../../svgpan.js"/>
<svg id="graph" class="graph">
<g id="viewport">
<title>Simple&#45;Utility/concepts/utility.hpp</title>
<!-- Node1 -->
<g id="node1" class="node">
<title>Node1</title>
<g id="a_node1"><a xlink:title=" ">
<polygon fill="#999999" stroke="#666666" points="2196.5,-415 2074.5,-415 2074.5,-385 2196.5,-385 2196.5,-415"/>
<text text-anchor="start" x="2082.5" y="-403" font-family="Helvetica,sans-Serif" font-size="10.00">Simple&#45;Utility/concepts</text>
<text text-anchor="middle" x="2135.5" y="-392" font-family="Helvetica,sans-Serif" font-size="10.00">/utility.hpp</text>
</a>
</g>
</g>
<!-- Node2 -->
<g id="node2" class="node">
<title>Node2</title>
<g id="a_node2"><a xlink:href="../../d1/d76/functional_2base_8hpp.html" target="_top" xlink:title=" ">
<polygon fill="white" stroke="#666666" points="1906.5,-349 1778.5,-349 1778.5,-319 1906.5,-319 1906.5,-349"/>
<text text-anchor="start" x="1786.5" y="-337" font-family="Helvetica,sans-Serif" font-size="10.00">Simple&#45;Utility/functional</text>
<text text-anchor="middle" x="1842.5" y="-326" font-family="Helvetica,sans-Serif" font-size="10.00">/base.hpp</text>
</a>
</g>
</g>
<!-- Node1&#45;&gt;Node2 -->
<g id="edge1" class="edge">
<title>Node1&#45;&gt;Node2</title>
<path fill="none" stroke="#63b8ff" d="M2062.86,-383.13C2015.02,-372.68 1952.95,-359.13 1906.89,-349.06"/>
<polygon fill="#63b8ff" stroke="#63b8ff" points="2062.08,-386.55 2072.6,-385.26 2063.58,-379.71 2062.08,-386.55"/>
</g>
<!-- Node9 -->
<g id="node9" class="node">
<title>Node9</title>
<g id="a_node9"><a xlink:href="../../d9/d5f/functional_2tuple_8hpp.html" target="_top" xlink:title=" ">
<polygon fill="white" stroke="#666666" points="1988.5,-85 1860.5,-85 1860.5,-55 1988.5,-55 1988.5,-85"/>
<text text-anchor="start" x="1868.5" y="-73" font-family="Helvetica,sans-Serif" font-size="10.00">Simple&#45;Utility/functional</text>
<text text-anchor="middle" x="1924.5" y="-62" font-family="Helvetica,sans-Serif" font-size="10.00">/tuple.hpp</text>
</a>
</g>
</g>
<!-- Node1&#45;&gt;Node9 -->
<g id="edge64" class="edge">
<title>Node1&#45;&gt;Node9</title>
<path fill="none" stroke="#63b8ff" d="M2207.56,-384.34C2266.62,-367.62 2340.5,-333.77 2340.5,-269 2340.5,-269 2340.5,-269 2340.5,-201 2340.5,-128.17 2105.28,-91.36 1988.59,-77.58"/>
<polygon fill="#63b8ff" stroke="#63b8ff" points="2206.93,-380.88 2198.19,-386.87 2208.76,-387.64 2206.93,-380.88"/>
</g>
<!-- Node21 -->
<g id="node21" class="node">
<title>Node21</title>
<g id="a_node21"><a xlink:href="../../df/d80/conjunction_8hpp.html" target="_top" xlink:title=" ">
<polygon fill="white" stroke="#666666" points="2226,-217 2085,-217 2085,-187 2226,-187 2226,-217"/>
<text text-anchor="start" x="2093" y="-205" font-family="Helvetica,sans-Serif" font-size="10.00">Simple&#45;Utility/functional</text>
<text text-anchor="middle" x="2155.5" y="-194" font-family="Helvetica,sans-Serif" font-size="10.00">/operators/conjunction.hpp</text>
</a>
</g>
</g>
<!-- Node1&#45;&gt;Node21 -->
<g id="edge60" class="edge">
<title>Node1&#45;&gt;Node21</title>
<path fill="none" stroke="#63b8ff" d="M2177.86,-379.38C2213.39,-360.34 2261.72,-327.75 2283.5,-283 2289.34,-271.01 2291.02,-264.01 2283.5,-253 2270.25,-233.59 2248.24,-221.72 2226.18,-214.45"/>
<polygon fill="#63b8ff" stroke="#63b8ff" points="2176.36,-376.22 2169.1,-383.93 2179.59,-382.43 2176.36,-376.22"/>
</g>
<!-- Node22 -->
<g id="node22" class="node">
<title>Node22</title>
<g id="a_node22"><a xlink:href="../../d4/d7c/disjunction_8hpp.html" target="_top" xlink:title=" ">
<polygon fill="white" stroke="#666666" points="1652,-217 1515,-217 1515,-187 1652,-187 1652,-217"/>
<text text-anchor="start" x="1523" y="-205" font-family="Helvetica,sans-Serif" font-size="10.00">Simple&#45;Utility/functional</text>
<text text-anchor="middle" x="1583.5" y="-194" font-family="Helvetica,sans-Serif" font-size="10.00">/operators/disjunction.hpp</text>
</a>
</g>
</g>
<!-- Node1&#45;&gt;Node22 -->
<g id="edge61" class="edge">
<title>Node1&#45;&gt;Node22</title>
<path fill="none" stroke="#63b8ff" d="M2063.06,-396.21C1988.09,-391.69 1868.34,-379.88 1769.5,-349 1707.65,-329.68 1688.43,-325.48 1639.5,-283 1617.61,-263.99 1599.98,-234.68 1590.68,-217.32"/>
<polygon fill="#63b8ff" stroke="#63b8ff" points="2062.55,-399.69 2072.73,-396.76 2062.95,-392.7 2062.55,-399.69"/>
</g>
<!-- Node23 -->
<g id="node23" class="node">
<title>Node23</title>
<g id="a_node23"><a xlink:href="../../dc/d0a/equal_8hpp.html" target="_top" xlink:title=" ">
<polygon fill="white" stroke="#666666" points="2082.5,-283 1954.5,-283 1954.5,-253 2082.5,-253 2082.5,-283"/>
<text text-anchor="start" x="1962.5" y="-271" font-family="Helvetica,sans-Serif" font-size="10.00">Simple&#45;Utility/functional</text>
<text text-anchor="middle" x="2018.5" y="-260" font-family="Helvetica,sans-Serif" font-size="10.00">/operators/equal.hpp</text>
</a>
</g>
</g>
<!-- Node1&#45;&gt;Node23 -->
<g id="edge62" class="edge">
<title>Node1&#45;&gt;Node23</title>
<path fill="none" stroke="#63b8ff" d="M2115,-376.22C2090.94,-349.49 2051.77,-305.96 2031.53,-283.47"/>
<polygon fill="#63b8ff" stroke="#63b8ff" points="2112.23,-378.37 2121.52,-383.47 2117.43,-373.69 2112.23,-378.37"/>
</g>
<!-- Node24 -->
<g id="node24" class="node">
<title>Node24</title>
<g id="a_node24"><a xlink:href="../../d7/dd0/equivalent_8hpp.html" target="_top" xlink:title=" ">
<polygon fill="white" stroke="#666666" points="2274,-283 2139,-283 2139,-253 2274,-253 2274,-283"/>
<text text-anchor="start" x="2147" y="-271" font-family="Helvetica,sans-Serif" font-size="10.00">Simple&#45;Utility/functional</text>
<text text-anchor="middle" x="2206.5" y="-260" font-family="Helvetica,sans-Serif" font-size="10.00">/operators/equivalent.hpp</text>
</a>
</g>
</g>
<!-- Node1&#45;&gt;Node24 -->
<g id="edge63" class="edge">
<title>Node1&#45;&gt;Node24</title>
<path fill="none" stroke="#63b8ff" d="M2148.71,-374.81C2163.36,-347.98 2186.53,-305.57 2198.6,-283.47"/>
<polygon fill="#63b8ff" stroke="#63b8ff" points="2145.82,-372.81 2144.1,-383.26 2151.96,-376.16 2145.82,-372.81"/>
</g>
<!-- Node3 -->
<g id="node3" class="node">
<title>Node3</title>
<g id="a_node3"><a xlink:href="../../d2/db4/functional_8hpp.html" target="_top" xlink:title=" ">
<polygon fill="white" stroke="#666666" points="1773.5,-19 1625.5,-19 1625.5,0 1773.5,0 1773.5,-19"/>
<text text-anchor="middle" x="1699.5" y="-7" font-family="Helvetica,sans-Serif" font-size="10.00">Simple&#45;Utility/functional.hpp</text>
</a>
</g>
</g>
<!-- Node2&#45;&gt;Node3 -->
<g id="edge2" class="edge">
<title>Node2&#45;&gt;Node3</title>
<path fill="none" stroke="#63b8ff" d="M1767.56,-315.79C1750.59,-308.41 1734.38,-297.92 1723.5,-283 1663.55,-200.82 1712.5,-156.32 1703.5,-55 1702.4,-42.64 1701.11,-28.35 1700.3,-19.36"/>
<polygon fill="#63b8ff" stroke="#63b8ff" points="1766.2,-319.01 1776.78,-319.43 1768.77,-312.5 1766.2,-319.01"/>
</g>
<!-- Node4 -->
<g id="node4" class="node">
<title>Node4</title>
<g id="a_node4"><a xlink:href="../../d9/d76/bind_8hpp.html" target="_top" xlink:title=" ">
<polygon fill="white" stroke="#666666" points="1496.5,-217 1368.5,-217 1368.5,-187 1496.5,-187 1496.5,-217"/>
<text text-anchor="start" x="1376.5" y="-205" font-family="Helvetica,sans-Serif" font-size="10.00">Simple&#45;Utility/functional</text>
<text text-anchor="middle" x="1432.5" y="-194" font-family="Helvetica,sans-Serif" font-size="10.00">/operators/bind.hpp</text>
</a>
</g>
</g>
<!-- Node2&#45;&gt;Node4 -->
<g id="edge3" class="edge">
<title>Node2&#45;&gt;Node4</title>
<path fill="none" stroke="#63b8ff" d="M1767.24,-316.87C1728.71,-308.01 1681.25,-296.15 1639.5,-283 1577.03,-263.32 1506.24,-234.5 1465.74,-217.36"/>
<polygon fill="#63b8ff" stroke="#63b8ff" points="1766.37,-320.26 1776.9,-319.07 1767.93,-313.44 1766.37,-320.26"/>
</g>
<!-- Node5 -->
<g id="node5" class="node">
<title>Node5</title>
<g id="a_node5"><a xlink:href="../../d2/d7e/predicate_8hpp.html" target="_top" xlink:title=" ">
<polygon fill="white" stroke="#666666" points="1978.5,-151 1850.5,-151 1850.5,-121 1978.5,-121 1978.5,-151"/>
<text text-anchor="start" x="1858.5" y="-139" font-family="Helvetica,sans-Serif" font-size="10.00">Simple&#45;Utility/functional</text>
<text text-anchor="middle" x="1914.5" y="-128" font-family="Helvetica,sans-Serif" font-size="10.00">/predicate.hpp</text>
</a>
</g>
</g>
<!-- Node2&#45;&gt;Node5 -->
<g id="edge57" class="edge">
<title>Node2&#45;&gt;Node5</title>
<path fill="none" stroke="#63b8ff" d="M1869.59,-311.07C1893.42,-289.88 1926.44,-255.42 1940.5,-217 1948.83,-194.23 1935.42,-167.35 1924.97,-151.27"/>
<polygon fill="#63b8ff" stroke="#63b8ff" points="1867.39,-308.35 1862.11,-317.53 1871.96,-313.64 1867.39,-308.35"/>
</g>
<!-- Node7 -->
<g id="node7" class="node">
<title>Node7</title>
<g id="a_node7"><a xlink:href="../../d6/deb/transform_8hpp.html" target="_top" xlink:title=" ">
<polygon fill="white" stroke="#666666" points="1417.5,-151 1289.5,-151 1289.5,-121 1417.5,-121 1417.5,-151"/>
<text text-anchor="start" x="1297.5" y="-139" font-family="Helvetica,sans-Serif" font-size="10.00">Simple&#45;Utility/functional</text>
<text text-anchor="middle" x="1353.5" y="-128" font-family="Helvetica,sans-Serif" font-size="10.00">/transform.hpp</text>
</a>
</g>
</g>
<!-- Node2&#45;&gt;Node7 -->
<g id="edge58" class="edge">
<title>Node2&#45;&gt;Node7</title>
<path fill="none" stroke="#63b8ff" d="M1767.24,-326.17C1644.28,-313.28 1409.01,-280.73 1359.5,-217 1344.89,-198.19 1347.12,-168.82 1350.21,-151.38"/>
<polygon fill="#63b8ff" stroke="#63b8ff" points="1766.61,-329.63 1776.91,-327.17 1767.32,-322.66 1766.61,-329.63"/>
</g>
<!-- Node16 -->
<g id="node16" class="node">
<title>Node16</title>
<g id="a_node16"><a xlink:href="../../d6/dbe/nullables_2base_8hpp.html" target="_top" xlink:title=" ">
<polygon fill="white" stroke="#666666" points="715,-151 592,-151 592,-121 715,-121 715,-151"/>
<text text-anchor="start" x="600" y="-139" font-family="Helvetica,sans-Serif" font-size="10.00">Simple&#45;Utility/nullables</text>
<text text-anchor="middle" x="653.5" y="-128" font-family="Helvetica,sans-Serif" font-size="10.00">/base.hpp</text>
</a>
</g>
</g>
<!-- Node2&#45;&gt;Node16 -->
<g id="edge59" class="edge">
<title>Node2&#45;&gt;Node16</title>
<path fill="none" stroke="#63b8ff" d="M1766.98,-326C1680.57,-317.58 1534.94,-302.17 1410.5,-283 1150.56,-242.95 843.66,-178.36 715.04,-150.5"/>
<polygon fill="#63b8ff" stroke="#63b8ff" points="1766.46,-329.46 1776.75,-326.94 1767.13,-322.5 1766.46,-329.46"/>
</g>
<!-- Node2&#45;&gt;Node21 -->
<g id="edge39" class="edge">
<title>Node2&#45;&gt;Node21</title>
<path fill="none" stroke="#63b8ff" d="M1918.14,-331.2C1970.2,-326.89 2039.14,-314.89 2091.5,-283 2117.93,-266.9 2138,-235.73 2148.14,-217.41"/>
<polygon fill="#63b8ff" stroke="#63b8ff" points="1918.19,-327.68 1908.47,-331.91 1918.7,-334.67 1918.19,-327.68"/>
</g>
<!-- Node2&#45;&gt;Node22 -->
<g id="edge42" class="edge">
<title>Node2&#45;&gt;Node22</title>
<path fill="none" stroke="#63b8ff" d="M1773.26,-315.4C1746.61,-307.3 1716.38,-296.47 1690.5,-283 1655.11,-264.58 1618.98,-234.8 1599.07,-217.24"/>
<polygon fill="#63b8ff" stroke="#63b8ff" points="1772.02,-318.68 1782.61,-318.16 1774.01,-311.97 1772.02,-318.68"/>
</g>
<!-- Node2&#45;&gt;Node23 -->
<g id="edge45" class="edge">
<title>Node2&#45;&gt;Node23</title>
<path fill="none" stroke="#63b8ff" d="M1892.54,-314.8C1919.89,-304.86 1953.29,-292.71 1978.83,-283.43"/>
<polygon fill="#63b8ff" stroke="#63b8ff" points="1891.62,-311.41 1883.42,-318.12 1894.01,-317.99 1891.62,-311.41"/>
</g>
<!-- Node2&#45;&gt;Node24 -->
<g id="edge47" class="edge">
<title>Node2&#45;&gt;Node24</title>
<path fill="none" stroke="#63b8ff" d="M1917.72,-319.77C1982.72,-308.35 2075.82,-291.98 2138.58,-280.94"/>
<polygon fill="#63b8ff" stroke="#63b8ff" points="1917.47,-316.26 1908.23,-321.44 1918.68,-323.16 1917.47,-316.26"/>
</g>
<!-- Node25 -->
<g id="node25" class="node">
<title>Node25</title>
<g id="a_node25"><a xlink:href="../../d8/dea/negation_8hpp.html" target="_top" xlink:title=" ">
<polygon fill="white" stroke="#666666" points="1914,-217 1785,-217 1785,-187 1914,-187 1914,-217"/>
<text text-anchor="start" x="1793" y="-205" font-family="Helvetica,sans-Serif" font-size="10.00">Simple&#45;Utility/functional</text>
<text text-anchor="middle" x="1849.5" y="-194" font-family="Helvetica,sans-Serif" font-size="10.00">/operators/negation.hpp</text>
</a>
</g>
</g>
<!-- Node2&#45;&gt;Node25 -->
<g id="edge49" class="edge">
<title>Node2&#45;&gt;Node25</title>
<path fill="none" stroke="#63b8ff" d="M1858.44,-309.22C1862.93,-301.23 1867.21,-292.04 1869.5,-283 1875.29,-260.1 1865.31,-233.48 1857.48,-217.46"/>
<polygon fill="#63b8ff" stroke="#63b8ff" points="1855.54,-307.25 1853.35,-317.62 1861.53,-310.88 1855.54,-307.25"/>
</g>
<!-- Node26 -->
<g id="node26" class="node">
<title>Node26</title>
<g id="a_node26"><a xlink:href="../../d5/db7/pipe_8hpp.html" target="_top" xlink:title=" ">
<polygon fill="white" stroke="#666666" points="1860.5,-283 1732.5,-283 1732.5,-253 1860.5,-253 1860.5,-283"/>
<text text-anchor="start" x="1740.5" y="-271" font-family="Helvetica,sans-Serif" font-size="10.00">Simple&#45;Utility/functional</text>
<text text-anchor="middle" x="1796.5" y="-260" font-family="Helvetica,sans-Serif" font-size="10.00">/operators/pipe.hpp</text>
</a>
</g>
</g>
<!-- Node2&#45;&gt;Node26 -->
<g id="edge52" class="edge">
<title>Node2&#45;&gt;Node26</title>
<path fill="none" stroke="#63b8ff" d="M1825.74,-309.68C1819.35,-300.79 1812.27,-290.95 1806.68,-283.16"/>
<polygon fill="#63b8ff" stroke="#63b8ff" points="1822.73,-311.49 1831.41,-317.57 1828.41,-307.4 1822.73,-311.49"/>
</g>
<!-- Node4&#45;&gt;Node3 -->
<g id="edge4" class="edge">
<title>Node4&#45;&gt;Node3</title>
<path fill="none" stroke="#63b8ff" d="M1470.76,-181.17C1510.55,-159.78 1573.87,-123.57 1623.5,-85 1650.64,-63.91 1678.46,-34.14 1691.65,-19.43"/>
<polygon fill="#63b8ff" stroke="#63b8ff" points="1469.19,-178.04 1462.01,-185.83 1472.48,-184.22 1469.19,-178.04"/>
</g>
<!-- Node4&#45;&gt;Node5 -->
<g id="edge5" class="edge">
<title>Node4&#45;&gt;Node5</title>
<path fill="none" stroke="#63b8ff" d="M1508.01,-186.67C1634.91,-167.06 1771.77,-151.73 1850.2,-143.5"/>
<polygon fill="#63b8ff" stroke="#63b8ff" points="1507.78,-183.16 1498.44,-188.16 1508.86,-190.08 1507.78,-183.16"/>
</g>
<!-- Node4&#45;&gt;Node7 -->
<g id="edge9" class="edge">
<title>Node4&#45;&gt;Node7</title>
<path fill="none" stroke="#63b8ff" d="M1406.21,-179.7C1394.72,-170.4 1381.56,-159.73 1371.26,-151.39"/>
<polygon fill="#63b8ff" stroke="#63b8ff" points="1403.82,-182.27 1413.79,-185.84 1408.22,-176.83 1403.82,-182.27"/>
</g>
<!-- Node4&#45;&gt;Node16 -->
<g id="edge26" class="edge">
<title>Node4&#45;&gt;Node16</title>
<path fill="none" stroke="#63b8ff" d="M1356.91,-194.79C1203.16,-182.16 856.61,-153.69 715.28,-142.08"/>
<polygon fill="#63b8ff" stroke="#63b8ff" points="1356.33,-198.25 1366.58,-195.58 1356.9,-191.28 1356.33,-198.25"/>
</g>
<!-- Node5&#45;&gt;Node3 -->
<g id="edge6" class="edge">
<title>Node5&#45;&gt;Node3</title>
<path fill="none" stroke="#63b8ff" d="M1887.88,-113.65C1862.08,-93.2 1824.56,-64.14 1808.5,-55 1782.03,-39.95 1749.44,-27.34 1726.83,-19.43"/>
<polygon fill="#63b8ff" stroke="#63b8ff" points="1885.6,-116.32 1895.6,-119.8 1889.96,-110.84 1885.6,-116.32"/>
</g>
<!-- Node6 -->
<g id="node6" class="node">
<title>Node6</title>
<g id="a_node6"><a xlink:href="../../dd/d3f/compare_8hpp.html" target="_top" xlink:title=" ">
<polygon fill="white" stroke="#666666" points="1614.5,-85 1486.5,-85 1486.5,-55 1614.5,-55 1614.5,-85"/>
<text text-anchor="start" x="1494.5" y="-73" font-family="Helvetica,sans-Serif" font-size="10.00">Simple&#45;Utility/functional</text>
<text text-anchor="middle" x="1550.5" y="-62" font-family="Helvetica,sans-Serif" font-size="10.00">/compare.hpp</text>
</a>
</g>
</g>
<!-- Node5&#45;&gt;Node6 -->
<g id="edge7" class="edge">
<title>Node5&#45;&gt;Node6</title>
<path fill="none" stroke="#63b8ff" d="M1839.06,-121.74C1772.79,-110.08 1677.4,-93.31 1614.71,-82.29"/>
<polygon fill="#63b8ff" stroke="#63b8ff" points="1838.32,-125.16 1848.77,-123.44 1839.53,-118.26 1838.32,-125.16"/>
</g>
<!-- Node6&#45;&gt;Node3 -->
<g id="edge8" class="edge">
<title>Node6&#45;&gt;Node3</title>
<path fill="none" stroke="#63b8ff" d="M1597.92,-50.38C1624.37,-40 1656.09,-27.54 1676.97,-19.35"/>
<polygon fill="#63b8ff" stroke="#63b8ff" points="1596.77,-47.07 1588.74,-53.99 1599.33,-53.59 1596.77,-47.07"/>
</g>
<!-- Node7&#45;&gt;Node3 -->
<g id="edge10" class="edge">
<title>Node7&#45;&gt;Node3</title>
<path fill="none" stroke="#63b8ff" d="M1390.22,-115.17C1405.73,-106.41 1423.8,-95.68 1439.5,-85 1457.29,-72.9 1457.97,-64.03 1477.5,-55 1523.97,-33.51 1580.62,-22.37 1625.07,-16.61"/>
<polygon fill="#63b8ff" stroke="#63b8ff" points="1388.79,-111.96 1381.76,-119.89 1392.2,-118.07 1388.79,-111.96"/>
</g>
<!-- Node7&#45;&gt;Node6 -->
<g id="edge13" class="edge">
<title>Node7&#45;&gt;Node6</title>
<path fill="none" stroke="#63b8ff" d="M1408.29,-117.2C1439.13,-107.18 1477.14,-94.83 1506.1,-85.43"/>
<polygon fill="#63b8ff" stroke="#63b8ff" points="1407.58,-113.75 1399.15,-120.17 1409.74,-120.41 1407.58,-113.75"/>
</g>
<!-- Node8 -->
<g id="node8" class="node">
<title>Node8</title>
<g id="a_node8"><a xlink:href="../../d3/d23/arithmetic_8hpp.html" target="_top" xlink:title=" ">
<polygon fill="white" stroke="#666666" points="1284.5,-85 1156.5,-85 1156.5,-55 1284.5,-55 1284.5,-85"/>
<text text-anchor="start" x="1164.5" y="-73" font-family="Helvetica,sans-Serif" font-size="10.00">Simple&#45;Utility/functional</text>
<text text-anchor="middle" x="1220.5" y="-62" font-family="Helvetica,sans-Serif" font-size="10.00">/arithmetic.hpp</text>
</a>
</g>
</g>
<!-- Node7&#45;&gt;Node8 -->
<g id="edge11" class="edge">
<title>Node7&#45;&gt;Node8</title>
<path fill="none" stroke="#63b8ff" d="M1313.44,-115.72C1293.13,-105.95 1268.88,-94.28 1250.25,-85.31"/>
<polygon fill="#63b8ff" stroke="#63b8ff" points="1311.76,-118.8 1322.29,-119.98 1314.8,-112.49 1311.76,-118.8"/>
</g>
<!-- Node7&#45;&gt;Node9 -->
<g id="edge14" class="edge">
<title>Node7&#45;&gt;Node9</title>
<path fill="none" stroke="#63b8ff" d="M1429.21,-126.51C1542.51,-113.81 1754.19,-90.09 1860.34,-78.19"/>
<polygon fill="#63b8ff" stroke="#63b8ff" points="1428.94,-123.02 1419.4,-127.61 1429.72,-129.98 1428.94,-123.02"/>
</g>
<!-- Node10 -->
<g id="node10" class="node">
<title>Node10</title>
<g id="a_node10"><a xlink:href="../../df/d4e/functional_2utility_8hpp.html" target="_top" xlink:title=" ">
<polygon fill="white" stroke="#666666" points="1430.5,-85 1302.5,-85 1302.5,-55 1430.5,-55 1430.5,-85"/>
<text text-anchor="start" x="1310.5" y="-73" font-family="Helvetica,sans-Serif" font-size="10.00">Simple&#45;Utility/functional</text>
<text text-anchor="middle" x="1366.5" y="-62" font-family="Helvetica,sans-Serif" font-size="10.00">/utility.hpp</text>
</a>
</g>
</g>
<!-- Node7&#45;&gt;Node10 -->
<g id="edge16" class="edge">
<title>Node7&#45;&gt;Node10</title>
<path fill="none" stroke="#63b8ff" d="M1358.64,-109.68C1360.34,-101.34 1362.16,-92.37 1363.62,-85.16"/>
<polygon fill="#63b8ff" stroke="#63b8ff" points="1355.25,-108.82 1356.69,-119.31 1362.11,-110.21 1355.25,-108.82"/>
</g>
<!-- Node11 -->
<g id="node11" class="node">
<title>Node11</title>
<g id="a_node11"><a xlink:href="../../d4/dc9/and__then_8hpp.html" target="_top" xlink:title=" ">
<polygon fill="white" stroke="#666666" points="715,-85 592,-85 592,-55 715,-55 715,-85"/>
<text text-anchor="start" x="600" y="-73" font-family="Helvetica,sans-Serif" font-size="10.00">Simple&#45;Utility/nullables</text>
<text text-anchor="middle" x="653.5" y="-62" font-family="Helvetica,sans-Serif" font-size="10.00">/and_then.hpp</text>
</a>
</g>
</g>
<!-- Node7&#45;&gt;Node11 -->
<g id="edge18" class="edge">
<title>Node7&#45;&gt;Node11</title>
<path fill="none" stroke="#63b8ff" d="M1277.84,-131.89C1159.24,-126.36 922.53,-112.7 723.5,-85 720.8,-84.62 718.05,-84.21 715.27,-83.77"/>
<polygon fill="#63b8ff" stroke="#63b8ff" points="1277.63,-135.38 1287.78,-132.34 1277.95,-128.39 1277.63,-135.38"/>
</g>
<!-- Node13 -->
<g id="node13" class="node">
<title>Node13</title>
<g id="a_node13"><a xlink:href="../../d7/d5f/fwd__value_8hpp.html" target="_top" xlink:title=" ">
<polygon fill="white" stroke="#666666" points="856,-85 733,-85 733,-55 856,-55 856,-85"/>
<text text-anchor="start" x="741" y="-73" font-family="Helvetica,sans-Serif" font-size="10.00">Simple&#45;Utility/nullables</text>
<text text-anchor="middle" x="794.5" y="-62" font-family="Helvetica,sans-Serif" font-size="10.00">/fwd_value.hpp</text>
</a>
</g>
</g>
<!-- Node7&#45;&gt;Node13 -->
<g id="edge20" class="edge">
<title>Node7&#45;&gt;Node13</title>
<path fill="none" stroke="#63b8ff" d="M1277.81,-129.52C1181.46,-122.02 1010.05,-106.95 864.5,-85 861.8,-84.59 859.05,-84.15 856.28,-83.69"/>
<polygon fill="#63b8ff" stroke="#63b8ff" points="1277.43,-133 1287.67,-130.28 1277.97,-126.02 1277.43,-133"/>
</g>
<!-- Node14 -->
<g id="node14" class="node">
<title>Node14</title>
<g id="a_node14"><a xlink:href="../../d2/d0e/or__else_8hpp.html" target="_top" xlink:title=" ">
<polygon fill="white" stroke="#666666" points="997,-85 874,-85 874,-55 997,-55 997,-85"/>
<text text-anchor="start" x="882" y="-73" font-family="Helvetica,sans-Serif" font-size="10.00">Simple&#45;Utility/nullables</text>
<text text-anchor="middle" x="935.5" y="-62" font-family="Helvetica,sans-Serif" font-size="10.00">/or_else.hpp</text>
</a>
</g>
</g>
<!-- Node7&#45;&gt;Node14 -->
<g id="edge22" class="edge">
<title>Node7&#45;&gt;Node14</title>
<path fill="none" stroke="#63b8ff" d="M1278.2,-125.39C1207.58,-116.09 1099.15,-101.08 1005.5,-85 1002.81,-84.54 1000.07,-84.05 997.3,-83.55"/>
<polygon fill="#63b8ff" stroke="#63b8ff" points="1277.32,-128.81 1287.69,-126.64 1278.23,-121.86 1277.32,-128.81"/>
</g>
<!-- Node15 -->
<g id="node15" class="node">
<title>Node15</title>
<g id="a_node15"><a xlink:href="../../d0/d48/value__or_8hpp.html" target="_top" xlink:title=" ">
<polygon fill="white" stroke="#666666" points="1138,-85 1015,-85 1015,-55 1138,-55 1138,-85"/>
<text text-anchor="start" x="1023" y="-73" font-family="Helvetica,sans-Serif" font-size="10.00">Simple&#45;Utility/nullables</text>
<text text-anchor="middle" x="1076.5" y="-62" font-family="Helvetica,sans-Serif" font-size="10.00">/value_or.hpp</text>
</a>
</g>
</g>
<!-- Node7&#45;&gt;Node15 -->
<g id="edge24" class="edge">
<title>Node7&#45;&gt;Node15</title>
<path fill="none" stroke="#63b8ff" d="M1280.02,-118.02C1235.83,-107.81 1180.22,-94.96 1138.3,-85.28"/>
<polygon fill="#63b8ff" stroke="#63b8ff" points="1278.98,-121.38 1289.52,-120.22 1280.56,-114.56 1278.98,-121.38"/>
</g>
<!-- Node8&#45;&gt;Node3 -->
<g id="edge12" class="edge">
<title>Node8&#45;&gt;Node3</title>
<path fill="none" stroke="#63b8ff" d="M1296.22,-54.67C1416.96,-36.84 1546.06,-24 1625.18,-16.84"/>
<polygon fill="#63b8ff" stroke="#63b8ff" points="1295.81,-51.19 1286.44,-56.13 1296.84,-58.11 1295.81,-51.19"/>
</g>
<!-- Node9&#45;&gt;Node3 -->
<g id="edge15" class="edge">
<title>Node9&#45;&gt;Node3</title>
<path fill="none" stroke="#63b8ff" d="M1857.94,-51.69C1817.19,-41.1 1766.73,-27.98 1733.85,-19.43"/>
<polygon fill="#63b8ff" stroke="#63b8ff" points="1856.86,-55.03 1867.42,-54.16 1858.62,-48.25 1856.86,-55.03"/>
</g>
<!-- Node10&#45;&gt;Node3 -->
<g id="edge17" class="edge">
<title>Node10&#45;&gt;Node3</title>
<path fill="none" stroke="#63b8ff" d="M1441.97,-55.45C1442.82,-55.3 1443.66,-55.15 1444.5,-55 1514.86,-42.55 1596.19,-28.4 1647.72,-19.46"/>
<polygon fill="#63b8ff" stroke="#63b8ff" points="1441.49,-51.98 1432.26,-57.17 1442.72,-58.87 1441.49,-51.98"/>
</g>
<!-- Node12 -->
<g id="node12" class="node">
<title>Node12</title>
<g id="a_node12"><a xlink:href="../../d3/ddc/nullables_8hpp.html" target="_top" xlink:title=" ">
<polygon fill="white" stroke="#666666" points="680,-19 537,-19 537,0 680,0 680,-19"/>
<text text-anchor="middle" x="608.5" y="-7" font-family="Helvetica,sans-Serif" font-size="10.00">Simple&#45;Utility/nullables.hpp</text>
</a>
</g>
</g>
<!-- Node11&#45;&gt;Node12 -->
<g id="edge19" class="edge">
<title>Node11&#45;&gt;Node12</title>
<path fill="none" stroke="#63b8ff" d="M635.53,-45.64C628.36,-36.32 620.55,-26.16 615.17,-19.18"/>
<polygon fill="#63b8ff" stroke="#63b8ff" points="632.58,-47.55 641.45,-53.34 638.13,-43.28 632.58,-47.55"/>
</g>
<!-- Node13&#45;&gt;Node12 -->
<g id="edge21" class="edge">
<title>Node13&#45;&gt;Node12</title>
<path fill="none" stroke="#63b8ff" d="M737.96,-51.22C704.55,-40.71 663.67,-27.85 636.9,-19.43"/>
<polygon fill="#63b8ff" stroke="#63b8ff" points="736.49,-54.42 747.08,-54.09 738.59,-47.75 736.49,-54.42"/>
</g>
<!-- Node14&#45;&gt;Node12 -->
<g id="edge23" class="edge">
<title>Node14&#45;&gt;Node12</title>
<path fill="none" stroke="#63b8ff" d="M862.45,-54.65C787.13,-40.75 711.41,-27.78 662.01,-19.44"/>
<polygon fill="#63b8ff" stroke="#63b8ff" points="861.6,-58.05 872.07,-56.43 862.88,-51.16 861.6,-58.05"/>
</g>
<!-- Node15&#45;&gt;Node12 -->
<g id="edge25" class="edge">
<title>Node15&#45;&gt;Node12</title>
<path fill="none" stroke="#63b8ff" d="M1003.47,-54.77C884.45,-36.73 757.76,-23.88 680.46,-16.75"/>
<polygon fill="#63b8ff" stroke="#63b8ff" points="1002.69,-58.19 1013.1,-56.25 1003.75,-51.28 1002.69,-58.19"/>
</g>
<!-- Node16&#45;&gt;Node11 -->
<g id="edge30" class="edge">
<title>Node16&#45;&gt;Node11</title>
<path fill="none" stroke="#63b8ff" d="M653.5,-109.39C653.5,-101.13 653.5,-92.28 653.5,-85.16"/>
<polygon fill="#63b8ff" stroke="#63b8ff" points="650,-109.28 653.5,-119.28 657,-109.28 650,-109.28"/>
</g>
<!-- Node16&#45;&gt;Node12 -->
<g id="edge27" class="edge">
<title>Node16&#45;&gt;Node12</title>
<path fill="none" stroke="#63b8ff" d="M611.06,-114.74C599.71,-107.1 588.85,-97.23 582.5,-85 570.76,-62.38 589.81,-33.3 601.1,-19.09"/>
<polygon fill="#63b8ff" stroke="#63b8ff" points="608.98,-117.57 619.33,-119.84 612.66,-111.61 608.98,-117.57"/>
</g>
<!-- Node16&#45;&gt;Node13 -->
<g id="edge31" class="edge">
<title>Node16&#45;&gt;Node13</title>
<path fill="none" stroke="#63b8ff" d="M695.38,-115.99C717.03,-106.16 743.03,-94.36 762.96,-85.31"/>
<polygon fill="#63b8ff" stroke="#63b8ff" points="694.18,-112.69 686.52,-120.01 697.07,-119.07 694.18,-112.69"/>
</g>
<!-- Node16&#45;&gt;Node14 -->
<g id="edge32" class="edge">
<title>Node16&#45;&gt;Node14</title>
<path fill="none" stroke="#63b8ff" d="M726.42,-118.45C772.11,-108.08 830.35,-94.86 873.76,-85.01"/>
<polygon fill="#63b8ff" stroke="#63b8ff" points="725.84,-114.99 716.86,-120.62 727.39,-121.82 725.84,-114.99"/>
</g>
<!-- Node16&#45;&gt;Node15 -->
<g id="edge37" class="edge">
<title>Node16&#45;&gt;Node15</title>
<path fill="none" stroke="#63b8ff" d="M726.42,-125.8C797.74,-116.53 909.32,-101.3 1005.5,-85 1008.47,-84.5 1011.51,-83.96 1014.58,-83.41"/>
<polygon fill="#63b8ff" stroke="#63b8ff" points="726.3,-122.29 716.84,-127.04 727.2,-129.23 726.3,-122.29"/>
</g>
<!-- Node17 -->
<g id="node17" class="node">
<title>Node17</title>
<g id="a_node17"><a xlink:href="../../d6/dca/adapter_8hpp.html" target="_top" xlink:title=" ">
<polygon fill="white" stroke="#666666" points="123,-85 0,-85 0,-55 123,-55 123,-85"/>
<text text-anchor="start" x="8" y="-73" font-family="Helvetica,sans-Serif" font-size="10.00">Simple&#45;Utility/nullables</text>
<text text-anchor="middle" x="61.5" y="-62" font-family="Helvetica,sans-Serif" font-size="10.00">/adapter.hpp</text>
</a>
</g>
</g>
<!-- Node16&#45;&gt;Node17 -->
<g id="edge28" class="edge">
<title>Node16&#45;&gt;Node17</title>
<path fill="none" stroke="#63b8ff" d="M580.48,-130.36C479.28,-123.4 290.85,-108.5 131.5,-85 128.8,-84.6 126.05,-84.17 123.28,-83.71"/>
<polygon fill="#63b8ff" stroke="#63b8ff" points="580.06,-133.84 590.27,-131.03 580.53,-126.86 580.06,-133.84"/>
</g>
<!-- Node18 -->
<g id="node18" class="node">
<title>Node18</title>
<g id="a_node18"><a xlink:href="../../d9/d20/std__optional_8hpp.html" target="_top" xlink:title=" ">
<polygon fill="white" stroke="#666666" points="264,-85 141,-85 141,-55 264,-55 264,-85"/>
<text text-anchor="start" x="149" y="-73" font-family="Helvetica,sans-Serif" font-size="10.00">Simple&#45;Utility/nullables</text>
<text text-anchor="middle" x="202.5" y="-62" font-family="Helvetica,sans-Serif" font-size="10.00">/std_optional.hpp</text>
</a>
</g>
</g>
<!-- Node16&#45;&gt;Node18 -->
<g id="edge33" class="edge">
<title>Node16&#45;&gt;Node18</title>
<path fill="none" stroke="#63b8ff" d="M580.63,-126.91C503.79,-118.03 379.3,-102.67 272.5,-85 269.81,-84.56 267.07,-84.08 264.3,-83.59"/>
<polygon fill="#63b8ff" stroke="#63b8ff" points="579.77,-130.33 590.11,-128 580.57,-123.38 579.77,-130.33"/>
</g>
<!-- Node19 -->
<g id="node19" class="node">
<title>Node19</title>
<g id="a_node19"><a xlink:href="../../d8/d9a/std__pointers_8hpp.html" target="_top" xlink:title=" ">
<polygon fill="white" stroke="#666666" points="405,-85 282,-85 282,-55 405,-55 405,-85"/>
<text text-anchor="start" x="290" y="-73" font-family="Helvetica,sans-Serif" font-size="10.00">Simple&#45;Utility/nullables</text>
<text text-anchor="middle" x="343.5" y="-62" font-family="Helvetica,sans-Serif" font-size="10.00">/std_pointers.hpp</text>
</a>
</g>
</g>
<!-- Node16&#45;&gt;Node19 -->
<g id="edge35" class="edge">
<title>Node16&#45;&gt;Node19</title>
<path fill="none" stroke="#63b8ff" d="M580.44,-119.92C527.19,-108.92 455.83,-94.19 405.38,-83.78"/>
<polygon fill="#63b8ff" stroke="#63b8ff" points="579.53,-123.3 590.03,-121.9 580.94,-116.45 579.53,-123.3"/>
</g>
<!-- Node20 -->
<g id="node20" class="node">
<title>Node20</title>
<g id="a_node20"><a xlink:href="../../d0/d0f/unique__handle_8hpp.html" target="_top" xlink:title=" ">
<polygon fill="white" stroke="#666666" points="535.5,-85 423.5,-85 423.5,-55 535.5,-55 535.5,-85"/>
<text text-anchor="start" x="431.5" y="-73" font-family="Helvetica,sans-Serif" font-size="10.00">Simple&#45;Utility/unique</text>
<text text-anchor="middle" x="479.5" y="-62" font-family="Helvetica,sans-Serif" font-size="10.00">_handle.hpp</text>
</a>
</g>
</g>
<!-- Node16&#45;&gt;Node20 -->
<g id="edge38" class="edge">
<title>Node16&#45;&gt;Node20</title>
<path fill="none" stroke="#63b8ff" d="M603.67,-116.67C576.7,-106.75 543.85,-94.67 518.72,-85.43"/>
<polygon fill="#63b8ff" stroke="#63b8ff" points="602.44,-119.95 613.03,-120.11 604.85,-113.38 602.44,-119.95"/>
</g>
<!-- Node17&#45;&gt;Node12 -->
<g id="edge29" class="edge">
<title>Node17&#45;&gt;Node12</title>
<path fill="none" stroke="#63b8ff" d="M134.38,-54.67C282.68,-33.46 445.4,-20.91 536.7,-14.85"/>
<polygon fill="#63b8ff" stroke="#63b8ff" points="134.17,-51.17 124.77,-56.06 135.17,-58.09 134.17,-51.17"/>
</g>
<!-- Node18&#45;&gt;Node12 -->
<g id="edge34" class="edge">
<title>Node18&#45;&gt;Node12</title>
<path fill="none" stroke="#63b8ff" d="M275.62,-54.54C371.16,-38.94 470.95,-26.38 536.53,-18.64"/>
<polygon fill="#63b8ff" stroke="#63b8ff" points="275.09,-51.08 265.79,-56.17 276.23,-57.99 275.09,-51.08"/>
</g>
<!-- Node19&#45;&gt;Node12 -->
<g id="edge36" class="edge">
<title>Node19&#45;&gt;Node12</title>
<path fill="none" stroke="#63b8ff" d="M416.45,-52.89C465.34,-42.1 527.88,-28.3 568.07,-19.43"/>
<polygon fill="#63b8ff" stroke="#63b8ff" points="415.78,-49.46 406.77,-55.03 417.29,-56.29 415.78,-49.46"/>
</g>
<!-- Node21&#45;&gt;Node3 -->
<g id="edge40" class="edge">
<title>Node21&#45;&gt;Node3</title>
<path fill="none" stroke="#63b8ff" d="M2138.11,-177.84C2111.73,-144.58 2058.19,-84.1 1997.5,-55 1959.06,-36.57 1848.76,-23.57 1773.69,-16.55"/>
<polygon fill="#63b8ff" stroke="#63b8ff" points="2135.28,-179.9 2144.18,-185.64 2140.81,-175.6 2135.28,-179.9"/>
</g>
<!-- Node21&#45;&gt;Node5 -->
<g id="edge41" class="edge">
<title>Node21&#45;&gt;Node5</title>
<path fill="none" stroke="#63b8ff" d="M2090.14,-183.64C2052.08,-173.53 2004.66,-160.94 1968.69,-151.39"/>
<polygon fill="#63b8ff" stroke="#63b8ff" points="2089.09,-186.98 2099.65,-186.17 2090.88,-180.22 2089.09,-186.98"/>
</g>
<!-- Node22&#45;&gt;Node3 -->
<g id="edge43" class="edge">
<title>Node22&#45;&gt;Node3</title>
<path fill="none" stroke="#63b8ff" d="M1623.07,-180.81C1635.25,-172.94 1647.74,-162.92 1656.5,-151 1687.76,-108.45 1696.58,-42.85 1698.81,-19.29"/>
<polygon fill="#63b8ff" stroke="#63b8ff" points="1621.47,-177.69 1614.74,-185.87 1625.1,-183.67 1621.47,-177.69"/>
</g>
<!-- Node22&#45;&gt;Node5 -->
<g id="edge44" class="edge">
<title>Node22&#45;&gt;Node5</title>
<path fill="none" stroke="#63b8ff" d="M1663.67,-185.5C1720.88,-174.44 1796.82,-159.75 1850.1,-149.45"/>
<polygon fill="#63b8ff" stroke="#63b8ff" points="1663.13,-182.04 1653.97,-187.37 1664.45,-188.91 1663.13,-182.04"/>
</g>
<!-- Node23&#45;&gt;Node5 -->
<g id="edge46" class="edge">
<title>Node23&#45;&gt;Node5</title>
<path fill="none" stroke="#63b8ff" d="M2015.56,-241.37C2012.56,-224.53 2006.53,-202.77 1994.5,-187 1982.68,-171.51 1964.56,-159.61 1948.55,-151.32"/>
<polygon fill="#63b8ff" stroke="#63b8ff" points="2012.08,-241.75 2017.03,-251.12 2019,-240.71 2012.08,-241.75"/>
</g>
<!-- Node24&#45;&gt;Node5 -->
<g id="edge48" class="edge">
<title>Node24&#45;&gt;Node5</title>
<path fill="none" stroke="#63b8ff" d="M2155.29,-248.54C2131.18,-239.53 2102.14,-228.23 2076.5,-217 2073.16,-215.54 1989.15,-173.97 1943.46,-151.35"/>
<polygon fill="#63b8ff" stroke="#63b8ff" points="2153.99,-251.79 2164.58,-251.98 2156.42,-245.23 2153.99,-251.79"/>
</g>
<!-- Node25&#45;&gt;Node3 -->
<g id="edge50" class="edge">
<title>Node25&#45;&gt;Node3</title>
<path fill="none" stroke="#63b8ff" d="M1840.68,-176.26C1828.64,-145.12 1804.57,-91.32 1770.5,-55 1755.87,-39.4 1734.63,-27.05 1719.2,-19.35"/>
<polygon fill="#63b8ff" stroke="#63b8ff" points="1837.25,-177.08 1844.04,-185.22 1843.81,-174.62 1837.25,-177.08"/>
</g>
<!-- Node25&#45;&gt;Node5 -->
<g id="edge51" class="edge">
<title>Node25&#45;&gt;Node5</title>
<path fill="none" stroke="#63b8ff" d="M1872.04,-178.81C1881.35,-169.64 1891.88,-159.28 1900.11,-151.16"/>
<polygon fill="#63b8ff" stroke="#63b8ff" points="1869.67,-176.22 1865,-185.73 1874.59,-181.21 1869.67,-176.22"/>
</g>
<!-- Node26&#45;&gt;Node3 -->
<g id="edge53" class="edge">
<title>Node26&#45;&gt;Node3</title>
<path fill="none" stroke="#63b8ff" d="M1785.94,-242.23C1782.71,-234.25 1779.28,-225.32 1776.5,-217 1752.83,-146.25 1765.06,-122.13 1732.5,-55 1725.95,-41.5 1715.13,-27.93 1707.67,-19.39"/>
<polygon fill="#63b8ff" stroke="#63b8ff" points="1782.64,-243.42 1789.7,-251.32 1789.11,-240.75 1782.64,-243.42"/>
</g>
<!-- Node26&#45;&gt;Node5 -->
<g id="edge55" class="edge">
<title>Node26&#45;&gt;Node5</title>
<path fill="none" stroke="#63b8ff" d="M1871.84,-253.6C1891.94,-246.22 1911.4,-234.76 1923.5,-217 1936.87,-197.36 1928.52,-168.53 1921.39,-151.37"/>
<polygon fill="#63b8ff" stroke="#63b8ff" points="1870.81,-250.25 1862.42,-256.72 1873.01,-256.9 1870.81,-250.25"/>
</g>
<!-- Node26&#45;&gt;Node7 -->
<g id="edge56" class="edge">
<title>Node26&#45;&gt;Node7</title>
<path fill="none" stroke="#63b8ff" d="M1768.22,-245.94C1741.94,-227.45 1701.02,-201.33 1661.5,-187 1580.53,-157.63 1481.32,-145.46 1417.77,-140.45"/>
<polygon fill="#63b8ff" stroke="#63b8ff" points="1766.14,-248.75 1776.31,-251.73 1770.21,-243.06 1766.14,-248.75"/>
</g>
<!-- Node26&#45;&gt;Node25 -->
<g id="edge54" class="edge">
<title>Node26&#45;&gt;Node25</title>
<path fill="none" stroke="#63b8ff" d="M1815.58,-243.96C1823,-235 1831.26,-225.03 1837.77,-217.16"/>
<polygon fill="#63b8ff" stroke="#63b8ff" points="1812.91,-241.7 1809.23,-251.63 1818.3,-246.16 1812.91,-241.7"/>
</g>
</g>
</svg>
        <g id="navigator" transform="translate(0 0)" fill="#404254">
                <rect fill="#f2f5e9" fill-opacity="0.5" stroke="#606060" stroke-width=".5" x="0" y="0" width="60" height="60"/>
                <use id="zoomplus" xlink:href="#zoomPlus" x="17" y="9" onmousedown="handleZoom(evt,'in')"/>
                <use id="zoomminus" xlink:href="#zoomMin" x="42" y="9" onmousedown="handleZoom(evt,'out')"/>
                <use id="reset" xlink:href="#resetDef" x="30" y="36" onmousedown="handleReset()"/>
                <g id="arrowUp" xlink:href="#dirArrow" transform="translate(30 24)" onmousedown="handlePan(0,-1)">
                  <use xlink:href="#rim" fill="#404040">
                        <set attributeName="fill" to="#808080" begin="arrowUp.mouseover" end="arrowUp.mouseout"/>
                  </use>
                  <path fill="none" stroke="white" stroke-width="1.5" d="M0,-3.0v7 M-2.5,-0.5L0,-3.0L2.5,-0.5"/>
                </g>
                <g id="arrowRight" xlink:href="#dirArrow" transform="rotate(90) translate(36 -43)" onmousedown="handlePan(1,0)">
                  <use xlink:href="#rim" fill="#404040">
                        <set attributeName="fill" to="#808080" begin="arrowRight.mouseover" end="arrowRight.mouseout"/>
                  </use>
                  <path fill="none" stroke="white" stroke-width="1.5" d="M0,-3.0v7 M-2.5,-0.5L0,-3.0L2.5,-0.5"/>
                </g>
                <g id="arrowDown" xlink:href="#dirArrow" transform="rotate(180) translate(-30 -48)" onmousedown="handlePan(0,1)">
                  <use xlink:href="#rim" fill="#404040">
                        <set attributeName="fill" to="#808080" begin="arrowDown.mouseover" end="arrowDown.mouseout"/>
                  </use>
                  <path fill="none" stroke="white" stroke-width="1.5" d="M0,-3.0v7 M-2.5,-0.5L0,-3.0L2.5,-0.5"/>
                </g>
                <g id="arrowLeft" xlink:href="#dirArrow" transform="rotate(270) translate(-36 17)" onmousedown="handlePan(-1,0)">
                  <use xlink:href="#rim" fill="#404040">
                        <set attributeName="fill" to="#808080" begin="arrowLeft.mouseover" end="arrowLeft.mouseout"/>
                  </use>
                  <path fill="none" stroke="white" stroke-width="1.5" d="M0,-3.0v7 M-2.5,-0.5L0,-3.0L2.5,-0.5"/>
                </g>
        </g>
        <svg viewBox="0 0 15 15" width="100%" height="30px" preserveAspectRatio="xMaxYMin meet">
         <g id="arrow_out" transform="scale(0.3 0.3)">
          <a xlink:href="concepts_2utility_8hpp__dep__incl_org.svg" target="_base">
           <rect id="button" ry="5" rx="5" y="6" x="6" height="38" width="38"
                fill="#f2f5e9" fill-opacity="0.5" stroke="#606060" stroke-width="1.0"/>
           <path id="arrow"
             d="M 11.500037,31.436501 C 11.940474,20.09759 22.043105,11.32322 32.158766,21.979434 L 37.068811,17.246167 C 37.068811,17.246167 37.088388,32 37.088388,32 L 22.160133,31.978069 C 22.160133,31.978069 26.997745,27.140456 26.997745,27.140456 C 18.528582,18.264221 13.291696,25.230495 11.500037,31.436501 z"
             style="fill:#404040;"/>
          </a>
         </g>
        </svg>
</svg>
