<?xml version="1.0" encoding="UTF-8" standalone="no"?>
<!DOCTYPE svg PUBLIC "-//W3C//DTD SVG 1.1//EN"
 "http://www.w3.org/Graphics/SVG/1.1/DTD/svg11.dtd">
<!-- Generated by graphviz version 2.43.0 (0)
 -->
<!-- Title: /home/runner/work/Simple&#45;Utility/Simple&#45;Utility/include/Simple&#45;Utility/concepts/utility.hpp Pages: 1 -->
<svg width="2732pt" height="595pt"
 viewBox="0.00 0.00 2732.00 595.00" xmlns="http://www.w3.org/2000/svg" xmlns:xlink="http://www.w3.org/1999/xlink">
<g id="graph0" class="graph" transform="scale(1 1) rotate(0) translate(4 591)">
<title>/home/runner/work/Simple&#45;Utility/Simple&#45;Utility/include/Simple&#45;Utility/concepts/utility.hpp</title>
<polygon fill="white" stroke="transparent" points="-4,4 -4,-591 2728,-591 2728,4 -4,4"/>
<!-- Node1 -->
<g id="node1" class="node">
<title>Node1</title>
<g id="a_node1"><a xlink:title=" ">
<polygon fill="#bfbfbf" stroke="black" points="2399,-534.5 2399,-586.5 2545,-586.5 2545,-534.5 2399,-534.5"/>
<text text-anchor="start" x="2407" y="-574.5" font-family="Helvetica,sans-Serif" font-size="10.00">/home/runner/work/Simple</text>
<text text-anchor="start" x="2407" y="-563.5" font-family="Helvetica,sans-Serif" font-size="10.00">&#45;Utility/Simple&#45;Utility</text>
<text text-anchor="start" x="2407" y="-552.5" font-family="Helvetica,sans-Serif" font-size="10.00">/include/Simple&#45;Utility</text>
<text text-anchor="middle" x="2472" y="-541.5" font-family="Helvetica,sans-Serif" font-size="10.00">/concepts/utility.hpp</text>
</a>
</g>
</g>
<!-- Node2 -->
<g id="node2" class="node">
<title>Node2</title>
<g id="a_node2"><a xlink:href="../../d1/d76/functional_2base_8hpp.html" target="_top" xlink:title=" ">
<polygon fill="white" stroke="black" points="2046,-445.5 2046,-497.5 2192,-497.5 2192,-445.5 2046,-445.5"/>
<text text-anchor="start" x="2054" y="-485.5" font-family="Helvetica,sans-Serif" font-size="10.00">/home/runner/work/Simple</text>
<text text-anchor="start" x="2054" y="-474.5" font-family="Helvetica,sans-Serif" font-size="10.00">&#45;Utility/Simple&#45;Utility</text>
<text text-anchor="start" x="2054" y="-463.5" font-family="Helvetica,sans-Serif" font-size="10.00">/include/Simple&#45;Utility</text>
<text text-anchor="middle" x="2119" y="-452.5" font-family="Helvetica,sans-Serif" font-size="10.00">/functional/base.hpp</text>
</a>
</g>
</g>
<!-- Node1&#45;&gt;Node2 -->
<g id="edge1" class="edge">
<title>Node1&#45;&gt;Node2</title>
<path fill="none" stroke="midnightblue" d="M2389.07,-539.06C2329.31,-524.33 2249.41,-504.64 2192.05,-490.5"/>
<polygon fill="midnightblue" stroke="midnightblue" points="2388.31,-542.48 2398.86,-541.47 2389.99,-535.68 2388.31,-542.48"/>
</g>
<!-- Node9 -->
<g id="node9" class="node">
<title>Node9</title>
<g id="a_node9"><a xlink:href="../../d9/d5f/functional_2tuple_8hpp.html" target="_top" xlink:title=" ">
<polygon fill="white" stroke="black" points="2112,-89.5 2112,-141.5 2258,-141.5 2258,-89.5 2112,-89.5"/>
<text text-anchor="start" x="2120" y="-129.5" font-family="Helvetica,sans-Serif" font-size="10.00">/home/runner/work/Simple</text>
<text text-anchor="start" x="2120" y="-118.5" font-family="Helvetica,sans-Serif" font-size="10.00">&#45;Utility/Simple&#45;Utility</text>
<text text-anchor="start" x="2120" y="-107.5" font-family="Helvetica,sans-Serif" font-size="10.00">/include/Simple&#45;Utility</text>
<text text-anchor="middle" x="2185" y="-96.5" font-family="Helvetica,sans-Serif" font-size="10.00">/functional/tuple.hpp</text>
</a>
</g>
</g>
<!-- Node1&#45;&gt;Node9 -->
<g id="edge64" class="edge">
<title>Node1&#45;&gt;Node9</title>
<path fill="none" stroke="midnightblue" d="M2554.97,-538.79C2628.41,-514.9 2724,-467.64 2724,-383.5 2724,-383.5 2724,-383.5 2724,-292.5 2724,-195.66 2405.63,-143.72 2258.25,-124.86"/>
<polygon fill="midnightblue" stroke="midnightblue" points="2553.71,-535.52 2545.23,-541.87 2555.82,-542.19 2553.71,-535.52"/>
</g>
<!-- Node21 -->
<g id="node21" class="node">
<title>Node21</title>
<g id="a_node21"><a xlink:href="../../df/d80/conjunction_8hpp.html" target="_top" xlink:title=" ">
<polygon fill="white" stroke="black" points="2390,-267.5 2390,-319.5 2588,-319.5 2588,-267.5 2390,-267.5"/>
<text text-anchor="start" x="2398" y="-307.5" font-family="Helvetica,sans-Serif" font-size="10.00">/home/runner/work/Simple</text>
<text text-anchor="start" x="2398" y="-296.5" font-family="Helvetica,sans-Serif" font-size="10.00">&#45;Utility/Simple&#45;Utility</text>
<text text-anchor="start" x="2398" y="-285.5" font-family="Helvetica,sans-Serif" font-size="10.00">/include/Simple&#45;Utility</text>
<text text-anchor="middle" x="2489" y="-274.5" font-family="Helvetica,sans-Serif" font-size="10.00">/functional/operators/conjunction.hpp</text>
</a>
</g>
</g>
<!-- Node1&#45;&gt;Node21 -->
<g id="edge60" class="edge">
<title>Node1&#45;&gt;Node21</title>
<path fill="none" stroke="midnightblue" d="M2536.71,-529.48C2582.37,-504.4 2640.04,-463.87 2667,-409 2677.39,-387.86 2680.67,-375.18 2667,-356 2648.6,-330.17 2618.58,-315.09 2588.4,-306.31"/>
<polygon fill="midnightblue" stroke="midnightblue" points="2534.9,-526.48 2527.74,-534.29 2538.21,-532.65 2534.9,-526.48"/>
</g>
<!-- Node22 -->
<g id="node22" class="node">
<title>Node22</title>
<g id="a_node22"><a xlink:href="../../d4/d7c/disjunction_8hpp.html" target="_top" xlink:title=" ">
<polygon fill="white" stroke="black" points="1709.5,-267.5 1709.5,-319.5 1904.5,-319.5 1904.5,-267.5 1709.5,-267.5"/>
<text text-anchor="start" x="1717.5" y="-307.5" font-family="Helvetica,sans-Serif" font-size="10.00">/home/runner/work/Simple</text>
<text text-anchor="start" x="1717.5" y="-296.5" font-family="Helvetica,sans-Serif" font-size="10.00">&#45;Utility/Simple&#45;Utility</text>
<text text-anchor="start" x="1717.5" y="-285.5" font-family="Helvetica,sans-Serif" font-size="10.00">/include/Simple&#45;Utility</text>
<text text-anchor="middle" x="1807" y="-274.5" font-family="Helvetica,sans-Serif" font-size="10.00">/functional/operators/disjunction.hpp</text>
</a>
</g>
</g>
<!-- Node1&#45;&gt;Node22 -->
<g id="edge61" class="edge">
<title>Node1&#45;&gt;Node22</title>
<path fill="none" stroke="midnightblue" d="M2388.61,-556.38C2299.57,-551.07 2155.31,-536.72 2037,-498 1957.44,-471.96 1930.71,-467.67 1871,-409 1845.01,-383.46 1826.51,-345.12 1816.29,-319.95"/>
<polygon fill="midnightblue" stroke="midnightblue" points="2388.47,-559.88 2398.65,-556.95 2388.87,-552.89 2388.47,-559.88"/>
</g>
<!-- Node23 -->
<g id="node23" class="node">
<title>Node23</title>
<g id="a_node23"><a xlink:href="../../dc/d0a/equal_8hpp.html" target="_top" xlink:title=" ">
<polygon fill="white" stroke="black" points="2239.5,-356.5 2239.5,-408.5 2408.5,-408.5 2408.5,-356.5 2239.5,-356.5"/>
<text text-anchor="start" x="2247.5" y="-396.5" font-family="Helvetica,sans-Serif" font-size="10.00">/home/runner/work/Simple</text>
<text text-anchor="start" x="2247.5" y="-385.5" font-family="Helvetica,sans-Serif" font-size="10.00">&#45;Utility/Simple&#45;Utility</text>
<text text-anchor="start" x="2247.5" y="-374.5" font-family="Helvetica,sans-Serif" font-size="10.00">/include/Simple&#45;Utility</text>
<text text-anchor="middle" x="2324" y="-363.5" font-family="Helvetica,sans-Serif" font-size="10.00">/functional/operators/equal.hpp</text>
</a>
</g>
</g>
<!-- Node1&#45;&gt;Node23 -->
<g id="edge62" class="edge">
<title>Node1&#45;&gt;Node23</title>
<path fill="none" stroke="midnightblue" d="M2444.2,-526.44C2415.45,-492.25 2371.19,-439.62 2345.17,-408.67"/>
<polygon fill="midnightblue" stroke="midnightblue" points="2441.68,-528.88 2450.8,-534.28 2447.04,-524.38 2441.68,-528.88"/>
</g>
<!-- Node24 -->
<g id="node24" class="node">
<title>Node24</title>
<g id="a_node24"><a xlink:href="../../d7/dd0/equivalent_8hpp.html" target="_top" xlink:title=" ">
<polygon fill="white" stroke="black" points="2464,-356.5 2464,-408.5 2658,-408.5 2658,-356.5 2464,-356.5"/>
<text text-anchor="start" x="2472" y="-396.5" font-family="Helvetica,sans-Serif" font-size="10.00">/home/runner/work/Simple</text>
<text text-anchor="start" x="2472" y="-385.5" font-family="Helvetica,sans-Serif" font-size="10.00">&#45;Utility/Simple&#45;Utility</text>
<text text-anchor="start" x="2472" y="-374.5" font-family="Helvetica,sans-Serif" font-size="10.00">/include/Simple&#45;Utility</text>
<text text-anchor="middle" x="2561" y="-363.5" font-family="Helvetica,sans-Serif" font-size="10.00">/functional/operators/equivalent.hpp</text>
</a>
</g>
</g>
<!-- Node1&#45;&gt;Node24 -->
<g id="edge63" class="edge">
<title>Node1&#45;&gt;Node24</title>
<path fill="none" stroke="midnightblue" d="M2489.38,-525.13C2506.68,-490.92 2532.82,-439.23 2548.27,-408.67"/>
<polygon fill="midnightblue" stroke="midnightblue" points="2486.14,-523.78 2484.75,-534.28 2492.39,-526.94 2486.14,-523.78"/>
</g>
<!-- Node3 -->
<g id="node3" class="node">
<title>Node3</title>
<g id="a_node3"><a xlink:href="../../d9/d76/bind_8hpp.html" target="_top" xlink:title=" ">
<polygon fill="white" stroke="black" points="1528.5,-267.5 1528.5,-319.5 1691.5,-319.5 1691.5,-267.5 1528.5,-267.5"/>
<text text-anchor="start" x="1536.5" y="-307.5" font-family="Helvetica,sans-Serif" font-size="10.00">/home/runner/work/Simple</text>
<text text-anchor="start" x="1536.5" y="-296.5" font-family="Helvetica,sans-Serif" font-size="10.00">&#45;Utility/Simple&#45;Utility</text>
<text text-anchor="start" x="1536.5" y="-285.5" font-family="Helvetica,sans-Serif" font-size="10.00">/include/Simple&#45;Utility</text>
<text text-anchor="middle" x="1610" y="-274.5" font-family="Helvetica,sans-Serif" font-size="10.00">/functional/operators/bind.hpp</text>
</a>
</g>
</g>
<!-- Node2&#45;&gt;Node3 -->
<g id="edge2" class="edge">
<title>Node2&#45;&gt;Node3</title>
<path fill="none" stroke="midnightblue" d="M2036.04,-453.64C1987.37,-442.83 1925.02,-427.4 1871,-409 1795.82,-383.4 1712.32,-344.89 1660.48,-319.73"/>
<polygon fill="midnightblue" stroke="midnightblue" points="2035.38,-457.08 2045.89,-455.81 2036.88,-450.24 2035.38,-457.08"/>
</g>
<!-- Node4 -->
<g id="node4" class="node">
<title>Node4</title>
<g id="a_node4"><a xlink:href="../../d2/d7e/predicate_8hpp.html" target="_top" xlink:title=" ">
<polygon fill="white" stroke="black" points="2125,-178.5 2125,-230.5 2271,-230.5 2271,-178.5 2125,-178.5"/>
<text text-anchor="start" x="2133" y="-218.5" font-family="Helvetica,sans-Serif" font-size="10.00">/home/runner/work/Simple</text>
<text text-anchor="start" x="2133" y="-207.5" font-family="Helvetica,sans-Serif" font-size="10.00">&#45;Utility/Simple&#45;Utility</text>
<text text-anchor="start" x="2133" y="-196.5" font-family="Helvetica,sans-Serif" font-size="10.00">/include/Simple&#45;Utility</text>
<text text-anchor="middle" x="2198" y="-185.5" font-family="Helvetica,sans-Serif" font-size="10.00">/functional/predicate.hpp</text>
</a>
</g>
</g>
<!-- Node2&#45;&gt;Node4 -->
<g id="edge56" class="edge">
<title>Node2&#45;&gt;Node4</title>
<path fill="none" stroke="midnightblue" d="M2151.54,-438.12C2186.39,-402.55 2238.05,-346.89 2248,-320 2256.17,-297.91 2255.88,-289.2 2248,-267 2243.21,-253.51 2234.06,-240.84 2224.88,-230.53"/>
<polygon fill="midnightblue" stroke="midnightblue" points="2148.9,-435.81 2144.38,-445.39 2153.89,-440.72 2148.9,-435.81"/>
</g>
<!-- Node6 -->
<g id="node6" class="node">
<title>Node6</title>
<g id="a_node6"><a xlink:href="../../d2/db4/functional_8hpp.html" target="_top" xlink:title=" ">
<polygon fill="white" stroke="black" points="1878,-0.5 1878,-52.5 2024,-52.5 2024,-0.5 1878,-0.5"/>
<text text-anchor="start" x="1886" y="-40.5" font-family="Helvetica,sans-Serif" font-size="10.00">/home/runner/work/Simple</text>
<text text-anchor="start" x="1886" y="-29.5" font-family="Helvetica,sans-Serif" font-size="10.00">&#45;Utility/Simple&#45;Utility</text>
<text text-anchor="start" x="1886" y="-18.5" font-family="Helvetica,sans-Serif" font-size="10.00">/include/Simple&#45;Utility</text>
<text text-anchor="middle" x="1951" y="-7.5" font-family="Helvetica,sans-Serif" font-size="10.00">/functional.hpp</text>
</a>
</g>
</g>
<!-- Node2&#45;&gt;Node6 -->
<g id="edge58" class="edge">
<title>Node2&#45;&gt;Node6</title>
<path fill="none" stroke="midnightblue" d="M2036.15,-453.46C2011.95,-444.33 1988.01,-430.36 1973,-409 1952.53,-379.87 1958.39,-124.53 1956,-89 1955.2,-77.03 1954.14,-63.76 1953.2,-52.62"/>
<polygon fill="midnightblue" stroke="midnightblue" points="2035.18,-456.83 2045.77,-456.85 2037.5,-450.23 2035.18,-456.83"/>
</g>
<!-- Node7 -->
<g id="node7" class="node">
<title>Node7</title>
<g id="a_node7"><a xlink:href="../../d6/deb/transform_8hpp.html" target="_top" xlink:title=" ">
<polygon fill="white" stroke="black" points="1472,-178.5 1472,-230.5 1618,-230.5 1618,-178.5 1472,-178.5"/>
<text text-anchor="start" x="1480" y="-218.5" font-family="Helvetica,sans-Serif" font-size="10.00">/home/runner/work/Simple</text>
<text text-anchor="start" x="1480" y="-207.5" font-family="Helvetica,sans-Serif" font-size="10.00">&#45;Utility/Simple&#45;Utility</text>
<text text-anchor="start" x="1480" y="-196.5" font-family="Helvetica,sans-Serif" font-size="10.00">/include/Simple&#45;Utility</text>
<text text-anchor="middle" x="1545" y="-185.5" font-family="Helvetica,sans-Serif" font-size="10.00">/functional/transform.hpp</text>
</a>
</g>
</g>
<!-- Node2&#45;&gt;Node7 -->
<g id="edge57" class="edge">
<title>Node2&#45;&gt;Node7</title>
<path fill="none" stroke="midnightblue" d="M2035.66,-462.99C1884.74,-447.38 1576.45,-405.51 1519,-320 1500.92,-293.1 1515.33,-255.44 1528.85,-230.77"/>
<polygon fill="midnightblue" stroke="midnightblue" points="2035.5,-466.49 2045.81,-464.03 2036.21,-459.53 2035.5,-466.49"/>
</g>
<!-- Node16 -->
<g id="node16" class="node">
<title>Node16</title>
<g id="a_node16"><a xlink:href="../../d6/dbe/nullables_2base_8hpp.html" target="_top" xlink:title=" ">
<polygon fill="white" stroke="black" points="698,-178.5 698,-230.5 844,-230.5 844,-178.5 698,-178.5"/>
<text text-anchor="start" x="706" y="-218.5" font-family="Helvetica,sans-Serif" font-size="10.00">/home/runner/work/Simple</text>
<text text-anchor="start" x="706" y="-207.5" font-family="Helvetica,sans-Serif" font-size="10.00">&#45;Utility/Simple&#45;Utility</text>
<text text-anchor="start" x="706" y="-196.5" font-family="Helvetica,sans-Serif" font-size="10.00">/include/Simple&#45;Utility</text>
<text text-anchor="middle" x="771" y="-185.5" font-family="Helvetica,sans-Serif" font-size="10.00">/nullables/base.hpp</text>
</a>
</g>
</g>
<!-- Node2&#45;&gt;Node16 -->
<g id="edge59" class="edge">
<title>Node2&#45;&gt;Node16</title>
<path fill="none" stroke="midnightblue" d="M2035.86,-465.14C1925.86,-457.19 1726.23,-439.81 1558,-409 1291.64,-360.23 982.45,-270.25 844.26,-228.23"/>
<polygon fill="midnightblue" stroke="midnightblue" points="2035.67,-468.64 2045.89,-465.86 2036.17,-461.65 2035.67,-468.64"/>
</g>
<!-- Node2&#45;&gt;Node21 -->
<g id="edge38" class="edge">
<title>Node2&#45;&gt;Node21</title>
<path fill="none" stroke="midnightblue" d="M2202.32,-460.71C2277.99,-450.51 2382.83,-432.7 2417,-409 2425.47,-403.13 2456.16,-351.49 2474.63,-319.6"/>
<polygon fill="midnightblue" stroke="midnightblue" points="2201.77,-457.25 2192.31,-462.04 2202.69,-464.19 2201.77,-457.25"/>
</g>
<!-- Node2&#45;&gt;Node22 -->
<g id="edge41" class="edge">
<title>Node2&#45;&gt;Node22</title>
<path fill="none" stroke="midnightblue" d="M2036.17,-449.25C2004.89,-439.4 1969.7,-426.04 1940,-409 1917.4,-396.04 1865.65,-349.3 1833.78,-319.7"/>
<polygon fill="midnightblue" stroke="midnightblue" points="2035.15,-452.6 2045.74,-452.2 2037.21,-445.91 2035.15,-452.6"/>
</g>
<!-- Node2&#45;&gt;Node23 -->
<g id="edge44" class="edge">
<title>Node2&#45;&gt;Node23</title>
<path fill="none" stroke="midnightblue" d="M2187.49,-441.44C2212.61,-430.77 2240.82,-418.8 2265.04,-408.52"/>
<polygon fill="midnightblue" stroke="midnightblue" points="2185.86,-438.32 2178.02,-445.45 2188.59,-444.77 2185.86,-438.32"/>
</g>
<!-- Node2&#45;&gt;Node24 -->
<g id="edge46" class="edge">
<title>Node2&#45;&gt;Node24</title>
<path fill="none" stroke="midnightblue" d="M2202.23,-456.04C2269.28,-444.14 2365.9,-426.46 2450,-409 2454.55,-408.06 2459.2,-407.07 2463.89,-406.06"/>
<polygon fill="midnightblue" stroke="midnightblue" points="2201.38,-452.63 2192.14,-457.82 2202.6,-459.53 2201.38,-452.63"/>
</g>
<!-- Node25 -->
<g id="node25" class="node">
<title>Node25</title>
<g id="a_node25"><a xlink:href="../../d8/dea/negation_8hpp.html" target="_top" xlink:title=" ">
<polygon fill="white" stroke="black" points="2035.5,-267.5 2035.5,-319.5 2220.5,-319.5 2220.5,-267.5 2035.5,-267.5"/>
<text text-anchor="start" x="2043.5" y="-307.5" font-family="Helvetica,sans-Serif" font-size="10.00">/home/runner/work/Simple</text>
<text text-anchor="start" x="2043.5" y="-296.5" font-family="Helvetica,sans-Serif" font-size="10.00">&#45;Utility/Simple&#45;Utility</text>
<text text-anchor="start" x="2043.5" y="-285.5" font-family="Helvetica,sans-Serif" font-size="10.00">/include/Simple&#45;Utility</text>
<text text-anchor="middle" x="2128" y="-274.5" font-family="Helvetica,sans-Serif" font-size="10.00">/functional/operators/negation.hpp</text>
</a>
</g>
</g>
<!-- Node2&#45;&gt;Node25 -->
<g id="edge48" class="edge">
<title>Node2&#45;&gt;Node25</title>
<path fill="none" stroke="midnightblue" d="M2142.29,-436.79C2147.11,-428.11 2151.48,-418.52 2154,-409 2160.03,-386.23 2158.68,-379.09 2154,-356 2151.49,-343.62 2146.4,-330.63 2141.39,-319.8"/>
<polygon fill="midnightblue" stroke="midnightblue" points="2139.24,-435.07 2137.16,-445.46 2145.26,-438.63 2139.24,-435.07"/>
</g>
<!-- Node26 -->
<g id="node26" class="node">
<title>Node26</title>
<g id="a_node26"><a xlink:href="../../d5/db7/pipe_8hpp.html" target="_top" xlink:title=" ">
<polygon fill="white" stroke="black" points="1982.5,-356.5 1982.5,-408.5 2145.5,-408.5 2145.5,-356.5 1982.5,-356.5"/>
<text text-anchor="start" x="1990.5" y="-396.5" font-family="Helvetica,sans-Serif" font-size="10.00">/home/runner/work/Simple</text>
<text text-anchor="start" x="1990.5" y="-385.5" font-family="Helvetica,sans-Serif" font-size="10.00">&#45;Utility/Simple&#45;Utility</text>
<text text-anchor="start" x="1990.5" y="-374.5" font-family="Helvetica,sans-Serif" font-size="10.00">/include/Simple&#45;Utility</text>
<text text-anchor="middle" x="2064" y="-363.5" font-family="Helvetica,sans-Serif" font-size="10.00">/functional/operators/pipe.hpp</text>
</a>
</g>
</g>
<!-- Node2&#45;&gt;Node26 -->
<g id="edge51" class="edge">
<title>Node2&#45;&gt;Node26</title>
<path fill="none" stroke="midnightblue" d="M2097.59,-436.64C2091.69,-427.31 2085.4,-417.35 2079.87,-408.61"/>
<polygon fill="midnightblue" stroke="midnightblue" points="2094.79,-438.75 2103.09,-445.34 2100.71,-435.01 2094.79,-438.75"/>
</g>
<!-- Node3&#45;&gt;Node4 -->
<g id="edge3" class="edge">
<title>Node3&#45;&gt;Node4</title>
<path fill="none" stroke="midnightblue" d="M1701.97,-266.71C1857.03,-236.04 2029.37,-218.97 2124.86,-211"/>
<polygon fill="midnightblue" stroke="midnightblue" points="1700.9,-263.36 1691.79,-268.75 1702.28,-270.22 1700.9,-263.36"/>
</g>
<!-- Node3&#45;&gt;Node6 -->
<g id="edge24" class="edge">
<title>Node3&#45;&gt;Node6</title>
<path fill="none" stroke="midnightblue" d="M1681.11,-263.27C1738.11,-237.37 1817.74,-195.42 1875,-142 1902.91,-115.96 1925.62,-77.74 1938.73,-52.74"/>
<polygon fill="midnightblue" stroke="midnightblue" points="1679.5,-260.15 1671.81,-267.44 1682.37,-266.54 1679.5,-260.15"/>
</g>
<!-- Node3&#45;&gt;Node7 -->
<g id="edge7" class="edge">
<title>Node3&#45;&gt;Node7</title>
<path fill="none" stroke="midnightblue" d="M1585.13,-259.22C1578.04,-249.72 1570.42,-239.53 1563.76,-230.61"/>
<polygon fill="midnightblue" stroke="midnightblue" points="1582.41,-261.42 1591.2,-267.34 1588.02,-257.23 1582.41,-261.42"/>
</g>
<!-- Node3&#45;&gt;Node16 -->
<g id="edge25" class="edge">
<title>Node3&#45;&gt;Node16</title>
<path fill="none" stroke="midnightblue" d="M1518.36,-283C1350.5,-265.59 996.93,-228.93 844.02,-213.07"/>
<polygon fill="midnightblue" stroke="midnightblue" points="1518.1,-286.49 1528.41,-284.04 1518.82,-279.53 1518.1,-286.49"/>
</g>
<!-- Node5 -->
<g id="node5" class="node">
<title>Node5</title>
<g id="a_node5"><a xlink:href="../../dd/d3f/compare_8hpp.html" target="_top" xlink:title=" ">
<polygon fill="white" stroke="black" points="1720,-89.5 1720,-141.5 1866,-141.5 1866,-89.5 1720,-89.5"/>
<text text-anchor="start" x="1728" y="-129.5" font-family="Helvetica,sans-Serif" font-size="10.00">/home/runner/work/Simple</text>
<text text-anchor="start" x="1728" y="-118.5" font-family="Helvetica,sans-Serif" font-size="10.00">&#45;Utility/Simple&#45;Utility</text>
<text text-anchor="start" x="1728" y="-107.5" font-family="Helvetica,sans-Serif" font-size="10.00">/include/Simple&#45;Utility</text>
<text text-anchor="middle" x="1793" y="-96.5" font-family="Helvetica,sans-Serif" font-size="10.00">/functional/compare.hpp</text>
</a>
</g>
</g>
<!-- Node4&#45;&gt;Node5 -->
<g id="edge4" class="edge">
<title>Node4&#45;&gt;Node5</title>
<path fill="none" stroke="midnightblue" d="M2114.55,-185.57C2041.39,-169.86 1936.06,-147.23 1866.14,-132.21"/>
<polygon fill="midnightblue" stroke="midnightblue" points="2114.15,-189.07 2124.66,-187.74 2115.62,-182.22 2114.15,-189.07"/>
</g>
<!-- Node4&#45;&gt;Node6 -->
<g id="edge6" class="edge">
<title>Node4&#45;&gt;Node6</title>
<path fill="none" stroke="midnightblue" d="M2144.24,-172.87C2130.17,-163.76 2115.47,-153.2 2103,-142 2080.43,-121.73 2083.17,-108.57 2060,-89 2043.4,-74.98 2023.14,-62.53 2004.61,-52.56"/>
<polygon fill="midnightblue" stroke="midnightblue" points="2142.57,-175.96 2152.89,-178.35 2146.32,-170.04 2142.57,-175.96"/>
</g>
<!-- Node5&#45;&gt;Node6 -->
<g id="edge5" class="edge">
<title>Node5&#45;&gt;Node6</title>
<path fill="none" stroke="midnightblue" d="M1847.49,-84.49C1866.37,-74.1 1887.32,-62.57 1905.4,-52.61"/>
<polygon fill="midnightblue" stroke="midnightblue" points="1845.77,-81.45 1838.7,-89.34 1849.15,-87.58 1845.77,-81.45"/>
</g>
<!-- Node7&#45;&gt;Node5 -->
<g id="edge10" class="edge">
<title>Node7&#45;&gt;Node5</title>
<path fill="none" stroke="midnightblue" d="M1625.85,-175.14C1656.75,-164.3 1691.73,-152.03 1721.68,-141.52"/>
<polygon fill="midnightblue" stroke="midnightblue" points="1624.68,-171.84 1616.4,-178.45 1626.99,-178.45 1624.68,-171.84"/>
</g>
<!-- Node7&#45;&gt;Node6 -->
<g id="edge15" class="edge">
<title>Node7&#45;&gt;Node6</title>
<path fill="none" stroke="midnightblue" d="M1622.43,-173.98C1640.09,-165.23 1658.05,-154.55 1673,-142 1695.2,-123.36 1687.07,-105.36 1711,-89 1760.53,-55.13 1827.34,-39.91 1877.9,-33.07"/>
<polygon fill="midnightblue" stroke="midnightblue" points="1620.74,-170.91 1613.24,-178.38 1623.77,-177.22 1620.74,-170.91"/>
</g>
<!-- Node8 -->
<g id="node8" class="node">
<title>Node8</title>
<g id="a_node8"><a xlink:href="../../d3/d23/arithmetic_8hpp.html" target="_top" xlink:title=" ">
<polygon fill="white" stroke="black" points="1354,-89.5 1354,-141.5 1500,-141.5 1500,-89.5 1354,-89.5"/>
<text text-anchor="start" x="1362" y="-129.5" font-family="Helvetica,sans-Serif" font-size="10.00">/home/runner/work/Simple</text>
<text text-anchor="start" x="1362" y="-118.5" font-family="Helvetica,sans-Serif" font-size="10.00">&#45;Utility/Simple&#45;Utility</text>
<text text-anchor="start" x="1362" y="-107.5" font-family="Helvetica,sans-Serif" font-size="10.00">/include/Simple&#45;Utility</text>
<text text-anchor="middle" x="1427" y="-96.5" font-family="Helvetica,sans-Serif" font-size="10.00">/functional/arithmetic.hpp</text>
</a>
</g>
</g>
<!-- Node7&#45;&gt;Node8 -->
<g id="edge8" class="edge">
<title>Node7&#45;&gt;Node8</title>
<path fill="none" stroke="midnightblue" d="M1502.57,-172.22C1488.93,-162.16 1474.01,-151.16 1461.05,-141.61"/>
<polygon fill="midnightblue" stroke="midnightblue" points="1500.74,-175.22 1510.87,-178.34 1504.9,-169.58 1500.74,-175.22"/>
</g>
<!-- Node7&#45;&gt;Node9 -->
<g id="edge11" class="edge">
<title>Node7&#45;&gt;Node9</title>
<path fill="none" stroke="midnightblue" d="M1628.1,-192.2C1754.22,-175.06 1991.94,-142.74 2111.87,-126.44"/>
<polygon fill="midnightblue" stroke="midnightblue" points="1627.54,-188.75 1618.1,-193.56 1628.48,-195.68 1627.54,-188.75"/>
</g>
<!-- Node10 -->
<g id="node10" class="node">
<title>Node10</title>
<g id="a_node10"><a xlink:href="../../df/d4e/functional_2utility_8hpp.html" target="_top" xlink:title=" ">
<polygon fill="white" stroke="black" points="1518,-89.5 1518,-141.5 1664,-141.5 1664,-89.5 1518,-89.5"/>
<text text-anchor="start" x="1526" y="-129.5" font-family="Helvetica,sans-Serif" font-size="10.00">/home/runner/work/Simple</text>
<text text-anchor="start" x="1526" y="-118.5" font-family="Helvetica,sans-Serif" font-size="10.00">&#45;Utility/Simple&#45;Utility</text>
<text text-anchor="start" x="1526" y="-107.5" font-family="Helvetica,sans-Serif" font-size="10.00">/include/Simple&#45;Utility</text>
<text text-anchor="middle" x="1591" y="-96.5" font-family="Helvetica,sans-Serif" font-size="10.00">/functional/utility.hpp</text>
</a>
</g>
</g>
<!-- Node7&#45;&gt;Node10 -->
<g id="edge13" class="edge">
<title>Node7&#45;&gt;Node10</title>
<path fill="none" stroke="midnightblue" d="M1563.06,-169.35C1567.95,-160.1 1573.15,-150.26 1577.72,-141.61"/>
<polygon fill="midnightblue" stroke="midnightblue" points="1559.89,-167.86 1558.31,-178.34 1566.07,-171.13 1559.89,-167.86"/>
</g>
<!-- Node11 -->
<g id="node11" class="node">
<title>Node11</title>
<g id="a_node11"><a xlink:href="../../d4/dc9/and__then_8hpp.html" target="_top" xlink:title=" ">
<polygon fill="white" stroke="black" points="698,-89.5 698,-141.5 844,-141.5 844,-89.5 698,-89.5"/>
<text text-anchor="start" x="706" y="-129.5" font-family="Helvetica,sans-Serif" font-size="10.00">/home/runner/work/Simple</text>
<text text-anchor="start" x="706" y="-118.5" font-family="Helvetica,sans-Serif" font-size="10.00">&#45;Utility/Simple&#45;Utility</text>
<text text-anchor="start" x="706" y="-107.5" font-family="Helvetica,sans-Serif" font-size="10.00">/include/Simple&#45;Utility</text>
<text text-anchor="middle" x="771" y="-96.5" font-family="Helvetica,sans-Serif" font-size="10.00">/nullables/and_then.hpp</text>
</a>
</g>
</g>
<!-- Node7&#45;&gt;Node11 -->
<g id="edge16" class="edge">
<title>Node7&#45;&gt;Node11</title>
<path fill="none" stroke="midnightblue" d="M1461.46,-201.8C1330.57,-197.85 1069.73,-184.82 853,-142 850.07,-141.42 847.11,-140.78 844.12,-140.08"/>
<polygon fill="midnightblue" stroke="midnightblue" points="1461.7,-205.31 1471.8,-202.1 1461.91,-198.31 1461.7,-205.31"/>
</g>
<!-- Node13 -->
<g id="node13" class="node">
<title>Node13</title>
<g id="a_node13"><a xlink:href="../../d7/d5f/fwd__value_8hpp.html" target="_top" xlink:title=" ">
<polygon fill="white" stroke="black" points="862,-89.5 862,-141.5 1008,-141.5 1008,-89.5 862,-89.5"/>
<text text-anchor="start" x="870" y="-129.5" font-family="Helvetica,sans-Serif" font-size="10.00">/home/runner/work/Simple</text>
<text text-anchor="start" x="870" y="-118.5" font-family="Helvetica,sans-Serif" font-size="10.00">&#45;Utility/Simple&#45;Utility</text>
<text text-anchor="start" x="870" y="-107.5" font-family="Helvetica,sans-Serif" font-size="10.00">/include/Simple&#45;Utility</text>
<text text-anchor="middle" x="935" y="-96.5" font-family="Helvetica,sans-Serif" font-size="10.00">/nullables/fwd_value.hpp</text>
</a>
</g>
</g>
<!-- Node7&#45;&gt;Node13 -->
<g id="edge18" class="edge">
<title>Node7&#45;&gt;Node13</title>
<path fill="none" stroke="midnightblue" d="M1461.52,-198.58C1356.78,-191.3 1172.09,-174.85 1017,-142 1014.08,-141.38 1011.12,-140.71 1008.14,-139.98"/>
<polygon fill="midnightblue" stroke="midnightblue" points="1461.5,-202.08 1471.71,-199.27 1461.97,-195.1 1461.5,-202.08"/>
</g>
<!-- Node14 -->
<g id="node14" class="node">
<title>Node14</title>
<g id="a_node14"><a xlink:href="../../d2/d0e/or__else_8hpp.html" target="_top" xlink:title=" ">
<polygon fill="white" stroke="black" points="1026,-89.5 1026,-141.5 1172,-141.5 1172,-89.5 1026,-89.5"/>
<text text-anchor="start" x="1034" y="-129.5" font-family="Helvetica,sans-Serif" font-size="10.00">/home/runner/work/Simple</text>
<text text-anchor="start" x="1034" y="-118.5" font-family="Helvetica,sans-Serif" font-size="10.00">&#45;Utility/Simple&#45;Utility</text>
<text text-anchor="start" x="1034" y="-107.5" font-family="Helvetica,sans-Serif" font-size="10.00">/include/Simple&#45;Utility</text>
<text text-anchor="middle" x="1099" y="-96.5" font-family="Helvetica,sans-Serif" font-size="10.00">/nullables/or_else.hpp</text>
</a>
</g>
</g>
<!-- Node7&#45;&gt;Node14 -->
<g id="edge20" class="edge">
<title>Node7&#45;&gt;Node14</title>
<path fill="none" stroke="midnightblue" d="M1461.69,-192.67C1387.49,-182.25 1276.26,-164.75 1181,-142 1178.1,-141.31 1175.15,-140.57 1172.18,-139.79"/>
<polygon fill="midnightblue" stroke="midnightblue" points="1461.52,-196.18 1471.91,-194.09 1462.48,-189.24 1461.52,-196.18"/>
</g>
<!-- Node15 -->
<g id="node15" class="node">
<title>Node15</title>
<g id="a_node15"><a xlink:href="../../d0/d48/value__or_8hpp.html" target="_top" xlink:title=" ">
<polygon fill="white" stroke="black" points="1190,-89.5 1190,-141.5 1336,-141.5 1336,-89.5 1190,-89.5"/>
<text text-anchor="start" x="1198" y="-129.5" font-family="Helvetica,sans-Serif" font-size="10.00">/home/runner/work/Simple</text>
<text text-anchor="start" x="1198" y="-118.5" font-family="Helvetica,sans-Serif" font-size="10.00">&#45;Utility/Simple&#45;Utility</text>
<text text-anchor="start" x="1198" y="-107.5" font-family="Helvetica,sans-Serif" font-size="10.00">/include/Simple&#45;Utility</text>
<text text-anchor="middle" x="1263" y="-96.5" font-family="Helvetica,sans-Serif" font-size="10.00">/nullables/value_or.hpp</text>
</a>
</g>
</g>
<!-- Node7&#45;&gt;Node15 -->
<g id="edge22" class="edge">
<title>Node7&#45;&gt;Node15</title>
<path fill="none" stroke="midnightblue" d="M1461.88,-178.01C1425.93,-166.96 1383.38,-153.87 1345,-142 1342.15,-141.12 1339.25,-140.22 1336.31,-139.31"/>
<polygon fill="midnightblue" stroke="midnightblue" points="1461.25,-181.47 1471.84,-181.06 1463.31,-174.78 1461.25,-181.47"/>
</g>
<!-- Node8&#45;&gt;Node6 -->
<g id="edge9" class="edge">
<title>Node8&#45;&gt;Node6</title>
<path fill="none" stroke="midnightblue" d="M1510.23,-88.87C1644.76,-59.46 1791.98,-42.42 1878,-33.97"/>
<polygon fill="midnightblue" stroke="midnightblue" points="1509.16,-85.52 1500.16,-91.1 1510.68,-92.36 1509.16,-85.52"/>
</g>
<!-- Node9&#45;&gt;Node6 -->
<g id="edge12" class="edge">
<title>Node9&#45;&gt;Node6</title>
<path fill="none" stroke="midnightblue" d="M2107.96,-85.86C2078.99,-75.09 2046.31,-62.94 2018.3,-52.52"/>
<polygon fill="midnightblue" stroke="midnightblue" points="2107.04,-89.25 2117.63,-89.45 2109.48,-82.69 2107.04,-89.25"/>
</g>
<!-- Node10&#45;&gt;Node6 -->
<g id="edge14" class="edge">
<title>Node10&#45;&gt;Node6</title>
<path fill="none" stroke="midnightblue" d="M1673.68,-90.13C1675.13,-89.75 1676.57,-89.37 1678,-89 1745.37,-71.56 1822.83,-54.38 1877.99,-42.63"/>
<polygon fill="midnightblue" stroke="midnightblue" points="1672.75,-86.75 1664.01,-92.74 1674.57,-93.51 1672.75,-86.75"/>
</g>
<!-- Node12 -->
<g id="node12" class="node">
<title>Node12</title>
<g id="a_node12"><a xlink:href="../../d3/ddc/nullables_8hpp.html" target="_top" xlink:title=" ">
<polygon fill="white" stroke="black" points="648,-0.5 648,-52.5 794,-52.5 794,-0.5 648,-0.5"/>
<text text-anchor="start" x="656" y="-40.5" font-family="Helvetica,sans-Serif" font-size="10.00">/home/runner/work/Simple</text>
<text text-anchor="start" x="656" y="-29.5" font-family="Helvetica,sans-Serif" font-size="10.00">&#45;Utility/Simple&#45;Utility</text>
<text text-anchor="start" x="656" y="-18.5" font-family="Helvetica,sans-Serif" font-size="10.00">/include/Simple&#45;Utility</text>
<text text-anchor="middle" x="721" y="-7.5" font-family="Helvetica,sans-Serif" font-size="10.00">/nullables.hpp</text>
</a>
</g>
</g>
<!-- Node11&#45;&gt;Node12 -->
<g id="edge17" class="edge">
<title>Node11&#45;&gt;Node12</title>
<path fill="none" stroke="midnightblue" d="M751.54,-80.64C746.18,-71.31 740.45,-61.35 735.43,-52.61"/>
<polygon fill="midnightblue" stroke="midnightblue" points="748.52,-82.41 756.54,-89.34 754.59,-78.92 748.52,-82.41"/>
</g>
<!-- Node13&#45;&gt;Node12 -->
<g id="edge19" class="edge">
<title>Node13&#45;&gt;Node12</title>
<path fill="none" stroke="midnightblue" d="M863.85,-85.58C837.53,-74.88 807.94,-62.85 782.55,-52.52"/>
<polygon fill="midnightblue" stroke="midnightblue" points="862.81,-88.93 873.39,-89.45 865.44,-82.44 862.81,-88.93"/>
</g>
<!-- Node14&#45;&gt;Node12 -->
<g id="edge21" class="edge">
<title>Node14&#45;&gt;Node12</title>
<path fill="none" stroke="midnightblue" d="M1015.91,-88.81C934.89,-68.15 851.97,-51.53 794.14,-40.66"/>
<polygon fill="midnightblue" stroke="midnightblue" points="1015.23,-92.24 1025.78,-91.35 1016.97,-85.47 1015.23,-92.24"/>
</g>
<!-- Node15&#45;&gt;Node12 -->
<g id="edge23" class="edge">
<title>Node15&#45;&gt;Node12</title>
<path fill="none" stroke="midnightblue" d="M1179.71,-88.86C1038.58,-58.41 883.34,-41.55 794.16,-33.45"/>
<polygon fill="midnightblue" stroke="midnightblue" points="1179.33,-92.36 1189.85,-91.08 1180.83,-85.53 1179.33,-92.36"/>
</g>
<!-- Node16&#45;&gt;Node11 -->
<g id="edge28" class="edge">
<title>Node16&#45;&gt;Node11</title>
<path fill="none" stroke="midnightblue" d="M771,-168.19C771,-159.28 771,-149.9 771,-141.61"/>
<polygon fill="midnightblue" stroke="midnightblue" points="767.5,-168.34 771,-178.34 774.5,-168.34 767.5,-168.34"/>
</g>
<!-- Node16&#45;&gt;Node12 -->
<g id="edge36" class="edge">
<title>Node16&#45;&gt;Node12</title>
<path fill="none" stroke="midnightblue" d="M714.57,-172.34C704.25,-163.92 694.9,-153.8 689,-142 674.51,-113.02 689.83,-76.52 703.84,-52.62"/>
<polygon fill="midnightblue" stroke="midnightblue" points="712.53,-175.19 722.6,-178.46 716.76,-169.61 712.53,-175.19"/>
</g>
<!-- Node16&#45;&gt;Node13 -->
<g id="edge29" class="edge">
<title>Node16&#45;&gt;Node13</title>
<path fill="none" stroke="midnightblue" d="M827.3,-173.64C846.96,-163.2 868.81,-151.61 887.67,-141.61"/>
<polygon fill="midnightblue" stroke="midnightblue" points="825.63,-170.56 818.44,-178.34 828.91,-176.74 825.63,-170.56"/>
</g>
<!-- Node16&#45;&gt;Node14 -->
<g id="edge30" class="edge">
<title>Node16&#45;&gt;Node14</title>
<path fill="none" stroke="midnightblue" d="M854.2,-183.94C902.01,-172.39 963.08,-157.11 1017,-142 1019.87,-141.2 1022.79,-140.36 1025.74,-139.51"/>
<polygon fill="midnightblue" stroke="midnightblue" points="853.11,-180.6 844.21,-186.34 854.75,-187.41 853.11,-180.6"/>
</g>
<!-- Node16&#45;&gt;Node15 -->
<g id="edge35" class="edge">
<title>Node16&#45;&gt;Node15</title>
<path fill="none" stroke="midnightblue" d="M854.38,-194.77C937.72,-185.17 1069.2,-167.61 1181,-142 1183.91,-141.33 1186.86,-140.62 1189.83,-139.86"/>
<polygon fill="midnightblue" stroke="midnightblue" points="853.75,-191.32 844.21,-195.93 854.54,-198.28 853.75,-191.32"/>
</g>
<!-- Node17 -->
<g id="node17" class="node">
<title>Node17</title>
<g id="a_node17"><a xlink:href="../../d6/dca/adapter_8hpp.html" target="_top" xlink:title=" ">
<polygon fill="white" stroke="black" points="0,-89.5 0,-141.5 146,-141.5 146,-89.5 0,-89.5"/>
<text text-anchor="start" x="8" y="-129.5" font-family="Helvetica,sans-Serif" font-size="10.00">/home/runner/work/Simple</text>
<text text-anchor="start" x="8" y="-118.5" font-family="Helvetica,sans-Serif" font-size="10.00">&#45;Utility/Simple&#45;Utility</text>
<text text-anchor="start" x="8" y="-107.5" font-family="Helvetica,sans-Serif" font-size="10.00">/include/Simple&#45;Utility</text>
<text text-anchor="middle" x="73" y="-96.5" font-family="Helvetica,sans-Serif" font-size="10.00">/nullables/adapter.hpp</text>
</a>
</g>
</g>
<!-- Node16&#45;&gt;Node17 -->
<g id="edge26" class="edge">
<title>Node16&#45;&gt;Node17</title>
<path fill="none" stroke="midnightblue" d="M687.6,-200.51C568.43,-195.04 343.05,-180.22 155,-142 152.08,-141.41 149.11,-140.75 146.13,-140.04"/>
<polygon fill="midnightblue" stroke="midnightblue" points="687.6,-204.02 697.74,-200.97 687.91,-197.02 687.6,-204.02"/>
</g>
<!-- Node18 -->
<g id="node18" class="node">
<title>Node18</title>
<g id="a_node18"><a xlink:href="../../d9/d20/std__optional_8hpp.html" target="_top" xlink:title=" ">
<polygon fill="white" stroke="black" points="164,-89.5 164,-141.5 312,-141.5 312,-89.5 164,-89.5"/>
<text text-anchor="start" x="172" y="-129.5" font-family="Helvetica,sans-Serif" font-size="10.00">/home/runner/work/Simple</text>
<text text-anchor="start" x="172" y="-118.5" font-family="Helvetica,sans-Serif" font-size="10.00">&#45;Utility/Simple&#45;Utility</text>
<text text-anchor="start" x="172" y="-107.5" font-family="Helvetica,sans-Serif" font-size="10.00">/include/Simple&#45;Utility</text>
<text text-anchor="middle" x="238" y="-96.5" font-family="Helvetica,sans-Serif" font-size="10.00">/nullables/std_optional.hpp</text>
</a>
</g>
</g>
<!-- Node16&#45;&gt;Node18 -->
<g id="edge31" class="edge">
<title>Node16&#45;&gt;Node18</title>
<path fill="none" stroke="midnightblue" d="M687.91,-196.22C597.06,-187.32 447.55,-169.89 321,-142 318.06,-141.35 315.07,-140.65 312.05,-139.9"/>
<polygon fill="midnightblue" stroke="midnightblue" points="687.59,-199.71 697.88,-197.19 688.26,-192.74 687.59,-199.71"/>
</g>
<!-- Node19 -->
<g id="node19" class="node">
<title>Node19</title>
<g id="a_node19"><a xlink:href="../../d8/d9a/std__pointers_8hpp.html" target="_top" xlink:title=" ">
<polygon fill="white" stroke="black" points="330,-89.5 330,-141.5 478,-141.5 478,-89.5 330,-89.5"/>
<text text-anchor="start" x="338" y="-129.5" font-family="Helvetica,sans-Serif" font-size="10.00">/home/runner/work/Simple</text>
<text text-anchor="start" x="338" y="-118.5" font-family="Helvetica,sans-Serif" font-size="10.00">&#45;Utility/Simple&#45;Utility</text>
<text text-anchor="start" x="338" y="-107.5" font-family="Helvetica,sans-Serif" font-size="10.00">/include/Simple&#45;Utility</text>
<text text-anchor="middle" x="404" y="-96.5" font-family="Helvetica,sans-Serif" font-size="10.00">/nullables/std_pointers.hpp</text>
</a>
</g>
</g>
<!-- Node16&#45;&gt;Node19 -->
<g id="edge33" class="edge">
<title>Node16&#45;&gt;Node19</title>
<path fill="none" stroke="midnightblue" d="M687.91,-187.44C631.05,-175.98 554.11,-159.54 487,-142 484.08,-141.24 481.12,-140.44 478.12,-139.61"/>
<polygon fill="midnightblue" stroke="midnightblue" points="687.44,-190.92 697.93,-189.45 688.81,-184.05 687.44,-190.92"/>
</g>
<!-- Node20 -->
<g id="node20" class="node">
<title>Node20</title>
<g id="a_node20"><a xlink:href="../../d0/d0f/unique__handle_8hpp.html" target="_top" xlink:title=" ">
<polygon fill="white" stroke="black" points="496,-89.5 496,-141.5 642,-141.5 642,-89.5 496,-89.5"/>
<text text-anchor="start" x="504" y="-129.5" font-family="Helvetica,sans-Serif" font-size="10.00">/home/runner/work/Simple</text>
<text text-anchor="start" x="504" y="-118.5" font-family="Helvetica,sans-Serif" font-size="10.00">&#45;Utility/Simple&#45;Utility</text>
<text text-anchor="start" x="504" y="-107.5" font-family="Helvetica,sans-Serif" font-size="10.00">/include/Simple&#45;Utility</text>
<text text-anchor="middle" x="569" y="-96.5" font-family="Helvetica,sans-Serif" font-size="10.00">/unique_handle.hpp</text>
</a>
</g>
</g>
<!-- Node16&#45;&gt;Node20 -->
<g id="edge37" class="edge">
<title>Node16&#45;&gt;Node20</title>
<path fill="none" stroke="midnightblue" d="M703.52,-174.44C678.76,-163.77 650.96,-151.8 627.09,-141.52"/>
<polygon fill="midnightblue" stroke="midnightblue" points="702.28,-177.71 712.84,-178.45 705.04,-171.28 702.28,-177.71"/>
</g>
<!-- Node17&#45;&gt;Node12 -->
<g id="edge27" class="edge">
<title>Node17&#45;&gt;Node12</title>
<path fill="none" stroke="midnightblue" d="M156.11,-88.94C337.22,-52.14 541.37,-36.91 647.93,-30.92"/>
<polygon fill="midnightblue" stroke="midnightblue" points="155.22,-85.54 146.13,-90.99 156.63,-92.4 155.22,-85.54"/>
</g>
<!-- Node18&#45;&gt;Node12 -->
<g id="edge32" class="edge">
<title>Node18&#45;&gt;Node12</title>
<path fill="none" stroke="midnightblue" d="M322.08,-88.88C441.08,-62.16 569.31,-44.83 647.77,-35.51"/>
<polygon fill="midnightblue" stroke="midnightblue" points="321.04,-85.53 312.07,-91.16 322.59,-92.36 321.04,-85.53"/>
</g>
<!-- Node19&#45;&gt;Node12 -->
<g id="edge34" class="edge">
<title>Node19&#45;&gt;Node12</title>
<path fill="none" stroke="midnightblue" d="M488.03,-88.74C547.01,-72.05 604,-57.13 647.8,-45.92"/>
<polygon fill="midnightblue" stroke="midnightblue" points="486.83,-85.45 478.17,-91.55 488.74,-92.18 486.83,-85.45"/>
</g>
<!-- Node21&#45;&gt;Node4 -->
<g id="edge39" class="edge">
<title>Node21&#45;&gt;Node4</title>
<path fill="none" stroke="midnightblue" d="M2395.41,-264.52C2355.22,-252.5 2308.95,-238.67 2271.31,-227.42"/>
<polygon fill="midnightblue" stroke="midnightblue" points="2394.64,-267.94 2405.22,-267.45 2396.64,-261.23 2394.64,-267.94"/>
</g>
<!-- Node21&#45;&gt;Node6 -->
<g id="edge40" class="edge">
<title>Node21&#45;&gt;Node6</title>
<path fill="none" stroke="midnightblue" d="M2463.36,-259.6C2425.61,-213.63 2350.46,-131.09 2267,-89 2189.9,-50.12 2090.76,-35.77 2024.27,-30.5"/>
<polygon fill="midnightblue" stroke="midnightblue" points="2460.73,-261.91 2469.75,-267.47 2466.16,-257.5 2460.73,-261.91"/>
</g>
<!-- Node22&#45;&gt;Node4 -->
<g id="edge42" class="edge">
<title>Node22&#45;&gt;Node4</title>
<path fill="none" stroke="midnightblue" d="M1914.81,-268.51C1981.67,-253.63 2065.79,-234.92 2124.91,-221.76"/>
<polygon fill="midnightblue" stroke="midnightblue" points="1913.66,-265.18 1904.66,-270.77 1915.18,-272.02 1913.66,-265.18"/>
</g>
<!-- Node22&#45;&gt;Node6 -->
<g id="edge43" class="edge">
<title>Node22&#45;&gt;Node6</title>
<path fill="none" stroke="midnightblue" d="M1874.71,-261.94C1887.37,-253.52 1899.33,-243.25 1908,-231 1946.81,-176.18 1951.92,-93.6 1951.82,-52.53"/>
<polygon fill="midnightblue" stroke="midnightblue" points="1872.48,-259.21 1865.86,-267.48 1876.19,-265.14 1872.48,-259.21"/>
</g>
<!-- Node23&#45;&gt;Node4 -->
<g id="edge45" class="edge">
<title>Node23&#45;&gt;Node4</title>
<path fill="none" stroke="midnightblue" d="M2323.8,-346.23C2322.05,-321.97 2316.39,-290.08 2300,-267 2289.29,-251.91 2273.6,-239.85 2257.72,-230.56"/>
<polygon fill="midnightblue" stroke="midnightblue" points="2320.32,-346.65 2324.34,-356.45 2327.31,-346.28 2320.32,-346.65"/>
</g>
<!-- Node24&#45;&gt;Node4 -->
<g id="edge47" class="edge">
<title>Node24&#45;&gt;Node4</title>
<path fill="none" stroke="midnightblue" d="M2454.21,-353.43C2429.25,-344.62 2403.43,-333.55 2381,-320 2351.67,-302.28 2353.2,-286.47 2325,-267 2304.74,-253.01 2280.82,-240.52 2259.23,-230.52"/>
<polygon fill="midnightblue" stroke="midnightblue" points="2453.13,-356.76 2463.72,-356.69 2455.4,-350.13 2453.13,-356.76"/>
</g>
<!-- Node25&#45;&gt;Node4 -->
<g id="edge49" class="edge">
<title>Node25&#45;&gt;Node4</title>
<path fill="none" stroke="midnightblue" d="M2154.55,-259.5C2162.26,-249.92 2170.55,-239.62 2177.8,-230.61"/>
<polygon fill="midnightblue" stroke="midnightblue" points="2151.79,-257.35 2148.25,-267.34 2157.24,-261.74 2151.79,-257.35"/>
</g>
<!-- Node25&#45;&gt;Node6 -->
<g id="edge50" class="edge">
<title>Node25&#45;&gt;Node6</title>
<path fill="none" stroke="midnightblue" d="M2114.72,-257.9C2097.4,-215.44 2064.27,-142.5 2022,-89 2011.49,-75.69 1997.8,-63.05 1985.25,-52.72"/>
<polygon fill="midnightblue" stroke="midnightblue" points="2111.5,-259.27 2118.47,-267.24 2117.99,-256.66 2111.5,-259.27"/>
</g>
<!-- Node26&#45;&gt;Node4 -->
<g id="edge53" class="edge">
<title>Node26&#45;&gt;Node4</title>
<path fill="none" stroke="midnightblue" d="M2155.12,-368.36C2183.51,-359.5 2211.84,-344.7 2229,-320 2247.68,-293.1 2231.2,-255.45 2216.02,-230.77"/>
<polygon fill="midnightblue" stroke="midnightblue" points="2154.13,-365 2145.5,-371.14 2156.08,-371.72 2154.13,-365"/>
</g>
<!-- Node26&#45;&gt;Node6 -->
<g id="edge55" class="edge">
<title>Node26&#45;&gt;Node6</title>
<path fill="none" stroke="midnightblue" d="M2039.95,-347.61C2034.68,-338.93 2029.61,-329.39 2026,-320 1988.59,-222.59 2018.42,-187.51 1984,-89 1979.64,-76.53 1973.01,-63.53 1966.84,-52.71"/>
<polygon fill="midnightblue" stroke="midnightblue" points="2037.14,-349.72 2045.46,-356.29 2043.06,-345.97 2037.14,-349.72"/>
</g>
<!-- Node26&#45;&gt;Node7 -->
<g id="edge54" class="edge">
<title>Node26&#45;&gt;Node7</title>
<path fill="none" stroke="midnightblue" d="M2026.67,-349.88C1990.36,-319.74 1937.22,-277.45 1913,-267 1816.5,-225.38 1694.5,-211.81 1618.08,-207.46"/>
<polygon fill="midnightblue" stroke="midnightblue" points="2024.68,-352.77 2034.6,-356.49 2029.16,-347.4 2024.68,-352.77"/>
</g>
<!-- Node26&#45;&gt;Node25 -->
<g id="edge52" class="edge">
<title>Node26&#45;&gt;Node25</title>
<path fill="none" stroke="midnightblue" d="M2088.49,-348.22C2095.47,-338.72 2102.97,-328.53 2109.53,-319.61"/>
<polygon fill="midnightblue" stroke="midnightblue" points="2085.62,-346.21 2082.51,-356.34 2091.26,-350.35 2085.62,-346.21"/>
</g>
</g>
</svg>
