<?xml version="1.0" encoding="UTF-8" standalone="no"?>
<!DOCTYPE svg PUBLIC "-//W3C//DTD SVG 1.1//EN"
 "http://www.w3.org/Graphics/SVG/1.1/DTD/svg11.dtd">
<!-- Generated by graphviz version 8.0.5 (20230430.1635)
 -->
<!-- Title: Simple&#45;Utility/concepts/utility.hpp Pages: 1 -->
<svg width="2340pt" height="446pt"
 viewBox="0.00 0.00 2340.25 445.75" xmlns="http://www.w3.org/2000/svg" xmlns:xlink="http://www.w3.org/1999/xlink">
<g id="graph0" class="graph" transform="scale(1 1) rotate(0) translate(4 441.75)">
<title>Simple&#45;Utility/concepts/utility.hpp</title>
<!-- Node1 -->
<g id="node1" class="node">
<title>Node1</title>
<g id="a_node1"><a xlink:title=" ">
<polygon fill="#999999" stroke="#666666" points="2189.12,-437.75 2067.38,-437.75 2067.38,-404.25 2189.12,-404.25 2189.12,-437.75"/>
<text text-anchor="start" x="2075.38" y="-424.25" font-family="Helvetica,sans-Serif" font-size="10.00">Simple&#45;Utility/concepts</text>
<text text-anchor="middle" x="2128.25" y="-411.5" font-family="Helvetica,sans-Serif" font-size="10.00">/utility.hpp</text>
</a>
</g>
</g>
<!-- Node2 -->
<g id="node2" class="node">
<title>Node2</title>
<g id="a_node2"><a xlink:href="../../d1/d76/functional_2base_8hpp.html" target="_top" xlink:title=" ">
<polygon fill="white" stroke="#666666" points="1899.75,-368.25 1772.75,-368.25 1772.75,-334.75 1899.75,-334.75 1899.75,-368.25"/>
<text text-anchor="start" x="1780.75" y="-354.75" font-family="Helvetica,sans-Serif" font-size="10.00">Simple&#45;Utility/functional</text>
<text text-anchor="middle" x="1836.25" y="-342" font-family="Helvetica,sans-Serif" font-size="10.00">/base.hpp</text>
</a>
</g>
</g>
<!-- Node1&#45;&gt;Node2 -->
<g id="edge1" class="edge">
<title>Node1&#45;&gt;Node2</title>
<path fill="none" stroke="#63b8ff" d="M2056.44,-403.4C2008.6,-392.34 1946.28,-377.94 1900.16,-367.27"/>
<polygon fill="#63b8ff" stroke="#63b8ff" points="2055.51,-407.01 2066.04,-405.85 2057.08,-400.19 2055.51,-407.01"/>
</g>
<!-- Node9 -->
<g id="node9" class="node">
<title>Node9</title>
<g id="a_node9"><a xlink:href="../../d9/d5f/functional_2tuple_8hpp.html" target="_top" xlink:title=" ">
<polygon fill="white" stroke="#666666" points="1983.75,-90.25 1856.75,-90.25 1856.75,-56.75 1983.75,-56.75 1983.75,-90.25"/>
<text text-anchor="start" x="1864.75" y="-76.75" font-family="Helvetica,sans-Serif" font-size="10.00">Simple&#45;Utility/functional</text>
<text text-anchor="middle" x="1920.25" y="-64" font-family="Helvetica,sans-Serif" font-size="10.00">/tuple.hpp</text>
</a>
</g>
</g>
<!-- Node1&#45;&gt;Node9 -->
<g id="edge64" class="edge">
<title>Node1&#45;&gt;Node9</title>
<path fill="none" stroke="#63b8ff" d="M2199.87,-403.29C2258.65,-384.82 2332.25,-348.6 2332.25,-283 2332.25,-283 2332.25,-283 2332.25,-211.5 2332.25,-139.04 2099.9,-98.15 1984.17,-82.28"/>
<polygon fill="#63b8ff" stroke="#63b8ff" points="2199.02,-400.19 2190.46,-406.43 2201.04,-406.89 2199.02,-400.19"/>
</g>
<!-- Node21 -->
<g id="node21" class="node">
<title>Node21</title>
<g id="a_node21"><a xlink:href="../../df/d80/conjunction_8hpp.html" target="_top" xlink:title=" ">
<polygon fill="white" stroke="#666666" points="2218.5,-229.25 2078,-229.25 2078,-195.75 2218.5,-195.75 2218.5,-229.25"/>
<text text-anchor="start" x="2086" y="-215.75" font-family="Helvetica,sans-Serif" font-size="10.00">Simple&#45;Utility/functional</text>
<text text-anchor="middle" x="2148.25" y="-203" font-family="Helvetica,sans-Serif" font-size="10.00">/operators/conjunction.hpp</text>
</a>
</g>
</g>
<!-- Node1&#45;&gt;Node21 -->
<g id="edge60" class="edge">
<title>Node1&#45;&gt;Node21</title>
<path fill="none" stroke="#63b8ff" d="M2171.21,-398.46C2206.46,-378.13 2253.91,-344.02 2275.25,-298.75 2281.6,-285.28 2283.56,-277.61 2275.25,-265.25 2262.23,-245.89 2240.57,-233.77 2218.79,-226.18"/>
<polygon fill="#63b8ff" stroke="#63b8ff" points="2169.64,-395.88 2162.62,-403.82 2173.06,-401.99 2169.64,-395.88"/>
</g>
<!-- Node22 -->
<g id="node22" class="node">
<title>Node22</title>
<g id="a_node22"><a xlink:href="../../d4/d7c/disjunction_8hpp.html" target="_top" xlink:title=" ">
<polygon fill="white" stroke="#666666" points="1648.62,-229.25 1511.88,-229.25 1511.88,-195.75 1648.62,-195.75 1648.62,-229.25"/>
<text text-anchor="start" x="1519.88" y="-215.75" font-family="Helvetica,sans-Serif" font-size="10.00">Simple&#45;Utility/functional</text>
<text text-anchor="middle" x="1580.25" y="-203" font-family="Helvetica,sans-Serif" font-size="10.00">/operators/disjunction.hpp</text>
</a>
</g>
</g>
<!-- Node1&#45;&gt;Node22 -->
<g id="edge61" class="edge">
<title>Node1&#45;&gt;Node22</title>
<path fill="none" stroke="#63b8ff" d="M2056.26,-416.97C1981.64,-412.17 1862.41,-399.84 1764.25,-368.25 1700.76,-347.82 1679.75,-344.53 1631.25,-298.75 1610.18,-278.86 1594.8,-248.36 1586.72,-229.74"/>
<polygon fill="#63b8ff" stroke="#63b8ff" points="2055.74,-420.5 2065.94,-417.62 2056.17,-413.52 2055.74,-420.5"/>
</g>
<!-- Node23 -->
<g id="node23" class="node">
<title>Node23</title>
<g id="a_node23"><a xlink:href="../../dc/d0a/equal_8hpp.html" target="_top" xlink:title=" ">
<polygon fill="white" stroke="#666666" points="2075.75,-298.75 1948.75,-298.75 1948.75,-265.25 2075.75,-265.25 2075.75,-298.75"/>
<text text-anchor="start" x="1956.75" y="-285.25" font-family="Helvetica,sans-Serif" font-size="10.00">Simple&#45;Utility/functional</text>
<text text-anchor="middle" x="2012.25" y="-272.5" font-family="Helvetica,sans-Serif" font-size="10.00">/operators/equal.hpp</text>
</a>
</g>
</g>
<!-- Node1&#45;&gt;Node23 -->
<g id="edge62" class="edge">
<title>Node1&#45;&gt;Node23</title>
<path fill="none" stroke="#63b8ff" d="M2107.89,-395.95C2084.24,-368.02 2045.9,-322.74 2025.7,-298.88"/>
<polygon fill="#63b8ff" stroke="#63b8ff" points="2105.58,-397.65 2114.72,-403.02 2110.93,-393.12 2105.58,-397.65"/>
</g>
<!-- Node24 -->
<g id="node24" class="node">
<title>Node24</title>
<g id="a_node24"><a xlink:href="../../d7/dd0/equivalent_8hpp.html" target="_top" xlink:title=" ">
<polygon fill="white" stroke="#666666" points="2266.5,-298.75 2132,-298.75 2132,-265.25 2266.5,-265.25 2266.5,-298.75"/>
<text text-anchor="start" x="2140" y="-285.25" font-family="Helvetica,sans-Serif" font-size="10.00">Simple&#45;Utility/functional</text>
<text text-anchor="middle" x="2199.25" y="-272.5" font-family="Helvetica,sans-Serif" font-size="10.00">/operators/equivalent.hpp</text>
</a>
</g>
</g>
<!-- Node1&#45;&gt;Node24 -->
<g id="edge63" class="edge">
<title>Node1&#45;&gt;Node24</title>
<path fill="none" stroke="#63b8ff" d="M2141.47,-394.49C2155.99,-366.47 2178.87,-322.33 2191.02,-298.88"/>
<polygon fill="#63b8ff" stroke="#63b8ff" points="2138.03,-392.53 2136.53,-403.02 2144.24,-395.75 2138.03,-392.53"/>
</g>
<!-- Node3 -->
<g id="node3" class="node">
<title>Node3</title>
<g id="a_node3"><a xlink:href="../../d2/db4/functional_8hpp.html" target="_top" xlink:title=" ">
<polygon fill="white" stroke="#666666" points="1768.88,-20.75 1621.62,-20.75 1621.62,0 1768.88,0 1768.88,-20.75"/>
<text text-anchor="middle" x="1695.25" y="-7.25" font-family="Helvetica,sans-Serif" font-size="10.00">Simple&#45;Utility/functional.hpp</text>
</a>
</g>
</g>
<!-- Node2&#45;&gt;Node3 -->
<g id="edge2" class="edge">
<title>Node2&#45;&gt;Node3</title>
<path fill="none" stroke="#63b8ff" d="M1762.22,-332.35C1745.22,-324.72 1729,-313.94 1718.25,-298.75 1655.95,-210.71 1710.16,-164.15 1700.25,-56.75 1699.11,-44.44 1697.51,-30.28 1696.42,-21.1"/>
<polygon fill="#63b8ff" stroke="#63b8ff" points="1760.71,-335.93 1771.29,-336.5 1763.37,-329.45 1760.71,-335.93"/>
</g>
<!-- Node4 -->
<g id="node4" class="node">
<title>Node4</title>
<g id="a_node4"><a xlink:href="../../d9/d76/bind_8hpp.html" target="_top" xlink:title=" ">
<polygon fill="white" stroke="#666666" points="1493.75,-229.25 1366.75,-229.25 1366.75,-195.75 1493.75,-195.75 1493.75,-229.25"/>
<text text-anchor="start" x="1374.75" y="-215.75" font-family="Helvetica,sans-Serif" font-size="10.00">Simple&#45;Utility/functional</text>
<text text-anchor="middle" x="1430.25" y="-203" font-family="Helvetica,sans-Serif" font-size="10.00">/operators/bind.hpp</text>
</a>
</g>
</g>
<!-- Node2&#45;&gt;Node4 -->
<g id="edge3" class="edge">
<title>Node2&#45;&gt;Node4</title>
<path fill="none" stroke="#63b8ff" d="M1761.79,-334.31C1723.06,-325.19 1675.17,-312.81 1633.25,-298.75 1572.55,-278.39 1504.37,-248.18 1464.49,-229.72"/>
<polygon fill="#63b8ff" stroke="#63b8ff" points="1760.92,-337.93 1771.46,-336.79 1762.51,-331.12 1760.92,-337.93"/>
</g>
<!-- Node5 -->
<g id="node5" class="node">
<title>Node5</title>
<g id="a_node5"><a xlink:href="../../d2/d7e/predicate_8hpp.html" target="_top" xlink:title=" ">
<polygon fill="white" stroke="#666666" points="1972.75,-159.75 1845.75,-159.75 1845.75,-126.25 1972.75,-126.25 1972.75,-159.75"/>
<text text-anchor="start" x="1853.75" y="-146.25" font-family="Helvetica,sans-Serif" font-size="10.00">Simple&#45;Utility/functional</text>
<text text-anchor="middle" x="1909.25" y="-133.5" font-family="Helvetica,sans-Serif" font-size="10.00">/predicate.hpp</text>
</a>
</g>
</g>
<!-- Node2&#45;&gt;Node5 -->
<g id="edge57" class="edge">
<title>Node2&#45;&gt;Node5</title>
<path fill="none" stroke="#63b8ff" d="M1863.56,-327.14C1887.39,-304.79 1920.29,-268.74 1934.25,-229.25 1942.63,-205.55 1930.2,-177.47 1920.07,-160.19"/>
<polygon fill="#63b8ff" stroke="#63b8ff" points="1861.57,-324.12 1856.55,-333.45 1866.3,-329.29 1861.57,-324.12"/>
</g>
<!-- Node7 -->
<g id="node7" class="node">
<title>Node7</title>
<g id="a_node7"><a xlink:href="../../d6/deb/transform_8hpp.html" target="_top" xlink:title=" ">
<polygon fill="white" stroke="#666666" points="1413.75,-159.75 1286.75,-159.75 1286.75,-126.25 1413.75,-126.25 1413.75,-159.75"/>
<text text-anchor="start" x="1294.75" y="-146.25" font-family="Helvetica,sans-Serif" font-size="10.00">Simple&#45;Utility/functional</text>
<text text-anchor="middle" x="1350.25" y="-133.5" font-family="Helvetica,sans-Serif" font-size="10.00">/transform.hpp</text>
</a>
</g>
</g>
<!-- Node2&#45;&gt;Node7 -->
<g id="edge58" class="edge">
<title>Node2&#45;&gt;Node7</title>
<path fill="none" stroke="#63b8ff" d="M1761.86,-342.83C1639.84,-328.52 1405.84,-293.25 1357.25,-229.25 1342.08,-209.26 1343.89,-178.51 1346.87,-159.92"/>
<polygon fill="#63b8ff" stroke="#63b8ff" points="1761.26,-346.39 1771.59,-344.06 1762.06,-339.44 1761.26,-346.39"/>
</g>
<!-- Node16 -->
<g id="node16" class="node">
<title>Node16</title>
<g id="a_node16"><a xlink:href="../../d6/dbe/nullables_2base_8hpp.html" target="_top" xlink:title=" ">
<polygon fill="white" stroke="#666666" points="712.5,-159.75 590,-159.75 590,-126.25 712.5,-126.25 712.5,-159.75"/>
<text text-anchor="start" x="598" y="-146.25" font-family="Helvetica,sans-Serif" font-size="10.00">Simple&#45;Utility/nullables</text>
<text text-anchor="middle" x="651.25" y="-133.5" font-family="Helvetica,sans-Serif" font-size="10.00">/base.hpp</text>
</a>
</g>
</g>
<!-- Node2&#45;&gt;Node16 -->
<g id="edge59" class="edge">
<title>Node2&#45;&gt;Node16</title>
<path fill="none" stroke="#63b8ff" d="M1761.66,-343.34C1676.06,-334.69 1531.58,-318.78 1408.25,-298.75 1148.07,-256.5 841.3,-187.93 712.76,-158.35"/>
<polygon fill="#63b8ff" stroke="#63b8ff" points="1761.27,-346.92 1771.57,-344.43 1761.97,-339.95 1761.27,-346.92"/>
</g>
<!-- Node2&#45;&gt;Node21 -->
<g id="edge39" class="edge">
<title>Node2&#45;&gt;Node21</title>
<path fill="none" stroke="#63b8ff" d="M1910.92,-348.81C1963.34,-344.49 2033.1,-332.15 2085.25,-298.75 2111.91,-281.68 2131.18,-249.06 2140.96,-229.5"/>
<polygon fill="#63b8ff" stroke="#63b8ff" points="1910.73,-345.39 1901.02,-349.62 1911.25,-352.37 1910.73,-345.39"/>
</g>
<!-- Node2&#45;&gt;Node22 -->
<g id="edge42" class="edge">
<title>Node2&#45;&gt;Node22</title>
<path fill="none" stroke="#63b8ff" d="M1761.98,-331.08C1736.5,-322.91 1708.34,-312.14 1684.25,-298.75 1649.77,-279.58 1615.49,-248.57 1596.17,-229.7"/>
<polygon fill="#63b8ff" stroke="#63b8ff" points="1760.76,-334.68 1771.35,-334.31 1762.84,-328 1760.76,-334.68"/>
</g>
<!-- Node2&#45;&gt;Node23 -->
<g id="edge45" class="edge">
<title>Node2&#45;&gt;Node23</title>
<path fill="none" stroke="#63b8ff" d="M1888.49,-330.47C1914.54,-320.47 1945.63,-308.55 1970.13,-299.15"/>
<polygon fill="#63b8ff" stroke="#63b8ff" points="1887.49,-327.48 1879.41,-334.33 1890,-334.02 1887.49,-327.48"/>
</g>
<!-- Node2&#45;&gt;Node24 -->
<g id="edge47" class="edge">
<title>Node2&#45;&gt;Node24</title>
<path fill="none" stroke="#63b8ff" d="M1910.82,-337.04C1967.69,-326.72 2047.95,-312.04 2118.25,-298.75 2122.61,-297.93 2127.11,-297.07 2131.64,-296.2"/>
<polygon fill="#63b8ff" stroke="#63b8ff" points="1910.34,-333.75 1901.12,-338.98 1911.59,-340.64 1910.34,-333.75"/>
</g>
<!-- Node25 -->
<g id="node25" class="node">
<title>Node25</title>
<g id="a_node25"><a xlink:href="../../d8/dea/negation_8hpp.html" target="_top" xlink:title=" ">
<polygon fill="white" stroke="#666666" points="1908.5,-229.25 1780,-229.25 1780,-195.75 1908.5,-195.75 1908.5,-229.25"/>
<text text-anchor="start" x="1788" y="-215.75" font-family="Helvetica,sans-Serif" font-size="10.00">Simple&#45;Utility/functional</text>
<text text-anchor="middle" x="1844.25" y="-203" font-family="Helvetica,sans-Serif" font-size="10.00">/operators/negation.hpp</text>
</a>
</g>
</g>
<!-- Node2&#45;&gt;Node25 -->
<g id="edge49" class="edge">
<title>Node2&#45;&gt;Node25</title>
<path fill="none" stroke="#63b8ff" d="M1852.5,-325.26C1856.88,-317.12 1861.02,-307.85 1863.25,-298.75 1869.14,-274.74 1859.82,-246.75 1852.28,-229.57"/>
<polygon fill="#63b8ff" stroke="#63b8ff" points="1849.12,-323.12 1847.15,-333.53 1855.18,-326.62 1849.12,-323.12"/>
</g>
<!-- Node26 -->
<g id="node26" class="node">
<title>Node26</title>
<g id="a_node26"><a xlink:href="../../d5/db7/pipe_8hpp.html" target="_top" xlink:title=" ">
<polygon fill="white" stroke="#666666" points="1853.75,-298.75 1726.75,-298.75 1726.75,-265.25 1853.75,-265.25 1853.75,-298.75"/>
<text text-anchor="start" x="1734.75" y="-285.25" font-family="Helvetica,sans-Serif" font-size="10.00">Simple&#45;Utility/functional</text>
<text text-anchor="middle" x="1790.25" y="-272.5" font-family="Helvetica,sans-Serif" font-size="10.00">/operators/pipe.hpp</text>
</a>
</g>
</g>
<!-- Node2&#45;&gt;Node26 -->
<g id="edge52" class="edge">
<title>Node2&#45;&gt;Node26</title>
<path fill="none" stroke="#63b8ff" d="M1819.3,-325.63C1813.21,-316.69 1806.5,-306.85 1801.07,-298.88"/>
<polygon fill="#63b8ff" stroke="#63b8ff" points="1816.82,-327.21 1825.35,-333.5 1822.61,-323.27 1816.82,-327.21"/>
</g>
<!-- Node4&#45;&gt;Node3 -->
<g id="edge4" class="edge">
<title>Node4&#45;&gt;Node3</title>
<path fill="none" stroke="#63b8ff" d="M1469.41,-190C1508.94,-167.48 1570.91,-129.92 1619.25,-90.25 1646.59,-67.81 1674.32,-36.34 1687.44,-20.81"/>
<polygon fill="#63b8ff" stroke="#63b8ff" points="1467.85,-187.43 1460.86,-195.39 1471.29,-193.52 1467.85,-187.43"/>
</g>
<!-- Node4&#45;&gt;Node5 -->
<g id="edge5" class="edge">
<title>Node4&#45;&gt;Node5</title>
<path fill="none" stroke="#63b8ff" d="M1504.55,-195.62C1631.24,-174.26 1767.36,-158.66 1845.36,-150.43"/>
<polygon fill="#63b8ff" stroke="#63b8ff" points="1504.16,-192.31 1494.89,-197.43 1505.33,-199.21 1504.16,-192.31"/>
</g>
<!-- Node4&#45;&gt;Node7 -->
<g id="edge9" class="edge">
<title>Node4&#45;&gt;Node7</title>
<path fill="none" stroke="#63b8ff" d="M1403.16,-188.64C1392.05,-179.27 1379.46,-168.65 1369.35,-160.12"/>
<polygon fill="#63b8ff" stroke="#63b8ff" points="1400.39,-191.73 1410.29,-195.5 1404.91,-186.38 1400.39,-191.73"/>
</g>
<!-- Node4&#45;&gt;Node16 -->
<g id="edge26" class="edge">
<title>Node4&#45;&gt;Node16</title>
<path fill="none" stroke="#63b8ff" d="M1355.81,-205.05C1202.6,-191.77 854.5,-161.61 712.89,-149.34"/>
<polygon fill="#63b8ff" stroke="#63b8ff" points="1355.24,-208.6 1365.5,-205.98 1355.84,-201.63 1355.24,-208.6"/>
</g>
<!-- Node5&#45;&gt;Node3 -->
<g id="edge6" class="edge">
<title>Node5&#45;&gt;Node3</title>
<path fill="none" stroke="#63b8ff" d="M1882,-119.2C1853.75,-95.67 1812.56,-61.71 1804.25,-56.75 1778.91,-41.62 1747.59,-29.15 1725.03,-21.14"/>
<polygon fill="#63b8ff" stroke="#63b8ff" points="1879.38,-122.4 1889.3,-126.12 1883.86,-117.03 1879.38,-122.4"/>
</g>
<!-- Node6 -->
<g id="node6" class="node">
<title>Node6</title>
<g id="a_node6"><a xlink:href="../../dd/d3f/compare_8hpp.html" target="_top" xlink:title=" ">
<polygon fill="white" stroke="#666666" points="1609.75,-90.25 1482.75,-90.25 1482.75,-56.75 1609.75,-56.75 1609.75,-90.25"/>
<text text-anchor="start" x="1490.75" y="-76.75" font-family="Helvetica,sans-Serif" font-size="10.00">Simple&#45;Utility/functional</text>
<text text-anchor="middle" x="1546.25" y="-64" font-family="Helvetica,sans-Serif" font-size="10.00">/compare.hpp</text>
</a>
</g>
</g>
<!-- Node5&#45;&gt;Node6 -->
<g id="edge7" class="edge">
<title>Node5&#45;&gt;Node6</title>
<path fill="none" stroke="#63b8ff" d="M1834.84,-128.16C1768.66,-115.86 1672.9,-98.05 1610.13,-86.38"/>
<polygon fill="#63b8ff" stroke="#63b8ff" points="1834.13,-131.78 1844.6,-130.17 1835.41,-124.9 1834.13,-131.78"/>
</g>
<!-- Node6&#45;&gt;Node3 -->
<g id="edge8" class="edge">
<title>Node6&#45;&gt;Node3</title>
<path fill="none" stroke="#63b8ff" d="M1595.67,-52.23C1621.14,-41.78 1651.04,-29.51 1671.39,-21.17"/>
<polygon fill="#63b8ff" stroke="#63b8ff" points="1594.71,-49.25 1586.79,-56.28 1597.37,-55.72 1594.71,-49.25"/>
</g>
<!-- Node7&#45;&gt;Node3 -->
<g id="edge10" class="edge">
<title>Node7&#45;&gt;Node3</title>
<path fill="none" stroke="#63b8ff" d="M1388.29,-120.3C1402.99,-111.47 1419.73,-100.86 1434.25,-90.25 1452.7,-76.77 1452.73,-66.81 1473.25,-56.75 1519.53,-34.07 1576.57,-22.72 1621.25,-17.05"/>
<polygon fill="#63b8ff" stroke="#63b8ff" points="1386.79,-117.71 1379.97,-125.82 1390.36,-123.73 1386.79,-117.71"/>
</g>
<!-- Node7&#45;&gt;Node6 -->
<g id="edge13" class="edge">
<title>Node7&#45;&gt;Node6</title>
<path fill="none" stroke="#63b8ff" d="M1407.27,-122.36C1436.52,-112.29 1471.7,-100.17 1499.35,-90.65"/>
<polygon fill="#63b8ff" stroke="#63b8ff" points="1406.51,-119.27 1398.2,-125.83 1408.79,-125.89 1406.51,-119.27"/>
</g>
<!-- Node8 -->
<g id="node8" class="node">
<title>Node8</title>
<g id="a_node8"><a xlink:href="../../d3/d23/arithmetic_8hpp.html" target="_top" xlink:title=" ">
<polygon fill="white" stroke="#666666" points="1280.75,-90.25 1153.75,-90.25 1153.75,-56.75 1280.75,-56.75 1280.75,-90.25"/>
<text text-anchor="start" x="1161.75" y="-76.75" font-family="Helvetica,sans-Serif" font-size="10.00">Simple&#45;Utility/functional</text>
<text text-anchor="middle" x="1217.25" y="-64" font-family="Helvetica,sans-Serif" font-size="10.00">/arithmetic.hpp</text>
</a>
</g>
</g>
<!-- Node7&#45;&gt;Node8 -->
<g id="edge11" class="edge">
<title>Node7&#45;&gt;Node8</title>
<path fill="none" stroke="#63b8ff" d="M1308.63,-120.88C1289.32,-111.08 1266.73,-99.61 1248.85,-90.54"/>
<polygon fill="#63b8ff" stroke="#63b8ff" points="1306.89,-124.43 1317.39,-125.83 1310.06,-118.19 1306.89,-124.43"/>
</g>
<!-- Node7&#45;&gt;Node9 -->
<g id="edge14" class="edge">
<title>Node7&#45;&gt;Node9</title>
<path fill="none" stroke="#63b8ff" d="M1424.58,-133.2C1537.48,-119.83 1750.24,-94.63 1856.5,-82.05"/>
<polygon fill="#63b8ff" stroke="#63b8ff" points="1424.5,-129.8 1414.98,-134.45 1425.32,-136.75 1424.5,-129.8"/>
</g>
<!-- Node10 -->
<g id="node10" class="node">
<title>Node10</title>
<g id="a_node10"><a xlink:href="../../df/d4e/functional_2utility_8hpp.html" target="_top" xlink:title=" ">
<polygon fill="white" stroke="#666666" points="1425.75,-90.25 1298.75,-90.25 1298.75,-56.75 1425.75,-56.75 1425.75,-90.25"/>
<text text-anchor="start" x="1306.75" y="-76.75" font-family="Helvetica,sans-Serif" font-size="10.00">Simple&#45;Utility/functional</text>
<text text-anchor="middle" x="1362.25" y="-64" font-family="Helvetica,sans-Serif" font-size="10.00">/utility.hpp</text>
</a>
</g>
</g>
<!-- Node7&#45;&gt;Node10 -->
<g id="edge16" class="edge">
<title>Node7&#45;&gt;Node10</title>
<path fill="none" stroke="#63b8ff" d="M1354.98,-115.42C1356.48,-106.95 1358.1,-97.85 1359.43,-90.38"/>
<polygon fill="#63b8ff" stroke="#63b8ff" points="1351.4,-114.55 1353.09,-125 1358.29,-115.77 1351.4,-114.55"/>
</g>
<!-- Node11 -->
<g id="node11" class="node">
<title>Node11</title>
<g id="a_node11"><a xlink:href="../../d4/dc9/and__then_8hpp.html" target="_top" xlink:title=" ">
<polygon fill="white" stroke="#666666" points="712.5,-90.25 590,-90.25 590,-56.75 712.5,-56.75 712.5,-90.25"/>
<text text-anchor="start" x="598" y="-76.75" font-family="Helvetica,sans-Serif" font-size="10.00">Simple&#45;Utility/nullables</text>
<text text-anchor="middle" x="651.25" y="-64" font-family="Helvetica,sans-Serif" font-size="10.00">/and_then.hpp</text>
</a>
</g>
</g>
<!-- Node7&#45;&gt;Node11 -->
<g id="edge18" class="edge">
<title>Node7&#45;&gt;Node11</title>
<path fill="none" stroke="#63b8ff" d="M1275.94,-139.15C1158.02,-133.9 921.02,-120.34 722.25,-90.25 719.13,-89.78 715.94,-89.25 712.73,-88.67"/>
<polygon fill="#63b8ff" stroke="#63b8ff" points="1275.49,-142.68 1285.63,-139.62 1275.79,-135.69 1275.49,-142.68"/>
</g>
<!-- Node13 -->
<g id="node13" class="node">
<title>Node13</title>
<g id="a_node13"><a xlink:href="../../d7/d5f/fwd__value_8hpp.html" target="_top" xlink:title=" ">
<polygon fill="white" stroke="#666666" points="853.5,-90.25 731,-90.25 731,-56.75 853.5,-56.75 853.5,-90.25"/>
<text text-anchor="start" x="739" y="-76.75" font-family="Helvetica,sans-Serif" font-size="10.00">Simple&#45;Utility/nullables</text>
<text text-anchor="middle" x="792.25" y="-64" font-family="Helvetica,sans-Serif" font-size="10.00">/fwd_value.hpp</text>
</a>
</g>
</g>
<!-- Node7&#45;&gt;Node13 -->
<g id="edge20" class="edge">
<title>Node7&#45;&gt;Node13</title>
<path fill="none" stroke="#63b8ff" d="M1275.78,-136.7C1179.94,-129.29 1008.48,-114 863.25,-90.25 860.13,-89.74 856.95,-89.18 853.74,-88.58"/>
<polygon fill="#63b8ff" stroke="#63b8ff" points="1275.28,-140.25 1285.52,-137.53 1275.81,-133.27 1275.28,-140.25"/>
</g>
<!-- Node14 -->
<g id="node14" class="node">
<title>Node14</title>
<g id="a_node14"><a xlink:href="../../d2/d0e/or__else_8hpp.html" target="_top" xlink:title=" ">
<polygon fill="white" stroke="#666666" points="994.5,-90.25 872,-90.25 872,-56.75 994.5,-56.75 994.5,-90.25"/>
<text text-anchor="start" x="880" y="-76.75" font-family="Helvetica,sans-Serif" font-size="10.00">Simple&#45;Utility/nullables</text>
<text text-anchor="middle" x="933.25" y="-64" font-family="Helvetica,sans-Serif" font-size="10.00">/or_else.hpp</text>
</a>
</g>
</g>
<!-- Node7&#45;&gt;Node14 -->
<g id="edge22" class="edge">
<title>Node7&#45;&gt;Node14</title>
<path fill="none" stroke="#63b8ff" d="M1275.75,-132.39C1205.5,-122.96 1097.41,-107.53 1004.25,-90.25 1001.15,-89.67 997.97,-89.06 994.77,-88.42"/>
<polygon fill="#63b8ff" stroke="#63b8ff" points="1274.88,-135.94 1285.26,-133.79 1275.81,-129 1274.88,-135.94"/>
</g>
<!-- Node15 -->
<g id="node15" class="node">
<title>Node15</title>
<g id="a_node15"><a xlink:href="../../d0/d48/value__or_8hpp.html" target="_top" xlink:title=" ">
<polygon fill="white" stroke="#666666" points="1135.5,-90.25 1013,-90.25 1013,-56.75 1135.5,-56.75 1135.5,-90.25"/>
<text text-anchor="start" x="1021" y="-76.75" font-family="Helvetica,sans-Serif" font-size="10.00">Simple&#45;Utility/nullables</text>
<text text-anchor="middle" x="1074.25" y="-64" font-family="Helvetica,sans-Serif" font-size="10.00">/value_or.hpp</text>
</a>
</g>
</g>
<!-- Node7&#45;&gt;Node15 -->
<g id="edge24" class="edge">
<title>Node7&#45;&gt;Node15</title>
<path fill="none" stroke="#63b8ff" d="M1275.96,-123.83C1232.06,-113.1 1177.14,-99.66 1135.7,-89.53"/>
<polygon fill="#63b8ff" stroke="#63b8ff" points="1275.04,-127.45 1285.58,-126.43 1276.7,-120.65 1275.04,-127.45"/>
</g>
<!-- Node8&#45;&gt;Node3 -->
<g id="edge12" class="edge">
<title>Node8&#45;&gt;Node3</title>
<path fill="none" stroke="#63b8ff" d="M1291.68,-56.44C1412.15,-37 1541.9,-24.21 1621.22,-17.32"/>
<polygon fill="#63b8ff" stroke="#63b8ff" points="1291.48,-53.09 1282.17,-58.16 1292.61,-60 1291.48,-53.09"/>
</g>
<!-- Node9&#45;&gt;Node3 -->
<g id="edge15" class="edge">
<title>Node9&#45;&gt;Node3</title>
<path fill="none" stroke="#63b8ff" d="M1849.94,-53.4C1810.58,-42.71 1763.16,-29.82 1731.29,-21.17"/>
<polygon fill="#63b8ff" stroke="#63b8ff" points="1848.98,-57.04 1859.54,-56.28 1850.81,-50.28 1848.98,-57.04"/>
</g>
<!-- Node10&#45;&gt;Node3 -->
<g id="edge17" class="edge">
<title>Node10&#45;&gt;Node3</title>
<path fill="none" stroke="#63b8ff" d="M1436.76,-57.42C1437.93,-57.19 1439.1,-56.97 1440.25,-56.75 1507.95,-43.89 1585.98,-30.17 1637.71,-21.22"/>
<polygon fill="#63b8ff" stroke="#63b8ff" points="1436.23,-54.15 1427.08,-59.49 1437.56,-61.02 1436.23,-54.15"/>
</g>
<!-- Node12 -->
<g id="node12" class="node">
<title>Node12</title>
<g id="a_node12"><a xlink:href="../../d3/ddc/nullables_8hpp.html" target="_top" xlink:title=" ">
<polygon fill="white" stroke="#666666" points="678.62,-20.75 535.88,-20.75 535.88,0 678.62,0 678.62,-20.75"/>
<text text-anchor="middle" x="607.25" y="-7.25" font-family="Helvetica,sans-Serif" font-size="10.00">Simple&#45;Utility/nullables.hpp</text>
</a>
</g>
</g>
<!-- Node11&#45;&gt;Node12 -->
<g id="edge19" class="edge">
<title>Node11&#45;&gt;Node12</title>
<path fill="none" stroke="#63b8ff" d="M633.3,-47.56C626.64,-38.3 619.46,-28.34 614.33,-21.22"/>
<polygon fill="#63b8ff" stroke="#63b8ff" points="631.01,-49.37 639.69,-55.44 636.69,-45.28 631.01,-49.37"/>
</g>
<!-- Node13&#45;&gt;Node12 -->
<g id="edge21" class="edge">
<title>Node13&#45;&gt;Node12</title>
<path fill="none" stroke="#63b8ff" d="M732.99,-52.92C700.92,-42.32 662.7,-29.69 636.88,-21.17"/>
<polygon fill="#63b8ff" stroke="#63b8ff" points="731.57,-56.47 742.16,-56.28 733.76,-49.82 731.57,-56.47"/>
</g>
<!-- Node14&#45;&gt;Node12 -->
<g id="edge23" class="edge">
<title>Node14&#45;&gt;Node12</title>
<path fill="none" stroke="#63b8ff" d="M860.98,-56.55C788.28,-42.15 715.98,-29.55 666.64,-21.21"/>
<polygon fill="#63b8ff" stroke="#63b8ff" points="860.22,-60.16 870.71,-58.68 861.59,-53.3 860.22,-60.16"/>
</g>
<!-- Node15&#45;&gt;Node12 -->
<g id="edge25" class="edge">
<title>Node15&#45;&gt;Node12</title>
<path fill="none" stroke="#63b8ff" d="M1002,-56.66C882.96,-37.08 756.36,-24.26 679.1,-17.34"/>
<polygon fill="#63b8ff" stroke="#63b8ff" points="1001.31,-60.26 1011.75,-58.45 1002.46,-53.35 1001.31,-60.26"/>
</g>
<!-- Node16&#45;&gt;Node11 -->
<g id="edge30" class="edge">
<title>Node16&#45;&gt;Node11</title>
<path fill="none" stroke="#63b8ff" d="M651.25,-115.14C651.25,-106.75 651.25,-97.76 651.25,-90.38"/>
<polygon fill="#63b8ff" stroke="#63b8ff" points="647.75,-115 651.25,-125 654.75,-115 647.75,-115"/>
</g>
<!-- Node16&#45;&gt;Node12 -->
<g id="edge27" class="edge">
<title>Node16&#45;&gt;Node12</title>
<path fill="none" stroke="#63b8ff" d="M608.22,-119.81C597.45,-112.01 587.26,-102.16 581.25,-90.25 569.37,-66.69 587.76,-36.51 599.21,-21.21"/>
<polygon fill="#63b8ff" stroke="#63b8ff" points="606.06,-123.24 616.32,-125.87 609.94,-117.42 606.06,-123.24"/>
</g>
<!-- Node16&#45;&gt;Node13 -->
<g id="edge31" class="edge">
<title>Node16&#45;&gt;Node13</title>
<path fill="none" stroke="#63b8ff" d="M694.81,-121.15C715.41,-111.29 739.62,-99.7 758.75,-90.54"/>
<polygon fill="#63b8ff" stroke="#63b8ff" points="693.53,-118.36 686.02,-125.83 696.55,-124.67 693.53,-118.36"/>
</g>
<!-- Node16&#45;&gt;Node14 -->
<g id="edge32" class="edge">
<title>Node16&#45;&gt;Node14</title>
<path fill="none" stroke="#63b8ff" d="M723.27,-124.76C769.22,-113.76 828.12,-99.66 871.84,-89.2"/>
<polygon fill="#63b8ff" stroke="#63b8ff" points="722.7,-121.54 713.79,-127.27 724.33,-128.35 722.7,-121.54"/>
</g>
<!-- Node16&#45;&gt;Node15 -->
<g id="edge37" class="edge">
<title>Node16&#45;&gt;Node15</title>
<path fill="none" stroke="#63b8ff" d="M723.49,-132.93C794.82,-123.62 906.9,-107.99 1003.25,-90.25 1006.35,-89.68 1009.53,-89.07 1012.73,-88.43"/>
<polygon fill="#63b8ff" stroke="#63b8ff" points="723.3,-129.56 713.83,-134.32 724.2,-136.5 723.3,-129.56"/>
</g>
<!-- Node17 -->
<g id="node17" class="node">
<title>Node17</title>
<g id="a_node17"><a xlink:href="../../d6/dca/adapter_8hpp.html" target="_top" xlink:title=" ">
<polygon fill="white" stroke="#666666" points="122.5,-90.25 0,-90.25 0,-56.75 122.5,-56.75 122.5,-90.25"/>
<text text-anchor="start" x="8" y="-76.75" font-family="Helvetica,sans-Serif" font-size="10.00">Simple&#45;Utility/nullables</text>
<text text-anchor="middle" x="61.25" y="-64" font-family="Helvetica,sans-Serif" font-size="10.00">/adapter.hpp</text>
</a>
</g>
</g>
<!-- Node16&#45;&gt;Node17 -->
<g id="edge28" class="edge">
<title>Node16&#45;&gt;Node17</title>
<path fill="none" stroke="#63b8ff" d="M578.88,-137.51C478.26,-130.65 290.61,-115.62 132.25,-90.25 129.13,-89.75 125.95,-89.2 122.74,-88.61"/>
<polygon fill="#63b8ff" stroke="#63b8ff" points="578.61,-141.07 588.82,-138.25 579.08,-134.09 578.61,-141.07"/>
</g>
<!-- Node18 -->
<g id="node18" class="node">
<title>Node18</title>
<g id="a_node18"><a xlink:href="../../d9/d20/std__optional_8hpp.html" target="_top" xlink:title=" ">
<polygon fill="white" stroke="#666666" points="263.5,-90.25 141,-90.25 141,-56.75 263.5,-56.75 263.5,-90.25"/>
<text text-anchor="start" x="149" y="-76.75" font-family="Helvetica,sans-Serif" font-size="10.00">Simple&#45;Utility/nullables</text>
<text text-anchor="middle" x="202.25" y="-64" font-family="Helvetica,sans-Serif" font-size="10.00">/std_optional.hpp</text>
</a>
</g>
</g>
<!-- Node16&#45;&gt;Node18 -->
<g id="edge33" class="edge">
<title>Node16&#45;&gt;Node18</title>
<path fill="none" stroke="#63b8ff" d="M578.89,-133.89C502.6,-124.91 379.05,-109.19 273.25,-90.25 270.14,-89.69 266.97,-89.1 263.76,-88.47"/>
<polygon fill="#63b8ff" stroke="#63b8ff" points="578.45,-137.48 588.79,-135.16 579.27,-130.52 578.45,-137.48"/>
</g>
<!-- Node19 -->
<g id="node19" class="node">
<title>Node19</title>
<g id="a_node19"><a xlink:href="../../d8/d9a/std__pointers_8hpp.html" target="_top" xlink:title=" ">
<polygon fill="white" stroke="#666666" points="404.5,-90.25 282,-90.25 282,-56.75 404.5,-56.75 404.5,-90.25"/>
<text text-anchor="start" x="290" y="-76.75" font-family="Helvetica,sans-Serif" font-size="10.00">Simple&#45;Utility/nullables</text>
<text text-anchor="middle" x="343.25" y="-64" font-family="Helvetica,sans-Serif" font-size="10.00">/std_pointers.hpp</text>
</a>
</g>
</g>
<!-- Node16&#45;&gt;Node19 -->
<g id="edge35" class="edge">
<title>Node16&#45;&gt;Node19</title>
<path fill="none" stroke="#63b8ff" d="M578.85,-126.4C531.68,-116.2 468.79,-102.54 413.25,-90.25 410.45,-89.63 407.59,-89 404.7,-88.35"/>
<polygon fill="#63b8ff" stroke="#63b8ff" points="578.07,-130.03 588.58,-128.72 579.55,-123.19 578.07,-130.03"/>
</g>
<!-- Node20 -->
<g id="node20" class="node">
<title>Node20</title>
<g id="a_node20"><a xlink:href="../../d0/d0f/unique__handle_8hpp.html" target="_top" xlink:title=" ">
<polygon fill="white" stroke="#666666" points="533.88,-90.25 422.62,-90.25 422.62,-56.75 533.88,-56.75 533.88,-90.25"/>
<text text-anchor="start" x="430.62" y="-76.75" font-family="Helvetica,sans-Serif" font-size="10.00">Simple&#45;Utility/unique</text>
<text text-anchor="middle" x="478.25" y="-64" font-family="Helvetica,sans-Serif" font-size="10.00">_handle.hpp</text>
</a>
</g>
</g>
<!-- Node16&#45;&gt;Node20 -->
<g id="edge38" class="edge">
<title>Node16&#45;&gt;Node20</title>
<path fill="none" stroke="#63b8ff" d="M599.9,-121.97C574.29,-111.97 543.73,-100.05 519.65,-90.65"/>
<polygon fill="#63b8ff" stroke="#63b8ff" points="598.22,-125.46 608.81,-125.83 600.77,-118.94 598.22,-125.46"/>
</g>
<!-- Node17&#45;&gt;Node12 -->
<g id="edge29" class="edge">
<title>Node17&#45;&gt;Node12</title>
<path fill="none" stroke="#63b8ff" d="M133.43,-56.7C282.25,-33.68 444.6,-21.27 535.69,-15.46"/>
<polygon fill="#63b8ff" stroke="#63b8ff" points="133.07,-53.37 123.74,-58.38 134.16,-60.28 133.07,-53.37"/>
</g>
<!-- Node18&#45;&gt;Node12 -->
<g id="edge34" class="edge">
<title>Node18&#45;&gt;Node12</title>
<path fill="none" stroke="#63b8ff" d="M274.56,-56.61C370.77,-39.72 470.27,-27.04 535.64,-19.35"/>
<polygon fill="#63b8ff" stroke="#63b8ff" points="274,-53.33 264.76,-58.53 275.22,-60.23 274,-53.33"/>
</g>
<!-- Node19&#45;&gt;Node12 -->
<g id="edge36" class="edge">
<title>Node19&#45;&gt;Node12</title>
<path fill="none" stroke="#63b8ff" d="M415.45,-55.78C463.42,-44.68 524.76,-30.48 564.98,-21.16"/>
<polygon fill="#63b8ff" stroke="#63b8ff" points="414.77,-52.58 405.81,-58.25 416.34,-59.4 414.77,-52.58"/>
</g>
<!-- Node21&#45;&gt;Node3 -->
<g id="edge40" class="edge">
<title>Node21&#45;&gt;Node3</title>
<path fill="none" stroke="#63b8ff" d="M2131.3,-186.53C2105.84,-151.2 2054.16,-87.52 1993.25,-56.75 1955.12,-37.49 1844.44,-24.34 1769.24,-17.34"/>
<polygon fill="#63b8ff" stroke="#63b8ff" points="2128.86,-188.13 2137.49,-194.27 2134.57,-184.09 2128.86,-188.13"/>
</g>
<!-- Node21&#45;&gt;Node5 -->
<g id="edge41" class="edge">
<title>Node21&#45;&gt;Node5</title>
<path fill="none" stroke="#63b8ff" d="M2080.58,-192.39C2044.56,-182.22 2000.75,-169.84 1966.44,-160.15"/>
<polygon fill="#63b8ff" stroke="#63b8ff" points="2079.43,-195.98 2090,-195.33 2081.33,-189.25 2079.43,-195.98"/>
</g>
<!-- Node22&#45;&gt;Node3 -->
<g id="edge43" class="edge">
<title>Node22&#45;&gt;Node3</title>
<path fill="none" stroke="#63b8ff" d="M1620.86,-189.32C1632.4,-181.33 1644.05,-171.36 1652.25,-159.75 1684.12,-114.62 1692.54,-46.04 1694.62,-20.98"/>
<polygon fill="#63b8ff" stroke="#63b8ff" points="1619.15,-186.91 1612.69,-195.31 1622.98,-192.77 1619.15,-186.91"/>
</g>
<!-- Node22&#45;&gt;Node5 -->
<g id="edge44" class="edge">
<title>Node22&#45;&gt;Node5</title>
<path fill="none" stroke="#63b8ff" d="M1659.24,-195.29C1716.28,-183.59 1792.33,-167.99 1845.51,-157.08"/>
<polygon fill="#63b8ff" stroke="#63b8ff" points="1658.91,-191.99 1649.82,-197.43 1660.32,-198.85 1658.91,-191.99"/>
</g>
<!-- Node23&#45;&gt;Node5 -->
<g id="edge46" class="edge">
<title>Node23&#45;&gt;Node5</title>
<path fill="none" stroke="#63b8ff" d="M2009.59,-253.87C2006.7,-235.96 2000.7,-212.74 1988.25,-195.75 1977.2,-180.68 1960.32,-168.77 1945,-160.19"/>
<polygon fill="#63b8ff" stroke="#63b8ff" points="2006.25,-254.33 2011.07,-263.76 2013.19,-253.38 2006.25,-254.33"/>
</g>
<!-- Node24&#45;&gt;Node5 -->
<g id="edge48" class="edge">
<title>Node24&#45;&gt;Node5</title>
<path fill="none" stroke="#63b8ff" d="M2144.3,-260.95C2120.87,-251.94 2093.42,-240.75 2069.25,-229.25 2041.67,-216.13 2036.15,-210.21 2009.25,-195.75 1986.52,-183.53 1960.65,-170.15 1940.91,-160.06"/>
<polygon fill="#63b8ff" stroke="#63b8ff" points="2142.82,-264.51 2153.41,-264.8 2145.31,-257.97 2142.82,-264.51"/>
</g>
<!-- Node25&#45;&gt;Node3 -->
<g id="edge50" class="edge">
<title>Node25&#45;&gt;Node3</title>
<path fill="none" stroke="#63b8ff" d="M1835.87,-185.14C1824.36,-152.14 1801.03,-95.27 1766.25,-56.75 1752.33,-41.33 1732.01,-29.06 1716.67,-21.18"/>
<polygon fill="#63b8ff" stroke="#63b8ff" points="1832.8,-186.01 1839.32,-194.36 1839.44,-183.76 1832.8,-186.01"/>
</g>
<!-- Node25&#45;&gt;Node5 -->
<g id="edge51" class="edge">
<title>Node25&#45;&gt;Node5</title>
<path fill="none" stroke="#63b8ff" d="M1867.12,-187.75C1876.01,-178.52 1885.96,-168.19 1893.96,-159.88"/>
<polygon fill="#63b8ff" stroke="#63b8ff" points="1865.07,-184.87 1860.65,-194.5 1870.11,-189.73 1865.07,-184.87"/>
</g>
<!-- Node26&#45;&gt;Node3 -->
<g id="edge53" class="edge">
<title>Node26&#45;&gt;Node3</title>
<path fill="none" stroke="#63b8ff" d="M1780.01,-254.8C1777,-246.67 1773.83,-237.65 1771.25,-229.25 1748.04,-153.72 1761.66,-128.35 1728.25,-56.75 1721.99,-43.33 1711.53,-29.85 1704.06,-21.11"/>
<polygon fill="#63b8ff" stroke="#63b8ff" points="1776.99,-255.72 1783.81,-263.84 1783.54,-253.25 1776.99,-255.72"/>
</g>
<!-- Node26&#45;&gt;Node5 -->
<g id="edge55" class="edge">
<title>Node26&#45;&gt;Node5</title>
<path fill="none" stroke="#63b8ff" d="M1864.53,-266.97C1885.02,-259.32 1904.98,-247.5 1917.25,-229.25 1931.18,-208.53 1923.38,-178.29 1916.38,-159.95"/>
<polygon fill="#63b8ff" stroke="#63b8ff" points="1863.47,-263.98 1855.13,-270.51 1865.72,-270.6 1863.47,-263.98"/>
</g>
<!-- Node26&#45;&gt;Node7 -->
<g id="edge56" class="edge">
<title>Node26&#45;&gt;Node7</title>
<path fill="none" stroke="#63b8ff" d="M1762.43,-258.38C1736.7,-238.67 1696.62,-210.95 1657.25,-195.75 1576.95,-164.74 1477.76,-152.29 1414.25,-147.3"/>
<polygon fill="#63b8ff" stroke="#63b8ff" points="1759.86,-261.59 1769.9,-264.98 1764.16,-256.07 1759.86,-261.59"/>
</g>
<!-- Node26&#45;&gt;Node25 -->
<g id="edge54" class="edge">
<title>Node26&#45;&gt;Node25</title>
<path fill="none" stroke="#63b8ff" d="M1809.7,-256.69C1816.97,-247.6 1825.04,-237.52 1831.54,-229.38"/>
<polygon fill="#63b8ff" stroke="#63b8ff" points="1806.56,-254.01 1803.05,-264 1812.03,-258.38 1806.56,-254.01"/>
</g>
</g>
</svg>
