<?xml version="1.0" encoding="UTF-8" standalone="no"?>
<!DOCTYPE svg PUBLIC "-//W3C//DTD SVG 1.1//EN"
 "http://www.w3.org/Graphics/SVG/1.1/DTD/svg11.dtd">
<!-- Generated by graphviz version 8.0.5 (20230430.1635)
 -->
<!-- Title: Simple&#45;Utility/tuple.hpp Pages: 1 -->
<svg width="266pt" height="225pt"
 viewBox="0.00 0.00 265.62 224.50" xmlns="http://www.w3.org/2000/svg" xmlns:xlink="http://www.w3.org/1999/xlink">
<g id="graph0" class="graph" transform="scale(1 1) rotate(0) translate(4 220.5)">
<title>Simple&#45;Utility/tuple.hpp</title>
<!-- Node1 -->
<g id="node1" class="node">
<title>Node1</title>
<g id="a_node1"><a xlink:title=" ">
<polygon fill="#999999" stroke="#666666" points="154.62,-216.5 29.88,-216.5 29.88,-195.75 154.62,-195.75 154.62,-216.5"/>
<text text-anchor="middle" x="92.25" y="-203" font-family="Helvetica,sans-Serif" font-size="10.00">Simple&#45;Utility/tuple.hpp</text>
</a>
</g>
</g>
<!-- Node2 -->
<g id="node2" class="node">
<title>Node2</title>
<g id="a_node2"><a xlink:href="../../de/d55/algorithm_8hpp.html" target="_top" xlink:title=" ">
<polygon fill="white" stroke="#666666" points="104.5,-159.75 0,-159.75 0,-126.25 104.5,-126.25 104.5,-159.75"/>
<text text-anchor="start" x="8" y="-146.25" font-family="Helvetica,sans-Serif" font-size="10.00">Simple&#45;Utility/tuple</text>
<text text-anchor="middle" x="52.25" y="-133.5" font-family="Helvetica,sans-Serif" font-size="10.00">/algorithm.hpp</text>
</a>
</g>
</g>
<!-- Node1&#45;&gt;Node2 -->
<g id="edge1" class="edge">
<title>Node1&#45;&gt;Node2</title>
<path fill="none" stroke="#63b8ff" d="M85.82,-195.3C81.23,-188.29 74.84,-178.52 68.86,-169.38"/>
<polygon fill="#63b8ff" stroke="#63b8ff" points="71.28,-167.69 62.87,-161.23 65.42,-171.52 71.28,-167.69"/>
</g>
<!-- Node4 -->
<g id="node4" class="node">
<title>Node4</title>
<g id="a_node4"><a xlink:href="../../d2/d30/general_8hpp.html" target="_top" xlink:title=" ">
<polygon fill="white" stroke="#666666" points="184.5,-90.25 80,-90.25 80,-56.75 184.5,-56.75 184.5,-90.25"/>
<text text-anchor="start" x="88" y="-76.75" font-family="Helvetica,sans-Serif" font-size="10.00">Simple&#45;Utility/tuple</text>
<text text-anchor="middle" x="132.25" y="-64" font-family="Helvetica,sans-Serif" font-size="10.00">/general.hpp</text>
</a>
</g>
</g>
<!-- Node1&#45;&gt;Node4 -->
<g id="edge8" class="edge">
<title>Node1&#45;&gt;Node4</title>
<path fill="none" stroke="#63b8ff" d="M97.55,-195.29C102.24,-186.26 108.96,-172.41 113.25,-159.75 119.73,-140.61 124.61,-118.3 127.8,-101.3"/>
<polygon fill="#63b8ff" stroke="#63b8ff" points="131.42,-101.95 129.74,-91.49 124.53,-100.72 131.42,-101.95"/>
</g>
<!-- Node3 -->
<g id="node3" class="node">
<title>Node3</title>
<g id="a_node3"><a xlink:title=" ">
<polygon fill="#e0e0e0" stroke="#999999" points="61.75,-83.88 0.75,-83.88 0.75,-63.12 61.75,-63.12 61.75,-83.88"/>
<text text-anchor="middle" x="31.25" y="-70.38" font-family="Helvetica,sans-Serif" font-size="10.00">algorithm</text>
</a>
</g>
</g>
<!-- Node2&#45;&gt;Node3 -->
<g id="edge2" class="edge">
<title>Node2&#45;&gt;Node3</title>
<path fill="none" stroke="#63b8ff" d="M47.27,-126C44.35,-116.6 40.62,-104.62 37.5,-94.59"/>
<polygon fill="#63b8ff" stroke="#63b8ff" points="40.62,-93.83 34.31,-85.32 33.93,-95.91 40.62,-93.83"/>
</g>
<!-- Node2&#45;&gt;Node4 -->
<g id="edge3" class="edge">
<title>Node2&#45;&gt;Node4</title>
<path fill="none" stroke="#63b8ff" d="M71.21,-126C81.3,-117.49 93.88,-106.87 105,-97.49"/>
<polygon fill="#63b8ff" stroke="#63b8ff" points="106.76,-99.74 112.15,-90.62 102.25,-94.39 106.76,-99.74"/>
</g>
<!-- Node5 -->
<g id="node5" class="node">
<title>Node5</title>
<g id="a_node5"><a xlink:title=" ">
<polygon fill="#e0e0e0" stroke="#999999" points="59.5,-20.75 3,-20.75 3,0 59.5,0 59.5,-20.75"/>
<text text-anchor="middle" x="31.25" y="-7.25" font-family="Helvetica,sans-Serif" font-size="10.00">concepts</text>
</a>
</g>
</g>
<!-- Node4&#45;&gt;Node5 -->
<g id="edge4" class="edge">
<title>Node4&#45;&gt;Node5</title>
<path fill="none" stroke="#63b8ff" d="M105.45,-56.28C90.3,-47.11 71.47,-35.72 56.57,-26.7"/>
<polygon fill="#63b8ff" stroke="#63b8ff" points="58.79,-23.35 48.43,-21.17 55.17,-29.34 58.79,-23.35"/>
</g>
<!-- Node6 -->
<g id="node6" class="node">
<title>Node6</title>
<g id="a_node6"><a xlink:title=" ">
<polygon fill="#e0e0e0" stroke="#999999" points="116.88,-20.75 77.62,-20.75 77.62,0 116.88,0 116.88,-20.75"/>
<text text-anchor="middle" x="97.25" y="-7.25" font-family="Helvetica,sans-Serif" font-size="10.00">tuple</text>
</a>
</g>
</g>
<!-- Node4&#45;&gt;Node6 -->
<g id="edge5" class="edge">
<title>Node4&#45;&gt;Node6</title>
<path fill="none" stroke="#63b8ff" d="M123.05,-56.44C118.5,-48.49 112.98,-38.84 108.21,-30.52"/>
<polygon fill="#63b8ff" stroke="#63b8ff" points="110.89,-29.16 102.89,-22.22 104.82,-32.63 110.89,-29.16"/>
</g>
<!-- Node7 -->
<g id="node7" class="node">
<title>Node7</title>
<g id="a_node7"><a xlink:title=" ">
<polygon fill="#e0e0e0" stroke="#999999" points="199.25,-20.75 135.25,-20.75 135.25,0 199.25,0 199.25,-20.75"/>
<text text-anchor="middle" x="167.25" y="-7.25" font-family="Helvetica,sans-Serif" font-size="10.00">type_traits</text>
</a>
</g>
</g>
<!-- Node4&#45;&gt;Node7 -->
<g id="edge6" class="edge">
<title>Node4&#45;&gt;Node7</title>
<path fill="none" stroke="#63b8ff" d="M141.45,-56.44C146,-48.49 151.52,-38.84 156.29,-30.52"/>
<polygon fill="#63b8ff" stroke="#63b8ff" points="159.68,-32.63 161.61,-22.22 153.61,-29.16 159.68,-32.63"/>
</g>
<!-- Node8 -->
<g id="node8" class="node">
<title>Node8</title>
<g id="a_node8"><a xlink:title=" ">
<polygon fill="#e0e0e0" stroke="#999999" points="257.62,-20.75 216.88,-20.75 216.88,0 257.62,0 257.62,-20.75"/>
<text text-anchor="middle" x="237.25" y="-7.25" font-family="Helvetica,sans-Serif" font-size="10.00">utility</text>
</a>
</g>
</g>
<!-- Node4&#45;&gt;Node8 -->
<g id="edge7" class="edge">
<title>Node4&#45;&gt;Node8</title>
<path fill="none" stroke="#63b8ff" d="M160.11,-56.28C176.01,-47.02 195.81,-35.5 211.37,-26.44"/>
<polygon fill="#63b8ff" stroke="#63b8ff" points="212.55,-29.22 219.43,-21.17 209.03,-23.17 212.55,-29.22"/>
</g>
</g>
</svg>
