<?xml version="1.0" encoding="UTF-8" standalone="no"?>
<!DOCTYPE svg PUBLIC "-//W3C//DTD SVG 1.1//EN"
 "http://www.w3.org/Graphics/SVG/1.1/DTD/svg11.dtd">
<!-- Generated by graphviz version 7.0.5 (20221223.1930)
 -->
<!-- Title: Simple&#45;Utility/tuple.hpp Pages: 1 -->
<svg width="269pt" height="214pt"
 viewBox="0.00 0.00 269.00 214.00" xmlns="http://www.w3.org/2000/svg" xmlns:xlink="http://www.w3.org/1999/xlink">
<g id="graph0" class="graph" transform="scale(1 1) rotate(0) translate(4 210)">
<title>Simple&#45;Utility/tuple.hpp</title>
<!-- Node1 -->
<g id="node1" class="node">
<title>Node1</title>
<g id="a_node1"><a xlink:title=" ">
<polygon fill="#999999" stroke="#666666" points="155,-206 30,-206 30,-187 155,-187 155,-206"/>
<text text-anchor="middle" x="92.5" y="-194" font-family="Helvetica,sans-Serif" font-size="10.00">Simple&#45;Utility/tuple.hpp</text>
</a>
</g>
</g>
<!-- Node2 -->
<g id="node2" class="node">
<title>Node2</title>
<g id="a_node2"><a xlink:href="../../de/d55/algorithm_8hpp.html" target="_top" xlink:title=" ">
<polygon fill="white" stroke="#666666" points="105,-151 0,-151 0,-121 105,-121 105,-151"/>
<text text-anchor="start" x="8" y="-139" font-family="Helvetica,sans-Serif" font-size="10.00">Simple&#45;Utility/tuple</text>
<text text-anchor="middle" x="52.5" y="-128" font-family="Helvetica,sans-Serif" font-size="10.00">/algorithm.hpp</text>
</a>
</g>
</g>
<!-- Node1&#45;&gt;Node2 -->
<g id="edge1" class="edge">
<title>Node1&#45;&gt;Node2</title>
<path fill="none" stroke="#63b8ff" d="M86.6,-186.87C81.82,-179.89 74.87,-169.71 68.48,-160.38"/>
<polygon fill="#63b8ff" stroke="#63b8ff" points="71.54,-158.64 63.01,-152.36 65.76,-162.59 71.54,-158.64"/>
</g>
<!-- Node4 -->
<g id="node4" class="node">
<title>Node4</title>
<g id="a_node4"><a xlink:href="../../d2/d30/general_8hpp.html" target="_top" xlink:title=" ">
<polygon fill="white" stroke="#666666" points="186,-85 81,-85 81,-55 186,-55 186,-85"/>
<text text-anchor="start" x="89" y="-73" font-family="Helvetica,sans-Serif" font-size="10.00">Simple&#45;Utility/tuple</text>
<text text-anchor="middle" x="133.5" y="-62" font-family="Helvetica,sans-Serif" font-size="10.00">/general.hpp</text>
</a>
</g>
</g>
<!-- Node1&#45;&gt;Node4 -->
<g id="edge8" class="edge">
<title>Node1&#45;&gt;Node4</title>
<path fill="none" stroke="#63b8ff" d="M97.38,-186.52C102.03,-177.68 108.96,-163.71 113.5,-151 119.87,-133.16 125,-112.4 128.46,-96.5"/>
<polygon fill="#63b8ff" stroke="#63b8ff" points="131.85,-97.4 130.48,-86.89 125,-95.96 131.85,-97.4"/>
</g>
<!-- Node3 -->
<g id="node3" class="node">
<title>Node3</title>
<g id="a_node3"><a xlink:title=" ">
<polygon fill="#e0e0e0" stroke="#999999" points="62.5,-79.5 0.5,-79.5 0.5,-60.5 62.5,-60.5 62.5,-79.5"/>
<text text-anchor="middle" x="31.5" y="-67.5" font-family="Helvetica,sans-Serif" font-size="10.00">algorithm</text>
</a>
</g>
</g>
<!-- Node2&#45;&gt;Node3 -->
<g id="edge2" class="edge">
<title>Node2&#45;&gt;Node3</title>
<path fill="none" stroke="#63b8ff" d="M47.84,-120.8C44.92,-111.89 41.11,-100.3 37.91,-90.54"/>
<polygon fill="#63b8ff" stroke="#63b8ff" points="41.32,-89.69 34.87,-81.28 34.67,-91.88 41.32,-89.69"/>
</g>
<!-- Node2&#45;&gt;Node4 -->
<g id="edge3" class="edge">
<title>Node2&#45;&gt;Node4</title>
<path fill="none" stroke="#63b8ff" d="M70.48,-120.8C80.99,-112.49 94.48,-101.83 106.28,-92.5"/>
<polygon fill="#63b8ff" stroke="#63b8ff" points="108.43,-95.27 114.11,-86.32 104.09,-89.78 108.43,-95.27"/>
</g>
<!-- Node5 -->
<g id="node5" class="node">
<title>Node5</title>
<g id="a_node5"><a xlink:title=" ">
<polygon fill="#e0e0e0" stroke="#999999" points="60,-19 3,-19 3,0 60,0 60,-19"/>
<text text-anchor="middle" x="31.5" y="-7" font-family="Helvetica,sans-Serif" font-size="10.00">concepts</text>
</a>
</g>
</g>
<!-- Node4&#45;&gt;Node5 -->
<g id="edge4" class="edge">
<title>Node4&#45;&gt;Node5</title>
<path fill="none" stroke="#63b8ff" d="M108.29,-54.54C92.51,-45.49 72.27,-33.88 56.53,-24.85"/>
<polygon fill="#63b8ff" stroke="#63b8ff" points="58.65,-22.04 48.24,-20.1 55.17,-28.11 58.65,-22.04"/>
</g>
<!-- Node6 -->
<g id="node6" class="node">
<title>Node6</title>
<g id="a_node6"><a xlink:title=" ">
<polygon fill="#e0e0e0" stroke="#999999" points="118.5,-19 78.5,-19 78.5,0 118.5,0 118.5,-19"/>
<text text-anchor="middle" x="98.5" y="-7" font-family="Helvetica,sans-Serif" font-size="10.00">tuple</text>
</a>
</g>
</g>
<!-- Node4&#45;&gt;Node6 -->
<g id="edge5" class="edge">
<title>Node4&#45;&gt;Node6</title>
<path fill="none" stroke="#63b8ff" d="M124.85,-54.54C120.23,-46.82 114.5,-37.24 109.56,-28.99"/>
<polygon fill="#63b8ff" stroke="#63b8ff" points="112.61,-27.26 104.47,-20.47 106.6,-30.85 112.61,-27.26"/>
</g>
<!-- Node7 -->
<g id="node7" class="node">
<title>Node7</title>
<g id="a_node7"><a xlink:title=" ">
<polygon fill="#e0e0e0" stroke="#999999" points="202,-19 137,-19 137,0 202,0 202,-19"/>
<text text-anchor="middle" x="169.5" y="-7" font-family="Helvetica,sans-Serif" font-size="10.00">type_traits</text>
</a>
</g>
</g>
<!-- Node4&#45;&gt;Node7 -->
<g id="edge6" class="edge">
<title>Node4&#45;&gt;Node7</title>
<path fill="none" stroke="#63b8ff" d="M142.4,-54.54C147.2,-46.74 153.18,-37.03 158.29,-28.71"/>
<polygon fill="#63b8ff" stroke="#63b8ff" points="161.11,-30.82 163.37,-20.46 155.15,-27.15 161.11,-30.82"/>
</g>
<!-- Node8 -->
<g id="node8" class="node">
<title>Node8</title>
<g id="a_node8"><a xlink:title=" ">
<polygon fill="#e0e0e0" stroke="#999999" points="261,-19 220,-19 220,0 261,0 261,-19"/>
<text text-anchor="middle" x="240.5" y="-7" font-family="Helvetica,sans-Serif" font-size="10.00">utility</text>
</a>
</g>
</g>
<!-- Node4&#45;&gt;Node8 -->
<g id="edge7" class="edge">
<title>Node4&#45;&gt;Node8</title>
<path fill="none" stroke="#63b8ff" d="M159.95,-54.54C176.5,-45.49 197.74,-33.88 214.25,-24.85"/>
<polygon fill="#63b8ff" stroke="#63b8ff" points="215.9,-27.94 222.99,-20.07 212.54,-21.8 215.9,-27.94"/>
</g>
</g>
</svg>
