<?xml version="1.0" encoding="UTF-8" standalone="no"?>
<!DOCTYPE svg PUBLIC "-//W3C//DTD SVG 1.1//EN"
 "http://www.w3.org/Graphics/SVG/1.1/DTD/svg11.dtd">
<!-- Generated by graphviz version 8.0.5 (20230430.1635)
 -->
<!-- Title: sl::functional::BasicClosure&lt; Fn, InvokePolicy, OperatorPolicies &gt; Pages: 1 -->
<svg width="429pt" height="94pt"
 viewBox="0.00 0.00 428.50 93.50" xmlns="http://www.w3.org/2000/svg" xmlns:xlink="http://www.w3.org/1999/xlink">
<g id="graph0" class="graph" transform="scale(1 1) rotate(0) translate(4 89.5)">
<title>sl::functional::BasicClosure&lt; Fn, InvokePolicy, OperatorPolicies &gt;</title>
<!-- Node1 -->
<g id="node1" class="node">
<title>Node1</title>
<g id="a_node1"><a xlink:title="The core class, wrapping one functional object and enabling a variety of composing operators for it.">
<polygon fill="#999999" stroke="#666666" points="420.5,-59.5 235.75,-59.5 235.75,-26 420.5,-26 420.5,-59.5"/>
<text text-anchor="start" x="243.75" y="-46" font-family="Helvetica,sans-Serif" font-size="10.00">sl::functional::BasicClosure</text>
<text text-anchor="middle" x="328.12" y="-33.25" font-family="Helvetica,sans-Serif" font-size="10.00">&lt; Fn, InvokePolicy, OperatorPolicies &gt;</text>
</a>
</g>
</g>
<!-- Node2 -->
<g id="node2" class="node">
<title>Node2</title>
<g id="a_node2"><a xlink:title=" ">
<polygon fill="white" stroke="#666666" points="199.75,-85.5 0,-85.5 0,-52 199.75,-52 199.75,-85.5"/>
<text text-anchor="start" x="8" y="-72" font-family="Helvetica,sans-Serif" font-size="10.00">InvokePolicy&lt; BasicClosure</text>
<text text-anchor="middle" x="99.88" y="-59.25" font-family="Helvetica,sans-Serif" font-size="10.00">&lt; Fn, InvokePolicy, OperatorPolicies... &gt; &gt;</text>
</a>
</g>
</g>
<!-- Node2&#45;&gt;Node1 -->
<g id="edge1" class="edge">
<title>Node2&#45;&gt;Node1</title>
<path fill="none" stroke="#63b8ff" d="M210.9,-56.11C219.12,-55.16 227.37,-54.21 235.47,-53.28"/>
<polygon fill="#63b8ff" stroke="#63b8ff" points="210.65,-52.73 201.11,-57.35 211.45,-59.68 210.65,-52.73"/>
</g>
<!-- Node3 -->
<g id="node3" class="node">
<title>Node3</title>
<g id="a_node3"><a xlink:title=" ">
<polygon fill="white" stroke="#666666" points="199.75,-33.5 0,-33.5 0,0 199.75,0 199.75,-33.5"/>
<text text-anchor="start" x="8" y="-20" font-family="Helvetica,sans-Serif" font-size="10.00">OperatorPolicies&lt; BasicClosure</text>
<text text-anchor="middle" x="99.88" y="-7.25" font-family="Helvetica,sans-Serif" font-size="10.00">&lt; Fn, InvokePolicy, OperatorPolicies... &gt; &gt;</text>
</a>
</g>
</g>
<!-- Node3&#45;&gt;Node1 -->
<g id="edge2" class="edge">
<title>Node3&#45;&gt;Node1</title>
<path fill="none" stroke="#63b8ff" d="M210.9,-29.39C219.12,-30.34 227.37,-31.29 235.47,-32.22"/>
<polygon fill="#63b8ff" stroke="#63b8ff" points="211.45,-25.82 201.11,-28.15 210.65,-32.77 211.45,-25.82"/>
</g>
</g>
</svg>
