<?xml version="1.0" encoding="UTF-8" standalone="no"?>
<!DOCTYPE svg PUBLIC "-//W3C//DTD SVG 1.1//EN"
 "http://www.w3.org/Graphics/SVG/1.1/DTD/svg11.dtd">
<!-- Generated by graphviz version 8.0.5 (20230430.1635)
 -->
<!-- Title: Simple&#45;Utility/tuple/Algorithm.hpp Pages: 1 -->
<svg width="473pt" height="225pt"
 viewBox="0.00 0.00 473.38 224.50" xmlns="http://www.w3.org/2000/svg" xmlns:xlink="http://www.w3.org/1999/xlink">
<g id="graph0" class="graph" transform="scale(1 1) rotate(0) translate(4 220.5)">
<title>Simple&#45;Utility/tuple/Algorithm.hpp</title>
<!-- Node1 -->
<g id="node1" class="node">
<title>Node1</title>
<g id="a_node1"><a xlink:title=" ">
<polygon fill="#999999" stroke="#666666" points="383.75,-216.5 279.25,-216.5 279.25,-183 383.75,-183 383.75,-216.5"/>
<text text-anchor="start" x="287.25" y="-203" font-family="Helvetica,sans-Serif" font-size="10.00">Simple&#45;Utility/tuple</text>
<text text-anchor="middle" x="331.5" y="-190.25" font-family="Helvetica,sans-Serif" font-size="10.00">/Algorithm.hpp</text>
</a>
</g>
</g>
<!-- Node2 -->
<g id="node2" class="node">
<title>Node2</title>
<g id="a_node2"><a xlink:title=" ">
<polygon fill="#e0e0e0" stroke="#999999" points="61,-20.75 0,-20.75 0,0 61,0 61,-20.75"/>
<text text-anchor="middle" x="30.5" y="-7.25" font-family="Helvetica,sans-Serif" font-size="10.00">algorithm</text>
</a>
</g>
</g>
<!-- Node1&#45;&gt;Node2 -->
<g id="edge1" class="edge">
<title>Node1&#45;&gt;Node2</title>
<path fill="none" stroke="#63b8ff" d="M279.02,-185.76C249.71,-177.22 213.23,-164.38 183.5,-147 143.13,-123.4 139.49,-108.52 104.5,-77.5 85.64,-60.78 64.17,-41.58 49.23,-28.19"/>
<polygon fill="#63b8ff" stroke="#63b8ff" points="52.04,-26.11 42.26,-22.04 47.37,-31.32 52.04,-26.11"/>
</g>
<!-- Node3 -->
<g id="node3" class="node">
<title>Node3</title>
<g id="a_node3"><a xlink:title=" ">
<polygon fill="#e0e0e0" stroke="#999999" points="465.38,-140.62 403.62,-140.62 403.62,-119.88 465.38,-119.88 465.38,-140.62"/>
<text text-anchor="middle" x="434.5" y="-127.12" font-family="Helvetica,sans-Serif" font-size="10.00">functional</text>
</a>
</g>
</g>
<!-- Node1&#45;&gt;Node3 -->
<g id="edge2" class="edge">
<title>Node1&#45;&gt;Node3</title>
<path fill="none" stroke="#63b8ff" d="M356.17,-182.58C372.69,-171.76 394.31,-157.59 410.66,-146.88"/>
<polygon fill="#63b8ff" stroke="#63b8ff" points="412.14,-149.43 418.59,-141.02 408.31,-143.58 412.14,-149.43"/>
</g>
<!-- Node4 -->
<g id="node4" class="node">
<title>Node4</title>
<g id="a_node4"><a xlink:title=" ">
<polygon fill="#e0e0e0" stroke="#999999" points="369.5,-20.75 305.5,-20.75 305.5,0 369.5,0 369.5,-20.75"/>
<text text-anchor="middle" x="337.5" y="-7.25" font-family="Helvetica,sans-Serif" font-size="10.00">type_traits</text>
</a>
</g>
</g>
<!-- Node1&#45;&gt;Node4 -->
<g id="edge3" class="edge">
<title>Node1&#45;&gt;Node4</title>
<path fill="none" stroke="#63b8ff" d="M332.01,-182.77C333.1,-148.75 335.65,-69.21 336.85,-31.67"/>
<polygon fill="#63b8ff" stroke="#63b8ff" points="340.37,-32.17 337.19,-22.07 333.37,-31.95 340.37,-32.17"/>
</g>
<!-- Node5 -->
<g id="node5" class="node">
<title>Node5</title>
<g id="a_node5"><a xlink:href="../../dd/d5a/_general_8hpp.html" target="_top" xlink:title=" ">
<polygon fill="white" stroke="#666666" points="296.75,-147 192.25,-147 192.25,-113.5 296.75,-113.5 296.75,-147"/>
<text text-anchor="start" x="200.25" y="-133.5" font-family="Helvetica,sans-Serif" font-size="10.00">Simple&#45;Utility/tuple</text>
<text text-anchor="middle" x="244.5" y="-120.75" font-family="Helvetica,sans-Serif" font-size="10.00">/General.hpp</text>
</a>
</g>
</g>
<!-- Node1&#45;&gt;Node5 -->
<g id="edge4" class="edge">
<title>Node1&#45;&gt;Node5</title>
<path fill="none" stroke="#63b8ff" d="M310.88,-182.75C299.8,-174.16 285.96,-163.41 273.78,-153.97"/>
<polygon fill="#63b8ff" stroke="#63b8ff" points="276.32,-150.73 266.27,-147.37 272.03,-156.26 276.32,-150.73"/>
</g>
<!-- Node5&#45;&gt;Node4 -->
<g id="edge7" class="edge">
<title>Node5&#45;&gt;Node4</title>
<path fill="none" stroke="#63b8ff" d="M261.56,-113.22C271.65,-103.35 284.38,-90.21 294.5,-77.5 306.46,-62.47 318.22,-44.07 326.41,-30.49"/>
<polygon fill="#63b8ff" stroke="#63b8ff" points="329.84,-32.58 331.92,-22.19 323.82,-29.01 329.84,-32.58"/>
</g>
<!-- Node6 -->
<g id="node6" class="node">
<title>Node6</title>
<g id="a_node6"><a xlink:title=" ">
<polygon fill="#e0e0e0" stroke="#999999" points="285.75,-20.75 229.25,-20.75 229.25,0 285.75,0 285.75,-20.75"/>
<text text-anchor="middle" x="257.5" y="-7.25" font-family="Helvetica,sans-Serif" font-size="10.00">concepts</text>
</a>
</g>
</g>
<!-- Node5&#45;&gt;Node6 -->
<g id="edge5" class="edge">
<title>Node5&#45;&gt;Node6</title>
<path fill="none" stroke="#63b8ff" d="M259.36,-113.4C267.31,-103.8 276.31,-90.87 280.5,-77.5 285.54,-61.42 278.38,-43.36 270.75,-30.18"/>
<polygon fill="#63b8ff" stroke="#63b8ff" points="273.34,-28.73 265.02,-22.17 267.43,-32.49 273.34,-28.73"/>
</g>
<!-- Node7 -->
<g id="node7" class="node">
<title>Node7</title>
<g id="a_node7"><a xlink:title=" ">
<polygon fill="#e0e0e0" stroke="#999999" points="137.12,-20.75 97.88,-20.75 97.88,0 137.12,0 137.12,-20.75"/>
<text text-anchor="middle" x="117.5" y="-7.25" font-family="Helvetica,sans-Serif" font-size="10.00">tuple</text>
</a>
</g>
</g>
<!-- Node5&#45;&gt;Node7 -->
<g id="edge6" class="edge">
<title>Node5&#45;&gt;Node7</title>
<path fill="none" stroke="#63b8ff" d="M191.99,-122.33C164.3,-115.72 132.6,-102.79 115.5,-77.5 106.45,-64.12 107.95,-45.49 111.13,-31.41"/>
<polygon fill="#63b8ff" stroke="#63b8ff" points="114.75,-32.44 114.01,-21.87 108,-30.59 114.75,-32.44"/>
</g>
<!-- Node8 -->
<g id="node8" class="node">
<title>Node8</title>
<g id="a_node8"><a xlink:title=" ">
<polygon fill="#e0e0e0" stroke="#999999" points="205.88,-20.75 165.12,-20.75 165.12,0 205.88,0 205.88,-20.75"/>
<text text-anchor="middle" x="185.5" y="-7.25" font-family="Helvetica,sans-Serif" font-size="10.00">utility</text>
</a>
</g>
</g>
<!-- Node5&#45;&gt;Node8 -->
<g id="edge8" class="edge">
<title>Node5&#45;&gt;Node8</title>
<path fill="none" stroke="#63b8ff" d="M192.06,-120.59C166.82,-113.5 138.79,-100.67 123.5,-77.5 110.59,-57.94 133.69,-38.75 155.27,-26.13"/>
<polygon fill="#63b8ff" stroke="#63b8ff" points="156.56,-28.86 163.63,-20.98 153.18,-22.73 156.56,-28.86"/>
</g>
<!-- Node9 -->
<g id="node9" class="node">
<title>Node9</title>
<g id="a_node9"><a xlink:href="../../df/d2e/_type_list_8hpp.html" target="_top" xlink:title=" ">
<polygon fill="white" stroke="#666666" points="271,-77.5 132,-77.5 132,-56.75 271,-56.75 271,-77.5"/>
<text text-anchor="middle" x="201.5" y="-64" font-family="Helvetica,sans-Serif" font-size="10.00">Simple&#45;Utility/TypeList.hpp</text>
</a>
</g>
</g>
<!-- Node5&#45;&gt;Node9 -->
<g id="edge9" class="edge">
<title>Node5&#45;&gt;Node9</title>
<path fill="none" stroke="#63b8ff" d="M233.2,-113.19C227.49,-105.07 220.53,-95.17 214.58,-86.72"/>
<polygon fill="#63b8ff" stroke="#63b8ff" points="217.04,-85.13 208.42,-78.97 211.31,-89.16 217.04,-85.13"/>
</g>
<!-- Node9&#45;&gt;Node2 -->
<g id="edge10" class="edge">
<title>Node9&#45;&gt;Node2</title>
<path fill="none" stroke="#63b8ff" d="M170.93,-56.34C143.17,-47.45 102.02,-34.27 71.43,-24.48"/>
<polygon fill="#63b8ff" stroke="#63b8ff" points="72.69,-20.89 62.09,-21.17 70.55,-27.55 72.69,-20.89"/>
</g>
<!-- Node9&#45;&gt;Node4 -->
<g id="edge13" class="edge">
<title>Node9&#45;&gt;Node4</title>
<path fill="none" stroke="#63b8ff" d="M225.81,-56.34C247.38,-47.66 279.11,-34.88 303.24,-25.17"/>
<polygon fill="#63b8ff" stroke="#63b8ff" points="304.43,-28.06 312.4,-21.08 301.81,-21.57 304.43,-28.06"/>
</g>
<!-- Node9&#45;&gt;Node6 -->
<g id="edge11" class="edge">
<title>Node9&#45;&gt;Node6</title>
<path fill="none" stroke="#63b8ff" d="M211.51,-56.34C219.4,-48.63 230.58,-37.7 239.94,-28.54"/>
<polygon fill="#63b8ff" stroke="#63b8ff" points="241.87,-31.57 246.57,-22.08 236.98,-26.57 241.87,-31.57"/>
</g>
<!-- Node9&#45;&gt;Node7 -->
<g id="edge12" class="edge">
<title>Node9&#45;&gt;Node7</title>
<path fill="none" stroke="#63b8ff" d="M186.48,-56.34C173.94,-48.16 155.83,-36.36 141.31,-26.9"/>
<polygon fill="#63b8ff" stroke="#63b8ff" points="143.68,-23.61 133.39,-21.08 139.85,-29.47 143.68,-23.61"/>
</g>
<!-- Node9&#45;&gt;Node8 -->
<g id="edge14" class="edge">
<title>Node9&#45;&gt;Node8</title>
<path fill="none" stroke="#63b8ff" d="M198.64,-56.34C196.61,-49.41 193.83,-39.87 191.34,-31.36"/>
<polygon fill="#63b8ff" stroke="#63b8ff" points="194.5,-30.7 188.34,-22.08 187.78,-32.66 194.5,-30.7"/>
</g>
</g>
</svg>
