<?xml version="1.0" encoding="UTF-8" standalone="no"?>
<!DOCTYPE svg PUBLIC "-//W3C//DTD SVG 1.1//EN"
 "http://www.w3.org/Graphics/SVG/1.1/DTD/svg11.dtd">
<!-- Generated by graphviz version 8.0.5 (20230430.1635)
 -->
<!-- Title: algorithm Pages: 1 -->
<svg width="289pt" height="146pt"
 viewBox="0.00 0.00 289.25 145.75" xmlns="http://www.w3.org/2000/svg" xmlns:xlink="http://www.w3.org/1999/xlink">
<g id="graph0" class="graph" transform="scale(1 1) rotate(0) translate(4 141.75)">
<title>algorithm</title>
<!-- Node2 -->
<g id="node1" class="node">
<title>Node2</title>
<g id="a_node1"><a xlink:href="../../d9/d21/group___g_r_o_u_p___t_u_p_l_e.html" target="_top" xlink:title=" ">
<polygon fill="white" stroke="#666666" points="39.25,-78.75 0,-78.75 0,-58 39.25,-58 39.25,-78.75"/>
<text text-anchor="middle" x="19.62" y="-65.25" font-family="Helvetica,sans-Serif" font-size="10.00">tuple</text>
</a>
</g>
</g>
<!-- Node1 -->
<g id="node2" class="node">
<title>Node1</title>
<g id="a_node2"><a xlink:title=" ">
<polygon fill="#999999" stroke="#666666" points="136.25,-78.75 75.25,-78.75 75.25,-58 136.25,-58 136.25,-78.75"/>
<text text-anchor="middle" x="105.75" y="-65.25" font-family="Helvetica,sans-Serif" font-size="10.00">algorithm</text>
</a>
</g>
</g>
<!-- Node2&#45;&gt;Node1 -->
<g id="edge1" class="edge">
<title>Node2&#45;&gt;Node1</title>
<path fill="none" stroke="black" d="M50.65,-68.38C58.51,-68.38 66.99,-68.38 74.84,-68.38"/>
<polygon fill="black" stroke="black" points="50.71,-64.88 40.71,-68.38 50.71,-71.88 50.71,-64.88"/>
</g>
<!-- Node3 -->
<g id="node3" class="node">
<title>Node3</title>
<g id="a_node3"><a xlink:href="../../d8/de3/group___g_r_o_u_p___t_u_p_l_e___a_l_g_o_r_i_t_h_m___c_a_r_t_e_s_i_a_n___p_r_o_d_u_c_t.html" target="_top" xlink:title=" ">
<polygon fill="white" stroke="#666666" points="273.75,-137.75 179.75,-137.75 179.75,-117 273.75,-117 273.75,-137.75"/>
<text text-anchor="middle" x="226.75" y="-124.25" font-family="Helvetica,sans-Serif" font-size="10.00">cartesian product</text>
</a>
</g>
</g>
<!-- Node1&#45;&gt;Node3 -->
<g id="edge2" class="edge">
<title>Node1&#45;&gt;Node3</title>
<path fill="none" stroke="black" d="M132.28,-85.02C144.15,-92.39 158.64,-100.84 172.25,-107.38 179.13,-110.68 186.72,-113.8 193.96,-116.56"/>
<polygon fill="black" stroke="black" points="134.31,-81.54 123.99,-79.16 130.57,-87.46 134.31,-81.54"/>
</g>
<!-- Node4 -->
<g id="node4" class="node">
<title>Node4</title>
<g id="a_node4"><a xlink:href="../../d8/d4d/group___g_r_o_u_p___t_u_p_l_e___a_l_g_o_r_i_t_h_m___e_n_v_e_l_o_p___e_l_e_m_e_n_t_s.html" target="_top" xlink:title=" ">
<polygon fill="white" stroke="#666666" points="274.88,-98.75 178.62,-98.75 178.62,-78 274.88,-78 274.88,-98.75"/>
<text text-anchor="middle" x="226.75" y="-85.25" font-family="Helvetica,sans-Serif" font-size="10.00">envelop elements</text>
</a>
</g>
</g>
<!-- Node1&#45;&gt;Node4 -->
<g id="edge3" class="edge">
<title>Node1&#45;&gt;Node4</title>
<path fill="none" stroke="black" d="M147.02,-75.14C157.09,-76.84 167.99,-78.67 178.37,-80.41"/>
<polygon fill="black" stroke="black" points="147.91,-71.58 137.47,-73.37 146.75,-78.48 147.91,-71.58"/>
</g>
<!-- Node5 -->
<g id="node5" class="node">
<title>Node5</title>
<g id="a_node5"><a xlink:href="../../d3/df4/group___g_r_o_u_p___t_u_p_l_e___a_l_g_o_r_i_t_h_m___t_r_a_n_s_f_o_r_m___e_l_e_m_e_n_t_s.html" target="_top" xlink:title=" ">
<polygon fill="white" stroke="#666666" points="281.25,-59.75 172.25,-59.75 172.25,-39 281.25,-39 281.25,-59.75"/>
<text text-anchor="middle" x="226.75" y="-46.25" font-family="Helvetica,sans-Serif" font-size="10.00">transform_elements</text>
</a>
</g>
</g>
<!-- Node1&#45;&gt;Node5 -->
<g id="edge4" class="edge">
<title>Node1&#45;&gt;Node5</title>
<path fill="none" stroke="black" d="M147.26,-61.91C155.18,-60.64 163.59,-59.3 171.86,-57.98"/>
<polygon fill="black" stroke="black" points="146.79,-58.6 137.47,-63.63 147.9,-65.51 146.79,-58.6"/>
</g>
<!-- Node6 -->
<g id="node6" class="node">
<title>Node6</title>
<g id="a_node6"><a xlink:href="../../de/dc4/group___g_r_o_u_p___t_u_p_l_e___a_l_g_o_r_i_t_h_m___z_i_p.html" target="_top" xlink:title=" ">
<polygon fill="white" stroke="#666666" points="241.15,-20.75 212.35,-20.75 212.35,0 241.15,0 241.15,-20.75"/>
<text text-anchor="middle" x="226.75" y="-7.25" font-family="Helvetica,sans-Serif" font-size="10.00">zip</text>
</a>
</g>
</g>
<!-- Node1&#45;&gt;Node6 -->
<g id="edge5" class="edge">
<title>Node1&#45;&gt;Node6</title>
<path fill="none" stroke="black" d="M132.82,-51.9C144.61,-44.8 158.88,-36.7 172.25,-30.38 185.34,-24.19 200.9,-18.55 211.85,-14.85"/>
<polygon fill="black" stroke="black" points="131.26,-49.36 124.56,-57.57 134.92,-55.33 131.26,-49.36"/>
</g>
</g>
</svg>
