<?xml version="1.0" encoding="UTF-8" standalone="no"?>
<!DOCTYPE svg PUBLIC "-//W3C//DTD SVG 1.1//EN"
 "http://www.w3.org/Graphics/SVG/1.1/DTD/svg11.dtd">
<!-- Generated by graphviz version 2.43.0 (0)
 -->
<!-- Title: algorithm Pages: 1 -->
<svg width="289pt" height="101pt"
 viewBox="0.00 0.00 289.00 101.00" xmlns="http://www.w3.org/2000/svg" xmlns:xlink="http://www.w3.org/1999/xlink">
<g id="graph0" class="graph" transform="scale(1 1) rotate(0) translate(4 97)">
<title>algorithm</title>
<polygon fill="white" stroke="transparent" points="-4,4 -4,-97 285,-97 285,4 -4,4"/>
<!-- Node2 -->
<g id="node1" class="node">
<title>Node2</title>
<g id="a_node1"><a xlink:href="../../d9/d21/group___g_r_o_u_p___t_u_p_l_e.html" target="_top" xlink:title=" ">
<polygon fill="white" stroke="black" points="41,-56 0,-56 0,-37 41,-37 41,-56"/>
<text text-anchor="middle" x="20.5" y="-44" font-family="Helvetica,sans-Serif" font-size="10.00">tuple</text>
</a>
</g>
</g>
<!-- Node1 -->
<g id="node4" class="node">
<title>Node1</title>
<g id="a_node4"><a xlink:title=" ">
<polygon fill="#bfbfbf" stroke="black" points="141,-56 77,-56 77,-37 141,-37 141,-56"/>
<text text-anchor="middle" x="109" y="-44" font-family="Helvetica,sans-Serif" font-size="10.00">algorithm</text>
</a>
</g>
</g>
<!-- Node2&#45;&gt;Node1 -->
<g id="edge1" class="edge">
<title>Node2&#45;&gt;Node1</title>
<path fill="none" stroke="black" d="M51.15,-46.5C59.46,-46.5 68.52,-46.5 76.91,-46.5"/>
<polygon fill="black" stroke="black" points="51.13,-43 41.13,-46.5 51.13,-50 51.13,-43"/>
</g>
<!-- Node4 -->
<g id="node2" class="node">
<title>Node4</title>
<g id="a_node2"><a xlink:href="../../d8/d4d/group___g_r_o_u_p___t_u_p_l_e___a_l_g_o_r_i_t_h_m___e_n_v_e_l_o_p___e_l_e_m_e_n_t_s.html" target="_top" xlink:title=" ">
<polygon fill="white" stroke="black" points="281,-93 177,-93 177,-74 281,-74 281,-93"/>
<text text-anchor="middle" x="229" y="-81" font-family="Helvetica,sans-Serif" font-size="10.00">envelop elements</text>
</a>
</g>
</g>
<!-- Node3 -->
<g id="node3" class="node">
<title>Node3</title>
<g id="a_node3"><a xlink:href="../../d8/de3/group___g_r_o_u_p___t_u_p_l_e___a_l_g_o_r_i_t_h_m___c_a_r_t_e_s_i_a_n___p_r_o_d_u_c_t.html" target="_top" xlink:title=" ">
<polygon fill="white" stroke="black" points="279.5,-56 178.5,-56 178.5,-37 279.5,-37 279.5,-56"/>
<text text-anchor="middle" x="229" y="-44" font-family="Helvetica,sans-Serif" font-size="10.00">cartesian product</text>
</a>
</g>
</g>
<!-- Node1&#45;&gt;Node4 -->
<g id="edge3" class="edge">
<title>Node1&#45;&gt;Node4</title>
<path fill="none" stroke="black" d="M150.19,-59.1C165.6,-63.93 182.92,-69.37 197.3,-73.88"/>
<polygon fill="black" stroke="black" points="150.98,-55.68 140.39,-56.03 148.88,-62.36 150.98,-55.68"/>
</g>
<!-- Node1&#45;&gt;Node3 -->
<g id="edge2" class="edge">
<title>Node1&#45;&gt;Node3</title>
<path fill="none" stroke="black" d="M151.06,-46.5C159.91,-46.5 169.36,-46.5 178.49,-46.5"/>
<polygon fill="black" stroke="black" points="151,-43 141,-46.5 151,-50 151,-43"/>
</g>
<!-- Node5 -->
<g id="node5" class="node">
<title>Node5</title>
<g id="a_node5"><a xlink:href="../../de/dc4/group___g_r_o_u_p___t_u_p_l_e___a_l_g_o_r_i_t_h_m___z_i_p.html" target="_top" xlink:title=" ">
<polygon fill="white" stroke="black" points="244.5,-19 213.5,-19 213.5,0 244.5,0 244.5,-19"/>
<text text-anchor="middle" x="229" y="-7" font-family="Helvetica,sans-Serif" font-size="10.00">zip</text>
</a>
</g>
</g>
<!-- Node1&#45;&gt;Node5 -->
<g id="edge4" class="edge">
<title>Node1&#45;&gt;Node5</title>
<path fill="none" stroke="black" d="M150.12,-33.92C172,-27.06 197.76,-18.98 213.48,-14.05"/>
<polygon fill="black" stroke="black" points="148.88,-30.64 140.39,-36.97 150.98,-37.32 148.88,-30.64"/>
</g>
</g>
</svg>
