<?xml version="1.0" encoding="UTF-8" standalone="no"?>
<!DOCTYPE svg PUBLIC "-//W3C//DTD SVG 1.1//EN"
 "http://www.w3.org/Graphics/SVG/1.1/DTD/svg11.dtd">
<!-- Generated by graphviz version 7.0.5 (20221223.1930)
 -->
<!-- Title: algorithm Pages: 1 -->
<svg width="279pt" height="101pt"
 viewBox="0.00 0.00 279.00 101.00" xmlns="http://www.w3.org/2000/svg" xmlns:xlink="http://www.w3.org/1999/xlink">
<g id="graph0" class="graph" transform="scale(1 1) rotate(0) translate(4 97)">
<title>algorithm</title>
<!-- Node2 -->
<g id="node1" class="node">
<title>Node2</title>
<g id="a_node1"><a xlink:href="../../d9/d21/group___g_r_o_u_p___t_u_p_l_e.html" target="_top" xlink:title=" ">
<polygon fill="white" stroke="#666666" points="40,-56 0,-56 0,-37 40,-37 40,-56"/>
<text text-anchor="middle" x="20" y="-44" font-family="Helvetica,sans-Serif" font-size="10.00">tuple</text>
</a>
</g>
</g>
<!-- Node1 -->
<g id="node2" class="node">
<title>Node1</title>
<g id="a_node2"><a xlink:title=" ">
<polygon fill="#999999" stroke="#666666" points="138,-56 76,-56 76,-37 138,-37 138,-56"/>
<text text-anchor="middle" x="107" y="-44" font-family="Helvetica,sans-Serif" font-size="10.00">algorithm</text>
</a>
</g>
</g>
<!-- Node2&#45;&gt;Node1 -->
<g id="edge1" class="edge">
<title>Node2&#45;&gt;Node1</title>
<path fill="none" stroke="black" d="M51.62,-46.5C59.48,-46.5 67.94,-46.5 75.78,-46.5"/>
<polygon fill="black" stroke="black" points="51.8,-43 41.8,-46.5 51.8,-50 51.8,-43"/>
</g>
<!-- Node3 -->
<g id="node3" class="node">
<title>Node3</title>
<g id="a_node3"><a xlink:href="../../d8/de3/group___g_r_o_u_p___t_u_p_l_e___a_l_g_o_r_i_t_h_m___c_a_r_t_e_s_i_a_n___p_r_o_d_u_c_t.html" target="_top" xlink:title=" ">
<polygon fill="white" stroke="#666666" points="270,-93 175,-93 175,-74 270,-74 270,-93"/>
<text text-anchor="middle" x="222.5" y="-81" font-family="Helvetica,sans-Serif" font-size="10.00">cartesian product</text>
</a>
</g>
</g>
<!-- Node1&#45;&gt;Node3 -->
<g id="edge2" class="edge">
<title>Node1&#45;&gt;Node3</title>
<path fill="none" stroke="black" d="M149.15,-59.91C162.97,-64.42 178.14,-69.37 191,-73.56"/>
<polygon fill="black" stroke="black" points="150.45,-56.66 139.85,-56.88 148.28,-63.31 150.45,-56.66"/>
</g>
<!-- Node4 -->
<g id="node4" class="node">
<title>Node4</title>
<g id="a_node4"><a xlink:href="../../d8/d4d/group___g_r_o_u_p___t_u_p_l_e___a_l_g_o_r_i_t_h_m___e_n_v_e_l_o_p___e_l_e_m_e_n_t_s.html" target="_top" xlink:title=" ">
<polygon fill="white" stroke="#666666" points="271,-56 174,-56 174,-37 271,-37 271,-56"/>
<text text-anchor="middle" x="222.5" y="-44" font-family="Helvetica,sans-Serif" font-size="10.00">envelop elements</text>
</a>
</g>
</g>
<!-- Node1&#45;&gt;Node4 -->
<g id="edge3" class="edge">
<title>Node1&#45;&gt;Node4</title>
<path fill="none" stroke="black" d="M149.88,-46.5C157.7,-46.5 165.91,-46.5 173.89,-46.5"/>
<polygon fill="black" stroke="black" points="149.93,-43 139.93,-46.5 149.93,-50 149.93,-43"/>
</g>
<!-- Node5 -->
<g id="node5" class="node">
<title>Node5</title>
<g id="a_node5"><a xlink:href="../../de/dc4/group___g_r_o_u_p___t_u_p_l_e___a_l_g_o_r_i_t_h_m___z_i_p.html" target="_top" xlink:title=" ">
<polygon fill="white" stroke="#666666" points="237,-19 208,-19 208,0 237,0 237,-19"/>
<text text-anchor="middle" x="222.5" y="-7" font-family="Helvetica,sans-Serif" font-size="10.00">zip</text>
</a>
</g>
</g>
<!-- Node1&#45;&gt;Node5 -->
<g id="edge4" class="edge">
<title>Node1&#45;&gt;Node5</title>
<path fill="none" stroke="black" d="M149.1,-33.1C169.58,-26.42 193.01,-18.79 207.53,-14.05"/>
<polygon fill="black" stroke="black" points="148.28,-29.69 139.85,-36.12 150.45,-36.34 148.28,-29.69"/>
</g>
</g>
</svg>
