<?xml version="1.0" encoding="UTF-8" standalone="no"?>
<!DOCTYPE svg PUBLIC "-//W3C//DTD SVG 1.1//EN"
 "http://www.w3.org/Graphics/SVG/1.1/DTD/svg11.dtd">
<!-- Generated by graphviz version 8.0.5 (20230430.1635)
 -->
<!-- Title: algorithm Pages: 1 -->
<svg width="277pt" height="107pt"
 viewBox="0.00 0.00 276.50 106.75" xmlns="http://www.w3.org/2000/svg" xmlns:xlink="http://www.w3.org/1999/xlink">
<g id="graph0" class="graph" transform="scale(1 1) rotate(0) translate(4 102.75)">
<title>algorithm</title>
<!-- Node2 -->
<g id="node1" class="node">
<title>Node2</title>
<g id="a_node1"><a xlink:href="../../d9/d21/group___g_r_o_u_p___t_u_p_l_e.html" target="_top" xlink:title=" ">
<polygon fill="white" stroke="#666666" points="39.25,-59.75 0,-59.75 0,-39 39.25,-39 39.25,-59.75"/>
<text text-anchor="middle" x="19.62" y="-46.25" font-family="Helvetica,sans-Serif" font-size="10.00">tuple</text>
</a>
</g>
</g>
<!-- Node1 -->
<g id="node2" class="node">
<title>Node1</title>
<g id="a_node2"><a xlink:title=" ">
<polygon fill="#999999" stroke="#666666" points="136.25,-59.75 75.25,-59.75 75.25,-39 136.25,-39 136.25,-59.75"/>
<text text-anchor="middle" x="105.75" y="-46.25" font-family="Helvetica,sans-Serif" font-size="10.00">algorithm</text>
</a>
</g>
</g>
<!-- Node2&#45;&gt;Node1 -->
<g id="edge1" class="edge">
<title>Node2&#45;&gt;Node1</title>
<path fill="none" stroke="black" d="M50.65,-49.38C58.51,-49.38 66.99,-49.38 74.84,-49.38"/>
<polygon fill="black" stroke="black" points="50.71,-45.88 40.71,-49.38 50.71,-52.88 50.71,-45.88"/>
</g>
<!-- Node3 -->
<g id="node3" class="node">
<title>Node3</title>
<g id="a_node3"><a xlink:href="../../d8/de3/group___g_r_o_u_p___t_u_p_l_e___a_l_g_o_r_i_t_h_m___c_a_r_t_e_s_i_a_n___p_r_o_d_u_c_t.html" target="_top" xlink:title=" ">
<polygon fill="white" stroke="#666666" points="267.38,-98.75 173.38,-98.75 173.38,-78 267.38,-78 267.38,-98.75"/>
<text text-anchor="middle" x="220.38" y="-85.25" font-family="Helvetica,sans-Serif" font-size="10.00">cartesian product</text>
</a>
</g>
</g>
<!-- Node1&#45;&gt;Node3 -->
<g id="edge2" class="edge">
<title>Node1&#45;&gt;Node3</title>
<path fill="none" stroke="black" d="M146.72,-63.21C160.33,-67.93 175.34,-73.13 188.17,-77.57"/>
<polygon fill="black" stroke="black" points="148.23,-59.69 137.64,-59.72 145.94,-66.3 148.23,-59.69"/>
</g>
<!-- Node4 -->
<g id="node4" class="node">
<title>Node4</title>
<g id="a_node4"><a xlink:href="../../d8/d4d/group___g_r_o_u_p___t_u_p_l_e___a_l_g_o_r_i_t_h_m___e_n_v_e_l_o_p___e_l_e_m_e_n_t_s.html" target="_top" xlink:title=" ">
<polygon fill="white" stroke="#666666" points="268.5,-59.75 172.25,-59.75 172.25,-39 268.5,-39 268.5,-59.75"/>
<text text-anchor="middle" x="220.38" y="-46.25" font-family="Helvetica,sans-Serif" font-size="10.00">envelop elements</text>
</a>
</g>
</g>
<!-- Node1&#45;&gt;Node4 -->
<g id="edge3" class="edge">
<title>Node1&#45;&gt;Node4</title>
<path fill="none" stroke="black" d="M147.48,-49.38C155.41,-49.38 163.78,-49.38 171.91,-49.38"/>
<polygon fill="black" stroke="black" points="147.64,-45.88 137.64,-49.38 147.64,-52.88 147.64,-45.88"/>
</g>
<!-- Node5 -->
<g id="node5" class="node">
<title>Node5</title>
<g id="a_node5"><a xlink:href="../../de/dc4/group___g_r_o_u_p___t_u_p_l_e___a_l_g_o_r_i_t_h_m___z_i_p.html" target="_top" xlink:title=" ">
<polygon fill="white" stroke="#666666" points="234.78,-20.75 205.97,-20.75 205.97,0 234.78,0 234.78,-20.75"/>
<text text-anchor="middle" x="220.38" y="-7.25" font-family="Helvetica,sans-Serif" font-size="10.00">zip</text>
</a>
</g>
</g>
<!-- Node1&#45;&gt;Node5 -->
<g id="edge4" class="edge">
<title>Node1&#45;&gt;Node5</title>
<path fill="none" stroke="black" d="M146.75,-35.52C167.36,-28.39 191.16,-20.15 205.74,-15.1"/>
<polygon fill="black" stroke="black" points="145.94,-32.45 137.64,-39.03 148.23,-39.06 145.94,-32.45"/>
</g>
</g>
</svg>
