<?xml version="1.0" encoding="UTF-8" standalone="no"?>
<!DOCTYPE svg PUBLIC "-//W3C//DTD SVG 1.1//EN"
 "http://www.w3.org/Graphics/SVG/1.1/DTD/svg11.dtd">
<!-- Generated by graphviz version 7.0.5 (20221223.1930)
 -->
<!-- Title: Simple&#45;Utility/unique_handle.hpp Pages: 1 -->
<svg width="1021pt" height="357pt"
 viewBox="0.00 0.00 1020.50 357.00" xmlns="http://www.w3.org/2000/svg" xmlns:xlink="http://www.w3.org/1999/xlink">
<g id="graph0" class="graph" transform="scale(1 1) rotate(0) translate(4 353)">
<title>Simple&#45;Utility/unique_handle.hpp</title>
<!-- Node1 -->
<g id="node1" class="node">
<title>Node1</title>
<g id="a_node1"><a xlink:title=" ">
<polygon fill="#999999" stroke="#666666" points="498,-349 386,-349 386,-319 498,-319 498,-349"/>
<text text-anchor="start" x="394" y="-337" font-family="Helvetica,sans-Serif" font-size="10.00">Simple&#45;Utility/unique</text>
<text text-anchor="middle" x="442" y="-326" font-family="Helvetica,sans-Serif" font-size="10.00">_handle.hpp</text>
</a>
</g>
</g>
<!-- Node2 -->
<g id="node2" class="node">
<title>Node2</title>
<g id="a_node2"><a xlink:title=" ">
<polygon fill="#e0e0e0" stroke="#999999" points="56,-277.5 0,-277.5 0,-258.5 56,-258.5 56,-277.5"/>
<text text-anchor="middle" x="28" y="-265.5" font-family="Helvetica,sans-Serif" font-size="10.00">compare</text>
</a>
</g>
</g>
<!-- Node1&#45;&gt;Node2 -->
<g id="edge1" class="edge">
<title>Node1&#45;&gt;Node2</title>
<path fill="none" stroke="#63b8ff" d="M385.63,-328.75C312.24,-322.45 180.3,-308.56 70,-283 67.72,-282.47 65.39,-281.87 63.04,-281.22"/>
<polygon fill="#63b8ff" stroke="#63b8ff" points="64.24,-277.93 53.66,-278.37 62.21,-284.63 64.24,-277.93"/>
</g>
<!-- Node3 -->
<g id="node3" class="node">
<title>Node3</title>
<g id="a_node3"><a xlink:title=" ">
<polygon fill="#e0e0e0" stroke="#999999" points="375.5,-19 318.5,-19 318.5,0 375.5,0 375.5,-19"/>
<text text-anchor="middle" x="347" y="-7" font-family="Helvetica,sans-Serif" font-size="10.00">concepts</text>
</a>
</g>
</g>
<!-- Node1&#45;&gt;Node3 -->
<g id="edge2" class="edge">
<title>Node1&#45;&gt;Node3</title>
<path fill="none" stroke="#63b8ff" d="M385.67,-324.52C284.85,-307.76 84,-266.4 84,-203 84,-203 84,-203 84,-135 84,-98.46 76.49,-80.15 103,-55 131.76,-27.72 245.38,-16.66 306.91,-12.6"/>
<polygon fill="#63b8ff" stroke="#63b8ff" points="306.85,-16.11 316.61,-12 306.41,-9.13 306.85,-16.11"/>
</g>
<!-- Node4 -->
<g id="node4" class="node">
<title>Node4</title>
<g id="a_node4"><a xlink:title=" ">
<polygon fill="#e0e0e0" stroke="#999999" points="700,-79.5 638,-79.5 638,-60.5 700,-60.5 700,-79.5"/>
<text text-anchor="middle" x="669" y="-67.5" font-family="Helvetica,sans-Serif" font-size="10.00">functional</text>
</a>
</g>
</g>
<!-- Node1&#45;&gt;Node4 -->
<g id="edge3" class="edge">
<title>Node1&#45;&gt;Node4</title>
<path fill="none" stroke="#63b8ff" d="M498.4,-325.31C559.5,-313.64 654.11,-285.08 698,-217 723.83,-176.94 697.39,-118.82 680.59,-89.46"/>
<polygon fill="#63b8ff" stroke="#63b8ff" points="683.67,-87.79 675.53,-81.01 677.66,-91.38 683.67,-87.79"/>
</g>
<!-- Node5 -->
<g id="node5" class="node">
<title>Node5</title>
<g id="a_node5"><a xlink:title=" ">
<polygon fill="#e0e0e0" stroke="#999999" points="838.5,-277.5 783.5,-277.5 783.5,-258.5 838.5,-258.5 838.5,-277.5"/>
<text text-anchor="middle" x="811" y="-265.5" font-family="Helvetica,sans-Serif" font-size="10.00">optional</text>
</a>
</g>
</g>
<!-- Node1&#45;&gt;Node5 -->
<g id="edge4" class="edge">
<title>Node1&#45;&gt;Node5</title>
<path fill="none" stroke="#63b8ff" d="M498.4,-327.33C564.02,-320.05 675.35,-305.6 769,-283 771.13,-282.49 773.31,-281.91 775.49,-281.3"/>
<polygon fill="#63b8ff" stroke="#63b8ff" points="776.34,-284.7 784.88,-278.44 774.3,-278.01 776.34,-284.7"/>
</g>
<!-- Node6 -->
<g id="node6" class="node">
<title>Node6</title>
<g id="a_node6"><a xlink:href="../../d8/dd2/_config_8hpp.html" target="_top" xlink:title=" ">
<polygon fill="white" stroke="#666666" points="889.5,-79.5 756.5,-79.5 756.5,-60.5 889.5,-60.5 889.5,-79.5"/>
<text text-anchor="middle" x="823" y="-67.5" font-family="Helvetica,sans-Serif" font-size="10.00">Simple&#45;Utility/Config.hpp</text>
</a>
</g>
</g>
<!-- Node1&#45;&gt;Node6 -->
<g id="edge5" class="edge">
<title>Node1&#45;&gt;Node6</title>
<path fill="none" stroke="#63b8ff" d="M498.05,-329.46C544.04,-324.44 609.41,-312.31 659,-283 739.19,-235.6 794.25,-132.7 814.45,-90.08"/>
<polygon fill="#63b8ff" stroke="#63b8ff" points="817.56,-91.68 818.58,-81.13 811.21,-88.74 817.56,-91.68"/>
</g>
<!-- Node7 -->
<g id="node7" class="node">
<title>Node7</title>
<g id="a_node7"><a xlink:href="../../dd/d5c/stl__extensions_8hpp.html" target="_top" xlink:title=" ">
<polygon fill="white" stroke="#666666" points="234,-85 112,-85 112,-55 234,-55 234,-85"/>
<text text-anchor="start" x="120" y="-73" font-family="Helvetica,sans-Serif" font-size="10.00">Simple&#45;Utility/concepts</text>
<text text-anchor="middle" x="173" y="-62" font-family="Helvetica,sans-Serif" font-size="10.00">/stl_extensions.hpp</text>
</a>
</g>
</g>
<!-- Node1&#45;&gt;Node7 -->
<g id="edge6" class="edge">
<title>Node1&#45;&gt;Node7</title>
<path fill="none" stroke="#63b8ff" d="M411.62,-318.64C360.09,-292.68 255.81,-232.93 201,-151 189.87,-134.37 182.67,-112.83 178.36,-96.29"/>
<polygon fill="#63b8ff" stroke="#63b8ff" points="181.8,-95.66 176.07,-86.75 174.99,-97.29 181.8,-95.66"/>
</g>
<!-- Node8 -->
<g id="node8" class="node">
<title>Node8</title>
<g id="a_node8"><a xlink:href="../../d6/dbe/nullables_2base_8hpp.html" target="_top" xlink:title=" ">
<polygon fill="white" stroke="#666666" points="503.5,-283 380.5,-283 380.5,-253 503.5,-253 503.5,-283"/>
<text text-anchor="start" x="388.5" y="-271" font-family="Helvetica,sans-Serif" font-size="10.00">Simple&#45;Utility/nullables</text>
<text text-anchor="middle" x="442" y="-260" font-family="Helvetica,sans-Serif" font-size="10.00">/base.hpp</text>
</a>
</g>
</g>
<!-- Node1&#45;&gt;Node8 -->
<g id="edge8" class="edge">
<title>Node1&#45;&gt;Node8</title>
<path fill="none" stroke="#63b8ff" d="M442,-318.8C442,-311.67 442,-302.82 442,-294.56"/>
<polygon fill="#63b8ff" stroke="#63b8ff" points="445.5,-294.68 442,-284.68 438.5,-294.68 445.5,-294.68"/>
</g>
<!-- Node7&#45;&gt;Node3 -->
<g id="edge7" class="edge">
<title>Node7&#45;&gt;Node3</title>
<path fill="none" stroke="#63b8ff" d="M216.01,-54.54C244.76,-44.87 282.2,-32.29 309.69,-23.04"/>
<polygon fill="#63b8ff" stroke="#63b8ff" points="310.63,-26.42 319,-19.91 308.4,-19.78 310.63,-26.42"/>
</g>
<!-- Node8&#45;&gt;Node7 -->
<g id="edge9" class="edge">
<title>Node8&#45;&gt;Node7</title>
<path fill="none" stroke="#63b8ff" d="M403.26,-252.55C357.85,-234.19 282.16,-199.02 230,-151 212.34,-134.74 196.86,-112.17 186.51,-95.15"/>
<polygon fill="#63b8ff" stroke="#63b8ff" points="189.61,-93.52 181.52,-86.68 183.58,-97.07 189.61,-93.52"/>
</g>
<!-- Node9 -->
<g id="node9" class="node">
<title>Node9</title>
<g id="a_node9"><a xlink:href="../../dd/dcd/operators_8hpp.html" target="_top" xlink:title=" ">
<polygon fill="white" stroke="#666666" points="361,-151 239,-151 239,-121 361,-121 361,-151"/>
<text text-anchor="start" x="247" y="-139" font-family="Helvetica,sans-Serif" font-size="10.00">Simple&#45;Utility/concepts</text>
<text text-anchor="middle" x="300" y="-128" font-family="Helvetica,sans-Serif" font-size="10.00">/operators.hpp</text>
</a>
</g>
</g>
<!-- Node8&#45;&gt;Node9 -->
<g id="edge10" class="edge">
<title>Node8&#45;&gt;Node9</title>
<path fill="none" stroke="#63b8ff" d="M420.73,-252.59C407.18,-243.05 389.5,-229.96 375,-217 354.88,-199.02 334.05,-176.42 319.46,-159.83"/>
<polygon fill="#63b8ff" stroke="#63b8ff" points="322.24,-157.7 313.03,-152.45 316.96,-162.29 322.24,-157.7"/>
</g>
<!-- Node10 -->
<g id="node10" class="node">
<title>Node10</title>
<g id="a_node10"><a xlink:href="../../d1/d76/functional_2base_8hpp.html" target="_top" xlink:title=" ">
<polygon fill="white" stroke="#666666" points="585,-151 457,-151 457,-121 585,-121 585,-151"/>
<text text-anchor="start" x="465" y="-139" font-family="Helvetica,sans-Serif" font-size="10.00">Simple&#45;Utility/functional</text>
<text text-anchor="middle" x="521" y="-128" font-family="Helvetica,sans-Serif" font-size="10.00">/base.hpp</text>
</a>
</g>
</g>
<!-- Node8&#45;&gt;Node10 -->
<g id="edge12" class="edge">
<title>Node8&#45;&gt;Node10</title>
<path fill="none" stroke="#63b8ff" d="M452.15,-252.77C459.09,-242.88 468.37,-229.31 476,-217 487.43,-198.56 499.43,-177.1 508.16,-161.05"/>
<polygon fill="#63b8ff" stroke="#63b8ff" points="511,-163.17 512.67,-152.71 504.84,-159.84 511,-163.17"/>
</g>
<!-- Node11 -->
<g id="node11" class="node">
<title>Node11</title>
<g id="a_node11"><a xlink:title=" ">
<polygon fill="#e0e0e0" stroke="#999999" points="701.5,-19 636.5,-19 636.5,0 701.5,0 701.5,-19"/>
<text text-anchor="middle" x="669" y="-7" font-family="Helvetica,sans-Serif" font-size="10.00">type_traits</text>
</a>
</g>
</g>
<!-- Node8&#45;&gt;Node11 -->
<g id="edge32" class="edge">
<title>Node8&#45;&gt;Node11</title>
<path fill="none" stroke="#63b8ff" d="M461.25,-252.53C483.04,-236.26 519.7,-209.21 552,-187 620.56,-139.85 669.3,-158.13 709,-85 715.36,-73.28 713.77,-67.45 709,-55 704.89,-44.29 696.89,-34.54 689.11,-26.91"/>
<polygon fill="#63b8ff" stroke="#63b8ff" points="691.53,-24.39 681.77,-20.28 686.84,-29.58 691.53,-24.39"/>
</g>
<!-- Node12 -->
<g id="node12" class="node">
<title>Node12</title>
<g id="a_node12"><a xlink:href="../../d4/d1c/unified__base_8hpp.html" target="_top" xlink:title=" ">
<polygon fill="white" stroke="#666666" points="403.5,-85 290.5,-85 290.5,-55 403.5,-55 403.5,-85"/>
<text text-anchor="start" x="298.5" y="-73" font-family="Helvetica,sans-Serif" font-size="10.00">Simple&#45;Utility/unified</text>
<text text-anchor="middle" x="347" y="-62" font-family="Helvetica,sans-Serif" font-size="10.00">_base.hpp</text>
</a>
</g>
</g>
<!-- Node8&#45;&gt;Node12 -->
<g id="edge30" class="edge">
<title>Node8&#45;&gt;Node12</title>
<path fill="none" stroke="#63b8ff" d="M431,-252.66C423.86,-242.94 414.68,-229.62 408,-217 386.52,-176.45 388.04,-163.19 370,-121 366.44,-112.66 362.35,-103.64 358.63,-95.58"/>
<polygon fill="#63b8ff" stroke="#63b8ff" points="361.89,-94.3 354.49,-86.72 355.55,-97.26 361.89,-94.3"/>
</g>
<!-- Node14 -->
<g id="node14" class="node">
<title>Node14</title>
<g id="a_node14"><a xlink:href="../../d9/d76/bind_8hpp.html" target="_top" xlink:title=" ">
<polygon fill="white" stroke="#666666" points="689,-217 561,-217 561,-187 689,-187 689,-217"/>
<text text-anchor="start" x="569" y="-205" font-family="Helvetica,sans-Serif" font-size="10.00">Simple&#45;Utility/functional</text>
<text text-anchor="middle" x="625" y="-194" font-family="Helvetica,sans-Serif" font-size="10.00">/operators/bind.hpp</text>
</a>
</g>
</g>
<!-- Node8&#45;&gt;Node14 -->
<g id="edge23" class="edge">
<title>Node8&#45;&gt;Node14</title>
<path fill="none" stroke="#63b8ff" d="M483.07,-252.64C509.7,-243.32 544.62,-231.11 573.16,-221.13"/>
<polygon fill="#63b8ff" stroke="#63b8ff" points="574.04,-224.53 582.32,-217.93 571.73,-217.92 574.04,-224.53"/>
</g>
<!-- Node18 -->
<g id="node18" class="node">
<title>Node18</title>
<g id="a_node18"><a xlink:title=" ">
<polygon fill="#e0e0e0" stroke="#999999" points="467,-211.5 417,-211.5 417,-192.5 467,-192.5 467,-211.5"/>
<text text-anchor="middle" x="442" y="-199.5" font-family="Helvetica,sans-Serif" font-size="10.00">cstddef</text>
</a>
</g>
</g>
<!-- Node8&#45;&gt;Node18 -->
<g id="edge31" class="edge">
<title>Node8&#45;&gt;Node18</title>
<path fill="none" stroke="#63b8ff" d="M442,-252.8C442,-244.09 442,-232.81 442,-223.18"/>
<polygon fill="#63b8ff" stroke="#63b8ff" points="445.5,-223.36 442,-213.36 438.5,-223.36 445.5,-223.36"/>
</g>
<!-- Node9&#45;&gt;Node3 -->
<g id="edge11" class="edge">
<title>Node9&#45;&gt;Node3</title>
<path fill="none" stroke="#63b8ff" d="M290.82,-120.65C281.44,-104.01 269.74,-76.17 281,-55 288.07,-41.71 301.06,-31.68 313.66,-24.53"/>
<polygon fill="#63b8ff" stroke="#63b8ff" points="314.95,-27.81 322.22,-20.11 311.73,-21.59 314.95,-27.81"/>
</g>
<!-- Node10&#45;&gt;Node3 -->
<g id="edge13" class="edge">
<title>Node10&#45;&gt;Node3</title>
<path fill="none" stroke="#63b8ff" d="M500.34,-120.53C486.33,-110.65 467.44,-97.19 451,-85 433.43,-71.98 429.7,-67.85 412,-55 398.2,-44.98 382.43,-34.17 369.87,-25.71"/>
<polygon fill="#63b8ff" stroke="#63b8ff" points="372.11,-22.99 361.85,-20.33 368.21,-28.81 372.11,-22.99"/>
</g>
<!-- Node10&#45;&gt;Node4 -->
<g id="edge14" class="edge">
<title>Node10&#45;&gt;Node4</title>
<path fill="none" stroke="#63b8ff" d="M554.21,-120.64C579.19,-109.83 613.19,-95.13 637.7,-84.54"/>
<polygon fill="#63b8ff" stroke="#63b8ff" points="639.04,-87.77 646.83,-80.59 636.26,-81.34 639.04,-87.77"/>
</g>
<!-- Node10&#45;&gt;Node6 -->
<g id="edge16" class="edge">
<title>Node10&#45;&gt;Node6</title>
<path fill="none" stroke="#63b8ff" d="M585.42,-121.35C640.33,-109.71 718.33,-93.18 769.77,-82.28"/>
<polygon fill="#63b8ff" stroke="#63b8ff" points="770.43,-85.72 779.48,-80.22 768.98,-78.87 770.43,-85.72"/>
</g>
<!-- Node10&#45;&gt;Node7 -->
<g id="edge20" class="edge">
<title>Node10&#45;&gt;Node7</title>
<path fill="none" stroke="#63b8ff" d="M456.77,-123.19C396.96,-112.19 307.9,-95.81 245.55,-84.34"/>
<polygon fill="#63b8ff" stroke="#63b8ff" points="246.19,-80.9 235.72,-82.54 244.92,-87.79 246.19,-80.9"/>
</g>
<!-- Node10&#45;&gt;Node11 -->
<g id="edge15" class="edge">
<title>Node10&#45;&gt;Node11</title>
<path fill="none" stroke="#63b8ff" d="M542.72,-120.66C556.85,-111.06 575.47,-97.85 591,-85 613.43,-66.44 637.39,-42.94 652.74,-27.35"/>
<polygon fill="#63b8ff" stroke="#63b8ff" points="655.18,-29.87 659.66,-20.27 650.17,-24.98 655.18,-29.87"/>
</g>
<!-- Node10&#45;&gt;Node12 -->
<g id="edge17" class="edge">
<title>Node10&#45;&gt;Node12</title>
<path fill="none" stroke="#63b8ff" d="M481.95,-120.64C456.85,-111.41 424.01,-99.33 397.01,-89.39"/>
<polygon fill="#63b8ff" stroke="#63b8ff" points="398.23,-86.12 387.64,-85.95 395.82,-92.68 398.23,-86.12"/>
</g>
<!-- Node13 -->
<g id="node13" class="node">
<title>Node13</title>
<g id="a_node13"><a xlink:href="../../d5/d8e/concepts_2utility_8hpp.html" target="_top" xlink:title=" ">
<polygon fill="white" stroke="#666666" points="582,-85 460,-85 460,-55 582,-55 582,-85"/>
<text text-anchor="start" x="468" y="-73" font-family="Helvetica,sans-Serif" font-size="10.00">Simple&#45;Utility/concepts</text>
<text text-anchor="middle" x="521" y="-62" font-family="Helvetica,sans-Serif" font-size="10.00">/utility.hpp</text>
</a>
</g>
</g>
<!-- Node10&#45;&gt;Node13 -->
<g id="edge21" class="edge">
<title>Node10&#45;&gt;Node13</title>
<path fill="none" stroke="#63b8ff" d="M521,-120.8C521,-113.67 521,-104.82 521,-96.56"/>
<polygon fill="#63b8ff" stroke="#63b8ff" points="524.5,-96.68 521,-86.68 517.5,-96.68 524.5,-96.68"/>
</g>
<!-- Node12&#45;&gt;Node3 -->
<g id="edge18" class="edge">
<title>Node12&#45;&gt;Node3</title>
<path fill="none" stroke="#63b8ff" d="M347,-54.54C347,-47.34 347,-38.53 347,-30.68"/>
<polygon fill="#63b8ff" stroke="#63b8ff" points="350.5,-30.69 347,-20.69 343.5,-30.69 350.5,-30.69"/>
</g>
<!-- Node12&#45;&gt;Node11 -->
<g id="edge19" class="edge">
<title>Node12&#45;&gt;Node11</title>
<path fill="none" stroke="#63b8ff" d="M403.83,-58.68C467,-47.2 567.67,-28.91 625.08,-18.48"/>
<polygon fill="#63b8ff" stroke="#63b8ff" points="625.61,-21.94 634.82,-16.71 624.35,-15.05 625.61,-21.94"/>
</g>
<!-- Node13&#45;&gt;Node3 -->
<g id="edge22" class="edge">
<title>Node13&#45;&gt;Node3</title>
<path fill="none" stroke="#63b8ff" d="M477.99,-54.54C449.24,-44.87 411.8,-32.29 384.31,-23.04"/>
<polygon fill="#63b8ff" stroke="#63b8ff" points="385.6,-19.78 375,-19.91 383.37,-26.42 385.6,-19.78"/>
</g>
<!-- Node14&#45;&gt;Node10 -->
<g id="edge24" class="edge">
<title>Node14&#45;&gt;Node10</title>
<path fill="none" stroke="#63b8ff" d="M601.66,-186.64C587.61,-177.99 569.5,-166.85 554,-157.31"/>
<polygon fill="#63b8ff" stroke="#63b8ff" points="555.9,-154.37 545.55,-152.11 552.23,-160.33 555.9,-154.37"/>
</g>
<!-- Node15 -->
<g id="node15" class="node">
<title>Node15</title>
<g id="a_node15"><a xlink:href="../../d2/d30/general_8hpp.html" target="_top" xlink:title=" ">
<polygon fill="white" stroke="#666666" points="1012.5,-85 907.5,-85 907.5,-55 1012.5,-55 1012.5,-85"/>
<text text-anchor="start" x="915.5" y="-73" font-family="Helvetica,sans-Serif" font-size="10.00">Simple&#45;Utility/tuple</text>
<text text-anchor="middle" x="960" y="-62" font-family="Helvetica,sans-Serif" font-size="10.00">/general.hpp</text>
</a>
</g>
</g>
<!-- Node14&#45;&gt;Node15 -->
<g id="edge25" class="edge">
<title>Node14&#45;&gt;Node15</title>
<path fill="none" stroke="#63b8ff" d="M662.13,-186.59C723.25,-162.87 844.99,-115.63 912.37,-89.48"/>
<polygon fill="#63b8ff" stroke="#63b8ff" points="913.24,-92.9 921.29,-86.02 910.7,-86.38 913.24,-92.9"/>
</g>
<!-- Node15&#45;&gt;Node3 -->
<g id="edge26" class="edge">
<title>Node15&#45;&gt;Node3</title>
<path fill="none" stroke="#63b8ff" d="M907.19,-56.39C904.43,-55.88 901.68,-55.41 899,-55 708.94,-25.69 478.9,-15.01 387.38,-11.75"/>
<polygon fill="#63b8ff" stroke="#63b8ff" points="387.53,-8.25 377.42,-11.4 387.29,-15.25 387.53,-8.25"/>
</g>
<!-- Node15&#45;&gt;Node11 -->
<g id="edge28" class="edge">
<title>Node15&#45;&gt;Node11</title>
<path fill="none" stroke="#63b8ff" d="M907.12,-56.75C904.38,-56.15 901.66,-55.56 899,-55 834.44,-41.35 759.33,-27.13 712.97,-18.54"/>
<polygon fill="#63b8ff" stroke="#63b8ff" points="713.79,-15.13 703.32,-16.76 712.51,-22.02 713.79,-15.13"/>
</g>
<!-- Node16 -->
<g id="node16" class="node">
<title>Node16</title>
<g id="a_node16"><a xlink:title=" ">
<polygon fill="#e0e0e0" stroke="#999999" points="950,-19 910,-19 910,0 950,0 950,-19"/>
<text text-anchor="middle" x="930" y="-7" font-family="Helvetica,sans-Serif" font-size="10.00">tuple</text>
</a>
</g>
</g>
<!-- Node15&#45;&gt;Node16 -->
<g id="edge27" class="edge">
<title>Node15&#45;&gt;Node16</title>
<path fill="none" stroke="#63b8ff" d="M952.58,-54.54C948.67,-46.91 943.82,-37.46 939.63,-29.27"/>
<polygon fill="#63b8ff" stroke="#63b8ff" points="942.82,-27.82 935.14,-20.52 936.59,-31.02 942.82,-27.82"/>
</g>
<!-- Node17 -->
<g id="node17" class="node">
<title>Node17</title>
<g id="a_node17"><a xlink:title=" ">
<polygon fill="#e0e0e0" stroke="#999999" points="1009.5,-19 968.5,-19 968.5,0 1009.5,0 1009.5,-19"/>
<text text-anchor="middle" x="989" y="-7" font-family="Helvetica,sans-Serif" font-size="10.00">utility</text>
</a>
</g>
</g>
<!-- Node15&#45;&gt;Node17 -->
<g id="edge29" class="edge">
<title>Node15&#45;&gt;Node17</title>
<path fill="none" stroke="#63b8ff" d="M967.17,-54.54C970.95,-46.91 975.64,-37.46 979.7,-29.27"/>
<polygon fill="#63b8ff" stroke="#63b8ff" points="982.72,-31.05 984.03,-20.53 976.45,-27.94 982.72,-31.05"/>
</g>
</g>
</svg>
