<?xml version="1.0" encoding="UTF-8" standalone="no"?>
<!DOCTYPE svg PUBLIC "-//W3C//DTD SVG 1.1//EN"
 "http://www.w3.org/Graphics/SVG/1.1/DTD/svg11.dtd">
<!-- Generated by graphviz version 8.0.5 (20230430.1635)
 -->
<!-- Title: Simple&#45;Utility/unique_handle.hpp Pages: 1 -->
<!--zoomable 376 -->
<svg id="main" version="1.1" xmlns="http://www.w3.org/2000/svg" xmlns:xlink="http://www.w3.org/1999/xlink" xml:space="preserve" onload="init(evt)">
<style type="text/css"><![CDATA[
.edge:hover path { stroke: red; }
.edge:hover polygon { stroke: red; fill: red; }
]]></style>
<script type="text/javascript"><![CDATA[
var edges = document.getElementsByTagName('g');
if (edges && edges.length) {
  for (var i=0;i<edges.length;i++) {
    if (edges[i].id.substr(0,4)=='edge') {
      edges[i].setAttribute('class','edge');
    }
  }
}
]]></script>
        <defs>
                <circle id="rim" cx="0" cy="0" r="7"/>
                <circle id="rim2" cx="0" cy="0" r="3.5"/>
                <g id="zoomPlus">
                        <use xlink:href="#rim" fill="#404040">
                                <set attributeName="fill" to="#808080" begin="zoomplus.mouseover" end="zoomplus.mouseout"/>
                        </use>
                        <path d="M-4,0h8M0,-4v8" fill="none" stroke="white" stroke-width="1.5" pointer-events="none"/>
                </g>
                <g id="zoomMin">
                        <use xlink:href="#rim" fill="#404040">
                                <set attributeName="fill" to="#808080" begin="zoomminus.mouseover" end="zoomminus.mouseout"/>
                        </use>
                        <path d="M-4,0h8" fill="none" stroke="white" stroke-width="1.5" pointer-events="none"/>
                </g>
                <g id="dirArrow">
                        <path fill="none" stroke="white" stroke-width="1.5" d="M0,-3.0v7 M-2.5,-0.5L0,-3.0L2.5,-0.5"/>
                </g>
               <g id="resetDef">
                       <use xlink:href="#rim2" fill="#404040">
                               <set attributeName="fill" to="#808080" begin="reset.mouseover" end="reset.mouseout"/>
                       </use>
               </g>
        </defs>

<script type="text/javascript">
var viewWidth = 1016;
var viewHeight = 376;
var sectionId = 'dynsection-0';
</script>
<script xlink:href="../../svgpan.js"/>
<svg id="graph" class="graph">
<g id="viewport">
<title>Simple&#45;Utility/unique_handle.hpp</title>
<!-- Node1 -->
<g id="node1" class="node">
<title>Node1</title>
<g id="a_node1"><a xlink:title=" ">
<polygon fill="#999999" stroke="#666666" points="497.5,-368.25 386.25,-368.25 386.25,-334.75 497.5,-334.75 497.5,-368.25"/>
<text text-anchor="start" x="394.25" y="-354.75" font-family="Helvetica,sans-Serif" font-size="10.00">Simple&#45;Utility/unique</text>
<text text-anchor="middle" x="441.88" y="-342" font-family="Helvetica,sans-Serif" font-size="10.00">_handle.hpp</text>
</a>
</g>
</g>
<!-- Node2 -->
<g id="node2" class="node">
<title>Node2</title>
<g id="a_node2"><a xlink:title=" ">
<polygon fill="#e0e0e0" stroke="#999999" points="55.75,-292.38 0,-292.38 0,-271.62 55.75,-271.62 55.75,-292.38"/>
<text text-anchor="middle" x="27.88" y="-278.88" font-family="Helvetica,sans-Serif" font-size="10.00">compare</text>
</a>
</g>
</g>
<!-- Node1&#45;&gt;Node2 -->
<g id="edge1" class="edge">
<title>Node1&#45;&gt;Node2</title>
<path fill="none" stroke="#63b8ff" d="M385.99,-346.59C312.56,-340.57 180.01,-326.69 69.88,-298.75 67.07,-298.04 64.2,-297.2 61.33,-296.29"/>
<polygon fill="#63b8ff" stroke="#63b8ff" points="62.72,-292.72 52.13,-292.76 60.43,-299.34 62.72,-292.72"/>
</g>
<!-- Node3 -->
<g id="node3" class="node">
<title>Node3</title>
<g id="a_node3"><a xlink:title=" ">
<polygon fill="#e0e0e0" stroke="#999999" points="374.12,-20.75 317.62,-20.75 317.62,0 374.12,0 374.12,-20.75"/>
<text text-anchor="middle" x="345.88" y="-7.25" font-family="Helvetica,sans-Serif" font-size="10.00">concepts</text>
</a>
</g>
</g>
<!-- Node1&#45;&gt;Node3 -->
<g id="edge2" class="edge">
<title>Node1&#45;&gt;Node3</title>
<path fill="none" stroke="#63b8ff" d="M385.94,-341.07C285.25,-322.51 83.88,-277.39 83.88,-213.5 83.88,-213.5 83.88,-213.5 83.88,-142 83.88,-103.18 74.95,-83.72 102.88,-56.75 131.43,-29.17 245.6,-17.76 306.74,-13.55"/>
<polygon fill="#63b8ff" stroke="#63b8ff" points="306.76,-16.99 316.51,-12.84 306.3,-10 306.76,-16.99"/>
</g>
<!-- Node4 -->
<g id="node4" class="node">
<title>Node4</title>
<g id="a_node4"><a xlink:title=" ">
<polygon fill="#e0e0e0" stroke="#999999" points="697.75,-83.88 636,-83.88 636,-63.12 697.75,-63.12 697.75,-83.88"/>
<text text-anchor="middle" x="666.88" y="-70.38" font-family="Helvetica,sans-Serif" font-size="10.00">functional</text>
</a>
</g>
</g>
<!-- Node1&#45;&gt;Node4 -->
<g id="edge3" class="edge">
<title>Node1&#45;&gt;Node4</title>
<path fill="none" stroke="#63b8ff" d="M497.81,-341.77C558.97,-328.92 654.09,-298.44 697.88,-229.25 725.13,-186.19 696.42,-124.02 678.68,-93.24"/>
<polygon fill="#63b8ff" stroke="#63b8ff" points="681.33,-91.84 673.18,-85.07 675.33,-95.45 681.33,-91.84"/>
</g>
<!-- Node5 -->
<g id="node5" class="node">
<title>Node5</title>
<g id="a_node5"><a xlink:title=" ">
<polygon fill="#e0e0e0" stroke="#999999" points="837,-292.38 782.75,-292.38 782.75,-271.62 837,-271.62 837,-292.38"/>
<text text-anchor="middle" x="809.88" y="-278.88" font-family="Helvetica,sans-Serif" font-size="10.00">optional</text>
</a>
</g>
</g>
<!-- Node1&#45;&gt;Node5 -->
<g id="edge4" class="edge">
<title>Node1&#45;&gt;Node5</title>
<path fill="none" stroke="#63b8ff" d="M497.87,-345.25C563.59,-338.27 675.47,-323.78 768.88,-298.75 771.36,-298.08 773.9,-297.32 776.45,-296.49"/>
<polygon fill="#63b8ff" stroke="#63b8ff" points="777.48,-299.49 785.74,-292.86 775.14,-292.89 777.48,-299.49"/>
</g>
<!-- Node6 -->
<g id="node6" class="node">
<title>Node6</title>
<g id="a_node6"><a xlink:href="../../d8/dd2/_config_8hpp.html" target="_top" xlink:title=" ">
<polygon fill="white" stroke="#666666" points="886,-83.88 753.75,-83.88 753.75,-63.12 886,-63.12 886,-83.88"/>
<text text-anchor="middle" x="819.88" y="-70.38" font-family="Helvetica,sans-Serif" font-size="10.00">Simple&#45;Utility/Config.hpp</text>
</a>
</g>
</g>
<!-- Node1&#45;&gt;Node6 -->
<g id="edge5" class="edge">
<title>Node1&#45;&gt;Node6</title>
<path fill="none" stroke="#63b8ff" d="M497.95,-346.38C543.54,-340.92 608.07,-328.22 656.88,-298.75 739.67,-248.74 792.93,-139.05 811.99,-94.2"/>
<polygon fill="#63b8ff" stroke="#63b8ff" points="815.51,-95.85 816.1,-85.27 809.05,-93.17 815.51,-95.85"/>
</g>
<!-- Node7 -->
<g id="node7" class="node">
<title>Node7</title>
<g id="a_node7"><a xlink:href="../../dd/d5c/stl__extensions_8hpp.html" target="_top" xlink:title=" ">
<polygon fill="white" stroke="#666666" points="233.75,-90.25 112,-90.25 112,-56.75 233.75,-56.75 233.75,-90.25"/>
<text text-anchor="start" x="120" y="-76.75" font-family="Helvetica,sans-Serif" font-size="10.00">Simple&#45;Utility/concepts</text>
<text text-anchor="middle" x="172.88" y="-64" font-family="Helvetica,sans-Serif" font-size="10.00">/stl_extensions.hpp</text>
</a>
</g>
</g>
<!-- Node1&#45;&gt;Node7 -->
<g id="edge6" class="edge">
<title>Node1&#45;&gt;Node7</title>
<path fill="none" stroke="#63b8ff" d="M408.75,-334.3C355.57,-306.46 251.86,-244.28 199.88,-159.75 188.8,-141.74 181.87,-118.77 177.8,-101.21"/>
<polygon fill="#63b8ff" stroke="#63b8ff" points="181.04,-100.61 175.53,-91.56 174.2,-102.07 181.04,-100.61"/>
</g>
<!-- Node8 -->
<g id="node8" class="node">
<title>Node8</title>
<g id="a_node8"><a xlink:href="../../d6/dbe/nullables_2base_8hpp.html" target="_top" xlink:title=" ">
<polygon fill="white" stroke="#666666" points="503.12,-298.75 380.62,-298.75 380.62,-265.25 503.12,-265.25 503.12,-298.75"/>
<text text-anchor="start" x="388.62" y="-285.25" font-family="Helvetica,sans-Serif" font-size="10.00">Simple&#45;Utility/nullables</text>
<text text-anchor="middle" x="441.88" y="-272.5" font-family="Helvetica,sans-Serif" font-size="10.00">/base.hpp</text>
</a>
</g>
</g>
<!-- Node1&#45;&gt;Node8 -->
<g id="edge8" class="edge">
<title>Node1&#45;&gt;Node8</title>
<path fill="none" stroke="#63b8ff" d="M441.88,-334.5C441.88,-327.11 441.88,-318.12 441.88,-309.73"/>
<polygon fill="#63b8ff" stroke="#63b8ff" points="445.38,-309.88 441.88,-299.88 438.38,-309.88 445.38,-309.88"/>
</g>
<!-- Node7&#45;&gt;Node3 -->
<g id="edge7" class="edge">
<title>Node7&#45;&gt;Node3</title>
<path fill="none" stroke="#63b8ff" d="M218.78,-56.28C246.58,-46.46 281.62,-34.08 307.86,-24.81"/>
<polygon fill="#63b8ff" stroke="#63b8ff" points="308.9,-27.8 317.17,-21.17 306.57,-21.2 308.9,-27.8"/>
</g>
<!-- Node8&#45;&gt;Node7 -->
<g id="edge9" class="edge">
<title>Node8&#45;&gt;Node7</title>
<path fill="none" stroke="#63b8ff" d="M400.42,-264.75C354.53,-245.2 280.38,-208.77 229.88,-159.75 211.96,-142.36 196.56,-118.44 186.31,-100.36"/>
<polygon fill="#63b8ff" stroke="#63b8ff" points="188.9,-98.81 181.02,-91.74 182.77,-102.19 188.9,-98.81"/>
</g>
<!-- Node9 -->
<g id="node9" class="node">
<title>Node9</title>
<g id="a_node9"><a xlink:href="../../dd/dcd/operators_8hpp.html" target="_top" xlink:title=" ">
<polygon fill="white" stroke="#666666" points="360.75,-159.75 239,-159.75 239,-126.25 360.75,-126.25 360.75,-159.75"/>
<text text-anchor="start" x="247" y="-146.25" font-family="Helvetica,sans-Serif" font-size="10.00">Simple&#45;Utility/concepts</text>
<text text-anchor="middle" x="299.88" y="-133.5" font-family="Helvetica,sans-Serif" font-size="10.00">/operators.hpp</text>
</a>
</g>
</g>
<!-- Node8&#45;&gt;Node9 -->
<g id="edge10" class="edge">
<title>Node8&#45;&gt;Node9</title>
<path fill="none" stroke="#63b8ff" d="M418.67,-264.78C405.35,-255.06 388.6,-242.12 374.88,-229.25 354.49,-210.13 333.68,-186.03 319.16,-168.34"/>
<polygon fill="#63b8ff" stroke="#63b8ff" points="321.59,-166.78 312.58,-161.22 316.16,-171.19 321.59,-166.78"/>
</g>
<!-- Node10 -->
<g id="node10" class="node">
<title>Node10</title>
<g id="a_node10"><a xlink:href="../../d1/d76/functional_2base_8hpp.html" target="_top" xlink:title=" ">
<polygon fill="white" stroke="#666666" points="582.38,-159.75 455.38,-159.75 455.38,-126.25 582.38,-126.25 582.38,-159.75"/>
<text text-anchor="start" x="463.38" y="-146.25" font-family="Helvetica,sans-Serif" font-size="10.00">Simple&#45;Utility/functional</text>
<text text-anchor="middle" x="518.88" y="-133.5" font-family="Helvetica,sans-Serif" font-size="10.00">/base.hpp</text>
</a>
</g>
</g>
<!-- Node8&#45;&gt;Node10 -->
<g id="edge12" class="edge">
<title>Node8&#45;&gt;Node10</title>
<path fill="none" stroke="#63b8ff" d="M453.08,-264.98C459.95,-254.91 468.77,-241.53 475.88,-229.25 487.14,-209.76 498.56,-186.96 506.79,-169.84"/>
<polygon fill="#63b8ff" stroke="#63b8ff" points="510.34,-171.53 511.48,-161 504.02,-168.52 510.34,-171.53"/>
</g>
<!-- Node11 -->
<g id="node11" class="node">
<title>Node11</title>
<g id="a_node11"><a xlink:title=" ">
<polygon fill="#e0e0e0" stroke="#999999" points="698.88,-20.75 634.88,-20.75 634.88,0 698.88,0 698.88,-20.75"/>
<text text-anchor="middle" x="666.88" y="-7.25" font-family="Helvetica,sans-Serif" font-size="10.00">type_traits</text>
</a>
</g>
</g>
<!-- Node8&#45;&gt;Node11 -->
<g id="edge32" class="edge">
<title>Node8&#45;&gt;Node11</title>
<path fill="none" stroke="#63b8ff" d="M461.86,-264.91C483.69,-247.48 519.82,-219.05 551.88,-195.75 619.29,-146.76 667.91,-163.91 706.88,-90.25 713.84,-77.09 712.14,-70.68 706.88,-56.75 702.75,-45.85 694.69,-35.87 686.87,-28.06"/>
<polygon fill="#63b8ff" stroke="#63b8ff" points="690,-26.26 680.29,-22.03 685.24,-31.39 690,-26.26"/>
</g>
<!-- Node12 -->
<g id="node12" class="node">
<title>Node12</title>
<g id="a_node12"><a xlink:href="../../d4/d1c/unified__base_8hpp.html" target="_top" xlink:title=" ">
<polygon fill="white" stroke="#666666" points="401.88,-90.25 289.88,-90.25 289.88,-56.75 401.88,-56.75 401.88,-90.25"/>
<text text-anchor="start" x="297.88" y="-76.75" font-family="Helvetica,sans-Serif" font-size="10.00">Simple&#45;Utility/unified</text>
<text text-anchor="middle" x="345.88" y="-64" font-family="Helvetica,sans-Serif" font-size="10.00">_base.hpp</text>
</a>
</g>
</g>
<!-- Node8&#45;&gt;Node12 -->
<g id="edge30" class="edge">
<title>Node8&#45;&gt;Node12</title>
<path fill="none" stroke="#63b8ff" d="M429.85,-264.8C422.84,-254.88 414.17,-241.73 407.88,-229.25 385.89,-185.69 388.6,-171.31 369.88,-126.25 366.35,-117.76 362.22,-108.63 358.4,-100.43"/>
<polygon fill="#63b8ff" stroke="#63b8ff" points="361.22,-99.21 353.78,-91.67 354.89,-102.2 361.22,-99.21"/>
</g>
<!-- Node14 -->
<g id="node14" class="node">
<title>Node14</title>
<g id="a_node14"><a xlink:href="../../d9/d76/bind_8hpp.html" target="_top" xlink:title=" ">
<polygon fill="white" stroke="#666666" points="688.38,-229.25 561.38,-229.25 561.38,-195.75 688.38,-195.75 688.38,-229.25"/>
<text text-anchor="start" x="569.38" y="-215.75" font-family="Helvetica,sans-Serif" font-size="10.00">Simple&#45;Utility/functional</text>
<text text-anchor="middle" x="624.88" y="-203" font-family="Helvetica,sans-Serif" font-size="10.00">/operators/bind.hpp</text>
</a>
</g>
</g>
<!-- Node8&#45;&gt;Node14 -->
<g id="edge23" class="edge">
<title>Node8&#45;&gt;Node14</title>
<path fill="none" stroke="#63b8ff" d="M485.71,-264.83C511.31,-255.39 543.81,-243.4 570.96,-233.39"/>
<polygon fill="#63b8ff" stroke="#63b8ff" points="571.91,-236.4 580.08,-229.65 569.49,-229.83 571.91,-236.4"/>
</g>
<!-- Node18 -->
<g id="node18" class="node">
<title>Node18</title>
<g id="a_node18"><a xlink:title=" ">
<polygon fill="#e0e0e0" stroke="#999999" points="466.75,-222.88 417,-222.88 417,-202.12 466.75,-202.12 466.75,-222.88"/>
<text text-anchor="middle" x="441.88" y="-209.38" font-family="Helvetica,sans-Serif" font-size="10.00">cstddef</text>
</a>
</g>
</g>
<!-- Node8&#45;&gt;Node18 -->
<g id="edge31" class="edge">
<title>Node8&#45;&gt;Node18</title>
<path fill="none" stroke="#63b8ff" d="M441.88,-265C441.88,-255.8 441.88,-244.14 441.88,-234.24"/>
<polygon fill="#63b8ff" stroke="#63b8ff" points="445.38,-234.32 441.88,-224.32 438.38,-234.32 445.38,-234.32"/>
</g>
<!-- Node9&#45;&gt;Node3 -->
<g id="edge11" class="edge">
<title>Node9&#45;&gt;Node3</title>
<path fill="none" stroke="#63b8ff" d="M289.99,-125.75C280.54,-107.94 269.31,-78.93 280.88,-56.75 287.65,-43.75 300.05,-33.71 312.21,-26.42"/>
<polygon fill="#63b8ff" stroke="#63b8ff" points="313.71,-29.04 320.8,-21.16 310.35,-22.9 313.71,-29.04"/>
</g>
<!-- Node10&#45;&gt;Node3 -->
<g id="edge13" class="edge">
<title>Node10&#45;&gt;Node3</title>
<path fill="none" stroke="#63b8ff" d="M496.12,-125.93C482.24,-115.95 464.27,-102.69 448.88,-90.25 431.36,-76.1 428.58,-70.66 410.88,-56.75 397.68,-46.38 382.31,-35.6 369.83,-27.15"/>
<polygon fill="#63b8ff" stroke="#63b8ff" points="372.19,-23.84 361.93,-21.18 368.29,-29.66 372.19,-23.84"/>
</g>
<!-- Node10&#45;&gt;Node4 -->
<g id="edge14" class="edge">
<title>Node10&#45;&gt;Node4</title>
<path fill="none" stroke="#63b8ff" d="M554.32,-125.83C579.06,-114.55 611.76,-99.64 635.54,-88.79"/>
<polygon fill="#63b8ff" stroke="#63b8ff" points="636.8,-91.61 644.45,-84.27 633.9,-85.24 636.8,-91.61"/>
</g>
<!-- Node10&#45;&gt;Node6 -->
<g id="edge16" class="edge">
<title>Node10&#45;&gt;Node6</title>
<path fill="none" stroke="#63b8ff" d="M582.71,-127.68C637,-115.51 714.13,-98.21 765.52,-86.69"/>
<polygon fill="#63b8ff" stroke="#63b8ff" points="766.09,-89.93 775.08,-84.32 764.55,-83.09 766.09,-89.93"/>
</g>
<!-- Node10&#45;&gt;Node7 -->
<g id="edge20" class="edge">
<title>Node10&#45;&gt;Node7</title>
<path fill="none" stroke="#63b8ff" d="M455.01,-129.54C395.39,-117.91 306.54,-100.58 244.53,-88.48"/>
<polygon fill="#63b8ff" stroke="#63b8ff" points="245.53,-84.91 235.04,-86.43 244.19,-91.78 245.53,-84.91"/>
</g>
<!-- Node10&#45;&gt;Node11 -->
<g id="edge15" class="edge">
<title>Node10&#45;&gt;Node11</title>
<path fill="none" stroke="#63b8ff" d="M542.58,-125.85C556.48,-116.05 574.14,-103.01 588.88,-90.25 611.68,-70.49 635.79,-45.37 651.06,-28.86"/>
<polygon fill="#63b8ff" stroke="#63b8ff" points="653.02,-31.82 657.19,-22.08 647.86,-27.09 653.02,-31.82"/>
</g>
<!-- Node10&#45;&gt;Node12 -->
<g id="edge17" class="edge">
<title>Node10&#45;&gt;Node12</title>
<path fill="none" stroke="#63b8ff" d="M477.44,-125.83C453.45,-116.47 423.05,-104.61 397.52,-94.65"/>
<polygon fill="#63b8ff" stroke="#63b8ff" points="398.86,-91.03 388.27,-90.65 396.32,-97.55 398.86,-91.03"/>
</g>
<!-- Node13 -->
<g id="node13" class="node">
<title>Node13</title>
<g id="a_node13"><a xlink:href="../../d5/d8e/concepts_2utility_8hpp.html" target="_top" xlink:title=" ">
<polygon fill="white" stroke="#666666" points="579.75,-90.25 458,-90.25 458,-56.75 579.75,-56.75 579.75,-90.25"/>
<text text-anchor="start" x="466" y="-76.75" font-family="Helvetica,sans-Serif" font-size="10.00">Simple&#45;Utility/concepts</text>
<text text-anchor="middle" x="518.88" y="-64" font-family="Helvetica,sans-Serif" font-size="10.00">/utility.hpp</text>
</a>
</g>
</g>
<!-- Node10&#45;&gt;Node13 -->
<g id="edge21" class="edge">
<title>Node10&#45;&gt;Node13</title>
<path fill="none" stroke="#63b8ff" d="M518.88,-126C518.88,-118.61 518.88,-109.62 518.88,-101.23"/>
<polygon fill="#63b8ff" stroke="#63b8ff" points="522.38,-101.38 518.88,-91.38 515.38,-101.38 522.38,-101.38"/>
</g>
<!-- Node12&#45;&gt;Node3 -->
<g id="edge18" class="edge">
<title>Node12&#45;&gt;Node3</title>
<path fill="none" stroke="#63b8ff" d="M345.88,-56.44C345.88,-49.02 345.88,-40.11 345.88,-32.18"/>
<polygon fill="#63b8ff" stroke="#63b8ff" points="349.38,-32.22 345.88,-22.22 342.38,-32.22 349.38,-32.22"/>
</g>
<!-- Node12&#45;&gt;Node11 -->
<g id="edge19" class="edge">
<title>Node12&#45;&gt;Node11</title>
<path fill="none" stroke="#63b8ff" d="M402.16,-61.78C465.5,-49.72 567,-30.39 624.16,-19.51"/>
<polygon fill="#63b8ff" stroke="#63b8ff" points="624.47,-22.82 633.64,-17.51 623.16,-15.95 624.47,-22.82"/>
</g>
<!-- Node13&#45;&gt;Node3 -->
<g id="edge22" class="edge">
<title>Node13&#45;&gt;Node3</title>
<path fill="none" stroke="#63b8ff" d="M472.97,-56.28C445.17,-46.46 410.13,-34.08 383.89,-24.81"/>
<polygon fill="#63b8ff" stroke="#63b8ff" points="385.18,-21.2 374.58,-21.17 382.85,-27.8 385.18,-21.2"/>
</g>
<!-- Node14&#45;&gt;Node10 -->
<g id="edge24" class="edge">
<title>Node14&#45;&gt;Node10</title>
<path fill="none" stroke="#63b8ff" d="M599.49,-195.33C585.59,-186.48 568.18,-175.39 553.09,-165.79"/>
<polygon fill="#63b8ff" stroke="#63b8ff" points="555.37,-162.46 545.06,-160.04 551.61,-168.36 555.37,-162.46"/>
</g>
<!-- Node15 -->
<g id="node15" class="node">
<title>Node15</title>
<g id="a_node15"><a xlink:href="../../d2/d30/general_8hpp.html" target="_top" xlink:title=" ">
<polygon fill="white" stroke="#666666" points="1008.12,-90.25 903.62,-90.25 903.62,-56.75 1008.12,-56.75 1008.12,-90.25"/>
<text text-anchor="start" x="911.62" y="-76.75" font-family="Helvetica,sans-Serif" font-size="10.00">Simple&#45;Utility/tuple</text>
<text text-anchor="middle" x="955.88" y="-64" font-family="Helvetica,sans-Serif" font-size="10.00">/general.hpp</text>
</a>
</g>
</g>
<!-- Node14&#45;&gt;Node15 -->
<g id="edge25" class="edge">
<title>Node14&#45;&gt;Node15</title>
<path fill="none" stroke="#63b8ff" d="M663.82,-195.38C724.37,-170.32 840.98,-122.06 907.06,-94.7"/>
<polygon fill="#63b8ff" stroke="#63b8ff" points="907.92,-97.72 915.82,-90.66 905.25,-91.25 907.92,-97.72"/>
</g>
<!-- Node15&#45;&gt;Node3 -->
<g id="edge26" class="edge">
<title>Node15&#45;&gt;Node3</title>
<path fill="none" stroke="#63b8ff" d="M903.42,-58.35C900.54,-57.76 897.68,-57.22 894.88,-56.75 705.65,-24.74 475.75,-15.03 385.21,-12.33"/>
<polygon fill="#63b8ff" stroke="#63b8ff" points="385.47,-8.81 375.37,-12.02 385.27,-15.81 385.47,-8.81"/>
</g>
<!-- Node15&#45;&gt;Node11 -->
<g id="edge28" class="edge">
<title>Node15&#45;&gt;Node11</title>
<path fill="none" stroke="#63b8ff" d="M903.35,-58.74C900.49,-58.05 897.65,-57.38 894.88,-56.75 830.72,-42.1 755.79,-27.7 709.84,-19.18"/>
<polygon fill="#63b8ff" stroke="#63b8ff" points="710.56,-15.57 700.09,-17.2 709.29,-22.45 710.56,-15.57"/>
</g>
<!-- Node16 -->
<g id="node16" class="node">
<title>Node16</title>
<g id="a_node16"><a xlink:title=" ">
<polygon fill="#e0e0e0" stroke="#999999" points="946.5,-20.75 907.25,-20.75 907.25,0 946.5,0 946.5,-20.75"/>
<text text-anchor="middle" x="926.88" y="-7.25" font-family="Helvetica,sans-Serif" font-size="10.00">tuple</text>
</a>
</g>
</g>
<!-- Node15&#45;&gt;Node16 -->
<g id="edge27" class="edge">
<title>Node15&#45;&gt;Node16</title>
<path fill="none" stroke="#63b8ff" d="M948.26,-56.44C944.57,-48.67 940.11,-39.27 936.22,-31.07"/>
<polygon fill="#63b8ff" stroke="#63b8ff" points="938.99,-29.75 931.54,-22.22 932.67,-32.75 938.99,-29.75"/>
</g>
<!-- Node17 -->
<g id="node17" class="node">
<title>Node17</title>
<g id="a_node17"><a xlink:title=" ">
<polygon fill="#e0e0e0" stroke="#999999" points="1005.25,-20.75 964.5,-20.75 964.5,0 1005.25,0 1005.25,-20.75"/>
<text text-anchor="middle" x="984.88" y="-7.25" font-family="Helvetica,sans-Serif" font-size="10.00">utility</text>
</a>
</g>
</g>
<!-- Node15&#45;&gt;Node17 -->
<g id="edge29" class="edge">
<title>Node15&#45;&gt;Node17</title>
<path fill="none" stroke="#63b8ff" d="M963.49,-56.44C967.18,-48.67 971.64,-39.27 975.53,-31.07"/>
<polygon fill="#63b8ff" stroke="#63b8ff" points="979.08,-32.75 980.21,-22.22 972.76,-29.75 979.08,-32.75"/>
</g>
</g>
</svg>
        <g id="navigator" transform="translate(0 0)" fill="#404254">
                <rect fill="#f2f5e9" fill-opacity="0.5" stroke="#606060" stroke-width=".5" x="0" y="0" width="60" height="60"/>
                <use id="zoomplus" xlink:href="#zoomPlus" x="17" y="9" onmousedown="handleZoom(evt,'in')"/>
                <use id="zoomminus" xlink:href="#zoomMin" x="42" y="9" onmousedown="handleZoom(evt,'out')"/>
                <use id="reset" xlink:href="#resetDef" x="30" y="36" onmousedown="handleReset()"/>
                <g id="arrowUp" xlink:href="#dirArrow" transform="translate(30 24)" onmousedown="handlePan(0,-1)">
                  <use xlink:href="#rim" fill="#404040">
                        <set attributeName="fill" to="#808080" begin="arrowUp.mouseover" end="arrowUp.mouseout"/>
                  </use>
                  <path fill="none" stroke="white" stroke-width="1.5" d="M0,-3.0v7 M-2.5,-0.5L0,-3.0L2.5,-0.5"/>
                </g>
                <g id="arrowRight" xlink:href="#dirArrow" transform="rotate(90) translate(36 -43)" onmousedown="handlePan(1,0)">
                  <use xlink:href="#rim" fill="#404040">
                        <set attributeName="fill" to="#808080" begin="arrowRight.mouseover" end="arrowRight.mouseout"/>
                  </use>
                  <path fill="none" stroke="white" stroke-width="1.5" d="M0,-3.0v7 M-2.5,-0.5L0,-3.0L2.5,-0.5"/>
                </g>
                <g id="arrowDown" xlink:href="#dirArrow" transform="rotate(180) translate(-30 -48)" onmousedown="handlePan(0,1)">
                  <use xlink:href="#rim" fill="#404040">
                        <set attributeName="fill" to="#808080" begin="arrowDown.mouseover" end="arrowDown.mouseout"/>
                  </use>
                  <path fill="none" stroke="white" stroke-width="1.5" d="M0,-3.0v7 M-2.5,-0.5L0,-3.0L2.5,-0.5"/>
                </g>
                <g id="arrowLeft" xlink:href="#dirArrow" transform="rotate(270) translate(-36 17)" onmousedown="handlePan(-1,0)">
                  <use xlink:href="#rim" fill="#404040">
                        <set attributeName="fill" to="#808080" begin="arrowLeft.mouseover" end="arrowLeft.mouseout"/>
                  </use>
                  <path fill="none" stroke="white" stroke-width="1.5" d="M0,-3.0v7 M-2.5,-0.5L0,-3.0L2.5,-0.5"/>
                </g>
        </g>
        <svg viewBox="0 0 15 15" width="100%" height="30px" preserveAspectRatio="xMaxYMin meet">
         <g id="arrow_out" transform="scale(0.3 0.3)">
          <a xlink:href="unique__handle_8hpp__incl_org.svg" target="_base">
           <rect id="button" ry="5" rx="5" y="6" x="6" height="38" width="38"
                fill="#f2f5e9" fill-opacity="0.5" stroke="#606060" stroke-width="1.0"/>
           <path id="arrow"
             d="M 11.500037,31.436501 C 11.940474,20.09759 22.043105,11.32322 32.158766,21.979434 L 37.068811,17.246167 C 37.068811,17.246167 37.088388,32 37.088388,32 L 22.160133,31.978069 C 22.160133,31.978069 26.997745,27.140456 26.997745,27.140456 C 18.528582,18.264221 13.291696,25.230495 11.500037,31.436501 z"
             style="fill:#404040;"/>
          </a>
         </g>
        </svg>
</svg>
