<?xml version="1.0" encoding="UTF-8" standalone="no"?>
<!DOCTYPE svg PUBLIC "-//W3C//DTD SVG 1.1//EN"
 "http://www.w3.org/Graphics/SVG/1.1/DTD/svg11.dtd">
<!-- Generated by graphviz version 2.43.0 (0)
 -->
<!-- Title: /home/runner/work/Simple&#45;Utility/Simple&#45;Utility/include/Simple&#45;Utility/unique_handle.hpp Pages: 1 -->
<!--zoomable 385 -->
<svg id="main" version="1.1" xmlns="http://www.w3.org/2000/svg" xmlns:xlink="http://www.w3.org/1999/xlink" xml:space="preserve" onload="init(evt)">
<style type="text/css"><![CDATA[
.edge:hover path { stroke: red; }
.edge:hover polygon { stroke: red; fill: red; }
]]></style>
<script type="text/javascript"><![CDATA[
var edges = document.getElementsByTagName('g');
if (edges && edges.length) {
  for (var i=0;i<edges.length;i++) {
    if (edges[i].id.substr(0,4)=='edge') {
      edges[i].setAttribute('class','edge');
    }
  }
}
]]></script>
        <defs>
                <circle id="rim" cx="0" cy="0" r="7"/>
                <circle id="rim2" cx="0" cy="0" r="3.5"/>
                <g id="zoomPlus">
                        <use xlink:href="#rim" fill="#404040">
                                <set attributeName="fill" to="#808080" begin="zoomplus.mouseover" end="zoomplus.mouseout"/>
                        </use>
                        <path d="M-4,0h8M0,-4v8" fill="none" stroke="white" stroke-width="1.5" pointer-events="none"/>
                </g>
                <g id="zoomMin">
                        <use xlink:href="#rim" fill="#404040">
                                <set attributeName="fill" to="#808080" begin="zoomminus.mouseover" end="zoomminus.mouseout"/>
                        </use>
                        <path d="M-4,0h8" fill="none" stroke="white" stroke-width="1.5" pointer-events="none"/>
                </g>
                <g id="dirArrow">
                        <path fill="none" stroke="white" stroke-width="1.5" d="M0,-3.0v7 M-2.5,-0.5L0,-3.0L2.5,-0.5"/>
                </g>
               <g id="resetDef">
                       <use xlink:href="#rim2" fill="#404040">
                               <set attributeName="fill" to="#808080" begin="reset.mouseover" end="reset.mouseout"/>
                       </use>
               </g>
        </defs>

<script type="text/javascript">
var viewWidth = 1068;
var viewHeight = 385;
var sectionId = 'dynsection-0';
</script>
<script xlink:href="../../svgpan.js"/>
<svg id="graph" class="graph">
<g id="viewport">
<title>/home/runner/work/Simple&#45;Utility/Simple&#45;Utility/include/Simple&#45;Utility/unique_handle.hpp</title>
<polygon fill="white" stroke="transparent" points="-4,4 -4,-381 1063.5,-381 1063.5,4 -4,4"/>
<!-- Node1 -->
<g id="node1" class="node">
<title>Node1</title>
<g id="a_node1"><a xlink:title=" ">
<polygon fill="#bfbfbf" stroke="black" points="389.5,-324.5 389.5,-376.5 535.5,-376.5 535.5,-324.5 389.5,-324.5"/>
<text text-anchor="start" x="397.5" y="-364.5" font-family="Helvetica,sans-Serif" font-size="10.00">/home/runner/work/Simple</text>
<text text-anchor="start" x="397.5" y="-353.5" font-family="Helvetica,sans-Serif" font-size="10.00">&#45;Utility/Simple&#45;Utility</text>
<text text-anchor="start" x="397.5" y="-342.5" font-family="Helvetica,sans-Serif" font-size="10.00">/include/Simple&#45;Utility</text>
<text text-anchor="middle" x="462.5" y="-331.5" font-family="Helvetica,sans-Serif" font-size="10.00">/unique_handle.hpp</text>
</a>
</g>
</g>
<!-- Node2 -->
<g id="node2" class="node">
<title>Node2</title>
<g id="a_node2"><a xlink:title=" ">
<polygon fill="white" stroke="#bfbfbf" points="0,-263 0,-282 59,-282 59,-263 0,-263"/>
<text text-anchor="middle" x="29.5" y="-270" font-family="Helvetica,sans-Serif" font-size="10.00">compare</text>
</a>
</g>
</g>
<!-- Node1&#45;&gt;Node2 -->
<g id="edge1" class="edge">
<title>Node1&#45;&gt;Node2</title>
<path fill="none" stroke="midnightblue" d="M389.4,-341.52C310.69,-332.1 182.15,-314.31 73.5,-288 70.03,-287.16 66.45,-286.18 62.89,-285.12"/>
<polygon fill="midnightblue" stroke="midnightblue" points="63.63,-281.69 53.05,-282.04 61.54,-288.37 63.63,-281.69"/>
</g>
<!-- Node3 -->
<g id="node3" class="node">
<title>Node3</title>
<g id="a_node3"><a xlink:title=" ">
<polygon fill="white" stroke="#bfbfbf" points="333.5,-0.5 333.5,-19.5 393.5,-19.5 393.5,-0.5 333.5,-0.5"/>
<text text-anchor="middle" x="363.5" y="-7.5" font-family="Helvetica,sans-Serif" font-size="10.00">concepts</text>
</a>
</g>
</g>
<!-- Node1&#45;&gt;Node3 -->
<g id="edge2" class="edge">
<title>Node1&#45;&gt;Node3</title>
<path fill="none" stroke="midnightblue" d="M389.31,-336.97C280.17,-316.18 87.5,-270.43 87.5,-206.5 87.5,-206.5 87.5,-206.5 87.5,-137.5 87.5,-100.31 79.48,-81.56 106.5,-56 137.05,-27.11 258.47,-16.45 322.88,-12.78"/>
<polygon fill="midnightblue" stroke="midnightblue" points="323.28,-16.26 333.08,-12.23 322.91,-9.27 323.28,-16.26"/>
</g>
<!-- Node4 -->
<g id="node4" class="node">
<title>Node4</title>
<g id="a_node4"><a xlink:title=" ">
<polygon fill="white" stroke="#bfbfbf" points="668,-62 668,-81 733,-81 733,-62 668,-62"/>
<text text-anchor="middle" x="700.5" y="-69" font-family="Helvetica,sans-Serif" font-size="10.00">functional</text>
</a>
</g>
</g>
<!-- Node1&#45;&gt;Node4 -->
<g id="edge3" class="edge">
<title>Node1&#45;&gt;Node4</title>
<path fill="none" stroke="midnightblue" d="M535.54,-336.42C598.79,-320.81 686.52,-287.9 728.5,-221 754.56,-179.47 727.65,-119.44 711.22,-90.05"/>
<polygon fill="midnightblue" stroke="midnightblue" points="714.2,-88.21 706.14,-81.33 708.15,-91.73 714.2,-88.21"/>
</g>
<!-- Node5 -->
<g id="node5" class="node">
<title>Node5</title>
<g id="a_node5"><a xlink:title=" ">
<polygon fill="white" stroke="#bfbfbf" points="813.5,-263 813.5,-282 869.5,-282 869.5,-263 813.5,-263"/>
<text text-anchor="middle" x="841.5" y="-270" font-family="Helvetica,sans-Serif" font-size="10.00">optional</text>
</a>
</g>
</g>
<!-- Node1&#45;&gt;Node5 -->
<g id="edge4" class="edge">
<title>Node1&#45;&gt;Node5</title>
<path fill="none" stroke="midnightblue" d="M535.51,-339.45C604.25,-329.22 709.76,-311.53 799.5,-288 802.54,-287.2 805.67,-286.29 808.79,-285.33"/>
<polygon fill="midnightblue" stroke="midnightblue" points="810.17,-288.56 818.59,-282.12 807.99,-281.91 810.17,-288.56"/>
</g>
<!-- Node6 -->
<g id="node6" class="node">
<title>Node6</title>
<g id="a_node6"><a xlink:href="../../d8/dd2/_config_8hpp.html" target="_top" xlink:title=" ">
<polygon fill="white" stroke="black" points="790,-62 790,-81 929,-81 929,-62 790,-62"/>
<text text-anchor="middle" x="859.5" y="-69" font-family="Helvetica,sans-Serif" font-size="10.00">Simple&#45;Utility/Config.hpp</text>
</a>
</g>
</g>
<!-- Node1&#45;&gt;Node6 -->
<g id="edge5" class="edge">
<title>Node1&#45;&gt;Node6</title>
<path fill="none" stroke="midnightblue" d="M535.64,-341.81C583.58,-334.05 645.95,-318.6 693.5,-288 773.68,-236.4 830.64,-132.16 851.13,-90.4"/>
<polygon fill="midnightblue" stroke="midnightblue" points="854.38,-91.73 855.55,-81.2 848.07,-88.7 854.38,-91.73"/>
</g>
<!-- Node7 -->
<g id="node7" class="node">
<title>Node7</title>
<g id="a_node7"><a xlink:href="../../dd/d5c/stl__extensions_8hpp.html" target="_top" xlink:title=" ">
<polygon fill="white" stroke="black" points="116,-56.5 116,-86.5 247,-86.5 247,-56.5 116,-56.5"/>
<text text-anchor="start" x="124" y="-74.5" font-family="Helvetica,sans-Serif" font-size="10.00">Simple&#45;Utility/concepts</text>
<text text-anchor="middle" x="181.5" y="-63.5" font-family="Helvetica,sans-Serif" font-size="10.00">/stl_extensions.hpp</text>
</a>
</g>
</g>
<!-- Node1&#45;&gt;Node7 -->
<g id="edge6" class="edge">
<title>Node1&#45;&gt;Node7</title>
<path fill="none" stroke="midnightblue" d="M413.09,-324.46C355.34,-292.65 261.02,-232.35 208.5,-154 196.82,-136.57 189.82,-113.66 185.88,-96.57"/>
<polygon fill="midnightblue" stroke="midnightblue" points="189.31,-95.85 183.82,-86.79 182.46,-97.29 189.31,-95.85"/>
</g>
<!-- Node8 -->
<g id="node8" class="node">
<title>Node8</title>
<g id="a_node8"><a xlink:href="../../d6/dbe/nullables_2base_8hpp.html" target="_top" xlink:title=" ">
<polygon fill="white" stroke="black" points="397,-257.5 397,-287.5 528,-287.5 528,-257.5 397,-257.5"/>
<text text-anchor="start" x="405" y="-275.5" font-family="Helvetica,sans-Serif" font-size="10.00">Simple&#45;Utility/nullables</text>
<text text-anchor="middle" x="462.5" y="-264.5" font-family="Helvetica,sans-Serif" font-size="10.00">/base.hpp</text>
</a>
</g>
</g>
<!-- Node1&#45;&gt;Node8 -->
<g id="edge8" class="edge">
<title>Node1&#45;&gt;Node8</title>
<path fill="none" stroke="midnightblue" d="M462.5,-324.19C462.5,-315.79 462.5,-306.44 462.5,-298.09"/>
<polygon fill="midnightblue" stroke="midnightblue" points="466,-297.85 462.5,-287.85 459,-297.85 466,-297.85"/>
</g>
<!-- Node7&#45;&gt;Node3 -->
<g id="edge7" class="edge">
<title>Node7&#45;&gt;Node3</title>
<path fill="none" stroke="midnightblue" d="M224.63,-56.4C256.08,-46.12 298.19,-32.35 327.77,-22.68"/>
<polygon fill="midnightblue" stroke="midnightblue" points="328.87,-26.01 337.28,-19.57 326.69,-19.35 328.87,-26.01"/>
</g>
<!-- Node8&#45;&gt;Node7 -->
<g id="edge9" class="edge">
<title>Node8&#45;&gt;Node7</title>
<path fill="none" stroke="midnightblue" d="M421.95,-257.45C373.96,-239.3 293.64,-204.01 238.5,-154 219.94,-137.17 204.1,-113.23 193.87,-95.65"/>
<polygon fill="midnightblue" stroke="midnightblue" points="196.74,-93.61 188.78,-86.62 190.64,-97.05 196.74,-93.61"/>
</g>
<!-- Node9 -->
<g id="node9" class="node">
<title>Node9</title>
<g id="a_node9"><a xlink:href="../../dd/dcd/operators_8hpp.html" target="_top" xlink:title=" ">
<polygon fill="white" stroke="black" points="248,-123.5 248,-153.5 379,-153.5 379,-123.5 248,-123.5"/>
<text text-anchor="start" x="256" y="-141.5" font-family="Helvetica,sans-Serif" font-size="10.00">Simple&#45;Utility/concepts</text>
<text text-anchor="middle" x="313.5" y="-130.5" font-family="Helvetica,sans-Serif" font-size="10.00">/operators.hpp</text>
</a>
</g>
</g>
<!-- Node8&#45;&gt;Node9 -->
<g id="edge10" class="edge">
<title>Node8&#45;&gt;Node9</title>
<path fill="none" stroke="midnightblue" d="M441.29,-257.32C427.29,-247.64 408.77,-234.21 393.5,-221 371.72,-202.16 348.91,-178.47 333.24,-161.49"/>
<polygon fill="midnightblue" stroke="midnightblue" points="335.49,-158.76 326.16,-153.74 330.32,-163.49 335.49,-158.76"/>
</g>
<!-- Node10 -->
<g id="node10" class="node">
<title>Node10</title>
<g id="a_node10"><a xlink:href="../../d1/d76/functional_2base_8hpp.html" target="_top" xlink:title=" ">
<polygon fill="white" stroke="black" points="477.5,-123.5 477.5,-153.5 613.5,-153.5 613.5,-123.5 477.5,-123.5"/>
<text text-anchor="start" x="485.5" y="-141.5" font-family="Helvetica,sans-Serif" font-size="10.00">Simple&#45;Utility/functional</text>
<text text-anchor="middle" x="545.5" y="-130.5" font-family="Helvetica,sans-Serif" font-size="10.00">/base.hpp</text>
</a>
</g>
</g>
<!-- Node8&#45;&gt;Node10 -->
<g id="edge12" class="edge">
<title>Node8&#45;&gt;Node10</title>
<path fill="none" stroke="midnightblue" d="M472.9,-257.11C480.02,-247.11 489.57,-233.4 497.5,-221 509.93,-201.57 523.17,-178.93 532.58,-162.45"/>
<polygon fill="midnightblue" stroke="midnightblue" points="535.76,-163.96 537.65,-153.53 529.67,-160.5 535.76,-163.96"/>
</g>
<!-- Node11 -->
<g id="node11" class="node">
<title>Node11</title>
<g id="a_node11"><a xlink:title=" ">
<polygon fill="white" stroke="#bfbfbf" points="666,-0.5 666,-19.5 735,-19.5 735,-0.5 666,-0.5"/>
<text text-anchor="middle" x="700.5" y="-7.5" font-family="Helvetica,sans-Serif" font-size="10.00">type_traits</text>
</a>
</g>
</g>
<!-- Node8&#45;&gt;Node11 -->
<g id="edge32" class="edge">
<title>Node8&#45;&gt;Node11</title>
<path fill="none" stroke="midnightblue" d="M481.21,-257.21C503.2,-240.57 540.95,-212.51 574.5,-190 646.92,-141.42 699,-163.15 741.5,-87 748.21,-74.97 746.48,-68.85 741.5,-56 737.05,-44.5 728.13,-34.13 719.75,-26.25"/>
<polygon fill="midnightblue" stroke="midnightblue" points="721.87,-23.46 712.04,-19.51 717.26,-28.73 721.87,-23.46"/>
</g>
<!-- Node12 -->
<g id="node12" class="node">
<title>Node12</title>
<g id="a_node12"><a xlink:href="../../d4/d1c/unified__base_8hpp.html" target="_top" xlink:title=" ">
<polygon fill="white" stroke="black" points="303.5,-56.5 303.5,-86.5 423.5,-86.5 423.5,-56.5 303.5,-56.5"/>
<text text-anchor="start" x="311.5" y="-74.5" font-family="Helvetica,sans-Serif" font-size="10.00">Simple&#45;Utility/unified</text>
<text text-anchor="middle" x="363.5" y="-63.5" font-family="Helvetica,sans-Serif" font-size="10.00">_base.hpp</text>
</a>
</g>
</g>
<!-- Node8&#45;&gt;Node12 -->
<g id="edge30" class="edge">
<title>Node8&#45;&gt;Node12</title>
<path fill="none" stroke="midnightblue" d="M450.8,-257.09C443.23,-247.31 433.51,-233.86 426.5,-221 404.07,-179.84 406.24,-165.97 387.5,-123 383.55,-113.95 378.95,-104.12 374.84,-95.56"/>
<polygon fill="midnightblue" stroke="midnightblue" points="377.98,-94.01 370.47,-86.54 371.68,-97.06 377.98,-94.01"/>
</g>
<!-- Node14 -->
<g id="node14" class="node">
<title>Node14</title>
<g id="a_node14"><a xlink:href="../../d9/d76/bind_8hpp.html" target="_top" xlink:title=" ">
<polygon fill="white" stroke="black" points="583.5,-190.5 583.5,-220.5 719.5,-220.5 719.5,-190.5 583.5,-190.5"/>
<text text-anchor="start" x="591.5" y="-208.5" font-family="Helvetica,sans-Serif" font-size="10.00">Simple&#45;Utility/functional</text>
<text text-anchor="middle" x="651.5" y="-197.5" font-family="Helvetica,sans-Serif" font-size="10.00">/operators/bind.hpp</text>
</a>
</g>
</g>
<!-- Node8&#45;&gt;Node14 -->
<g id="edge23" class="edge">
<title>Node8&#45;&gt;Node14</title>
<path fill="none" stroke="midnightblue" d="M503.51,-257.4C532.12,-247.56 570.47,-234.37 600.97,-223.88"/>
<polygon fill="midnightblue" stroke="midnightblue" points="602.25,-227.14 610.57,-220.58 599.98,-220.52 602.25,-227.14"/>
</g>
<!-- Node18 -->
<g id="node18" class="node">
<title>Node18</title>
<g id="a_node18"><a xlink:title=" ">
<polygon fill="white" stroke="#bfbfbf" points="436,-196 436,-215 489,-215 489,-196 436,-196"/>
<text text-anchor="middle" x="462.5" y="-203" font-family="Helvetica,sans-Serif" font-size="10.00">cstddef</text>
</a>
</g>
</g>
<!-- Node8&#45;&gt;Node18 -->
<g id="edge31" class="edge">
<title>Node8&#45;&gt;Node18</title>
<path fill="none" stroke="midnightblue" d="M462.5,-257.4C462.5,-248.06 462.5,-235.71 462.5,-225.52"/>
<polygon fill="midnightblue" stroke="midnightblue" points="466,-225.19 462.5,-215.19 459,-225.19 466,-225.19"/>
</g>
<!-- Node9&#45;&gt;Node3 -->
<g id="edge11" class="edge">
<title>Node9&#45;&gt;Node3</title>
<path fill="none" stroke="midnightblue" d="M304.53,-123.44C294.97,-106.53 282.74,-77.72 294.5,-56 302.25,-41.7 316.73,-31.22 330.44,-23.99"/>
<polygon fill="midnightblue" stroke="midnightblue" points="332.24,-27.01 339.71,-19.5 329.19,-20.71 332.24,-27.01"/>
</g>
<!-- Node10&#45;&gt;Node3 -->
<g id="edge13" class="edge">
<title>Node10&#45;&gt;Node3</title>
<path fill="none" stroke="midnightblue" d="M523.47,-123.43C508.33,-113.58 487.9,-99.91 470.5,-87 453,-74.01 450.1,-68.86 432.5,-56 417.49,-45.03 399.93,-33.6 386.28,-25"/>
<polygon fill="midnightblue" stroke="midnightblue" points="387.87,-21.87 377.54,-19.54 384.17,-27.81 387.87,-21.87"/>
</g>
<!-- Node10&#45;&gt;Node4 -->
<g id="edge14" class="edge">
<title>Node10&#45;&gt;Node4</title>
<path fill="none" stroke="midnightblue" d="M579.13,-123.4C606.45,-111.94 644.61,-95.94 670.81,-84.95"/>
<polygon fill="midnightblue" stroke="midnightblue" points="672.35,-88.1 680.21,-81.01 669.64,-81.65 672.35,-88.1"/>
</g>
<!-- Node10&#45;&gt;Node6 -->
<g id="edge16" class="edge">
<title>Node10&#45;&gt;Node6</title>
<path fill="none" stroke="midnightblue" d="M613.25,-123.48C671.85,-111.34 755.3,-94.07 808.42,-83.07"/>
<polygon fill="midnightblue" stroke="midnightblue" points="809.22,-86.48 818.3,-81.03 807.8,-79.63 809.22,-86.48"/>
</g>
<!-- Node10&#45;&gt;Node7 -->
<g id="edge20" class="edge">
<title>Node10&#45;&gt;Node7</title>
<path fill="none" stroke="midnightblue" d="M477.46,-125.35C414.86,-114.17 322.16,-97.62 257.23,-86.02"/>
<polygon fill="midnightblue" stroke="midnightblue" points="257.52,-82.52 247.06,-84.21 256.29,-89.41 257.52,-82.52"/>
</g>
<!-- Node10&#45;&gt;Node11 -->
<g id="edge15" class="edge">
<title>Node10&#45;&gt;Node11</title>
<path fill="none" stroke="midnightblue" d="M568.16,-123.34C583.15,-113.66 603,-100.24 619.5,-87 643.32,-67.89 668.67,-43.33 684.54,-27.38"/>
<polygon fill="midnightblue" stroke="midnightblue" points="687.39,-29.48 691.92,-19.9 682.4,-24.57 687.39,-29.48"/>
</g>
<!-- Node10&#45;&gt;Node12 -->
<g id="edge17" class="edge">
<title>Node10&#45;&gt;Node12</title>
<path fill="none" stroke="midnightblue" d="M506.01,-123.4C478.58,-113.6 441.85,-100.48 412.54,-90.02"/>
<polygon fill="midnightblue" stroke="midnightblue" points="413.51,-86.64 402.91,-86.58 411.15,-93.24 413.51,-86.64"/>
</g>
<!-- Node13 -->
<g id="node13" class="node">
<title>Node13</title>
<g id="a_node13"><a xlink:href="../../d5/d8e/concepts_2utility_8hpp.html" target="_top" xlink:title=" ">
<polygon fill="white" stroke="black" points="480,-56.5 480,-86.5 611,-86.5 611,-56.5 480,-56.5"/>
<text text-anchor="start" x="488" y="-74.5" font-family="Helvetica,sans-Serif" font-size="10.00">Simple&#45;Utility/concepts</text>
<text text-anchor="middle" x="545.5" y="-63.5" font-family="Helvetica,sans-Serif" font-size="10.00">/utility.hpp</text>
</a>
</g>
</g>
<!-- Node10&#45;&gt;Node13 -->
<g id="edge21" class="edge">
<title>Node10&#45;&gt;Node13</title>
<path fill="none" stroke="midnightblue" d="M545.5,-123.4C545.5,-115.64 545.5,-105.81 545.5,-96.86"/>
<polygon fill="midnightblue" stroke="midnightblue" points="549,-96.58 545.5,-86.58 542,-96.58 549,-96.58"/>
</g>
<!-- Node12&#45;&gt;Node3 -->
<g id="edge18" class="edge">
<title>Node12&#45;&gt;Node3</title>
<path fill="none" stroke="midnightblue" d="M363.5,-56.4C363.5,-48.47 363.5,-38.46 363.5,-29.86"/>
<polygon fill="midnightblue" stroke="midnightblue" points="367,-29.66 363.5,-19.66 360,-29.66 367,-29.66"/>
</g>
<!-- Node12&#45;&gt;Node11 -->
<g id="edge19" class="edge">
<title>Node12&#45;&gt;Node11</title>
<path fill="none" stroke="midnightblue" d="M423.75,-59.86C490.5,-48.08 596.57,-29.35 656.14,-18.83"/>
<polygon fill="midnightblue" stroke="midnightblue" points="656.76,-22.28 666,-17.09 655.54,-15.38 656.76,-22.28"/>
</g>
<!-- Node13&#45;&gt;Node3 -->
<g id="edge22" class="edge">
<title>Node13&#45;&gt;Node3</title>
<path fill="none" stroke="midnightblue" d="M502.37,-56.4C470.92,-46.12 428.81,-32.35 399.23,-22.68"/>
<polygon fill="midnightblue" stroke="midnightblue" points="400.31,-19.35 389.72,-19.57 398.13,-26.01 400.31,-19.35"/>
</g>
<!-- Node14&#45;&gt;Node10 -->
<g id="edge24" class="edge">
<title>Node14&#45;&gt;Node10</title>
<path fill="none" stroke="midnightblue" d="M628.5,-190.4C613.5,-181.2 593.71,-169.07 577.23,-158.95"/>
<polygon fill="midnightblue" stroke="midnightblue" points="578.81,-155.82 568.46,-153.58 575.15,-161.79 578.81,-155.82"/>
</g>
<!-- Node15 -->
<g id="node15" class="node">
<title>Node15</title>
<g id="a_node15"><a xlink:href="../../d2/d30/general_8hpp.html" target="_top" xlink:title=" ">
<polygon fill="white" stroke="black" points="947.5,-56.5 947.5,-86.5 1059.5,-86.5 1059.5,-56.5 947.5,-56.5"/>
<text text-anchor="start" x="955.5" y="-74.5" font-family="Helvetica,sans-Serif" font-size="10.00">Simple&#45;Utility/tuple</text>
<text text-anchor="middle" x="1003.5" y="-63.5" font-family="Helvetica,sans-Serif" font-size="10.00">/general.hpp</text>
</a>
</g>
</g>
<!-- Node14&#45;&gt;Node15 -->
<g id="edge25" class="edge">
<title>Node14&#45;&gt;Node15</title>
<path fill="none" stroke="midnightblue" d="M688.84,-190.5C753.39,-166.29 885.72,-116.67 956.46,-90.14"/>
<polygon fill="midnightblue" stroke="midnightblue" points="957.88,-93.34 966.02,-86.56 955.42,-86.79 957.88,-93.34"/>
</g>
<!-- Node15&#45;&gt;Node3 -->
<g id="edge26" class="edge">
<title>Node15&#45;&gt;Node3</title>
<path fill="none" stroke="midnightblue" d="M947.22,-57.43C944.28,-56.91 941.36,-56.43 938.5,-56 739.22,-26.13 497.92,-15.41 403.81,-12.2"/>
<polygon fill="midnightblue" stroke="midnightblue" points="403.71,-8.69 393.6,-11.86 403.48,-15.69 403.71,-8.69"/>
</g>
<!-- Node15&#45;&gt;Node11 -->
<g id="edge28" class="edge">
<title>Node15&#45;&gt;Node11</title>
<path fill="none" stroke="midnightblue" d="M947.15,-57.81C944.23,-57.19 941.33,-56.58 938.5,-56 871.35,-42.17 793.2,-27.7 745.3,-19.02"/>
<polygon fill="midnightblue" stroke="midnightblue" points="745.72,-15.54 735.26,-17.2 744.47,-22.43 745.72,-15.54"/>
</g>
<!-- Node16 -->
<g id="node16" class="node">
<title>Node16</title>
<g id="a_node16"><a xlink:title=" ">
<polygon fill="white" stroke="#bfbfbf" points="952,-0.5 952,-19.5 993,-19.5 993,-0.5 952,-0.5"/>
<text text-anchor="middle" x="972.5" y="-7.5" font-family="Helvetica,sans-Serif" font-size="10.00">tuple</text>
</a>
</g>
</g>
<!-- Node15&#45;&gt;Node16 -->
<g id="edge27" class="edge">
<title>Node15&#45;&gt;Node16</title>
<path fill="none" stroke="midnightblue" d="M996.15,-56.4C991.83,-48.11 986.33,-37.55 981.73,-28.71"/>
<polygon fill="midnightblue" stroke="midnightblue" points="984.74,-26.91 977.01,-19.66 978.53,-30.14 984.74,-26.91"/>
</g>
<!-- Node17 -->
<g id="node17" class="node">
<title>Node17</title>
<g id="a_node17"><a xlink:title=" ">
<polygon fill="white" stroke="#bfbfbf" points="1011,-0.5 1011,-19.5 1056,-19.5 1056,-0.5 1011,-0.5"/>
<text text-anchor="middle" x="1033.5" y="-7.5" font-family="Helvetica,sans-Serif" font-size="10.00">utility</text>
</a>
</g>
</g>
<!-- Node15&#45;&gt;Node17 -->
<g id="edge29" class="edge">
<title>Node15&#45;&gt;Node17</title>
<path fill="none" stroke="midnightblue" d="M1010.61,-56.4C1014.79,-48.11 1020.11,-37.55 1024.57,-28.71"/>
<polygon fill="midnightblue" stroke="midnightblue" points="1027.76,-30.16 1029.13,-19.66 1021.51,-27.01 1027.76,-30.16"/>
</g>
</g>
</svg>
        <g id="navigator" transform="translate(0 0)" fill="#404254">
                <rect fill="#f2f5e9" fill-opacity="0.5" stroke="#606060" stroke-width=".5" x="0" y="0" width="60" height="60"/>
                <use id="zoomplus" xlink:href="#zoomPlus" x="17" y="9" onmousedown="handleZoom(evt,'in')"/>
                <use id="zoomminus" xlink:href="#zoomMin" x="42" y="9" onmousedown="handleZoom(evt,'out')"/>
                <use id="reset" xlink:href="#resetDef" x="30" y="36" onmousedown="handleReset()"/>
                <g id="arrowUp" xlink:href="#dirArrow" transform="translate(30 24)" onmousedown="handlePan(0,-1)">
                  <use xlink:href="#rim" fill="#404040">
                        <set attributeName="fill" to="#808080" begin="arrowUp.mouseover" end="arrowUp.mouseout"/>
                  </use>
                  <path fill="none" stroke="white" stroke-width="1.5" d="M0,-3.0v7 M-2.5,-0.5L0,-3.0L2.5,-0.5"/>
                </g>
                <g id="arrowRight" xlink:href="#dirArrow" transform="rotate(90) translate(36 -43)" onmousedown="handlePan(1,0)">
                  <use xlink:href="#rim" fill="#404040">
                        <set attributeName="fill" to="#808080" begin="arrowRight.mouseover" end="arrowRight.mouseout"/>
                  </use>
                  <path fill="none" stroke="white" stroke-width="1.5" d="M0,-3.0v7 M-2.5,-0.5L0,-3.0L2.5,-0.5"/>
                </g>
                <g id="arrowDown" xlink:href="#dirArrow" transform="rotate(180) translate(-30 -48)" onmousedown="handlePan(0,1)">
                  <use xlink:href="#rim" fill="#404040">
                        <set attributeName="fill" to="#808080" begin="arrowDown.mouseover" end="arrowDown.mouseout"/>
                  </use>
                  <path fill="none" stroke="white" stroke-width="1.5" d="M0,-3.0v7 M-2.5,-0.5L0,-3.0L2.5,-0.5"/>
                </g>
                <g id="arrowLeft" xlink:href="#dirArrow" transform="rotate(270) translate(-36 17)" onmousedown="handlePan(-1,0)">
                  <use xlink:href="#rim" fill="#404040">
                        <set attributeName="fill" to="#808080" begin="arrowLeft.mouseover" end="arrowLeft.mouseout"/>
                  </use>
                  <path fill="none" stroke="white" stroke-width="1.5" d="M0,-3.0v7 M-2.5,-0.5L0,-3.0L2.5,-0.5"/>
                </g>
        </g>
        <svg viewBox="0 0 15 15" width="100%" height="30px" preserveAspectRatio="xMaxYMin meet">
         <g id="arrow_out" transform="scale(0.3 0.3)">
          <a xlink:href="unique__handle_8hpp__incl_org.svg" target="_base">
           <rect id="button" ry="5" rx="5" y="6" x="6" height="38" width="38"
                fill="#f2f5e9" fill-opacity="0.5" stroke="#606060" stroke-width="1.0"/>
           <path id="arrow"
             d="M 11.500037,31.436501 C 11.940474,20.09759 22.043105,11.32322 32.158766,21.979434 L 37.068811,17.246167 C 37.068811,17.246167 37.088388,32 37.088388,32 L 22.160133,31.978069 C 22.160133,31.978069 26.997745,27.140456 26.997745,27.140456 C 18.528582,18.264221 13.291696,25.230495 11.500037,31.436501 z"
             style="fill:#404040;"/>
          </a>
         </g>
        </svg>
</svg>
