<?xml version="1.0" encoding="UTF-8" standalone="no"?>
<!DOCTYPE svg PUBLIC "-//W3C//DTD SVG 1.1//EN"
 "http://www.w3.org/Graphics/SVG/1.1/DTD/svg11.dtd">
<!-- Generated by graphviz version 8.0.5 (20230430.1635)
 -->
<!-- Title: Simple&#45;Utility/unique_handle.hpp Pages: 1 -->
<!--zoomable 237 -->
<svg id="main" version="1.1" xmlns="http://www.w3.org/2000/svg" xmlns:xlink="http://www.w3.org/1999/xlink" xml:space="preserve" onload="init(evt)">
<style type="text/css"><![CDATA[
.edge:hover path { stroke: red; }
.edge:hover polygon { stroke: red; fill: red; }
]]></style>
<script type="text/javascript"><![CDATA[
var edges = document.getElementsByTagName('g');
if (edges && edges.length) {
  for (var i=0;i<edges.length;i++) {
    if (edges[i].id.substr(0,4)=='edge') {
      edges[i].setAttribute('class','edge');
    }
  }
}
]]></script>
        <defs>
                <circle id="rim" cx="0" cy="0" r="7"/>
                <circle id="rim2" cx="0" cy="0" r="3.5"/>
                <g id="zoomPlus">
                        <use xlink:href="#rim" fill="#404040">
                                <set attributeName="fill" to="#808080" begin="zoomplus.mouseover" end="zoomplus.mouseout"/>
                        </use>
                        <path d="M-4,0h8M0,-4v8" fill="none" stroke="white" stroke-width="1.5" pointer-events="none"/>
                </g>
                <g id="zoomMin">
                        <use xlink:href="#rim" fill="#404040">
                                <set attributeName="fill" to="#808080" begin="zoomminus.mouseover" end="zoomminus.mouseout"/>
                        </use>
                        <path d="M-4,0h8" fill="none" stroke="white" stroke-width="1.5" pointer-events="none"/>
                </g>
                <g id="dirArrow">
                        <path fill="none" stroke="white" stroke-width="1.5" d="M0,-3.0v7 M-2.5,-0.5L0,-3.0L2.5,-0.5"/>
                </g>
               <g id="resetDef">
                       <use xlink:href="#rim2" fill="#404040">
                               <set attributeName="fill" to="#808080" begin="reset.mouseover" end="reset.mouseout"/>
                       </use>
               </g>
        </defs>

<script type="text/javascript">
var viewWidth = 702;
var viewHeight = 237;
var sectionId = 'dynsection-0';
</script>
<script xlink:href="../../svgpan.js"/>
<svg id="graph" class="graph">
<g id="viewport">
<title>Simple&#45;Utility/unique_handle.hpp</title>
<!-- Node1 -->
<g id="node1" class="node">
<title>Node1</title>
<g id="a_node1"><a xlink:title=" ">
<polygon fill="#999999" stroke="#666666" points="322.01,-229.25 210.76,-229.25 210.76,-195.75 322.01,-195.75 322.01,-229.25"/>
<text text-anchor="start" x="218.76" y="-215.75" font-family="Helvetica,sans-Serif" font-size="10.00">Simple&#45;Utility/unique</text>
<text text-anchor="middle" x="266.39" y="-203" font-family="Helvetica,sans-Serif" font-size="10.00">_handle.hpp</text>
</a>
</g>
</g>
<!-- Node2 -->
<g id="node2" class="node">
<title>Node2</title>
<g id="a_node2"><a xlink:title=" ">
<polygon fill="#e0e0e0" stroke="#999999" points="58.26,-20.75 2.51,-20.75 2.51,0 58.26,0 58.26,-20.75"/>
<text text-anchor="middle" x="30.39" y="-7.25" font-family="Helvetica,sans-Serif" font-size="10.00">compare</text>
</a>
</g>
</g>
<!-- Node1&#45;&gt;Node2 -->
<g id="edge1" class="edge">
<title>Node1&#45;&gt;Node2</title>
<path fill="none" stroke="#63b8ff" d="M210.46,-204.85C146.34,-193.77 44.86,-164.8 4.39,-90.25 -6.2,-70.76 5.32,-46.22 16.21,-29.73"/>
<polygon fill="#63b8ff" stroke="#63b8ff" points="19.43,-32.23 22.37,-22.05 13.73,-28.18 19.43,-32.23"/>
</g>
<!-- Node3 -->
<g id="node3" class="node">
<title>Node3</title>
<g id="a_node3"><a xlink:title=" ">
<polygon fill="#e0e0e0" stroke="#999999" points="191.64,-20.75 135.14,-20.75 135.14,0 191.64,0 191.64,-20.75"/>
<text text-anchor="middle" x="163.39" y="-7.25" font-family="Helvetica,sans-Serif" font-size="10.00">concepts</text>
</a>
</g>
</g>
<!-- Node1&#45;&gt;Node3 -->
<g id="edge2" class="edge">
<title>Node1&#45;&gt;Node3</title>
<path fill="none" stroke="#63b8ff" d="M252.17,-195.49C233.33,-173.39 200.37,-131.58 182.39,-90.25 174.11,-71.23 169.07,-47.99 166.28,-31.68"/>
<polygon fill="#63b8ff" stroke="#63b8ff" points="169.64,-31.53 164.63,-22.19 162.72,-32.61 169.64,-31.53"/>
</g>
<!-- Node4 -->
<g id="node4" class="node">
<title>Node4</title>
<g id="a_node4"><a xlink:title=" ">
<polygon fill="#e0e0e0" stroke="#999999" points="253.26,-83.88 191.51,-83.88 191.51,-63.12 253.26,-63.12 253.26,-83.88"/>
<text text-anchor="middle" x="222.39" y="-70.38" font-family="Helvetica,sans-Serif" font-size="10.00">functional</text>
</a>
</g>
</g>
<!-- Node1&#45;&gt;Node4 -->
<g id="edge3" class="edge">
<title>Node1&#45;&gt;Node4</title>
<path fill="none" stroke="#63b8ff" d="M257.52,-195.59C252.22,-185.56 245.71,-172.19 241.39,-159.75 233.86,-138.11 228.6,-112.31 225.55,-94.8"/>
<polygon fill="#63b8ff" stroke="#63b8ff" points="228.87,-94.46 223.79,-85.16 221.97,-95.6 228.87,-94.46"/>
</g>
<!-- Node5 -->
<g id="node5" class="node">
<title>Node5</title>
<g id="a_node5"><a xlink:title=" ">
<polygon fill="#e0e0e0" stroke="#999999" points="482.51,-153.38 428.26,-153.38 428.26,-132.62 482.51,-132.62 482.51,-153.38"/>
<text text-anchor="middle" x="455.39" y="-139.88" font-family="Helvetica,sans-Serif" font-size="10.00">optional</text>
</a>
</g>
</g>
<!-- Node1&#45;&gt;Node5 -->
<g id="edge4" class="edge">
<title>Node1&#45;&gt;Node5</title>
<path fill="none" stroke="#63b8ff" d="M313.84,-195.32C342.94,-185.29 380.91,-172.03 414.39,-159.75 416.32,-159.04 418.3,-158.31 420.3,-157.56"/>
<polygon fill="#63b8ff" stroke="#63b8ff" points="421.16,-160.6 429.28,-153.78 418.69,-154.05 421.16,-160.6"/>
</g>
<!-- Node6 -->
<g id="node6" class="node">
<title>Node6</title>
<g id="a_node6"><a xlink:title=" ">
<polygon fill="#e0e0e0" stroke="#999999" points="541.76,-153.38 501.01,-153.38 501.01,-132.62 541.76,-132.62 541.76,-153.38"/>
<text text-anchor="middle" x="521.39" y="-139.88" font-family="Helvetica,sans-Serif" font-size="10.00">utility</text>
</a>
</g>
</g>
<!-- Node1&#45;&gt;Node6 -->
<g id="edge5" class="edge">
<title>Node1&#45;&gt;Node6</title>
<path fill="none" stroke="#63b8ff" d="M322.1,-202.81C368.35,-194.62 435.38,-180.5 491.39,-159.75 492.49,-159.34 493.6,-158.9 494.72,-158.43"/>
<polygon fill="#63b8ff" stroke="#63b8ff" points="496.05,-161.21 503.6,-153.78 493.06,-154.87 496.05,-161.21"/>
</g>
<!-- Node7 -->
<g id="node7" class="node">
<title>Node7</title>
<g id="a_node7"><a xlink:href="../../d8/dd2/_config_8hpp.html" target="_top" xlink:title=" ">
<polygon fill="white" stroke="#666666" points="693.51,-83.88 561.26,-83.88 561.26,-63.12 693.51,-63.12 693.51,-83.88"/>
<text text-anchor="middle" x="627.39" y="-70.38" font-family="Helvetica,sans-Serif" font-size="10.00">Simple&#45;Utility/Config.hpp</text>
</a>
</g>
</g>
<!-- Node1&#45;&gt;Node7 -->
<g id="edge6" class="edge">
<title>Node1&#45;&gt;Node7</title>
<path fill="none" stroke="#63b8ff" d="M310.57,-195.26C332.66,-186.25 359.3,-173.99 381.39,-159.75 400.31,-147.55 399.45,-136.71 419.39,-126.25 433.01,-119.1 515.8,-99.6 572.73,-86.68"/>
<polygon fill="#63b8ff" stroke="#63b8ff" points="573.41,-89.89 582.39,-84.27 571.87,-83.07 573.41,-89.89"/>
</g>
<!-- Node8 -->
<g id="node8" class="node">
<title>Node8</title>
<g id="a_node8"><a xlink:href="../../dd/d5c/stl__extensions_8hpp.html" target="_top" xlink:title=" ">
<polygon fill="white" stroke="#666666" points="135.26,-90.25 13.51,-90.25 13.51,-56.75 135.26,-56.75 135.26,-90.25"/>
<text text-anchor="start" x="21.51" y="-76.75" font-family="Helvetica,sans-Serif" font-size="10.00">Simple&#45;Utility/concepts</text>
<text text-anchor="middle" x="74.39" y="-64" font-family="Helvetica,sans-Serif" font-size="10.00">/stl_extensions.hpp</text>
</a>
</g>
</g>
<!-- Node1&#45;&gt;Node8 -->
<g id="edge7" class="edge">
<title>Node1&#45;&gt;Node8</title>
<path fill="none" stroke="#63b8ff" d="M217.46,-195.33C195.46,-186.73 169.89,-174.79 149.39,-159.75 126.4,-142.89 105.46,-117.89 91.58,-99.31"/>
<polygon fill="#63b8ff" stroke="#63b8ff" points="93.89,-97.54 85.18,-91.52 88.23,-101.66 93.89,-97.54"/>
</g>
<!-- Node9 -->
<g id="node9" class="node">
<title>Node9</title>
<g id="a_node9"><a xlink:href="../../dd/d3c/base_8hpp.html" target="_top" xlink:title=" ">
<polygon fill="white" stroke="#666666" points="372.64,-159.75 250.14,-159.75 250.14,-126.25 372.64,-126.25 372.64,-159.75"/>
<text text-anchor="start" x="258.14" y="-146.25" font-family="Helvetica,sans-Serif" font-size="10.00">Simple&#45;Utility/nullables</text>
<text text-anchor="middle" x="311.39" y="-133.5" font-family="Helvetica,sans-Serif" font-size="10.00">/base.hpp</text>
</a>
</g>
</g>
<!-- Node1&#45;&gt;Node9 -->
<g id="edge10" class="edge">
<title>Node1&#45;&gt;Node9</title>
<path fill="none" stroke="#63b8ff" d="M277.05,-195.5C282.32,-187.6 288.8,-177.88 294.7,-169.03"/>
<polygon fill="#63b8ff" stroke="#63b8ff" points="298.16,-171.14 300.8,-160.88 292.34,-167.26 298.16,-171.14"/>
</g>
<!-- Node8&#45;&gt;Node2 -->
<g id="edge8" class="edge">
<title>Node8&#45;&gt;Node2</title>
<path fill="none" stroke="#63b8ff" d="M62.82,-56.44C56.98,-48.32 49.85,-38.42 43.77,-29.97"/>
<polygon fill="#63b8ff" stroke="#63b8ff" points="46.15,-28.29 37.47,-22.22 40.47,-32.38 46.15,-28.29"/>
</g>
<!-- Node8&#45;&gt;Node3 -->
<g id="edge9" class="edge">
<title>Node8&#45;&gt;Node3</title>
<path fill="none" stroke="#63b8ff" d="M97.77,-56.44C110.86,-47.45 127.14,-36.27 140.2,-27.3"/>
<polygon fill="#63b8ff" stroke="#63b8ff" points="141.79,-29.76 148.05,-21.22 137.83,-23.99 141.79,-29.76"/>
</g>
<!-- Node9&#45;&gt;Node4 -->
<g id="edge16" class="edge">
<title>Node9&#45;&gt;Node4</title>
<path fill="none" stroke="#63b8ff" d="M290.29,-126C276.29,-115.39 257.97,-101.49 243.89,-90.81"/>
<polygon fill="#63b8ff" stroke="#63b8ff" points="246.42,-87.58 236.34,-84.32 242.19,-93.15 246.42,-87.58"/>
</g>
<!-- Node9&#45;&gt;Node7 -->
<g id="edge11" class="edge">
<title>Node9&#45;&gt;Node7</title>
<path fill="none" stroke="#63b8ff" d="M373.06,-128.83C430.31,-116.6 514.85,-98.54 570.51,-86.65"/>
<polygon fill="#63b8ff" stroke="#63b8ff" points="571.19,-89.87 580.24,-84.36 569.73,-83.02 571.19,-89.87"/>
</g>
<!-- Node9&#45;&gt;Node8 -->
<g id="edge14" class="edge">
<title>Node9&#45;&gt;Node8</title>
<path fill="none" stroke="#63b8ff" d="M254.62,-125.83C220.59,-116.14 177.14,-103.77 141.43,-93.6"/>
<polygon fill="#63b8ff" stroke="#63b8ff" points="142.68,-90.03 132.1,-90.65 140.76,-96.76 142.68,-90.03"/>
</g>
<!-- Node10 -->
<g id="node10" class="node">
<title>Node10</title>
<g id="a_node10"><a xlink:href="../../dd/dcd/operators_8hpp.html" target="_top" xlink:title=" ">
<polygon fill="white" stroke="#666666" points="393.26,-90.25 271.51,-90.25 271.51,-56.75 393.26,-56.75 393.26,-90.25"/>
<text text-anchor="start" x="279.51" y="-76.75" font-family="Helvetica,sans-Serif" font-size="10.00">Simple&#45;Utility/concepts</text>
<text text-anchor="middle" x="332.39" y="-64" font-family="Helvetica,sans-Serif" font-size="10.00">/operators.hpp</text>
</a>
</g>
</g>
<!-- Node9&#45;&gt;Node10 -->
<g id="edge12" class="edge">
<title>Node9&#45;&gt;Node10</title>
<path fill="none" stroke="#63b8ff" d="M316.36,-126C318.72,-118.44 321.59,-109.21 324.25,-100.66"/>
<polygon fill="#63b8ff" stroke="#63b8ff" points="327.82,-101.97 327.44,-91.38 321.13,-99.89 327.82,-101.97"/>
</g>
<!-- Node11 -->
<g id="node11" class="node">
<title>Node11</title>
<g id="a_node11"><a xlink:title=" ">
<polygon fill="#e0e0e0" stroke="#999999" points="461.26,-83.88 411.51,-83.88 411.51,-63.12 461.26,-63.12 461.26,-83.88"/>
<text text-anchor="middle" x="436.39" y="-70.38" font-family="Helvetica,sans-Serif" font-size="10.00">cstddef</text>
</a>
</g>
</g>
<!-- Node9&#45;&gt;Node11 -->
<g id="edge15" class="edge">
<title>Node9&#45;&gt;Node11</title>
<path fill="none" stroke="#63b8ff" d="M341.33,-125.83C361.84,-114.75 388.85,-100.17 408.83,-89.38"/>
<polygon fill="#63b8ff" stroke="#63b8ff" points="410.15,-92.1 417.29,-84.27 406.83,-85.94 410.15,-92.1"/>
</g>
<!-- Node12 -->
<g id="node12" class="node">
<title>Node12</title>
<g id="a_node12"><a xlink:title=" ">
<polygon fill="#e0e0e0" stroke="#999999" points="543.39,-83.88 479.39,-83.88 479.39,-63.12 543.39,-63.12 543.39,-83.88"/>
<text text-anchor="middle" x="511.39" y="-70.38" font-family="Helvetica,sans-Serif" font-size="10.00">type_traits</text>
</a>
</g>
</g>
<!-- Node9&#45;&gt;Node12 -->
<g id="edge17" class="edge">
<title>Node9&#45;&gt;Node12</title>
<path fill="none" stroke="#63b8ff" d="M363.53,-125.78C394.68,-115.91 434.95,-102.81 470.39,-90.25 472.33,-89.56 474.31,-88.84 476.32,-88.11"/>
<polygon fill="#63b8ff" stroke="#63b8ff" points="477.17,-91.15 485.31,-84.37 474.72,-84.6 477.17,-91.15"/>
</g>
<!-- Node10&#45;&gt;Node3 -->
<g id="edge13" class="edge">
<title>Node10&#45;&gt;Node3</title>
<path fill="none" stroke="#63b8ff" d="M287.54,-56.28C260.38,-46.46 226.15,-34.08 200.52,-24.81"/>
<polygon fill="#63b8ff" stroke="#63b8ff" points="202.05,-21.28 191.45,-21.17 199.67,-27.86 202.05,-21.28"/>
</g>
</g>
</svg>
        <g id="navigator" transform="translate(0 0)" fill="#404254">
                <rect fill="#f2f5e9" fill-opacity="0.5" stroke="#606060" stroke-width=".5" x="0" y="0" width="60" height="60"/>
                <use id="zoomplus" xlink:href="#zoomPlus" x="17" y="9" onmousedown="handleZoom(evt,'in')"/>
                <use id="zoomminus" xlink:href="#zoomMin" x="42" y="9" onmousedown="handleZoom(evt,'out')"/>
                <use id="reset" xlink:href="#resetDef" x="30" y="36" onmousedown="handleReset()"/>
                <g id="arrowUp" xlink:href="#dirArrow" transform="translate(30 24)" onmousedown="handlePan(0,-1)">
                  <use xlink:href="#rim" fill="#404040">
                        <set attributeName="fill" to="#808080" begin="arrowUp.mouseover" end="arrowUp.mouseout"/>
                  </use>
                  <path fill="none" stroke="white" stroke-width="1.5" d="M0,-3.0v7 M-2.5,-0.5L0,-3.0L2.5,-0.5"/>
                </g>
                <g id="arrowRight" xlink:href="#dirArrow" transform="rotate(90) translate(36 -43)" onmousedown="handlePan(1,0)">
                  <use xlink:href="#rim" fill="#404040">
                        <set attributeName="fill" to="#808080" begin="arrowRight.mouseover" end="arrowRight.mouseout"/>
                  </use>
                  <path fill="none" stroke="white" stroke-width="1.5" d="M0,-3.0v7 M-2.5,-0.5L0,-3.0L2.5,-0.5"/>
                </g>
                <g id="arrowDown" xlink:href="#dirArrow" transform="rotate(180) translate(-30 -48)" onmousedown="handlePan(0,1)">
                  <use xlink:href="#rim" fill="#404040">
                        <set attributeName="fill" to="#808080" begin="arrowDown.mouseover" end="arrowDown.mouseout"/>
                  </use>
                  <path fill="none" stroke="white" stroke-width="1.5" d="M0,-3.0v7 M-2.5,-0.5L0,-3.0L2.5,-0.5"/>
                </g>
                <g id="arrowLeft" xlink:href="#dirArrow" transform="rotate(270) translate(-36 17)" onmousedown="handlePan(-1,0)">
                  <use xlink:href="#rim" fill="#404040">
                        <set attributeName="fill" to="#808080" begin="arrowLeft.mouseover" end="arrowLeft.mouseout"/>
                  </use>
                  <path fill="none" stroke="white" stroke-width="1.5" d="M0,-3.0v7 M-2.5,-0.5L0,-3.0L2.5,-0.5"/>
                </g>
        </g>
        <svg viewBox="0 0 15 15" width="100%" height="30px" preserveAspectRatio="xMaxYMin meet">
         <g id="arrow_out" transform="scale(0.3 0.3)">
          <a xlink:href="unique__handle_8hpp__incl_org.svg" target="_base">
           <rect id="button" ry="5" rx="5" y="6" x="6" height="38" width="38"
                fill="#f2f5e9" fill-opacity="0.5" stroke="#606060" stroke-width="1.0"/>
           <path id="arrow"
             d="M 11.500037,31.436501 C 11.940474,20.09759 22.043105,11.32322 32.158766,21.979434 L 37.068811,17.246167 C 37.068811,17.246167 37.088388,32 37.088388,32 L 22.160133,31.978069 C 22.160133,31.978069 26.997745,27.140456 26.997745,27.140456 C 18.528582,18.264221 13.291696,25.230495 11.500037,31.436501 z"
             style="fill:#404040;"/>
          </a>
         </g>
        </svg>
</svg>
