<?xml version="1.0" encoding="UTF-8" standalone="no"?>
<!DOCTYPE svg PUBLIC "-//W3C//DTD SVG 1.1//EN"
 "http://www.w3.org/Graphics/SVG/1.1/DTD/svg11.dtd">
<!-- Generated by graphviz version 8.0.5 (20230430.1635)
 -->
<!-- Title: Simple&#45;Utility/unified_base.hpp Pages: 1 -->
<svg width="146pt" height="98pt"
 viewBox="0.00 0.00 146.25 98.25" xmlns="http://www.w3.org/2000/svg" xmlns:xlink="http://www.w3.org/1999/xlink">
<g id="graph0" class="graph" transform="scale(1 1) rotate(0) translate(4 94.25)">
<title>Simple&#45;Utility/unified_base.hpp</title>
<!-- Node1 -->
<g id="node1" class="node">
<title>Node1</title>
<g id="a_node1"><a xlink:title=" ">
<polygon fill="#999999" stroke="#666666" points="123.25,-90.25 11.25,-90.25 11.25,-56.75 123.25,-56.75 123.25,-90.25"/>
<text text-anchor="start" x="19.25" y="-76.75" font-family="Helvetica,sans-Serif" font-size="10.00">Simple&#45;Utility/unified</text>
<text text-anchor="middle" x="67.25" y="-64" font-family="Helvetica,sans-Serif" font-size="10.00">_base.hpp</text>
</a>
</g>
</g>
<!-- Node2 -->
<g id="node2" class="node">
<title>Node2</title>
<g id="a_node2"><a xlink:title=" ">
<polygon fill="#e0e0e0" stroke="#999999" points="56.5,-20.75 0,-20.75 0,0 56.5,0 56.5,-20.75"/>
<text text-anchor="middle" x="28.25" y="-7.25" font-family="Helvetica,sans-Serif" font-size="10.00">concepts</text>
</a>
</g>
</g>
<!-- Node1&#45;&gt;Node2 -->
<g id="edge1" class="edge">
<title>Node1&#45;&gt;Node2</title>
<path fill="none" stroke="#63b8ff" d="M57,-56.44C51.88,-48.41 45.64,-38.63 40.29,-30.24"/>
<polygon fill="#63b8ff" stroke="#63b8ff" points="42.86,-28.76 34.53,-22.22 36.96,-32.53 42.86,-28.76"/>
</g>
<!-- Node3 -->
<g id="node3" class="node">
<title>Node3</title>
<g id="a_node3"><a xlink:title=" ">
<polygon fill="#e0e0e0" stroke="#999999" points="138.25,-20.75 74.25,-20.75 74.25,0 138.25,0 138.25,-20.75"/>
<text text-anchor="middle" x="106.25" y="-7.25" font-family="Helvetica,sans-Serif" font-size="10.00">type_traits</text>
</a>
</g>
</g>
<!-- Node1&#45;&gt;Node3 -->
<g id="edge2" class="edge">
<title>Node1&#45;&gt;Node3</title>
<path fill="none" stroke="#63b8ff" d="M77.5,-56.44C82.62,-48.41 88.86,-38.63 94.21,-30.24"/>
<polygon fill="#63b8ff" stroke="#63b8ff" points="97.54,-32.53 99.97,-22.22 91.64,-28.76 97.54,-32.53"/>
</g>
</g>
</svg>
