<?xml version="1.0" encoding="UTF-8" standalone="no"?>
<!DOCTYPE svg PUBLIC "-//W3C//DTD SVG 1.1//EN"
 "http://www.w3.org/Graphics/SVG/1.1/DTD/svg11.dtd">
<!-- Generated by graphviz version 8.0.5 (20230430.1635)
 -->
<!-- Title: sl::CRTPBase&lt; Derived, Disambiguity &gt; Pages: 1 -->
<svg width="306pt" height="118pt"
 viewBox="0.00 0.00 305.50 118.25" xmlns="http://www.w3.org/2000/svg" xmlns:xlink="http://www.w3.org/1999/xlink">
<g id="graph0" class="graph" transform="scale(1 1) rotate(0) translate(4 114.25)">
<title>sl::CRTPBase&lt; Derived, Disambiguity &gt;</title>
<!-- Node1 -->
<g id="node1" class="node">
<title>Node1</title>
<g id="a_node1"><a xlink:title="Utility type, which can be used as a base class for the crtp pattern.">
<polygon fill="#999999" stroke="#666666" points="118,-71.88 0,-71.88 0,-38.38 118,-38.38 118,-71.88"/>
<text text-anchor="start" x="8" y="-58.38" font-family="Helvetica,sans-Serif" font-size="10.00">sl::CRTPBase&lt; Derived,</text>
<text text-anchor="middle" x="59" y="-45.62" font-family="Helvetica,sans-Serif" font-size="10.00"> Disambiguity &gt;</text>
</a>
</g>
</g>
<!-- Node2 -->
<g id="node2" class="node">
<title>Node2</title>
<g id="a_node2"><a xlink:title=" ">
<polygon fill="white" stroke="#666666" points="297.5,-110.25 154,-110.25 154,-64 297.5,-64 297.5,-110.25"/>
<text text-anchor="start" x="162" y="-96.75" font-family="Helvetica,sans-Serif" font-size="10.00">sl::functional::detail</text>
<text text-anchor="start" x="162" y="-84" font-family="Helvetica,sans-Serif" font-size="10.00">::BasicInvokePolicy&lt; Derived,</text>
<text text-anchor="middle" x="225.75" y="-71.25" font-family="Helvetica,sans-Serif" font-size="10.00"> InvokeStrategy &gt;</text>
</a>
</g>
</g>
<!-- Node1&#45;&gt;Node2 -->
<g id="edge1" class="edge">
<title>Node1&#45;&gt;Node2</title>
<path fill="none" stroke="#63b8ff" d="M128.75,-68.48C136.96,-70.07 145.37,-71.71 153.61,-73.31"/>
<polygon fill="#63b8ff" stroke="#63b8ff" points="129.57,-64.88 119.08,-66.41 128.23,-71.75 129.57,-64.88"/>
</g>
<!-- Node3 -->
<g id="node3" class="node">
<title>Node3</title>
<g id="a_node3"><a xlink:title=" ">
<polygon fill="white" stroke="#666666" points="294.88,-46.25 156.62,-46.25 156.62,0 294.88,0 294.88,-46.25"/>
<text text-anchor="start" x="164.62" y="-32.75" font-family="Helvetica,sans-Serif" font-size="10.00">sl::functional::detail</text>
<text text-anchor="start" x="164.62" y="-20" font-family="Helvetica,sans-Serif" font-size="10.00">::NodiscardInvokePolicy</text>
<text text-anchor="middle" x="225.75" y="-7.25" font-family="Helvetica,sans-Serif" font-size="10.00">&lt; Derived, InvokeStrategy &gt;</text>
</a>
</g>
</g>
<!-- Node1&#45;&gt;Node3 -->
<g id="edge2" class="edge">
<title>Node1&#45;&gt;Node3</title>
<path fill="none" stroke="#63b8ff" d="M128.64,-41.79C137.75,-40.02 147.09,-38.21 156.19,-36.44"/>
<polygon fill="#63b8ff" stroke="#63b8ff" points="128.23,-38.5 119.08,-43.84 129.57,-45.37 128.23,-38.5"/>
</g>
</g>
</svg>
