<?xml version="1.0" encoding="UTF-8" standalone="no"?>
<!DOCTYPE svg PUBLIC "-//W3C//DTD SVG 1.1//EN"
 "http://www.w3.org/Graphics/SVG/1.1/DTD/svg11.dtd">
<!-- Generated by graphviz version 8.0.5 (20230430.1635)
 -->
<!-- Title: Simple&#45;Utility/functional Pages: 1 -->
<svg width="154pt" height="203pt"
 viewBox="0.00 0.00 154.00 203.00" xmlns="http://www.w3.org/2000/svg" xmlns:xlink="http://www.w3.org/1999/xlink">
<g id="graph0" class="graph" transform="scale(1 1) rotate(0) translate(4 199)">
<title>Simple&#45;Utility/functional</title>
<g id="clust1" class="cluster">
<title>clusterdir_a01c8bcfc219e1c69ba75e16b9f3dae0</title>
<g id="a_clust1"><a xlink:href="dir_a01c8bcfc219e1c69ba75e16b9f3dae0.html" target="_top" xlink:title="Simple&#45;Utility">
<polygon fill="#edf0f7" stroke="#404040" stroke-dasharray="5,2" points="8,-8 8,-187 138,-187 138,-8 8,-8"/>
<text text-anchor="middle" x="73" y="-173.5" font-family="Helvetica,sans-Serif" font-size="10.00">Simple&#45;Utility</text>
</a>
</g>
</g>
<g id="clust2" class="cluster">
<title>clusterdir_5a25afb40b3d758b0316c6da520c93e2</title>
<g id="a_clust2"><a xlink:href="dir_5a25afb40b3d758b0316c6da520c93e2.html" target="_top">
<polygon fill="#edf0f7" stroke="#404040" stroke-width="2" points="38,-64.75 38,-158.25 116,-158.25 116,-64.75 38,-64.75"/>
</a>
</g>
</g>
<!-- dir_ae61d42a7cb21f7c301a814266e9934b -->
<g id="node1" class="node">
<title>dir_ae61d42a7cb21f7c301a814266e9934b</title>
<g id="a_node1"><a xlink:href="dir_ae61d42a7cb21f7c301a814266e9934b.html" target="_top" xlink:title="concepts">
<polygon fill="#a2b4d6" stroke="#404040" points="72.25,-36.75 15.75,-36.75 15.75,-16 72.25,-16 72.25,-36.75"/>
<text text-anchor="middle" x="44" y="-23.25" font-family="Helvetica,sans-Serif" font-size="10.00">concepts</text>
</a>
</g>
</g>
<!-- dir_dc9937783625812aa8fbe040ae011b46 -->
<g id="node2" class="node">
<title>dir_dc9937783625812aa8fbe040ae011b46</title>
<g id="a_node2"><a xlink:href="dir_dc9937783625812aa8fbe040ae011b46.html" target="_top" xlink:title="tuple">
<polygon fill="#a2b4d6" stroke="#404040" points="129.62,-36.75 90.38,-36.75 90.38,-16 129.62,-16 129.62,-36.75"/>
<text text-anchor="middle" x="110" y="-23.25" font-family="Helvetica,sans-Serif" font-size="10.00">tuple</text>
</a>
</g>
</g>
<!-- dir_5a25afb40b3d758b0316c6da520c93e2 -->
<g id="node3" class="node">
<title>dir_5a25afb40b3d758b0316c6da520c93e2</title>
<text text-anchor="middle" x="77" y="-136.75" font-family="Helvetica,sans-Serif" font-size="10.00">functional</text>
</g>
<!-- dir_5a25afb40b3d758b0316c6da520c93e2&#45;&gt;dir_ae61d42a7cb21f7c301a814266e9934b -->
<g id="edge2" class="edge">
<title>dir_5a25afb40b3d758b0316c6da520c93e2&#45;&gt;dir_ae61d42a7cb21f7c301a814266e9934b</title>
<path fill="none" stroke="#63b8ff" d="M68.32,-129.66C60.84,-121.05 50.55,-107.47 46,-93.5 41.21,-78.78 40.91,-61.24 41.7,-47.92"/>
<polygon fill="#63b8ff" stroke="#63b8ff" points="45.26,-48.34 42.63,-38.08 38.28,-47.74 45.26,-48.34"/>
<g id="a_edge2&#45;headlabel"><a xlink:href="dir_000001_000000.html" target="_top" xlink:title="13">
<text text-anchor="middle" x="47.78" y="-48.04" font-family="Helvetica,sans-Serif" font-size="10.00" fill="#63b8ff">13</text>
</a>
</g>
</g>
<!-- dir_5a25afb40b3d758b0316c6da520c93e2&#45;&gt;dir_dc9937783625812aa8fbe040ae011b46 -->
<g id="edge3" class="edge">
<title>dir_5a25afb40b3d758b0316c6da520c93e2&#45;&gt;dir_dc9937783625812aa8fbe040ae011b46</title>
<path fill="none" stroke="#63b8ff" d="M85.68,-129.66C93.16,-121.05 103.45,-107.47 108,-93.5 112.79,-78.78 113.09,-61.24 112.3,-47.92"/>
<polygon fill="#63b8ff" stroke="#63b8ff" points="115.72,-47.74 111.37,-38.08 108.74,-48.34 115.72,-47.74"/>
<g id="a_edge3&#45;headlabel"><a xlink:href="dir_000001_000005.html" target="_top" xlink:title="2">
<text text-anchor="middle" x="118.85" y="-46.96" font-family="Helvetica,sans-Serif" font-size="10.00" fill="#63b8ff">2</text>
</a>
</g>
</g>
<!-- dir_0ca50cae7959843ba71c63802f7e24c3 -->
<g id="node4" class="node">
<title>dir_0ca50cae7959843ba71c63802f7e24c3</title>
<g id="a_node4"><a xlink:href="dir_0ca50cae7959843ba71c63802f7e24c3.html" target="_top" xlink:title="mixins">
<polygon fill="#a2b4d6" stroke="#404040" points="99.25,-93.5 54.75,-93.5 54.75,-72.75 99.25,-72.75 99.25,-93.5"/>
<text text-anchor="middle" x="77" y="-80" font-family="Helvetica,sans-Serif" font-size="10.00">mixins</text>
</a>
</g>
</g>
<!-- dir_5a25afb40b3d758b0316c6da520c93e2&#45;&gt;dir_0ca50cae7959843ba71c63802f7e24c3 -->
<g id="edge1" class="edge">
<title>dir_5a25afb40b3d758b0316c6da520c93e2&#45;&gt;dir_0ca50cae7959843ba71c63802f7e24c3</title>
<path fill="none" stroke="#63b8ff" d="M77,-129.83C77,-122.99 77,-113.3 77,-104.61"/>
<polygon fill="#63b8ff" stroke="#63b8ff" points="80.5,-104.73 77,-94.73 73.5,-104.73 80.5,-104.73"/>
<g id="a_edge1&#45;headlabel"><a xlink:href="dir_000001_000002.html" target="_top" xlink:title="8">
<text text-anchor="middle" x="83.34" y="-104.2" font-family="Helvetica,sans-Serif" font-size="10.00" fill="#63b8ff">8</text>
</a>
</g>
</g>
<!-- dir_0ca50cae7959843ba71c63802f7e24c3&#45;&gt;dir_ae61d42a7cb21f7c301a814266e9934b -->
<g id="edge4" class="edge">
<title>dir_0ca50cae7959843ba71c63802f7e24c3&#45;&gt;dir_ae61d42a7cb21f7c301a814266e9934b</title>
<path fill="none" stroke="#63b8ff" d="M71.1,-72.34C66.74,-65.1 60.66,-55.01 55.36,-46.22"/>
<polygon fill="#63b8ff" stroke="#63b8ff" points="58.01,-44.84 49.85,-38.08 52.01,-48.45 58.01,-44.84"/>
<g id="a_edge4&#45;headlabel"><a xlink:href="dir_000002_000000.html" target="_top" xlink:title="6">
<text text-anchor="middle" x="62.3" y="-42.32" font-family="Helvetica,sans-Serif" font-size="10.00" fill="#63b8ff">6</text>
</a>
</g>
</g>
<!-- dir_0ca50cae7959843ba71c63802f7e24c3&#45;&gt;dir_dc9937783625812aa8fbe040ae011b46 -->
<g id="edge5" class="edge">
<title>dir_0ca50cae7959843ba71c63802f7e24c3&#45;&gt;dir_dc9937783625812aa8fbe040ae011b46</title>
<path fill="none" stroke="#63b8ff" d="M82.9,-72.34C87.26,-65.1 93.34,-55.01 98.64,-46.22"/>
<polygon fill="#63b8ff" stroke="#63b8ff" points="101.99,-48.45 104.15,-38.08 95.99,-44.84 101.99,-48.45"/>
<g id="a_edge5&#45;headlabel"><a xlink:href="dir_000002_000005.html" target="_top" xlink:title="1">
<text text-anchor="middle" x="102.56" y="-48.87" font-family="Helvetica,sans-Serif" font-size="10.00" fill="#63b8ff">1</text>
</a>
</g>
</g>
</g>
</svg>
