<?xml version="1.0" encoding="UTF-8" standalone="no"?>
<!DOCTYPE svg PUBLIC "-//W3C//DTD SVG 1.1//EN"
 "http://www.w3.org/Graphics/SVG/1.1/DTD/svg11.dtd">
<!-- Generated by graphviz version 8.0.5 (20230430.1635)
 -->
<!-- Title: Simple&#45;Utility Pages: 1 -->
<svg width="162pt" height="231pt"
 viewBox="0.00 0.00 162.00 231.00" xmlns="http://www.w3.org/2000/svg" xmlns:xlink="http://www.w3.org/1999/xlink">
<g id="graph0" class="graph" transform="scale(1 1) rotate(0) translate(4 227)">
<title>Simple&#45;Utility</title>
<g id="clust1" class="cluster">
<title>clusterdir_a01c8bcfc219e1c69ba75e16b9f3dae0</title>
<g id="a_clust1"><a xlink:href="dir_a01c8bcfc219e1c69ba75e16b9f3dae0.html" target="_top">
<polygon fill="#edf0f7" stroke="#404040" stroke-width="2" points="8,-8 8,-215 146,-215 146,-8 8,-8"/>
</a>
</g>
</g>
<!-- dir_a01c8bcfc219e1c69ba75e16b9f3dae0 -->
<g id="node1" class="node">
<title>dir_a01c8bcfc219e1c69ba75e16b9f3dae0</title>
<text text-anchor="middle" x="82" y="-193.5" font-family="Helvetica,sans-Serif" font-size="10.00">Simple&#45;Utility</text>
</g>
<!-- dir_ae61d42a7cb21f7c301a814266e9934b -->
<g id="node2" class="node">
<title>dir_ae61d42a7cb21f7c301a814266e9934b</title>
<g id="a_node2"><a xlink:href="dir_ae61d42a7cb21f7c301a814266e9934b.html" target="_top" xlink:title="concepts">
<polygon fill="#a2b4d6" stroke="#404040" points="72.25,-36.75 15.75,-36.75 15.75,-16 72.25,-16 72.25,-36.75"/>
<text text-anchor="middle" x="44" y="-23.25" font-family="Helvetica,sans-Serif" font-size="10.00">concepts</text>
</a>
</g>
</g>
<!-- dir_a01c8bcfc219e1c69ba75e16b9f3dae0&#45;&gt;dir_ae61d42a7cb21f7c301a814266e9934b -->
<g id="edge3" class="edge">
<title>dir_a01c8bcfc219e1c69ba75e16b9f3dae0&#45;&gt;dir_ae61d42a7cb21f7c301a814266e9934b</title>
<path fill="none" stroke="#63b8ff" d="M63.72,-186.27C50.82,-178.54 34.55,-166.26 27,-150.25 11.08,-116.48 24.52,-72.11 34.85,-46.97"/>
<polygon fill="#63b8ff" stroke="#63b8ff" points="38.33,-48.74 39.13,-38.17 31.92,-45.94 38.33,-48.74"/>
<g id="a_edge3&#45;headlabel"><a xlink:href="dir_000004_000000.html" target="_top" xlink:title="14">
<text text-anchor="middle" x="39.5" y="-49.04" font-family="Helvetica,sans-Serif" font-size="10.00" fill="#63b8ff">14</text>
</a>
</g>
</g>
<!-- dir_5a25afb40b3d758b0316c6da520c93e2 -->
<g id="node3" class="node">
<title>dir_5a25afb40b3d758b0316c6da520c93e2</title>
<g id="a_node3"><a xlink:href="dir_5a25afb40b3d758b0316c6da520c93e2.html" target="_top" xlink:title="functional">
<polygon fill="#a2b4d6" stroke="#404040" points="117.88,-93.5 56.12,-93.5 56.12,-72.75 117.88,-72.75 117.88,-93.5"/>
<text text-anchor="middle" x="87" y="-80" font-family="Helvetica,sans-Serif" font-size="10.00">functional</text>
</a>
</g>
</g>
<!-- dir_a01c8bcfc219e1c69ba75e16b9f3dae0&#45;&gt;dir_5a25afb40b3d758b0316c6da520c93e2 -->
<g id="edge2" class="edge">
<title>dir_a01c8bcfc219e1c69ba75e16b9f3dae0&#45;&gt;dir_5a25afb40b3d758b0316c6da520c93e2</title>
<path fill="none" stroke="#63b8ff" d="M87.78,-186.32C92.93,-177.43 100.09,-163.47 103,-150.25 106.45,-134.57 101.73,-116.9 96.54,-103.77"/>
<polygon fill="#63b8ff" stroke="#63b8ff" points="99.45,-102.71 92.23,-94.95 93.04,-105.52 99.45,-102.71"/>
<g id="a_edge2&#45;headlabel"><a xlink:href="dir_000004_000001.html" target="_top" xlink:title="28">
<text text-anchor="middle" x="103.5" y="-100.74" font-family="Helvetica,sans-Serif" font-size="10.00" fill="#63b8ff">28</text>
</a>
</g>
</g>
<!-- dir_2a32a5d0cffb1ce2fbf7512745c274aa -->
<g id="node4" class="node">
<title>dir_2a32a5d0cffb1ce2fbf7512745c274aa</title>
<g id="a_node4"><a xlink:href="dir_2a32a5d0cffb1ce2fbf7512745c274aa.html" target="_top" xlink:title="nullables">
<polygon fill="#a2b4d6" stroke="#404040" points="93.62,-150.25 36.38,-150.25 36.38,-129.5 93.62,-129.5 93.62,-150.25"/>
<text text-anchor="middle" x="65" y="-136.75" font-family="Helvetica,sans-Serif" font-size="10.00">nullables</text>
</a>
</g>
</g>
<!-- dir_a01c8bcfc219e1c69ba75e16b9f3dae0&#45;&gt;dir_2a32a5d0cffb1ce2fbf7512745c274aa -->
<g id="edge1" class="edge">
<title>dir_a01c8bcfc219e1c69ba75e16b9f3dae0&#45;&gt;dir_2a32a5d0cffb1ce2fbf7512745c274aa</title>
<path fill="none" stroke="#63b8ff" d="M79.19,-186.58C77.02,-179.58 73.92,-169.61 71.18,-160.77"/>
<polygon fill="#63b8ff" stroke="#63b8ff" points="74.29,-159.99 67.98,-151.48 67.61,-162.07 74.29,-159.99"/>
<g id="a_edge1&#45;headlabel"><a xlink:href="dir_000004_000002.html" target="_top" xlink:title="9">
<text text-anchor="middle" x="78.07" y="-158.46" font-family="Helvetica,sans-Serif" font-size="10.00" fill="#63b8ff">9</text>
</a>
</g>
</g>
<!-- dir_dc9937783625812aa8fbe040ae011b46 -->
<g id="node5" class="node">
<title>dir_dc9937783625812aa8fbe040ae011b46</title>
<g id="a_node5"><a xlink:href="dir_dc9937783625812aa8fbe040ae011b46.html" target="_top" xlink:title="tuple">
<polygon fill="#a2b4d6" stroke="#404040" points="133.62,-36.75 94.38,-36.75 94.38,-16 133.62,-16 133.62,-36.75"/>
<text text-anchor="middle" x="114" y="-23.25" font-family="Helvetica,sans-Serif" font-size="10.00">tuple</text>
</a>
</g>
</g>
<!-- dir_a01c8bcfc219e1c69ba75e16b9f3dae0&#45;&gt;dir_dc9937783625812aa8fbe040ae011b46 -->
<g id="edge4" class="edge">
<title>dir_a01c8bcfc219e1c69ba75e16b9f3dae0&#45;&gt;dir_dc9937783625812aa8fbe040ae011b46</title>
<path fill="none" stroke="#63b8ff" d="M87.93,-186.52C93.6,-177.56 102.13,-163.34 108,-150.25 118.89,-125.98 122.72,-119.75 127,-93.5 129.53,-77.96 125.81,-60.48 121.71,-47.4"/>
<polygon fill="#63b8ff" stroke="#63b8ff" points="124.75,-46.49 118.15,-38.2 118.14,-48.79 124.75,-46.49"/>
<g id="a_edge4&#45;headlabel"><a xlink:href="dir_000004_000005.html" target="_top" xlink:title="4">
<text text-anchor="middle" x="128.61" y="-44.83" font-family="Helvetica,sans-Serif" font-size="10.00" fill="#63b8ff">4</text>
</a>
</g>
</g>
<!-- dir_5a25afb40b3d758b0316c6da520c93e2&#45;&gt;dir_ae61d42a7cb21f7c301a814266e9934b -->
<g id="edge5" class="edge">
<title>dir_5a25afb40b3d758b0316c6da520c93e2&#45;&gt;dir_ae61d42a7cb21f7c301a814266e9934b</title>
<path fill="none" stroke="#63b8ff" d="M79.31,-72.34C73.5,-64.94 65.36,-54.57 58.36,-45.66"/>
<polygon fill="#63b8ff" stroke="#63b8ff" points="60.55,-43.78 51.62,-38.08 55.05,-48.1 60.55,-43.78"/>
<g id="a_edge5&#45;headlabel"><a xlink:href="dir_000001_000000.html" target="_top" xlink:title="10">
<text text-anchor="middle" x="65" y="-40.73" font-family="Helvetica,sans-Serif" font-size="10.00" fill="#63b8ff">10</text>
</a>
</g>
</g>
<!-- dir_5a25afb40b3d758b0316c6da520c93e2&#45;&gt;dir_dc9937783625812aa8fbe040ae011b46 -->
<g id="edge6" class="edge">
<title>dir_5a25afb40b3d758b0316c6da520c93e2&#45;&gt;dir_dc9937783625812aa8fbe040ae011b46</title>
<path fill="none" stroke="#63b8ff" d="M91.83,-72.34C95.32,-65.25 100.16,-55.44 104.42,-46.79"/>
<polygon fill="#63b8ff" stroke="#63b8ff" points="107.93,-48.6 109.21,-38.08 101.65,-45.5 107.93,-48.6"/>
<g id="a_edge6&#45;headlabel"><a xlink:href="dir_000001_000005.html" target="_top" xlink:title="2">
<text text-anchor="middle" x="108.89" y="-48.95" font-family="Helvetica,sans-Serif" font-size="10.00" fill="#63b8ff">2</text>
</a>
</g>
</g>
<!-- dir_2a32a5d0cffb1ce2fbf7512745c274aa&#45;&gt;dir_ae61d42a7cb21f7c301a814266e9934b -->
<g id="edge8" class="edge">
<title>dir_2a32a5d0cffb1ce2fbf7512745c274aa&#45;&gt;dir_ae61d42a7cb21f7c301a814266e9934b</title>
<path fill="none" stroke="#63b8ff" d="M60.01,-129.08C55.7,-120.09 49.74,-106.26 47,-93.5 43.75,-78.36 43.09,-60.84 43.19,-47.64"/>
<polygon fill="#63b8ff" stroke="#63b8ff" points="46.71,-48 43.45,-37.92 39.71,-47.83 46.71,-48"/>
<g id="a_edge8&#45;headlabel"><a xlink:href="dir_000002_000000.html" target="_top" xlink:title="3">
<text text-anchor="middle" x="49.46" y="-47.54" font-family="Helvetica,sans-Serif" font-size="10.00" fill="#63b8ff">3</text>
</a>
</g>
</g>
<!-- dir_2a32a5d0cffb1ce2fbf7512745c274aa&#45;&gt;dir_5a25afb40b3d758b0316c6da520c93e2 -->
<g id="edge7" class="edge">
<title>dir_2a32a5d0cffb1ce2fbf7512745c274aa&#45;&gt;dir_5a25afb40b3d758b0316c6da520c93e2</title>
<path fill="none" stroke="#63b8ff" d="M68.93,-129.09C71.75,-122.08 75.64,-112.41 79.08,-103.83"/>
<polygon fill="#63b8ff" stroke="#63b8ff" points="82.62,-105.41 83.1,-94.83 76.12,-102.8 82.62,-105.41"/>
<g id="a_edge7&#45;headlabel"><a xlink:href="dir_000002_000001.html" target="_top" xlink:title="6">
<text text-anchor="middle" x="83.91" y="-105.68" font-family="Helvetica,sans-Serif" font-size="10.00" fill="#63b8ff">6</text>
</a>
</g>
</g>
</g>
</svg>
