<?xml version="1.0" encoding="UTF-8" standalone="no"?>
<!DOCTYPE svg PUBLIC "-//W3C//DTD SVG 1.1//EN"
 "http://www.w3.org/Graphics/SVG/1.1/DTD/svg11.dtd">
<!-- Generated by graphviz version 2.43.0 (0)
 -->
<!-- Title: /home/runner/work/Simple&#45;Utility/Simple&#45;Utility/include/Simple&#45;Utility Pages: 1 -->
<svg width="188pt" height="327pt"
 viewBox="0.00 0.00 188.00 327.00" xmlns="http://www.w3.org/2000/svg" xmlns:xlink="http://www.w3.org/1999/xlink">
<g id="graph0" class="graph" transform="scale(1 1) rotate(0) translate(4 323)">
<title>/home/runner/work/Simple&#45;Utility/Simple&#45;Utility/include/Simple&#45;Utility</title>
<polygon fill="white" stroke="transparent" points="-4,4 -4,-323 184,-323 184,4 -4,4"/>
<g id="clust1" class="cluster">
<title>clusterdir_d44c64559bbebec7f509842c48db8b23</title>
<g id="a_clust1"><a xlink:href="dir_d44c64559bbebec7f509842c48db8b23.html" target="_top" xlink:title="include">
<polygon fill="#ddddee" stroke="black" points="8,-8 8,-311 172,-311 172,-8 8,-8"/>
<text text-anchor="middle" x="90" y="-299" font-family="Helvetica,sans-Serif" font-size="10.00">include</text>
</a>
</g>
</g>
<g id="clust2" class="cluster">
<title>clusterdir_6e0f4ef8b06c98cc225efcfd4d37205c</title>
<g id="a_clust2"><a xlink:href="dir_6e0f4ef8b06c98cc225efcfd4d37205c.html" target="_top">
<polygon fill="#eeeeff" stroke="black" points="16,-16 16,-284 164,-284 164,-16 16,-16"/>
</a>
</g>
</g>
<!-- dir_6e0f4ef8b06c98cc225efcfd4d37205c -->
<g id="node1" class="node">
<title>dir_6e0f4ef8b06c98cc225efcfd4d37205c</title>
<text text-anchor="middle" x="86" y="-255.5" font-family="Helvetica,sans-Serif" font-size="10.00">Simple&#45;Utility</text>
</g>
<!-- dir_d2e4124a59bfb20e6789a8a614cc5bbe -->
<g id="node4" class="node">
<title>dir_d2e4124a59bfb20e6789a8a614cc5bbe</title>
<g id="a_node4"><a xlink:href="dir_d2e4124a59bfb20e6789a8a614cc5bbe.html" target="_top" xlink:title="nullables">
<polygon fill="white" stroke="black" points="116.5,-204 55.5,-204 55.5,-168 116.5,-168 116.5,-204"/>
<text text-anchor="middle" x="86" y="-183.5" font-family="Helvetica,sans-Serif" font-size="10.00">nullables</text>
</a>
</g>
</g>
<!-- dir_6e0f4ef8b06c98cc225efcfd4d37205c&#45;&gt;dir_d2e4124a59bfb20e6789a8a614cc5bbe -->
<g id="edge3" class="edge">
<title>dir_6e0f4ef8b06c98cc225efcfd4d37205c&#45;&gt;dir_d2e4124a59bfb20e6789a8a614cc5bbe</title>
<path fill="none" stroke="black" d="M86,-239.7C86,-231.98 86,-222.71 86,-214.11"/>
<polygon fill="black" stroke="black" points="89.5,-214.1 86,-204.1 82.5,-214.1 89.5,-214.1"/>
<g id="a_edge3&#45;headlabel"><a xlink:href="dir_000001_000004.html" target="_top" xlink:title="9">
<text text-anchor="middle" x="92.34" y="-215.2" font-family="Helvetica,sans-Serif" font-size="10.00">9</text>
</a>
</g>
</g>
<!-- dir_73c0ad15f2cd42ced3ce1dfbad7651e9 -->
<g id="node2" class="node">
<title>dir_73c0ad15f2cd42ced3ce1dfbad7651e9</title>
<g id="a_node2"><a xlink:href="dir_73c0ad15f2cd42ced3ce1dfbad7651e9.html" target="_top" xlink:title="concepts">
<polygon fill="white" stroke="black" points="84,-60 24,-60 24,-24 84,-24 84,-60"/>
<text text-anchor="middle" x="54" y="-39.5" font-family="Helvetica,sans-Serif" font-size="10.00">concepts</text>
</a>
</g>
</g>
<!-- dir_2641ce3d2614b166f835e31f7838200c -->
<g id="node3" class="node">
<title>dir_2641ce3d2614b166f835e31f7838200c</title>
<g id="a_node3"><a xlink:href="dir_2641ce3d2614b166f835e31f7838200c.html" target="_top" xlink:title="functional">
<polygon fill="white" stroke="red" points="138.5,-132 73.5,-132 73.5,-96 138.5,-96 138.5,-132"/>
<text text-anchor="middle" x="106" y="-111.5" font-family="Helvetica,sans-Serif" font-size="10.00">functional</text>
</a>
</g>
</g>
<!-- dir_2641ce3d2614b166f835e31f7838200c&#45;&gt;dir_73c0ad15f2cd42ced3ce1dfbad7651e9 -->
<g id="edge1" class="edge">
<title>dir_2641ce3d2614b166f835e31f7838200c&#45;&gt;dir_73c0ad15f2cd42ced3ce1dfbad7651e9</title>
<path fill="none" stroke="black" d="M93.15,-95.7C86.97,-87.39 79.46,-77.28 72.68,-68.14"/>
<polygon fill="black" stroke="black" points="75.48,-66.04 66.71,-60.1 69.86,-70.22 75.48,-66.04"/>
<g id="a_edge1&#45;headlabel"><a xlink:href="dir_000003_000002.html" target="_top" xlink:title="10">
<text text-anchor="middle" x="79.9" y="-64.74" font-family="Helvetica,sans-Serif" font-size="10.00">10</text>
</a>
</g>
</g>
<!-- dir_205909e5a0e7503eb55695dcb7df0a7a -->
<g id="node5" class="node">
<title>dir_205909e5a0e7503eb55695dcb7df0a7a</title>
<g id="a_node5"><a xlink:href="dir_205909e5a0e7503eb55695dcb7df0a7a.html" target="_top" xlink:title="tuple">
<polygon fill="white" stroke="black" points="156,-60 102,-60 102,-24 156,-24 156,-60"/>
<text text-anchor="middle" x="129" y="-39.5" font-family="Helvetica,sans-Serif" font-size="10.00">tuple</text>
</a>
</g>
</g>
<!-- dir_2641ce3d2614b166f835e31f7838200c&#45;&gt;dir_205909e5a0e7503eb55695dcb7df0a7a -->
<g id="edge2" class="edge">
<title>dir_2641ce3d2614b166f835e31f7838200c&#45;&gt;dir_205909e5a0e7503eb55695dcb7df0a7a</title>
<path fill="none" stroke="black" d="M111.69,-95.7C114.25,-87.9 117.33,-78.51 120.18,-69.83"/>
<polygon fill="black" stroke="black" points="123.58,-70.7 123.38,-60.1 116.93,-68.51 123.58,-70.7"/>
<g id="a_edge2&#45;headlabel"><a xlink:href="dir_000003_000006.html" target="_top" xlink:title="2">
<text text-anchor="middle" x="125.16" y="-72.5" font-family="Helvetica,sans-Serif" font-size="10.00">2</text>
</a>
</g>
</g>
<!-- dir_d2e4124a59bfb20e6789a8a614cc5bbe&#45;&gt;dir_73c0ad15f2cd42ced3ce1dfbad7651e9 -->
<g id="edge5" class="edge">
<title>dir_d2e4124a59bfb20e6789a8a614cc5bbe&#45;&gt;dir_73c0ad15f2cd42ced3ce1dfbad7651e9</title>
<path fill="none" stroke="black" d="M77.85,-167.71C73.39,-157.52 68.14,-144.27 65,-132 59.81,-111.67 57.03,-88.07 55.57,-70.29"/>
<polygon fill="black" stroke="black" points="59.06,-70.02 54.84,-60.3 52.08,-70.53 59.06,-70.02"/>
<g id="a_edge5&#45;headlabel"><a xlink:href="dir_000004_000002.html" target="_top" xlink:title="3">
<text text-anchor="middle" x="62.15" y="-70.9" font-family="Helvetica,sans-Serif" font-size="10.00">3</text>
</a>
</g>
</g>
<!-- dir_d2e4124a59bfb20e6789a8a614cc5bbe&#45;&gt;dir_2641ce3d2614b166f835e31f7838200c -->
<g id="edge4" class="edge">
<title>dir_d2e4124a59bfb20e6789a8a614cc5bbe&#45;&gt;dir_2641ce3d2614b166f835e31f7838200c</title>
<path fill="none" stroke="black" d="M90.94,-167.7C93.17,-159.9 95.85,-150.51 98.33,-141.83"/>
<polygon fill="black" stroke="black" points="101.73,-142.68 101.11,-132.1 95,-140.76 101.73,-142.68"/>
<g id="a_edge4&#45;headlabel"><a xlink:href="dir_000004_000003.html" target="_top" xlink:title="6">
<text text-anchor="middle" x="103.47" y="-144.42" font-family="Helvetica,sans-Serif" font-size="10.00">6</text>
</a>
</g>
</g>
</g>
</svg>
