<?xml version="1.0" encoding="UTF-8" standalone="no"?>
<!DOCTYPE svg PUBLIC "-//W3C//DTD SVG 1.1//EN"
 "http://www.w3.org/Graphics/SVG/1.1/DTD/svg11.dtd">
<!-- Generated by graphviz version 7.0.5 (20221223.1930)
 -->
<!-- Title: Simple&#45;Utility Pages: 1 -->
<svg width="162pt" height="224pt"
 viewBox="0.00 0.00 162.00 224.00" xmlns="http://www.w3.org/2000/svg" xmlns:xlink="http://www.w3.org/1999/xlink">
<g id="graph0" class="graph" transform="scale(1 1) rotate(0) translate(4 220)">
<title>Simple&#45;Utility</title>
<g id="clust1" class="cluster">
<title>clusterdir_a01c8bcfc219e1c69ba75e16b9f3dae0</title>
<g id="a_clust1"><a xlink:href="dir_a01c8bcfc219e1c69ba75e16b9f3dae0.html" target="_top">
<polygon fill="#edf0f7" stroke="#404040" stroke-width="2" points="8,-8 8,-208 146,-208 146,-8 8,-8"/>
</a>
</g>
</g>
<!-- dir_a01c8bcfc219e1c69ba75e16b9f3dae0 -->
<g id="node1" class="node">
<title>dir_a01c8bcfc219e1c69ba75e16b9f3dae0</title>
<text text-anchor="middle" x="82" y="-188" font-family="Helvetica,sans-Serif" font-size="10.00">Simple&#45;Utility</text>
</g>
<!-- dir_ae61d42a7cb21f7c301a814266e9934b -->
<g id="node2" class="node">
<title>dir_ae61d42a7cb21f7c301a814266e9934b</title>
<g id="a_node2"><a xlink:href="dir_ae61d42a7cb21f7c301a814266e9934b.html" target="_top" xlink:title="concepts">
<polygon fill="#a2b4d6" stroke="#404040" points="73.5,-35 16.5,-35 16.5,-16 73.5,-16 73.5,-35"/>
<text text-anchor="middle" x="45" y="-23" font-family="Helvetica,sans-Serif" font-size="10.00">concepts</text>
</a>
</g>
</g>
<!-- dir_a01c8bcfc219e1c69ba75e16b9f3dae0&#45;&gt;dir_ae61d42a7cb21f7c301a814266e9934b -->
<g id="edge3" class="edge">
<title>dir_a01c8bcfc219e1c69ba75e16b9f3dae0&#45;&gt;dir_ae61d42a7cb21f7c301a814266e9934b</title>
<path fill="none" stroke="#63b8ff" d="M64.81,-181.03C51.76,-173.55 34.78,-161.29 27,-145 11.52,-112.56 25.12,-69.95 35.61,-45.66"/>
<polygon fill="#63b8ff" stroke="#63b8ff" points="38.73,-47.25 39.74,-36.71 32.37,-44.32 38.73,-47.25"/>
<g id="a_edge3&#45;headlabel"><a xlink:href="dir_000004_000000.html" target="_top" xlink:title="14">
<text text-anchor="middle" x="40.44" y="-47.83" font-family="Helvetica,sans-Serif" font-size="10.00" fill="#63b8ff">14</text>
</a>
</g>
</g>
<!-- dir_5a25afb40b3d758b0316c6da520c93e2 -->
<g id="node3" class="node">
<title>dir_5a25afb40b3d758b0316c6da520c93e2</title>
<g id="a_node3"><a xlink:href="dir_5a25afb40b3d758b0316c6da520c93e2.html" target="_top" xlink:title="functional">
<polygon fill="#a2b4d6" stroke="#404040" points="118,-90 56,-90 56,-71 118,-71 118,-90"/>
<text text-anchor="middle" x="87" y="-78" font-family="Helvetica,sans-Serif" font-size="10.00">functional</text>
</a>
</g>
</g>
<!-- dir_a01c8bcfc219e1c69ba75e16b9f3dae0&#45;&gt;dir_5a25afb40b3d758b0316c6da520c93e2 -->
<g id="edge2" class="edge">
<title>dir_a01c8bcfc219e1c69ba75e16b9f3dae0&#45;&gt;dir_5a25afb40b3d758b0316c6da520c93e2</title>
<path fill="none" stroke="#63b8ff" d="M87.38,-181.05C92.56,-172.39 100.01,-158.34 103,-145 106.39,-129.88 101.63,-112.86 96.45,-100.25"/>
<polygon fill="#63b8ff" stroke="#63b8ff" points="99.77,-99.1 92.41,-91.47 93.41,-102.02 99.77,-99.1"/>
<g id="a_edge2&#45;headlabel"><a xlink:href="dir_000004_000001.html" target="_top" xlink:title="28">
<text text-anchor="middle" x="103.22" y="-97.3" font-family="Helvetica,sans-Serif" font-size="10.00" fill="#63b8ff">28</text>
</a>
</g>
</g>
<!-- dir_2a32a5d0cffb1ce2fbf7512745c274aa -->
<g id="node4" class="node">
<title>dir_2a32a5d0cffb1ce2fbf7512745c274aa</title>
<g id="a_node4"><a xlink:href="dir_2a32a5d0cffb1ce2fbf7512745c274aa.html" target="_top" xlink:title="nullables">
<polygon fill="#a2b4d6" stroke="#404040" points="94,-145 36,-145 36,-126 94,-126 94,-145"/>
<text text-anchor="middle" x="65" y="-133" font-family="Helvetica,sans-Serif" font-size="10.00">nullables</text>
</a>
</g>
</g>
<!-- dir_a01c8bcfc219e1c69ba75e16b9f3dae0&#45;&gt;dir_2a32a5d0cffb1ce2fbf7512745c274aa -->
<g id="edge1" class="edge">
<title>dir_a01c8bcfc219e1c69ba75e16b9f3dae0&#45;&gt;dir_2a32a5d0cffb1ce2fbf7512745c274aa</title>
<path fill="none" stroke="#63b8ff" d="M79.34,-181.22C77.19,-174.49 74.06,-164.73 71.27,-156.05"/>
<polygon fill="#63b8ff" stroke="#63b8ff" points="74.66,-155.15 68.27,-146.69 67.99,-157.28 74.66,-155.15"/>
<g id="a_edge1&#45;headlabel"><a xlink:href="dir_000004_000002.html" target="_top" xlink:title="9">
<text text-anchor="middle" x="78" y="-153.76" font-family="Helvetica,sans-Serif" font-size="10.00" fill="#63b8ff">9</text>
</a>
</g>
</g>
<!-- dir_dc9937783625812aa8fbe040ae011b46 -->
<g id="node5" class="node">
<title>dir_dc9937783625812aa8fbe040ae011b46</title>
<g id="a_node5"><a xlink:href="dir_dc9937783625812aa8fbe040ae011b46.html" target="_top" xlink:title="tuple">
<polygon fill="#a2b4d6" stroke="#404040" points="135,-35 95,-35 95,-16 135,-16 135,-35"/>
<text text-anchor="middle" x="115" y="-23" font-family="Helvetica,sans-Serif" font-size="10.00">tuple</text>
</a>
</g>
</g>
<!-- dir_a01c8bcfc219e1c69ba75e16b9f3dae0&#45;&gt;dir_dc9937783625812aa8fbe040ae011b46 -->
<g id="edge4" class="edge">
<title>dir_a01c8bcfc219e1c69ba75e16b9f3dae0&#45;&gt;dir_dc9937783625812aa8fbe040ae011b46</title>
<path fill="none" stroke="#63b8ff" d="M87.57,-181.2C98.21,-164.71 120.91,-126.27 127,-90 129.51,-75.07 126.04,-58.25 122.2,-45.67"/>
<polygon fill="#63b8ff" stroke="#63b8ff" points="125.62,-44.87 119.07,-36.54 119,-47.13 125.62,-44.87"/>
<g id="a_edge4&#45;headlabel"><a xlink:href="dir_000004_000005.html" target="_top" xlink:title="4">
<text text-anchor="middle" x="128.98" y="-43.42" font-family="Helvetica,sans-Serif" font-size="10.00" fill="#63b8ff">4</text>
</a>
</g>
</g>
<!-- dir_5a25afb40b3d758b0316c6da520c93e2&#45;&gt;dir_ae61d42a7cb21f7c301a814266e9934b -->
<g id="edge5" class="edge">
<title>dir_5a25afb40b3d758b0316c6da520c93e2&#45;&gt;dir_ae61d42a7cb21f7c301a814266e9934b</title>
<path fill="none" stroke="#63b8ff" d="M80.06,-70.75C74.38,-63.58 66.16,-53.2 59.11,-44.3"/>
<polygon fill="#63b8ff" stroke="#63b8ff" points="61.98,-42.29 53.03,-36.63 56.49,-46.64 61.98,-42.29"/>
<g id="a_edge5&#45;headlabel"><a xlink:href="dir_000001_000000.html" target="_top" xlink:title="10">
<text text-anchor="middle" x="65.5" y="-39.66" font-family="Helvetica,sans-Serif" font-size="10.00" fill="#63b8ff">10</text>
</a>
</g>
</g>
<!-- dir_5a25afb40b3d758b0316c6da520c93e2&#45;&gt;dir_dc9937783625812aa8fbe040ae011b46 -->
<g id="edge6" class="edge">
<title>dir_5a25afb40b3d758b0316c6da520c93e2&#45;&gt;dir_dc9937783625812aa8fbe040ae011b46</title>
<path fill="none" stroke="#63b8ff" d="M91.62,-70.75C95.25,-63.88 100.43,-54.08 104.99,-45.45"/>
<polygon fill="#63b8ff" stroke="#63b8ff" points="107.99,-47.26 109.57,-36.78 101.8,-43.99 107.99,-47.26"/>
<g id="a_edge6&#45;headlabel"><a xlink:href="dir_000001_000005.html" target="_top" xlink:title="2">
<text text-anchor="middle" x="109.53" y="-47.92" font-family="Helvetica,sans-Serif" font-size="10.00" fill="#63b8ff">2</text>
</a>
</g>
</g>
<!-- dir_2a32a5d0cffb1ce2fbf7512745c274aa&#45;&gt;dir_ae61d42a7cb21f7c301a814266e9934b -->
<g id="edge8" class="edge">
<title>dir_2a32a5d0cffb1ce2fbf7512745c274aa&#45;&gt;dir_ae61d42a7cb21f7c301a814266e9934b</title>
<path fill="none" stroke="#63b8ff" d="M60.3,-125.59C55.94,-116.82 49.72,-102.88 47,-90 43.99,-75.74 43.56,-59.29 43.84,-46.7"/>
<polygon fill="#63b8ff" stroke="#63b8ff" points="47.33,-46.89 44.25,-36.75 40.34,-46.6 47.33,-46.89"/>
<g id="a_edge8&#45;headlabel"><a xlink:href="dir_000002_000000.html" target="_top" xlink:title="3">
<text text-anchor="middle" x="50.08" y="-46.59" font-family="Helvetica,sans-Serif" font-size="10.00" fill="#63b8ff">3</text>
</a>
</g>
</g>
<!-- dir_2a32a5d0cffb1ce2fbf7512745c274aa&#45;&gt;dir_5a25afb40b3d758b0316c6da520c93e2 -->
<g id="edge7" class="edge">
<title>dir_2a32a5d0cffb1ce2fbf7512745c274aa&#45;&gt;dir_5a25afb40b3d758b0316c6da520c93e2</title>
<path fill="none" stroke="#63b8ff" d="M68.63,-125.75C71.42,-119.04 75.37,-109.52 78.9,-101.02"/>
<polygon fill="#63b8ff" stroke="#63b8ff" points="82.11,-102.42 82.71,-91.84 75.64,-99.73 82.11,-102.42"/>
<g id="a_edge7&#45;headlabel"><a xlink:href="dir_000002_000001.html" target="_top" xlink:title="6">
<text text-anchor="middle" x="83.93" y="-102.93" font-family="Helvetica,sans-Serif" font-size="10.00" fill="#63b8ff">6</text>
</a>
</g>
</g>
</g>
</svg>
