<?xml version="1.0" encoding="UTF-8" standalone="no"?>
<!DOCTYPE svg PUBLIC "-//W3C//DTD SVG 1.1//EN"
 "http://www.w3.org/Graphics/SVG/1.1/DTD/svg11.dtd">
<!-- Generated by graphviz version 2.43.0 (0)
 -->
<!-- Title: /home/runner/work/Simple&#45;Utility/Simple&#45;Utility/include/Simple&#45;Utility/functional Pages: 1 -->
<svg width="172pt" height="247pt"
 viewBox="0.00 0.00 172.00 247.00" xmlns="http://www.w3.org/2000/svg" xmlns:xlink="http://www.w3.org/1999/xlink">
<g id="graph0" class="graph" transform="scale(1 1) rotate(0) translate(4 243)">
<title>/home/runner/work/Simple&#45;Utility/Simple&#45;Utility/include/Simple&#45;Utility/functional</title>
<polygon fill="white" stroke="transparent" points="-4,4 -4,-243 168,-243 168,4 -4,4"/>
<g id="clust1" class="cluster">
<title>clusterdir_6e0f4ef8b06c98cc225efcfd4d37205c</title>
<g id="a_clust1"><a xlink:href="dir_6e0f4ef8b06c98cc225efcfd4d37205c.html" target="_top" xlink:title="Simple&#45;Utility">
<polygon fill="#ddddee" stroke="black" points="8,-8 8,-231 156,-231 156,-8 8,-8"/>
<text text-anchor="middle" x="82" y="-219" font-family="Helvetica,sans-Serif" font-size="10.00">Simple&#45;Utility</text>
</a>
</g>
</g>
<g id="clust2" class="cluster">
<title>clusterdir_2641ce3d2614b166f835e31f7838200c</title>
<g id="a_clust2"><a xlink:href="dir_2641ce3d2614b166f835e31f7838200c.html" target="_top">
<polygon fill="#eeeeff" stroke="black" points="27,-80 27,-204 109,-204 109,-80 27,-80"/>
</a>
</g>
</g>
<!-- dir_73c0ad15f2cd42ced3ce1dfbad7651e9 -->
<g id="node1" class="node">
<title>dir_73c0ad15f2cd42ced3ce1dfbad7651e9</title>
<g id="a_node1"><a xlink:href="dir_73c0ad15f2cd42ced3ce1dfbad7651e9.html" target="_top" xlink:title="concepts">
<polygon fill="none" stroke="black" points="148,-52 88,-52 88,-16 148,-16 148,-52"/>
<text text-anchor="middle" x="118" y="-31.5" font-family="Helvetica,sans-Serif" font-size="10.00">concepts</text>
</a>
</g>
</g>
<!-- dir_205909e5a0e7503eb55695dcb7df0a7a -->
<g id="node2" class="node">
<title>dir_205909e5a0e7503eb55695dcb7df0a7a</title>
<g id="a_node2"><a xlink:href="dir_205909e5a0e7503eb55695dcb7df0a7a.html" target="_top" xlink:title="tuple">
<polygon fill="none" stroke="black" points="70,-52 16,-52 16,-16 70,-16 70,-52"/>
<text text-anchor="middle" x="43" y="-31.5" font-family="Helvetica,sans-Serif" font-size="10.00">tuple</text>
</a>
</g>
</g>
<!-- dir_2641ce3d2614b166f835e31f7838200c -->
<g id="node3" class="node">
<title>dir_2641ce3d2614b166f835e31f7838200c</title>
<text text-anchor="middle" x="68" y="-175.5" font-family="Helvetica,sans-Serif" font-size="10.00">functional</text>
</g>
<!-- dir_2641ce3d2614b166f835e31f7838200c&#45;&gt;dir_73c0ad15f2cd42ced3ce1dfbad7651e9 -->
<g id="edge1" class="edge">
<title>dir_2641ce3d2614b166f835e31f7838200c&#45;&gt;dir_73c0ad15f2cd42ced3ce1dfbad7651e9</title>
<path fill="none" stroke="black" d="M84.72,-159.85C93.16,-150.13 102.71,-137.28 108,-124 115.85,-104.29 118.18,-80.31 118.63,-62.2"/>
<polygon fill="black" stroke="black" points="122.13,-62.07 118.71,-52.04 115.13,-62.02 122.13,-62.07"/>
<g id="a_edge1&#45;headlabel"><a xlink:href="dir_000003_000002.html" target="_top" xlink:title="10">
<text text-anchor="middle" x="124.95" y="-63.19" font-family="Helvetica,sans-Serif" font-size="10.00">10</text>
</a>
</g>
</g>
<!-- dir_91003afaf3867480c664fbe18b86382b -->
<g id="node4" class="node">
<title>dir_91003afaf3867480c664fbe18b86382b</title>
<g id="a_node4"><a xlink:href="dir_91003afaf3867480c664fbe18b86382b.html" target="_top" xlink:title="operators">
<polygon fill="white" stroke="black" points="98.5,-124 35.5,-124 35.5,-88 98.5,-88 98.5,-124"/>
<text text-anchor="middle" x="67" y="-103.5" font-family="Helvetica,sans-Serif" font-size="10.00">operators</text>
</a>
</g>
</g>
<!-- dir_2641ce3d2614b166f835e31f7838200c&#45;&gt;dir_91003afaf3867480c664fbe18b86382b -->
<g id="edge2" class="edge">
<title>dir_2641ce3d2614b166f835e31f7838200c&#45;&gt;dir_91003afaf3867480c664fbe18b86382b</title>
<path fill="none" stroke="black" d="M67.75,-159.7C67.64,-151.98 67.51,-142.71 67.39,-134.11"/>
<polygon fill="black" stroke="black" points="70.89,-134.05 67.24,-124.1 63.89,-134.15 70.89,-134.05"/>
<g id="a_edge2&#45;headlabel"><a xlink:href="dir_000003_000005.html" target="_top" xlink:title="9">
<text text-anchor="middle" x="73.78" y="-135.11" font-family="Helvetica,sans-Serif" font-size="10.00">9</text>
</a>
</g>
</g>
<!-- dir_91003afaf3867480c664fbe18b86382b&#45;&gt;dir_73c0ad15f2cd42ced3ce1dfbad7651e9 -->
<g id="edge4" class="edge">
<title>dir_91003afaf3867480c664fbe18b86382b&#45;&gt;dir_73c0ad15f2cd42ced3ce1dfbad7651e9</title>
<path fill="none" stroke="black" d="M79.61,-87.7C85.6,-79.47 92.88,-69.48 99.48,-60.42"/>
<polygon fill="black" stroke="black" points="102.48,-62.25 105.54,-52.1 96.82,-58.13 102.48,-62.25"/>
<g id="a_edge4&#45;headlabel"><a xlink:href="dir_000005_000002.html" target="_top" xlink:title="4">
<text text-anchor="middle" x="102.66" y="-64.32" font-family="Helvetica,sans-Serif" font-size="10.00">4</text>
</a>
</g>
</g>
<!-- dir_91003afaf3867480c664fbe18b86382b&#45;&gt;dir_205909e5a0e7503eb55695dcb7df0a7a -->
<g id="edge3" class="edge">
<title>dir_91003afaf3867480c664fbe18b86382b&#45;&gt;dir_205909e5a0e7503eb55695dcb7df0a7a</title>
<path fill="none" stroke="black" d="M61.07,-87.7C58.39,-79.9 55.17,-70.51 52.2,-61.83"/>
<polygon fill="black" stroke="black" points="55.42,-60.43 48.86,-52.1 48.8,-62.7 55.42,-60.43"/>
<g id="a_edge3&#45;headlabel"><a xlink:href="dir_000005_000006.html" target="_top" xlink:title="2">
<text text-anchor="middle" x="59.27" y="-60.41" font-family="Helvetica,sans-Serif" font-size="10.00">2</text>
</a>
</g>
</g>
</g>
</svg>
