<?xml version="1.0" encoding="UTF-8" standalone="no"?>
<!DOCTYPE svg PUBLIC "-//W3C//DTD SVG 1.1//EN"
 "http://www.w3.org/Graphics/SVG/1.1/DTD/svg11.dtd">
<!-- Generated by graphviz version 7.0.5 (20221223.1930)
 -->
<!-- Title: Simple&#45;Utility/functional Pages: 1 -->
<svg width="156pt" height="196pt"
 viewBox="0.00 0.00 156.00 196.00" xmlns="http://www.w3.org/2000/svg" xmlns:xlink="http://www.w3.org/1999/xlink">
<g id="graph0" class="graph" transform="scale(1 1) rotate(0) translate(4 192)">
<title>Simple&#45;Utility/functional</title>
<g id="clust1" class="cluster">
<title>clusterdir_a01c8bcfc219e1c69ba75e16b9f3dae0</title>
<g id="a_clust1"><a xlink:href="dir_a01c8bcfc219e1c69ba75e16b9f3dae0.html" target="_top" xlink:title="Simple&#45;Utility">
<polygon fill="#edf0f7" stroke="#404040" stroke-dasharray="5,2" points="8,-8 8,-180 140,-180 140,-8 8,-8"/>
<text text-anchor="middle" x="74" y="-168" font-family="Helvetica,sans-Serif" font-size="10.00">Simple&#45;Utility</text>
</a>
</g>
</g>
<g id="clust2" class="cluster">
<title>clusterdir_5a25afb40b3d758b0316c6da520c93e2</title>
<g id="a_clust2"><a xlink:href="dir_5a25afb40b3d758b0316c6da520c93e2.html" target="_top">
<polygon fill="#edf0f7" stroke="#404040" stroke-width="2" points="16,-63 16,-153 94,-153 94,-63 16,-63"/>
</a>
</g>
</g>
<!-- dir_ae61d42a7cb21f7c301a814266e9934b -->
<g id="node1" class="node">
<title>dir_ae61d42a7cb21f7c301a814266e9934b</title>
<g id="a_node1"><a xlink:href="dir_ae61d42a7cb21f7c301a814266e9934b.html" target="_top" xlink:title="concepts">
<polygon fill="#a2b4d6" stroke="#404040" points="131.5,-35 74.5,-35 74.5,-16 131.5,-16 131.5,-35"/>
<text text-anchor="middle" x="103" y="-23" font-family="Helvetica,sans-Serif" font-size="10.00">concepts</text>
</a>
</g>
</g>
<!-- dir_dc9937783625812aa8fbe040ae011b46 -->
<g id="node2" class="node">
<title>dir_dc9937783625812aa8fbe040ae011b46</title>
<g id="a_node2"><a xlink:href="dir_dc9937783625812aa8fbe040ae011b46.html" target="_top" xlink:title="tuple">
<polygon fill="#a2b4d6" stroke="#404040" points="56,-35 16,-35 16,-16 56,-16 56,-35"/>
<text text-anchor="middle" x="36" y="-23" font-family="Helvetica,sans-Serif" font-size="10.00">tuple</text>
</a>
</g>
</g>
<!-- dir_5a25afb40b3d758b0316c6da520c93e2 -->
<g id="node3" class="node">
<title>dir_5a25afb40b3d758b0316c6da520c93e2</title>
<text text-anchor="middle" x="55" y="-133" font-family="Helvetica,sans-Serif" font-size="10.00">functional</text>
</g>
<!-- dir_5a25afb40b3d758b0316c6da520c93e2&#45;&gt;dir_ae61d42a7cb21f7c301a814266e9934b -->
<g id="edge2" class="edge">
<title>dir_5a25afb40b3d758b0316c6da520c93e2&#45;&gt;dir_ae61d42a7cb21f7c301a814266e9934b</title>
<path fill="none" stroke="#63b8ff" d="M65.14,-126.1C74.3,-117.9 87.32,-104.57 94,-90 100.27,-76.34 102.43,-59.43 103.07,-46.49"/>
<polygon fill="#63b8ff" stroke="#63b8ff" points="106.57,-46.73 103.27,-36.66 99.57,-46.59 106.57,-46.73"/>
<g id="a_edge2&#45;headlabel"><a xlink:href="dir_000001_000000.html" target="_top" xlink:title="10">
<text text-anchor="middle" x="109.36" y="-46.37" font-family="Helvetica,sans-Serif" font-size="10.00" fill="#63b8ff">10</text>
</a>
</g>
</g>
<!-- dir_832a1b35f88904c31b3e4d83b249abb5 -->
<g id="node4" class="node">
<title>dir_832a1b35f88904c31b3e4d83b249abb5</title>
<g id="a_node4"><a xlink:href="dir_832a1b35f88904c31b3e4d83b249abb5.html" target="_top" xlink:title="operators">
<polygon fill="#a2b4d6" stroke="#404040" points="85.5,-90 24.5,-90 24.5,-71 85.5,-71 85.5,-90"/>
<text text-anchor="middle" x="55" y="-78" font-family="Helvetica,sans-Serif" font-size="10.00">operators</text>
</a>
</g>
</g>
<!-- dir_5a25afb40b3d758b0316c6da520c93e2&#45;&gt;dir_832a1b35f88904c31b3e4d83b249abb5 -->
<g id="edge1" class="edge">
<title>dir_5a25afb40b3d758b0316c6da520c93e2&#45;&gt;dir_832a1b35f88904c31b3e4d83b249abb5</title>
<path fill="none" stroke="#63b8ff" d="M55,-126.22C55,-119.65 55,-110.18 55,-101.64"/>
<polygon fill="#63b8ff" stroke="#63b8ff" points="58.5,-101.77 55,-91.77 51.5,-101.77 58.5,-101.77"/>
<g id="a_edge1&#45;headlabel"><a xlink:href="dir_000001_000003.html" target="_top" xlink:title="9">
<text text-anchor="middle" x="61.34" y="-101.35" font-family="Helvetica,sans-Serif" font-size="10.00" fill="#63b8ff">9</text>
</a>
</g>
</g>
<!-- dir_832a1b35f88904c31b3e4d83b249abb5&#45;&gt;dir_ae61d42a7cb21f7c301a814266e9934b -->
<g id="edge3" class="edge">
<title>dir_832a1b35f88904c31b3e4d83b249abb5&#45;&gt;dir_ae61d42a7cb21f7c301a814266e9934b</title>
<path fill="none" stroke="#63b8ff" d="M62.93,-70.75C69.56,-63.43 79.22,-52.76 87.39,-43.74"/>
<polygon fill="#63b8ff" stroke="#63b8ff" points="89.77,-46.33 93.89,-36.56 84.58,-41.63 89.77,-46.33"/>
<g id="a_edge3&#45;headlabel"><a xlink:href="dir_000003_000000.html" target="_top" xlink:title="4">
<text text-anchor="middle" x="90.47" y="-47.27" font-family="Helvetica,sans-Serif" font-size="10.00" fill="#63b8ff">4</text>
</a>
</g>
</g>
<!-- dir_832a1b35f88904c31b3e4d83b249abb5&#45;&gt;dir_dc9937783625812aa8fbe040ae011b46 -->
<g id="edge4" class="edge">
<title>dir_832a1b35f88904c31b3e4d83b249abb5&#45;&gt;dir_dc9937783625812aa8fbe040ae011b46</title>
<path fill="none" stroke="#63b8ff" d="M51.86,-70.75C49.46,-64.04 46.04,-54.52 43,-46.02"/>
<polygon fill="#63b8ff" stroke="#63b8ff" points="46.39,-45.1 39.72,-36.87 39.8,-47.46 46.39,-45.1"/>
<g id="a_edge4&#45;headlabel"><a xlink:href="dir_000003_000005.html" target="_top" xlink:title="2">
<text text-anchor="middle" x="49.76" y="-43.6" font-family="Helvetica,sans-Serif" font-size="10.00" fill="#63b8ff">2</text>
</a>
</g>
</g>
</g>
</svg>
