<?xml version="1.0" encoding="UTF-8" standalone="no"?>
<!DOCTYPE svg PUBLIC "-//W3C//DTD SVG 1.1//EN"
 "http://www.w3.org/Graphics/SVG/1.1/DTD/svg11.dtd">
<!-- Generated by graphviz version 8.0.5 (20230430.1635)
 -->
<!-- Title: Simple&#45;Utility/functional Pages: 1 -->
<svg width="154pt" height="203pt"
 viewBox="0.00 0.00 154.00 203.00" xmlns="http://www.w3.org/2000/svg" xmlns:xlink="http://www.w3.org/1999/xlink">
<g id="graph0" class="graph" transform="scale(1 1) rotate(0) translate(4 199)">
<title>Simple&#45;Utility/functional</title>
<g id="clust1" class="cluster">
<title>clusterdir_a01c8bcfc219e1c69ba75e16b9f3dae0</title>
<g id="a_clust1"><a xlink:href="dir_a01c8bcfc219e1c69ba75e16b9f3dae0.html" target="_top" xlink:title="Simple&#45;Utility">
<polygon fill="#edf0f7" stroke="#404040" stroke-dasharray="5,2" points="8,-8 8,-187 138,-187 138,-8 8,-8"/>
<text text-anchor="middle" x="73" y="-173.5" font-family="Helvetica,sans-Serif" font-size="10.00">Simple&#45;Utility</text>
</a>
</g>
</g>
<g id="clust2" class="cluster">
<title>clusterdir_5a25afb40b3d758b0316c6da520c93e2</title>
<g id="a_clust2"><a xlink:href="dir_5a25afb40b3d758b0316c6da520c93e2.html" target="_top">
<polygon fill="#edf0f7" stroke="#404040" stroke-width="2" points="16,-64.75 16,-158.25 94,-158.25 94,-64.75 16,-64.75"/>
</a>
</g>
</g>
<!-- dir_ae61d42a7cb21f7c301a814266e9934b -->
<g id="node1" class="node">
<title>dir_ae61d42a7cb21f7c301a814266e9934b</title>
<g id="a_node1"><a xlink:href="dir_ae61d42a7cb21f7c301a814266e9934b.html" target="_top" xlink:title="concepts">
<polygon fill="#a2b4d6" stroke="#404040" points="130.25,-36.75 73.75,-36.75 73.75,-16 130.25,-16 130.25,-36.75"/>
<text text-anchor="middle" x="102" y="-23.25" font-family="Helvetica,sans-Serif" font-size="10.00">concepts</text>
</a>
</g>
</g>
<!-- dir_dc9937783625812aa8fbe040ae011b46 -->
<g id="node2" class="node">
<title>dir_dc9937783625812aa8fbe040ae011b46</title>
<g id="a_node2"><a xlink:href="dir_dc9937783625812aa8fbe040ae011b46.html" target="_top" xlink:title="tuple">
<polygon fill="#a2b4d6" stroke="#404040" points="55.62,-36.75 16.38,-36.75 16.38,-16 55.62,-16 55.62,-36.75"/>
<text text-anchor="middle" x="36" y="-23.25" font-family="Helvetica,sans-Serif" font-size="10.00">tuple</text>
</a>
</g>
</g>
<!-- dir_5a25afb40b3d758b0316c6da520c93e2 -->
<g id="node3" class="node">
<title>dir_5a25afb40b3d758b0316c6da520c93e2</title>
<text text-anchor="middle" x="55" y="-136.75" font-family="Helvetica,sans-Serif" font-size="10.00">functional</text>
</g>
<!-- dir_5a25afb40b3d758b0316c6da520c93e2&#45;&gt;dir_ae61d42a7cb21f7c301a814266e9934b -->
<g id="edge2" class="edge">
<title>dir_5a25afb40b3d758b0316c6da520c93e2&#45;&gt;dir_ae61d42a7cb21f7c301a814266e9934b</title>
<path fill="none" stroke="#63b8ff" d="M65.59,-129.57C74.47,-121.1 86.69,-107.78 93,-93.5 99.31,-79.22 101.47,-61.65 102.1,-48.22"/>
<polygon fill="#63b8ff" stroke="#63b8ff" points="105.62,-48.32 102.33,-38.25 98.62,-48.17 105.62,-48.32"/>
<g id="a_edge2&#45;headlabel"><a xlink:href="dir_000001_000000.html" target="_top" xlink:title="10">
<text text-anchor="middle" x="108.39" y="-47.84" font-family="Helvetica,sans-Serif" font-size="10.00" fill="#63b8ff">10</text>
</a>
</g>
</g>
<!-- dir_832a1b35f88904c31b3e4d83b249abb5 -->
<g id="node4" class="node">
<title>dir_832a1b35f88904c31b3e4d83b249abb5</title>
<g id="a_node4"><a xlink:href="dir_832a1b35f88904c31b3e4d83b249abb5.html" target="_top" xlink:title="operators">
<polygon fill="#a2b4d6" stroke="#404040" points="84.12,-93.5 23.88,-93.5 23.88,-72.75 84.12,-72.75 84.12,-93.5"/>
<text text-anchor="middle" x="54" y="-80" font-family="Helvetica,sans-Serif" font-size="10.00">operators</text>
</a>
</g>
</g>
<!-- dir_5a25afb40b3d758b0316c6da520c93e2&#45;&gt;dir_832a1b35f88904c31b3e4d83b249abb5 -->
<g id="edge1" class="edge">
<title>dir_5a25afb40b3d758b0316c6da520c93e2&#45;&gt;dir_832a1b35f88904c31b3e4d83b249abb5</title>
<path fill="none" stroke="#63b8ff" d="M54.83,-129.83C54.71,-122.99 54.53,-113.3 54.37,-104.61"/>
<polygon fill="#63b8ff" stroke="#63b8ff" points="57.86,-104.67 54.18,-94.73 50.86,-104.79 57.86,-104.67"/>
<g id="a_edge1&#45;headlabel"><a xlink:href="dir_000001_000003.html" target="_top" xlink:title="9">
<text text-anchor="middle" x="60.76" y="-104.08" font-family="Helvetica,sans-Serif" font-size="10.00" fill="#63b8ff">9</text>
</a>
</g>
</g>
<!-- dir_832a1b35f88904c31b3e4d83b249abb5&#45;&gt;dir_ae61d42a7cb21f7c301a814266e9934b -->
<g id="edge3" class="edge">
<title>dir_832a1b35f88904c31b3e4d83b249abb5&#45;&gt;dir_ae61d42a7cb21f7c301a814266e9934b</title>
<path fill="none" stroke="#63b8ff" d="M62.58,-72.34C69.2,-64.78 78.54,-54.14 86.46,-45.1"/>
<polygon fill="#63b8ff" stroke="#63b8ff" points="89.53,-47.91 93.49,-38.08 84.27,-43.29 89.53,-47.91"/>
<g id="a_edge3&#45;headlabel"><a xlink:href="dir_000003_000000.html" target="_top" xlink:title="4">
<text text-anchor="middle" x="89.3" y="-48.35" font-family="Helvetica,sans-Serif" font-size="10.00" fill="#63b8ff">4</text>
</a>
</g>
</g>
<!-- dir_832a1b35f88904c31b3e4d83b249abb5&#45;&gt;dir_dc9937783625812aa8fbe040ae011b46 -->
<g id="edge4" class="edge">
<title>dir_832a1b35f88904c31b3e4d83b249abb5&#45;&gt;dir_dc9937783625812aa8fbe040ae011b46</title>
<path fill="none" stroke="#63b8ff" d="M50.78,-72.34C48.5,-65.41 45.37,-55.87 42.57,-47.36"/>
<polygon fill="#63b8ff" stroke="#63b8ff" points="45.64,-46.49 39.19,-38.08 38.99,-48.67 45.64,-46.49"/>
<g id="a_edge4&#45;headlabel"><a xlink:href="dir_000003_000005.html" target="_top" xlink:title="2">
<text text-anchor="middle" x="49.46" y="-44.89" font-family="Helvetica,sans-Serif" font-size="10.00" fill="#63b8ff">2</text>
</a>
</g>
</g>
</g>
</svg>
