<?xml version="1.0" encoding="UTF-8" standalone="no"?>
<!DOCTYPE svg PUBLIC "-//W3C//DTD SVG 1.1//EN"
 "http://www.w3.org/Graphics/SVG/1.1/DTD/svg11.dtd">
<!-- Generated by graphviz version 2.43.0 (0)
 -->
<!-- Title: /home/runner/work/Simple&#45;Utility/Simple&#45;Utility/include/Simple&#45;Utility/nullables Pages: 1 -->
<svg width="126pt" height="239pt"
 viewBox="0.00 0.00 126.00 239.00" xmlns="http://www.w3.org/2000/svg" xmlns:xlink="http://www.w3.org/1999/xlink">
<g id="graph0" class="graph" transform="scale(1 1) rotate(0) translate(4 235)">
<title>/home/runner/work/Simple&#45;Utility/Simple&#45;Utility/include/Simple&#45;Utility/nullables</title>
<polygon fill="white" stroke="transparent" points="-4,4 -4,-235 122,-235 122,4 -4,4"/>
<g id="clust1" class="cluster">
<title>clusterdir_6e0f4ef8b06c98cc225efcfd4d37205c</title>
<g id="a_clust1"><a xlink:href="dir_6e0f4ef8b06c98cc225efcfd4d37205c.html" target="_top" xlink:title="Simple&#45;Utility">
<polygon fill="#ddddee" stroke="black" points="8,-8 8,-223 110,-223 110,-8 8,-8"/>
<text text-anchor="middle" x="59" y="-211" font-family="Helvetica,sans-Serif" font-size="10.00">Simple&#45;Utility</text>
</a>
</g>
</g>
<!-- dir_2641ce3d2614b166f835e31f7838200c -->
<g id="node1" class="node">
<title>dir_2641ce3d2614b166f835e31f7838200c</title>
<g id="a_node1"><a xlink:href="dir_2641ce3d2614b166f835e31f7838200c.html" target="_top" xlink:title="functional">
<polygon fill="white" stroke="red" points="81.5,-124 16.5,-124 16.5,-88 81.5,-88 81.5,-124"/>
<text text-anchor="middle" x="49" y="-103.5" font-family="Helvetica,sans-Serif" font-size="10.00">functional</text>
</a>
</g>
</g>
<!-- dir_73c0ad15f2cd42ced3ce1dfbad7651e9 -->
<g id="node2" class="node">
<title>dir_73c0ad15f2cd42ced3ce1dfbad7651e9</title>
<g id="a_node2"><a xlink:href="dir_73c0ad15f2cd42ced3ce1dfbad7651e9.html" target="_top" xlink:title="concepts">
<polygon fill="none" stroke="black" points="90,-52 30,-52 30,-16 90,-16 90,-52"/>
<text text-anchor="middle" x="60" y="-31.5" font-family="Helvetica,sans-Serif" font-size="10.00">concepts</text>
</a>
</g>
</g>
<!-- dir_2641ce3d2614b166f835e31f7838200c&#45;&gt;dir_73c0ad15f2cd42ced3ce1dfbad7651e9 -->
<g id="edge1" class="edge">
<title>dir_2641ce3d2614b166f835e31f7838200c&#45;&gt;dir_73c0ad15f2cd42ced3ce1dfbad7651e9</title>
<path fill="none" stroke="black" d="M51.72,-87.7C52.93,-79.98 54.39,-70.71 55.74,-62.11"/>
<polygon fill="black" stroke="black" points="59.22,-62.53 57.31,-52.1 52.3,-61.44 59.22,-62.53"/>
<g id="a_edge1&#45;headlabel"><a xlink:href="dir_000003_000002.html" target="_top" xlink:title="10">
<text text-anchor="middle" x="61.46" y="-64.02" font-family="Helvetica,sans-Serif" font-size="10.00">10</text>
</a>
</g>
</g>
<!-- dir_d2e4124a59bfb20e6789a8a614cc5bbe -->
<g id="node3" class="node">
<title>dir_d2e4124a59bfb20e6789a8a614cc5bbe</title>
<g id="a_node3"><a xlink:href="dir_d2e4124a59bfb20e6789a8a614cc5bbe.html" target="_top" xlink:title="nullables">
<polygon fill="#eeeeff" stroke="black" points="90.5,-196 29.5,-196 29.5,-160 90.5,-160 90.5,-196"/>
<text text-anchor="middle" x="60" y="-175.5" font-family="Helvetica,sans-Serif" font-size="10.00">nullables</text>
</a>
</g>
</g>
<!-- dir_d2e4124a59bfb20e6789a8a614cc5bbe&#45;&gt;dir_2641ce3d2614b166f835e31f7838200c -->
<g id="edge2" class="edge">
<title>dir_d2e4124a59bfb20e6789a8a614cc5bbe&#45;&gt;dir_2641ce3d2614b166f835e31f7838200c</title>
<path fill="none" stroke="black" d="M57.28,-159.7C56.07,-151.98 54.61,-142.71 53.26,-134.11"/>
<polygon fill="black" stroke="black" points="56.7,-133.44 51.69,-124.1 49.78,-134.53 56.7,-133.44"/>
<g id="a_edge2&#45;headlabel"><a xlink:href="dir_000004_000003.html" target="_top" xlink:title="6">
<text text-anchor="middle" x="60.06" y="-134.05" font-family="Helvetica,sans-Serif" font-size="10.00">6</text>
</a>
</g>
</g>
<!-- dir_d2e4124a59bfb20e6789a8a614cc5bbe&#45;&gt;dir_73c0ad15f2cd42ced3ce1dfbad7651e9 -->
<g id="edge3" class="edge">
<title>dir_d2e4124a59bfb20e6789a8a614cc5bbe&#45;&gt;dir_73c0ad15f2cd42ced3ce1dfbad7651e9</title>
<path fill="none" stroke="black" d="M73.15,-159.91C79.92,-150.01 87.49,-136.96 91,-124 95.18,-108.56 95.18,-103.44 91,-88 88.42,-78.48 83.66,-68.92 78.62,-60.59"/>
<polygon fill="black" stroke="black" points="81.51,-58.6 73.15,-52.09 75.62,-62.39 81.51,-58.6"/>
<g id="a_edge3&#45;headlabel"><a xlink:href="dir_000004_000002.html" target="_top" xlink:title="3">
<text text-anchor="middle" x="85.84" y="-57.58" font-family="Helvetica,sans-Serif" font-size="10.00">3</text>
</a>
</g>
</g>
</g>
</svg>
