<?xml version="1.0" encoding="UTF-8" standalone="no"?>
<!DOCTYPE svg PUBLIC "-//W3C//DTD SVG 1.1//EN"
 "http://www.w3.org/Graphics/SVG/1.1/DTD/svg11.dtd">
<!-- Generated by graphviz version 7.0.5 (20221223.1930)
 -->
<!-- Title: Graph Legend Pages: 1 -->
<svg width="513pt" height="159pt"
 viewBox="0.00 0.00 513.00 159.00" xmlns="http://www.w3.org/2000/svg" xmlns:xlink="http://www.w3.org/1999/xlink">
<g id="graph0" class="graph" transform="scale(1 1) rotate(0) translate(4 155)">
<title>Graph Legend</title>
<!-- Node9 -->
<g id="node1" class="node">
<title>Node9</title>
<g id="a_node1"><a xlink:title=" ">
<polygon fill="#999999" stroke="#666666" points="293.5,-19 235.5,-19 235.5,0 293.5,0 293.5,-19"/>
<text text-anchor="middle" x="264.5" y="-7" font-family="Helvetica,sans-Serif" font-size="10.00">Inherited</text>
</a>
</g>
</g>
<!-- Node10 -->
<g id="node2" class="node">
<title>Node10</title>
<g id="a_node2"><a xlink:href="url.html" xlink:title=" ">
<polygon fill="white" stroke="#666666" points="65,-85 0,-85 0,-66 65,-66 65,-85"/>
<text text-anchor="middle" x="32.5" y="-73" font-family="Helvetica,sans-Serif" font-size="10.00">PublicBase</text>
</a>
</g>
</g>
<!-- Node10&#45;&gt;Node9 -->
<g id="edge1" class="edge">
<title>Node10&#45;&gt;Node9</title>
<path fill="none" stroke="#63b8ff" d="M75.69,-62.59C122.15,-49.77 194.79,-29.73 235.08,-18.62"/>
<polygon fill="#63b8ff" stroke="#63b8ff" points="74.93,-59.17 66.22,-65.2 76.79,-65.91 74.93,-59.17"/>
</g>
<!-- Node11 -->
<g id="node3" class="node">
<title>Node11</title>
<g id="a_node3"><a xlink:href="url.html" xlink:title=" ">
<polygon fill="#fff0f0" stroke="red" points="63.5,-151 1.5,-151 1.5,-132 63.5,-132 63.5,-151"/>
<text text-anchor="middle" x="32.5" y="-139" font-family="Helvetica,sans-Serif" font-size="10.00">Truncated</text>
</a>
</g>
</g>
<!-- Node11&#45;&gt;Node10 -->
<g id="edge2" class="edge">
<title>Node11&#45;&gt;Node10</title>
<path fill="none" stroke="#63b8ff" d="M32.5,-120.18C32.5,-108.44 32.5,-94.27 32.5,-85.32"/>
<polygon fill="#63b8ff" stroke="#63b8ff" points="29,-120.09 32.5,-130.09 36,-120.09 29,-120.09"/>
</g>
<!-- Node13 -->
<g id="node4" class="node">
<title>Node13</title>
<polygon fill="white" stroke="#666666" points="165.5,-85 83.5,-85 83.5,-66 165.5,-66 165.5,-85"/>
<text text-anchor="middle" x="124.5" y="-73" font-family="Helvetica,sans-Serif" font-size="10.00">ProtectedBase</text>
</g>
<!-- Node13&#45;&gt;Node9 -->
<g id="edge3" class="edge">
<title>Node13&#45;&gt;Node9</title>
<path fill="none" stroke="darkgreen" d="M154.17,-60.94C181.63,-48.38 221.66,-30.08 245.2,-19.32"/>
<polygon fill="darkgreen" stroke="darkgreen" points="152.98,-57.63 145.34,-64.97 155.89,-64 152.98,-57.63"/>
</g>
<!-- Node14 -->
<g id="node5" class="node">
<title>Node14</title>
<polygon fill="white" stroke="#666666" points="251.5,-85 183.5,-85 183.5,-66 251.5,-66 251.5,-85"/>
<text text-anchor="middle" x="217.5" y="-73" font-family="Helvetica,sans-Serif" font-size="10.00">PrivateBase</text>
</g>
<!-- Node14&#45;&gt;Node9 -->
<g id="edge4" class="edge">
<title>Node14&#45;&gt;Node9</title>
<path fill="none" stroke="#8b1a1a" d="M230.8,-56.4C239.7,-44.27 251.03,-28.84 258.02,-19.32"/>
<polygon fill="#8b1a1a" stroke="#8b1a1a" points="228.03,-54.25 224.93,-64.38 233.67,-58.39 228.03,-54.25"/>
</g>
<!-- Node15 -->
<g id="node6" class="node">
<title>Node15</title>
<g id="a_node6"><a xlink:title=" ">
<polygon fill="#e0e0e0" stroke="#999999" points="355.5,-85 269.5,-85 269.5,-66 355.5,-66 355.5,-85"/>
<text text-anchor="middle" x="312.5" y="-73" font-family="Helvetica,sans-Serif" font-size="10.00">Undocumented</text>
</a>
</g>
</g>
<!-- Node15&#45;&gt;Node9 -->
<g id="edge5" class="edge">
<title>Node15&#45;&gt;Node9</title>
<path fill="none" stroke="#63b8ff" d="M298.92,-56.4C289.83,-44.27 278.26,-28.84 271.12,-19.32"/>
<polygon fill="#63b8ff" stroke="#63b8ff" points="296.12,-58.49 304.92,-64.39 301.72,-54.29 296.12,-58.49"/>
</g>
<!-- Node16 -->
<g id="node7" class="node">
<title>Node16</title>
<polygon fill="white" stroke="#666666" points="447.5,-85 373.5,-85 373.5,-66 447.5,-66 447.5,-85"/>
<text text-anchor="middle" x="410.5" y="-73" font-family="Helvetica,sans-Serif" font-size="10.00">Templ&lt; int &gt;</text>
</g>
<!-- Node16&#45;&gt;Node9 -->
<g id="edge6" class="edge">
<title>Node16&#45;&gt;Node9</title>
<path fill="none" stroke="#63b8ff" d="M379.94,-61.1C351.29,-48.54 309.28,-30.13 284.63,-19.32"/>
<polygon fill="#63b8ff" stroke="#63b8ff" points="378.25,-64.18 388.81,-64.99 381.06,-57.77 378.25,-64.18"/>
</g>
<!-- Node17 -->
<g id="node8" class="node">
<title>Node17</title>
<polygon fill="white" stroke="#666666" points="444.5,-151 376.5,-151 376.5,-132 444.5,-132 444.5,-151"/>
<text text-anchor="middle" x="410.5" y="-139" font-family="Helvetica,sans-Serif" font-size="10.00">Templ&lt; T &gt;</text>
</g>
<!-- Node17&#45;&gt;Node16 -->
<g id="edge7" class="edge">
<title>Node17&#45;&gt;Node16</title>
<path fill="none" stroke="orange" stroke-dasharray="5,2" d="M410.5,-120.18C410.5,-108.44 410.5,-94.27 410.5,-85.32"/>
<polygon fill="orange" stroke="orange" points="407,-120.09 410.5,-130.09 414,-120.09 407,-120.09"/>
<text text-anchor="middle" x="425" y="-106" font-family="Helvetica,sans-Serif" font-size="10.00">&lt; int &gt;</text>
</g>
<!-- Node18 -->
<g id="node9" class="node">
<title>Node18</title>
<polygon fill="white" stroke="#666666" points="505,-85 466,-85 466,-66 505,-66 505,-85"/>
<text text-anchor="middle" x="485.5" y="-73" font-family="Helvetica,sans-Serif" font-size="10.00">Used</text>
</g>
<!-- Node18&#45;&gt;Node9 -->
<g id="edge8" class="edge">
<title>Node18&#45;&gt;Node9</title>
<path fill="none" stroke="#9a32cd" stroke-dasharray="5,2" d="M454.59,-65.45C391.58,-47.12 329.38,-29.18 293.79,-18.93"/>
<polygon fill="#9a32cd" stroke="#9a32cd" points="453.5,-68.78 464.08,-68.21 455.46,-62.06 453.5,-68.78"/>
<text text-anchor="middle" x="422.5" y="-40" font-family="Helvetica,sans-Serif" font-size="10.00">m_usedClass</text>
</g>
</g>
</svg>
