<?xml version="1.0" encoding="UTF-8" standalone="no"?>
<!DOCTYPE svg PUBLIC "-//W3C//DTD SVG 1.1//EN"
 "http://www.w3.org/Graphics/SVG/1.1/DTD/svg11.dtd">
<!-- Generated by graphviz version 8.0.5 (20230430.1635)
 -->
<!-- Title: Graph Legend Pages: 1 -->
<svg width="510pt" height="168pt"
 viewBox="0.00 0.00 510.25 167.75" xmlns="http://www.w3.org/2000/svg" xmlns:xlink="http://www.w3.org/1999/xlink">
<g id="graph0" class="graph" transform="scale(1 1) rotate(0) translate(4 163.75)">
<title>Graph Legend</title>
<!-- Node9 -->
<g id="node1" class="node">
<title>Node9</title>
<g id="a_node1"><a xlink:title=" ">
<polygon fill="#999999" stroke="#666666" points="291.62,-20.75 234.38,-20.75 234.38,0 291.62,0 291.62,-20.75"/>
<text text-anchor="middle" x="263" y="-7.25" font-family="Helvetica,sans-Serif" font-size="10.00">Inherited</text>
</a>
</g>
</g>
<!-- Node10 -->
<g id="node2" class="node">
<title>Node10</title>
<g id="a_node2"><a xlink:href="url.html" xlink:title=" ">
<polygon fill="white" stroke="#666666" points="64,-90.25 0,-90.25 0,-69.5 64,-69.5 64,-90.25"/>
<text text-anchor="middle" x="32" y="-76.75" font-family="Helvetica,sans-Serif" font-size="10.00">PublicBase</text>
</a>
</g>
</g>
<!-- Node10&#45;&gt;Node9 -->
<g id="edge1" class="edge">
<title>Node10&#45;&gt;Node9</title>
<path fill="none" stroke="#63b8ff" d="M74.44,-66.47C120.82,-52.92 193.86,-31.58 234.07,-19.83"/>
<polygon fill="#63b8ff" stroke="#63b8ff" points="73.74,-63.33 65.12,-69.49 75.7,-70.04 73.74,-63.33"/>
</g>
<!-- Node11 -->
<g id="node3" class="node">
<title>Node11</title>
<g id="a_node3"><a xlink:href="url.html" xlink:title=" ">
<polygon fill="#fff0f0" stroke="red" points="62.88,-159.75 1.12,-159.75 1.12,-139 62.88,-139 62.88,-159.75"/>
<text text-anchor="middle" x="32" y="-146.25" font-family="Helvetica,sans-Serif" font-size="10.00">Truncated</text>
</a>
</g>
</g>
<!-- Node11&#45;&gt;Node10 -->
<g id="edge2" class="edge">
<title>Node11&#45;&gt;Node10</title>
<path fill="none" stroke="#63b8ff" d="M32,-127.95C32,-115.53 32,-100.25 32,-90.53"/>
<polygon fill="#63b8ff" stroke="#63b8ff" points="28.5,-127.7 32,-137.7 35.5,-127.7 28.5,-127.7"/>
</g>
<!-- Node13 -->
<g id="node4" class="node">
<title>Node13</title>
<polygon fill="white" stroke="#666666" points="163.62,-90.25 82.38,-90.25 82.38,-69.5 163.62,-69.5 163.62,-90.25"/>
<text text-anchor="middle" x="123" y="-76.75" font-family="Helvetica,sans-Serif" font-size="10.00">ProtectedBase</text>
</g>
<!-- Node13&#45;&gt;Node9 -->
<g id="edge3" class="edge">
<title>Node13&#45;&gt;Node9</title>
<path fill="none" stroke="darkgreen" d="M153.08,-64.37C180.11,-51.34 219.07,-32.55 242.62,-21.2"/>
<polygon fill="darkgreen" stroke="darkgreen" points="151.84,-61.56 144.36,-69.06 154.88,-67.87 151.84,-61.56"/>
</g>
<!-- Node14 -->
<g id="node5" class="node">
<title>Node14</title>
<polygon fill="white" stroke="#666666" points="249.88,-90.25 182.12,-90.25 182.12,-69.5 249.88,-69.5 249.88,-90.25"/>
<text text-anchor="middle" x="216" y="-76.75" font-family="Helvetica,sans-Serif" font-size="10.00">PrivateBase</text>
</g>
<!-- Node14&#45;&gt;Node9 -->
<g id="edge4" class="edge">
<title>Node14&#45;&gt;Node9</title>
<path fill="none" stroke="#8b1a1a" d="M228.9,-60.35C237.76,-47.62 249.16,-31.25 256.28,-21.03"/>
<polygon fill="#8b1a1a" stroke="#8b1a1a" points="225.58,-58 222.73,-68.2 231.32,-62 225.58,-58"/>
</g>
<!-- Node15 -->
<g id="node6" class="node">
<title>Node15</title>
<g id="a_node6"><a xlink:title=" ">
<polygon fill="#e0e0e0" stroke="#999999" points="353.88,-90.25 268.12,-90.25 268.12,-69.5 353.88,-69.5 353.88,-90.25"/>
<text text-anchor="middle" x="311" y="-76.75" font-family="Helvetica,sans-Serif" font-size="10.00">Undocumented</text>
</a>
</g>
</g>
<!-- Node15&#45;&gt;Node9 -->
<g id="edge5" class="edge">
<title>Node15&#45;&gt;Node9</title>
<path fill="none" stroke="#63b8ff" d="M297.83,-60.35C288.78,-47.62 277.13,-31.25 269.86,-21.03"/>
<polygon fill="#63b8ff" stroke="#63b8ff" points="295.48,-62.08 304.12,-68.2 301.18,-58.03 295.48,-62.08"/>
</g>
<!-- Node16 -->
<g id="node7" class="node">
<title>Node16</title>
<polygon fill="white" stroke="#666666" points="445.88,-90.25 372.12,-90.25 372.12,-69.5 445.88,-69.5 445.88,-90.25"/>
<text text-anchor="middle" x="409" y="-76.75" font-family="Helvetica,sans-Serif" font-size="10.00">Templ&lt; int &gt;</text>
</g>
<!-- Node16&#45;&gt;Node9 -->
<g id="edge6" class="edge">
<title>Node16&#45;&gt;Node9</title>
<path fill="none" stroke="#63b8ff" d="M378.01,-64.55C349.8,-51.51 308.92,-32.6 284.26,-21.2"/>
<polygon fill="#63b8ff" stroke="#63b8ff" points="376.22,-68.04 386.77,-69.06 379.16,-61.69 376.22,-68.04"/>
</g>
<!-- Node17 -->
<g id="node8" class="node">
<title>Node17</title>
<polygon fill="white" stroke="#666666" points="442.88,-159.75 375.12,-159.75 375.12,-139 442.88,-139 442.88,-159.75"/>
<text text-anchor="middle" x="409" y="-146.25" font-family="Helvetica,sans-Serif" font-size="10.00">Templ&lt; T &gt;</text>
</g>
<!-- Node17&#45;&gt;Node16 -->
<g id="edge7" class="edge">
<title>Node17&#45;&gt;Node16</title>
<path fill="none" stroke="orange" stroke-dasharray="5,2" d="M409,-127.95C409,-115.53 409,-100.25 409,-90.53"/>
<polygon fill="orange" stroke="orange" points="405.5,-127.7 409,-137.7 412.5,-127.7 405.5,-127.7"/>
<text text-anchor="middle" x="423.25" y="-111.5" font-family="Helvetica,sans-Serif" font-size="10.00">&lt; int &gt;</text>
</g>
<!-- Node18 -->
<g id="node9" class="node">
<title>Node18</title>
<polygon fill="white" stroke="#666666" points="502.25,-90.25 463.75,-90.25 463.75,-69.5 502.25,-69.5 502.25,-90.25"/>
<text text-anchor="middle" x="483" y="-76.75" font-family="Helvetica,sans-Serif" font-size="10.00">Used</text>
</g>
<!-- Node18&#45;&gt;Node9 -->
<g id="edge8" class="edge">
<title>Node18&#45;&gt;Node9</title>
<path fill="none" stroke="#9a32cd" stroke-dasharray="5,2" d="M452.99,-68.92C390.37,-49.05 327.72,-30.39 292.03,-19.88"/>
<polygon fill="#9a32cd" stroke="#9a32cd" points="451.85,-72.55 462.44,-72.25 453.97,-65.88 451.85,-72.55"/>
<text text-anchor="middle" x="426.62" y="-42" font-family="Helvetica,sans-Serif" font-size="10.00">m_usedClass</text>
</g>
</g>
</svg>
