<?xml version="1.0" encoding="UTF-8" standalone="no"?>
<!DOCTYPE svg PUBLIC "-//W3C//DTD SVG 1.1//EN"
 "http://www.w3.org/Graphics/SVG/1.1/DTD/svg11.dtd">
<!-- Generated by graphviz version 7.0.5 (20221223.1930)
 -->
<!-- Title: Graphical Class Hierarchy Pages: 1 -->
<svg width="286pt" height="98pt"
 viewBox="0.00 0.00 286.00 97.50" xmlns="http://www.w3.org/2000/svg" xmlns:xlink="http://www.w3.org/1999/xlink">
<g id="graph0" class="graph" transform="scale(1 1) rotate(0) translate(4 93.5)">
<title>Graphical Class Hierarchy</title>
<!-- Node0 -->
<g id="node1" class="node">
<title>Node0</title>
<g id="a_node1"><a xlink:title=" ">
<polygon fill="#e0e0e0" stroke="#999999" points="101,-51.5 0,-51.5 0,-32.5 101,-32.5 101,-51.5"/>
<text text-anchor="middle" x="50.5" y="-39.5" font-family="Helvetica,sans-Serif" font-size="10.00">std::bool_constant</text>
</a>
</g>
</g>
<!-- Node1 -->
<g id="node2" class="node">
<title>Node1</title>
<g id="a_node2"><a xlink:href="d1/d64/structsl_1_1type__list_1_1contains_3_01_container_3_01_elements_8_8_8_01_4_00_01_query_01_4.html" target="_top" xlink:title="Specialization determining the presence of the query type, due to comparing it with each element of t...">
<polygon fill="white" stroke="#666666" points="271.5,-89.5 143.5,-89.5 143.5,-48.5 271.5,-48.5 271.5,-89.5"/>
<text text-anchor="start" x="151.5" y="-77.5" font-family="Helvetica,sans-Serif" font-size="10.00">sl::type_list::contains</text>
<text text-anchor="start" x="151.5" y="-66.5" font-family="Helvetica,sans-Serif" font-size="10.00">&lt; Container&lt; Elements...</text>
<text text-anchor="middle" x="207.5" y="-55.5" font-family="Helvetica,sans-Serif" font-size="10.00"> &gt;, Query &gt;</text>
</a>
</g>
</g>
<!-- Node0&#45;&gt;Node1 -->
<g id="edge1" class="edge">
<title>Node0&#45;&gt;Node1</title>
<path fill="none" stroke="#63b8ff" d="M112.53,-52.63C122.56,-54.38 132.99,-56.19 143.08,-57.95"/>
<polygon fill="#63b8ff" stroke="#63b8ff" points="113.34,-49.22 102.89,-50.95 112.14,-56.12 113.34,-49.22"/>
</g>
<!-- Node2 -->
<g id="node3" class="node">
<title>Node2</title>
<g id="a_node3"><a xlink:href="d0/d33/structsl_1_1type__list_1_1unordered__equal_3_01_first_00_01_other_lists_8_8_8_01_4.html" target="_top" xlink:title="Specialization, determining whether the current element appears equally often in all type&#45;lists.">
<polygon fill="white" stroke="#666666" points="278,-30 137,-30 137,0 278,0 278,-30"/>
<text text-anchor="start" x="145" y="-18" font-family="Helvetica,sans-Serif" font-size="10.00">sl::type_list::unordered</text>
<text text-anchor="middle" x="207.5" y="-7" font-family="Helvetica,sans-Serif" font-size="10.00">_equal&lt; First, OtherLists... &gt;</text>
</a>
</g>
</g>
<!-- Node0&#45;&gt;Node2 -->
<g id="edge2" class="edge">
<title>Node0&#45;&gt;Node2</title>
<path fill="none" stroke="#63b8ff" d="M112.71,-31.34C120.57,-29.97 128.67,-28.56 136.65,-27.17"/>
<polygon fill="#63b8ff" stroke="#63b8ff" points="112.14,-27.88 102.89,-33.05 113.34,-34.78 112.14,-27.88"/>
</g>
</g>
</svg>
