<?xml version="1.0" encoding="UTF-8" standalone="no"?>
<!DOCTYPE svg PUBLIC "-//W3C//DTD SVG 1.1//EN"
 "http://www.w3.org/Graphics/SVG/1.1/DTD/svg11.dtd">
<!-- Generated by graphviz version 2.43.0 (0)
 -->
<!-- Title: Graphical Class Hierarchy Pages: 1 -->
<svg width="487pt" height="154pt"
 viewBox="0.00 0.00 487.00 154.00" xmlns="http://www.w3.org/2000/svg" xmlns:xlink="http://www.w3.org/1999/xlink">
<g id="graph0" class="graph" transform="scale(1 1) rotate(0) translate(4 150)">
<title>Graphical Class Hierarchy</title>
<polygon fill="white" stroke="transparent" points="-4,4 -4,-150 483,-150 483,4 -4,4"/>
<!-- Node12 -->
<g id="node1" class="node">
<title>Node12</title>
<g id="a_node1"><a xlink:title=" ">
<polygon fill="white" stroke="#bfbfbf" points="0,-63.5 0,-82.5 89,-82.5 89,-63.5 0,-63.5"/>
<text text-anchor="middle" x="44.5" y="-70.5" font-family="Helvetica,sans-Serif" font-size="10.00">std::false_type</text>
</a>
</g>
</g>
<!-- Node13 -->
<g id="node2" class="node">
<title>Node13</title>
<g id="a_node2"><a xlink:title=" ">
<polygon fill="white" stroke="#bfbfbf" points="125,-82.5 125,-145.5 285,-145.5 285,-82.5 125,-82.5"/>
<text text-anchor="start" x="133" y="-133.5" font-family="Helvetica,sans-Serif" font-size="10.00">sl::tuple::detail::</text>
<text text-anchor="start" x="133" y="-122.5" font-family="Helvetica,sans-Serif" font-size="10.00">is_apply_invocable&lt;</text>
<text text-anchor="start" x="133" y="-111.5" font-family="Helvetica,sans-Serif" font-size="10.00"> TFunc, TTuple, std::</text>
<text text-anchor="start" x="133" y="-100.5" font-family="Helvetica,sans-Serif" font-size="10.00">make_index_sequence&lt; std</text>
<text text-anchor="middle" x="205" y="-89.5" font-family="Helvetica,sans-Serif" font-size="10.00">::tuple_size_v&lt; TTuple &gt; &gt; &gt;</text>
</a>
</g>
</g>
<!-- Node12&#45;&gt;Node13 -->
<g id="edge1" class="edge">
<title>Node12&#45;&gt;Node13</title>
<path fill="none" stroke="midnightblue" d="M92.22,-85.09C102.52,-87.75 113.69,-90.64 124.87,-93.53"/>
<polygon fill="midnightblue" stroke="midnightblue" points="92.82,-81.63 82.26,-82.51 91.07,-88.4 92.82,-81.63"/>
</g>
<!-- Node15 -->
<g id="node4" class="node">
<title>Node15</title>
<g id="a_node4"><a xlink:title=" ">
<polygon fill="white" stroke="#bfbfbf" points="126,-0.5 126,-63.5 284,-63.5 284,-0.5 126,-0.5"/>
<text text-anchor="start" x="134" y="-51.5" font-family="Helvetica,sans-Serif" font-size="10.00">sl::tuple::detail::</text>
<text text-anchor="start" x="134" y="-40.5" font-family="Helvetica,sans-Serif" font-size="10.00">is_nothrow_apply_invocable</text>
<text text-anchor="start" x="134" y="-29.5" font-family="Helvetica,sans-Serif" font-size="10.00">&lt; TFunc, TTuple, std::make</text>
<text text-anchor="start" x="134" y="-18.5" font-family="Helvetica,sans-Serif" font-size="10.00">_index_sequence&lt; std::tuple</text>
<text text-anchor="middle" x="205" y="-7.5" font-family="Helvetica,sans-Serif" font-size="10.00">_size_v&lt; TTuple &gt; &gt; &gt;</text>
</a>
</g>
</g>
<!-- Node12&#45;&gt;Node15 -->
<g id="edge3" class="edge">
<title>Node12&#45;&gt;Node15</title>
<path fill="none" stroke="midnightblue" d="M92.12,-60.94C102.73,-58.2 114.29,-55.21 125.82,-52.22"/>
<polygon fill="midnightblue" stroke="midnightblue" points="91.07,-57.6 82.26,-63.49 92.82,-64.37 91.07,-57.6"/>
</g>
<!-- Node14 -->
<g id="node3" class="node">
<title>Node14</title>
<g id="a_node3"><a xlink:href="d5/d44/structsl_1_1tuple_1_1is__apply__invocable.html" target="_top" xlink:title="Trait type determining whether the function is invocable with elements of the given tuple.">
<polygon fill="white" stroke="black" points="321,-99 321,-129 479,-129 479,-99 321,-99"/>
<text text-anchor="start" x="329" y="-117" font-family="Helvetica,sans-Serif" font-size="10.00">sl::tuple::is_apply</text>
<text text-anchor="middle" x="400" y="-106" font-family="Helvetica,sans-Serif" font-size="10.00">_invocable&lt; TFunc, TTuple &gt;</text>
</a>
</g>
</g>
<!-- Node13&#45;&gt;Node14 -->
<g id="edge2" class="edge">
<title>Node13&#45;&gt;Node14</title>
<path fill="none" stroke="midnightblue" d="M295.33,-114C303.8,-114 312.34,-114 320.69,-114"/>
<polygon fill="midnightblue" stroke="midnightblue" points="295.06,-110.5 285.06,-114 295.06,-117.5 295.06,-110.5"/>
</g>
<!-- Node0 -->
<g id="node5" class="node">
<title>Node0</title>
<g id="a_node5"><a xlink:href="d6/d11/structsl_1_1tuple_1_1is__nothrow__apply__invocable.html" target="_top" xlink:title="Trait type determining whether the function is invocable with elements of the given tuple without thr...">
<polygon fill="white" stroke="black" points="328,-11.5 328,-52.5 472,-52.5 472,-11.5 328,-11.5"/>
<text text-anchor="start" x="336" y="-40.5" font-family="Helvetica,sans-Serif" font-size="10.00">sl::tuple::is_nothrow</text>
<text text-anchor="start" x="336" y="-29.5" font-family="Helvetica,sans-Serif" font-size="10.00">_apply_invocable&lt; TFunc,</text>
<text text-anchor="middle" x="400" y="-18.5" font-family="Helvetica,sans-Serif" font-size="10.00"> TTuple &gt;</text>
</a>
</g>
</g>
<!-- Node15&#45;&gt;Node0 -->
<g id="edge4" class="edge">
<title>Node15&#45;&gt;Node0</title>
<path fill="none" stroke="midnightblue" d="M294.44,-32C305.62,-32 316.95,-32 327.82,-32"/>
<polygon fill="midnightblue" stroke="midnightblue" points="294.22,-28.5 284.22,-32 294.22,-35.5 294.22,-28.5"/>
</g>
</g>
</svg>
