<?xml version="1.0" encoding="UTF-8" standalone="no"?>
<!DOCTYPE svg PUBLIC "-//W3C//DTD SVG 1.1//EN"
 "http://www.w3.org/Graphics/SVG/1.1/DTD/svg11.dtd">
<!-- Generated by graphviz version 2.43.0 (0)
 -->
<!-- Title: Graphical Class Hierarchy Pages: 1 -->
<svg width="591pt" height="417pt"
 viewBox="0.00 0.00 591.00 416.50" xmlns="http://www.w3.org/2000/svg" xmlns:xlink="http://www.w3.org/1999/xlink">
<g id="graph0" class="graph" transform="scale(1 1) rotate(0) translate(4 412.5)">
<title>Graphical Class Hierarchy</title>
<polygon fill="white" stroke="transparent" points="-4,4 -4,-412.5 587,-412.5 587,4 -4,4"/>
<!-- Node35 -->
<g id="node1" class="node">
<title>Node35</title>
<g id="a_node1"><a xlink:title=" ">
<polygon fill="white" stroke="#bfbfbf" points="38,-278 38,-297 130,-297 130,-278 38,-278"/>
<text text-anchor="middle" x="84" y="-285" font-family="Helvetica,sans-Serif" font-size="10.00">TOperationTags</text>
</a>
</g>
</g>
<!-- Node0 -->
<g id="node2" class="node">
<title>Node0</title>
<g id="a_node2"><a xlink:href="d0/d50/structsl_1_1functional_1_1enable__operation.html" target="_top" xlink:title=" ">
<polygon fill="white" stroke="black" points="204,-49.5 204,-145.5 413,-145.5 413,-49.5 204,-49.5"/>
<text text-anchor="start" x="212" y="-133.5" font-family="Helvetica,sans-Serif" font-size="10.00">sl::functional::enable</text>
<text text-anchor="start" x="212" y="-122.5" font-family="Helvetica,sans-Serif" font-size="10.00">_operation&lt; predicate</text>
<text text-anchor="start" x="212" y="-111.5" font-family="Helvetica,sans-Serif" font-size="10.00">_fn, operators::pipe, operators</text>
<text text-anchor="start" x="212" y="-100.5" font-family="Helvetica,sans-Serif" font-size="10.00">::bind_front, operators::bind</text>
<text text-anchor="start" x="212" y="-89.5" font-family="Helvetica,sans-Serif" font-size="10.00">_back, operators::disjunction,</text>
<text text-anchor="start" x="212" y="-78.5" font-family="Helvetica,sans-Serif" font-size="10.00"> operators::conjunction, operators</text>
<text text-anchor="start" x="212" y="-67.5" font-family="Helvetica,sans-Serif" font-size="10.00">::equal, operators::not_equal, operators</text>
<text text-anchor="middle" x="308.5" y="-56.5" font-family="Helvetica,sans-Serif" font-size="10.00">::equivalent, operators::negate &gt;</text>
</a>
</g>
</g>
<!-- Node35&#45;&gt;Node0 -->
<g id="edge1" class="edge">
<title>Node35&#45;&gt;Node0</title>
<path fill="none" stroke="midnightblue" d="M115.26,-273.22C132.5,-263.87 153.48,-250.28 168,-233.5 192.98,-204.62 178.08,-183.53 204,-155.5 207.22,-152.02 210.69,-148.7 214.35,-145.53"/>
<polygon fill="midnightblue" stroke="midnightblue" points="113.39,-270.25 106.14,-277.97 116.63,-276.46 113.39,-270.25"/>
</g>
<!-- Node38 -->
<g id="node4" class="node">
<title>Node38</title>
<g id="a_node4"><a xlink:href="d0/d50/structsl_1_1functional_1_1enable__operation.html" target="_top" xlink:title=" ">
<polygon fill="white" stroke="black" points="219,-345 219,-408 398,-408 398,-345 219,-345"/>
<text text-anchor="start" x="227" y="-396" font-family="Helvetica,sans-Serif" font-size="10.00">sl::functional::enable</text>
<text text-anchor="start" x="227" y="-385" font-family="Helvetica,sans-Serif" font-size="10.00">_operation&lt; algorithm</text>
<text text-anchor="start" x="227" y="-374" font-family="Helvetica,sans-Serif" font-size="10.00">_fn, functional::operators</text>
<text text-anchor="start" x="227" y="-363" font-family="Helvetica,sans-Serif" font-size="10.00">::bind_back, functional::operators</text>
<text text-anchor="middle" x="308.5" y="-352" font-family="Helvetica,sans-Serif" font-size="10.00">::bind_front &gt;</text>
</a>
</g>
</g>
<!-- Node35&#45;&gt;Node38 -->
<g id="edge3" class="edge">
<title>Node35&#45;&gt;Node38</title>
<path fill="none" stroke="midnightblue" d="M118,-300.88C141.87,-310.53 174.91,-323.87 204,-335.5 211.72,-338.58 219.76,-341.79 227.81,-344.99"/>
<polygon fill="midnightblue" stroke="midnightblue" points="119.27,-297.61 108.69,-297.11 116.65,-304.1 119.27,-297.61"/>
</g>
<!-- Node40 -->
<g id="node6" class="node">
<title>Node40</title>
<g id="a_node6"><a xlink:href="d0/d50/structsl_1_1functional_1_1enable__operation.html" target="_top" xlink:title=" ">
<polygon fill="white" stroke="black" points="213,-164.5 213,-216.5 404,-216.5 404,-164.5 213,-164.5"/>
<text text-anchor="start" x="221" y="-204.5" font-family="Helvetica,sans-Serif" font-size="10.00">sl::functional::enable</text>
<text text-anchor="start" x="221" y="-193.5" font-family="Helvetica,sans-Serif" font-size="10.00">_operation&lt; transform</text>
<text text-anchor="start" x="221" y="-182.5" font-family="Helvetica,sans-Serif" font-size="10.00">_fn, operators::pipe, operators</text>
<text text-anchor="middle" x="308.5" y="-171.5" font-family="Helvetica,sans-Serif" font-size="10.00">::bind_front, operators::bind_back &gt;</text>
</a>
</g>
</g>
<!-- Node35&#45;&gt;Node40 -->
<g id="edge5" class="edge">
<title>Node35&#45;&gt;Node40</title>
<path fill="none" stroke="midnightblue" d="M110.74,-272.99C134.51,-259.9 171.02,-240.61 204,-226.5 211.96,-223.1 220.36,-219.76 228.79,-216.59"/>
<polygon fill="midnightblue" stroke="midnightblue" points="109.03,-269.93 101.98,-277.84 112.43,-276.05 109.03,-269.93"/>
</g>
<!-- Node42 -->
<g id="node8" class="node">
<title>Node42</title>
<g id="a_node8"><a xlink:href="d0/d50/structsl_1_1functional_1_1enable__operation.html" target="_top" xlink:title=" ">
<polygon fill="white" stroke="black" points="223.5,-285 223.5,-326 393.5,-326 393.5,-285 223.5,-285"/>
<text text-anchor="start" x="231.5" y="-314" font-family="Helvetica,sans-Serif" font-size="10.00">sl::functional::enable</text>
<text text-anchor="start" x="231.5" y="-303" font-family="Helvetica,sans-Serif" font-size="10.00">_operation&lt; TClosureTemplate,</text>
<text text-anchor="middle" x="308.5" y="-292" font-family="Helvetica,sans-Serif" font-size="10.00"> TOperationTags &gt;</text>
</a>
</g>
</g>
<!-- Node35&#45;&gt;Node42 -->
<g id="edge7" class="edge">
<title>Node35&#45;&gt;Node42</title>
<path fill="none" stroke="midnightblue" d="M140.09,-291.96C165.21,-293.99 195.51,-296.44 223.39,-298.7"/>
<polygon fill="midnightblue" stroke="midnightblue" points="140.28,-288.46 130.03,-291.14 139.71,-295.44 140.28,-288.46"/>
</g>
<!-- Node1 -->
<g id="node3" class="node">
<title>Node1</title>
<g id="a_node3"><a xlink:href="df/d86/classsl_1_1functional_1_1predicate__fn.html" target="_top" xlink:title="Adapter type for predicates, which accepts a functional type and enables pipe, conjunctive and disjun...">
<polygon fill="white" stroke="black" points="450.5,-41.5 450.5,-71.5 581.5,-71.5 581.5,-41.5 450.5,-41.5"/>
<text text-anchor="start" x="458.5" y="-59.5" font-family="Helvetica,sans-Serif" font-size="10.00">sl::functional::predicate</text>
<text text-anchor="middle" x="516" y="-48.5" font-family="Helvetica,sans-Serif" font-size="10.00">_fn&lt; TFunc &gt;</text>
</a>
</g>
</g>
<!-- Node0&#45;&gt;Node1 -->
<g id="edge2" class="edge">
<title>Node0&#45;&gt;Node1</title>
<path fill="none" stroke="midnightblue" d="M423.23,-74.81C432.49,-72.96 441.62,-71.14 450.33,-69.4"/>
<polygon fill="midnightblue" stroke="midnightblue" points="422.27,-71.43 413.15,-76.82 423.64,-78.3 422.27,-71.43"/>
</g>
<!-- Node39 -->
<g id="node5" class="node">
<title>Node39</title>
<g id="a_node5"><a xlink:href="d6/d3b/classsl_1_1nullables_1_1algorithm__fn.html" target="_top" xlink:title="The core algorithm helper, which executes the held algorithm when used as the right&#45;hand&#45;side of oper...">
<polygon fill="white" stroke="black" points="452,-235.5 452,-265.5 580,-265.5 580,-235.5 452,-235.5"/>
<text text-anchor="start" x="460" y="-253.5" font-family="Helvetica,sans-Serif" font-size="10.00">sl::nullables::algorithm</text>
<text text-anchor="middle" x="516" y="-242.5" font-family="Helvetica,sans-Serif" font-size="10.00">_fn&lt; TFunc &gt;</text>
</a>
</g>
</g>
<!-- Node38&#45;&gt;Node39 -->
<g id="edge4" class="edge">
<title>Node38&#45;&gt;Node39</title>
<path fill="none" stroke="midnightblue" d="M404.44,-340.34C407.35,-338.77 410.22,-337.15 413,-335.5 446.89,-315.37 481.02,-284.21 499.94,-265.73"/>
<polygon fill="midnightblue" stroke="midnightblue" points="402.82,-337.23 395.53,-344.92 406.02,-343.45 402.82,-337.23"/>
</g>
<!-- Node41 -->
<g id="node7" class="node">
<title>Node41</title>
<g id="a_node7"><a xlink:href="da/dbe/classsl_1_1functional_1_1transform__fn.html" target="_top" xlink:title="Adapter type which accepts a functional type and enables pipe chaining and currying.">
<polygon fill="white" stroke="black" points="449,-133.5 449,-163.5 583,-163.5 583,-133.5 449,-133.5"/>
<text text-anchor="start" x="457" y="-151.5" font-family="Helvetica,sans-Serif" font-size="10.00">sl::functional::transform</text>
<text text-anchor="middle" x="516" y="-140.5" font-family="Helvetica,sans-Serif" font-size="10.00">_fn&lt; TFunc &gt;</text>
</a>
</g>
</g>
<!-- Node40&#45;&gt;Node41 -->
<g id="edge6" class="edge">
<title>Node40&#45;&gt;Node41</title>
<path fill="none" stroke="midnightblue" d="M414.04,-169.14C425.83,-166.72 437.6,-164.32 448.72,-162.05"/>
<polygon fill="midnightblue" stroke="midnightblue" points="413.23,-165.73 404.13,-171.16 414.63,-172.59 413.23,-165.73"/>
</g>
<!-- Node51 -->
<g id="node9" class="node">
<title>Node51</title>
<g id="a_node9"><a xlink:href="d6/d62/structsl_1_1unified__base.html" target="_top" xlink:title=" ">
<polygon fill="white" stroke="black" points="243,-235.5 243,-265.5 374,-265.5 374,-235.5 243,-235.5"/>
<text text-anchor="start" x="251" y="-253.5" font-family="Helvetica,sans-Serif" font-size="10.00">sl::unified_base&lt; detail</text>
<text text-anchor="middle" x="308.5" y="-242.5" font-family="Helvetica,sans-Serif" font-size="10.00">::algorithm_tag &gt;</text>
</a>
</g>
</g>
<!-- Node51&#45;&gt;Node39 -->
<g id="edge8" class="edge">
<title>Node51&#45;&gt;Node39</title>
<path fill="none" stroke="#8b1a1a" d="M384.3,-250.5C406.51,-250.5 430.61,-250.5 451.99,-250.5"/>
<polygon fill="#8b1a1a" stroke="#8b1a1a" points="384.24,-247 374.24,-250.5 384.24,-254 384.24,-247"/>
</g>
<!-- Node52 -->
<g id="node10" class="node">
<title>Node52</title>
<g id="a_node10"><a xlink:href="d6/d62/structsl_1_1unified__base.html" target="_top" xlink:title=" ">
<polygon fill="white" stroke="black" points="18.5,-0.5 18.5,-30.5 149.5,-30.5 149.5,-0.5 18.5,-0.5"/>
<text text-anchor="start" x="26.5" y="-18.5" font-family="Helvetica,sans-Serif" font-size="10.00">sl::unified_base&lt; detail</text>
<text text-anchor="middle" x="84" y="-7.5" font-family="Helvetica,sans-Serif" font-size="10.00">::closure_base_tag &gt;</text>
</a>
</g>
</g>
<!-- Node53 -->
<g id="node11" class="node">
<title>Node53</title>
<g id="a_node11"><a xlink:href="d9/de4/classsl_1_1functional_1_1closure__base__fn.html" target="_top" xlink:title="Helper type which simply stores functional objects or function pointers.">
<polygon fill="white" stroke="black" points="248,-0.5 248,-30.5 369,-30.5 369,-0.5 248,-0.5"/>
<text text-anchor="start" x="256" y="-18.5" font-family="Helvetica,sans-Serif" font-size="10.00">sl::functional::closure</text>
<text text-anchor="middle" x="308.5" y="-7.5" font-family="Helvetica,sans-Serif" font-size="10.00">_base_fn&lt; TFunc &gt;</text>
</a>
</g>
</g>
<!-- Node52&#45;&gt;Node53 -->
<g id="edge9" class="edge">
<title>Node52&#45;&gt;Node53</title>
<path fill="none" stroke="#8b1a1a" d="M160,-15.5C188.55,-15.5 220.67,-15.5 247.64,-15.5"/>
<polygon fill="#8b1a1a" stroke="#8b1a1a" points="159.66,-12 149.66,-15.5 159.66,-19 159.66,-12"/>
</g>
<!-- Node53&#45;&gt;Node1 -->
<g id="edge10" class="edge">
<title>Node53&#45;&gt;Node1</title>
<path fill="none" stroke="midnightblue" d="M379.27,-29.42C402.31,-34.02 427.83,-39.11 450.47,-43.62"/>
<polygon fill="midnightblue" stroke="midnightblue" points="379.71,-25.94 369.22,-27.41 378.34,-32.8 379.71,-25.94"/>
</g>
<!-- Node53&#45;&gt;Node39 -->
<g id="edge12" class="edge">
<title>Node53&#45;&gt;Node39</title>
<path fill="none" stroke="midnightblue" d="M378.82,-20.74C391.45,-24.52 403.59,-30.41 413,-39.5 457.35,-82.34 420.22,-118.96 449,-173.5 461.74,-197.64 483.24,-220.77 498.23,-235.27"/>
<polygon fill="midnightblue" stroke="midnightblue" points="379.65,-17.34 369.1,-18.25 377.91,-24.12 379.65,-17.34"/>
</g>
<!-- Node53&#45;&gt;Node41 -->
<g id="edge11" class="edge">
<title>Node53&#45;&gt;Node41</title>
<path fill="none" stroke="midnightblue" d="M379.06,-25.33C390.89,-28.74 402.67,-33.32 413,-39.5 433.81,-51.95 432.55,-62.68 449,-80.5 466.07,-98.99 486.31,-119.67 499.84,-133.32"/>
<polygon fill="midnightblue" stroke="midnightblue" points="379.71,-21.88 369.14,-22.74 377.93,-28.65 379.71,-21.88"/>
</g>
<!-- Node56 -->
<g id="node12" class="node">
<title>Node56</title>
<g id="a_node12"><a xlink:href="d6/d62/structsl_1_1unified__base.html" target="_top" xlink:title=" ">
<polygon fill="white" stroke="black" points="0,-193.5 0,-223.5 168,-223.5 168,-193.5 0,-193.5"/>
<text text-anchor="start" x="8" y="-211.5" font-family="Helvetica,sans-Serif" font-size="10.00">sl::unified_base&lt; detail</text>
<text text-anchor="middle" x="84" y="-200.5" font-family="Helvetica,sans-Serif" font-size="10.00">::enable_operators_base_tag &gt;</text>
</a>
</g>
</g>
<!-- Node56&#45;&gt;Node0 -->
<g id="edge13" class="edge">
<title>Node56&#45;&gt;Node0</title>
<path fill="none" stroke="#8b1a1a" d="M124.63,-188.73C148.72,-176.71 180.59,-160.81 210.98,-145.65"/>
<polygon fill="#8b1a1a" stroke="#8b1a1a" points="122.86,-185.7 115.47,-193.3 125.98,-191.97 122.86,-185.7"/>
</g>
<!-- Node56&#45;&gt;Node38 -->
<g id="edge14" class="edge">
<title>Node56&#45;&gt;Node38</title>
<path fill="none" stroke="#8b1a1a" d="M120.65,-229.12C136.49,-239.5 154.56,-253.15 168,-268.5 190.26,-293.94 178.75,-313.02 204,-335.5 208.47,-339.48 213.38,-343.1 218.56,-346.39"/>
<polygon fill="#8b1a1a" stroke="#8b1a1a" points="122.43,-226.11 112.12,-223.7 118.68,-232.01 122.43,-226.11"/>
</g>
<!-- Node56&#45;&gt;Node40 -->
<g id="edge15" class="edge">
<title>Node56&#45;&gt;Node40</title>
<path fill="none" stroke="#8b1a1a" d="M178.16,-200.96C189.62,-200.04 201.35,-199.09 212.83,-198.16"/>
<polygon fill="#8b1a1a" stroke="#8b1a1a" points="177.85,-197.48 168.17,-201.77 178.42,-204.45 177.85,-197.48"/>
</g>
<!-- Node56&#45;&gt;Node42 -->
<g id="edge16" class="edge">
<title>Node56&#45;&gt;Node42</title>
<path fill="none" stroke="#8b1a1a" d="M116.68,-229C140.09,-243.48 173.12,-262.54 204,-275.5 212.11,-278.9 220.73,-282.07 229.4,-284.97"/>
<polygon fill="#8b1a1a" stroke="#8b1a1a" points="118.23,-225.84 107.9,-223.5 114.52,-231.78 118.23,-225.84"/>
</g>
</g>
</svg>
