<?xml version="1.0" encoding="UTF-8" standalone="no"?>
<!DOCTYPE svg PUBLIC "-//W3C//DTD SVG 1.1//EN"
 "http://www.w3.org/Graphics/SVG/1.1/DTD/svg11.dtd">
<!-- Generated by graphviz version 7.0.5 (20221223.1930)
 -->
<!-- Title: Graphical Class Hierarchy Pages: 1 -->
<svg width="555pt" height="412pt"
 viewBox="0.00 0.00 555.00 412.00" xmlns="http://www.w3.org/2000/svg" xmlns:xlink="http://www.w3.org/1999/xlink">
<g id="graph0" class="graph" transform="scale(1 1) rotate(0) translate(4 408)">
<title>Graphical Class Hierarchy</title>
<!-- Node0 -->
<g id="node1" class="node">
<title>Node0</title>
<g id="a_node1"><a xlink:title=" ">
<polygon fill="#e0e0e0" stroke="#999999" points="123,-255.5 33,-255.5 33,-236.5 123,-236.5 123,-255.5"/>
<text text-anchor="middle" x="78" y="-243.5" font-family="Helvetica,sans-Serif" font-size="10.00">TOperationTags</text>
</a>
</g>
</g>
<!-- Node1 -->
<g id="node2" class="node">
<title>Node1</title>
<g id="a_node2"><a xlink:href="d0/d50/structsl_1_1functional_1_1enable__operation.html" target="_top" xlink:title=" ">
<polygon fill="white" stroke="#666666" points="386,-226 192,-226 192,-130 386,-130 386,-226"/>
<text text-anchor="start" x="200" y="-214" font-family="Helvetica,sans-Serif" font-size="10.00">sl::functional::enable</text>
<text text-anchor="start" x="200" y="-203" font-family="Helvetica,sans-Serif" font-size="10.00">_operation&lt; predicate</text>
<text text-anchor="start" x="200" y="-192" font-family="Helvetica,sans-Serif" font-size="10.00">_fn, operators::pipe, operators</text>
<text text-anchor="start" x="200" y="-181" font-family="Helvetica,sans-Serif" font-size="10.00">::bind_front, operators::bind</text>
<text text-anchor="start" x="200" y="-170" font-family="Helvetica,sans-Serif" font-size="10.00">_back, operators::disjunction,</text>
<text text-anchor="start" x="200" y="-159" font-family="Helvetica,sans-Serif" font-size="10.00"> operators::conjunction, operators</text>
<text text-anchor="start" x="200" y="-148" font-family="Helvetica,sans-Serif" font-size="10.00">::equal, operators::not_equal, operators</text>
<text text-anchor="middle" x="289" y="-137" font-family="Helvetica,sans-Serif" font-size="10.00">::equivalent, operators::negate &gt;</text>
</a>
</g>
</g>
<!-- Node0&#45;&gt;Node1 -->
<g id="edge1" class="edge">
<title>Node0&#45;&gt;Node1</title>
<path fill="none" stroke="#63b8ff" d="M120.25,-232.58C140.83,-225.88 166.66,-217.48 191.84,-209.29"/>
<polygon fill="#63b8ff" stroke="#63b8ff" points="119.26,-229.22 110.83,-235.64 121.42,-235.88 119.26,-229.22"/>
</g>
<!-- Node5 -->
<g id="node4" class="node">
<title>Node5</title>
<g id="a_node4"><a xlink:href="d0/d50/structsl_1_1functional_1_1enable__operation.html" target="_top" xlink:title=" ">
<polygon fill="white" stroke="#666666" points="378,-296 200,-296 200,-244 378,-244 378,-296"/>
<text text-anchor="start" x="208" y="-284" font-family="Helvetica,sans-Serif" font-size="10.00">sl::functional::enable</text>
<text text-anchor="start" x="208" y="-273" font-family="Helvetica,sans-Serif" font-size="10.00">_operation&lt; transform</text>
<text text-anchor="start" x="208" y="-262" font-family="Helvetica,sans-Serif" font-size="10.00">_fn, operators::pipe, operators</text>
<text text-anchor="middle" x="289" y="-251" font-family="Helvetica,sans-Serif" font-size="10.00">::bind_front, operators::bind_back &gt;</text>
</a>
</g>
</g>
<!-- Node0&#45;&gt;Node5 -->
<g id="edge3" class="edge">
<title>Node0&#45;&gt;Node5</title>
<path fill="none" stroke="#63b8ff" d="M134.71,-252.4C154.7,-254.69 177.77,-257.34 199.84,-259.88"/>
<polygon fill="#63b8ff" stroke="#63b8ff" points="135.16,-248.93 124.83,-251.26 134.36,-255.88 135.16,-248.93"/>
</g>
<!-- Node7 -->
<g id="node6" class="node">
<title>Node7</title>
<g id="a_node6"><a xlink:href="d0/d50/structsl_1_1functional_1_1enable__operation.html" target="_top" xlink:title=" ">
<polygon fill="white" stroke="#666666" points="372.5,-111.5 205.5,-111.5 205.5,-48.5 372.5,-48.5 372.5,-111.5"/>
<text text-anchor="start" x="213.5" y="-99.5" font-family="Helvetica,sans-Serif" font-size="10.00">sl::functional::enable</text>
<text text-anchor="start" x="213.5" y="-88.5" font-family="Helvetica,sans-Serif" font-size="10.00">_operation&lt; algorithm</text>
<text text-anchor="start" x="213.5" y="-77.5" font-family="Helvetica,sans-Serif" font-size="10.00">_fn, functional::operators</text>
<text text-anchor="start" x="213.5" y="-66.5" font-family="Helvetica,sans-Serif" font-size="10.00">::bind_back, functional::operators</text>
<text text-anchor="middle" x="289" y="-55.5" font-family="Helvetica,sans-Serif" font-size="10.00">::bind_front &gt;</text>
</a>
</g>
</g>
<!-- Node0&#45;&gt;Node7 -->
<g id="edge5" class="edge">
<title>Node0&#45;&gt;Node7</title>
<path fill="none" stroke="#63b8ff" d="M131.65,-231.62C140.59,-227.38 149.17,-221.94 156,-215 187.36,-183.1 160.97,-153.23 192,-121 196.02,-116.82 200.54,-113.05 205.36,-109.64"/>
<polygon fill="#63b8ff" stroke="#63b8ff" points="130.32,-228.38 122.47,-235.49 133.04,-234.83 130.32,-228.38"/>
</g>
<!-- Node10 -->
<g id="node8" class="node">
<title>Node10</title>
<g id="a_node8"><a xlink:href="d0/d50/structsl_1_1functional_1_1enable__operation.html" target="_top" xlink:title=" ">
<polygon fill="white" stroke="#666666" points="369.5,-355.5 208.5,-355.5 208.5,-314.5 369.5,-314.5 369.5,-355.5"/>
<text text-anchor="start" x="216.5" y="-343.5" font-family="Helvetica,sans-Serif" font-size="10.00">sl::functional::enable</text>
<text text-anchor="start" x="216.5" y="-332.5" font-family="Helvetica,sans-Serif" font-size="10.00">_operation&lt; TClosureTemplate,</text>
<text text-anchor="middle" x="289" y="-321.5" font-family="Helvetica,sans-Serif" font-size="10.00"> TOperationTags &gt;</text>
</a>
</g>
</g>
<!-- Node0&#45;&gt;Node10 -->
<g id="edge7" class="edge">
<title>Node0&#45;&gt;Node10</title>
<path fill="none" stroke="#63b8ff" d="M105.59,-261.61C128.09,-274.4 161.46,-292.37 192,-305 199.66,-308.17 207.79,-311.19 215.94,-314.02"/>
<polygon fill="#63b8ff" stroke="#63b8ff" points="107.5,-258.67 97.09,-256.73 104.01,-264.74 107.5,-258.67"/>
</g>
<!-- Node2 -->
<g id="node3" class="node">
<title>Node2</title>
<g id="a_node3"><a xlink:href="df/d86/classsl_1_1functional_1_1predicate__fn.html" target="_top" xlink:title="Adapter type for predicates, which accepts a functional type and enables pipe, conjunctive and disjun...">
<polygon fill="white" stroke="#666666" points="545,-215 424,-215 424,-185 545,-185 545,-215"/>
<text text-anchor="start" x="432" y="-203" font-family="Helvetica,sans-Serif" font-size="10.00">sl::functional::predicate</text>
<text text-anchor="middle" x="484.5" y="-192" font-family="Helvetica,sans-Serif" font-size="10.00">_fn&lt; TFunc &gt;</text>
</a>
</g>
</g>
<!-- Node1&#45;&gt;Node2 -->
<g id="edge2" class="edge">
<title>Node1&#45;&gt;Node2</title>
<path fill="none" stroke="#63b8ff" d="M397.74,-190.25C406.61,-191.26 415.35,-192.25 423.67,-193.2"/>
<polygon fill="#63b8ff" stroke="#63b8ff" points="398.3,-186.79 387.97,-189.14 397.51,-193.75 398.3,-186.79"/>
</g>
<!-- Node4 -->
<g id="node5" class="node">
<title>Node4</title>
<g id="a_node5"><a xlink:href="da/dbe/classsl_1_1functional_1_1transform__fn.html" target="_top" xlink:title="Adapter type which accepts a functional type and enables pipe chaining and currying.">
<polygon fill="white" stroke="#666666" points="547,-344 422,-344 422,-314 547,-314 547,-344"/>
<text text-anchor="start" x="430" y="-332" font-family="Helvetica,sans-Serif" font-size="10.00">sl::functional::transform</text>
<text text-anchor="middle" x="484.5" y="-321" font-family="Helvetica,sans-Serif" font-size="10.00">_fn&lt; TFunc &gt;</text>
</a>
</g>
</g>
<!-- Node5&#45;&gt;Node4 -->
<g id="edge4" class="edge">
<title>Node5&#45;&gt;Node4</title>
<path fill="none" stroke="#63b8ff" d="M387.67,-299.78C403.34,-304.56 418.97,-309.32 432.93,-313.58"/>
<polygon fill="#63b8ff" stroke="#63b8ff" points="388.88,-296.49 378.29,-296.92 386.84,-303.19 388.88,-296.49"/>
</g>
<!-- Node8 -->
<g id="node7" class="node">
<title>Node8</title>
<g id="a_node7"><a xlink:href="d6/d3b/classsl_1_1nullables_1_1algorithm__fn.html" target="_top" xlink:title="The core algorithm helper, which executes the held algorithm when used as the right&#45;hand&#45;side of oper...">
<polygon fill="white" stroke="#666666" points="544,-95 425,-95 425,-65 544,-65 544,-95"/>
<text text-anchor="start" x="433" y="-83" font-family="Helvetica,sans-Serif" font-size="10.00">sl::nullables::algorithm</text>
<text text-anchor="middle" x="484.5" y="-72" font-family="Helvetica,sans-Serif" font-size="10.00">_fn&lt; TFunc &gt;</text>
</a>
</g>
</g>
<!-- Node7&#45;&gt;Node8 -->
<g id="edge6" class="edge">
<title>Node7&#45;&gt;Node8</title>
<path fill="none" stroke="#63b8ff" d="M384.41,-80C398.16,-80 411.97,-80 424.73,-80"/>
<polygon fill="#63b8ff" stroke="#63b8ff" points="384.42,-76.5 374.42,-80 384.42,-83.5 384.42,-76.5"/>
</g>
<!-- Node9 -->
<g id="node9" class="node">
<title>Node9</title>
<g id="a_node9"><a xlink:href="d6/d62/structsl_1_1unified__base.html" target="_top" xlink:title=" ">
<polygon fill="white" stroke="#666666" points="348.5,-30 229.5,-30 229.5,0 348.5,0 348.5,-30"/>
<text text-anchor="start" x="237.5" y="-18" font-family="Helvetica,sans-Serif" font-size="10.00">sl::unified_base&lt; detail</text>
<text text-anchor="middle" x="289" y="-7" font-family="Helvetica,sans-Serif" font-size="10.00">::algorithm_tag &gt;</text>
</a>
</g>
</g>
<!-- Node9&#45;&gt;Node8 -->
<g id="edge8" class="edge">
<title>Node9&#45;&gt;Node8</title>
<path fill="none" stroke="#8b1a1a" d="M359.63,-31.07C368.57,-33.52 377.54,-36.18 386,-39 407.95,-46.31 431.91,-56.36 450.59,-64.68"/>
<polygon fill="#8b1a1a" stroke="#8b1a1a" points="360.82,-27.76 350.26,-28.57 359.02,-34.53 360.82,-27.76"/>
</g>
<!-- Node11 -->
<g id="node10" class="node">
<title>Node11</title>
<g id="a_node10"><a xlink:href="d6/d62/structsl_1_1unified__base.html" target="_top" xlink:title=" ">
<polygon fill="white" stroke="#666666" points="137.5,-404 18.5,-404 18.5,-374 137.5,-374 137.5,-404"/>
<text text-anchor="start" x="26.5" y="-392" font-family="Helvetica,sans-Serif" font-size="10.00">sl::unified_base&lt; detail</text>
<text text-anchor="middle" x="78" y="-381" font-family="Helvetica,sans-Serif" font-size="10.00">::closure_base_tag &gt;</text>
</a>
</g>
</g>
<!-- Node3 -->
<g id="node11" class="node">
<title>Node3</title>
<g id="a_node11"><a xlink:href="d9/de4/classsl_1_1functional_1_1closure__base__fn.html" target="_top" xlink:title="Helper type which simply stores functional objects or function pointers.">
<polygon fill="white" stroke="#666666" points="344.5,-404 233.5,-404 233.5,-374 344.5,-374 344.5,-404"/>
<text text-anchor="start" x="241.5" y="-392" font-family="Helvetica,sans-Serif" font-size="10.00">sl::functional::closure</text>
<text text-anchor="middle" x="289" y="-381" font-family="Helvetica,sans-Serif" font-size="10.00">_base_fn&lt; TFunc &gt;</text>
</a>
</g>
</g>
<!-- Node11&#45;&gt;Node3 -->
<g id="edge9" class="edge">
<title>Node11&#45;&gt;Node3</title>
<path fill="none" stroke="#8b1a1a" d="M149.27,-389C176.66,-389 207.57,-389 233.25,-389"/>
<polygon fill="#8b1a1a" stroke="#8b1a1a" points="149.29,-385.5 139.29,-389 149.29,-392.5 149.29,-385.5"/>
</g>
<!-- Node3&#45;&gt;Node2 -->
<g id="edge10" class="edge">
<title>Node3&#45;&gt;Node2</title>
<path fill="none" stroke="#63b8ff" d="M355.5,-380.05C366.37,-376.55 377.02,-371.7 386,-365 387.73,-363.71 450.71,-256.11 474.51,-215.38"/>
<polygon fill="#63b8ff" stroke="#63b8ff" points="354.74,-376.63 346.07,-382.71 356.64,-383.36 354.74,-376.63"/>
</g>
<!-- Node3&#45;&gt;Node4 -->
<g id="edge11" class="edge">
<title>Node3&#45;&gt;Node4</title>
<path fill="none" stroke="#63b8ff" d="M355.79,-373.56C365.95,-370.89 376.3,-367.99 386,-365 405.66,-358.93 427.14,-351.13 444.93,-344.34"/>
<polygon fill="#63b8ff" stroke="#63b8ff" points="355.14,-370.12 346.33,-376 356.88,-376.89 355.14,-370.12"/>
</g>
<!-- Node3&#45;&gt;Node8 -->
<g id="edge12" class="edge">
<title>Node3&#45;&gt;Node8</title>
<path fill="none" stroke="#63b8ff" d="M355.82,-383.08C367.14,-379.33 377.86,-373.61 386,-365 444.72,-302.84 390.36,-255.44 422,-176 434.3,-145.11 456.94,-113.42 471.06,-95.28"/>
<polygon fill="#63b8ff" stroke="#63b8ff" points="355.02,-379.67 346.31,-385.7 356.88,-386.42 355.02,-379.67"/>
</g>
<!-- Node6 -->
<g id="node12" class="node">
<title>Node6</title>
<g id="a_node12"><a xlink:href="d6/d62/structsl_1_1unified__base.html" target="_top" xlink:title=" ">
<polygon fill="white" stroke="#666666" points="156,-206 0,-206 0,-176 156,-176 156,-206"/>
<text text-anchor="start" x="8" y="-194" font-family="Helvetica,sans-Serif" font-size="10.00">sl::unified_base&lt; detail</text>
<text text-anchor="middle" x="78" y="-183" font-family="Helvetica,sans-Serif" font-size="10.00">::enable_operators_base_tag &gt;</text>
</a>
</g>
</g>
<!-- Node6&#45;&gt;Node1 -->
<g id="edge13" class="edge">
<title>Node6&#45;&gt;Node1</title>
<path fill="none" stroke="#8b1a1a" d="M167.69,-185.48C175.59,-184.99 183.62,-184.49 191.58,-184"/>
<polygon fill="#8b1a1a" stroke="#8b1a1a" points="167.5,-181.99 157.74,-186.1 167.94,-188.97 167.5,-181.99"/>
</g>
<!-- Node6&#45;&gt;Node5 -->
<g id="edge14" class="edge">
<title>Node6&#45;&gt;Node5</title>
<path fill="none" stroke="#8b1a1a" d="M128.71,-210.63C148.39,-218.32 171.22,-227.17 192,-235 199.39,-237.78 207.11,-240.66 214.82,-243.51"/>
<polygon fill="#8b1a1a" stroke="#8b1a1a" points="130.14,-207.43 119.55,-207.03 127.58,-213.94 130.14,-207.43"/>
</g>
<!-- Node6&#45;&gt;Node7 -->
<g id="edge15" class="edge">
<title>Node6&#45;&gt;Node7</title>
<path fill="none" stroke="#8b1a1a" d="M110.94,-169.41C133.16,-154.84 163.76,-135.67 192,-121 197.95,-117.91 204.19,-114.85 210.5,-111.89"/>
<polygon fill="#8b1a1a" stroke="#8b1a1a" points="109.02,-166.48 102.61,-174.92 112.89,-172.32 109.02,-166.48"/>
</g>
<!-- Node6&#45;&gt;Node10 -->
<g id="edge16" class="edge">
<title>Node6&#45;&gt;Node10</title>
<path fill="none" stroke="#8b1a1a" d="M135.49,-211.63C142.95,-215.94 150.07,-221.04 156,-227 182.93,-254.06 163.31,-279.81 192,-305 196.85,-309.26 202.31,-312.92 208.09,-316.06"/>
<polygon fill="#8b1a1a" stroke="#8b1a1a" points="137.35,-208.65 126.87,-207.1 134.1,-214.85 137.35,-208.65"/>
</g>
</g>
</svg>
