<?xml version="1.0" encoding="UTF-8" standalone="no"?>
<!DOCTYPE svg PUBLIC "-//W3C//DTD SVG 1.1//EN"
 "http://www.w3.org/Graphics/SVG/1.1/DTD/svg11.dtd">
<!-- Generated by graphviz version 8.0.5 (20230430.1635)
 -->
<!-- Title: Graphical Class Hierarchy Pages: 1 -->
<svg width="553pt" height="454pt"
 viewBox="0.00 0.00 552.50 453.50" xmlns="http://www.w3.org/2000/svg" xmlns:xlink="http://www.w3.org/1999/xlink">
<g id="graph0" class="graph" transform="scale(1 1) rotate(0) translate(4 449.5)">
<title>Graphical Class Hierarchy</title>
<!-- Node0 -->
<g id="node1" class="node">
<title>Node0</title>
<g id="a_node1"><a xlink:title=" ">
<polygon fill="#e0e0e0" stroke="#999999" points="122.5,-281.12 33,-281.12 33,-260.38 122.5,-260.38 122.5,-281.12"/>
<text text-anchor="middle" x="77.75" y="-267.62" font-family="Helvetica,sans-Serif" font-size="10.00">TOperationTags</text>
</a>
</g>
</g>
<!-- Node1 -->
<g id="node2" class="node">
<title>Node1</title>
<g id="a_node2"><a xlink:href="d0/d50/structsl_1_1functional_1_1enable__operation.html" target="_top" xlink:title=" ">
<polygon fill="white" stroke="#666666" points="384.5,-251.75 191.5,-251.75 191.5,-141.75 384.5,-141.75 384.5,-251.75"/>
<text text-anchor="start" x="199.5" y="-238.25" font-family="Helvetica,sans-Serif" font-size="10.00">sl::functional::enable</text>
<text text-anchor="start" x="199.5" y="-225.5" font-family="Helvetica,sans-Serif" font-size="10.00">_operation&lt; predicate</text>
<text text-anchor="start" x="199.5" y="-212.75" font-family="Helvetica,sans-Serif" font-size="10.00">_fn, operators::pipe, operators</text>
<text text-anchor="start" x="199.5" y="-200" font-family="Helvetica,sans-Serif" font-size="10.00">::bind_front, operators::bind</text>
<text text-anchor="start" x="199.5" y="-187.25" font-family="Helvetica,sans-Serif" font-size="10.00">_back, operators::disjunction,</text>
<text text-anchor="start" x="199.5" y="-174.5" font-family="Helvetica,sans-Serif" font-size="10.00"> operators::conjunction, operators</text>
<text text-anchor="start" x="199.5" y="-161.75" font-family="Helvetica,sans-Serif" font-size="10.00">::equal, operators::not_equal, operators</text>
<text text-anchor="middle" x="288" y="-149" font-family="Helvetica,sans-Serif" font-size="10.00">::equivalent, operators::negate &gt;</text>
</a>
</g>
</g>
<!-- Node0&#45;&gt;Node1 -->
<g id="edge1" class="edge">
<title>Node0&#45;&gt;Node1</title>
<path fill="none" stroke="#63b8ff" d="M119.28,-256.35C139.88,-249.03 165.86,-239.79 191.19,-230.8"/>
<polygon fill="#63b8ff" stroke="#63b8ff" points="118.28,-253.34 110.03,-259.99 120.63,-259.94 118.28,-253.34"/>
</g>
<!-- Node5 -->
<g id="node4" class="node">
<title>Node5</title>
<g id="a_node4"><a xlink:href="d0/d50/structsl_1_1functional_1_1enable__operation.html" target="_top" xlink:title=" ">
<polygon fill="white" stroke="#666666" points="376.62,-329.25 199.38,-329.25 199.38,-270.25 376.62,-270.25 376.62,-329.25"/>
<text text-anchor="start" x="207.38" y="-315.75" font-family="Helvetica,sans-Serif" font-size="10.00">sl::functional::enable</text>
<text text-anchor="start" x="207.38" y="-303" font-family="Helvetica,sans-Serif" font-size="10.00">_operation&lt; transform</text>
<text text-anchor="start" x="207.38" y="-290.25" font-family="Helvetica,sans-Serif" font-size="10.00">_fn, operators::pipe, operators</text>
<text text-anchor="middle" x="288" y="-277.5" font-family="Helvetica,sans-Serif" font-size="10.00">::bind_front, operators::bind_back &gt;</text>
</a>
</g>
</g>
<!-- Node0&#45;&gt;Node5 -->
<g id="edge3" class="edge">
<title>Node0&#45;&gt;Node5</title>
<path fill="none" stroke="#63b8ff" d="M133.7,-278.4C153.75,-281.19 176.96,-284.43 199.15,-287.52"/>
<polygon fill="#63b8ff" stroke="#63b8ff" points="134.3,-274.81 123.91,-276.9 133.34,-281.75 134.3,-274.81"/>
</g>
<!-- Node7 -->
<g id="node6" class="node">
<title>Node7</title>
<g id="a_node6"><a xlink:href="d0/d50/structsl_1_1functional_1_1enable__operation.html" target="_top" xlink:title=" ">
<polygon fill="white" stroke="#666666" points="371,-123.62 205,-123.62 205,-51.88 371,-51.88 371,-123.62"/>
<text text-anchor="start" x="213" y="-110.12" font-family="Helvetica,sans-Serif" font-size="10.00">sl::functional::enable</text>
<text text-anchor="start" x="213" y="-97.38" font-family="Helvetica,sans-Serif" font-size="10.00">_operation&lt; algorithm</text>
<text text-anchor="start" x="213" y="-84.62" font-family="Helvetica,sans-Serif" font-size="10.00">_fn, functional::operators</text>
<text text-anchor="start" x="213" y="-71.88" font-family="Helvetica,sans-Serif" font-size="10.00">::bind_back, functional::operators</text>
<text text-anchor="middle" x="288" y="-59.12" font-family="Helvetica,sans-Serif" font-size="10.00">::bind_front &gt;</text>
</a>
</g>
</g>
<!-- Node0&#45;&gt;Node7 -->
<g id="edge5" class="edge">
<title>Node0&#45;&gt;Node7</title>
<path fill="none" stroke="#63b8ff" d="M130.29,-255.69C139.6,-251.12 148.55,-245.25 155.5,-237.75 189.04,-201.57 158.59,-169.5 191.5,-132.75 195.41,-128.38 199.84,-124.4 204.59,-120.78"/>
<polygon fill="#63b8ff" stroke="#63b8ff" points="129.26,-252.76 121.52,-260 132.08,-259.17 129.26,-252.76"/>
</g>
<!-- Node10 -->
<g id="node8" class="node">
<title>Node10</title>
<g id="a_node8"><a xlink:href="d0/d50/structsl_1_1functional_1_1enable__operation.html" target="_top" xlink:title=" ">
<polygon fill="white" stroke="#666666" points="368,-393.88 208,-393.88 208,-347.62 368,-347.62 368,-393.88"/>
<text text-anchor="start" x="216" y="-380.38" font-family="Helvetica,sans-Serif" font-size="10.00">sl::functional::enable</text>
<text text-anchor="start" x="216" y="-367.62" font-family="Helvetica,sans-Serif" font-size="10.00">_operation&lt; TClosureTemplate,</text>
<text text-anchor="middle" x="288" y="-354.88" font-family="Helvetica,sans-Serif" font-size="10.00"> TOperationTags &gt;</text>
</a>
</g>
</g>
<!-- Node0&#45;&gt;Node10 -->
<g id="edge7" class="edge">
<title>Node0&#45;&gt;Node10</title>
<path fill="none" stroke="#63b8ff" d="M103.27,-287.7C125.54,-302.56 159.69,-324.04 191.5,-338.75 197.93,-341.72 204.71,-344.55 211.58,-347.22"/>
<polygon fill="#63b8ff" stroke="#63b8ff" points="105.45,-284.27 95.2,-281.58 101.53,-290.07 105.45,-284.27"/>
</g>
<!-- Node2 -->
<g id="node3" class="node">
<title>Node2</title>
<g id="a_node3"><a xlink:href="df/d86/classsl_1_1functional_1_1predicate__fn.html" target="_top" xlink:title="Adapter type for predicates, which accepts a functional type and enables pipe, conjunctive and disjun...">
<polygon fill="white" stroke="#666666" points="542.62,-238.5 422.38,-238.5 422.38,-205 542.62,-205 542.62,-238.5"/>
<text text-anchor="start" x="430.38" y="-225" font-family="Helvetica,sans-Serif" font-size="10.00">sl::functional::predicate</text>
<text text-anchor="middle" x="482.5" y="-212.25" font-family="Helvetica,sans-Serif" font-size="10.00">_fn&lt; TFunc &gt;</text>
</a>
</g>
</g>
<!-- Node1&#45;&gt;Node2 -->
<g id="edge2" class="edge">
<title>Node1&#45;&gt;Node2</title>
<path fill="none" stroke="#63b8ff" d="M395.6,-210.59C404.62,-211.77 413.52,-212.92 421.98,-214.02"/>
<polygon fill="#63b8ff" stroke="#63b8ff" points="396.34,-207.03 385.97,-209.21 395.43,-213.97 396.34,-207.03"/>
</g>
<!-- Node4 -->
<g id="node5" class="node">
<title>Node4</title>
<g id="a_node5"><a xlink:href="da/dbe/classsl_1_1functional_1_1transform__fn.html" target="_top" xlink:title="Adapter type which accepts a functional type and enables pipe chaining and currying.">
<polygon fill="white" stroke="#666666" points="544.5,-380.5 420.5,-380.5 420.5,-347 544.5,-347 544.5,-380.5"/>
<text text-anchor="start" x="428.5" y="-367" font-family="Helvetica,sans-Serif" font-size="10.00">sl::functional::transform</text>
<text text-anchor="middle" x="482.5" y="-354.25" font-family="Helvetica,sans-Serif" font-size="10.00">_fn&lt; TFunc &gt;</text>
</a>
</g>
</g>
<!-- Node5&#45;&gt;Node4 -->
<g id="edge4" class="edge">
<title>Node5&#45;&gt;Node4</title>
<path fill="none" stroke="#63b8ff" d="M387.24,-332.41C401.92,-337.29 416.55,-342.15 429.74,-346.54"/>
<polygon fill="#63b8ff" stroke="#63b8ff" points="388.67,-328.87 378.08,-329.03 386.47,-335.51 388.67,-328.87"/>
</g>
<!-- Node8 -->
<g id="node7" class="node">
<title>Node8</title>
<g id="a_node7"><a xlink:href="d6/d3b/classsl_1_1nullables_1_1algorithm__fn.html" target="_top" xlink:title="The core algorithm helper, which executes the held algorithm when used as the right&#45;hand&#45;side of oper...">
<polygon fill="white" stroke="#666666" points="541.88,-104.5 423.12,-104.5 423.12,-71 541.88,-71 541.88,-104.5"/>
<text text-anchor="start" x="431.12" y="-91" font-family="Helvetica,sans-Serif" font-size="10.00">sl::nullables::algorithm</text>
<text text-anchor="middle" x="482.5" y="-78.25" font-family="Helvetica,sans-Serif" font-size="10.00">_fn&lt; TFunc &gt;</text>
</a>
</g>
</g>
<!-- Node7&#45;&gt;Node8 -->
<g id="edge6" class="edge">
<title>Node7&#45;&gt;Node8</title>
<path fill="none" stroke="#63b8ff" d="M382.45,-87.75C396.18,-87.75 409.98,-87.75 422.74,-87.75"/>
<polygon fill="#63b8ff" stroke="#63b8ff" points="382.48,-84.25 372.48,-87.75 382.48,-91.25 382.48,-84.25"/>
</g>
<!-- Node9 -->
<g id="node9" class="node">
<title>Node9</title>
<g id="a_node9"><a xlink:href="d6/d62/structsl_1_1unified__base.html" target="_top" xlink:title=" ">
<polygon fill="white" stroke="#666666" points="347.38,-33.5 228.62,-33.5 228.62,0 347.38,0 347.38,-33.5"/>
<text text-anchor="start" x="236.62" y="-20" font-family="Helvetica,sans-Serif" font-size="10.00">sl::unified_base&lt; detail</text>
<text text-anchor="middle" x="288" y="-7.25" font-family="Helvetica,sans-Serif" font-size="10.00">::algorithm_tag &gt;</text>
</a>
</g>
</g>
<!-- Node9&#45;&gt;Node8 -->
<g id="edge8" class="edge">
<title>Node9&#45;&gt;Node8</title>
<path fill="none" stroke="#8b1a1a" d="M358.23,-34.11C367.15,-36.78 376.09,-39.68 384.5,-42.75 406.3,-50.71 429.94,-61.62 448.42,-70.71"/>
<polygon fill="#8b1a1a" stroke="#8b1a1a" points="359.4,-30.52 348.82,-31.09 357.45,-37.24 359.4,-30.52"/>
</g>
<!-- Node11 -->
<g id="node10" class="node">
<title>Node11</title>
<g id="a_node10"><a xlink:href="d6/d62/structsl_1_1unified__base.html" target="_top" xlink:title=" ">
<polygon fill="white" stroke="#666666" points="137.12,-445.5 18.38,-445.5 18.38,-412 137.12,-412 137.12,-445.5"/>
<text text-anchor="start" x="26.38" y="-432" font-family="Helvetica,sans-Serif" font-size="10.00">sl::unified_base&lt; detail</text>
<text text-anchor="middle" x="77.75" y="-419.25" font-family="Helvetica,sans-Serif" font-size="10.00">::closure_base_tag &gt;</text>
</a>
</g>
</g>
<!-- Node3 -->
<g id="node11" class="node">
<title>Node3</title>
<g id="a_node11"><a xlink:href="d9/de4/classsl_1_1functional_1_1closure__base__fn.html" target="_top" xlink:title="Helper type which simply stores functional objects or function pointers.">
<polygon fill="white" stroke="#666666" points="343.25,-445.5 232.75,-445.5 232.75,-412 343.25,-412 343.25,-445.5"/>
<text text-anchor="start" x="240.75" y="-432" font-family="Helvetica,sans-Serif" font-size="10.00">sl::functional::closure</text>
<text text-anchor="middle" x="288" y="-419.25" font-family="Helvetica,sans-Serif" font-size="10.00">_base_fn&lt; TFunc &gt;</text>
</a>
</g>
</g>
<!-- Node11&#45;&gt;Node3 -->
<g id="edge9" class="edge">
<title>Node11&#45;&gt;Node3</title>
<path fill="none" stroke="#8b1a1a" d="M148.31,-428.75C175.76,-428.75 206.83,-428.75 232.59,-428.75"/>
<polygon fill="#8b1a1a" stroke="#8b1a1a" points="148.59,-425.25 138.59,-428.75 148.59,-432.25 148.59,-425.25"/>
</g>
<!-- Node3&#45;&gt;Node2 -->
<g id="edge10" class="edge">
<title>Node3&#45;&gt;Node2</title>
<path fill="none" stroke="#63b8ff" d="M354.1,-418.7C365,-414.95 375.64,-409.81 384.5,-402.75 388.11,-399.88 449.3,-283.31 472.6,-238.79"/>
<polygon fill="#63b8ff" stroke="#63b8ff" points="353.17,-415.63 344.62,-421.89 355.2,-422.33 353.17,-415.63"/>
</g>
<!-- Node3&#45;&gt;Node4 -->
<g id="edge11" class="edge">
<title>Node3&#45;&gt;Node4</title>
<path fill="none" stroke="#63b8ff" d="M354.16,-412.1C364.38,-409.18 374.77,-406.02 384.5,-402.75 403.6,-396.34 424.37,-388.15 441.78,-380.94"/>
<polygon fill="#63b8ff" stroke="#63b8ff" points="353.31,-408.99 344.62,-415.06 355.2,-415.73 353.31,-408.99"/>
</g>
<!-- Node3&#45;&gt;Node8 -->
<g id="edge12" class="edge">
<title>Node3&#45;&gt;Node8</title>
<path fill="none" stroke="#63b8ff" d="M353.59,-421.8C365.23,-417.81 376.27,-411.79 384.5,-402.75 447.37,-333.7 389.08,-283.69 420.5,-195.75 432.75,-161.48 455.41,-125.39 469.4,-104.82"/>
<polygon fill="#63b8ff" stroke="#63b8ff" points="352.89,-418.65 344.26,-424.8 354.84,-425.37 352.89,-418.65"/>
</g>
<!-- Node6 -->
<g id="node12" class="node">
<title>Node6</title>
<g id="a_node12"><a xlink:href="d6/d62/structsl_1_1unified__base.html" target="_top" xlink:title=" ">
<polygon fill="white" stroke="#666666" points="155.5,-228.5 0,-228.5 0,-195 155.5,-195 155.5,-228.5"/>
<text text-anchor="start" x="8" y="-215" font-family="Helvetica,sans-Serif" font-size="10.00">sl::unified_base&lt; detail</text>
<text text-anchor="middle" x="77.75" y="-202.25" font-family="Helvetica,sans-Serif" font-size="10.00">::enable_operators_base_tag &gt;</text>
</a>
</g>
</g>
<!-- Node6&#45;&gt;Node1 -->
<g id="edge13" class="edge">
<title>Node6&#45;&gt;Node1</title>
<path fill="none" stroke="#8b1a1a" d="M166.86,-205.4C174.9,-204.82 183.07,-204.24 191.17,-203.65"/>
<polygon fill="#8b1a1a" stroke="#8b1a1a" points="166.72,-201.98 157,-206.19 167.22,-208.96 166.72,-201.98"/>
</g>
<!-- Node6&#45;&gt;Node5 -->
<g id="edge14" class="edge">
<title>Node6&#45;&gt;Node5</title>
<path fill="none" stroke="#8b1a1a" d="M127.8,-233.35C147.55,-241.97 170.56,-251.93 191.5,-260.75 198.51,-263.71 205.83,-266.76 213.16,-269.79"/>
<polygon fill="#8b1a1a" stroke="#8b1a1a" points="129.36,-229.77 118.79,-228.97 126.55,-236.19 129.36,-229.77"/>
</g>
<!-- Node6&#45;&gt;Node7 -->
<g id="edge15" class="edge">
<title>Node6&#45;&gt;Node7</title>
<path fill="none" stroke="#8b1a1a" d="M109.51,-188.04C131.66,-171.52 162.61,-149.51 191.5,-132.75 196.57,-129.81 201.87,-126.9 207.26,-124.06"/>
<polygon fill="#8b1a1a" stroke="#8b1a1a" points="107.77,-185.72 101.89,-194.53 111.98,-191.32 107.77,-185.72"/>
</g>
<!-- Node6&#45;&gt;Node10 -->
<g id="edge16" class="edge">
<title>Node6&#45;&gt;Node10</title>
<path fill="none" stroke="#8b1a1a" d="M133.69,-234.23C141.69,-239.16 149.3,-244.98 155.5,-251.75 183.76,-282.61 160.91,-310.2 191.5,-338.75 196.36,-343.28 201.88,-347.18 207.76,-350.52"/>
<polygon fill="#8b1a1a" stroke="#8b1a1a" points="135.62,-230.73 125.19,-228.84 132.16,-236.82 135.62,-230.73"/>
</g>
</g>
</svg>
