<?xml version="1.0" encoding="UTF-8" standalone="no"?>
<!DOCTYPE svg PUBLIC "-//W3C//DTD SVG 1.1//EN"
 "http://www.w3.org/Graphics/SVG/1.1/DTD/svg11.dtd">
<!-- Generated by graphviz version 8.0.5 (20230430.1635)
 -->
<!-- Title: Graphical Class Hierarchy Pages: 1 -->
<svg width="285pt" height="106pt"
 viewBox="0.00 0.00 285.25 105.88" xmlns="http://www.w3.org/2000/svg" xmlns:xlink="http://www.w3.org/1999/xlink">
<g id="graph0" class="graph" transform="scale(1 1) rotate(0) translate(4 101.88)">
<title>Graphical Class Hierarchy</title>
<!-- Node0 -->
<g id="node1" class="node">
<title>Node0</title>
<g id="a_node1"><a xlink:title=" ">
<polygon fill="#e0e0e0" stroke="#999999" points="100.75,-56.12 0,-56.12 0,-35.38 100.75,-35.38 100.75,-56.12"/>
<text text-anchor="middle" x="50.38" y="-42.62" font-family="Helvetica,sans-Serif" font-size="10.00">std::bool_constant</text>
</a>
</g>
</g>
<!-- Node1 -->
<g id="node2" class="node">
<title>Node1</title>
<g id="a_node2"><a xlink:href="d1/d64/structsl_1_1type__list_1_1contains_3_01_container_3_01_elements_8_8_8_01_4_00_01_query_01_4.html" target="_top" xlink:title="Specialization determining the presence of the query type, due to comparing it with each element of t...">
<polygon fill="white" stroke="#666666" points="270.5,-97.88 143.5,-97.88 143.5,-51.62 270.5,-51.62 270.5,-97.88"/>
<text text-anchor="start" x="151.5" y="-84.38" font-family="Helvetica,sans-Serif" font-size="10.00">sl::type_list::contains</text>
<text text-anchor="start" x="151.5" y="-71.62" font-family="Helvetica,sans-Serif" font-size="10.00">&lt; Container&lt; Elements...</text>
<text text-anchor="middle" x="207" y="-58.88" font-family="Helvetica,sans-Serif" font-size="10.00"> &gt;, Query &gt;</text>
</a>
</g>
</g>
<!-- Node0&#45;&gt;Node1 -->
<g id="edge1" class="edge">
<title>Node0&#45;&gt;Node1</title>
<path fill="none" stroke="#63b8ff" d="M111.68,-57.06C121.96,-58.99 132.66,-61 143.01,-62.94"/>
<polygon fill="#63b8ff" stroke="#63b8ff" points="112.62,-53.49 102.15,-55.09 111.33,-60.37 112.62,-53.49"/>
</g>
<!-- Node2 -->
<g id="node3" class="node">
<title>Node2</title>
<g id="a_node3"><a xlink:href="d0/d33/structsl_1_1type__list_1_1unordered__equal_3_01_first_00_01_other_lists_8_8_8_01_4.html" target="_top" xlink:title="Specialization, determining whether the current element appears equally often in all type&#45;lists.">
<polygon fill="white" stroke="#666666" points="277.25,-33.5 136.75,-33.5 136.75,0 277.25,0 277.25,-33.5"/>
<text text-anchor="start" x="144.75" y="-20" font-family="Helvetica,sans-Serif" font-size="10.00">sl::type_list::unordered</text>
<text text-anchor="middle" x="207" y="-7.25" font-family="Helvetica,sans-Serif" font-size="10.00">_equal&lt; First, OtherLists... &gt;</text>
</a>
</g>
</g>
<!-- Node0&#45;&gt;Node2 -->
<g id="edge2" class="edge">
<title>Node0&#45;&gt;Node2</title>
<path fill="none" stroke="#63b8ff" d="M111.89,-34.4C119.9,-32.9 128.17,-31.35 136.32,-29.82"/>
<polygon fill="#63b8ff" stroke="#63b8ff" points="111.33,-31.13 102.15,-36.41 112.62,-38.01 111.33,-31.13"/>
</g>
</g>
</svg>
