<?xml version="1.0" encoding="UTF-8" standalone="no"?>
<!DOCTYPE svg PUBLIC "-//W3C//DTD SVG 1.1//EN"
 "http://www.w3.org/Graphics/SVG/1.1/DTD/svg11.dtd">
<!-- Generated by graphviz version 7.0.5 (20221223.1930)
 -->
<!-- Title: Graphical Class Hierarchy Pages: 1 -->
<svg width="335pt" height="194pt"
 viewBox="0.00 0.00 335.00 193.50" xmlns="http://www.w3.org/2000/svg" xmlns:xlink="http://www.w3.org/1999/xlink">
<g id="graph0" class="graph" transform="scale(1 1) rotate(0) translate(4 189.5)">
<title>Graphical Class Hierarchy</title>
<!-- Node0 -->
<g id="node1" class="node">
<title>Node0</title>
<g id="a_node1"><a xlink:title=" ">
<polygon fill="#e0e0e0" stroke="#999999" points="116,-108 0,-108 0,-89 116,-89 116,-108"/>
<text text-anchor="middle" x="58" y="-96" font-family="Helvetica,sans-Serif" font-size="10.00">std::integral_constant</text>
</a>
</g>
</g>
<!-- Node1 -->
<g id="node2" class="node">
<title>Node1</title>
<g id="a_node2"><a xlink:href="de/dc0/structsl_1_1type__list_1_1count_3_01_query_00_01_container_3_01_elements_8_8_8_01_4_01_4.html" target="_top" xlink:title="Specialization counting the presence of the query type, due to comparing it with each element of the ...">
<polygon fill="white" stroke="#666666" points="327,-185.5 152,-185.5 152,-155.5 327,-155.5 327,-185.5"/>
<text text-anchor="start" x="160" y="-173.5" font-family="Helvetica,sans-Serif" font-size="10.00">sl::type_list::count</text>
<text text-anchor="middle" x="239.5" y="-162.5" font-family="Helvetica,sans-Serif" font-size="10.00">&lt; Query, Container&lt; Elements... &gt; &gt;</text>
</a>
</g>
</g>
<!-- Node0&#45;&gt;Node1 -->
<g id="edge1" class="edge">
<title>Node0&#45;&gt;Node1</title>
<path fill="none" stroke="#63b8ff" d="M85.54,-114.06C103.79,-124.29 128.81,-137.41 152,-146.5 159.98,-149.63 168.52,-152.52 177.02,-155.13"/>
<polygon fill="#63b8ff" stroke="#63b8ff" points="87.39,-111.09 76.97,-109.18 83.92,-117.17 87.39,-111.09"/>
</g>
<!-- Node2 -->
<g id="node3" class="node">
<title>Node2</title>
<g id="a_node3"><a xlink:href="dd/ded/structsl_1_1type__list_1_1index__of.html" target="_top" xlink:title="Primary template, traversing the elements of the source type&#45;list.">
<polygon fill="white" stroke="#666666" points="287,-137.5 192,-137.5 192,-107.5 287,-107.5 287,-137.5"/>
<text text-anchor="start" x="200" y="-125.5" font-family="Helvetica,sans-Serif" font-size="10.00">sl::type_list::index</text>
<text text-anchor="middle" x="239.5" y="-114.5" font-family="Helvetica,sans-Serif" font-size="10.00">_of&lt; List, Query &gt;</text>
</a>
</g>
</g>
<!-- Node0&#45;&gt;Node2 -->
<g id="edge2" class="edge">
<title>Node0&#45;&gt;Node2</title>
<path fill="none" stroke="#63b8ff" d="M127.63,-107.68C149.02,-110.54 172.11,-113.62 191.65,-116.24"/>
<polygon fill="#63b8ff" stroke="#63b8ff" points="128.16,-104.22 117.79,-106.36 127.24,-111.15 128.16,-104.22"/>
</g>
<!-- Node3 -->
<g id="node4" class="node">
<title>Node3</title>
<g id="a_node4"><a xlink:href="db/dec/structsl_1_1type__list_1_1index__of_3_01_list_00_01front__t_3_01_list_01_4_01_4.html" target="_top" xlink:title="Specialization if the queried type appears at the beginning of the type&#45;list.">
<polygon fill="white" stroke="#666666" points="306,-89.5 173,-89.5 173,-59.5 306,-59.5 306,-89.5"/>
<text text-anchor="start" x="181" y="-77.5" font-family="Helvetica,sans-Serif" font-size="10.00">sl::type_list::index</text>
<text text-anchor="middle" x="239.5" y="-66.5" font-family="Helvetica,sans-Serif" font-size="10.00">_of&lt; List, front_t&lt; List &gt; &gt;</text>
</a>
</g>
</g>
<!-- Node0&#45;&gt;Node3 -->
<g id="edge3" class="edge">
<title>Node0&#45;&gt;Node3</title>
<path fill="none" stroke="#63b8ff" d="M127.45,-89.35C142.29,-87.36 157.96,-85.27 172.7,-83.3"/>
<polygon fill="#63b8ff" stroke="#63b8ff" points="127.24,-85.85 117.79,-90.64 128.16,-92.78 127.24,-85.85"/>
</g>
<!-- Node4 -->
<g id="node5" class="node">
<title>Node4</title>
<g id="a_node5"><a xlink:href="df/dc1/structstd_1_1tuple__size_3_01sl_1_1type__list_1_1_type_list_3_01_types_8_8_8_01_4_01_4.html" target="_top" xlink:title="Specialization of std::tuple_size for TypeList.">
<polygon fill="white" stroke="#666666" points="290,-41 189,-41 189,0 290,0 290,-41"/>
<text text-anchor="start" x="197" y="-29" font-family="Helvetica,sans-Serif" font-size="10.00">std::tuple_size&lt; sl</text>
<text text-anchor="start" x="197" y="-18" font-family="Helvetica,sans-Serif" font-size="10.00">::type_list::TypeList</text>
<text text-anchor="middle" x="239.5" y="-7" font-family="Helvetica,sans-Serif" font-size="10.00">&lt; Types... &gt; &gt;</text>
</a>
</g>
</g>
<!-- Node0&#45;&gt;Node4 -->
<g id="edge4" class="edge">
<title>Node0&#45;&gt;Node4</title>
<path fill="none" stroke="#63b8ff" d="M86.41,-83.04C104.67,-73.07 129.39,-60.2 152,-50.5 163.69,-45.49 176.52,-40.68 188.63,-36.43"/>
<polygon fill="#63b8ff" stroke="#63b8ff" points="84.85,-79.9 77.79,-87.8 88.24,-86.03 84.85,-79.9"/>
</g>
</g>
</svg>
