<?xml version="1.0" encoding="UTF-8" standalone="no"?>
<!DOCTYPE svg PUBLIC "-//W3C//DTD SVG 1.1//EN"
 "http://www.w3.org/Graphics/SVG/1.1/DTD/svg11.dtd">
<!-- Generated by graphviz version 8.0.5 (20230430.1635)
 -->
<!-- Title: Graphical Class Hierarchy Pages: 1 -->
<svg width="286pt" height="106pt"
 viewBox="0.00 0.00 286.00 105.88" xmlns="http://www.w3.org/2000/svg" xmlns:xlink="http://www.w3.org/1999/xlink">
<g id="graph0" class="graph" transform="scale(1 1) rotate(0) translate(4 101.88)">
<title>Graphical Class Hierarchy</title>
<!-- Node0 -->
<g id="node1" class="node">
<title>Node0</title>
<g id="a_node1"><a xlink:title=" ">
<polygon fill="#e0e0e0" stroke="#999999" points="77.5,-56.12 0,-56.12 0,-35.38 77.5,-35.38 77.5,-56.12"/>
<text text-anchor="middle" x="38.75" y="-42.62" font-family="Helvetica,sans-Serif" font-size="10.00">std::true_type</text>
</a>
</g>
</g>
<!-- Node1 -->
<g id="node2" class="node">
<title>Node1</title>
<g id="a_node2"><a xlink:href="db/db9/structsl_1_1functional_1_1is__composition_3_01_composition_3_01_composition_strategy_00_01_fns_8_8_8_01_4_01_4.html" target="_top" xlink:title="Specialization for Composition.">
<polygon fill="white" stroke="#666666" points="278,-97.88 113.5,-97.88 113.5,-51.62 278,-51.62 278,-97.88"/>
<text text-anchor="start" x="121.5" y="-84.38" font-family="Helvetica,sans-Serif" font-size="10.00">sl::functional::is</text>
<text text-anchor="start" x="121.5" y="-71.62" font-family="Helvetica,sans-Serif" font-size="10.00">_composition&lt; Composition</text>
<text text-anchor="middle" x="195.75" y="-58.88" font-family="Helvetica,sans-Serif" font-size="10.00">&lt; CompositionStrategy, Fns... &gt; &gt;</text>
</a>
</g>
</g>
<!-- Node0&#45;&gt;Node1 -->
<g id="edge1" class="edge">
<title>Node0&#45;&gt;Node1</title>
<path fill="none" stroke="#63b8ff" d="M88.21,-54.82C96.19,-56.31 104.64,-57.89 113.17,-59.49"/>
<polygon fill="#63b8ff" stroke="#63b8ff" points="89.14,-51.24 78.67,-52.84 87.85,-58.12 89.14,-51.24"/>
</g>
<!-- Node2 -->
<g id="node3" class="node">
<title>Node2</title>
<g id="a_node3"><a xlink:href="dd/d1b/structsl_1_1type__list_1_1equal_3_01_first_01_4.html" target="_top" xlink:title="Specialization for single type&#45;list.">
<polygon fill="white" stroke="#666666" points="243.5,-33.5 148,-33.5 148,0 243.5,0 243.5,-33.5"/>
<text text-anchor="start" x="156" y="-20" font-family="Helvetica,sans-Serif" font-size="10.00">sl::type_list::equal</text>
<text text-anchor="middle" x="195.75" y="-7.25" font-family="Helvetica,sans-Serif" font-size="10.00">&lt; First &gt;</text>
</a>
</g>
</g>
<!-- Node0&#45;&gt;Node2 -->
<g id="edge2" class="edge">
<title>Node0&#45;&gt;Node2</title>
<path fill="none" stroke="#63b8ff" d="M88.42,-36.64C107.28,-33.12 128.8,-29.09 147.52,-25.59"/>
<polygon fill="#63b8ff" stroke="#63b8ff" points="87.85,-33.38 78.67,-38.66 89.14,-40.26 87.85,-33.38"/>
</g>
</g>
</svg>
