<?xml version="1.0" encoding="UTF-8" standalone="no"?>
<!DOCTYPE svg PUBLIC "-//W3C//DTD SVG 1.1//EN"
 "http://www.w3.org/Graphics/SVG/1.1/DTD/svg11.dtd">
<!-- Generated by graphviz version 8.0.5 (20230430.1635)
 -->
<!-- Title: Graphical Class Hierarchy Pages: 1 -->
<svg width="493pt" height="225pt"
 viewBox="0.00 0.00 493.25 225.25" xmlns="http://www.w3.org/2000/svg" xmlns:xlink="http://www.w3.org/1999/xlink">
<g id="graph0" class="graph" transform="scale(1 1) rotate(0) translate(4 221.25)">
<title>Graphical Class Hierarchy</title>
<!-- Node0 -->
<g id="node1" class="node">
<title>Node0</title>
<g id="a_node1"><a xlink:title=" ">
<polygon fill="#e0e0e0" stroke="#999999" points="81.25,-105.12 0,-105.12 0,-84.38 81.25,-84.38 81.25,-105.12"/>
<text text-anchor="middle" x="40.62" y="-91.62" font-family="Helvetica,sans-Serif" font-size="10.00">std::false_type</text>
</a>
</g>
</g>
<!-- Node1 -->
<g id="node2" class="node">
<title>Node1</title>
<g id="a_node2"><a xlink:href="dd/d9c/structsl_1_1type__list_1_1equal.html" target="_top" xlink:title=" ">
<polygon fill="white" stroke="#666666" points="274.62,-207.88 127.38,-207.88 127.38,-161.62 274.62,-161.62 274.62,-207.88"/>
<text text-anchor="start" x="135.38" y="-194.38" font-family="Helvetica,sans-Serif" font-size="10.00">sl::type_list::equal</text>
<text text-anchor="start" x="135.38" y="-181.62" font-family="Helvetica,sans-Serif" font-size="10.00">&lt; FirstContainer&lt; Elements...</text>
<text text-anchor="middle" x="201" y="-168.88" font-family="Helvetica,sans-Serif" font-size="10.00"> &gt;, Others... &gt;</text>
</a>
</g>
</g>
<!-- Node0&#45;&gt;Node1 -->
<g id="edge1" class="edge">
<title>Node0&#45;&gt;Node1</title>
<path fill="none" stroke="#63b8ff" d="M64.5,-112.01C79.16,-122.68 98.84,-136.29 117.25,-146.75 126.19,-151.82 135.92,-156.77 145.47,-161.33"/>
<polygon fill="#63b8ff" stroke="#63b8ff" points="66.77,-108.6 56.65,-105.48 62.62,-114.23 66.77,-108.6"/>
</g>
<!-- Node3 -->
<g id="node4" class="node">
<title>Node3</title>
<g id="a_node4"><a xlink:href="dd/d9c/structsl_1_1type__list_1_1equal.html" target="_top" xlink:title=" ">
<polygon fill="white" stroke="#666666" points="284.75,-137.5 117.25,-137.5 117.25,-104 284.75,-104 284.75,-137.5"/>
<text text-anchor="start" x="125.25" y="-124" font-family="Helvetica,sans-Serif" font-size="10.00">sl::type_list::equal</text>
<text text-anchor="middle" x="201" y="-111.25" font-family="Helvetica,sans-Serif" font-size="10.00">&lt; FirstContainer&lt;&gt;, OtherLists... &gt;</text>
</a>
</g>
</g>
<!-- Node0&#45;&gt;Node3 -->
<g id="edge3" class="edge">
<title>Node0&#45;&gt;Node3</title>
<path fill="none" stroke="#63b8ff" d="M92.34,-103.08C100.18,-104.36 108.44,-105.72 116.77,-107.09"/>
<polygon fill="#63b8ff" stroke="#63b8ff" points="93.02,-99.48 82.59,-101.31 91.89,-106.38 93.02,-99.48"/>
</g>
<!-- Node5 -->
<g id="node6" class="node">
<title>Node5</title>
<g id="a_node6"><a xlink:href="dd/d8c/structsl_1_1functional_1_1is__composition.html" target="_top" xlink:title="Primary template, yielding false type.">
<polygon fill="white" stroke="#666666" points="251,-85.5 151,-85.5 151,-52 251,-52 251,-85.5"/>
<text text-anchor="start" x="159" y="-72" font-family="Helvetica,sans-Serif" font-size="10.00">sl::functional::is</text>
<text text-anchor="middle" x="201" y="-59.25" font-family="Helvetica,sans-Serif" font-size="10.00">_composition&lt; T &gt;</text>
</a>
</g>
</g>
<!-- Node0&#45;&gt;Node5 -->
<g id="edge5" class="edge">
<title>Node0&#45;&gt;Node5</title>
<path fill="none" stroke="#63b8ff" d="M92.28,-86.43C110.97,-83.37 132.12,-79.89 150.7,-76.84"/>
<polygon fill="#63b8ff" stroke="#63b8ff" points="91.89,-83.12 82.59,-88.19 93.02,-90.02 91.89,-83.12"/>
</g>
<!-- Node6 -->
<g id="node7" class="node">
<title>Node6</title>
<g id="a_node7"><a xlink:href="dd/d9c/structsl_1_1type__list_1_1equal.html" target="_top" xlink:title="Primary template yields false.">
<polygon fill="white" stroke="#666666" points="248.75,-33.5 153.25,-33.5 153.25,0 248.75,0 248.75,-33.5"/>
<text text-anchor="start" x="161.25" y="-20" font-family="Helvetica,sans-Serif" font-size="10.00">sl::type_list::equal</text>
<text text-anchor="middle" x="201" y="-7.25" font-family="Helvetica,sans-Serif" font-size="10.00">&lt; First, Others &gt;</text>
</a>
</g>
</g>
<!-- Node0&#45;&gt;Node6 -->
<g id="edge6" class="edge">
<title>Node0&#45;&gt;Node6</title>
<path fill="none" stroke="#63b8ff" d="M62.85,-77.6C77.45,-66.46 97.68,-52.29 117.25,-42.75 128.49,-37.28 141.13,-32.62 153.1,-28.82"/>
<polygon fill="#63b8ff" stroke="#63b8ff" points="61.28,-75.17 55.54,-84.07 65.58,-80.69 61.28,-75.17"/>
</g>
<!-- Node2 -->
<g id="node3" class="node">
<title>Node2</title>
<g id="a_node3"><a xlink:href="d5/de5/structsl_1_1type__list_1_1equal_3_01_first_container_3_01_elements_8_8_8_01_4_00_01_second_conta6f0f2b64bdcd65e4b0dceb365a3048ce.html" target="_top" xlink:title="Specialization, determining whether the first two type&#45;lists have equal template arguments.">
<polygon fill="white" stroke="#666666" points="485.25,-217.25 320.75,-217.25 320.75,-158.25 485.25,-158.25 485.25,-217.25"/>
<text text-anchor="start" x="328.75" y="-203.75" font-family="Helvetica,sans-Serif" font-size="10.00">sl::type_list::equal</text>
<text text-anchor="start" x="328.75" y="-191" font-family="Helvetica,sans-Serif" font-size="10.00">&lt; FirstContainer&lt; Elements...</text>
<text text-anchor="start" x="328.75" y="-178.25" font-family="Helvetica,sans-Serif" font-size="10.00"> &gt;, SecondContainer&lt; Elements...</text>
<text text-anchor="middle" x="403" y="-165.5" font-family="Helvetica,sans-Serif" font-size="10.00"> &gt;, Others... &gt;</text>
</a>
</g>
</g>
<!-- Node1&#45;&gt;Node2 -->
<g id="edge2" class="edge">
<title>Node1&#45;&gt;Node2</title>
<path fill="none" stroke="#63b8ff" d="M285.88,-186.01C297.29,-186.18 308.99,-186.35 320.36,-186.53"/>
<polygon fill="#63b8ff" stroke="#63b8ff" points="286.1,-182.5 276.05,-185.85 286,-189.5 286.1,-182.5"/>
</g>
<!-- Node4 -->
<g id="node5" class="node">
<title>Node4</title>
<g id="a_node5"><a xlink:href="de/d8f/structsl_1_1type__list_1_1unordered__equal_3_01_first_container_3_4_00_01_other_lists_8_8_8_01_4.html" target="_top" xlink:title="Root specialization, determining whether all type&#45;lists are empty.">
<polygon fill="white" stroke="#666666" points="462.75,-139.88 343.25,-139.88 343.25,-93.62 462.75,-93.62 462.75,-139.88"/>
<text text-anchor="start" x="351.25" y="-126.38" font-family="Helvetica,sans-Serif" font-size="10.00">sl::type_list::unordered</text>
<text text-anchor="start" x="351.25" y="-113.62" font-family="Helvetica,sans-Serif" font-size="10.00">_equal&lt; FirstContainer</text>
<text text-anchor="middle" x="403" y="-100.88" font-family="Helvetica,sans-Serif" font-size="10.00">&lt;&gt;, OtherLists... &gt;</text>
</a>
</g>
</g>
<!-- Node3&#45;&gt;Node4 -->
<g id="edge4" class="edge">
<title>Node3&#45;&gt;Node4</title>
<path fill="none" stroke="#63b8ff" d="M295.62,-118.88C311.73,-118.56 328.07,-118.23 342.94,-117.93"/>
<polygon fill="#63b8ff" stroke="#63b8ff" points="296.01,-115.39 286.08,-119.09 296.15,-122.39 296.01,-115.39"/>
</g>
</g>
</svg>
