<?xml version="1.0" encoding="UTF-8" standalone="no"?>
<!DOCTYPE svg PUBLIC "-//W3C//DTD SVG 1.1//EN"
 "http://www.w3.org/Graphics/SVG/1.1/DTD/svg11.dtd">
<!-- Generated by graphviz version 8.0.5 (20230430.1635)
 -->
<!-- Title: Graphical Class Hierarchy Pages: 1 -->
<svg width="493pt" height="338pt"
 viewBox="0.00 0.00 493.25 337.62" xmlns="http://www.w3.org/2000/svg" xmlns:xlink="http://www.w3.org/1999/xlink">
<g id="graph0" class="graph" transform="scale(1 1) rotate(0) translate(4 333.62)">
<title>Graphical Class Hierarchy</title>
<!-- Node0 -->
<g id="node1" class="node">
<title>Node0</title>
<g id="a_node1"><a xlink:title=" ">
<polygon fill="#e0e0e0" stroke="#999999" points="81.25,-137.12 0,-137.12 0,-116.38 81.25,-116.38 81.25,-137.12"/>
<text text-anchor="middle" x="40.62" y="-123.62" font-family="Helvetica,sans-Serif" font-size="10.00">std::false_type</text>
</a>
</g>
</g>
<!-- Node1 -->
<g id="node2" class="node">
<title>Node1</title>
<g id="a_node2"><a xlink:title=" ">
<polygon fill="#e0e0e0" stroke="#999999" points="270.88,-329.62 131.12,-329.62 131.12,-257.88 270.88,-257.88 270.88,-329.62"/>
<text text-anchor="start" x="139.12" y="-316.12" font-family="Helvetica,sans-Serif" font-size="10.00">sl::tuple::detail::</text>
<text text-anchor="start" x="139.12" y="-303.38" font-family="Helvetica,sans-Serif" font-size="10.00">is_apply_invocable&lt;</text>
<text text-anchor="start" x="139.12" y="-290.62" font-family="Helvetica,sans-Serif" font-size="10.00"> TFunc, TTuple, std::</text>
<text text-anchor="start" x="139.12" y="-277.88" font-family="Helvetica,sans-Serif" font-size="10.00">make_index_sequence&lt; std</text>
<text text-anchor="middle" x="201" y="-265.12" font-family="Helvetica,sans-Serif" font-size="10.00">::tuple_size_v&lt; TTuple &gt; &gt; &gt;</text>
</a>
</g>
</g>
<!-- Node0&#45;&gt;Node1 -->
<g id="edge1" class="edge">
<title>Node0&#45;&gt;Node1</title>
<path fill="none" stroke="#63b8ff" d="M50.38,-147.46C62.32,-173.71 85.87,-219.1 117.25,-248.75 121.41,-252.68 125.98,-256.38 130.77,-259.83"/>
<polygon fill="#63b8ff" stroke="#63b8ff" points="53.22,-146.22 45.99,-138.48 46.82,-149.04 53.22,-146.22"/>
</g>
<!-- Node3 -->
<g id="node4" class="node">
<title>Node3</title>
<g id="a_node4"><a xlink:title=" ">
<polygon fill="#e0e0e0" stroke="#999999" points="273.5,-239.62 128.5,-239.62 128.5,-167.88 273.5,-167.88 273.5,-239.62"/>
<text text-anchor="start" x="136.5" y="-226.12" font-family="Helvetica,sans-Serif" font-size="10.00">sl::tuple::detail::</text>
<text text-anchor="start" x="136.5" y="-213.38" font-family="Helvetica,sans-Serif" font-size="10.00">is_nothrow_apply_invocable</text>
<text text-anchor="start" x="136.5" y="-200.62" font-family="Helvetica,sans-Serif" font-size="10.00">&lt; TFunc, TTuple, std::make</text>
<text text-anchor="start" x="136.5" y="-187.88" font-family="Helvetica,sans-Serif" font-size="10.00">_index_sequence&lt; std::tuple</text>
<text text-anchor="middle" x="201" y="-175.12" font-family="Helvetica,sans-Serif" font-size="10.00">_size_v&lt; TTuple &gt; &gt; &gt;</text>
</a>
</g>
</g>
<!-- Node0&#45;&gt;Node3 -->
<g id="edge3" class="edge">
<title>Node0&#45;&gt;Node3</title>
<path fill="none" stroke="#63b8ff" d="M73.74,-142.36C89.52,-150.04 109.22,-159.61 128.32,-168.9"/>
<polygon fill="#63b8ff" stroke="#63b8ff" points="75.5,-138.84 64.98,-137.62 72.44,-145.14 75.5,-138.84"/>
</g>
<!-- Node5 -->
<g id="node6" class="node">
<title>Node5</title>
<g id="a_node6"><a xlink:href="dd/d9c/structsl_1_1type__list_1_1equal.html" target="_top" xlink:title=" ">
<polygon fill="white" stroke="#666666" points="274.62,-149.88 127.38,-149.88 127.38,-103.62 274.62,-103.62 274.62,-149.88"/>
<text text-anchor="start" x="135.38" y="-136.38" font-family="Helvetica,sans-Serif" font-size="10.00">sl::type_list::equal</text>
<text text-anchor="start" x="135.38" y="-123.62" font-family="Helvetica,sans-Serif" font-size="10.00">&lt; FirstContainer&lt; Elements...</text>
<text text-anchor="middle" x="201" y="-110.88" font-family="Helvetica,sans-Serif" font-size="10.00"> &gt;, Others... &gt;</text>
</a>
</g>
</g>
<!-- Node0&#45;&gt;Node5 -->
<g id="edge5" class="edge">
<title>Node0&#45;&gt;Node5</title>
<path fill="none" stroke="#63b8ff" d="M92.33,-126.75C103.39,-126.75 115.31,-126.75 127.05,-126.75"/>
<polygon fill="#63b8ff" stroke="#63b8ff" points="92.59,-123.25 82.59,-126.75 92.59,-130.25 92.59,-123.25"/>
</g>
<!-- Node7 -->
<g id="node8" class="node">
<title>Node7</title>
<g id="a_node8"><a xlink:href="dd/d9c/structsl_1_1type__list_1_1equal.html" target="_top" xlink:title=" ">
<polygon fill="white" stroke="#666666" points="284.75,-85.5 117.25,-85.5 117.25,-52 284.75,-52 284.75,-85.5"/>
<text text-anchor="start" x="125.25" y="-72" font-family="Helvetica,sans-Serif" font-size="10.00">sl::type_list::equal</text>
<text text-anchor="middle" x="201" y="-59.25" font-family="Helvetica,sans-Serif" font-size="10.00">&lt; FirstContainer&lt;&gt;, OtherLists... &gt;</text>
</a>
</g>
</g>
<!-- Node0&#45;&gt;Node7 -->
<g id="edge7" class="edge">
<title>Node0&#45;&gt;Node7</title>
<path fill="none" stroke="#63b8ff" d="M75.47,-111.61C88.43,-106.03 103.42,-99.84 117.25,-94.75 125.45,-91.74 134.18,-88.75 142.78,-85.94"/>
<polygon fill="#63b8ff" stroke="#63b8ff" points="74.34,-108.72 66.57,-115.92 77.14,-115.14 74.34,-108.72"/>
</g>
<!-- Node9 -->
<g id="node10" class="node">
<title>Node9</title>
<g id="a_node10"><a xlink:href="dd/d9c/structsl_1_1type__list_1_1equal.html" target="_top" xlink:title="Primary template yields false.">
<polygon fill="white" stroke="#666666" points="248.75,-33.5 153.25,-33.5 153.25,0 248.75,0 248.75,-33.5"/>
<text text-anchor="start" x="161.25" y="-20" font-family="Helvetica,sans-Serif" font-size="10.00">sl::type_list::equal</text>
<text text-anchor="middle" x="201" y="-7.25" font-family="Helvetica,sans-Serif" font-size="10.00">&lt; First, Others &gt;</text>
</a>
</g>
</g>
<!-- Node0&#45;&gt;Node9 -->
<g id="edge9" class="edge">
<title>Node0&#45;&gt;Node9</title>
<path fill="none" stroke="#63b8ff" d="M54.6,-107.06C68.12,-88.02 90.96,-59.64 117.25,-42.75 128.02,-35.83 140.76,-30.64 152.97,-26.79"/>
<polygon fill="#63b8ff" stroke="#63b8ff" points="51.2,-104.83 48.42,-115.06 56.97,-108.8 51.2,-104.83"/>
</g>
<!-- Node2 -->
<g id="node3" class="node">
<title>Node2</title>
<g id="a_node3"><a xlink:href="d5/d44/structsl_1_1tuple_1_1is__apply__invocable.html" target="_top" xlink:title="Trait type determining whether the function is invocable with elements of the given tuple.">
<polygon fill="white" stroke="#666666" points="475.12,-310.5 330.88,-310.5 330.88,-277 475.12,-277 475.12,-310.5"/>
<text text-anchor="start" x="338.88" y="-297" font-family="Helvetica,sans-Serif" font-size="10.00">sl::tuple::is_apply</text>
<text text-anchor="middle" x="403" y="-284.25" font-family="Helvetica,sans-Serif" font-size="10.00">_invocable&lt; TFunc, TTuple &gt;</text>
</a>
</g>
</g>
<!-- Node1&#45;&gt;Node2 -->
<g id="edge2" class="edge">
<title>Node1&#45;&gt;Node2</title>
<path fill="none" stroke="#63b8ff" d="M282.06,-293.75C298.08,-293.75 314.81,-293.75 330.51,-293.75"/>
<polygon fill="#63b8ff" stroke="#63b8ff" points="282.11,-290.25 272.11,-293.75 282.11,-297.25 282.11,-290.25"/>
</g>
<!-- Node4 -->
<g id="node5" class="node">
<title>Node4</title>
<g id="a_node5"><a xlink:href="d6/d11/structsl_1_1tuple_1_1is__nothrow__apply__invocable.html" target="_top" xlink:title="Trait type determining whether the function is invocable with elements of the given tuple without thr...">
<polygon fill="white" stroke="#666666" points="469.12,-226.88 336.88,-226.88 336.88,-180.62 469.12,-180.62 469.12,-226.88"/>
<text text-anchor="start" x="344.88" y="-213.38" font-family="Helvetica,sans-Serif" font-size="10.00">sl::tuple::is_nothrow</text>
<text text-anchor="start" x="344.88" y="-200.62" font-family="Helvetica,sans-Serif" font-size="10.00">_apply_invocable&lt; TFunc,</text>
<text text-anchor="middle" x="403" y="-187.88" font-family="Helvetica,sans-Serif" font-size="10.00"> TTuple &gt;</text>
</a>
</g>
</g>
<!-- Node3&#45;&gt;Node4 -->
<g id="edge4" class="edge">
<title>Node3&#45;&gt;Node4</title>
<path fill="none" stroke="#63b8ff" d="M284.62,-203.75C301.99,-203.75 320.07,-203.75 336.7,-203.75"/>
<polygon fill="#63b8ff" stroke="#63b8ff" points="284.92,-200.25 274.92,-203.75 284.92,-207.25 284.92,-200.25"/>
</g>
<!-- Node6 -->
<g id="node7" class="node">
<title>Node6</title>
<g id="a_node7"><a xlink:href="d5/de5/structsl_1_1type__list_1_1equal_3_01_first_container_3_01_elements_8_8_8_01_4_00_01_second_conta6f0f2b64bdcd65e4b0dceb365a3048ce.html" target="_top" xlink:title="Specialization, determining whether the first two type&#45;lists have equal template arguments.">
<polygon fill="white" stroke="#666666" points="485.25,-159.25 320.75,-159.25 320.75,-100.25 485.25,-100.25 485.25,-159.25"/>
<text text-anchor="start" x="328.75" y="-145.75" font-family="Helvetica,sans-Serif" font-size="10.00">sl::type_list::equal</text>
<text text-anchor="start" x="328.75" y="-133" font-family="Helvetica,sans-Serif" font-size="10.00">&lt; FirstContainer&lt; Elements...</text>
<text text-anchor="start" x="328.75" y="-120.25" font-family="Helvetica,sans-Serif" font-size="10.00"> &gt;, SecondContainer&lt; Elements...</text>
<text text-anchor="middle" x="403" y="-107.5" font-family="Helvetica,sans-Serif" font-size="10.00"> &gt;, Others... &gt;</text>
</a>
</g>
</g>
<!-- Node5&#45;&gt;Node6 -->
<g id="edge6" class="edge">
<title>Node5&#45;&gt;Node6</title>
<path fill="none" stroke="#63b8ff" d="M285.88,-128.01C297.29,-128.18 308.99,-128.35 320.36,-128.53"/>
<polygon fill="#63b8ff" stroke="#63b8ff" points="286.1,-124.5 276.05,-127.85 286,-131.5 286.1,-124.5"/>
</g>
<!-- Node8 -->
<g id="node9" class="node">
<title>Node8</title>
<g id="a_node9"><a xlink:href="de/d8f/structsl_1_1type__list_1_1unordered__equal_3_01_first_container_3_4_00_01_other_lists_8_8_8_01_4.html" target="_top" xlink:title="Root specialization, determining whether all type&#45;lists are empty.">
<polygon fill="white" stroke="#666666" points="462.75,-81.88 343.25,-81.88 343.25,-35.62 462.75,-35.62 462.75,-81.88"/>
<text text-anchor="start" x="351.25" y="-68.38" font-family="Helvetica,sans-Serif" font-size="10.00">sl::type_list::unordered</text>
<text text-anchor="start" x="351.25" y="-55.62" font-family="Helvetica,sans-Serif" font-size="10.00">_equal&lt; FirstContainer</text>
<text text-anchor="middle" x="403" y="-42.88" font-family="Helvetica,sans-Serif" font-size="10.00">&lt;&gt;, OtherLists... &gt;</text>
</a>
</g>
</g>
<!-- Node7&#45;&gt;Node8 -->
<g id="edge8" class="edge">
<title>Node7&#45;&gt;Node8</title>
<path fill="none" stroke="#63b8ff" d="M295.62,-64.07C311.73,-63.26 328.07,-62.45 342.94,-61.7"/>
<polygon fill="#63b8ff" stroke="#63b8ff" points="295.89,-60.6 286.08,-64.6 296.24,-67.59 295.89,-60.6"/>
</g>
</g>
</svg>
