<?xml version="1.0" encoding="UTF-8" standalone="no"?>
<!DOCTYPE svg PUBLIC "-//W3C//DTD SVG 1.1//EN"
 "http://www.w3.org/Graphics/SVG/1.1/DTD/svg11.dtd">
<!-- Generated by graphviz version 7.0.5 (20221223.1930)
 -->
<!-- Title: Graphical Class Hierarchy Pages: 1 -->
<svg width="495pt" height="308pt"
 viewBox="0.00 0.00 495.00 307.50" xmlns="http://www.w3.org/2000/svg" xmlns:xlink="http://www.w3.org/1999/xlink">
<g id="graph0" class="graph" transform="scale(1 1) rotate(0) translate(4 303.5)">
<title>Graphical Class Hierarchy</title>
<!-- Node0 -->
<g id="node1" class="node">
<title>Node0</title>
<g id="a_node1"><a xlink:title=" ">
<polygon fill="#e0e0e0" stroke="#999999" points="82,-126.5 0,-126.5 0,-107.5 82,-107.5 82,-126.5"/>
<text text-anchor="middle" x="41" y="-114.5" font-family="Helvetica,sans-Serif" font-size="10.00">std::false_type</text>
</a>
</g>
</g>
<!-- Node1 -->
<g id="node2" class="node">
<title>Node1</title>
<g id="a_node2"><a xlink:title=" ">
<polygon fill="#e0e0e0" stroke="#999999" points="272,-299.5 132,-299.5 132,-236.5 272,-236.5 272,-299.5"/>
<text text-anchor="start" x="140" y="-287.5" font-family="Helvetica,sans-Serif" font-size="10.00">sl::tuple::detail::</text>
<text text-anchor="start" x="140" y="-276.5" font-family="Helvetica,sans-Serif" font-size="10.00">is_apply_invocable&lt;</text>
<text text-anchor="start" x="140" y="-265.5" font-family="Helvetica,sans-Serif" font-size="10.00"> TFunc, TTuple, std::</text>
<text text-anchor="start" x="140" y="-254.5" font-family="Helvetica,sans-Serif" font-size="10.00">make_index_sequence&lt; std</text>
<text text-anchor="middle" x="202" y="-243.5" font-family="Helvetica,sans-Serif" font-size="10.00">::tuple_size_v&lt; TTuple &gt; &gt; &gt;</text>
</a>
</g>
</g>
<!-- Node0&#45;&gt;Node1 -->
<g id="edge1" class="edge">
<title>Node0&#45;&gt;Node1</title>
<path fill="none" stroke="#63b8ff" d="M51.57,-137.01C63.99,-161.23 87.72,-201.99 118,-228 122.25,-231.65 126.88,-235.05 131.72,-238.2"/>
<polygon fill="#63b8ff" stroke="#63b8ff" points="54.79,-135.63 47.21,-128.23 48.52,-138.74 54.79,-135.63"/>
</g>
<!-- Node3 -->
<g id="node4" class="node">
<title>Node3</title>
<g id="a_node4"><a xlink:title=" ">
<polygon fill="#e0e0e0" stroke="#999999" points="275,-218.5 129,-218.5 129,-155.5 275,-155.5 275,-218.5"/>
<text text-anchor="start" x="137" y="-206.5" font-family="Helvetica,sans-Serif" font-size="10.00">sl::tuple::detail::</text>
<text text-anchor="start" x="137" y="-195.5" font-family="Helvetica,sans-Serif" font-size="10.00">is_nothrow_apply_invocable</text>
<text text-anchor="start" x="137" y="-184.5" font-family="Helvetica,sans-Serif" font-size="10.00">&lt; TFunc, TTuple, std::make</text>
<text text-anchor="start" x="137" y="-173.5" font-family="Helvetica,sans-Serif" font-size="10.00">_index_sequence&lt; std::tuple</text>
<text text-anchor="middle" x="202" y="-162.5" font-family="Helvetica,sans-Serif" font-size="10.00">_size_v&lt; TTuple &gt; &gt; &gt;</text>
</a>
</g>
</g>
<!-- Node0&#45;&gt;Node3 -->
<g id="edge3" class="edge">
<title>Node0&#45;&gt;Node3</title>
<path fill="none" stroke="#63b8ff" d="M74.64,-131.37C90.32,-138.27 109.77,-146.84 128.69,-155.16"/>
<polygon fill="#63b8ff" stroke="#63b8ff" points="76.39,-128.32 65.83,-127.49 73.57,-134.72 76.39,-128.32"/>
</g>
<!-- Node5 -->
<g id="node6" class="node">
<title>Node5</title>
<g id="a_node6"><a xlink:href="dd/d9c/structsl_1_1type__list_1_1equal.html" target="_top" xlink:title=" ">
<polygon fill="white" stroke="#666666" points="276,-137.5 128,-137.5 128,-96.5 276,-96.5 276,-137.5"/>
<text text-anchor="start" x="136" y="-125.5" font-family="Helvetica,sans-Serif" font-size="10.00">sl::type_list::equal</text>
<text text-anchor="start" x="136" y="-114.5" font-family="Helvetica,sans-Serif" font-size="10.00">&lt; FirstContainer&lt; Elements...</text>
<text text-anchor="middle" x="202" y="-103.5" font-family="Helvetica,sans-Serif" font-size="10.00"> &gt;, Others... &gt;</text>
</a>
</g>
</g>
<!-- Node0&#45;&gt;Node5 -->
<g id="edge5" class="edge">
<title>Node0&#45;&gt;Node5</title>
<path fill="none" stroke="#63b8ff" d="M93.6,-117C104.51,-117 116.22,-117 127.76,-117"/>
<polygon fill="#63b8ff" stroke="#63b8ff" points="93.64,-113.5 83.64,-117 93.64,-120.5 93.64,-113.5"/>
</g>
<!-- Node7 -->
<g id="node8" class="node">
<title>Node7</title>
<g id="a_node8"><a xlink:href="dd/d9c/structsl_1_1type__list_1_1equal.html" target="_top" xlink:title=" ">
<polygon fill="white" stroke="#666666" points="286,-78 118,-78 118,-48 286,-48 286,-78"/>
<text text-anchor="start" x="126" y="-66" font-family="Helvetica,sans-Serif" font-size="10.00">sl::type_list::equal</text>
<text text-anchor="middle" x="202" y="-55" font-family="Helvetica,sans-Serif" font-size="10.00">&lt; FirstContainer&lt;&gt;, OtherLists... &gt;</text>
</a>
</g>
</g>
<!-- Node0&#45;&gt;Node7 -->
<g id="edge7" class="edge">
<title>Node0&#45;&gt;Node7</title>
<path fill="none" stroke="#63b8ff" d="M75.83,-102.85C88.9,-97.6 104.05,-91.76 118,-87 126.66,-84.05 135.91,-81.14 144.97,-78.42"/>
<polygon fill="#63b8ff" stroke="#63b8ff" points="74.75,-99.51 66.81,-106.53 77.39,-106 74.75,-99.51"/>
</g>
<!-- Node9 -->
<g id="node10" class="node">
<title>Node9</title>
<g id="a_node10"><a xlink:href="dd/d9c/structsl_1_1type__list_1_1equal.html" target="_top" xlink:title="Primary template yields false.">
<polygon fill="white" stroke="#666666" points="250,-30 154,-30 154,0 250,0 250,-30"/>
<text text-anchor="start" x="162" y="-18" font-family="Helvetica,sans-Serif" font-size="10.00">sl::type_list::equal</text>
<text text-anchor="middle" x="202" y="-7" font-family="Helvetica,sans-Serif" font-size="10.00">&lt; First, Others &gt;</text>
</a>
</g>
</g>
<!-- Node0&#45;&gt;Node9 -->
<g id="edge9" class="edge">
<title>Node0&#45;&gt;Node9</title>
<path fill="none" stroke="#63b8ff" d="M55.68,-98.14C69.5,-80.4 92.41,-54.34 118,-39 128.81,-32.52 141.46,-27.71 153.58,-24.17"/>
<polygon fill="#63b8ff" stroke="#63b8ff" points="53.12,-95.72 49.89,-105.81 58.71,-99.93 53.12,-95.72"/>
</g>
<!-- Node2 -->
<g id="node3" class="node">
<title>Node2</title>
<g id="a_node3"><a xlink:href="d5/d44/structsl_1_1tuple_1_1is__apply__invocable.html" target="_top" xlink:title="Trait type determining whether the function is invocable with elements of the given tuple.">
<polygon fill="white" stroke="#666666" points="477,-283 332,-283 332,-253 477,-253 477,-283"/>
<text text-anchor="start" x="340" y="-271" font-family="Helvetica,sans-Serif" font-size="10.00">sl::tuple::is_apply</text>
<text text-anchor="middle" x="404.5" y="-260" font-family="Helvetica,sans-Serif" font-size="10.00">_invocable&lt; TFunc, TTuple &gt;</text>
</a>
</g>
</g>
<!-- Node1&#45;&gt;Node2 -->
<g id="edge2" class="edge">
<title>Node1&#45;&gt;Node2</title>
<path fill="none" stroke="#63b8ff" d="M283.73,-268C299.64,-268 316.24,-268 331.83,-268"/>
<polygon fill="#63b8ff" stroke="#63b8ff" points="283.8,-264.5 273.8,-268 283.79,-271.5 283.8,-264.5"/>
</g>
<!-- Node4 -->
<g id="node5" class="node">
<title>Node4</title>
<g id="a_node5"><a xlink:href="d6/d11/structsl_1_1tuple_1_1is__nothrow__apply__invocable.html" target="_top" xlink:title="Trait type determining whether the function is invocable with elements of the given tuple without thr...">
<polygon fill="white" stroke="#666666" points="471,-207.5 338,-207.5 338,-166.5 471,-166.5 471,-207.5"/>
<text text-anchor="start" x="346" y="-195.5" font-family="Helvetica,sans-Serif" font-size="10.00">sl::tuple::is_nothrow</text>
<text text-anchor="start" x="346" y="-184.5" font-family="Helvetica,sans-Serif" font-size="10.00">_apply_invocable&lt; TFunc,</text>
<text text-anchor="middle" x="404.5" y="-173.5" font-family="Helvetica,sans-Serif" font-size="10.00"> TTuple &gt;</text>
</a>
</g>
</g>
<!-- Node3&#45;&gt;Node4 -->
<g id="edge4" class="edge">
<title>Node3&#45;&gt;Node4</title>
<path fill="none" stroke="#63b8ff" d="M286.47,-187C303.51,-187 321.22,-187 337.55,-187"/>
<polygon fill="#63b8ff" stroke="#63b8ff" points="286.9,-183.5 276.9,-187 286.9,-190.5 286.9,-183.5"/>
</g>
<!-- Node6 -->
<g id="node7" class="node">
<title>Node6</title>
<g id="a_node7"><a xlink:href="d5/de5/structsl_1_1type__list_1_1equal_3_01_first_container_3_01_elements_8_8_8_01_4_00_01_second_conta6f0f2b64bdcd65e4b0dceb365a3048ce.html" target="_top" xlink:title="Specialization, determining whether the first two type&#45;lists have equal template arguments.">
<polygon fill="white" stroke="#666666" points="487,-146 322,-146 322,-94 487,-94 487,-146"/>
<text text-anchor="start" x="330" y="-134" font-family="Helvetica,sans-Serif" font-size="10.00">sl::type_list::equal</text>
<text text-anchor="start" x="330" y="-123" font-family="Helvetica,sans-Serif" font-size="10.00">&lt; FirstContainer&lt; Elements...</text>
<text text-anchor="start" x="330" y="-112" font-family="Helvetica,sans-Serif" font-size="10.00"> &gt;, SecondContainer&lt; Elements...</text>
<text text-anchor="middle" x="404.5" y="-101" font-family="Helvetica,sans-Serif" font-size="10.00"> &gt;, Others... &gt;</text>
</a>
</g>
</g>
<!-- Node5&#45;&gt;Node6 -->
<g id="edge6" class="edge">
<title>Node5&#45;&gt;Node6</title>
<path fill="none" stroke="#63b8ff" d="M287.45,-118.26C298.77,-118.43 310.37,-118.61 321.65,-118.78"/>
<polygon fill="#63b8ff" stroke="#63b8ff" points="287.8,-114.77 277.75,-118.12 287.7,-121.77 287.8,-114.77"/>
</g>
<!-- Node8 -->
<g id="node9" class="node">
<title>Node8</title>
<g id="a_node9"><a xlink:href="de/d8f/structsl_1_1type__list_1_1unordered__equal_3_01_first_container_3_4_00_01_other_lists_8_8_8_01_4.html" target="_top" xlink:title="Root specialization, determining whether all type&#45;lists are empty.">
<polygon fill="white" stroke="#666666" points="464.5,-75.5 344.5,-75.5 344.5,-34.5 464.5,-34.5 464.5,-75.5"/>
<text text-anchor="start" x="352.5" y="-63.5" font-family="Helvetica,sans-Serif" font-size="10.00">sl::type_list::unordered</text>
<text text-anchor="start" x="352.5" y="-52.5" font-family="Helvetica,sans-Serif" font-size="10.00">_equal&lt; FirstContainer</text>
<text text-anchor="middle" x="404.5" y="-41.5" font-family="Helvetica,sans-Serif" font-size="10.00">&lt;&gt;, OtherLists... &gt;</text>
</a>
</g>
</g>
<!-- Node7&#45;&gt;Node8 -->
<g id="edge8" class="edge">
<title>Node7&#45;&gt;Node8</title>
<path fill="none" stroke="#63b8ff" d="M297.78,-59.22C313.63,-58.59 329.67,-57.95 344.29,-57.36"/>
<polygon fill="#63b8ff" stroke="#63b8ff" points="297.65,-55.72 287.8,-59.62 297.93,-62.71 297.65,-55.72"/>
</g>
</g>
</svg>
