<?xml version="1.0" encoding="UTF-8" standalone="no"?>
<!DOCTYPE svg PUBLIC "-//W3C//DTD SVG 1.1//EN"
 "http://www.w3.org/Graphics/SVG/1.1/DTD/svg11.dtd">
<!-- Generated by graphviz version 8.0.5 (20230430.1635)
 -->
<!-- Title: Graphical Class Hierarchy Pages: 1 -->
<svg width="333pt" height="210pt"
 viewBox="0.00 0.00 333.25 209.88" xmlns="http://www.w3.org/2000/svg" xmlns:xlink="http://www.w3.org/1999/xlink">
<g id="graph0" class="graph" transform="scale(1 1) rotate(0) translate(4 205.88)">
<title>Graphical Class Hierarchy</title>
<!-- Node0 -->
<g id="node1" class="node">
<title>Node0</title>
<g id="a_node1"><a xlink:title=" ">
<polygon fill="#e0e0e0" stroke="#999999" points="115,-117.5 0,-117.5 0,-96.75 115,-96.75 115,-117.5"/>
<text text-anchor="middle" x="57.5" y="-104" font-family="Helvetica,sans-Serif" font-size="10.00">std::integral_constant</text>
</a>
</g>
</g>
<!-- Node1 -->
<g id="node2" class="node">
<title>Node1</title>
<g id="a_node2"><a xlink:href="de/dc0/structsl_1_1type__list_1_1count_3_01_query_00_01_container_3_01_elements_8_8_8_01_4_01_4.html" target="_top" xlink:title="Specialization counting the presence of the query type, due to comparing it with each element of the ...">
<polygon fill="white" stroke="#666666" points="325.25,-201.88 151,-201.88 151,-168.38 325.25,-168.38 325.25,-201.88"/>
<text text-anchor="start" x="159" y="-188.38" font-family="Helvetica,sans-Serif" font-size="10.00">sl::type_list::count</text>
<text text-anchor="middle" x="238.12" y="-175.62" font-family="Helvetica,sans-Serif" font-size="10.00">&lt; Query, Container&lt; Elements... &gt; &gt;</text>
</a>
</g>
</g>
<!-- Node0&#45;&gt;Node1 -->
<g id="edge1" class="edge">
<title>Node0&#45;&gt;Node1</title>
<path fill="none" stroke="#63b8ff" d="M84.28,-123.64C102.42,-134.75 127.55,-149.14 151,-159.12 158.47,-162.31 166.46,-165.27 174.45,-167.97"/>
<polygon fill="#63b8ff" stroke="#63b8ff" points="86.32,-120.17 75.98,-117.86 82.63,-126.11 86.32,-120.17"/>
</g>
<!-- Node2 -->
<g id="node3" class="node">
<title>Node2</title>
<g id="a_node3"><a xlink:href="dd/ded/structsl_1_1type__list_1_1index__of.html" target="_top" xlink:title="Primary template, traversing the elements of the source type&#45;list.">
<polygon fill="white" stroke="#666666" points="285.5,-149.88 190.75,-149.88 190.75,-116.38 285.5,-116.38 285.5,-149.88"/>
<text text-anchor="start" x="198.75" y="-136.38" font-family="Helvetica,sans-Serif" font-size="10.00">sl::type_list::index</text>
<text text-anchor="middle" x="238.12" y="-123.62" font-family="Helvetica,sans-Serif" font-size="10.00">_of&lt; List, Query &gt;</text>
</a>
</g>
</g>
<!-- Node0&#45;&gt;Node2 -->
<g id="edge2" class="edge">
<title>Node0&#45;&gt;Node2</title>
<path fill="none" stroke="#63b8ff" d="M125.73,-116.91C147.22,-120.04 170.53,-123.43 190.25,-126.3"/>
<polygon fill="#63b8ff" stroke="#63b8ff" points="126.42,-113.33 116.02,-115.35 125.41,-120.26 126.42,-113.33"/>
</g>
<!-- Node3 -->
<g id="node4" class="node">
<title>Node3</title>
<g id="a_node4"><a xlink:href="db/dec/structsl_1_1type__list_1_1index__of_3_01_list_00_01front__t_3_01_list_01_4_01_4.html" target="_top" xlink:title="Specialization if the queried type appears at the beginning of the type&#45;list.">
<polygon fill="white" stroke="#666666" points="304.25,-97.88 172,-97.88 172,-64.38 304.25,-64.38 304.25,-97.88"/>
<text text-anchor="start" x="180" y="-84.38" font-family="Helvetica,sans-Serif" font-size="10.00">sl::type_list::index</text>
<text text-anchor="middle" x="238.12" y="-71.62" font-family="Helvetica,sans-Serif" font-size="10.00">_of&lt; List, front_t&lt; List &gt; &gt;</text>
</a>
</g>
</g>
<!-- Node0&#45;&gt;Node3 -->
<g id="edge3" class="edge">
<title>Node0&#45;&gt;Node3</title>
<path fill="none" stroke="#63b8ff" d="M125.77,-97.33C140.78,-95.15 156.68,-92.83 171.63,-90.66"/>
<polygon fill="#63b8ff" stroke="#63b8ff" points="125.41,-93.99 116.02,-98.9 126.42,-100.92 125.41,-93.99"/>
</g>
<!-- Node4 -->
<g id="node5" class="node">
<title>Node4</title>
<g id="a_node5"><a xlink:href="df/dc1/structstd_1_1tuple__size_3_01sl_1_1type__list_1_1_type_list_3_01_types_8_8_8_01_4_01_4.html" target="_top" xlink:title="Specialization of std::tuple_size for TypeList.">
<polygon fill="white" stroke="#666666" points="288.5,-46.25 187.75,-46.25 187.75,0 288.5,0 288.5,-46.25"/>
<text text-anchor="start" x="195.75" y="-32.75" font-family="Helvetica,sans-Serif" font-size="10.00">std::tuple_size&lt; sl</text>
<text text-anchor="start" x="195.75" y="-20" font-family="Helvetica,sans-Serif" font-size="10.00">::type_list::TypeList</text>
<text text-anchor="middle" x="238.12" y="-7.25" font-family="Helvetica,sans-Serif" font-size="10.00">&lt; Types... &gt; &gt;</text>
</a>
</g>
</g>
<!-- Node0&#45;&gt;Node4 -->
<g id="edge4" class="edge">
<title>Node0&#45;&gt;Node4</title>
<path fill="none" stroke="#63b8ff" d="M85.16,-90.67C103.33,-79.82 128.15,-65.71 151,-55.12 162.58,-49.76 175.33,-44.62 187.39,-40.1"/>
<polygon fill="#63b8ff" stroke="#63b8ff" points="83.55,-88.15 76.8,-96.32 87.17,-94.14 83.55,-88.15"/>
</g>
</g>
</svg>
