<?xml version="1.0" encoding="UTF-8" standalone="no"?>
<!DOCTYPE svg PUBLIC "-//W3C//DTD SVG 1.1//EN"
 "http://www.w3.org/Graphics/SVG/1.1/DTD/svg11.dtd">
<!-- Generated by graphviz version 2.43.0 (0)
 -->
<!-- Title: sl::nullables::algorithm_fn&lt; TFunc &gt; Pages: 1 -->
<svg width="1331pt" height="188pt"
 viewBox="0.00 0.00 1331.00 187.99" xmlns="http://www.w3.org/2000/svg" xmlns:xlink="http://www.w3.org/1999/xlink">
<g id="graph0" class="graph" transform="scale(1 1) rotate(0) translate(4 183.99)">
<title>sl::nullables::algorithm_fn&lt; TFunc &gt;</title>
<polygon fill="white" stroke="transparent" points="-4,4 -4,-183.99 1327,-183.99 1327,4 -4,4"/>
<!-- Node1 -->
<g id="node1" class="node">
<title>Node1</title>
<g id="a_node1"><a xlink:title="The core algorithm helper, which executes the held algorithm when used as the right&#45;hand&#45;side of oper...">
<polygon fill="#bfbfbf" stroke="black" points="1195,-108.99 1195,-138.99 1323,-138.99 1323,-108.99 1195,-108.99"/>
<text text-anchor="start" x="1203" y="-126.99" font-family="Helvetica,sans-Serif" font-size="10.00">sl::nullables::algorithm</text>
<text text-anchor="middle" x="1259" y="-115.99" font-family="Helvetica,sans-Serif" font-size="10.00">_fn&lt; TFunc &gt;</text>
</a>
</g>
</g>
<!-- Node2 -->
<g id="node2" class="node">
<title>Node2</title>
<g id="a_node2"><a xlink:href="../../d6/d62/structsl_1_1unified__base.html" target="_top" xlink:title=" ">
<polygon fill="white" stroke="black" points="492,-148.99 492,-178.99 623,-178.99 623,-148.99 492,-148.99"/>
<text text-anchor="start" x="500" y="-166.99" font-family="Helvetica,sans-Serif" font-size="10.00">sl::unified_base&lt; detail</text>
<text text-anchor="middle" x="557.5" y="-155.99" font-family="Helvetica,sans-Serif" font-size="10.00">::algorithm_tag &gt;</text>
</a>
</g>
</g>
<!-- Node2&#45;&gt;Node1 -->
<g id="edge1" class="edge">
<title>Node2&#45;&gt;Node1</title>
<path fill="none" stroke="#8b1a1a" d="M633.52,-164.17C750.14,-163.69 981.82,-159.75 1177,-137.99 1182.82,-137.34 1188.85,-136.55 1194.87,-135.66"/>
<polygon fill="#8b1a1a" stroke="#8b1a1a" points="633.27,-160.67 623.28,-164.2 633.29,-167.67 633.27,-160.67"/>
</g>
<!-- Node3 -->
<g id="node3" class="node">
<title>Node3</title>
<g id="a_node3"><a xlink:href="../../d6/d62/structsl_1_1unified__base.html" target="_top" xlink:title="Helper type, which can be used to create a unified base class for templated derived classes and thus ...">
<polygon fill="white" stroke="black" points="0,-112.49 0,-131.49 137,-131.49 137,-112.49 0,-112.49"/>
<text text-anchor="middle" x="68.5" y="-119.49" font-family="Helvetica,sans-Serif" font-size="10.00">sl::unified_base&lt; TTag &gt;</text>
</a>
</g>
</g>
<!-- Node3&#45;&gt;Node2 -->
<g id="edge2" class="edge">
<title>Node3&#45;&gt;Node2</title>
<path fill="none" stroke="orange" stroke-dasharray="5,2" d="M108.47,-134.37C122.93,-138.46 139.58,-142.58 155,-144.99 272.73,-163.39 412.03,-165.7 491.75,-165.2"/>
<polygon fill="orange" stroke="orange" points="109.42,-131.01 98.84,-131.57 107.46,-137.73 109.42,-131.01"/>
<text text-anchor="start" x="173.5" y="-171.99" font-family="Helvetica,sans-Serif" font-size="10.00"> &lt; detail::algorithm</text>
<text text-anchor="middle" x="221.5" y="-160.99" font-family="Helvetica,sans-Serif" font-size="10.00">_tag &gt;</text>
</g>
<!-- Node5 -->
<g id="node5" class="node">
<title>Node5</title>
<g id="a_node5"><a xlink:href="../../d6/d62/structsl_1_1unified__base.html" target="_top" xlink:title=" ">
<polygon fill="white" stroke="black" points="324.5,-107.99 324.5,-137.99 455.5,-137.99 455.5,-107.99 324.5,-107.99"/>
<text text-anchor="start" x="332.5" y="-125.99" font-family="Helvetica,sans-Serif" font-size="10.00">sl::unified_base&lt; detail</text>
<text text-anchor="middle" x="390" y="-114.99" font-family="Helvetica,sans-Serif" font-size="10.00">::closure_base_tag &gt;</text>
</a>
</g>
</g>
<!-- Node3&#45;&gt;Node5 -->
<g id="edge5" class="edge">
<title>Node3&#45;&gt;Node5</title>
<path fill="none" stroke="orange" stroke-dasharray="5,2" d="M147.52,-122.24C201.78,-122.41 273.26,-122.63 324.34,-122.79"/>
<polygon fill="orange" stroke="orange" points="147.27,-118.74 137.26,-122.21 147.25,-125.74 147.27,-118.74"/>
<text text-anchor="start" x="165.5" y="-135.99" font-family="Helvetica,sans-Serif" font-size="10.00"> &lt; detail::closure_base</text>
<text text-anchor="middle" x="221.5" y="-124.99" font-family="Helvetica,sans-Serif" font-size="10.00">_tag &gt;</text>
</g>
<!-- Node7 -->
<g id="node7" class="node">
<title>Node7</title>
<g id="a_node7"><a xlink:href="../../d6/d62/structsl_1_1unified__base.html" target="_top" xlink:title=" ">
<polygon fill="white" stroke="black" points="306,-58.99 306,-88.99 474,-88.99 474,-58.99 306,-58.99"/>
<text text-anchor="start" x="314" y="-76.99" font-family="Helvetica,sans-Serif" font-size="10.00">sl::unified_base&lt; detail</text>
<text text-anchor="middle" x="390" y="-65.99" font-family="Helvetica,sans-Serif" font-size="10.00">::enable_operators_base_tag &gt;</text>
</a>
</g>
</g>
<!-- Node3&#45;&gt;Node7 -->
<g id="edge8" class="edge">
<title>Node3&#45;&gt;Node7</title>
<path fill="none" stroke="orange" stroke-dasharray="5,2" d="M106.02,-109.12C121.02,-104.29 138.67,-99.21 155,-95.99 204.54,-86.23 260.87,-80.77 305.84,-77.73"/>
<polygon fill="orange" stroke="orange" points="104.5,-105.93 96.1,-112.39 106.7,-112.58 104.5,-105.93"/>
<text text-anchor="start" x="155" y="-109.99" font-family="Helvetica,sans-Serif" font-size="10.00"> &lt; detail::enable_operators</text>
<text text-anchor="middle" x="221.5" y="-98.99" font-family="Helvetica,sans-Serif" font-size="10.00">_base_tag &gt;</text>
</g>
<!-- Node4 -->
<g id="node4" class="node">
<title>Node4</title>
<g id="a_node4"><a xlink:href="../../d9/de4/classsl_1_1functional_1_1closure__base__fn.html" target="_top" xlink:title="Helper type which simply stores functional objects or function pointers.">
<polygon fill="white" stroke="black" points="834.5,-108.99 834.5,-138.99 955.5,-138.99 955.5,-108.99 834.5,-108.99"/>
<text text-anchor="start" x="842.5" y="-126.99" font-family="Helvetica,sans-Serif" font-size="10.00">sl::functional::closure</text>
<text text-anchor="middle" x="895" y="-115.99" font-family="Helvetica,sans-Serif" font-size="10.00">_base_fn&lt; TFunc &gt;</text>
</a>
</g>
</g>
<!-- Node4&#45;&gt;Node1 -->
<g id="edge3" class="edge">
<title>Node4&#45;&gt;Node1</title>
<path fill="none" stroke="midnightblue" d="M966.12,-123.99C1032.38,-123.99 1130.89,-123.99 1194.79,-123.99"/>
<polygon fill="midnightblue" stroke="midnightblue" points="965.78,-120.49 955.78,-123.99 965.78,-127.49 965.78,-120.49"/>
</g>
<!-- Node5&#45;&gt;Node4 -->
<g id="edge4" class="edge">
<title>Node5&#45;&gt;Node4</title>
<path fill="none" stroke="#8b1a1a" d="M465.79,-123.14C566.1,-123.34 742.22,-123.69 834.22,-123.87"/>
<polygon fill="#8b1a1a" stroke="#8b1a1a" points="465.74,-119.64 455.73,-123.12 465.72,-126.64 465.74,-119.64"/>
</g>
<!-- Node6 -->
<g id="node6" class="node">
<title>Node6</title>
<g id="a_node6"><a xlink:href="../../d0/d50/structsl_1_1functional_1_1enable__operation.html" target="_top" xlink:title=" ">
<polygon fill="white" stroke="black" points="979,-14.49 979,-77.49 1158,-77.49 1158,-14.49 979,-14.49"/>
<text text-anchor="start" x="987" y="-65.49" font-family="Helvetica,sans-Serif" font-size="10.00">sl::functional::enable</text>
<text text-anchor="start" x="987" y="-54.49" font-family="Helvetica,sans-Serif" font-size="10.00">_operation&lt; algorithm</text>
<text text-anchor="start" x="987" y="-43.49" font-family="Helvetica,sans-Serif" font-size="10.00">_fn, functional::operators</text>
<text text-anchor="start" x="987" y="-32.49" font-family="Helvetica,sans-Serif" font-size="10.00">::bind_back, functional::operators</text>
<text text-anchor="middle" x="1068.5" y="-21.49" font-family="Helvetica,sans-Serif" font-size="10.00">::bind_front &gt;</text>
</a>
</g>
</g>
<!-- Node6&#45;&gt;Node1 -->
<g id="edge6" class="edge">
<title>Node6&#45;&gt;Node1</title>
<path fill="none" stroke="midnightblue" d="M1154.93,-81.34C1178.41,-91.06 1202.63,-101.08 1221.68,-108.97"/>
<polygon fill="midnightblue" stroke="midnightblue" points="1156.21,-78.08 1145.63,-77.49 1153.53,-84.55 1156.21,-78.08"/>
</g>
<!-- Node7&#45;&gt;Node6 -->
<g id="edge7" class="edge">
<title>Node7&#45;&gt;Node6</title>
<path fill="none" stroke="#8b1a1a" d="M484.48,-80.38C597.74,-86.58 794.13,-92.36 961,-71.99 966.86,-71.28 972.86,-70.35 978.88,-69.28"/>
<polygon fill="#8b1a1a" stroke="#8b1a1a" points="484.63,-76.89 474.45,-79.82 484.24,-83.88 484.63,-76.89"/>
</g>
<!-- Node9 -->
<g id="node9" class="node">
<title>Node9</title>
<g id="a_node9"><a xlink:href="../../d0/d50/structsl_1_1functional_1_1enable__operation.html" target="_top" xlink:title=" ">
<polygon fill="white" stroke="black" points="641,-16.49 641,-57.49 811,-57.49 811,-16.49 641,-16.49"/>
<text text-anchor="start" x="649" y="-45.49" font-family="Helvetica,sans-Serif" font-size="10.00">sl::functional::enable</text>
<text text-anchor="start" x="649" y="-34.49" font-family="Helvetica,sans-Serif" font-size="10.00">_operation&lt; TClosureTemplate,</text>
<text text-anchor="middle" x="726" y="-23.49" font-family="Helvetica,sans-Serif" font-size="10.00"> TOperationTags &gt;</text>
</a>
</g>
</g>
<!-- Node7&#45;&gt;Node9 -->
<g id="edge11" class="edge">
<title>Node7&#45;&gt;Node9</title>
<path fill="none" stroke="#8b1a1a" d="M484.41,-63.64C533.52,-58.2 593.25,-51.59 640.9,-46.31"/>
<polygon fill="#8b1a1a" stroke="#8b1a1a" points="483.97,-60.17 474.42,-64.75 484.75,-67.13 483.97,-60.17"/>
</g>
<!-- Node8 -->
<g id="node8" class="node">
<title>Node8</title>
<g id="a_node8"><a xlink:title=" ">
<polygon fill="white" stroke="#bfbfbf" points="344,-2.49 344,-21.49 436,-21.49 436,-2.49 344,-2.49"/>
<text text-anchor="middle" x="390" y="-9.49" font-family="Helvetica,sans-Serif" font-size="10.00">TOperationTags</text>
</a>
</g>
</g>
<!-- Node8&#45;&gt;Node6 -->
<g id="edge9" class="edge">
<title>Node8&#45;&gt;Node6</title>
<path fill="none" stroke="midnightblue" d="M446.2,-7.57C548.53,-0.54 774.26,9.49 961,-20.99 966.81,-21.94 972.78,-23.03 978.77,-24.2"/>
<polygon fill="midnightblue" stroke="midnightblue" points="445.83,-4.09 436.1,-8.28 446.32,-11.07 445.83,-4.09"/>
</g>
<!-- Node8&#45;&gt;Node9 -->
<g id="edge12" class="edge">
<title>Node8&#45;&gt;Node9</title>
<path fill="none" stroke="midnightblue" d="M446.26,-16.13C499.25,-20.1 579.96,-26.14 640.93,-30.7"/>
<polygon fill="midnightblue" stroke="midnightblue" points="446.28,-12.62 436.04,-15.36 445.76,-19.6 446.28,-12.62"/>
</g>
<!-- Node9&#45;&gt;Node6 -->
<g id="edge10" class="edge">
<title>Node9&#45;&gt;Node6</title>
<path fill="none" stroke="orange" stroke-dasharray="5,2" d="M821.21,-28.38C823.84,-28.23 826.44,-28.11 829,-27.99 887.61,-25.41 902.54,-23.09 961,-27.99 966.79,-28.48 972.74,-29.11 978.73,-29.85"/>
<polygon fill="orange" stroke="orange" points="820.78,-24.9 811.01,-28.99 821.2,-31.88 820.78,-24.9"/>
<text text-anchor="start" x="829" y="-63.99" font-family="Helvetica,sans-Serif" font-size="10.00"> &lt; algorithm_fn, functional</text>
<text text-anchor="start" x="829" y="-52.99" font-family="Helvetica,sans-Serif" font-size="10.00">::operators::bind_back,</text>
<text text-anchor="start" x="829" y="-41.99" font-family="Helvetica,sans-Serif" font-size="10.00"> functional::operators::bind</text>
<text text-anchor="middle" x="895" y="-30.99" font-family="Helvetica,sans-Serif" font-size="10.00">_front &gt;</text>
</g>
</g>
</svg>
