<?xml version="1.0" encoding="UTF-8" standalone="no"?>
<!DOCTYPE svg PUBLIC "-//W3C//DTD SVG 1.1//EN"
 "http://www.w3.org/Graphics/SVG/1.1/DTD/svg11.dtd">
<!-- Generated by graphviz version 8.0.5 (20230430.1635)
 -->
<!-- Title: Simple&#45;Utility/functional/mixins/Pipe.hpp Pages: 1 -->
<svg width="625pt" height="237pt"
 viewBox="0.00 0.00 624.73 237.25" xmlns="http://www.w3.org/2000/svg" xmlns:xlink="http://www.w3.org/1999/xlink">
<g id="graph0" class="graph" transform="scale(1 1) rotate(0) translate(4 233.25)">
<title>Simple&#45;Utility/functional/mixins/Pipe.hpp</title>
<!-- Node1 -->
<g id="node1" class="node">
<title>Node1</title>
<g id="a_node1"><a xlink:title=" ">
<polygon fill="#999999" stroke="#666666" points="214.73,-229.25 87.73,-229.25 87.73,-195.75 214.73,-195.75 214.73,-229.25"/>
<text text-anchor="start" x="95.73" y="-215.75" font-family="Helvetica,sans-Serif" font-size="10.00">Simple&#45;Utility/functional</text>
<text text-anchor="middle" x="151.23" y="-203" font-family="Helvetica,sans-Serif" font-size="10.00">/mixins/Pipe.hpp</text>
</a>
</g>
</g>
<!-- Node2 -->
<g id="node2" class="node">
<title>Node2</title>
<g id="a_node2"><a xlink:href="../../d4/d53/_predicate_8hpp.html" target="_top" xlink:title=" ">
<polygon fill="white" stroke="#666666" points="142.73,-159.75 15.73,-159.75 15.73,-126.25 142.73,-126.25 142.73,-159.75"/>
<text text-anchor="start" x="23.73" y="-146.25" font-family="Helvetica,sans-Serif" font-size="10.00">Simple&#45;Utility/functional</text>
<text text-anchor="middle" x="79.23" y="-133.5" font-family="Helvetica,sans-Serif" font-size="10.00">/Predicate.hpp</text>
</a>
</g>
</g>
<!-- Node1&#45;&gt;Node2 -->
<g id="edge1" class="edge">
<title>Node1&#45;&gt;Node2</title>
<path fill="none" stroke="#63b8ff" d="M126.19,-188.03C116.27,-178.73 105.12,-168.27 96.17,-159.88"/>
<polygon fill="#63b8ff" stroke="#63b8ff" points="123.48,-190.22 133.17,-194.5 128.27,-185.11 123.48,-190.22"/>
</g>
<!-- Node5 -->
<g id="node5" class="node">
<title>Node5</title>
<g id="a_node5"><a xlink:href="../../d9/d8c/_transform_8hpp.html" target="_top" xlink:title=" ">
<polygon fill="white" stroke="#666666" points="306.73,-159.75 179.73,-159.75 179.73,-126.25 306.73,-126.25 306.73,-159.75"/>
<text text-anchor="start" x="187.73" y="-146.25" font-family="Helvetica,sans-Serif" font-size="10.00">Simple&#45;Utility/functional</text>
<text text-anchor="middle" x="243.23" y="-133.5" font-family="Helvetica,sans-Serif" font-size="10.00">/Transform.hpp</text>
</a>
</g>
</g>
<!-- Node1&#45;&gt;Node5 -->
<g id="edge5" class="edge">
<title>Node1&#45;&gt;Node5</title>
<path fill="none" stroke="#63b8ff" d="M181.64,-189.19C194.59,-179.69 209.41,-168.81 221.26,-160.12"/>
<polygon fill="#63b8ff" stroke="#63b8ff" points="180.02,-186.77 174.03,-195.5 184.17,-192.41 180.02,-186.77"/>
</g>
<!-- Node3 -->
<g id="node3" class="node">
<title>Node3</title>
<g id="a_node3"><a xlink:href="../../d2/db4/functional_8hpp.html" target="_top" xlink:title=" ">
<polygon fill="white" stroke="#666666" points="290.85,-20.75 143.6,-20.75 143.6,0 290.85,0 290.85,-20.75"/>
<text text-anchor="middle" x="217.23" y="-7.25" font-family="Helvetica,sans-Serif" font-size="10.00">Simple&#45;Utility/functional.hpp</text>
</a>
</g>
</g>
<!-- Node2&#45;&gt;Node3 -->
<g id="edge2" class="edge">
<title>Node2&#45;&gt;Node3</title>
<path fill="none" stroke="#63b8ff" d="M34.43,-120.18C23.18,-112.39 12.53,-102.45 6.23,-90.25 -0.61,-77.02 -3.13,-68.33 6.23,-56.75 23.42,-35.47 89.63,-23.71 143.36,-17.52"/>
<polygon fill="#63b8ff" stroke="#63b8ff" points="32.19,-123.54 42.51,-125.97 35.96,-117.64 32.19,-123.54"/>
</g>
<!-- Node4 -->
<g id="node4" class="node">
<title>Node4</title>
<g id="a_node4"><a xlink:href="../../d8/d60/_compare_8hpp.html" target="_top" xlink:title=" ">
<polygon fill="white" stroke="#666666" points="142.73,-90.25 15.73,-90.25 15.73,-56.75 142.73,-56.75 142.73,-90.25"/>
<text text-anchor="start" x="23.73" y="-76.75" font-family="Helvetica,sans-Serif" font-size="10.00">Simple&#45;Utility/functional</text>
<text text-anchor="middle" x="79.23" y="-64" font-family="Helvetica,sans-Serif" font-size="10.00">/Compare.hpp</text>
</a>
</g>
</g>
<!-- Node2&#45;&gt;Node4 -->
<g id="edge3" class="edge">
<title>Node2&#45;&gt;Node4</title>
<path fill="none" stroke="#63b8ff" d="M79.23,-115.14C79.23,-106.75 79.23,-97.76 79.23,-90.38"/>
<polygon fill="#63b8ff" stroke="#63b8ff" points="75.73,-115 79.23,-125 82.73,-115 75.73,-115"/>
</g>
<!-- Node4&#45;&gt;Node3 -->
<g id="edge4" class="edge">
<title>Node4&#45;&gt;Node3</title>
<path fill="none" stroke="#63b8ff" d="M125.62,-51.95C149.08,-41.56 176.45,-29.44 195.13,-21.17"/>
<polygon fill="#63b8ff" stroke="#63b8ff" points="124.57,-49.03 116.85,-56.28 127.41,-55.43 124.57,-49.03"/>
</g>
<!-- Node5&#45;&gt;Node3 -->
<g id="edge6" class="edge">
<title>Node5&#45;&gt;Node3</title>
<path fill="none" stroke="#63b8ff" d="M211.41,-118.84C202.91,-110.84 194.81,-101.12 190.23,-90.25 179.95,-65.84 198.16,-36.02 209.39,-21"/>
<polygon fill="#63b8ff" stroke="#63b8ff" points="208.76,-122.04 218.6,-125.97 213.36,-116.76 208.76,-122.04"/>
</g>
<!-- Node5&#45;&gt;Node4 -->
<g id="edge9" class="edge">
<title>Node5&#45;&gt;Node4</title>
<path fill="none" stroke="#63b8ff" d="M193.91,-121.7C169.77,-111.76 141.1,-99.97 118.48,-90.65"/>
<polygon fill="#63b8ff" stroke="#63b8ff" points="192.37,-125.26 202.95,-125.83 195.03,-118.79 192.37,-125.26"/>
</g>
<!-- Node6 -->
<g id="node6" class="node">
<title>Node6</title>
<g id="a_node6"><a xlink:href="../../d3/dc2/_arithmetic_8hpp.html" target="_top" xlink:title=" ">
<polygon fill="white" stroke="#666666" points="326.73,-90.25 199.73,-90.25 199.73,-56.75 326.73,-56.75 326.73,-90.25"/>
<text text-anchor="start" x="207.73" y="-76.75" font-family="Helvetica,sans-Serif" font-size="10.00">Simple&#45;Utility/functional</text>
<text text-anchor="middle" x="263.23" y="-64" font-family="Helvetica,sans-Serif" font-size="10.00">/Arithmetic.hpp</text>
</a>
</g>
</g>
<!-- Node5&#45;&gt;Node6 -->
<g id="edge7" class="edge">
<title>Node5&#45;&gt;Node6</title>
<path fill="none" stroke="#63b8ff" d="M251.02,-115.71C253.55,-107.16 256.29,-97.93 258.52,-90.38"/>
<polygon fill="#63b8ff" stroke="#63b8ff" points="247.45,-114.42 247.97,-125 254.17,-116.41 247.45,-114.42"/>
</g>
<!-- Node7 -->
<g id="node7" class="node">
<title>Node7</title>
<g id="a_node7"><a xlink:href="../../da/dae/functional_2_tuple_8hpp.html" target="_top" xlink:title=" ">
<polygon fill="white" stroke="#666666" points="471.73,-90.25 344.73,-90.25 344.73,-56.75 471.73,-56.75 471.73,-90.25"/>
<text text-anchor="start" x="352.73" y="-76.75" font-family="Helvetica,sans-Serif" font-size="10.00">Simple&#45;Utility/functional</text>
<text text-anchor="middle" x="408.23" y="-64" font-family="Helvetica,sans-Serif" font-size="10.00">/Tuple.hpp</text>
</a>
</g>
</g>
<!-- Node5&#45;&gt;Node7 -->
<g id="edge10" class="edge">
<title>Node5&#45;&gt;Node7</title>
<path fill="none" stroke="#63b8ff" d="M292.85,-121.7C317.14,-111.76 345.98,-99.97 368.74,-90.65"/>
<polygon fill="#63b8ff" stroke="#63b8ff" points="291.68,-118.81 283.75,-125.83 294.33,-125.29 291.68,-118.81"/>
</g>
<!-- Node8 -->
<g id="node8" class="node">
<title>Node8</title>
<g id="a_node8"><a xlink:href="../../de/d61/functional_2_utility_8hpp.html" target="_top" xlink:title=" ">
<polygon fill="white" stroke="#666666" points="616.73,-90.25 489.73,-90.25 489.73,-56.75 616.73,-56.75 616.73,-90.25"/>
<text text-anchor="start" x="497.73" y="-76.75" font-family="Helvetica,sans-Serif" font-size="10.00">Simple&#45;Utility/functional</text>
<text text-anchor="middle" x="553.23" y="-64" font-family="Helvetica,sans-Serif" font-size="10.00">/Utility.hpp</text>
</a>
</g>
</g>
<!-- Node5&#45;&gt;Node8 -->
<g id="edge12" class="edge">
<title>Node5&#45;&gt;Node8</title>
<path fill="none" stroke="#63b8ff" d="M317.81,-125.81C364.72,-115.62 426.52,-102.18 481.23,-90.25 483.86,-89.68 486.53,-89.09 489.24,-88.5"/>
<polygon fill="#63b8ff" stroke="#63b8ff" points="317.16,-122.59 308.13,-128.13 318.64,-129.43 317.16,-122.59"/>
</g>
<!-- Node6&#45;&gt;Node3 -->
<g id="edge8" class="edge">
<title>Node6&#45;&gt;Node3</title>
<path fill="none" stroke="#63b8ff" d="M244.68,-47.85C237.65,-38.51 230.05,-28.42 224.64,-21.22"/>
<polygon fill="#63b8ff" stroke="#63b8ff" points="242.33,-49.55 251.14,-55.44 247.93,-45.35 242.33,-49.55"/>
</g>
<!-- Node7&#45;&gt;Node3 -->
<g id="edge11" class="edge">
<title>Node7&#45;&gt;Node3</title>
<path fill="none" stroke="#63b8ff" d="M347.47,-53.06C314.27,-42.43 274.59,-29.73 247.82,-21.17"/>
<polygon fill="#63b8ff" stroke="#63b8ff" points="345.96,-56.57 356.55,-56.28 348.09,-49.9 345.96,-56.57"/>
</g>
<!-- Node8&#45;&gt;Node3 -->
<g id="edge13" class="edge">
<title>Node8&#45;&gt;Node3</title>
<path fill="none" stroke="#63b8ff" d="M478.89,-56.33C405.22,-42.1 330.43,-29.54 279.25,-21.22"/>
<polygon fill="#63b8ff" stroke="#63b8ff" points="477.79,-59.88 488.27,-58.35 479.12,-53.01 477.79,-59.88"/>
</g>
</g>
</svg>
