<?xml version="1.0" encoding="UTF-8" standalone="no"?>
<!DOCTYPE svg PUBLIC "-//W3C//DTD SVG 1.1//EN"
 "http://www.w3.org/Graphics/SVG/1.1/DTD/svg11.dtd">
<!-- Generated by graphviz version 8.0.5 (20230430.1635)
 -->
<!-- Title: Simple&#45;Utility/functional/mixins/Pipe.hpp Pages: 1 -->
<svg width="642pt" height="237pt"
 viewBox="0.00 0.00 641.60 237.25" xmlns="http://www.w3.org/2000/svg" xmlns:xlink="http://www.w3.org/1999/xlink">
<g id="graph0" class="graph" transform="scale(1 1) rotate(0) translate(4 233.25)">
<title>Simple&#45;Utility/functional/mixins/Pipe.hpp</title>
<!-- Node1 -->
<g id="node1" class="node">
<title>Node1</title>
<g id="a_node1"><a xlink:title=" ">
<polygon fill="#999999" stroke="#666666" points="140.6,-229.25 13.6,-229.25 13.6,-195.75 140.6,-195.75 140.6,-229.25"/>
<text text-anchor="start" x="21.6" y="-215.75" font-family="Helvetica,sans-Serif" font-size="10.00">Simple&#45;Utility/functional</text>
<text text-anchor="middle" x="77.1" y="-203" font-family="Helvetica,sans-Serif" font-size="10.00">/mixins/Pipe.hpp</text>
</a>
</g>
</g>
<!-- Node2 -->
<g id="node2" class="node">
<title>Node2</title>
<g id="a_node2"><a xlink:href="../../d2/db4/functional_8hpp.html" target="_top" xlink:title=" ">
<polygon fill="white" stroke="#666666" points="261.73,-20.75 114.48,-20.75 114.48,0 261.73,0 261.73,-20.75"/>
<text text-anchor="middle" x="188.1" y="-7.25" font-family="Helvetica,sans-Serif" font-size="10.00">Simple&#45;Utility/functional.hpp</text>
</a>
</g>
</g>
<!-- Node1&#45;&gt;Node2 -->
<g id="edge1" class="edge">
<title>Node1&#45;&gt;Node2</title>
<path fill="none" stroke="#63b8ff" d="M32.3,-189.68C21.06,-181.89 10.41,-171.95 4.1,-159.75 -6.66,-138.92 6.99,-64.71 14.1,-56.75 28.46,-40.69 77.9,-28.76 120.43,-21.17"/>
<polygon fill="#63b8ff" stroke="#63b8ff" points="30.07,-193.04 40.38,-195.47 33.83,-187.14 30.07,-193.04"/>
</g>
<!-- Node3 -->
<g id="node3" class="node">
<title>Node3</title>
<g id="a_node3"><a xlink:href="../../d4/d53/_predicate_8hpp.html" target="_top" xlink:title=" ">
<polygon fill="white" stroke="#666666" points="140.6,-159.75 13.6,-159.75 13.6,-126.25 140.6,-126.25 140.6,-159.75"/>
<text text-anchor="start" x="21.6" y="-146.25" font-family="Helvetica,sans-Serif" font-size="10.00">Simple&#45;Utility/functional</text>
<text text-anchor="middle" x="77.1" y="-133.5" font-family="Helvetica,sans-Serif" font-size="10.00">/Predicate.hpp</text>
</a>
</g>
</g>
<!-- Node1&#45;&gt;Node3 -->
<g id="edge2" class="edge">
<title>Node1&#45;&gt;Node3</title>
<path fill="none" stroke="#63b8ff" d="M77.1,-184.64C77.1,-176.25 77.1,-167.26 77.1,-159.88"/>
<polygon fill="#63b8ff" stroke="#63b8ff" points="73.6,-184.5 77.1,-194.5 80.6,-184.5 73.6,-184.5"/>
</g>
<!-- Node5 -->
<g id="node5" class="node">
<title>Node5</title>
<g id="a_node5"><a xlink:href="../../d9/d8c/_transform_8hpp.html" target="_top" xlink:title=" ">
<polygon fill="white" stroke="#666666" points="314.6,-159.75 187.6,-159.75 187.6,-126.25 314.6,-126.25 314.6,-159.75"/>
<text text-anchor="start" x="195.6" y="-146.25" font-family="Helvetica,sans-Serif" font-size="10.00">Simple&#45;Utility/functional</text>
<text text-anchor="middle" x="251.1" y="-133.5" font-family="Helvetica,sans-Serif" font-size="10.00">/Transform.hpp</text>
</a>
</g>
</g>
<!-- Node1&#45;&gt;Node5 -->
<g id="edge6" class="edge">
<title>Node1&#45;&gt;Node5</title>
<path fill="none" stroke="#63b8ff" d="M128.75,-191.47C154.5,-181.47 185.24,-169.55 209.47,-160.15"/>
<polygon fill="#63b8ff" stroke="#63b8ff" points="127.84,-188.45 119.78,-195.33 130.37,-194.98 127.84,-188.45"/>
</g>
<!-- Node3&#45;&gt;Node2 -->
<g id="edge3" class="edge">
<title>Node3&#45;&gt;Node2</title>
<path fill="none" stroke="#63b8ff" d="M46.51,-118.98C26.91,-101.41 7.77,-76.87 23.1,-56.75 35.44,-40.56 81.83,-28.71 122.29,-21.18"/>
<polygon fill="#63b8ff" stroke="#63b8ff" points="43.95,-122.25 53.84,-126.06 48.48,-116.92 43.95,-122.25"/>
</g>
<!-- Node4 -->
<g id="node4" class="node">
<title>Node4</title>
<g id="a_node4"><a xlink:href="../../d8/d60/_compare_8hpp.html" target="_top" xlink:title=" ">
<polygon fill="white" stroke="#666666" points="159.6,-90.25 32.6,-90.25 32.6,-56.75 159.6,-56.75 159.6,-90.25"/>
<text text-anchor="start" x="40.6" y="-76.75" font-family="Helvetica,sans-Serif" font-size="10.00">Simple&#45;Utility/functional</text>
<text text-anchor="middle" x="96.1" y="-64" font-family="Helvetica,sans-Serif" font-size="10.00">/Compare.hpp</text>
</a>
</g>
</g>
<!-- Node3&#45;&gt;Node4 -->
<g id="edge4" class="edge">
<title>Node3&#45;&gt;Node4</title>
<path fill="none" stroke="#63b8ff" d="M84.59,-115.42C86.97,-106.95 89.53,-97.85 91.63,-90.38"/>
<polygon fill="#63b8ff" stroke="#63b8ff" points="80.95,-114.43 81.61,-125 87.69,-116.33 80.95,-114.43"/>
</g>
<!-- Node4&#45;&gt;Node2 -->
<g id="edge5" class="edge">
<title>Node4&#45;&gt;Node2</title>
<path fill="none" stroke="#63b8ff" d="M129.34,-50.42C144.4,-40.41 161.45,-29.08 173.29,-21.22"/>
<polygon fill="#63b8ff" stroke="#63b8ff" points="127.67,-47.99 121.28,-56.44 131.54,-53.82 127.67,-47.99"/>
</g>
<!-- Node5&#45;&gt;Node2 -->
<g id="edge7" class="edge">
<title>Node5&#45;&gt;Node2</title>
<path fill="none" stroke="#63b8ff" d="M226.47,-117.8C219.32,-109.63 212.1,-100.08 207.1,-90.25 195.35,-67.15 190.68,-36.51 188.98,-21.1"/>
<polygon fill="#63b8ff" stroke="#63b8ff" points="223.45,-119.78 232.8,-124.76 228.6,-115.04 223.45,-119.78"/>
</g>
<!-- Node5&#45;&gt;Node4 -->
<g id="edge10" class="edge">
<title>Node5&#45;&gt;Node4</title>
<path fill="none" stroke="#63b8ff" d="M204.18,-121.57C181.43,-111.66 154.49,-99.93 133.2,-90.65"/>
<polygon fill="#63b8ff" stroke="#63b8ff" points="202.41,-125.05 212.98,-125.83 205.21,-118.63 202.41,-125.05"/>
</g>
<!-- Node6 -->
<g id="node6" class="node">
<title>Node6</title>
<g id="a_node6"><a xlink:href="../../d3/dc2/_arithmetic_8hpp.html" target="_top" xlink:title=" ">
<polygon fill="white" stroke="#666666" points="343.6,-90.25 216.6,-90.25 216.6,-56.75 343.6,-56.75 343.6,-90.25"/>
<text text-anchor="start" x="224.6" y="-76.75" font-family="Helvetica,sans-Serif" font-size="10.00">Simple&#45;Utility/functional</text>
<text text-anchor="middle" x="280.1" y="-64" font-family="Helvetica,sans-Serif" font-size="10.00">/Arithmetic.hpp</text>
</a>
</g>
</g>
<!-- Node5&#45;&gt;Node6 -->
<g id="edge8" class="edge">
<title>Node5&#45;&gt;Node6</title>
<path fill="none" stroke="#63b8ff" d="M262.28,-115.99C265.99,-107.36 270,-98.01 273.28,-90.38"/>
<polygon fill="#63b8ff" stroke="#63b8ff" points="258.71,-114.43 257.98,-125 265.14,-117.2 258.71,-114.43"/>
</g>
<!-- Node7 -->
<g id="node7" class="node">
<title>Node7</title>
<g id="a_node7"><a xlink:href="../../da/dae/functional_2_tuple_8hpp.html" target="_top" xlink:title=" ">
<polygon fill="white" stroke="#666666" points="488.6,-90.25 361.6,-90.25 361.6,-56.75 488.6,-56.75 488.6,-90.25"/>
<text text-anchor="start" x="369.6" y="-76.75" font-family="Helvetica,sans-Serif" font-size="10.00">Simple&#45;Utility/functional</text>
<text text-anchor="middle" x="425.1" y="-64" font-family="Helvetica,sans-Serif" font-size="10.00">/Tuple.hpp</text>
</a>
</g>
</g>
<!-- Node5&#45;&gt;Node7 -->
<g id="edge11" class="edge">
<title>Node5&#45;&gt;Node7</title>
<path fill="none" stroke="#63b8ff" d="M302.75,-121.97C328.5,-111.97 359.24,-100.05 383.47,-90.65"/>
<polygon fill="#63b8ff" stroke="#63b8ff" points="301.84,-118.95 293.78,-125.83 304.37,-125.48 301.84,-118.95"/>
</g>
<!-- Node8 -->
<g id="node8" class="node">
<title>Node8</title>
<g id="a_node8"><a xlink:href="../../de/d61/functional_2_utility_8hpp.html" target="_top" xlink:title=" ">
<polygon fill="white" stroke="#666666" points="633.6,-90.25 506.6,-90.25 506.6,-56.75 633.6,-56.75 633.6,-90.25"/>
<text text-anchor="start" x="514.6" y="-76.75" font-family="Helvetica,sans-Serif" font-size="10.00">Simple&#45;Utility/functional</text>
<text text-anchor="middle" x="570.1" y="-64" font-family="Helvetica,sans-Serif" font-size="10.00">/Utility.hpp</text>
</a>
</g>
</g>
<!-- Node5&#45;&gt;Node8 -->
<g id="edge13" class="edge">
<title>Node5&#45;&gt;Node8</title>
<path fill="none" stroke="#63b8ff" d="M325.37,-126.62C374.43,-116.41 440.13,-102.66 498.1,-90.25 500.73,-89.69 503.41,-89.11 506.12,-88.53"/>
<polygon fill="#63b8ff" stroke="#63b8ff" points="324.93,-123.34 315.85,-128.81 326.35,-130.2 324.93,-123.34"/>
</g>
<!-- Node6&#45;&gt;Node2 -->
<g id="edge9" class="edge">
<title>Node6&#45;&gt;Node2</title>
<path fill="none" stroke="#63b8ff" d="M246.87,-50.42C231.81,-40.41 214.76,-29.08 202.92,-21.22"/>
<polygon fill="#63b8ff" stroke="#63b8ff" points="244.67,-53.82 254.93,-56.44 248.54,-47.99 244.67,-53.82"/>
</g>
<!-- Node7&#45;&gt;Node2 -->
<g id="edge12" class="edge">
<title>Node7&#45;&gt;Node2</title>
<path fill="none" stroke="#63b8ff" d="M351.57,-53.54C310.01,-42.82 259.78,-29.86 226.06,-21.17"/>
<polygon fill="#63b8ff" stroke="#63b8ff" points="350.66,-57.17 361.21,-56.28 352.41,-50.39 350.66,-57.17"/>
</g>
<!-- Node8&#45;&gt;Node2 -->
<g id="edge14" class="edge">
<title>Node8&#45;&gt;Node2</title>
<path fill="none" stroke="#63b8ff" d="M495.52,-56.34C410.32,-41.05 322.37,-28.68 261.94,-20.7"/>
<polygon fill="#63b8ff" stroke="#63b8ff" points="494.7,-59.93 505.16,-58.27 495.94,-53.04 494.7,-59.93"/>
</g>
</g>
</svg>
