<?xml version="1.0" encoding="UTF-8" standalone="no"?>
<!DOCTYPE svg PUBLIC "-//W3C//DTD SVG 1.1//EN"
 "http://www.w3.org/Graphics/SVG/1.1/DTD/svg11.dtd">
<!-- Generated by graphviz version 7.0.5 (20221223.1930)
 -->
<!-- Title: Simple&#45;Utility/functional/operators/pipe.hpp Pages: 1 -->
<svg width="1265pt" height="291pt"
 viewBox="0.00 0.00 1265.49 291.00" xmlns="http://www.w3.org/2000/svg" xmlns:xlink="http://www.w3.org/1999/xlink">
<g id="graph0" class="graph" transform="scale(1 1) rotate(0) translate(4 287)">
<title>Simple&#45;Utility/functional/operators/pipe.hpp</title>
<!-- Node1 -->
<g id="node1" class="node">
<title>Node1</title>
<g id="a_node1"><a xlink:title=" ">
<polygon fill="#999999" stroke="#666666" points="187.99,-283 59.99,-283 59.99,-253 187.99,-253 187.99,-283"/>
<text text-anchor="start" x="67.99" y="-271" font-family="Helvetica,sans-Serif" font-size="10.00">Simple&#45;Utility/functional</text>
<text text-anchor="middle" x="123.99" y="-260" font-family="Helvetica,sans-Serif" font-size="10.00">/operators/pipe.hpp</text>
</a>
</g>
</g>
<!-- Node2 -->
<g id="node2" class="node">
<title>Node2</title>
<g id="a_node2"><a xlink:href="../../d2/db4/functional_8hpp.html" target="_top" xlink:title=" ">
<polygon fill="white" stroke="#666666" points="272.99,-19 124.99,-19 124.99,0 272.99,0 272.99,-19"/>
<text text-anchor="middle" x="198.99" y="-7" font-family="Helvetica,sans-Serif" font-size="10.00">Simple&#45;Utility/functional.hpp</text>
</a>
</g>
</g>
<!-- Node1&#45;&gt;Node2 -->
<g id="edge1" class="edge">
<title>Node1&#45;&gt;Node2</title>
<path fill="none" stroke="#63b8ff" d="M49.04,-251.2C31.38,-243.8 14.61,-232.93 3.99,-217 -3.4,-205.91 1.59,-200.12 3.99,-187 15.29,-125.29 8.23,-97.91 53.99,-55 73.59,-36.63 100.58,-25.83 125.98,-19.49"/>
<polygon fill="#63b8ff" stroke="#63b8ff" points="47.5,-254.36 58.1,-254.64 49.99,-247.82 47.5,-254.36"/>
</g>
<!-- Node3 -->
<g id="node3" class="node">
<title>Node3</title>
<g id="a_node3"><a xlink:href="../../d8/dea/negation_8hpp.html" target="_top" xlink:title=" ">
<polygon fill="white" stroke="#666666" points="142.49,-217 13.49,-217 13.49,-187 142.49,-187 142.49,-217"/>
<text text-anchor="start" x="21.49" y="-205" font-family="Helvetica,sans-Serif" font-size="10.00">Simple&#45;Utility/functional</text>
<text text-anchor="middle" x="77.99" y="-194" font-family="Helvetica,sans-Serif" font-size="10.00">/operators/negation.hpp</text>
</a>
</g>
</g>
<!-- Node1&#45;&gt;Node3 -->
<g id="edge2" class="edge">
<title>Node1&#45;&gt;Node3</title>
<path fill="none" stroke="#63b8ff" d="M107.23,-243.68C100.84,-234.79 93.77,-224.95 88.17,-217.16"/>
<polygon fill="#63b8ff" stroke="#63b8ff" points="104.22,-245.49 112.9,-251.57 109.91,-241.4 104.22,-245.49"/>
</g>
<!-- Node4 -->
<g id="node4" class="node">
<title>Node4</title>
<g id="a_node4"><a xlink:href="../../d2/d7e/predicate_8hpp.html" target="_top" xlink:title=" ">
<polygon fill="white" stroke="#666666" points="197.99,-151 69.99,-151 69.99,-121 197.99,-121 197.99,-151"/>
<text text-anchor="start" x="77.99" y="-139" font-family="Helvetica,sans-Serif" font-size="10.00">Simple&#45;Utility/functional</text>
<text text-anchor="middle" x="133.99" y="-128" font-family="Helvetica,sans-Serif" font-size="10.00">/predicate.hpp</text>
</a>
</g>
</g>
<!-- Node1&#45;&gt;Node4 -->
<g id="edge8" class="edge">
<title>Node1&#45;&gt;Node4</title>
<path fill="none" stroke="#63b8ff" d="M139.93,-243.22C144.42,-235.23 148.71,-226.04 150.99,-217 156.77,-194.15 147.91,-167.29 140.96,-151.24"/>
<polygon fill="#63b8ff" stroke="#63b8ff" points="137.03,-241.25 134.84,-251.62 143.02,-244.88 137.03,-241.25"/>
</g>
<!-- Node6 -->
<g id="node6" class="node">
<title>Node6</title>
<g id="a_node6"><a xlink:href="../../d6/deb/transform_8hpp.html" target="_top" xlink:title=" ">
<polygon fill="white" stroke="#666666" points="619.99,-151 491.99,-151 491.99,-121 619.99,-121 619.99,-151"/>
<text text-anchor="start" x="499.99" y="-139" font-family="Helvetica,sans-Serif" font-size="10.00">Simple&#45;Utility/functional</text>
<text text-anchor="middle" x="555.99" y="-128" font-family="Helvetica,sans-Serif" font-size="10.00">/transform.hpp</text>
</a>
</g>
</g>
<!-- Node1&#45;&gt;Node6 -->
<g id="edge9" class="edge">
<title>Node1&#45;&gt;Node6</title>
<path fill="none" stroke="#63b8ff" d="M182.78,-249.31C269.02,-223.36 428.2,-175.46 507.9,-151.47"/>
<polygon fill="#63b8ff" stroke="#63b8ff" points="181.89,-245.92 173.32,-252.15 183.91,-252.62 181.89,-245.92"/>
</g>
<!-- Node3&#45;&gt;Node2 -->
<g id="edge3" class="edge">
<title>Node3&#45;&gt;Node2</title>
<path fill="none" stroke="#63b8ff" d="M67.73,-175.87C56.51,-143.88 43.63,-88.71 71.99,-55 87.48,-36.59 111.07,-25.79 133.73,-19.45"/>
<polygon fill="#63b8ff" stroke="#63b8ff" points="64.4,-176.97 71.18,-185.11 70.96,-174.52 64.4,-176.97"/>
</g>
<!-- Node3&#45;&gt;Node4 -->
<g id="edge4" class="edge">
<title>Node3&#45;&gt;Node4</title>
<path fill="none" stroke="#63b8ff" d="M97.9,-178.24C105.8,-169.21 114.64,-159.11 121.6,-151.16"/>
<polygon fill="#63b8ff" stroke="#63b8ff" points="95.37,-175.83 91.42,-185.66 100.64,-180.44 95.37,-175.83"/>
</g>
<!-- Node4&#45;&gt;Node2 -->
<g id="edge5" class="edge">
<title>Node4&#45;&gt;Node2</title>
<path fill="none" stroke="#63b8ff" d="M103.85,-113.61C84.86,-97.44 66.31,-74.73 79.99,-55 92.75,-36.6 114.1,-25.8 135.22,-19.46"/>
<polygon fill="#63b8ff" stroke="#63b8ff" points="101.61,-116.3 111.6,-119.82 105.99,-110.83 101.61,-116.3"/>
</g>
<!-- Node5 -->
<g id="node5" class="node">
<title>Node5</title>
<g id="a_node5"><a xlink:href="../../dd/d3f/compare_8hpp.html" target="_top" xlink:title=" ">
<polygon fill="white" stroke="#666666" points="216.99,-85 88.99,-85 88.99,-55 216.99,-55 216.99,-85"/>
<text text-anchor="start" x="96.99" y="-73" font-family="Helvetica,sans-Serif" font-size="10.00">Simple&#45;Utility/functional</text>
<text text-anchor="middle" x="152.99" y="-62" font-family="Helvetica,sans-Serif" font-size="10.00">/compare.hpp</text>
</a>
</g>
</g>
<!-- Node4&#45;&gt;Node5 -->
<g id="edge6" class="edge">
<title>Node4&#45;&gt;Node5</title>
<path fill="none" stroke="#63b8ff" d="M141.42,-109.97C143.92,-101.55 146.62,-92.45 148.79,-85.16"/>
<polygon fill="#63b8ff" stroke="#63b8ff" points="138.13,-108.76 138.64,-119.35 144.84,-110.76 138.13,-108.76"/>
</g>
<!-- Node5&#45;&gt;Node2 -->
<g id="edge7" class="edge">
<title>Node5&#45;&gt;Node2</title>
<path fill="none" stroke="#63b8ff" d="M171.36,-45.64C178.69,-36.32 186.68,-26.16 192.17,-19.18"/>
<polygon fill="#63b8ff" stroke="#63b8ff" points="168.73,-43.33 165.3,-53.35 174.23,-47.65 168.73,-43.33"/>
</g>
<!-- Node6&#45;&gt;Node2 -->
<g id="edge10" class="edge">
<title>Node6&#45;&gt;Node2</title>
<path fill="none" stroke="#63b8ff" d="M480.43,-127.86C406.58,-119.86 300.15,-105.29 263.99,-85 235.4,-68.95 213.29,-35.38 203.91,-19.37"/>
<polygon fill="#63b8ff" stroke="#63b8ff" points="479.71,-131.3 490.02,-128.88 480.45,-124.34 479.71,-131.3"/>
</g>
<!-- Node6&#45;&gt;Node5 -->
<g id="edge13" class="edge">
<title>Node6&#45;&gt;Node5</title>
<path fill="none" stroke="#63b8ff" d="M480.68,-123.96C414.75,-114.16 316.43,-99.24 230.99,-85 226.51,-84.25 221.89,-83.47 217.24,-82.66"/>
<polygon fill="#63b8ff" stroke="#63b8ff" points="479.88,-127.38 490.29,-125.38 480.91,-120.45 479.88,-127.38"/>
</g>
<!-- Node7 -->
<g id="node7" class="node">
<title>Node7</title>
<g id="a_node7"><a xlink:href="../../d3/d23/arithmetic_8hpp.html" target="_top" xlink:title=" ">
<polygon fill="white" stroke="#666666" points="400.99,-85 272.99,-85 272.99,-55 400.99,-55 400.99,-85"/>
<text text-anchor="start" x="280.99" y="-73" font-family="Helvetica,sans-Serif" font-size="10.00">Simple&#45;Utility/functional</text>
<text text-anchor="middle" x="336.99" y="-62" font-family="Helvetica,sans-Serif" font-size="10.00">/arithmetic.hpp</text>
</a>
</g>
</g>
<!-- Node6&#45;&gt;Node7 -->
<g id="edge11" class="edge">
<title>Node6&#45;&gt;Node7</title>
<path fill="none" stroke="#63b8ff" d="M495.7,-117.38C461.27,-107.32 418.64,-94.86 386.23,-85.39"/>
<polygon fill="#63b8ff" stroke="#63b8ff" points="494.54,-120.69 505.12,-120.13 496.5,-113.97 494.54,-120.69"/>
</g>
<!-- Node8 -->
<g id="node8" class="node">
<title>Node8</title>
<g id="a_node8"><a xlink:href="../../d9/d5f/functional_2tuple_8hpp.html" target="_top" xlink:title=" ">
<polygon fill="white" stroke="#666666" points="546.99,-85 418.99,-85 418.99,-55 546.99,-55 546.99,-85"/>
<text text-anchor="start" x="426.99" y="-73" font-family="Helvetica,sans-Serif" font-size="10.00">Simple&#45;Utility/functional</text>
<text text-anchor="middle" x="482.99" y="-62" font-family="Helvetica,sans-Serif" font-size="10.00">/tuple.hpp</text>
</a>
</g>
</g>
<!-- Node6&#45;&gt;Node8 -->
<g id="edge14" class="edge">
<title>Node6&#45;&gt;Node8</title>
<path fill="none" stroke="#63b8ff" d="M531.38,-113.42C520.84,-104.18 508.82,-93.65 499.4,-85.39"/>
<polygon fill="#63b8ff" stroke="#63b8ff" points="528.83,-115.84 538.65,-119.8 533.44,-110.57 528.83,-115.84"/>
</g>
<!-- Node9 -->
<g id="node9" class="node">
<title>Node9</title>
<g id="a_node9"><a xlink:href="../../df/d4e/functional_2utility_8hpp.html" target="_top" xlink:title=" ">
<polygon fill="white" stroke="#666666" points="692.99,-85 564.99,-85 564.99,-55 692.99,-55 692.99,-85"/>
<text text-anchor="start" x="572.99" y="-73" font-family="Helvetica,sans-Serif" font-size="10.00">Simple&#45;Utility/functional</text>
<text text-anchor="middle" x="628.99" y="-62" font-family="Helvetica,sans-Serif" font-size="10.00">/utility.hpp</text>
</a>
</g>
</g>
<!-- Node6&#45;&gt;Node9 -->
<g id="edge16" class="edge">
<title>Node6&#45;&gt;Node9</title>
<path fill="none" stroke="#63b8ff" d="M580.6,-113.42C591.14,-104.18 603.16,-93.65 612.58,-85.39"/>
<polygon fill="#63b8ff" stroke="#63b8ff" points="578.54,-110.57 573.33,-119.8 583.16,-115.84 578.54,-110.57"/>
</g>
<!-- Node10 -->
<g id="node10" class="node">
<title>Node10</title>
<g id="a_node10"><a xlink:href="../../d4/dc9/and__then_8hpp.html" target="_top" xlink:title=" ">
<polygon fill="white" stroke="#666666" points="834.49,-85 711.49,-85 711.49,-55 834.49,-55 834.49,-85"/>
<text text-anchor="start" x="719.49" y="-73" font-family="Helvetica,sans-Serif" font-size="10.00">Simple&#45;Utility/nullables</text>
<text text-anchor="middle" x="772.99" y="-62" font-family="Helvetica,sans-Serif" font-size="10.00">/and_then.hpp</text>
</a>
</g>
</g>
<!-- Node6&#45;&gt;Node10 -->
<g id="edge18" class="edge">
<title>Node6&#45;&gt;Node10</title>
<path fill="none" stroke="#63b8ff" d="M615.73,-117.38C649.85,-107.32 692.09,-94.86 724.2,-85.39"/>
<polygon fill="#63b8ff" stroke="#63b8ff" points="615.01,-113.94 606.41,-120.13 617,-120.66 615.01,-113.94"/>
</g>
<!-- Node12 -->
<g id="node12" class="node">
<title>Node12</title>
<g id="a_node12"><a xlink:href="../../d7/d5f/fwd__value_8hpp.html" target="_top" xlink:title=" ">
<polygon fill="white" stroke="#666666" points="975.49,-85 852.49,-85 852.49,-55 975.49,-55 975.49,-85"/>
<text text-anchor="start" x="860.49" y="-73" font-family="Helvetica,sans-Serif" font-size="10.00">Simple&#45;Utility/nullables</text>
<text text-anchor="middle" x="913.99" y="-62" font-family="Helvetica,sans-Serif" font-size="10.00">/fwd_value.hpp</text>
</a>
</g>
</g>
<!-- Node6&#45;&gt;Node12 -->
<g id="edge20" class="edge">
<title>Node6&#45;&gt;Node12</title>
<path fill="none" stroke="#63b8ff" d="M631.71,-122.4C689.85,-112.59 772.09,-98.43 843.99,-85 846.67,-84.5 849.41,-83.98 852.17,-83.45"/>
<polygon fill="#63b8ff" stroke="#63b8ff" points="631.19,-118.93 621.91,-124.05 632.35,-125.84 631.19,-118.93"/>
</g>
<!-- Node13 -->
<g id="node13" class="node">
<title>Node13</title>
<g id="a_node13"><a xlink:href="../../d2/d0e/or__else_8hpp.html" target="_top" xlink:title=" ">
<polygon fill="white" stroke="#666666" points="1116.49,-85 993.49,-85 993.49,-55 1116.49,-55 1116.49,-85"/>
<text text-anchor="start" x="1001.49" y="-73" font-family="Helvetica,sans-Serif" font-size="10.00">Simple&#45;Utility/nullables</text>
<text text-anchor="middle" x="1054.99" y="-62" font-family="Helvetica,sans-Serif" font-size="10.00">/or_else.hpp</text>
</a>
</g>
</g>
<!-- Node6&#45;&gt;Node13 -->
<g id="edge22" class="edge">
<title>Node6&#45;&gt;Node13</title>
<path fill="none" stroke="#63b8ff" d="M631.38,-128.09C717.26,-119.78 861.66,-104.49 984.99,-85 987.69,-84.57 990.43,-84.12 993.2,-83.64"/>
<polygon fill="#63b8ff" stroke="#63b8ff" points="631.3,-124.58 621.68,-129.02 631.97,-131.55 631.3,-124.58"/>
</g>
<!-- Node14 -->
<g id="node14" class="node">
<title>Node14</title>
<g id="a_node14"><a xlink:href="../../d0/d48/value__or_8hpp.html" target="_top" xlink:title=" ">
<polygon fill="white" stroke="#666666" points="1257.49,-85 1134.49,-85 1134.49,-55 1257.49,-55 1257.49,-85"/>
<text text-anchor="start" x="1142.49" y="-73" font-family="Helvetica,sans-Serif" font-size="10.00">Simple&#45;Utility/nullables</text>
<text text-anchor="middle" x="1195.99" y="-62" font-family="Helvetica,sans-Serif" font-size="10.00">/value_or.hpp</text>
</a>
</g>
</g>
<!-- Node6&#45;&gt;Node14 -->
<g id="edge24" class="edge">
<title>Node6&#45;&gt;Node14</title>
<path fill="none" stroke="#63b8ff" d="M631.61,-131.02C741.06,-124.66 949.82,-110.27 1125.99,-85 1128.69,-84.61 1131.44,-84.19 1134.22,-83.74"/>
<polygon fill="#63b8ff" stroke="#63b8ff" points="631.66,-127.51 621.88,-131.58 632.06,-134.5 631.66,-127.51"/>
</g>
<!-- Node7&#45;&gt;Node2 -->
<g id="edge12" class="edge">
<title>Node7&#45;&gt;Node2</title>
<path fill="none" stroke="#63b8ff" d="M292.42,-50.1C268.05,-39.78 239.02,-27.47 219.86,-19.35"/>
<polygon fill="#63b8ff" stroke="#63b8ff" points="290.91,-53.27 301.49,-53.95 293.65,-46.82 290.91,-53.27"/>
</g>
<!-- Node8&#45;&gt;Node2 -->
<g id="edge15" class="edge">
<title>Node8&#45;&gt;Node2</title>
<path fill="none" stroke="#63b8ff" d="M407.55,-53.46C354.83,-42.6 286.28,-28.48 242.45,-19.45"/>
<polygon fill="#63b8ff" stroke="#63b8ff" points="406.57,-56.83 417.07,-55.42 407.98,-49.97 406.57,-56.83"/>
</g>
<!-- Node9&#45;&gt;Node2 -->
<g id="edge17" class="edge">
<title>Node9&#45;&gt;Node2</title>
<path fill="none" stroke="#63b8ff" d="M553.36,-54.65C450.78,-38.69 343.19,-26.02 273.38,-18.34"/>
<polygon fill="#63b8ff" stroke="#63b8ff" points="552.63,-58.07 563.05,-56.17 553.71,-51.16 552.63,-58.07"/>
</g>
<!-- Node11 -->
<g id="node11" class="node">
<title>Node11</title>
<g id="a_node11"><a xlink:href="../../d3/ddc/nullables_8hpp.html" target="_top" xlink:title=" ">
<polygon fill="white" stroke="#666666" points="1055.49,-19 912.49,-19 912.49,0 1055.49,0 1055.49,-19"/>
<text text-anchor="middle" x="983.99" y="-7" font-family="Helvetica,sans-Serif" font-size="10.00">Simple&#45;Utility/nullables.hpp</text>
</a>
</g>
</g>
<!-- Node10&#45;&gt;Node11 -->
<g id="edge19" class="edge">
<title>Node10&#45;&gt;Node11</title>
<path fill="none" stroke="#63b8ff" d="M836.15,-51.49C874.23,-40.93 921.15,-27.92 951.78,-19.43"/>
<polygon fill="#63b8ff" stroke="#63b8ff" points="835.31,-48.09 826.61,-54.13 837.18,-54.84 835.31,-48.09"/>
</g>
<!-- Node12&#45;&gt;Node11 -->
<g id="edge21" class="edge">
<title>Node12&#45;&gt;Node11</title>
<path fill="none" stroke="#63b8ff" d="M939.86,-47.38C951.57,-37.6 964.73,-26.6 973.61,-19.18"/>
<polygon fill="#63b8ff" stroke="#63b8ff" points="937.89,-44.47 932.46,-53.57 942.37,-49.84 937.89,-44.47"/>
</g>
<!-- Node13&#45;&gt;Node11 -->
<g id="edge23" class="edge">
<title>Node13&#45;&gt;Node11</title>
<path fill="none" stroke="#63b8ff" d="M1028.75,-47.38C1016.88,-37.6 1003.53,-26.6 994.52,-19.18"/>
<polygon fill="#63b8ff" stroke="#63b8ff" points="1026.33,-49.92 1036.27,-53.58 1030.78,-44.52 1026.33,-49.92"/>
</g>
<!-- Node14&#45;&gt;Node11 -->
<g id="edge25" class="edge">
<title>Node14&#45;&gt;Node11</title>
<path fill="none" stroke="#63b8ff" d="M1132.54,-51.49C1094.27,-40.93 1047.14,-27.92 1016.36,-19.43"/>
<polygon fill="#63b8ff" stroke="#63b8ff" points="1131.56,-54.85 1142.13,-54.14 1133.42,-48.1 1131.56,-54.85"/>
</g>
</g>
</svg>
