<?xml version="1.0" encoding="UTF-8" standalone="no"?>
<!DOCTYPE svg PUBLIC "-//W3C//DTD SVG 1.1//EN"
 "http://www.w3.org/Graphics/SVG/1.1/DTD/svg11.dtd">
<!-- Generated by graphviz version 8.0.5 (20230430.1635)
 -->
<!-- Title: Simple&#45;Utility/functional/operators/pipe.hpp Pages: 1 -->
<!--zoomable 307 -->
<svg id="main" version="1.1" xmlns="http://www.w3.org/2000/svg" xmlns:xlink="http://www.w3.org/1999/xlink" xml:space="preserve" onload="init(evt)">
<style type="text/css"><![CDATA[
.edge:hover path { stroke: red; }
.edge:hover polygon { stroke: red; fill: red; }
]]></style>
<script type="text/javascript"><![CDATA[
var edges = document.getElementsByTagName('g');
if (edges && edges.length) {
  for (var i=0;i<edges.length;i++) {
    if (edges[i].id.substr(0,4)=='edge') {
      edges[i].setAttribute('class','edge');
    }
  }
}
]]></script>
        <defs>
                <circle id="rim" cx="0" cy="0" r="7"/>
                <circle id="rim2" cx="0" cy="0" r="3.5"/>
                <g id="zoomPlus">
                        <use xlink:href="#rim" fill="#404040">
                                <set attributeName="fill" to="#808080" begin="zoomplus.mouseover" end="zoomplus.mouseout"/>
                        </use>
                        <path d="M-4,0h8M0,-4v8" fill="none" stroke="white" stroke-width="1.5" pointer-events="none"/>
                </g>
                <g id="zoomMin">
                        <use xlink:href="#rim" fill="#404040">
                                <set attributeName="fill" to="#808080" begin="zoomminus.mouseover" end="zoomminus.mouseout"/>
                        </use>
                        <path d="M-4,0h8" fill="none" stroke="white" stroke-width="1.5" pointer-events="none"/>
                </g>
                <g id="dirArrow">
                        <path fill="none" stroke="white" stroke-width="1.5" d="M0,-3.0v7 M-2.5,-0.5L0,-3.0L2.5,-0.5"/>
                </g>
               <g id="resetDef">
                       <use xlink:href="#rim2" fill="#404040">
                               <set attributeName="fill" to="#808080" begin="reset.mouseover" end="reset.mouseout"/>
                       </use>
               </g>
        </defs>

<script type="text/javascript">
var viewWidth = 1263;
var viewHeight = 307;
var sectionId = 'dynsection-1';
</script>
<script xlink:href="../../svgpan.js"/>
<svg id="graph" class="graph">
<g id="viewport">
<title>Simple&#45;Utility/functional/operators/pipe.hpp</title>
<!-- Node1 -->
<g id="node1" class="node">
<title>Node1</title>
<g id="a_node1"><a xlink:title=" ">
<polygon fill="#999999" stroke="#666666" points="186.88,-298.75 59.88,-298.75 59.88,-265.25 186.88,-265.25 186.88,-298.75"/>
<text text-anchor="start" x="67.88" y="-285.25" font-family="Helvetica,sans-Serif" font-size="10.00">Simple&#45;Utility/functional</text>
<text text-anchor="middle" x="123.38" y="-272.5" font-family="Helvetica,sans-Serif" font-size="10.00">/operators/pipe.hpp</text>
</a>
</g>
</g>
<!-- Node2 -->
<g id="node2" class="node">
<title>Node2</title>
<g id="a_node2"><a xlink:href="../../d2/db4/functional_8hpp.html" target="_top" xlink:title=" ">
<polygon fill="white" stroke="#666666" points="273,-20.75 125.75,-20.75 125.75,0 273,0 273,-20.75"/>
<text text-anchor="middle" x="199.38" y="-7.25" font-family="Helvetica,sans-Serif" font-size="10.00">Simple&#45;Utility/functional.hpp</text>
</a>
</g>
</g>
<!-- Node1&#45;&gt;Node2 -->
<g id="edge1" class="edge">
<title>Node1&#45;&gt;Node2</title>
<path fill="none" stroke="#63b8ff" d="M49.73,-264.3C31.94,-256.63 15.01,-245.46 4.38,-229.25 -3.79,-216.8 1.86,-210.43 4.38,-195.75 15.42,-131.18 6.2,-102.19 53.38,-56.75 72.88,-37.97 100.02,-26.95 125.61,-20.49"/>
<polygon fill="#63b8ff" stroke="#63b8ff" points="48.09,-267.81 58.67,-268.21 50.65,-261.29 48.09,-267.81"/>
</g>
<!-- Node3 -->
<g id="node3" class="node">
<title>Node3</title>
<g id="a_node3"><a xlink:href="../../d8/dea/negation_8hpp.html" target="_top" xlink:title=" ">
<polygon fill="white" stroke="#666666" points="141.63,-229.25 13.13,-229.25 13.13,-195.75 141.63,-195.75 141.63,-229.25"/>
<text text-anchor="start" x="21.13" y="-215.75" font-family="Helvetica,sans-Serif" font-size="10.00">Simple&#45;Utility/functional</text>
<text text-anchor="middle" x="77.38" y="-203" font-family="Helvetica,sans-Serif" font-size="10.00">/operators/negation.hpp</text>
</a>
</g>
</g>
<!-- Node1&#45;&gt;Node3 -->
<g id="edge2" class="edge">
<title>Node1&#45;&gt;Node3</title>
<path fill="none" stroke="#63b8ff" d="M106.42,-256.13C100.33,-247.19 93.63,-237.35 88.2,-229.38"/>
<polygon fill="#63b8ff" stroke="#63b8ff" points="103.95,-257.71 112.47,-264 109.74,-253.77 103.95,-257.71"/>
</g>
<!-- Node4 -->
<g id="node4" class="node">
<title>Node4</title>
<g id="a_node4"><a xlink:href="../../d2/d7e/predicate_8hpp.html" target="_top" xlink:title=" ">
<polygon fill="white" stroke="#666666" points="197.88,-159.75 70.88,-159.75 70.88,-126.25 197.88,-126.25 197.88,-159.75"/>
<text text-anchor="start" x="78.88" y="-146.25" font-family="Helvetica,sans-Serif" font-size="10.00">Simple&#45;Utility/functional</text>
<text text-anchor="middle" x="134.38" y="-133.5" font-family="Helvetica,sans-Serif" font-size="10.00">/predicate.hpp</text>
</a>
</g>
</g>
<!-- Node1&#45;&gt;Node4 -->
<g id="edge8" class="edge">
<title>Node1&#45;&gt;Node4</title>
<path fill="none" stroke="#63b8ff" d="M139.63,-255.76C144.01,-247.62 148.15,-238.35 150.38,-229.25 156.22,-205.41 148.14,-177.37 141.49,-160.14"/>
<polygon fill="#63b8ff" stroke="#63b8ff" points="136.24,-253.62 134.28,-264.03 142.31,-257.12 136.24,-253.62"/>
</g>
<!-- Node6 -->
<g id="node6" class="node">
<title>Node6</title>
<g id="a_node6"><a xlink:href="../../d6/deb/transform_8hpp.html" target="_top" xlink:title=" ">
<polygon fill="white" stroke="#666666" points="617.88,-159.75 490.88,-159.75 490.88,-126.25 617.88,-126.25 617.88,-159.75"/>
<text text-anchor="start" x="498.88" y="-146.25" font-family="Helvetica,sans-Serif" font-size="10.00">Simple&#45;Utility/functional</text>
<text text-anchor="middle" x="554.38" y="-133.5" font-family="Helvetica,sans-Serif" font-size="10.00">/transform.hpp</text>
</a>
</g>
</g>
<!-- Node1&#45;&gt;Node6 -->
<g id="edge9" class="edge">
<title>Node1&#45;&gt;Node6</title>
<path fill="none" stroke="#63b8ff" d="M184.42,-261.6C269.94,-234.41 423.87,-185.48 503.53,-160.16"/>
<polygon fill="#63b8ff" stroke="#63b8ff" points="183.55,-258.52 175.08,-264.88 185.67,-265.19 183.55,-258.52"/>
</g>
<!-- Node3&#45;&gt;Node2 -->
<g id="edge3" class="edge">
<title>Node3&#45;&gt;Node2</title>
<path fill="none" stroke="#63b8ff" d="M66.83,-185.27C55.17,-151.52 41.7,-92.97 71.38,-56.75 86.25,-38.61 108.89,-27.71 131.03,-21.17"/>
<polygon fill="#63b8ff" stroke="#63b8ff" points="63.77,-186.1 70.49,-194.29 70.34,-183.7 63.77,-186.1"/>
</g>
<!-- Node3&#45;&gt;Node4 -->
<g id="edge4" class="edge">
<title>Node3&#45;&gt;Node4</title>
<path fill="none" stroke="#63b8ff" d="M97.9,-187.19C105.58,-178.1 114.09,-168.02 120.96,-159.88"/>
<polygon fill="#63b8ff" stroke="#63b8ff" points="94.66,-184.6 90.88,-194.5 100.01,-189.12 94.66,-184.6"/>
</g>
<!-- Node4&#45;&gt;Node2 -->
<g id="edge5" class="edge">
<title>Node4&#45;&gt;Node2</title>
<path fill="none" stroke="#63b8ff" d="M103.99,-119.07C84.81,-101.73 66.11,-77.45 80.38,-56.75 92.86,-38.63 113.61,-27.74 134.33,-21.2"/>
<polygon fill="#63b8ff" stroke="#63b8ff" points="101.28,-122.21 111.15,-126.05 105.83,-116.89 101.28,-122.21"/>
</g>
<!-- Node5 -->
<g id="node5" class="node">
<title>Node5</title>
<g id="a_node5"><a xlink:href="../../dd/d3f/compare_8hpp.html" target="_top" xlink:title=" ">
<polygon fill="white" stroke="#666666" points="216.88,-90.25 89.88,-90.25 89.88,-56.75 216.88,-56.75 216.88,-90.25"/>
<text text-anchor="start" x="97.88" y="-76.75" font-family="Helvetica,sans-Serif" font-size="10.00">Simple&#45;Utility/functional</text>
<text text-anchor="middle" x="153.38" y="-64" font-family="Helvetica,sans-Serif" font-size="10.00">/compare.hpp</text>
</a>
</g>
</g>
<!-- Node4&#45;&gt;Node5 -->
<g id="edge6" class="edge">
<title>Node4&#45;&gt;Node5</title>
<path fill="none" stroke="#63b8ff" d="M141.86,-115.42C144.24,-106.95 146.8,-97.85 148.91,-90.38"/>
<polygon fill="#63b8ff" stroke="#63b8ff" points="138.22,-114.43 138.88,-125 144.96,-116.33 138.22,-114.43"/>
</g>
<!-- Node5&#45;&gt;Node2 -->
<g id="edge7" class="edge">
<title>Node5&#45;&gt;Node2</title>
<path fill="none" stroke="#63b8ff" d="M171.93,-47.85C178.95,-38.51 186.55,-28.42 191.97,-21.22"/>
<polygon fill="#63b8ff" stroke="#63b8ff" points="168.68,-45.35 165.46,-55.44 174.27,-49.55 168.68,-45.35"/>
</g>
<!-- Node6&#45;&gt;Node2 -->
<g id="edge10" class="edge">
<title>Node6&#45;&gt;Node2</title>
<path fill="none" stroke="#63b8ff" d="M479.97,-134.62C406.5,-126.29 300.09,-111.13 264.38,-90.25 235.27,-73.23 213.56,-38.03 204.31,-21.01"/>
<polygon fill="#63b8ff" stroke="#63b8ff" points="479.24,-138.17 489.56,-135.8 480.01,-131.21 479.24,-138.17"/>
</g>
<!-- Node6&#45;&gt;Node5 -->
<g id="edge13" class="edge">
<title>Node6&#45;&gt;Node5</title>
<path fill="none" stroke="#63b8ff" d="M479.87,-130.94C414.31,-120.99 316.34,-105.63 231.38,-90.25 226.75,-89.41 221.98,-88.52 217.19,-87.6"/>
<polygon fill="#63b8ff" stroke="#63b8ff" points="479.1,-134.51 489.51,-132.55 480.14,-127.59 479.1,-134.51"/>
</g>
<!-- Node7 -->
<g id="node7" class="node">
<title>Node7</title>
<g id="a_node7"><a xlink:href="../../d3/d23/arithmetic_8hpp.html" target="_top" xlink:title=" ">
<polygon fill="white" stroke="#666666" points="400.88,-90.25 273.88,-90.25 273.88,-56.75 400.88,-56.75 400.88,-90.25"/>
<text text-anchor="start" x="281.88" y="-76.75" font-family="Helvetica,sans-Serif" font-size="10.00">Simple&#45;Utility/functional</text>
<text text-anchor="middle" x="337.38" y="-64" font-family="Helvetica,sans-Serif" font-size="10.00">/arithmetic.hpp</text>
</a>
</g>
</g>
<!-- Node6&#45;&gt;Node7 -->
<g id="edge11" class="edge">
<title>Node6&#45;&gt;Node7</title>
<path fill="none" stroke="#63b8ff" d="M492.09,-122.63C459.55,-112.5 420.18,-100.26 389.3,-90.65"/>
<polygon fill="#63b8ff" stroke="#63b8ff" points="490.81,-126.2 501.4,-125.83 492.89,-119.52 490.81,-126.2"/>
</g>
<!-- Node8 -->
<g id="node8" class="node">
<title>Node8</title>
<g id="a_node8"><a xlink:href="../../d9/d5f/functional_2tuple_8hpp.html" target="_top" xlink:title=" ">
<polygon fill="white" stroke="#666666" points="545.88,-90.25 418.88,-90.25 418.88,-56.75 545.88,-56.75 545.88,-90.25"/>
<text text-anchor="start" x="426.88" y="-76.75" font-family="Helvetica,sans-Serif" font-size="10.00">Simple&#45;Utility/functional</text>
<text text-anchor="middle" x="482.38" y="-64" font-family="Helvetica,sans-Serif" font-size="10.00">/tuple.hpp</text>
</a>
</g>
</g>
<!-- Node6&#45;&gt;Node8 -->
<g id="edge14" class="edge">
<title>Node6&#45;&gt;Node8</title>
<path fill="none" stroke="#63b8ff" d="M529.34,-118.53C519.42,-109.23 508.26,-98.77 499.32,-90.38"/>
<polygon fill="#63b8ff" stroke="#63b8ff" points="526.62,-120.72 536.31,-125 531.41,-115.61 526.62,-120.72"/>
</g>
<!-- Node9 -->
<g id="node9" class="node">
<title>Node9</title>
<g id="a_node9"><a xlink:href="../../df/d4e/functional_2utility_8hpp.html" target="_top" xlink:title=" ">
<polygon fill="white" stroke="#666666" points="690.88,-90.25 563.88,-90.25 563.88,-56.75 690.88,-56.75 690.88,-90.25"/>
<text text-anchor="start" x="571.88" y="-76.75" font-family="Helvetica,sans-Serif" font-size="10.00">Simple&#45;Utility/functional</text>
<text text-anchor="middle" x="627.38" y="-64" font-family="Helvetica,sans-Serif" font-size="10.00">/utility.hpp</text>
</a>
</g>
</g>
<!-- Node6&#45;&gt;Node9 -->
<g id="edge16" class="edge">
<title>Node6&#45;&gt;Node9</title>
<path fill="none" stroke="#63b8ff" d="M579.7,-118.59C589.68,-109.35 600.9,-98.98 609.95,-90.62"/>
<polygon fill="#63b8ff" stroke="#63b8ff" points="577.64,-115.64 572.68,-125 582.39,-120.78 577.64,-115.64"/>
</g>
<!-- Node10 -->
<g id="node10" class="node">
<title>Node10</title>
<g id="a_node10"><a xlink:href="../../d4/dc9/and__then_8hpp.html" target="_top" xlink:title=" ">
<polygon fill="white" stroke="#666666" points="831.63,-90.25 709.13,-90.25 709.13,-56.75 831.63,-56.75 831.63,-90.25"/>
<text text-anchor="start" x="717.13" y="-76.75" font-family="Helvetica,sans-Serif" font-size="10.00">Simple&#45;Utility/nullables</text>
<text text-anchor="middle" x="770.38" y="-64" font-family="Helvetica,sans-Serif" font-size="10.00">/and_then.hpp</text>
</a>
</g>
</g>
<!-- Node6&#45;&gt;Node10 -->
<g id="edge18" class="edge">
<title>Node6&#45;&gt;Node10</title>
<path fill="none" stroke="#63b8ff" d="M616.37,-122.63C648.77,-112.5 687.95,-100.26 718.69,-90.65"/>
<polygon fill="#63b8ff" stroke="#63b8ff" points="615.61,-119.51 607.11,-125.83 617.7,-126.19 615.61,-119.51"/>
</g>
<!-- Node12 -->
<g id="node12" class="node">
<title>Node12</title>
<g id="a_node12"><a xlink:href="../../d7/d5f/fwd__value_8hpp.html" target="_top" xlink:title=" ">
<polygon fill="white" stroke="#666666" points="972.63,-90.25 850.13,-90.25 850.13,-56.75 972.63,-56.75 972.63,-90.25"/>
<text text-anchor="start" x="858.13" y="-76.75" font-family="Helvetica,sans-Serif" font-size="10.00">Simple&#45;Utility/nullables</text>
<text text-anchor="middle" x="911.38" y="-64" font-family="Helvetica,sans-Serif" font-size="10.00">/fwd_value.hpp</text>
</a>
</g>
</g>
<!-- Node6&#45;&gt;Node12 -->
<g id="edge20" class="edge">
<title>Node6&#45;&gt;Node12</title>
<path fill="none" stroke="#63b8ff" d="M628.63,-129.39C686.45,-119.37 768.66,-104.69 840.38,-90.25 843.47,-89.63 846.64,-88.98 849.83,-88.31"/>
<polygon fill="#63b8ff" stroke="#63b8ff" points="628.38,-126.05 619.12,-131.2 629.57,-132.95 628.38,-126.05"/>
</g>
<!-- Node13 -->
<g id="node13" class="node">
<title>Node13</title>
<g id="a_node13"><a xlink:href="../../d2/d0e/or__else_8hpp.html" target="_top" xlink:title=" ">
<polygon fill="white" stroke="#666666" points="1113.63,-90.25 991.13,-90.25 991.13,-56.75 1113.63,-56.75 1113.63,-90.25"/>
<text text-anchor="start" x="999.13" y="-76.75" font-family="Helvetica,sans-Serif" font-size="10.00">Simple&#45;Utility/nullables</text>
<text text-anchor="middle" x="1052.38" y="-64" font-family="Helvetica,sans-Serif" font-size="10.00">/or_else.hpp</text>
</a>
</g>
</g>
<!-- Node6&#45;&gt;Node13 -->
<g id="edge22" class="edge">
<title>Node6&#45;&gt;Node13</title>
<path fill="none" stroke="#63b8ff" d="M629.22,-135.16C714.73,-126.84 858.68,-111.24 981.38,-90.25 984.49,-89.72 987.67,-89.14 990.87,-88.53"/>
<polygon fill="#63b8ff" stroke="#63b8ff" points="628.94,-131.77 619.32,-136.22 629.61,-138.74 628.94,-131.77"/>
</g>
<!-- Node14 -->
<g id="node14" class="node">
<title>Node14</title>
<g id="a_node14"><a xlink:href="../../d0/d48/value__or_8hpp.html" target="_top" xlink:title=" ">
<polygon fill="white" stroke="#666666" points="1254.63,-90.25 1132.13,-90.25 1132.13,-56.75 1254.63,-56.75 1254.63,-90.25"/>
<text text-anchor="start" x="1140.13" y="-76.75" font-family="Helvetica,sans-Serif" font-size="10.00">Simple&#45;Utility/nullables</text>
<text text-anchor="middle" x="1193.38" y="-64" font-family="Helvetica,sans-Serif" font-size="10.00">/value_or.hpp</text>
</a>
</g>
</g>
<!-- Node6&#45;&gt;Node14 -->
<g id="edge24" class="edge">
<title>Node6&#45;&gt;Node14</title>
<path fill="none" stroke="#63b8ff" d="M629.03,-138.24C737.97,-132.06 946.67,-117.63 1122.38,-90.25 1125.49,-89.76 1128.68,-89.22 1131.89,-88.64"/>
<polygon fill="#63b8ff" stroke="#63b8ff" points="628.95,-134.79 619.16,-138.85 629.34,-141.78 628.95,-134.79"/>
</g>
<!-- Node7&#45;&gt;Node2 -->
<g id="edge12" class="edge">
<title>Node7&#45;&gt;Node2</title>
<path fill="none" stroke="#63b8ff" d="M290.98,-51.95C267.53,-41.56 240.15,-29.44 221.48,-21.17"/>
<polygon fill="#63b8ff" stroke="#63b8ff" points="289.2,-55.43 299.76,-56.28 292.03,-49.03 289.2,-55.43"/>
</g>
<!-- Node8&#45;&gt;Node2 -->
<g id="edge15" class="edge">
<title>Node8&#45;&gt;Node2</title>
<path fill="none" stroke="#63b8ff" d="M407.76,-56.19C346.53,-42.92 285.9,-29.9 245.49,-21.24"/>
<polygon fill="#63b8ff" stroke="#63b8ff" points="406.87,-59.79 417.39,-58.49 408.36,-52.95 406.87,-59.79"/>
</g>
<!-- Node9&#45;&gt;Node2 -->
<g id="edge17" class="edge">
<title>Node9&#45;&gt;Node2</title>
<path fill="none" stroke="#63b8ff" d="M552.64,-56.36C450.7,-39.09 343.03,-26.37 273.3,-18.86"/>
<polygon fill="#63b8ff" stroke="#63b8ff" points="552,-59.97 562.44,-58.21 553.18,-53.07 552,-59.97"/>
</g>
<!-- Node11 -->
<g id="node11" class="node">
<title>Node11</title>
<g id="a_node11"><a xlink:href="../../d3/ddc/nullables_8hpp.html" target="_top" xlink:title=" ">
<polygon fill="white" stroke="#666666" points="1052.75,-20.75 910,-20.75 910,0 1052.75,0 1052.75,-20.75"/>
<text text-anchor="middle" x="981.38" y="-7.25" font-family="Helvetica,sans-Serif" font-size="10.00">Simple&#45;Utility/nullables.hpp</text>
</a>
</g>
</g>
<!-- Node10&#45;&gt;Node11 -->
<g id="edge19" class="edge">
<title>Node10&#45;&gt;Node11</title>
<path fill="none" stroke="#63b8ff" d="M836.55,-53.33C873.41,-42.65 917.75,-29.81 947.58,-21.17"/>
<polygon fill="#63b8ff" stroke="#63b8ff" points="836,-50.14 827.37,-56.28 837.94,-56.86 836,-50.14"/>
</g>
<!-- Node12&#45;&gt;Node11 -->
<g id="edge21" class="edge">
<title>Node12&#45;&gt;Node11</title>
<path fill="none" stroke="#63b8ff" d="M937.96,-49.28C949.1,-39.56 961.44,-28.79 970.1,-21.22"/>
<polygon fill="#63b8ff" stroke="#63b8ff" points="936,-47.23 930.77,-56.44 940.6,-52.5 936,-47.23"/>
</g>
<!-- Node13&#45;&gt;Node11 -->
<g id="edge23" class="edge">
<title>Node13&#45;&gt;Node11</title>
<path fill="none" stroke="#63b8ff" d="M1025.41,-49.28C1014.12,-39.56 1001.6,-28.79 992.81,-21.22"/>
<polygon fill="#63b8ff" stroke="#63b8ff" points="1022.86,-52.57 1032.72,-56.44 1027.43,-47.26 1022.86,-52.57"/>
</g>
<!-- Node14&#45;&gt;Node11 -->
<g id="edge25" class="edge">
<title>Node14&#45;&gt;Node11</title>
<path fill="none" stroke="#63b8ff" d="M1126.89,-53.33C1089.85,-42.65 1045.3,-29.81 1015.33,-21.17"/>
<polygon fill="#63b8ff" stroke="#63b8ff" points="1125.54,-56.87 1136.12,-56.28 1127.48,-50.15 1125.54,-56.87"/>
</g>
</g>
</svg>
        <g id="navigator" transform="translate(0 0)" fill="#404254">
                <rect fill="#f2f5e9" fill-opacity="0.5" stroke="#606060" stroke-width=".5" x="0" y="0" width="60" height="60"/>
                <use id="zoomplus" xlink:href="#zoomPlus" x="17" y="9" onmousedown="handleZoom(evt,'in')"/>
                <use id="zoomminus" xlink:href="#zoomMin" x="42" y="9" onmousedown="handleZoom(evt,'out')"/>
                <use id="reset" xlink:href="#resetDef" x="30" y="36" onmousedown="handleReset()"/>
                <g id="arrowUp" xlink:href="#dirArrow" transform="translate(30 24)" onmousedown="handlePan(0,-1)">
                  <use xlink:href="#rim" fill="#404040">
                        <set attributeName="fill" to="#808080" begin="arrowUp.mouseover" end="arrowUp.mouseout"/>
                  </use>
                  <path fill="none" stroke="white" stroke-width="1.5" d="M0,-3.0v7 M-2.5,-0.5L0,-3.0L2.5,-0.5"/>
                </g>
                <g id="arrowRight" xlink:href="#dirArrow" transform="rotate(90) translate(36 -43)" onmousedown="handlePan(1,0)">
                  <use xlink:href="#rim" fill="#404040">
                        <set attributeName="fill" to="#808080" begin="arrowRight.mouseover" end="arrowRight.mouseout"/>
                  </use>
                  <path fill="none" stroke="white" stroke-width="1.5" d="M0,-3.0v7 M-2.5,-0.5L0,-3.0L2.5,-0.5"/>
                </g>
                <g id="arrowDown" xlink:href="#dirArrow" transform="rotate(180) translate(-30 -48)" onmousedown="handlePan(0,1)">
                  <use xlink:href="#rim" fill="#404040">
                        <set attributeName="fill" to="#808080" begin="arrowDown.mouseover" end="arrowDown.mouseout"/>
                  </use>
                  <path fill="none" stroke="white" stroke-width="1.5" d="M0,-3.0v7 M-2.5,-0.5L0,-3.0L2.5,-0.5"/>
                </g>
                <g id="arrowLeft" xlink:href="#dirArrow" transform="rotate(270) translate(-36 17)" onmousedown="handlePan(-1,0)">
                  <use xlink:href="#rim" fill="#404040">
                        <set attributeName="fill" to="#808080" begin="arrowLeft.mouseover" end="arrowLeft.mouseout"/>
                  </use>
                  <path fill="none" stroke="white" stroke-width="1.5" d="M0,-3.0v7 M-2.5,-0.5L0,-3.0L2.5,-0.5"/>
                </g>
        </g>
        <svg viewBox="0 0 15 15" width="100%" height="30px" preserveAspectRatio="xMaxYMin meet">
         <g id="arrow_out" transform="scale(0.3 0.3)">
          <a xlink:href="pipe_8hpp__dep__incl_org.svg" target="_base">
           <rect id="button" ry="5" rx="5" y="6" x="6" height="38" width="38"
                fill="#f2f5e9" fill-opacity="0.5" stroke="#606060" stroke-width="1.0"/>
           <path id="arrow"
             d="M 11.500037,31.436501 C 11.940474,20.09759 22.043105,11.32322 32.158766,21.979434 L 37.068811,17.246167 C 37.068811,17.246167 37.088388,32 37.088388,32 L 22.160133,31.978069 C 22.160133,31.978069 26.997745,27.140456 26.997745,27.140456 C 18.528582,18.264221 13.291696,25.230495 11.500037,31.436501 z"
             style="fill:#404040;"/>
          </a>
         </g>
        </svg>
</svg>
