<?xml version="1.0" encoding="UTF-8" standalone="no"?>
<!DOCTYPE svg PUBLIC "-//W3C//DTD SVG 1.1//EN"
 "http://www.w3.org/Graphics/SVG/1.1/DTD/svg11.dtd">
<!-- Generated by graphviz version 8.0.5 (20230430.1635)
 -->
<!-- Title: sl::functional::closure_base_fn&lt; TFunc &gt; Pages: 1 -->
<svg width="169pt" height="194pt"
 viewBox="0.00 0.00 169.38 194.25" xmlns="http://www.w3.org/2000/svg" xmlns:xlink="http://www.w3.org/1999/xlink">
<g id="graph0" class="graph" transform="scale(1 1) rotate(0) translate(4 190.25)">
<title>sl::functional::closure_base_fn&lt; TFunc &gt;</title>
<!-- Node1 -->
<g id="node1" class="node">
<title>Node1</title>
<g id="a_node1"><a xlink:title="Helper type which simply stores functional objects or function pointers.">
<polygon fill="#999999" stroke="#666666" points="117.62,-33.5 7.12,-33.5 7.12,0 117.62,0 117.62,-33.5"/>
<text text-anchor="start" x="15.12" y="-20" font-family="Helvetica,sans-Serif" font-size="10.00">sl::functional::closure</text>
<text text-anchor="middle" x="62.38" y="-7.25" font-family="Helvetica,sans-Serif" font-size="10.00">_base_fn&lt; TFunc &gt;</text>
</a>
</g>
</g>
<!-- Node2 -->
<g id="node2" class="node">
<title>Node2</title>
<g id="a_node2"><a xlink:href="../../d6/d62/structsl_1_1unified__base.html" target="_top" xlink:title=" ">
<polygon fill="white" stroke="#666666" points="121.75,-104 3,-104 3,-70.5 121.75,-70.5 121.75,-104"/>
<text text-anchor="start" x="11" y="-90.5" font-family="Helvetica,sans-Serif" font-size="10.00">sl::unified_base&lt; detail</text>
<text text-anchor="middle" x="62.38" y="-77.75" font-family="Helvetica,sans-Serif" font-size="10.00">::closure_base_tag &gt;</text>
</a>
</g>
</g>
<!-- Node2&#45;&gt;Node1 -->
<g id="edge1" class="edge">
<title>Node2&#45;&gt;Node1</title>
<path fill="none" stroke="#8b1a1a" d="M62.38,-59.28C62.38,-50.68 62.38,-41.44 62.38,-33.87"/>
<polygon fill="#8b1a1a" stroke="#8b1a1a" points="58.88,-59.02 62.38,-69.02 65.88,-59.02 58.88,-59.02"/>
</g>
<!-- Node3 -->
<g id="node3" class="node">
<title>Node3</title>
<g id="a_node3"><a xlink:href="../../d6/d62/structsl_1_1unified__base.html" target="_top" xlink:title="Helper type, which can be used to create a unified base class for templated derived classes and thus ...">
<polygon fill="white" stroke="#666666" points="124.75,-186.25 0,-186.25 0,-165.5 124.75,-165.5 124.75,-186.25"/>
<text text-anchor="middle" x="62.38" y="-172.75" font-family="Helvetica,sans-Serif" font-size="10.00">sl::unified_base&lt; TTag &gt;</text>
</a>
</g>
</g>
<!-- Node3&#45;&gt;Node2 -->
<g id="edge2" class="edge">
<title>Node3&#45;&gt;Node2</title>
<path fill="none" stroke="orange" stroke-dasharray="5,2" d="M62.38,-154.38C62.38,-139.09 62.38,-118.49 62.38,-104.37"/>
<polygon fill="orange" stroke="orange" points="58.88,-154.27 62.38,-164.27 65.88,-154.27 58.88,-154.27"/>
<text text-anchor="start" x="62.38" y="-138" font-family="Helvetica,sans-Serif" font-size="10.00"> &lt; detail::closure_base</text>
<text text-anchor="middle" x="111.88" y="-125.25" font-family="Helvetica,sans-Serif" font-size="10.00">_tag &gt;</text>
</g>
</g>
</svg>
