<?xml version="1.0" encoding="UTF-8" standalone="no"?>
<!DOCTYPE svg PUBLIC "-//W3C//DTD SVG 1.1//EN"
 "http://www.w3.org/Graphics/SVG/1.1/DTD/svg11.dtd">
<!-- Generated by graphviz version 7.0.5 (20221223.1930)
 -->
<!-- Title: sl::functional::closure_base_fn&lt; TFunc &gt; Pages: 1 -->
<svg width="171pt" height="182pt"
 viewBox="0.00 0.00 170.50 182.00" xmlns="http://www.w3.org/2000/svg" xmlns:xlink="http://www.w3.org/1999/xlink">
<g id="graph0" class="graph" transform="scale(1 1) rotate(0) translate(4 178)">
<title>sl::functional::closure_base_fn&lt; TFunc &gt;</title>
<!-- Node1 -->
<g id="node1" class="node">
<title>Node1</title>
<g id="a_node1"><a xlink:title="Helper type which simply stores functional objects or function pointers.">
<polygon fill="#999999" stroke="#666666" points="118,-30 7,-30 7,0 118,0 118,-30"/>
<text text-anchor="start" x="15" y="-18" font-family="Helvetica,sans-Serif" font-size="10.00">sl::functional::closure</text>
<text text-anchor="middle" x="62.5" y="-7" font-family="Helvetica,sans-Serif" font-size="10.00">_base_fn&lt; TFunc &gt;</text>
</a>
</g>
</g>
<!-- Node2 -->
<g id="node2" class="node">
<title>Node2</title>
<g id="a_node2"><a xlink:href="../../d6/d62/structsl_1_1unified__base.html" target="_top" xlink:title=" ">
<polygon fill="white" stroke="#666666" points="122,-97 3,-97 3,-67 122,-67 122,-97"/>
<text text-anchor="start" x="11" y="-85" font-family="Helvetica,sans-Serif" font-size="10.00">sl::unified_base&lt; detail</text>
<text text-anchor="middle" x="62.5" y="-74" font-family="Helvetica,sans-Serif" font-size="10.00">::closure_base_tag &gt;</text>
</a>
</g>
</g>
<!-- Node2&#45;&gt;Node1 -->
<g id="edge1" class="edge">
<title>Node2&#45;&gt;Node1</title>
<path fill="none" stroke="#8b1a1a" d="M62.5,-55.28C62.5,-46.81 62.5,-37.7 62.5,-30.39"/>
<polygon fill="#8b1a1a" stroke="#8b1a1a" points="59,-55.06 62.5,-65.06 66,-55.06 59,-55.06"/>
</g>
<!-- Node3 -->
<g id="node3" class="node">
<title>Node3</title>
<g id="a_node3"><a xlink:href="../../d6/d62/structsl_1_1unified__base.html" target="_top" xlink:title="Helper type, which can be used to create a unified base class for templated derived classes and thus ...">
<polygon fill="white" stroke="#666666" points="125,-174 0,-174 0,-155 125,-155 125,-174"/>
<text text-anchor="middle" x="62.5" y="-162" font-family="Helvetica,sans-Serif" font-size="10.00">sl::unified_base&lt; TTag &gt;</text>
</a>
</g>
</g>
<!-- Node3&#45;&gt;Node2 -->
<g id="edge2" class="edge">
<title>Node3&#45;&gt;Node2</title>
<path fill="none" stroke="orange" stroke-dasharray="5,2" d="M62.5,-143.45C62.5,-129.14 62.5,-110.22 62.5,-97.39"/>
<polygon fill="orange" stroke="orange" points="59,-143.06 62.5,-153.06 66,-143.06 59,-143.06"/>
<text text-anchor="start" x="62.5" y="-129" font-family="Helvetica,sans-Serif" font-size="10.00"> &lt; detail::closure_base</text>
<text text-anchor="middle" x="112.5" y="-118" font-family="Helvetica,sans-Serif" font-size="10.00">_tag &gt;</text>
</g>
</g>
</svg>
