<?xml version="1.0" encoding="UTF-8" standalone="no"?>
<!DOCTYPE svg PUBLIC "-//W3C//DTD SVG 1.1//EN"
 "http://www.w3.org/Graphics/SVG/1.1/DTD/svg11.dtd">
<!-- Generated by graphviz version 2.43.0 (0)
 -->
<!-- Title: /home/runner/work/Simple&#45;Utility/Simple&#45;Utility/include/Simple&#45;Utility/nullables/base.hpp Pages: 1 -->
<!--zoomable 318 -->
<svg id="main" version="1.1" xmlns="http://www.w3.org/2000/svg" xmlns:xlink="http://www.w3.org/1999/xlink" xml:space="preserve" onload="init(evt)">
<style type="text/css"><![CDATA[
.edge:hover path { stroke: red; }
.edge:hover polygon { stroke: red; fill: red; }
]]></style>
<script type="text/javascript"><![CDATA[
var edges = document.getElementsByTagName('g');
if (edges && edges.length) {
  for (var i=0;i<edges.length;i++) {
    if (edges[i].id.substr(0,4)=='edge') {
      edges[i].setAttribute('class','edge');
    }
  }
}
]]></script>
        <defs>
                <circle id="rim" cx="0" cy="0" r="7"/>
                <circle id="rim2" cx="0" cy="0" r="3.5"/>
                <g id="zoomPlus">
                        <use xlink:href="#rim" fill="#404040">
                                <set attributeName="fill" to="#808080" begin="zoomplus.mouseover" end="zoomplus.mouseout"/>
                        </use>
                        <path d="M-4,0h8M0,-4v8" fill="none" stroke="white" stroke-width="1.5" pointer-events="none"/>
                </g>
                <g id="zoomMin">
                        <use xlink:href="#rim" fill="#404040">
                                <set attributeName="fill" to="#808080" begin="zoomminus.mouseover" end="zoomminus.mouseout"/>
                        </use>
                        <path d="M-4,0h8" fill="none" stroke="white" stroke-width="1.5" pointer-events="none"/>
                </g>
                <g id="dirArrow">
                        <path fill="none" stroke="white" stroke-width="1.5" d="M0,-3.0v7 M-2.5,-0.5L0,-3.0L2.5,-0.5"/>
                </g>
               <g id="resetDef">
                       <use xlink:href="#rim2" fill="#404040">
                               <set attributeName="fill" to="#808080" begin="reset.mouseover" end="reset.mouseout"/>
                       </use>
               </g>
        </defs>

<script type="text/javascript">
var viewWidth = 998;
var viewHeight = 318;
var sectionId = 'dynsection-0';
</script>
<script xlink:href="../../svgpan.js"/>
<svg id="graph" class="graph">
<g id="viewport">
<title>/home/runner/work/Simple&#45;Utility/Simple&#45;Utility/include/Simple&#45;Utility/nullables/base.hpp</title>
<polygon fill="white" stroke="transparent" points="-4,4 -4,-314 994.31,-314 994.31,4 -4,4"/>
<!-- Node1 -->
<g id="node1" class="node">
<title>Node1</title>
<g id="a_node1"><a xlink:title=" ">
<polygon fill="#bfbfbf" stroke="black" points="521.81,-257.5 521.81,-309.5 667.81,-309.5 667.81,-257.5 521.81,-257.5"/>
<text text-anchor="start" x="529.81" y="-297.5" font-family="Helvetica,sans-Serif" font-size="10.00">/home/runner/work/Simple</text>
<text text-anchor="start" x="529.81" y="-286.5" font-family="Helvetica,sans-Serif" font-size="10.00">&#45;Utility/Simple&#45;Utility</text>
<text text-anchor="start" x="529.81" y="-275.5" font-family="Helvetica,sans-Serif" font-size="10.00">/include/Simple&#45;Utility</text>
<text text-anchor="middle" x="594.81" y="-264.5" font-family="Helvetica,sans-Serif" font-size="10.00">/nullables/base.hpp</text>
</a>
</g>
</g>
<!-- Node2 -->
<g id="node2" class="node">
<title>Node2</title>
<g id="a_node2"><a xlink:href="../../dd/d5c/stl__extensions_8hpp.html" target="_top" xlink:title=" ">
<polygon fill="white" stroke="black" points="15.31,-56.5 15.31,-86.5 146.31,-86.5 146.31,-56.5 15.31,-56.5"/>
<text text-anchor="start" x="23.31" y="-74.5" font-family="Helvetica,sans-Serif" font-size="10.00">Simple&#45;Utility/concepts</text>
<text text-anchor="middle" x="80.81" y="-63.5" font-family="Helvetica,sans-Serif" font-size="10.00">/stl_extensions.hpp</text>
</a>
</g>
</g>
<!-- Node1&#45;&gt;Node2 -->
<g id="edge1" class="edge">
<title>Node1&#45;&gt;Node2</title>
<path fill="none" stroke="midnightblue" d="M533.58,-257.48C428.42,-214.52 216.02,-127.74 124.45,-90.33"/>
<polygon fill="midnightblue" stroke="midnightblue" points="125.77,-87.09 115.19,-86.55 123.12,-93.57 125.77,-87.09"/>
</g>
<!-- Node4 -->
<g id="node4" class="node">
<title>Node4</title>
<g id="a_node4"><a xlink:href="../../dd/dcd/operators_8hpp.html" target="_top" xlink:title=" ">
<polygon fill="white" stroke="black" points="2.31,-123.5 2.31,-153.5 133.31,-153.5 133.31,-123.5 2.31,-123.5"/>
<text text-anchor="start" x="10.31" y="-141.5" font-family="Helvetica,sans-Serif" font-size="10.00">Simple&#45;Utility/concepts</text>
<text text-anchor="middle" x="67.81" y="-130.5" font-family="Helvetica,sans-Serif" font-size="10.00">/operators.hpp</text>
</a>
</g>
</g>
<!-- Node1&#45;&gt;Node4 -->
<g id="edge3" class="edge">
<title>Node1&#45;&gt;Node4</title>
<path fill="none" stroke="midnightblue" d="M521.67,-269.16C463.55,-257.99 380.42,-240.74 308.81,-221 240.29,-202.11 162.69,-174.77 114.5,-157.06"/>
<polygon fill="midnightblue" stroke="midnightblue" points="115.56,-153.72 104.97,-153.55 113.14,-160.29 115.56,-153.72"/>
</g>
<!-- Node5 -->
<g id="node5" class="node">
<title>Node5</title>
<g id="a_node5"><a xlink:href="../../d1/d76/functional_2base_8hpp.html" target="_top" xlink:title=" ">
<polygon fill="white" stroke="black" points="430.81,-123.5 430.81,-153.5 566.81,-153.5 566.81,-123.5 430.81,-123.5"/>
<text text-anchor="start" x="438.81" y="-141.5" font-family="Helvetica,sans-Serif" font-size="10.00">Simple&#45;Utility/functional</text>
<text text-anchor="middle" x="498.81" y="-130.5" font-family="Helvetica,sans-Serif" font-size="10.00">/base.hpp</text>
</a>
</g>
</g>
<!-- Node1&#45;&gt;Node5 -->
<g id="edge5" class="edge">
<title>Node1&#45;&gt;Node5</title>
<path fill="none" stroke="midnightblue" d="M553.25,-257.34C540.14,-247.51 526.76,-235.18 517.81,-221 506.94,-203.76 502.27,-180.95 500.28,-163.84"/>
<polygon fill="midnightblue" stroke="midnightblue" points="503.73,-163.17 499.32,-153.54 496.76,-163.82 503.73,-163.17"/>
</g>
<!-- Node7 -->
<g id="node7" class="node">
<title>Node7</title>
<g id="a_node7"><a xlink:title=" ">
<polygon fill="white" stroke="#bfbfbf" points="671.31,-0.5 671.31,-19.5 740.31,-19.5 740.31,-0.5 671.31,-0.5"/>
<text text-anchor="middle" x="705.81" y="-7.5" font-family="Helvetica,sans-Serif" font-size="10.00">type_traits</text>
</a>
</g>
</g>
<!-- Node1&#45;&gt;Node7 -->
<g id="edge25" class="edge">
<title>Node1&#45;&gt;Node7</title>
<path fill="none" stroke="midnightblue" d="M668.04,-257.54C739.37,-228.83 843.58,-174.11 889.81,-87 896.27,-74.83 898.32,-66.84 889.81,-56 881.13,-44.93 801.86,-28.56 750.24,-18.92"/>
<polygon fill="midnightblue" stroke="midnightblue" points="750.78,-15.46 740.31,-17.08 749.51,-22.34 750.78,-15.46"/>
</g>
<!-- Node9 -->
<g id="node9" class="node">
<title>Node9</title>
<g id="a_node9"><a xlink:href="../../d4/d1c/unified__base_8hpp.html" target="_top" xlink:title=" ">
<polygon fill="white" stroke="black" points="630.81,-56.5 630.81,-86.5 750.81,-86.5 750.81,-56.5 630.81,-56.5"/>
<text text-anchor="start" x="638.81" y="-74.5" font-family="Helvetica,sans-Serif" font-size="10.00">Simple&#45;Utility/unified</text>
<text text-anchor="middle" x="690.81" y="-63.5" font-family="Helvetica,sans-Serif" font-size="10.00">_base.hpp</text>
</a>
</g>
</g>
<!-- Node1&#45;&gt;Node9 -->
<g id="edge23" class="edge">
<title>Node1&#45;&gt;Node9</title>
<path fill="none" stroke="midnightblue" d="M638.02,-257.24C650.92,-247.55 663.76,-235.32 671.81,-221 693.82,-181.85 694.77,-127.9 693.07,-96.96"/>
<polygon fill="midnightblue" stroke="midnightblue" points="696.54,-96.41 692.36,-86.68 689.56,-96.9 696.54,-96.41"/>
</g>
<!-- Node11 -->
<g id="node11" class="node">
<title>Node11</title>
<g id="a_node11"><a xlink:href="../../d9/d76/bind_8hpp.html" target="_top" xlink:title=" ">
<polygon fill="white" stroke="black" points="526.81,-190.5 526.81,-220.5 662.81,-220.5 662.81,-190.5 526.81,-190.5"/>
<text text-anchor="start" x="534.81" y="-208.5" font-family="Helvetica,sans-Serif" font-size="10.00">Simple&#45;Utility/functional</text>
<text text-anchor="middle" x="594.81" y="-197.5" font-family="Helvetica,sans-Serif" font-size="10.00">/operators/bind.hpp</text>
</a>
</g>
</g>
<!-- Node1&#45;&gt;Node11 -->
<g id="edge16" class="edge">
<title>Node1&#45;&gt;Node11</title>
<path fill="none" stroke="midnightblue" d="M594.81,-257.19C594.81,-248.79 594.81,-239.44 594.81,-231.09"/>
<polygon fill="midnightblue" stroke="midnightblue" points="598.31,-230.85 594.81,-220.85 591.31,-230.85 598.31,-230.85"/>
</g>
<!-- Node15 -->
<g id="node15" class="node">
<title>Node15</title>
<g id="a_node15"><a xlink:title=" ">
<polygon fill="white" stroke="#bfbfbf" points="937.31,-196 937.31,-215 990.31,-215 990.31,-196 937.31,-196"/>
<text text-anchor="middle" x="963.81" y="-203" font-family="Helvetica,sans-Serif" font-size="10.00">cstddef</text>
</a>
</g>
</g>
<!-- Node1&#45;&gt;Node15 -->
<g id="edge24" class="edge">
<title>Node1&#45;&gt;Node15</title>
<path fill="none" stroke="midnightblue" d="M667.84,-272.12C734.8,-261.83 836.37,-244.24 922.81,-221 925.78,-220.2 928.84,-219.29 931.89,-218.33"/>
<polygon fill="midnightblue" stroke="midnightblue" points="933.09,-221.61 941.45,-215.11 930.86,-214.98 933.09,-221.61"/>
</g>
<!-- Node3 -->
<g id="node3" class="node">
<title>Node3</title>
<g id="a_node3"><a xlink:title=" ">
<polygon fill="white" stroke="#bfbfbf" points="191.81,-0.5 191.81,-19.5 251.81,-19.5 251.81,-0.5 191.81,-0.5"/>
<text text-anchor="middle" x="221.81" y="-7.5" font-family="Helvetica,sans-Serif" font-size="10.00">concepts</text>
</a>
</g>
</g>
<!-- Node2&#45;&gt;Node3 -->
<g id="edge2" class="edge">
<title>Node2&#45;&gt;Node3</title>
<path fill="none" stroke="midnightblue" d="M114.23,-56.4C137.78,-46.46 169.05,-33.26 191.8,-23.66"/>
<polygon fill="midnightblue" stroke="midnightblue" points="193.44,-26.77 201.3,-19.66 190.72,-20.32 193.44,-26.77"/>
</g>
<!-- Node4&#45;&gt;Node3 -->
<g id="edge4" class="edge">
<title>Node4&#45;&gt;Node3</title>
<path fill="none" stroke="midnightblue" d="M44.19,-123.44C19.56,-107.03 -13.03,-79.17 5.81,-56 27.54,-29.28 125.3,-17.9 181.57,-13.49"/>
<polygon fill="midnightblue" stroke="midnightblue" points="181.86,-16.97 191.57,-12.74 181.34,-9.99 181.86,-16.97"/>
</g>
<!-- Node5&#45;&gt;Node2 -->
<g id="edge13" class="edge">
<title>Node5&#45;&gt;Node2</title>
<path fill="none" stroke="midnightblue" d="M430.74,-127.96C362.41,-118.24 254.18,-102.43 160.81,-87 159.52,-86.79 158.22,-86.57 156.9,-86.35"/>
<polygon fill="midnightblue" stroke="midnightblue" points="157.15,-82.84 146.7,-84.61 155.97,-89.74 157.15,-82.84"/>
</g>
<!-- Node5&#45;&gt;Node3 -->
<g id="edge6" class="edge">
<title>Node5&#45;&gt;Node3</title>
<path fill="none" stroke="midnightblue" d="M430.73,-130.87C345.56,-121.88 208.98,-104.88 193.81,-87 179.25,-69.83 193.85,-44.41 206.84,-27.78"/>
<polygon fill="midnightblue" stroke="midnightblue" points="209.62,-29.9 213.32,-19.97 204.24,-25.43 209.62,-29.9"/>
</g>
<!-- Node6 -->
<g id="node6" class="node">
<title>Node6</title>
<g id="a_node6"><a xlink:title=" ">
<polygon fill="white" stroke="#bfbfbf" points="509.31,-62 509.31,-81 574.31,-81 574.31,-62 509.31,-62"/>
<text text-anchor="middle" x="541.81" y="-69" font-family="Helvetica,sans-Serif" font-size="10.00">functional</text>
</a>
</g>
</g>
<!-- Node5&#45;&gt;Node6 -->
<g id="edge7" class="edge">
<title>Node5&#45;&gt;Node6</title>
<path fill="none" stroke="midnightblue" d="M508.14,-123.4C514.71,-113.46 523.55,-100.11 530.52,-89.57"/>
<polygon fill="midnightblue" stroke="midnightblue" points="533.46,-91.47 536.06,-81.19 527.62,-87.6 533.46,-91.47"/>
</g>
<!-- Node5&#45;&gt;Node7 -->
<g id="edge8" class="edge">
<title>Node5&#45;&gt;Node7</title>
<path fill="none" stroke="midnightblue" d="M524.72,-123.43C541.89,-113.79 564.68,-100.38 583.81,-87 601.67,-74.51 603.68,-68.09 621.81,-56 639.88,-43.95 661.5,-32.43 678.28,-24.06"/>
<polygon fill="midnightblue" stroke="midnightblue" points="680.1,-27.07 687.54,-19.52 677.02,-20.78 680.1,-27.07"/>
</g>
<!-- Node8 -->
<g id="node8" class="node">
<title>Node8</title>
<g id="a_node8"><a xlink:href="../../d8/dd2/_config_8hpp.html" target="_top" xlink:title=" ">
<polygon fill="white" stroke="black" points="352.31,-62 352.31,-81 491.31,-81 491.31,-62 352.31,-62"/>
<text text-anchor="middle" x="421.81" y="-69" font-family="Helvetica,sans-Serif" font-size="10.00">Simple&#45;Utility/Config.hpp</text>
</a>
</g>
</g>
<!-- Node5&#45;&gt;Node8 -->
<g id="edge9" class="edge">
<title>Node5&#45;&gt;Node8</title>
<path fill="none" stroke="midnightblue" d="M482.1,-123.4C469.62,-112.86 452.58,-98.48 439.8,-87.69"/>
<polygon fill="midnightblue" stroke="midnightblue" points="442.01,-84.97 432.11,-81.19 437.5,-90.32 442.01,-84.97"/>
</g>
<!-- Node5&#45;&gt;Node9 -->
<g id="edge10" class="edge">
<title>Node5&#45;&gt;Node9</title>
<path fill="none" stroke="midnightblue" d="M540.47,-123.4C569.53,-113.56 608.5,-100.37 639.48,-89.88"/>
<polygon fill="midnightblue" stroke="midnightblue" points="640.88,-93.1 649.23,-86.58 638.64,-86.47 640.88,-93.1"/>
</g>
<!-- Node10 -->
<g id="node10" class="node">
<title>Node10</title>
<g id="a_node10"><a xlink:href="../../d5/d8e/concepts_2utility_8hpp.html" target="_top" xlink:title=" ">
<polygon fill="white" stroke="black" points="203.31,-56.5 203.31,-86.5 334.31,-86.5 334.31,-56.5 203.31,-56.5"/>
<text text-anchor="start" x="211.31" y="-74.5" font-family="Helvetica,sans-Serif" font-size="10.00">Simple&#45;Utility/concepts</text>
<text text-anchor="middle" x="268.81" y="-63.5" font-family="Helvetica,sans-Serif" font-size="10.00">/utility.hpp</text>
</a>
</g>
</g>
<!-- Node5&#45;&gt;Node10 -->
<g id="edge14" class="edge">
<title>Node5&#45;&gt;Node10</title>
<path fill="none" stroke="midnightblue" d="M449.19,-123.48C413.79,-113.47 366.02,-99.97 328.53,-89.38"/>
<polygon fill="midnightblue" stroke="midnightblue" points="329.32,-85.96 318.74,-86.61 327.41,-92.7 329.32,-85.96"/>
</g>
<!-- Node9&#45;&gt;Node3 -->
<g id="edge11" class="edge">
<title>Node9&#45;&gt;Node3</title>
<path fill="none" stroke="midnightblue" d="M630.56,-62.22C615.31,-60.15 598.96,-57.97 583.81,-56 466.97,-40.82 328.76,-23.94 261.96,-15.84"/>
<polygon fill="midnightblue" stroke="midnightblue" points="262.21,-12.35 251.86,-14.62 261.37,-19.3 262.21,-12.35"/>
</g>
<!-- Node9&#45;&gt;Node7 -->
<g id="edge12" class="edge">
<title>Node9&#45;&gt;Node7</title>
<path fill="none" stroke="midnightblue" d="M694.37,-56.4C696.39,-48.38 698.95,-38.23 701.13,-29.57"/>
<polygon fill="midnightblue" stroke="midnightblue" points="704.58,-30.21 703.63,-19.66 697.79,-28.5 704.58,-30.21"/>
</g>
<!-- Node10&#45;&gt;Node3 -->
<g id="edge15" class="edge">
<title>Node10&#45;&gt;Node3</title>
<path fill="none" stroke="midnightblue" d="M257.67,-56.4C250.84,-47.75 242.07,-36.64 234.91,-27.58"/>
<polygon fill="midnightblue" stroke="midnightblue" points="237.6,-25.34 228.65,-19.66 232.1,-29.67 237.6,-25.34"/>
</g>
<!-- Node11&#45;&gt;Node5 -->
<g id="edge17" class="edge">
<title>Node11&#45;&gt;Node5</title>
<path fill="none" stroke="midnightblue" d="M573.98,-190.4C560.52,-181.28 542.81,-169.29 527.96,-159.24"/>
<polygon fill="midnightblue" stroke="midnightblue" points="529.84,-156.28 519.6,-153.58 525.92,-162.08 529.84,-156.28"/>
</g>
<!-- Node12 -->
<g id="node12" class="node">
<title>Node12</title>
<g id="a_node12"><a xlink:href="../../d2/d30/general_8hpp.html" target="_top" xlink:title=" ">
<polygon fill="white" stroke="black" points="768.81,-56.5 768.81,-86.5 880.81,-86.5 880.81,-56.5 768.81,-56.5"/>
<text text-anchor="start" x="776.81" y="-74.5" font-family="Helvetica,sans-Serif" font-size="10.00">Simple&#45;Utility/tuple</text>
<text text-anchor="middle" x="824.81" y="-63.5" font-family="Helvetica,sans-Serif" font-size="10.00">/general.hpp</text>
</a>
</g>
</g>
<!-- Node11&#45;&gt;Node12 -->
<g id="edge18" class="edge">
<title>Node11&#45;&gt;Node12</title>
<path fill="none" stroke="midnightblue" d="M619.43,-190.37C660.93,-166.56 744.86,-118.39 791.55,-91.59"/>
<polygon fill="midnightblue" stroke="midnightblue" points="793.44,-94.54 800.37,-86.52 789.96,-88.47 793.44,-94.54"/>
</g>
<!-- Node12&#45;&gt;Node3 -->
<g id="edge19" class="edge">
<title>Node12&#45;&gt;Node3</title>
<path fill="none" stroke="midnightblue" d="M768.53,-57.45C765.59,-56.93 762.67,-56.44 759.81,-56 575.1,-27.81 351.81,-16.23 262.04,-12.49"/>
<polygon fill="midnightblue" stroke="midnightblue" points="262.15,-9 252.02,-12.09 261.87,-15.99 262.15,-9"/>
</g>
<!-- Node12&#45;&gt;Node7 -->
<g id="edge21" class="edge">
<title>Node12&#45;&gt;Node7</title>
<path fill="none" stroke="midnightblue" d="M796.61,-56.4C777.09,-46.64 751.29,-33.74 732.18,-24.18"/>
<polygon fill="midnightblue" stroke="midnightblue" points="733.64,-21 723.13,-19.66 730.51,-27.26 733.64,-21"/>
</g>
<!-- Node13 -->
<g id="node13" class="node">
<title>Node13</title>
<g id="a_node13"><a xlink:title=" ">
<polygon fill="white" stroke="#bfbfbf" points="788.31,-0.5 788.31,-19.5 829.31,-19.5 829.31,-0.5 788.31,-0.5"/>
<text text-anchor="middle" x="808.81" y="-7.5" font-family="Helvetica,sans-Serif" font-size="10.00">tuple</text>
</a>
</g>
</g>
<!-- Node12&#45;&gt;Node13 -->
<g id="edge20" class="edge">
<title>Node12&#45;&gt;Node13</title>
<path fill="none" stroke="midnightblue" d="M821.02,-56.4C818.86,-48.38 816.13,-38.23 813.81,-29.57"/>
<polygon fill="midnightblue" stroke="midnightblue" points="817.12,-28.41 811.14,-19.66 810.36,-30.22 817.12,-28.41"/>
</g>
<!-- Node14 -->
<g id="node14" class="node">
<title>Node14</title>
<g id="a_node14"><a xlink:title=" ">
<polygon fill="white" stroke="#bfbfbf" points="847.31,-0.5 847.31,-19.5 892.31,-19.5 892.31,-0.5 847.31,-0.5"/>
<text text-anchor="middle" x="869.81" y="-7.5" font-family="Helvetica,sans-Serif" font-size="10.00">utility</text>
</a>
</g>
</g>
<!-- Node12&#45;&gt;Node14 -->
<g id="edge22" class="edge">
<title>Node12&#45;&gt;Node14</title>
<path fill="none" stroke="midnightblue" d="M835.48,-56.4C841.95,-47.84 850.25,-36.87 857.06,-27.86"/>
<polygon fill="midnightblue" stroke="midnightblue" points="860.02,-29.74 863.26,-19.66 854.44,-25.52 860.02,-29.74"/>
</g>
</g>
</svg>
        <g id="navigator" transform="translate(0 0)" fill="#404254">
                <rect fill="#f2f5e9" fill-opacity="0.5" stroke="#606060" stroke-width=".5" x="0" y="0" width="60" height="60"/>
                <use id="zoomplus" xlink:href="#zoomPlus" x="17" y="9" onmousedown="handleZoom(evt,'in')"/>
                <use id="zoomminus" xlink:href="#zoomMin" x="42" y="9" onmousedown="handleZoom(evt,'out')"/>
                <use id="reset" xlink:href="#resetDef" x="30" y="36" onmousedown="handleReset()"/>
                <g id="arrowUp" xlink:href="#dirArrow" transform="translate(30 24)" onmousedown="handlePan(0,-1)">
                  <use xlink:href="#rim" fill="#404040">
                        <set attributeName="fill" to="#808080" begin="arrowUp.mouseover" end="arrowUp.mouseout"/>
                  </use>
                  <path fill="none" stroke="white" stroke-width="1.5" d="M0,-3.0v7 M-2.5,-0.5L0,-3.0L2.5,-0.5"/>
                </g>
                <g id="arrowRight" xlink:href="#dirArrow" transform="rotate(90) translate(36 -43)" onmousedown="handlePan(1,0)">
                  <use xlink:href="#rim" fill="#404040">
                        <set attributeName="fill" to="#808080" begin="arrowRight.mouseover" end="arrowRight.mouseout"/>
                  </use>
                  <path fill="none" stroke="white" stroke-width="1.5" d="M0,-3.0v7 M-2.5,-0.5L0,-3.0L2.5,-0.5"/>
                </g>
                <g id="arrowDown" xlink:href="#dirArrow" transform="rotate(180) translate(-30 -48)" onmousedown="handlePan(0,1)">
                  <use xlink:href="#rim" fill="#404040">
                        <set attributeName="fill" to="#808080" begin="arrowDown.mouseover" end="arrowDown.mouseout"/>
                  </use>
                  <path fill="none" stroke="white" stroke-width="1.5" d="M0,-3.0v7 M-2.5,-0.5L0,-3.0L2.5,-0.5"/>
                </g>
                <g id="arrowLeft" xlink:href="#dirArrow" transform="rotate(270) translate(-36 17)" onmousedown="handlePan(-1,0)">
                  <use xlink:href="#rim" fill="#404040">
                        <set attributeName="fill" to="#808080" begin="arrowLeft.mouseover" end="arrowLeft.mouseout"/>
                  </use>
                  <path fill="none" stroke="white" stroke-width="1.5" d="M0,-3.0v7 M-2.5,-0.5L0,-3.0L2.5,-0.5"/>
                </g>
        </g>
        <svg viewBox="0 0 15 15" width="100%" height="30px" preserveAspectRatio="xMaxYMin meet">
         <g id="arrow_out" transform="scale(0.3 0.3)">
          <a xlink:href="nullables_2base_8hpp__incl_org.svg" target="_base">
           <rect id="button" ry="5" rx="5" y="6" x="6" height="38" width="38"
                fill="#f2f5e9" fill-opacity="0.5" stroke="#606060" stroke-width="1.0"/>
           <path id="arrow"
             d="M 11.500037,31.436501 C 11.940474,20.09759 22.043105,11.32322 32.158766,21.979434 L 37.068811,17.246167 C 37.068811,17.246167 37.088388,32 37.088388,32 L 22.160133,31.978069 C 22.160133,31.978069 26.997745,27.140456 26.997745,27.140456 C 18.528582,18.264221 13.291696,25.230495 11.500037,31.436501 z"
             style="fill:#404040;"/>
          </a>
         </g>
        </svg>
</svg>
