<?xml version="1.0" encoding="UTF-8" standalone="no"?>
<!DOCTYPE svg PUBLIC "-//W3C//DTD SVG 1.1//EN"
 "http://www.w3.org/Graphics/SVG/1.1/DTD/svg11.dtd">
<!-- Generated by graphviz version 8.0.5 (20230430.1635)
 -->
<!-- Title: sl::nullables::algorithm_fn&lt; TFunc &gt; Pages: 1 -->
<svg width="1239pt" height="200pt"
 viewBox="0.00 0.00 1239.00 200.46" xmlns="http://www.w3.org/2000/svg" xmlns:xlink="http://www.w3.org/1999/xlink">
<g id="graph0" class="graph" transform="scale(1 1) rotate(0) translate(4 196.46)">
<title>sl::nullables::algorithm_fn&lt; TFunc &gt;</title>
<!-- Node1 -->
<g id="node1" class="node">
<title>Node1</title>
<g id="a_node1"><a xlink:title="The core algorithm helper, which executes the held algorithm when used as the right&#45;hand&#45;side of oper...">
<polygon fill="#999999" stroke="#666666" points="1231,-146.71 1112.25,-146.71 1112.25,-113.21 1231,-113.21 1231,-146.71"/>
<text text-anchor="start" x="1120.25" y="-133.21" font-family="Helvetica,sans-Serif" font-size="10.00">sl::nullables::algorithm</text>
<text text-anchor="middle" x="1171.62" y="-120.46" font-family="Helvetica,sans-Serif" font-size="10.00">_fn&lt; TFunc &gt;</text>
</a>
</g>
</g>
<!-- Node2 -->
<g id="node2" class="node">
<title>Node2</title>
<g id="a_node2"><a xlink:href="../../d6/d62/structsl_1_1unified__base.html" target="_top" xlink:title=" ">
<polygon fill="white" stroke="#666666" points="573.75,-187.71 455,-187.71 455,-154.21 573.75,-154.21 573.75,-187.71"/>
<text text-anchor="start" x="463" y="-174.21" font-family="Helvetica,sans-Serif" font-size="10.00">sl::unified_base&lt; detail</text>
<text text-anchor="middle" x="514.38" y="-161.46" font-family="Helvetica,sans-Serif" font-size="10.00">::algorithm_tag &gt;</text>
</a>
</g>
</g>
<!-- Node2&#45;&gt;Node1 -->
<g id="edge1" class="edge">
<title>Node2&#45;&gt;Node1</title>
<path fill="none" stroke="#8b1a1a" d="M584.78,-171.01C693.71,-170.35 911.26,-166.06 1094.25,-143.96 1100,-143.26 1105.98,-142.41 1111.94,-141.46"/>
<polygon fill="#8b1a1a" stroke="#8b1a1a" points="584.93,-167.52 574.95,-171.07 584.97,-174.51 584.93,-167.52"/>
</g>
<!-- Node3 -->
<g id="node3" class="node">
<title>Node3</title>
<g id="a_node3"><a xlink:href="../../d6/d62/structsl_1_1unified__base.html" target="_top" xlink:title="Helper type, which can be used to create a unified base class for templated derived classes and thus ...">
<polygon fill="white" stroke="#666666" points="124.75,-135.33 0,-135.33 0,-114.58 124.75,-114.58 124.75,-135.33"/>
<text text-anchor="middle" x="62.38" y="-121.83" font-family="Helvetica,sans-Serif" font-size="10.00">sl::unified_base&lt; TTag &gt;</text>
</a>
</g>
</g>
<!-- Node3&#45;&gt;Node2 -->
<g id="edge2" class="edge">
<title>Node3&#45;&gt;Node2</title>
<path fill="none" stroke="orange" stroke-dasharray="5,2" d="M99.55,-139.62C112.91,-144.4 128.31,-149.19 142.75,-151.96 251.43,-172.81 381.1,-174.23 454.68,-172.91"/>
<polygon fill="orange" stroke="orange" points="100.93,-136.03 90.34,-135.83 98.49,-142.59 100.93,-136.03"/>
<text text-anchor="start" x="160.38" y="-182.96" font-family="Helvetica,sans-Serif" font-size="10.00"> &lt; detail::algorithm</text>
<text text-anchor="middle" x="203.12" y="-170.21" font-family="Helvetica,sans-Serif" font-size="10.00">_tag &gt;</text>
</g>
<!-- Node5 -->
<g id="node5" class="node">
<title>Node5</title>
<g id="a_node5"><a xlink:href="../../d6/d62/structsl_1_1unified__base.html" target="_top" xlink:title=" ">
<polygon fill="white" stroke="#666666" points="418.62,-145.71 299.88,-145.71 299.88,-112.21 418.62,-112.21 418.62,-145.71"/>
<text text-anchor="start" x="307.88" y="-132.21" font-family="Helvetica,sans-Serif" font-size="10.00">sl::unified_base&lt; detail</text>
<text text-anchor="middle" x="359.25" y="-119.46" font-family="Helvetica,sans-Serif" font-size="10.00">::closure_base_tag &gt;</text>
</a>
</g>
</g>
<!-- Node3&#45;&gt;Node5 -->
<g id="edge5" class="edge">
<title>Node3&#45;&gt;Node5</title>
<path fill="none" stroke="orange" stroke-dasharray="5,2" d="M136.09,-125.17C174.06,-125.37 221.29,-125.74 263.5,-126.46 275.18,-126.66 287.67,-126.94 299.62,-127.24"/>
<polygon fill="orange" stroke="orange" points="136.15,-121.67 126.13,-125.12 136.12,-128.67 136.15,-121.67"/>
<text text-anchor="start" x="153.62" y="-141.96" font-family="Helvetica,sans-Serif" font-size="10.00"> &lt; detail::closure_base</text>
<text text-anchor="middle" x="203.12" y="-129.21" font-family="Helvetica,sans-Serif" font-size="10.00">_tag &gt;</text>
</g>
<!-- Node7 -->
<g id="node7" class="node">
<title>Node7</title>
<g id="a_node7"><a xlink:href="../../d6/d62/structsl_1_1unified__base.html" target="_top" xlink:title=" ">
<polygon fill="white" stroke="#666666" points="437,-92.71 281.5,-92.71 281.5,-59.21 437,-59.21 437,-92.71"/>
<text text-anchor="start" x="289.5" y="-79.21" font-family="Helvetica,sans-Serif" font-size="10.00">sl::unified_base&lt; detail</text>
<text text-anchor="middle" x="359.25" y="-66.46" font-family="Helvetica,sans-Serif" font-size="10.00">::enable_operators_base_tag &gt;</text>
</a>
</g>
</g>
<!-- Node3&#45;&gt;Node7 -->
<g id="edge8" class="edge">
<title>Node3&#45;&gt;Node7</title>
<path fill="none" stroke="orange" stroke-dasharray="5,2" d="M97.24,-110.11C111.09,-104.64 127.44,-98.93 142.75,-95.46 187.99,-85.2 239.74,-80.3 281.18,-77.98"/>
<polygon fill="orange" stroke="orange" points="96.12,-107.2 88.18,-114.21 98.77,-113.68 96.12,-107.2"/>
<text text-anchor="start" x="142.75" y="-110.96" font-family="Helvetica,sans-Serif" font-size="10.00"> &lt; detail::enable_operators</text>
<text text-anchor="middle" x="203.12" y="-98.21" font-family="Helvetica,sans-Serif" font-size="10.00">_base_tag &gt;</text>
</g>
<!-- Node4 -->
<g id="node4" class="node">
<title>Node4</title>
<g id="a_node4"><a xlink:href="../../d9/de4/classsl_1_1functional_1_1closure__base__fn.html" target="_top" xlink:title="Helper type which simply stores functional objects or function pointers.">
<polygon fill="white" stroke="#666666" points="885.75,-146.71 775.25,-146.71 775.25,-113.21 885.75,-113.21 885.75,-146.71"/>
<text text-anchor="start" x="783.25" y="-133.21" font-family="Helvetica,sans-Serif" font-size="10.00">sl::functional::closure</text>
<text text-anchor="middle" x="830.5" y="-120.46" font-family="Helvetica,sans-Serif" font-size="10.00">_base_fn&lt; TFunc &gt;</text>
</a>
</g>
</g>
<!-- Node4&#45;&gt;Node1 -->
<g id="edge3" class="edge">
<title>Node4&#45;&gt;Node1</title>
<path fill="none" stroke="#63b8ff" d="M896.86,-129.96C959.14,-129.96 1052.06,-129.96 1112.01,-129.96"/>
<polygon fill="#63b8ff" stroke="#63b8ff" points="896.99,-126.46 886.99,-129.96 896.99,-133.46 896.99,-126.46"/>
</g>
<!-- Node5&#45;&gt;Node4 -->
<g id="edge4" class="edge">
<title>Node5&#45;&gt;Node4</title>
<path fill="none" stroke="#8b1a1a" d="M429.55,-129.11C523.51,-129.31 689.42,-129.66 775.02,-129.84"/>
<polygon fill="#8b1a1a" stroke="#8b1a1a" points="429.74,-125.6 419.73,-129.08 429.72,-132.6 429.74,-125.6"/>
</g>
<!-- Node6 -->
<g id="node6" class="node">
<title>Node6</title>
<g id="a_node6"><a xlink:href="../../d0/d50/structsl_1_1functional_1_1enable__operation.html" target="_top" xlink:title=" ">
<polygon fill="white" stroke="#666666" points="1075.25,-81.83 909.25,-81.83 909.25,-10.08 1075.25,-10.08 1075.25,-81.83"/>
<text text-anchor="start" x="917.25" y="-68.33" font-family="Helvetica,sans-Serif" font-size="10.00">sl::functional::enable</text>
<text text-anchor="start" x="917.25" y="-55.58" font-family="Helvetica,sans-Serif" font-size="10.00">_operation&lt; algorithm</text>
<text text-anchor="start" x="917.25" y="-42.83" font-family="Helvetica,sans-Serif" font-size="10.00">_fn, functional::operators</text>
<text text-anchor="start" x="917.25" y="-30.08" font-family="Helvetica,sans-Serif" font-size="10.00">::bind_back, functional::operators</text>
<text text-anchor="middle" x="992.25" y="-17.33" font-family="Helvetica,sans-Serif" font-size="10.00">::bind_front &gt;</text>
</a>
</g>
</g>
<!-- Node6&#45;&gt;Node1 -->
<g id="edge6" class="edge">
<title>Node6&#45;&gt;Node1</title>
<path fill="none" stroke="#63b8ff" d="M1079.81,-86.95C1099.18,-96.13 1118.69,-105.36 1134.64,-112.92"/>
<polygon fill="#63b8ff" stroke="#63b8ff" points="1081.55,-83.43 1071.02,-82.31 1078.56,-89.76 1081.55,-83.43"/>
</g>
<!-- Node7&#45;&gt;Node6 -->
<g id="edge7" class="edge">
<title>Node7&#45;&gt;Node6</title>
<path fill="none" stroke="#8b1a1a" d="M448.27,-84.74C554.13,-93.37 736.86,-102.06 891.25,-77.96 897.01,-77.06 902.9,-75.88 908.78,-74.52"/>
<polygon fill="#8b1a1a" stroke="#8b1a1a" points="448.58,-81.17 438.33,-83.83 448,-88.15 448.58,-81.17"/>
</g>
<!-- Node9 -->
<g id="node9" class="node">
<title>Node9</title>
<g id="a_node9"><a xlink:href="../../d0/d50/structsl_1_1functional_1_1enable__operation.html" target="_top" xlink:title=" ">
<polygon fill="white" stroke="#666666" points="751.75,-64.08 591.75,-64.08 591.75,-17.83 751.75,-17.83 751.75,-64.08"/>
<text text-anchor="start" x="599.75" y="-50.58" font-family="Helvetica,sans-Serif" font-size="10.00">sl::functional::enable</text>
<text text-anchor="start" x="599.75" y="-37.83" font-family="Helvetica,sans-Serif" font-size="10.00">_operation&lt; TClosureTemplate,</text>
<text text-anchor="middle" x="671.75" y="-25.08" font-family="Helvetica,sans-Serif" font-size="10.00"> TOperationTags &gt;</text>
</a>
</g>
</g>
<!-- Node7&#45;&gt;Node9 -->
<g id="edge11" class="edge">
<title>Node7&#45;&gt;Node9</title>
<path fill="none" stroke="#8b1a1a" d="M448.33,-66.03C493.31,-60.96 547.6,-54.84 591.29,-49.92"/>
<polygon fill="#8b1a1a" stroke="#8b1a1a" points="447.95,-62.66 438.4,-67.26 448.73,-69.62 447.95,-62.66"/>
</g>
<!-- Node8 -->
<g id="node8" class="node">
<title>Node8</title>
<g id="a_node8"><a xlink:title=" ">
<polygon fill="white" stroke="#666666" points="404,-24.33 314.5,-24.33 314.5,-3.58 404,-3.58 404,-24.33"/>
<text text-anchor="middle" x="359.25" y="-10.83" font-family="Helvetica,sans-Serif" font-size="10.00">TOperationTags</text>
</a>
</g>
</g>
<!-- Node8&#45;&gt;Node6 -->
<g id="edge9" class="edge">
<title>Node8&#45;&gt;Node6</title>
<path fill="none" stroke="#63b8ff" d="M415.07,-8.83C511.97,-1.01 719.48,10.11 891.25,-18.96 897.01,-19.93 902.92,-21.1 908.85,-22.38"/>
<polygon fill="#63b8ff" stroke="#63b8ff" points="415.05,-5.4 405.37,-9.72 415.63,-12.38 415.05,-5.4"/>
</g>
<!-- Node8&#45;&gt;Node9 -->
<g id="edge12" class="edge">
<title>Node8&#45;&gt;Node9</title>
<path fill="none" stroke="#63b8ff" d="M415.08,-18.73C463.97,-22.98 536.14,-29.25 591.34,-34.05"/>
<polygon fill="#63b8ff" stroke="#63b8ff" points="415.67,-15.18 405.41,-17.8 415.07,-22.15 415.67,-15.18"/>
</g>
<!-- Node9&#45;&gt;Node6 -->
<g id="edge10" class="edge">
<title>Node9&#45;&gt;Node6</title>
<path fill="none" stroke="orange" stroke-dasharray="5,2" d="M762.92,-27.5C765.21,-27.3 767.5,-27.12 769.75,-26.96 823.61,-23.09 837.49,-21.9 891.25,-26.96 896.97,-27.5 902.85,-28.21 908.75,-29.03"/>
<polygon fill="orange" stroke="orange" points="762.66,-24.11 753.05,-28.57 763.35,-31.08 762.66,-24.11"/>
<text text-anchor="start" x="769.75" y="-68.46" font-family="Helvetica,sans-Serif" font-size="10.00"> &lt; algorithm_fn, functional</text>
<text text-anchor="start" x="769.75" y="-55.71" font-family="Helvetica,sans-Serif" font-size="10.00">::operators::bind_back,</text>
<text text-anchor="start" x="769.75" y="-42.96" font-family="Helvetica,sans-Serif" font-size="10.00"> functional::operators::bind</text>
<text text-anchor="middle" x="830.5" y="-30.21" font-family="Helvetica,sans-Serif" font-size="10.00">_front &gt;</text>
</g>
</g>
</svg>
