<?xml version="1.0" encoding="UTF-8" standalone="no"?>
<!DOCTYPE svg PUBLIC "-//W3C//DTD SVG 1.1//EN"
 "http://www.w3.org/Graphics/SVG/1.1/DTD/svg11.dtd">
<!-- Generated by graphviz version 2.43.0 (0)
 -->
<!-- Title: /home/runner/work/Simple&#45;Utility/Simple&#45;Utility/include/Simple&#45;Utility/nullables/value_or.hpp Pages: 1 -->
<!--zoomable 385 -->
<svg id="main" version="1.1" xmlns="http://www.w3.org/2000/svg" xmlns:xlink="http://www.w3.org/1999/xlink" xml:space="preserve" onload="init(evt)">
<style type="text/css"><![CDATA[
.edge:hover path { stroke: red; }
.edge:hover polygon { stroke: red; fill: red; }
]]></style>
<script type="text/javascript"><![CDATA[
var edges = document.getElementsByTagName('g');
if (edges && edges.length) {
  for (var i=0;i<edges.length;i++) {
    if (edges[i].id.substr(0,4)=='edge') {
      edges[i].setAttribute('class','edge');
    }
  }
}
]]></script>
        <defs>
                <circle id="rim" cx="0" cy="0" r="7"/>
                <circle id="rim2" cx="0" cy="0" r="3.5"/>
                <g id="zoomPlus">
                        <use xlink:href="#rim" fill="#404040">
                                <set attributeName="fill" to="#808080" begin="zoomplus.mouseover" end="zoomplus.mouseout"/>
                        </use>
                        <path d="M-4,0h8M0,-4v8" fill="none" stroke="white" stroke-width="1.5" pointer-events="none"/>
                </g>
                <g id="zoomMin">
                        <use xlink:href="#rim" fill="#404040">
                                <set attributeName="fill" to="#808080" begin="zoomminus.mouseover" end="zoomminus.mouseout"/>
                        </use>
                        <path d="M-4,0h8" fill="none" stroke="white" stroke-width="1.5" pointer-events="none"/>
                </g>
                <g id="dirArrow">
                        <path fill="none" stroke="white" stroke-width="1.5" d="M0,-3.0v7 M-2.5,-0.5L0,-3.0L2.5,-0.5"/>
                </g>
               <g id="resetDef">
                       <use xlink:href="#rim2" fill="#404040">
                               <set attributeName="fill" to="#808080" begin="reset.mouseover" end="reset.mouseout"/>
                       </use>
               </g>
        </defs>

<script type="text/javascript">
var viewWidth = 1097;
var viewHeight = 385;
var sectionId = 'dynsection-0';
</script>
<script xlink:href="../../svgpan.js"/>
<svg id="graph" class="graph">
<g id="viewport">
<title>/home/runner/work/Simple&#45;Utility/Simple&#45;Utility/include/Simple&#45;Utility/nullables/value_or.hpp</title>
<polygon fill="white" stroke="transparent" points="-4,4 -4,-381 1093.24,-381 1093.24,4 -4,4"/>
<!-- Node1 -->
<g id="node1" class="node">
<title>Node1</title>
<g id="a_node1"><a xlink:title=" ">
<polygon fill="#bfbfbf" stroke="black" points="338.5,-324.5 338.5,-376.5 484.5,-376.5 484.5,-324.5 338.5,-324.5"/>
<text text-anchor="start" x="346.5" y="-364.5" font-family="Helvetica,sans-Serif" font-size="10.00">/home/runner/work/Simple</text>
<text text-anchor="start" x="346.5" y="-353.5" font-family="Helvetica,sans-Serif" font-size="10.00">&#45;Utility/Simple&#45;Utility</text>
<text text-anchor="start" x="346.5" y="-342.5" font-family="Helvetica,sans-Serif" font-size="10.00">/include/Simple&#45;Utility</text>
<text text-anchor="middle" x="411.5" y="-331.5" font-family="Helvetica,sans-Serif" font-size="10.00">/nullables/value_or.hpp</text>
</a>
</g>
</g>
<!-- Node2 -->
<g id="node2" class="node">
<title>Node2</title>
<g id="a_node2"><a xlink:href="../../d6/dbe/nullables_2base_8hpp.html" target="_top" xlink:title=" ">
<polygon fill="white" stroke="black" points="194,-257.5 194,-287.5 325,-287.5 325,-257.5 194,-257.5"/>
<text text-anchor="start" x="202" y="-275.5" font-family="Helvetica,sans-Serif" font-size="10.00">Simple&#45;Utility/nullables</text>
<text text-anchor="middle" x="259.5" y="-264.5" font-family="Helvetica,sans-Serif" font-size="10.00">/base.hpp</text>
</a>
</g>
</g>
<!-- Node1&#45;&gt;Node2 -->
<g id="edge1" class="edge">
<title>Node1&#45;&gt;Node2</title>
<path fill="none" stroke="midnightblue" d="M361.31,-324.4C340.35,-313.93 316.43,-301.96 297.03,-292.27"/>
<polygon fill="midnightblue" stroke="midnightblue" points="298.42,-289.05 287.91,-287.71 295.29,-295.31 298.42,-289.05"/>
</g>
<!-- Node17 -->
<g id="node17" class="node">
<title>Node17</title>
<g id="a_node17"><a xlink:href="../../d6/deb/transform_8hpp.html" target="_top" xlink:title=" ">
<polygon fill="white" stroke="black" points="343.5,-257.5 343.5,-287.5 479.5,-287.5 479.5,-257.5 343.5,-257.5"/>
<text text-anchor="start" x="351.5" y="-275.5" font-family="Helvetica,sans-Serif" font-size="10.00">Simple&#45;Utility/functional</text>
<text text-anchor="middle" x="411.5" y="-264.5" font-family="Helvetica,sans-Serif" font-size="10.00">/transform.hpp</text>
</a>
</g>
</g>
<!-- Node1&#45;&gt;Node17 -->
<g id="edge27" class="edge">
<title>Node1&#45;&gt;Node17</title>
<path fill="none" stroke="midnightblue" d="M411.5,-324.19C411.5,-315.79 411.5,-306.44 411.5,-298.09"/>
<polygon fill="midnightblue" stroke="midnightblue" points="415,-297.85 411.5,-287.85 408,-297.85 415,-297.85"/>
</g>
<!-- Node19 -->
<g id="node19" class="node">
<title>Node19</title>
<g id="a_node19"><a xlink:href="../../d2/dc8/bind__back_8hpp.html" target="_top" xlink:title=" ">
<polygon fill="white" stroke="black" points="901.5,-123.5 901.5,-153.5 1009.5,-153.5 1009.5,-123.5 901.5,-123.5"/>
<text text-anchor="start" x="909.5" y="-141.5" font-family="Helvetica,sans-Serif" font-size="10.00">Simple&#45;Utility/bind</text>
<text text-anchor="middle" x="955.5" y="-130.5" font-family="Helvetica,sans-Serif" font-size="10.00">_back.hpp</text>
</a>
</g>
</g>
<!-- Node1&#45;&gt;Node19 -->
<g id="edge34" class="edge">
<title>Node1&#45;&gt;Node19</title>
<path fill="none" stroke="midnightblue" d="M476.31,-324.48C587.71,-281.48 812.86,-194.56 909.61,-157.22"/>
<polygon fill="midnightblue" stroke="midnightblue" points="911.05,-160.41 919.11,-153.55 908.52,-153.88 911.05,-160.41"/>
</g>
<!-- Node3 -->
<g id="node3" class="node">
<title>Node3</title>
<g id="a_node3"><a xlink:href="../../dd/d5c/stl__extensions_8hpp.html" target="_top" xlink:title=" ">
<polygon fill="white" stroke="black" points="66,-56.5 66,-86.5 197,-86.5 197,-56.5 66,-56.5"/>
<text text-anchor="start" x="74" y="-74.5" font-family="Helvetica,sans-Serif" font-size="10.00">Simple&#45;Utility/concepts</text>
<text text-anchor="middle" x="131.5" y="-63.5" font-family="Helvetica,sans-Serif" font-size="10.00">/stl_extensions.hpp</text>
</a>
</g>
</g>
<!-- Node2&#45;&gt;Node3 -->
<g id="edge2" class="edge">
<title>Node2&#45;&gt;Node3</title>
<path fill="none" stroke="midnightblue" d="M244.11,-257.39C234.1,-247.74 221.15,-234.32 211.5,-221 181.7,-179.88 155.57,-126.34 141.81,-96.06"/>
<polygon fill="midnightblue" stroke="midnightblue" points="144.91,-94.43 137.62,-86.74 138.52,-97.3 144.91,-94.43"/>
</g>
<!-- Node5 -->
<g id="node5" class="node">
<title>Node5</title>
<g id="a_node5"><a xlink:href="../../dd/dcd/operators_8hpp.html" target="_top" xlink:title=" ">
<polygon fill="white" stroke="black" points="0,-123.5 0,-153.5 131,-153.5 131,-123.5 0,-123.5"/>
<text text-anchor="start" x="8" y="-141.5" font-family="Helvetica,sans-Serif" font-size="10.00">Simple&#45;Utility/concepts</text>
<text text-anchor="middle" x="65.5" y="-130.5" font-family="Helvetica,sans-Serif" font-size="10.00">/operators.hpp</text>
</a>
</g>
</g>
<!-- Node2&#45;&gt;Node5 -->
<g id="edge4" class="edge">
<title>Node2&#45;&gt;Node5</title>
<path fill="none" stroke="midnightblue" d="M233.82,-257.45C216.47,-247.71 193.23,-234.17 173.5,-221 144.35,-201.54 112.5,-177.08 90.99,-160.06"/>
<polygon fill="midnightblue" stroke="midnightblue" points="93.01,-157.19 83,-153.7 88.65,-162.67 93.01,-157.19"/>
</g>
<!-- Node6 -->
<g id="node6" class="node">
<title>Node6</title>
<g id="a_node6"><a xlink:href="../../d1/d76/functional_2base_8hpp.html" target="_top" xlink:title=" ">
<polygon fill="white" stroke="black" points="425.5,-123.5 425.5,-153.5 561.5,-153.5 561.5,-123.5 425.5,-123.5"/>
<text text-anchor="start" x="433.5" y="-141.5" font-family="Helvetica,sans-Serif" font-size="10.00">Simple&#45;Utility/functional</text>
<text text-anchor="middle" x="493.5" y="-130.5" font-family="Helvetica,sans-Serif" font-size="10.00">/base.hpp</text>
</a>
</g>
</g>
<!-- Node2&#45;&gt;Node6 -->
<g id="edge6" class="edge">
<title>Node2&#45;&gt;Node6</title>
<path fill="none" stroke="midnightblue" d="M284.2,-257.48C312.87,-241.22 361.58,-213.62 403.5,-190 421.94,-179.61 442.52,-168.06 459.35,-158.62"/>
<polygon fill="midnightblue" stroke="midnightblue" points="461.26,-161.57 468.27,-153.62 457.84,-155.46 461.26,-161.57"/>
</g>
<!-- Node8 -->
<g id="node8" class="node">
<title>Node8</title>
<g id="a_node8"><a xlink:title=" ">
<polygon fill="white" stroke="#bfbfbf" points="593,-0.5 593,-19.5 662,-19.5 662,-0.5 593,-0.5"/>
<text text-anchor="middle" x="627.5" y="-7.5" font-family="Helvetica,sans-Serif" font-size="10.00">type_traits</text>
</a>
</g>
</g>
<!-- Node2&#45;&gt;Node8 -->
<g id="edge26" class="edge">
<title>Node2&#45;&gt;Node8</title>
<path fill="none" stroke="midnightblue" d="M252.52,-257.49C234.76,-219.61 192.78,-114.15 244.5,-56 266.69,-31.05 486.85,-17.66 582.98,-12.96"/>
<polygon fill="midnightblue" stroke="midnightblue" points="583.16,-16.46 592.98,-12.48 582.83,-9.47 583.16,-16.46"/>
</g>
<!-- Node10 -->
<g id="node10" class="node">
<title>Node10</title>
<g id="a_node10"><a xlink:href="../../d4/d1c/unified__base_8hpp.html" target="_top" xlink:title=" ">
<polygon fill="white" stroke="black" points="253.5,-56.5 253.5,-86.5 373.5,-86.5 373.5,-56.5 253.5,-56.5"/>
<text text-anchor="start" x="261.5" y="-74.5" font-family="Helvetica,sans-Serif" font-size="10.00">Simple&#45;Utility/unified</text>
<text text-anchor="middle" x="313.5" y="-63.5" font-family="Helvetica,sans-Serif" font-size="10.00">_base.hpp</text>
</a>
</g>
</g>
<!-- Node2&#45;&gt;Node10 -->
<g id="edge24" class="edge">
<title>Node2&#45;&gt;Node10</title>
<path fill="none" stroke="midnightblue" d="M263.38,-257.19C272.55,-223.41 295.61,-138.44 306.97,-96.57"/>
<polygon fill="midnightblue" stroke="midnightblue" points="310.41,-97.25 309.65,-86.68 303.65,-95.42 310.41,-97.25"/>
</g>
<!-- Node12 -->
<g id="node12" class="node">
<title>Node12</title>
<g id="a_node12"><a xlink:href="../../d9/d76/bind_8hpp.html" target="_top" xlink:title=" ">
<polygon fill="white" stroke="black" points="425.5,-190.5 425.5,-220.5 561.5,-220.5 561.5,-190.5 425.5,-190.5"/>
<text text-anchor="start" x="433.5" y="-208.5" font-family="Helvetica,sans-Serif" font-size="10.00">Simple&#45;Utility/functional</text>
<text text-anchor="middle" x="493.5" y="-197.5" font-family="Helvetica,sans-Serif" font-size="10.00">/operators/bind.hpp</text>
</a>
</g>
</g>
<!-- Node2&#45;&gt;Node12 -->
<g id="edge17" class="edge">
<title>Node2&#45;&gt;Node12</title>
<path fill="none" stroke="midnightblue" d="M309.99,-257.48C346,-247.47 394.6,-233.97 432.74,-223.38"/>
<polygon fill="midnightblue" stroke="midnightblue" points="434,-226.66 442.7,-220.61 432.13,-219.92 434,-226.66"/>
</g>
<!-- Node16 -->
<g id="node16" class="node">
<title>Node16</title>
<g id="a_node16"><a xlink:title=" ">
<polygon fill="white" stroke="#bfbfbf" points="68,-196 68,-215 121,-215 121,-196 68,-196"/>
<text text-anchor="middle" x="94.5" y="-203" font-family="Helvetica,sans-Serif" font-size="10.00">cstddef</text>
</a>
</g>
</g>
<!-- Node2&#45;&gt;Node16 -->
<g id="edge25" class="edge">
<title>Node2&#45;&gt;Node16</title>
<path fill="none" stroke="midnightblue" d="M223.7,-257.4C194.49,-245.89 153.64,-229.8 125.74,-218.81"/>
<polygon fill="midnightblue" stroke="midnightblue" points="126.68,-215.42 116.09,-215.01 124.12,-221.93 126.68,-215.42"/>
</g>
<!-- Node4 -->
<g id="node4" class="node">
<title>Node4</title>
<g id="a_node4"><a xlink:title=" ">
<polygon fill="white" stroke="#bfbfbf" points="371.5,-0.5 371.5,-19.5 431.5,-19.5 431.5,-0.5 371.5,-0.5"/>
<text text-anchor="middle" x="401.5" y="-7.5" font-family="Helvetica,sans-Serif" font-size="10.00">concepts</text>
</a>
</g>
</g>
<!-- Node3&#45;&gt;Node4 -->
<g id="edge3" class="edge">
<title>Node3&#45;&gt;Node4</title>
<path fill="none" stroke="midnightblue" d="M195.14,-56.47C246.53,-45.15 317.26,-29.56 361.15,-19.89"/>
<polygon fill="midnightblue" stroke="midnightblue" points="362.15,-23.26 371.16,-17.69 360.64,-16.42 362.15,-23.26"/>
</g>
<!-- Node5&#45;&gt;Node4 -->
<g id="edge5" class="edge">
<title>Node5&#45;&gt;Node4</title>
<path fill="none" stroke="midnightblue" d="M58.15,-123.19C50.07,-105.22 40.25,-74.51 56.5,-56 76.37,-33.37 274.58,-18.69 361.27,-13.31"/>
<polygon fill="midnightblue" stroke="midnightblue" points="361.5,-16.8 371.27,-12.7 361.07,-9.81 361.5,-16.8"/>
</g>
<!-- Node6&#45;&gt;Node3 -->
<g id="edge14" class="edge">
<title>Node6&#45;&gt;Node3</title>
<path fill="none" stroke="midnightblue" d="M425.41,-125.27C363.3,-114.12 271.65,-97.66 207.24,-86.1"/>
<polygon fill="midnightblue" stroke="midnightblue" points="207.61,-82.61 197.15,-84.29 206.37,-89.5 207.61,-82.61"/>
</g>
<!-- Node6&#45;&gt;Node4 -->
<g id="edge7" class="edge">
<title>Node6&#45;&gt;Node4</title>
<path fill="none" stroke="midnightblue" d="M464.44,-123.46C449.55,-114.87 432.32,-102.54 421.5,-87 409.59,-69.9 404.77,-46.15 402.82,-29.77"/>
<polygon fill="midnightblue" stroke="midnightblue" points="406.31,-29.41 401.88,-19.78 399.34,-30.07 406.31,-29.41"/>
</g>
<!-- Node7 -->
<g id="node7" class="node">
<title>Node7</title>
<g id="a_node7"><a xlink:title=" ">
<polygon fill="white" stroke="#bfbfbf" points="656,-62 656,-81 721,-81 721,-62 656,-62"/>
<text text-anchor="middle" x="688.5" y="-69" font-family="Helvetica,sans-Serif" font-size="10.00">functional</text>
</a>
</g>
</g>
<!-- Node6&#45;&gt;Node7 -->
<g id="edge8" class="edge">
<title>Node6&#45;&gt;Node7</title>
<path fill="none" stroke="midnightblue" d="M535.81,-123.4C570.94,-111.69 620.31,-95.23 653.3,-84.23"/>
<polygon fill="midnightblue" stroke="midnightblue" points="654.6,-87.49 662.98,-81.01 652.39,-80.85 654.6,-87.49"/>
</g>
<!-- Node6&#45;&gt;Node8 -->
<g id="edge9" class="edge">
<title>Node6&#45;&gt;Node8</title>
<path fill="none" stroke="midnightblue" d="M519.73,-123.39C535.43,-114.22 555.23,-101.33 570.5,-87 589.4,-69.26 606.57,-44.66 617.02,-28.31"/>
<polygon fill="midnightblue" stroke="midnightblue" points="620.04,-30.08 622.36,-19.75 614.1,-26.38 620.04,-30.08"/>
</g>
<!-- Node9 -->
<g id="node9" class="node">
<title>Node9</title>
<g id="a_node9"><a xlink:href="../../d8/dd2/_config_8hpp.html" target="_top" xlink:title=" ">
<polygon fill="white" stroke="black" points="739,-62 739,-81 878,-81 878,-62 739,-62"/>
<text text-anchor="middle" x="808.5" y="-69" font-family="Helvetica,sans-Serif" font-size="10.00">Simple&#45;Utility/Config.hpp</text>
</a>
</g>
</g>
<!-- Node6&#45;&gt;Node9 -->
<g id="edge10" class="edge">
<title>Node6&#45;&gt;Node9</title>
<path fill="none" stroke="midnightblue" d="M561.46,-123.48C620.25,-111.34 703.96,-94.07 757.26,-83.07"/>
<polygon fill="midnightblue" stroke="midnightblue" points="758.08,-86.48 767.17,-81.03 756.67,-79.62 758.08,-86.48"/>
</g>
<!-- Node6&#45;&gt;Node10 -->
<g id="edge11" class="edge">
<title>Node6&#45;&gt;Node10</title>
<path fill="none" stroke="midnightblue" d="M454.44,-123.4C427.32,-113.6 390.99,-100.48 362,-90.02"/>
<polygon fill="midnightblue" stroke="midnightblue" points="363.08,-86.68 352.48,-86.58 360.7,-93.26 363.08,-86.68"/>
</g>
<!-- Node11 -->
<g id="node11" class="node">
<title>Node11</title>
<g id="a_node11"><a xlink:href="../../d5/d8e/concepts_2utility_8hpp.html" target="_top" xlink:title=" ">
<polygon fill="white" stroke="black" points="430,-56.5 430,-86.5 561,-86.5 561,-56.5 430,-56.5"/>
<text text-anchor="start" x="438" y="-74.5" font-family="Helvetica,sans-Serif" font-size="10.00">Simple&#45;Utility/concepts</text>
<text text-anchor="middle" x="495.5" y="-63.5" font-family="Helvetica,sans-Serif" font-size="10.00">/utility.hpp</text>
</a>
</g>
</g>
<!-- Node6&#45;&gt;Node11 -->
<g id="edge15" class="edge">
<title>Node6&#45;&gt;Node11</title>
<path fill="none" stroke="midnightblue" d="M493.93,-123.4C494.17,-115.64 494.48,-105.81 494.75,-96.86"/>
<polygon fill="midnightblue" stroke="midnightblue" points="498.26,-96.68 495.07,-86.58 491.26,-96.46 498.26,-96.68"/>
</g>
<!-- Node10&#45;&gt;Node4 -->
<g id="edge12" class="edge">
<title>Node10&#45;&gt;Node4</title>
<path fill="none" stroke="midnightblue" d="M334.35,-56.4C348.2,-47.04 366.31,-34.79 380.24,-25.38"/>
<polygon fill="midnightblue" stroke="midnightblue" points="382.37,-28.16 388.7,-19.66 378.45,-22.36 382.37,-28.16"/>
</g>
<!-- Node10&#45;&gt;Node8 -->
<g id="edge13" class="edge">
<title>Node10&#45;&gt;Node8</title>
<path fill="none" stroke="midnightblue" d="M373.67,-59.1C434.73,-47.53 527.86,-29.88 582.71,-19.49"/>
<polygon fill="midnightblue" stroke="midnightblue" points="583.64,-22.87 592.82,-17.57 582.34,-16 583.64,-22.87"/>
</g>
<!-- Node11&#45;&gt;Node4 -->
<g id="edge16" class="edge">
<title>Node11&#45;&gt;Node4</title>
<path fill="none" stroke="midnightblue" d="M473.22,-56.4C458.3,-46.95 438.72,-34.56 423.79,-25.11"/>
<polygon fill="midnightblue" stroke="midnightblue" points="425.5,-22.05 415.18,-19.66 421.76,-27.96 425.5,-22.05"/>
</g>
<!-- Node12&#45;&gt;Node6 -->
<g id="edge18" class="edge">
<title>Node12&#45;&gt;Node6</title>
<path fill="none" stroke="midnightblue" d="M493.5,-190.4C493.5,-182.64 493.5,-172.81 493.5,-163.86"/>
<polygon fill="midnightblue" stroke="midnightblue" points="497,-163.58 493.5,-153.58 490,-163.58 497,-163.58"/>
</g>
<!-- Node13 -->
<g id="node13" class="node">
<title>Node13</title>
<g id="a_node13"><a xlink:href="../../d2/d30/general_8hpp.html" target="_top" xlink:title=" ">
<polygon fill="white" stroke="black" points="681.5,-123.5 681.5,-153.5 793.5,-153.5 793.5,-123.5 681.5,-123.5"/>
<text text-anchor="start" x="689.5" y="-141.5" font-family="Helvetica,sans-Serif" font-size="10.00">Simple&#45;Utility/tuple</text>
<text text-anchor="middle" x="737.5" y="-130.5" font-family="Helvetica,sans-Serif" font-size="10.00">/general.hpp</text>
</a>
</g>
</g>
<!-- Node12&#45;&gt;Node13 -->
<g id="edge19" class="edge">
<title>Node12&#45;&gt;Node13</title>
<path fill="none" stroke="midnightblue" d="M546.14,-190.48C583.86,-180.43 634.81,-166.86 674.65,-156.24"/>
<polygon fill="midnightblue" stroke="midnightblue" points="675.77,-159.57 684.53,-153.61 673.97,-152.8 675.77,-159.57"/>
</g>
<!-- Node13&#45;&gt;Node4 -->
<g id="edge20" class="edge">
<title>Node13&#45;&gt;Node4</title>
<path fill="none" stroke="midnightblue" d="M712.43,-123.35C680.34,-105.7 622.64,-75.45 570.5,-56 527.58,-39.98 476.54,-27.21 441.87,-19.43"/>
<polygon fill="midnightblue" stroke="midnightblue" points="442.18,-15.91 431.66,-17.17 440.67,-22.75 442.18,-15.91"/>
</g>
<!-- Node13&#45;&gt;Node8 -->
<g id="edge22" class="edge">
<title>Node13&#45;&gt;Node8</title>
<path fill="none" stroke="midnightblue" d="M793.82,-127.9C848.44,-116.17 918.8,-93.18 887.5,-56 860.55,-23.98 739.61,-14.74 672.59,-12.08"/>
<polygon fill="midnightblue" stroke="midnightblue" points="672.43,-8.57 662.31,-11.71 672.18,-15.57 672.43,-8.57"/>
</g>
<!-- Node14 -->
<g id="node14" class="node">
<title>Node14</title>
<g id="a_node14"><a xlink:title=" ">
<polygon fill="white" stroke="#bfbfbf" points="935,-62 935,-81 976,-81 976,-62 935,-62"/>
<text text-anchor="middle" x="955.5" y="-69" font-family="Helvetica,sans-Serif" font-size="10.00">tuple</text>
</a>
</g>
</g>
<!-- Node13&#45;&gt;Node14 -->
<g id="edge21" class="edge">
<title>Node13&#45;&gt;Node14</title>
<path fill="none" stroke="midnightblue" d="M793.71,-123.91C830.19,-114.61 878.58,-101.41 920.5,-87 922.41,-86.34 924.37,-85.63 926.34,-84.9"/>
<polygon fill="midnightblue" stroke="midnightblue" points="928.03,-87.99 936.04,-81.06 925.45,-81.48 928.03,-87.99"/>
</g>
<!-- Node15 -->
<g id="node15" class="node">
<title>Node15</title>
<g id="a_node15"><a xlink:title=" ">
<polygon fill="white" stroke="#bfbfbf" points="994,-62 994,-81 1039,-81 1039,-62 994,-62"/>
<text text-anchor="middle" x="1016.5" y="-69" font-family="Helvetica,sans-Serif" font-size="10.00">utility</text>
</a>
</g>
</g>
<!-- Node13&#45;&gt;Node15 -->
<g id="edge23" class="edge">
<title>Node13&#45;&gt;Node15</title>
<path fill="none" stroke="midnightblue" d="M793.64,-129.95C844.56,-122.2 921.25,-108.23 985.5,-87 987.17,-86.45 988.86,-85.83 990.56,-85.17"/>
<polygon fill="midnightblue" stroke="midnightblue" points="992.27,-88.25 1000.06,-81.07 989.49,-81.82 992.27,-88.25"/>
</g>
<!-- Node17&#45;&gt;Node6 -->
<g id="edge29" class="edge">
<title>Node17&#45;&gt;Node6</title>
<path fill="none" stroke="midnightblue" d="M408.76,-257.45C406.19,-240.29 404.33,-210.97 416.5,-190 424.13,-176.86 436.71,-166.51 449.51,-158.7"/>
<polygon fill="midnightblue" stroke="midnightblue" points="451.38,-161.66 458.35,-153.69 447.93,-155.57 451.38,-161.66"/>
</g>
<!-- Node17&#45;&gt;Node10 -->
<g id="edge28" class="edge">
<title>Node17&#45;&gt;Node10</title>
<path fill="none" stroke="midnightblue" d="M404.45,-257.19C387.71,-223.2 345.44,-137.35 324.96,-95.78"/>
<polygon fill="midnightblue" stroke="midnightblue" points="328.04,-94.11 320.48,-86.68 321.76,-97.2 328.04,-94.11"/>
</g>
<!-- Node17&#45;&gt;Node12 -->
<g id="edge30" class="edge">
<title>Node17&#45;&gt;Node12</title>
<path fill="none" stroke="midnightblue" d="M429.29,-257.4C440.58,-248.45 455.35,-236.74 467.89,-226.8"/>
<polygon fill="midnightblue" stroke="midnightblue" points="470.08,-229.53 475.74,-220.58 465.73,-224.05 470.08,-229.53"/>
</g>
<!-- Node18 -->
<g id="node18" class="node">
<title>Node18</title>
<g id="a_node18"><a xlink:href="../../d5/db7/pipe_8hpp.html" target="_top" xlink:title=" ">
<polygon fill="white" stroke="black" points="579.5,-190.5 579.5,-220.5 715.5,-220.5 715.5,-190.5 579.5,-190.5"/>
<text text-anchor="start" x="587.5" y="-208.5" font-family="Helvetica,sans-Serif" font-size="10.00">Simple&#45;Utility/functional</text>
<text text-anchor="middle" x="647.5" y="-197.5" font-family="Helvetica,sans-Serif" font-size="10.00">/operators/pipe.hpp</text>
</a>
</g>
</g>
<!-- Node17&#45;&gt;Node18 -->
<g id="edge31" class="edge">
<title>Node17&#45;&gt;Node18</title>
<path fill="none" stroke="midnightblue" d="M462.42,-257.48C498.74,-247.47 547.76,-233.97 586.22,-223.38"/>
<polygon fill="midnightblue" stroke="midnightblue" points="587.55,-226.64 596.27,-220.61 585.7,-219.89 587.55,-226.64"/>
</g>
<!-- Node18&#45;&gt;Node6 -->
<g id="edge32" class="edge">
<title>Node18&#45;&gt;Node6</title>
<path fill="none" stroke="midnightblue" d="M614.08,-190.4C591.28,-180.77 560.87,-167.94 536.3,-157.56"/>
<polygon fill="midnightblue" stroke="midnightblue" points="537.42,-154.24 526.85,-153.58 534.7,-160.69 537.42,-154.24"/>
</g>
<!-- Node18&#45;&gt;Node13 -->
<g id="edge33" class="edge">
<title>Node18&#45;&gt;Node13</title>
<path fill="none" stroke="midnightblue" d="M667.03,-190.4C679.53,-181.37 695.94,-169.51 709.78,-159.52"/>
<polygon fill="midnightblue" stroke="midnightblue" points="711.95,-162.27 718.01,-153.58 707.85,-156.59 711.95,-162.27"/>
</g>
<!-- Node19&#45;&gt;Node4 -->
<g id="edge36" class="edge">
<title>Node19&#45;&gt;Node4</title>
<path fill="none" stroke="midnightblue" d="M992.21,-123.46C1027.59,-107.95 1072.52,-81.75 1048.5,-56 1038.1,-44.85 582.1,-20.35 442.01,-13.08"/>
<polygon fill="midnightblue" stroke="midnightblue" points="441.88,-9.57 431.71,-12.54 441.52,-16.56 441.88,-9.57"/>
</g>
<!-- Node19&#45;&gt;Node7 -->
<g id="edge37" class="edge">
<title>Node19&#45;&gt;Node7</title>
<path fill="none" stroke="midnightblue" d="M901.43,-127.13C855.59,-117.92 788.27,-103.4 730.5,-87 727.55,-86.16 724.51,-85.24 721.47,-84.27"/>
<polygon fill="midnightblue" stroke="midnightblue" points="722.49,-80.92 711.9,-81.1 720.29,-87.57 722.49,-80.92"/>
</g>
<!-- Node19&#45;&gt;Node8 -->
<g id="edge39" class="edge">
<title>Node19&#45;&gt;Node8</title>
<path fill="none" stroke="midnightblue" d="M1009.78,-123.96C1055.35,-110.1 1108.96,-86.31 1081.5,-56 1054.33,-26 781.1,-15.22 672.08,-12.09"/>
<polygon fill="midnightblue" stroke="midnightblue" points="672.15,-8.59 662.05,-11.81 671.95,-15.59 672.15,-8.59"/>
</g>
<!-- Node19&#45;&gt;Node9 -->
<g id="edge35" class="edge">
<title>Node19&#45;&gt;Node9</title>
<path fill="none" stroke="midnightblue" d="M923.6,-123.4C897.81,-111.99 861.83,-96.08 836.99,-85.1"/>
<polygon fill="midnightblue" stroke="midnightblue" points="838.3,-81.85 827.74,-81.01 835.47,-88.25 838.3,-81.85"/>
</g>
<!-- Node19&#45;&gt;Node14 -->
<g id="edge38" class="edge">
<title>Node19&#45;&gt;Node14</title>
<path fill="none" stroke="midnightblue" d="M955.5,-123.4C955.5,-114.06 955.5,-101.71 955.5,-91.52"/>
<polygon fill="midnightblue" stroke="midnightblue" points="959,-91.19 955.5,-81.19 952,-91.19 959,-91.19"/>
</g>
<!-- Node19&#45;&gt;Node15 -->
<g id="edge40" class="edge">
<title>Node19&#45;&gt;Node15</title>
<path fill="none" stroke="midnightblue" d="M968.74,-123.4C978.34,-113.16 991.35,-99.3 1001.37,-88.62"/>
<polygon fill="midnightblue" stroke="midnightblue" points="1004.05,-90.88 1008.34,-81.19 998.95,-86.09 1004.05,-90.88"/>
</g>
</g>
</svg>
        <g id="navigator" transform="translate(0 0)" fill="#404254">
                <rect fill="#f2f5e9" fill-opacity="0.5" stroke="#606060" stroke-width=".5" x="0" y="0" width="60" height="60"/>
                <use id="zoomplus" xlink:href="#zoomPlus" x="17" y="9" onmousedown="handleZoom(evt,'in')"/>
                <use id="zoomminus" xlink:href="#zoomMin" x="42" y="9" onmousedown="handleZoom(evt,'out')"/>
                <use id="reset" xlink:href="#resetDef" x="30" y="36" onmousedown="handleReset()"/>
                <g id="arrowUp" xlink:href="#dirArrow" transform="translate(30 24)" onmousedown="handlePan(0,-1)">
                  <use xlink:href="#rim" fill="#404040">
                        <set attributeName="fill" to="#808080" begin="arrowUp.mouseover" end="arrowUp.mouseout"/>
                  </use>
                  <path fill="none" stroke="white" stroke-width="1.5" d="M0,-3.0v7 M-2.5,-0.5L0,-3.0L2.5,-0.5"/>
                </g>
                <g id="arrowRight" xlink:href="#dirArrow" transform="rotate(90) translate(36 -43)" onmousedown="handlePan(1,0)">
                  <use xlink:href="#rim" fill="#404040">
                        <set attributeName="fill" to="#808080" begin="arrowRight.mouseover" end="arrowRight.mouseout"/>
                  </use>
                  <path fill="none" stroke="white" stroke-width="1.5" d="M0,-3.0v7 M-2.5,-0.5L0,-3.0L2.5,-0.5"/>
                </g>
                <g id="arrowDown" xlink:href="#dirArrow" transform="rotate(180) translate(-30 -48)" onmousedown="handlePan(0,1)">
                  <use xlink:href="#rim" fill="#404040">
                        <set attributeName="fill" to="#808080" begin="arrowDown.mouseover" end="arrowDown.mouseout"/>
                  </use>
                  <path fill="none" stroke="white" stroke-width="1.5" d="M0,-3.0v7 M-2.5,-0.5L0,-3.0L2.5,-0.5"/>
                </g>
                <g id="arrowLeft" xlink:href="#dirArrow" transform="rotate(270) translate(-36 17)" onmousedown="handlePan(-1,0)">
                  <use xlink:href="#rim" fill="#404040">
                        <set attributeName="fill" to="#808080" begin="arrowLeft.mouseover" end="arrowLeft.mouseout"/>
                  </use>
                  <path fill="none" stroke="white" stroke-width="1.5" d="M0,-3.0v7 M-2.5,-0.5L0,-3.0L2.5,-0.5"/>
                </g>
        </g>
        <svg viewBox="0 0 15 15" width="100%" height="30px" preserveAspectRatio="xMaxYMin meet">
         <g id="arrow_out" transform="scale(0.3 0.3)">
          <a xlink:href="value__or_8hpp__incl_org.svg" target="_base">
           <rect id="button" ry="5" rx="5" y="6" x="6" height="38" width="38"
                fill="#f2f5e9" fill-opacity="0.5" stroke="#606060" stroke-width="1.0"/>
           <path id="arrow"
             d="M 11.500037,31.436501 C 11.940474,20.09759 22.043105,11.32322 32.158766,21.979434 L 37.068811,17.246167 C 37.068811,17.246167 37.088388,32 37.088388,32 L 22.160133,31.978069 C 22.160133,31.978069 26.997745,27.140456 26.997745,27.140456 C 18.528582,18.264221 13.291696,25.230495 11.500037,31.436501 z"
             style="fill:#404040;"/>
          </a>
         </g>
        </svg>
</svg>
