<?xml version="1.0" encoding="UTF-8" standalone="no"?>
<!DOCTYPE svg PUBLIC "-//W3C//DTD SVG 1.1//EN"
 "http://www.w3.org/Graphics/SVG/1.1/DTD/svg11.dtd">
<!-- Generated by graphviz version 7.0.5 (20221223.1930)
 -->
<!-- Title: Simple&#45;Utility/nullables/value_or.hpp Pages: 1 -->
<!--zoomable 357 -->
<svg id="main" version="1.1" xmlns="http://www.w3.org/2000/svg" xmlns:xlink="http://www.w3.org/1999/xlink" xml:space="preserve" onload="init(evt)">
<style type="text/css"><![CDATA[
.edge:hover path { stroke: red; }
.edge:hover polygon { stroke: red; fill: red; }
]]></style>
<script type="text/javascript"><![CDATA[
var edges = document.getElementsByTagName('g');
if (edges && edges.length) {
  for (var i=0;i<edges.length;i++) {
    if (edges[i].id.substr(0,4)=='edge') {
      edges[i].setAttribute('class','edge');
    }
  }
}
]]></script>
        <defs>
                <circle id="rim" cx="0" cy="0" r="7"/>
                <circle id="rim2" cx="0" cy="0" r="3.5"/>
                <g id="zoomPlus">
                        <use xlink:href="#rim" fill="#404040">
                                <set attributeName="fill" to="#808080" begin="zoomplus.mouseover" end="zoomplus.mouseout"/>
                        </use>
                        <path d="M-4,0h8M0,-4v8" fill="none" stroke="white" stroke-width="1.5" pointer-events="none"/>
                </g>
                <g id="zoomMin">
                        <use xlink:href="#rim" fill="#404040">
                                <set attributeName="fill" to="#808080" begin="zoomminus.mouseover" end="zoomminus.mouseout"/>
                        </use>
                        <path d="M-4,0h8" fill="none" stroke="white" stroke-width="1.5" pointer-events="none"/>
                </g>
                <g id="dirArrow">
                        <path fill="none" stroke="white" stroke-width="1.5" d="M0,-3.0v7 M-2.5,-0.5L0,-3.0L2.5,-0.5"/>
                </g>
               <g id="resetDef">
                       <use xlink:href="#rim2" fill="#404040">
                               <set attributeName="fill" to="#808080" begin="reset.mouseover" end="reset.mouseout"/>
                       </use>
               </g>
        </defs>

<script type="text/javascript">
var viewWidth = 1055;
var viewHeight = 357;
var sectionId = 'dynsection-0';
</script>
<script xlink:href="../../svgpan.js"/>
<svg id="graph" class="graph">
<g id="viewport">
<title>Simple&#45;Utility/nullables/value_or.hpp</title>
<!-- Node1 -->
<g id="node1" class="node">
<title>Node1</title>
<g id="a_node1"><a xlink:title=" ">
<polygon fill="#999999" stroke="#666666" points="449.5,-349 326.5,-349 326.5,-319 449.5,-319 449.5,-349"/>
<text text-anchor="start" x="334.5" y="-337" font-family="Helvetica,sans-Serif" font-size="10.00">Simple&#45;Utility/nullables</text>
<text text-anchor="middle" x="388" y="-326" font-family="Helvetica,sans-Serif" font-size="10.00">/value_or.hpp</text>
</a>
</g>
</g>
<!-- Node2 -->
<g id="node2" class="node">
<title>Node2</title>
<g id="a_node2"><a xlink:href="../../d6/dbe/nullables_2base_8hpp.html" target="_top" xlink:title=" ">
<polygon fill="white" stroke="#666666" points="297.5,-283 174.5,-283 174.5,-253 297.5,-253 297.5,-283"/>
<text text-anchor="start" x="182.5" y="-271" font-family="Helvetica,sans-Serif" font-size="10.00">Simple&#45;Utility/nullables</text>
<text text-anchor="middle" x="236" y="-260" font-family="Helvetica,sans-Serif" font-size="10.00">/base.hpp</text>
</a>
</g>
</g>
<!-- Node1&#45;&gt;Node2 -->
<g id="edge1" class="edge">
<title>Node1&#45;&gt;Node2</title>
<path fill="none" stroke="#63b8ff" d="M353.89,-318.64C332.26,-309.53 304.04,-297.65 280.63,-287.79"/>
<polygon fill="#63b8ff" stroke="#63b8ff" points="282.23,-284.67 271.66,-284.01 279.51,-291.12 282.23,-284.67"/>
</g>
<!-- Node17 -->
<g id="node17" class="node">
<title>Node17</title>
<g id="a_node17"><a xlink:href="../../d6/deb/transform_8hpp.html" target="_top" xlink:title=" ">
<polygon fill="white" stroke="#666666" points="452,-283 324,-283 324,-253 452,-253 452,-283"/>
<text text-anchor="start" x="332" y="-271" font-family="Helvetica,sans-Serif" font-size="10.00">Simple&#45;Utility/functional</text>
<text text-anchor="middle" x="388" y="-260" font-family="Helvetica,sans-Serif" font-size="10.00">/transform.hpp</text>
</a>
</g>
</g>
<!-- Node1&#45;&gt;Node17 -->
<g id="edge27" class="edge">
<title>Node1&#45;&gt;Node17</title>
<path fill="none" stroke="#63b8ff" d="M388,-318.8C388,-311.67 388,-302.82 388,-294.56"/>
<polygon fill="#63b8ff" stroke="#63b8ff" points="391.5,-294.68 388,-284.68 384.5,-294.68 391.5,-294.68"/>
</g>
<!-- Node19 -->
<g id="node19" class="node">
<title>Node19</title>
<g id="a_node19"><a xlink:href="../../d2/dc8/bind__back_8hpp.html" target="_top" xlink:title=" ">
<polygon fill="white" stroke="#666666" points="968,-151 866,-151 866,-121 968,-121 968,-151"/>
<text text-anchor="start" x="874" y="-139" font-family="Helvetica,sans-Serif" font-size="10.00">Simple&#45;Utility/bind</text>
<text text-anchor="middle" x="917" y="-128" font-family="Helvetica,sans-Serif" font-size="10.00">_back.hpp</text>
</a>
</g>
</g>
<!-- Node1&#45;&gt;Node19 -->
<g id="edge34" class="edge">
<title>Node1&#45;&gt;Node19</title>
<path fill="none" stroke="#63b8ff" d="M426.9,-318.59C521.38,-283.58 762.88,-194.1 867.47,-155.35"/>
<polygon fill="#63b8ff" stroke="#63b8ff" points="868.46,-158.72 876.63,-151.96 866.03,-152.15 868.46,-158.72"/>
</g>
<!-- Node3 -->
<g id="node3" class="node">
<title>Node3</title>
<g id="a_node3"><a xlink:href="../../dd/d5c/stl__extensions_8hpp.html" target="_top" xlink:title=" ">
<polygon fill="white" stroke="#666666" points="185,-85 63,-85 63,-55 185,-55 185,-85"/>
<text text-anchor="start" x="71" y="-73" font-family="Helvetica,sans-Serif" font-size="10.00">Simple&#45;Utility/concepts</text>
<text text-anchor="middle" x="124" y="-62" font-family="Helvetica,sans-Serif" font-size="10.00">/stl_extensions.hpp</text>
</a>
</g>
</g>
<!-- Node2&#45;&gt;Node3 -->
<g id="edge2" class="edge">
<title>Node2&#45;&gt;Node3</title>
<path fill="none" stroke="#63b8ff" d="M224.34,-252.56C216.71,-242.81 206.75,-229.48 199,-217 173.4,-175.79 148.68,-124.82 134.99,-95.3"/>
<polygon fill="#63b8ff" stroke="#63b8ff" points="138.29,-94.1 130.94,-86.47 131.93,-97.02 138.29,-94.1"/>
</g>
<!-- Node5 -->
<g id="node5" class="node">
<title>Node5</title>
<g id="a_node5"><a xlink:href="../../dd/dcd/operators_8hpp.html" target="_top" xlink:title=" ">
<polygon fill="white" stroke="#666666" points="122,-151 0,-151 0,-121 122,-121 122,-151"/>
<text text-anchor="start" x="8" y="-139" font-family="Helvetica,sans-Serif" font-size="10.00">Simple&#45;Utility/concepts</text>
<text text-anchor="middle" x="61" y="-128" font-family="Helvetica,sans-Serif" font-size="10.00">/operators.hpp</text>
</a>
</g>
</g>
<!-- Node2&#45;&gt;Node5 -->
<g id="edge4" class="edge">
<title>Node2&#45;&gt;Node5</title>
<path fill="none" stroke="#63b8ff" d="M213.34,-252.62C198.27,-242.89 178.18,-229.56 161,-217 135.13,-198.08 106.68,-175.1 86.76,-158.63"/>
<polygon fill="#63b8ff" stroke="#63b8ff" points="89.08,-156 79.15,-152.31 84.61,-161.39 89.08,-156"/>
</g>
<!-- Node6 -->
<g id="node6" class="node">
<title>Node6</title>
<g id="a_node6"><a xlink:href="../../d1/d76/functional_2base_8hpp.html" target="_top" xlink:title=" ">
<polygon fill="white" stroke="#666666" points="529,-151 401,-151 401,-121 529,-121 529,-151"/>
<text text-anchor="start" x="409" y="-139" font-family="Helvetica,sans-Serif" font-size="10.00">Simple&#45;Utility/functional</text>
<text text-anchor="middle" x="465" y="-128" font-family="Helvetica,sans-Serif" font-size="10.00">/base.hpp</text>
</a>
</g>
</g>
<!-- Node2&#45;&gt;Node6 -->
<g id="edge6" class="edge">
<title>Node2&#45;&gt;Node6</title>
<path fill="none" stroke="#63b8ff" d="M261.38,-252.59C302.31,-229.36 382.98,-183.56 429.55,-157.12"/>
<polygon fill="#63b8ff" stroke="#63b8ff" points="431.22,-160.2 438.19,-152.22 427.76,-154.11 431.22,-160.2"/>
</g>
<!-- Node8 -->
<g id="node8" class="node">
<title>Node8</title>
<g id="a_node8"><a xlink:title=" ">
<polygon fill="#e0e0e0" stroke="#999999" points="631.5,-19 566.5,-19 566.5,0 631.5,0 631.5,-19"/>
<text text-anchor="middle" x="599" y="-7" font-family="Helvetica,sans-Serif" font-size="10.00">type_traits</text>
</a>
</g>
</g>
<!-- Node2&#45;&gt;Node8 -->
<g id="edge26" class="edge">
<title>Node2&#45;&gt;Node8</title>
<path fill="none" stroke="#63b8ff" d="M230.05,-252.67C215.46,-214.95 182.6,-111.9 233,-55 254.04,-31.25 462.03,-17.6 554.77,-12.64"/>
<polygon fill="#63b8ff" stroke="#63b8ff" points="554.69,-16.15 564.5,-12.14 554.33,-9.16 554.69,-16.15"/>
</g>
<!-- Node10 -->
<g id="node10" class="node">
<title>Node10</title>
<g id="a_node10"><a xlink:href="../../d4/d1c/unified__base_8hpp.html" target="_top" xlink:title=" ">
<polygon fill="white" stroke="#666666" points="354.5,-85 241.5,-85 241.5,-55 354.5,-55 354.5,-85"/>
<text text-anchor="start" x="249.5" y="-73" font-family="Helvetica,sans-Serif" font-size="10.00">Simple&#45;Utility/unified</text>
<text text-anchor="middle" x="298" y="-62" font-family="Helvetica,sans-Serif" font-size="10.00">_base.hpp</text>
</a>
</g>
</g>
<!-- Node2&#45;&gt;Node10 -->
<g id="edge24" class="edge">
<title>Node2&#45;&gt;Node10</title>
<path fill="none" stroke="#63b8ff" d="M240.56,-252.59C251.02,-219.53 276.84,-137.89 290.01,-96.27"/>
<polygon fill="#63b8ff" stroke="#63b8ff" points="293.3,-97.47 292.98,-86.88 286.62,-95.36 293.3,-97.47"/>
</g>
<!-- Node12 -->
<g id="node12" class="node">
<title>Node12</title>
<g id="a_node12"><a xlink:href="../../d9/d76/bind_8hpp.html" target="_top" xlink:title=" ">
<polygon fill="white" stroke="#666666" points="529,-217 401,-217 401,-187 529,-187 529,-217"/>
<text text-anchor="start" x="409" y="-205" font-family="Helvetica,sans-Serif" font-size="10.00">Simple&#45;Utility/functional</text>
<text text-anchor="middle" x="465" y="-194" font-family="Helvetica,sans-Serif" font-size="10.00">/operators/bind.hpp</text>
</a>
</g>
</g>
<!-- Node2&#45;&gt;Node12 -->
<g id="edge17" class="edge">
<title>Node2&#45;&gt;Node12</title>
<path fill="none" stroke="#63b8ff" d="M287.68,-252.56C321.75,-243.04 366.57,-230.51 402.62,-220.43"/>
<polygon fill="#63b8ff" stroke="#63b8ff" points="403.36,-223.86 412.05,-217.8 401.48,-217.12 403.36,-223.86"/>
</g>
<!-- Node16 -->
<g id="node16" class="node">
<title>Node16</title>
<g id="a_node16"><a xlink:title=" ">
<polygon fill="#e0e0e0" stroke="#999999" points="109,-211.5 59,-211.5 59,-192.5 109,-192.5 109,-211.5"/>
<text text-anchor="middle" x="84" y="-199.5" font-family="Helvetica,sans-Serif" font-size="10.00">cstddef</text>
</a>
</g>
</g>
<!-- Node2&#45;&gt;Node16 -->
<g id="edge25" class="edge">
<title>Node2&#45;&gt;Node16</title>
<path fill="none" stroke="#63b8ff" d="M201.89,-252.64C176.12,-241.79 141,-227 115.81,-216.39"/>
<polygon fill="#63b8ff" stroke="#63b8ff" points="117.31,-213.23 106.74,-212.57 114.59,-219.68 117.31,-213.23"/>
</g>
<!-- Node4 -->
<g id="node4" class="node">
<title>Node4</title>
<g id="a_node4"><a xlink:title=" ">
<polygon fill="#e0e0e0" stroke="#999999" points="411.5,-19 354.5,-19 354.5,0 411.5,0 411.5,-19"/>
<text text-anchor="middle" x="383" y="-7" font-family="Helvetica,sans-Serif" font-size="10.00">concepts</text>
</a>
</g>
</g>
<!-- Node3&#45;&gt;Node4 -->
<g id="edge3" class="edge">
<title>Node3&#45;&gt;Node4</title>
<path fill="none" stroke="#63b8ff" d="M185.38,-55.14C234.19,-44.11 301.06,-29.01 343.14,-19.5"/>
<polygon fill="#63b8ff" stroke="#63b8ff" points="343.85,-22.93 352.84,-17.31 342.31,-16.1 343.85,-22.93"/>
</g>
<!-- Node5&#45;&gt;Node4 -->
<g id="edge5" class="edge">
<title>Node5&#45;&gt;Node4</title>
<path fill="none" stroke="#63b8ff" d="M54.14,-120.65C46.8,-102.96 38.22,-73.06 54,-55 91.07,-12.58 263.33,-9 342.73,-9.67"/>
<polygon fill="#63b8ff" stroke="#63b8ff" points="342.64,-13.17 352.68,-9.79 342.72,-6.17 342.64,-13.17"/>
</g>
<!-- Node6&#45;&gt;Node3 -->
<g id="edge14" class="edge">
<title>Node6&#45;&gt;Node3</title>
<path fill="none" stroke="#63b8ff" d="M400.86,-122.96C342.65,-112.04 256.9,-95.94 196.28,-84.57"/>
<polygon fill="#63b8ff" stroke="#63b8ff" points="197.23,-81.18 186.76,-82.78 195.94,-88.06 197.23,-81.18"/>
</g>
<!-- Node6&#45;&gt;Node4 -->
<g id="edge7" class="edge">
<title>Node6&#45;&gt;Node4</title>
<path fill="none" stroke="#63b8ff" d="M439.85,-120.63C426.73,-111.91 411.49,-99.65 402,-85 391.35,-68.56 386.67,-46.48 384.61,-30.64"/>
<polygon fill="#63b8ff" stroke="#63b8ff" points="388.12,-30.58 383.61,-21 381.16,-31.3 388.12,-30.58"/>
</g>
<!-- Node7 -->
<g id="node7" class="node">
<title>Node7</title>
<g id="a_node7"><a xlink:title=" ">
<polygon fill="#e0e0e0" stroke="#999999" points="689,-79.5 627,-79.5 627,-60.5 689,-60.5 689,-79.5"/>
<text text-anchor="middle" x="658" y="-67.5" font-family="Helvetica,sans-Serif" font-size="10.00">functional</text>
</a>
</g>
</g>
<!-- Node6&#45;&gt;Node7 -->
<g id="edge8" class="edge">
<title>Node6&#45;&gt;Node7</title>
<path fill="none" stroke="#63b8ff" d="M508.31,-120.64C541.92,-109.49 588.03,-94.2 620.16,-83.55"/>
<polygon fill="#63b8ff" stroke="#63b8ff" points="621.08,-86.93 629.47,-80.46 618.87,-80.29 621.08,-86.93"/>
</g>
<!-- Node6&#45;&gt;Node8 -->
<g id="edge9" class="edge">
<title>Node6&#45;&gt;Node8</title>
<path fill="none" stroke="#63b8ff" d="M491.91,-120.61C507.48,-111.55 526.91,-98.97 542,-85 560.43,-67.94 577.34,-44.4 587.87,-28.37"/>
<polygon fill="#63b8ff" stroke="#63b8ff" points="590.57,-30.66 593.01,-20.35 584.67,-26.88 590.57,-30.66"/>
</g>
<!-- Node9 -->
<g id="node9" class="node">
<title>Node9</title>
<g id="a_node9"><a xlink:href="../../d8/dd2/_config_8hpp.html" target="_top" xlink:title=" ">
<polygon fill="white" stroke="#666666" points="840.5,-79.5 707.5,-79.5 707.5,-60.5 840.5,-60.5 840.5,-79.5"/>
<text text-anchor="middle" x="774" y="-67.5" font-family="Helvetica,sans-Serif" font-size="10.00">Simple&#45;Utility/Config.hpp</text>
</a>
</g>
</g>
<!-- Node6&#45;&gt;Node9 -->
<g id="edge10" class="edge">
<title>Node6&#45;&gt;Node9</title>
<path fill="none" stroke="#63b8ff" d="M529.4,-121.66C585.59,-110.02 666.22,-93.32 719.33,-82.32"/>
<polygon fill="#63b8ff" stroke="#63b8ff" points="719.99,-85.76 729.07,-80.31 718.57,-78.91 719.99,-85.76"/>
</g>
<!-- Node6&#45;&gt;Node10 -->
<g id="edge11" class="edge">
<title>Node6&#45;&gt;Node10</title>
<path fill="none" stroke="#63b8ff" d="M427.52,-120.64C403.54,-111.45 372.19,-99.43 346.35,-89.53"/>
<polygon fill="#63b8ff" stroke="#63b8ff" points="347.65,-86.28 337.05,-85.97 345.14,-92.81 347.65,-86.28"/>
</g>
<!-- Node11 -->
<g id="node11" class="node">
<title>Node11</title>
<g id="a_node11"><a xlink:href="../../d5/d8e/concepts_2utility_8hpp.html" target="_top" xlink:title=" ">
<polygon fill="white" stroke="#666666" points="533,-85 411,-85 411,-55 533,-55 533,-85"/>
<text text-anchor="start" x="419" y="-73" font-family="Helvetica,sans-Serif" font-size="10.00">Simple&#45;Utility/concepts</text>
<text text-anchor="middle" x="472" y="-62" font-family="Helvetica,sans-Serif" font-size="10.00">/utility.hpp</text>
</a>
</g>
</g>
<!-- Node6&#45;&gt;Node11 -->
<g id="edge15" class="edge">
<title>Node6&#45;&gt;Node11</title>
<path fill="none" stroke="#63b8ff" d="M466.55,-120.8C467.33,-113.67 468.3,-104.82 469.2,-96.56"/>
<polygon fill="#63b8ff" stroke="#63b8ff" points="472.68,-96.99 470.29,-86.67 465.72,-96.23 472.68,-96.99"/>
</g>
<!-- Node10&#45;&gt;Node4 -->
<g id="edge12" class="edge">
<title>Node10&#45;&gt;Node4</title>
<path fill="none" stroke="#63b8ff" d="M319.01,-54.54C331.86,-45.7 348.27,-34.4 361.25,-25.47"/>
<polygon fill="#63b8ff" stroke="#63b8ff" points="362.89,-28.59 369.15,-20.03 358.93,-22.82 362.89,-28.59"/>
</g>
<!-- Node10&#45;&gt;Node8 -->
<g id="edge13" class="edge">
<title>Node10&#45;&gt;Node8</title>
<path fill="none" stroke="#63b8ff" d="M354.97,-57.93C413.08,-46.63 502.03,-29.35 554.96,-19.06"/>
<polygon fill="#63b8ff" stroke="#63b8ff" points="555.37,-22.55 564.52,-17.2 554.03,-15.67 555.37,-22.55"/>
</g>
<!-- Node11&#45;&gt;Node4 -->
<g id="edge16" class="edge">
<title>Node11&#45;&gt;Node4</title>
<path fill="none" stroke="#63b8ff" d="M450,-54.54C436.63,-45.75 419.58,-34.54 406.02,-25.63"/>
<polygon fill="#63b8ff" stroke="#63b8ff" points="408,-22.75 397.72,-20.18 404.16,-28.6 408,-22.75"/>
</g>
<!-- Node12&#45;&gt;Node6 -->
<g id="edge18" class="edge">
<title>Node12&#45;&gt;Node6</title>
<path fill="none" stroke="#63b8ff" d="M465,-186.8C465,-179.67 465,-170.82 465,-162.56"/>
<polygon fill="#63b8ff" stroke="#63b8ff" points="468.5,-162.68 465,-152.68 461.5,-162.68 468.5,-162.68"/>
</g>
<!-- Node13 -->
<g id="node13" class="node">
<title>Node13</title>
<g id="a_node13"><a xlink:href="../../d2/d30/general_8hpp.html" target="_top" xlink:title=" ">
<polygon fill="white" stroke="#666666" points="755.5,-151 650.5,-151 650.5,-121 755.5,-121 755.5,-151"/>
<text text-anchor="start" x="658.5" y="-139" font-family="Helvetica,sans-Serif" font-size="10.00">Simple&#45;Utility/tuple</text>
<text text-anchor="middle" x="703" y="-128" font-family="Helvetica,sans-Serif" font-size="10.00">/general.hpp</text>
</a>
</g>
</g>
<!-- Node12&#45;&gt;Node13 -->
<g id="edge19" class="edge">
<title>Node12&#45;&gt;Node13</title>
<path fill="none" stroke="#63b8ff" d="M518.71,-186.56C554.52,-176.93 601.76,-164.22 639.45,-154.09"/>
<polygon fill="#63b8ff" stroke="#63b8ff" points="640.1,-157.54 648.84,-151.56 638.28,-150.78 640.1,-157.54"/>
</g>
<!-- Node13&#45;&gt;Node4 -->
<g id="edge20" class="edge">
<title>Node13&#45;&gt;Node4</title>
<path fill="none" stroke="#63b8ff" d="M677.74,-120.58C646.6,-103.24 591.67,-74.1 542,-55 502.39,-39.77 455.42,-27.27 422.85,-19.44"/>
<polygon fill="#63b8ff" stroke="#63b8ff" points="423.97,-16.11 413.43,-17.22 422.36,-22.92 423.97,-16.11"/>
</g>
<!-- Node13&#45;&gt;Node8 -->
<g id="edge22" class="edge">
<title>Node13&#45;&gt;Node8</title>
<path fill="none" stroke="#63b8ff" d="M755.73,-126.1C809.55,-114.76 881.08,-92.07 850,-55 824.1,-24.11 707.97,-14.65 643.13,-11.76"/>
<polygon fill="#63b8ff" stroke="#63b8ff" points="643.3,-8.27 633.17,-11.36 643.02,-15.26 643.3,-8.27"/>
</g>
<!-- Node14 -->
<g id="node14" class="node">
<title>Node14</title>
<g id="a_node14"><a xlink:title=" ">
<polygon fill="#e0e0e0" stroke="#999999" points="937,-79.5 897,-79.5 897,-60.5 937,-60.5 937,-79.5"/>
<text text-anchor="middle" x="917" y="-67.5" font-family="Helvetica,sans-Serif" font-size="10.00">tuple</text>
</a>
</g>
</g>
<!-- Node13&#45;&gt;Node14 -->
<g id="edge21" class="edge">
<title>Node13&#45;&gt;Node14</title>
<path fill="none" stroke="#63b8ff" d="M755.89,-122.09C792.02,-112.83 840.82,-99.48 883,-85 883.98,-84.66 884.97,-84.32 885.96,-83.96"/>
<polygon fill="#63b8ff" stroke="#63b8ff" points="887.17,-87.24 895.24,-80.38 884.65,-80.71 887.17,-87.24"/>
</g>
<!-- Node15 -->
<g id="node15" class="node">
<title>Node15</title>
<g id="a_node15"><a xlink:title=" ">
<polygon fill="#e0e0e0" stroke="#999999" points="996.5,-79.5 955.5,-79.5 955.5,-60.5 996.5,-60.5 996.5,-79.5"/>
<text text-anchor="middle" x="976" y="-67.5" font-family="Helvetica,sans-Serif" font-size="10.00">utility</text>
</a>
</g>
</g>
<!-- Node13&#45;&gt;Node15 -->
<g id="edge23" class="edge">
<title>Node13&#45;&gt;Node15</title>
<path fill="none" stroke="#63b8ff" d="M755.59,-127.81C805.44,-120.16 882.01,-106.19 946,-85 946.65,-84.79 947.3,-84.56 947.96,-84.33"/>
<polygon fill="#63b8ff" stroke="#63b8ff" points="949.19,-87.6 957.11,-80.57 946.53,-81.13 949.19,-87.6"/>
</g>
<!-- Node17&#45;&gt;Node6 -->
<g id="edge29" class="edge">
<title>Node17&#45;&gt;Node6</title>
<path fill="none" stroke="#63b8ff" d="M385.1,-252.67C382.46,-235.8 380.52,-207.51 392,-187 398.86,-174.75 410.12,-164.87 421.78,-157.23"/>
<polygon fill="#63b8ff" stroke="#63b8ff" points="423.51,-160.28 430.27,-152.12 419.9,-154.28 423.51,-160.28"/>
</g>
<!-- Node17&#45;&gt;Node10 -->
<g id="edge28" class="edge">
<title>Node17&#45;&gt;Node10</title>
<path fill="none" stroke="#63b8ff" d="M381.38,-252.59C366.14,-219.39 328.39,-137.19 309.36,-95.74"/>
<polygon fill="#63b8ff" stroke="#63b8ff" points="312.61,-94.44 305.26,-86.81 306.25,-97.36 312.61,-94.44"/>
</g>
<!-- Node17&#45;&gt;Node12 -->
<g id="edge30" class="edge">
<title>Node17&#45;&gt;Node12</title>
<path fill="none" stroke="#63b8ff" d="M405.09,-252.8C415.09,-244.49 427.91,-233.83 439.13,-224.5"/>
<polygon fill="#63b8ff" stroke="#63b8ff" points="441.08,-227.44 446.53,-218.35 436.6,-222.05 441.08,-227.44"/>
</g>
<!-- Node18 -->
<g id="node18" class="node">
<title>Node18</title>
<g id="a_node18"><a xlink:href="../../d5/db7/pipe_8hpp.html" target="_top" xlink:title=" ">
<polygon fill="white" stroke="#666666" points="675,-217 547,-217 547,-187 675,-187 675,-217"/>
<text text-anchor="start" x="555" y="-205" font-family="Helvetica,sans-Serif" font-size="10.00">Simple&#45;Utility/functional</text>
<text text-anchor="middle" x="611" y="-194" font-family="Helvetica,sans-Serif" font-size="10.00">/operators/pipe.hpp</text>
</a>
</g>
</g>
<!-- Node17&#45;&gt;Node18 -->
<g id="edge31" class="edge">
<title>Node17&#45;&gt;Node18</title>
<path fill="none" stroke="#63b8ff" d="M438.32,-252.56C471.36,-243.08 514.77,-230.62 549.8,-220.56"/>
<polygon fill="#63b8ff" stroke="#63b8ff" points="550.76,-223.93 559.4,-217.81 548.83,-217.2 550.76,-223.93"/>
</g>
<!-- Node18&#45;&gt;Node6 -->
<g id="edge32" class="edge">
<title>Node18&#45;&gt;Node6</title>
<path fill="none" stroke="#63b8ff" d="M578.23,-186.64C557.55,-177.57 530.6,-165.75 508.18,-155.93"/>
<polygon fill="#63b8ff" stroke="#63b8ff" points="509.86,-152.84 499.29,-152.03 507.05,-159.25 509.86,-152.84"/>
</g>
<!-- Node18&#45;&gt;Node13 -->
<g id="edge33" class="edge">
<title>Node18&#45;&gt;Node13</title>
<path fill="none" stroke="#63b8ff" d="M631.42,-186.8C643.6,-178.32 659.29,-167.4 672.88,-157.95"/>
<polygon fill="#63b8ff" stroke="#63b8ff" points="674.87,-160.83 681.08,-152.25 670.87,-155.09 674.87,-160.83"/>
</g>
<!-- Node19&#45;&gt;Node4 -->
<g id="edge36" class="edge">
<title>Node19&#45;&gt;Node4</title>
<path fill="none" stroke="#63b8ff" d="M953.46,-120.53C987.2,-105.13 1028.94,-79.63 1006,-55 996.03,-44.29 559.44,-19.98 423.18,-12.64"/>
<polygon fill="#63b8ff" stroke="#63b8ff" points="423.37,-9.14 413.2,-12.1 422.99,-16.13 423.37,-9.14"/>
</g>
<!-- Node19&#45;&gt;Node7 -->
<g id="edge37" class="edge">
<title>Node19&#45;&gt;Node7</title>
<path fill="none" stroke="#63b8ff" d="M865.52,-124.77C821.11,-115.56 755.39,-101.05 699,-85 697.16,-84.48 695.28,-83.92 693.39,-83.34"/>
<polygon fill="#63b8ff" stroke="#63b8ff" points="694.62,-80.06 684.03,-80.32 692.47,-86.72 694.62,-80.06"/>
</g>
<!-- Node19&#45;&gt;Node8 -->
<g id="edge39" class="edge">
<title>Node19&#45;&gt;Node8</title>
<path fill="none" stroke="#63b8ff" d="M968.32,-121.99C1012.74,-108.35 1065.92,-84.78 1039,-55 1012.76,-25.97 749.3,-14.96 643.06,-11.67"/>
<polygon fill="#63b8ff" stroke="#63b8ff" points="643.41,-8.18 633.31,-11.38 643.2,-15.18 643.41,-8.18"/>
</g>
<!-- Node19&#45;&gt;Node9 -->
<g id="edge35" class="edge">
<title>Node19&#45;&gt;Node9</title>
<path fill="none" stroke="#63b8ff" d="M884.91,-120.64C860.88,-109.88 828.22,-95.27 804.57,-84.68"/>
<polygon fill="#63b8ff" stroke="#63b8ff" points="806.02,-81.49 795.46,-80.6 803.16,-87.88 806.02,-81.49"/>
</g>
<!-- Node19&#45;&gt;Node14 -->
<g id="edge38" class="edge">
<title>Node19&#45;&gt;Node14</title>
<path fill="none" stroke="#63b8ff" d="M917,-120.8C917,-112.09 917,-100.81 917,-91.18"/>
<polygon fill="#63b8ff" stroke="#63b8ff" points="920.5,-91.36 917,-81.36 913.5,-91.36 920.5,-91.36"/>
</g>
<!-- Node19&#45;&gt;Node15 -->
<g id="edge40" class="edge">
<title>Node19&#45;&gt;Node15</title>
<path fill="none" stroke="#63b8ff" d="M930.09,-120.8C939.02,-111.11 950.89,-98.24 960.32,-88.01"/>
<polygon fill="#63b8ff" stroke="#63b8ff" points="962.62,-90.68 966.82,-80.96 957.47,-85.94 962.62,-90.68"/>
</g>
</g>
</svg>
        <g id="navigator" transform="translate(0 0)" fill="#404254">
                <rect fill="#f2f5e9" fill-opacity="0.5" stroke="#606060" stroke-width=".5" x="0" y="0" width="60" height="60"/>
                <use id="zoomplus" xlink:href="#zoomPlus" x="17" y="9" onmousedown="handleZoom(evt,'in')"/>
                <use id="zoomminus" xlink:href="#zoomMin" x="42" y="9" onmousedown="handleZoom(evt,'out')"/>
                <use id="reset" xlink:href="#resetDef" x="30" y="36" onmousedown="handleReset()"/>
                <g id="arrowUp" xlink:href="#dirArrow" transform="translate(30 24)" onmousedown="handlePan(0,-1)">
                  <use xlink:href="#rim" fill="#404040">
                        <set attributeName="fill" to="#808080" begin="arrowUp.mouseover" end="arrowUp.mouseout"/>
                  </use>
                  <path fill="none" stroke="white" stroke-width="1.5" d="M0,-3.0v7 M-2.5,-0.5L0,-3.0L2.5,-0.5"/>
                </g>
                <g id="arrowRight" xlink:href="#dirArrow" transform="rotate(90) translate(36 -43)" onmousedown="handlePan(1,0)">
                  <use xlink:href="#rim" fill="#404040">
                        <set attributeName="fill" to="#808080" begin="arrowRight.mouseover" end="arrowRight.mouseout"/>
                  </use>
                  <path fill="none" stroke="white" stroke-width="1.5" d="M0,-3.0v7 M-2.5,-0.5L0,-3.0L2.5,-0.5"/>
                </g>
                <g id="arrowDown" xlink:href="#dirArrow" transform="rotate(180) translate(-30 -48)" onmousedown="handlePan(0,1)">
                  <use xlink:href="#rim" fill="#404040">
                        <set attributeName="fill" to="#808080" begin="arrowDown.mouseover" end="arrowDown.mouseout"/>
                  </use>
                  <path fill="none" stroke="white" stroke-width="1.5" d="M0,-3.0v7 M-2.5,-0.5L0,-3.0L2.5,-0.5"/>
                </g>
                <g id="arrowLeft" xlink:href="#dirArrow" transform="rotate(270) translate(-36 17)" onmousedown="handlePan(-1,0)">
                  <use xlink:href="#rim" fill="#404040">
                        <set attributeName="fill" to="#808080" begin="arrowLeft.mouseover" end="arrowLeft.mouseout"/>
                  </use>
                  <path fill="none" stroke="white" stroke-width="1.5" d="M0,-3.0v7 M-2.5,-0.5L0,-3.0L2.5,-0.5"/>
                </g>
        </g>
        <svg viewBox="0 0 15 15" width="100%" height="30px" preserveAspectRatio="xMaxYMin meet">
         <g id="arrow_out" transform="scale(0.3 0.3)">
          <a xlink:href="value__or_8hpp__incl_org.svg" target="_base">
           <rect id="button" ry="5" rx="5" y="6" x="6" height="38" width="38"
                fill="#f2f5e9" fill-opacity="0.5" stroke="#606060" stroke-width="1.0"/>
           <path id="arrow"
             d="M 11.500037,31.436501 C 11.940474,20.09759 22.043105,11.32322 32.158766,21.979434 L 37.068811,17.246167 C 37.068811,17.246167 37.088388,32 37.088388,32 L 22.160133,31.978069 C 22.160133,31.978069 26.997745,27.140456 26.997745,27.140456 C 18.528582,18.264221 13.291696,25.230495 11.500037,31.436501 z"
             style="fill:#404040;"/>
          </a>
         </g>
        </svg>
</svg>
