<?xml version="1.0" encoding="UTF-8" standalone="no"?>
<!DOCTYPE svg PUBLIC "-//W3C//DTD SVG 1.1//EN"
 "http://www.w3.org/Graphics/SVG/1.1/DTD/svg11.dtd">
<!-- Generated by graphviz version 8.0.5 (20230430.1635)
 -->
<!-- Title: Simple&#45;Utility/nullables/value_or.hpp Pages: 1 -->
<!--zoomable 376 -->
<svg id="main" version="1.1" xmlns="http://www.w3.org/2000/svg" xmlns:xlink="http://www.w3.org/1999/xlink" xml:space="preserve" onload="init(evt)">
<style type="text/css"><![CDATA[
.edge:hover path { stroke: red; }
.edge:hover polygon { stroke: red; fill: red; }
]]></style>
<script type="text/javascript"><![CDATA[
var edges = document.getElementsByTagName('g');
if (edges && edges.length) {
  for (var i=0;i<edges.length;i++) {
    if (edges[i].id.substr(0,4)=='edge') {
      edges[i].setAttribute('class','edge');
    }
  }
}
]]></script>
        <defs>
                <circle id="rim" cx="0" cy="0" r="7"/>
                <circle id="rim2" cx="0" cy="0" r="3.5"/>
                <g id="zoomPlus">
                        <use xlink:href="#rim" fill="#404040">
                                <set attributeName="fill" to="#808080" begin="zoomplus.mouseover" end="zoomplus.mouseout"/>
                        </use>
                        <path d="M-4,0h8M0,-4v8" fill="none" stroke="white" stroke-width="1.5" pointer-events="none"/>
                </g>
                <g id="zoomMin">
                        <use xlink:href="#rim" fill="#404040">
                                <set attributeName="fill" to="#808080" begin="zoomminus.mouseover" end="zoomminus.mouseout"/>
                        </use>
                        <path d="M-4,0h8" fill="none" stroke="white" stroke-width="1.5" pointer-events="none"/>
                </g>
                <g id="dirArrow">
                        <path fill="none" stroke="white" stroke-width="1.5" d="M0,-3.0v7 M-2.5,-0.5L0,-3.0L2.5,-0.5"/>
                </g>
               <g id="resetDef">
                       <use xlink:href="#rim2" fill="#404040">
                               <set attributeName="fill" to="#808080" begin="reset.mouseover" end="reset.mouseout"/>
                       </use>
               </g>
        </defs>

<script type="text/javascript">
var viewWidth = 1049;
var viewHeight = 376;
var sectionId = 'dynsection-0';
</script>
<script xlink:href="../../svgpan.js"/>
<svg id="graph" class="graph">
<g id="viewport">
<title>Simple&#45;Utility/nullables/value_or.hpp</title>
<!-- Node1 -->
<g id="node1" class="node">
<title>Node1</title>
<g id="a_node1"><a xlink:title=" ">
<polygon fill="#999999" stroke="#666666" points="448.12,-368.25 325.62,-368.25 325.62,-334.75 448.12,-334.75 448.12,-368.25"/>
<text text-anchor="start" x="333.62" y="-354.75" font-family="Helvetica,sans-Serif" font-size="10.00">Simple&#45;Utility/nullables</text>
<text text-anchor="middle" x="386.88" y="-342" font-family="Helvetica,sans-Serif" font-size="10.00">/value_or.hpp</text>
</a>
</g>
</g>
<!-- Node2 -->
<g id="node2" class="node">
<title>Node2</title>
<g id="a_node2"><a xlink:href="../../d6/dbe/nullables_2base_8hpp.html" target="_top" xlink:title=" ">
<polygon fill="white" stroke="#666666" points="297.12,-298.75 174.62,-298.75 174.62,-265.25 297.12,-265.25 297.12,-298.75"/>
<text text-anchor="start" x="182.62" y="-285.25" font-family="Helvetica,sans-Serif" font-size="10.00">Simple&#45;Utility/nullables</text>
<text text-anchor="middle" x="235.88" y="-272.5" font-family="Helvetica,sans-Serif" font-size="10.00">/base.hpp</text>
</a>
</g>
</g>
<!-- Node1&#45;&gt;Node2 -->
<g id="edge1" class="edge">
<title>Node1&#45;&gt;Node2</title>
<path fill="none" stroke="#63b8ff" d="M350.71,-334.33C330.05,-325.1 303.95,-313.43 281.85,-303.55"/>
<polygon fill="#63b8ff" stroke="#63b8ff" points="283.57,-300.04 273.01,-299.15 280.71,-306.43 283.57,-300.04"/>
</g>
<!-- Node17 -->
<g id="node17" class="node">
<title>Node17</title>
<g id="a_node17"><a xlink:href="../../d6/deb/transform_8hpp.html" target="_top" xlink:title=" ">
<polygon fill="white" stroke="#666666" points="450.38,-298.75 323.38,-298.75 323.38,-265.25 450.38,-265.25 450.38,-298.75"/>
<text text-anchor="start" x="331.38" y="-285.25" font-family="Helvetica,sans-Serif" font-size="10.00">Simple&#45;Utility/functional</text>
<text text-anchor="middle" x="386.88" y="-272.5" font-family="Helvetica,sans-Serif" font-size="10.00">/transform.hpp</text>
</a>
</g>
</g>
<!-- Node1&#45;&gt;Node17 -->
<g id="edge27" class="edge">
<title>Node1&#45;&gt;Node17</title>
<path fill="none" stroke="#63b8ff" d="M386.88,-334.5C386.88,-327.11 386.88,-318.12 386.88,-309.73"/>
<polygon fill="#63b8ff" stroke="#63b8ff" points="390.38,-309.88 386.88,-299.88 383.38,-309.88 390.38,-309.88"/>
</g>
<!-- Node19 -->
<g id="node19" class="node">
<title>Node19</title>
<g id="a_node19"><a xlink:href="../../d2/dc8/bind__back_8hpp.html" target="_top" xlink:title=" ">
<polygon fill="white" stroke="#666666" points="963.62,-159.75 862.12,-159.75 862.12,-126.25 963.62,-126.25 963.62,-159.75"/>
<text text-anchor="start" x="870.12" y="-146.25" font-family="Helvetica,sans-Serif" font-size="10.00">Simple&#45;Utility/bind</text>
<text text-anchor="middle" x="912.88" y="-133.5" font-family="Helvetica,sans-Serif" font-size="10.00">_back.hpp</text>
</a>
</g>
</g>
<!-- Node1&#45;&gt;Node19 -->
<g id="edge34" class="edge">
<title>Node1&#45;&gt;Node19</title>
<path fill="none" stroke="#63b8ff" d="M428.15,-334.3C523.31,-296.94 757.88,-204.85 861.85,-164.03"/>
<polygon fill="#63b8ff" stroke="#63b8ff" points="862.76,-167.04 870.79,-160.13 860.2,-160.52 862.76,-167.04"/>
</g>
<!-- Node3 -->
<g id="node3" class="node">
<title>Node3</title>
<g id="a_node3"><a xlink:href="../../dd/d5c/stl__extensions_8hpp.html" target="_top" xlink:title=" ">
<polygon fill="white" stroke="#666666" points="184.75,-90.25 63,-90.25 63,-56.75 184.75,-56.75 184.75,-90.25"/>
<text text-anchor="start" x="71" y="-76.75" font-family="Helvetica,sans-Serif" font-size="10.00">Simple&#45;Utility/concepts</text>
<text text-anchor="middle" x="123.88" y="-64" font-family="Helvetica,sans-Serif" font-size="10.00">/stl_extensions.hpp</text>
</a>
</g>
</g>
<!-- Node2&#45;&gt;Node3 -->
<g id="edge2" class="edge">
<title>Node2&#45;&gt;Node3</title>
<path fill="none" stroke="#63b8ff" d="M223.48,-265.16C215.92,-255.15 206.32,-241.78 198.88,-229.25 172.96,-185.62 148.4,-131.72 134.81,-100.41"/>
<polygon fill="#63b8ff" stroke="#63b8ff" points="137.65,-99.13 130.48,-91.33 131.22,-101.9 137.65,-99.13"/>
</g>
<!-- Node5 -->
<g id="node5" class="node">
<title>Node5</title>
<g id="a_node5"><a xlink:href="../../dd/dcd/operators_8hpp.html" target="_top" xlink:title=" ">
<polygon fill="white" stroke="#666666" points="121.75,-159.75 0,-159.75 0,-126.25 121.75,-126.25 121.75,-159.75"/>
<text text-anchor="start" x="8" y="-146.25" font-family="Helvetica,sans-Serif" font-size="10.00">Simple&#45;Utility/concepts</text>
<text text-anchor="middle" x="60.88" y="-133.5" font-family="Helvetica,sans-Serif" font-size="10.00">/operators.hpp</text>
</a>
</g>
</g>
<!-- Node2&#45;&gt;Node5 -->
<g id="edge4" class="edge">
<title>Node2&#45;&gt;Node5</title>
<path fill="none" stroke="#63b8ff" d="M211.11,-264.84C196.27,-254.93 177.18,-241.78 160.88,-229.25 134.75,-209.19 106.29,-184.64 86.43,-167.05"/>
<polygon fill="#63b8ff" stroke="#63b8ff" points="89.28,-165 79.48,-160.97 84.62,-170.23 89.28,-165"/>
</g>
<!-- Node6 -->
<g id="node6" class="node">
<title>Node6</title>
<g id="a_node6"><a xlink:href="../../d1/d76/functional_2base_8hpp.html" target="_top" xlink:title=" ">
<polygon fill="white" stroke="#666666" points="527.38,-159.75 400.38,-159.75 400.38,-126.25 527.38,-126.25 527.38,-159.75"/>
<text text-anchor="start" x="408.38" y="-146.25" font-family="Helvetica,sans-Serif" font-size="10.00">Simple&#45;Utility/functional</text>
<text text-anchor="middle" x="463.88" y="-133.5" font-family="Helvetica,sans-Serif" font-size="10.00">/base.hpp</text>
</a>
</g>
</g>
<!-- Node2&#45;&gt;Node6 -->
<g id="edge6" class="edge">
<title>Node2&#45;&gt;Node6</title>
<path fill="none" stroke="#63b8ff" d="M262.48,-265.02C303.38,-240.44 381.81,-193.31 427.8,-165.68"/>
<polygon fill="#63b8ff" stroke="#63b8ff" points="429.32,-168.24 436.09,-160.09 425.72,-162.24 429.32,-168.24"/>
</g>
<!-- Node8 -->
<g id="node8" class="node">
<title>Node8</title>
<g id="a_node8"><a xlink:title=" ">
<polygon fill="#e0e0e0" stroke="#999999" points="628.88,-20.75 564.88,-20.75 564.88,0 628.88,0 628.88,-20.75"/>
<text text-anchor="middle" x="596.88" y="-7.25" font-family="Helvetica,sans-Serif" font-size="10.00">type_traits</text>
</a>
</g>
</g>
<!-- Node2&#45;&gt;Node8 -->
<g id="edge26" class="edge">
<title>Node2&#45;&gt;Node8</title>
<path fill="none" stroke="#63b8ff" d="M229.17,-264.97C213.38,-224.39 179.03,-116.57 231.88,-56.75 252.9,-32.95 461.7,-18.74 553.71,-13.58"/>
<polygon fill="#63b8ff" stroke="#63b8ff" points="553.8,-17.03 563.59,-12.99 553.41,-10.04 553.8,-17.03"/>
</g>
<!-- Node10 -->
<g id="node10" class="node">
<title>Node10</title>
<g id="a_node10"><a xlink:href="../../d4/d1c/unified__base_8hpp.html" target="_top" xlink:title=" ">
<polygon fill="white" stroke="#666666" points="352.88,-90.25 240.88,-90.25 240.88,-56.75 352.88,-56.75 352.88,-90.25"/>
<text text-anchor="start" x="248.88" y="-76.75" font-family="Helvetica,sans-Serif" font-size="10.00">Simple&#45;Utility/unified</text>
<text text-anchor="middle" x="296.88" y="-64" font-family="Helvetica,sans-Serif" font-size="10.00">_base.hpp</text>
</a>
</g>
</g>
<!-- Node2&#45;&gt;Node10 -->
<g id="edge24" class="edge">
<title>Node2&#45;&gt;Node10</title>
<path fill="none" stroke="#63b8ff" d="M240.66,-264.8C251.15,-229.29 276.25,-144.32 289.06,-100.95"/>
<polygon fill="#63b8ff" stroke="#63b8ff" points="292.63,-102.21 292.11,-91.63 285.92,-100.23 292.63,-102.21"/>
</g>
<!-- Node12 -->
<g id="node12" class="node">
<title>Node12</title>
<g id="a_node12"><a xlink:href="../../d9/d76/bind_8hpp.html" target="_top" xlink:title=" ">
<polygon fill="white" stroke="#666666" points="527.38,-229.25 400.38,-229.25 400.38,-195.75 527.38,-195.75 527.38,-229.25"/>
<text text-anchor="start" x="408.38" y="-215.75" font-family="Helvetica,sans-Serif" font-size="10.00">Simple&#45;Utility/functional</text>
<text text-anchor="middle" x="463.88" y="-203" font-family="Helvetica,sans-Serif" font-size="10.00">/operators/bind.hpp</text>
</a>
</g>
</g>
<!-- Node2&#45;&gt;Node12 -->
<g id="edge17" class="edge">
<title>Node2&#45;&gt;Node12</title>
<path fill="none" stroke="#63b8ff" d="M290.49,-264.83C323.08,-255.18 364.66,-242.87 398.93,-232.73"/>
<polygon fill="#63b8ff" stroke="#63b8ff" points="399.72,-235.85 408.31,-229.65 397.73,-229.14 399.72,-235.85"/>
</g>
<!-- Node16 -->
<g id="node16" class="node">
<title>Node16</title>
<g id="a_node16"><a xlink:title=" ">
<polygon fill="#e0e0e0" stroke="#999999" points="108.75,-222.88 59,-222.88 59,-202.12 108.75,-202.12 108.75,-222.88"/>
<text text-anchor="middle" x="83.88" y="-209.38" font-family="Helvetica,sans-Serif" font-size="10.00">cstddef</text>
</a>
</g>
</g>
<!-- Node2&#45;&gt;Node16 -->
<g id="edge25" class="edge">
<title>Node2&#45;&gt;Node16</title>
<path fill="none" stroke="#63b8ff" d="M199.47,-264.83C173.95,-253.5 140.18,-238.5 115.73,-227.65"/>
<polygon fill="#63b8ff" stroke="#63b8ff" points="117.44,-224.13 106.88,-223.27 114.6,-230.53 117.44,-224.13"/>
</g>
<!-- Node4 -->
<g id="node4" class="node">
<title>Node4</title>
<g id="a_node4"><a xlink:title=" ">
<polygon fill="#e0e0e0" stroke="#999999" points="409.12,-20.75 352.62,-20.75 352.62,0 409.12,0 409.12,-20.75"/>
<text text-anchor="middle" x="380.88" y="-7.25" font-family="Helvetica,sans-Serif" font-size="10.00">concepts</text>
</a>
</g>
</g>
<!-- Node3&#45;&gt;Node4 -->
<g id="edge3" class="edge">
<title>Node3&#45;&gt;Node4</title>
<path fill="none" stroke="#63b8ff" d="M185.11,-57.94C233.63,-46.4 299.96,-30.62 341.61,-20.71"/>
<polygon fill="#63b8ff" stroke="#63b8ff" points="342.23,-23.93 351.15,-18.21 340.61,-17.12 342.23,-23.93"/>
</g>
<!-- Node5&#45;&gt;Node4 -->
<g id="edge5" class="edge">
<title>Node5&#45;&gt;Node4</title>
<path fill="none" stroke="#63b8ff" d="M53.42,-126.05C45.82,-107.13 37.3,-75.79 53.88,-56.75 90.74,-14.42 262.61,-10.3 341.33,-10.7"/>
<polygon fill="#63b8ff" stroke="#63b8ff" points="341.21,-14.21 351.24,-10.79 341.26,-7.21 341.21,-14.21"/>
</g>
<!-- Node6&#45;&gt;Node3 -->
<g id="edge14" class="edge">
<title>Node6&#45;&gt;Node3</title>
<path fill="none" stroke="#63b8ff" d="M399.92,-129.3C341.85,-117.78 256.3,-100.79 195.85,-88.79"/>
<polygon fill="#63b8ff" stroke="#63b8ff" points="196.74,-85.2 186.25,-86.68 195.38,-92.07 196.74,-85.2"/>
</g>
<!-- Node6&#45;&gt;Node4 -->
<g id="edge7" class="edge">
<title>Node6&#45;&gt;Node4</title>
<path fill="none" stroke="#63b8ff" d="M436.31,-125.75C423.43,-116.82 408.96,-104.62 399.88,-90.25 388.61,-72.43 384.02,-48.49 382.16,-31.67"/>
<polygon fill="#63b8ff" stroke="#63b8ff" points="385.57,-31.53 381.22,-21.87 378.6,-32.14 385.57,-31.53"/>
</g>
<!-- Node7 -->
<g id="node7" class="node">
<title>Node7</title>
<g id="a_node7"><a xlink:title=" ">
<polygon fill="#e0e0e0" stroke="#999999" points="686.75,-83.88 625,-83.88 625,-63.12 686.75,-63.12 686.75,-83.88"/>
<text text-anchor="middle" x="655.88" y="-70.38" font-family="Helvetica,sans-Serif" font-size="10.00">functional</text>
</a>
</g>
</g>
<!-- Node6&#45;&gt;Node7 -->
<g id="edge8" class="edge">
<title>Node6&#45;&gt;Node7</title>
<path fill="none" stroke="#63b8ff" d="M509.86,-125.83C542.86,-114.23 586.78,-98.79 617.81,-87.88"/>
<polygon fill="#63b8ff" stroke="#63b8ff" points="618.53,-90.99 626.8,-84.37 616.21,-84.38 618.53,-90.99"/>
</g>
<!-- Node6&#45;&gt;Node8 -->
<g id="edge9" class="edge">
<title>Node6&#45;&gt;Node8</title>
<path fill="none" stroke="#63b8ff" d="M492.34,-125.92C507.41,-116.62 525.68,-104.05 539.88,-90.25 558.43,-72.21 575.19,-47.51 585.66,-30.59"/>
<polygon fill="#63b8ff" stroke="#63b8ff" points="589.16,-32.55 591.32,-22.18 583.17,-28.94 589.16,-32.55"/>
</g>
<!-- Node9 -->
<g id="node9" class="node">
<title>Node9</title>
<g id="a_node9"><a xlink:href="../../d8/dd2/_config_8hpp.html" target="_top" xlink:title=" ">
<polygon fill="white" stroke="#666666" points="837,-83.88 704.75,-83.88 704.75,-63.12 837,-63.12 837,-83.88"/>
<text text-anchor="middle" x="770.88" y="-70.38" font-family="Helvetica,sans-Serif" font-size="10.00">Simple&#45;Utility/Config.hpp</text>
</a>
</g>
</g>
<!-- Node6&#45;&gt;Node9 -->
<g id="edge10" class="edge">
<title>Node6&#45;&gt;Node9</title>
<path fill="none" stroke="#63b8ff" d="M527.86,-127.93C583.43,-115.71 663.05,-98.21 715.82,-86.6"/>
<polygon fill="#63b8ff" stroke="#63b8ff" points="716.32,-89.86 725.33,-84.29 714.81,-83.02 716.32,-89.86"/>
</g>
<!-- Node6&#45;&gt;Node10 -->
<g id="edge11" class="edge">
<title>Node6&#45;&gt;Node10</title>
<path fill="none" stroke="#63b8ff" d="M423.87,-125.83C400.72,-116.47 371.38,-104.61 346.73,-94.65"/>
<polygon fill="#63b8ff" stroke="#63b8ff" points="348.42,-91.16 337.84,-90.65 345.8,-97.65 348.42,-91.16"/>
</g>
<!-- Node11 -->
<g id="node11" class="node">
<title>Node11</title>
<g id="a_node11"><a xlink:href="../../d5/d8e/concepts_2utility_8hpp.html" target="_top" xlink:title=" ">
<polygon fill="white" stroke="#666666" points="530.75,-90.25 409,-90.25 409,-56.75 530.75,-56.75 530.75,-90.25"/>
<text text-anchor="start" x="417" y="-76.75" font-family="Helvetica,sans-Serif" font-size="10.00">Simple&#45;Utility/concepts</text>
<text text-anchor="middle" x="469.88" y="-64" font-family="Helvetica,sans-Serif" font-size="10.00">/utility.hpp</text>
</a>
</g>
</g>
<!-- Node6&#45;&gt;Node11 -->
<g id="edge15" class="edge">
<title>Node6&#45;&gt;Node11</title>
<path fill="none" stroke="#63b8ff" d="M465.3,-126C465.95,-118.61 466.75,-109.62 467.5,-101.23"/>
<polygon fill="#63b8ff" stroke="#63b8ff" points="471.06,-101.65 468.46,-91.38 464.09,-101.03 471.06,-101.65"/>
</g>
<!-- Node10&#45;&gt;Node4 -->
<g id="edge12" class="edge">
<title>Node10&#45;&gt;Node4</title>
<path fill="none" stroke="#63b8ff" d="M318.95,-56.44C331.19,-47.53 346.37,-36.49 358.63,-27.56"/>
<polygon fill="#63b8ff" stroke="#63b8ff" points="360.32,-29.93 366.35,-21.22 356.2,-24.27 360.32,-29.93"/>
</g>
<!-- Node10&#45;&gt;Node8 -->
<g id="edge13" class="edge">
<title>Node10&#45;&gt;Node8</title>
<path fill="none" stroke="#63b8ff" d="M353.3,-61C411.62,-49.12 501.34,-30.84 554.07,-20.1"/>
<polygon fill="#63b8ff" stroke="#63b8ff" points="554.63,-23.35 563.73,-17.92 553.24,-16.49 554.63,-23.35"/>
</g>
<!-- Node11&#45;&gt;Node4 -->
<g id="edge16" class="edge">
<title>Node11&#45;&gt;Node4</title>
<path fill="none" stroke="#63b8ff" d="M446.49,-56.44C433.4,-47.45 417.12,-36.27 404.06,-27.3"/>
<polygon fill="#63b8ff" stroke="#63b8ff" points="406.43,-23.99 396.21,-21.22 402.47,-29.76 406.43,-23.99"/>
</g>
<!-- Node12&#45;&gt;Node6 -->
<g id="edge18" class="edge">
<title>Node12&#45;&gt;Node6</title>
<path fill="none" stroke="#63b8ff" d="M463.88,-195.5C463.88,-188.11 463.88,-179.12 463.88,-170.73"/>
<polygon fill="#63b8ff" stroke="#63b8ff" points="467.38,-170.88 463.88,-160.88 460.38,-170.88 467.38,-170.88"/>
</g>
<!-- Node13 -->
<g id="node13" class="node">
<title>Node13</title>
<g id="a_node13"><a xlink:href="../../d2/d30/general_8hpp.html" target="_top" xlink:title=" ">
<polygon fill="white" stroke="#666666" points="752.12,-159.75 647.62,-159.75 647.62,-126.25 752.12,-126.25 752.12,-159.75"/>
<text text-anchor="start" x="655.62" y="-146.25" font-family="Helvetica,sans-Serif" font-size="10.00">Simple&#45;Utility/tuple</text>
<text text-anchor="middle" x="699.88" y="-133.5" font-family="Helvetica,sans-Serif" font-size="10.00">/general.hpp</text>
</a>
</g>
</g>
<!-- Node12&#45;&gt;Node13 -->
<g id="edge19" class="edge">
<title>Node12&#45;&gt;Node13</title>
<path fill="none" stroke="#63b8ff" d="M520.4,-195.33C555.53,-185.29 600.73,-172.36 636.99,-161.99"/>
<polygon fill="#63b8ff" stroke="#63b8ff" points="637.79,-165.11 646.44,-159 635.87,-158.38 637.79,-165.11"/>
</g>
<!-- Node13&#45;&gt;Node4 -->
<g id="edge20" class="edge">
<title>Node13&#45;&gt;Node4</title>
<path fill="none" stroke="#63b8ff" d="M673.81,-125.89C642.81,-107.26 589.05,-76.61 539.88,-56.75 500.06,-40.67 452.48,-27.89 419.81,-20.04"/>
<polygon fill="#63b8ff" stroke="#63b8ff" points="420.87,-16.46 410.34,-17.57 419.27,-23.27 420.87,-16.46"/>
</g>
<!-- Node13&#45;&gt;Node8 -->
<g id="edge22" class="edge">
<title>Node13&#45;&gt;Node8</title>
<path fill="none" stroke="#63b8ff" d="M752.41,-131.79C806.01,-119.05 877.18,-94.28 845.88,-56.75 820.18,-25.95 704.53,-16.01 640.27,-12.83"/>
<polygon fill="#63b8ff" stroke="#63b8ff" points="640.43,-9.29 630.28,-12.33 640.11,-16.28 640.43,-9.29"/>
</g>
<!-- Node14 -->
<g id="node14" class="node">
<title>Node14</title>
<g id="a_node14"><a xlink:title=" ">
<polygon fill="#e0e0e0" stroke="#999999" points="932.5,-83.88 893.25,-83.88 893.25,-63.12 932.5,-63.12 932.5,-83.88"/>
<text text-anchor="middle" x="912.88" y="-70.38" font-family="Helvetica,sans-Serif" font-size="10.00">tuple</text>
</a>
</g>
</g>
<!-- Node13&#45;&gt;Node14 -->
<g id="edge21" class="edge">
<title>Node13&#45;&gt;Node14</title>
<path fill="none" stroke="#63b8ff" d="M752.25,-129.11C788.31,-119.69 837.06,-105.88 878.88,-90.25 880.32,-89.71 881.79,-89.13 883.27,-88.53"/>
<polygon fill="#63b8ff" stroke="#63b8ff" points="884.17,-91.53 891.95,-84.34 881.39,-85.1 884.17,-91.53"/>
</g>
<!-- Node15 -->
<g id="node15" class="node">
<title>Node15</title>
<g id="a_node15"><a xlink:title=" ">
<polygon fill="#e0e0e0" stroke="#999999" points="991.25,-83.88 950.5,-83.88 950.5,-63.12 991.25,-63.12 991.25,-83.88"/>
<text text-anchor="middle" x="970.88" y="-70.38" font-family="Helvetica,sans-Serif" font-size="10.00">utility</text>
</a>
</g>
</g>
<!-- Node13&#45;&gt;Node15 -->
<g id="edge23" class="edge">
<title>Node13&#45;&gt;Node15</title>
<path fill="none" stroke="#63b8ff" d="M752.55,-135.19C802.41,-127.71 878.81,-113.56 941.88,-90.25 942.95,-89.85 944.03,-89.42 945.12,-88.96"/>
<polygon fill="#63b8ff" stroke="#63b8ff" points="946.21,-91.84 953.7,-84.34 943.17,-85.54 946.21,-91.84"/>
</g>
<!-- Node17&#45;&gt;Node6 -->
<g id="edge29" class="edge">
<title>Node17&#45;&gt;Node6</title>
<path fill="none" stroke="#63b8ff" d="M383.89,-264.79C381.43,-246.76 380.01,-217.31 391.88,-195.75 398.49,-183.72 409.23,-173.8 420.43,-165.97"/>
<polygon fill="#63b8ff" stroke="#63b8ff" points="421.94,-168.51 428.43,-160.14 418.13,-162.64 421.94,-168.51"/>
</g>
<!-- Node17&#45;&gt;Node10 -->
<g id="edge28" class="edge">
<title>Node17&#45;&gt;Node10</title>
<path fill="none" stroke="#63b8ff" d="M379.81,-264.8C364.3,-229.21 327.15,-143.96 308.28,-100.67"/>
<polygon fill="#63b8ff" stroke="#63b8ff" points="311.11,-99.4 303.9,-91.63 304.69,-102.19 311.11,-99.4"/>
</g>
<!-- Node17&#45;&gt;Node12 -->
<g id="edge30" class="edge">
<title>Node17&#45;&gt;Node12</title>
<path fill="none" stroke="#63b8ff" d="M405.12,-265C414.74,-256.57 426.71,-246.08 437.33,-236.77"/>
<polygon fill="#63b8ff" stroke="#63b8ff" points="439.28,-238.84 444.49,-229.62 434.66,-233.58 439.28,-238.84"/>
</g>
<!-- Node18 -->
<g id="node18" class="node">
<title>Node18</title>
<g id="a_node18"><a xlink:href="../../d5/db7/pipe_8hpp.html" target="_top" xlink:title=" ">
<polygon fill="white" stroke="#666666" points="672.38,-229.25 545.38,-229.25 545.38,-195.75 672.38,-195.75 672.38,-229.25"/>
<text text-anchor="start" x="553.38" y="-215.75" font-family="Helvetica,sans-Serif" font-size="10.00">Simple&#45;Utility/functional</text>
<text text-anchor="middle" x="608.88" y="-203" font-family="Helvetica,sans-Serif" font-size="10.00">/operators/pipe.hpp</text>
</a>
</g>
</g>
<!-- Node17&#45;&gt;Node18 -->
<g id="edge31" class="edge">
<title>Node17&#45;&gt;Node18</title>
<path fill="none" stroke="#63b8ff" d="M440.05,-264.83C471.79,-255.18 512.27,-242.87 545.64,-232.73"/>
<polygon fill="#63b8ff" stroke="#63b8ff" points="546.2,-235.91 554.75,-229.65 544.16,-229.21 546.2,-235.91"/>
</g>
<!-- Node18&#45;&gt;Node6 -->
<g id="edge32" class="edge">
<title>Node18&#45;&gt;Node6</title>
<path fill="none" stroke="#63b8ff" d="M574.14,-195.33C554.4,-186.14 529.47,-174.53 508.31,-164.68"/>
<polygon fill="#63b8ff" stroke="#63b8ff" points="510.12,-161.2 499.57,-160.15 507.16,-167.55 510.12,-161.2"/>
</g>
<!-- Node18&#45;&gt;Node13 -->
<g id="edge33" class="edge">
<title>Node18&#45;&gt;Node13</title>
<path fill="none" stroke="#63b8ff" d="M630.44,-195.5C642.14,-186.82 656.79,-175.96 669.62,-166.44"/>
<polygon fill="#63b8ff" stroke="#63b8ff" points="671.2,-168.88 677.15,-160.12 667.03,-163.26 671.2,-168.88"/>
</g>
<!-- Node19&#45;&gt;Node4 -->
<g id="edge36" class="edge">
<title>Node19&#45;&gt;Node4</title>
<path fill="none" stroke="#63b8ff" d="M958.45,-125.97C974.48,-117.88 990.75,-106.29 999.88,-90.25 1007.24,-77.31 1010.01,-67.66 999.88,-56.75 989.95,-46.07 554.43,-21.02 419.99,-13.53"/>
<polygon fill="#63b8ff" stroke="#63b8ff" points="420.56,-10 410.38,-12.94 420.17,-16.99 420.56,-10"/>
</g>
<!-- Node19&#45;&gt;Node7 -->
<g id="edge37" class="edge">
<title>Node19&#45;&gt;Node7</title>
<path fill="none" stroke="#63b8ff" d="M861.9,-131.97C817.57,-122.74 751.85,-107.85 695.88,-90.25 693.62,-89.54 691.31,-88.77 688.99,-87.95"/>
<polygon fill="#63b8ff" stroke="#63b8ff" points="690.54,-84.42 679.94,-84.22 688.1,-90.98 690.54,-84.42"/>
</g>
<!-- Node19&#45;&gt;Node8 -->
<g id="edge39" class="edge">
<title>Node19&#45;&gt;Node8</title>
<path fill="none" stroke="#63b8ff" d="M964.05,-127.27C1007.86,-112.19 1059.91,-86.74 1032.88,-56.75 1006.85,-27.88 744.67,-16.19 639.85,-12.65"/>
<polygon fill="#63b8ff" stroke="#63b8ff" points="640.14,-9.12 630.03,-12.29 639.91,-16.12 640.14,-9.12"/>
</g>
<!-- Node19&#45;&gt;Node9 -->
<g id="edge35" class="edge">
<title>Node19&#45;&gt;Node9</title>
<path fill="none" stroke="#63b8ff" d="M878.86,-125.83C855.24,-114.6 824.04,-99.77 801.25,-88.94"/>
<polygon fill="#63b8ff" stroke="#63b8ff" points="802.96,-85.4 792.43,-84.27 799.96,-91.73 802.96,-85.4"/>
</g>
<!-- Node19&#45;&gt;Node14 -->
<g id="edge38" class="edge">
<title>Node19&#45;&gt;Node14</title>
<path fill="none" stroke="#63b8ff" d="M912.88,-126C912.88,-116.8 912.88,-105.14 912.88,-95.24"/>
<polygon fill="#63b8ff" stroke="#63b8ff" points="916.38,-95.32 912.88,-85.32 909.38,-95.32 916.38,-95.32"/>
</g>
<!-- Node19&#45;&gt;Node15 -->
<g id="edge40" class="edge">
<title>Node19&#45;&gt;Node15</title>
<path fill="none" stroke="#63b8ff" d="M926.62,-126C935.31,-115.89 946.55,-102.81 955.53,-92.36"/>
<polygon fill="#63b8ff" stroke="#63b8ff" points="958.57,-95.19 962.44,-85.32 953.26,-90.63 958.57,-95.19"/>
</g>
</g>
</svg>
        <g id="navigator" transform="translate(0 0)" fill="#404254">
                <rect fill="#f2f5e9" fill-opacity="0.5" stroke="#606060" stroke-width=".5" x="0" y="0" width="60" height="60"/>
                <use id="zoomplus" xlink:href="#zoomPlus" x="17" y="9" onmousedown="handleZoom(evt,'in')"/>
                <use id="zoomminus" xlink:href="#zoomMin" x="42" y="9" onmousedown="handleZoom(evt,'out')"/>
                <use id="reset" xlink:href="#resetDef" x="30" y="36" onmousedown="handleReset()"/>
                <g id="arrowUp" xlink:href="#dirArrow" transform="translate(30 24)" onmousedown="handlePan(0,-1)">
                  <use xlink:href="#rim" fill="#404040">
                        <set attributeName="fill" to="#808080" begin="arrowUp.mouseover" end="arrowUp.mouseout"/>
                  </use>
                  <path fill="none" stroke="white" stroke-width="1.5" d="M0,-3.0v7 M-2.5,-0.5L0,-3.0L2.5,-0.5"/>
                </g>
                <g id="arrowRight" xlink:href="#dirArrow" transform="rotate(90) translate(36 -43)" onmousedown="handlePan(1,0)">
                  <use xlink:href="#rim" fill="#404040">
                        <set attributeName="fill" to="#808080" begin="arrowRight.mouseover" end="arrowRight.mouseout"/>
                  </use>
                  <path fill="none" stroke="white" stroke-width="1.5" d="M0,-3.0v7 M-2.5,-0.5L0,-3.0L2.5,-0.5"/>
                </g>
                <g id="arrowDown" xlink:href="#dirArrow" transform="rotate(180) translate(-30 -48)" onmousedown="handlePan(0,1)">
                  <use xlink:href="#rim" fill="#404040">
                        <set attributeName="fill" to="#808080" begin="arrowDown.mouseover" end="arrowDown.mouseout"/>
                  </use>
                  <path fill="none" stroke="white" stroke-width="1.5" d="M0,-3.0v7 M-2.5,-0.5L0,-3.0L2.5,-0.5"/>
                </g>
                <g id="arrowLeft" xlink:href="#dirArrow" transform="rotate(270) translate(-36 17)" onmousedown="handlePan(-1,0)">
                  <use xlink:href="#rim" fill="#404040">
                        <set attributeName="fill" to="#808080" begin="arrowLeft.mouseover" end="arrowLeft.mouseout"/>
                  </use>
                  <path fill="none" stroke="white" stroke-width="1.5" d="M0,-3.0v7 M-2.5,-0.5L0,-3.0L2.5,-0.5"/>
                </g>
        </g>
        <svg viewBox="0 0 15 15" width="100%" height="30px" preserveAspectRatio="xMaxYMin meet">
         <g id="arrow_out" transform="scale(0.3 0.3)">
          <a xlink:href="value__or_8hpp__incl_org.svg" target="_base">
           <rect id="button" ry="5" rx="5" y="6" x="6" height="38" width="38"
                fill="#f2f5e9" fill-opacity="0.5" stroke="#606060" stroke-width="1.0"/>
           <path id="arrow"
             d="M 11.500037,31.436501 C 11.940474,20.09759 22.043105,11.32322 32.158766,21.979434 L 37.068811,17.246167 C 37.068811,17.246167 37.088388,32 37.088388,32 L 22.160133,31.978069 C 22.160133,31.978069 26.997745,27.140456 26.997745,27.140456 C 18.528582,18.264221 13.291696,25.230495 11.500037,31.436501 z"
             style="fill:#404040;"/>
          </a>
         </g>
        </svg>
</svg>
