<?xml version="1.0" encoding="UTF-8" standalone="no"?>
<!DOCTYPE svg PUBLIC "-//W3C//DTD SVG 1.1//EN"
 "http://www.w3.org/Graphics/SVG/1.1/DTD/svg11.dtd">
<!-- Generated by graphviz version 8.0.5 (20230430.1635)
 -->
<!-- Title: Simple&#45;Utility/functional/mixins/InvokePolicies.hpp Pages: 1 -->
<svg width="763pt" height="237pt"
 viewBox="0.00 0.00 763.09 237.25" xmlns="http://www.w3.org/2000/svg" xmlns:xlink="http://www.w3.org/1999/xlink">
<g id="graph0" class="graph" transform="scale(1 1) rotate(0) translate(4 233.25)">
<title>Simple&#45;Utility/functional/mixins/InvokePolicies.hpp</title>
<!-- Node1 -->
<g id="node1" class="node">
<title>Node1</title>
<g id="a_node1"><a xlink:title=" ">
<polygon fill="#999999" stroke="#666666" points="419.62,-229.25 283.62,-229.25 283.62,-195.75 419.62,-195.75 419.62,-229.25"/>
<text text-anchor="start" x="291.62" y="-215.75" font-family="Helvetica,sans-Serif" font-size="10.00">Simple&#45;Utility/functional</text>
<text text-anchor="middle" x="351.62" y="-203" font-family="Helvetica,sans-Serif" font-size="10.00">/mixins/InvokePolicies.hpp</text>
</a>
</g>
</g>
<!-- Node2 -->
<g id="node2" class="node">
<title>Node2</title>
<g id="a_node2"><a xlink:title=" ">
<polygon fill="#e0e0e0" stroke="#999999" points="279.88,-20.75 223.38,-20.75 223.38,0 279.88,0 279.88,-20.75"/>
<text text-anchor="middle" x="251.62" y="-7.25" font-family="Helvetica,sans-Serif" font-size="10.00">concepts</text>
</a>
</g>
</g>
<!-- Node1&#45;&gt;Node2 -->
<g id="edge1" class="edge">
<title>Node1&#45;&gt;Node2</title>
<path fill="none" stroke="#63b8ff" d="M283.24,-196.96C263.57,-189.27 244.3,-177.55 232.62,-159.75 206.5,-119.9 227.58,-60.96 241.62,-30.76"/>
<polygon fill="#63b8ff" stroke="#63b8ff" points="245.13,-32.55 246.38,-22.02 238.84,-29.47 245.13,-32.55"/>
</g>
<!-- Node3 -->
<g id="node3" class="node">
<title>Node3</title>
<g id="a_node3"><a xlink:title=" ">
<polygon fill="#e0e0e0" stroke="#999999" points="379.5,-83.88 317.75,-83.88 317.75,-63.12 379.5,-63.12 379.5,-83.88"/>
<text text-anchor="middle" x="348.62" y="-70.38" font-family="Helvetica,sans-Serif" font-size="10.00">functional</text>
</a>
</g>
</g>
<!-- Node1&#45;&gt;Node3 -->
<g id="edge2" class="edge">
<title>Node1&#45;&gt;Node3</title>
<path fill="none" stroke="#63b8ff" d="M362.13,-195.47C367.95,-185.61 374.61,-172.47 377.62,-159.75 381.06,-145.26 381.39,-140.66 377.62,-126.25 374.54,-114.42 368.07,-102.43 362.03,-92.97"/>
<polygon fill="#63b8ff" stroke="#63b8ff" points="364.55,-91.46 356.04,-85.15 358.76,-95.39 364.55,-91.46"/>
</g>
<!-- Node4 -->
<g id="node4" class="node">
<title>Node4</title>
<g id="a_node4"><a xlink:title=" ">
<polygon fill="#e0e0e0" stroke="#999999" points="496.62,-20.75 432.62,-20.75 432.62,0 496.62,0 496.62,-20.75"/>
<text text-anchor="middle" x="464.62" y="-7.25" font-family="Helvetica,sans-Serif" font-size="10.00">type_traits</text>
</a>
</g>
</g>
<!-- Node1&#45;&gt;Node4 -->
<g id="edge3" class="edge">
<title>Node1&#45;&gt;Node4</title>
<path fill="none" stroke="#63b8ff" d="M366.29,-195.47C374.88,-185.61 385.58,-172.46 393.62,-159.75 421.12,-116.29 445.07,-60.55 456.85,-31.31"/>
<polygon fill="#63b8ff" stroke="#63b8ff" points="460.44,-32.75 460.88,-22.16 453.94,-30.16 460.44,-32.75"/>
</g>
<!-- Node5 -->
<g id="node5" class="node">
<title>Node5</title>
<g id="a_node5"><a xlink:title=" ">
<polygon fill="#e0e0e0" stroke="#999999" points="750,-20.75 709.25,-20.75 709.25,0 750,0 750,-20.75"/>
<text text-anchor="middle" x="729.62" y="-7.25" font-family="Helvetica,sans-Serif" font-size="10.00">utility</text>
</a>
</g>
</g>
<!-- Node1&#45;&gt;Node5 -->
<g id="edge4" class="edge">
<title>Node1&#45;&gt;Node5</title>
<path fill="none" stroke="#63b8ff" d="M420.03,-203.41C473.94,-195.77 550.46,-182.08 614.62,-159.75 678.36,-137.57 714.49,-147.86 749.62,-90.25 760.96,-71.67 751.41,-46.9 742.01,-30.11"/>
<polygon fill="#63b8ff" stroke="#63b8ff" points="744.55,-28.54 736.36,-21.81 738.56,-32.17 744.55,-28.54"/>
</g>
<!-- Node6 -->
<g id="node6" class="node">
<title>Node6</title>
<g id="a_node6"><a xlink:href="../../d6/dcb/_c_r_t_p_base_8hpp.html" target="_top" xlink:title=" ">
<polygon fill="white" stroke="#666666" points="147.25,-153.38 0,-153.38 0,-132.62 147.25,-132.62 147.25,-153.38"/>
<text text-anchor="middle" x="73.62" y="-139.88" font-family="Helvetica,sans-Serif" font-size="10.00">Simple&#45;Utility/CRTPBase.hpp</text>
</a>
</g>
</g>
<!-- Node1&#45;&gt;Node6 -->
<g id="edge5" class="edge">
<title>Node1&#45;&gt;Node6</title>
<path fill="none" stroke="#63b8ff" d="M285.04,-195.33C235.81,-183.38 169.78,-167.35 124.69,-156.4"/>
<polygon fill="#63b8ff" stroke="#63b8ff" points="125.82,-152.83 115.27,-153.87 124.16,-159.63 125.82,-152.83"/>
</g>
<!-- Node7 -->
<g id="node7" class="node">
<title>Node7</title>
<g id="a_node7"><a xlink:href="../../dd/d5c/stl__extensions_8hpp.html" target="_top" xlink:title=" ">
<polygon fill="white" stroke="#666666" points="185.5,-90.25 63.75,-90.25 63.75,-56.75 185.5,-56.75 185.5,-90.25"/>
<text text-anchor="start" x="71.75" y="-76.75" font-family="Helvetica,sans-Serif" font-size="10.00">Simple&#45;Utility/concepts</text>
<text text-anchor="middle" x="124.62" y="-64" font-family="Helvetica,sans-Serif" font-size="10.00">/stl_extensions.hpp</text>
</a>
</g>
</g>
<!-- Node1&#45;&gt;Node7 -->
<g id="edge9" class="edge">
<title>Node1&#45;&gt;Node7</title>
<path fill="none" stroke="#63b8ff" d="M283.44,-196.48C255.92,-188.4 224.78,-176.55 199.62,-159.75 175.78,-143.83 154.83,-118.49 141.17,-99.56"/>
<polygon fill="#63b8ff" stroke="#63b8ff" points="143.5,-97.78 134.89,-91.6 137.76,-101.8 143.5,-97.78"/>
</g>
<!-- Node9 -->
<g id="node9" class="node">
<title>Node9</title>
<g id="a_node9"><a xlink:href="../../d8/d05/_basic_closure_8hpp.html" target="_top" xlink:title=" ">
<polygon fill="white" stroke="#666666" points="369.12,-159.75 242.12,-159.75 242.12,-126.25 369.12,-126.25 369.12,-159.75"/>
<text text-anchor="start" x="250.12" y="-146.25" font-family="Helvetica,sans-Serif" font-size="10.00">Simple&#45;Utility/functional</text>
<text text-anchor="middle" x="305.62" y="-133.5" font-family="Helvetica,sans-Serif" font-size="10.00">/BasicClosure.hpp</text>
</a>
</g>
</g>
<!-- Node1&#45;&gt;Node9 -->
<g id="edge10" class="edge">
<title>Node1&#45;&gt;Node9</title>
<path fill="none" stroke="#63b8ff" d="M340.72,-195.5C335.28,-187.52 328.58,-177.68 322.49,-168.75"/>
<polygon fill="#63b8ff" stroke="#63b8ff" points="324.97,-167.17 316.45,-160.88 319.19,-171.12 324.97,-167.17"/>
</g>
<!-- Node10 -->
<g id="node10" class="node">
<title>Node10</title>
<g id="a_node10"><a xlink:href="../../dd/d5a/_general_8hpp.html" target="_top" xlink:title=" ">
<polygon fill="white" stroke="#666666" points="605.88,-159.75 501.38,-159.75 501.38,-126.25 605.88,-126.25 605.88,-159.75"/>
<text text-anchor="start" x="509.38" y="-146.25" font-family="Helvetica,sans-Serif" font-size="10.00">Simple&#45;Utility/tuple</text>
<text text-anchor="middle" x="553.62" y="-133.5" font-family="Helvetica,sans-Serif" font-size="10.00">/General.hpp</text>
</a>
</g>
</g>
<!-- Node1&#45;&gt;Node10 -->
<g id="edge16" class="edge">
<title>Node1&#45;&gt;Node10</title>
<path fill="none" stroke="#63b8ff" d="M400.01,-195.33C428.51,-185.81 464.77,-173.69 494.91,-163.62"/>
<polygon fill="#63b8ff" stroke="#63b8ff" points="495.91,-166.64 504.29,-160.15 493.69,-160 495.91,-166.64"/>
</g>
<!-- Node6&#45;&gt;Node7 -->
<g id="edge6" class="edge">
<title>Node6&#45;&gt;Node7</title>
<path fill="none" stroke="#63b8ff" d="M80.93,-132.33C87.41,-123.76 97.15,-110.86 105.8,-99.42"/>
<polygon fill="#63b8ff" stroke="#63b8ff" points="109.17,-101.76 112.41,-91.67 103.59,-97.54 109.17,-101.76"/>
</g>
<!-- Node7&#45;&gt;Node2 -->
<g id="edge8" class="edge">
<title>Node7&#45;&gt;Node2</title>
<path fill="none" stroke="#63b8ff" d="M158.33,-56.28C177.92,-46.85 202.41,-35.06 221.38,-25.93"/>
<polygon fill="#63b8ff" stroke="#63b8ff" points="222.79,-28.66 230.28,-21.17 219.76,-22.35 222.79,-28.66"/>
</g>
<!-- Node8 -->
<g id="node8" class="node">
<title>Node8</title>
<g id="a_node8"><a xlink:title=" ">
<polygon fill="#e0e0e0" stroke="#999999" points="152.5,-20.75 96.75,-20.75 96.75,0 152.5,0 152.5,-20.75"/>
<text text-anchor="middle" x="124.62" y="-7.25" font-family="Helvetica,sans-Serif" font-size="10.00">compare</text>
</a>
</g>
</g>
<!-- Node7&#45;&gt;Node8 -->
<g id="edge7" class="edge">
<title>Node7&#45;&gt;Node8</title>
<path fill="none" stroke="#63b8ff" d="M124.62,-56.44C124.62,-49.02 124.62,-40.11 124.62,-32.18"/>
<polygon fill="#63b8ff" stroke="#63b8ff" points="128.13,-32.22 124.62,-22.22 121.13,-32.22 128.13,-32.22"/>
</g>
<!-- Node9&#45;&gt;Node2 -->
<g id="edge11" class="edge">
<title>Node9&#45;&gt;Node2</title>
<path fill="none" stroke="#63b8ff" d="M295.18,-126.18C288.9,-116.19 281.09,-102.82 275.62,-90.25 267.22,-70.92 260.54,-47.73 256.39,-31.52"/>
<polygon fill="#63b8ff" stroke="#63b8ff" points="259.61,-30.97 253.82,-22.1 252.81,-32.65 259.61,-30.97"/>
</g>
<!-- Node9&#45;&gt;Node3 -->
<g id="edge12" class="edge">
<title>Node9&#45;&gt;Node3</title>
<path fill="none" stroke="#63b8ff" d="M315.82,-126C322.06,-116.19 330.09,-103.59 336.65,-93.3"/>
<polygon fill="#63b8ff" stroke="#63b8ff" points="339.95,-95.64 342.37,-85.32 334.04,-91.88 339.95,-95.64"/>
</g>
<!-- Node9&#45;&gt;Node4 -->
<g id="edge13" class="edge">
<title>Node9&#45;&gt;Node4</title>
<path fill="none" stroke="#63b8ff" d="M301.1,-126C296.87,-107.33 293.25,-76.5 308.62,-56.75 335,-22.86 385.18,-13.23 421.52,-11"/>
<polygon fill="#63b8ff" stroke="#63b8ff" points="421.48,-14.46 431.32,-10.52 421.17,-7.46 421.48,-14.46"/>
</g>
<!-- Node9&#45;&gt;Node5 -->
<g id="edge14" class="edge">
<title>Node9&#45;&gt;Node5</title>
<path fill="none" stroke="#63b8ff" d="M369.27,-135.14C464.48,-124.52 635.56,-103.89 660.62,-90.25 686.24,-76.31 706.83,-48.9 718.65,-30.35"/>
<polygon fill="#63b8ff" stroke="#63b8ff" points="722.07,-32.47 724.29,-22.1 716.09,-28.82 722.07,-32.47"/>
</g>
<!-- Node9&#45;&gt;Node7 -->
<g id="edge15" class="edge">
<title>Node9&#45;&gt;Node7</title>
<path fill="none" stroke="#63b8ff" d="M262.27,-125.83C236.95,-116.39 204.81,-104.4 177.95,-94.39"/>
<polygon fill="#63b8ff" stroke="#63b8ff" points="179.53,-90.87 168.94,-90.65 177.09,-97.43 179.53,-90.87"/>
</g>
<!-- Node10&#45;&gt;Node2 -->
<g id="edge17" class="edge">
<title>Node10&#45;&gt;Node2</title>
<path fill="none" stroke="#63b8ff" d="M525.66,-125.83C493.35,-107.55 438.26,-77.64 388.62,-56.75 356.31,-43.15 318.39,-30.86 290.65,-22.51"/>
<polygon fill="#63b8ff" stroke="#63b8ff" points="291.76,-18.89 281.18,-19.4 289.77,-25.61 291.76,-18.89"/>
</g>
<!-- Node10&#45;&gt;Node4 -->
<g id="edge19" class="edge">
<title>Node10&#45;&gt;Node4</title>
<path fill="none" stroke="#63b8ff" d="M535.1,-126.03C524.67,-116.39 511.92,-103.45 502.62,-90.25 489.54,-71.67 478.78,-47.89 472.09,-31.32"/>
<polygon fill="#63b8ff" stroke="#63b8ff" points="475.02,-30.2 468.13,-22.16 468.5,-32.74 475.02,-30.2"/>
</g>
<!-- Node10&#45;&gt;Node5 -->
<g id="edge20" class="edge">
<title>Node10&#45;&gt;Node5</title>
<path fill="none" stroke="#63b8ff" d="M606.09,-133.83C652.95,-125.34 716.46,-110.45 731.62,-90.25 744.24,-73.45 741.02,-48.46 736.41,-31.13"/>
<polygon fill="#63b8ff" stroke="#63b8ff" points="739.59,-30.56 733.33,-22.01 732.89,-32.6 739.59,-30.56"/>
</g>
<!-- Node11 -->
<g id="node11" class="node">
<title>Node11</title>
<g id="a_node11"><a xlink:title=" ">
<polygon fill="#e0e0e0" stroke="#999999" points="686.25,-20.75 647,-20.75 647,0 686.25,0 686.25,-20.75"/>
<text text-anchor="middle" x="666.62" y="-7.25" font-family="Helvetica,sans-Serif" font-size="10.00">tuple</text>
</a>
</g>
</g>
<!-- Node10&#45;&gt;Node11 -->
<g id="edge18" class="edge">
<title>Node10&#45;&gt;Node11</title>
<path fill="none" stroke="#63b8ff" d="M606.14,-128.9C626.49,-121.09 647.9,-108.92 660.62,-90.25 672.31,-73.1 672.29,-48.71 670.31,-31.61"/>
<polygon fill="#63b8ff" stroke="#63b8ff" points="673.68,-31.48 668.75,-22.11 666.76,-32.51 673.68,-31.48"/>
</g>
<!-- Node12 -->
<g id="node12" class="node">
<title>Node12</title>
<g id="a_node12"><a xlink:href="../../df/d2e/_type_list_8hpp.html" target="_top" xlink:title=" ">
<polygon fill="white" stroke="#666666" points="651.12,-83.88 512.12,-83.88 512.12,-63.12 651.12,-63.12 651.12,-83.88"/>
<text text-anchor="middle" x="581.62" y="-70.38" font-family="Helvetica,sans-Serif" font-size="10.00">Simple&#45;Utility/TypeList.hpp</text>
</a>
</g>
</g>
<!-- Node10&#45;&gt;Node12 -->
<g id="edge21" class="edge">
<title>Node10&#45;&gt;Node12</title>
<path fill="none" stroke="#63b8ff" d="M560.26,-126C564.2,-116.5 569.24,-104.37 573.43,-94.27"/>
<polygon fill="#63b8ff" stroke="#63b8ff" points="576.95,-95.9 577.55,-85.32 570.49,-93.22 576.95,-95.9"/>
</g>
<!-- Node12&#45;&gt;Node2 -->
<g id="edge23" class="edge">
<title>Node12&#45;&gt;Node2</title>
<path fill="none" stroke="#63b8ff" d="M528.6,-62.68C462.19,-50.38 349.96,-29.59 290.8,-18.63"/>
<polygon fill="#63b8ff" stroke="#63b8ff" points="291.53,-15.02 281.06,-16.64 290.25,-21.9 291.53,-15.02"/>
</g>
<!-- Node12&#45;&gt;Node4 -->
<g id="edge25" class="edge">
<title>Node12&#45;&gt;Node4</title>
<path fill="none" stroke="#63b8ff" d="M562.83,-62.68C543.98,-52.83 514.72,-37.55 493.04,-26.22"/>
<polygon fill="#63b8ff" stroke="#63b8ff" points="494.86,-22.7 484.38,-21.17 491.62,-28.9 494.86,-22.7"/>
</g>
<!-- Node12&#45;&gt;Node5 -->
<g id="edge26" class="edge">
<title>Node12&#45;&gt;Node5</title>
<path fill="none" stroke="#63b8ff" d="M605.4,-62.68C630.76,-52.21 671.02,-35.58 698.8,-24.11"/>
<polygon fill="#63b8ff" stroke="#63b8ff" points="699.87,-27.04 707.78,-19.99 697.2,-20.57 699.87,-27.04"/>
</g>
<!-- Node12&#45;&gt;Node11 -->
<g id="edge24" class="edge">
<title>Node12&#45;&gt;Node11</title>
<path fill="none" stroke="#63b8ff" d="M595.28,-62.68C608.54,-53.14 628.89,-38.51 644.47,-27.31"/>
<polygon fill="#63b8ff" stroke="#63b8ff" points="645.93,-29.85 652,-21.17 641.84,-24.17 645.93,-29.85"/>
</g>
<!-- Node13 -->
<g id="node13" class="node">
<title>Node13</title>
<g id="a_node13"><a xlink:title=" ">
<polygon fill="#e0e0e0" stroke="#999999" points="612.12,-20.75 551.12,-20.75 551.12,0 612.12,0 612.12,-20.75"/>
<text text-anchor="middle" x="581.62" y="-7.25" font-family="Helvetica,sans-Serif" font-size="10.00">algorithm</text>
</a>
</g>
</g>
<!-- Node12&#45;&gt;Node13 -->
<g id="edge22" class="edge">
<title>Node12&#45;&gt;Node13</title>
<path fill="none" stroke="#63b8ff" d="M581.62,-62.68C581.62,-54.34 581.62,-42.11 581.62,-31.68"/>
<polygon fill="#63b8ff" stroke="#63b8ff" points="585.13,-31.97 581.62,-21.97 578.13,-31.97 585.13,-31.97"/>
</g>
</g>
</svg>
