<?xml version="1.0" encoding="UTF-8" standalone="no"?>
<!DOCTYPE svg PUBLIC "-//W3C//DTD SVG 1.1//EN"
 "http://www.w3.org/Graphics/SVG/1.1/DTD/svg11.dtd">
<!-- Generated by graphviz version 8.0.5 (20230430.1635)
 -->
<!-- Title: Simple&#45;Utility/functional/mixins/Negation.hpp Pages: 1 -->
<svg width="406pt" height="237pt"
 viewBox="0.00 0.00 405.71 237.25" xmlns="http://www.w3.org/2000/svg" xmlns:xlink="http://www.w3.org/1999/xlink">
<g id="graph0" class="graph" transform="scale(1 1) rotate(0) translate(4 233.25)">
<title>Simple&#45;Utility/functional/mixins/Negation.hpp</title>
<!-- Node1 -->
<g id="node1" class="node">
<title>Node1</title>
<g id="a_node1"><a xlink:title=" ">
<polygon fill="#999999" stroke="#666666" points="165.34,-229.25 38.34,-229.25 38.34,-195.75 165.34,-195.75 165.34,-229.25"/>
<text text-anchor="start" x="46.34" y="-215.75" font-family="Helvetica,sans-Serif" font-size="10.00">Simple&#45;Utility/functional</text>
<text text-anchor="middle" x="101.84" y="-203" font-family="Helvetica,sans-Serif" font-size="10.00">/mixins/Negation.hpp</text>
</a>
</g>
</g>
<!-- Node2 -->
<g id="node2" class="node">
<title>Node2</title>
<g id="a_node2"><a xlink:title=" ">
<polygon fill="#e0e0e0" stroke="#999999" points="136.09,-20.75 79.59,-20.75 79.59,0 136.09,0 136.09,-20.75"/>
<text text-anchor="middle" x="107.84" y="-7.25" font-family="Helvetica,sans-Serif" font-size="10.00">concepts</text>
</a>
</g>
</g>
<!-- Node1&#45;&gt;Node2 -->
<g id="edge1" class="edge">
<title>Node1&#45;&gt;Node2</title>
<path fill="none" stroke="#63b8ff" d="M79.19,-195.27C42.43,-166.88 -23.07,-106.48 8.84,-56.75 22.03,-36.2 47.11,-24.83 68.73,-18.62"/>
<polygon fill="#63b8ff" stroke="#63b8ff" points="69.51,-21.77 78.32,-15.89 67.76,-14.99 69.51,-21.77"/>
</g>
<!-- Node3 -->
<g id="node3" class="node">
<title>Node3</title>
<g id="a_node3"><a xlink:title=" ">
<polygon fill="#e0e0e0" stroke="#999999" points="79.71,-83.88 17.96,-83.88 17.96,-63.12 79.71,-63.12 79.71,-83.88"/>
<text text-anchor="middle" x="48.84" y="-70.38" font-family="Helvetica,sans-Serif" font-size="10.00">functional</text>
</a>
</g>
</g>
<!-- Node1&#45;&gt;Node3 -->
<g id="edge2" class="edge">
<title>Node1&#45;&gt;Node3</title>
<path fill="none" stroke="#63b8ff" d="M95.65,-195.52C85.91,-170.33 67.01,-121.47 56.45,-94.17"/>
<polygon fill="#63b8ff" stroke="#63b8ff" points="59.47,-93.29 52.6,-85.23 52.94,-95.82 59.47,-93.29"/>
</g>
<!-- Node4 -->
<g id="node4" class="node">
<title>Node4</title>
<g id="a_node4"><a xlink:href="../../dd/d5c/stl__extensions_8hpp.html" target="_top" xlink:title=" ">
<polygon fill="white" stroke="#666666" points="397.71,-90.25 275.96,-90.25 275.96,-56.75 397.71,-56.75 397.71,-90.25"/>
<text text-anchor="start" x="283.96" y="-76.75" font-family="Helvetica,sans-Serif" font-size="10.00">Simple&#45;Utility/concepts</text>
<text text-anchor="middle" x="336.84" y="-64" font-family="Helvetica,sans-Serif" font-size="10.00">/stl_extensions.hpp</text>
</a>
</g>
</g>
<!-- Node1&#45;&gt;Node4 -->
<g id="edge3" class="edge">
<title>Node1&#45;&gt;Node4</title>
<path fill="none" stroke="#63b8ff" d="M154.06,-195.34C179.07,-186.54 208.92,-174.43 233.84,-159.75 263.41,-142.32 293.19,-116.58 313.06,-97.95"/>
<polygon fill="#63b8ff" stroke="#63b8ff" points="315.12,-100.88 319.95,-91.44 310.29,-95.81 315.12,-100.88"/>
</g>
<!-- Node6 -->
<g id="node6" class="node">
<title>Node6</title>
<g id="a_node6"><a xlink:href="../../d8/d05/_basic_closure_8hpp.html" target="_top" xlink:title=" ">
<polygon fill="white" stroke="#666666" points="224.34,-159.75 97.34,-159.75 97.34,-126.25 224.34,-126.25 224.34,-159.75"/>
<text text-anchor="start" x="105.34" y="-146.25" font-family="Helvetica,sans-Serif" font-size="10.00">Simple&#45;Utility/functional</text>
<text text-anchor="middle" x="160.84" y="-133.5" font-family="Helvetica,sans-Serif" font-size="10.00">/BasicClosure.hpp</text>
</a>
</g>
</g>
<!-- Node1&#45;&gt;Node6 -->
<g id="edge6" class="edge">
<title>Node1&#45;&gt;Node6</title>
<path fill="none" stroke="#63b8ff" d="M115.82,-195.5C123.02,-187.27 131.95,-177.05 139.94,-167.9"/>
<polygon fill="#63b8ff" stroke="#63b8ff" points="143.01,-170.71 146.96,-160.88 137.74,-166.11 143.01,-170.71"/>
</g>
<!-- Node4&#45;&gt;Node2 -->
<g id="edge5" class="edge">
<title>Node4&#45;&gt;Node2</title>
<path fill="none" stroke="#63b8ff" d="M276.07,-56.28C235.12,-45.35 182.32,-31.26 146.88,-21.8"/>
<polygon fill="#63b8ff" stroke="#63b8ff" points="148.04,-18.22 137.48,-19.02 146.24,-24.98 148.04,-18.22"/>
</g>
<!-- Node5 -->
<g id="node5" class="node">
<title>Node5</title>
<g id="a_node5"><a xlink:title=" ">
<polygon fill="#e0e0e0" stroke="#999999" points="364.71,-20.75 308.96,-20.75 308.96,0 364.71,0 364.71,-20.75"/>
<text text-anchor="middle" x="336.84" y="-7.25" font-family="Helvetica,sans-Serif" font-size="10.00">compare</text>
</a>
</g>
</g>
<!-- Node4&#45;&gt;Node5 -->
<g id="edge4" class="edge">
<title>Node4&#45;&gt;Node5</title>
<path fill="none" stroke="#63b8ff" d="M336.84,-56.44C336.84,-49.02 336.84,-40.11 336.84,-32.18"/>
<polygon fill="#63b8ff" stroke="#63b8ff" points="340.34,-32.22 336.84,-22.22 333.34,-32.22 340.34,-32.22"/>
</g>
<!-- Node6&#45;&gt;Node2 -->
<g id="edge7" class="edge">
<title>Node6&#45;&gt;Node2</title>
<path fill="none" stroke="#63b8ff" d="M148.27,-126.05C141.07,-116.22 132.39,-103.07 126.84,-90.25 118.59,-71.22 113.55,-47.98 110.75,-31.68"/>
<polygon fill="#63b8ff" stroke="#63b8ff" points="114.11,-31.52 109.09,-22.19 107.19,-32.61 114.11,-31.52"/>
</g>
<!-- Node6&#45;&gt;Node3 -->
<g id="edge8" class="edge">
<title>Node6&#45;&gt;Node3</title>
<path fill="none" stroke="#63b8ff" d="M134.01,-125.83C115.88,-114.91 92.09,-100.57 74.27,-89.83"/>
<polygon fill="#63b8ff" stroke="#63b8ff" points="76.42,-86.44 66.05,-84.27 72.81,-92.43 76.42,-86.44"/>
</g>
<!-- Node6&#45;&gt;Node4 -->
<g id="edge11" class="edge">
<title>Node6&#45;&gt;Node4</title>
<path fill="none" stroke="#63b8ff" d="M202.99,-125.83C227.5,-116.43 258.59,-104.51 284.64,-94.52"/>
<polygon fill="#63b8ff" stroke="#63b8ff" points="285.64,-97.5 293.72,-90.65 283.13,-90.97 285.64,-97.5"/>
</g>
<!-- Node7 -->
<g id="node7" class="node">
<title>Node7</title>
<g id="a_node7"><a xlink:title=" ">
<polygon fill="#e0e0e0" stroke="#999999" points="199.84,-83.88 135.84,-83.88 135.84,-63.12 199.84,-63.12 199.84,-83.88"/>
<text text-anchor="middle" x="167.84" y="-70.38" font-family="Helvetica,sans-Serif" font-size="10.00">type_traits</text>
</a>
</g>
</g>
<!-- Node6&#45;&gt;Node7 -->
<g id="edge9" class="edge">
<title>Node6&#45;&gt;Node7</title>
<path fill="none" stroke="#63b8ff" d="M162.5,-126C163.45,-116.8 164.66,-105.14 165.69,-95.24"/>
<polygon fill="#63b8ff" stroke="#63b8ff" points="169.27,-95.63 166.82,-85.32 162.31,-94.91 169.27,-95.63"/>
</g>
<!-- Node8 -->
<g id="node8" class="node">
<title>Node8</title>
<g id="a_node8"><a xlink:title=" ">
<polygon fill="#e0e0e0" stroke="#999999" points="258.21,-83.88 217.46,-83.88 217.46,-63.12 258.21,-63.12 258.21,-83.88"/>
<text text-anchor="middle" x="237.84" y="-70.38" font-family="Helvetica,sans-Serif" font-size="10.00">utility</text>
</a>
</g>
</g>
<!-- Node6&#45;&gt;Node8 -->
<g id="edge10" class="edge">
<title>Node6&#45;&gt;Node8</title>
<path fill="none" stroke="#63b8ff" d="M179.09,-126C190.97,-115.59 206.44,-102.02 218.53,-91.42"/>
<polygon fill="#63b8ff" stroke="#63b8ff" points="220.42,-93.55 225.63,-84.32 215.81,-88.28 220.42,-93.55"/>
</g>
</g>
</svg>
