<?xml version="1.0" encoding="UTF-8" standalone="no"?>
<!DOCTYPE svg PUBLIC "-//W3C//DTD SVG 1.1//EN"
 "http://www.w3.org/Graphics/SVG/1.1/DTD/svg11.dtd">
<!-- Generated by graphviz version 8.0.5 (20230430.1635)
 -->
<!-- Title: Simple&#45;Utility/concepts/stl_extensions.hpp Pages: 1 -->
<svg width="138pt" height="98pt"
 viewBox="0.00 0.00 138.12 98.25" xmlns="http://www.w3.org/2000/svg" xmlns:xlink="http://www.w3.org/1999/xlink">
<g id="graph0" class="graph" transform="scale(1 1) rotate(0) translate(4 94.25)">
<title>Simple&#45;Utility/concepts/stl_extensions.hpp</title>
<!-- Node1 -->
<g id="node1" class="node">
<title>Node1</title>
<g id="a_node1"><a xlink:title=" ">
<polygon fill="#999999" stroke="#666666" points="125.75,-90.25 4,-90.25 4,-56.75 125.75,-56.75 125.75,-90.25"/>
<text text-anchor="start" x="12" y="-76.75" font-family="Helvetica,sans-Serif" font-size="10.00">Simple&#45;Utility/concepts</text>
<text text-anchor="middle" x="64.88" y="-64" font-family="Helvetica,sans-Serif" font-size="10.00">/stl_extensions.hpp</text>
</a>
</g>
</g>
<!-- Node2 -->
<g id="node2" class="node">
<title>Node2</title>
<g id="a_node2"><a xlink:title=" ">
<polygon fill="#e0e0e0" stroke="#999999" points="55.75,-20.75 0,-20.75 0,0 55.75,0 55.75,-20.75"/>
<text text-anchor="middle" x="27.88" y="-7.25" font-family="Helvetica,sans-Serif" font-size="10.00">compare</text>
</a>
</g>
</g>
<!-- Node1&#45;&gt;Node2 -->
<g id="edge1" class="edge">
<title>Node1&#45;&gt;Node2</title>
<path fill="none" stroke="#63b8ff" d="M55.15,-56.44C50.34,-48.49 44.5,-38.84 39.46,-30.52"/>
<polygon fill="#63b8ff" stroke="#63b8ff" points="42.01,-28.96 33.83,-22.22 36.02,-32.58 42.01,-28.96"/>
</g>
<!-- Node3 -->
<g id="node3" class="node">
<title>Node3</title>
<g id="a_node3"><a xlink:title=" ">
<polygon fill="#e0e0e0" stroke="#999999" points="130.12,-20.75 73.62,-20.75 73.62,0 130.12,0 130.12,-20.75"/>
<text text-anchor="middle" x="101.88" y="-7.25" font-family="Helvetica,sans-Serif" font-size="10.00">concepts</text>
</a>
</g>
</g>
<!-- Node1&#45;&gt;Node3 -->
<g id="edge2" class="edge">
<title>Node1&#45;&gt;Node3</title>
<path fill="none" stroke="#63b8ff" d="M74.6,-56.44C79.41,-48.49 85.25,-38.84 90.29,-30.52"/>
<polygon fill="#63b8ff" stroke="#63b8ff" points="93.73,-32.58 95.92,-22.22 87.74,-28.96 93.73,-32.58"/>
</g>
</g>
</svg>
