<?xml version="1.0" encoding="UTF-8" standalone="no"?>
<!DOCTYPE svg PUBLIC "-//W3C//DTD SVG 1.1//EN"
 "http://www.w3.org/Graphics/SVG/1.1/DTD/svg11.dtd">
<!-- Generated by graphviz version 7.0.5 (20221223.1930)
 -->
<!-- Title: Simple&#45;Utility/tuple/algorithm.hpp Pages: 1 -->
<svg width="269pt" height="159pt"
 viewBox="0.00 0.00 268.50 159.00" xmlns="http://www.w3.org/2000/svg" xmlns:xlink="http://www.w3.org/1999/xlink">
<g id="graph0" class="graph" transform="scale(1 1) rotate(0) translate(4 155)">
<title>Simple&#45;Utility/tuple/algorithm.hpp</title>
<!-- Node1 -->
<g id="node1" class="node">
<title>Node1</title>
<g id="a_node1"><a xlink:title=" ">
<polygon fill="#999999" stroke="#666666" points="134.5,-151 29.5,-151 29.5,-121 134.5,-121 134.5,-151"/>
<text text-anchor="start" x="37.5" y="-139" font-family="Helvetica,sans-Serif" font-size="10.00">Simple&#45;Utility/tuple</text>
<text text-anchor="middle" x="82" y="-128" font-family="Helvetica,sans-Serif" font-size="10.00">/algorithm.hpp</text>
</a>
</g>
</g>
<!-- Node2 -->
<g id="node2" class="node">
<title>Node2</title>
<g id="a_node2"><a xlink:title=" ">
<polygon fill="#e0e0e0" stroke="#999999" points="62,-79.5 0,-79.5 0,-60.5 62,-60.5 62,-79.5"/>
<text text-anchor="middle" x="31" y="-67.5" font-family="Helvetica,sans-Serif" font-size="10.00">algorithm</text>
</a>
</g>
</g>
<!-- Node1&#45;&gt;Node2 -->
<g id="edge1" class="edge">
<title>Node1&#45;&gt;Node2</title>
<path fill="none" stroke="#63b8ff" d="M70.68,-120.8C63.12,-111.31 53.12,-98.76 45.05,-88.63"/>
<polygon fill="#63b8ff" stroke="#63b8ff" points="47.96,-86.67 38.99,-81.03 42.49,-91.03 47.96,-86.67"/>
</g>
<!-- Node3 -->
<g id="node3" class="node">
<title>Node3</title>
<g id="a_node3"><a xlink:href="../../d2/d30/general_8hpp.html" target="_top" xlink:title=" ">
<polygon fill="white" stroke="#666666" points="185.5,-85 80.5,-85 80.5,-55 185.5,-55 185.5,-85"/>
<text text-anchor="start" x="88.5" y="-73" font-family="Helvetica,sans-Serif" font-size="10.00">Simple&#45;Utility/tuple</text>
<text text-anchor="middle" x="133" y="-62" font-family="Helvetica,sans-Serif" font-size="10.00">/general.hpp</text>
</a>
</g>
</g>
<!-- Node1&#45;&gt;Node3 -->
<g id="edge2" class="edge">
<title>Node1&#45;&gt;Node3</title>
<path fill="none" stroke="#63b8ff" d="M93.32,-120.8C99.59,-112.92 107.54,-102.95 114.68,-93.99"/>
<polygon fill="#63b8ff" stroke="#63b8ff" points="117.27,-96.35 120.77,-86.35 111.8,-91.99 117.27,-96.35"/>
</g>
<!-- Node4 -->
<g id="node4" class="node">
<title>Node4</title>
<g id="a_node4"><a xlink:title=" ">
<polygon fill="#e0e0e0" stroke="#999999" points="59.5,-19 2.5,-19 2.5,0 59.5,0 59.5,-19"/>
<text text-anchor="middle" x="31" y="-7" font-family="Helvetica,sans-Serif" font-size="10.00">concepts</text>
</a>
</g>
</g>
<!-- Node3&#45;&gt;Node4 -->
<g id="edge3" class="edge">
<title>Node3&#45;&gt;Node4</title>
<path fill="none" stroke="#63b8ff" d="M107.79,-54.54C92.01,-45.49 71.77,-33.88 56.03,-24.85"/>
<polygon fill="#63b8ff" stroke="#63b8ff" points="58.15,-22.04 47.74,-20.1 54.67,-28.11 58.15,-22.04"/>
</g>
<!-- Node5 -->
<g id="node5" class="node">
<title>Node5</title>
<g id="a_node5"><a xlink:title=" ">
<polygon fill="#e0e0e0" stroke="#999999" points="118,-19 78,-19 78,0 118,0 118,-19"/>
<text text-anchor="middle" x="98" y="-7" font-family="Helvetica,sans-Serif" font-size="10.00">tuple</text>
</a>
</g>
</g>
<!-- Node3&#45;&gt;Node5 -->
<g id="edge4" class="edge">
<title>Node3&#45;&gt;Node5</title>
<path fill="none" stroke="#63b8ff" d="M124.35,-54.54C119.73,-46.82 114,-37.24 109.06,-28.99"/>
<polygon fill="#63b8ff" stroke="#63b8ff" points="112.11,-27.26 103.97,-20.47 106.1,-30.85 112.11,-27.26"/>
</g>
<!-- Node6 -->
<g id="node6" class="node">
<title>Node6</title>
<g id="a_node6"><a xlink:title=" ">
<polygon fill="#e0e0e0" stroke="#999999" points="201.5,-19 136.5,-19 136.5,0 201.5,0 201.5,-19"/>
<text text-anchor="middle" x="169" y="-7" font-family="Helvetica,sans-Serif" font-size="10.00">type_traits</text>
</a>
</g>
</g>
<!-- Node3&#45;&gt;Node6 -->
<g id="edge5" class="edge">
<title>Node3&#45;&gt;Node6</title>
<path fill="none" stroke="#63b8ff" d="M141.9,-54.54C146.7,-46.74 152.68,-37.03 157.79,-28.71"/>
<polygon fill="#63b8ff" stroke="#63b8ff" points="160.61,-30.82 162.87,-20.46 154.65,-27.15 160.61,-30.82"/>
</g>
<!-- Node7 -->
<g id="node7" class="node">
<title>Node7</title>
<g id="a_node7"><a xlink:title=" ">
<polygon fill="#e0e0e0" stroke="#999999" points="260.5,-19 219.5,-19 219.5,0 260.5,0 260.5,-19"/>
<text text-anchor="middle" x="240" y="-7" font-family="Helvetica,sans-Serif" font-size="10.00">utility</text>
</a>
</g>
</g>
<!-- Node3&#45;&gt;Node7 -->
<g id="edge6" class="edge">
<title>Node3&#45;&gt;Node7</title>
<path fill="none" stroke="#63b8ff" d="M159.45,-54.54C176,-45.49 197.24,-33.88 213.75,-24.85"/>
<polygon fill="#63b8ff" stroke="#63b8ff" points="215.4,-27.94 222.49,-20.07 212.04,-21.8 215.4,-27.94"/>
</g>
</g>
</svg>
