<?xml version="1.0" encoding="UTF-8" standalone="no"?>
<!DOCTYPE svg PUBLIC "-//W3C//DTD SVG 1.1//EN"
 "http://www.w3.org/Graphics/SVG/1.1/DTD/svg11.dtd">
<!-- Generated by graphviz version 8.0.5 (20230430.1635)
 -->
<!-- Title: Simple&#45;Utility/tuple/algorithm.hpp Pages: 1 -->
<svg width="265pt" height="168pt"
 viewBox="0.00 0.00 264.88 167.75" xmlns="http://www.w3.org/2000/svg" xmlns:xlink="http://www.w3.org/1999/xlink">
<g id="graph0" class="graph" transform="scale(1 1) rotate(0) translate(4 163.75)">
<title>Simple&#45;Utility/tuple/algorithm.hpp</title>
<!-- Node1 -->
<g id="node1" class="node">
<title>Node1</title>
<g id="a_node1"><a xlink:title=" ">
<polygon fill="#999999" stroke="#666666" points="132.75,-159.75 28.25,-159.75 28.25,-126.25 132.75,-126.25 132.75,-159.75"/>
<text text-anchor="start" x="36.25" y="-146.25" font-family="Helvetica,sans-Serif" font-size="10.00">Simple&#45;Utility/tuple</text>
<text text-anchor="middle" x="80.5" y="-133.5" font-family="Helvetica,sans-Serif" font-size="10.00">/algorithm.hpp</text>
</a>
</g>
</g>
<!-- Node2 -->
<g id="node2" class="node">
<title>Node2</title>
<g id="a_node2"><a xlink:title=" ">
<polygon fill="#e0e0e0" stroke="#999999" points="61,-83.88 0,-83.88 0,-63.12 61,-63.12 61,-83.88"/>
<text text-anchor="middle" x="30.5" y="-70.38" font-family="Helvetica,sans-Serif" font-size="10.00">algorithm</text>
</a>
</g>
</g>
<!-- Node1&#45;&gt;Node2 -->
<g id="edge1" class="edge">
<title>Node1&#45;&gt;Node2</title>
<path fill="none" stroke="#63b8ff" d="M68.65,-126C61.31,-116.09 51.86,-103.33 44.19,-92.99"/>
<polygon fill="#63b8ff" stroke="#63b8ff" points="46.54,-91.27 37.78,-85.32 40.92,-95.44 46.54,-91.27"/>
</g>
<!-- Node3 -->
<g id="node3" class="node">
<title>Node3</title>
<g id="a_node3"><a xlink:href="../../d2/d30/general_8hpp.html" target="_top" xlink:title=" ">
<polygon fill="white" stroke="#666666" points="183.75,-90.25 79.25,-90.25 79.25,-56.75 183.75,-56.75 183.75,-90.25"/>
<text text-anchor="start" x="87.25" y="-76.75" font-family="Helvetica,sans-Serif" font-size="10.00">Simple&#45;Utility/tuple</text>
<text text-anchor="middle" x="131.5" y="-64" font-family="Helvetica,sans-Serif" font-size="10.00">/general.hpp</text>
</a>
</g>
</g>
<!-- Node1&#45;&gt;Node3 -->
<g id="edge2" class="edge">
<title>Node1&#45;&gt;Node3</title>
<path fill="none" stroke="#63b8ff" d="M92.59,-126C98.68,-117.93 106.21,-107.97 113.02,-98.96"/>
<polygon fill="#63b8ff" stroke="#63b8ff" points="116.26,-101.47 119.5,-91.38 110.68,-97.25 116.26,-101.47"/>
</g>
<!-- Node4 -->
<g id="node4" class="node">
<title>Node4</title>
<g id="a_node4"><a xlink:title=" ">
<polygon fill="#e0e0e0" stroke="#999999" points="58.75,-20.75 2.25,-20.75 2.25,0 58.75,0 58.75,-20.75"/>
<text text-anchor="middle" x="30.5" y="-7.25" font-family="Helvetica,sans-Serif" font-size="10.00">concepts</text>
</a>
</g>
</g>
<!-- Node3&#45;&gt;Node4 -->
<g id="edge3" class="edge">
<title>Node3&#45;&gt;Node4</title>
<path fill="none" stroke="#63b8ff" d="M104.7,-56.28C89.55,-47.11 70.72,-35.72 55.82,-26.7"/>
<polygon fill="#63b8ff" stroke="#63b8ff" points="58.04,-23.35 47.68,-21.17 54.42,-29.34 58.04,-23.35"/>
</g>
<!-- Node5 -->
<g id="node5" class="node">
<title>Node5</title>
<g id="a_node5"><a xlink:title=" ">
<polygon fill="#e0e0e0" stroke="#999999" points="116.12,-20.75 76.88,-20.75 76.88,0 116.12,0 116.12,-20.75"/>
<text text-anchor="middle" x="96.5" y="-7.25" font-family="Helvetica,sans-Serif" font-size="10.00">tuple</text>
</a>
</g>
</g>
<!-- Node3&#45;&gt;Node5 -->
<g id="edge4" class="edge">
<title>Node3&#45;&gt;Node5</title>
<path fill="none" stroke="#63b8ff" d="M122.3,-56.44C117.75,-48.49 112.23,-38.84 107.46,-30.52"/>
<polygon fill="#63b8ff" stroke="#63b8ff" points="110.14,-29.16 102.14,-22.22 104.07,-32.63 110.14,-29.16"/>
</g>
<!-- Node6 -->
<g id="node6" class="node">
<title>Node6</title>
<g id="a_node6"><a xlink:title=" ">
<polygon fill="#e0e0e0" stroke="#999999" points="198.5,-20.75 134.5,-20.75 134.5,0 198.5,0 198.5,-20.75"/>
<text text-anchor="middle" x="166.5" y="-7.25" font-family="Helvetica,sans-Serif" font-size="10.00">type_traits</text>
</a>
</g>
</g>
<!-- Node3&#45;&gt;Node6 -->
<g id="edge5" class="edge">
<title>Node3&#45;&gt;Node6</title>
<path fill="none" stroke="#63b8ff" d="M140.7,-56.44C145.25,-48.49 150.77,-38.84 155.54,-30.52"/>
<polygon fill="#63b8ff" stroke="#63b8ff" points="158.93,-32.63 160.86,-22.22 152.86,-29.16 158.93,-32.63"/>
</g>
<!-- Node7 -->
<g id="node7" class="node">
<title>Node7</title>
<g id="a_node7"><a xlink:title=" ">
<polygon fill="#e0e0e0" stroke="#999999" points="256.88,-20.75 216.12,-20.75 216.12,0 256.88,0 256.88,-20.75"/>
<text text-anchor="middle" x="236.5" y="-7.25" font-family="Helvetica,sans-Serif" font-size="10.00">utility</text>
</a>
</g>
</g>
<!-- Node3&#45;&gt;Node7 -->
<g id="edge6" class="edge">
<title>Node3&#45;&gt;Node7</title>
<path fill="none" stroke="#63b8ff" d="M159.36,-56.28C175.26,-47.02 195.06,-35.5 210.62,-26.44"/>
<polygon fill="#63b8ff" stroke="#63b8ff" points="211.8,-29.22 218.68,-21.17 208.28,-23.17 211.8,-29.22"/>
</g>
</g>
</svg>
