<?xml version="1.0" encoding="UTF-8" standalone="no"?>
<!DOCTYPE svg PUBLIC "-//W3C//DTD SVG 1.1//EN"
 "http://www.w3.org/Graphics/SVG/1.1/DTD/svg11.dtd">
<!-- Generated by graphviz version 2.43.0 (0)
 -->
<!-- Title: /home/runner/work/Simple&#45;Utility/Simple&#45;Utility/include/Simple&#45;Utility/functional/operators/bind.hpp Pages: 1 -->
<!--zoomable 328 -->
<svg id="main" version="1.1" xmlns="http://www.w3.org/2000/svg" xmlns:xlink="http://www.w3.org/1999/xlink" xml:space="preserve" onload="init(evt)">
<style type="text/css"><![CDATA[
.edge:hover path { stroke: red; }
.edge:hover polygon { stroke: red; fill: red; }
]]></style>
<script type="text/javascript"><![CDATA[
var edges = document.getElementsByTagName('g');
if (edges && edges.length) {
  for (var i=0;i<edges.length;i++) {
    if (edges[i].id.substr(0,4)=='edge') {
      edges[i].setAttribute('class','edge');
    }
  }
}
]]></script>
        <defs>
                <circle id="rim" cx="0" cy="0" r="7"/>
                <circle id="rim2" cx="0" cy="0" r="3.5"/>
                <g id="zoomPlus">
                        <use xlink:href="#rim" fill="#404040">
                                <set attributeName="fill" to="#808080" begin="zoomplus.mouseover" end="zoomplus.mouseout"/>
                        </use>
                        <path d="M-4,0h8M0,-4v8" fill="none" stroke="white" stroke-width="1.5" pointer-events="none"/>
                </g>
                <g id="zoomMin">
                        <use xlink:href="#rim" fill="#404040">
                                <set attributeName="fill" to="#808080" begin="zoomminus.mouseover" end="zoomminus.mouseout"/>
                        </use>
                        <path d="M-4,0h8" fill="none" stroke="white" stroke-width="1.5" pointer-events="none"/>
                </g>
                <g id="dirArrow">
                        <path fill="none" stroke="white" stroke-width="1.5" d="M0,-3.0v7 M-2.5,-0.5L0,-3.0L2.5,-0.5"/>
                </g>
               <g id="resetDef">
                       <use xlink:href="#rim2" fill="#404040">
                               <set attributeName="fill" to="#808080" begin="reset.mouseover" end="reset.mouseout"/>
                       </use>
               </g>
        </defs>

<script type="text/javascript">
var viewWidth = 2085;
var viewHeight = 328;
var sectionId = 'dynsection-1';
</script>
<script xlink:href="../../svgpan.js"/>
<svg id="graph" class="graph">
<g id="viewport">
<title>/home/runner/work/Simple&#45;Utility/Simple&#45;Utility/include/Simple&#45;Utility/functional/operators/bind.hpp</title>
<polygon fill="white" stroke="transparent" points="-4,4 -4,-324 2080.72,-324 2080.72,4 -4,4"/>
<!-- Node1 -->
<g id="node1" class="node">
<title>Node1</title>
<g id="a_node1"><a xlink:title=" ">
<polygon fill="#bfbfbf" stroke="black" points="303.22,-267.5 303.22,-319.5 466.22,-319.5 466.22,-267.5 303.22,-267.5"/>
<text text-anchor="start" x="311.22" y="-307.5" font-family="Helvetica,sans-Serif" font-size="10.00">/home/runner/work/Simple</text>
<text text-anchor="start" x="311.22" y="-296.5" font-family="Helvetica,sans-Serif" font-size="10.00">&#45;Utility/Simple&#45;Utility</text>
<text text-anchor="start" x="311.22" y="-285.5" font-family="Helvetica,sans-Serif" font-size="10.00">/include/Simple&#45;Utility</text>
<text text-anchor="middle" x="384.72" y="-274.5" font-family="Helvetica,sans-Serif" font-size="10.00">/functional/operators/bind.hpp</text>
</a>
</g>
</g>
<!-- Node2 -->
<g id="node2" class="node">
<title>Node2</title>
<g id="a_node2"><a xlink:href="../../d2/d7e/predicate_8hpp.html" target="_top" xlink:title=" ">
<polygon fill="white" stroke="black" points="46.72,-178.5 46.72,-230.5 192.72,-230.5 192.72,-178.5 46.72,-178.5"/>
<text text-anchor="start" x="54.72" y="-218.5" font-family="Helvetica,sans-Serif" font-size="10.00">/home/runner/work/Simple</text>
<text text-anchor="start" x="54.72" y="-207.5" font-family="Helvetica,sans-Serif" font-size="10.00">&#45;Utility/Simple&#45;Utility</text>
<text text-anchor="start" x="54.72" y="-196.5" font-family="Helvetica,sans-Serif" font-size="10.00">/include/Simple&#45;Utility</text>
<text text-anchor="middle" x="119.72" y="-185.5" font-family="Helvetica,sans-Serif" font-size="10.00">/functional/predicate.hpp</text>
</a>
</g>
</g>
<!-- Node1&#45;&gt;Node2 -->
<g id="edge1" class="edge">
<title>Node1&#45;&gt;Node2</title>
<path fill="none" stroke="midnightblue" d="M298.9,-264.33C264.64,-253.08 225.61,-240.26 192.74,-229.47"/>
<polygon fill="midnightblue" stroke="midnightblue" points="297.83,-267.66 308.43,-267.45 300.02,-261.01 297.83,-267.66"/>
</g>
<!-- Node4 -->
<g id="node4" class="node">
<title>Node4</title>
<g id="a_node4"><a xlink:href="../../d2/db4/functional_8hpp.html" target="_top" xlink:title=" ">
<polygon fill="white" stroke="black" points="147.72,-0.5 147.72,-52.5 293.72,-52.5 293.72,-0.5 147.72,-0.5"/>
<text text-anchor="start" x="155.72" y="-40.5" font-family="Helvetica,sans-Serif" font-size="10.00">/home/runner/work/Simple</text>
<text text-anchor="start" x="155.72" y="-29.5" font-family="Helvetica,sans-Serif" font-size="10.00">&#45;Utility/Simple&#45;Utility</text>
<text text-anchor="start" x="155.72" y="-18.5" font-family="Helvetica,sans-Serif" font-size="10.00">/include/Simple&#45;Utility</text>
<text text-anchor="middle" x="220.72" y="-7.5" font-family="Helvetica,sans-Serif" font-size="10.00">/functional.hpp</text>
</a>
</g>
</g>
<!-- Node1&#45;&gt;Node4 -->
<g id="edge22" class="edge">
<title>Node1&#45;&gt;Node4</title>
<path fill="none" stroke="midnightblue" d="M292.97,-288.12C202.29,-281.78 72.26,-266.61 37.72,-231 -6.41,-185.51 -12.79,-140.08 24.72,-89 52.69,-50.91 104.21,-35.78 147.41,-30.04"/>
<polygon fill="midnightblue" stroke="midnightblue" points="292.78,-291.62 302.99,-288.8 293.25,-284.63 292.78,-291.62"/>
</g>
<!-- Node5 -->
<g id="node5" class="node">
<title>Node5</title>
<g id="a_node5"><a xlink:href="../../d6/deb/transform_8hpp.html" target="_top" xlink:title=" ">
<polygon fill="white" stroke="black" points="494.72,-178.5 494.72,-230.5 640.72,-230.5 640.72,-178.5 494.72,-178.5"/>
<text text-anchor="start" x="502.72" y="-218.5" font-family="Helvetica,sans-Serif" font-size="10.00">/home/runner/work/Simple</text>
<text text-anchor="start" x="502.72" y="-207.5" font-family="Helvetica,sans-Serif" font-size="10.00">&#45;Utility/Simple&#45;Utility</text>
<text text-anchor="start" x="502.72" y="-196.5" font-family="Helvetica,sans-Serif" font-size="10.00">/include/Simple&#45;Utility</text>
<text text-anchor="middle" x="567.72" y="-185.5" font-family="Helvetica,sans-Serif" font-size="10.00">/functional/transform.hpp</text>
</a>
</g>
</g>
<!-- Node1&#45;&gt;Node5 -->
<g id="edge5" class="edge">
<title>Node1&#45;&gt;Node5</title>
<path fill="none" stroke="midnightblue" d="M446.95,-262.92C469.04,-252.41 493.68,-240.7 514.91,-230.61"/>
<polygon fill="midnightblue" stroke="midnightblue" points="445.18,-259.88 437.65,-267.34 448.18,-266.2 445.18,-259.88"/>
</g>
<!-- Node14 -->
<g id="node14" class="node">
<title>Node14</title>
<g id="a_node14"><a xlink:href="../../d6/dbe/nullables_2base_8hpp.html" target="_top" xlink:title=" ">
<polygon fill="white" stroke="black" points="1314.72,-178.5 1314.72,-230.5 1460.72,-230.5 1460.72,-178.5 1314.72,-178.5"/>
<text text-anchor="start" x="1322.72" y="-218.5" font-family="Helvetica,sans-Serif" font-size="10.00">/home/runner/work/Simple</text>
<text text-anchor="start" x="1322.72" y="-207.5" font-family="Helvetica,sans-Serif" font-size="10.00">&#45;Utility/Simple&#45;Utility</text>
<text text-anchor="start" x="1322.72" y="-196.5" font-family="Helvetica,sans-Serif" font-size="10.00">/include/Simple&#45;Utility</text>
<text text-anchor="middle" x="1387.72" y="-185.5" font-family="Helvetica,sans-Serif" font-size="10.00">/nullables/base.hpp</text>
</a>
</g>
</g>
<!-- Node1&#45;&gt;Node14 -->
<g id="edge23" class="edge">
<title>Node1&#45;&gt;Node14</title>
<path fill="none" stroke="midnightblue" d="M476.42,-284.55C673.66,-267.44 1134.88,-227.43 1314.39,-211.86"/>
<polygon fill="midnightblue" stroke="midnightblue" points="476.03,-281.07 466.37,-285.42 476.64,-288.04 476.03,-281.07"/>
</g>
<!-- Node3 -->
<g id="node3" class="node">
<title>Node3</title>
<g id="a_node3"><a xlink:href="../../dd/d3f/compare_8hpp.html" target="_top" xlink:title=" ">
<polygon fill="white" stroke="black" points="46.72,-89.5 46.72,-141.5 192.72,-141.5 192.72,-89.5 46.72,-89.5"/>
<text text-anchor="start" x="54.72" y="-129.5" font-family="Helvetica,sans-Serif" font-size="10.00">/home/runner/work/Simple</text>
<text text-anchor="start" x="54.72" y="-118.5" font-family="Helvetica,sans-Serif" font-size="10.00">&#45;Utility/Simple&#45;Utility</text>
<text text-anchor="start" x="54.72" y="-107.5" font-family="Helvetica,sans-Serif" font-size="10.00">/include/Simple&#45;Utility</text>
<text text-anchor="middle" x="119.72" y="-96.5" font-family="Helvetica,sans-Serif" font-size="10.00">/functional/compare.hpp</text>
</a>
</g>
</g>
<!-- Node2&#45;&gt;Node3 -->
<g id="edge2" class="edge">
<title>Node2&#45;&gt;Node3</title>
<path fill="none" stroke="midnightblue" d="M119.72,-168.19C119.72,-159.28 119.72,-149.9 119.72,-141.61"/>
<polygon fill="midnightblue" stroke="midnightblue" points="116.22,-168.34 119.72,-178.34 123.22,-168.34 116.22,-168.34"/>
</g>
<!-- Node2&#45;&gt;Node4 -->
<g id="edge4" class="edge">
<title>Node2&#45;&gt;Node4</title>
<path fill="none" stroke="midnightblue" d="M63.29,-172.34C52.97,-163.92 43.62,-153.8 37.72,-142 27.19,-120.93 23.97,-108.13 37.72,-89 62.66,-54.3 108.15,-38.91 147.54,-32.2"/>
<polygon fill="midnightblue" stroke="midnightblue" points="61.25,-175.19 71.32,-178.46 65.48,-169.61 61.25,-175.19"/>
</g>
<!-- Node3&#45;&gt;Node4 -->
<g id="edge3" class="edge">
<title>Node3&#45;&gt;Node4</title>
<path fill="none" stroke="midnightblue" d="M156.7,-82.65C168.19,-72.75 180.69,-61.98 191.57,-52.61"/>
<polygon fill="midnightblue" stroke="midnightblue" points="154.23,-80.16 148.93,-89.34 158.79,-85.46 154.23,-80.16"/>
</g>
<!-- Node5&#45;&gt;Node3 -->
<g id="edge8" class="edge">
<title>Node5&#45;&gt;Node3</title>
<path fill="none" stroke="midnightblue" d="M484.5,-192.13C410.97,-181.42 301.09,-163.79 206.72,-142 202.27,-140.97 197.72,-139.85 193.13,-138.67"/>
<polygon fill="midnightblue" stroke="midnightblue" points="484.22,-195.63 494.62,-193.6 485.23,-188.7 484.22,-195.63"/>
</g>
<!-- Node5&#45;&gt;Node4 -->
<g id="edge13" class="edge">
<title>Node5&#45;&gt;Node4</title>
<path fill="none" stroke="midnightblue" d="M484.73,-198.59C398.97,-191.73 273.06,-176.04 239.72,-142 216.74,-118.53 215.32,-78.53 217.32,-52.56"/>
<polygon fill="midnightblue" stroke="midnightblue" points="484.47,-202.08 494.71,-199.37 485.01,-195.1 484.47,-202.08"/>
</g>
<!-- Node6 -->
<g id="node6" class="node">
<title>Node6</title>
<g id="a_node6"><a xlink:href="../../d3/d23/arithmetic_8hpp.html" target="_top" xlink:title=" ">
<polygon fill="white" stroke="black" points="248.72,-89.5 248.72,-141.5 394.72,-141.5 394.72,-89.5 248.72,-89.5"/>
<text text-anchor="start" x="256.72" y="-129.5" font-family="Helvetica,sans-Serif" font-size="10.00">/home/runner/work/Simple</text>
<text text-anchor="start" x="256.72" y="-118.5" font-family="Helvetica,sans-Serif" font-size="10.00">&#45;Utility/Simple&#45;Utility</text>
<text text-anchor="start" x="256.72" y="-107.5" font-family="Helvetica,sans-Serif" font-size="10.00">/include/Simple&#45;Utility</text>
<text text-anchor="middle" x="321.72" y="-96.5" font-family="Helvetica,sans-Serif" font-size="10.00">/functional/arithmetic.hpp</text>
</a>
</g>
</g>
<!-- Node5&#45;&gt;Node6 -->
<g id="edge6" class="edge">
<title>Node5&#45;&gt;Node6</title>
<path fill="none" stroke="midnightblue" d="M487.13,-175C456.58,-164.19 422.05,-151.98 392.47,-141.52"/>
<polygon fill="midnightblue" stroke="midnightblue" points="486.3,-178.42 496.9,-178.45 488.64,-171.82 486.3,-178.42"/>
</g>
<!-- Node7 -->
<g id="node7" class="node">
<title>Node7</title>
<g id="a_node7"><a xlink:href="../../d9/d5f/functional_2tuple_8hpp.html" target="_top" xlink:title=" ">
<polygon fill="white" stroke="black" points="412.72,-89.5 412.72,-141.5 558.72,-141.5 558.72,-89.5 412.72,-89.5"/>
<text text-anchor="start" x="420.72" y="-129.5" font-family="Helvetica,sans-Serif" font-size="10.00">/home/runner/work/Simple</text>
<text text-anchor="start" x="420.72" y="-118.5" font-family="Helvetica,sans-Serif" font-size="10.00">&#45;Utility/Simple&#45;Utility</text>
<text text-anchor="start" x="420.72" y="-107.5" font-family="Helvetica,sans-Serif" font-size="10.00">/include/Simple&#45;Utility</text>
<text text-anchor="middle" x="485.72" y="-96.5" font-family="Helvetica,sans-Serif" font-size="10.00">/functional/tuple.hpp</text>
</a>
</g>
</g>
<!-- Node5&#45;&gt;Node7 -->
<g id="edge9" class="edge">
<title>Node5&#45;&gt;Node7</title>
<path fill="none" stroke="midnightblue" d="M536.89,-170.79C527.78,-161.13 517.96,-150.71 509.38,-141.61"/>
<polygon fill="midnightblue" stroke="midnightblue" points="534.6,-173.46 544,-178.34 539.69,-168.66 534.6,-173.46"/>
</g>
<!-- Node8 -->
<g id="node8" class="node">
<title>Node8</title>
<g id="a_node8"><a xlink:href="../../df/d4e/functional_2utility_8hpp.html" target="_top" xlink:title=" ">
<polygon fill="white" stroke="black" points="576.72,-89.5 576.72,-141.5 722.72,-141.5 722.72,-89.5 576.72,-89.5"/>
<text text-anchor="start" x="584.72" y="-129.5" font-family="Helvetica,sans-Serif" font-size="10.00">/home/runner/work/Simple</text>
<text text-anchor="start" x="584.72" y="-118.5" font-family="Helvetica,sans-Serif" font-size="10.00">&#45;Utility/Simple&#45;Utility</text>
<text text-anchor="start" x="584.72" y="-107.5" font-family="Helvetica,sans-Serif" font-size="10.00">/include/Simple&#45;Utility</text>
<text text-anchor="middle" x="649.72" y="-96.5" font-family="Helvetica,sans-Serif" font-size="10.00">/functional/utility.hpp</text>
</a>
</g>
</g>
<!-- Node5&#45;&gt;Node8 -->
<g id="edge11" class="edge">
<title>Node5&#45;&gt;Node8</title>
<path fill="none" stroke="midnightblue" d="M598.55,-170.79C607.66,-161.13 617.48,-150.71 626.06,-141.61"/>
<polygon fill="midnightblue" stroke="midnightblue" points="595.75,-168.66 591.44,-178.34 600.84,-173.46 595.75,-168.66"/>
</g>
<!-- Node9 -->
<g id="node9" class="node">
<title>Node9</title>
<g id="a_node9"><a xlink:href="../../d4/dc9/and__then_8hpp.html" target="_top" xlink:title=" ">
<polygon fill="white" stroke="black" points="740.72,-89.5 740.72,-141.5 886.72,-141.5 886.72,-89.5 740.72,-89.5"/>
<text text-anchor="start" x="748.72" y="-129.5" font-family="Helvetica,sans-Serif" font-size="10.00">/home/runner/work/Simple</text>
<text text-anchor="start" x="748.72" y="-118.5" font-family="Helvetica,sans-Serif" font-size="10.00">&#45;Utility/Simple&#45;Utility</text>
<text text-anchor="start" x="748.72" y="-107.5" font-family="Helvetica,sans-Serif" font-size="10.00">/include/Simple&#45;Utility</text>
<text text-anchor="middle" x="813.72" y="-96.5" font-family="Helvetica,sans-Serif" font-size="10.00">/nullables/and_then.hpp</text>
</a>
</g>
</g>
<!-- Node5&#45;&gt;Node9 -->
<g id="edge14" class="edge">
<title>Node5&#45;&gt;Node9</title>
<path fill="none" stroke="midnightblue" d="M648.31,-175C678.86,-164.19 713.39,-151.98 742.97,-141.52"/>
<polygon fill="midnightblue" stroke="midnightblue" points="646.8,-171.82 638.54,-178.45 649.14,-178.42 646.8,-171.82"/>
</g>
<!-- Node11 -->
<g id="node11" class="node">
<title>Node11</title>
<g id="a_node11"><a xlink:href="../../d7/d5f/fwd__value_8hpp.html" target="_top" xlink:title=" ">
<polygon fill="white" stroke="black" points="904.72,-89.5 904.72,-141.5 1050.72,-141.5 1050.72,-89.5 904.72,-89.5"/>
<text text-anchor="start" x="912.72" y="-129.5" font-family="Helvetica,sans-Serif" font-size="10.00">/home/runner/work/Simple</text>
<text text-anchor="start" x="912.72" y="-118.5" font-family="Helvetica,sans-Serif" font-size="10.00">&#45;Utility/Simple&#45;Utility</text>
<text text-anchor="start" x="912.72" y="-107.5" font-family="Helvetica,sans-Serif" font-size="10.00">/include/Simple&#45;Utility</text>
<text text-anchor="middle" x="977.72" y="-96.5" font-family="Helvetica,sans-Serif" font-size="10.00">/nullables/fwd_value.hpp</text>
</a>
</g>
</g>
<!-- Node5&#45;&gt;Node11 -->
<g id="edge16" class="edge">
<title>Node5&#45;&gt;Node11</title>
<path fill="none" stroke="midnightblue" d="M650.9,-190.65C717.55,-179.69 813.22,-162.49 895.72,-142 898.61,-141.28 901.56,-140.52 904.52,-139.73"/>
<polygon fill="midnightblue" stroke="midnightblue" points="650.18,-187.22 640.87,-192.28 651.31,-194.13 650.18,-187.22"/>
</g>
<!-- Node12 -->
<g id="node12" class="node">
<title>Node12</title>
<g id="a_node12"><a xlink:href="../../d2/d0e/or__else_8hpp.html" target="_top" xlink:title=" ">
<polygon fill="white" stroke="black" points="1068.72,-89.5 1068.72,-141.5 1214.72,-141.5 1214.72,-89.5 1068.72,-89.5"/>
<text text-anchor="start" x="1076.72" y="-129.5" font-family="Helvetica,sans-Serif" font-size="10.00">/home/runner/work/Simple</text>
<text text-anchor="start" x="1076.72" y="-118.5" font-family="Helvetica,sans-Serif" font-size="10.00">&#45;Utility/Simple&#45;Utility</text>
<text text-anchor="start" x="1076.72" y="-107.5" font-family="Helvetica,sans-Serif" font-size="10.00">/include/Simple&#45;Utility</text>
<text text-anchor="middle" x="1141.72" y="-96.5" font-family="Helvetica,sans-Serif" font-size="10.00">/nullables/or_else.hpp</text>
</a>
</g>
</g>
<!-- Node5&#45;&gt;Node12 -->
<g id="edge18" class="edge">
<title>Node5&#45;&gt;Node12</title>
<path fill="none" stroke="midnightblue" d="M651.11,-197.6C749.58,-189.6 917.92,-172.66 1059.72,-142 1062.63,-141.37 1065.59,-140.68 1068.57,-139.95"/>
<polygon fill="midnightblue" stroke="midnightblue" points="650.61,-194.13 640.92,-198.42 651.17,-201.11 650.61,-194.13"/>
</g>
<!-- Node13 -->
<g id="node13" class="node">
<title>Node13</title>
<g id="a_node13"><a xlink:href="../../d0/d48/value__or_8hpp.html" target="_top" xlink:title=" ">
<polygon fill="white" stroke="black" points="1232.72,-89.5 1232.72,-141.5 1378.72,-141.5 1378.72,-89.5 1232.72,-89.5"/>
<text text-anchor="start" x="1240.72" y="-129.5" font-family="Helvetica,sans-Serif" font-size="10.00">/home/runner/work/Simple</text>
<text text-anchor="start" x="1240.72" y="-118.5" font-family="Helvetica,sans-Serif" font-size="10.00">&#45;Utility/Simple&#45;Utility</text>
<text text-anchor="start" x="1240.72" y="-107.5" font-family="Helvetica,sans-Serif" font-size="10.00">/include/Simple&#45;Utility</text>
<text text-anchor="middle" x="1305.72" y="-96.5" font-family="Helvetica,sans-Serif" font-size="10.00">/nullables/value_or.hpp</text>
</a>
</g>
</g>
<!-- Node5&#45;&gt;Node13 -->
<g id="edge20" class="edge">
<title>Node5&#45;&gt;Node13</title>
<path fill="none" stroke="midnightblue" d="M651.04,-201.23C776.41,-196.57 1020.52,-182.66 1223.72,-142 1226.64,-141.41 1229.61,-140.77 1232.6,-140.07"/>
<polygon fill="midnightblue" stroke="midnightblue" points="650.62,-197.74 640.75,-201.6 650.87,-204.74 650.62,-197.74"/>
</g>
<!-- Node6&#45;&gt;Node4 -->
<g id="edge7" class="edge">
<title>Node6&#45;&gt;Node4</title>
<path fill="none" stroke="midnightblue" d="M284.74,-82.65C273.25,-72.75 260.75,-61.98 249.87,-52.61"/>
<polygon fill="midnightblue" stroke="midnightblue" points="282.65,-85.46 292.51,-89.34 287.21,-80.16 282.65,-85.46"/>
</g>
<!-- Node7&#45;&gt;Node4 -->
<g id="edge10" class="edge">
<title>Node7&#45;&gt;Node4</title>
<path fill="none" stroke="midnightblue" d="M402.92,-87.32C368.06,-75.87 327.83,-62.66 294.05,-51.58"/>
<polygon fill="midnightblue" stroke="midnightblue" points="402.01,-90.7 412.61,-90.5 404.2,-84.05 402.01,-90.7"/>
</g>
<!-- Node8&#45;&gt;Node4 -->
<g id="edge12" class="edge">
<title>Node8&#45;&gt;Node4</title>
<path fill="none" stroke="midnightblue" d="M566.62,-88.85C467.21,-65.12 362.39,-47.92 294.05,-37.75"/>
<polygon fill="midnightblue" stroke="midnightblue" points="565.99,-92.29 576.53,-91.24 567.63,-85.49 565.99,-92.29"/>
</g>
<!-- Node10 -->
<g id="node10" class="node">
<title>Node10</title>
<g id="a_node10"><a xlink:href="../../d3/ddc/nullables_8hpp.html" target="_top" xlink:title=" ">
<polygon fill="white" stroke="black" points="1314.72,-0.5 1314.72,-52.5 1460.72,-52.5 1460.72,-0.5 1314.72,-0.5"/>
<text text-anchor="start" x="1322.72" y="-40.5" font-family="Helvetica,sans-Serif" font-size="10.00">/home/runner/work/Simple</text>
<text text-anchor="start" x="1322.72" y="-29.5" font-family="Helvetica,sans-Serif" font-size="10.00">&#45;Utility/Simple&#45;Utility</text>
<text text-anchor="start" x="1322.72" y="-18.5" font-family="Helvetica,sans-Serif" font-size="10.00">/include/Simple&#45;Utility</text>
<text text-anchor="middle" x="1387.72" y="-7.5" font-family="Helvetica,sans-Serif" font-size="10.00">/nullables.hpp</text>
</a>
</g>
</g>
<!-- Node9&#45;&gt;Node10 -->
<g id="edge15" class="edge">
<title>Node9&#45;&gt;Node10</title>
<path fill="none" stroke="midnightblue" d="M896.93,-88.89C1050.03,-56.53 1219.88,-40.05 1314.52,-32.58"/>
<polygon fill="midnightblue" stroke="midnightblue" points="895.91,-85.53 886.87,-91.05 897.38,-92.38 895.91,-85.53"/>
</g>
<!-- Node11&#45;&gt;Node10 -->
<g id="edge17" class="edge">
<title>Node11&#45;&gt;Node10</title>
<path fill="none" stroke="midnightblue" d="M1060.73,-88.85C1153.34,-66.24 1250.03,-49.18 1314.57,-38.72"/>
<polygon fill="midnightblue" stroke="midnightblue" points="1059.79,-85.48 1050.92,-91.27 1061.47,-92.28 1059.79,-85.48"/>
</g>
<!-- Node12&#45;&gt;Node10 -->
<g id="edge19" class="edge">
<title>Node12&#45;&gt;Node10</title>
<path fill="none" stroke="midnightblue" d="M1222.31,-86C1252.86,-75.19 1287.39,-62.98 1316.97,-52.52"/>
<polygon fill="midnightblue" stroke="midnightblue" points="1220.8,-82.82 1212.54,-89.45 1223.14,-89.42 1220.8,-82.82"/>
</g>
<!-- Node13&#45;&gt;Node10 -->
<g id="edge21" class="edge">
<title>Node13&#45;&gt;Node10</title>
<path fill="none" stroke="midnightblue" d="M1336.55,-81.79C1345.66,-72.13 1355.48,-61.71 1364.06,-52.61"/>
<polygon fill="midnightblue" stroke="midnightblue" points="1333.75,-79.66 1329.44,-89.34 1338.84,-84.46 1333.75,-79.66"/>
</g>
<!-- Node14&#45;&gt;Node9 -->
<g id="edge26" class="edge">
<title>Node14&#45;&gt;Node9</title>
<path fill="none" stroke="midnightblue" d="M1304.33,-197.6C1205.85,-189.6 1037.52,-172.66 895.72,-142 892.81,-141.37 889.85,-140.68 886.87,-139.95"/>
<polygon fill="midnightblue" stroke="midnightblue" points="1304.27,-201.11 1314.52,-198.42 1304.83,-194.13 1304.27,-201.11"/>
</g>
<!-- Node14&#45;&gt;Node10 -->
<g id="edge34" class="edge">
<title>Node14&#45;&gt;Node10</title>
<path fill="none" stroke="midnightblue" d="M1471.33,-201.65C1590.77,-196.05 1788.42,-174.09 1717.72,-89 1685.74,-50.51 1548.13,-35.98 1461.03,-30.59"/>
<polygon fill="midnightblue" stroke="midnightblue" points="1470.93,-198.16 1461.09,-202.1 1471.24,-205.16 1470.93,-198.16"/>
</g>
<!-- Node14&#45;&gt;Node11 -->
<g id="edge27" class="edge">
<title>Node14&#45;&gt;Node11</title>
<path fill="none" stroke="midnightblue" d="M1304.54,-190.65C1237.89,-179.69 1142.22,-162.49 1059.72,-142 1056.83,-141.28 1053.88,-140.52 1050.92,-139.73"/>
<polygon fill="midnightblue" stroke="midnightblue" points="1304.13,-194.13 1314.57,-192.28 1305.26,-187.22 1304.13,-194.13"/>
</g>
<!-- Node14&#45;&gt;Node12 -->
<g id="edge28" class="edge">
<title>Node14&#45;&gt;Node12</title>
<path fill="none" stroke="midnightblue" d="M1307.13,-175C1276.58,-164.19 1242.05,-151.98 1212.47,-141.52"/>
<polygon fill="midnightblue" stroke="midnightblue" points="1306.3,-178.42 1316.9,-178.45 1308.64,-171.82 1306.3,-178.42"/>
</g>
<!-- Node14&#45;&gt;Node13 -->
<g id="edge33" class="edge">
<title>Node14&#45;&gt;Node13</title>
<path fill="none" stroke="midnightblue" d="M1356.89,-170.79C1347.78,-161.13 1337.96,-150.71 1329.38,-141.61"/>
<polygon fill="midnightblue" stroke="midnightblue" points="1354.6,-173.46 1364,-178.34 1359.69,-168.66 1354.6,-173.46"/>
</g>
<!-- Node15 -->
<g id="node15" class="node">
<title>Node15</title>
<g id="a_node15"><a xlink:href="../../d6/dca/adapter_8hpp.html" target="_top" xlink:title=" ">
<polygon fill="white" stroke="black" points="1764.72,-89.5 1764.72,-141.5 1910.72,-141.5 1910.72,-89.5 1764.72,-89.5"/>
<text text-anchor="start" x="1772.72" y="-129.5" font-family="Helvetica,sans-Serif" font-size="10.00">/home/runner/work/Simple</text>
<text text-anchor="start" x="1772.72" y="-118.5" font-family="Helvetica,sans-Serif" font-size="10.00">&#45;Utility/Simple&#45;Utility</text>
<text text-anchor="start" x="1772.72" y="-107.5" font-family="Helvetica,sans-Serif" font-size="10.00">/include/Simple&#45;Utility</text>
<text text-anchor="middle" x="1837.72" y="-96.5" font-family="Helvetica,sans-Serif" font-size="10.00">/nullables/adapter.hpp</text>
</a>
</g>
</g>
<!-- Node14&#45;&gt;Node15 -->
<g id="edge24" class="edge">
<title>Node14&#45;&gt;Node15</title>
<path fill="none" stroke="midnightblue" d="M1471.06,-192.22C1544.99,-181.54 1655.69,-163.9 1750.72,-142 1755.17,-140.98 1759.72,-139.86 1764.31,-138.67"/>
<polygon fill="midnightblue" stroke="midnightblue" points="1470.28,-188.8 1460.88,-193.68 1471.27,-195.72 1470.28,-188.8"/>
</g>
<!-- Node16 -->
<g id="node16" class="node">
<title>Node16</title>
<g id="a_node16"><a xlink:href="../../d9/d20/std__optional_8hpp.html" target="_top" xlink:title=" ">
<polygon fill="white" stroke="black" points="1928.72,-89.5 1928.72,-141.5 2076.72,-141.5 2076.72,-89.5 1928.72,-89.5"/>
<text text-anchor="start" x="1936.72" y="-129.5" font-family="Helvetica,sans-Serif" font-size="10.00">/home/runner/work/Simple</text>
<text text-anchor="start" x="1936.72" y="-118.5" font-family="Helvetica,sans-Serif" font-size="10.00">&#45;Utility/Simple&#45;Utility</text>
<text text-anchor="start" x="1936.72" y="-107.5" font-family="Helvetica,sans-Serif" font-size="10.00">/include/Simple&#45;Utility</text>
<text text-anchor="middle" x="2002.72" y="-96.5" font-family="Helvetica,sans-Serif" font-size="10.00">/nullables/std_optional.hpp</text>
</a>
</g>
</g>
<!-- Node14&#45;&gt;Node16 -->
<g id="edge29" class="edge">
<title>Node14&#45;&gt;Node16</title>
<path fill="none" stroke="midnightblue" d="M1471.37,-198.58C1576.8,-191.29 1763.18,-174.81 1919.72,-142 1922.67,-141.38 1925.67,-140.7 1928.68,-139.98"/>
<polygon fill="midnightblue" stroke="midnightblue" points="1470.85,-195.11 1461.11,-199.28 1471.33,-202.09 1470.85,-195.11"/>
</g>
<!-- Node17 -->
<g id="node17" class="node">
<title>Node17</title>
<g id="a_node17"><a xlink:href="../../d8/d9a/std__pointers_8hpp.html" target="_top" xlink:title=" ">
<polygon fill="white" stroke="black" points="1396.72,-89.5 1396.72,-141.5 1544.72,-141.5 1544.72,-89.5 1396.72,-89.5"/>
<text text-anchor="start" x="1404.72" y="-129.5" font-family="Helvetica,sans-Serif" font-size="10.00">/home/runner/work/Simple</text>
<text text-anchor="start" x="1404.72" y="-118.5" font-family="Helvetica,sans-Serif" font-size="10.00">&#45;Utility/Simple&#45;Utility</text>
<text text-anchor="start" x="1404.72" y="-107.5" font-family="Helvetica,sans-Serif" font-size="10.00">/include/Simple&#45;Utility</text>
<text text-anchor="middle" x="1470.72" y="-96.5" font-family="Helvetica,sans-Serif" font-size="10.00">/nullables/std_pointers.hpp</text>
</a>
</g>
</g>
<!-- Node14&#45;&gt;Node17 -->
<g id="edge31" class="edge">
<title>Node14&#45;&gt;Node17</title>
<path fill="none" stroke="midnightblue" d="M1418.65,-171.08C1427.95,-161.34 1438,-150.8 1446.77,-141.61"/>
<polygon fill="midnightblue" stroke="midnightblue" points="1416.1,-168.68 1411.73,-178.34 1421.16,-173.52 1416.1,-168.68"/>
</g>
<!-- Node18 -->
<g id="node18" class="node">
<title>Node18</title>
<g id="a_node18"><a xlink:href="../../d0/d0f/unique__handle_8hpp.html" target="_top" xlink:title=" ">
<polygon fill="white" stroke="black" points="1562.72,-89.5 1562.72,-141.5 1708.72,-141.5 1708.72,-89.5 1562.72,-89.5"/>
<text text-anchor="start" x="1570.72" y="-129.5" font-family="Helvetica,sans-Serif" font-size="10.00">/home/runner/work/Simple</text>
<text text-anchor="start" x="1570.72" y="-118.5" font-family="Helvetica,sans-Serif" font-size="10.00">&#45;Utility/Simple&#45;Utility</text>
<text text-anchor="start" x="1570.72" y="-107.5" font-family="Helvetica,sans-Serif" font-size="10.00">/include/Simple&#45;Utility</text>
<text text-anchor="middle" x="1635.72" y="-96.5" font-family="Helvetica,sans-Serif" font-size="10.00">/unique_handle.hpp</text>
</a>
</g>
</g>
<!-- Node14&#45;&gt;Node18 -->
<g id="edge35" class="edge">
<title>Node14&#45;&gt;Node18</title>
<path fill="none" stroke="midnightblue" d="M1468.57,-175.14C1499.47,-164.3 1534.45,-152.03 1564.4,-141.52"/>
<polygon fill="midnightblue" stroke="midnightblue" points="1467.4,-171.84 1459.12,-178.45 1469.71,-178.45 1467.4,-171.84"/>
</g>
<!-- Node15&#45;&gt;Node10 -->
<g id="edge25" class="edge">
<title>Node15&#45;&gt;Node10</title>
<path fill="none" stroke="midnightblue" d="M1754.5,-89.89C1753.23,-89.58 1751.97,-89.29 1750.72,-89 1651.22,-66.07 1534.54,-47.81 1460.88,-37.32"/>
<polygon fill="midnightblue" stroke="midnightblue" points="1753.76,-93.31 1764.31,-92.33 1755.45,-86.52 1753.76,-93.31"/>
</g>
<!-- Node16&#45;&gt;Node10 -->
<g id="edge30" class="edge">
<title>Node16&#45;&gt;Node10</title>
<path fill="none" stroke="midnightblue" d="M1918.66,-88.94C1750.44,-54.46 1562.34,-38.49 1461.11,-31.72"/>
<polygon fill="midnightblue" stroke="midnightblue" points="1918.18,-92.41 1928.68,-91.02 1919.6,-85.56 1918.18,-92.41"/>
</g>
<!-- Node17&#45;&gt;Node10 -->
<g id="edge32" class="edge">
<title>Node17&#45;&gt;Node10</title>
<path fill="none" stroke="midnightblue" d="M1439.79,-82.08C1430.49,-72.34 1420.44,-61.8 1411.67,-52.61"/>
<polygon fill="midnightblue" stroke="midnightblue" points="1437.28,-84.52 1446.71,-89.34 1442.34,-79.68 1437.28,-84.52"/>
</g>
</g>
</svg>
        <g id="navigator" transform="translate(0 0)" fill="#404254">
                <rect fill="#f2f5e9" fill-opacity="0.5" stroke="#606060" stroke-width=".5" x="0" y="0" width="60" height="60"/>
                <use id="zoomplus" xlink:href="#zoomPlus" x="17" y="9" onmousedown="handleZoom(evt,'in')"/>
                <use id="zoomminus" xlink:href="#zoomMin" x="42" y="9" onmousedown="handleZoom(evt,'out')"/>
                <use id="reset" xlink:href="#resetDef" x="30" y="36" onmousedown="handleReset()"/>
                <g id="arrowUp" xlink:href="#dirArrow" transform="translate(30 24)" onmousedown="handlePan(0,-1)">
                  <use xlink:href="#rim" fill="#404040">
                        <set attributeName="fill" to="#808080" begin="arrowUp.mouseover" end="arrowUp.mouseout"/>
                  </use>
                  <path fill="none" stroke="white" stroke-width="1.5" d="M0,-3.0v7 M-2.5,-0.5L0,-3.0L2.5,-0.5"/>
                </g>
                <g id="arrowRight" xlink:href="#dirArrow" transform="rotate(90) translate(36 -43)" onmousedown="handlePan(1,0)">
                  <use xlink:href="#rim" fill="#404040">
                        <set attributeName="fill" to="#808080" begin="arrowRight.mouseover" end="arrowRight.mouseout"/>
                  </use>
                  <path fill="none" stroke="white" stroke-width="1.5" d="M0,-3.0v7 M-2.5,-0.5L0,-3.0L2.5,-0.5"/>
                </g>
                <g id="arrowDown" xlink:href="#dirArrow" transform="rotate(180) translate(-30 -48)" onmousedown="handlePan(0,1)">
                  <use xlink:href="#rim" fill="#404040">
                        <set attributeName="fill" to="#808080" begin="arrowDown.mouseover" end="arrowDown.mouseout"/>
                  </use>
                  <path fill="none" stroke="white" stroke-width="1.5" d="M0,-3.0v7 M-2.5,-0.5L0,-3.0L2.5,-0.5"/>
                </g>
                <g id="arrowLeft" xlink:href="#dirArrow" transform="rotate(270) translate(-36 17)" onmousedown="handlePan(-1,0)">
                  <use xlink:href="#rim" fill="#404040">
                        <set attributeName="fill" to="#808080" begin="arrowLeft.mouseover" end="arrowLeft.mouseout"/>
                  </use>
                  <path fill="none" stroke="white" stroke-width="1.5" d="M0,-3.0v7 M-2.5,-0.5L0,-3.0L2.5,-0.5"/>
                </g>
        </g>
        <svg viewBox="0 0 15 15" width="100%" height="30px" preserveAspectRatio="xMaxYMin meet">
         <g id="arrow_out" transform="scale(0.3 0.3)">
          <a xlink:href="bind_8hpp__dep__incl_org.svg" target="_base">
           <rect id="button" ry="5" rx="5" y="6" x="6" height="38" width="38"
                fill="#f2f5e9" fill-opacity="0.5" stroke="#606060" stroke-width="1.0"/>
           <path id="arrow"
             d="M 11.500037,31.436501 C 11.940474,20.09759 22.043105,11.32322 32.158766,21.979434 L 37.068811,17.246167 C 37.068811,17.246167 37.088388,32 37.088388,32 L 22.160133,31.978069 C 22.160133,31.978069 26.997745,27.140456 26.997745,27.140456 C 18.528582,18.264221 13.291696,25.230495 11.500037,31.436501 z"
             style="fill:#404040;"/>
          </a>
         </g>
        </svg>
</svg>
