<?xml version="1.0" encoding="UTF-8" standalone="no"?>
<!DOCTYPE svg PUBLIC "-//W3C//DTD SVG 1.1//EN"
 "http://www.w3.org/Graphics/SVG/1.1/DTD/svg11.dtd">
<!-- Generated by graphviz version 7.0.5 (20221223.1930)
 -->
<!-- Title: Simple&#45;Utility/functional/operators/bind.hpp Pages: 1 -->
<svg width="1804pt" height="225pt"
 viewBox="0.00 0.00 1803.75 225.00" xmlns="http://www.w3.org/2000/svg" xmlns:xlink="http://www.w3.org/1999/xlink">
<g id="graph0" class="graph" transform="scale(1 1) rotate(0) translate(4 221)">
<title>Simple&#45;Utility/functional/operators/bind.hpp</title>
<!-- Node1 -->
<g id="node1" class="node">
<title>Node1</title>
<g id="a_node1"><a xlink:title=" ">
<polygon fill="#999999" stroke="#666666" points="328.25,-217 200.25,-217 200.25,-187 328.25,-187 328.25,-217"/>
<text text-anchor="start" x="208.25" y="-205" font-family="Helvetica,sans-Serif" font-size="10.00">Simple&#45;Utility/functional</text>
<text text-anchor="middle" x="264.25" y="-194" font-family="Helvetica,sans-Serif" font-size="10.00">/operators/bind.hpp</text>
</a>
</g>
</g>
<!-- Node2 -->
<g id="node2" class="node">
<title>Node2</title>
<g id="a_node2"><a xlink:href="../../d2/db4/functional_8hpp.html" target="_top" xlink:title=" ">
<polygon fill="white" stroke="#666666" points="265.25,-19 117.25,-19 117.25,0 265.25,0 265.25,-19"/>
<text text-anchor="middle" x="191.25" y="-7" font-family="Helvetica,sans-Serif" font-size="10.00">Simple&#45;Utility/functional.hpp</text>
</a>
</g>
</g>
<!-- Node1&#45;&gt;Node2 -->
<g id="edge1" class="edge">
<title>Node1&#45;&gt;Node2</title>
<path fill="none" stroke="#63b8ff" d="M188.63,-194.52C127.46,-187.63 48.05,-174.42 26.25,-151 -2.95,-119.63 -9.03,-88.85 17.25,-55 30.35,-38.13 79.26,-26.57 121.9,-19.47"/>
<polygon fill="#63b8ff" stroke="#63b8ff" points="187.99,-197.97 198.31,-195.57 188.75,-191.01 187.99,-197.97"/>
</g>
<!-- Node3 -->
<g id="node3" class="node">
<title>Node3</title>
<g id="a_node3"><a xlink:href="../../d2/d7e/predicate_8hpp.html" target="_top" xlink:title=" ">
<polygon fill="white" stroke="#666666" points="163.25,-151 35.25,-151 35.25,-121 163.25,-121 163.25,-151"/>
<text text-anchor="start" x="43.25" y="-139" font-family="Helvetica,sans-Serif" font-size="10.00">Simple&#45;Utility/functional</text>
<text text-anchor="middle" x="99.25" y="-128" font-family="Helvetica,sans-Serif" font-size="10.00">/predicate.hpp</text>
</a>
</g>
</g>
<!-- Node1&#45;&gt;Node3 -->
<g id="edge2" class="edge">
<title>Node1&#45;&gt;Node3</title>
<path fill="none" stroke="#63b8ff" d="M216.66,-182.54C191.14,-172.64 160.17,-160.63 136.44,-151.43"/>
<polygon fill="#63b8ff" stroke="#63b8ff" points="215.22,-185.74 225.81,-186.09 217.75,-179.21 215.22,-185.74"/>
</g>
<!-- Node5 -->
<g id="node5" class="node">
<title>Node5</title>
<g id="a_node5"><a xlink:href="../../d6/deb/transform_8hpp.html" target="_top" xlink:title=" ">
<polygon fill="white" stroke="#666666" points="566.25,-151 438.25,-151 438.25,-121 566.25,-121 566.25,-151"/>
<text text-anchor="start" x="446.25" y="-139" font-family="Helvetica,sans-Serif" font-size="10.00">Simple&#45;Utility/functional</text>
<text text-anchor="middle" x="502.25" y="-128" font-family="Helvetica,sans-Serif" font-size="10.00">/transform.hpp</text>
</a>
</g>
</g>
<!-- Node1&#45;&gt;Node5 -->
<g id="edge6" class="edge">
<title>Node1&#45;&gt;Node5</title>
<path fill="none" stroke="#63b8ff" d="M328.8,-183.64C366.39,-173.53 413.21,-160.94 448.73,-151.39"/>
<polygon fill="#63b8ff" stroke="#63b8ff" points="328.17,-180.19 319.42,-186.16 329.98,-186.95 328.17,-180.19"/>
</g>
<!-- Node14 -->
<g id="node14" class="node">
<title>Node14</title>
<g id="a_node14"><a xlink:href="../../d6/dbe/nullables_2base_8hpp.html" target="_top" xlink:title=" ">
<polygon fill="white" stroke="#666666" points="1273.75,-151 1150.75,-151 1150.75,-121 1273.75,-121 1273.75,-151"/>
<text text-anchor="start" x="1158.75" y="-139" font-family="Helvetica,sans-Serif" font-size="10.00">Simple&#45;Utility/nullables</text>
<text text-anchor="middle" x="1212.25" y="-128" font-family="Helvetica,sans-Serif" font-size="10.00">/base.hpp</text>
</a>
</g>
</g>
<!-- Node1&#45;&gt;Node14 -->
<g id="edge23" class="edge">
<title>Node1&#45;&gt;Node14</title>
<path fill="none" stroke="#63b8ff" d="M340.01,-195.89C522.45,-183.57 983.42,-152.45 1150.53,-141.17"/>
<polygon fill="#63b8ff" stroke="#63b8ff" points="339.91,-192.38 330.17,-196.55 340.39,-199.37 339.91,-192.38"/>
</g>
<!-- Node3&#45;&gt;Node2 -->
<g id="edge3" class="edge">
<title>Node3&#45;&gt;Node2</title>
<path fill="none" stroke="#63b8ff" d="M60.38,-114.98C35.13,-99.29 9.72,-76.57 26.25,-55 38.88,-38.51 87.04,-26.75 128.09,-19.47"/>
<polygon fill="#63b8ff" stroke="#63b8ff" points="58.27,-117.8 68.66,-119.86 61.83,-111.77 58.27,-117.8"/>
</g>
<!-- Node4 -->
<g id="node4" class="node">
<title>Node4</title>
<g id="a_node4"><a xlink:href="../../dd/d3f/compare_8hpp.html" target="_top" xlink:title=" ">
<polygon fill="white" stroke="#666666" points="163.25,-85 35.25,-85 35.25,-55 163.25,-55 163.25,-85"/>
<text text-anchor="start" x="43.25" y="-73" font-family="Helvetica,sans-Serif" font-size="10.00">Simple&#45;Utility/functional</text>
<text text-anchor="middle" x="99.25" y="-62" font-family="Helvetica,sans-Serif" font-size="10.00">/compare.hpp</text>
</a>
</g>
</g>
<!-- Node3&#45;&gt;Node4 -->
<g id="edge4" class="edge">
<title>Node3&#45;&gt;Node4</title>
<path fill="none" stroke="#63b8ff" d="M99.25,-109.39C99.25,-101.13 99.25,-92.28 99.25,-85.16"/>
<polygon fill="#63b8ff" stroke="#63b8ff" points="95.75,-109.28 99.25,-119.28 102.75,-109.28 95.75,-109.28"/>
</g>
<!-- Node4&#45;&gt;Node2 -->
<g id="edge5" class="edge">
<title>Node4&#45;&gt;Node2</title>
<path fill="none" stroke="#63b8ff" d="M131.39,-48.56C147.1,-38.57 165.19,-27.07 177.34,-19.35"/>
<polygon fill="#63b8ff" stroke="#63b8ff" points="129.83,-45.41 123.27,-53.73 133.58,-51.31 129.83,-45.41"/>
</g>
<!-- Node5&#45;&gt;Node2 -->
<g id="edge7" class="edge">
<title>Node5&#45;&gt;Node2</title>
<path fill="none" stroke="#63b8ff" d="M426.68,-131.24C350.86,-125.91 241.03,-113.41 210.25,-85 191.61,-67.8 190.17,-35.09 190.67,-19.37"/>
<polygon fill="#63b8ff" stroke="#63b8ff" points="426.35,-134.73 436.56,-131.91 426.82,-127.74 426.35,-134.73"/>
</g>
<!-- Node5&#45;&gt;Node4 -->
<g id="edge10" class="edge">
<title>Node5&#45;&gt;Node4</title>
<path fill="none" stroke="#63b8ff" d="M426.93,-123.96C361.01,-114.16 262.68,-99.24 177.25,-85 172.77,-84.25 168.15,-83.47 163.5,-82.66"/>
<polygon fill="#63b8ff" stroke="#63b8ff" points="426.14,-127.38 436.54,-125.38 427.16,-120.45 426.14,-127.38"/>
</g>
<!-- Node6 -->
<g id="node6" class="node">
<title>Node6</title>
<g id="a_node6"><a xlink:href="../../d3/d23/arithmetic_8hpp.html" target="_top" xlink:title=" ">
<polygon fill="white" stroke="#666666" points="347.25,-85 219.25,-85 219.25,-55 347.25,-55 347.25,-85"/>
<text text-anchor="start" x="227.25" y="-73" font-family="Helvetica,sans-Serif" font-size="10.00">Simple&#45;Utility/functional</text>
<text text-anchor="middle" x="283.25" y="-62" font-family="Helvetica,sans-Serif" font-size="10.00">/arithmetic.hpp</text>
</a>
</g>
</g>
<!-- Node5&#45;&gt;Node6 -->
<g id="edge8" class="edge">
<title>Node5&#45;&gt;Node6</title>
<path fill="none" stroke="#63b8ff" d="M441.96,-117.38C407.53,-107.32 364.89,-94.86 332.49,-85.39"/>
<polygon fill="#63b8ff" stroke="#63b8ff" points="440.79,-120.69 451.37,-120.13 442.76,-113.97 440.79,-120.69"/>
</g>
<!-- Node7 -->
<g id="node7" class="node">
<title>Node7</title>
<g id="a_node7"><a xlink:href="../../d9/d5f/functional_2tuple_8hpp.html" target="_top" xlink:title=" ">
<polygon fill="white" stroke="#666666" points="493.25,-85 365.25,-85 365.25,-55 493.25,-55 493.25,-85"/>
<text text-anchor="start" x="373.25" y="-73" font-family="Helvetica,sans-Serif" font-size="10.00">Simple&#45;Utility/functional</text>
<text text-anchor="middle" x="429.25" y="-62" font-family="Helvetica,sans-Serif" font-size="10.00">/tuple.hpp</text>
</a>
</g>
</g>
<!-- Node5&#45;&gt;Node7 -->
<g id="edge11" class="edge">
<title>Node5&#45;&gt;Node7</title>
<path fill="none" stroke="#63b8ff" d="M477.64,-113.42C467.1,-104.18 455.08,-93.65 445.66,-85.39"/>
<polygon fill="#63b8ff" stroke="#63b8ff" points="475.08,-115.84 484.91,-119.8 479.7,-110.57 475.08,-115.84"/>
</g>
<!-- Node8 -->
<g id="node8" class="node">
<title>Node8</title>
<g id="a_node8"><a xlink:href="../../df/d4e/functional_2utility_8hpp.html" target="_top" xlink:title=" ">
<polygon fill="white" stroke="#666666" points="639.25,-85 511.25,-85 511.25,-55 639.25,-55 639.25,-85"/>
<text text-anchor="start" x="519.25" y="-73" font-family="Helvetica,sans-Serif" font-size="10.00">Simple&#45;Utility/functional</text>
<text text-anchor="middle" x="575.25" y="-62" font-family="Helvetica,sans-Serif" font-size="10.00">/utility.hpp</text>
</a>
</g>
</g>
<!-- Node5&#45;&gt;Node8 -->
<g id="edge13" class="edge">
<title>Node5&#45;&gt;Node8</title>
<path fill="none" stroke="#63b8ff" d="M526.86,-113.42C537.4,-104.18 549.42,-93.65 558.84,-85.39"/>
<polygon fill="#63b8ff" stroke="#63b8ff" points="524.8,-110.57 519.59,-119.8 529.41,-115.84 524.8,-110.57"/>
</g>
<!-- Node9 -->
<g id="node9" class="node">
<title>Node9</title>
<g id="a_node9"><a xlink:href="../../d4/dc9/and__then_8hpp.html" target="_top" xlink:title=" ">
<polygon fill="white" stroke="#666666" points="780.75,-85 657.75,-85 657.75,-55 780.75,-55 780.75,-85"/>
<text text-anchor="start" x="665.75" y="-73" font-family="Helvetica,sans-Serif" font-size="10.00">Simple&#45;Utility/nullables</text>
<text text-anchor="middle" x="719.25" y="-62" font-family="Helvetica,sans-Serif" font-size="10.00">/and_then.hpp</text>
</a>
</g>
</g>
<!-- Node5&#45;&gt;Node9 -->
<g id="edge15" class="edge">
<title>Node5&#45;&gt;Node9</title>
<path fill="none" stroke="#63b8ff" d="M561.99,-117.38C596.11,-107.32 638.35,-94.86 670.46,-85.39"/>
<polygon fill="#63b8ff" stroke="#63b8ff" points="561.27,-113.94 552.67,-120.13 563.25,-120.66 561.27,-113.94"/>
</g>
<!-- Node11 -->
<g id="node11" class="node">
<title>Node11</title>
<g id="a_node11"><a xlink:href="../../d7/d5f/fwd__value_8hpp.html" target="_top" xlink:title=" ">
<polygon fill="white" stroke="#666666" points="921.75,-85 798.75,-85 798.75,-55 921.75,-55 921.75,-85"/>
<text text-anchor="start" x="806.75" y="-73" font-family="Helvetica,sans-Serif" font-size="10.00">Simple&#45;Utility/nullables</text>
<text text-anchor="middle" x="860.25" y="-62" font-family="Helvetica,sans-Serif" font-size="10.00">/fwd_value.hpp</text>
</a>
</g>
</g>
<!-- Node5&#45;&gt;Node11 -->
<g id="edge17" class="edge">
<title>Node5&#45;&gt;Node11</title>
<path fill="none" stroke="#63b8ff" d="M577.98,-122.28C635.89,-112.44 717.69,-98.29 789.25,-85 792.21,-84.45 795.25,-83.88 798.31,-83.3"/>
<polygon fill="#63b8ff" stroke="#63b8ff" points="577.49,-118.81 568.22,-123.93 578.66,-125.71 577.49,-118.81"/>
</g>
<!-- Node12 -->
<g id="node12" class="node">
<title>Node12</title>
<g id="a_node12"><a xlink:href="../../d2/d0e/or__else_8hpp.html" target="_top" xlink:title=" ">
<polygon fill="white" stroke="#666666" points="1062.75,-85 939.75,-85 939.75,-55 1062.75,-55 1062.75,-85"/>
<text text-anchor="start" x="947.75" y="-73" font-family="Helvetica,sans-Serif" font-size="10.00">Simple&#45;Utility/nullables</text>
<text text-anchor="middle" x="1001.25" y="-62" font-family="Helvetica,sans-Serif" font-size="10.00">/or_else.hpp</text>
</a>
</g>
</g>
<!-- Node5&#45;&gt;Node12 -->
<g id="edge19" class="edge">
<title>Node5&#45;&gt;Node12</title>
<path fill="none" stroke="#63b8ff" d="M578.08,-127.95C663.82,-119.57 807.48,-104.25 930.25,-85 933.23,-84.53 936.27,-84.03 939.34,-83.5"/>
<polygon fill="#63b8ff" stroke="#63b8ff" points="577.75,-124.47 568.14,-128.92 578.43,-131.44 577.75,-124.47"/>
</g>
<!-- Node13 -->
<g id="node13" class="node">
<title>Node13</title>
<g id="a_node13"><a xlink:href="../../d0/d48/value__or_8hpp.html" target="_top" xlink:title=" ">
<polygon fill="white" stroke="#666666" points="1203.75,-85 1080.75,-85 1080.75,-55 1203.75,-55 1203.75,-85"/>
<text text-anchor="start" x="1088.75" y="-73" font-family="Helvetica,sans-Serif" font-size="10.00">Simple&#45;Utility/nullables</text>
<text text-anchor="middle" x="1142.25" y="-62" font-family="Helvetica,sans-Serif" font-size="10.00">/value_or.hpp</text>
</a>
</g>
</g>
<!-- Node5&#45;&gt;Node13 -->
<g id="edge21" class="edge">
<title>Node5&#45;&gt;Node13</title>
<path fill="none" stroke="#63b8ff" d="M577.72,-130.95C686.97,-124.5 895.35,-110 1071.25,-85 1074.23,-84.58 1077.28,-84.11 1080.36,-83.61"/>
<polygon fill="#63b8ff" stroke="#63b8ff" points="577.79,-127.44 568.01,-131.51 578.2,-134.42 577.79,-127.44"/>
</g>
<!-- Node6&#45;&gt;Node2 -->
<g id="edge9" class="edge">
<title>Node6&#45;&gt;Node2</title>
<path fill="none" stroke="#63b8ff" d="M251.11,-48.56C235.39,-38.57 217.3,-27.07 205.16,-19.35"/>
<polygon fill="#63b8ff" stroke="#63b8ff" points="248.91,-51.31 259.23,-53.73 252.67,-45.41 248.91,-51.31"/>
</g>
<!-- Node7&#45;&gt;Node2 -->
<g id="edge12" class="edge">
<title>Node7&#45;&gt;Node2</title>
<path fill="none" stroke="#63b8ff" d="M359.39,-51.83C316.19,-41.21 262.51,-28.02 227.59,-19.43"/>
<polygon fill="#63b8ff" stroke="#63b8ff" points="358.4,-55.19 368.95,-54.18 360.07,-48.39 358.4,-55.19"/>
</g>
<!-- Node8&#45;&gt;Node2 -->
<g id="edge14" class="edge">
<title>Node8&#45;&gt;Node2</title>
<path fill="none" stroke="#63b8ff" d="M499.53,-54.59C411.61,-40.06 321.1,-27.51 260.57,-19.46"/>
<polygon fill="#63b8ff" stroke="#63b8ff" points="498.86,-58.03 509.3,-56.22 500.01,-51.12 498.86,-58.03"/>
</g>
<!-- Node10 -->
<g id="node10" class="node">
<title>Node10</title>
<g id="a_node10"><a xlink:href="../../d3/ddc/nullables_8hpp.html" target="_top" xlink:title=" ">
<polygon fill="white" stroke="#666666" points="1283.75,-19 1140.75,-19 1140.75,0 1283.75,0 1283.75,-19"/>
<text text-anchor="middle" x="1212.25" y="-7" font-family="Helvetica,sans-Serif" font-size="10.00">Simple&#45;Utility/nullables.hpp</text>
</a>
</g>
</g>
<!-- Node9&#45;&gt;Node10 -->
<g id="edge16" class="edge">
<title>Node9&#45;&gt;Node10</title>
<path fill="none" stroke="#63b8ff" d="M792.19,-54.64C920.19,-35.55 1058.55,-22.76 1140.51,-16.01"/>
<polygon fill="#63b8ff" stroke="#63b8ff" points="791.89,-51.14 782.53,-56.1 792.94,-58.06 791.89,-51.14"/>
</g>
<!-- Node11&#45;&gt;Node10 -->
<g id="edge18" class="edge">
<title>Node11&#45;&gt;Node10</title>
<path fill="none" stroke="#63b8ff" d="M933.37,-54.48C1013.67,-40.28 1095.87,-27.63 1150.51,-19.5"/>
<polygon fill="#63b8ff" stroke="#63b8ff" points="932.78,-51.03 923.55,-56.23 934.01,-57.92 932.78,-51.03"/>
</g>
<!-- Node12&#45;&gt;Node10 -->
<g id="edge20" class="edge">
<title>Node12&#45;&gt;Node10</title>
<path fill="none" stroke="#63b8ff" d="M1064.4,-51.49C1102.49,-40.93 1149.4,-27.92 1180.03,-19.43"/>
<polygon fill="#63b8ff" stroke="#63b8ff" points="1063.57,-48.09 1054.86,-54.13 1065.44,-54.84 1063.57,-48.09"/>
</g>
<!-- Node13&#45;&gt;Node10 -->
<g id="edge22" class="edge">
<title>Node13&#45;&gt;Node10</title>
<path fill="none" stroke="#63b8ff" d="M1168.12,-47.38C1179.82,-37.6 1192.99,-26.6 1201.87,-19.18"/>
<polygon fill="#63b8ff" stroke="#63b8ff" points="1166.14,-44.47 1160.71,-53.57 1170.63,-49.84 1166.14,-44.47"/>
</g>
<!-- Node14&#45;&gt;Node9 -->
<g id="edge27" class="edge">
<title>Node14&#45;&gt;Node9</title>
<path fill="none" stroke="#63b8ff" d="M1139.11,-128.14C1054.59,-119.81 911.44,-104.41 789.25,-85 786.56,-84.57 783.81,-84.11 781.04,-83.64"/>
<polygon fill="#63b8ff" stroke="#63b8ff" points="1138.59,-131.61 1148.88,-129.1 1139.27,-124.64 1138.59,-131.61"/>
</g>
<!-- Node14&#45;&gt;Node10 -->
<g id="edge24" class="edge">
<title>Node14&#45;&gt;Node10</title>
<path fill="none" stroke="#63b8ff" d="M1285.48,-131.8C1357.25,-126.94 1459.38,-114.85 1484.25,-85 1492.78,-74.76 1492.88,-65.16 1484.25,-55 1459.04,-25.33 1355.95,-15.4 1284.19,-12.1"/>
<polygon fill="#63b8ff" stroke="#63b8ff" points="1285.5,-128.29 1275.75,-132.42 1285.95,-135.28 1285.5,-128.29"/>
</g>
<!-- Node14&#45;&gt;Node11 -->
<g id="edge28" class="edge">
<title>Node14&#45;&gt;Node11</title>
<path fill="none" stroke="#63b8ff" d="M1139.22,-122.5C1082.24,-112.65 1001.13,-98.37 930.25,-85 927.57,-84.49 924.83,-83.97 922.07,-83.44"/>
<polygon fill="#63b8ff" stroke="#63b8ff" points="1138.35,-125.9 1148.8,-124.16 1139.54,-119.01 1138.35,-125.9"/>
</g>
<!-- Node14&#45;&gt;Node12 -->
<g id="edge29" class="edge">
<title>Node14&#45;&gt;Node12</title>
<path fill="none" stroke="#63b8ff" d="M1153.73,-117.25C1120.63,-107.21 1079.78,-94.82 1048.69,-85.39"/>
<polygon fill="#63b8ff" stroke="#63b8ff" points="1152.6,-120.56 1163.18,-120.12 1154.63,-113.87 1152.6,-120.56"/>
</g>
<!-- Node14&#45;&gt;Node13 -->
<g id="edge34" class="edge">
<title>Node14&#45;&gt;Node13</title>
<path fill="none" stroke="#63b8ff" d="M1188.28,-113.09C1178.18,-103.85 1166.7,-93.36 1157.74,-85.16"/>
<polygon fill="#63b8ff" stroke="#63b8ff" points="1185.85,-115.61 1195.6,-119.78 1190.58,-110.44 1185.85,-115.61"/>
</g>
<!-- Node15 -->
<g id="node15" class="node">
<title>Node15</title>
<g id="a_node15"><a xlink:href="../../d6/dca/adapter_8hpp.html" target="_top" xlink:title=" ">
<polygon fill="white" stroke="#666666" points="1654.75,-85 1531.75,-85 1531.75,-55 1654.75,-55 1654.75,-85"/>
<text text-anchor="start" x="1539.75" y="-73" font-family="Helvetica,sans-Serif" font-size="10.00">Simple&#45;Utility/nullables</text>
<text text-anchor="middle" x="1593.25" y="-62" font-family="Helvetica,sans-Serif" font-size="10.00">/adapter.hpp</text>
</a>
</g>
</g>
<!-- Node14&#45;&gt;Node15 -->
<g id="edge25" class="edge">
<title>Node14&#45;&gt;Node15</title>
<path fill="none" stroke="#63b8ff" d="M1285.43,-123.42C1347.25,-113.53 1438.12,-98.77 1517.25,-85 1521.87,-84.19 1526.66,-83.35 1531.46,-82.49"/>
<polygon fill="#63b8ff" stroke="#63b8ff" points="1285.05,-119.93 1275.72,-124.97 1286.15,-126.85 1285.05,-119.93"/>
</g>
<!-- Node16 -->
<g id="node16" class="node">
<title>Node16</title>
<g id="a_node16"><a xlink:href="../../d9/d20/std__optional_8hpp.html" target="_top" xlink:title=" ">
<polygon fill="white" stroke="#666666" points="1795.75,-85 1672.75,-85 1672.75,-55 1795.75,-55 1795.75,-85"/>
<text text-anchor="start" x="1680.75" y="-73" font-family="Helvetica,sans-Serif" font-size="10.00">Simple&#45;Utility/nullables</text>
<text text-anchor="middle" x="1734.25" y="-62" font-family="Helvetica,sans-Serif" font-size="10.00">/std_optional.hpp</text>
</a>
</g>
</g>
<!-- Node14&#45;&gt;Node16 -->
<g id="edge30" class="edge">
<title>Node14&#45;&gt;Node16</title>
<path fill="none" stroke="#63b8ff" d="M1285.27,-128.9C1374.85,-120.96 1531.21,-105.62 1664.25,-85 1666.94,-84.58 1669.69,-84.13 1672.46,-83.66"/>
<polygon fill="#63b8ff" stroke="#63b8ff" points="1285.05,-125.4 1275.39,-129.77 1285.66,-132.38 1285.05,-125.4"/>
</g>
<!-- Node17 -->
<g id="node17" class="node">
<title>Node17</title>
<g id="a_node17"><a xlink:href="../../d8/d9a/std__pointers_8hpp.html" target="_top" xlink:title=" ">
<polygon fill="white" stroke="#666666" points="1344.75,-85 1221.75,-85 1221.75,-55 1344.75,-55 1344.75,-85"/>
<text text-anchor="start" x="1229.75" y="-73" font-family="Helvetica,sans-Serif" font-size="10.00">Simple&#45;Utility/nullables</text>
<text text-anchor="middle" x="1283.25" y="-62" font-family="Helvetica,sans-Serif" font-size="10.00">/std_pointers.hpp</text>
</a>
</g>
</g>
<!-- Node14&#45;&gt;Node17 -->
<g id="edge32" class="edge">
<title>Node14&#45;&gt;Node17</title>
<path fill="none" stroke="#63b8ff" d="M1236.56,-113.09C1246.81,-103.85 1258.44,-93.36 1267.53,-85.16"/>
<polygon fill="#63b8ff" stroke="#63b8ff" points="1234.21,-110.49 1229.13,-119.78 1238.9,-115.69 1234.21,-110.49"/>
</g>
<!-- Node18 -->
<g id="node18" class="node">
<title>Node18</title>
<g id="a_node18"><a xlink:href="../../d0/d0f/unique__handle_8hpp.html" target="_top" xlink:title=" ">
<polygon fill="white" stroke="#666666" points="1475.25,-85 1363.25,-85 1363.25,-55 1475.25,-55 1475.25,-85"/>
<text text-anchor="start" x="1371.25" y="-73" font-family="Helvetica,sans-Serif" font-size="10.00">Simple&#45;Utility/unique</text>
<text text-anchor="middle" x="1419.25" y="-62" font-family="Helvetica,sans-Serif" font-size="10.00">_handle.hpp</text>
</a>
</g>
</g>
<!-- Node14&#45;&gt;Node18 -->
<g id="edge35" class="edge">
<title>Node14&#45;&gt;Node18</title>
<path fill="none" stroke="#63b8ff" d="M1269.66,-117.25C1302.13,-107.21 1342.21,-94.82 1372.7,-85.39"/>
<polygon fill="#63b8ff" stroke="#63b8ff" points="1268.93,-113.81 1260.41,-120.11 1270.99,-120.5 1268.93,-113.81"/>
</g>
<!-- Node15&#45;&gt;Node10 -->
<g id="edge26" class="edge">
<title>Node15&#45;&gt;Node10</title>
<path fill="none" stroke="#63b8ff" d="M1520.31,-55.51C1519.28,-55.34 1518.26,-55.17 1517.25,-55 1435.28,-41.48 1340.56,-27.99 1278.7,-19.47"/>
<polygon fill="#63b8ff" stroke="#63b8ff" points="1519.54,-58.93 1529.99,-57.17 1520.72,-52.03 1519.54,-58.93"/>
</g>
<!-- Node16&#45;&gt;Node10 -->
<g id="edge31" class="edge">
<title>Node16&#45;&gt;Node10</title>
<path fill="none" stroke="#63b8ff" d="M1661.22,-54.64C1522.45,-34.43 1371.19,-21.75 1284.15,-15.37"/>
<polygon fill="#63b8ff" stroke="#63b8ff" points="1660.57,-58.08 1670.97,-56.08 1661.59,-51.16 1660.57,-58.08"/>
</g>
<!-- Node17&#45;&gt;Node10 -->
<g id="edge33" class="edge">
<title>Node17&#45;&gt;Node10</title>
<path fill="none" stroke="#63b8ff" d="M1257.01,-47.38C1245.14,-37.6 1231.78,-26.6 1222.78,-19.18"/>
<polygon fill="#63b8ff" stroke="#63b8ff" points="1254.59,-49.92 1264.53,-53.58 1259.04,-44.52 1254.59,-49.92"/>
</g>
</g>
</svg>
