<?xml version="1.0" encoding="UTF-8" standalone="no"?>
<!DOCTYPE svg PUBLIC "-//W3C//DTD SVG 1.1//EN"
 "http://www.w3.org/Graphics/SVG/1.1/DTD/svg11.dtd">
<!-- Generated by graphviz version 8.0.5 (20230430.1635)
 -->
<!-- Title: Simple&#45;Utility/functional/utility.hpp Pages: 1 -->
<!--zoomable 376 -->
<svg id="main" version="1.1" xmlns="http://www.w3.org/2000/svg" xmlns:xlink="http://www.w3.org/1999/xlink" xml:space="preserve" onload="init(evt)">
<style type="text/css"><![CDATA[
.edge:hover path { stroke: red; }
.edge:hover polygon { stroke: red; fill: red; }
]]></style>
<script type="text/javascript"><![CDATA[
var edges = document.getElementsByTagName('g');
if (edges && edges.length) {
  for (var i=0;i<edges.length;i++) {
    if (edges[i].id.substr(0,4)=='edge') {
      edges[i].setAttribute('class','edge');
    }
  }
}
]]></script>
        <defs>
                <circle id="rim" cx="0" cy="0" r="7"/>
                <circle id="rim2" cx="0" cy="0" r="3.5"/>
                <g id="zoomPlus">
                        <use xlink:href="#rim" fill="#404040">
                                <set attributeName="fill" to="#808080" begin="zoomplus.mouseover" end="zoomplus.mouseout"/>
                        </use>
                        <path d="M-4,0h8M0,-4v8" fill="none" stroke="white" stroke-width="1.5" pointer-events="none"/>
                </g>
                <g id="zoomMin">
                        <use xlink:href="#rim" fill="#404040">
                                <set attributeName="fill" to="#808080" begin="zoomminus.mouseover" end="zoomminus.mouseout"/>
                        </use>
                        <path d="M-4,0h8" fill="none" stroke="white" stroke-width="1.5" pointer-events="none"/>
                </g>
                <g id="dirArrow">
                        <path fill="none" stroke="white" stroke-width="1.5" d="M0,-3.0v7 M-2.5,-0.5L0,-3.0L2.5,-0.5"/>
                </g>
               <g id="resetDef">
                       <use xlink:href="#rim2" fill="#404040">
                               <set attributeName="fill" to="#808080" begin="reset.mouseover" end="reset.mouseout"/>
                       </use>
               </g>
        </defs>

<script type="text/javascript">
var viewWidth = 933;
var viewHeight = 376;
var sectionId = 'dynsection-0';
</script>
<script xlink:href="../../svgpan.js"/>
<svg id="graph" class="graph">
<g id="viewport">
<title>Simple&#45;Utility/functional/utility.hpp</title>
<!-- Node1 -->
<g id="node1" class="node">
<title>Node1</title>
<g id="a_node1"><a xlink:title=" ">
<polygon fill="#999999" stroke="#666666" points="457.38,-368.25 330.38,-368.25 330.38,-334.75 457.38,-334.75 457.38,-368.25"/>
<text text-anchor="start" x="338.38" y="-354.75" font-family="Helvetica,sans-Serif" font-size="10.00">Simple&#45;Utility/functional</text>
<text text-anchor="middle" x="393.88" y="-342" font-family="Helvetica,sans-Serif" font-size="10.00">/utility.hpp</text>
</a>
</g>
</g>
<!-- Node2 -->
<g id="node2" class="node">
<title>Node2</title>
<g id="a_node2"><a xlink:href="../../dd/dcd/operators_8hpp.html" target="_top" xlink:title=" ">
<polygon fill="white" stroke="#666666" points="121.75,-229.25 0,-229.25 0,-195.75 121.75,-195.75 121.75,-229.25"/>
<text text-anchor="start" x="8" y="-215.75" font-family="Helvetica,sans-Serif" font-size="10.00">Simple&#45;Utility/concepts</text>
<text text-anchor="middle" x="60.88" y="-203" font-family="Helvetica,sans-Serif" font-size="10.00">/operators.hpp</text>
</a>
</g>
</g>
<!-- Node1&#45;&gt;Node2 -->
<g id="edge1" class="edge">
<title>Node1&#45;&gt;Node2</title>
<path fill="none" stroke="#63b8ff" d="M330.33,-341.06C287.61,-333.24 230.77,-319.91 183.88,-298.75 148.18,-282.64 111.87,-255.95 88.05,-236.72"/>
<polygon fill="#63b8ff" stroke="#63b8ff" points="90.51,-233.39 80.56,-229.75 86.07,-238.8 90.51,-233.39"/>
</g>
<!-- Node4 -->
<g id="node4" class="node">
<title>Node4</title>
<g id="a_node4"><a xlink:href="../../dd/d5c/stl__extensions_8hpp.html" target="_top" xlink:title=" ">
<polygon fill="white" stroke="#666666" points="156.75,-90.25 35,-90.25 35,-56.75 156.75,-56.75 156.75,-90.25"/>
<text text-anchor="start" x="43" y="-76.75" font-family="Helvetica,sans-Serif" font-size="10.00">Simple&#45;Utility/concepts</text>
<text text-anchor="middle" x="95.88" y="-64" font-family="Helvetica,sans-Serif" font-size="10.00">/stl_extensions.hpp</text>
</a>
</g>
</g>
<!-- Node1&#45;&gt;Node4 -->
<g id="edge3" class="edge">
<title>Node1&#45;&gt;Node4</title>
<path fill="none" stroke="#63b8ff" d="M369.12,-334.46C354.62,-324.7 336.2,-311.66 320.88,-298.75 241.17,-231.59 156.53,-141.38 117.68,-98.75"/>
<polygon fill="#63b8ff" stroke="#63b8ff" points="120.63,-96.69 111.31,-91.64 115.44,-101.4 120.63,-96.69"/>
</g>
<!-- Node5 -->
<g id="node5" class="node">
<title>Node5</title>
<g id="a_node5"><a xlink:href="../../d6/deb/transform_8hpp.html" target="_top" xlink:title=" ">
<polygon fill="white" stroke="#666666" points="457.38,-298.75 330.38,-298.75 330.38,-265.25 457.38,-265.25 457.38,-298.75"/>
<text text-anchor="start" x="338.38" y="-285.25" font-family="Helvetica,sans-Serif" font-size="10.00">Simple&#45;Utility/functional</text>
<text text-anchor="middle" x="393.88" y="-272.5" font-family="Helvetica,sans-Serif" font-size="10.00">/transform.hpp</text>
</a>
</g>
</g>
<!-- Node1&#45;&gt;Node5 -->
<g id="edge5" class="edge">
<title>Node1&#45;&gt;Node5</title>
<path fill="none" stroke="#63b8ff" d="M393.88,-334.5C393.88,-327.11 393.88,-318.12 393.88,-309.73"/>
<polygon fill="#63b8ff" stroke="#63b8ff" points="397.38,-309.88 393.88,-299.88 390.38,-309.88 397.38,-309.88"/>
</g>
<!-- Node15 -->
<g id="node15" class="node">
<title>Node15</title>
<g id="a_node15"><a xlink:title=" ">
<polygon fill="#e0e0e0" stroke="#999999" points="925.25,-83.88 884.5,-83.88 884.5,-63.12 925.25,-63.12 925.25,-83.88"/>
<text text-anchor="middle" x="904.88" y="-70.38" font-family="Helvetica,sans-Serif" font-size="10.00">utility</text>
</a>
</g>
</g>
<!-- Node1&#45;&gt;Node15 -->
<g id="edge29" class="edge">
<title>Node1&#45;&gt;Node15</title>
<path fill="none" stroke="#63b8ff" d="M446.58,-334.27C530.8,-306.79 698.77,-245.61 821.88,-159.75 849.27,-140.64 875.17,-111.67 890.53,-92.91"/>
<polygon fill="#63b8ff" stroke="#63b8ff" points="893.85,-95.36 897.38,-85.37 888.39,-90.99 893.85,-95.36"/>
</g>
<!-- Node17 -->
<g id="node17" class="node">
<title>Node17</title>
<g id="a_node17"><a xlink:title=" ">
<polygon fill="#e0e0e0" stroke="#999999" points="922.62,-292.38 869.12,-292.38 869.12,-271.62 922.62,-271.62 922.62,-292.38"/>
<text text-anchor="middle" x="895.88" y="-278.88" font-family="Helvetica,sans-Serif" font-size="10.00">memory</text>
</a>
</g>
</g>
<!-- Node1&#45;&gt;Node17 -->
<g id="edge28" class="edge">
<title>Node1&#45;&gt;Node17</title>
<path fill="none" stroke="#63b8ff" d="M457.78,-348.46C547.6,-344.44 715.8,-332.68 854.88,-298.75 857.69,-298.06 860.58,-297.23 863.46,-296.31"/>
<polygon fill="#63b8ff" stroke="#63b8ff" points="864.38,-299.35 872.65,-292.72 862.05,-292.74 864.38,-299.35"/>
</g>
<!-- Node3 -->
<g id="node3" class="node">
<title>Node3</title>
<g id="a_node3"><a xlink:title=" ">
<polygon fill="#e0e0e0" stroke="#999999" points="281.12,-20.75 224.62,-20.75 224.62,0 281.12,0 281.12,-20.75"/>
<text text-anchor="middle" x="252.88" y="-7.25" font-family="Helvetica,sans-Serif" font-size="10.00">concepts</text>
</a>
</g>
</g>
<!-- Node2&#45;&gt;Node3 -->
<g id="edge2" class="edge">
<title>Node2&#45;&gt;Node3</title>
<path fill="none" stroke="#63b8ff" d="M49.44,-195.47C29.18,-164.94 -7.83,-97.86 25.88,-56.75 49.16,-28.36 154.85,-17.38 213.45,-13.42"/>
<polygon fill="#63b8ff" stroke="#63b8ff" points="213.4,-16.87 223.16,-12.74 212.96,-9.88 213.4,-16.87"/>
</g>
<!-- Node4&#45;&gt;Node3 -->
<g id="edge4" class="edge">
<title>Node4&#45;&gt;Node3</title>
<path fill="none" stroke="#63b8ff" d="M137.54,-56.28C162.54,-46.54 194,-34.3 217.74,-25.05"/>
<polygon fill="#63b8ff" stroke="#63b8ff" points="218.68,-28.05 226.73,-21.17 216.14,-21.53 218.68,-28.05"/>
</g>
<!-- Node6 -->
<g id="node6" class="node">
<title>Node6</title>
<g id="a_node6"><a xlink:href="../../d4/d1c/unified__base_8hpp.html" target="_top" xlink:title=" ">
<polygon fill="white" stroke="#666666" points="286.88,-90.25 174.88,-90.25 174.88,-56.75 286.88,-56.75 286.88,-90.25"/>
<text text-anchor="start" x="182.88" y="-76.75" font-family="Helvetica,sans-Serif" font-size="10.00">Simple&#45;Utility/unified</text>
<text text-anchor="middle" x="230.88" y="-64" font-family="Helvetica,sans-Serif" font-size="10.00">_base.hpp</text>
</a>
</g>
</g>
<!-- Node5&#45;&gt;Node6 -->
<g id="edge6" class="edge">
<title>Node5&#45;&gt;Node6</title>
<path fill="none" stroke="#63b8ff" d="M381.08,-264.8C352.64,-228.76 283.99,-141.78 250.25,-99.04"/>
<polygon fill="#63b8ff" stroke="#63b8ff" points="252.55,-97.31 243.61,-91.63 247.05,-101.65 252.55,-97.31"/>
</g>
<!-- Node8 -->
<g id="node8" class="node">
<title>Node8</title>
<g id="a_node8"><a xlink:href="../../d1/d76/functional_2base_8hpp.html" target="_top" xlink:title=" ">
<polygon fill="white" stroke="#666666" points="445.38,-159.75 318.38,-159.75 318.38,-126.25 445.38,-126.25 445.38,-159.75"/>
<text text-anchor="start" x="326.38" y="-146.25" font-family="Helvetica,sans-Serif" font-size="10.00">Simple&#45;Utility/functional</text>
<text text-anchor="middle" x="381.88" y="-133.5" font-family="Helvetica,sans-Serif" font-size="10.00">/base.hpp</text>
</a>
</g>
</g>
<!-- Node5&#45;&gt;Node8 -->
<g id="edge9" class="edge">
<title>Node5&#45;&gt;Node8</title>
<path fill="none" stroke="#63b8ff" d="M382.97,-265.03C376.93,-255.19 370.01,-242.04 366.88,-229.25 362.09,-209.73 366.4,-187.35 371.6,-170.41"/>
<polygon fill="#63b8ff" stroke="#63b8ff" points="375.18,-171.75 375.07,-161.16 368.55,-169.51 375.18,-171.75"/>
</g>
<!-- Node12 -->
<g id="node12" class="node">
<title>Node12</title>
<g id="a_node12"><a xlink:href="../../d9/d76/bind_8hpp.html" target="_top" xlink:title=" ">
<polygon fill="white" stroke="#666666" points="503.38,-229.25 376.38,-229.25 376.38,-195.75 503.38,-195.75 503.38,-229.25"/>
<text text-anchor="start" x="384.38" y="-215.75" font-family="Helvetica,sans-Serif" font-size="10.00">Simple&#45;Utility/functional</text>
<text text-anchor="middle" x="439.88" y="-203" font-family="Helvetica,sans-Serif" font-size="10.00">/operators/bind.hpp</text>
</a>
</g>
</g>
<!-- Node5&#45;&gt;Node12 -->
<g id="edge18" class="edge">
<title>Node5&#45;&gt;Node12</title>
<path fill="none" stroke="#63b8ff" d="M404.78,-265C410.22,-257.02 416.92,-247.18 423.01,-238.25"/>
<polygon fill="#63b8ff" stroke="#63b8ff" points="426.31,-240.62 429.05,-230.38 420.53,-236.67 426.31,-240.62"/>
</g>
<!-- Node16 -->
<g id="node16" class="node">
<title>Node16</title>
<g id="a_node16"><a xlink:href="../../d5/db7/pipe_8hpp.html" target="_top" xlink:title=" ">
<polygon fill="white" stroke="#666666" points="648.38,-229.25 521.38,-229.25 521.38,-195.75 648.38,-195.75 648.38,-229.25"/>
<text text-anchor="start" x="529.38" y="-215.75" font-family="Helvetica,sans-Serif" font-size="10.00">Simple&#45;Utility/functional</text>
<text text-anchor="middle" x="584.88" y="-203" font-family="Helvetica,sans-Serif" font-size="10.00">/operators/pipe.hpp</text>
</a>
</g>
</g>
<!-- Node5&#45;&gt;Node16 -->
<g id="edge25" class="edge">
<title>Node5&#45;&gt;Node16</title>
<path fill="none" stroke="#63b8ff" d="M439.62,-264.83C466.46,-255.35 500.56,-243.3 528.98,-233.25"/>
<polygon fill="#63b8ff" stroke="#63b8ff" points="529.91,-236.28 538.17,-229.65 527.57,-229.68 529.91,-236.28"/>
</g>
<!-- Node6&#45;&gt;Node3 -->
<g id="edge7" class="edge">
<title>Node6&#45;&gt;Node3</title>
<path fill="none" stroke="#63b8ff" d="M236.66,-56.44C239.42,-48.76 242.76,-39.48 245.69,-31.34"/>
<polygon fill="#63b8ff" stroke="#63b8ff" points="249.24,-32.81 249.33,-22.22 242.65,-30.44 249.24,-32.81"/>
</g>
<!-- Node7 -->
<g id="node7" class="node">
<title>Node7</title>
<g id="a_node7"><a xlink:title=" ">
<polygon fill="#e0e0e0" stroke="#999999" points="384.88,-20.75 320.88,-20.75 320.88,0 384.88,0 384.88,-20.75"/>
<text text-anchor="middle" x="352.88" y="-7.25" font-family="Helvetica,sans-Serif" font-size="10.00">type_traits</text>
</a>
</g>
</g>
<!-- Node6&#45;&gt;Node7 -->
<g id="edge8" class="edge">
<title>Node6&#45;&gt;Node7</title>
<path fill="none" stroke="#63b8ff" d="M263.25,-56.28C281.98,-46.89 305.38,-35.17 323.57,-26.06"/>
<polygon fill="#63b8ff" stroke="#63b8ff" points="324.96,-28.77 332.33,-21.17 321.83,-22.52 324.96,-28.77"/>
</g>
<!-- Node8&#45;&gt;Node3 -->
<g id="edge10" class="edge">
<title>Node8&#45;&gt;Node3</title>
<path fill="none" stroke="#63b8ff" d="M366.06,-125.98C341.76,-101.38 295.42,-54.46 270.23,-28.95"/>
<polygon fill="#63b8ff" stroke="#63b8ff" points="273.07,-26.84 263.56,-22.18 268.09,-31.75 273.07,-26.84"/>
</g>
<!-- Node8&#45;&gt;Node4 -->
<g id="edge15" class="edge">
<title>Node8&#45;&gt;Node4</title>
<path fill="none" stroke="#63b8ff" d="M318.05,-126.94C273.45,-116.41 213.85,-102.34 167.61,-91.43"/>
<polygon fill="#63b8ff" stroke="#63b8ff" points="168.59,-87.83 158.06,-88.94 166.99,-94.64 168.59,-87.83"/>
</g>
<!-- Node8&#45;&gt;Node6 -->
<g id="edge14" class="edge">
<title>Node8&#45;&gt;Node6</title>
<path fill="none" stroke="#63b8ff" d="M345.71,-125.83C325.05,-116.6 298.95,-104.93 276.85,-95.05"/>
<polygon fill="#63b8ff" stroke="#63b8ff" points="278.57,-91.54 268.01,-90.65 275.71,-97.93 278.57,-91.54"/>
</g>
<!-- Node8&#45;&gt;Node7 -->
<g id="edge12" class="edge">
<title>Node8&#45;&gt;Node7</title>
<path fill="none" stroke="#63b8ff" d="M378.32,-125.98C373.05,-102.23 363.16,-57.69 357.38,-31.68"/>
<polygon fill="#63b8ff" stroke="#63b8ff" points="360.64,-31.18 355.05,-22.18 353.8,-32.7 360.64,-31.18"/>
</g>
<!-- Node9 -->
<g id="node9" class="node">
<title>Node9</title>
<g id="a_node9"><a xlink:title=" ">
<polygon fill="#e0e0e0" stroke="#999999" points="442.75,-83.88 381,-83.88 381,-63.12 442.75,-63.12 442.75,-83.88"/>
<text text-anchor="middle" x="411.88" y="-70.38" font-family="Helvetica,sans-Serif" font-size="10.00">functional</text>
</a>
</g>
</g>
<!-- Node8&#45;&gt;Node9 -->
<g id="edge11" class="edge">
<title>Node8&#45;&gt;Node9</title>
<path fill="none" stroke="#63b8ff" d="M388.98,-126C393.21,-116.5 398.6,-104.37 403.09,-94.27"/>
<polygon fill="#63b8ff" stroke="#63b8ff" points="406.65,-95.88 407.51,-85.32 400.25,-93.04 406.65,-95.88"/>
</g>
<!-- Node10 -->
<g id="node10" class="node">
<title>Node10</title>
<g id="a_node10"><a xlink:href="../../d8/dd2/_config_8hpp.html" target="_top" xlink:title=" ">
<polygon fill="white" stroke="#666666" points="593,-83.88 460.75,-83.88 460.75,-63.12 593,-63.12 593,-83.88"/>
<text text-anchor="middle" x="526.88" y="-70.38" font-family="Helvetica,sans-Serif" font-size="10.00">Simple&#45;Utility/Config.hpp</text>
</a>
</g>
</g>
<!-- Node8&#45;&gt;Node10 -->
<g id="edge13" class="edge">
<title>Node8&#45;&gt;Node10</title>
<path fill="none" stroke="#63b8ff" d="M416.61,-125.83C440.84,-114.55 472.88,-99.64 496.17,-88.79"/>
<polygon fill="#63b8ff" stroke="#63b8ff" points="497.3,-91.66 504.89,-84.27 494.34,-85.32 497.3,-91.66"/>
</g>
<!-- Node11 -->
<g id="node11" class="node">
<title>Node11</title>
<g id="a_node11"><a xlink:href="../../d5/d8e/concepts_2utility_8hpp.html" target="_top" xlink:title=" ">
<polygon fill="white" stroke="#666666" points="732.75,-90.25 611,-90.25 611,-56.75 732.75,-56.75 732.75,-90.25"/>
<text text-anchor="start" x="619" y="-76.75" font-family="Helvetica,sans-Serif" font-size="10.00">Simple&#45;Utility/concepts</text>
<text text-anchor="middle" x="671.88" y="-64" font-family="Helvetica,sans-Serif" font-size="10.00">/utility.hpp</text>
</a>
</g>
</g>
<!-- Node8&#45;&gt;Node11 -->
<g id="edge16" class="edge">
<title>Node8&#45;&gt;Node11</title>
<path fill="none" stroke="#63b8ff" d="M445.52,-127.19C491.24,-116.54 552.93,-102.18 600.36,-91.15"/>
<polygon fill="#63b8ff" stroke="#63b8ff" points="600.92,-94.38 609.86,-88.7 599.33,-87.56 600.92,-94.38"/>
</g>
<!-- Node11&#45;&gt;Node3 -->
<g id="edge17" class="edge">
<title>Node11&#45;&gt;Node3</title>
<path fill="none" stroke="#63b8ff" d="M610.86,-58.4C607.83,-57.82 604.82,-57.26 601.88,-56.75 473.92,-34.47 440.47,-38.94 311.88,-20.75 305.49,-19.85 298.73,-18.83 292.16,-17.81"/>
<polygon fill="#63b8ff" stroke="#63b8ff" points="292.78,-14.2 282.35,-16.1 291.69,-21.12 292.78,-14.2"/>
</g>
<!-- Node12&#45;&gt;Node8 -->
<g id="edge19" class="edge">
<title>Node12&#45;&gt;Node8</title>
<path fill="none" stroke="#63b8ff" d="M426.13,-195.5C419.12,-187.35 410.46,-177.26 402.65,-168.18"/>
<polygon fill="#63b8ff" stroke="#63b8ff" points="404.69,-166.19 395.52,-160.88 399.38,-170.75 404.69,-166.19"/>
</g>
<!-- Node13 -->
<g id="node13" class="node">
<title>Node13</title>
<g id="a_node13"><a xlink:href="../../d2/d30/general_8hpp.html" target="_top" xlink:title=" ">
<polygon fill="white" stroke="#666666" points="813.12,-159.75 708.62,-159.75 708.62,-126.25 813.12,-126.25 813.12,-159.75"/>
<text text-anchor="start" x="716.62" y="-146.25" font-family="Helvetica,sans-Serif" font-size="10.00">Simple&#45;Utility/tuple</text>
<text text-anchor="middle" x="760.88" y="-133.5" font-family="Helvetica,sans-Serif" font-size="10.00">/general.hpp</text>
</a>
</g>
</g>
<!-- Node12&#45;&gt;Node13 -->
<g id="edge20" class="edge">
<title>Node12&#45;&gt;Node13</title>
<path fill="none" stroke="#63b8ff" d="M503.86,-197.47C506.57,-196.89 509.25,-196.31 511.88,-195.75 575.04,-182.28 647.31,-167.31 697.66,-156.95"/>
<polygon fill="#63b8ff" stroke="#63b8ff" points="698.29,-160.19 707.38,-154.74 696.88,-153.33 698.29,-160.19"/>
</g>
<!-- Node13&#45;&gt;Node3 -->
<g id="edge21" class="edge">
<title>Node13&#45;&gt;Node3</title>
<path fill="none" stroke="#63b8ff" d="M762.43,-126.03C763.35,-106.49 761.53,-73.9 741.88,-56.75 705.75,-25.23 359.47,-26.52 311.88,-20.75 305.54,-19.98 298.85,-19.04 292.33,-18.06"/>
<polygon fill="#63b8ff" stroke="#63b8ff" points="293.05,-14.47 282.62,-16.38 291.96,-21.39 293.05,-14.47"/>
</g>
<!-- Node13&#45;&gt;Node7 -->
<g id="edge23" class="edge">
<title>Node13&#45;&gt;Node7</title>
<path fill="none" stroke="#63b8ff" d="M770.32,-126.02C780.15,-107.09 791.91,-75.72 774.88,-56.75 749.87,-28.91 498.84,-16.68 396.23,-12.82"/>
<polygon fill="#63b8ff" stroke="#63b8ff" points="396.46,-9.29 386.34,-12.42 396.2,-16.28 396.46,-9.29"/>
</g>
<!-- Node14 -->
<g id="node14" class="node">
<title>Node14</title>
<g id="a_node14"><a xlink:title=" ">
<polygon fill="#e0e0e0" stroke="#999999" points="866.5,-83.88 827.25,-83.88 827.25,-63.12 866.5,-63.12 866.5,-83.88"/>
<text text-anchor="middle" x="846.88" y="-70.38" font-family="Helvetica,sans-Serif" font-size="10.00">tuple</text>
</a>
</g>
</g>
<!-- Node13&#45;&gt;Node14 -->
<g id="edge22" class="edge">
<title>Node13&#45;&gt;Node14</title>
<path fill="none" stroke="#63b8ff" d="M781.26,-126C794.78,-115.39 812.49,-101.49 826.09,-90.81"/>
<polygon fill="#63b8ff" stroke="#63b8ff" points="827.66,-93.25 833.36,-84.32 823.33,-87.74 827.66,-93.25"/>
</g>
<!-- Node13&#45;&gt;Node15 -->
<g id="edge24" class="edge">
<title>Node13&#45;&gt;Node15</title>
<path fill="none" stroke="#63b8ff" d="M798.76,-125.8C821.34,-115.94 850.47,-102.84 875.88,-90.25 876.45,-89.96 877.04,-89.67 877.62,-89.38"/>
<polygon fill="#63b8ff" stroke="#63b8ff" points="878.95,-92.11 886.19,-84.37 875.71,-85.9 878.95,-92.11"/>
</g>
<!-- Node16&#45;&gt;Node8 -->
<g id="edge26" class="edge">
<title>Node16&#45;&gt;Node8</title>
<path fill="none" stroke="#63b8ff" d="M536.25,-195.33C507.61,-185.81 471.17,-173.69 440.88,-163.62"/>
<polygon fill="#63b8ff" stroke="#63b8ff" points="442.05,-159.99 431.45,-160.15 439.84,-166.63 442.05,-159.99"/>
</g>
<!-- Node16&#45;&gt;Node13 -->
<g id="edge27" class="edge">
<title>Node16&#45;&gt;Node13</title>
<path fill="none" stroke="#63b8ff" d="M627.03,-195.33C651.54,-185.93 682.63,-174.01 708.68,-164.02"/>
<polygon fill="#63b8ff" stroke="#63b8ff" points="709.67,-167 717.76,-160.15 707.17,-160.47 709.67,-167"/>
</g>
</g>
</svg>
        <g id="navigator" transform="translate(0 0)" fill="#404254">
                <rect fill="#f2f5e9" fill-opacity="0.5" stroke="#606060" stroke-width=".5" x="0" y="0" width="60" height="60"/>
                <use id="zoomplus" xlink:href="#zoomPlus" x="17" y="9" onmousedown="handleZoom(evt,'in')"/>
                <use id="zoomminus" xlink:href="#zoomMin" x="42" y="9" onmousedown="handleZoom(evt,'out')"/>
                <use id="reset" xlink:href="#resetDef" x="30" y="36" onmousedown="handleReset()"/>
                <g id="arrowUp" xlink:href="#dirArrow" transform="translate(30 24)" onmousedown="handlePan(0,-1)">
                  <use xlink:href="#rim" fill="#404040">
                        <set attributeName="fill" to="#808080" begin="arrowUp.mouseover" end="arrowUp.mouseout"/>
                  </use>
                  <path fill="none" stroke="white" stroke-width="1.5" d="M0,-3.0v7 M-2.5,-0.5L0,-3.0L2.5,-0.5"/>
                </g>
                <g id="arrowRight" xlink:href="#dirArrow" transform="rotate(90) translate(36 -43)" onmousedown="handlePan(1,0)">
                  <use xlink:href="#rim" fill="#404040">
                        <set attributeName="fill" to="#808080" begin="arrowRight.mouseover" end="arrowRight.mouseout"/>
                  </use>
                  <path fill="none" stroke="white" stroke-width="1.5" d="M0,-3.0v7 M-2.5,-0.5L0,-3.0L2.5,-0.5"/>
                </g>
                <g id="arrowDown" xlink:href="#dirArrow" transform="rotate(180) translate(-30 -48)" onmousedown="handlePan(0,1)">
                  <use xlink:href="#rim" fill="#404040">
                        <set attributeName="fill" to="#808080" begin="arrowDown.mouseover" end="arrowDown.mouseout"/>
                  </use>
                  <path fill="none" stroke="white" stroke-width="1.5" d="M0,-3.0v7 M-2.5,-0.5L0,-3.0L2.5,-0.5"/>
                </g>
                <g id="arrowLeft" xlink:href="#dirArrow" transform="rotate(270) translate(-36 17)" onmousedown="handlePan(-1,0)">
                  <use xlink:href="#rim" fill="#404040">
                        <set attributeName="fill" to="#808080" begin="arrowLeft.mouseover" end="arrowLeft.mouseout"/>
                  </use>
                  <path fill="none" stroke="white" stroke-width="1.5" d="M0,-3.0v7 M-2.5,-0.5L0,-3.0L2.5,-0.5"/>
                </g>
        </g>
        <svg viewBox="0 0 15 15" width="100%" height="30px" preserveAspectRatio="xMaxYMin meet">
         <g id="arrow_out" transform="scale(0.3 0.3)">
          <a xlink:href="functional_2utility_8hpp__incl_org.svg" target="_base">
           <rect id="button" ry="5" rx="5" y="6" x="6" height="38" width="38"
                fill="#f2f5e9" fill-opacity="0.5" stroke="#606060" stroke-width="1.0"/>
           <path id="arrow"
             d="M 11.500037,31.436501 C 11.940474,20.09759 22.043105,11.32322 32.158766,21.979434 L 37.068811,17.246167 C 37.068811,17.246167 37.088388,32 37.088388,32 L 22.160133,31.978069 C 22.160133,31.978069 26.997745,27.140456 26.997745,27.140456 C 18.528582,18.264221 13.291696,25.230495 11.500037,31.436501 z"
             style="fill:#404040;"/>
          </a>
         </g>
        </svg>
</svg>
