<?xml version="1.0" encoding="UTF-8" standalone="no"?>
<!DOCTYPE svg PUBLIC "-//W3C//DTD SVG 1.1//EN"
 "http://www.w3.org/Graphics/SVG/1.1/DTD/svg11.dtd">
<!-- Generated by graphviz version 2.43.0 (0)
 -->
<!-- Title: /home/runner/work/Simple&#45;Utility/Simple&#45;Utility/include/Simple&#45;Utility/functional/utility.hpp Pages: 1 -->
<svg width="979pt" height="385pt"
 viewBox="0.00 0.00 979.00 385.00" xmlns="http://www.w3.org/2000/svg" xmlns:xlink="http://www.w3.org/1999/xlink">
<g id="graph0" class="graph" transform="scale(1 1) rotate(0) translate(4 381)">
<title>/home/runner/work/Simple&#45;Utility/Simple&#45;Utility/include/Simple&#45;Utility/functional/utility.hpp</title>
<polygon fill="white" stroke="transparent" points="-4,4 -4,-381 975,-381 975,4 -4,4"/>
<!-- Node1 -->
<g id="node1" class="node">
<title>Node1</title>
<g id="a_node1"><a xlink:title=" ">
<polygon fill="#bfbfbf" stroke="black" points="343.5,-324.5 343.5,-376.5 489.5,-376.5 489.5,-324.5 343.5,-324.5"/>
<text text-anchor="start" x="351.5" y="-364.5" font-family="Helvetica,sans-Serif" font-size="10.00">/home/runner/work/Simple</text>
<text text-anchor="start" x="351.5" y="-353.5" font-family="Helvetica,sans-Serif" font-size="10.00">&#45;Utility/Simple&#45;Utility</text>
<text text-anchor="start" x="351.5" y="-342.5" font-family="Helvetica,sans-Serif" font-size="10.00">/include/Simple&#45;Utility</text>
<text text-anchor="middle" x="416.5" y="-331.5" font-family="Helvetica,sans-Serif" font-size="10.00">/functional/utility.hpp</text>
</a>
</g>
</g>
<!-- Node2 -->
<g id="node2" class="node">
<title>Node2</title>
<g id="a_node2"><a xlink:href="../../dd/dcd/operators_8hpp.html" target="_top" xlink:title=" ">
<polygon fill="white" stroke="black" points="0,-190.5 0,-220.5 131,-220.5 131,-190.5 0,-190.5"/>
<text text-anchor="start" x="8" y="-208.5" font-family="Helvetica,sans-Serif" font-size="10.00">Simple&#45;Utility/concepts</text>
<text text-anchor="middle" x="65.5" y="-197.5" font-family="Helvetica,sans-Serif" font-size="10.00">/operators.hpp</text>
</a>
</g>
</g>
<!-- Node1&#45;&gt;Node2 -->
<g id="edge1" class="edge">
<title>Node1&#45;&gt;Node2</title>
<path fill="none" stroke="midnightblue" d="M343.34,-334.18C300.18,-323.85 245.07,-308.37 198.5,-288 159.94,-271.13 119.17,-244.7 93.1,-226.54"/>
<polygon fill="midnightblue" stroke="midnightblue" points="95.03,-223.62 84.84,-220.72 91,-229.35 95.03,-223.62"/>
</g>
<!-- Node4 -->
<g id="node4" class="node">
<title>Node4</title>
<g id="a_node4"><a xlink:href="../../dd/d5c/stl__extensions_8hpp.html" target="_top" xlink:title=" ">
<polygon fill="white" stroke="black" points="37,-56.5 37,-86.5 168,-86.5 168,-56.5 37,-56.5"/>
<text text-anchor="start" x="45" y="-74.5" font-family="Helvetica,sans-Serif" font-size="10.00">Simple&#45;Utility/concepts</text>
<text text-anchor="middle" x="102.5" y="-63.5" font-family="Helvetica,sans-Serif" font-size="10.00">/stl_extensions.hpp</text>
</a>
</g>
</g>
<!-- Node1&#45;&gt;Node4 -->
<g id="edge3" class="edge">
<title>Node1&#45;&gt;Node4</title>
<path fill="none" stroke="midnightblue" d="M383.91,-324.22C370.05,-313.28 353.82,-300.21 339.5,-288 258.59,-219.03 166.35,-132.89 124.83,-93.69"/>
<polygon fill="midnightblue" stroke="midnightblue" points="127.12,-91.04 117.45,-86.71 122.31,-96.12 127.12,-91.04"/>
</g>
<!-- Node5 -->
<g id="node5" class="node">
<title>Node5</title>
<g id="a_node5"><a xlink:href="../../d6/deb/transform_8hpp.html" target="_top" xlink:title=" ">
<polygon fill="white" stroke="black" points="348.5,-257.5 348.5,-287.5 484.5,-287.5 484.5,-257.5 348.5,-257.5"/>
<text text-anchor="start" x="356.5" y="-275.5" font-family="Helvetica,sans-Serif" font-size="10.00">Simple&#45;Utility/functional</text>
<text text-anchor="middle" x="416.5" y="-264.5" font-family="Helvetica,sans-Serif" font-size="10.00">/transform.hpp</text>
</a>
</g>
</g>
<!-- Node1&#45;&gt;Node5 -->
<g id="edge5" class="edge">
<title>Node1&#45;&gt;Node5</title>
<path fill="none" stroke="midnightblue" d="M416.5,-324.19C416.5,-315.79 416.5,-306.44 416.5,-298.09"/>
<polygon fill="midnightblue" stroke="midnightblue" points="420,-297.85 416.5,-287.85 413,-297.85 420,-297.85"/>
</g>
<!-- Node15 -->
<g id="node15" class="node">
<title>Node15</title>
<g id="a_node15"><a xlink:title=" ">
<polygon fill="white" stroke="#bfbfbf" points="926,-62 926,-81 971,-81 971,-62 926,-62"/>
<text text-anchor="middle" x="948.5" y="-69" font-family="Helvetica,sans-Serif" font-size="10.00">utility</text>
</a>
</g>
</g>
<!-- Node1&#45;&gt;Node15 -->
<g id="edge29" class="edge">
<title>Node1&#45;&gt;Node15</title>
<path fill="none" stroke="midnightblue" d="M489.84,-326.85C582.32,-296.27 743.92,-236.02 865.5,-154 893.12,-135.37 919.62,-106.89 934.96,-89.01"/>
<polygon fill="midnightblue" stroke="midnightblue" points="937.8,-91.07 941.56,-81.17 932.44,-86.57 937.8,-91.07"/>
</g>
<!-- Node17 -->
<g id="node17" class="node">
<title>Node17</title>
<g id="a_node17"><a xlink:title=" ">
<polygon fill="white" stroke="#bfbfbf" points="912.5,-263 912.5,-282 970.5,-282 970.5,-263 912.5,-263"/>
<text text-anchor="middle" x="941.5" y="-270" font-family="Helvetica,sans-Serif" font-size="10.00">memory</text>
</a>
</g>
</g>
<!-- Node1&#45;&gt;Node17 -->
<g id="edge28" class="edge">
<title>Node1&#45;&gt;Node17</title>
<path fill="none" stroke="midnightblue" d="M489.56,-344.71C584.68,-337.44 755.66,-320.85 898.5,-288 901.98,-287.2 905.58,-286.23 909.15,-285.17"/>
<polygon fill="midnightblue" stroke="midnightblue" points="910.52,-288.4 918.98,-282.03 908.39,-281.74 910.52,-288.4"/>
</g>
<!-- Node3 -->
<g id="node3" class="node">
<title>Node3</title>
<g id="a_node3"><a xlink:title=" ">
<polygon fill="white" stroke="#bfbfbf" points="238.5,-0.5 238.5,-19.5 298.5,-19.5 298.5,-0.5 238.5,-0.5"/>
<text text-anchor="middle" x="268.5" y="-7.5" font-family="Helvetica,sans-Serif" font-size="10.00">concepts</text>
</a>
</g>
</g>
<!-- Node2&#45;&gt;Node3 -->
<g id="edge2" class="edge">
<title>Node2&#45;&gt;Node3</title>
<path fill="none" stroke="midnightblue" d="M54.72,-190.46C34.15,-161.86 -5.83,-96.12 27.5,-56 52.56,-25.82 166.49,-15.77 228.31,-12.51"/>
<polygon fill="midnightblue" stroke="midnightblue" points="228.67,-16 238.49,-12.01 228.33,-9.01 228.67,-16"/>
</g>
<!-- Node4&#45;&gt;Node3 -->
<g id="edge4" class="edge">
<title>Node4&#45;&gt;Node3</title>
<path fill="none" stroke="midnightblue" d="M141.84,-56.4C170.06,-46.28 207.71,-32.79 234.6,-23.15"/>
<polygon fill="midnightblue" stroke="midnightblue" points="236.11,-26.33 244.35,-19.66 233.75,-19.74 236.11,-26.33"/>
</g>
<!-- Node6 -->
<g id="node6" class="node">
<title>Node6</title>
<g id="a_node6"><a xlink:href="../../d4/d1c/unified__base_8hpp.html" target="_top" xlink:title=" ">
<polygon fill="white" stroke="black" points="186.5,-56.5 186.5,-86.5 306.5,-86.5 306.5,-56.5 186.5,-56.5"/>
<text text-anchor="start" x="194.5" y="-74.5" font-family="Helvetica,sans-Serif" font-size="10.00">Simple&#45;Utility/unified</text>
<text text-anchor="middle" x="246.5" y="-63.5" font-family="Helvetica,sans-Serif" font-size="10.00">_base.hpp</text>
</a>
</g>
</g>
<!-- Node5&#45;&gt;Node6 -->
<g id="edge6" class="edge">
<title>Node5&#45;&gt;Node6</title>
<path fill="none" stroke="midnightblue" d="M404.27,-257.19C374.93,-222.84 300.35,-135.54 265.27,-94.48"/>
<polygon fill="midnightblue" stroke="midnightblue" points="267.77,-92.01 258.62,-86.68 262.45,-96.56 267.77,-92.01"/>
</g>
<!-- Node8 -->
<g id="node8" class="node">
<title>Node8</title>
<g id="a_node8"><a xlink:href="../../d1/d76/functional_2base_8hpp.html" target="_top" xlink:title=" ">
<polygon fill="white" stroke="black" points="334.5,-123.5 334.5,-153.5 470.5,-153.5 470.5,-123.5 334.5,-123.5"/>
<text text-anchor="start" x="342.5" y="-141.5" font-family="Helvetica,sans-Serif" font-size="10.00">Simple&#45;Utility/functional</text>
<text text-anchor="middle" x="402.5" y="-130.5" font-family="Helvetica,sans-Serif" font-size="10.00">/base.hpp</text>
</a>
</g>
</g>
<!-- Node5&#45;&gt;Node8 -->
<g id="edge9" class="edge">
<title>Node5&#45;&gt;Node8</title>
<path fill="none" stroke="midnightblue" d="M405.69,-257.37C399.01,-247.71 391.04,-234.29 387.5,-221 382.42,-201.96 387.07,-179.96 392.5,-163.62"/>
<polygon fill="midnightblue" stroke="midnightblue" points="395.94,-164.38 396.08,-153.78 389.37,-161.98 395.94,-164.38"/>
</g>
<!-- Node12 -->
<g id="node12" class="node">
<title>Node12</title>
<g id="a_node12"><a xlink:href="../../d9/d76/bind_8hpp.html" target="_top" xlink:title=" ">
<polygon fill="white" stroke="black" points="396.5,-190.5 396.5,-220.5 532.5,-220.5 532.5,-190.5 396.5,-190.5"/>
<text text-anchor="start" x="404.5" y="-208.5" font-family="Helvetica,sans-Serif" font-size="10.00">Simple&#45;Utility/functional</text>
<text text-anchor="middle" x="464.5" y="-197.5" font-family="Helvetica,sans-Serif" font-size="10.00">/operators/bind.hpp</text>
</a>
</g>
</g>
<!-- Node5&#45;&gt;Node12 -->
<g id="edge18" class="edge">
<title>Node5&#45;&gt;Node12</title>
<path fill="none" stroke="midnightblue" d="M426.92,-257.4C433.08,-249.05 441.03,-238.29 448.02,-228.81"/>
<polygon fill="midnightblue" stroke="midnightblue" points="450.98,-230.7 454.11,-220.58 445.35,-226.54 450.98,-230.7"/>
</g>
<!-- Node16 -->
<g id="node16" class="node">
<title>Node16</title>
<g id="a_node16"><a xlink:href="../../d5/db7/pipe_8hpp.html" target="_top" xlink:title=" ">
<polygon fill="white" stroke="black" points="550.5,-190.5 550.5,-220.5 686.5,-220.5 686.5,-190.5 550.5,-190.5"/>
<text text-anchor="start" x="558.5" y="-208.5" font-family="Helvetica,sans-Serif" font-size="10.00">Simple&#45;Utility/functional</text>
<text text-anchor="middle" x="618.5" y="-197.5" font-family="Helvetica,sans-Serif" font-size="10.00">/operators/pipe.hpp</text>
</a>
</g>
</g>
<!-- Node5&#45;&gt;Node16 -->
<g id="edge25" class="edge">
<title>Node5&#45;&gt;Node16</title>
<path fill="none" stroke="midnightblue" d="M460.33,-257.4C491.04,-247.52 532.25,-234.25 564.91,-223.74"/>
<polygon fill="midnightblue" stroke="midnightblue" points="566.31,-226.97 574.75,-220.58 564.16,-220.31 566.31,-226.97"/>
</g>
<!-- Node6&#45;&gt;Node3 -->
<g id="edge7" class="edge">
<title>Node6&#45;&gt;Node3</title>
<path fill="none" stroke="midnightblue" d="M251.71,-56.4C254.71,-48.29 258.51,-38.01 261.74,-29.28"/>
<polygon fill="midnightblue" stroke="midnightblue" points="265.11,-30.25 265.3,-19.66 258.55,-27.82 265.11,-30.25"/>
</g>
<!-- Node7 -->
<g id="node7" class="node">
<title>Node7</title>
<g id="a_node7"><a xlink:title=" ">
<polygon fill="white" stroke="#bfbfbf" points="338,-0.5 338,-19.5 407,-19.5 407,-0.5 338,-0.5"/>
<text text-anchor="middle" x="372.5" y="-7.5" font-family="Helvetica,sans-Serif" font-size="10.00">type_traits</text>
</a>
</g>
</g>
<!-- Node6&#45;&gt;Node7 -->
<g id="edge8" class="edge">
<title>Node6&#45;&gt;Node7</title>
<path fill="none" stroke="midnightblue" d="M276.36,-56.4C297.12,-46.59 324.6,-33.62 344.86,-24.05"/>
<polygon fill="midnightblue" stroke="midnightblue" points="346.62,-27.09 354.17,-19.66 343.63,-20.76 346.62,-27.09"/>
</g>
<!-- Node8&#45;&gt;Node3 -->
<g id="edge10" class="edge">
<title>Node8&#45;&gt;Node3</title>
<path fill="none" stroke="midnightblue" d="M387.65,-123.48C362.45,-99.69 311.51,-51.6 285.15,-26.71"/>
<polygon fill="midnightblue" stroke="midnightblue" points="287.48,-24.11 277.81,-19.79 282.68,-29.2 287.48,-24.11"/>
</g>
<!-- Node8&#45;&gt;Node4 -->
<g id="edge15" class="edge">
<title>Node8&#45;&gt;Node4</title>
<path fill="none" stroke="midnightblue" d="M337.77,-123.48C290.64,-113.26 226.68,-99.41 177.35,-88.72"/>
<polygon fill="midnightblue" stroke="midnightblue" points="177.88,-85.25 167.37,-86.55 176.4,-92.09 177.88,-85.25"/>
</g>
<!-- Node8&#45;&gt;Node6 -->
<g id="edge14" class="edge">
<title>Node8&#45;&gt;Node6</title>
<path fill="none" stroke="midnightblue" d="M368.65,-123.4C345.45,-113.73 314.47,-100.82 289.52,-90.43"/>
<polygon fill="midnightblue" stroke="midnightblue" points="290.86,-87.19 280.28,-86.58 288.17,-93.65 290.86,-87.19"/>
</g>
<!-- Node8&#45;&gt;Node7 -->
<g id="edge12" class="edge">
<title>Node8&#45;&gt;Node7</title>
<path fill="none" stroke="midnightblue" d="M399.17,-123.48C393.75,-100.62 383.01,-55.3 376.94,-29.71"/>
<polygon fill="midnightblue" stroke="midnightblue" points="380.3,-28.71 374.58,-19.79 373.49,-30.33 380.3,-28.71"/>
</g>
<!-- Node9 -->
<g id="node9" class="node">
<title>Node9</title>
<g id="a_node9"><a xlink:title=" ">
<polygon fill="white" stroke="#bfbfbf" points="401,-62 401,-81 466,-81 466,-62 401,-62"/>
<text text-anchor="middle" x="433.5" y="-69" font-family="Helvetica,sans-Serif" font-size="10.00">functional</text>
</a>
</g>
</g>
<!-- Node8&#45;&gt;Node9 -->
<g id="edge11" class="edge">
<title>Node8&#45;&gt;Node9</title>
<path fill="none" stroke="midnightblue" d="M409.23,-123.4C413.82,-113.76 419.95,-100.91 424.9,-90.54"/>
<polygon fill="midnightblue" stroke="midnightblue" points="428.21,-91.73 429.35,-81.19 421.89,-88.71 428.21,-91.73"/>
</g>
<!-- Node10 -->
<g id="node10" class="node">
<title>Node10</title>
<g id="a_node10"><a xlink:href="../../d8/dd2/_config_8hpp.html" target="_top" xlink:title=" ">
<polygon fill="white" stroke="black" points="484,-62 484,-81 623,-81 623,-62 484,-62"/>
<text text-anchor="middle" x="553.5" y="-69" font-family="Helvetica,sans-Serif" font-size="10.00">Simple&#45;Utility/Config.hpp</text>
</a>
</g>
</g>
<!-- Node8&#45;&gt;Node10 -->
<g id="edge13" class="edge">
<title>Node8&#45;&gt;Node10</title>
<path fill="none" stroke="midnightblue" d="M435.26,-123.4C461.76,-111.99 498.72,-96.08 524.23,-85.1"/>
<polygon fill="midnightblue" stroke="midnightblue" points="525.94,-88.18 533.74,-81.01 523.17,-81.75 525.94,-88.18"/>
</g>
<!-- Node11 -->
<g id="node11" class="node">
<title>Node11</title>
<g id="a_node11"><a xlink:href="../../d5/d8e/concepts_2utility_8hpp.html" target="_top" xlink:title=" ">
<polygon fill="white" stroke="black" points="641,-56.5 641,-86.5 772,-86.5 772,-56.5 641,-56.5"/>
<text text-anchor="start" x="649" y="-74.5" font-family="Helvetica,sans-Serif" font-size="10.00">Simple&#45;Utility/concepts</text>
<text text-anchor="middle" x="706.5" y="-63.5" font-family="Helvetica,sans-Serif" font-size="10.00">/utility.hpp</text>
</a>
</g>
</g>
<!-- Node8&#45;&gt;Node11 -->
<g id="edge16" class="edge">
<title>Node8&#45;&gt;Node11</title>
<path fill="none" stroke="midnightblue" d="M468.09,-123.48C515.95,-113.24 580.93,-99.35 630.97,-88.65"/>
<polygon fill="midnightblue" stroke="midnightblue" points="631.72,-92.07 640.77,-86.55 630.26,-85.22 631.72,-92.07"/>
</g>
<!-- Node11&#45;&gt;Node3 -->
<g id="edge17" class="edge">
<title>Node11&#45;&gt;Node3</title>
<path fill="none" stroke="midnightblue" d="M640.78,-57.35C637.98,-56.88 635.22,-56.43 632.5,-56 498.09,-34.9 463.35,-38.09 328.5,-20 322.13,-19.15 315.38,-18.19 308.81,-17.22"/>
<polygon fill="midnightblue" stroke="midnightblue" points="309.1,-13.73 298.69,-15.72 308.07,-20.65 309.1,-13.73"/>
</g>
<!-- Node12&#45;&gt;Node8 -->
<g id="edge19" class="edge">
<title>Node12&#45;&gt;Node8</title>
<path fill="none" stroke="midnightblue" d="M451.05,-190.4C442.84,-181.79 432.19,-170.63 422.95,-160.94"/>
<polygon fill="midnightblue" stroke="midnightblue" points="425.36,-158.4 415.93,-153.58 420.3,-163.23 425.36,-158.4"/>
</g>
<!-- Node13 -->
<g id="node13" class="node">
<title>Node13</title>
<g id="a_node13"><a xlink:href="../../d2/d30/general_8hpp.html" target="_top" xlink:title=" ">
<polygon fill="white" stroke="black" points="744.5,-123.5 744.5,-153.5 856.5,-153.5 856.5,-123.5 744.5,-123.5"/>
<text text-anchor="start" x="752.5" y="-141.5" font-family="Helvetica,sans-Serif" font-size="10.00">Simple&#45;Utility/tuple</text>
<text text-anchor="middle" x="800.5" y="-130.5" font-family="Helvetica,sans-Serif" font-size="10.00">/general.hpp</text>
</a>
</g>
</g>
<!-- Node12&#45;&gt;Node13 -->
<g id="edge20" class="edge">
<title>Node12&#45;&gt;Node13</title>
<path fill="none" stroke="midnightblue" d="M532.9,-191.27C591.85,-179.86 676.41,-163.51 734.61,-152.25"/>
<polygon fill="midnightblue" stroke="midnightblue" points="735.29,-155.68 744.44,-150.34 733.96,-148.81 735.29,-155.68"/>
</g>
<!-- Node13&#45;&gt;Node3 -->
<g id="edge21" class="edge">
<title>Node13&#45;&gt;Node3</title>
<path fill="none" stroke="midnightblue" d="M801.77,-123.48C802.59,-104.95 800.88,-72.68 781.5,-56 743.23,-23.07 378.66,-25.75 328.5,-20 322.11,-19.27 315.36,-18.37 308.78,-17.44"/>
<polygon fill="midnightblue" stroke="midnightblue" points="309.07,-13.94 298.66,-15.94 308.04,-20.86 309.07,-13.94"/>
</g>
<!-- Node13&#45;&gt;Node7 -->
<g id="edge23" class="edge">
<title>Node13&#45;&gt;Node7</title>
<path fill="none" stroke="midnightblue" d="M809.04,-123.48C818.76,-105.53 831.25,-74.54 814.5,-56 788.2,-26.88 524.48,-15.62 417.36,-12.23"/>
<polygon fill="midnightblue" stroke="midnightblue" points="417.3,-8.73 407.2,-11.92 417.09,-15.72 417.3,-8.73"/>
</g>
<!-- Node14 -->
<g id="node14" class="node">
<title>Node14</title>
<g id="a_node14"><a xlink:title=" ">
<polygon fill="white" stroke="#bfbfbf" points="867,-62 867,-81 908,-81 908,-62 867,-62"/>
<text text-anchor="middle" x="887.5" y="-69" font-family="Helvetica,sans-Serif" font-size="10.00">tuple</text>
</a>
</g>
</g>
<!-- Node13&#45;&gt;Node14 -->
<g id="edge22" class="edge">
<title>Node13&#45;&gt;Node14</title>
<path fill="none" stroke="midnightblue" d="M819.38,-123.4C833.61,-112.76 853.1,-98.2 867.58,-87.38"/>
<polygon fill="midnightblue" stroke="midnightblue" points="869.95,-89.98 875.86,-81.19 865.76,-84.38 869.95,-89.98"/>
</g>
<!-- Node13&#45;&gt;Node15 -->
<g id="edge24" class="edge">
<title>Node13&#45;&gt;Node15</title>
<path fill="none" stroke="midnightblue" d="M833.9,-123.4C857.37,-113.41 889.45,-99.61 917.5,-87 918.69,-86.47 919.9,-85.92 921.13,-85.36"/>
<polygon fill="midnightblue" stroke="midnightblue" points="922.9,-88.4 930.51,-81.03 919.96,-82.04 922.9,-88.4"/>
</g>
<!-- Node16&#45;&gt;Node8 -->
<g id="edge26" class="edge">
<title>Node16&#45;&gt;Node8</title>
<path fill="none" stroke="midnightblue" d="M571.9,-190.48C538.8,-180.51 494.17,-167.09 459.03,-156.51"/>
<polygon fill="midnightblue" stroke="midnightblue" points="459.98,-153.14 449.39,-153.61 457.96,-159.84 459.98,-153.14"/>
</g>
<!-- Node16&#45;&gt;Node13 -->
<g id="edge27" class="edge">
<title>Node16&#45;&gt;Node13</title>
<path fill="none" stroke="midnightblue" d="M657.99,-190.4C685.42,-180.6 722.15,-167.48 751.46,-157.02"/>
<polygon fill="midnightblue" stroke="midnightblue" points="752.85,-160.24 761.09,-153.58 750.49,-153.64 752.85,-160.24"/>
</g>
</g>
</svg>
