<?xml version="1.0" encoding="UTF-8" standalone="no"?>
<!DOCTYPE svg PUBLIC "-//W3C//DTD SVG 1.1//EN"
 "http://www.w3.org/Graphics/SVG/1.1/DTD/svg11.dtd">
<!-- Generated by graphviz version 7.0.5 (20221223.1930)
 -->
<!-- Title: concepts Pages: 1 -->
<svg width="210pt" height="224pt"
 viewBox="0.00 0.00 210.00 224.00" xmlns="http://www.w3.org/2000/svg" xmlns:xlink="http://www.w3.org/1999/xlink">
<g id="graph0" class="graph" transform="scale(1 1) rotate(0) translate(4 220)">
<title>concepts</title>
<!-- Node2 -->
<g id="node1" class="node">
<title>Node2</title>
<g id="a_node1"><a xlink:href="../../d8/d43/group___g_r_o_u_p___a_c_c_e_s_s___o_p_e_r_a_t_o_r___c_o_n_c_e_p_t_s.html" target="_top" xlink:title=" ">
<polygon fill="white" stroke="#666666" points="193.5,-216 101.5,-216 101.5,-197 193.5,-197 193.5,-216"/>
<text text-anchor="middle" x="147.5" y="-204" font-family="Helvetica,sans-Serif" font-size="10.00">access operators</text>
</a>
</g>
</g>
<!-- Node3 -->
<g id="node2" class="node">
<title>Node3</title>
<g id="a_node2"><a xlink:href="../../dd/da6/group___g_r_o_u_p___a_r_i_t_h_m_e_t_i_c___o_p_e_r_a_t_o_r___c_o_n_c_e_p_t_s.html" target="_top" xlink:title="Contains concepts which determines whether a type is usable in operator +, +=, &#45;, &#45;=,...">
<polygon fill="white" stroke="#666666" points="202,-179 93,-179 93,-160 202,-160 202,-179"/>
<text text-anchor="middle" x="147.5" y="-167" font-family="Helvetica,sans-Serif" font-size="10.00">arithmetic operators</text>
</a>
</g>
</g>
<!-- Node1 -->
<g id="node3" class="node">
<title>Node1</title>
<g id="a_node3"><a xlink:title="Contains concepts for different purposes.">
<polygon fill="#999999" stroke="#666666" points="57,-114 0,-114 0,-95 57,-95 57,-114"/>
<text text-anchor="middle" x="28.5" y="-102" font-family="Helvetica,sans-Serif" font-size="10.00">concepts</text>
</a>
</g>
</g>
<!-- Node1&#45;&gt;Node2 -->
<g id="edge1" class="edge">
<title>Node1&#45;&gt;Node2</title>
<path fill="none" stroke="black" d="M39.82,-124.29C50.67,-143.29 69.44,-171.53 93,-188.5 97.45,-191.71 102.52,-194.37 107.71,-196.58"/>
<polygon fill="black" stroke="black" points="42.96,-122.74 35.09,-115.65 36.82,-126.1 42.96,-122.74"/>
</g>
<!-- Node1&#45;&gt;Node3 -->
<g id="edge2" class="edge">
<title>Node1&#45;&gt;Node3</title>
<path fill="none" stroke="black" d="M49.73,-121.46C61.75,-130.92 77.6,-142.4 93,-150.5 99.54,-153.94 106.84,-157 113.9,-159.6"/>
<polygon fill="black" stroke="black" points="52.16,-118.92 42.18,-115.35 47.76,-124.36 52.16,-118.92"/>
</g>
<!-- Node4 -->
<g id="node4" class="node">
<title>Node4</title>
<g id="a_node4"><a xlink:href="../../d7/d37/group___g_r_o_u_p___l_o_g_i_c_a_l___a_r_i_t_h_m_e_t_i_c___o_p_e_r_a_t_o_r___c_o_n_c_e_p_t_s.html" target="_top" xlink:title="Contains concepts which determines whether a type is usable in operator &amp;, &amp;=, |, |=,...">
<polygon fill="white" stroke="#666666" points="195,-141.5 100,-141.5 100,-111.5 195,-111.5 195,-141.5"/>
<text text-anchor="start" x="108" y="-129.5" font-family="Helvetica,sans-Serif" font-size="10.00">logical arithmetic</text>
<text text-anchor="middle" x="147.5" y="-118.5" font-family="Helvetica,sans-Serif" font-size="10.00"> operators</text>
</a>
</g>
</g>
<!-- Node1&#45;&gt;Node4 -->
<g id="edge3" class="edge">
<title>Node1&#45;&gt;Node4</title>
<path fill="none" stroke="black" d="M68.51,-111.83C78.52,-113.72 89.4,-115.76 99.76,-117.71"/>
<polygon fill="black" stroke="black" points="69.19,-108.4 58.71,-109.99 67.9,-115.28 69.19,-108.4"/>
</g>
<!-- Node5 -->
<g id="node5" class="node">
<title>Node5</title>
<g id="a_node5"><a xlink:href="../../de/d27/group___g_r_o_u_p___s_h_i_f_t___o_p_e_r_a_t_o_r___c_o_n_c_e_p_t_s.html" target="_top" xlink:title="Contains concepts which determines whether a type is usable in operator &lt;&lt;, &lt;&lt;=, &gt;&gt; and &gt;&gt;= expressio...">
<polygon fill="white" stroke="#666666" points="189,-93 106,-93 106,-74 189,-74 189,-93"/>
<text text-anchor="middle" x="147.5" y="-81" font-family="Helvetica,sans-Serif" font-size="10.00">shift operators</text>
</a>
</g>
</g>
<!-- Node1&#45;&gt;Node5 -->
<g id="edge4" class="edge">
<title>Node1&#45;&gt;Node5</title>
<path fill="none" stroke="black" d="M68.27,-97.54C80.28,-95.39 93.54,-93.01 105.67,-90.83"/>
<polygon fill="black" stroke="black" points="67.94,-94.04 58.72,-99.26 69.18,-100.93 67.94,-94.04"/>
</g>
<!-- Node6 -->
<g id="node6" class="node">
<title>Node6</title>
<g id="a_node6"><a xlink:href="../../dd/dae/group___g_r_o_u_p___s_t_l___e_x_t_e_n_s_i_o_n___c_o_n_c_e_p_t_s.html" target="_top" xlink:title="Contains several concept extensions for existing stl concepts.">
<polygon fill="white" stroke="#666666" points="186.5,-56 108.5,-56 108.5,-37 186.5,-37 186.5,-56"/>
<text text-anchor="middle" x="147.5" y="-44" font-family="Helvetica,sans-Serif" font-size="10.00">stl extensions</text>
</a>
</g>
</g>
<!-- Node1&#45;&gt;Node6 -->
<g id="edge5" class="edge">
<title>Node1&#45;&gt;Node6</title>
<path fill="none" stroke="black" d="M53.09,-88.38C64.77,-80.82 79.28,-72.06 93,-65.5 99.94,-62.18 107.61,-59.12 114.93,-56.47"/>
<polygon fill="black" stroke="black" points="51.32,-85.35 44.9,-93.79 55.18,-91.19 51.32,-85.35"/>
</g>
<!-- Node7 -->
<g id="node7" class="node">
<title>Node7</title>
<g id="a_node7"><a xlink:href="../../dc/d1b/group___g_r_o_u_p___u_t_i_l_i_t_y___c_o_n_c_e_p_t_s.html" target="_top" xlink:title=" ">
<polygon fill="white" stroke="#666666" points="168,-19 127,-19 127,0 168,0 168,-19"/>
<text text-anchor="middle" x="147.5" y="-7" font-family="Helvetica,sans-Serif" font-size="10.00">utility</text>
</a>
</g>
</g>
<!-- Node1&#45;&gt;Node7 -->
<g id="edge6" class="edge">
<title>Node1&#45;&gt;Node7</title>
<path fill="none" stroke="black" d="M41.35,-85.13C52.69,-68.07 71.26,-43.63 93,-28.5 103.11,-21.46 116.11,-16.77 126.75,-13.81"/>
<polygon fill="black" stroke="black" points="38.51,-83.07 36.07,-93.38 44.41,-86.84 38.51,-83.07"/>
</g>
</g>
</svg>
