<?xml version="1.0" encoding="UTF-8" standalone="no"?>
<!DOCTYPE svg PUBLIC "-//W3C//DTD SVG 1.1//EN"
 "http://www.w3.org/Graphics/SVG/1.1/DTD/svg11.dtd">
<!-- Generated by graphviz version 8.0.5 (20230430.1635)
 -->
<!-- Title: concepts Pages: 1 -->
<svg width="209pt" height="236pt"
 viewBox="0.00 0.00 208.75 235.75" xmlns="http://www.w3.org/2000/svg" xmlns:xlink="http://www.w3.org/1999/xlink">
<g id="graph0" class="graph" transform="scale(1 1) rotate(0) translate(4 231.75)">
<title>concepts</title>
<!-- Node2 -->
<g id="node1" class="node">
<title>Node2</title>
<g id="a_node1"><a xlink:href="../../d8/d43/group___g_r_o_u_p___a_c_c_e_s_s___o_p_e_r_a_t_o_r___c_o_n_c_e_p_t_s.html" target="_top" xlink:title=" ">
<polygon fill="white" stroke="#666666" points="192.12,-227.75 101.12,-227.75 101.12,-207 192.12,-207 192.12,-227.75"/>
<text text-anchor="middle" x="146.62" y="-214.25" font-family="Helvetica,sans-Serif" font-size="10.00">access operators</text>
</a>
</g>
</g>
<!-- Node3 -->
<g id="node2" class="node">
<title>Node3</title>
<g id="a_node2"><a xlink:href="../../dd/da6/group___g_r_o_u_p___a_r_i_t_h_m_e_t_i_c___o_p_e_r_a_t_o_r___c_o_n_c_e_p_t_s.html" target="_top" xlink:title="Contains concepts which determines whether a type is usable in operator +, +=, &#45;, &#45;=,...">
<polygon fill="white" stroke="#666666" points="200.75,-188.75 92.5,-188.75 92.5,-168 200.75,-168 200.75,-188.75"/>
<text text-anchor="middle" x="146.62" y="-175.25" font-family="Helvetica,sans-Serif" font-size="10.00">arithmetic operators</text>
</a>
</g>
</g>
<!-- Node1 -->
<g id="node3" class="node">
<title>Node1</title>
<g id="a_node3"><a xlink:title="Contains concepts for different purposes.">
<polygon fill="#999999" stroke="#666666" points="56.5,-120.75 0,-120.75 0,-100 56.5,-100 56.5,-120.75"/>
<text text-anchor="middle" x="28.25" y="-107.25" font-family="Helvetica,sans-Serif" font-size="10.00">concepts</text>
</a>
</g>
</g>
<!-- Node1&#45;&gt;Node2 -->
<g id="edge1" class="edge">
<title>Node1&#45;&gt;Node2</title>
<path fill="none" stroke="black" d="M39.37,-130.5C50.12,-150.04 68.83,-179.34 92.5,-197.38 97.28,-201.02 102.8,-204.06 108.43,-206.58"/>
<polygon fill="black" stroke="black" points="42.13,-129.23 34.36,-122.03 35.94,-132.5 42.13,-129.23"/>
</g>
<!-- Node1&#45;&gt;Node3 -->
<g id="edge2" class="edge">
<title>Node1&#45;&gt;Node3</title>
<path fill="none" stroke="black" d="M48.53,-127.91C60.51,-138.13 76.62,-150.67 92.5,-159.38 98.08,-162.43 104.26,-165.17 110.36,-167.54"/>
<polygon fill="black" stroke="black" points="51.42,-124.92 41.59,-120.97 46.81,-130.19 51.42,-124.92"/>
</g>
<!-- Node4 -->
<g id="node4" class="node">
<title>Node4</title>
<g id="a_node4"><a xlink:href="../../d7/d37/group___g_r_o_u_p___l_o_g_i_c_a_l___a_r_i_t_h_m_e_t_i_c___o_p_e_r_a_t_o_r___c_o_n_c_e_p_t_s.html" target="_top" xlink:title="Contains concepts which determines whether a type is usable in operator &amp;, &amp;=, |, |=,...">
<polygon fill="white" stroke="#666666" points="193.62,-150.12 99.62,-150.12 99.62,-116.62 193.62,-116.62 193.62,-150.12"/>
<text text-anchor="start" x="107.62" y="-136.62" font-family="Helvetica,sans-Serif" font-size="10.00">logical arithmetic</text>
<text text-anchor="middle" x="146.62" y="-123.88" font-family="Helvetica,sans-Serif" font-size="10.00"> operators</text>
</a>
</g>
</g>
<!-- Node1&#45;&gt;Node4 -->
<g id="edge3" class="edge">
<title>Node1&#45;&gt;Node4</title>
<path fill="none" stroke="black" d="M67.4,-117.91C77.54,-119.92 88.6,-122.11 99.13,-124.19"/>
<polygon fill="black" stroke="black" points="68.32,-114.33 57.83,-115.83 66.96,-121.2 68.32,-114.33"/>
</g>
<!-- Node5 -->
<g id="node5" class="node">
<title>Node5</title>
<g id="a_node5"><a xlink:href="../../de/d27/group___g_r_o_u_p___s_h_i_f_t___o_p_e_r_a_t_o_r___c_o_n_c_e_p_t_s.html" target="_top" xlink:title="Contains concepts which determines whether a type is usable in operator &lt;&lt;, &lt;&lt;=, &gt;&gt; and &gt;&gt;= expressio...">
<polygon fill="white" stroke="#666666" points="188,-98.75 105.25,-98.75 105.25,-78 188,-78 188,-98.75"/>
<text text-anchor="middle" x="146.62" y="-85.25" font-family="Helvetica,sans-Serif" font-size="10.00">shift operators</text>
</a>
</g>
</g>
<!-- Node1&#45;&gt;Node5 -->
<g id="edge4" class="edge">
<title>Node1&#45;&gt;Node5</title>
<path fill="none" stroke="black" d="M67.45,-103.15C79.48,-100.88 92.82,-98.36 105.02,-96.05"/>
<polygon fill="black" stroke="black" points="67.01,-99.86 57.83,-105.16 68.31,-106.74 67.01,-99.86"/>
</g>
<!-- Node6 -->
<g id="node6" class="node">
<title>Node6</title>
<g id="a_node6"><a xlink:href="../../dd/dae/group___g_r_o_u_p___s_t_l___e_x_t_e_n_s_i_o_n___c_o_n_c_e_p_t_s.html" target="_top" xlink:title="Contains several concept extensions for existing stl concepts.">
<polygon fill="white" stroke="#666666" points="185.38,-59.75 107.88,-59.75 107.88,-39 185.38,-39 185.38,-59.75"/>
<text text-anchor="middle" x="146.62" y="-46.25" font-family="Helvetica,sans-Serif" font-size="10.00">stl extensions</text>
</a>
</g>
</g>
<!-- Node1&#45;&gt;Node6 -->
<g id="edge5" class="edge">
<title>Node1&#45;&gt;Node6</title>
<path fill="none" stroke="black" d="M52.8,-93.38C64.4,-85.46 78.81,-76.29 92.5,-69.38 99.1,-66.04 106.39,-62.95 113.4,-60.23"/>
<polygon fill="black" stroke="black" points="50.99,-91.07 44.79,-99.66 54.99,-96.81 50.99,-91.07"/>
</g>
<!-- Node7 -->
<g id="node7" class="node">
<title>Node7</title>
<g id="a_node7"><a xlink:href="../../dc/d1b/group___g_r_o_u_p___u_t_i_l_i_t_y___c_o_n_c_e_p_t_s.html" target="_top" xlink:title=" ">
<polygon fill="white" stroke="#666666" points="167,-20.75 126.25,-20.75 126.25,0 167,0 167,-20.75"/>
<text text-anchor="middle" x="146.62" y="-7.25" font-family="Helvetica,sans-Serif" font-size="10.00">utility</text>
</a>
</g>
</g>
<!-- Node1&#45;&gt;Node7 -->
<g id="edge6" class="edge">
<title>Node1&#45;&gt;Node7</title>
<path fill="none" stroke="black" d="M40.77,-90.24C51.94,-72.32 70.41,-46.51 92.5,-30.38 102.45,-23.11 115.35,-18.17 125.94,-15.02"/>
<polygon fill="black" stroke="black" points="37.35,-88.14 35.2,-98.51 43.35,-91.74 37.35,-88.14"/>
</g>
</g>
</svg>
