<?xml version="1.0" encoding="UTF-8" standalone="no"?>
<!DOCTYPE svg PUBLIC "-//W3C//DTD SVG 1.1//EN"
 "http://www.w3.org/Graphics/SVG/1.1/DTD/svg11.dtd">
<!-- Generated by graphviz version 2.43.0 (0)
 -->
<!-- Title: concepts Pages: 1 -->
<svg width="220pt" height="224pt"
 viewBox="0.00 0.00 220.00 224.00" xmlns="http://www.w3.org/2000/svg" xmlns:xlink="http://www.w3.org/1999/xlink">
<g id="graph0" class="graph" transform="scale(1 1) rotate(0) translate(4 220)">
<title>concepts</title>
<polygon fill="white" stroke="transparent" points="-4,4 -4,-220 216,-220 216,4 -4,4"/>
<!-- Node6 -->
<g id="node1" class="node">
<title>Node6</title>
<g id="a_node1"><a xlink:href="../../dd/dae/group___g_r_o_u_p___s_t_l___e_x_t_e_n_s_i_o_n___c_o_n_c_e_p_t_s.html" target="_top" xlink:title="Contains several concept extensions for existing stl concepts.">
<polygon fill="white" stroke="black" points="196.5,-216 111.5,-216 111.5,-197 196.5,-197 196.5,-216"/>
<text text-anchor="middle" x="154" y="-204" font-family="Helvetica,sans-Serif" font-size="10.00">stl extensions</text>
</a>
</g>
</g>
<!-- Node2 -->
<g id="node2" class="node">
<title>Node2</title>
<g id="a_node2"><a xlink:href="../../d8/d43/group___g_r_o_u_p___a_c_c_e_s_s___o_p_e_r_a_t_o_r___c_o_n_c_e_p_t_s.html" target="_top" xlink:title=" ">
<polygon fill="white" stroke="black" points="203.5,-179 104.5,-179 104.5,-160 203.5,-160 203.5,-179"/>
<text text-anchor="middle" x="154" y="-167" font-family="Helvetica,sans-Serif" font-size="10.00">access operators</text>
</a>
</g>
</g>
<!-- Node4 -->
<g id="node3" class="node">
<title>Node4</title>
<g id="a_node3"><a xlink:href="../../d7/d37/group___g_r_o_u_p___l_o_g_i_c_a_l___a_r_i_t_h_m_e_t_i_c___o_p_e_r_a_t_o_r___c_o_n_c_e_p_t_s.html" target="_top" xlink:title="Contains concepts which determines whether a type is usable in operator &amp;, &amp;=, |, |=,...">
<polygon fill="white" stroke="black" points="205,-141.5 103,-141.5 103,-111.5 205,-111.5 205,-141.5"/>
<text text-anchor="start" x="111" y="-129.5" font-family="Helvetica,sans-Serif" font-size="10.00">logical arithmetic</text>
<text text-anchor="middle" x="154" y="-118.5" font-family="Helvetica,sans-Serif" font-size="10.00"> operators</text>
</a>
</g>
</g>
<!-- Node3 -->
<g id="node4" class="node">
<title>Node3</title>
<g id="a_node4"><a xlink:href="../../dd/da6/group___g_r_o_u_p___a_r_i_t_h_m_e_t_i_c___o_p_e_r_a_t_o_r___c_o_n_c_e_p_t_s.html" target="_top" xlink:title="Contains concepts which determines whether a type is usable in operator +, +=, &#45;, &#45;=,...">
<polygon fill="white" stroke="black" points="212,-93 96,-93 96,-74 212,-74 212,-93"/>
<text text-anchor="middle" x="154" y="-81" font-family="Helvetica,sans-Serif" font-size="10.00">arithmetic operators</text>
</a>
</g>
</g>
<!-- Node7 -->
<g id="node5" class="node">
<title>Node7</title>
<g id="a_node5"><a xlink:href="../../dc/d1b/group___g_r_o_u_p___u_t_i_l_i_t_y___c_o_n_c_e_p_t_s.html" target="_top" xlink:title=" ">
<polygon fill="white" stroke="black" points="176.5,-56 131.5,-56 131.5,-37 176.5,-37 176.5,-56"/>
<text text-anchor="middle" x="154" y="-44" font-family="Helvetica,sans-Serif" font-size="10.00">utility</text>
</a>
</g>
</g>
<!-- Node5 -->
<g id="node6" class="node">
<title>Node5</title>
<g id="a_node6"><a xlink:href="../../de/d27/group___g_r_o_u_p___s_h_i_f_t___o_p_e_r_a_t_o_r___c_o_n_c_e_p_t_s.html" target="_top" xlink:title="Contains concepts which determines whether a type is usable in operator &lt;&lt;, &lt;&lt;=, &gt;&gt; and &gt;&gt;= expressio...">
<polygon fill="white" stroke="black" points="197.5,-19 110.5,-19 110.5,0 197.5,0 197.5,-19"/>
<text text-anchor="middle" x="154" y="-7" font-family="Helvetica,sans-Serif" font-size="10.00">shift operators</text>
</a>
</g>
</g>
<!-- Node1 -->
<g id="node7" class="node">
<title>Node1</title>
<g id="a_node7"><a xlink:title="Contains concepts for different purposes.">
<polygon fill="#bfbfbf" stroke="black" points="60,-114 0,-114 0,-95 60,-95 60,-114"/>
<text text-anchor="middle" x="30" y="-102" font-family="Helvetica,sans-Serif" font-size="10.00">concepts</text>
</a>
</g>
</g>
<!-- Node1&#45;&gt;Node6 -->
<g id="edge5" class="edge">
<title>Node1&#45;&gt;Node6</title>
<path fill="none" stroke="black" d="M40.81,-123.02C51.82,-142.08 71.4,-171.34 96,-188.5 100.85,-191.88 106.37,-194.65 112.01,-196.91"/>
<polygon fill="black" stroke="black" points="43.77,-121.14 35.86,-114.1 37.65,-124.54 43.77,-121.14"/>
</g>
<!-- Node1&#45;&gt;Node2 -->
<g id="edge1" class="edge">
<title>Node1&#45;&gt;Node2</title>
<path fill="none" stroke="black" d="M50.17,-120.34C62.63,-130.06 79.57,-142.18 96,-150.5 103.17,-154.13 111.18,-157.29 118.88,-159.95"/>
<polygon fill="black" stroke="black" points="52.31,-117.58 42.31,-114.08 47.95,-123.05 52.31,-117.58"/>
</g>
<!-- Node1&#45;&gt;Node4 -->
<g id="edge3" class="edge">
<title>Node1&#45;&gt;Node4</title>
<path fill="none" stroke="black" d="M70.16,-111.56C80.48,-113.42 91.75,-115.45 102.57,-117.41"/>
<polygon fill="black" stroke="black" points="70.68,-108.1 60.22,-109.77 69.44,-114.99 70.68,-108.1"/>
</g>
<!-- Node1&#45;&gt;Node3 -->
<g id="edge2" class="edge">
<title>Node1&#45;&gt;Node3</title>
<path fill="none" stroke="black" d="M70.16,-97.76C78.95,-96.25 88.43,-94.61 97.73,-93.01"/>
<polygon fill="black" stroke="black" points="69.48,-94.32 60.22,-99.47 70.67,-101.22 69.48,-94.32"/>
</g>
<!-- Node1&#45;&gt;Node7 -->
<g id="edge6" class="edge">
<title>Node1&#45;&gt;Node7</title>
<path fill="none" stroke="black" d="M53.58,-89.28C65.79,-81.49 81.33,-72.25 96,-65.5 107.37,-60.27 120.61,-55.77 131.46,-52.46"/>
<polygon fill="black" stroke="black" points="51.43,-86.5 44.96,-94.89 55.25,-92.37 51.43,-86.5"/>
</g>
<!-- Node1&#45;&gt;Node5 -->
<g id="edge4" class="edge">
<title>Node1&#45;&gt;Node5</title>
<path fill="none" stroke="black" d="M42.33,-86.28C53.87,-69.11 73.28,-43.8 96,-28.5 101.71,-24.66 108.27,-21.53 114.85,-19.01"/>
<polygon fill="black" stroke="black" points="39.26,-84.57 36.75,-94.86 45.13,-88.38 39.26,-84.57"/>
</g>
</g>
</svg>
