<?xml version="1.0" encoding="UTF-8" standalone="no"?>
<!DOCTYPE svg PUBLIC "-//W3C//DTD SVG 1.1//EN"
 "http://www.w3.org/Graphics/SVG/1.1/DTD/svg11.dtd">
<!-- Generated by graphviz version 8.0.5 (20230430.1635)
 -->
<!-- Title: Simple&#45;Utility/concepts/operators.hpp Pages: 1 -->
<svg width="1309pt" height="237pt"
 viewBox="0.00 0.00 1309.25 237.25" xmlns="http://www.w3.org/2000/svg" xmlns:xlink="http://www.w3.org/1999/xlink">
<g id="graph0" class="graph" transform="scale(1 1) rotate(0) translate(4 233.25)">
<title>Simple&#45;Utility/concepts/operators.hpp</title>
<!-- Node1 -->
<g id="node1" class="node">
<title>Node1</title>
<g id="a_node1"><a xlink:title=" ">
<polygon fill="#999999" stroke="#666666" points="279.5,-229.25 157.75,-229.25 157.75,-195.75 279.5,-195.75 279.5,-229.25"/>
<text text-anchor="start" x="165.75" y="-215.75" font-family="Helvetica,sans-Serif" font-size="10.00">Simple&#45;Utility/concepts</text>
<text text-anchor="middle" x="218.62" y="-203" font-family="Helvetica,sans-Serif" font-size="10.00">/operators.hpp</text>
</a>
</g>
</g>
<!-- Node2 -->
<g id="node2" class="node">
<title>Node2</title>
<g id="a_node2"><a xlink:href="../../d3/dc2/_arithmetic_8hpp.html" target="_top" xlink:title=" ">
<polygon fill="white" stroke="#666666" points="137.12,-159.75 10.12,-159.75 10.12,-126.25 137.12,-126.25 137.12,-159.75"/>
<text text-anchor="start" x="18.12" y="-146.25" font-family="Helvetica,sans-Serif" font-size="10.00">Simple&#45;Utility/functional</text>
<text text-anchor="middle" x="73.62" y="-133.5" font-family="Helvetica,sans-Serif" font-size="10.00">/Arithmetic.hpp</text>
</a>
</g>
</g>
<!-- Node1&#45;&gt;Node2 -->
<g id="edge1" class="edge">
<title>Node1&#45;&gt;Node2</title>
<path fill="none" stroke="#63b8ff" d="M174.16,-190.8C152.99,-180.95 128.06,-169.34 108.32,-160.15"/>
<polygon fill="#63b8ff" stroke="#63b8ff" points="172.35,-194.28 182.89,-195.33 175.31,-187.94 172.35,-194.28"/>
</g>
<!-- Node4 -->
<g id="node4" class="node">
<title>Node4</title>
<g id="a_node4"><a xlink:href="../../de/d61/functional_2_utility_8hpp.html" target="_top" xlink:title=" ">
<polygon fill="white" stroke="#666666" points="282.12,-159.75 155.12,-159.75 155.12,-126.25 282.12,-126.25 282.12,-159.75"/>
<text text-anchor="start" x="163.12" y="-146.25" font-family="Helvetica,sans-Serif" font-size="10.00">Simple&#45;Utility/functional</text>
<text text-anchor="middle" x="218.62" y="-133.5" font-family="Helvetica,sans-Serif" font-size="10.00">/Utility.hpp</text>
</a>
</g>
</g>
<!-- Node1&#45;&gt;Node4 -->
<g id="edge3" class="edge">
<title>Node1&#45;&gt;Node4</title>
<path fill="none" stroke="#63b8ff" d="M218.62,-184.64C218.62,-176.25 218.62,-167.26 218.62,-159.88"/>
<polygon fill="#63b8ff" stroke="#63b8ff" points="215.13,-184.5 218.62,-194.5 222.13,-184.5 215.13,-184.5"/>
</g>
<!-- Node5 -->
<g id="node5" class="node">
<title>Node5</title>
<g id="a_node5"><a xlink:href="../../dd/d3c/base_8hpp.html" target="_top" xlink:title=" ">
<polygon fill="white" stroke="#666666" points="677.88,-159.75 555.38,-159.75 555.38,-126.25 677.88,-126.25 677.88,-159.75"/>
<text text-anchor="start" x="563.38" y="-146.25" font-family="Helvetica,sans-Serif" font-size="10.00">Simple&#45;Utility/nullables</text>
<text text-anchor="middle" x="616.62" y="-133.5" font-family="Helvetica,sans-Serif" font-size="10.00">/base.hpp</text>
</a>
</g>
</g>
<!-- Node1&#45;&gt;Node5 -->
<g id="edge5" class="edge">
<title>Node1&#45;&gt;Node5</title>
<path fill="none" stroke="#63b8ff" d="M290.77,-199.26C366.27,-186.46 483.56,-166.57 554.91,-154.47"/>
<polygon fill="#63b8ff" stroke="#63b8ff" points="290.21,-195.98 280.94,-201.1 291.38,-202.88 290.21,-195.98"/>
</g>
<!-- Node3 -->
<g id="node3" class="node">
<title>Node3</title>
<g id="a_node3"><a xlink:href="../../d2/db4/functional_8hpp.html" target="_top" xlink:title=" ">
<polygon fill="white" stroke="#666666" points="147.25,-83.88 0,-83.88 0,-63.12 147.25,-63.12 147.25,-83.88"/>
<text text-anchor="middle" x="73.62" y="-70.38" font-family="Helvetica,sans-Serif" font-size="10.00">Simple&#45;Utility/functional.hpp</text>
</a>
</g>
</g>
<!-- Node2&#45;&gt;Node3 -->
<g id="edge2" class="edge">
<title>Node2&#45;&gt;Node3</title>
<path fill="none" stroke="#63b8ff" d="M73.62,-115.22C73.62,-104.33 73.62,-92.43 73.62,-84.32"/>
<polygon fill="#63b8ff" stroke="#63b8ff" points="70.13,-115 73.62,-125 77.13,-115 70.13,-115"/>
</g>
<!-- Node4&#45;&gt;Node3 -->
<g id="edge4" class="edge">
<title>Node4&#45;&gt;Node3</title>
<path fill="none" stroke="#63b8ff" d="M174.08,-121.26C147.63,-108.95 115.33,-93.91 94.61,-84.27"/>
<polygon fill="#63b8ff" stroke="#63b8ff" points="172.35,-124.78 182.89,-125.83 175.31,-118.44 172.35,-124.78"/>
</g>
<!-- Node6 -->
<g id="node6" class="node">
<title>Node6</title>
<g id="a_node6"><a xlink:href="../../d3/ddc/nullables_8hpp.html" target="_top" xlink:title=" ">
<polygon fill="white" stroke="#666666" points="688,-20.75 545.25,-20.75 545.25,0 688,0 688,-20.75"/>
<text text-anchor="middle" x="616.62" y="-7.25" font-family="Helvetica,sans-Serif" font-size="10.00">Simple&#45;Utility/nullables.hpp</text>
</a>
</g>
</g>
<!-- Node5&#45;&gt;Node6 -->
<g id="edge6" class="edge">
<title>Node5&#45;&gt;Node6</title>
<path fill="none" stroke="#63b8ff" d="M544.33,-138.27C429.83,-131.63 217.37,-115.95 194.62,-90.25 184.76,-79.1 184.68,-67.83 194.62,-56.75 217.55,-31.23 430.49,-18.82 544.82,-13.96"/>
<polygon fill="#63b8ff" stroke="#63b8ff" points="543.91,-141.81 554.09,-138.89 544.31,-134.82 543.91,-141.81"/>
</g>
<!-- Node7 -->
<g id="node7" class="node">
<title>Node7</title>
<g id="a_node7"><a xlink:href="../../d6/dca/adapter_8hpp.html" target="_top" xlink:title=" ">
<polygon fill="white" stroke="#666666" points="325.88,-90.25 203.38,-90.25 203.38,-56.75 325.88,-56.75 325.88,-90.25"/>
<text text-anchor="start" x="211.38" y="-76.75" font-family="Helvetica,sans-Serif" font-size="10.00">Simple&#45;Utility/nullables</text>
<text text-anchor="middle" x="264.62" y="-64" font-family="Helvetica,sans-Serif" font-size="10.00">/adapter.hpp</text>
</a>
</g>
</g>
<!-- Node5&#45;&gt;Node7 -->
<g id="edge7" class="edge">
<title>Node5&#45;&gt;Node7</title>
<path fill="none" stroke="#63b8ff" d="M544.43,-129.45C487.59,-119.38 406.41,-104.62 335.62,-90.25 332.53,-89.62 329.37,-88.97 326.17,-88.3"/>
<polygon fill="#63b8ff" stroke="#63b8ff" points="543.65,-133.04 554.11,-131.33 544.87,-126.15 543.65,-133.04"/>
</g>
<!-- Node8 -->
<g id="node8" class="node">
<title>Node8</title>
<g id="a_node8"><a xlink:href="../../d4/dc9/and__then_8hpp.html" target="_top" xlink:title=" ">
<polygon fill="white" stroke="#666666" points="466.88,-90.25 344.38,-90.25 344.38,-56.75 466.88,-56.75 466.88,-90.25"/>
<text text-anchor="start" x="352.38" y="-76.75" font-family="Helvetica,sans-Serif" font-size="10.00">Simple&#45;Utility/nullables</text>
<text text-anchor="middle" x="405.62" y="-64" font-family="Helvetica,sans-Serif" font-size="10.00">/and_then.hpp</text>
</a>
</g>
</g>
<!-- Node5&#45;&gt;Node8 -->
<g id="edge9" class="edge">
<title>Node5&#45;&gt;Node8</title>
<path fill="none" stroke="#63b8ff" d="M555.65,-122.49C524.09,-112.4 486.01,-100.22 456.12,-90.65"/>
<polygon fill="#63b8ff" stroke="#63b8ff" points="554.49,-126.12 565.09,-125.83 556.63,-119.45 554.49,-126.12"/>
</g>
<!-- Node9 -->
<g id="node9" class="node">
<title>Node9</title>
<g id="a_node9"><a xlink:href="../../d7/d5f/fwd__value_8hpp.html" target="_top" xlink:title=" ">
<polygon fill="white" stroke="#666666" points="607.88,-90.25 485.38,-90.25 485.38,-56.75 607.88,-56.75 607.88,-90.25"/>
<text text-anchor="start" x="493.38" y="-76.75" font-family="Helvetica,sans-Serif" font-size="10.00">Simple&#45;Utility/nullables</text>
<text text-anchor="middle" x="546.62" y="-64" font-family="Helvetica,sans-Serif" font-size="10.00">/fwd_value.hpp</text>
</a>
</g>
</g>
<!-- Node5&#45;&gt;Node9 -->
<g id="edge11" class="edge">
<title>Node5&#45;&gt;Node9</title>
<path fill="none" stroke="#63b8ff" d="M592.29,-118.53C582.64,-109.23 571.79,-98.77 563.09,-90.38"/>
<polygon fill="#63b8ff" stroke="#63b8ff" points="589.41,-120.58 599.04,-125 594.27,-115.54 589.41,-120.58"/>
</g>
<!-- Node10 -->
<g id="node10" class="node">
<title>Node10</title>
<g id="a_node10"><a xlink:href="../../d2/d0e/or__else_8hpp.html" target="_top" xlink:title=" ">
<polygon fill="white" stroke="#666666" points="748.88,-90.25 626.38,-90.25 626.38,-56.75 748.88,-56.75 748.88,-90.25"/>
<text text-anchor="start" x="634.38" y="-76.75" font-family="Helvetica,sans-Serif" font-size="10.00">Simple&#45;Utility/nullables</text>
<text text-anchor="middle" x="687.62" y="-64" font-family="Helvetica,sans-Serif" font-size="10.00">/or_else.hpp</text>
</a>
</g>
</g>
<!-- Node5&#45;&gt;Node10 -->
<g id="edge13" class="edge">
<title>Node5&#45;&gt;Node10</title>
<path fill="none" stroke="#63b8ff" d="M641.31,-118.53C651.1,-109.23 662.1,-98.77 670.92,-90.38"/>
<polygon fill="#63b8ff" stroke="#63b8ff" points="639.29,-115.58 634.45,-125 644.11,-120.65 639.29,-115.58"/>
</g>
<!-- Node11 -->
<g id="node11" class="node">
<title>Node11</title>
<g id="a_node11"><a xlink:href="../../d9/d20/std__optional_8hpp.html" target="_top" xlink:title=" ">
<polygon fill="white" stroke="#666666" points="889.88,-90.25 767.38,-90.25 767.38,-56.75 889.88,-56.75 889.88,-90.25"/>
<text text-anchor="start" x="775.38" y="-76.75" font-family="Helvetica,sans-Serif" font-size="10.00">Simple&#45;Utility/nullables</text>
<text text-anchor="middle" x="828.62" y="-64" font-family="Helvetica,sans-Serif" font-size="10.00">/std_optional.hpp</text>
</a>
</g>
</g>
<!-- Node5&#45;&gt;Node11 -->
<g id="edge15" class="edge">
<title>Node5&#45;&gt;Node11</title>
<path fill="none" stroke="#63b8ff" d="M677.47,-122.63C709.27,-112.5 747.73,-100.26 777.89,-90.65"/>
<polygon fill="#63b8ff" stroke="#63b8ff" points="676.87,-119.46 668.4,-125.83 678.99,-126.13 676.87,-119.46"/>
</g>
<!-- Node12 -->
<g id="node12" class="node">
<title>Node12</title>
<g id="a_node12"><a xlink:href="../../d8/d9a/std__pointers_8hpp.html" target="_top" xlink:title=" ">
<polygon fill="white" stroke="#666666" points="1030.88,-90.25 908.38,-90.25 908.38,-56.75 1030.88,-56.75 1030.88,-90.25"/>
<text text-anchor="start" x="916.38" y="-76.75" font-family="Helvetica,sans-Serif" font-size="10.00">Simple&#45;Utility/nullables</text>
<text text-anchor="middle" x="969.62" y="-64" font-family="Helvetica,sans-Serif" font-size="10.00">/std_pointers.hpp</text>
</a>
</g>
</g>
<!-- Node5&#45;&gt;Node12 -->
<g id="edge17" class="edge">
<title>Node5&#45;&gt;Node12</title>
<path fill="none" stroke="#63b8ff" d="M689.08,-129.46C746.12,-119.41 827.59,-104.64 898.62,-90.25 901.72,-89.62 904.89,-88.97 908.08,-88.3"/>
<polygon fill="#63b8ff" stroke="#63b8ff" points="688.61,-126.17 679.36,-131.34 689.82,-133.06 688.61,-126.17"/>
</g>
<!-- Node13 -->
<g id="node13" class="node">
<title>Node13</title>
<g id="a_node13"><a xlink:href="../../d0/d48/value__or_8hpp.html" target="_top" xlink:title=" ">
<polygon fill="white" stroke="#666666" points="1171.88,-90.25 1049.38,-90.25 1049.38,-56.75 1171.88,-56.75 1171.88,-90.25"/>
<text text-anchor="start" x="1057.38" y="-76.75" font-family="Helvetica,sans-Serif" font-size="10.00">Simple&#45;Utility/nullables</text>
<text text-anchor="middle" x="1110.62" y="-64" font-family="Helvetica,sans-Serif" font-size="10.00">/value_or.hpp</text>
</a>
</g>
</g>
<!-- Node5&#45;&gt;Node13 -->
<g id="edge19" class="edge">
<title>Node5&#45;&gt;Node13</title>
<path fill="none" stroke="#63b8ff" d="M688.95,-135.3C773.42,-126.97 917.2,-111.27 1039.62,-90.25 1042.74,-89.72 1045.92,-89.14 1049.12,-88.52"/>
<polygon fill="#63b8ff" stroke="#63b8ff" points="688.8,-131.89 679.19,-136.35 689.48,-138.86 688.8,-131.89"/>
</g>
<!-- Node14 -->
<g id="node14" class="node">
<title>Node14</title>
<g id="a_node14"><a xlink:href="../../d0/d0f/unique__handle_8hpp.html" target="_top" xlink:title=" ">
<polygon fill="white" stroke="#666666" points="1301.25,-90.25 1190,-90.25 1190,-56.75 1301.25,-56.75 1301.25,-90.25"/>
<text text-anchor="start" x="1198" y="-76.75" font-family="Helvetica,sans-Serif" font-size="10.00">Simple&#45;Utility/unique</text>
<text text-anchor="middle" x="1245.62" y="-64" font-family="Helvetica,sans-Serif" font-size="10.00">_handle.hpp</text>
</a>
</g>
</g>
<!-- Node5&#45;&gt;Node14 -->
<g id="edge21" class="edge">
<title>Node5&#45;&gt;Node14</title>
<path fill="none" stroke="#63b8ff" d="M689.08,-138.75C796.86,-133.14 1005.49,-119.34 1180.62,-90.25 1183.6,-89.76 1186.65,-89.2 1189.71,-88.6"/>
<polygon fill="#63b8ff" stroke="#63b8ff" points="689.15,-135.29 679.34,-139.29 689.51,-142.28 689.15,-135.29"/>
</g>
<!-- Node7&#45;&gt;Node6 -->
<g id="edge8" class="edge">
<title>Node7&#45;&gt;Node6</title>
<path fill="none" stroke="#63b8ff" d="M336.72,-56.61C415.19,-41.76 494,-29.39 548.58,-21.23"/>
<polygon fill="#63b8ff" stroke="#63b8ff" points="336.32,-53.31 327.15,-58.62 337.63,-60.19 336.32,-53.31"/>
</g>
<!-- Node8&#45;&gt;Node6 -->
<g id="edge10" class="edge">
<title>Node8&#45;&gt;Node6</title>
<path fill="none" stroke="#63b8ff" d="M471.8,-53.33C508.66,-42.65 553,-29.81 582.83,-21.17"/>
<polygon fill="#63b8ff" stroke="#63b8ff" points="471.25,-50.14 462.62,-56.28 473.19,-56.86 471.25,-50.14"/>
</g>
<!-- Node9&#45;&gt;Node6 -->
<g id="edge12" class="edge">
<title>Node9&#45;&gt;Node6</title>
<path fill="none" stroke="#63b8ff" d="M573.21,-49.28C584.35,-39.56 596.69,-28.79 605.35,-21.22"/>
<polygon fill="#63b8ff" stroke="#63b8ff" points="571.25,-47.23 566.02,-56.44 575.85,-52.5 571.25,-47.23"/>
</g>
<!-- Node10&#45;&gt;Node6 -->
<g id="edge14" class="edge">
<title>Node10&#45;&gt;Node6</title>
<path fill="none" stroke="#63b8ff" d="M660.66,-49.28C649.37,-39.56 636.85,-28.79 628.06,-21.22"/>
<polygon fill="#63b8ff" stroke="#63b8ff" points="658.11,-52.57 667.97,-56.44 662.68,-47.26 658.11,-52.57"/>
</g>
<!-- Node11&#45;&gt;Node6 -->
<g id="edge16" class="edge">
<title>Node11&#45;&gt;Node6</title>
<path fill="none" stroke="#63b8ff" d="M762.14,-53.33C725.1,-42.65 680.55,-29.81 650.58,-21.17"/>
<polygon fill="#63b8ff" stroke="#63b8ff" points="760.79,-56.87 771.37,-56.28 762.73,-50.15 760.79,-56.87"/>
</g>
<!-- Node12&#45;&gt;Node6 -->
<g id="edge18" class="edge">
<title>Node12&#45;&gt;Node6</title>
<path fill="none" stroke="#63b8ff" d="M897.5,-56.6C818.78,-41.73 739.69,-29.37 684.91,-21.21"/>
<polygon fill="#63b8ff" stroke="#63b8ff" points="896.62,-60.19 907.1,-58.62 897.93,-53.31 896.62,-60.19"/>
</g>
<!-- Node13&#45;&gt;Node6 -->
<g id="edge20" class="edge">
<title>Node13&#45;&gt;Node6</title>
<path fill="none" stroke="#63b8ff" d="M1038.66,-56.71C909.44,-35.94 770.62,-23.18 688.43,-16.62"/>
<polygon fill="#63b8ff" stroke="#63b8ff" points="1037.7,-60.27 1048.13,-58.42 1038.83,-53.36 1037.7,-60.27"/>
</g>
</g>
</svg>
