<?xml version="1.0" encoding="UTF-8" standalone="no"?>
<!DOCTYPE svg PUBLIC "-//W3C//DTD SVG 1.1//EN"
 "http://www.w3.org/Graphics/SVG/1.1/DTD/svg11.dtd">
<!-- Generated by graphviz version 7.0.5 (20221223.1930)
 -->
<!-- Title: Simple&#45;Utility/nullables.hpp Pages: 1 -->
<svg width="1087pt" height="412pt"
 viewBox="0.00 0.00 1086.97 412.00" xmlns="http://www.w3.org/2000/svg" xmlns:xlink="http://www.w3.org/1999/xlink">
<g id="graph0" class="graph" transform="scale(1 1) rotate(0) translate(4 408)">
<title>Simple&#45;Utility/nullables.hpp</title>
<!-- Node1 -->
<g id="node1" class="node">
<title>Node1</title>
<g id="a_node1"><a xlink:title=" ">
<polygon fill="#999999" stroke="#666666" points="671.97,-404 528.97,-404 528.97,-385 671.97,-385 671.97,-404"/>
<text text-anchor="middle" x="600.47" y="-392" font-family="Helvetica,sans-Serif" font-size="10.00">Simple&#45;Utility/nullables.hpp</text>
</a>
</g>
</g>
<!-- Node2 -->
<g id="node2" class="node">
<title>Node2</title>
<g id="a_node2"><a xlink:href="../../d6/dbe/nullables_2base_8hpp.html" target="_top" xlink:title=" ">
<polygon fill="white" stroke="#666666" points="615.97,-283 492.97,-283 492.97,-253 615.97,-253 615.97,-283"/>
<text text-anchor="start" x="500.97" y="-271" font-family="Helvetica,sans-Serif" font-size="10.00">Simple&#45;Utility/nullables</text>
<text text-anchor="middle" x="554.47" y="-260" font-family="Helvetica,sans-Serif" font-size="10.00">/base.hpp</text>
</a>
</g>
</g>
<!-- Node1&#45;&gt;Node2 -->
<g id="edge1" class="edge">
<title>Node1&#45;&gt;Node2</title>
<path fill="none" stroke="#63b8ff" d="M607.68,-384.89C618.67,-370.65 637.16,-341.52 625.47,-319 619.13,-306.77 608.26,-296.9 596.91,-289.26"/>
<polygon fill="#63b8ff" stroke="#63b8ff" points="598.99,-286.43 588.64,-284.16 595.32,-292.39 598.99,-286.43"/>
</g>
<!-- Node17 -->
<g id="node17" class="node">
<title>Node17</title>
<g id="a_node17"><a xlink:href="../../d6/dca/adapter_8hpp.html" target="_top" xlink:title=" ">
<polygon fill="white" stroke="#666666" points="796.97,-349 673.97,-349 673.97,-319 796.97,-319 796.97,-349"/>
<text text-anchor="start" x="681.97" y="-337" font-family="Helvetica,sans-Serif" font-size="10.00">Simple&#45;Utility/nullables</text>
<text text-anchor="middle" x="735.47" y="-326" font-family="Helvetica,sans-Serif" font-size="10.00">/adapter.hpp</text>
</a>
</g>
</g>
<!-- Node1&#45;&gt;Node17 -->
<g id="edge27" class="edge">
<title>Node1&#45;&gt;Node17</title>
<path fill="none" stroke="#63b8ff" d="M620.98,-384.62C639.66,-376.52 667.86,-364.3 691.61,-354.01"/>
<polygon fill="#63b8ff" stroke="#63b8ff" points="692.98,-357.23 700.76,-350.04 690.2,-350.81 692.98,-357.23"/>
</g>
<!-- Node20 -->
<g id="node20" class="node">
<title>Node20</title>
<g id="a_node20"><a xlink:href="../../d4/dc9/and__then_8hpp.html" target="_top" xlink:title=" ">
<polygon fill="white" stroke="#666666" points="475.97,-349 352.97,-349 352.97,-319 475.97,-319 475.97,-349"/>
<text text-anchor="start" x="360.97" y="-337" font-family="Helvetica,sans-Serif" font-size="10.00">Simple&#45;Utility/nullables</text>
<text text-anchor="middle" x="414.47" y="-326" font-family="Helvetica,sans-Serif" font-size="10.00">/and_then.hpp</text>
</a>
</g>
</g>
<!-- Node1&#45;&gt;Node20 -->
<g id="edge33" class="edge">
<title>Node1&#45;&gt;Node20</title>
<path fill="none" stroke="#63b8ff" d="M572.23,-384.62C545.45,-376.19 504.45,-363.3 470.97,-352.77"/>
<polygon fill="#63b8ff" stroke="#63b8ff" points="472.42,-349.56 461.83,-349.89 470.32,-356.23 472.42,-349.56"/>
</g>
<!-- Node23 -->
<g id="node23" class="node">
<title>Node23</title>
<g id="a_node23"><a xlink:href="../../d7/d5f/fwd__value_8hpp.html" target="_top" xlink:title=" ">
<polygon fill="white" stroke="#666666" points="616.97,-349 493.97,-349 493.97,-319 616.97,-319 616.97,-349"/>
<text text-anchor="start" x="501.97" y="-337" font-family="Helvetica,sans-Serif" font-size="10.00">Simple&#45;Utility/nullables</text>
<text text-anchor="middle" x="555.47" y="-326" font-family="Helvetica,sans-Serif" font-size="10.00">/fwd_value.hpp</text>
</a>
</g>
</g>
<!-- Node1&#45;&gt;Node23 -->
<g id="edge42" class="edge">
<title>Node1&#45;&gt;Node23</title>
<path fill="none" stroke="#63b8ff" d="M593.83,-384.87C588.41,-377.81 580.47,-367.5 573.23,-358.08"/>
<polygon fill="#63b8ff" stroke="#63b8ff" points="576.13,-356.11 567.25,-350.31 570.58,-360.37 576.13,-356.11"/>
</g>
<!-- Node24 -->
<g id="node24" class="node">
<title>Node24</title>
<g id="a_node24"><a xlink:href="../../d2/d0e/or__else_8hpp.html" target="_top" xlink:title=" ">
<polygon fill="white" stroke="#666666" points="334.97,-349 211.97,-349 211.97,-319 334.97,-319 334.97,-349"/>
<text text-anchor="start" x="219.97" y="-337" font-family="Helvetica,sans-Serif" font-size="10.00">Simple&#45;Utility/nullables</text>
<text text-anchor="middle" x="273.47" y="-326" font-family="Helvetica,sans-Serif" font-size="10.00">/or_else.hpp</text>
</a>
</g>
</g>
<!-- Node1&#45;&gt;Node24 -->
<g id="edge45" class="edge">
<title>Node1&#45;&gt;Node24</title>
<path fill="none" stroke="#63b8ff" d="M546.25,-384.53C496.63,-376.23 420.88,-363.32 346.29,-349.5"/>
<polygon fill="#63b8ff" stroke="#63b8ff" points="347.25,-346.12 336.78,-347.73 345.97,-353 347.25,-346.12"/>
</g>
<!-- Node25 -->
<g id="node25" class="node">
<title>Node25</title>
<g id="a_node25"><a xlink:href="../../d0/d48/value__or_8hpp.html" target="_top" xlink:title=" ">
<polygon fill="white" stroke="#666666" points="193.97,-349 70.97,-349 70.97,-319 193.97,-319 193.97,-349"/>
<text text-anchor="start" x="78.97" y="-337" font-family="Helvetica,sans-Serif" font-size="10.00">Simple&#45;Utility/nullables</text>
<text text-anchor="middle" x="132.47" y="-326" font-family="Helvetica,sans-Serif" font-size="10.00">/value_or.hpp</text>
</a>
</g>
</g>
<!-- Node1&#45;&gt;Node25 -->
<g id="edge48" class="edge">
<title>Node1&#45;&gt;Node25</title>
<path fill="none" stroke="#63b8ff" d="M528.69,-387.35C451.22,-380.29 324,-367.47 205.35,-349.37"/>
<polygon fill="#63b8ff" stroke="#63b8ff" points="206.17,-345.95 195.76,-347.89 205.1,-352.87 206.17,-345.95"/>
</g>
<!-- Node27 -->
<g id="node27" class="node">
<title>Node27</title>
<g id="a_node27"><a xlink:href="../../d9/d20/std__optional_8hpp.html" target="_top" xlink:title=" ">
<polygon fill="white" stroke="#666666" points="937.97,-349 814.97,-349 814.97,-319 937.97,-319 937.97,-349"/>
<text text-anchor="start" x="822.97" y="-337" font-family="Helvetica,sans-Serif" font-size="10.00">Simple&#45;Utility/nullables</text>
<text text-anchor="middle" x="876.47" y="-326" font-family="Helvetica,sans-Serif" font-size="10.00">/std_optional.hpp</text>
</a>
</g>
</g>
<!-- Node1&#45;&gt;Node27 -->
<g id="edge58" class="edge">
<title>Node1&#45;&gt;Node27</title>
<path fill="none" stroke="#63b8ff" d="M642.69,-384.55C685.39,-375.5 752.23,-361.33 803.52,-350.46"/>
<polygon fill="#63b8ff" stroke="#63b8ff" points="804.01,-353.94 813.06,-348.44 802.56,-347.09 804.01,-353.94"/>
</g>
<!-- Node29 -->
<g id="node29" class="node">
<title>Node29</title>
<g id="a_node29"><a xlink:href="../../d8/d9a/std__pointers_8hpp.html" target="_top" xlink:title=" ">
<polygon fill="white" stroke="#666666" points="1078.97,-349 955.97,-349 955.97,-319 1078.97,-319 1078.97,-349"/>
<text text-anchor="start" x="963.97" y="-337" font-family="Helvetica,sans-Serif" font-size="10.00">Simple&#45;Utility/nullables</text>
<text text-anchor="middle" x="1017.47" y="-326" font-family="Helvetica,sans-Serif" font-size="10.00">/std_pointers.hpp</text>
</a>
</g>
</g>
<!-- Node1&#45;&gt;Node29 -->
<g id="edge61" class="edge">
<title>Node1&#45;&gt;Node29</title>
<path fill="none" stroke="#63b8ff" d="M672.46,-385.75C740.25,-378.12 844.88,-365.48 944.5,-349.42"/>
<polygon fill="#63b8ff" stroke="#63b8ff" points="944.88,-352.91 954.19,-347.85 943.75,-346 944.88,-352.91"/>
</g>
<!-- Node3 -->
<g id="node3" class="node">
<title>Node3</title>
<g id="a_node3"><a xlink:href="../../dd/d5c/stl__extensions_8hpp.html" target="_top" xlink:title=" ">
<polygon fill="white" stroke="#666666" points="956.47,-85 834.47,-85 834.47,-55 956.47,-55 956.47,-85"/>
<text text-anchor="start" x="842.47" y="-73" font-family="Helvetica,sans-Serif" font-size="10.00">Simple&#45;Utility/concepts</text>
<text text-anchor="middle" x="895.47" y="-62" font-family="Helvetica,sans-Serif" font-size="10.00">/stl_extensions.hpp</text>
</a>
</g>
</g>
<!-- Node2&#45;&gt;Node3 -->
<g id="edge2" class="edge">
<title>Node2&#45;&gt;Node3</title>
<path fill="none" stroke="#63b8ff" d="M564.58,-252.9C586.33,-223.63 640.63,-156.09 702.47,-121 723.19,-109.24 777.43,-95.68 823.15,-85.64"/>
<polygon fill="#63b8ff" stroke="#63b8ff" points="823.75,-89.09 832.79,-83.55 822.27,-82.25 823.75,-89.09"/>
</g>
<!-- Node5 -->
<g id="node5" class="node">
<title>Node5</title>
<g id="a_node5"><a xlink:href="../../dd/dcd/operators_8hpp.html" target="_top" xlink:title=" ">
<polygon fill="white" stroke="#666666" points="833.47,-151 711.47,-151 711.47,-121 833.47,-121 833.47,-151"/>
<text text-anchor="start" x="719.47" y="-139" font-family="Helvetica,sans-Serif" font-size="10.00">Simple&#45;Utility/concepts</text>
<text text-anchor="middle" x="772.47" y="-128" font-family="Helvetica,sans-Serif" font-size="10.00">/operators.hpp</text>
</a>
</g>
</g>
<!-- Node2&#45;&gt;Node5 -->
<g id="edge4" class="edge">
<title>Node2&#45;&gt;Node5</title>
<path fill="none" stroke="#63b8ff" d="M578.64,-252.59C617.51,-229.41 694.07,-183.76 738.45,-157.29"/>
<polygon fill="#63b8ff" stroke="#63b8ff" points="740.11,-160.38 746.9,-152.25 736.52,-154.36 740.11,-160.38"/>
</g>
<!-- Node6 -->
<g id="node6" class="node">
<title>Node6</title>
<g id="a_node6"><a xlink:href="../../d1/d76/functional_2base_8hpp.html" target="_top" xlink:title=" ">
<polygon fill="white" stroke="#666666" points="540.47,-151 412.47,-151 412.47,-121 540.47,-121 540.47,-151"/>
<text text-anchor="start" x="420.47" y="-139" font-family="Helvetica,sans-Serif" font-size="10.00">Simple&#45;Utility/functional</text>
<text text-anchor="middle" x="476.47" y="-128" font-family="Helvetica,sans-Serif" font-size="10.00">/base.hpp</text>
</a>
</g>
</g>
<!-- Node2&#45;&gt;Node6 -->
<g id="edge6" class="edge">
<title>Node2&#45;&gt;Node6</title>
<path fill="none" stroke="#63b8ff" d="M544.29,-252.8C537.34,-242.91 528.05,-229.35 520.47,-217 509.3,-198.77 497.69,-177.55 489.2,-161.54"/>
<polygon fill="#63b8ff" stroke="#63b8ff" points="492.32,-159.96 484.57,-152.73 486.12,-163.21 492.32,-159.96"/>
</g>
<!-- Node8 -->
<g id="node8" class="node">
<title>Node8</title>
<g id="a_node8"><a xlink:title=" ">
<polygon fill="#e0e0e0" stroke="#999999" points="111.97,-19 46.97,-19 46.97,0 111.97,0 111.97,-19"/>
<text text-anchor="middle" x="79.47" y="-7" font-family="Helvetica,sans-Serif" font-size="10.00">type_traits</text>
</a>
</g>
</g>
<!-- Node2&#45;&gt;Node8 -->
<g id="edge26" class="edge">
<title>Node2&#45;&gt;Node8</title>
<path fill="none" stroke="#63b8ff" d="M492.86,-261.08C376.98,-249.78 136.75,-225.52 120.47,-217 51.28,-180.78 32.02,-158.08 4.47,-85 -0.23,-72.52 -2.12,-66.59 4.47,-55 12.36,-41.16 26.42,-31.18 40.26,-24.23"/>
<polygon fill="#63b8ff" stroke="#63b8ff" points="41.66,-27.44 49.31,-20.11 38.76,-21.06 41.66,-27.44"/>
</g>
<!-- Node10 -->
<g id="node10" class="node">
<title>Node10</title>
<g id="a_node10"><a xlink:href="../../d4/d1c/unified__base_8hpp.html" target="_top" xlink:title=" ">
<polygon fill="white" stroke="#666666" points="135.97,-85 22.97,-85 22.97,-55 135.97,-55 135.97,-85"/>
<text text-anchor="start" x="30.97" y="-73" font-family="Helvetica,sans-Serif" font-size="10.00">Simple&#45;Utility/unified</text>
<text text-anchor="middle" x="79.47" y="-62" font-family="Helvetica,sans-Serif" font-size="10.00">_base.hpp</text>
</a>
</g>
</g>
<!-- Node2&#45;&gt;Node10 -->
<g id="edge24" class="edge">
<title>Node2&#45;&gt;Node10</title>
<path fill="none" stroke="#63b8ff" d="M492.54,-260.84C383.21,-249.76 166.18,-226.69 152.47,-217 111.67,-188.15 92.44,-129.77 84.43,-96.23"/>
<polygon fill="#63b8ff" stroke="#63b8ff" points="87.87,-95.58 82.29,-86.58 81.03,-97.1 87.87,-95.58"/>
</g>
<!-- Node12 -->
<g id="node12" class="node">
<title>Node12</title>
<g id="a_node12"><a xlink:href="../../d9/d76/bind_8hpp.html" target="_top" xlink:title=" ">
<polygon fill="white" stroke="#666666" points="435.47,-217 307.47,-217 307.47,-187 435.47,-187 435.47,-217"/>
<text text-anchor="start" x="315.47" y="-205" font-family="Helvetica,sans-Serif" font-size="10.00">Simple&#45;Utility/functional</text>
<text text-anchor="middle" x="371.47" y="-194" font-family="Helvetica,sans-Serif" font-size="10.00">/operators/bind.hpp</text>
</a>
</g>
</g>
<!-- Node2&#45;&gt;Node12 -->
<g id="edge17" class="edge">
<title>Node2&#45;&gt;Node12</title>
<path fill="none" stroke="#63b8ff" d="M513.41,-252.64C486.77,-243.32 451.86,-231.11 423.32,-221.13"/>
<polygon fill="#63b8ff" stroke="#63b8ff" points="424.75,-217.92 414.15,-217.93 422.44,-224.53 424.75,-217.92"/>
</g>
<!-- Node16 -->
<g id="node16" class="node">
<title>Node16</title>
<g id="a_node16"><a xlink:title=" ">
<polygon fill="#e0e0e0" stroke="#999999" points="579.47,-211.5 529.47,-211.5 529.47,-192.5 579.47,-192.5 579.47,-211.5"/>
<text text-anchor="middle" x="554.47" y="-199.5" font-family="Helvetica,sans-Serif" font-size="10.00">cstddef</text>
</a>
</g>
</g>
<!-- Node2&#45;&gt;Node16 -->
<g id="edge25" class="edge">
<title>Node2&#45;&gt;Node16</title>
<path fill="none" stroke="#63b8ff" d="M554.47,-252.8C554.47,-244.09 554.47,-232.81 554.47,-223.18"/>
<polygon fill="#63b8ff" stroke="#63b8ff" points="557.97,-223.36 554.47,-213.36 550.97,-223.36 557.97,-223.36"/>
</g>
<!-- Node4 -->
<g id="node4" class="node">
<title>Node4</title>
<g id="a_node4"><a xlink:title=" ">
<polygon fill="#e0e0e0" stroke="#999999" points="694.97,-19 637.97,-19 637.97,0 694.97,0 694.97,-19"/>
<text text-anchor="middle" x="666.47" y="-7" font-family="Helvetica,sans-Serif" font-size="10.00">concepts</text>
</a>
</g>
</g>
<!-- Node3&#45;&gt;Node4 -->
<g id="edge3" class="edge">
<title>Node3&#45;&gt;Node4</title>
<path fill="none" stroke="#63b8ff" d="M838.87,-54.54C797.58,-43.99 742.66,-29.96 706.01,-20.6"/>
<polygon fill="#63b8ff" stroke="#63b8ff" points="707.28,-17.31 696.73,-18.23 705.55,-24.09 707.28,-17.31"/>
</g>
<!-- Node5&#45;&gt;Node4 -->
<g id="edge5" class="edge">
<title>Node5&#45;&gt;Node4</title>
<path fill="none" stroke="#63b8ff" d="M833.72,-130.14C904.5,-122.24 1006.33,-102.39 965.47,-55 932.5,-16.75 780.12,-10.86 706.5,-10.29"/>
<polygon fill="#63b8ff" stroke="#63b8ff" points="706.92,-6.8 696.91,-10.25 706.89,-13.8 706.92,-6.8"/>
</g>
<!-- Node6&#45;&gt;Node3 -->
<g id="edge14" class="edge">
<title>Node6&#45;&gt;Node3</title>
<path fill="none" stroke="#63b8ff" d="M540.96,-126.84C608.73,-118.03 718.7,-103.04 823,-85.37"/>
<polygon fill="#63b8ff" stroke="#63b8ff" points="823.29,-88.87 832.56,-83.74 822.11,-81.97 823.29,-88.87"/>
</g>
<!-- Node6&#45;&gt;Node4 -->
<g id="edge7" class="edge">
<title>Node6&#45;&gt;Node4</title>
<path fill="none" stroke="#63b8ff" d="M540.93,-131.42C576.89,-126.07 619.86,-113.59 647.47,-85 661.51,-70.46 665.59,-47.06 666.58,-30.37"/>
<polygon fill="#63b8ff" stroke="#63b8ff" points="670.07,-30.76 666.81,-20.68 663.08,-30.59 670.07,-30.76"/>
</g>
<!-- Node7 -->
<g id="node7" class="node">
<title>Node7</title>
<g id="a_node7"><a xlink:title=" ">
<polygon fill="#e0e0e0" stroke="#999999" points="448.47,-79.5 386.47,-79.5 386.47,-60.5 448.47,-60.5 448.47,-79.5"/>
<text text-anchor="middle" x="417.47" y="-67.5" font-family="Helvetica,sans-Serif" font-size="10.00">functional</text>
</a>
</g>
</g>
<!-- Node6&#45;&gt;Node7 -->
<g id="edge8" class="edge">
<title>Node6&#45;&gt;Node7</title>
<path fill="none" stroke="#63b8ff" d="M463.38,-120.8C454.45,-111.11 442.59,-98.24 433.15,-88.01"/>
<polygon fill="#63b8ff" stroke="#63b8ff" points="436.01,-85.94 426.65,-80.96 430.86,-90.68 436.01,-85.94"/>
</g>
<!-- Node6&#45;&gt;Node8 -->
<g id="edge9" class="edge">
<title>Node6&#45;&gt;Node8</title>
<path fill="none" stroke="#63b8ff" d="M477.59,-120.72C478.14,-102.54 476.03,-71.52 457.47,-55 432.92,-33.14 218.15,-18.38 123.71,-12.89"/>
<polygon fill="#63b8ff" stroke="#63b8ff" points="123.97,-9.4 113.79,-12.32 123.57,-16.38 123.97,-9.4"/>
</g>
<!-- Node9 -->
<g id="node9" class="node">
<title>Node9</title>
<g id="a_node9"><a xlink:href="../../d8/dd2/_config_8hpp.html" target="_top" xlink:title=" ">
<polygon fill="white" stroke="#666666" points="637.97,-79.5 504.97,-79.5 504.97,-60.5 637.97,-60.5 637.97,-79.5"/>
<text text-anchor="middle" x="571.47" y="-67.5" font-family="Helvetica,sans-Serif" font-size="10.00">Simple&#45;Utility/Config.hpp</text>
</a>
</g>
</g>
<!-- Node6&#45;&gt;Node9 -->
<g id="edge10" class="edge">
<title>Node6&#45;&gt;Node9</title>
<path fill="none" stroke="#63b8ff" d="M497.56,-120.8C512.8,-110.53 533.37,-96.67 548.94,-86.18"/>
<polygon fill="#63b8ff" stroke="#63b8ff" points="550.75,-89.18 557.09,-80.69 546.84,-83.37 550.75,-89.18"/>
</g>
<!-- Node6&#45;&gt;Node10 -->
<g id="edge11" class="edge">
<title>Node6&#45;&gt;Node10</title>
<path fill="none" stroke="#63b8ff" d="M412.38,-123.83C406.66,-122.87 400.97,-121.91 395.47,-121 310.05,-106.86 211.49,-91.4 147.46,-81.47"/>
<polygon fill="#63b8ff" stroke="#63b8ff" points="148.23,-78.05 137.81,-79.98 147.15,-84.97 148.23,-78.05"/>
</g>
<!-- Node11 -->
<g id="node11" class="node">
<title>Node11</title>
<g id="a_node11"><a xlink:href="../../d5/d8e/concepts_2utility_8hpp.html" target="_top" xlink:title=" ">
<polygon fill="white" stroke="#666666" points="816.47,-85 694.47,-85 694.47,-55 816.47,-55 816.47,-85"/>
<text text-anchor="start" x="702.47" y="-73" font-family="Helvetica,sans-Serif" font-size="10.00">Simple&#45;Utility/concepts</text>
<text text-anchor="middle" x="755.47" y="-62" font-family="Helvetica,sans-Serif" font-size="10.00">/utility.hpp</text>
</a>
</g>
</g>
<!-- Node6&#45;&gt;Node11 -->
<g id="edge15" class="edge">
<title>Node6&#45;&gt;Node11</title>
<path fill="none" stroke="#63b8ff" d="M539.44,-120.56C582.11,-110.77 638.62,-97.81 683.14,-87.59"/>
<polygon fill="#63b8ff" stroke="#63b8ff" points="683.74,-91.05 692.71,-85.4 682.18,-84.22 683.74,-91.05"/>
</g>
<!-- Node10&#45;&gt;Node4 -->
<g id="edge12" class="edge">
<title>Node10&#45;&gt;Node4</title>
<path fill="none" stroke="#63b8ff" d="M136.35,-57.22C141.12,-56.41 145.87,-55.65 150.47,-55 326.7,-30.1 538.9,-17.1 626.08,-12.49"/>
<polygon fill="#63b8ff" stroke="#63b8ff" points="626.22,-15.98 636.03,-11.97 625.86,-8.99 626.22,-15.98"/>
</g>
<!-- Node10&#45;&gt;Node8 -->
<g id="edge13" class="edge">
<title>Node10&#45;&gt;Node8</title>
<path fill="none" stroke="#63b8ff" d="M79.47,-54.54C79.47,-47.34 79.47,-38.53 79.47,-30.68"/>
<polygon fill="#63b8ff" stroke="#63b8ff" points="82.97,-30.69 79.47,-20.69 75.97,-30.69 82.97,-30.69"/>
</g>
<!-- Node11&#45;&gt;Node4 -->
<g id="edge16" class="edge">
<title>Node11&#45;&gt;Node4</title>
<path fill="none" stroke="#63b8ff" d="M733.47,-54.54C720.1,-45.75 703.05,-34.54 689.5,-25.63"/>
<polygon fill="#63b8ff" stroke="#63b8ff" points="691.48,-22.75 681.2,-20.18 687.63,-28.6 691.48,-22.75"/>
</g>
<!-- Node12&#45;&gt;Node6 -->
<g id="edge18" class="edge">
<title>Node12&#45;&gt;Node6</title>
<path fill="none" stroke="#63b8ff" d="M395.04,-186.64C409.36,-177.91 427.86,-166.63 443.6,-157.04"/>
<polygon fill="#63b8ff" stroke="#63b8ff" points="444.98,-160.3 451.7,-152.1 441.34,-154.32 444.98,-160.3"/>
</g>
<!-- Node13 -->
<g id="node13" class="node">
<title>Node13</title>
<g id="a_node13"><a xlink:href="../../d2/d30/general_8hpp.html" target="_top" xlink:title=" ">
<polygon fill="white" stroke="#666666" points="265.97,-151 160.97,-151 160.97,-121 265.97,-121 265.97,-151"/>
<text text-anchor="start" x="168.97" y="-139" font-family="Helvetica,sans-Serif" font-size="10.00">Simple&#45;Utility/tuple</text>
<text text-anchor="middle" x="213.47" y="-128" font-family="Helvetica,sans-Serif" font-size="10.00">/general.hpp</text>
</a>
</g>
</g>
<!-- Node12&#45;&gt;Node13 -->
<g id="edge19" class="edge">
<title>Node12&#45;&gt;Node13</title>
<path fill="none" stroke="#63b8ff" d="M336.02,-186.64C313.43,-177.49 283.93,-165.54 259.54,-155.66"/>
<polygon fill="#63b8ff" stroke="#63b8ff" points="261.07,-152.5 250.49,-151.99 258.44,-158.99 261.07,-152.5"/>
</g>
<!-- Node13&#45;&gt;Node4 -->
<g id="edge20" class="edge">
<title>Node13&#45;&gt;Node4</title>
<path fill="none" stroke="#63b8ff" d="M200.1,-120.6C185.51,-103.14 166.38,-73.74 183.47,-55 213.11,-22.51 515.97,-13.41 626.43,-11.17"/>
<polygon fill="#63b8ff" stroke="#63b8ff" points="626.28,-14.67 636.21,-10.98 626.14,-7.67 626.28,-14.67"/>
</g>
<!-- Node13&#45;&gt;Node8 -->
<g id="edge22" class="edge">
<title>Node13&#45;&gt;Node8</title>
<path fill="none" stroke="#63b8ff" d="M160.58,-129.1C107.6,-121.98 31.43,-107.99 13.47,-85 5.27,-74.49 7.21,-66.77 13.47,-55 20.54,-41.71 33.54,-31.68 46.14,-24.53"/>
<polygon fill="#63b8ff" stroke="#63b8ff" points="47.42,-27.81 54.7,-20.11 44.21,-21.59 47.42,-27.81"/>
</g>
<!-- Node14 -->
<g id="node14" class="node">
<title>Node14</title>
<g id="a_node14"><a xlink:title=" ">
<polygon fill="#e0e0e0" stroke="#999999" points="292.47,-79.5 252.47,-79.5 252.47,-60.5 292.47,-60.5 292.47,-79.5"/>
<text text-anchor="middle" x="272.47" y="-67.5" font-family="Helvetica,sans-Serif" font-size="10.00">tuple</text>
</a>
</g>
</g>
<!-- Node13&#45;&gt;Node14 -->
<g id="edge21" class="edge">
<title>Node13&#45;&gt;Node14</title>
<path fill="none" stroke="#63b8ff" d="M226.57,-120.8C235.5,-111.11 247.36,-98.24 256.79,-88.01"/>
<polygon fill="#63b8ff" stroke="#63b8ff" points="259.09,-90.68 263.3,-80.96 253.94,-85.94 259.09,-90.68"/>
</g>
<!-- Node15 -->
<g id="node15" class="node">
<title>Node15</title>
<g id="a_node15"><a xlink:title=" ">
<polygon fill="#e0e0e0" stroke="#999999" points="233.97,-79.5 192.97,-79.5 192.97,-60.5 233.97,-60.5 233.97,-79.5"/>
<text text-anchor="middle" x="213.47" y="-67.5" font-family="Helvetica,sans-Serif" font-size="10.00">utility</text>
</a>
</g>
</g>
<!-- Node13&#45;&gt;Node15 -->
<g id="edge23" class="edge">
<title>Node13&#45;&gt;Node15</title>
<path fill="none" stroke="#63b8ff" d="M213.47,-120.8C213.47,-112.09 213.47,-100.81 213.47,-91.18"/>
<polygon fill="#63b8ff" stroke="#63b8ff" points="216.97,-91.36 213.47,-81.36 209.97,-91.36 216.97,-91.36"/>
</g>
<!-- Node17&#45;&gt;Node2 -->
<g id="edge30" class="edge">
<title>Node17&#45;&gt;Node2</title>
<path fill="none" stroke="#63b8ff" d="M694.85,-318.64C668.63,-309.36 634.28,-297.22 606.12,-287.26"/>
<polygon fill="#63b8ff" stroke="#63b8ff" points="607.29,-283.96 596.7,-283.93 604.96,-290.56 607.29,-283.96"/>
</g>
<!-- Node17&#45;&gt;Node3 -->
<g id="edge29" class="edge">
<title>Node17&#45;&gt;Node3</title>
<path fill="none" stroke="#63b8ff" d="M782.42,-318.57C800.97,-310.73 821.03,-299.24 834.47,-283 880.16,-227.83 891.65,-140.11 894.53,-96.85"/>
<polygon fill="#63b8ff" stroke="#63b8ff" points="898.02,-97.1 895.07,-86.93 891.03,-96.72 898.02,-97.1"/>
</g>
<!-- Node17&#45;&gt;Node9 -->
<g id="edge28" class="edge">
<title>Node17&#45;&gt;Node9</title>
<path fill="none" stroke="#63b8ff" d="M725.83,-318.63C719.19,-308.68 710.2,-295.1 702.47,-283 657.11,-211.98 604.94,-126.31 582.59,-89.39"/>
<polygon fill="#63b8ff" stroke="#63b8ff" points="585.83,-87.99 577.65,-81.24 579.84,-91.61 585.83,-87.99"/>
</g>
<!-- Node18 -->
<g id="node18" class="node">
<title>Node18</title>
<g id="a_node18"><a xlink:title=" ">
<polygon fill="#e0e0e0" stroke="#999999" points="759.47,-277.5 711.47,-277.5 711.47,-258.5 759.47,-258.5 759.47,-277.5"/>
<text text-anchor="middle" x="735.47" y="-265.5" font-family="Helvetica,sans-Serif" font-size="10.00">cassert</text>
</a>
</g>
</g>
<!-- Node17&#45;&gt;Node18 -->
<g id="edge31" class="edge">
<title>Node17&#45;&gt;Node18</title>
<path fill="none" stroke="#63b8ff" d="M735.47,-318.8C735.47,-310.09 735.47,-298.81 735.47,-289.18"/>
<polygon fill="#63b8ff" stroke="#63b8ff" points="738.97,-289.36 735.47,-279.36 731.97,-289.36 738.97,-289.36"/>
</g>
<!-- Node19 -->
<g id="node19" class="node">
<title>Node19</title>
<g id="a_node19"><a xlink:title=" ">
<polygon fill="#e0e0e0" stroke="#999999" points="824.97,-277.5 777.97,-277.5 777.97,-258.5 824.97,-258.5 824.97,-277.5"/>
<text text-anchor="middle" x="801.47" y="-265.5" font-family="Helvetica,sans-Serif" font-size="10.00">ranges</text>
</a>
</g>
</g>
<!-- Node17&#45;&gt;Node19 -->
<g id="edge32" class="edge">
<title>Node17&#45;&gt;Node19</title>
<path fill="none" stroke="#63b8ff" d="M750.12,-318.8C760.21,-309.01 773.65,-295.98 784.25,-285.7"/>
<polygon fill="#63b8ff" stroke="#63b8ff" points="786.52,-288.37 791.27,-278.9 781.65,-283.35 786.52,-288.37"/>
</g>
<!-- Node20&#45;&gt;Node2 -->
<g id="edge34" class="edge">
<title>Node20&#45;&gt;Node2</title>
<path fill="none" stroke="#63b8ff" d="M445.89,-318.64C465.62,-309.62 491.29,-297.89 512.71,-288.09"/>
<polygon fill="#63b8ff" stroke="#63b8ff" points="514.14,-291.29 521.78,-283.94 511.23,-284.92 514.14,-291.29"/>
</g>
<!-- Node21 -->
<g id="node21" class="node">
<title>Node21</title>
<g id="a_node21"><a xlink:href="../../d6/deb/transform_8hpp.html" target="_top" xlink:title=" ">
<polygon fill="white" stroke="#666666" points="386.47,-283 258.47,-283 258.47,-253 386.47,-253 386.47,-283"/>
<text text-anchor="start" x="266.47" y="-271" font-family="Helvetica,sans-Serif" font-size="10.00">Simple&#45;Utility/functional</text>
<text text-anchor="middle" x="322.47" y="-260" font-family="Helvetica,sans-Serif" font-size="10.00">/transform.hpp</text>
</a>
</g>
</g>
<!-- Node20&#45;&gt;Node21 -->
<g id="edge35" class="edge">
<title>Node20&#45;&gt;Node21</title>
<path fill="none" stroke="#63b8ff" d="M394.06,-318.8C381.87,-310.32 366.18,-299.4 352.59,-289.95"/>
<polygon fill="#63b8ff" stroke="#63b8ff" points="354.6,-287.09 344.4,-284.25 350.61,-292.83 354.6,-287.09"/>
</g>
<!-- Node21&#45;&gt;Node6 -->
<g id="edge37" class="edge">
<title>Node21&#45;&gt;Node6</title>
<path fill="none" stroke="#63b8ff" d="M383.64,-252.6C405.11,-245 427.95,-233.66 444.47,-217 459.19,-202.16 467.38,-179.68 471.78,-162.32"/>
<polygon fill="#63b8ff" stroke="#63b8ff" points="475.15,-163.29 473.92,-152.76 468.32,-161.76 475.15,-163.29"/>
</g>
<!-- Node21&#45;&gt;Node10 -->
<g id="edge36" class="edge">
<title>Node21&#45;&gt;Node10</title>
<path fill="none" stroke="#63b8ff" d="M257.99,-263.11C192.13,-257.62 96.39,-244.97 73.47,-217 45.56,-182.92 58.28,-127.88 69.35,-96.01"/>
<polygon fill="#63b8ff" stroke="#63b8ff" points="72.56,-97.41 72.75,-86.82 66,-94.98 72.56,-97.41"/>
</g>
<!-- Node21&#45;&gt;Node12 -->
<g id="edge38" class="edge">
<title>Node21&#45;&gt;Node12</title>
<path fill="none" stroke="#63b8ff" d="M333.35,-252.8C339.31,-245.01 346.85,-235.16 353.65,-226.28"/>
<polygon fill="#63b8ff" stroke="#63b8ff" points="356.41,-228.43 359.71,-218.37 350.85,-224.18 356.41,-228.43"/>
</g>
<!-- Node22 -->
<g id="node22" class="node">
<title>Node22</title>
<g id="a_node22"><a xlink:href="../../d5/db7/pipe_8hpp.html" target="_top" xlink:title=" ">
<polygon fill="white" stroke="#666666" points="289.47,-217 161.47,-217 161.47,-187 289.47,-187 289.47,-217"/>
<text text-anchor="start" x="169.47" y="-205" font-family="Helvetica,sans-Serif" font-size="10.00">Simple&#45;Utility/functional</text>
<text text-anchor="middle" x="225.47" y="-194" font-family="Helvetica,sans-Serif" font-size="10.00">/operators/pipe.hpp</text>
</a>
</g>
</g>
<!-- Node21&#45;&gt;Node22 -->
<g id="edge39" class="edge">
<title>Node21&#45;&gt;Node22</title>
<path fill="none" stroke="#63b8ff" d="M300.95,-252.8C287.98,-244.24 271.23,-233.19 256.81,-223.68"/>
<polygon fill="#63b8ff" stroke="#63b8ff" points="258.82,-220.8 248.54,-218.22 254.96,-226.65 258.82,-220.8"/>
</g>
<!-- Node22&#45;&gt;Node6 -->
<g id="edge40" class="edge">
<title>Node22&#45;&gt;Node6</title>
<path fill="none" stroke="#63b8ff" d="M282.12,-186.56C319.78,-176.95 369.44,-164.29 409.13,-154.17"/>
<polygon fill="#63b8ff" stroke="#63b8ff" points="409.75,-157.63 418.57,-151.76 408.02,-150.84 409.75,-157.63"/>
</g>
<!-- Node22&#45;&gt;Node13 -->
<g id="edge41" class="edge">
<title>Node22&#45;&gt;Node13</title>
<path fill="none" stroke="#63b8ff" d="M222.81,-186.8C221.46,-179.59 219.78,-170.61 218.21,-162.27"/>
<polygon fill="#63b8ff" stroke="#63b8ff" points="221.69,-161.84 216.41,-152.65 214.81,-163.13 221.69,-161.84"/>
</g>
<!-- Node23&#45;&gt;Node2 -->
<g id="edge43" class="edge">
<title>Node23&#45;&gt;Node2</title>
<path fill="none" stroke="#63b8ff" d="M555.25,-318.8C555.14,-311.67 555,-302.82 554.87,-294.56"/>
<polygon fill="#63b8ff" stroke="#63b8ff" points="558.38,-294.62 554.72,-284.68 551.38,-294.73 558.38,-294.62"/>
</g>
<!-- Node23&#45;&gt;Node21 -->
<g id="edge44" class="edge">
<title>Node23&#45;&gt;Node21</title>
<path fill="none" stroke="#63b8ff" d="M502.89,-318.56C468.23,-309.04 422.62,-296.51 385.94,-286.43"/>
<polygon fill="#63b8ff" stroke="#63b8ff" points="386.89,-283.06 376.32,-283.79 385.04,-289.81 386.89,-283.06"/>
</g>
<!-- Node24&#45;&gt;Node2 -->
<g id="edge46" class="edge">
<title>Node24&#45;&gt;Node2</title>
<path fill="none" stroke="#63b8ff" d="M335.14,-318.95C378.42,-309.1 436.46,-295.88 481.97,-285.51"/>
<polygon fill="#63b8ff" stroke="#63b8ff" points="482.5,-288.98 491.48,-283.35 480.95,-282.16 482.5,-288.98"/>
</g>
<!-- Node24&#45;&gt;Node21 -->
<g id="edge47" class="edge">
<title>Node24&#45;&gt;Node21</title>
<path fill="none" stroke="#63b8ff" d="M284.35,-318.8C290.31,-311.01 297.85,-301.16 304.65,-292.28"/>
<polygon fill="#63b8ff" stroke="#63b8ff" points="307.41,-294.43 310.71,-284.37 301.85,-290.18 307.41,-294.43"/>
</g>
<!-- Node25&#45;&gt;Node2 -->
<g id="edge49" class="edge">
<title>Node25&#45;&gt;Node2</title>
<path fill="none" stroke="#63b8ff" d="M194.28,-320.44C197.04,-319.94 199.79,-319.46 202.47,-319 298.63,-302.57 410.22,-287.37 481.54,-278.14"/>
<polygon fill="#63b8ff" stroke="#63b8ff" points="481.66,-281.66 491.13,-276.91 480.77,-274.71 481.66,-281.66"/>
</g>
<!-- Node25&#45;&gt;Node21 -->
<g id="edge50" class="edge">
<title>Node25&#45;&gt;Node21</title>
<path fill="none" stroke="#63b8ff" d="M175.11,-318.64C202.89,-309.28 239.34,-297 269.04,-287"/>
<polygon fill="#63b8ff" stroke="#63b8ff" points="269.86,-290.42 278.21,-283.91 267.62,-283.78 269.86,-290.42"/>
</g>
<!-- Node26 -->
<g id="node26" class="node">
<title>Node26</title>
<g id="a_node26"><a xlink:href="../../d2/dc8/bind__back_8hpp.html" target="_top" xlink:title=" ">
<polygon fill="white" stroke="#666666" points="386.47,-151 284.47,-151 284.47,-121 386.47,-121 386.47,-151"/>
<text text-anchor="start" x="292.47" y="-139" font-family="Helvetica,sans-Serif" font-size="10.00">Simple&#45;Utility/bind</text>
<text text-anchor="middle" x="335.47" y="-128" font-family="Helvetica,sans-Serif" font-size="10.00">_back.hpp</text>
</a>
</g>
</g>
<!-- Node25&#45;&gt;Node26 -->
<g id="edge51" class="edge">
<title>Node25&#45;&gt;Node26</title>
<path fill="none" stroke="#63b8ff" d="M129.81,-318.91C125.25,-290.25 119.41,-224.7 152.47,-187 156.65,-182.24 221.79,-165.17 273.18,-152.29"/>
<polygon fill="#63b8ff" stroke="#63b8ff" points="273.92,-155.71 282.77,-149.89 272.22,-148.92 273.92,-155.71"/>
</g>
<!-- Node26&#45;&gt;Node4 -->
<g id="edge53" class="edge">
<title>Node26&#45;&gt;Node4</title>
<path fill="none" stroke="#63b8ff" d="M338.8,-120.52C343.84,-102.12 355.26,-70.86 377.47,-55 416.73,-26.97 556.92,-16.04 626.59,-12.26"/>
<polygon fill="#63b8ff" stroke="#63b8ff" points="626.62,-15.76 636.43,-11.75 626.26,-8.77 626.62,-15.76"/>
</g>
<!-- Node26&#45;&gt;Node7 -->
<g id="edge54" class="edge">
<title>Node26&#45;&gt;Node7</title>
<path fill="none" stroke="#63b8ff" d="M353.67,-120.8C366.58,-110.72 383.91,-97.19 397.25,-86.78"/>
<polygon fill="#63b8ff" stroke="#63b8ff" points="399.22,-89.69 404.95,-80.78 394.91,-84.17 399.22,-89.69"/>
</g>
<!-- Node26&#45;&gt;Node8 -->
<g id="edge56" class="edge">
<title>Node26&#45;&gt;Node8</title>
<path fill="none" stroke="#63b8ff" d="M333.51,-120.74C330.23,-102.58 321.84,-71.58 301.47,-55 274.67,-33.17 179.91,-20.33 123.22,-14.43"/>
<polygon fill="#63b8ff" stroke="#63b8ff" points="123.89,-10.98 113.59,-13.46 123.18,-17.95 123.89,-10.98"/>
</g>
<!-- Node26&#45;&gt;Node9 -->
<g id="edge52" class="edge">
<title>Node26&#45;&gt;Node9</title>
<path fill="none" stroke="#63b8ff" d="M386.97,-121.03C429.03,-109.63 487.83,-93.68 527.66,-82.88"/>
<polygon fill="#63b8ff" stroke="#63b8ff" points="528.42,-86.3 537.15,-80.31 526.58,-79.55 528.42,-86.3"/>
</g>
<!-- Node26&#45;&gt;Node14 -->
<g id="edge55" class="edge">
<title>Node26&#45;&gt;Node14</title>
<path fill="none" stroke="#63b8ff" d="M321.49,-120.8C311.96,-111.11 299.29,-98.24 289.22,-88.01"/>
<polygon fill="#63b8ff" stroke="#63b8ff" points="291.75,-85.59 282.24,-80.92 286.76,-90.5 291.75,-85.59"/>
</g>
<!-- Node26&#45;&gt;Node15 -->
<g id="edge57" class="edge">
<title>Node26&#45;&gt;Node15</title>
<path fill="none" stroke="#63b8ff" d="M308.1,-120.64C287.97,-110.08 260.74,-95.79 240.66,-85.26"/>
<polygon fill="#63b8ff" stroke="#63b8ff" points="242.43,-82.24 231.94,-80.69 239.17,-88.43 242.43,-82.24"/>
</g>
<!-- Node27&#45;&gt;Node2 -->
<g id="edge59" class="edge">
<title>Node27&#45;&gt;Node2</title>
<path fill="none" stroke="#63b8ff" d="M814.64,-320.63C811.88,-320.08 809.15,-319.53 806.47,-319 746.18,-306.99 677.77,-293.42 627.45,-283.45"/>
<polygon fill="#63b8ff" stroke="#63b8ff" points="628.33,-280.06 617.84,-281.55 626.97,-286.92 628.33,-280.06"/>
</g>
<!-- Node28 -->
<g id="node28" class="node">
<title>Node28</title>
<g id="a_node28"><a xlink:title=" ">
<polygon fill="#e0e0e0" stroke="#999999" points="944.97,-277.5 889.97,-277.5 889.97,-258.5 944.97,-258.5 944.97,-277.5"/>
<text text-anchor="middle" x="917.47" y="-265.5" font-family="Helvetica,sans-Serif" font-size="10.00">optional</text>
</a>
</g>
</g>
<!-- Node27&#45;&gt;Node28 -->
<g id="edge60" class="edge">
<title>Node27&#45;&gt;Node28</title>
<path fill="none" stroke="#63b8ff" d="M885.57,-318.8C891.53,-309.5 899.36,-297.27 905.78,-287.26"/>
<polygon fill="#63b8ff" stroke="#63b8ff" points="908.55,-289.43 910.99,-279.12 902.65,-285.65 908.55,-289.43"/>
</g>
<!-- Node29&#45;&gt;Node2 -->
<g id="edge62" class="edge">
<title>Node29&#45;&gt;Node2</title>
<path fill="none" stroke="#63b8ff" d="M955.68,-320.39C952.91,-319.91 950.17,-319.44 947.47,-319 836.36,-300.84 706.65,-285.46 627.57,-276.73"/>
<polygon fill="#63b8ff" stroke="#63b8ff" points="628.1,-273.27 617.78,-275.66 627.34,-280.23 628.1,-273.27"/>
</g>
<!-- Node30 -->
<g id="node30" class="node">
<title>Node30</title>
<g id="a_node30"><a xlink:title=" ">
<polygon fill="#e0e0e0" stroke="#999999" points="1044.47,-277.5 990.47,-277.5 990.47,-258.5 1044.47,-258.5 1044.47,-277.5"/>
<text text-anchor="middle" x="1017.47" y="-265.5" font-family="Helvetica,sans-Serif" font-size="10.00">memory</text>
</a>
</g>
</g>
<!-- Node29&#45;&gt;Node30 -->
<g id="edge63" class="edge">
<title>Node29&#45;&gt;Node30</title>
<path fill="none" stroke="#63b8ff" d="M1017.47,-318.8C1017.47,-310.09 1017.47,-298.81 1017.47,-289.18"/>
<polygon fill="#63b8ff" stroke="#63b8ff" points="1020.97,-289.36 1017.47,-279.36 1013.97,-289.36 1020.97,-289.36"/>
</g>
</g>
</svg>
