<?xml version="1.0" encoding="UTF-8" standalone="no"?>
<!DOCTYPE svg PUBLIC "-//W3C//DTD SVG 1.1//EN"
 "http://www.w3.org/Graphics/SVG/1.1/DTD/svg11.dtd">
<!-- Generated by graphviz version 8.0.5 (20230430.1635)
 -->
<!-- Title: Simple&#45;Utility/nullables.hpp Pages: 1 -->
<!--zoomable 433 -->
<svg id="main" version="1.1" xmlns="http://www.w3.org/2000/svg" xmlns:xlink="http://www.w3.org/1999/xlink" xml:space="preserve" onload="init(evt)">
<style type="text/css"><![CDATA[
.edge:hover path { stroke: red; }
.edge:hover polygon { stroke: red; fill: red; }
]]></style>
<script type="text/javascript"><![CDATA[
var edges = document.getElementsByTagName('g');
if (edges && edges.length) {
  for (var i=0;i<edges.length;i++) {
    if (edges[i].id.substr(0,4)=='edge') {
      edges[i].setAttribute('class','edge');
    }
  }
}
]]></script>
        <defs>
                <circle id="rim" cx="0" cy="0" r="7"/>
                <circle id="rim2" cx="0" cy="0" r="3.5"/>
                <g id="zoomPlus">
                        <use xlink:href="#rim" fill="#404040">
                                <set attributeName="fill" to="#808080" begin="zoomplus.mouseover" end="zoomplus.mouseout"/>
                        </use>
                        <path d="M-4,0h8M0,-4v8" fill="none" stroke="white" stroke-width="1.5" pointer-events="none"/>
                </g>
                <g id="zoomMin">
                        <use xlink:href="#rim" fill="#404040">
                                <set attributeName="fill" to="#808080" begin="zoomminus.mouseover" end="zoomminus.mouseout"/>
                        </use>
                        <path d="M-4,0h8" fill="none" stroke="white" stroke-width="1.5" pointer-events="none"/>
                </g>
                <g id="dirArrow">
                        <path fill="none" stroke="white" stroke-width="1.5" d="M0,-3.0v7 M-2.5,-0.5L0,-3.0L2.5,-0.5"/>
                </g>
               <g id="resetDef">
                       <use xlink:href="#rim2" fill="#404040">
                               <set attributeName="fill" to="#808080" begin="reset.mouseover" end="reset.mouseout"/>
                       </use>
               </g>
        </defs>

<script type="text/javascript">
var viewWidth = 1084;
var viewHeight = 433;
var sectionId = 'dynsection-0';
</script>
<script xlink:href="../../svgpan.js"/>
<svg id="graph" class="graph">
<g id="viewport">
<title>Simple&#45;Utility/nullables.hpp</title>
<!-- Node1 -->
<g id="node1" class="node">
<title>Node1</title>
<g id="a_node1"><a xlink:title=" ">
<polygon fill="#999999" stroke="#666666" points="670.27,-425 527.52,-425 527.52,-404.25 670.27,-404.25 670.27,-425"/>
<text text-anchor="middle" x="598.89" y="-411.5" font-family="Helvetica,sans-Serif" font-size="10.00">Simple&#45;Utility/nullables.hpp</text>
</a>
</g>
</g>
<!-- Node2 -->
<g id="node2" class="node">
<title>Node2</title>
<g id="a_node2"><a xlink:href="../../d6/dbe/nullables_2base_8hpp.html" target="_top" xlink:title=" ">
<polygon fill="white" stroke="#666666" points="613.14,-298.75 490.64,-298.75 490.64,-265.25 613.14,-265.25 613.14,-298.75"/>
<text text-anchor="start" x="498.64" y="-285.25" font-family="Helvetica,sans-Serif" font-size="10.00">Simple&#45;Utility/nullables</text>
<text text-anchor="middle" x="551.89" y="-272.5" font-family="Helvetica,sans-Serif" font-size="10.00">/base.hpp</text>
</a>
</g>
</g>
<!-- Node1&#45;&gt;Node2 -->
<g id="edge1" class="edge">
<title>Node1&#45;&gt;Node2</title>
<path fill="none" stroke="#63b8ff" d="M606.99,-403.76C618.52,-388.42 637.01,-358.19 624.89,-334.75 618.59,-322.55 607.94,-312.61 596.69,-304.82"/>
<polygon fill="#63b8ff" stroke="#63b8ff" points="598.93,-301.46 588.62,-299.03 595.17,-307.36 598.93,-301.46"/>
</g>
<!-- Node17 -->
<g id="node17" class="node">
<title>Node17</title>
<g id="a_node17"><a xlink:href="../../d6/dca/adapter_8hpp.html" target="_top" xlink:title=" ">
<polygon fill="white" stroke="#666666" points="794.14,-368.25 671.64,-368.25 671.64,-334.75 794.14,-334.75 794.14,-368.25"/>
<text text-anchor="start" x="679.64" y="-354.75" font-family="Helvetica,sans-Serif" font-size="10.00">Simple&#45;Utility/nullables</text>
<text text-anchor="middle" x="732.89" y="-342" font-family="Helvetica,sans-Serif" font-size="10.00">/adapter.hpp</text>
</a>
</g>
</g>
<!-- Node1&#45;&gt;Node17 -->
<g id="edge27" class="edge">
<title>Node1&#45;&gt;Node17</title>
<path fill="none" stroke="#63b8ff" d="M620.42,-403.8C638.47,-395.57 664.84,-383.54 687.52,-373.2"/>
<polygon fill="#63b8ff" stroke="#63b8ff" points="688.66,-376.07 696.3,-368.73 685.75,-369.7 688.66,-376.07"/>
</g>
<!-- Node20 -->
<g id="node20" class="node">
<title>Node20</title>
<g id="a_node20"><a xlink:href="../../d4/dc9/and__then_8hpp.html" target="_top" xlink:title=" ">
<polygon fill="white" stroke="#666666" points="475.14,-368.25 352.64,-368.25 352.64,-334.75 475.14,-334.75 475.14,-368.25"/>
<text text-anchor="start" x="360.64" y="-354.75" font-family="Helvetica,sans-Serif" font-size="10.00">Simple&#45;Utility/nullables</text>
<text text-anchor="middle" x="413.89" y="-342" font-family="Helvetica,sans-Serif" font-size="10.00">/and_then.hpp</text>
</a>
</g>
</g>
<!-- Node1&#45;&gt;Node20 -->
<g id="edge33" class="edge">
<title>Node1&#45;&gt;Node20</title>
<path fill="none" stroke="#63b8ff" d="M569.17,-403.8C543.36,-395.28 505.22,-382.67 473.19,-372.09"/>
<polygon fill="#63b8ff" stroke="#63b8ff" points="474.62,-368.55 464.03,-368.73 472.43,-375.2 474.62,-368.55"/>
</g>
<!-- Node23 -->
<g id="node23" class="node">
<title>Node23</title>
<g id="a_node23"><a xlink:href="../../d7/d5f/fwd__value_8hpp.html" target="_top" xlink:title=" ">
<polygon fill="white" stroke="#666666" points="616.14,-368.25 493.64,-368.25 493.64,-334.75 616.14,-334.75 616.14,-368.25"/>
<text text-anchor="start" x="501.64" y="-354.75" font-family="Helvetica,sans-Serif" font-size="10.00">Simple&#45;Utility/nullables</text>
<text text-anchor="middle" x="554.89" y="-342" font-family="Helvetica,sans-Serif" font-size="10.00">/fwd_value.hpp</text>
</a>
</g>
</g>
<!-- Node1&#45;&gt;Node23 -->
<g id="edge42" class="edge">
<title>Node1&#45;&gt;Node23</title>
<path fill="none" stroke="#63b8ff" d="M591.82,-403.8C586.72,-396.72 579.59,-386.81 572.96,-377.59"/>
<polygon fill="#63b8ff" stroke="#63b8ff" points="575.26,-375.81 566.58,-369.73 569.58,-379.9 575.26,-375.81"/>
</g>
<!-- Node24 -->
<g id="node24" class="node">
<title>Node24</title>
<g id="a_node24"><a xlink:href="../../d2/d0e/or__else_8hpp.html" target="_top" xlink:title=" ">
<polygon fill="white" stroke="#666666" points="334.14,-368.25 211.64,-368.25 211.64,-334.75 334.14,-334.75 334.14,-368.25"/>
<text text-anchor="start" x="219.64" y="-354.75" font-family="Helvetica,sans-Serif" font-size="10.00">Simple&#45;Utility/nullables</text>
<text text-anchor="middle" x="272.89" y="-342" font-family="Helvetica,sans-Serif" font-size="10.00">/or_else.hpp</text>
</a>
</g>
</g>
<!-- Node1&#45;&gt;Node24 -->
<g id="edge45" class="edge">
<title>Node1&#45;&gt;Node24</title>
<path fill="none" stroke="#63b8ff" d="M539.51,-403.79C490.17,-395.45 417.86,-382.85 345.16,-368.45"/>
<polygon fill="#63b8ff" stroke="#63b8ff" points="345.93,-364.84 335.43,-366.32 344.56,-371.7 345.93,-364.84"/>
</g>
<!-- Node25 -->
<g id="node25" class="node">
<title>Node25</title>
<g id="a_node25"><a xlink:href="../../d0/d48/value__or_8hpp.html" target="_top" xlink:title=" ">
<polygon fill="white" stroke="#666666" points="193.14,-368.25 70.64,-368.25 70.64,-334.75 193.14,-334.75 193.14,-368.25"/>
<text text-anchor="start" x="78.64" y="-354.75" font-family="Helvetica,sans-Serif" font-size="10.00">Simple&#45;Utility/nullables</text>
<text text-anchor="middle" x="131.89" y="-342" font-family="Helvetica,sans-Serif" font-size="10.00">/value_or.hpp</text>
</a>
</g>
</g>
<!-- Node1&#45;&gt;Node25 -->
<g id="edge48" class="edge">
<title>Node1&#45;&gt;Node25</title>
<path fill="none" stroke="#63b8ff" d="M527.04,-407.66C449.79,-400.74 323.19,-387.92 204.15,-368.34"/>
<polygon fill="#63b8ff" stroke="#63b8ff" points="204.83,-364.74 194.39,-366.55 203.68,-371.65 204.83,-364.74"/>
</g>
<!-- Node27 -->
<g id="node27" class="node">
<title>Node27</title>
<g id="a_node27"><a xlink:href="../../d9/d20/std__optional_8hpp.html" target="_top" xlink:title=" ">
<polygon fill="white" stroke="#666666" points="935.14,-368.25 812.64,-368.25 812.64,-334.75 935.14,-334.75 935.14,-368.25"/>
<text text-anchor="start" x="820.64" y="-354.75" font-family="Helvetica,sans-Serif" font-size="10.00">Simple&#45;Utility/nullables</text>
<text text-anchor="middle" x="873.89" y="-342" font-family="Helvetica,sans-Serif" font-size="10.00">/std_optional.hpp</text>
</a>
</g>
</g>
<!-- Node1&#45;&gt;Node27 -->
<g id="edge58" class="edge">
<title>Node1&#45;&gt;Node27</title>
<path fill="none" stroke="#63b8ff" d="M643.08,-403.8C685.89,-394.29 751.54,-379.7 801.9,-368.5"/>
<polygon fill="#63b8ff" stroke="#63b8ff" points="802.4,-371.76 811.4,-366.17 800.88,-364.92 802.4,-371.76"/>
</g>
<!-- Node29 -->
<g id="node29" class="node">
<title>Node29</title>
<g id="a_node29"><a xlink:href="../../d8/d9a/std__pointers_8hpp.html" target="_top" xlink:title=" ">
<polygon fill="white" stroke="#666666" points="1076.14,-368.25 953.64,-368.25 953.64,-334.75 1076.14,-334.75 1076.14,-368.25"/>
<text text-anchor="start" x="961.64" y="-354.75" font-family="Helvetica,sans-Serif" font-size="10.00">Simple&#45;Utility/nullables</text>
<text text-anchor="middle" x="1014.89" y="-342" font-family="Helvetica,sans-Serif" font-size="10.00">/std_pointers.hpp</text>
</a>
</g>
</g>
<!-- Node1&#45;&gt;Node29 -->
<g id="edge61" class="edge">
<title>Node1&#45;&gt;Node29</title>
<path fill="none" stroke="#63b8ff" d="M670.53,-406.05C738.12,-398.49 842.46,-385.73 942.76,-368.35"/>
<polygon fill="#63b8ff" stroke="#63b8ff" points="943.14,-371.66 952.39,-366.49 941.93,-364.77 943.14,-371.66"/>
</g>
<!-- Node3 -->
<g id="node3" class="node">
<title>Node3</title>
<g id="a_node3"><a xlink:href="../../dd/d5c/stl__extensions_8hpp.html" target="_top" xlink:title=" ">
<polygon fill="white" stroke="#666666" points="951.77,-90.25 830.02,-90.25 830.02,-56.75 951.77,-56.75 951.77,-90.25"/>
<text text-anchor="start" x="838.02" y="-76.75" font-family="Helvetica,sans-Serif" font-size="10.00">Simple&#45;Utility/concepts</text>
<text text-anchor="middle" x="890.89" y="-64" font-family="Helvetica,sans-Serif" font-size="10.00">/stl_extensions.hpp</text>
</a>
</g>
</g>
<!-- Node2&#45;&gt;Node3 -->
<g id="edge2" class="edge">
<title>Node2&#45;&gt;Node3</title>
<path fill="none" stroke="#63b8ff" d="M562.43,-265.04C584.16,-233.41 637.23,-162.7 699.89,-126.25 710.57,-120.04 769.5,-104.48 819.11,-92.04"/>
<polygon fill="#63b8ff" stroke="#63b8ff" points="819.68,-95.25 828.54,-89.43 817.99,-88.46 819.68,-95.25"/>
</g>
<!-- Node5 -->
<g id="node5" class="node">
<title>Node5</title>
<g id="a_node5"><a xlink:href="../../dd/dcd/operators_8hpp.html" target="_top" xlink:title=" ">
<polygon fill="white" stroke="#666666" points="830.77,-159.75 709.02,-159.75 709.02,-126.25 830.77,-126.25 830.77,-159.75"/>
<text text-anchor="start" x="717.02" y="-146.25" font-family="Helvetica,sans-Serif" font-size="10.00">Simple&#45;Utility/concepts</text>
<text text-anchor="middle" x="769.89" y="-133.5" font-family="Helvetica,sans-Serif" font-size="10.00">/operators.hpp</text>
</a>
</g>
</g>
<!-- Node2&#45;&gt;Node5 -->
<g id="edge4" class="edge">
<title>Node2&#45;&gt;Node5</title>
<path fill="none" stroke="#63b8ff" d="M577.33,-265.02C616.36,-240.49 691.11,-193.51 735.12,-165.85"/>
<polygon fill="#63b8ff" stroke="#63b8ff" points="736.68,-168.38 743.29,-160.09 732.96,-162.45 736.68,-168.38"/>
</g>
<!-- Node6 -->
<g id="node6" class="node">
<title>Node6</title>
<g id="a_node6"><a xlink:href="../../d1/d76/functional_2base_8hpp.html" target="_top" xlink:title=" ">
<polygon fill="white" stroke="#666666" points="537.39,-159.75 410.39,-159.75 410.39,-126.25 537.39,-126.25 537.39,-159.75"/>
<text text-anchor="start" x="418.39" y="-146.25" font-family="Helvetica,sans-Serif" font-size="10.00">Simple&#45;Utility/functional</text>
<text text-anchor="middle" x="473.89" y="-133.5" font-family="Helvetica,sans-Serif" font-size="10.00">/base.hpp</text>
</a>
</g>
</g>
<!-- Node2&#45;&gt;Node6 -->
<g id="edge6" class="edge">
<title>Node2&#45;&gt;Node6</title>
<path fill="none" stroke="#63b8ff" d="M540.73,-264.96C533.87,-254.88 525.05,-241.5 517.89,-229.25 506.48,-209.72 494.79,-186.92 486.34,-169.81"/>
<polygon fill="#63b8ff" stroke="#63b8ff" points="489.06,-168.42 481.52,-160.98 482.77,-171.5 489.06,-168.42"/>
</g>
<!-- Node8 -->
<g id="node8" class="node">
<title>Node8</title>
<g id="a_node8"><a xlink:title=" ">
<polygon fill="#e0e0e0" stroke="#999999" points="111.89,-20.75 47.89,-20.75 47.89,0 111.89,0 111.89,-20.75"/>
<text text-anchor="middle" x="79.89" y="-7.25" font-family="Helvetica,sans-Serif" font-size="10.00">type_traits</text>
</a>
</g>
</g>
<!-- Node2&#45;&gt;Node8 -->
<g id="edge26" class="edge">
<title>Node2&#45;&gt;Node8</title>
<path fill="none" stroke="#63b8ff" d="M490.55,-274.94C374.52,-263.29 133.03,-238.18 116.89,-229.25 47.48,-190.83 31.29,-165.07 4.89,-90.25 -0.06,-76.21 -2.42,-69.72 4.89,-56.75 12.65,-42.99 26.45,-32.93 40.11,-25.83"/>
<polygon fill="#63b8ff" stroke="#63b8ff" points="41.41,-28.61 48.95,-21.17 38.42,-22.29 41.41,-28.61"/>
</g>
<!-- Node10 -->
<g id="node10" class="node">
<title>Node10</title>
<g id="a_node10"><a xlink:href="../../d4/d1c/unified__base_8hpp.html" target="_top" xlink:title=" ">
<polygon fill="white" stroke="#666666" points="135.89,-90.25 23.89,-90.25 23.89,-56.75 135.89,-56.75 135.89,-90.25"/>
<text text-anchor="start" x="31.89" y="-76.75" font-family="Helvetica,sans-Serif" font-size="10.00">Simple&#45;Utility/unified</text>
<text text-anchor="middle" x="79.89" y="-64" font-family="Helvetica,sans-Serif" font-size="10.00">_base.hpp</text>
</a>
</g>
</g>
<!-- Node2&#45;&gt;Node10 -->
<g id="edge24" class="edge">
<title>Node2&#45;&gt;Node10</title>
<path fill="none" stroke="#63b8ff" d="M490.5,-274.65C381.53,-263.16 164.41,-239.2 150.89,-229.25 108.9,-198.34 91.07,-136.55 84.04,-101.11"/>
<polygon fill="#63b8ff" stroke="#63b8ff" points="87.36,-100.81 82.12,-91.6 80.47,-102.07 87.36,-100.81"/>
</g>
<!-- Node12 -->
<g id="node12" class="node">
<title>Node12</title>
<g id="a_node12"><a xlink:href="../../d9/d76/bind_8hpp.html" target="_top" xlink:title=" ">
<polygon fill="white" stroke="#666666" points="432.39,-229.25 305.39,-229.25 305.39,-195.75 432.39,-195.75 432.39,-229.25"/>
<text text-anchor="start" x="313.39" y="-215.75" font-family="Helvetica,sans-Serif" font-size="10.00">Simple&#45;Utility/functional</text>
<text text-anchor="middle" x="368.89" y="-203" font-family="Helvetica,sans-Serif" font-size="10.00">/operators/bind.hpp</text>
</a>
</g>
</g>
<!-- Node2&#45;&gt;Node12 -->
<g id="edge17" class="edge">
<title>Node2&#45;&gt;Node12</title>
<path fill="none" stroke="#63b8ff" d="M508.06,-264.83C482.46,-255.39 449.96,-243.4 422.81,-233.39"/>
<polygon fill="#63b8ff" stroke="#63b8ff" points="424.28,-229.83 413.69,-229.65 421.86,-236.4 424.28,-229.83"/>
</g>
<!-- Node16 -->
<g id="node16" class="node">
<title>Node16</title>
<g id="a_node16"><a xlink:title=" ">
<polygon fill="#e0e0e0" stroke="#999999" points="576.77,-222.88 527.02,-222.88 527.02,-202.12 576.77,-202.12 576.77,-222.88"/>
<text text-anchor="middle" x="551.89" y="-209.38" font-family="Helvetica,sans-Serif" font-size="10.00">cstddef</text>
</a>
</g>
</g>
<!-- Node2&#45;&gt;Node16 -->
<g id="edge25" class="edge">
<title>Node2&#45;&gt;Node16</title>
<path fill="none" stroke="#63b8ff" d="M551.89,-265C551.89,-255.8 551.89,-244.14 551.89,-234.24"/>
<polygon fill="#63b8ff" stroke="#63b8ff" points="555.39,-234.32 551.89,-224.32 548.39,-234.32 555.39,-234.32"/>
</g>
<!-- Node4 -->
<g id="node4" class="node">
<title>Node4</title>
<g id="a_node4"><a xlink:title=" ">
<polygon fill="#e0e0e0" stroke="#999999" points="690.14,-20.75 633.64,-20.75 633.64,0 690.14,0 690.14,-20.75"/>
<text text-anchor="middle" x="661.89" y="-7.25" font-family="Helvetica,sans-Serif" font-size="10.00">concepts</text>
</a>
</g>
</g>
<!-- Node3&#45;&gt;Node4 -->
<g id="edge3" class="edge">
<title>Node3&#45;&gt;Node4</title>
<path fill="none" stroke="#63b8ff" d="M830.13,-56.28C789.18,-45.35 736.37,-31.26 700.94,-21.8"/>
<polygon fill="#63b8ff" stroke="#63b8ff" points="702.1,-18.22 691.54,-19.02 700.3,-24.98 702.1,-18.22"/>
</g>
<!-- Node5&#45;&gt;Node4 -->
<g id="edge5" class="edge">
<title>Node5&#45;&gt;Node4</title>
<path fill="none" stroke="#63b8ff" d="M831.24,-135.79C901.39,-126.31 1001.61,-104.11 960.89,-56.75 927.85,-18.31 774.55,-12.04 701.2,-11.28"/>
<polygon fill="#63b8ff" stroke="#63b8ff" points="701.59,-7.78 691.57,-11.21 701.54,-14.78 701.59,-7.78"/>
</g>
<!-- Node6&#45;&gt;Node3 -->
<g id="edge14" class="edge">
<title>Node6&#45;&gt;Node3</title>
<path fill="none" stroke="#63b8ff" d="M537.86,-133.03C618.25,-121.67 752.83,-102.31 819.4,-90.42"/>
<polygon fill="#63b8ff" stroke="#63b8ff" points="819.66,-93.75 828.87,-88.51 818.4,-86.86 819.66,-93.75"/>
</g>
<!-- Node6&#45;&gt;Node4 -->
<g id="edge7" class="edge">
<title>Node6&#45;&gt;Node4</title>
<path fill="none" stroke="#63b8ff" d="M537.79,-137.65C573.4,-131.89 615.87,-118.97 642.89,-90.25 657.64,-74.58 661.55,-49.53 662.31,-31.87"/>
<polygon fill="#63b8ff" stroke="#63b8ff" points="665.82,-32.07 662.43,-22.03 658.82,-31.99 665.82,-32.07"/>
</g>
<!-- Node7 -->
<g id="node7" class="node">
<title>Node7</title>
<g id="a_node7"><a xlink:title=" ">
<polygon fill="#e0e0e0" stroke="#999999" points="445.77,-83.88 384.02,-83.88 384.02,-63.12 445.77,-63.12 445.77,-83.88"/>
<text text-anchor="middle" x="414.89" y="-70.38" font-family="Helvetica,sans-Serif" font-size="10.00">functional</text>
</a>
</g>
</g>
<!-- Node6&#45;&gt;Node7 -->
<g id="edge8" class="edge">
<title>Node6&#45;&gt;Node7</title>
<path fill="none" stroke="#63b8ff" d="M459.91,-126C451.07,-115.89 439.64,-102.81 430.5,-92.36"/>
<polygon fill="#63b8ff" stroke="#63b8ff" points="432.7,-90.55 423.48,-85.32 427.43,-95.15 432.7,-90.55"/>
</g>
<!-- Node6&#45;&gt;Node8 -->
<g id="edge9" class="edge">
<title>Node6&#45;&gt;Node8</title>
<path fill="none" stroke="#63b8ff" d="M475.36,-125.8C476.13,-106.35 474.11,-74.16 454.89,-56.75 407.11,-13.47 211.49,-9.91 123.33,-10.58"/>
<polygon fill="#63b8ff" stroke="#63b8ff" points="123.35,-7.09 113.38,-10.69 123.42,-14.09 123.35,-7.09"/>
</g>
<!-- Node9 -->
<g id="node9" class="node">
<title>Node9</title>
<g id="a_node9"><a xlink:href="../../d8/dd2/_config_8hpp.html" target="_top" xlink:title=" ">
<polygon fill="white" stroke="#666666" points="634.02,-83.88 501.77,-83.88 501.77,-63.12 634.02,-63.12 634.02,-83.88"/>
<text text-anchor="middle" x="567.89" y="-70.38" font-family="Helvetica,sans-Serif" font-size="10.00">Simple&#45;Utility/Config.hpp</text>
</a>
</g>
</g>
<!-- Node6&#45;&gt;Node9 -->
<g id="edge10" class="edge">
<title>Node6&#45;&gt;Node9</title>
<path fill="none" stroke="#63b8ff" d="M496.17,-126C511.1,-115.28 530.68,-101.23 545.6,-90.51"/>
<polygon fill="#63b8ff" stroke="#63b8ff" points="547.14,-93 553.22,-84.32 543.05,-87.31 547.14,-93"/>
</g>
<!-- Node6&#45;&gt;Node10 -->
<g id="edge11" class="edge">
<title>Node6&#45;&gt;Node10</title>
<path fill="none" stroke="#63b8ff" d="M410.25,-129.45C404.39,-128.35 398.53,-127.26 392.89,-126.25 308.21,-111.02 210.33,-95.11 146.89,-85.02"/>
<polygon fill="#63b8ff" stroke="#63b8ff" points="147.66,-81.44 137.24,-83.33 146.56,-88.35 147.66,-81.44"/>
</g>
<!-- Node11 -->
<g id="node11" class="node">
<title>Node11</title>
<g id="a_node11"><a xlink:href="../../d5/d8e/concepts_2utility_8hpp.html" target="_top" xlink:title=" ">
<polygon fill="white" stroke="#666666" points="811.77,-90.25 690.02,-90.25 690.02,-56.75 811.77,-56.75 811.77,-90.25"/>
<text text-anchor="start" x="698.02" y="-76.75" font-family="Helvetica,sans-Serif" font-size="10.00">Simple&#45;Utility/concepts</text>
<text text-anchor="middle" x="750.89" y="-64" font-family="Helvetica,sans-Serif" font-size="10.00">/utility.hpp</text>
</a>
</g>
</g>
<!-- Node6&#45;&gt;Node11 -->
<g id="edge15" class="edge">
<title>Node6&#45;&gt;Node11</title>
<path fill="none" stroke="#63b8ff" d="M537.79,-126.43C580.01,-116.14 635.4,-102.64 679.13,-91.99"/>
<polygon fill="#63b8ff" stroke="#63b8ff" points="679.81,-95.18 688.7,-89.41 678.15,-88.38 679.81,-95.18"/>
</g>
<!-- Node10&#45;&gt;Node4 -->
<g id="edge12" class="edge">
<title>Node10&#45;&gt;Node4</title>
<path fill="none" stroke="#63b8ff" d="M136.31,-59.13C140.89,-58.25 145.46,-57.44 149.89,-56.75 324.77,-29.45 536.01,-17.22 622.29,-13.09"/>
<polygon fill="#63b8ff" stroke="#63b8ff" points="622.32,-16.54 632.14,-12.58 621.99,-9.55 622.32,-16.54"/>
</g>
<!-- Node10&#45;&gt;Node8 -->
<g id="edge13" class="edge">
<title>Node10&#45;&gt;Node8</title>
<path fill="none" stroke="#63b8ff" d="M79.89,-56.44C79.89,-49.02 79.89,-40.11 79.89,-32.18"/>
<polygon fill="#63b8ff" stroke="#63b8ff" points="83.39,-32.22 79.89,-22.22 76.39,-32.22 83.39,-32.22"/>
</g>
<!-- Node11&#45;&gt;Node4 -->
<g id="edge16" class="edge">
<title>Node11&#45;&gt;Node4</title>
<path fill="none" stroke="#63b8ff" d="M727.51,-56.44C714.41,-47.45 698.14,-36.27 685.08,-27.3"/>
<polygon fill="#63b8ff" stroke="#63b8ff" points="687.45,-23.99 677.22,-21.22 683.49,-29.76 687.45,-23.99"/>
</g>
<!-- Node12&#45;&gt;Node6 -->
<g id="edge18" class="edge">
<title>Node12&#45;&gt;Node6</title>
<path fill="none" stroke="#63b8ff" d="M394.04,-195.33C407.81,-186.48 425.06,-175.39 440,-165.79"/>
<polygon fill="#63b8ff" stroke="#63b8ff" points="441.43,-168.39 447.95,-160.04 437.64,-162.5 441.43,-168.39"/>
</g>
<!-- Node13 -->
<g id="node13" class="node">
<title>Node13</title>
<g id="a_node13"><a xlink:href="../../d2/d30/general_8hpp.html" target="_top" xlink:title=" ">
<polygon fill="white" stroke="#666666" points="264.14,-159.75 159.64,-159.75 159.64,-126.25 264.14,-126.25 264.14,-159.75"/>
<text text-anchor="start" x="167.64" y="-146.25" font-family="Helvetica,sans-Serif" font-size="10.00">Simple&#45;Utility/tuple</text>
<text text-anchor="middle" x="211.89" y="-133.5" font-family="Helvetica,sans-Serif" font-size="10.00">/general.hpp</text>
</a>
</g>
</g>
<!-- Node12&#45;&gt;Node13 -->
<g id="edge19" class="edge">
<title>Node12&#45;&gt;Node13</title>
<path fill="none" stroke="#63b8ff" d="M331.29,-195.33C309.72,-186.06 282.43,-174.32 259.38,-164.42"/>
<polygon fill="#63b8ff" stroke="#63b8ff" points="261.03,-160.89 250.46,-160.15 258.27,-167.32 261.03,-160.89"/>
</g>
<!-- Node13&#45;&gt;Node4 -->
<g id="edge20" class="edge">
<title>Node13&#45;&gt;Node4</title>
<path fill="none" stroke="#63b8ff" d="M197.96,-125.93C183.45,-107.19 165.12,-76.29 182.89,-56.75 212.28,-24.45 513.23,-14.64 622.51,-12.13"/>
<polygon fill="#63b8ff" stroke="#63b8ff" points="622.45,-15.61 632.37,-11.89 622.3,-8.62 622.45,-15.61"/>
</g>
<!-- Node13&#45;&gt;Node8 -->
<g id="edge22" class="edge">
<title>Node13&#45;&gt;Node8</title>
<path fill="none" stroke="#63b8ff" d="M159.28,-135.44C107.09,-127.72 32.44,-113 14.89,-90.25 5.8,-78.46 8.01,-69.95 14.89,-56.75 21.67,-43.75 34.06,-33.71 46.22,-26.42"/>
<polygon fill="#63b8ff" stroke="#63b8ff" points="47.73,-29.04 54.82,-21.16 44.36,-22.9 47.73,-29.04"/>
</g>
<!-- Node14 -->
<g id="node14" class="node">
<title>Node14</title>
<g id="a_node14"><a xlink:title=" ">
<polygon fill="#e0e0e0" stroke="#999999" points="289.52,-83.88 250.27,-83.88 250.27,-63.12 289.52,-63.12 289.52,-83.88"/>
<text text-anchor="middle" x="269.89" y="-70.38" font-family="Helvetica,sans-Serif" font-size="10.00">tuple</text>
</a>
</g>
</g>
<!-- Node13&#45;&gt;Node14 -->
<g id="edge21" class="edge">
<title>Node13&#45;&gt;Node14</title>
<path fill="none" stroke="#63b8ff" d="M225.64,-126C234.33,-115.89 245.57,-102.81 254.55,-92.36"/>
<polygon fill="#63b8ff" stroke="#63b8ff" points="257.59,-95.19 261.45,-85.32 252.28,-90.63 257.59,-95.19"/>
</g>
<!-- Node15 -->
<g id="node15" class="node">
<title>Node15</title>
<g id="a_node15"><a xlink:title=" ">
<polygon fill="#e0e0e0" stroke="#999999" points="232.27,-83.88 191.52,-83.88 191.52,-63.12 232.27,-63.12 232.27,-83.88"/>
<text text-anchor="middle" x="211.89" y="-70.38" font-family="Helvetica,sans-Serif" font-size="10.00">utility</text>
</a>
</g>
</g>
<!-- Node13&#45;&gt;Node15 -->
<g id="edge23" class="edge">
<title>Node13&#45;&gt;Node15</title>
<path fill="none" stroke="#63b8ff" d="M211.89,-126C211.89,-116.8 211.89,-105.14 211.89,-95.24"/>
<polygon fill="#63b8ff" stroke="#63b8ff" points="215.39,-95.32 211.89,-85.32 208.39,-95.32 215.39,-95.32"/>
</g>
<!-- Node17&#45;&gt;Node2 -->
<g id="edge30" class="edge">
<title>Node17&#45;&gt;Node2</title>
<path fill="none" stroke="#63b8ff" d="M689.54,-334.33C664.22,-324.89 632.08,-312.9 605.22,-302.89"/>
<polygon fill="#63b8ff" stroke="#63b8ff" points="606.8,-299.37 596.21,-299.15 604.35,-305.93 606.8,-299.37"/>
</g>
<!-- Node17&#45;&gt;Node3 -->
<g id="edge29" class="edge">
<title>Node17&#45;&gt;Node3</title>
<path fill="none" stroke="#63b8ff" d="M780.78,-334.31C798.48,-326.16 817.28,-314.57 829.89,-298.75 877.1,-239.55 887.88,-146.64 890.27,-101.25"/>
<polygon fill="#63b8ff" stroke="#63b8ff" points="893.79,-101.67 890.72,-91.53 886.8,-101.38 893.79,-101.67"/>
</g>
<!-- Node17&#45;&gt;Node9 -->
<g id="edge28" class="edge">
<title>Node17&#45;&gt;Node9</title>
<path fill="none" stroke="#63b8ff" d="M722.34,-334.28C715.79,-324.13 707.24,-310.74 699.89,-298.75 653.72,-223.41 601.04,-132.27 578.76,-93.47"/>
<polygon fill="#63b8ff" stroke="#63b8ff" points="581.32,-91.9 573.31,-84.97 575.25,-95.39 581.32,-91.9"/>
</g>
<!-- Node18 -->
<g id="node18" class="node">
<title>Node18</title>
<g id="a_node18"><a xlink:title=" ">
<polygon fill="#e0e0e0" stroke="#999999" points="756.64,-292.38 709.14,-292.38 709.14,-271.62 756.64,-271.62 756.64,-292.38"/>
<text text-anchor="middle" x="732.89" y="-278.88" font-family="Helvetica,sans-Serif" font-size="10.00">cassert</text>
</a>
</g>
</g>
<!-- Node17&#45;&gt;Node18 -->
<g id="edge31" class="edge">
<title>Node17&#45;&gt;Node18</title>
<path fill="none" stroke="#63b8ff" d="M732.89,-334.5C732.89,-325.3 732.89,-313.64 732.89,-303.74"/>
<polygon fill="#63b8ff" stroke="#63b8ff" points="736.39,-303.82 732.89,-293.82 729.39,-303.82 736.39,-303.82"/>
</g>
<!-- Node19 -->
<g id="node19" class="node">
<title>Node19</title>
<g id="a_node19"><a xlink:title=" ">
<polygon fill="#e0e0e0" stroke="#999999" points="821.27,-292.38 774.52,-292.38 774.52,-271.62 821.27,-271.62 821.27,-292.38"/>
<text text-anchor="middle" x="797.89" y="-278.88" font-family="Helvetica,sans-Serif" font-size="10.00">ranges</text>
</a>
</g>
</g>
<!-- Node17&#45;&gt;Node19 -->
<g id="edge32" class="edge">
<title>Node17&#45;&gt;Node19</title>
<path fill="none" stroke="#63b8ff" d="M748.3,-334.5C758.13,-324.29 770.89,-311.05 781,-300.54"/>
<polygon fill="#63b8ff" stroke="#63b8ff" points="783.02,-303.45 787.44,-293.82 777.98,-298.6 783.02,-303.45"/>
</g>
<!-- Node20&#45;&gt;Node2 -->
<g id="edge34" class="edge">
<title>Node20&#45;&gt;Node2</title>
<path fill="none" stroke="#63b8ff" d="M446.95,-334.33C465.64,-325.19 489.21,-313.66 509.28,-303.84"/>
<polygon fill="#63b8ff" stroke="#63b8ff" points="510.66,-306.57 518.11,-299.04 507.59,-300.29 510.66,-306.57"/>
</g>
<!-- Node21 -->
<g id="node21" class="node">
<title>Node21</title>
<g id="a_node21"><a xlink:href="../../d6/deb/transform_8hpp.html" target="_top" xlink:title=" ">
<polygon fill="white" stroke="#666666" points="384.39,-298.75 257.39,-298.75 257.39,-265.25 384.39,-265.25 384.39,-298.75"/>
<text text-anchor="start" x="265.39" y="-285.25" font-family="Helvetica,sans-Serif" font-size="10.00">Simple&#45;Utility/functional</text>
<text text-anchor="middle" x="320.89" y="-272.5" font-family="Helvetica,sans-Serif" font-size="10.00">/transform.hpp</text>
</a>
</g>
</g>
<!-- Node20&#45;&gt;Node21 -->
<g id="edge35" class="edge">
<title>Node20&#45;&gt;Node21</title>
<path fill="none" stroke="#63b8ff" d="M391.85,-334.5C379.9,-325.82 364.92,-314.96 351.81,-305.44"/>
<polygon fill="#63b8ff" stroke="#63b8ff" points="354.25,-302.16 344.1,-299.12 350.14,-307.82 354.25,-302.16"/>
</g>
<!-- Node21&#45;&gt;Node6 -->
<g id="edge37" class="edge">
<title>Node21&#45;&gt;Node6</title>
<path fill="none" stroke="#63b8ff" d="M383.05,-264.86C403.62,-256.95 425.24,-245.51 440.89,-229.25 456.3,-213.25 464.72,-189.27 469.2,-170.81"/>
<polygon fill="#63b8ff" stroke="#63b8ff" points="472.81,-171.66 471.5,-161.15 465.97,-170.19 472.81,-171.66"/>
</g>
<!-- Node21&#45;&gt;Node10 -->
<g id="edge36" class="edge">
<title>Node21&#45;&gt;Node10</title>
<path fill="none" stroke="#63b8ff" d="M256.94,-276.62C191.32,-270.64 95.68,-257.28 72.89,-229.25 43.35,-192.91 57.24,-134.39 69.15,-100.7"/>
<polygon fill="#63b8ff" stroke="#63b8ff" points="72.66,-102.28 72.88,-91.69 66.11,-99.83 72.66,-102.28"/>
</g>
<!-- Node21&#45;&gt;Node12 -->
<g id="edge38" class="edge">
<title>Node21&#45;&gt;Node12</title>
<path fill="none" stroke="#63b8ff" d="M332.27,-265C337.95,-257.02 344.95,-247.18 351.3,-238.25"/>
<polygon fill="#63b8ff" stroke="#63b8ff" points="354.66,-240.56 357.6,-230.38 348.95,-236.5 354.66,-240.56"/>
</g>
<!-- Node22 -->
<g id="node22" class="node">
<title>Node22</title>
<g id="a_node22"><a xlink:href="../../d5/db7/pipe_8hpp.html" target="_top" xlink:title=" ">
<polygon fill="white" stroke="#666666" points="287.39,-229.25 160.39,-229.25 160.39,-195.75 287.39,-195.75 287.39,-229.25"/>
<text text-anchor="start" x="168.39" y="-215.75" font-family="Helvetica,sans-Serif" font-size="10.00">Simple&#45;Utility/functional</text>
<text text-anchor="middle" x="223.89" y="-203" font-family="Helvetica,sans-Serif" font-size="10.00">/operators/pipe.hpp</text>
</a>
</g>
</g>
<!-- Node21&#45;&gt;Node22 -->
<g id="edge39" class="edge">
<title>Node21&#45;&gt;Node22</title>
<path fill="none" stroke="#63b8ff" d="M297.91,-265C285.31,-256.24 269.51,-245.25 255.75,-235.67"/>
<polygon fill="#63b8ff" stroke="#63b8ff" points="258.26,-232.45 248.05,-229.62 254.26,-238.2 258.26,-232.45"/>
</g>
<!-- Node22&#45;&gt;Node6 -->
<g id="edge40" class="edge">
<title>Node22&#45;&gt;Node6</title>
<path fill="none" stroke="#63b8ff" d="M283.78,-195.33C319.82,-185.6 365.89,-173.16 403.65,-162.96"/>
<polygon fill="#63b8ff" stroke="#63b8ff" points="404.33,-166.14 413.07,-160.15 402.5,-159.38 404.33,-166.14"/>
</g>
<!-- Node22&#45;&gt;Node13 -->
<g id="edge41" class="edge">
<title>Node22&#45;&gt;Node13</title>
<path fill="none" stroke="#63b8ff" d="M221.05,-195.5C219.72,-188.02 218.1,-178.91 216.6,-170.45"/>
<polygon fill="#63b8ff" stroke="#63b8ff" points="219.91,-170.11 214.72,-160.88 213.02,-171.34 219.91,-170.11"/>
</g>
<!-- Node23&#45;&gt;Node2 -->
<g id="edge43" class="edge">
<title>Node23&#45;&gt;Node2</title>
<path fill="none" stroke="#63b8ff" d="M554.18,-334.5C553.85,-327.11 553.45,-318.12 553.08,-309.73"/>
<polygon fill="#63b8ff" stroke="#63b8ff" points="556.54,-309.72 552.6,-299.88 549.55,-310.03 556.54,-309.72"/>
</g>
<!-- Node23&#45;&gt;Node21 -->
<g id="edge44" class="edge">
<title>Node23&#45;&gt;Node21</title>
<path fill="none" stroke="#63b8ff" d="M498.85,-334.33C465.25,-324.64 422.35,-312.27 387.09,-302.1"/>
<polygon fill="#63b8ff" stroke="#63b8ff" points="388.47,-298.56 377.89,-299.15 386.53,-305.29 388.47,-298.56"/>
</g>
<!-- Node24&#45;&gt;Node2 -->
<g id="edge46" class="edge">
<title>Node24&#45;&gt;Node2</title>
<path fill="none" stroke="#63b8ff" d="M334.47,-335.6C377.4,-325.22 434.84,-311.32 479.89,-300.42"/>
<polygon fill="#63b8ff" stroke="#63b8ff" points="480.58,-303.61 489.48,-297.86 478.94,-296.81 480.58,-303.61"/>
</g>
<!-- Node24&#45;&gt;Node21 -->
<g id="edge47" class="edge">
<title>Node24&#45;&gt;Node21</title>
<path fill="none" stroke="#63b8ff" d="M284.27,-334.5C289.95,-326.52 296.95,-316.68 303.3,-307.75"/>
<polygon fill="#63b8ff" stroke="#63b8ff" points="306.66,-310.06 309.6,-299.88 300.95,-306 306.66,-310.06"/>
</g>
<!-- Node25&#45;&gt;Node2 -->
<g id="edge49" class="edge">
<title>Node25&#45;&gt;Node2</title>
<path fill="none" stroke="#63b8ff" d="M193.41,-336.57C196.62,-335.94 199.79,-335.32 202.89,-334.75 298.14,-317.15 408.88,-301.55 479.64,-292.19"/>
<polygon fill="#63b8ff" stroke="#63b8ff" points="479.75,-295.57 489.21,-290.8 478.84,-288.63 479.75,-295.57"/>
</g>
<!-- Node25&#45;&gt;Node21 -->
<g id="edge50" class="edge">
<title>Node25&#45;&gt;Node21</title>
<path fill="none" stroke="#63b8ff" d="M177.16,-334.33C203.72,-324.85 237.46,-312.8 265.58,-302.75"/>
<polygon fill="#63b8ff" stroke="#63b8ff" points="266.43,-305.81 274.67,-299.15 264.07,-299.22 266.43,-305.81"/>
</g>
<!-- Node26 -->
<g id="node26" class="node">
<title>Node26</title>
<g id="a_node26"><a xlink:href="../../d2/dc8/bind__back_8hpp.html" target="_top" xlink:title=" ">
<polygon fill="white" stroke="#666666" points="383.64,-159.75 282.14,-159.75 282.14,-126.25 383.64,-126.25 383.64,-159.75"/>
<text text-anchor="start" x="290.14" y="-146.25" font-family="Helvetica,sans-Serif" font-size="10.00">Simple&#45;Utility/bind</text>
<text text-anchor="middle" x="332.89" y="-133.5" font-family="Helvetica,sans-Serif" font-size="10.00">_back.hpp</text>
</a>
</g>
</g>
<!-- Node25&#45;&gt;Node26 -->
<g id="edge51" class="edge">
<title>Node25&#45;&gt;Node26</title>
<path fill="none" stroke="#63b8ff" d="M128.69,-334.69C123.44,-303.94 116.75,-235.64 150.89,-195.75 152.97,-193.33 219.5,-174.8 271.53,-160.6"/>
<polygon fill="#63b8ff" stroke="#63b8ff" points="272.32,-163.74 281.05,-157.73 270.48,-156.98 272.32,-163.74"/>
</g>
<!-- Node26&#45;&gt;Node4 -->
<g id="edge53" class="edge">
<title>Node26&#45;&gt;Node4</title>
<path fill="none" stroke="#63b8ff" d="M336.11,-125.92C340.94,-106.28 352.05,-73.58 374.89,-56.75 413.56,-28.27 553.47,-17.05 622.63,-13.18"/>
<polygon fill="#63b8ff" stroke="#63b8ff" points="622.7,-16.62 632.5,-12.59 622.32,-9.63 622.7,-16.62"/>
</g>
<!-- Node26&#45;&gt;Node7 -->
<g id="edge54" class="edge">
<title>Node26&#45;&gt;Node7</title>
<path fill="none" stroke="#63b8ff" d="M352.33,-126C365.1,-115.49 381.78,-101.76 394.71,-91.12"/>
<polygon fill="#63b8ff" stroke="#63b8ff" points="396.47,-93.38 401.96,-84.32 392.02,-87.98 396.47,-93.38"/>
</g>
<!-- Node26&#45;&gt;Node8 -->
<g id="edge56" class="edge">
<title>Node26&#45;&gt;Node8</title>
<path fill="none" stroke="#63b8ff" d="M331.04,-125.84C327.93,-106.41 319.77,-74.26 298.89,-56.75 272.67,-34.76 178.75,-21.54 122.78,-15.44"/>
<polygon fill="#63b8ff" stroke="#63b8ff" points="123.43,-11.89 113.12,-14.31 122.7,-18.85 123.43,-11.89"/>
</g>
<!-- Node26&#45;&gt;Node9 -->
<g id="edge52" class="edge">
<title>Node26&#45;&gt;Node9</title>
<path fill="none" stroke="#63b8ff" d="M383.89,-127.35C425.43,-115.42 483.52,-98.73 523.25,-87.32"/>
<polygon fill="#63b8ff" stroke="#63b8ff" points="524.05,-90.45 532.69,-84.32 522.11,-83.72 524.05,-90.45"/>
</g>
<!-- Node26&#45;&gt;Node14 -->
<g id="edge55" class="edge">
<title>Node26&#45;&gt;Node14</title>
<path fill="none" stroke="#63b8ff" d="M317.96,-126C308.53,-115.89 296.31,-102.81 286.56,-92.36"/>
<polygon fill="#63b8ff" stroke="#63b8ff" points="289.44,-90.24 280.06,-85.32 284.33,-95.02 289.44,-90.24"/>
</g>
<!-- Node26&#45;&gt;Node15 -->
<g id="edge57" class="edge">
<title>Node26&#45;&gt;Node15</title>
<path fill="none" stroke="#63b8ff" d="M303.91,-125.83C284.15,-114.81 258.15,-100.3 238.83,-89.53"/>
<polygon fill="#63b8ff" stroke="#63b8ff" points="240.85,-86.09 230.41,-84.27 237.44,-92.2 240.85,-86.09"/>
</g>
<!-- Node27&#45;&gt;Node2 -->
<g id="edge59" class="edge">
<title>Node27&#45;&gt;Node2</title>
<path fill="none" stroke="#63b8ff" d="M812.33,-336.78C809.14,-336.09 805.98,-335.41 802.89,-334.75 742.8,-321.89 674.49,-307.84 624.32,-297.63"/>
<polygon fill="#63b8ff" stroke="#63b8ff" points="625.08,-294.01 614.58,-295.45 623.68,-300.87 625.08,-294.01"/>
</g>
<!-- Node28 -->
<g id="node28" class="node">
<title>Node28</title>
<g id="a_node28"><a xlink:title=" ">
<polygon fill="#e0e0e0" stroke="#999999" points="941.02,-292.38 886.77,-292.38 886.77,-271.62 941.02,-271.62 941.02,-292.38"/>
<text text-anchor="middle" x="913.89" y="-278.88" font-family="Helvetica,sans-Serif" font-size="10.00">optional</text>
</a>
</g>
</g>
<!-- Node27&#45;&gt;Node28 -->
<g id="edge60" class="edge">
<title>Node27&#45;&gt;Node28</title>
<path fill="none" stroke="#63b8ff" d="M883.37,-334.5C889.13,-324.8 896.5,-312.35 902.56,-302.12"/>
<polygon fill="#63b8ff" stroke="#63b8ff" points="905.99,-304.21 908.07,-293.82 899.96,-300.64 905.99,-304.21"/>
</g>
<!-- Node29&#45;&gt;Node2 -->
<g id="edge62" class="edge">
<title>Node29&#45;&gt;Node2</title>
<path fill="none" stroke="#63b8ff" d="M953.39,-336.51C950.18,-335.89 947,-335.3 943.89,-334.75 833.01,-315.17 703.28,-299.43 624.38,-290.66"/>
<polygon fill="#63b8ff" stroke="#63b8ff" points="624.92,-287.08 614.59,-289.46 624.15,-294.04 624.92,-287.08"/>
</g>
<!-- Node30 -->
<g id="node30" class="node">
<title>Node30</title>
<g id="a_node30"><a xlink:title=" ">
<polygon fill="#e0e0e0" stroke="#999999" points="1041.64,-292.38 988.14,-292.38 988.14,-271.62 1041.64,-271.62 1041.64,-292.38"/>
<text text-anchor="middle" x="1014.89" y="-278.88" font-family="Helvetica,sans-Serif" font-size="10.00">memory</text>
</a>
</g>
</g>
<!-- Node29&#45;&gt;Node30 -->
<g id="edge63" class="edge">
<title>Node29&#45;&gt;Node30</title>
<path fill="none" stroke="#63b8ff" d="M1014.89,-334.5C1014.89,-325.3 1014.89,-313.64 1014.89,-303.74"/>
<polygon fill="#63b8ff" stroke="#63b8ff" points="1018.39,-303.82 1014.89,-293.82 1011.39,-303.82 1018.39,-303.82"/>
</g>
</g>
</svg>
        <g id="navigator" transform="translate(0 0)" fill="#404254">
                <rect fill="#f2f5e9" fill-opacity="0.5" stroke="#606060" stroke-width=".5" x="0" y="0" width="60" height="60"/>
                <use id="zoomplus" xlink:href="#zoomPlus" x="17" y="9" onmousedown="handleZoom(evt,'in')"/>
                <use id="zoomminus" xlink:href="#zoomMin" x="42" y="9" onmousedown="handleZoom(evt,'out')"/>
                <use id="reset" xlink:href="#resetDef" x="30" y="36" onmousedown="handleReset()"/>
                <g id="arrowUp" xlink:href="#dirArrow" transform="translate(30 24)" onmousedown="handlePan(0,-1)">
                  <use xlink:href="#rim" fill="#404040">
                        <set attributeName="fill" to="#808080" begin="arrowUp.mouseover" end="arrowUp.mouseout"/>
                  </use>
                  <path fill="none" stroke="white" stroke-width="1.5" d="M0,-3.0v7 M-2.5,-0.5L0,-3.0L2.5,-0.5"/>
                </g>
                <g id="arrowRight" xlink:href="#dirArrow" transform="rotate(90) translate(36 -43)" onmousedown="handlePan(1,0)">
                  <use xlink:href="#rim" fill="#404040">
                        <set attributeName="fill" to="#808080" begin="arrowRight.mouseover" end="arrowRight.mouseout"/>
                  </use>
                  <path fill="none" stroke="white" stroke-width="1.5" d="M0,-3.0v7 M-2.5,-0.5L0,-3.0L2.5,-0.5"/>
                </g>
                <g id="arrowDown" xlink:href="#dirArrow" transform="rotate(180) translate(-30 -48)" onmousedown="handlePan(0,1)">
                  <use xlink:href="#rim" fill="#404040">
                        <set attributeName="fill" to="#808080" begin="arrowDown.mouseover" end="arrowDown.mouseout"/>
                  </use>
                  <path fill="none" stroke="white" stroke-width="1.5" d="M0,-3.0v7 M-2.5,-0.5L0,-3.0L2.5,-0.5"/>
                </g>
                <g id="arrowLeft" xlink:href="#dirArrow" transform="rotate(270) translate(-36 17)" onmousedown="handlePan(-1,0)">
                  <use xlink:href="#rim" fill="#404040">
                        <set attributeName="fill" to="#808080" begin="arrowLeft.mouseover" end="arrowLeft.mouseout"/>
                  </use>
                  <path fill="none" stroke="white" stroke-width="1.5" d="M0,-3.0v7 M-2.5,-0.5L0,-3.0L2.5,-0.5"/>
                </g>
        </g>
        <svg viewBox="0 0 15 15" width="100%" height="30px" preserveAspectRatio="xMaxYMin meet">
         <g id="arrow_out" transform="scale(0.3 0.3)">
          <a xlink:href="nullables_8hpp__incl_org.svg" target="_base">
           <rect id="button" ry="5" rx="5" y="6" x="6" height="38" width="38"
                fill="#f2f5e9" fill-opacity="0.5" stroke="#606060" stroke-width="1.0"/>
           <path id="arrow"
             d="M 11.500037,31.436501 C 11.940474,20.09759 22.043105,11.32322 32.158766,21.979434 L 37.068811,17.246167 C 37.068811,17.246167 37.088388,32 37.088388,32 L 22.160133,31.978069 C 22.160133,31.978069 26.997745,27.140456 26.997745,27.140456 C 18.528582,18.264221 13.291696,25.230495 11.500037,31.436501 z"
             style="fill:#404040;"/>
          </a>
         </g>
        </svg>
</svg>
