<?xml version="1.0" encoding="UTF-8" standalone="no"?>
<!DOCTYPE svg PUBLIC "-//W3C//DTD SVG 1.1//EN"
 "http://www.w3.org/Graphics/SVG/1.1/DTD/svg11.dtd">
<!-- Generated by graphviz version 2.43.0 (0)
 -->
<!-- Title: /home/runner/work/Simple&#45;Utility/Simple&#45;Utility/include/Simple&#45;Utility/nullables.hpp Pages: 1 -->
<svg width="1138pt" height="452pt"
 viewBox="0.00 0.00 1138.16 452.00" xmlns="http://www.w3.org/2000/svg" xmlns:xlink="http://www.w3.org/1999/xlink">
<g id="graph0" class="graph" transform="scale(1 1) rotate(0) translate(4 448)">
<title>/home/runner/work/Simple&#45;Utility/Simple&#45;Utility/include/Simple&#45;Utility/nullables.hpp</title>
<polygon fill="white" stroke="transparent" points="-4,4 -4,-448 1134.16,-448 1134.16,4 -4,4"/>
<!-- Node1 -->
<g id="node1" class="node">
<title>Node1</title>
<g id="a_node1"><a xlink:title=" ">
<polygon fill="#bfbfbf" stroke="black" points="552.66,-391.5 552.66,-443.5 698.66,-443.5 698.66,-391.5 552.66,-391.5"/>
<text text-anchor="start" x="560.66" y="-431.5" font-family="Helvetica,sans-Serif" font-size="10.00">/home/runner/work/Simple</text>
<text text-anchor="start" x="560.66" y="-420.5" font-family="Helvetica,sans-Serif" font-size="10.00">&#45;Utility/Simple&#45;Utility</text>
<text text-anchor="start" x="560.66" y="-409.5" font-family="Helvetica,sans-Serif" font-size="10.00">/include/Simple&#45;Utility</text>
<text text-anchor="middle" x="625.66" y="-398.5" font-family="Helvetica,sans-Serif" font-size="10.00">/nullables.hpp</text>
</a>
</g>
</g>
<!-- Node2 -->
<g id="node2" class="node">
<title>Node2</title>
<g id="a_node2"><a xlink:href="../../d6/dbe/nullables_2base_8hpp.html" target="_top" xlink:title=" ">
<polygon fill="white" stroke="black" points="509.16,-257.5 509.16,-287.5 640.16,-287.5 640.16,-257.5 509.16,-257.5"/>
<text text-anchor="start" x="517.16" y="-275.5" font-family="Helvetica,sans-Serif" font-size="10.00">Simple&#45;Utility/nullables</text>
<text text-anchor="middle" x="574.66" y="-264.5" font-family="Helvetica,sans-Serif" font-size="10.00">/base.hpp</text>
</a>
</g>
</g>
<!-- Node1&#45;&gt;Node2 -->
<g id="edge1" class="edge">
<title>Node1&#45;&gt;Node2</title>
<path fill="none" stroke="midnightblue" d="M643.02,-391.43C654.05,-372.15 664.25,-345.31 652.66,-324 645.4,-310.64 632.91,-300.28 620.03,-292.51"/>
<polygon fill="midnightblue" stroke="midnightblue" points="621.55,-289.35 611.11,-287.54 618.14,-295.46 621.55,-289.35"/>
</g>
<!-- Node17 -->
<g id="node17" class="node">
<title>Node17</title>
<g id="a_node17"><a xlink:href="../../d6/dca/adapter_8hpp.html" target="_top" xlink:title=" ">
<polygon fill="white" stroke="black" points="701.16,-324.5 701.16,-354.5 832.16,-354.5 832.16,-324.5 701.16,-324.5"/>
<text text-anchor="start" x="709.16" y="-342.5" font-family="Helvetica,sans-Serif" font-size="10.00">Simple&#45;Utility/nullables</text>
<text text-anchor="middle" x="766.66" y="-331.5" font-family="Helvetica,sans-Serif" font-size="10.00">/adapter.hpp</text>
</a>
</g>
</g>
<!-- Node1&#45;&gt;Node17 -->
<g id="edge27" class="edge">
<title>Node1&#45;&gt;Node17</title>
<path fill="none" stroke="midnightblue" d="M672.22,-391.4C691.48,-381.02 713.45,-369.18 731.35,-359.53"/>
<polygon fill="midnightblue" stroke="midnightblue" points="733.16,-362.53 740.31,-354.71 729.84,-356.37 733.16,-362.53"/>
</g>
<!-- Node20 -->
<g id="node20" class="node">
<title>Node20</title>
<g id="a_node20"><a xlink:href="../../d4/dc9/and__then_8hpp.html" target="_top" xlink:title=" ">
<polygon fill="white" stroke="black" points="364.16,-324.5 364.16,-354.5 495.16,-354.5 495.16,-324.5 364.16,-324.5"/>
<text text-anchor="start" x="372.16" y="-342.5" font-family="Helvetica,sans-Serif" font-size="10.00">Simple&#45;Utility/nullables</text>
<text text-anchor="middle" x="429.66" y="-331.5" font-family="Helvetica,sans-Serif" font-size="10.00">/and_then.hpp</text>
</a>
</g>
</g>
<!-- Node1&#45;&gt;Node20 -->
<g id="edge33" class="edge">
<title>Node1&#45;&gt;Node20</title>
<path fill="none" stroke="midnightblue" d="M560.94,-391.4C532.96,-380.55 500.87,-368.11 475.42,-358.24"/>
<polygon fill="midnightblue" stroke="midnightblue" points="476.61,-354.95 466.02,-354.6 474.08,-361.48 476.61,-354.95"/>
</g>
<!-- Node23 -->
<g id="node23" class="node">
<title>Node23</title>
<g id="a_node23"><a xlink:href="../../d7/d5f/fwd__value_8hpp.html" target="_top" xlink:title=" ">
<polygon fill="white" stroke="black" points="513.16,-324.5 513.16,-354.5 644.16,-354.5 644.16,-324.5 513.16,-324.5"/>
<text text-anchor="start" x="521.16" y="-342.5" font-family="Helvetica,sans-Serif" font-size="10.00">Simple&#45;Utility/nullables</text>
<text text-anchor="middle" x="578.66" y="-331.5" font-family="Helvetica,sans-Serif" font-size="10.00">/fwd_value.hpp</text>
</a>
</g>
</g>
<!-- Node1&#45;&gt;Node23 -->
<g id="edge42" class="edge">
<title>Node1&#45;&gt;Node23</title>
<path fill="none" stroke="midnightblue" d="M610.01,-391.19C604.46,-382.22 598.25,-372.18 592.83,-363.42"/>
<polygon fill="midnightblue" stroke="midnightblue" points="595.77,-361.51 587.53,-354.85 589.82,-365.19 595.77,-361.51"/>
</g>
<!-- Node24 -->
<g id="node24" class="node">
<title>Node24</title>
<g id="a_node24"><a xlink:href="../../d2/d0e/or__else_8hpp.html" target="_top" xlink:title=" ">
<polygon fill="white" stroke="black" points="215.16,-324.5 215.16,-354.5 346.16,-354.5 346.16,-324.5 215.16,-324.5"/>
<text text-anchor="start" x="223.16" y="-342.5" font-family="Helvetica,sans-Serif" font-size="10.00">Simple&#45;Utility/nullables</text>
<text text-anchor="middle" x="280.66" y="-331.5" font-family="Helvetica,sans-Serif" font-size="10.00">/or_else.hpp</text>
</a>
</g>
</g>
<!-- Node1&#45;&gt;Node24 -->
<g id="edge45" class="edge">
<title>Node1&#45;&gt;Node24</title>
<path fill="none" stroke="midnightblue" d="M552.5,-400.38C494.16,-387.53 412.83,-369.61 354.35,-356.73"/>
<polygon fill="midnightblue" stroke="midnightblue" points="354.96,-353.28 344.44,-354.55 353.46,-360.12 354.96,-353.28"/>
</g>
<!-- Node25 -->
<g id="node25" class="node">
<title>Node25</title>
<g id="a_node25"><a xlink:href="../../d0/d48/value__or_8hpp.html" target="_top" xlink:title=" ">
<polygon fill="white" stroke="black" points="66.16,-324.5 66.16,-354.5 197.16,-354.5 197.16,-324.5 66.16,-324.5"/>
<text text-anchor="start" x="74.16" y="-342.5" font-family="Helvetica,sans-Serif" font-size="10.00">Simple&#45;Utility/nullables</text>
<text text-anchor="middle" x="131.66" y="-331.5" font-family="Helvetica,sans-Serif" font-size="10.00">/value_or.hpp</text>
</a>
</g>
</g>
<!-- Node1&#45;&gt;Node25 -->
<g id="edge48" class="edge">
<title>Node1&#45;&gt;Node25</title>
<path fill="none" stroke="midnightblue" d="M552.65,-406.89C470.87,-395.89 334.13,-376.76 207.29,-355.24"/>
<polygon fill="midnightblue" stroke="midnightblue" points="207.85,-351.78 197.4,-353.55 206.67,-358.68 207.85,-351.78"/>
</g>
<!-- Node27 -->
<g id="node27" class="node">
<title>Node27</title>
<g id="a_node27"><a xlink:href="../../d9/d20/std__optional_8hpp.html" target="_top" xlink:title=" ">
<polygon fill="white" stroke="black" points="850.16,-324.5 850.16,-354.5 981.16,-354.5 981.16,-324.5 850.16,-324.5"/>
<text text-anchor="start" x="858.16" y="-342.5" font-family="Helvetica,sans-Serif" font-size="10.00">Simple&#45;Utility/nullables</text>
<text text-anchor="middle" x="915.66" y="-331.5" font-family="Helvetica,sans-Serif" font-size="10.00">/std_optional.hpp</text>
</a>
</g>
</g>
<!-- Node1&#45;&gt;Node27 -->
<g id="edge58" class="edge">
<title>Node1&#45;&gt;Node27</title>
<path fill="none" stroke="midnightblue" d="M698.84,-397.32C746.21,-384.91 807.25,-368.91 852.49,-357.05"/>
<polygon fill="midnightblue" stroke="midnightblue" points="853.4,-360.44 862.19,-354.51 851.63,-353.66 853.4,-360.44"/>
</g>
<!-- Node29 -->
<g id="node29" class="node">
<title>Node29</title>
<g id="a_node29"><a xlink:href="../../d8/d9a/std__pointers_8hpp.html" target="_top" xlink:title=" ">
<polygon fill="white" stroke="black" points="999.16,-324.5 999.16,-354.5 1130.16,-354.5 1130.16,-324.5 999.16,-324.5"/>
<text text-anchor="start" x="1007.16" y="-342.5" font-family="Helvetica,sans-Serif" font-size="10.00">Simple&#45;Utility/nullables</text>
<text text-anchor="middle" x="1064.66" y="-331.5" font-family="Helvetica,sans-Serif" font-size="10.00">/std_pointers.hpp</text>
</a>
</g>
</g>
<!-- Node1&#45;&gt;Node29 -->
<g id="edge61" class="edge">
<title>Node1&#45;&gt;Node29</title>
<path fill="none" stroke="midnightblue" d="M698.82,-404.76C770.35,-393.15 882.62,-374.57 988.97,-355.29"/>
<polygon fill="midnightblue" stroke="midnightblue" points="989.7,-358.71 998.91,-353.48 988.45,-351.82 989.7,-358.71"/>
</g>
<!-- Node3 -->
<g id="node3" class="node">
<title>Node3</title>
<g id="a_node3"><a xlink:href="../../dd/d5c/stl__extensions_8hpp.html" target="_top" xlink:title=" ">
<polygon fill="white" stroke="black" points="865.16,-56.5 865.16,-86.5 996.16,-86.5 996.16,-56.5 865.16,-56.5"/>
<text text-anchor="start" x="873.16" y="-74.5" font-family="Helvetica,sans-Serif" font-size="10.00">Simple&#45;Utility/concepts</text>
<text text-anchor="middle" x="930.66" y="-63.5" font-family="Helvetica,sans-Serif" font-size="10.00">/stl_extensions.hpp</text>
</a>
</g>
</g>
<!-- Node2&#45;&gt;Node3 -->
<g id="edge2" class="edge">
<title>Node2&#45;&gt;Node3</title>
<path fill="none" stroke="midnightblue" d="M584.95,-257.1C607.09,-227.22 662.42,-158.32 725.66,-123 737.37,-116.46 802.72,-100.89 856.54,-88.75"/>
<polygon fill="midnightblue" stroke="midnightblue" points="857.45,-92.13 866.44,-86.53 855.91,-85.3 857.45,-92.13"/>
</g>
<!-- Node5 -->
<g id="node5" class="node">
<title>Node5</title>
<g id="a_node5"><a xlink:href="../../dd/dcd/operators_8hpp.html" target="_top" xlink:title=" ">
<polygon fill="white" stroke="black" points="734.16,-123.5 734.16,-153.5 865.16,-153.5 865.16,-123.5 734.16,-123.5"/>
<text text-anchor="start" x="742.16" y="-141.5" font-family="Helvetica,sans-Serif" font-size="10.00">Simple&#45;Utility/concepts</text>
<text text-anchor="middle" x="799.66" y="-130.5" font-family="Helvetica,sans-Serif" font-size="10.00">/operators.hpp</text>
</a>
</g>
</g>
<!-- Node2&#45;&gt;Node5 -->
<g id="edge4" class="edge">
<title>Node2&#45;&gt;Node5</title>
<path fill="none" stroke="midnightblue" d="M598.74,-257.37C639.34,-233.56 721.44,-185.39 767.13,-158.59"/>
<polygon fill="midnightblue" stroke="midnightblue" points="768.9,-161.6 775.76,-153.52 765.36,-155.57 768.9,-161.6"/>
</g>
<!-- Node6 -->
<g id="node6" class="node">
<title>Node6</title>
<g id="a_node6"><a xlink:href="../../d1/d76/functional_2base_8hpp.html" target="_top" xlink:title=" ">
<polygon fill="white" stroke="black" points="423.66,-123.5 423.66,-153.5 559.66,-153.5 559.66,-123.5 423.66,-123.5"/>
<text text-anchor="start" x="431.66" y="-141.5" font-family="Helvetica,sans-Serif" font-size="10.00">Simple&#45;Utility/functional</text>
<text text-anchor="middle" x="491.66" y="-130.5" font-family="Helvetica,sans-Serif" font-size="10.00">/base.hpp</text>
</a>
</g>
</g>
<!-- Node2&#45;&gt;Node6 -->
<g id="edge6" class="edge">
<title>Node2&#45;&gt;Node6</title>
<path fill="none" stroke="midnightblue" d="M563.89,-257.17C556.53,-247.2 546.7,-233.5 538.66,-221 526.26,-201.7 513.32,-179.05 504.17,-162.53"/>
<polygon fill="midnightblue" stroke="midnightblue" points="507.13,-160.66 499.25,-153.59 501,-164.04 507.13,-160.66"/>
</g>
<!-- Node8 -->
<g id="node8" class="node">
<title>Node8</title>
<g id="a_node8"><a xlink:title=" ">
<polygon fill="white" stroke="#bfbfbf" points="48.16,-0.5 48.16,-19.5 117.16,-19.5 117.16,-0.5 48.16,-0.5"/>
<text text-anchor="middle" x="82.66" y="-7.5" font-family="Helvetica,sans-Serif" font-size="10.00">type_traits</text>
</a>
</g>
</g>
<!-- Node2&#45;&gt;Node8 -->
<g id="edge26" class="edge">
<title>Node2&#45;&gt;Node8</title>
<path fill="none" stroke="midnightblue" d="M509.08,-265.43C387.88,-254.03 139.56,-229.8 122.66,-221 52.28,-184.35 32.69,-161.24 4.66,-87 -0.2,-74.11 -2.23,-67.93 4.66,-56 13.34,-40.98 29.15,-30.52 44.28,-23.5"/>
<polygon fill="midnightblue" stroke="midnightblue" points="45.71,-26.69 53.54,-19.56 42.97,-20.25 45.71,-26.69"/>
</g>
<!-- Node10 -->
<g id="node10" class="node">
<title>Node10</title>
<g id="a_node10"><a xlink:href="../../d4/d1c/unified__base_8hpp.html" target="_top" xlink:title=" ">
<polygon fill="white" stroke="black" points="22.66,-56.5 22.66,-86.5 142.66,-86.5 142.66,-56.5 22.66,-56.5"/>
<text text-anchor="start" x="30.66" y="-74.5" font-family="Helvetica,sans-Serif" font-size="10.00">Simple&#45;Utility/unified</text>
<text text-anchor="middle" x="82.66" y="-63.5" font-family="Helvetica,sans-Serif" font-size="10.00">_base.hpp</text>
</a>
</g>
</g>
<!-- Node2&#45;&gt;Node10 -->
<g id="edge24" class="edge">
<title>Node2&#45;&gt;Node10</title>
<path fill="none" stroke="midnightblue" d="M509.04,-265.27C394.52,-254.16 168.9,-231.15 154.66,-221 112.98,-191.28 94.41,-130.71 86.99,-96.83"/>
<polygon fill="midnightblue" stroke="midnightblue" points="90.38,-95.94 84.96,-86.84 83.53,-97.34 90.38,-95.94"/>
</g>
<!-- Node12 -->
<g id="node12" class="node">
<title>Node12</title>
<g id="a_node12"><a xlink:href="../../d9/d76/bind_8hpp.html" target="_top" xlink:title=" ">
<polygon fill="white" stroke="black" points="317.66,-190.5 317.66,-220.5 453.66,-220.5 453.66,-190.5 317.66,-190.5"/>
<text text-anchor="start" x="325.66" y="-208.5" font-family="Helvetica,sans-Serif" font-size="10.00">Simple&#45;Utility/functional</text>
<text text-anchor="middle" x="385.66" y="-197.5" font-family="Helvetica,sans-Serif" font-size="10.00">/operators/bind.hpp</text>
</a>
</g>
</g>
<!-- Node2&#45;&gt;Node12 -->
<g id="edge17" class="edge">
<title>Node2&#45;&gt;Node12</title>
<path fill="none" stroke="midnightblue" d="M533.65,-257.4C505.05,-247.56 466.69,-234.37 436.19,-223.88"/>
<polygon fill="midnightblue" stroke="midnightblue" points="437.19,-220.52 426.59,-220.58 434.91,-227.14 437.19,-220.52"/>
</g>
<!-- Node16 -->
<g id="node16" class="node">
<title>Node16</title>
<g id="a_node16"><a xlink:title=" ">
<polygon fill="white" stroke="#bfbfbf" points="548.16,-196 548.16,-215 601.16,-215 601.16,-196 548.16,-196"/>
<text text-anchor="middle" x="574.66" y="-203" font-family="Helvetica,sans-Serif" font-size="10.00">cstddef</text>
</a>
</g>
</g>
<!-- Node2&#45;&gt;Node16 -->
<g id="edge25" class="edge">
<title>Node2&#45;&gt;Node16</title>
<path fill="none" stroke="midnightblue" d="M574.66,-257.4C574.66,-248.06 574.66,-235.71 574.66,-225.52"/>
<polygon fill="midnightblue" stroke="midnightblue" points="578.16,-225.19 574.66,-215.19 571.16,-225.19 578.16,-225.19"/>
</g>
<!-- Node4 -->
<g id="node4" class="node">
<title>Node4</title>
<g id="a_node4"><a xlink:title=" ">
<polygon fill="white" stroke="#bfbfbf" points="657.66,-0.5 657.66,-19.5 717.66,-19.5 717.66,-0.5 657.66,-0.5"/>
<text text-anchor="middle" x="687.66" y="-7.5" font-family="Helvetica,sans-Serif" font-size="10.00">concepts</text>
</a>
</g>
</g>
<!-- Node3&#45;&gt;Node4 -->
<g id="edge3" class="edge">
<title>Node3&#45;&gt;Node4</title>
<path fill="none" stroke="midnightblue" d="M873.38,-56.47C828.59,-45.51 767.46,-30.54 727.78,-20.82"/>
<polygon fill="midnightblue" stroke="midnightblue" points="728.47,-17.39 717.92,-18.41 726.8,-24.19 728.47,-17.39"/>
</g>
<!-- Node5&#45;&gt;Node4 -->
<g id="edge5" class="edge">
<title>Node5&#45;&gt;Node4</title>
<path fill="none" stroke="midnightblue" d="M865.33,-133.1C940.82,-125.63 1049.1,-106.02 1005.66,-56 970.18,-15.14 805.66,-10.37 728.2,-10.45"/>
<polygon fill="midnightblue" stroke="midnightblue" points="727.86,-6.96 717.87,-10.5 727.88,-13.96 727.86,-6.96"/>
</g>
<!-- Node6&#45;&gt;Node3 -->
<g id="edge14" class="edge">
<title>Node6&#45;&gt;Node3</title>
<path fill="none" stroke="midnightblue" d="M559.78,-129.23C631,-120.33 746.26,-105.18 854.79,-87.26"/>
<polygon fill="midnightblue" stroke="midnightblue" points="855.64,-90.67 864.93,-85.58 854.49,-83.77 855.64,-90.67"/>
</g>
<!-- Node6&#45;&gt;Node4 -->
<g id="edge7" class="edge">
<title>Node6&#45;&gt;Node4</title>
<path fill="none" stroke="midnightblue" d="M559.7,-134.17C596.66,-128.82 640.44,-116.17 668.66,-87 683.34,-71.83 687.2,-47.13 687.97,-30.02"/>
<polygon fill="midnightblue" stroke="midnightblue" points="691.48,-29.64 688.1,-19.6 684.48,-29.56 691.48,-29.64"/>
</g>
<!-- Node7 -->
<g id="node7" class="node">
<title>Node7</title>
<g id="a_node7"><a xlink:title=" ">
<polygon fill="white" stroke="#bfbfbf" points="398.16,-62 398.16,-81 463.16,-81 463.16,-62 398.16,-62"/>
<text text-anchor="middle" x="430.66" y="-69" font-family="Helvetica,sans-Serif" font-size="10.00">functional</text>
</a>
</g>
</g>
<!-- Node6&#45;&gt;Node7 -->
<g id="edge8" class="edge">
<title>Node6&#45;&gt;Node7</title>
<path fill="none" stroke="midnightblue" d="M478.43,-123.4C468.82,-113.16 455.81,-99.3 445.79,-88.62"/>
<polygon fill="midnightblue" stroke="midnightblue" points="448.22,-86.09 438.82,-81.19 443.11,-90.88 448.22,-86.09"/>
</g>
<!-- Node6&#45;&gt;Node8 -->
<g id="edge9" class="edge">
<title>Node6&#45;&gt;Node8</title>
<path fill="none" stroke="midnightblue" d="M492.67,-123.25C493.11,-104.76 490.79,-72.86 471.66,-56 446.23,-33.58 224.24,-18.78 127.45,-13.33"/>
<polygon fill="midnightblue" stroke="midnightblue" points="127.57,-9.83 117.39,-12.78 127.18,-16.82 127.57,-9.83"/>
</g>
<!-- Node9 -->
<g id="node9" class="node">
<title>Node9</title>
<g id="a_node9"><a xlink:href="../../d8/dd2/_config_8hpp.html" target="_top" xlink:title=" ">
<polygon fill="white" stroke="black" points="520.16,-62 520.16,-81 659.16,-81 659.16,-62 520.16,-62"/>
<text text-anchor="middle" x="589.66" y="-69" font-family="Helvetica,sans-Serif" font-size="10.00">Simple&#45;Utility/Config.hpp</text>
</a>
</g>
</g>
<!-- Node6&#45;&gt;Node9 -->
<g id="edge10" class="edge">
<title>Node6&#45;&gt;Node9</title>
<path fill="none" stroke="midnightblue" d="M512.93,-123.4C529.36,-112.5 552,-97.48 568.43,-86.58"/>
<polygon fill="midnightblue" stroke="midnightblue" points="570.44,-89.45 576.84,-81.01 566.57,-83.62 570.44,-89.45"/>
</g>
<!-- Node6&#45;&gt;Node10 -->
<g id="edge11" class="edge">
<title>Node6&#45;&gt;Node10</title>
<path fill="none" stroke="midnightblue" d="M423.6,-124.87C419.9,-124.23 416.24,-123.6 412.66,-123 323.1,-107.93 219.53,-92.39 152.66,-82.6"/>
<polygon fill="midnightblue" stroke="midnightblue" points="153.06,-79.12 142.66,-81.14 152.05,-86.05 153.06,-79.12"/>
</g>
<!-- Node11 -->
<g id="node11" class="node">
<title>Node11</title>
<g id="a_node11"><a xlink:href="../../d5/d8e/concepts_2utility_8hpp.html" target="_top" xlink:title=" ">
<polygon fill="white" stroke="black" points="716.16,-56.5 716.16,-86.5 847.16,-86.5 847.16,-56.5 716.16,-56.5"/>
<text text-anchor="start" x="724.16" y="-74.5" font-family="Helvetica,sans-Serif" font-size="10.00">Simple&#45;Utility/concepts</text>
<text text-anchor="middle" x="781.66" y="-63.5" font-family="Helvetica,sans-Serif" font-size="10.00">/utility.hpp</text>
</a>
</g>
</g>
<!-- Node6&#45;&gt;Node11 -->
<g id="edge15" class="edge">
<title>Node6&#45;&gt;Node11</title>
<path fill="none" stroke="midnightblue" d="M554.23,-123.48C599.62,-113.3 661.15,-99.51 708.77,-88.84"/>
<polygon fill="midnightblue" stroke="midnightblue" points="709.71,-92.21 718.71,-86.61 708.18,-85.38 709.71,-92.21"/>
</g>
<!-- Node10&#45;&gt;Node4 -->
<g id="edge12" class="edge">
<title>Node10&#45;&gt;Node4</title>
<path fill="none" stroke="midnightblue" d="M142.75,-58.16C147.44,-57.37 152.12,-56.63 156.66,-56 338.92,-30.5 558.53,-17.46 647.41,-12.91"/>
<polygon fill="midnightblue" stroke="midnightblue" points="647.78,-16.4 657.59,-12.4 647.43,-9.41 647.78,-16.4"/>
</g>
<!-- Node10&#45;&gt;Node8 -->
<g id="edge13" class="edge">
<title>Node10&#45;&gt;Node8</title>
<path fill="none" stroke="midnightblue" d="M82.66,-56.4C82.66,-48.47 82.66,-38.46 82.66,-29.86"/>
<polygon fill="midnightblue" stroke="midnightblue" points="86.16,-29.66 82.66,-19.66 79.16,-29.66 86.16,-29.66"/>
</g>
<!-- Node11&#45;&gt;Node4 -->
<g id="edge16" class="edge">
<title>Node11&#45;&gt;Node4</title>
<path fill="none" stroke="midnightblue" d="M759.39,-56.4C744.46,-46.95 724.88,-34.56 709.95,-25.11"/>
<polygon fill="midnightblue" stroke="midnightblue" points="711.66,-22.05 701.34,-19.66 707.92,-27.96 711.66,-22.05"/>
</g>
<!-- Node12&#45;&gt;Node6 -->
<g id="edge18" class="edge">
<title>Node12&#45;&gt;Node6</title>
<path fill="none" stroke="midnightblue" d="M408.66,-190.4C423.66,-181.2 443.45,-169.07 459.94,-158.95"/>
<polygon fill="midnightblue" stroke="midnightblue" points="462.01,-161.79 468.71,-153.58 458.35,-155.82 462.01,-161.79"/>
</g>
<!-- Node13 -->
<g id="node13" class="node">
<title>Node13</title>
<g id="a_node13"><a xlink:href="../../d2/d30/general_8hpp.html" target="_top" xlink:title=" ">
<polygon fill="white" stroke="black" points="165.66,-123.5 165.66,-153.5 277.66,-153.5 277.66,-123.5 165.66,-123.5"/>
<text text-anchor="start" x="173.66" y="-141.5" font-family="Helvetica,sans-Serif" font-size="10.00">Simple&#45;Utility/tuple</text>
<text text-anchor="middle" x="221.66" y="-130.5" font-family="Helvetica,sans-Serif" font-size="10.00">/general.hpp</text>
</a>
</g>
</g>
<!-- Node12&#45;&gt;Node13 -->
<g id="edge19" class="edge">
<title>Node12&#45;&gt;Node13</title>
<path fill="none" stroke="midnightblue" d="M350.08,-190.4C325.58,-180.69 292.84,-167.71 266.54,-157.29"/>
<polygon fill="midnightblue" stroke="midnightblue" points="267.76,-154.01 257.18,-153.58 265.18,-160.51 267.76,-154.01"/>
</g>
<!-- Node13&#45;&gt;Node4 -->
<g id="edge20" class="edge">
<title>Node13&#45;&gt;Node4</title>
<path fill="none" stroke="midnightblue" d="M208.16,-123.48C192.77,-105.81 171.92,-75.41 189.66,-56 220.33,-22.44 534.3,-13.67 647.36,-11.59"/>
<polygon fill="midnightblue" stroke="midnightblue" points="647.72,-15.09 657.66,-11.41 647.6,-8.09 647.72,-15.09"/>
</g>
<!-- Node13&#45;&gt;Node8 -->
<g id="edge22" class="edge">
<title>Node13&#45;&gt;Node8</title>
<path fill="none" stroke="midnightblue" d="M165.65,-131.64C110.62,-124.6 32.27,-110.66 13.66,-87 5.15,-76.17 7.1,-68.11 13.66,-56 21.41,-41.7 35.9,-31.22 49.6,-23.99"/>
<polygon fill="midnightblue" stroke="midnightblue" points="51.4,-27.01 58.87,-19.5 48.35,-20.71 51.4,-27.01"/>
</g>
<!-- Node14 -->
<g id="node14" class="node">
<title>Node14</title>
<g id="a_node14"><a xlink:title=" ">
<polygon fill="white" stroke="#bfbfbf" points="262.16,-62 262.16,-81 303.16,-81 303.16,-62 262.16,-62"/>
<text text-anchor="middle" x="282.66" y="-69" font-family="Helvetica,sans-Serif" font-size="10.00">tuple</text>
</a>
</g>
</g>
<!-- Node13&#45;&gt;Node14 -->
<g id="edge21" class="edge">
<title>Node13&#45;&gt;Node14</title>
<path fill="none" stroke="midnightblue" d="M234.9,-123.4C244.5,-113.16 257.52,-99.3 267.53,-88.62"/>
<polygon fill="midnightblue" stroke="midnightblue" points="270.21,-90.88 274.5,-81.19 265.11,-86.09 270.21,-90.88"/>
</g>
<!-- Node15 -->
<g id="node15" class="node">
<title>Node15</title>
<g id="a_node15"><a xlink:title=" ">
<polygon fill="white" stroke="#bfbfbf" points="199.16,-62 199.16,-81 244.16,-81 244.16,-62 199.16,-62"/>
<text text-anchor="middle" x="221.66" y="-69" font-family="Helvetica,sans-Serif" font-size="10.00">utility</text>
</a>
</g>
</g>
<!-- Node13&#45;&gt;Node15 -->
<g id="edge23" class="edge">
<title>Node13&#45;&gt;Node15</title>
<path fill="none" stroke="midnightblue" d="M221.66,-123.4C221.66,-114.06 221.66,-101.71 221.66,-91.52"/>
<polygon fill="midnightblue" stroke="midnightblue" points="225.16,-91.19 221.66,-81.19 218.16,-91.19 225.16,-91.19"/>
</g>
<!-- Node17&#45;&gt;Node2 -->
<g id="edge30" class="edge">
<title>Node17&#45;&gt;Node2</title>
<path fill="none" stroke="midnightblue" d="M725,-324.4C695.94,-314.56 656.98,-301.37 626,-290.88"/>
<polygon fill="midnightblue" stroke="midnightblue" points="626.84,-287.47 616.24,-287.58 624.59,-294.1 626.84,-287.47"/>
</g>
<!-- Node17&#45;&gt;Node3 -->
<g id="edge29" class="edge">
<title>Node17&#45;&gt;Node3</title>
<path fill="none" stroke="midnightblue" d="M812.73,-324.41C831.81,-316.47 852.7,-304.72 866.66,-288 914.19,-231.1 926.42,-139.98 929.57,-96.76"/>
<polygon fill="midnightblue" stroke="midnightblue" points="933.07,-96.82 930.2,-86.62 926.09,-96.38 933.07,-96.82"/>
</g>
<!-- Node17&#45;&gt;Node9 -->
<g id="edge28" class="edge">
<title>Node17&#45;&gt;Node9</title>
<path fill="none" stroke="midnightblue" d="M755.4,-324.12C747.69,-314.12 737.32,-300.42 728.66,-288 678.4,-215.93 623.02,-126.9 600.29,-89.9"/>
<polygon fill="midnightblue" stroke="midnightblue" points="603.21,-87.97 595,-81.27 597.24,-91.63 603.21,-87.97"/>
</g>
<!-- Node18 -->
<g id="node18" class="node">
<title>Node18</title>
<g id="a_node18"><a xlink:title=" ">
<polygon fill="white" stroke="#bfbfbf" points="737.66,-263 737.66,-282 789.66,-282 789.66,-263 737.66,-263"/>
<text text-anchor="middle" x="763.66" y="-270" font-family="Helvetica,sans-Serif" font-size="10.00">cassert</text>
</a>
</g>
</g>
<!-- Node17&#45;&gt;Node18 -->
<g id="edge31" class="edge">
<title>Node17&#45;&gt;Node18</title>
<path fill="none" stroke="midnightblue" d="M766.01,-324.4C765.58,-314.96 765,-302.45 764.52,-292.19"/>
<polygon fill="midnightblue" stroke="midnightblue" points="768.02,-292.02 764.06,-282.19 761.03,-292.35 768.02,-292.02"/>
</g>
<!-- Node19 -->
<g id="node19" class="node">
<title>Node19</title>
<g id="a_node19"><a xlink:title=" ">
<polygon fill="white" stroke="#bfbfbf" points="807.66,-263 807.66,-282 857.66,-282 857.66,-263 807.66,-263"/>
<text text-anchor="middle" x="832.66" y="-270" font-family="Helvetica,sans-Serif" font-size="10.00">ranges</text>
</a>
</g>
</g>
<!-- Node17&#45;&gt;Node19 -->
<g id="edge32" class="edge">
<title>Node17&#45;&gt;Node19</title>
<path fill="none" stroke="midnightblue" d="M780.98,-324.4C791.48,-314.06 805.73,-300.02 816.61,-289.31"/>
<polygon fill="midnightblue" stroke="midnightblue" points="819.16,-291.71 823.83,-282.19 814.25,-286.72 819.16,-291.71"/>
</g>
<!-- Node20&#45;&gt;Node2 -->
<g id="edge34" class="edge">
<title>Node20&#45;&gt;Node2</title>
<path fill="none" stroke="midnightblue" d="M461.12,-324.4C482.5,-314.81 510.97,-302.05 534.06,-291.7"/>
<polygon fill="midnightblue" stroke="midnightblue" points="535.57,-294.86 543.26,-287.58 532.7,-288.47 535.57,-294.86"/>
</g>
<!-- Node21 -->
<g id="node21" class="node">
<title>Node21</title>
<g id="a_node21"><a xlink:href="../../d6/deb/transform_8hpp.html" target="_top" xlink:title=" ">
<polygon fill="white" stroke="black" points="264.66,-257.5 264.66,-287.5 400.66,-287.5 400.66,-257.5 264.66,-257.5"/>
<text text-anchor="start" x="272.66" y="-275.5" font-family="Helvetica,sans-Serif" font-size="10.00">Simple&#45;Utility/functional</text>
<text text-anchor="middle" x="332.66" y="-264.5" font-family="Helvetica,sans-Serif" font-size="10.00">/transform.hpp</text>
</a>
</g>
</g>
<!-- Node20&#45;&gt;Node21 -->
<g id="edge35" class="edge">
<title>Node20&#45;&gt;Node21</title>
<path fill="none" stroke="midnightblue" d="M408.61,-324.4C395.01,-315.28 377.12,-303.29 362.11,-293.24"/>
<polygon fill="midnightblue" stroke="midnightblue" points="363.92,-290.24 353.67,-287.58 360.03,-296.05 363.92,-290.24"/>
</g>
<!-- Node21&#45;&gt;Node6 -->
<g id="edge37" class="edge">
<title>Node21&#45;&gt;Node6</title>
<path fill="none" stroke="midnightblue" d="M399.85,-257.44C422.26,-249.87 445.79,-238.36 462.66,-221 477.73,-205.5 485.02,-181.66 488.52,-163.77"/>
<polygon fill="midnightblue" stroke="midnightblue" points="491.99,-164.21 490.2,-153.77 485.09,-163.05 491.99,-164.21"/>
</g>
<!-- Node21&#45;&gt;Node10 -->
<g id="edge36" class="edge">
<title>Node21&#45;&gt;Node10</title>
<path fill="none" stroke="midnightblue" d="M264.61,-267.72C196.44,-262.34 98.3,-249.72 74.66,-221 45.64,-185.75 60.54,-128.33 72.52,-96.19"/>
<polygon fill="midnightblue" stroke="midnightblue" points="75.85,-97.3 76.25,-86.71 69.33,-94.74 75.85,-97.3"/>
</g>
<!-- Node21&#45;&gt;Node12 -->
<g id="edge38" class="edge">
<title>Node21&#45;&gt;Node12</title>
<path fill="none" stroke="midnightblue" d="M344.16,-257.4C351.04,-248.96 359.92,-238.07 367.71,-228.52"/>
<polygon fill="midnightblue" stroke="midnightblue" points="370.58,-230.54 374.18,-220.58 365.15,-226.11 370.58,-230.54"/>
</g>
<!-- Node22 -->
<g id="node22" class="node">
<title>Node22</title>
<g id="a_node22"><a xlink:href="../../d5/db7/pipe_8hpp.html" target="_top" xlink:title=" ">
<polygon fill="white" stroke="black" points="163.66,-190.5 163.66,-220.5 299.66,-220.5 299.66,-190.5 163.66,-190.5"/>
<text text-anchor="start" x="171.66" y="-208.5" font-family="Helvetica,sans-Serif" font-size="10.00">Simple&#45;Utility/functional</text>
<text text-anchor="middle" x="231.66" y="-197.5" font-family="Helvetica,sans-Serif" font-size="10.00">/operators/pipe.hpp</text>
</a>
</g>
</g>
<!-- Node21&#45;&gt;Node22 -->
<g id="edge39" class="edge">
<title>Node21&#45;&gt;Node22</title>
<path fill="none" stroke="midnightblue" d="M310.75,-257.4C296.58,-248.28 277.95,-236.29 262.33,-226.24"/>
<polygon fill="midnightblue" stroke="midnightblue" points="263.84,-223.05 253.53,-220.58 260.05,-228.93 263.84,-223.05"/>
</g>
<!-- Node22&#45;&gt;Node6 -->
<g id="edge40" class="edge">
<title>Node22&#45;&gt;Node6</title>
<path fill="none" stroke="midnightblue" d="M287.76,-190.48C328.2,-180.37 382.93,-166.68 425.5,-156.04"/>
<polygon fill="midnightblue" stroke="midnightblue" points="426.37,-159.43 435.22,-153.61 424.67,-152.64 426.37,-159.43"/>
</g>
<!-- Node22&#45;&gt;Node13 -->
<g id="edge41" class="edge">
<title>Node22&#45;&gt;Node13</title>
<path fill="none" stroke="midnightblue" d="M229.49,-190.4C228.29,-182.56 226.75,-172.6 225.36,-163.57"/>
<polygon fill="midnightblue" stroke="midnightblue" points="228.81,-162.93 223.83,-153.58 221.89,-163.99 228.81,-162.93"/>
</g>
<!-- Node23&#45;&gt;Node2 -->
<g id="edge43" class="edge">
<title>Node23&#45;&gt;Node2</title>
<path fill="none" stroke="midnightblue" d="M577.79,-324.4C577.31,-316.56 576.7,-306.6 576.14,-297.57"/>
<polygon fill="midnightblue" stroke="midnightblue" points="579.64,-297.34 575.53,-287.58 572.65,-297.77 579.64,-297.34"/>
</g>
<!-- Node23&#45;&gt;Node21 -->
<g id="edge44" class="edge">
<title>Node23&#45;&gt;Node21</title>
<path fill="none" stroke="midnightblue" d="M525.59,-324.48C487.48,-314.41 435.98,-300.8 395.77,-290.17"/>
<polygon fill="midnightblue" stroke="midnightblue" points="396.63,-286.78 386.07,-287.61 394.84,-293.55 396.63,-286.78"/>
</g>
<!-- Node24&#45;&gt;Node2 -->
<g id="edge46" class="edge">
<title>Node24&#45;&gt;Node2</title>
<path fill="none" stroke="midnightblue" d="M344.09,-324.48C390.29,-314.26 452.97,-300.41 501.31,-289.72"/>
<polygon fill="midnightblue" stroke="midnightblue" points="502.08,-293.13 511.09,-287.55 500.57,-286.3 502.08,-293.13"/>
</g>
<!-- Node24&#45;&gt;Node21 -->
<g id="edge47" class="edge">
<title>Node24&#45;&gt;Node21</title>
<path fill="none" stroke="midnightblue" d="M291.95,-324.4C298.69,-315.96 307.41,-305.07 315.04,-295.52"/>
<polygon fill="midnightblue" stroke="midnightblue" points="317.89,-297.57 321.4,-287.58 312.42,-293.2 317.89,-297.57"/>
</g>
<!-- Node25&#45;&gt;Node2 -->
<g id="edge49" class="edge">
<title>Node25&#45;&gt;Node2</title>
<path fill="none" stroke="midnightblue" d="M197.39,-325.42C200.18,-324.93 202.95,-324.45 205.66,-324 306.63,-307.21 423.83,-291.88 498.57,-282.62"/>
<polygon fill="midnightblue" stroke="midnightblue" points="499.34,-286.05 508.83,-281.35 498.48,-279.1 499.34,-286.05"/>
</g>
<!-- Node25&#45;&gt;Node21 -->
<g id="edge50" class="edge">
<title>Node25&#45;&gt;Node21</title>
<path fill="none" stroke="midnightblue" d="M175.28,-324.4C205.83,-314.52 246.84,-301.25 279.34,-290.74"/>
<polygon fill="midnightblue" stroke="midnightblue" points="280.7,-293.98 289.13,-287.58 278.54,-287.32 280.7,-293.98"/>
</g>
<!-- Node26 -->
<g id="node26" class="node">
<title>Node26</title>
<g id="a_node26"><a xlink:href="../../d2/dc8/bind__back_8hpp.html" target="_top" xlink:title=" ">
<polygon fill="white" stroke="black" points="295.66,-123.5 295.66,-153.5 403.66,-153.5 403.66,-123.5 295.66,-123.5"/>
<text text-anchor="start" x="303.66" y="-141.5" font-family="Helvetica,sans-Serif" font-size="10.00">Simple&#45;Utility/bind</text>
<text text-anchor="middle" x="349.66" y="-130.5" font-family="Helvetica,sans-Serif" font-size="10.00">_back.hpp</text>
</a>
</g>
</g>
<!-- Node25&#45;&gt;Node26 -->
<g id="edge51" class="edge">
<title>Node25&#45;&gt;Node26</title>
<path fill="none" stroke="midnightblue" d="M129.21,-324.1C125.1,-294.82 120.35,-227.91 154.66,-190 159.23,-184.95 230.47,-167.34 285.53,-154.33"/>
<polygon fill="midnightblue" stroke="midnightblue" points="286.67,-157.66 295.6,-151.96 285.07,-150.85 286.67,-157.66"/>
</g>
<!-- Node26&#45;&gt;Node4 -->
<g id="edge53" class="edge">
<title>Node26&#45;&gt;Node4</title>
<path fill="none" stroke="midnightblue" d="M352.21,-123.41C356.36,-104.78 366.47,-72.42 388.66,-56 428.99,-26.17 575.72,-15.8 647.53,-12.46"/>
<polygon fill="midnightblue" stroke="midnightblue" points="647.73,-15.95 657.56,-12.01 647.42,-8.96 647.73,-15.95"/>
</g>
<!-- Node26&#45;&gt;Node7 -->
<g id="edge54" class="edge">
<title>Node26&#45;&gt;Node7</title>
<path fill="none" stroke="midnightblue" d="M367.24,-123.4C380.37,-112.86 398.29,-98.48 411.73,-87.69"/>
<polygon fill="midnightblue" stroke="midnightblue" points="414.22,-90.18 419.83,-81.19 409.84,-84.72 414.22,-90.18"/>
</g>
<!-- Node26&#45;&gt;Node8 -->
<g id="edge56" class="edge">
<title>Node26&#45;&gt;Node8</title>
<path fill="none" stroke="midnightblue" d="M347.12,-123.24C343.03,-104.74 333.17,-72.84 311.66,-56 283.6,-34.03 185.95,-21 127.61,-15"/>
<polygon fill="midnightblue" stroke="midnightblue" points="127.85,-11.51 117.55,-14 127.16,-18.48 127.85,-11.51"/>
</g>
<!-- Node26&#45;&gt;Node9 -->
<g id="edge52" class="edge">
<title>Node26&#45;&gt;Node9</title>
<path fill="none" stroke="midnightblue" d="M401.44,-123.48C445.4,-111.57 507.64,-94.72 548.32,-83.7"/>
<polygon fill="midnightblue" stroke="midnightblue" points="549.43,-87.02 558.17,-81.03 547.6,-80.26 549.43,-87.02"/>
</g>
<!-- Node26&#45;&gt;Node14 -->
<g id="edge55" class="edge">
<title>Node26&#45;&gt;Node14</title>
<path fill="none" stroke="midnightblue" d="M335.12,-123.4C324.47,-113.06 310,-99.02 298.96,-88.31"/>
<polygon fill="midnightblue" stroke="midnightblue" points="301.24,-85.65 291.62,-81.19 296.36,-90.67 301.24,-85.65"/>
</g>
<!-- Node26&#45;&gt;Node15 -->
<g id="edge57" class="edge">
<title>Node26&#45;&gt;Node15</title>
<path fill="none" stroke="midnightblue" d="M321.89,-123.4C299.73,-112.14 268.93,-96.5 247.34,-85.54"/>
<polygon fill="midnightblue" stroke="midnightblue" points="248.92,-82.41 238.41,-81.01 245.75,-88.66 248.92,-82.41"/>
</g>
<!-- Node27&#45;&gt;Node2 -->
<g id="edge59" class="edge">
<title>Node27&#45;&gt;Node2</title>
<path fill="none" stroke="midnightblue" d="M849.9,-325.59C847.12,-325.05 844.36,-324.52 841.66,-324 777.14,-311.58 703.8,-297.72 650.33,-287.67"/>
<polygon fill="midnightblue" stroke="midnightblue" points="650.72,-284.19 640.25,-285.78 649.43,-291.07 650.72,-284.19"/>
</g>
<!-- Node28 -->
<g id="node28" class="node">
<title>Node28</title>
<g id="a_node28"><a xlink:title=" ">
<polygon fill="white" stroke="#bfbfbf" points="921.66,-263 921.66,-282 977.66,-282 977.66,-263 921.66,-263"/>
<text text-anchor="middle" x="949.66" y="-270" font-family="Helvetica,sans-Serif" font-size="10.00">optional</text>
</a>
</g>
</g>
<!-- Node27&#45;&gt;Node28 -->
<g id="edge60" class="edge">
<title>Node27&#45;&gt;Node28</title>
<path fill="none" stroke="midnightblue" d="M923.04,-324.4C928.13,-314.66 934.94,-301.65 940.4,-291.21"/>
<polygon fill="midnightblue" stroke="midnightblue" points="943.58,-292.68 945.11,-282.19 937.38,-289.43 943.58,-292.68"/>
</g>
<!-- Node29&#45;&gt;Node2 -->
<g id="edge62" class="edge">
<title>Node29&#45;&gt;Node2</title>
<path fill="none" stroke="midnightblue" d="M998.94,-325.36C996.15,-324.89 993.38,-324.43 990.66,-324 872.36,-305.25 734.17,-289.73 650.6,-281.04"/>
<polygon fill="midnightblue" stroke="midnightblue" points="650.74,-277.54 640.43,-279.99 650.02,-284.5 650.74,-277.54"/>
</g>
<!-- Node30 -->
<g id="node30" class="node">
<title>Node30</title>
<g id="a_node30"><a xlink:title=" ">
<polygon fill="white" stroke="#bfbfbf" points="1035.66,-263 1035.66,-282 1093.66,-282 1093.66,-263 1035.66,-263"/>
<text text-anchor="middle" x="1064.66" y="-270" font-family="Helvetica,sans-Serif" font-size="10.00">memory</text>
</a>
</g>
</g>
<!-- Node29&#45;&gt;Node30 -->
<g id="edge63" class="edge">
<title>Node29&#45;&gt;Node30</title>
<path fill="none" stroke="midnightblue" d="M1064.66,-324.4C1064.66,-315.06 1064.66,-302.71 1064.66,-292.52"/>
<polygon fill="midnightblue" stroke="midnightblue" points="1068.16,-292.19 1064.66,-282.19 1061.16,-292.19 1068.16,-292.19"/>
</g>
</g>
</svg>
