<?xml version="1.0" encoding="UTF-8" standalone="no"?>
<!DOCTYPE svg PUBLIC "-//W3C//DTD SVG 1.1//EN"
 "http://www.w3.org/Graphics/SVG/1.1/DTD/svg11.dtd">
<!-- Generated by graphviz version 8.0.5 (20230430.1635)
 -->
<!-- Title: Simple&#45;Utility/nullables.hpp Pages: 1 -->
<!--zoomable 294 -->
<svg id="main" version="1.1" xmlns="http://www.w3.org/2000/svg" xmlns:xlink="http://www.w3.org/1999/xlink" xml:space="preserve" onload="init(evt)">
<style type="text/css"><![CDATA[
.edge:hover path { stroke: red; }
.edge:hover polygon { stroke: red; fill: red; }
]]></style>
<script type="text/javascript"><![CDATA[
var edges = document.getElementsByTagName('g');
if (edges && edges.length) {
  for (var i=0;i<edges.length;i++) {
    if (edges[i].id.substr(0,4)=='edge') {
      edges[i].setAttribute('class','edge');
    }
  }
}
]]></script>
        <defs>
                <circle id="rim" cx="0" cy="0" r="7"/>
                <circle id="rim2" cx="0" cy="0" r="3.5"/>
                <g id="zoomPlus">
                        <use xlink:href="#rim" fill="#404040">
                                <set attributeName="fill" to="#808080" begin="zoomplus.mouseover" end="zoomplus.mouseout"/>
                        </use>
                        <path d="M-4,0h8M0,-4v8" fill="none" stroke="white" stroke-width="1.5" pointer-events="none"/>
                </g>
                <g id="zoomMin">
                        <use xlink:href="#rim" fill="#404040">
                                <set attributeName="fill" to="#808080" begin="zoomminus.mouseover" end="zoomminus.mouseout"/>
                        </use>
                        <path d="M-4,0h8" fill="none" stroke="white" stroke-width="1.5" pointer-events="none"/>
                </g>
                <g id="dirArrow">
                        <path fill="none" stroke="white" stroke-width="1.5" d="M0,-3.0v7 M-2.5,-0.5L0,-3.0L2.5,-0.5"/>
                </g>
               <g id="resetDef">
                       <use xlink:href="#rim2" fill="#404040">
                               <set attributeName="fill" to="#808080" begin="reset.mouseover" end="reset.mouseout"/>
                       </use>
               </g>
        </defs>

<script type="text/javascript">
var viewWidth = 1014;
var viewHeight = 294;
var sectionId = 'dynsection-0';
</script>
<script xlink:href="../../svgpan.js"/>
<svg id="graph" class="graph">
<g id="viewport">
<title>Simple&#45;Utility/nullables.hpp</title>
<!-- Node1 -->
<g id="node1" class="node">
<title>Node1</title>
<g id="a_node1"><a xlink:title=" ">
<polygon fill="#999999" stroke="#666666" points="599.62,-286 456.88,-286 456.88,-265.25 599.62,-265.25 599.62,-286"/>
<text text-anchor="middle" x="528.25" y="-272.5" font-family="Helvetica,sans-Serif" font-size="10.00">Simple&#45;Utility/nullables.hpp</text>
</a>
</g>
</g>
<!-- Node2 -->
<g id="node2" class="node">
<title>Node2</title>
<g id="a_node2"><a xlink:href="../../dd/d3c/base_8hpp.html" target="_top" xlink:title=" ">
<polygon fill="white" stroke="#666666" points="546.5,-159.75 424,-159.75 424,-126.25 546.5,-126.25 546.5,-159.75"/>
<text text-anchor="start" x="432" y="-146.25" font-family="Helvetica,sans-Serif" font-size="10.00">Simple&#45;Utility/nullables</text>
<text text-anchor="middle" x="485.25" y="-133.5" font-family="Helvetica,sans-Serif" font-size="10.00">/base.hpp</text>
</a>
</g>
</g>
<!-- Node1&#45;&gt;Node2 -->
<g id="edge1" class="edge">
<title>Node1&#45;&gt;Node2</title>
<path fill="none" stroke="#63b8ff" d="M536.27,-264.8C547.69,-249.51 566.05,-219.35 554.25,-195.75 548.34,-183.93 538.3,-174.1 527.68,-166.31"/>
<polygon fill="#63b8ff" stroke="#63b8ff" points="529.95,-162.94 519.7,-160.24 526.03,-168.74 529.95,-162.94"/>
</g>
<!-- Node11 -->
<g id="node11" class="node">
<title>Node11</title>
<g id="a_node11"><a xlink:href="../../d6/dca/adapter_8hpp.html" target="_top" xlink:title=" ">
<polygon fill="white" stroke="#666666" points="723.5,-229.25 601,-229.25 601,-195.75 723.5,-195.75 723.5,-229.25"/>
<text text-anchor="start" x="609" y="-215.75" font-family="Helvetica,sans-Serif" font-size="10.00">Simple&#45;Utility/nullables</text>
<text text-anchor="middle" x="662.25" y="-203" font-family="Helvetica,sans-Serif" font-size="10.00">/adapter.hpp</text>
</a>
</g>
</g>
<!-- Node1&#45;&gt;Node11 -->
<g id="edge11" class="edge">
<title>Node1&#45;&gt;Node11</title>
<path fill="none" stroke="#63b8ff" d="M549.78,-264.8C567.82,-256.57 594.2,-244.54 616.88,-234.2"/>
<polygon fill="#63b8ff" stroke="#63b8ff" points="618.01,-237.07 625.66,-229.73 615.11,-230.7 618.01,-237.07"/>
</g>
<!-- Node14 -->
<g id="node14" class="node">
<title>Node14</title>
<g id="a_node14"><a xlink:href="../../d4/dc9/and__then_8hpp.html" target="_top" xlink:title=" ">
<polygon fill="white" stroke="#666666" points="545.5,-229.25 423,-229.25 423,-195.75 545.5,-195.75 545.5,-229.25"/>
<text text-anchor="start" x="431" y="-215.75" font-family="Helvetica,sans-Serif" font-size="10.00">Simple&#45;Utility/nullables</text>
<text text-anchor="middle" x="484.25" y="-203" font-family="Helvetica,sans-Serif" font-size="10.00">/and_then.hpp</text>
</a>
</g>
</g>
<!-- Node1&#45;&gt;Node14 -->
<g id="edge17" class="edge">
<title>Node1&#45;&gt;Node14</title>
<path fill="none" stroke="#63b8ff" d="M521.18,-264.8C516.08,-257.72 508.95,-247.81 502.31,-238.59"/>
<polygon fill="#63b8ff" stroke="#63b8ff" points="504.62,-236.81 495.94,-230.73 498.94,-240.9 504.62,-236.81"/>
</g>
<!-- Node18 -->
<g id="node18" class="node">
<title>Node18</title>
<g id="a_node18"><a xlink:href="../../d7/d5f/fwd__value_8hpp.html" target="_top" xlink:title=" ">
<polygon fill="white" stroke="#666666" points="122.5,-229.25 0,-229.25 0,-195.75 122.5,-195.75 122.5,-229.25"/>
<text text-anchor="start" x="8" y="-215.75" font-family="Helvetica,sans-Serif" font-size="10.00">Simple&#45;Utility/nullables</text>
<text text-anchor="middle" x="61.25" y="-203" font-family="Helvetica,sans-Serif" font-size="10.00">/fwd_value.hpp</text>
</a>
</g>
</g>
<!-- Node1&#45;&gt;Node18 -->
<g id="edge26" class="edge">
<title>Node1&#45;&gt;Node18</title>
<path fill="none" stroke="#63b8ff" d="M456.4,-268.66C379.14,-261.74 252.54,-248.92 133.5,-229.34"/>
<polygon fill="#63b8ff" stroke="#63b8ff" points="134.19,-225.74 123.75,-227.55 133.04,-232.65 134.19,-225.74"/>
</g>
<!-- Node19 -->
<g id="node19" class="node">
<title>Node19</title>
<g id="a_node19"><a xlink:href="../../d2/d0e/or__else_8hpp.html" target="_top" xlink:title=" ">
<polygon fill="white" stroke="#666666" points="263.5,-229.25 141,-229.25 141,-195.75 263.5,-195.75 263.5,-229.25"/>
<text text-anchor="start" x="149" y="-215.75" font-family="Helvetica,sans-Serif" font-size="10.00">Simple&#45;Utility/nullables</text>
<text text-anchor="middle" x="202.25" y="-203" font-family="Helvetica,sans-Serif" font-size="10.00">/or_else.hpp</text>
</a>
</g>
</g>
<!-- Node1&#45;&gt;Node19 -->
<g id="edge29" class="edge">
<title>Node1&#45;&gt;Node19</title>
<path fill="none" stroke="#63b8ff" d="M468.86,-264.79C419.52,-256.45 347.22,-243.85 274.52,-229.45"/>
<polygon fill="#63b8ff" stroke="#63b8ff" points="275.28,-225.84 264.79,-227.32 273.91,-232.7 275.28,-225.84"/>
</g>
<!-- Node20 -->
<g id="node20" class="node">
<title>Node20</title>
<g id="a_node20"><a xlink:href="../../d0/d48/value__or_8hpp.html" target="_top" xlink:title=" ">
<polygon fill="white" stroke="#666666" points="404.5,-229.25 282,-229.25 282,-195.75 404.5,-195.75 404.5,-229.25"/>
<text text-anchor="start" x="290" y="-215.75" font-family="Helvetica,sans-Serif" font-size="10.00">Simple&#45;Utility/nullables</text>
<text text-anchor="middle" x="343.25" y="-203" font-family="Helvetica,sans-Serif" font-size="10.00">/value_or.hpp</text>
</a>
</g>
</g>
<!-- Node1&#45;&gt;Node20 -->
<g id="edge32" class="edge">
<title>Node1&#45;&gt;Node20</title>
<path fill="none" stroke="#63b8ff" d="M498.53,-264.8C472.72,-256.28 434.57,-243.67 402.55,-233.09"/>
<polygon fill="#63b8ff" stroke="#63b8ff" points="403.98,-229.55 393.39,-229.73 401.78,-236.2 403.98,-229.55"/>
</g>
<!-- Node21 -->
<g id="node21" class="node">
<title>Node21</title>
<g id="a_node21"><a xlink:href="../../d9/d20/std__optional_8hpp.html" target="_top" xlink:title=" ">
<polygon fill="white" stroke="#666666" points="864.5,-229.25 742,-229.25 742,-195.75 864.5,-195.75 864.5,-229.25"/>
<text text-anchor="start" x="750" y="-215.75" font-family="Helvetica,sans-Serif" font-size="10.00">Simple&#45;Utility/nullables</text>
<text text-anchor="middle" x="803.25" y="-203" font-family="Helvetica,sans-Serif" font-size="10.00">/std_optional.hpp</text>
</a>
</g>
</g>
<!-- Node1&#45;&gt;Node21 -->
<g id="edge35" class="edge">
<title>Node1&#45;&gt;Node21</title>
<path fill="none" stroke="#63b8ff" d="M572.43,-264.8C615.24,-255.29 680.9,-240.7 731.25,-229.5"/>
<polygon fill="#63b8ff" stroke="#63b8ff" points="731.75,-232.76 740.75,-227.17 730.23,-225.92 731.75,-232.76"/>
</g>
<!-- Node23 -->
<g id="node23" class="node">
<title>Node23</title>
<g id="a_node23"><a xlink:href="../../d8/d9a/std__pointers_8hpp.html" target="_top" xlink:title=" ">
<polygon fill="white" stroke="#666666" points="1005.5,-229.25 883,-229.25 883,-195.75 1005.5,-195.75 1005.5,-229.25"/>
<text text-anchor="start" x="891" y="-215.75" font-family="Helvetica,sans-Serif" font-size="10.00">Simple&#45;Utility/nullables</text>
<text text-anchor="middle" x="944.25" y="-203" font-family="Helvetica,sans-Serif" font-size="10.00">/std_pointers.hpp</text>
</a>
</g>
</g>
<!-- Node1&#45;&gt;Node23 -->
<g id="edge38" class="edge">
<title>Node1&#45;&gt;Node23</title>
<path fill="none" stroke="#63b8ff" d="M599.89,-267.05C667.47,-259.49 771.82,-246.73 872.11,-229.35"/>
<polygon fill="#63b8ff" stroke="#63b8ff" points="872.5,-232.66 881.74,-227.49 871.29,-225.77 872.5,-232.66"/>
</g>
<!-- Node3 -->
<g id="node3" class="node">
<title>Node3</title>
<g id="a_node3"><a xlink:href="../../d8/dd2/_config_8hpp.html" target="_top" xlink:title=" ">
<polygon fill="white" stroke="#666666" points="633.38,-83.88 501.12,-83.88 501.12,-63.12 633.38,-63.12 633.38,-83.88"/>
<text text-anchor="middle" x="567.25" y="-70.38" font-family="Helvetica,sans-Serif" font-size="10.00">Simple&#45;Utility/Config.hpp</text>
</a>
</g>
</g>
<!-- Node2&#45;&gt;Node3 -->
<g id="edge2" class="edge">
<title>Node2&#45;&gt;Node3</title>
<path fill="none" stroke="#63b8ff" d="M504.68,-126C517.46,-115.49 534.14,-101.76 547.06,-91.12"/>
<polygon fill="#63b8ff" stroke="#63b8ff" points="548.82,-93.38 554.32,-84.32 544.37,-87.98 548.82,-93.38"/>
</g>
<!-- Node4 -->
<g id="node4" class="node">
<title>Node4</title>
<g id="a_node4"><a xlink:href="../../dd/dcd/operators_8hpp.html" target="_top" xlink:title=" ">
<polygon fill="white" stroke="#666666" points="483.12,-90.25 361.38,-90.25 361.38,-56.75 483.12,-56.75 483.12,-90.25"/>
<text text-anchor="start" x="369.38" y="-76.75" font-family="Helvetica,sans-Serif" font-size="10.00">Simple&#45;Utility/concepts</text>
<text text-anchor="middle" x="422.25" y="-64" font-family="Helvetica,sans-Serif" font-size="10.00">/operators.hpp</text>
</a>
</g>
</g>
<!-- Node2&#45;&gt;Node4 -->
<g id="edge3" class="edge">
<title>Node2&#45;&gt;Node4</title>
<path fill="none" stroke="#63b8ff" d="M470.32,-126C462.63,-117.77 453.1,-107.55 444.56,-98.4"/>
<polygon fill="#63b8ff" stroke="#63b8ff" points="447.45,-96.3 438.07,-91.38 442.34,-101.08 447.45,-96.3"/>
</g>
<!-- Node6 -->
<g id="node6" class="node">
<title>Node6</title>
<g id="a_node6"><a xlink:href="../../dd/d5c/stl__extensions_8hpp.html" target="_top" xlink:title=" ">
<polygon fill="white" stroke="#666666" points="841.12,-90.25 719.38,-90.25 719.38,-56.75 841.12,-56.75 841.12,-90.25"/>
<text text-anchor="start" x="727.38" y="-76.75" font-family="Helvetica,sans-Serif" font-size="10.00">Simple&#45;Utility/concepts</text>
<text text-anchor="middle" x="780.25" y="-64" font-family="Helvetica,sans-Serif" font-size="10.00">/stl_extensions.hpp</text>
</a>
</g>
</g>
<!-- Node2&#45;&gt;Node6 -->
<g id="edge5" class="edge">
<title>Node2&#45;&gt;Node6</title>
<path fill="none" stroke="#63b8ff" d="M546.73,-127.93C593.85,-117.15 658.96,-102.25 708.47,-90.92"/>
<polygon fill="#63b8ff" stroke="#63b8ff" points="709.13,-94.13 718.1,-88.49 707.57,-87.31 709.13,-94.13"/>
</g>
<!-- Node8 -->
<g id="node8" class="node">
<title>Node8</title>
<g id="a_node8"><a xlink:title=" ">
<polygon fill="#e0e0e0" stroke="#999999" points="701.12,-83.88 651.38,-83.88 651.38,-63.12 701.12,-63.12 701.12,-83.88"/>
<text text-anchor="middle" x="676.25" y="-70.38" font-family="Helvetica,sans-Serif" font-size="10.00">cstddef</text>
</a>
</g>
</g>
<!-- Node2&#45;&gt;Node8 -->
<g id="edge8" class="edge">
<title>Node2&#45;&gt;Node8</title>
<path fill="none" stroke="#63b8ff" d="M539.57,-125.79C570.06,-116.28 608.62,-103.53 642.25,-90.25 643.69,-89.68 645.15,-89.08 646.62,-88.47"/>
<polygon fill="#63b8ff" stroke="#63b8ff" points="647.54,-91.45 655.28,-84.22 644.72,-85.04 647.54,-91.45"/>
</g>
<!-- Node9 -->
<g id="node9" class="node">
<title>Node9</title>
<g id="a_node9"><a xlink:title=" ">
<polygon fill="#e0e0e0" stroke="#999999" points="343.12,-83.88 281.38,-83.88 281.38,-63.12 343.12,-63.12 343.12,-83.88"/>
<text text-anchor="middle" x="312.25" y="-70.38" font-family="Helvetica,sans-Serif" font-size="10.00">functional</text>
</a>
</g>
</g>
<!-- Node2&#45;&gt;Node9 -->
<g id="edge9" class="edge">
<title>Node2&#45;&gt;Node9</title>
<path fill="none" stroke="#63b8ff" d="M443.6,-125.84C417.37,-115.66 382.82,-102.22 352.25,-90.25 350.58,-89.6 348.87,-88.92 347.14,-88.25"/>
<polygon fill="#63b8ff" stroke="#63b8ff" points="348.8,-84.74 338.21,-84.35 346.24,-91.26 348.8,-84.74"/>
</g>
<!-- Node10 -->
<g id="node10" class="node">
<title>Node10</title>
<g id="a_node10"><a xlink:title=" ">
<polygon fill="#e0e0e0" stroke="#999999" points="263.25,-83.88 199.25,-83.88 199.25,-63.12 263.25,-63.12 263.25,-83.88"/>
<text text-anchor="middle" x="231.25" y="-70.38" font-family="Helvetica,sans-Serif" font-size="10.00">type_traits</text>
</a>
</g>
</g>
<!-- Node2&#45;&gt;Node10 -->
<g id="edge10" class="edge">
<title>Node2&#45;&gt;Node10</title>
<path fill="none" stroke="#63b8ff" d="M423.62,-129.23C380.78,-119.81 322.56,-105.95 272.25,-90.25 270.09,-89.58 267.88,-88.85 265.66,-88.08"/>
<polygon fill="#63b8ff" stroke="#63b8ff" points="266.94,-84.46 256.35,-84.35 264.56,-91.05 266.94,-84.46"/>
</g>
<!-- Node5 -->
<g id="node5" class="node">
<title>Node5</title>
<g id="a_node5"><a xlink:title=" ">
<polygon fill="#e0e0e0" stroke="#999999" points="450.5,-20.75 394,-20.75 394,0 450.5,0 450.5,-20.75"/>
<text text-anchor="middle" x="422.25" y="-7.25" font-family="Helvetica,sans-Serif" font-size="10.00">concepts</text>
</a>
</g>
</g>
<!-- Node4&#45;&gt;Node5 -->
<g id="edge4" class="edge">
<title>Node4&#45;&gt;Node5</title>
<path fill="none" stroke="#63b8ff" d="M422.25,-56.44C422.25,-49.02 422.25,-40.11 422.25,-32.18"/>
<polygon fill="#63b8ff" stroke="#63b8ff" points="425.75,-32.22 422.25,-22.22 418.75,-32.22 425.75,-32.22"/>
</g>
<!-- Node6&#45;&gt;Node5 -->
<g id="edge7" class="edge">
<title>Node6&#45;&gt;Node5</title>
<path fill="none" stroke="#63b8ff" d="M719.22,-58.52C716.19,-57.91 713.19,-57.31 710.25,-56.75 621.88,-39.86 517.38,-24.55 461.75,-16.77"/>
<polygon fill="#63b8ff" stroke="#63b8ff" points="462.36,-13.18 451.97,-15.27 461.39,-20.11 462.36,-13.18"/>
</g>
<!-- Node7 -->
<g id="node7" class="node">
<title>Node7</title>
<g id="a_node7"><a xlink:title=" ">
<polygon fill="#e0e0e0" stroke="#999999" points="808.12,-20.75 752.38,-20.75 752.38,0 808.12,0 808.12,-20.75"/>
<text text-anchor="middle" x="780.25" y="-7.25" font-family="Helvetica,sans-Serif" font-size="10.00">compare</text>
</a>
</g>
</g>
<!-- Node6&#45;&gt;Node7 -->
<g id="edge6" class="edge">
<title>Node6&#45;&gt;Node7</title>
<path fill="none" stroke="#63b8ff" d="M780.25,-56.44C780.25,-49.02 780.25,-40.11 780.25,-32.18"/>
<polygon fill="#63b8ff" stroke="#63b8ff" points="783.75,-32.22 780.25,-22.22 776.75,-32.22 783.75,-32.22"/>
</g>
<!-- Node11&#45;&gt;Node2 -->
<g id="edge14" class="edge">
<title>Node11&#45;&gt;Node2</title>
<path fill="none" stroke="#63b8ff" d="M619.85,-195.33C595.21,-185.93 563.94,-174.01 537.74,-164.02"/>
<polygon fill="#63b8ff" stroke="#63b8ff" points="539.2,-160.45 528.61,-160.15 536.7,-166.99 539.2,-160.45"/>
</g>
<!-- Node11&#45;&gt;Node3 -->
<g id="edge12" class="edge">
<title>Node11&#45;&gt;Node3</title>
<path fill="none" stroke="#63b8ff" d="M638.8,-195.45C626.61,-186.16 612.22,-173.59 602.25,-159.75 587.83,-139.73 578.08,-112.89 572.61,-94.72"/>
<polygon fill="#63b8ff" stroke="#63b8ff" points="575.72,-93.85 569.62,-85.18 568.98,-95.76 575.72,-93.85"/>
</g>
<!-- Node11&#45;&gt;Node6 -->
<g id="edge13" class="edge">
<title>Node11&#45;&gt;Node6</title>
<path fill="none" stroke="#63b8ff" d="M649.31,-195.44C636.35,-177.26 620.31,-147.44 635.25,-126.25 644.49,-113.14 676.93,-100.95 708.79,-91.7"/>
<polygon fill="#63b8ff" stroke="#63b8ff" points="709.41,-94.88 718.09,-88.8 707.51,-88.14 709.41,-94.88"/>
</g>
<!-- Node12 -->
<g id="node12" class="node">
<title>Node12</title>
<g id="a_node12"><a xlink:title=" ">
<polygon fill="#e0e0e0" stroke="#999999" points="692,-153.38 644.5,-153.38 644.5,-132.62 692,-132.62 692,-153.38"/>
<text text-anchor="middle" x="668.25" y="-139.88" font-family="Helvetica,sans-Serif" font-size="10.00">cassert</text>
</a>
</g>
</g>
<!-- Node11&#45;&gt;Node12 -->
<g id="edge15" class="edge">
<title>Node11&#45;&gt;Node12</title>
<path fill="none" stroke="#63b8ff" d="M663.67,-195.5C664.49,-186.3 665.53,-174.64 666.41,-164.74"/>
<polygon fill="#63b8ff" stroke="#63b8ff" points="669.98,-165.09 667.38,-154.82 663.01,-164.47 669.98,-165.09"/>
</g>
<!-- Node13 -->
<g id="node13" class="node">
<title>Node13</title>
<g id="a_node13"><a xlink:title=" ">
<polygon fill="#e0e0e0" stroke="#999999" points="756.62,-153.38 709.88,-153.38 709.88,-132.62 756.62,-132.62 756.62,-153.38"/>
<text text-anchor="middle" x="733.25" y="-139.88" font-family="Helvetica,sans-Serif" font-size="10.00">ranges</text>
</a>
</g>
</g>
<!-- Node11&#45;&gt;Node13 -->
<g id="edge16" class="edge">
<title>Node11&#45;&gt;Node13</title>
<path fill="none" stroke="#63b8ff" d="M679.08,-195.5C689.92,-185.19 704.03,-171.78 715.12,-161.23"/>
<polygon fill="#63b8ff" stroke="#63b8ff" points="717.08,-164.25 721.92,-154.82 712.26,-159.18 717.08,-164.25"/>
</g>
<!-- Node14&#45;&gt;Node2 -->
<g id="edge25" class="edge">
<title>Node14&#45;&gt;Node2</title>
<path fill="none" stroke="#63b8ff" d="M484.49,-195.5C484.6,-188.11 484.73,-179.12 484.85,-170.73"/>
<polygon fill="#63b8ff" stroke="#63b8ff" points="488.37,-170.93 485.01,-160.88 481.37,-170.83 488.37,-170.93"/>
</g>
<!-- Node15 -->
<g id="node15" class="node">
<title>Node15</title>
<g id="a_node15"><a xlink:href="../../d2/dc8/bind__back_8hpp.html" target="_top" xlink:title=" ">
<polygon fill="white" stroke="#666666" points="285.75,-159.75 158.75,-159.75 158.75,-126.25 285.75,-126.25 285.75,-159.75"/>
<text text-anchor="start" x="166.75" y="-146.25" font-family="Helvetica,sans-Serif" font-size="10.00">Simple&#45;Utility/functional</text>
<text text-anchor="middle" x="222.25" y="-133.5" font-family="Helvetica,sans-Serif" font-size="10.00">/bind_back.hpp</text>
</a>
</g>
</g>
<!-- Node14&#45;&gt;Node15 -->
<g id="edge18" class="edge">
<title>Node14&#45;&gt;Node15</title>
<path fill="none" stroke="#63b8ff" d="M422.82,-195.67C384.78,-185.87 335.71,-173.23 295.63,-162.9"/>
<polygon fill="#63b8ff" stroke="#63b8ff" points="296.67,-159.3 286.11,-160.2 294.92,-166.08 296.67,-159.3"/>
</g>
<!-- Node15&#45;&gt;Node3 -->
<g id="edge19" class="edge">
<title>Node15&#45;&gt;Node3</title>
<path fill="none" stroke="#63b8ff" d="M286.14,-130.08C340.89,-119.79 421.83,-104.39 492.25,-90.25 498.18,-89.06 504.38,-87.79 510.55,-86.52"/>
<polygon fill="#63b8ff" stroke="#63b8ff" points="510.79,-89.84 519.87,-84.37 509.36,-82.98 510.79,-89.84"/>
</g>
<!-- Node15&#45;&gt;Node5 -->
<g id="edge20" class="edge">
<title>Node15&#45;&gt;Node5</title>
<path fill="none" stroke="#63b8ff" d="M207.52,-125.97C192.43,-107.56 173.37,-77.25 190.25,-56.75 214.21,-27.65 323.2,-16.95 382.89,-13.23"/>
<polygon fill="#63b8ff" stroke="#63b8ff" points="383,-16.67 392.77,-12.59 382.59,-9.68 383,-16.67"/>
</g>
<!-- Node15&#45;&gt;Node9 -->
<g id="edge21" class="edge">
<title>Node15&#45;&gt;Node9</title>
<path fill="none" stroke="#63b8ff" d="M243.58,-126C257.74,-115.39 276.26,-101.49 290.5,-90.81"/>
<polygon fill="#63b8ff" stroke="#63b8ff" points="292.25,-93.12 298.15,-84.32 288.05,-87.52 292.25,-93.12"/>
</g>
<!-- Node15&#45;&gt;Node10 -->
<g id="edge23" class="edge">
<title>Node15&#45;&gt;Node10</title>
<path fill="none" stroke="#63b8ff" d="M224.38,-126C225.62,-116.7 227.2,-104.88 228.53,-94.91"/>
<polygon fill="#63b8ff" stroke="#63b8ff" points="232.09,-95.7 229.94,-85.32 225.15,-94.77 232.09,-95.7"/>
</g>
<!-- Node16 -->
<g id="node16" class="node">
<title>Node16</title>
<g id="a_node16"><a xlink:title=" ">
<polygon fill="#e0e0e0" stroke="#999999" points="142.88,-83.88 103.62,-83.88 103.62,-63.12 142.88,-63.12 142.88,-83.88"/>
<text text-anchor="middle" x="123.25" y="-70.38" font-family="Helvetica,sans-Serif" font-size="10.00">tuple</text>
</a>
</g>
</g>
<!-- Node15&#45;&gt;Node16 -->
<g id="edge22" class="edge">
<title>Node15&#45;&gt;Node16</title>
<path fill="none" stroke="#63b8ff" d="M198.54,-125.83C182.81,-115.11 162.26,-101.1 146.61,-90.43"/>
<polygon fill="#63b8ff" stroke="#63b8ff" points="148.81,-87.01 138.58,-84.27 144.87,-92.8 148.81,-87.01"/>
</g>
<!-- Node17 -->
<g id="node17" class="node">
<title>Node17</title>
<g id="a_node17"><a xlink:title=" ">
<polygon fill="#e0e0e0" stroke="#999999" points="85.62,-83.88 44.88,-83.88 44.88,-63.12 85.62,-63.12 85.62,-83.88"/>
<text text-anchor="middle" x="65.25" y="-70.38" font-family="Helvetica,sans-Serif" font-size="10.00">utility</text>
</a>
</g>
</g>
<!-- Node15&#45;&gt;Node17 -->
<g id="edge24" class="edge">
<title>Node15&#45;&gt;Node17</title>
<path fill="none" stroke="#63b8ff" d="M178.77,-125.83C153.75,-116.18 121.89,-103.29 94.25,-90.25 93.53,-89.91 92.8,-89.56 92.07,-89.21"/>
<polygon fill="#63b8ff" stroke="#63b8ff" points="94.06,-85.78 83.57,-84.32 90.86,-92 94.06,-85.78"/>
</g>
<!-- Node18&#45;&gt;Node2 -->
<g id="edge28" class="edge">
<title>Node18&#45;&gt;Node2</title>
<path fill="none" stroke="#63b8ff" d="M122.77,-197.57C125.97,-196.93 129.15,-196.32 132.25,-195.75 229.01,-177.95 341.6,-162.31 413.13,-153.01"/>
<polygon fill="#63b8ff" stroke="#63b8ff" points="413.34,-156.38 422.81,-151.63 412.44,-149.44 413.34,-156.38"/>
</g>
<!-- Node18&#45;&gt;Node15 -->
<g id="edge27" class="edge">
<title>Node18&#45;&gt;Node15</title>
<path fill="none" stroke="#63b8ff" d="M99.81,-195.33C122.04,-186.02 150.17,-174.22 173.87,-164.28"/>
<polygon fill="#63b8ff" stroke="#63b8ff" points="174.85,-167.25 182.72,-160.15 172.15,-160.79 174.85,-167.25"/>
</g>
<!-- Node19&#45;&gt;Node2 -->
<g id="edge31" class="edge">
<title>Node19&#45;&gt;Node2</title>
<path fill="none" stroke="#63b8ff" d="M263.66,-196.85C307.7,-186.35 367.17,-172.16 413.41,-161.13"/>
<polygon fill="#63b8ff" stroke="#63b8ff" points="414.05,-164.34 422.96,-158.62 412.42,-157.53 414.05,-164.34"/>
</g>
<!-- Node19&#45;&gt;Node15 -->
<g id="edge30" class="edge">
<title>Node19&#45;&gt;Node15</title>
<path fill="none" stroke="#63b8ff" d="M206.99,-195.5C209.23,-187.94 211.97,-178.71 214.5,-170.16"/>
<polygon fill="#63b8ff" stroke="#63b8ff" points="218.06,-171.46 217.54,-160.88 211.35,-169.48 218.06,-171.46"/>
</g>
<!-- Node20&#45;&gt;Node2 -->
<g id="edge34" class="edge">
<title>Node20&#45;&gt;Node2</title>
<path fill="none" stroke="#63b8ff" d="M377.26,-195.33C396.58,-186.15 420.97,-174.55 441.68,-164.71"/>
<polygon fill="#63b8ff" stroke="#63b8ff" points="442.99,-167.49 450.51,-160.04 439.98,-161.17 442.99,-167.49"/>
</g>
<!-- Node20&#45;&gt;Node15 -->
<g id="edge33" class="edge">
<title>Node20&#45;&gt;Node15</title>
<path fill="none" stroke="#63b8ff" d="M314.27,-195.33C298.1,-186.32 277.78,-174.98 260.34,-165.25"/>
<polygon fill="#63b8ff" stroke="#63b8ff" points="262.43,-161.85 252,-160.04 259.02,-167.96 262.43,-161.85"/>
</g>
<!-- Node21&#45;&gt;Node2 -->
<g id="edge36" class="edge">
<title>Node21&#45;&gt;Node2</title>
<path fill="none" stroke="#63b8ff" d="M741.69,-197.8C738.5,-197.1 735.34,-196.42 732.25,-195.75 673.5,-183.08 606.78,-169.13 557.51,-158.91"/>
<polygon fill="#63b8ff" stroke="#63b8ff" points="558.46,-155.32 547.96,-156.72 557.04,-162.18 558.46,-155.32"/>
</g>
<!-- Node22 -->
<g id="node22" class="node">
<title>Node22</title>
<g id="a_node22"><a xlink:title=" ">
<polygon fill="#e0e0e0" stroke="#999999" points="830.38,-153.38 776.12,-153.38 776.12,-132.62 830.38,-132.62 830.38,-153.38"/>
<text text-anchor="middle" x="803.25" y="-139.88" font-family="Helvetica,sans-Serif" font-size="10.00">optional</text>
</a>
</g>
</g>
<!-- Node21&#45;&gt;Node22 -->
<g id="edge37" class="edge">
<title>Node21&#45;&gt;Node22</title>
<path fill="none" stroke="#63b8ff" d="M803.25,-195.5C803.25,-186.3 803.25,-174.64 803.25,-164.74"/>
<polygon fill="#63b8ff" stroke="#63b8ff" points="806.75,-164.82 803.25,-154.82 799.75,-164.82 806.75,-164.82"/>
</g>
<!-- Node23&#45;&gt;Node2 -->
<g id="edge39" class="edge">
<title>Node23&#45;&gt;Node2</title>
<path fill="none" stroke="#63b8ff" d="M882.74,-197.52C879.54,-196.89 876.36,-196.3 873.25,-195.75 763.81,-176.35 635.83,-160.61 557.68,-151.78"/>
<polygon fill="#63b8ff" stroke="#63b8ff" points="558.32,-148.22 547.99,-150.58 557.54,-155.17 558.32,-148.22"/>
</g>
<!-- Node24 -->
<g id="node24" class="node">
<title>Node24</title>
<g id="a_node24"><a xlink:title=" ">
<polygon fill="#e0e0e0" stroke="#999999" points="971,-153.38 917.5,-153.38 917.5,-132.62 971,-132.62 971,-153.38"/>
<text text-anchor="middle" x="944.25" y="-139.88" font-family="Helvetica,sans-Serif" font-size="10.00">memory</text>
</a>
</g>
</g>
<!-- Node23&#45;&gt;Node24 -->
<g id="edge40" class="edge">
<title>Node23&#45;&gt;Node24</title>
<path fill="none" stroke="#63b8ff" d="M944.25,-195.5C944.25,-186.3 944.25,-174.64 944.25,-164.74"/>
<polygon fill="#63b8ff" stroke="#63b8ff" points="947.75,-164.82 944.25,-154.82 940.75,-164.82 947.75,-164.82"/>
</g>
</g>
</svg>
        <g id="navigator" transform="translate(0 0)" fill="#404254">
                <rect fill="#f2f5e9" fill-opacity="0.5" stroke="#606060" stroke-width=".5" x="0" y="0" width="60" height="60"/>
                <use id="zoomplus" xlink:href="#zoomPlus" x="17" y="9" onmousedown="handleZoom(evt,'in')"/>
                <use id="zoomminus" xlink:href="#zoomMin" x="42" y="9" onmousedown="handleZoom(evt,'out')"/>
                <use id="reset" xlink:href="#resetDef" x="30" y="36" onmousedown="handleReset()"/>
                <g id="arrowUp" xlink:href="#dirArrow" transform="translate(30 24)" onmousedown="handlePan(0,-1)">
                  <use xlink:href="#rim" fill="#404040">
                        <set attributeName="fill" to="#808080" begin="arrowUp.mouseover" end="arrowUp.mouseout"/>
                  </use>
                  <path fill="none" stroke="white" stroke-width="1.5" d="M0,-3.0v7 M-2.5,-0.5L0,-3.0L2.5,-0.5"/>
                </g>
                <g id="arrowRight" xlink:href="#dirArrow" transform="rotate(90) translate(36 -43)" onmousedown="handlePan(1,0)">
                  <use xlink:href="#rim" fill="#404040">
                        <set attributeName="fill" to="#808080" begin="arrowRight.mouseover" end="arrowRight.mouseout"/>
                  </use>
                  <path fill="none" stroke="white" stroke-width="1.5" d="M0,-3.0v7 M-2.5,-0.5L0,-3.0L2.5,-0.5"/>
                </g>
                <g id="arrowDown" xlink:href="#dirArrow" transform="rotate(180) translate(-30 -48)" onmousedown="handlePan(0,1)">
                  <use xlink:href="#rim" fill="#404040">
                        <set attributeName="fill" to="#808080" begin="arrowDown.mouseover" end="arrowDown.mouseout"/>
                  </use>
                  <path fill="none" stroke="white" stroke-width="1.5" d="M0,-3.0v7 M-2.5,-0.5L0,-3.0L2.5,-0.5"/>
                </g>
                <g id="arrowLeft" xlink:href="#dirArrow" transform="rotate(270) translate(-36 17)" onmousedown="handlePan(-1,0)">
                  <use xlink:href="#rim" fill="#404040">
                        <set attributeName="fill" to="#808080" begin="arrowLeft.mouseover" end="arrowLeft.mouseout"/>
                  </use>
                  <path fill="none" stroke="white" stroke-width="1.5" d="M0,-3.0v7 M-2.5,-0.5L0,-3.0L2.5,-0.5"/>
                </g>
        </g>
        <svg viewBox="0 0 15 15" width="100%" height="30px" preserveAspectRatio="xMaxYMin meet">
         <g id="arrow_out" transform="scale(0.3 0.3)">
          <a xlink:href="nullables_8hpp__incl_org.svg" target="_base">
           <rect id="button" ry="5" rx="5" y="6" x="6" height="38" width="38"
                fill="#f2f5e9" fill-opacity="0.5" stroke="#606060" stroke-width="1.0"/>
           <path id="arrow"
             d="M 11.500037,31.436501 C 11.940474,20.09759 22.043105,11.32322 32.158766,21.979434 L 37.068811,17.246167 C 37.068811,17.246167 37.088388,32 37.088388,32 L 22.160133,31.978069 C 22.160133,31.978069 26.997745,27.140456 26.997745,27.140456 C 18.528582,18.264221 13.291696,25.230495 11.500037,31.436501 z"
             style="fill:#404040;"/>
          </a>
         </g>
        </svg>
</svg>
