<?xml version="1.0" encoding="UTF-8" standalone="no"?>
<!DOCTYPE svg PUBLIC "-//W3C//DTD SVG 1.1//EN"
 "http://www.w3.org/Graphics/SVG/1.1/DTD/svg11.dtd">
<!-- Generated by graphviz version 8.0.5 (20230430.1635)
 -->
<!-- Title: Simple&#45;Utility/functional/BasicClosure.hpp Pages: 1 -->
<!--zoomable 376 -->
<svg id="main" version="1.1" xmlns="http://www.w3.org/2000/svg" xmlns:xlink="http://www.w3.org/1999/xlink" xml:space="preserve" onload="init(evt)">
<style type="text/css"><![CDATA[
.edge:hover path { stroke: red; }
.edge:hover polygon { stroke: red; fill: red; }
]]></style>
<script type="text/javascript"><![CDATA[
var edges = document.getElementsByTagName('g');
if (edges && edges.length) {
  for (var i=0;i<edges.length;i++) {
    if (edges[i].id.substr(0,4)=='edge') {
      edges[i].setAttribute('class','edge');
    }
  }
}
]]></script>
        <defs>
                <circle id="rim" cx="0" cy="0" r="7"/>
                <circle id="rim2" cx="0" cy="0" r="3.5"/>
                <g id="zoomPlus">
                        <use xlink:href="#rim" fill="#404040">
                                <set attributeName="fill" to="#808080" begin="zoomplus.mouseover" end="zoomplus.mouseout"/>
                        </use>
                        <path d="M-4,0h8M0,-4v8" fill="none" stroke="white" stroke-width="1.5" pointer-events="none"/>
                </g>
                <g id="zoomMin">
                        <use xlink:href="#rim" fill="#404040">
                                <set attributeName="fill" to="#808080" begin="zoomminus.mouseover" end="zoomminus.mouseout"/>
                        </use>
                        <path d="M-4,0h8" fill="none" stroke="white" stroke-width="1.5" pointer-events="none"/>
                </g>
                <g id="dirArrow">
                        <path fill="none" stroke="white" stroke-width="1.5" d="M0,-3.0v7 M-2.5,-0.5L0,-3.0L2.5,-0.5"/>
                </g>
               <g id="resetDef">
                       <use xlink:href="#rim2" fill="#404040">
                               <set attributeName="fill" to="#808080" begin="reset.mouseover" end="reset.mouseout"/>
                       </use>
               </g>
        </defs>

<script type="text/javascript">
var viewWidth = 911;
var viewHeight = 376;
var sectionId = 'dynsection-1';
</script>
<script xlink:href="../../svgpan.js"/>
<svg id="graph" class="graph">
<g id="viewport">
<title>Simple&#45;Utility/functional/BasicClosure.hpp</title>
<!-- Node1 -->
<g id="node1" class="node">
<title>Node1</title>
<g id="a_node1"><a xlink:title=" ">
<polygon fill="#999999" stroke="#666666" points="380.05,-368.25 253.05,-368.25 253.05,-334.75 380.05,-334.75 380.05,-368.25"/>
<text text-anchor="start" x="261.05" y="-354.75" font-family="Helvetica,sans-Serif" font-size="10.00">Simple&#45;Utility/functional</text>
<text text-anchor="middle" x="316.55" y="-342" font-family="Helvetica,sans-Serif" font-size="10.00">/BasicClosure.hpp</text>
</a>
</g>
</g>
<!-- Node2 -->
<g id="node2" class="node">
<title>Node2</title>
<g id="a_node2"><a xlink:href="../../d3/d48/_composition_8hpp.html" target="_top" xlink:title=" ">
<polygon fill="white" stroke="#666666" points="380.05,-298.75 253.05,-298.75 253.05,-265.25 380.05,-265.25 380.05,-298.75"/>
<text text-anchor="start" x="261.05" y="-285.25" font-family="Helvetica,sans-Serif" font-size="10.00">Simple&#45;Utility/functional</text>
<text text-anchor="middle" x="316.55" y="-272.5" font-family="Helvetica,sans-Serif" font-size="10.00">/Composition.hpp</text>
</a>
</g>
</g>
<!-- Node1&#45;&gt;Node2 -->
<g id="edge1" class="edge">
<title>Node1&#45;&gt;Node2</title>
<path fill="none" stroke="#63b8ff" d="M316.55,-323.64C316.55,-315.25 316.55,-306.26 316.55,-298.88"/>
<polygon fill="#63b8ff" stroke="#63b8ff" points="313.05,-323.5 316.55,-333.5 320.05,-323.5 313.05,-323.5"/>
</g>
<!-- Node4 -->
<g id="node4" class="node">
<title>Node4</title>
<g id="a_node4"><a xlink:href="../../d4/d53/_predicate_8hpp.html" target="_top" xlink:title=" ">
<polygon fill="white" stroke="#666666" points="337.05,-159.75 210.05,-159.75 210.05,-126.25 337.05,-126.25 337.05,-159.75"/>
<text text-anchor="start" x="218.05" y="-146.25" font-family="Helvetica,sans-Serif" font-size="10.00">Simple&#45;Utility/functional</text>
<text text-anchor="middle" x="273.55" y="-133.5" font-family="Helvetica,sans-Serif" font-size="10.00">/Predicate.hpp</text>
</a>
</g>
</g>
<!-- Node1&#45;&gt;Node4 -->
<g id="edge22" class="edge">
<title>Node1&#45;&gt;Node4</title>
<path fill="none" stroke="#63b8ff" d="M241.57,-348.68C159.9,-344.92 36.95,-333.48 7.55,-298.75 -6.93,-281.64 2.65,-211.52 17.55,-195.75 43.32,-168.48 142.76,-154.84 209.85,-148.6"/>
<polygon fill="#63b8ff" stroke="#63b8ff" points="241.41,-352.21 251.55,-349.15 241.71,-345.22 241.41,-352.21"/>
</g>
<!-- Node10 -->
<g id="node10" class="node">
<title>Node10</title>
<g id="a_node10"><a xlink:href="../../d9/d8c/_transform_8hpp.html" target="_top" xlink:title=" ">
<polygon fill="white" stroke="#666666" points="733.05,-159.75 606.05,-159.75 606.05,-126.25 733.05,-126.25 733.05,-159.75"/>
<text text-anchor="start" x="614.05" y="-146.25" font-family="Helvetica,sans-Serif" font-size="10.00">Simple&#45;Utility/functional</text>
<text text-anchor="middle" x="669.55" y="-133.5" font-family="Helvetica,sans-Serif" font-size="10.00">/Transform.hpp</text>
</a>
</g>
</g>
<!-- Node1&#45;&gt;Node10 -->
<g id="edge23" class="edge">
<title>Node1&#45;&gt;Node10</title>
<path fill="none" stroke="#63b8ff" d="M391.22,-341.14C505.94,-325.04 716.99,-288.07 761.55,-229.25 770.54,-217.38 769.06,-208.6 761.55,-195.75 752.11,-179.61 735.59,-168.12 719.13,-160.13"/>
<polygon fill="#63b8ff" stroke="#63b8ff" points="390.86,-337.79 381.43,-342.63 391.82,-344.73 390.86,-337.79"/>
</g>
<!-- Node14 -->
<g id="node14" class="node">
<title>Node14</title>
<g id="a_node14"><a xlink:href="../../d7/df7/_invoke_policies_8hpp.html" target="_top" xlink:title=" ">
<polygon fill="white" stroke="#666666" points="752.55,-229.25 616.55,-229.25 616.55,-195.75 752.55,-195.75 752.55,-229.25"/>
<text text-anchor="start" x="624.55" y="-215.75" font-family="Helvetica,sans-Serif" font-size="10.00">Simple&#45;Utility/functional</text>
<text text-anchor="middle" x="684.55" y="-203" font-family="Helvetica,sans-Serif" font-size="10.00">/mixins/InvokePolicies.hpp</text>
</a>
</g>
</g>
<!-- Node1&#45;&gt;Node14 -->
<g id="edge24" class="edge">
<title>Node1&#45;&gt;Node14</title>
<path fill="none" stroke="#63b8ff" d="M369.79,-330.68C443.03,-303.41 573.46,-254.86 641.13,-229.66"/>
<polygon fill="#63b8ff" stroke="#63b8ff" points="368.99,-327.61 360.84,-334.38 371.44,-334.17 368.99,-327.61"/>
</g>
<!-- Node15 -->
<g id="node15" class="node">
<title>Node15</title>
<g id="a_node15"><a xlink:href="../../d2/dc2/_negation_8hpp.html" target="_top" xlink:title=" ">
<polygon fill="white" stroke="#666666" points="144.05,-298.75 17.05,-298.75 17.05,-265.25 144.05,-265.25 144.05,-298.75"/>
<text text-anchor="start" x="25.05" y="-285.25" font-family="Helvetica,sans-Serif" font-size="10.00">Simple&#45;Utility/functional</text>
<text text-anchor="middle" x="80.55" y="-272.5" font-family="Helvetica,sans-Serif" font-size="10.00">/mixins/Negation.hpp</text>
</a>
</g>
</g>
<!-- Node1&#45;&gt;Node15 -->
<g id="edge27" class="edge">
<title>Node1&#45;&gt;Node15</title>
<path fill="none" stroke="#63b8ff" d="M249.73,-331.39C214.16,-321.22 170.9,-308.84 137.02,-299.15"/>
<polygon fill="#63b8ff" stroke="#63b8ff" points="248.44,-334.95 259.02,-334.33 250.37,-328.22 248.44,-334.95"/>
</g>
<!-- Node3 -->
<g id="node3" class="node">
<title>Node3</title>
<g id="a_node3"><a xlink:href="../../d7/d0e/_conjunction_8hpp.html" target="_top" xlink:title=" ">
<polygon fill="white" stroke="#666666" points="308.05,-229.25 181.05,-229.25 181.05,-195.75 308.05,-195.75 308.05,-229.25"/>
<text text-anchor="start" x="189.05" y="-215.75" font-family="Helvetica,sans-Serif" font-size="10.00">Simple&#45;Utility/functional</text>
<text text-anchor="middle" x="244.55" y="-203" font-family="Helvetica,sans-Serif" font-size="10.00">/mixins/Conjunction.hpp</text>
</a>
</g>
</g>
<!-- Node2&#45;&gt;Node3 -->
<g id="edge2" class="edge">
<title>Node2&#45;&gt;Node3</title>
<path fill="none" stroke="#63b8ff" d="M291.51,-257.53C281.59,-248.23 270.43,-237.77 261.49,-229.38"/>
<polygon fill="#63b8ff" stroke="#63b8ff" points="288.8,-259.72 298.48,-264 293.58,-254.61 288.8,-259.72"/>
</g>
<!-- Node7 -->
<g id="node7" class="node">
<title>Node7</title>
<g id="a_node7"><a xlink:href="../../d7/ddc/_disjunction_8hpp.html" target="_top" xlink:title=" ">
<polygon fill="white" stroke="#666666" points="453.05,-229.25 326.05,-229.25 326.05,-195.75 453.05,-195.75 453.05,-229.25"/>
<text text-anchor="start" x="334.05" y="-215.75" font-family="Helvetica,sans-Serif" font-size="10.00">Simple&#45;Utility/functional</text>
<text text-anchor="middle" x="389.55" y="-203" font-family="Helvetica,sans-Serif" font-size="10.00">/mixins/Disjunction.hpp</text>
</a>
</g>
</g>
<!-- Node2&#45;&gt;Node7 -->
<g id="edge7" class="edge">
<title>Node2&#45;&gt;Node7</title>
<path fill="none" stroke="#63b8ff" d="M341.87,-257.59C351.85,-248.35 363.07,-237.98 372.12,-229.62"/>
<polygon fill="#63b8ff" stroke="#63b8ff" points="339.81,-254.64 334.85,-264 344.57,-259.78 339.81,-254.64"/>
</g>
<!-- Node8 -->
<g id="node8" class="node">
<title>Node8</title>
<g id="a_node8"><a xlink:href="../../de/d71/_equality_8hpp.html" target="_top" xlink:title=" ">
<polygon fill="white" stroke="#666666" points="163.05,-229.25 36.05,-229.25 36.05,-195.75 163.05,-195.75 163.05,-229.25"/>
<text text-anchor="start" x="44.05" y="-215.75" font-family="Helvetica,sans-Serif" font-size="10.00">Simple&#45;Utility/functional</text>
<text text-anchor="middle" x="99.55" y="-203" font-family="Helvetica,sans-Serif" font-size="10.00">/mixins/Equality.hpp</text>
</a>
</g>
</g>
<!-- Node2&#45;&gt;Node8 -->
<g id="edge9" class="edge">
<title>Node2&#45;&gt;Node8</title>
<path fill="none" stroke="#63b8ff" d="M254.26,-261.63C221.72,-251.5 182.35,-239.26 151.48,-229.65"/>
<polygon fill="#63b8ff" stroke="#63b8ff" points="252.98,-265.2 263.57,-264.83 255.06,-258.52 252.98,-265.2"/>
</g>
<!-- Node9 -->
<g id="node9" class="node">
<title>Node9</title>
<g id="a_node9"><a xlink:href="../../d2/df5/_pipe_8hpp.html" target="_top" xlink:title=" ">
<polygon fill="white" stroke="#666666" points="598.05,-229.25 471.05,-229.25 471.05,-195.75 598.05,-195.75 598.05,-229.25"/>
<text text-anchor="start" x="479.05" y="-215.75" font-family="Helvetica,sans-Serif" font-size="10.00">Simple&#45;Utility/functional</text>
<text text-anchor="middle" x="534.55" y="-203" font-family="Helvetica,sans-Serif" font-size="10.00">/mixins/Pipe.hpp</text>
</a>
</g>
</g>
<!-- Node2&#45;&gt;Node9 -->
<g id="edge11" class="edge">
<title>Node2&#45;&gt;Node9</title>
<path fill="none" stroke="#63b8ff" d="M379.12,-261.63C411.81,-251.5 451.36,-239.26 482.38,-229.65"/>
<polygon fill="#63b8ff" stroke="#63b8ff" points="378.28,-258.53 369.76,-264.83 380.35,-265.22 378.28,-258.53"/>
</g>
<!-- Node3&#45;&gt;Node4 -->
<g id="edge3" class="edge">
<title>Node3&#45;&gt;Node4</title>
<path fill="none" stroke="#63b8ff" d="M255.72,-185.49C259.43,-176.86 263.45,-167.51 266.72,-159.88"/>
<polygon fill="#63b8ff" stroke="#63b8ff" points="252.15,-183.93 251.42,-194.5 258.58,-186.7 252.15,-183.93"/>
</g>
<!-- Node5 -->
<g id="node5" class="node">
<title>Node5</title>
<g id="a_node5"><a xlink:href="../../d2/db4/functional_8hpp.html" target="_top" xlink:title=" ">
<polygon fill="white" stroke="#666666" points="656.17,-20.75 508.92,-20.75 508.92,0 656.17,0 656.17,-20.75"/>
<text text-anchor="middle" x="582.55" y="-7.25" font-family="Helvetica,sans-Serif" font-size="10.00">Simple&#45;Utility/functional.hpp</text>
</a>
</g>
</g>
<!-- Node4&#45;&gt;Node5 -->
<g id="edge4" class="edge">
<title>Node4&#45;&gt;Node5</title>
<path fill="none" stroke="#63b8ff" d="M272.51,-114.92C273.33,-95.92 277.77,-71.39 293.55,-56.75 323.98,-28.51 433.42,-17.83 508.54,-13.8"/>
<polygon fill="#63b8ff" stroke="#63b8ff" points="269,-114.86 272.4,-124.89 276,-114.93 269,-114.86"/>
</g>
<!-- Node6 -->
<g id="node6" class="node">
<title>Node6</title>
<g id="a_node6"><a xlink:href="../../d8/d60/_compare_8hpp.html" target="_top" xlink:title=" ">
<polygon fill="white" stroke="#666666" points="429.05,-90.25 302.05,-90.25 302.05,-56.75 429.05,-56.75 429.05,-90.25"/>
<text text-anchor="start" x="310.05" y="-76.75" font-family="Helvetica,sans-Serif" font-size="10.00">Simple&#45;Utility/functional</text>
<text text-anchor="middle" x="365.55" y="-64" font-family="Helvetica,sans-Serif" font-size="10.00">/Compare.hpp</text>
</a>
</g>
</g>
<!-- Node4&#45;&gt;Node6 -->
<g id="edge5" class="edge">
<title>Node4&#45;&gt;Node6</title>
<path fill="none" stroke="#63b8ff" d="M303.96,-119.69C316.91,-110.19 331.73,-99.31 343.58,-90.62"/>
<polygon fill="#63b8ff" stroke="#63b8ff" points="302.34,-117.27 296.35,-126 306.48,-122.91 302.34,-117.27"/>
</g>
<!-- Node6&#45;&gt;Node5 -->
<g id="edge6" class="edge">
<title>Node6&#45;&gt;Node5</title>
<path fill="none" stroke="#63b8ff" d="M433.6,-53.33C471.51,-42.65 517.12,-29.81 547.79,-21.17"/>
<polygon fill="#63b8ff" stroke="#63b8ff" points="432.81,-50.2 424.13,-56.28 434.7,-56.94 432.81,-50.2"/>
</g>
<!-- Node7&#45;&gt;Node4 -->
<g id="edge8" class="edge">
<title>Node7&#45;&gt;Node4</title>
<path fill="none" stroke="#63b8ff" d="M352.32,-189.84C335.68,-180.16 316.42,-168.95 301.11,-160.04"/>
<polygon fill="#63b8ff" stroke="#63b8ff" points="350.36,-193.33 360.76,-195.33 353.88,-187.28 350.36,-193.33"/>
</g>
<!-- Node8&#45;&gt;Node4 -->
<g id="edge10" class="edge">
<title>Node8&#45;&gt;Node4</title>
<path fill="none" stroke="#63b8ff" d="M151.19,-191.47C176.95,-181.47 207.69,-169.55 231.91,-160.15"/>
<polygon fill="#63b8ff" stroke="#63b8ff" points="150.28,-188.45 142.22,-195.33 152.81,-194.98 150.28,-188.45"/>
</g>
<!-- Node9&#45;&gt;Node4 -->
<g id="edge12" class="edge">
<title>Node9&#45;&gt;Node4</title>
<path fill="none" stroke="#63b8ff" d="M461.41,-192.58C421.93,-182.37 373.71,-169.9 336.01,-160.15"/>
<polygon fill="#63b8ff" stroke="#63b8ff" points="460.47,-196.22 471.03,-195.33 462.23,-189.44 460.47,-196.22"/>
</g>
<!-- Node9&#45;&gt;Node10 -->
<g id="edge13" class="edge">
<title>Node9&#45;&gt;Node10</title>
<path fill="none" stroke="#63b8ff" d="M576.52,-190.51C596.18,-180.68 619.24,-169.16 637.48,-160.04"/>
<polygon fill="#63b8ff" stroke="#63b8ff" points="575.26,-187.73 567.88,-195.33 578.39,-193.99 575.26,-187.73"/>
</g>
<!-- Node10&#45;&gt;Node5 -->
<g id="edge14" class="edge">
<title>Node10&#45;&gt;Node5</title>
<path fill="none" stroke="#63b8ff" d="M702.69,-119.04C723.54,-101.74 743.84,-77.51 728.55,-56.75 711.79,-33.99 683.7,-22.31 656.62,-16.44"/>
<polygon fill="#63b8ff" stroke="#63b8ff" points="700.83,-116.84 695.14,-125.78 705.16,-122.34 700.83,-116.84"/>
</g>
<!-- Node10&#45;&gt;Node6 -->
<g id="edge17" class="edge">
<title>Node10&#45;&gt;Node6</title>
<path fill="none" stroke="#63b8ff" d="M595.24,-125.5C544.46,-114.22 477.85,-99.44 429.45,-88.69"/>
<polygon fill="#63b8ff" stroke="#63b8ff" points="594.3,-129.1 604.82,-127.85 595.82,-122.27 594.3,-129.1"/>
</g>
<!-- Node11 -->
<g id="node11" class="node">
<title>Node11</title>
<g id="a_node11"><a xlink:href="../../d3/dc2/_arithmetic_8hpp.html" target="_top" xlink:title=" ">
<polygon fill="white" stroke="#666666" points="903.05,-90.25 776.05,-90.25 776.05,-56.75 903.05,-56.75 903.05,-90.25"/>
<text text-anchor="start" x="784.05" y="-76.75" font-family="Helvetica,sans-Serif" font-size="10.00">Simple&#45;Utility/functional</text>
<text text-anchor="middle" x="839.55" y="-64" font-family="Helvetica,sans-Serif" font-size="10.00">/Arithmetic.hpp</text>
</a>
</g>
</g>
<!-- Node10&#45;&gt;Node11 -->
<g id="edge15" class="edge">
<title>Node10&#45;&gt;Node11</title>
<path fill="none" stroke="#63b8ff" d="M720.34,-121.83C745.43,-111.87 775.3,-100.01 798.87,-90.65"/>
<polygon fill="#63b8ff" stroke="#63b8ff" points="719.27,-118.89 711.27,-125.83 721.85,-125.39 719.27,-118.89"/>
</g>
<!-- Node12 -->
<g id="node12" class="node">
<title>Node12</title>
<g id="a_node12"><a xlink:href="../../da/dae/functional_2_tuple_8hpp.html" target="_top" xlink:title=" ">
<polygon fill="white" stroke="#666666" points="574.05,-90.25 447.05,-90.25 447.05,-56.75 574.05,-56.75 574.05,-90.25"/>
<text text-anchor="start" x="455.05" y="-76.75" font-family="Helvetica,sans-Serif" font-size="10.00">Simple&#45;Utility/functional</text>
<text text-anchor="middle" x="510.55" y="-64" font-family="Helvetica,sans-Serif" font-size="10.00">/Tuple.hpp</text>
</a>
</g>
</g>
<!-- Node10&#45;&gt;Node12 -->
<g id="edge18" class="edge">
<title>Node10&#45;&gt;Node12</title>
<path fill="none" stroke="#63b8ff" d="M621.42,-121.57C598.08,-111.66 570.44,-99.93 548.6,-90.65"/>
<polygon fill="#63b8ff" stroke="#63b8ff" points="619.89,-125.15 630.46,-125.83 622.63,-118.7 619.89,-125.15"/>
</g>
<!-- Node13 -->
<g id="node13" class="node">
<title>Node13</title>
<g id="a_node13"><a xlink:href="../../de/d61/functional_2_utility_8hpp.html" target="_top" xlink:title=" ">
<polygon fill="white" stroke="#666666" points="719.05,-90.25 592.05,-90.25 592.05,-56.75 719.05,-56.75 719.05,-90.25"/>
<text text-anchor="start" x="600.05" y="-76.75" font-family="Helvetica,sans-Serif" font-size="10.00">Simple&#45;Utility/functional</text>
<text text-anchor="middle" x="655.55" y="-64" font-family="Helvetica,sans-Serif" font-size="10.00">/Utility.hpp</text>
</a>
</g>
</g>
<!-- Node10&#45;&gt;Node13 -->
<g id="edge20" class="edge">
<title>Node10&#45;&gt;Node13</title>
<path fill="none" stroke="#63b8ff" d="M664.04,-115.42C662.28,-106.95 660.39,-97.85 658.84,-90.38"/>
<polygon fill="#63b8ff" stroke="#63b8ff" points="660.77,-115.92 666.23,-125 667.63,-114.5 660.77,-115.92"/>
</g>
<!-- Node11&#45;&gt;Node5 -->
<g id="edge16" class="edge">
<title>Node11&#45;&gt;Node5</title>
<path fill="none" stroke="#63b8ff" d="M765.17,-54.81C719.23,-43.88 662,-30.27 623.97,-21.23"/>
<polygon fill="#63b8ff" stroke="#63b8ff" points="764.15,-58.4 774.69,-57.31 765.77,-51.59 764.15,-58.4"/>
</g>
<!-- Node12&#45;&gt;Node5 -->
<g id="edge19" class="edge">
<title>Node12&#45;&gt;Node5</title>
<path fill="none" stroke="#63b8ff" d="M537.56,-49.57C549.1,-39.77 561.95,-28.86 570.95,-21.22"/>
<polygon fill="#63b8ff" stroke="#63b8ff" points="535.82,-47.3 530.46,-56.44 540.35,-52.64 535.82,-47.3"/>
</g>
<!-- Node13&#45;&gt;Node5 -->
<g id="edge21" class="edge">
<title>Node13&#45;&gt;Node5</title>
<path fill="none" stroke="#63b8ff" d="M628.16,-49.57C616.46,-39.77 603.43,-28.86 594.3,-21.22"/>
<polygon fill="#63b8ff" stroke="#63b8ff" points="625.45,-52.7 635.37,-56.44 629.95,-47.34 625.45,-52.7"/>
</g>
<!-- Node14&#45;&gt;Node4 -->
<g id="edge25" class="edge">
<title>Node14&#45;&gt;Node4</title>
<path fill="none" stroke="#63b8ff" d="M605.33,-195.4C506.22,-177.78 402.38,-162.29 337.42,-152.97"/>
<polygon fill="#63b8ff" stroke="#63b8ff" points="604.69,-199.02 615.15,-197.33 605.92,-192.13 604.69,-199.02"/>
</g>
<!-- Node14&#45;&gt;Node10 -->
<g id="edge26" class="edge">
<title>Node14&#45;&gt;Node10</title>
<path fill="none" stroke="#63b8ff" d="M678.64,-184.92C676.76,-176.45 674.74,-167.35 673.08,-159.88"/>
<polygon fill="#63b8ff" stroke="#63b8ff" points="675.41,-185.5 680.99,-194.5 682.24,-183.98 675.41,-185.5"/>
</g>
<!-- Node15&#45;&gt;Node4 -->
<g id="edge28" class="edge">
<title>Node15&#45;&gt;Node4</title>
<path fill="none" stroke="#63b8ff" d="M50.06,-257.65C30.58,-239.9 11.69,-215.29 27.55,-195.75 50.1,-167.96 144.71,-154.54 209.81,-148.48"/>
<polygon fill="#63b8ff" stroke="#63b8ff" points="47.49,-260.92 57.35,-264.81 52.07,-255.62 47.49,-260.92"/>
</g>
</g>
</svg>
        <g id="navigator" transform="translate(0 0)" fill="#404254">
                <rect fill="#f2f5e9" fill-opacity="0.5" stroke="#606060" stroke-width=".5" x="0" y="0" width="60" height="60"/>
                <use id="zoomplus" xlink:href="#zoomPlus" x="17" y="9" onmousedown="handleZoom(evt,'in')"/>
                <use id="zoomminus" xlink:href="#zoomMin" x="42" y="9" onmousedown="handleZoom(evt,'out')"/>
                <use id="reset" xlink:href="#resetDef" x="30" y="36" onmousedown="handleReset()"/>
                <g id="arrowUp" xlink:href="#dirArrow" transform="translate(30 24)" onmousedown="handlePan(0,-1)">
                  <use xlink:href="#rim" fill="#404040">
                        <set attributeName="fill" to="#808080" begin="arrowUp.mouseover" end="arrowUp.mouseout"/>
                  </use>
                  <path fill="none" stroke="white" stroke-width="1.5" d="M0,-3.0v7 M-2.5,-0.5L0,-3.0L2.5,-0.5"/>
                </g>
                <g id="arrowRight" xlink:href="#dirArrow" transform="rotate(90) translate(36 -43)" onmousedown="handlePan(1,0)">
                  <use xlink:href="#rim" fill="#404040">
                        <set attributeName="fill" to="#808080" begin="arrowRight.mouseover" end="arrowRight.mouseout"/>
                  </use>
                  <path fill="none" stroke="white" stroke-width="1.5" d="M0,-3.0v7 M-2.5,-0.5L0,-3.0L2.5,-0.5"/>
                </g>
                <g id="arrowDown" xlink:href="#dirArrow" transform="rotate(180) translate(-30 -48)" onmousedown="handlePan(0,1)">
                  <use xlink:href="#rim" fill="#404040">
                        <set attributeName="fill" to="#808080" begin="arrowDown.mouseover" end="arrowDown.mouseout"/>
                  </use>
                  <path fill="none" stroke="white" stroke-width="1.5" d="M0,-3.0v7 M-2.5,-0.5L0,-3.0L2.5,-0.5"/>
                </g>
                <g id="arrowLeft" xlink:href="#dirArrow" transform="rotate(270) translate(-36 17)" onmousedown="handlePan(-1,0)">
                  <use xlink:href="#rim" fill="#404040">
                        <set attributeName="fill" to="#808080" begin="arrowLeft.mouseover" end="arrowLeft.mouseout"/>
                  </use>
                  <path fill="none" stroke="white" stroke-width="1.5" d="M0,-3.0v7 M-2.5,-0.5L0,-3.0L2.5,-0.5"/>
                </g>
        </g>
        <svg viewBox="0 0 15 15" width="100%" height="30px" preserveAspectRatio="xMaxYMin meet">
         <g id="arrow_out" transform="scale(0.3 0.3)">
          <a xlink:href="_basic_closure_8hpp__dep__incl_org.svg" target="_base">
           <rect id="button" ry="5" rx="5" y="6" x="6" height="38" width="38"
                fill="#f2f5e9" fill-opacity="0.5" stroke="#606060" stroke-width="1.0"/>
           <path id="arrow"
             d="M 11.500037,31.436501 C 11.940474,20.09759 22.043105,11.32322 32.158766,21.979434 L 37.068811,17.246167 C 37.068811,17.246167 37.088388,32 37.088388,32 L 22.160133,31.978069 C 22.160133,31.978069 26.997745,27.140456 26.997745,27.140456 C 18.528582,18.264221 13.291696,25.230495 11.500037,31.436501 z"
             style="fill:#404040;"/>
          </a>
         </g>
        </svg>
</svg>
