<?xml version="1.0" encoding="UTF-8" standalone="no"?>
<!DOCTYPE svg PUBLIC "-//W3C//DTD SVG 1.1//EN"
 "http://www.w3.org/Graphics/SVG/1.1/DTD/svg11.dtd">
<!-- Generated by graphviz version 8.0.5 (20230430.1635)
 -->
<!-- Title: Simple&#45;Utility/functional/mixins/Equality.hpp Pages: 1 -->
<svg width="943pt" height="433pt"
 viewBox="0.00 0.00 943.00 433.00" xmlns="http://www.w3.org/2000/svg" xmlns:xlink="http://www.w3.org/1999/xlink">
<g id="graph0" class="graph" transform="scale(1 1) rotate(0) translate(4 429)">
<title>Simple&#45;Utility/functional/mixins/Equality.hpp</title>
<!-- Node1 -->
<g id="node1" class="node">
<title>Node1</title>
<g id="a_node1"><a xlink:title=" ">
<polygon fill="#999999" stroke="#666666" points="184.5,-425 57.5,-425 57.5,-391.5 184.5,-391.5 184.5,-425"/>
<text text-anchor="start" x="65.5" y="-411.5" font-family="Helvetica,sans-Serif" font-size="10.00">Simple&#45;Utility/functional</text>
<text text-anchor="middle" x="121" y="-398.75" font-family="Helvetica,sans-Serif" font-size="10.00">/mixins/Equality.hpp</text>
</a>
</g>
</g>
<!-- Node2 -->
<g id="node2" class="node">
<title>Node2</title>
<g id="a_node2"><a xlink:title=" ">
<polygon fill="#e0e0e0" stroke="#999999" points="181.25,-20.75 124.75,-20.75 124.75,0 181.25,0 181.25,-20.75"/>
<text text-anchor="middle" x="153" y="-7.25" font-family="Helvetica,sans-Serif" font-size="10.00">concepts</text>
</a>
</g>
</g>
<!-- Node1&#45;&gt;Node2 -->
<g id="edge1" class="edge">
<title>Node1&#45;&gt;Node2</title>
<path fill="none" stroke="#63b8ff" d="M91.71,-391.08C55.9,-368.91 0,-325.47 0,-270.25 0,-270.25 0,-270.25 0,-129.25 0,-71.67 68.85,-38.29 114.18,-22.56"/>
<polygon fill="#63b8ff" stroke="#63b8ff" points="115.19,-25.59 123.58,-19.12 112.99,-18.94 115.19,-25.59"/>
</g>
<!-- Node3 -->
<g id="node3" class="node">
<title>Node3</title>
<g id="a_node3"><a xlink:title=" ">
<polygon fill="#e0e0e0" stroke="#999999" points="381.88,-140.62 320.12,-140.62 320.12,-119.88 381.88,-119.88 381.88,-140.62"/>
<text text-anchor="middle" x="351" y="-127.12" font-family="Helvetica,sans-Serif" font-size="10.00">functional</text>
</a>
</g>
</g>
<!-- Node1&#45;&gt;Node3 -->
<g id="edge2" class="edge">
<title>Node1&#45;&gt;Node3</title>
<path fill="none" stroke="#63b8ff" d="M135.91,-391.36C165.88,-359.18 235.2,-283.66 289,-216.5 306.96,-194.09 326.2,-167.11 338.4,-149.6"/>
<polygon fill="#63b8ff" stroke="#63b8ff" points="341.59,-152.14 344.4,-141.93 335.83,-148.16 341.59,-152.14"/>
</g>
<!-- Node4 -->
<g id="node4" class="node">
<title>Node4</title>
<g id="a_node4"><a xlink:title=" ">
<polygon fill="#e0e0e0" stroke="#999999" points="837.62,-20.75 798.38,-20.75 798.38,0 837.62,0 837.62,-20.75"/>
<text text-anchor="middle" x="818" y="-7.25" font-family="Helvetica,sans-Serif" font-size="10.00">tuple</text>
</a>
</g>
</g>
<!-- Node1&#45;&gt;Node4 -->
<g id="edge3" class="edge">
<title>Node1&#45;&gt;Node4</title>
<path fill="none" stroke="#63b8ff" d="M184.87,-403.23C376.77,-390.31 935,-346.2 935,-270.25 935,-270.25 935,-270.25 935,-129.25 935,-79.78 882.45,-43.68 847.79,-25.24"/>
<polygon fill="#63b8ff" stroke="#63b8ff" points="849.61,-21.73 839.11,-20.3 846.43,-27.97 849.61,-21.73"/>
</g>
<!-- Node5 -->
<g id="node5" class="node">
<title>Node5</title>
<g id="a_node5"><a xlink:href="../../dd/d5c/stl__extensions_8hpp.html" target="_top" xlink:title=" ">
<polygon fill="white" stroke="#666666" points="187.88,-147 66.12,-147 66.12,-113.5 187.88,-113.5 187.88,-147"/>
<text text-anchor="start" x="74.12" y="-133.5" font-family="Helvetica,sans-Serif" font-size="10.00">Simple&#45;Utility/concepts</text>
<text text-anchor="middle" x="127" y="-120.75" font-family="Helvetica,sans-Serif" font-size="10.00">/stl_extensions.hpp</text>
</a>
</g>
</g>
<!-- Node1&#45;&gt;Node5 -->
<g id="edge4" class="edge">
<title>Node1&#45;&gt;Node5</title>
<path fill="none" stroke="#63b8ff" d="M115.47,-391.16C112.29,-381.06 108.62,-367.68 107,-355.5 97.56,-284.49 111.89,-200.22 120.79,-158.07"/>
<polygon fill="#63b8ff" stroke="#63b8ff" points="124.42,-158.86 123.13,-148.35 117.58,-157.37 124.42,-158.86"/>
</g>
<!-- Node7 -->
<g id="node7" class="node">
<title>Node7</title>
<g id="a_node7"><a xlink:href="../../d3/d48/_composition_8hpp.html" target="_top" xlink:title=" ">
<polygon fill="white" stroke="#666666" points="496.5,-355.5 369.5,-355.5 369.5,-322 496.5,-322 496.5,-355.5"/>
<text text-anchor="start" x="377.5" y="-342" font-family="Helvetica,sans-Serif" font-size="10.00">Simple&#45;Utility/functional</text>
<text text-anchor="middle" x="433" y="-329.25" font-family="Helvetica,sans-Serif" font-size="10.00">/Composition.hpp</text>
</a>
</g>
</g>
<!-- Node1&#45;&gt;Node7 -->
<g id="edge7" class="edge">
<title>Node1&#45;&gt;Node7</title>
<path fill="none" stroke="#63b8ff" d="M184.89,-393.43C235.26,-382.53 305.59,-367.31 358.52,-355.86"/>
<polygon fill="#63b8ff" stroke="#63b8ff" points="359.16,-359.09 368.19,-353.55 357.68,-352.25 359.16,-359.09"/>
</g>
<!-- Node5&#45;&gt;Node2 -->
<g id="edge6" class="edge">
<title>Node5&#45;&gt;Node2</title>
<path fill="none" stroke="#63b8ff" d="M120.23,-113.27C114.88,-98.29 109.34,-75.46 116,-56.75 119.71,-46.34 126.93,-36.59 134.03,-28.82"/>
<polygon fill="#63b8ff" stroke="#63b8ff" points="135.98,-31.81 140.49,-22.22 130.99,-26.9 135.98,-31.81"/>
</g>
<!-- Node6 -->
<g id="node6" class="node">
<title>Node6</title>
<g id="a_node6"><a xlink:title=" ">
<polygon fill="#e0e0e0" stroke="#999999" points="180.88,-77.5 125.12,-77.5 125.12,-56.75 180.88,-56.75 180.88,-77.5"/>
<text text-anchor="middle" x="153" y="-64" font-family="Helvetica,sans-Serif" font-size="10.00">compare</text>
</a>
</g>
</g>
<!-- Node5&#45;&gt;Node6 -->
<g id="edge5" class="edge">
<title>Node5&#45;&gt;Node6</title>
<path fill="none" stroke="#63b8ff" d="M133.83,-113.19C137.14,-105.42 141.14,-96.02 144.62,-87.82"/>
<polygon fill="#63b8ff" stroke="#63b8ff" points="148.12,-89.54 148.81,-78.97 141.68,-86.8 148.12,-89.54"/>
</g>
<!-- Node7&#45;&gt;Node2 -->
<g id="edge8" class="edge">
<title>Node7&#45;&gt;Node2</title>
<path fill="none" stroke="#63b8ff" d="M369.24,-336.1C315.07,-332.16 236.94,-320.33 178,-286 107.22,-244.78 85.71,-223.71 57,-147 38.79,-98.35 93.7,-51.04 127.87,-27.25"/>
<polygon fill="#63b8ff" stroke="#63b8ff" points="129.54,-29.67 135.88,-21.18 125.63,-23.87 129.54,-29.67"/>
</g>
<!-- Node7&#45;&gt;Node3 -->
<g id="edge9" class="edge">
<title>Node7&#45;&gt;Node3</title>
<path fill="none" stroke="#63b8ff" d="M398.08,-321.72C383.73,-313.24 368.51,-301.35 360,-286 336.27,-243.19 341.72,-183.11 346.86,-151.9"/>
<polygon fill="#63b8ff" stroke="#63b8ff" points="350.47,-152.57 348.82,-142.1 343.59,-151.32 350.47,-152.57"/>
</g>
<!-- Node7&#45;&gt;Node4 -->
<g id="edge10" class="edge">
<title>Node7&#45;&gt;Node4</title>
<path fill="none" stroke="#63b8ff" d="M496.88,-337.85C602.43,-336.76 807.12,-328.97 863,-286 895.34,-261.13 897,-241.54 897,-200.75 897,-200.75 897,-200.75 897,-129.25 897,-87.34 862.12,-49.08 838.71,-28.13"/>
<polygon fill="#63b8ff" stroke="#63b8ff" points="841.55,-25.09 831.69,-21.21 836.98,-30.39 841.55,-25.09"/>
</g>
<!-- Node7&#45;&gt;Node5 -->
<g id="edge31" class="edge">
<title>Node7&#45;&gt;Node5</title>
<path fill="none" stroke="#63b8ff" d="M369.2,-329.81C301.7,-317.77 197.67,-288.13 144,-216.5 131.53,-199.86 127.56,-176.43 126.55,-158.34"/>
<polygon fill="#63b8ff" stroke="#63b8ff" points="130.02,-158.25 126.26,-148.35 123.02,-158.44 130.02,-158.25"/>
</g>
<!-- Node8 -->
<g id="node8" class="node">
<title>Node8</title>
<g id="a_node8"><a xlink:title=" ">
<polygon fill="#e0e0e0" stroke="#999999" points="627,-20.75 563,-20.75 563,0 627,0 627,-20.75"/>
<text text-anchor="middle" x="595" y="-7.25" font-family="Helvetica,sans-Serif" font-size="10.00">type_traits</text>
</a>
</g>
</g>
<!-- Node7&#45;&gt;Node8 -->
<g id="edge11" class="edge">
<title>Node7&#45;&gt;Node8</title>
<path fill="none" stroke="#63b8ff" d="M496.67,-338.27C598.37,-337.72 791.04,-330.62 840,-286 868.69,-259.85 859,-239.57 859,-200.75 859,-200.75 859,-200.75 859,-129.25 859,-33.76 713.22,-15.1 638.32,-11.81"/>
<polygon fill="#63b8ff" stroke="#63b8ff" points="638.49,-8.28 628.37,-11.42 638.24,-15.27 638.49,-8.28"/>
</g>
<!-- Node9 -->
<g id="node9" class="node">
<title>Node9</title>
<g id="a_node9"><a xlink:href="../../d8/dd2/_config_8hpp.html" target="_top" xlink:title=" ">
<polygon fill="white" stroke="#666666" points="685.12,-279.62 552.88,-279.62 552.88,-258.88 685.12,-258.88 685.12,-279.62"/>
<text text-anchor="middle" x="619" y="-266.12" font-family="Helvetica,sans-Serif" font-size="10.00">Simple&#45;Utility/Config.hpp</text>
</a>
</g>
</g>
<!-- Node7&#45;&gt;Node9 -->
<g id="edge12" class="edge">
<title>Node7&#45;&gt;Node9</title>
<path fill="none" stroke="#63b8ff" d="M477.55,-321.58C509.37,-310.03 551.69,-294.68 581.73,-283.78"/>
<polygon fill="#63b8ff" stroke="#63b8ff" points="582.6,-286.82 590.8,-280.12 580.21,-280.24 582.6,-286.82"/>
</g>
<!-- Node10 -->
<g id="node10" class="node">
<title>Node10</title>
<g id="a_node10"><a xlink:href="../../d5/d7b/_tuple_8hpp.html" target="_top" xlink:title=" ">
<polygon fill="white" stroke="#666666" points="496.5,-279.62 369.5,-279.62 369.5,-258.88 496.5,-258.88 496.5,-279.62"/>
<text text-anchor="middle" x="433" y="-266.12" font-family="Helvetica,sans-Serif" font-size="10.00">Simple&#45;Utility/Tuple.hpp</text>
</a>
</g>
</g>
<!-- Node7&#45;&gt;Node10 -->
<g id="edge13" class="edge">
<title>Node7&#45;&gt;Node10</title>
<path fill="none" stroke="#63b8ff" d="M433,-321.75C433,-312.55 433,-300.89 433,-290.99"/>
<polygon fill="#63b8ff" stroke="#63b8ff" points="436.5,-291.07 433,-281.07 429.5,-291.07 436.5,-291.07"/>
</g>
<!-- Node15 -->
<g id="node15" class="node">
<title>Node15</title>
<g id="a_node15"><a xlink:href="../../df/d2e/_type_list_8hpp.html" target="_top" xlink:title=" ">
<polygon fill="white" stroke="#666666" points="566.5,-77.5 427.5,-77.5 427.5,-56.75 566.5,-56.75 566.5,-77.5"/>
<text text-anchor="middle" x="497" y="-64" font-family="Helvetica,sans-Serif" font-size="10.00">Simple&#45;Utility/TypeList.hpp</text>
</a>
</g>
</g>
<!-- Node7&#45;&gt;Node15 -->
<g id="edge30" class="edge">
<title>Node7&#45;&gt;Node15</title>
<path fill="none" stroke="#63b8ff" d="M464.68,-321.5C479.07,-312.72 495.24,-300.65 506,-286 544.44,-233.67 540.88,-211.14 551,-147 553.32,-132.29 557.29,-127 551,-113.5 545.36,-101.4 534.73,-91.37 524.38,-83.85"/>
<polygon fill="#63b8ff" stroke="#63b8ff" points="526.74,-80.55 516.49,-77.89 522.85,-86.37 526.74,-80.55"/>
</g>
<!-- Node16 -->
<g id="node16" class="node">
<title>Node16</title>
<g id="a_node16"><a xlink:href="../../d8/d05/_basic_closure_8hpp.html" target="_top" xlink:title=" ">
<polygon fill="white" stroke="#666666" points="280.5,-216.5 153.5,-216.5 153.5,-183 280.5,-183 280.5,-216.5"/>
<text text-anchor="start" x="161.5" y="-203" font-family="Helvetica,sans-Serif" font-size="10.00">Simple&#45;Utility/functional</text>
<text text-anchor="middle" x="217" y="-190.25" font-family="Helvetica,sans-Serif" font-size="10.00">/BasicClosure.hpp</text>
</a>
</g>
</g>
<!-- Node7&#45;&gt;Node16 -->
<g id="edge32" class="edge">
<title>Node7&#45;&gt;Node16</title>
<path fill="none" stroke="#63b8ff" d="M395.21,-321.59C374.51,-312.18 348.73,-299.53 327,-286 296.89,-267.26 265.15,-241.99 243.54,-223.83"/>
<polygon fill="#63b8ff" stroke="#63b8ff" points="246.11,-220.57 236.22,-216.77 241.58,-225.91 246.11,-220.57"/>
</g>
<!-- Node17 -->
<g id="node17" class="node">
<title>Node17</title>
<g id="a_node17"><a xlink:href="../../d6/d50/_overloaded_8hpp.html" target="_top" xlink:title=" ">
<polygon fill="white" stroke="#666666" points="830.5,-286 703.5,-286 703.5,-252.5 830.5,-252.5 830.5,-286"/>
<text text-anchor="start" x="711.5" y="-272.5" font-family="Helvetica,sans-Serif" font-size="10.00">Simple&#45;Utility/functional</text>
<text text-anchor="middle" x="767" y="-259.75" font-family="Helvetica,sans-Serif" font-size="10.00">/Overloaded.hpp</text>
</a>
</g>
</g>
<!-- Node7&#45;&gt;Node17 -->
<g id="edge38" class="edge">
<title>Node7&#45;&gt;Node17</title>
<path fill="none" stroke="#63b8ff" d="M496.88,-325.39C547.28,-315.57 619.65,-301.32 692.55,-286.28"/>
<polygon fill="#63b8ff" stroke="#63b8ff" points="693.23,-289.51 702.31,-284.06 691.81,-282.65 693.23,-289.51"/>
</g>
<!-- Node11 -->
<g id="node11" class="node">
<title>Node11</title>
<g id="a_node11"><a xlink:href="../../dc/d83/_algorithm_8hpp.html" target="_top" xlink:title=" ">
<polygon fill="white" stroke="#666666" points="479.25,-216.5 374.75,-216.5 374.75,-183 479.25,-183 479.25,-216.5"/>
<text text-anchor="start" x="382.75" y="-203" font-family="Helvetica,sans-Serif" font-size="10.00">Simple&#45;Utility/tuple</text>
<text text-anchor="middle" x="427" y="-190.25" font-family="Helvetica,sans-Serif" font-size="10.00">/Algorithm.hpp</text>
</a>
</g>
</g>
<!-- Node10&#45;&gt;Node11 -->
<g id="edge14" class="edge">
<title>Node10&#45;&gt;Node11</title>
<path fill="none" stroke="#63b8ff" d="M432.14,-258.58C431.42,-250.52 430.37,-238.63 429.4,-227.72"/>
<polygon fill="#63b8ff" stroke="#63b8ff" points="432.81,-227.57 428.44,-217.92 425.84,-228.19 432.81,-227.57"/>
</g>
<!-- Node13 -->
<g id="node13" class="node">
<title>Node13</title>
<g id="a_node13"><a xlink:href="../../dd/d5a/_general_8hpp.html" target="_top" xlink:title=" ">
<polygon fill="white" stroke="#666666" points="542.25,-147 437.75,-147 437.75,-113.5 542.25,-113.5 542.25,-147"/>
<text text-anchor="start" x="445.75" y="-133.5" font-family="Helvetica,sans-Serif" font-size="10.00">Simple&#45;Utility/tuple</text>
<text text-anchor="middle" x="490" y="-120.75" font-family="Helvetica,sans-Serif" font-size="10.00">/General.hpp</text>
</a>
</g>
</g>
<!-- Node10&#45;&gt;Node13 -->
<g id="edge29" class="edge">
<title>Node10&#45;&gt;Node13</title>
<path fill="none" stroke="#63b8ff" d="M449.1,-258.4C462.25,-249.34 479.93,-234.58 488,-216.5 496.16,-198.2 496.25,-175.42 494.53,-158.01"/>
<polygon fill="#63b8ff" stroke="#63b8ff" points="497.92,-157.94 493.19,-148.45 490.97,-158.81 497.92,-157.94"/>
</g>
<!-- Node11&#45;&gt;Node3 -->
<g id="edge16" class="edge">
<title>Node11&#45;&gt;Node3</title>
<path fill="none" stroke="#63b8ff" d="M408.99,-182.75C397.26,-172.34 381.98,-158.77 370.06,-148.17"/>
<polygon fill="#63b8ff" stroke="#63b8ff" points="372.86,-146.1 363.06,-142.07 368.21,-151.33 372.86,-146.1"/>
</g>
<!-- Node11&#45;&gt;Node8 -->
<g id="edge17" class="edge">
<title>Node11&#45;&gt;Node8</title>
<path fill="none" stroke="#63b8ff" d="M479.45,-184.8C503.16,-176.61 530.41,-164.38 551,-147 578.94,-123.42 584.82,-112.61 595,-77.5 599.31,-62.64 599.08,-45.11 597.9,-31.83"/>
<polygon fill="#63b8ff" stroke="#63b8ff" points="601.28,-31.56 596.65,-22.03 594.32,-32.36 601.28,-31.56"/>
</g>
<!-- Node12 -->
<g id="node12" class="node">
<title>Node12</title>
<g id="a_node12"><a xlink:title=" ">
<polygon fill="#e0e0e0" stroke="#999999" points="475.5,-20.75 414.5,-20.75 414.5,0 475.5,0 475.5,-20.75"/>
<text text-anchor="middle" x="445" y="-7.25" font-family="Helvetica,sans-Serif" font-size="10.00">algorithm</text>
</a>
</g>
</g>
<!-- Node11&#45;&gt;Node12 -->
<g id="edge15" class="edge">
<title>Node11&#45;&gt;Node12</title>
<path fill="none" stroke="#63b8ff" d="M422.62,-182.64C416.09,-155.94 405.82,-101.05 418,-56.75 420.6,-47.3 425.73,-37.84 430.83,-30.01"/>
<polygon fill="#63b8ff" stroke="#63b8ff" points="434.2,-32.3 437.08,-22.1 428.47,-28.28 434.2,-32.3"/>
</g>
<!-- Node11&#45;&gt;Node13 -->
<g id="edge18" class="edge">
<title>Node11&#45;&gt;Node13</title>
<path fill="none" stroke="#63b8ff" d="M441.93,-182.75C449.62,-174.52 459.15,-164.3 467.69,-155.15"/>
<polygon fill="#63b8ff" stroke="#63b8ff" points="469.91,-157.83 474.18,-148.13 464.8,-153.05 469.91,-157.83"/>
</g>
<!-- Node13&#45;&gt;Node2 -->
<g id="edge19" class="edge">
<title>Node13&#45;&gt;Node2</title>
<path fill="none" stroke="#63b8ff" d="M443.85,-113.11C376.71,-89.62 253.34,-46.47 191.08,-24.69"/>
<polygon fill="#63b8ff" stroke="#63b8ff" points="192.5,-21.13 181.91,-21.14 190.19,-27.74 192.5,-21.13"/>
</g>
<!-- Node13&#45;&gt;Node4 -->
<g id="edge20" class="edge">
<title>Node13&#45;&gt;Node4</title>
<path fill="none" stroke="#63b8ff" d="M534.92,-113.11C602.83,-88.7 729.84,-43.06 787.79,-22.23"/>
<polygon fill="#63b8ff" stroke="#63b8ff" points="788.87,-25.2 797.09,-18.53 786.5,-18.62 788.87,-25.2"/>
</g>
<!-- Node13&#45;&gt;Node8 -->
<g id="edge21" class="edge">
<title>Node13&#45;&gt;Node8</title>
<path fill="none" stroke="#63b8ff" d="M530.18,-113.02C546.49,-104.61 564.23,-92.85 576,-77.5 586.22,-64.17 590.95,-45.53 593.13,-31.44"/>
<polygon fill="#63b8ff" stroke="#63b8ff" points="596.68,-32.24 594.43,-21.89 589.73,-31.39 596.68,-32.24"/>
</g>
<!-- Node14 -->
<g id="node14" class="node">
<title>Node14</title>
<g id="a_node14"><a xlink:title=" ">
<polygon fill="#e0e0e0" stroke="#999999" points="343.38,-20.75 302.62,-20.75 302.62,0 343.38,0 343.38,-20.75"/>
<text text-anchor="middle" x="323" y="-7.25" font-family="Helvetica,sans-Serif" font-size="10.00">utility</text>
</a>
</g>
</g>
<!-- Node13&#45;&gt;Node14 -->
<g id="edge22" class="edge">
<title>Node13&#45;&gt;Node14</title>
<path fill="none" stroke="#63b8ff" d="M467.13,-113.11C435.1,-90.5 377.23,-49.65 345.43,-27.21"/>
<polygon fill="#63b8ff" stroke="#63b8ff" points="348.02,-24.04 337.83,-21.14 343.98,-29.76 348.02,-24.04"/>
</g>
<!-- Node13&#45;&gt;Node15 -->
<g id="edge23" class="edge">
<title>Node13&#45;&gt;Node15</title>
<path fill="none" stroke="#63b8ff" d="M491.84,-113.19C492.7,-105.68 493.73,-96.65 494.65,-88.65"/>
<polygon fill="#63b8ff" stroke="#63b8ff" points="498.21,-89.3 495.87,-78.97 491.26,-88.5 498.21,-89.3"/>
</g>
<!-- Node15&#45;&gt;Node2 -->
<g id="edge25" class="edge">
<title>Node15&#45;&gt;Node2</title>
<path fill="none" stroke="#63b8ff" d="M435.1,-56.27C364.59,-45.05 251.5,-27.05 192.19,-17.61"/>
<polygon fill="#63b8ff" stroke="#63b8ff" points="192.84,-14.01 182.42,-15.9 191.74,-20.93 192.84,-14.01"/>
</g>
<!-- Node15&#45;&gt;Node4 -->
<g id="edge26" class="edge">
<title>Node15&#45;&gt;Node4</title>
<path fill="none" stroke="#63b8ff" d="M554.76,-56.27C622.87,-44.66 733.55,-25.78 787.07,-16.65"/>
<polygon fill="#63b8ff" stroke="#63b8ff" points="787.62,-19.94 796.89,-14.8 786.45,-13.04 787.62,-19.94"/>
</g>
<!-- Node15&#45;&gt;Node8 -->
<g id="edge27" class="edge">
<title>Node15&#45;&gt;Node8</title>
<path fill="none" stroke="#63b8ff" d="M514.52,-56.34C529.43,-48.01 551.09,-35.91 568.18,-26.36"/>
<polygon fill="#63b8ff" stroke="#63b8ff" points="569.61,-29.01 576.63,-21.08 566.19,-22.9 569.61,-29.01"/>
</g>
<!-- Node15&#45;&gt;Node12 -->
<g id="edge24" class="edge">
<title>Node15&#45;&gt;Node12</title>
<path fill="none" stroke="#63b8ff" d="M487.7,-56.34C480.46,-48.71 470.21,-37.92 461.57,-28.82"/>
<polygon fill="#63b8ff" stroke="#63b8ff" points="464.64,-26.92 455.22,-22.08 459.56,-31.74 464.64,-26.92"/>
</g>
<!-- Node15&#45;&gt;Node14 -->
<g id="edge28" class="edge">
<title>Node15&#45;&gt;Node14</title>
<path fill="none" stroke="#63b8ff" d="M465.89,-56.34C434.24,-46.38 385.47,-31.03 353.89,-21.09"/>
<polygon fill="#63b8ff" stroke="#63b8ff" points="355.09,-17.49 344.5,-17.82 352.98,-24.16 355.09,-17.49"/>
</g>
<!-- Node16&#45;&gt;Node2 -->
<g id="edge33" class="edge">
<title>Node16&#45;&gt;Node2</title>
<path fill="none" stroke="#63b8ff" d="M216.49,-182.63C215.09,-155.45 209.82,-99.29 190,-56.75 185.32,-46.71 177.92,-36.99 170.96,-29.15"/>
<polygon fill="#63b8ff" stroke="#63b8ff" points="173.86,-27.06 164.47,-22.16 168.76,-31.85 173.86,-27.06"/>
</g>
<!-- Node16&#45;&gt;Node3 -->
<g id="edge34" class="edge">
<title>Node16&#45;&gt;Node3</title>
<path fill="none" stroke="#63b8ff" d="M249.1,-182.58C271.29,-171.4 300.57,-156.65 322.04,-145.84"/>
<polygon fill="#63b8ff" stroke="#63b8ff" points="323.25,-148.65 330.6,-141.02 320.1,-142.39 323.25,-148.65"/>
</g>
<!-- Node16&#45;&gt;Node5 -->
<g id="edge37" class="edge">
<title>Node16&#45;&gt;Node5</title>
<path fill="none" stroke="#63b8ff" d="M195.67,-182.75C184.1,-174.07 169.61,-163.21 156.92,-153.69"/>
<polygon fill="#63b8ff" stroke="#63b8ff" points="159.59,-150.57 149.49,-147.37 155.39,-156.17 159.59,-150.57"/>
</g>
<!-- Node16&#45;&gt;Node8 -->
<g id="edge35" class="edge">
<title>Node16&#45;&gt;Node8</title>
<path fill="none" stroke="#63b8ff" d="M233.77,-182.61C256.22,-161.17 295.04,-124.7 311,-113.5 355.06,-82.57 367.8,-76.18 418,-56.75 462.37,-39.58 515.51,-26.95 551.9,-19.44"/>
<polygon fill="#63b8ff" stroke="#63b8ff" points="552.53,-22.68 561.64,-17.27 551.14,-15.82 552.53,-22.68"/>
</g>
<!-- Node16&#45;&gt;Node14 -->
<g id="edge36" class="edge">
<title>Node16&#45;&gt;Node14</title>
<path fill="none" stroke="#63b8ff" d="M226.04,-182.77C245.53,-148.31 291.46,-67.13 312.34,-30.23"/>
<polygon fill="#63b8ff" stroke="#63b8ff" points="315.64,-32.49 317.52,-22.07 309.55,-29.05 315.64,-32.49"/>
</g>
</g>
</svg>
