<?xml version="1.0" encoding="UTF-8" standalone="no"?>
<!DOCTYPE svg PUBLIC "-//W3C//DTD SVG 1.1//EN"
 "http://www.w3.org/Graphics/SVG/1.1/DTD/svg11.dtd">
<!-- Generated by graphviz version 8.0.5 (20230430.1635)
 -->
<!-- Title: Simple&#45;Utility/functional/Overloaded.hpp Pages: 1 -->
<svg width="844pt" height="376pt"
 viewBox="0.00 0.00 843.50 376.25" xmlns="http://www.w3.org/2000/svg" xmlns:xlink="http://www.w3.org/1999/xlink">
<g id="graph0" class="graph" transform="scale(1 1) rotate(0) translate(4 372.25)">
<title>Simple&#45;Utility/functional/Overloaded.hpp</title>
<!-- Node1 -->
<g id="node1" class="node">
<title>Node1</title>
<g id="a_node1"><a xlink:title=" ">
<polygon fill="#999999" stroke="#666666" points="181.5,-368.25 54.5,-368.25 54.5,-334.75 181.5,-334.75 181.5,-368.25"/>
<text text-anchor="start" x="62.5" y="-354.75" font-family="Helvetica,sans-Serif" font-size="10.00">Simple&#45;Utility/functional</text>
<text text-anchor="middle" x="118" y="-342" font-family="Helvetica,sans-Serif" font-size="10.00">/Overloaded.hpp</text>
</a>
</g>
</g>
<!-- Node2 -->
<g id="node2" class="node">
<title>Node2</title>
<g id="a_node2"><a xlink:href="../../d2/db4/functional_8hpp.html" target="_top" xlink:title=" ">
<polygon fill="white" stroke="#666666" points="463.62,-20.75 316.38,-20.75 316.38,0 463.62,0 463.62,-20.75"/>
<text text-anchor="middle" x="390" y="-7.25" font-family="Helvetica,sans-Serif" font-size="10.00">Simple&#45;Utility/functional.hpp</text>
</a>
</g>
</g>
<!-- Node1&#45;&gt;Node2 -->
<g id="edge1" class="edge">
<title>Node1&#45;&gt;Node2</title>
<path fill="none" stroke="#63b8ff" d="M80.78,-328.42C46.2,-304.78 0,-263.78 0,-213.5 0,-213.5 0,-213.5 0,-142 0,-76.04 203.12,-37.25 316.19,-20.77"/>
<polygon fill="#63b8ff" stroke="#63b8ff" points="78.46,-331.75 88.74,-334.34 82.32,-325.91 78.46,-331.75"/>
</g>
<!-- Node3 -->
<g id="node3" class="node">
<title>Node3</title>
<g id="a_node3"><a xlink:href="../../d3/d48/_composition_8hpp.html" target="_top" xlink:title=" ">
<polygon fill="white" stroke="#666666" points="300.5,-298.75 173.5,-298.75 173.5,-265.25 300.5,-265.25 300.5,-298.75"/>
<text text-anchor="start" x="181.5" y="-285.25" font-family="Helvetica,sans-Serif" font-size="10.00">Simple&#45;Utility/functional</text>
<text text-anchor="middle" x="237" y="-272.5" font-family="Helvetica,sans-Serif" font-size="10.00">/Composition.hpp</text>
</a>
</g>
</g>
<!-- Node1&#45;&gt;Node3 -->
<g id="edge2" class="edge">
<title>Node1&#45;&gt;Node3</title>
<path fill="none" stroke="#63b8ff" d="M155.71,-329.11C172.89,-319.37 192.87,-308.03 208.73,-299.04"/>
<polygon fill="#63b8ff" stroke="#63b8ff" points="154.47,-326.35 147.5,-334.33 157.93,-332.44 154.47,-326.35"/>
</g>
<!-- Node4 -->
<g id="node4" class="node">
<title>Node4</title>
<g id="a_node4"><a xlink:href="../../d7/d0e/_conjunction_8hpp.html" target="_top" xlink:title=" ">
<polygon fill="white" stroke="#666666" points="155.5,-229.25 28.5,-229.25 28.5,-195.75 155.5,-195.75 155.5,-229.25"/>
<text text-anchor="start" x="36.5" y="-215.75" font-family="Helvetica,sans-Serif" font-size="10.00">Simple&#45;Utility/functional</text>
<text text-anchor="middle" x="92" y="-203" font-family="Helvetica,sans-Serif" font-size="10.00">/mixins/Conjunction.hpp</text>
</a>
</g>
</g>
<!-- Node3&#45;&gt;Node4 -->
<g id="edge3" class="edge">
<title>Node3&#45;&gt;Node4</title>
<path fill="none" stroke="#63b8ff" d="M192.53,-260.3C171.37,-250.45 146.44,-238.84 126.7,-229.65"/>
<polygon fill="#63b8ff" stroke="#63b8ff" points="190.73,-263.78 201.27,-264.83 193.68,-257.44 190.73,-263.78"/>
</g>
<!-- Node7 -->
<g id="node7" class="node">
<title>Node7</title>
<g id="a_node7"><a xlink:href="../../d7/ddc/_disjunction_8hpp.html" target="_top" xlink:title=" ">
<polygon fill="white" stroke="#666666" points="300.5,-229.25 173.5,-229.25 173.5,-195.75 300.5,-195.75 300.5,-229.25"/>
<text text-anchor="start" x="181.5" y="-215.75" font-family="Helvetica,sans-Serif" font-size="10.00">Simple&#45;Utility/functional</text>
<text text-anchor="middle" x="237" y="-203" font-family="Helvetica,sans-Serif" font-size="10.00">/mixins/Disjunction.hpp</text>
</a>
</g>
</g>
<!-- Node3&#45;&gt;Node7 -->
<g id="edge8" class="edge">
<title>Node3&#45;&gt;Node7</title>
<path fill="none" stroke="#63b8ff" d="M237,-254.14C237,-245.75 237,-236.76 237,-229.38"/>
<polygon fill="#63b8ff" stroke="#63b8ff" points="233.5,-254 237,-264 240.5,-254 233.5,-254"/>
</g>
<!-- Node8 -->
<g id="node8" class="node">
<title>Node8</title>
<g id="a_node8"><a xlink:href="../../de/d71/_equality_8hpp.html" target="_top" xlink:title=" ">
<polygon fill="white" stroke="#666666" points="445.5,-229.25 318.5,-229.25 318.5,-195.75 445.5,-195.75 445.5,-229.25"/>
<text text-anchor="start" x="326.5" y="-215.75" font-family="Helvetica,sans-Serif" font-size="10.00">Simple&#45;Utility/functional</text>
<text text-anchor="middle" x="382" y="-203" font-family="Helvetica,sans-Serif" font-size="10.00">/mixins/Equality.hpp</text>
</a>
</g>
</g>
<!-- Node3&#45;&gt;Node8 -->
<g id="edge10" class="edge">
<title>Node3&#45;&gt;Node8</title>
<path fill="none" stroke="#63b8ff" d="M281.47,-260.3C302.63,-250.45 327.56,-238.84 347.3,-229.65"/>
<polygon fill="#63b8ff" stroke="#63b8ff" points="280.32,-257.44 272.73,-264.83 283.27,-263.78 280.32,-257.44"/>
</g>
<!-- Node9 -->
<g id="node9" class="node">
<title>Node9</title>
<g id="a_node9"><a xlink:href="../../d2/df5/_pipe_8hpp.html" target="_top" xlink:title=" ">
<polygon fill="white" stroke="#666666" points="590.5,-229.25 463.5,-229.25 463.5,-195.75 590.5,-195.75 590.5,-229.25"/>
<text text-anchor="start" x="471.5" y="-215.75" font-family="Helvetica,sans-Serif" font-size="10.00">Simple&#45;Utility/functional</text>
<text text-anchor="middle" x="527" y="-203" font-family="Helvetica,sans-Serif" font-size="10.00">/mixins/Pipe.hpp</text>
</a>
</g>
</g>
<!-- Node3&#45;&gt;Node9 -->
<g id="edge12" class="edge">
<title>Node3&#45;&gt;Node9</title>
<path fill="none" stroke="#63b8ff" d="M311.35,-263.69C358.26,-252.78 418.22,-238.82 463.01,-228.4"/>
<polygon fill="#63b8ff" stroke="#63b8ff" points="310.59,-260.51 301.64,-266.19 312.17,-267.33 310.59,-260.51"/>
</g>
<!-- Node5 -->
<g id="node5" class="node">
<title>Node5</title>
<g id="a_node5"><a xlink:href="../../d4/d53/_predicate_8hpp.html" target="_top" xlink:title=" ">
<polygon fill="white" stroke="#666666" points="315.5,-159.75 188.5,-159.75 188.5,-126.25 315.5,-126.25 315.5,-159.75"/>
<text text-anchor="start" x="196.5" y="-146.25" font-family="Helvetica,sans-Serif" font-size="10.00">Simple&#45;Utility/functional</text>
<text text-anchor="middle" x="252" y="-133.5" font-family="Helvetica,sans-Serif" font-size="10.00">/Predicate.hpp</text>
</a>
</g>
</g>
<!-- Node4&#45;&gt;Node5 -->
<g id="edge4" class="edge">
<title>Node4&#45;&gt;Node5</title>
<path fill="none" stroke="#63b8ff" d="M140.43,-191.07C163.92,-181.16 191.73,-169.43 213.71,-160.15"/>
<polygon fill="#63b8ff" stroke="#63b8ff" points="139.18,-188.22 131.32,-195.33 141.9,-194.67 139.18,-188.22"/>
</g>
<!-- Node5&#45;&gt;Node2 -->
<g id="edge5" class="edge">
<title>Node5&#45;&gt;Node2</title>
<path fill="none" stroke="#63b8ff" d="M233.01,-117.18C221.55,-98.96 211.54,-74.41 225,-56.75 237.34,-40.56 283.72,-28.71 324.18,-21.18"/>
<polygon fill="#63b8ff" stroke="#63b8ff" points="230.52,-118.74 239.02,-125.06 236.31,-114.81 230.52,-118.74"/>
</g>
<!-- Node6 -->
<g id="node6" class="node">
<title>Node6</title>
<g id="a_node6"><a xlink:href="../../d8/d60/_compare_8hpp.html" target="_top" xlink:title=" ">
<polygon fill="white" stroke="#666666" points="361.5,-90.25 234.5,-90.25 234.5,-56.75 361.5,-56.75 361.5,-90.25"/>
<text text-anchor="start" x="242.5" y="-76.75" font-family="Helvetica,sans-Serif" font-size="10.00">Simple&#45;Utility/functional</text>
<text text-anchor="middle" x="298" y="-64" font-family="Helvetica,sans-Serif" font-size="10.00">/Compare.hpp</text>
</a>
</g>
</g>
<!-- Node5&#45;&gt;Node6 -->
<g id="edge6" class="edge">
<title>Node5&#45;&gt;Node6</title>
<path fill="none" stroke="#63b8ff" d="M268.95,-117.13C275.04,-108.19 281.75,-98.35 287.18,-90.38"/>
<polygon fill="#63b8ff" stroke="#63b8ff" points="265.64,-114.77 262.9,-125 271.43,-118.71 265.64,-114.77"/>
</g>
<!-- Node6&#45;&gt;Node2 -->
<g id="edge7" class="edge">
<title>Node6&#45;&gt;Node2</title>
<path fill="none" stroke="#63b8ff" d="M331.23,-50.42C346.3,-40.41 363.35,-29.08 375.19,-21.22"/>
<polygon fill="#63b8ff" stroke="#63b8ff" points="329.56,-47.99 323.17,-56.44 333.44,-53.82 329.56,-47.99"/>
</g>
<!-- Node7&#45;&gt;Node5 -->
<g id="edge9" class="edge">
<title>Node7&#45;&gt;Node5</title>
<path fill="none" stroke="#63b8ff" d="M242.91,-184.92C244.79,-176.45 246.81,-167.35 248.47,-159.88"/>
<polygon fill="#63b8ff" stroke="#63b8ff" points="239.31,-183.98 240.55,-194.5 246.14,-185.5 239.31,-183.98"/>
</g>
<!-- Node8&#45;&gt;Node5 -->
<g id="edge11" class="edge">
<title>Node8&#45;&gt;Node5</title>
<path fill="none" stroke="#63b8ff" d="M341.32,-190.38C322.44,-180.58 300.37,-169.11 282.88,-160.04"/>
<polygon fill="#63b8ff" stroke="#63b8ff" points="339.37,-193.83 349.86,-195.33 342.6,-187.62 339.37,-193.83"/>
</g>
<!-- Node9&#45;&gt;Node5 -->
<g id="edge13" class="edge">
<title>Node9&#45;&gt;Node5</title>
<path fill="none" stroke="#63b8ff" d="M452.59,-193.24C409.86,-182.75 356.75,-169.71 315.91,-159.69"/>
<polygon fill="#63b8ff" stroke="#63b8ff" points="451.67,-196.86 462.22,-195.84 453.34,-190.06 451.67,-196.86"/>
</g>
<!-- Node10 -->
<g id="node10" class="node">
<title>Node10</title>
<g id="a_node10"><a xlink:href="../../d9/d8c/_transform_8hpp.html" target="_top" xlink:title=" ">
<polygon fill="white" stroke="#666666" points="575.5,-159.75 448.5,-159.75 448.5,-126.25 575.5,-126.25 575.5,-159.75"/>
<text text-anchor="start" x="456.5" y="-146.25" font-family="Helvetica,sans-Serif" font-size="10.00">Simple&#45;Utility/functional</text>
<text text-anchor="middle" x="512" y="-133.5" font-family="Helvetica,sans-Serif" font-size="10.00">/Transform.hpp</text>
</a>
</g>
</g>
<!-- Node9&#45;&gt;Node10 -->
<g id="edge14" class="edge">
<title>Node9&#45;&gt;Node10</title>
<path fill="none" stroke="#63b8ff" d="M521.09,-184.92C519.21,-176.45 517.19,-167.35 515.53,-159.88"/>
<polygon fill="#63b8ff" stroke="#63b8ff" points="517.86,-185.5 523.45,-194.5 524.69,-183.98 517.86,-185.5"/>
</g>
<!-- Node10&#45;&gt;Node2 -->
<g id="edge15" class="edge">
<title>Node10&#45;&gt;Node2</title>
<path fill="none" stroke="#63b8ff" d="M450.11,-121.08C435.16,-113.44 420.48,-103.35 410,-90.25 393.58,-69.73 390.46,-37.39 389.99,-21.24"/>
<polygon fill="#63b8ff" stroke="#63b8ff" points="448.41,-124.62 458.94,-125.75 451.41,-118.3 448.41,-124.62"/>
</g>
<!-- Node10&#45;&gt;Node6 -->
<g id="edge18" class="edge">
<title>Node10&#45;&gt;Node6</title>
<path fill="none" stroke="#63b8ff" d="M450.58,-122.63C418.48,-112.5 379.66,-100.26 349.21,-90.65"/>
<polygon fill="#63b8ff" stroke="#63b8ff" points="449.15,-126.16 459.74,-125.83 451.26,-119.49 449.15,-126.16"/>
</g>
<!-- Node11 -->
<g id="node11" class="node">
<title>Node11</title>
<g id="a_node11"><a xlink:href="../../d3/dc2/_arithmetic_8hpp.html" target="_top" xlink:title=" ">
<polygon fill="white" stroke="#666666" points="545.5,-90.25 418.5,-90.25 418.5,-56.75 545.5,-56.75 545.5,-90.25"/>
<text text-anchor="start" x="426.5" y="-76.75" font-family="Helvetica,sans-Serif" font-size="10.00">Simple&#45;Utility/functional</text>
<text text-anchor="middle" x="482" y="-64" font-family="Helvetica,sans-Serif" font-size="10.00">/Arithmetic.hpp</text>
</a>
</g>
</g>
<!-- Node10&#45;&gt;Node11 -->
<g id="edge16" class="edge">
<title>Node10&#45;&gt;Node11</title>
<path fill="none" stroke="#63b8ff" d="M500.44,-115.99C496.6,-107.36 492.45,-98.01 489.06,-90.38"/>
<polygon fill="#63b8ff" stroke="#63b8ff" points="497.63,-117.29 504.89,-125 504.03,-114.44 497.63,-117.29"/>
</g>
<!-- Node12 -->
<g id="node12" class="node">
<title>Node12</title>
<g id="a_node12"><a xlink:href="../../da/dae/functional_2_tuple_8hpp.html" target="_top" xlink:title=" ">
<polygon fill="white" stroke="#666666" points="690.5,-90.25 563.5,-90.25 563.5,-56.75 690.5,-56.75 690.5,-90.25"/>
<text text-anchor="start" x="571.5" y="-76.75" font-family="Helvetica,sans-Serif" font-size="10.00">Simple&#45;Utility/functional</text>
<text text-anchor="middle" x="627" y="-64" font-family="Helvetica,sans-Serif" font-size="10.00">/Tuple.hpp</text>
</a>
</g>
</g>
<!-- Node10&#45;&gt;Node12 -->
<g id="edge19" class="edge">
<title>Node10&#45;&gt;Node12</title>
<path fill="none" stroke="#63b8ff" d="M548.91,-120.34C565.4,-110.66 584.5,-99.45 599.68,-90.54"/>
<polygon fill="#63b8ff" stroke="#63b8ff" points="547.4,-117.75 540.55,-125.83 550.94,-123.79 547.4,-117.75"/>
</g>
<!-- Node13 -->
<g id="node13" class="node">
<title>Node13</title>
<g id="a_node13"><a xlink:href="../../de/d61/functional_2_utility_8hpp.html" target="_top" xlink:title=" ">
<polygon fill="white" stroke="#666666" points="835.5,-90.25 708.5,-90.25 708.5,-56.75 835.5,-56.75 835.5,-90.25"/>
<text text-anchor="start" x="716.5" y="-76.75" font-family="Helvetica,sans-Serif" font-size="10.00">Simple&#45;Utility/functional</text>
<text text-anchor="middle" x="772" y="-64" font-family="Helvetica,sans-Serif" font-size="10.00">/Utility.hpp</text>
</a>
</g>
</g>
<!-- Node10&#45;&gt;Node13 -->
<g id="edge21" class="edge">
<title>Node10&#45;&gt;Node13</title>
<path fill="none" stroke="#63b8ff" d="M584.86,-123.08C624.19,-112.87 672.22,-100.4 709.78,-90.65"/>
<polygon fill="#63b8ff" stroke="#63b8ff" points="584.08,-119.93 575.28,-125.83 585.84,-126.71 584.08,-119.93"/>
</g>
<!-- Node11&#45;&gt;Node2 -->
<g id="edge17" class="edge">
<title>Node11&#45;&gt;Node2</title>
<path fill="none" stroke="#63b8ff" d="M448.77,-50.42C433.7,-40.41 416.65,-29.08 404.81,-21.22"/>
<polygon fill="#63b8ff" stroke="#63b8ff" points="446.56,-53.82 456.83,-56.44 450.44,-47.99 446.56,-53.82"/>
</g>
<!-- Node12&#45;&gt;Node2 -->
<g id="edge20" class="edge">
<title>Node12&#45;&gt;Node2</title>
<path fill="none" stroke="#63b8ff" d="M553.47,-53.54C511.91,-42.82 461.68,-29.86 427.96,-21.17"/>
<polygon fill="#63b8ff" stroke="#63b8ff" points="552.55,-57.17 563.11,-56.28 554.3,-50.39 552.55,-57.17"/>
</g>
<!-- Node13&#45;&gt;Node2 -->
<g id="edge22" class="edge">
<title>Node13&#45;&gt;Node2</title>
<path fill="none" stroke="#63b8ff" d="M697.41,-56.34C612.22,-41.05 524.27,-28.68 463.83,-20.7"/>
<polygon fill="#63b8ff" stroke="#63b8ff" points="696.59,-59.93 707.06,-58.27 697.84,-53.04 696.59,-59.93"/>
</g>
</g>
</svg>
