<?xml version="1.0" encoding="UTF-8" standalone="no"?>
<!DOCTYPE svg PUBLIC "-//W3C//DTD SVG 1.1//EN"
 "http://www.w3.org/Graphics/SVG/1.1/DTD/svg11.dtd">
<!-- Generated by graphviz version 8.0.5 (20230430.1635)
 -->
<!-- Title: Simple&#45;Utility/functional/Overloaded.hpp Pages: 1 -->
<svg width="842pt" height="376pt"
 viewBox="0.00 0.00 842.09 376.25" xmlns="http://www.w3.org/2000/svg" xmlns:xlink="http://www.w3.org/1999/xlink">
<g id="graph0" class="graph" transform="scale(1 1) rotate(0) translate(4 372.25)">
<title>Simple&#45;Utility/functional/Overloaded.hpp</title>
<!-- Node1 -->
<g id="node1" class="node">
<title>Node1</title>
<g id="a_node1"><a xlink:title=" ">
<polygon fill="#999999" stroke="#666666" points="296.5,-368.25 169.5,-368.25 169.5,-334.75 296.5,-334.75 296.5,-368.25"/>
<text text-anchor="start" x="177.5" y="-354.75" font-family="Helvetica,sans-Serif" font-size="10.00">Simple&#45;Utility/functional</text>
<text text-anchor="middle" x="233" y="-342" font-family="Helvetica,sans-Serif" font-size="10.00">/Overloaded.hpp</text>
</a>
</g>
</g>
<!-- Node2 -->
<g id="node2" class="node">
<title>Node2</title>
<g id="a_node2"><a xlink:href="../../d2/db4/functional_8hpp.html" target="_top" xlink:title=" ">
<polygon fill="white" stroke="#666666" points="524.62,-20.75 377.38,-20.75 377.38,0 524.62,0 524.62,-20.75"/>
<text text-anchor="middle" x="451" y="-7.25" font-family="Helvetica,sans-Serif" font-size="10.00">Simple&#45;Utility/functional.hpp</text>
</a>
</g>
</g>
<!-- Node1&#45;&gt;Node2 -->
<g id="edge1" class="edge">
<title>Node1&#45;&gt;Node2</title>
<path fill="none" stroke="#63b8ff" d="M158.29,-338.6C90.14,-322.99 0,-288.22 0,-213.5 0,-213.5 0,-213.5 0,-142 0,-93.81 24.97,-80.32 67,-56.75 118.52,-27.85 280.7,-17.24 377.03,-13.43"/>
<polygon fill="#63b8ff" stroke="#63b8ff" points="157.51,-342.23 168.02,-340.95 159,-335.39 157.51,-342.23"/>
</g>
<!-- Node3 -->
<g id="node3" class="node">
<title>Node3</title>
<g id="a_node3"><a xlink:href="../../d3/d48/_composition_8hpp.html" target="_top" xlink:title=" ">
<polygon fill="white" stroke="#666666" points="601.5,-298.75 474.5,-298.75 474.5,-265.25 601.5,-265.25 601.5,-298.75"/>
<text text-anchor="start" x="482.5" y="-285.25" font-family="Helvetica,sans-Serif" font-size="10.00">Simple&#45;Utility/functional</text>
<text text-anchor="middle" x="538" y="-272.5" font-family="Helvetica,sans-Serif" font-size="10.00">/Composition.hpp</text>
</a>
</g>
</g>
<!-- Node1&#45;&gt;Node3 -->
<g id="edge2" class="edge">
<title>Node1&#45;&gt;Node3</title>
<path fill="none" stroke="#63b8ff" d="M307.57,-334C358.61,-322.7 425.57,-307.88 474.15,-297.13"/>
<polygon fill="#63b8ff" stroke="#63b8ff" points="306.95,-330.77 297.94,-336.35 308.46,-337.61 306.95,-330.77"/>
</g>
<!-- Node3&#45;&gt;Node2 -->
<g id="edge3" class="edge">
<title>Node3&#45;&gt;Node2</title>
<path fill="none" stroke="#63b8ff" d="M612.55,-278.29C689.45,-273.75 801.89,-261.6 829,-229.25 838.56,-217.84 831.79,-210.38 829,-195.75 816.56,-130.49 826.21,-97.84 774,-56.75 736.45,-27.2 608.06,-16.89 524.9,-13.3"/>
<polygon fill="#63b8ff" stroke="#63b8ff" points="612.73,-274.83 602.94,-278.88 613.12,-281.82 612.73,-274.83"/>
</g>
<!-- Node4 -->
<g id="node4" class="node">
<title>Node4</title>
<g id="a_node4"><a xlink:href="../../d7/d0e/_conjunction_8hpp.html" target="_top" xlink:title=" ">
<polygon fill="white" stroke="#666666" points="674.5,-229.25 547.5,-229.25 547.5,-195.75 674.5,-195.75 674.5,-229.25"/>
<text text-anchor="start" x="555.5" y="-215.75" font-family="Helvetica,sans-Serif" font-size="10.00">Simple&#45;Utility/functional</text>
<text text-anchor="middle" x="611" y="-203" font-family="Helvetica,sans-Serif" font-size="10.00">/mixins/Conjunction.hpp</text>
</a>
</g>
</g>
<!-- Node3&#45;&gt;Node4 -->
<g id="edge4" class="edge">
<title>Node3&#45;&gt;Node4</title>
<path fill="none" stroke="#63b8ff" d="M563.32,-257.59C573.31,-248.35 584.53,-237.98 593.57,-229.62"/>
<polygon fill="#63b8ff" stroke="#63b8ff" points="561.27,-254.64 556.3,-264 566.02,-259.78 561.27,-254.64"/>
</g>
<!-- Node7 -->
<g id="node7" class="node">
<title>Node7</title>
<g id="a_node7"><a xlink:href="../../d7/ddc/_disjunction_8hpp.html" target="_top" xlink:title=" ">
<polygon fill="white" stroke="#666666" points="819.5,-229.25 692.5,-229.25 692.5,-195.75 819.5,-195.75 819.5,-229.25"/>
<text text-anchor="start" x="700.5" y="-215.75" font-family="Helvetica,sans-Serif" font-size="10.00">Simple&#45;Utility/functional</text>
<text text-anchor="middle" x="756" y="-203" font-family="Helvetica,sans-Serif" font-size="10.00">/mixins/Disjunction.hpp</text>
</a>
</g>
</g>
<!-- Node3&#45;&gt;Node7 -->
<g id="edge10" class="edge">
<title>Node3&#45;&gt;Node7</title>
<path fill="none" stroke="#63b8ff" d="M600.57,-261.63C633.26,-251.5 672.81,-239.26 703.83,-229.65"/>
<polygon fill="#63b8ff" stroke="#63b8ff" points="599.73,-258.53 591.22,-264.83 601.8,-265.22 599.73,-258.53"/>
</g>
<!-- Node8 -->
<g id="node8" class="node">
<title>Node8</title>
<g id="a_node8"><a xlink:href="../../de/d71/_equality_8hpp.html" target="_top" xlink:title=" ">
<polygon fill="white" stroke="#666666" points="384.5,-229.25 257.5,-229.25 257.5,-195.75 384.5,-195.75 384.5,-229.25"/>
<text text-anchor="start" x="265.5" y="-215.75" font-family="Helvetica,sans-Serif" font-size="10.00">Simple&#45;Utility/functional</text>
<text text-anchor="middle" x="321" y="-203" font-family="Helvetica,sans-Serif" font-size="10.00">/mixins/Equality.hpp</text>
</a>
</g>
</g>
<!-- Node3&#45;&gt;Node8 -->
<g id="edge13" class="edge">
<title>Node3&#45;&gt;Node8</title>
<path fill="none" stroke="#63b8ff" d="M475.72,-261.63C443.17,-251.5 403.81,-239.26 372.93,-229.65"/>
<polygon fill="#63b8ff" stroke="#63b8ff" points="474.43,-265.2 485.02,-264.83 476.51,-258.52 474.43,-265.2"/>
</g>
<!-- Node9 -->
<g id="node9" class="node">
<title>Node9</title>
<g id="a_node9"><a xlink:href="../../d2/df5/_pipe_8hpp.html" target="_top" xlink:title=" ">
<polygon fill="white" stroke="#666666" points="529.5,-229.25 402.5,-229.25 402.5,-195.75 529.5,-195.75 529.5,-229.25"/>
<text text-anchor="start" x="410.5" y="-215.75" font-family="Helvetica,sans-Serif" font-size="10.00">Simple&#45;Utility/functional</text>
<text text-anchor="middle" x="466" y="-203" font-family="Helvetica,sans-Serif" font-size="10.00">/mixins/Pipe.hpp</text>
</a>
</g>
</g>
<!-- Node3&#45;&gt;Node9 -->
<g id="edge16" class="edge">
<title>Node3&#45;&gt;Node9</title>
<path fill="none" stroke="#63b8ff" d="M512.97,-257.53C503.04,-248.23 491.89,-237.77 482.94,-229.38"/>
<polygon fill="#63b8ff" stroke="#63b8ff" points="510.25,-259.72 519.94,-264 515.04,-254.61 510.25,-259.72"/>
</g>
<!-- Node4&#45;&gt;Node2 -->
<g id="edge5" class="edge">
<title>Node4&#45;&gt;Node2</title>
<path fill="none" stroke="#63b8ff" d="M659.46,-190.37C673.85,-182.36 688.76,-172.12 700,-159.75 732.25,-124.28 763.08,-93.25 732,-56.75 705.89,-26.09 599.11,-16.07 524.97,-12.85"/>
<polygon fill="#63b8ff" stroke="#63b8ff" points="658.32,-187.54 651.12,-195.31 661.6,-193.73 658.32,-187.54"/>
</g>
<!-- Node5 -->
<g id="node5" class="node">
<title>Node5</title>
<g id="a_node5"><a xlink:href="../../d4/d53/_predicate_8hpp.html" target="_top" xlink:title=" ">
<polygon fill="white" stroke="#666666" points="690.5,-159.75 563.5,-159.75 563.5,-126.25 690.5,-126.25 690.5,-159.75"/>
<text text-anchor="start" x="571.5" y="-146.25" font-family="Helvetica,sans-Serif" font-size="10.00">Simple&#45;Utility/functional</text>
<text text-anchor="middle" x="627" y="-133.5" font-family="Helvetica,sans-Serif" font-size="10.00">/Predicate.hpp</text>
</a>
</g>
</g>
<!-- Node4&#45;&gt;Node5 -->
<g id="edge6" class="edge">
<title>Node4&#45;&gt;Node5</title>
<path fill="none" stroke="#63b8ff" d="M617.3,-184.92C619.31,-176.45 621.47,-167.35 623.24,-159.88"/>
<polygon fill="#63b8ff" stroke="#63b8ff" points="613.69,-183.97 614.79,-194.5 620.5,-185.58 613.69,-183.97"/>
</g>
<!-- Node5&#45;&gt;Node2 -->
<g id="edge7" class="edge">
<title>Node5&#45;&gt;Node2</title>
<path fill="none" stroke="#63b8ff" d="M682.93,-120.72C695.68,-113.11 707.64,-103.12 715,-90.25 722.39,-77.33 724.6,-68.13 715,-56.75 691.1,-28.39 594.5,-17.76 525.07,-13.77"/>
<polygon fill="#63b8ff" stroke="#63b8ff" points="681.64,-117.98 674.55,-125.85 685,-124.12 681.64,-117.98"/>
</g>
<!-- Node6 -->
<g id="node6" class="node">
<title>Node6</title>
<g id="a_node6"><a xlink:href="../../d8/d60/_compare_8hpp.html" target="_top" xlink:title=" ">
<polygon fill="white" stroke="#666666" points="705.5,-90.25 578.5,-90.25 578.5,-56.75 705.5,-56.75 705.5,-90.25"/>
<text text-anchor="start" x="586.5" y="-76.75" font-family="Helvetica,sans-Serif" font-size="10.00">Simple&#45;Utility/functional</text>
<text text-anchor="middle" x="642" y="-64" font-family="Helvetica,sans-Serif" font-size="10.00">/Compare.hpp</text>
</a>
</g>
</g>
<!-- Node5&#45;&gt;Node6 -->
<g id="edge8" class="edge">
<title>Node5&#45;&gt;Node6</title>
<path fill="none" stroke="#63b8ff" d="M632.91,-115.42C634.79,-106.95 636.81,-97.85 638.47,-90.38"/>
<polygon fill="#63b8ff" stroke="#63b8ff" points="629.31,-114.48 630.55,-125 636.14,-116 629.31,-114.48"/>
</g>
<!-- Node6&#45;&gt;Node2 -->
<g id="edge9" class="edge">
<title>Node6&#45;&gt;Node2</title>
<path fill="none" stroke="#63b8ff" d="M581.24,-53.06C548.04,-42.43 508.36,-29.73 481.59,-21.17"/>
<polygon fill="#63b8ff" stroke="#63b8ff" points="579.73,-56.57 590.32,-56.28 581.86,-49.9 579.73,-56.57"/>
</g>
<!-- Node7&#45;&gt;Node2 -->
<g id="edge11" class="edge">
<title>Node7&#45;&gt;Node2</title>
<path fill="none" stroke="#63b8ff" d="M764.51,-185C773.65,-150.89 783.01,-91.86 752,-56.75 722.87,-23.78 604.31,-14.5 524.97,-12.04"/>
<polygon fill="#63b8ff" stroke="#63b8ff" points="760.88,-183.96 761.48,-194.54 767.61,-185.9 760.88,-183.96"/>
</g>
<!-- Node7&#45;&gt;Node5 -->
<g id="edge12" class="edge">
<title>Node7&#45;&gt;Node5</title>
<path fill="none" stroke="#63b8ff" d="M715.38,-190.24C696.7,-180.47 674.91,-169.07 657.65,-160.04"/>
<polygon fill="#63b8ff" stroke="#63b8ff" points="713.62,-193.8 724.1,-195.33 716.86,-187.59 713.62,-193.8"/>
</g>
<!-- Node8&#45;&gt;Node2 -->
<g id="edge14" class="edge">
<title>Node8&#45;&gt;Node2</title>
<path fill="none" stroke="#63b8ff" d="M246.73,-193.9C157.73,-169.47 27.26,-120.94 84,-56.75 103.05,-35.19 275.36,-21.58 376.96,-15.35"/>
<polygon fill="#63b8ff" stroke="#63b8ff" points="245.53,-197.47 256.09,-196.69 247.35,-190.71 245.53,-197.47"/>
</g>
<!-- Node8&#45;&gt;Node5 -->
<g id="edge15" class="edge">
<title>Node8&#45;&gt;Node5</title>
<path fill="none" stroke="#63b8ff" d="M395.46,-195.07C446.75,-183.76 514.19,-168.89 563.04,-158.11"/>
<polygon fill="#63b8ff" stroke="#63b8ff" points="394.79,-191.86 385.78,-197.43 396.29,-198.7 394.79,-191.86"/>
</g>
<!-- Node9&#45;&gt;Node2 -->
<g id="edge17" class="edge">
<title>Node9&#45;&gt;Node2</title>
<path fill="none" stroke="#63b8ff" d="M392.99,-192.56C290.12,-165.16 112.96,-115.01 95,-90.25 86.26,-78.2 85.16,-67.92 95,-56.75 113.32,-35.94 278.28,-22.13 377.1,-15.65"/>
<polygon fill="#63b8ff" stroke="#63b8ff" points="391.76,-196.12 402.32,-195.3 393.55,-189.36 391.76,-196.12"/>
</g>
<!-- Node9&#45;&gt;Node5 -->
<g id="edge18" class="edge">
<title>Node9&#45;&gt;Node5</title>
<path fill="none" stroke="#63b8ff" d="M514.42,-191.2C538.12,-181.26 566.26,-169.47 588.47,-160.15"/>
<polygon fill="#63b8ff" stroke="#63b8ff" points="513.43,-188.24 505.56,-195.33 516.14,-194.69 513.43,-188.24"/>
</g>
<!-- Node10 -->
<g id="node10" class="node">
<title>Node10</title>
<g id="a_node10"><a xlink:href="../../d9/d8c/_transform_8hpp.html" target="_top" xlink:title=" ">
<polygon fill="white" stroke="#666666" points="498.5,-159.75 371.5,-159.75 371.5,-126.25 498.5,-126.25 498.5,-159.75"/>
<text text-anchor="start" x="379.5" y="-146.25" font-family="Helvetica,sans-Serif" font-size="10.00">Simple&#45;Utility/functional</text>
<text text-anchor="middle" x="435" y="-133.5" font-family="Helvetica,sans-Serif" font-size="10.00">/Transform.hpp</text>
</a>
</g>
</g>
<!-- Node9&#45;&gt;Node10 -->
<g id="edge19" class="edge">
<title>Node9&#45;&gt;Node10</title>
<path fill="none" stroke="#63b8ff" d="M454.19,-185.78C450.19,-177.07 445.84,-167.6 442.29,-159.88"/>
<polygon fill="#63b8ff" stroke="#63b8ff" points="451.3,-186.88 458.65,-194.5 457.66,-183.96 451.3,-186.88"/>
</g>
<!-- Node10&#45;&gt;Node2 -->
<g id="edge20" class="edge">
<title>Node10&#45;&gt;Node2</title>
<path fill="none" stroke="#63b8ff" d="M426.9,-115.72C422.87,-98.68 419.84,-76.12 425,-56.75 428.55,-43.41 437.05,-29.92 443.37,-21.15"/>
<polygon fill="#63b8ff" stroke="#63b8ff" points="423.68,-116.26 429.62,-125.03 430.45,-114.47 423.68,-116.26"/>
</g>
<!-- Node10&#45;&gt;Node6 -->
<g id="edge23" class="edge">
<title>Node10&#45;&gt;Node6</title>
<path fill="none" stroke="#63b8ff" d="M494.82,-122.49C525.78,-112.4 563.14,-100.22 592.46,-90.65"/>
<polygon fill="#63b8ff" stroke="#63b8ff" points="494,-119.4 485.58,-125.83 496.17,-126.06 494,-119.4"/>
</g>
<!-- Node11 -->
<g id="node11" class="node">
<title>Node11</title>
<g id="a_node11"><a xlink:href="../../d3/dc2/_arithmetic_8hpp.html" target="_top" xlink:title=" ">
<polygon fill="white" stroke="#666666" points="560.5,-90.25 433.5,-90.25 433.5,-56.75 560.5,-56.75 560.5,-90.25"/>
<text text-anchor="start" x="441.5" y="-76.75" font-family="Helvetica,sans-Serif" font-size="10.00">Simple&#45;Utility/functional</text>
<text text-anchor="middle" x="497" y="-64" font-family="Helvetica,sans-Serif" font-size="10.00">/Arithmetic.hpp</text>
</a>
</g>
</g>
<!-- Node10&#45;&gt;Node11 -->
<g id="edge21" class="edge">
<title>Node10&#45;&gt;Node11</title>
<path fill="none" stroke="#63b8ff" d="M457.07,-117.97C465.49,-108.81 474.86,-98.6 482.41,-90.38"/>
<polygon fill="#63b8ff" stroke="#63b8ff" points="454.88,-115.27 450.69,-125 460.04,-120.01 454.88,-115.27"/>
</g>
<!-- Node12 -->
<g id="node12" class="node">
<title>Node12</title>
<g id="a_node12"><a xlink:href="../../da/dae/functional_2_tuple_8hpp.html" target="_top" xlink:title=" ">
<polygon fill="white" stroke="#666666" points="231.5,-90.25 104.5,-90.25 104.5,-56.75 231.5,-56.75 231.5,-90.25"/>
<text text-anchor="start" x="112.5" y="-76.75" font-family="Helvetica,sans-Serif" font-size="10.00">Simple&#45;Utility/functional</text>
<text text-anchor="middle" x="168" y="-64" font-family="Helvetica,sans-Serif" font-size="10.00">/Tuple.hpp</text>
</a>
</g>
</g>
<!-- Node10&#45;&gt;Node12 -->
<g id="edge24" class="edge">
<title>Node10&#45;&gt;Node12</title>
<path fill="none" stroke="#63b8ff" d="M360.44,-123.15C320,-112.93 270.54,-100.42 231.89,-90.65"/>
<polygon fill="#63b8ff" stroke="#63b8ff" points="359.49,-126.77 370.05,-125.83 361.21,-119.99 359.49,-126.77"/>
</g>
<!-- Node13 -->
<g id="node13" class="node">
<title>Node13</title>
<g id="a_node13"><a xlink:href="../../de/d61/functional_2_utility_8hpp.html" target="_top" xlink:title=" ">
<polygon fill="white" stroke="#666666" points="376.5,-90.25 249.5,-90.25 249.5,-56.75 376.5,-56.75 376.5,-90.25"/>
<text text-anchor="start" x="257.5" y="-76.75" font-family="Helvetica,sans-Serif" font-size="10.00">Simple&#45;Utility/functional</text>
<text text-anchor="middle" x="313" y="-64" font-family="Helvetica,sans-Serif" font-size="10.00">/Utility.hpp</text>
</a>
</g>
</g>
<!-- Node10&#45;&gt;Node13 -->
<g id="edge26" class="edge">
<title>Node10&#45;&gt;Node13</title>
<path fill="none" stroke="#63b8ff" d="M396.34,-120.61C378.73,-110.87 358.24,-99.53 341.98,-90.54"/>
<polygon fill="#63b8ff" stroke="#63b8ff" points="394.33,-124.05 404.78,-125.83 397.72,-117.93 394.33,-124.05"/>
</g>
<!-- Node11&#45;&gt;Node2 -->
<g id="edge22" class="edge">
<title>Node11&#45;&gt;Node2</title>
<path fill="none" stroke="#63b8ff" d="M478.45,-47.85C471.42,-38.51 463.82,-28.42 458.41,-21.22"/>
<polygon fill="#63b8ff" stroke="#63b8ff" points="476.1,-49.55 484.91,-55.44 481.7,-45.35 476.1,-49.55"/>
</g>
<!-- Node12&#45;&gt;Node2 -->
<g id="edge25" class="edge">
<title>Node12&#45;&gt;Node2</title>
<path fill="none" stroke="#63b8ff" d="M242.32,-56.45C294.08,-45.27 361.44,-30.72 405.43,-21.22"/>
<polygon fill="#63b8ff" stroke="#63b8ff" points="241.9,-53.17 232.86,-58.71 243.38,-60.02 241.9,-53.17"/>
</g>
<!-- Node13&#45;&gt;Node2 -->
<g id="edge27" class="edge">
<title>Node13&#45;&gt;Node2</title>
<path fill="none" stroke="#63b8ff" d="M359.39,-51.95C382.85,-41.56 410.22,-29.44 428.9,-21.17"/>
<polygon fill="#63b8ff" stroke="#63b8ff" points="358.34,-49.03 350.62,-56.28 361.18,-55.43 358.34,-49.03"/>
</g>
</g>
</svg>
