<?xml version="1.0" encoding="UTF-8" standalone="no"?>
<!DOCTYPE svg PUBLIC "-//W3C//DTD SVG 1.1//EN"
 "http://www.w3.org/Graphics/SVG/1.1/DTD/svg11.dtd">
<!-- Generated by graphviz version 8.0.5 (20230430.1635)
 -->
<!-- Title: Simple&#45;Utility/functional/mixins/Equality.hpp Pages: 1 -->
<svg width="237pt" height="237pt"
 viewBox="0.00 0.00 237.12 237.25" xmlns="http://www.w3.org/2000/svg" xmlns:xlink="http://www.w3.org/1999/xlink">
<g id="graph0" class="graph" transform="scale(1 1) rotate(0) translate(4 233.25)">
<title>Simple&#45;Utility/functional/mixins/Equality.hpp</title>
<!-- Node1 -->
<g id="node1" class="node">
<title>Node1</title>
<g id="a_node1"><a xlink:title=" ">
<polygon fill="#999999" stroke="#666666" points="145.12,-229.25 18.12,-229.25 18.12,-195.75 145.12,-195.75 145.12,-229.25"/>
<text text-anchor="start" x="26.12" y="-215.75" font-family="Helvetica,sans-Serif" font-size="10.00">Simple&#45;Utility/functional</text>
<text text-anchor="middle" x="81.62" y="-203" font-family="Helvetica,sans-Serif" font-size="10.00">/mixins/Equality.hpp</text>
</a>
</g>
</g>
<!-- Node2 -->
<g id="node2" class="node">
<title>Node2</title>
<g id="a_node2"><a xlink:href="../../d2/db4/functional_8hpp.html" target="_top" xlink:title=" ">
<polygon fill="white" stroke="#666666" points="147.25,-20.75 0,-20.75 0,0 147.25,0 147.25,-20.75"/>
<text text-anchor="middle" x="73.62" y="-7.25" font-family="Helvetica,sans-Serif" font-size="10.00">Simple&#45;Utility/functional.hpp</text>
</a>
</g>
</g>
<!-- Node1&#45;&gt;Node2 -->
<g id="edge1" class="edge">
<title>Node1&#45;&gt;Node2</title>
<path fill="none" stroke="#63b8ff" d="M65.37,-186.26C60.99,-178.12 56.86,-168.85 54.62,-159.75 42.07,-108.55 61.37,-45.25 69.9,-21.24"/>
<polygon fill="#63b8ff" stroke="#63b8ff" points="62.69,-187.62 70.72,-194.53 68.76,-184.12 62.69,-187.62"/>
</g>
<!-- Node3 -->
<g id="node3" class="node">
<title>Node3</title>
<g id="a_node3"><a xlink:href="../../d4/d53/_predicate_8hpp.html" target="_top" xlink:title=" ">
<polygon fill="white" stroke="#666666" points="191.12,-159.75 64.12,-159.75 64.12,-126.25 191.12,-126.25 191.12,-159.75"/>
<text text-anchor="start" x="72.12" y="-146.25" font-family="Helvetica,sans-Serif" font-size="10.00">Simple&#45;Utility/functional</text>
<text text-anchor="middle" x="127.62" y="-133.5" font-family="Helvetica,sans-Serif" font-size="10.00">/Predicate.hpp</text>
</a>
</g>
</g>
<!-- Node1&#45;&gt;Node3 -->
<g id="edge2" class="edge">
<title>Node1&#45;&gt;Node3</title>
<path fill="none" stroke="#63b8ff" d="M98.58,-186.63C104.67,-177.69 111.37,-167.85 116.8,-159.88"/>
<polygon fill="#63b8ff" stroke="#63b8ff" points="95.27,-184.27 92.53,-194.5 101.05,-188.21 95.27,-184.27"/>
</g>
<!-- Node3&#45;&gt;Node2 -->
<g id="edge3" class="edge">
<title>Node3&#45;&gt;Node2</title>
<path fill="none" stroke="#63b8ff" d="M108.34,-117.38C102.61,-109.12 96.76,-99.62 92.62,-90.25 82.22,-66.67 76.98,-36.5 74.84,-21.21"/>
<polygon fill="#63b8ff" stroke="#63b8ff" points="105.97,-119.07 114.67,-125.11 111.63,-114.96 105.97,-119.07"/>
</g>
<!-- Node4 -->
<g id="node4" class="node">
<title>Node4</title>
<g id="a_node4"><a xlink:href="../../d8/d60/_compare_8hpp.html" target="_top" xlink:title=" ">
<polygon fill="white" stroke="#666666" points="229.12,-90.25 102.12,-90.25 102.12,-56.75 229.12,-56.75 229.12,-90.25"/>
<text text-anchor="start" x="110.12" y="-76.75" font-family="Helvetica,sans-Serif" font-size="10.00">Simple&#45;Utility/functional</text>
<text text-anchor="middle" x="165.62" y="-64" font-family="Helvetica,sans-Serif" font-size="10.00">/Compare.hpp</text>
</a>
</g>
</g>
<!-- Node3&#45;&gt;Node4 -->
<g id="edge4" class="edge">
<title>Node3&#45;&gt;Node4</title>
<path fill="none" stroke="#63b8ff" d="M141.95,-116.56C146.89,-107.77 152.29,-98.18 156.68,-90.38"/>
<polygon fill="#63b8ff" stroke="#63b8ff" points="138.49,-114.57 136.63,-125 144.59,-118.01 138.49,-114.57"/>
</g>
<!-- Node4&#45;&gt;Node2 -->
<g id="edge5" class="edge">
<title>Node4&#45;&gt;Node2</title>
<path fill="none" stroke="#63b8ff" d="M132.39,-50.42C117.33,-40.41 100.28,-29.08 88.44,-21.22"/>
<polygon fill="#63b8ff" stroke="#63b8ff" points="130.19,-53.82 140.45,-56.44 134.06,-47.99 130.19,-53.82"/>
</g>
</g>
</svg>
