<?xml version="1.0" encoding="UTF-8" standalone="no"?>
<!DOCTYPE svg PUBLIC "-//W3C//DTD SVG 1.1//EN"
 "http://www.w3.org/Graphics/SVG/1.1/DTD/svg11.dtd">
<!-- Generated by graphviz version 8.0.5 (20230430.1635)
 -->
<!-- Title: Simple&#45;Utility/functional/operators/bind.hpp Pages: 1 -->
<svg width="849pt" height="237pt"
 viewBox="0.00 0.00 849.25 237.25" xmlns="http://www.w3.org/2000/svg" xmlns:xlink="http://www.w3.org/1999/xlink">
<g id="graph0" class="graph" transform="scale(1 1) rotate(0) translate(4 233.25)">
<title>Simple&#45;Utility/functional/operators/bind.hpp</title>
<!-- Node1 -->
<g id="node1" class="node">
<title>Node1</title>
<g id="a_node1"><a xlink:title=" ">
<polygon fill="#999999" stroke="#666666" points="582.38,-229.25 455.38,-229.25 455.38,-195.75 582.38,-195.75 582.38,-229.25"/>
<text text-anchor="start" x="463.38" y="-215.75" font-family="Helvetica,sans-Serif" font-size="10.00">Simple&#45;Utility/functional</text>
<text text-anchor="middle" x="518.88" y="-203" font-family="Helvetica,sans-Serif" font-size="10.00">/operators/bind.hpp</text>
</a>
</g>
</g>
<!-- Node2 -->
<g id="node2" class="node">
<title>Node2</title>
<g id="a_node2"><a xlink:href="../../d1/d76/functional_2base_8hpp.html" target="_top" xlink:title=" ">
<polygon fill="white" stroke="#666666" points="536.38,-159.75 409.38,-159.75 409.38,-126.25 536.38,-126.25 536.38,-159.75"/>
<text text-anchor="start" x="417.38" y="-146.25" font-family="Helvetica,sans-Serif" font-size="10.00">Simple&#45;Utility/functional</text>
<text text-anchor="middle" x="472.88" y="-133.5" font-family="Helvetica,sans-Serif" font-size="10.00">/base.hpp</text>
</a>
</g>
</g>
<!-- Node1&#45;&gt;Node2 -->
<g id="edge1" class="edge">
<title>Node1&#45;&gt;Node2</title>
<path fill="none" stroke="#63b8ff" d="M507.97,-195.5C502.53,-187.52 495.83,-177.68 489.74,-168.75"/>
<polygon fill="#63b8ff" stroke="#63b8ff" points="492.22,-167.17 483.7,-160.88 486.44,-171.12 492.22,-167.17"/>
</g>
<!-- Node10 -->
<g id="node10" class="node">
<title>Node10</title>
<g id="a_node10"><a xlink:href="../../d2/d30/general_8hpp.html" target="_top" xlink:title=" ">
<polygon fill="white" stroke="#666666" points="820.12,-90.25 715.62,-90.25 715.62,-56.75 820.12,-56.75 820.12,-90.25"/>
<text text-anchor="start" x="723.62" y="-76.75" font-family="Helvetica,sans-Serif" font-size="10.00">Simple&#45;Utility/tuple</text>
<text text-anchor="middle" x="767.88" y="-64" font-family="Helvetica,sans-Serif" font-size="10.00">/general.hpp</text>
</a>
</g>
</g>
<!-- Node1&#45;&gt;Node10 -->
<g id="edge13" class="edge">
<title>Node1&#45;&gt;Node10</title>
<path fill="none" stroke="#63b8ff" d="M547.93,-195.52C592.79,-170.83 678.97,-123.42 729.1,-95.83"/>
<polygon fill="#63b8ff" stroke="#63b8ff" points="730.55,-98.48 737.62,-90.59 727.18,-92.35 730.55,-98.48"/>
</g>
<!-- Node3 -->
<g id="node3" class="node">
<title>Node3</title>
<g id="a_node3"><a xlink:title=" ">
<polygon fill="#e0e0e0" stroke="#999999" points="548.12,-20.75 491.62,-20.75 491.62,0 548.12,0 548.12,-20.75"/>
<text text-anchor="middle" x="519.88" y="-7.25" font-family="Helvetica,sans-Serif" font-size="10.00">concepts</text>
</a>
</g>
</g>
<!-- Node2&#45;&gt;Node3 -->
<g id="edge2" class="edge">
<title>Node2&#45;&gt;Node3</title>
<path fill="none" stroke="#63b8ff" d="M482.82,-126.2C488.75,-116.21 496.05,-102.84 500.88,-90.25 508.3,-70.88 513.47,-47.7 516.52,-31.5"/>
<polygon fill="#63b8ff" stroke="#63b8ff" points="520.07,-32.55 518.37,-22.09 513.18,-31.32 520.07,-32.55"/>
</g>
<!-- Node4 -->
<g id="node4" class="node">
<title>Node4</title>
<g id="a_node4"><a xlink:title=" ">
<polygon fill="#e0e0e0" stroke="#999999" points="341.75,-83.88 280,-83.88 280,-63.12 341.75,-63.12 341.75,-83.88"/>
<text text-anchor="middle" x="310.88" y="-70.38" font-family="Helvetica,sans-Serif" font-size="10.00">functional</text>
</a>
</g>
</g>
<!-- Node2&#45;&gt;Node4 -->
<g id="edge3" class="edge">
<title>Node2&#45;&gt;Node4</title>
<path fill="none" stroke="#63b8ff" d="M434.07,-125.83C406.64,-114.4 370.24,-99.24 344.13,-88.36"/>
<polygon fill="#63b8ff" stroke="#63b8ff" points="345.9,-84.89 335.33,-84.27 343.21,-91.35 345.9,-84.89"/>
</g>
<!-- Node5 -->
<g id="node5" class="node">
<title>Node5</title>
<g id="a_node5"><a xlink:title=" ">
<polygon fill="#e0e0e0" stroke="#999999" points="719.88,-20.75 655.88,-20.75 655.88,0 719.88,0 719.88,-20.75"/>
<text text-anchor="middle" x="687.88" y="-7.25" font-family="Helvetica,sans-Serif" font-size="10.00">type_traits</text>
</a>
</g>
</g>
<!-- Node2&#45;&gt;Node5 -->
<g id="edge4" class="edge">
<title>Node2&#45;&gt;Node5</title>
<path fill="none" stroke="#63b8ff" d="M536.86,-132.35C586.72,-123.54 650.48,-109.05 668.88,-90.25 683.92,-74.87 687.78,-49.76 688.44,-32.01"/>
<polygon fill="#63b8ff" stroke="#63b8ff" points="691.94,-32.12 688.49,-22.11 684.94,-32.09 691.94,-32.12"/>
</g>
<!-- Node6 -->
<g id="node6" class="node">
<title>Node6</title>
<g id="a_node6"><a xlink:href="../../d8/dd2/_config_8hpp.html" target="_top" xlink:title=" ">
<polygon fill="white" stroke="#666666" points="492,-83.88 359.75,-83.88 359.75,-63.12 492,-63.12 492,-83.88"/>
<text text-anchor="middle" x="425.88" y="-70.38" font-family="Helvetica,sans-Serif" font-size="10.00">Simple&#45;Utility/Config.hpp</text>
</a>
</g>
</g>
<!-- Node2&#45;&gt;Node6 -->
<g id="edge5" class="edge">
<title>Node2&#45;&gt;Node6</title>
<path fill="none" stroke="#63b8ff" d="M461.74,-126C454.91,-116.19 446.13,-103.59 438.97,-93.3"/>
<polygon fill="#63b8ff" stroke="#63b8ff" points="441.3,-91.53 432.71,-85.32 435.56,-95.53 441.3,-91.53"/>
</g>
<!-- Node7 -->
<g id="node7" class="node">
<title>Node7</title>
<g id="a_node7"><a xlink:href="../../d4/d1c/unified__base_8hpp.html" target="_top" xlink:title=" ">
<polygon fill="white" stroke="#666666" points="659.88,-90.25 547.88,-90.25 547.88,-56.75 659.88,-56.75 659.88,-90.25"/>
<text text-anchor="start" x="555.88" y="-76.75" font-family="Helvetica,sans-Serif" font-size="10.00">Simple&#45;Utility/unified</text>
<text text-anchor="middle" x="603.88" y="-64" font-family="Helvetica,sans-Serif" font-size="10.00">_base.hpp</text>
</a>
</g>
</g>
<!-- Node2&#45;&gt;Node7 -->
<g id="edge6" class="edge">
<title>Node2&#45;&gt;Node7</title>
<path fill="none" stroke="#63b8ff" d="M504.25,-125.83C521.91,-116.73 544.17,-105.27 563.16,-95.48"/>
<polygon fill="#63b8ff" stroke="#63b8ff" points="564.47,-98.23 571.75,-90.54 561.26,-92.01 564.47,-98.23"/>
</g>
<!-- Node8 -->
<g id="node8" class="node">
<title>Node8</title>
<g id="a_node8"><a xlink:href="../../dd/d5c/stl__extensions_8hpp.html" target="_top" xlink:title=" ">
<polygon fill="white" stroke="#666666" points="261.75,-90.25 140,-90.25 140,-56.75 261.75,-56.75 261.75,-90.25"/>
<text text-anchor="start" x="148" y="-76.75" font-family="Helvetica,sans-Serif" font-size="10.00">Simple&#45;Utility/concepts</text>
<text text-anchor="middle" x="200.88" y="-64" font-family="Helvetica,sans-Serif" font-size="10.00">/stl_extensions.hpp</text>
</a>
</g>
</g>
<!-- Node2&#45;&gt;Node8 -->
<g id="edge9" class="edge">
<title>Node2&#45;&gt;Node8</title>
<path fill="none" stroke="#63b8ff" d="M409.1,-126.17C368.14,-116.01 314.86,-102.79 272.44,-92.26"/>
<polygon fill="#63b8ff" stroke="#63b8ff" points="273.46,-88.66 262.91,-89.65 271.77,-95.45 273.46,-88.66"/>
</g>
<!-- Node9 -->
<g id="node9" class="node">
<title>Node9</title>
<g id="a_node9"><a xlink:href="../../d5/d8e/concepts_2utility_8hpp.html" target="_top" xlink:title=" ">
<polygon fill="white" stroke="#666666" points="121.75,-90.25 0,-90.25 0,-56.75 121.75,-56.75 121.75,-90.25"/>
<text text-anchor="start" x="8" y="-76.75" font-family="Helvetica,sans-Serif" font-size="10.00">Simple&#45;Utility/concepts</text>
<text text-anchor="middle" x="60.88" y="-64" font-family="Helvetica,sans-Serif" font-size="10.00">/utility.hpp</text>
</a>
</g>
</g>
<!-- Node2&#45;&gt;Node9 -->
<g id="edge11" class="edge">
<title>Node2&#45;&gt;Node9</title>
<path fill="none" stroke="#63b8ff" d="M408.98,-133.72C342.4,-124.77 234.81,-109.44 132.43,-90.47"/>
<polygon fill="#63b8ff" stroke="#63b8ff" points="133.38,-86.9 122.91,-88.5 132.09,-93.78 133.38,-86.9"/>
</g>
<!-- Node7&#45;&gt;Node3 -->
<g id="edge7" class="edge">
<title>Node7&#45;&gt;Node3</title>
<path fill="none" stroke="#63b8ff" d="M581.8,-56.44C569.56,-47.53 554.38,-36.49 542.12,-27.56"/>
<polygon fill="#63b8ff" stroke="#63b8ff" points="544.55,-24.27 534.4,-21.22 540.43,-29.93 544.55,-24.27"/>
</g>
<!-- Node7&#45;&gt;Node5 -->
<g id="edge8" class="edge">
<title>Node7&#45;&gt;Node5</title>
<path fill="none" stroke="#63b8ff" d="M625.95,-56.44C638.19,-47.53 653.37,-36.49 665.63,-27.56"/>
<polygon fill="#63b8ff" stroke="#63b8ff" points="667.32,-29.93 673.35,-21.22 663.2,-24.27 667.32,-29.93"/>
</g>
<!-- Node8&#45;&gt;Node3 -->
<g id="edge10" class="edge">
<title>Node8&#45;&gt;Node3</title>
<path fill="none" stroke="#63b8ff" d="M261.93,-58.61C264.95,-57.97 267.95,-57.35 270.88,-56.75 344.78,-41.71 431.51,-26.44 480.65,-18.01"/>
<polygon fill="#63b8ff" stroke="#63b8ff" points="481.15,-21.3 490.42,-16.17 479.97,-14.4 481.15,-21.3"/>
</g>
<!-- Node9&#45;&gt;Node3 -->
<g id="edge12" class="edge">
<title>Node9&#45;&gt;Node3</title>
<path fill="none" stroke="#63b8ff" d="M121.88,-58.38C124.92,-57.8 127.93,-57.25 130.88,-56.75 258.12,-35.08 410.57,-20.59 480.86,-14.56"/>
<polygon fill="#63b8ff" stroke="#63b8ff" points="480.75,-17.99 490.42,-13.66 480.16,-11.02 480.75,-17.99"/>
</g>
<!-- Node10&#45;&gt;Node3 -->
<g id="edge14" class="edge">
<title>Node10&#45;&gt;Node3</title>
<path fill="none" stroke="#63b8ff" d="M715.28,-59.54C668.55,-48.02 601.31,-31.45 559.13,-21.05"/>
<polygon fill="#63b8ff" stroke="#63b8ff" points="560.01,-17.42 549.46,-18.42 558.33,-24.21 560.01,-17.42"/>
</g>
<!-- Node10&#45;&gt;Node5 -->
<g id="edge16" class="edge">
<title>Node10&#45;&gt;Node5</title>
<path fill="none" stroke="#63b8ff" d="M746.86,-56.44C735.31,-47.62 721.02,-36.7 709.4,-27.82"/>
<polygon fill="#63b8ff" stroke="#63b8ff" points="711.83,-24.51 701.76,-21.22 707.58,-30.07 711.83,-24.51"/>
</g>
<!-- Node11 -->
<g id="node11" class="node">
<title>Node11</title>
<g id="a_node11"><a xlink:title=" ">
<polygon fill="#e0e0e0" stroke="#999999" points="782.5,-20.75 743.25,-20.75 743.25,0 782.5,0 782.5,-20.75"/>
<text text-anchor="middle" x="762.88" y="-7.25" font-family="Helvetica,sans-Serif" font-size="10.00">tuple</text>
</a>
</g>
</g>
<!-- Node10&#45;&gt;Node11 -->
<g id="edge15" class="edge">
<title>Node10&#45;&gt;Node11</title>
<path fill="none" stroke="#63b8ff" d="M766.56,-56.44C765.95,-49.02 765.23,-40.11 764.58,-32.18"/>
<polygon fill="#63b8ff" stroke="#63b8ff" points="767.98,-31.9 763.68,-22.22 761.01,-32.47 767.98,-31.9"/>
</g>
<!-- Node12 -->
<g id="node12" class="node">
<title>Node12</title>
<g id="a_node12"><a xlink:title=" ">
<polygon fill="#e0e0e0" stroke="#999999" points="841.25,-20.75 800.5,-20.75 800.5,0 841.25,0 841.25,-20.75"/>
<text text-anchor="middle" x="820.88" y="-7.25" font-family="Helvetica,sans-Serif" font-size="10.00">utility</text>
</a>
</g>
</g>
<!-- Node10&#45;&gt;Node12 -->
<g id="edge17" class="edge">
<title>Node10&#45;&gt;Node12</title>
<path fill="none" stroke="#63b8ff" d="M781.8,-56.44C788.99,-48.14 797.8,-37.99 805.22,-29.43"/>
<polygon fill="#63b8ff" stroke="#63b8ff" points="808.43,-32.07 812.34,-22.22 803.15,-27.48 808.43,-32.07"/>
</g>
</g>
</svg>
