<?xml version="1.0" encoding="UTF-8" standalone="no"?>
<!DOCTYPE svg PUBLIC "-//W3C//DTD SVG 1.1//EN"
 "http://www.w3.org/Graphics/SVG/1.1/DTD/svg11.dtd">
<!-- Generated by graphviz version 7.0.5 (20221223.1930)
 -->
<!-- Title: Simple&#45;Utility/functional/operators/bind.hpp Pages: 1 -->
<svg width="856pt" height="225pt"
 viewBox="0.00 0.00 855.50 225.00" xmlns="http://www.w3.org/2000/svg" xmlns:xlink="http://www.w3.org/1999/xlink">
<g id="graph0" class="graph" transform="scale(1 1) rotate(0) translate(4 221)">
<title>Simple&#45;Utility/functional/operators/bind.hpp</title>
<!-- Node1 -->
<g id="node1" class="node">
<title>Node1</title>
<g id="a_node1"><a xlink:title=" ">
<polygon fill="#999999" stroke="#666666" points="584,-217 456,-217 456,-187 584,-187 584,-217"/>
<text text-anchor="start" x="464" y="-205" font-family="Helvetica,sans-Serif" font-size="10.00">Simple&#45;Utility/functional</text>
<text text-anchor="middle" x="520" y="-194" font-family="Helvetica,sans-Serif" font-size="10.00">/operators/bind.hpp</text>
</a>
</g>
</g>
<!-- Node2 -->
<g id="node2" class="node">
<title>Node2</title>
<g id="a_node2"><a xlink:href="../../d1/d76/functional_2base_8hpp.html" target="_top" xlink:title=" ">
<polygon fill="white" stroke="#666666" points="538,-151 410,-151 410,-121 538,-121 538,-151"/>
<text text-anchor="start" x="418" y="-139" font-family="Helvetica,sans-Serif" font-size="10.00">Simple&#45;Utility/functional</text>
<text text-anchor="middle" x="474" y="-128" font-family="Helvetica,sans-Serif" font-size="10.00">/base.hpp</text>
</a>
</g>
</g>
<!-- Node1&#45;&gt;Node2 -->
<g id="edge1" class="edge">
<title>Node1&#45;&gt;Node2</title>
<path fill="none" stroke="#63b8ff" d="M509.79,-186.8C504.19,-179.01 497.11,-169.16 490.73,-160.28"/>
<polygon fill="#63b8ff" stroke="#63b8ff" points="493.74,-158.47 485.06,-152.39 488.06,-162.56 493.74,-158.47"/>
</g>
<!-- Node10 -->
<g id="node10" class="node">
<title>Node10</title>
<g id="a_node10"><a xlink:href="../../d2/d30/general_8hpp.html" target="_top" xlink:title=" ">
<polygon fill="white" stroke="#666666" points="825.5,-85 720.5,-85 720.5,-55 825.5,-55 825.5,-85"/>
<text text-anchor="start" x="728.5" y="-73" font-family="Helvetica,sans-Serif" font-size="10.00">Simple&#45;Utility/tuple</text>
<text text-anchor="middle" x="773" y="-62" font-family="Helvetica,sans-Serif" font-size="10.00">/general.hpp</text>
</a>
</g>
</g>
<!-- Node1&#45;&gt;Node10 -->
<g id="edge13" class="edge">
<title>Node1&#45;&gt;Node10</title>
<path fill="none" stroke="#63b8ff" d="M548.04,-186.59C593.54,-163.21 683.51,-116.99 734.81,-90.62"/>
<polygon fill="#63b8ff" stroke="#63b8ff" points="736.19,-93.85 743.49,-86.17 732.99,-87.62 736.19,-93.85"/>
</g>
<!-- Node3 -->
<g id="node3" class="node">
<title>Node3</title>
<g id="a_node3"><a xlink:title=" ">
<polygon fill="#e0e0e0" stroke="#999999" points="550.5,-19 493.5,-19 493.5,0 550.5,0 550.5,-19"/>
<text text-anchor="middle" x="522" y="-7" font-family="Helvetica,sans-Serif" font-size="10.00">concepts</text>
</a>
</g>
</g>
<!-- Node2&#45;&gt;Node3 -->
<g id="edge2" class="edge">
<title>Node2&#45;&gt;Node3</title>
<path fill="none" stroke="#63b8ff" d="M483.74,-120.67C489.98,-110.96 497.84,-97.63 503,-85 510.25,-67.24 515.35,-45.93 518.43,-30.66"/>
<polygon fill="#63b8ff" stroke="#63b8ff" points="521.84,-31.43 520.26,-20.96 514.97,-30.13 521.84,-31.43"/>
</g>
<!-- Node4 -->
<g id="node4" class="node">
<title>Node4</title>
<g id="a_node4"><a xlink:title=" ">
<polygon fill="#e0e0e0" stroke="#999999" points="342,-79.5 280,-79.5 280,-60.5 342,-60.5 342,-79.5"/>
<text text-anchor="middle" x="311" y="-67.5" font-family="Helvetica,sans-Serif" font-size="10.00">functional</text>
</a>
</g>
</g>
<!-- Node2&#45;&gt;Node4 -->
<g id="edge3" class="edge">
<title>Node2&#45;&gt;Node4</title>
<path fill="none" stroke="#63b8ff" d="M437.42,-120.64C409.54,-109.69 371.45,-94.73 344.39,-84.11"/>
<polygon fill="#63b8ff" stroke="#63b8ff" points="345.88,-80.94 335.29,-80.54 343.32,-87.45 345.88,-80.94"/>
</g>
<!-- Node5 -->
<g id="node5" class="node">
<title>Node5</title>
<g id="a_node5"><a xlink:title=" ">
<polygon fill="#e0e0e0" stroke="#999999" points="724.5,-19 659.5,-19 659.5,0 724.5,0 724.5,-19"/>
<text text-anchor="middle" x="692" y="-7" font-family="Helvetica,sans-Serif" font-size="10.00">type_traits</text>
</a>
</g>
</g>
<!-- Node2&#45;&gt;Node5 -->
<g id="edge4" class="edge">
<title>Node2&#45;&gt;Node5</title>
<path fill="none" stroke="#63b8ff" d="M538.37,-126.08C589.01,-117.78 654.07,-103.86 673,-85 687.32,-70.73 691.34,-47.28 692.25,-30.5"/>
<polygon fill="#63b8ff" stroke="#63b8ff" points="695.74,-30.81 692.42,-20.75 688.74,-30.68 695.74,-30.81"/>
</g>
<!-- Node6 -->
<g id="node6" class="node">
<title>Node6</title>
<g id="a_node6"><a xlink:href="../../d8/dd2/_config_8hpp.html" target="_top" xlink:title=" ">
<polygon fill="white" stroke="#666666" points="493.5,-79.5 360.5,-79.5 360.5,-60.5 493.5,-60.5 493.5,-79.5"/>
<text text-anchor="middle" x="427" y="-67.5" font-family="Helvetica,sans-Serif" font-size="10.00">Simple&#45;Utility/Config.hpp</text>
</a>
</g>
</g>
<!-- Node2&#45;&gt;Node6 -->
<g id="edge5" class="edge">
<title>Node2&#45;&gt;Node6</title>
<path fill="none" stroke="#63b8ff" d="M463.57,-120.8C456.67,-111.41 447.57,-99.02 440.18,-88.95"/>
<polygon fill="#63b8ff" stroke="#63b8ff" points="443.13,-87.05 434.39,-81.06 437.49,-91.2 443.13,-87.05"/>
</g>
<!-- Node7 -->
<g id="node7" class="node">
<title>Node7</title>
<g id="a_node7"><a xlink:href="../../d4/d1c/unified__base_8hpp.html" target="_top" xlink:title=" ">
<polygon fill="white" stroke="#666666" points="663.5,-85 550.5,-85 550.5,-55 663.5,-55 663.5,-85"/>
<text text-anchor="start" x="558.5" y="-73" font-family="Helvetica,sans-Serif" font-size="10.00">Simple&#45;Utility/unified</text>
<text text-anchor="middle" x="607" y="-62" font-family="Helvetica,sans-Serif" font-size="10.00">_base.hpp</text>
</a>
</g>
</g>
<!-- Node2&#45;&gt;Node7 -->
<g id="edge6" class="edge">
<title>Node2&#45;&gt;Node7</title>
<path fill="none" stroke="#63b8ff" d="M503.85,-120.64C522.5,-111.66 546.75,-99.99 567.05,-90.23"/>
<polygon fill="#63b8ff" stroke="#63b8ff" points="568.39,-93.46 575.89,-85.97 565.36,-87.15 568.39,-93.46"/>
</g>
<!-- Node8 -->
<g id="node8" class="node">
<title>Node8</title>
<g id="a_node8"><a xlink:href="../../dd/d5c/stl__extensions_8hpp.html" target="_top" xlink:title=" ">
<polygon fill="white" stroke="#666666" points="262,-85 140,-85 140,-55 262,-55 262,-85"/>
<text text-anchor="start" x="148" y="-73" font-family="Helvetica,sans-Serif" font-size="10.00">Simple&#45;Utility/concepts</text>
<text text-anchor="middle" x="201" y="-62" font-family="Helvetica,sans-Serif" font-size="10.00">/stl_extensions.hpp</text>
</a>
</g>
</g>
<!-- Node2&#45;&gt;Node8 -->
<g id="edge9" class="edge">
<title>Node2&#45;&gt;Node8</title>
<path fill="none" stroke="#63b8ff" d="M412.39,-120.56C371.16,-110.89 316.73,-98.13 273.42,-87.98"/>
<polygon fill="#63b8ff" stroke="#63b8ff" points="274.39,-84.61 263.86,-85.74 272.79,-91.43 274.39,-84.61"/>
</g>
<!-- Node9 -->
<g id="node9" class="node">
<title>Node9</title>
<g id="a_node9"><a xlink:href="../../d5/d8e/concepts_2utility_8hpp.html" target="_top" xlink:title=" ">
<polygon fill="white" stroke="#666666" points="122,-85 0,-85 0,-55 122,-55 122,-85"/>
<text text-anchor="start" x="8" y="-73" font-family="Helvetica,sans-Serif" font-size="10.00">Simple&#45;Utility/concepts</text>
<text text-anchor="middle" x="61" y="-62" font-family="Helvetica,sans-Serif" font-size="10.00">/utility.hpp</text>
</a>
</g>
</g>
<!-- Node2&#45;&gt;Node9 -->
<g id="edge11" class="edge">
<title>Node2&#45;&gt;Node9</title>
<path fill="none" stroke="#63b8ff" d="M409.68,-126.65C343.06,-117.78 235.69,-102.82 133.57,-85.39"/>
<polygon fill="#63b8ff" stroke="#63b8ff" points="134.37,-81.98 123.92,-83.73 133.18,-88.88 134.37,-81.98"/>
</g>
<!-- Node7&#45;&gt;Node3 -->
<g id="edge7" class="edge">
<title>Node7&#45;&gt;Node3</title>
<path fill="none" stroke="#63b8ff" d="M585.99,-54.54C573.14,-45.7 556.73,-34.4 543.75,-25.47"/>
<polygon fill="#63b8ff" stroke="#63b8ff" points="546.07,-22.82 535.85,-20.03 542.11,-28.59 546.07,-22.82"/>
</g>
<!-- Node7&#45;&gt;Node5 -->
<g id="edge8" class="edge">
<title>Node7&#45;&gt;Node5</title>
<path fill="none" stroke="#63b8ff" d="M628.01,-54.54C640.86,-45.7 657.27,-34.4 670.25,-25.47"/>
<polygon fill="#63b8ff" stroke="#63b8ff" points="671.89,-28.59 678.15,-20.03 667.93,-22.82 671.89,-28.59"/>
</g>
<!-- Node8&#45;&gt;Node3 -->
<g id="edge10" class="edge">
<title>Node8&#45;&gt;Node3</title>
<path fill="none" stroke="#63b8ff" d="M262.45,-56.63C265.34,-56.07 268.2,-55.53 271,-55 345.48,-40.95 432.65,-25.78 482.19,-17.28"/>
<polygon fill="#63b8ff" stroke="#63b8ff" points="482.6,-20.76 491.86,-15.62 481.42,-13.86 482.6,-20.76"/>
</g>
<!-- Node9&#45;&gt;Node3 -->
<g id="edge12" class="edge">
<title>Node9&#45;&gt;Node3</title>
<path fill="none" stroke="#63b8ff" d="M122.41,-56.41C125.31,-55.92 128.18,-55.44 131,-55 258.88,-34.97 411.62,-20.22 482.4,-13.9"/>
<polygon fill="#63b8ff" stroke="#63b8ff" points="482.27,-17.42 491.93,-13.05 481.66,-10.45 482.27,-17.42"/>
</g>
<!-- Node10&#45;&gt;Node3 -->
<g id="edge14" class="edge">
<title>Node10&#45;&gt;Node3</title>
<path fill="none" stroke="#63b8ff" d="M720.08,-56.67C672.78,-45.64 604.53,-29.73 561.75,-19.76"/>
<polygon fill="#63b8ff" stroke="#63b8ff" points="562.67,-16.38 552.13,-17.52 561.08,-23.2 562.67,-16.38"/>
</g>
<!-- Node10&#45;&gt;Node5 -->
<g id="edge16" class="edge">
<title>Node10&#45;&gt;Node5</title>
<path fill="none" stroke="#63b8ff" d="M752.98,-54.54C740.85,-45.78 725.4,-34.63 713.09,-25.73"/>
<polygon fill="#63b8ff" stroke="#63b8ff" points="715.39,-23.08 705.24,-20.06 711.3,-28.75 715.39,-23.08"/>
</g>
<!-- Node11 -->
<g id="node11" class="node">
<title>Node11</title>
<g id="a_node11"><a xlink:title=" ">
<polygon fill="#e0e0e0" stroke="#999999" points="788,-19 748,-19 748,0 788,0 788,-19"/>
<text text-anchor="middle" x="768" y="-7" font-family="Helvetica,sans-Serif" font-size="10.00">tuple</text>
</a>
</g>
</g>
<!-- Node10&#45;&gt;Node11 -->
<g id="edge15" class="edge">
<title>Node10&#45;&gt;Node11</title>
<path fill="none" stroke="#63b8ff" d="M771.76,-54.54C771.14,-47.26 770.38,-38.31 769.7,-30.39"/>
<polygon fill="#63b8ff" stroke="#63b8ff" points="773.21,-30.35 768.87,-20.68 766.23,-30.94 773.21,-30.35"/>
</g>
<!-- Node12 -->
<g id="node12" class="node">
<title>Node12</title>
<g id="a_node12"><a xlink:title=" ">
<polygon fill="#e0e0e0" stroke="#999999" points="847.5,-19 806.5,-19 806.5,0 847.5,0 847.5,-19"/>
<text text-anchor="middle" x="827" y="-7" font-family="Helvetica,sans-Serif" font-size="10.00">utility</text>
</a>
</g>
</g>
<!-- Node10&#45;&gt;Node12 -->
<g id="edge17" class="edge">
<title>Node10&#45;&gt;Node12</title>
<path fill="none" stroke="#63b8ff" d="M786.35,-54.54C793.87,-46.39 803.31,-36.16 811.2,-27.61"/>
<polygon fill="#63b8ff" stroke="#63b8ff" points="813.75,-30.01 817.97,-20.29 808.61,-25.26 813.75,-30.01"/>
</g>
</g>
</svg>
