<?xml version="1.0" encoding="UTF-8" standalone="no"?>
<!DOCTYPE svg PUBLIC "-//W3C//DTD SVG 1.1//EN"
 "http://www.w3.org/Graphics/SVG/1.1/DTD/svg11.dtd">
<!-- Generated by graphviz version 8.0.5 (20230430.1635)
 -->
<!-- Title: stl extension Pages: 1 -->
<svg width="233pt" height="68pt"
 viewBox="0.00 0.00 233.00 67.75" xmlns="http://www.w3.org/2000/svg" xmlns:xlink="http://www.w3.org/1999/xlink">
<g id="graph0" class="graph" transform="scale(1 1) rotate(0) translate(4 63.75)">
<title>stl extension</title>
<!-- Node2 -->
<g id="node1" class="node">
<title>Node2</title>
<g id="a_node1"><a xlink:href="../../d9/d21/group___g_r_o_u_p___t_u_p_l_e.html" target="_top" xlink:title=" ">
<polygon fill="white" stroke="#666666" points="39.25,-39.75 0,-39.75 0,-19 39.25,-19 39.25,-39.75"/>
<text text-anchor="middle" x="19.62" y="-26.25" font-family="Helvetica,sans-Serif" font-size="10.00">tuple</text>
</a>
</g>
</g>
<!-- Node1 -->
<g id="node2" class="node">
<title>Node1</title>
<g id="a_node2"><a xlink:title=" ">
<polygon fill="#999999" stroke="#666666" points="148.25,-39.75 75.25,-39.75 75.25,-19 148.25,-19 148.25,-39.75"/>
<text text-anchor="middle" x="111.75" y="-26.25" font-family="Helvetica,sans-Serif" font-size="10.00">stl extension</text>
</a>
</g>
</g>
<!-- Node2&#45;&gt;Node1 -->
<g id="edge1" class="edge">
<title>Node2&#45;&gt;Node1</title>
<path fill="none" stroke="black" d="M50.56,-29.38C58.36,-29.38 66.85,-29.38 74.93,-29.38"/>
<polygon fill="black" stroke="black" points="50.74,-25.88 40.74,-29.38 50.74,-32.88 50.74,-25.88"/>
</g>
<!-- Node3 -->
<g id="node3" class="node">
<title>Node3</title>
<g id="a_node3"><a xlink:href="../../d4/d5d/group___g_r_o_u_p___t_u_p_l_e___s_t_l___e_x_t___a_p_p_l_y.html" target="_top" xlink:title=" ">
<polygon fill="white" stroke="#666666" points="225,-59.75 184.25,-59.75 184.25,-39 225,-39 225,-59.75"/>
<text text-anchor="middle" x="204.62" y="-46.25" font-family="Helvetica,sans-Serif" font-size="10.00">apply</text>
</a>
</g>
</g>
<!-- Node1&#45;&gt;Node3 -->
<g id="edge2" class="edge">
<title>Node1&#45;&gt;Node3</title>
<path fill="none" stroke="black" d="M159.22,-39.6C167.93,-41.52 176.59,-43.42 183.91,-45.04"/>
<polygon fill="black" stroke="black" points="160.18,-36.01 149.67,-37.28 158.68,-42.85 160.18,-36.01"/>
</g>
<!-- Node4 -->
<g id="node4" class="node">
<title>Node4</title>
<g id="a_node4"><a xlink:href="../../d9/d2b/group___g_r_o_u_p___t_u_p_l_e___s_t_l___e_x_t___c_a_t.html" target="_top" xlink:title=" ">
<polygon fill="white" stroke="#666666" points="219.38,-20.75 189.88,-20.75 189.88,0 219.38,0 219.38,-20.75"/>
<text text-anchor="middle" x="204.62" y="-7.25" font-family="Helvetica,sans-Serif" font-size="10.00">cat</text>
</a>
</g>
</g>
<!-- Node1&#45;&gt;Node4 -->
<g id="edge3" class="edge">
<title>Node1&#45;&gt;Node4</title>
<path fill="none" stroke="black" d="M159.19,-19.66C170.24,-17.36 181.2,-15.06 189.48,-13.33"/>
<polygon fill="black" stroke="black" points="158.74,-16.39 149.67,-21.87 160.17,-23.25 158.74,-16.39"/>
</g>
</g>
</svg>
