<?xml version="1.0" encoding="UTF-8" standalone="no"?>
<!DOCTYPE svg PUBLIC "-//W3C//DTD SVG 1.1//EN"
 "http://www.w3.org/Graphics/SVG/1.1/DTD/svg11.dtd">
<!-- Generated by graphviz version 7.0.5 (20221223.1930)
 -->
<!-- Title: stl extension Pages: 1 -->
<svg width="250pt" height="64pt"
 viewBox="0.00 0.00 250.00 64.00" xmlns="http://www.w3.org/2000/svg" xmlns:xlink="http://www.w3.org/1999/xlink">
<g id="graph0" class="graph" transform="scale(1 1) rotate(0) translate(4 60)">
<title>stl extension</title>
<!-- Node2 -->
<g id="node1" class="node">
<title>Node2</title>
<g id="a_node1"><a xlink:href="../../d9/d21/group___g_r_o_u_p___t_u_p_l_e.html" target="_top" xlink:title=" ">
<polygon fill="white" stroke="#666666" points="40,-37 0,-37 0,-18 40,-18 40,-37"/>
<text text-anchor="middle" x="20" y="-25" font-family="Helvetica,sans-Serif" font-size="10.00">tuple</text>
</a>
</g>
</g>
<!-- Node1 -->
<g id="node2" class="node">
<title>Node1</title>
<g id="a_node2"><a xlink:title=" ">
<polygon fill="#999999" stroke="#666666" points="150,-37 76,-37 76,-18 150,-18 150,-37"/>
<text text-anchor="middle" x="113" y="-25" font-family="Helvetica,sans-Serif" font-size="10.00">stl extension</text>
</a>
</g>
</g>
<!-- Node2&#45;&gt;Node1 -->
<g id="edge1" class="edge">
<title>Node2&#45;&gt;Node1</title>
<path fill="none" stroke="black" d="M51.77,-27.5C59.5,-27.5 67.86,-27.5 75.83,-27.5"/>
<polygon fill="black" stroke="black" points="51.81,-24 41.81,-27.5 51.81,-31 51.81,-24"/>
</g>
<!-- Node3 -->
<g id="node3" class="node">
<title>Node3</title>
<g id="a_node3"><a xlink:href="../../d4/d5d/group___g_r_o_u_p___t_u_p_l_e___s_t_l___e_x_t___a_p_p_l_y.html" target="_top" xlink:title=" ">
<polygon fill="white" stroke="#666666" points="234.5,-56 193.5,-56 193.5,-37 234.5,-37 234.5,-56"/>
<text text-anchor="middle" x="214" y="-44" font-family="Helvetica,sans-Serif" font-size="10.00">apply</text>
</a>
</g>
</g>
<!-- Node1&#45;&gt;Node3 -->
<g id="edge2" class="edge">
<title>Node1&#45;&gt;Node3</title>
<path fill="none" stroke="black" d="M161.36,-36.59C172.56,-38.74 183.9,-40.92 193.09,-42.68"/>
<polygon fill="black" stroke="black" points="162.27,-33.2 151.79,-34.75 160.95,-40.07 162.27,-33.2"/>
</g>
<!-- Node4 -->
<g id="node4" class="node">
<title>Node4</title>
<g id="a_node4"><a xlink:href="../../d3/d8a/group___g_r_o_u_p___t_u_p_l_e___s_t_l___e_x_t___t_u_p_l_e___c_a_t.html" target="_top" xlink:title=" ">
<polygon fill="white" stroke="#666666" points="242,-19 186,-19 186,0 242,0 242,-19"/>
<text text-anchor="middle" x="214" y="-7" font-family="Helvetica,sans-Serif" font-size="10.00">tuple cat</text>
</a>
</g>
</g>
<!-- Node1&#45;&gt;Node4 -->
<g id="edge3" class="edge">
<title>Node1&#45;&gt;Node4</title>
<path fill="none" stroke="black" d="M161.49,-18.86C169.8,-17.35 178.18,-15.83 185.7,-14.46"/>
<polygon fill="black" stroke="black" points="161,-15.4 151.79,-20.63 162.26,-22.28 161,-15.4"/>
</g>
</g>
</svg>
