<?xml version="1.0" encoding="UTF-8" standalone="no"?>
<!DOCTYPE svg PUBLIC "-//W3C//DTD SVG 1.1//EN"
 "http://www.w3.org/Graphics/SVG/1.1/DTD/svg11.dtd">
<!-- Generated by graphviz version 8.0.5 (20230430.1635)
 -->
<!-- Title: stl extension Pages: 1 -->
<svg width="247pt" height="68pt"
 viewBox="0.00 0.00 247.25 67.75" xmlns="http://www.w3.org/2000/svg" xmlns:xlink="http://www.w3.org/1999/xlink">
<g id="graph0" class="graph" transform="scale(1 1) rotate(0) translate(4 63.75)">
<title>stl extension</title>
<!-- Node2 -->
<g id="node1" class="node">
<title>Node2</title>
<g id="a_node1"><a xlink:href="../../d9/d21/group___g_r_o_u_p___t_u_p_l_e.html" target="_top" xlink:title=" ">
<polygon fill="white" stroke="#666666" points="39.25,-39.75 0,-39.75 0,-19 39.25,-19 39.25,-39.75"/>
<text text-anchor="middle" x="19.62" y="-26.25" font-family="Helvetica,sans-Serif" font-size="10.00">tuple</text>
</a>
</g>
</g>
<!-- Node1 -->
<g id="node2" class="node">
<title>Node1</title>
<g id="a_node2"><a xlink:title=" ">
<polygon fill="#999999" stroke="#666666" points="148.25,-39.75 75.25,-39.75 75.25,-19 148.25,-19 148.25,-39.75"/>
<text text-anchor="middle" x="111.75" y="-26.25" font-family="Helvetica,sans-Serif" font-size="10.00">stl extension</text>
</a>
</g>
</g>
<!-- Node2&#45;&gt;Node1 -->
<g id="edge1" class="edge">
<title>Node2&#45;&gt;Node1</title>
<path fill="none" stroke="black" d="M50.56,-29.38C58.36,-29.38 66.85,-29.38 74.93,-29.38"/>
<polygon fill="black" stroke="black" points="50.74,-25.88 40.74,-29.38 50.74,-32.88 50.74,-25.88"/>
</g>
<!-- Node3 -->
<g id="node3" class="node">
<title>Node3</title>
<g id="a_node3"><a xlink:href="../../d4/d5d/group___g_r_o_u_p___t_u_p_l_e___s_t_l___e_x_t___a_p_p_l_y.html" target="_top" xlink:title=" ">
<polygon fill="white" stroke="#666666" points="232.12,-59.75 191.38,-59.75 191.38,-39 232.12,-39 232.12,-59.75"/>
<text text-anchor="middle" x="211.75" y="-46.25" font-family="Helvetica,sans-Serif" font-size="10.00">apply</text>
</a>
</g>
</g>
<!-- Node1&#45;&gt;Node3 -->
<g id="edge2" class="edge">
<title>Node1&#45;&gt;Node3</title>
<path fill="none" stroke="black" d="M159.29,-38.87C170.49,-41.16 181.85,-43.48 191.05,-45.35"/>
<polygon fill="black" stroke="black" points="160.18,-35.28 149.69,-36.71 158.78,-42.14 160.18,-35.28"/>
</g>
<!-- Node4 -->
<g id="node4" class="node">
<title>Node4</title>
<g id="a_node4"><a xlink:href="../../d3/d8a/group___g_r_o_u_p___t_u_p_l_e___s_t_l___e_x_t___t_u_p_l_e___c_a_t.html" target="_top" xlink:title=" ">
<polygon fill="white" stroke="#666666" points="239.25,-20.75 184.25,-20.75 184.25,0 239.25,0 239.25,-20.75"/>
<text text-anchor="middle" x="211.75" y="-7.25" font-family="Helvetica,sans-Serif" font-size="10.00">tuple cat</text>
</a>
</g>
</g>
<!-- Node1&#45;&gt;Node4 -->
<g id="edge3" class="edge">
<title>Node1&#45;&gt;Node4</title>
<path fill="none" stroke="black" d="M159.3,-20.35C167.79,-18.7 176.37,-17.04 184.03,-15.56"/>
<polygon fill="black" stroke="black" points="158.84,-17.07 149.69,-22.41 160.17,-23.94 158.84,-17.07"/>
</g>
</g>
</svg>
