<?xml version="1.0" encoding="UTF-8" standalone="no"?>
<!DOCTYPE svg PUBLIC "-//W3C//DTD SVG 1.1//EN"
 "http://www.w3.org/Graphics/SVG/1.1/DTD/svg11.dtd">
<!-- Generated by graphviz version 2.43.0 (0)
 -->
<!-- Title: stl extension Pages: 1 -->
<svg width="260pt" height="64pt"
 viewBox="0.00 0.00 260.00 64.00" xmlns="http://www.w3.org/2000/svg" xmlns:xlink="http://www.w3.org/1999/xlink">
<g id="graph0" class="graph" transform="scale(1 1) rotate(0) translate(4 60)">
<title>stl extension</title>
<polygon fill="white" stroke="transparent" points="-4,4 -4,-60 256,-60 256,4 -4,4"/>
<!-- Node1 -->
<g id="node1" class="node">
<title>Node1</title>
<g id="a_node1"><a xlink:title=" ">
<polygon fill="#bfbfbf" stroke="black" points="157,-37 77,-37 77,-18 157,-18 157,-37"/>
<text text-anchor="middle" x="117" y="-25" font-family="Helvetica,sans-Serif" font-size="10.00">stl extension</text>
</a>
</g>
</g>
<!-- Node4 -->
<g id="node3" class="node">
<title>Node4</title>
<g id="a_node3"><a xlink:href="../../d3/d8a/group___g_r_o_u_p___t_u_p_l_e___s_t_l___e_x_t___t_u_p_l_e___c_a_t.html" target="_top" xlink:title=" ">
<polygon fill="white" stroke="black" points="252,-56 193,-56 193,-37 252,-37 252,-56"/>
<text text-anchor="middle" x="222.5" y="-44" font-family="Helvetica,sans-Serif" font-size="10.00">tuple cat</text>
</a>
</g>
</g>
<!-- Node1&#45;&gt;Node4 -->
<g id="edge3" class="edge">
<title>Node1&#45;&gt;Node4</title>
<path fill="none" stroke="black" d="M167.05,-36.5C175.93,-38.14 184.92,-39.78 192.96,-41.26"/>
<polygon fill="black" stroke="black" points="167.6,-33.05 157.13,-34.68 166.33,-39.93 167.6,-33.05"/>
</g>
<!-- Node3 -->
<g id="node4" class="node">
<title>Node3</title>
<g id="a_node4"><a xlink:href="../../d4/d5d/group___g_r_o_u_p___t_u_p_l_e___s_t_l___e_x_t___a_p_p_l_y.html" target="_top" xlink:title=" ">
<polygon fill="white" stroke="black" points="244.5,-19 200.5,-19 200.5,0 244.5,0 244.5,-19"/>
<text text-anchor="middle" x="222.5" y="-7" font-family="Helvetica,sans-Serif" font-size="10.00">apply</text>
</a>
</g>
</g>
<!-- Node1&#45;&gt;Node3 -->
<g id="edge2" class="edge">
<title>Node1&#45;&gt;Node3</title>
<path fill="none" stroke="black" d="M167.25,-18.93C178.89,-16.91 190.69,-14.86 200.31,-13.19"/>
<polygon fill="black" stroke="black" points="166.38,-15.53 157.13,-20.69 167.58,-22.43 166.38,-15.53"/>
</g>
<!-- Node2 -->
<g id="node2" class="node">
<title>Node2</title>
<g id="a_node2"><a xlink:href="../../d9/d21/group___g_r_o_u_p___t_u_p_l_e.html" target="_top" xlink:title=" ">
<polygon fill="white" stroke="black" points="41,-37 0,-37 0,-18 41,-18 41,-37"/>
<text text-anchor="middle" x="20.5" y="-25" font-family="Helvetica,sans-Serif" font-size="10.00">tuple</text>
</a>
</g>
</g>
<!-- Node2&#45;&gt;Node1 -->
<g id="edge1" class="edge">
<title>Node2&#45;&gt;Node1</title>
<path fill="none" stroke="black" d="M51.23,-27.5C59.39,-27.5 68.36,-27.5 76.95,-27.5"/>
<polygon fill="black" stroke="black" points="51.08,-24 41.08,-27.5 51.08,-31 51.08,-24"/>
</g>
</g>
</svg>
