<?xml version="1.0" encoding="UTF-8" standalone="no"?>
<!DOCTYPE svg PUBLIC "-//W3C//DTD SVG 1.1//EN"
 "http://www.w3.org/Graphics/SVG/1.1/DTD/svg11.dtd">
<!-- Generated by graphviz version 8.0.5 (20230430.1635)
 -->
<!-- Title: Simple&#45;Utility/functional.hpp Pages: 1 -->
<!--zoomable 503 -->
<svg id="main" version="1.1" xmlns="http://www.w3.org/2000/svg" xmlns:xlink="http://www.w3.org/1999/xlink" xml:space="preserve" onload="init(evt)">
<style type="text/css"><![CDATA[
.edge:hover path { stroke: red; }
.edge:hover polygon { stroke: red; fill: red; }
]]></style>
<script type="text/javascript"><![CDATA[
var edges = document.getElementsByTagName('g');
if (edges && edges.length) {
  for (var i=0;i<edges.length;i++) {
    if (edges[i].id.substr(0,4)=='edge') {
      edges[i].setAttribute('class','edge');
    }
  }
}
]]></script>
        <defs>
                <circle id="rim" cx="0" cy="0" r="7"/>
                <circle id="rim2" cx="0" cy="0" r="3.5"/>
                <g id="zoomPlus">
                        <use xlink:href="#rim" fill="#404040">
                                <set attributeName="fill" to="#808080" begin="zoomplus.mouseover" end="zoomplus.mouseout"/>
                        </use>
                        <path d="M-4,0h8M0,-4v8" fill="none" stroke="white" stroke-width="1.5" pointer-events="none"/>
                </g>
                <g id="zoomMin">
                        <use xlink:href="#rim" fill="#404040">
                                <set attributeName="fill" to="#808080" begin="zoomminus.mouseover" end="zoomminus.mouseout"/>
                        </use>
                        <path d="M-4,0h8" fill="none" stroke="white" stroke-width="1.5" pointer-events="none"/>
                </g>
                <g id="dirArrow">
                        <path fill="none" stroke="white" stroke-width="1.5" d="M0,-3.0v7 M-2.5,-0.5L0,-3.0L2.5,-0.5"/>
                </g>
               <g id="resetDef">
                       <use xlink:href="#rim2" fill="#404040">
                               <set attributeName="fill" to="#808080" begin="reset.mouseover" end="reset.mouseout"/>
                       </use>
               </g>
        </defs>

<script type="text/javascript">
var viewWidth = 1253;
var viewHeight = 503;
var sectionId = 'dynsection-0';
</script>
<script xlink:href="../../svgpan.js"/>
<svg id="graph" class="graph">
<g id="viewport">
<title>Simple&#45;Utility/functional.hpp</title>
<!-- Node1 -->
<g id="node1" class="node">
<title>Node1</title>
<g id="a_node1"><a xlink:title=" ">
<polygon fill="#999999" stroke="#666666" points="703.61,-494.5 556.36,-494.5 556.36,-473.75 703.61,-473.75 703.61,-494.5"/>
<text text-anchor="middle" x="629.99" y="-481" font-family="Helvetica,sans-Serif" font-size="10.00">Simple&#45;Utility/functional.hpp</text>
</a>
</g>
</g>
<!-- Node2 -->
<g id="node2" class="node">
<title>Node2</title>
<g id="a_node2"><a xlink:href="../../d9/d76/bind_8hpp.html" target="_top" xlink:title=" ">
<polygon fill="white" stroke="#666666" points="997.49,-229.25 870.49,-229.25 870.49,-195.75 997.49,-195.75 997.49,-229.25"/>
<text text-anchor="start" x="878.49" y="-215.75" font-family="Helvetica,sans-Serif" font-size="10.00">Simple&#45;Utility/functional</text>
<text text-anchor="middle" x="933.99" y="-203" font-family="Helvetica,sans-Serif" font-size="10.00">/operators/bind.hpp</text>
</a>
</g>
</g>
<!-- Node1&#45;&gt;Node2 -->
<g id="edge1" class="edge">
<title>Node1&#45;&gt;Node2</title>
<path fill="none" stroke="#63b8ff" d="M660.94,-473.33C705.09,-457.86 785.98,-423.69 832.99,-368.25 864.54,-331.03 842.7,-305.01 870.99,-265.25 878.81,-254.26 889.54,-244.28 899.92,-236.08"/>
<polygon fill="#63b8ff" stroke="#63b8ff" points="901.61,-238.44 907.5,-229.63 897.4,-232.84 901.61,-238.44"/>
</g>
<!-- Node3 -->
<g id="node3" class="node">
<title>Node3</title>
<g id="a_node3"><a xlink:href="../../d1/d76/functional_2base_8hpp.html" target="_top" xlink:title=" ">
<polygon fill="white" stroke="#666666" points="509.49,-159.75 382.49,-159.75 382.49,-126.25 509.49,-126.25 509.49,-159.75"/>
<text text-anchor="start" x="390.49" y="-146.25" font-family="Helvetica,sans-Serif" font-size="10.00">Simple&#45;Utility/functional</text>
<text text-anchor="middle" x="445.99" y="-133.5" font-family="Helvetica,sans-Serif" font-size="10.00">/base.hpp</text>
</a>
</g>
</g>
<!-- Node1&#45;&gt;Node3 -->
<g id="edge32" class="edge">
<title>Node1&#45;&gt;Node3</title>
<path fill="none" stroke="#63b8ff" d="M556,-482.96C391.34,-480.58 8.99,-463.15 8.99,-352.5 8.99,-352.5 8.99,-352.5 8.99,-281 8.99,-267.54 -44.28,-265.99 111.99,-195.75 195.55,-158.18 301.44,-147.19 371.32,-144.33"/>
<polygon fill="#63b8ff" stroke="#63b8ff" points="371.35,-147.8 381.22,-143.94 371.1,-140.8 371.35,-147.8"/>
</g>
<!-- Node14 -->
<g id="node14" class="node">
<title>Node14</title>
<g id="a_node14"><a xlink:href="../../df/d80/conjunction_8hpp.html" target="_top" xlink:title=" ">
<polygon fill="white" stroke="#666666" points="668.24,-229.25 527.74,-229.25 527.74,-195.75 668.24,-195.75 668.24,-229.25"/>
<text text-anchor="start" x="535.74" y="-215.75" font-family="Helvetica,sans-Serif" font-size="10.00">Simple&#45;Utility/functional</text>
<text text-anchor="middle" x="597.99" y="-203" font-family="Helvetica,sans-Serif" font-size="10.00">/operators/conjunction.hpp</text>
</a>
</g>
</g>
<!-- Node1&#45;&gt;Node14 -->
<g id="edge19" class="edge">
<title>Node1&#45;&gt;Node14</title>
<path fill="none" stroke="#63b8ff" d="M564.17,-473.32C523.71,-465.79 477.32,-453.94 464.99,-437.75 455.96,-425.91 460.52,-418.45 464.99,-404.25 476.45,-367.75 543.83,-280.75 578.06,-238.03"/>
<polygon fill="#63b8ff" stroke="#63b8ff" points="581.28,-240.6 584.82,-230.62 575.83,-236.21 581.28,-240.6"/>
</g>
<!-- Node15 -->
<g id="node15" class="node">
<title>Node15</title>
<g id="a_node15"><a xlink:href="../../d4/d7c/disjunction_8hpp.html" target="_top" xlink:title=" ">
<polygon fill="white" stroke="#666666" points="320.36,-298.75 183.61,-298.75 183.61,-265.25 320.36,-265.25 320.36,-298.75"/>
<text text-anchor="start" x="191.61" y="-285.25" font-family="Helvetica,sans-Serif" font-size="10.00">Simple&#45;Utility/functional</text>
<text text-anchor="middle" x="251.99" y="-272.5" font-family="Helvetica,sans-Serif" font-size="10.00">/operators/disjunction.hpp</text>
</a>
</g>
</g>
<!-- Node1&#45;&gt;Node15 -->
<g id="edge22" class="edge">
<title>Node1&#45;&gt;Node15</title>
<path fill="none" stroke="#63b8ff" d="M556.09,-477.93C511.74,-472.42 455.32,-461.09 409.99,-437.75 348.56,-406.13 295.43,-342.52 269.28,-307.5"/>
<polygon fill="#63b8ff" stroke="#63b8ff" points="271.67,-305.83 262.93,-299.84 266.02,-309.97 271.67,-305.83"/>
</g>
<!-- Node16 -->
<g id="node16" class="node">
<title>Node16</title>
<g id="a_node16"><a xlink:href="../../d8/dea/negation_8hpp.html" target="_top" xlink:title=" ">
<polygon fill="white" stroke="#666666" points="165.24,-298.75 36.74,-298.75 36.74,-265.25 165.24,-265.25 165.24,-298.75"/>
<text text-anchor="start" x="44.74" y="-285.25" font-family="Helvetica,sans-Serif" font-size="10.00">Simple&#45;Utility/functional</text>
<text text-anchor="middle" x="100.99" y="-272.5" font-family="Helvetica,sans-Serif" font-size="10.00">/operators/negation.hpp</text>
</a>
</g>
</g>
<!-- Node1&#45;&gt;Node16 -->
<g id="edge25" class="edge">
<title>Node1&#45;&gt;Node16</title>
<path fill="none" stroke="#63b8ff" d="M555.92,-478.42C499.87,-473.07 421.76,-461.71 356.99,-437.75 267.94,-404.82 175.52,-340.01 129.96,-305.64"/>
<polygon fill="#63b8ff" stroke="#63b8ff" points="132.56,-302.46 122.49,-299.19 128.32,-308.03 132.56,-302.46"/>
</g>
<!-- Node17 -->
<g id="node17" class="node">
<title>Node17</title>
<g id="a_node17"><a xlink:href="../../d5/db7/pipe_8hpp.html" target="_top" xlink:title=" ">
<polygon fill="white" stroke="#666666" points="813.49,-229.25 686.49,-229.25 686.49,-195.75 813.49,-195.75 813.49,-229.25"/>
<text text-anchor="start" x="694.49" y="-215.75" font-family="Helvetica,sans-Serif" font-size="10.00">Simple&#45;Utility/functional</text>
<text text-anchor="middle" x="749.99" y="-203" font-family="Helvetica,sans-Serif" font-size="10.00">/operators/pipe.hpp</text>
</a>
</g>
</g>
<!-- Node1&#45;&gt;Node17 -->
<g id="edge31" class="edge">
<title>Node1&#45;&gt;Node17</title>
<path fill="none" stroke="#63b8ff" d="M630.36,-473.53C632.06,-441.31 641.1,-335.14 687.99,-265.25 695.3,-254.35 705.55,-244.51 715.61,-236.4"/>
<polygon fill="#63b8ff" stroke="#63b8ff" points="717.51,-238.59 723.33,-229.74 713.26,-233.03 717.51,-238.59"/>
</g>
<!-- Node18 -->
<g id="node18" class="node">
<title>Node18</title>
<g id="a_node18"><a xlink:href="../../d2/d7e/predicate_8hpp.html" target="_top" xlink:title=" ">
<polygon fill="white" stroke="#666666" points="471.49,-368.25 344.49,-368.25 344.49,-334.75 471.49,-334.75 471.49,-368.25"/>
<text text-anchor="start" x="352.49" y="-354.75" font-family="Helvetica,sans-Serif" font-size="10.00">Simple&#45;Utility/functional</text>
<text text-anchor="middle" x="407.99" y="-342" font-family="Helvetica,sans-Serif" font-size="10.00">/predicate.hpp</text>
</a>
</g>
</g>
<!-- Node1&#45;&gt;Node18 -->
<g id="edge33" class="edge">
<title>Node1&#45;&gt;Node18</title>
<path fill="none" stroke="#63b8ff" d="M555.88,-474.1C507.41,-466.75 449.87,-454.77 431.99,-437.75 416.22,-422.74 410.55,-398.25 408.63,-379.36"/>
<polygon fill="#63b8ff" stroke="#63b8ff" points="412.06,-379.19 407.87,-369.46 405.08,-379.68 412.06,-379.19"/>
</g>
<!-- Node21 -->
<g id="node21" class="node">
<title>Node21</title>
<g id="a_node21"><a xlink:href="../../d6/deb/transform_8hpp.html" target="_top" xlink:title=" ">
<polygon fill="white" stroke="#666666" points="823.49,-298.75 696.49,-298.75 696.49,-265.25 823.49,-265.25 823.49,-298.75"/>
<text text-anchor="start" x="704.49" y="-285.25" font-family="Helvetica,sans-Serif" font-size="10.00">Simple&#45;Utility/functional</text>
<text text-anchor="middle" x="759.99" y="-272.5" font-family="Helvetica,sans-Serif" font-size="10.00">/transform.hpp</text>
</a>
</g>
</g>
<!-- Node1&#45;&gt;Node21 -->
<g id="edge46" class="edge">
<title>Node1&#45;&gt;Node21</title>
<path fill="none" stroke="#63b8ff" d="M632.94,-473.53C642.03,-444.46 670.01,-357.91 687.99,-334.75 696.94,-323.22 709.14,-313.13 720.95,-305"/>
<polygon fill="#63b8ff" stroke="#63b8ff" points="722.4,-307.58 728.85,-299.17 718.56,-301.72 722.4,-307.58"/>
</g>
<!-- Node22 -->
<g id="node22" class="node">
<title>Node22</title>
<g id="a_node22"><a xlink:href="../../da/df1/overloaded_8hpp.html" target="_top" xlink:title=" ">
<polygon fill="white" stroke="#666666" points="1083.49,-437.75 956.49,-437.75 956.49,-404.25 1083.49,-404.25 1083.49,-437.75"/>
<text text-anchor="start" x="964.49" y="-424.25" font-family="Helvetica,sans-Serif" font-size="10.00">Simple&#45;Utility/functional</text>
<text text-anchor="middle" x="1019.99" y="-411.5" font-family="Helvetica,sans-Serif" font-size="10.00">/overloaded.hpp</text>
</a>
</g>
</g>
<!-- Node1&#45;&gt;Node22 -->
<g id="edge51" class="edge">
<title>Node1&#45;&gt;Node22</title>
<path fill="none" stroke="#63b8ff" d="M703.92,-473.53C767.26,-465.04 860.82,-451.84 941.99,-437.75 943.14,-437.55 944.31,-437.34 945.48,-437.14"/>
<polygon fill="#63b8ff" stroke="#63b8ff" points="945.98,-440.42 955.19,-435.18 944.72,-433.53 945.98,-440.42"/>
</g>
<!-- Node23 -->
<g id="node23" class="node">
<title>Node23</title>
<g id="a_node23"><a xlink:href="../../d3/d23/arithmetic_8hpp.html" target="_top" xlink:title=" ">
<polygon fill="white" stroke="#666666" points="823.49,-368.25 696.49,-368.25 696.49,-334.75 823.49,-334.75 823.49,-368.25"/>
<text text-anchor="start" x="704.49" y="-354.75" font-family="Helvetica,sans-Serif" font-size="10.00">Simple&#45;Utility/functional</text>
<text text-anchor="middle" x="759.99" y="-342" font-family="Helvetica,sans-Serif" font-size="10.00">/arithmetic.hpp</text>
</a>
</g>
</g>
<!-- Node1&#45;&gt;Node23 -->
<g id="edge52" class="edge">
<title>Node1&#45;&gt;Node23</title>
<path fill="none" stroke="#63b8ff" d="M641.89,-473.4C652.65,-464.44 668.79,-450.64 681.99,-437.75 702.21,-417.99 723.81,-394.15 739.14,-376.71"/>
<polygon fill="#63b8ff" stroke="#63b8ff" points="742.18,-379.54 746.12,-369.71 736.91,-374.94 742.18,-379.54"/>
</g>
<!-- Node25 -->
<g id="node25" class="node">
<title>Node25</title>
<g id="a_node25"><a xlink:href="../../dd/d3f/compare_8hpp.html" target="_top" xlink:title=" ">
<polygon fill="white" stroke="#666666" points="601.49,-437.75 474.49,-437.75 474.49,-404.25 601.49,-404.25 601.49,-437.75"/>
<text text-anchor="start" x="482.49" y="-424.25" font-family="Helvetica,sans-Serif" font-size="10.00">Simple&#45;Utility/functional</text>
<text text-anchor="middle" x="537.99" y="-411.5" font-family="Helvetica,sans-Serif" font-size="10.00">/compare.hpp</text>
</a>
</g>
</g>
<!-- Node1&#45;&gt;Node25 -->
<g id="edge56" class="edge">
<title>Node1&#45;&gt;Node25</title>
<path fill="none" stroke="#63b8ff" d="M615.2,-473.3C603.43,-465.48 586.48,-454.22 571.46,-444.24"/>
<polygon fill="#63b8ff" stroke="#63b8ff" points="573.69,-440.85 563.42,-438.23 569.81,-446.68 573.69,-440.85"/>
</g>
<!-- Node26 -->
<g id="node26" class="node">
<title>Node26</title>
<g id="a_node26"><a xlink:href="../../d9/d5f/functional_2tuple_8hpp.html" target="_top" xlink:title=" ">
<polygon fill="white" stroke="#666666" points="1203.49,-368.25 1076.49,-368.25 1076.49,-334.75 1203.49,-334.75 1203.49,-368.25"/>
<text text-anchor="start" x="1084.49" y="-354.75" font-family="Helvetica,sans-Serif" font-size="10.00">Simple&#45;Utility/functional</text>
<text text-anchor="middle" x="1139.99" y="-342" font-family="Helvetica,sans-Serif" font-size="10.00">/tuple.hpp</text>
</a>
</g>
</g>
<!-- Node1&#45;&gt;Node26 -->
<g id="edge59" class="edge">
<title>Node1&#45;&gt;Node26</title>
<path fill="none" stroke="#63b8ff" d="M703.82,-480.01C760.03,-475.49 838.31,-464.48 901.99,-437.75 925.31,-427.96 925.17,-415.17 947.99,-404.25 984.97,-386.55 1028.97,-374.13 1065.51,-365.91"/>
<polygon fill="#63b8ff" stroke="#63b8ff" points="1066.08,-369.15 1075.1,-363.59 1064.58,-362.31 1066.08,-369.15"/>
</g>
<!-- Node27 -->
<g id="node27" class="node">
<title>Node27</title>
<g id="a_node27"><a xlink:href="../../df/d4e/functional_2utility_8hpp.html" target="_top" xlink:title=" ">
<polygon fill="white" stroke="#666666" points="1033.49,-368.25 906.49,-368.25 906.49,-334.75 1033.49,-334.75 1033.49,-368.25"/>
<text text-anchor="start" x="914.49" y="-354.75" font-family="Helvetica,sans-Serif" font-size="10.00">Simple&#45;Utility/functional</text>
<text text-anchor="middle" x="969.99" y="-342" font-family="Helvetica,sans-Serif" font-size="10.00">/utility.hpp</text>
</a>
</g>
</g>
<!-- Node1&#45;&gt;Node27 -->
<g id="edge64" class="edge">
<title>Node1&#45;&gt;Node27</title>
<path fill="none" stroke="#63b8ff" d="M703.87,-478.35C751.91,-473.01 814.89,-461.7 865.99,-437.75 882.98,-429.78 919.67,-398.18 944.6,-375.79"/>
<polygon fill="#63b8ff" stroke="#63b8ff" points="946.48,-378.89 951.55,-369.59 941.79,-373.7 946.48,-378.89"/>
</g>
<!-- Node2&#45;&gt;Node3 -->
<g id="edge2" class="edge">
<title>Node2&#45;&gt;Node3</title>
<path fill="none" stroke="#63b8ff" d="M870.21,-198.22C865.4,-197.35 860.62,-196.51 855.99,-195.75 739.27,-176.63 602.86,-160.67 520.52,-151.74"/>
<polygon fill="#63b8ff" stroke="#63b8ff" points="521.08,-148.17 510.76,-150.58 520.33,-155.13 521.08,-148.17"/>
</g>
<!-- Node11 -->
<g id="node11" class="node">
<title>Node11</title>
<g id="a_node11"><a xlink:href="../../d2/d30/general_8hpp.html" target="_top" xlink:title=" ">
<polygon fill="white" stroke="#666666" points="1074.24,-159.75 969.74,-159.75 969.74,-126.25 1074.24,-126.25 1074.24,-159.75"/>
<text text-anchor="start" x="977.74" y="-146.25" font-family="Helvetica,sans-Serif" font-size="10.00">Simple&#45;Utility/tuple</text>
<text text-anchor="middle" x="1021.99" y="-133.5" font-family="Helvetica,sans-Serif" font-size="10.00">/general.hpp</text>
</a>
</g>
</g>
<!-- Node2&#45;&gt;Node11 -->
<g id="edge14" class="edge">
<title>Node2&#45;&gt;Node11</title>
<path fill="none" stroke="#63b8ff" d="M954.84,-195.5C966.05,-186.91 980.05,-176.16 992.37,-166.72"/>
<polygon fill="#63b8ff" stroke="#63b8ff" points="994.17,-168.98 999.98,-160.12 989.91,-163.42 994.17,-168.98"/>
</g>
<!-- Node4 -->
<g id="node4" class="node">
<title>Node4</title>
<g id="a_node4"><a xlink:title=" ">
<polygon fill="#e0e0e0" stroke="#999999" points="855.24,-20.75 798.74,-20.75 798.74,0 855.24,0 855.24,-20.75"/>
<text text-anchor="middle" x="826.99" y="-7.25" font-family="Helvetica,sans-Serif" font-size="10.00">concepts</text>
</a>
</g>
</g>
<!-- Node3&#45;&gt;Node4 -->
<g id="edge3" class="edge">
<title>Node3&#45;&gt;Node4</title>
<path fill="none" stroke="#63b8ff" d="M509.61,-133.7C551.09,-126.42 605.41,-113.27 648.99,-90.25 668.89,-79.73 667.42,-67.9 686.99,-56.75 718.78,-38.63 758.81,-26.59 787.91,-19.49"/>
<polygon fill="#63b8ff" stroke="#63b8ff" points="788.56,-22.7 797.49,-17.01 786.96,-15.88 788.56,-22.7"/>
</g>
<!-- Node5 -->
<g id="node5" class="node">
<title>Node5</title>
<g id="a_node5"><a xlink:title=" ">
<polygon fill="#e0e0e0" stroke="#999999" points="202.86,-83.88 141.11,-83.88 141.11,-63.12 202.86,-63.12 202.86,-83.88"/>
<text text-anchor="middle" x="171.99" y="-70.38" font-family="Helvetica,sans-Serif" font-size="10.00">functional</text>
</a>
</g>
</g>
<!-- Node3&#45;&gt;Node5 -->
<g id="edge4" class="edge">
<title>Node3&#45;&gt;Node5</title>
<path fill="none" stroke="#63b8ff" d="M382.09,-126.26C330.23,-113.48 258.6,-95.84 213.81,-84.8"/>
<polygon fill="#63b8ff" stroke="#63b8ff" points="214.85,-81.21 204.3,-82.21 213.17,-88.01 214.85,-81.21"/>
</g>
<!-- Node6 -->
<g id="node6" class="node">
<title>Node6</title>
<g id="a_node6"><a xlink:title=" ">
<polygon fill="#e0e0e0" stroke="#999999" points="615.99,-20.75 551.99,-20.75 551.99,0 615.99,0 615.99,-20.75"/>
<text text-anchor="middle" x="583.99" y="-7.25" font-family="Helvetica,sans-Serif" font-size="10.00">type_traits</text>
</a>
</g>
</g>
<!-- Node3&#45;&gt;Node6 -->
<g id="edge5" class="edge">
<title>Node3&#45;&gt;Node6</title>
<path fill="none" stroke="#63b8ff" d="M407.55,-125.96C392.7,-117.64 377.32,-105.89 368.99,-90.25 361.99,-77.11 359.61,-68.31 368.99,-56.75 390.22,-30.57 484.59,-18.91 541.01,-14.2"/>
<polygon fill="#63b8ff" stroke="#63b8ff" points="541.06,-17.63 550.75,-13.35 540.5,-10.65 541.06,-17.63"/>
</g>
<!-- Node7 -->
<g id="node7" class="node">
<title>Node7</title>
<g id="a_node7"><a xlink:href="../../d8/dd2/_config_8hpp.html" target="_top" xlink:title=" ">
<polygon fill="white" stroke="#666666" points="510.11,-83.88 377.86,-83.88 377.86,-63.12 510.11,-63.12 510.11,-83.88"/>
<text text-anchor="middle" x="443.99" y="-70.38" font-family="Helvetica,sans-Serif" font-size="10.00">Simple&#45;Utility/Config.hpp</text>
</a>
</g>
</g>
<!-- Node3&#45;&gt;Node7 -->
<g id="edge6" class="edge">
<title>Node3&#45;&gt;Node7</title>
<path fill="none" stroke="#63b8ff" d="M445.51,-126C445.24,-116.8 444.89,-105.14 444.6,-95.24"/>
<polygon fill="#63b8ff" stroke="#63b8ff" points="448.07,-95.21 444.28,-85.32 441.07,-95.42 448.07,-95.21"/>
</g>
<!-- Node8 -->
<g id="node8" class="node">
<title>Node8</title>
<g id="a_node8"><a xlink:href="../../d4/d1c/unified__base_8hpp.html" target="_top" xlink:title=" ">
<polygon fill="white" stroke="#666666" points="639.99,-90.25 527.99,-90.25 527.99,-56.75 639.99,-56.75 639.99,-90.25"/>
<text text-anchor="start" x="535.99" y="-76.75" font-family="Helvetica,sans-Serif" font-size="10.00">Simple&#45;Utility/unified</text>
<text text-anchor="middle" x="583.99" y="-64" font-family="Helvetica,sans-Serif" font-size="10.00">_base.hpp</text>
</a>
</g>
</g>
<!-- Node3&#45;&gt;Node8 -->
<g id="edge7" class="edge">
<title>Node3&#45;&gt;Node8</title>
<path fill="none" stroke="#63b8ff" d="M479.04,-125.83C497.73,-116.69 521.3,-105.16 541.37,-95.34"/>
<polygon fill="#63b8ff" stroke="#63b8ff" points="542.76,-98.07 550.2,-90.54 539.68,-91.79 542.76,-98.07"/>
</g>
<!-- Node9 -->
<g id="node9" class="node">
<title>Node9</title>
<g id="a_node9"><a xlink:href="../../dd/d5c/stl__extensions_8hpp.html" target="_top" xlink:title=" ">
<polygon fill="white" stroke="#666666" points="817.86,-90.25 696.11,-90.25 696.11,-56.75 817.86,-56.75 817.86,-90.25"/>
<text text-anchor="start" x="704.11" y="-76.75" font-family="Helvetica,sans-Serif" font-size="10.00">Simple&#45;Utility/concepts</text>
<text text-anchor="middle" x="756.99" y="-64" font-family="Helvetica,sans-Serif" font-size="10.00">/stl_extensions.hpp</text>
</a>
</g>
</g>
<!-- Node3&#45;&gt;Node9 -->
<g id="edge10" class="edge">
<title>Node3&#45;&gt;Node9</title>
<path fill="none" stroke="#63b8ff" d="M509.67,-128.18C560.63,-117.12 632.08,-101.61 685.09,-90.1"/>
<polygon fill="#63b8ff" stroke="#63b8ff" points="685.74,-93.33 694.77,-87.79 684.25,-86.49 685.74,-93.33"/>
</g>
<!-- Node10 -->
<g id="node10" class="node">
<title>Node10</title>
<g id="a_node10"><a xlink:href="../../d5/d8e/concepts_2utility_8hpp.html" target="_top" xlink:title=" ">
<polygon fill="white" stroke="#666666" points="957.86,-90.25 836.11,-90.25 836.11,-56.75 957.86,-56.75 957.86,-90.25"/>
<text text-anchor="start" x="844.11" y="-76.75" font-family="Helvetica,sans-Serif" font-size="10.00">Simple&#45;Utility/concepts</text>
<text text-anchor="middle" x="896.99" y="-64" font-family="Helvetica,sans-Serif" font-size="10.00">/utility.hpp</text>
</a>
</g>
</g>
<!-- Node3&#45;&gt;Node10 -->
<g id="edge12" class="edge">
<title>Node3&#45;&gt;Node10</title>
<path fill="none" stroke="#63b8ff" d="M509.96,-135.02C583.64,-126.6 708.54,-111.15 825.41,-90.44"/>
<polygon fill="#63b8ff" stroke="#63b8ff" points="825.74,-93.76 834.97,-88.56 824.51,-86.87 825.74,-93.76"/>
</g>
<!-- Node8&#45;&gt;Node4 -->
<g id="edge8" class="edge">
<title>Node8&#45;&gt;Node4</title>
<path fill="none" stroke="#63b8ff" d="M640.35,-58.32C685.58,-46.94 747.93,-31.26 787.85,-21.22"/>
<polygon fill="#63b8ff" stroke="#63b8ff" points="788.64,-24.38 797.49,-18.54 786.93,-17.59 788.64,-24.38"/>
</g>
<!-- Node8&#45;&gt;Node6 -->
<g id="edge9" class="edge">
<title>Node8&#45;&gt;Node6</title>
<path fill="none" stroke="#63b8ff" d="M583.99,-56.44C583.99,-49.02 583.99,-40.11 583.99,-32.18"/>
<polygon fill="#63b8ff" stroke="#63b8ff" points="587.49,-32.22 583.99,-22.22 580.49,-32.22 587.49,-32.22"/>
</g>
<!-- Node9&#45;&gt;Node4 -->
<g id="edge11" class="edge">
<title>Node9&#45;&gt;Node4</title>
<path fill="none" stroke="#63b8ff" d="M775.38,-56.44C785.28,-47.8 797.49,-37.13 807.54,-28.35"/>
<polygon fill="#63b8ff" stroke="#63b8ff" points="809.48,-30.43 814.71,-21.22 804.88,-25.16 809.48,-30.43"/>
</g>
<!-- Node10&#45;&gt;Node4 -->
<g id="edge13" class="edge">
<title>Node10&#45;&gt;Node4</title>
<path fill="none" stroke="#63b8ff" d="M878.59,-56.44C868.69,-47.8 856.49,-37.13 846.43,-28.35"/>
<polygon fill="#63b8ff" stroke="#63b8ff" points="849.09,-25.16 839.26,-21.22 844.49,-30.43 849.09,-25.16"/>
</g>
<!-- Node11&#45;&gt;Node4 -->
<g id="edge15" class="edge">
<title>Node11&#45;&gt;Node4</title>
<path fill="none" stroke="#63b8ff" d="M1022.41,-125.83C1022.01,-106.71 1018.32,-75.16 999.99,-56.75 964.78,-21.41 905.64,-12.55 866.46,-10.86"/>
<polygon fill="#63b8ff" stroke="#63b8ff" points="866.58,-7.34 856.49,-10.55 866.38,-14.33 866.58,-7.34"/>
</g>
<!-- Node11&#45;&gt;Node6 -->
<g id="edge17" class="edge">
<title>Node11&#45;&gt;Node6</title>
<path fill="none" stroke="#63b8ff" d="M1016.54,-126.01C1008.87,-106.14 992.84,-72.88 966.99,-56.75 938.6,-39.04 721.07,-21.32 627.05,-14.41"/>
<polygon fill="#63b8ff" stroke="#63b8ff" points="627.44,-10.85 617.22,-13.62 626.93,-17.84 627.44,-10.85"/>
</g>
<!-- Node12 -->
<g id="node12" class="node">
<title>Node12</title>
<g id="a_node12"><a xlink:title=" ">
<polygon fill="#e0e0e0" stroke="#999999" points="1100.61,-83.88 1061.36,-83.88 1061.36,-63.12 1100.61,-63.12 1100.61,-83.88"/>
<text text-anchor="middle" x="1080.99" y="-70.38" font-family="Helvetica,sans-Serif" font-size="10.00">tuple</text>
</a>
</g>
</g>
<!-- Node11&#45;&gt;Node12 -->
<g id="edge16" class="edge">
<title>Node11&#45;&gt;Node12</title>
<path fill="none" stroke="#63b8ff" d="M1035.97,-126C1044.81,-115.89 1056.24,-102.81 1065.38,-92.36"/>
<polygon fill="#63b8ff" stroke="#63b8ff" points="1068.46,-95.15 1072.4,-85.32 1063.18,-90.55 1068.46,-95.15"/>
</g>
<!-- Node13 -->
<g id="node13" class="node">
<title>Node13</title>
<g id="a_node13"><a xlink:title=" ">
<polygon fill="#e0e0e0" stroke="#999999" points="1208.36,-83.88 1167.61,-83.88 1167.61,-63.12 1208.36,-63.12 1208.36,-83.88"/>
<text text-anchor="middle" x="1187.99" y="-70.38" font-family="Helvetica,sans-Serif" font-size="10.00">utility</text>
</a>
</g>
</g>
<!-- Node11&#45;&gt;Node13 -->
<g id="edge18" class="edge">
<title>Node11&#45;&gt;Node13</title>
<path fill="none" stroke="#63b8ff" d="M1061.75,-125.83C1091.05,-113.92 1130.32,-97.95 1157.23,-87.01"/>
<polygon fill="#63b8ff" stroke="#63b8ff" points="1158.3,-89.94 1166.25,-82.93 1155.66,-83.46 1158.3,-89.94"/>
</g>
<!-- Node14&#45;&gt;Node3 -->
<g id="edge21" class="edge">
<title>Node14&#45;&gt;Node3</title>
<path fill="none" stroke="#63b8ff" d="M561.58,-195.33C540.79,-186.1 514.51,-174.43 492.26,-164.55"/>
<polygon fill="#63b8ff" stroke="#63b8ff" points="493.92,-161.01 483.36,-160.15 491.08,-167.41 493.92,-161.01"/>
</g>
<!-- Node14&#45;&gt;Node10 -->
<g id="edge20" class="edge">
<title>Node14&#45;&gt;Node10</title>
<path fill="none" stroke="#63b8ff" d="M668.64,-197.52C671.8,-196.92 674.93,-196.32 677.99,-195.75 767.62,-178.94 814.85,-223.57 879.99,-159.75 895.25,-144.79 898.83,-120.3 898.98,-101.39"/>
<polygon fill="#63b8ff" stroke="#63b8ff" points="902.46,-101.39 898.7,-91.48 895.46,-101.57 902.46,-101.39"/>
</g>
<!-- Node15&#45;&gt;Node3 -->
<g id="edge24" class="edge">
<title>Node15&#45;&gt;Node3</title>
<path fill="none" stroke="#63b8ff" d="M194.22,-264.78C176.97,-256.95 160.01,-245.58 149.99,-229.25 142.2,-216.56 140.41,-207.15 149.99,-195.75 177.75,-162.71 293.29,-150.76 371.53,-146.44"/>
<polygon fill="#63b8ff" stroke="#63b8ff" points="371.51,-149.9 381.31,-145.88 371.14,-142.9 371.51,-149.9"/>
</g>
<!-- Node15&#45;&gt;Node10 -->
<g id="edge23" class="edge">
<title>Node15&#45;&gt;Node10</title>
<path fill="none" stroke="#63b8ff" d="M280.41,-264.86C296.8,-255.17 317.55,-242.23 334.99,-229.25 353.04,-215.8 352.6,-205.3 372.99,-195.75 467.47,-151.47 503.13,-182.42 604.99,-159.75 687.05,-141.49 779.96,-112.97 838.5,-94.02"/>
<polygon fill="#63b8ff" stroke="#63b8ff" points="839.24,-97.13 847.66,-90.71 837.07,-90.48 839.24,-97.13"/>
</g>
<!-- Node16&#45;&gt;Node3 -->
<g id="edge26" class="edge">
<title>Node16&#45;&gt;Node3</title>
<path fill="none" stroke="#63b8ff" d="M103.65,-264.99C107.81,-245.42 117.78,-212.79 139.99,-195.75 175.3,-168.65 292.5,-154.97 371.17,-148.68"/>
<polygon fill="#63b8ff" stroke="#63b8ff" points="371.3,-152.11 381,-147.84 370.76,-145.13 371.3,-152.11"/>
</g>
<!-- Node16&#45;&gt;Node5 -->
<g id="edge30" class="edge">
<title>Node16&#45;&gt;Node5</title>
<path fill="none" stroke="#63b8ff" d="M101.48,-264.96C102.38,-247.57 104.9,-219.17 111.99,-195.75 123.55,-157.54 146.21,-116.62 160.13,-93.43"/>
<polygon fill="#63b8ff" stroke="#63b8ff" points="163.61,-95.46 165.84,-85.1 157.64,-91.8 163.61,-95.46"/>
</g>
<!-- Node16&#45;&gt;Node17 -->
<g id="edge27" class="edge">
<title>Node16&#45;&gt;Node17</title>
<path fill="none" stroke="#63b8ff" d="M165.47,-266.73C168.68,-266.19 171.86,-265.69 174.99,-265.25 393,-234.38 453.67,-260.09 675.68,-229.29"/>
<polygon fill="#63b8ff" stroke="#63b8ff" points="675.97,-232.64 685.38,-227.78 674.99,-225.71 675.97,-232.64"/>
</g>
<!-- Node17&#45;&gt;Node3 -->
<g id="edge28" class="edge">
<title>Node17&#45;&gt;Node3</title>
<path fill="none" stroke="#63b8ff" d="M686.26,-197.35C637.9,-186.61 571.3,-171.83 520.48,-160.54"/>
<polygon fill="#63b8ff" stroke="#63b8ff" points="521.41,-156.94 510.89,-158.19 519.9,-163.77 521.41,-156.94"/>
</g>
<!-- Node17&#45;&gt;Node11 -->
<g id="edge29" class="edge">
<title>Node17&#45;&gt;Node11</title>
<path fill="none" stroke="#63b8ff" d="M813.76,-195.67C857.57,-184.8 915.46,-170.44 959.08,-159.61"/>
<polygon fill="#63b8ff" stroke="#63b8ff" points="959.7,-162.81 968.56,-157.01 958.02,-156.02 959.7,-162.81"/>
</g>
<!-- Node18&#45;&gt;Node2 -->
<g id="edge35" class="edge">
<title>Node18&#45;&gt;Node2</title>
<path fill="none" stroke="#63b8ff" d="M467.3,-334.31C502.74,-324.45 548.58,-311.35 588.99,-298.75 633.33,-284.92 643.18,-277.5 687.99,-265.25 744.95,-249.68 810.43,-236.11 859.51,-226.78"/>
<polygon fill="#63b8ff" stroke="#63b8ff" points="859.85,-230.08 869.03,-224.79 858.56,-223.21 859.85,-230.08"/>
</g>
<!-- Node18&#45;&gt;Node3 -->
<g id="edge34" class="edge">
<title>Node18&#45;&gt;Node3</title>
<path fill="none" stroke="#63b8ff" d="M393.7,-334.62C372.05,-310.62 332.98,-267.61 328.99,-265.25 271.41,-231.31 224.2,-281.86 182.99,-229.25 173.8,-217.53 173.53,-207.25 182.99,-195.75 206.45,-167.22 301.96,-154.17 371.13,-148.38"/>
<polygon fill="#63b8ff" stroke="#63b8ff" points="371.3,-151.8 380.99,-147.51 370.74,-144.82 371.3,-151.8"/>
</g>
<!-- Node18&#45;&gt;Node14 -->
<g id="edge36" class="edge">
<title>Node18&#45;&gt;Node14</title>
<path fill="none" stroke="#63b8ff" d="M419.66,-334.26C433.69,-315.64 458.78,-285.14 485.99,-265.25 503.06,-252.77 523.63,-242.21 542.45,-233.96"/>
<polygon fill="#63b8ff" stroke="#63b8ff" points="543.57,-236.86 551.4,-229.73 540.83,-230.42 543.57,-236.86"/>
</g>
<!-- Node18&#45;&gt;Node15 -->
<g id="edge37" class="edge">
<title>Node18&#45;&gt;Node15</title>
<path fill="none" stroke="#63b8ff" d="M370.62,-334.33C349.18,-325.06 322.07,-313.32 299.17,-303.42"/>
<polygon fill="#63b8ff" stroke="#63b8ff" points="300.88,-299.91 290.32,-299.15 298.1,-306.34 300.88,-299.91"/>
</g>
<!-- Node18&#45;&gt;Node16 -->
<g id="edge44" class="edge">
<title>Node18&#45;&gt;Node16</title>
<path fill="none" stroke="#63b8ff" d="M344,-336.43C295.19,-325.7 227.83,-310.89 176.4,-299.58"/>
<polygon fill="#63b8ff" stroke="#63b8ff" points="177.2,-295.95 166.68,-297.22 175.69,-302.79 177.2,-295.95"/>
</g>
<!-- Node18&#45;&gt;Node17 -->
<g id="edge45" class="edge">
<title>Node18&#45;&gt;Node17</title>
<path fill="none" stroke="#63b8ff" d="M446.61,-334.39C488.3,-317.07 556.7,-288.84 615.99,-265.25 642.65,-254.64 672.41,-243.11 697.1,-233.64"/>
<polygon fill="#63b8ff" stroke="#63b8ff" points="698.27,-236.56 706.35,-229.71 695.76,-230.02 698.27,-236.56"/>
</g>
<!-- Node19 -->
<g id="node19" class="node">
<title>Node19</title>
<g id="a_node19"><a xlink:href="../../dc/d0a/equal_8hpp.html" target="_top" xlink:title=" ">
<polygon fill="white" stroke="#666666" points="509.49,-229.25 382.49,-229.25 382.49,-195.75 509.49,-195.75 509.49,-229.25"/>
<text text-anchor="start" x="390.49" y="-215.75" font-family="Helvetica,sans-Serif" font-size="10.00">Simple&#45;Utility/functional</text>
<text text-anchor="middle" x="445.99" y="-203" font-family="Helvetica,sans-Serif" font-size="10.00">/operators/equal.hpp</text>
</a>
</g>
</g>
<!-- Node18&#45;&gt;Node19 -->
<g id="edge38" class="edge">
<title>Node18&#45;&gt;Node19</title>
<path fill="none" stroke="#63b8ff" d="M412.42,-334.52C418.88,-311.21 430.97,-267.64 438.74,-239.63"/>
<polygon fill="#63b8ff" stroke="#63b8ff" points="442.28,-240.95 441.58,-230.38 435.54,-239.08 442.28,-240.95"/>
</g>
<!-- Node20 -->
<g id="node20" class="node">
<title>Node20</title>
<g id="a_node20"><a xlink:href="../../d7/dd0/equivalent_8hpp.html" target="_top" xlink:title=" ">
<polygon fill="white" stroke="#666666" points="326.24,-229.25 191.74,-229.25 191.74,-195.75 326.24,-195.75 326.24,-229.25"/>
<text text-anchor="start" x="199.74" y="-215.75" font-family="Helvetica,sans-Serif" font-size="10.00">Simple&#45;Utility/functional</text>
<text text-anchor="middle" x="258.99" y="-203" font-family="Helvetica,sans-Serif" font-size="10.00">/operators/equivalent.hpp</text>
</a>
</g>
</g>
<!-- Node18&#45;&gt;Node20 -->
<g id="edge41" class="edge">
<title>Node18&#45;&gt;Node20</title>
<path fill="none" stroke="#63b8ff" d="M402.72,-334.52C395.89,-315.86 382.37,-285.05 361.99,-265.25 348.73,-252.37 331.62,-242.05 315.18,-234.11"/>
<polygon fill="#63b8ff" stroke="#63b8ff" points="317.16,-230.71 306.61,-229.72 314.23,-237.07 317.16,-230.71"/>
</g>
<!-- Node19&#45;&gt;Node3 -->
<g id="edge40" class="edge">
<title>Node19&#45;&gt;Node3</title>
<path fill="none" stroke="#63b8ff" d="M445.99,-195.5C445.99,-188.11 445.99,-179.12 445.99,-170.73"/>
<polygon fill="#63b8ff" stroke="#63b8ff" points="449.49,-170.88 445.99,-160.88 442.49,-170.88 449.49,-170.88"/>
</g>
<!-- Node19&#45;&gt;Node10 -->
<g id="edge39" class="edge">
<title>Node19&#45;&gt;Node10</title>
<path fill="none" stroke="#63b8ff" d="M509.65,-197.57C512.8,-196.94 515.93,-196.33 518.99,-195.75 616.33,-177.3 645.21,-191.71 738.99,-159.75 784.84,-144.12 833.25,-116.05 864.22,-96.4"/>
<polygon fill="#63b8ff" stroke="#63b8ff" points="865.73,-98.95 872.24,-90.6 861.94,-93.06 865.73,-98.95"/>
</g>
<!-- Node20&#45;&gt;Node3 -->
<g id="edge43" class="edge">
<title>Node20&#45;&gt;Node3</title>
<path fill="none" stroke="#63b8ff" d="M303.78,-195.33C329.93,-185.89 363.15,-173.9 390.9,-163.89"/>
<polygon fill="#63b8ff" stroke="#63b8ff" points="392.02,-166.84 400.24,-160.15 389.64,-160.26 392.02,-166.84"/>
</g>
<!-- Node20&#45;&gt;Node10 -->
<g id="edge42" class="edge">
<title>Node20&#45;&gt;Node10</title>
<path fill="none" stroke="#63b8ff" d="M326.66,-198.23C390.99,-185.58 483.08,-167.37 518.99,-159.75 625.99,-137.04 749.56,-108.79 825.49,-91.19"/>
<polygon fill="#63b8ff" stroke="#63b8ff" points="825.93,-94.45 834.88,-88.78 824.34,-87.63 825.93,-94.45"/>
</g>
<!-- Node21&#45;&gt;Node2 -->
<g id="edge49" class="edge">
<title>Node21&#45;&gt;Node2</title>
<path fill="none" stroke="#63b8ff" d="M801.66,-264.83C825.89,-255.43 856.63,-243.51 882.38,-233.52"/>
<polygon fill="#63b8ff" stroke="#63b8ff" points="883.29,-236.53 891.35,-229.65 880.76,-230.01 883.29,-236.53"/>
</g>
<!-- Node21&#45;&gt;Node3 -->
<g id="edge48" class="edge">
<title>Node21&#45;&gt;Node3</title>
<path fill="none" stroke="#63b8ff" d="M785.77,-265.02C811,-247.43 842.94,-218.64 822.99,-195.75 813.13,-184.45 627.72,-163.16 520.66,-151.72"/>
<polygon fill="#63b8ff" stroke="#63b8ff" points="521.23,-148.16 510.91,-150.58 520.49,-155.12 521.23,-148.16"/>
</g>
<!-- Node21&#45;&gt;Node8 -->
<g id="edge47" class="edge">
<title>Node21&#45;&gt;Node8</title>
<path fill="none" stroke="#63b8ff" d="M823.68,-271.88C892.94,-261.3 995.4,-243.51 1006.99,-229.25 1016.37,-217.69 1016.5,-207.2 1006.99,-195.75 951.23,-128.63 898.09,-183 813.99,-159.75 749.5,-141.92 677.53,-113.87 631.56,-94.85"/>
<polygon fill="#63b8ff" stroke="#63b8ff" points="633.16,-91.31 622.59,-90.7 630.47,-97.78 633.16,-91.31"/>
</g>
<!-- Node21&#45;&gt;Node17 -->
<g id="edge50" class="edge">
<title>Node21&#45;&gt;Node17</title>
<path fill="none" stroke="#63b8ff" d="M757.62,-265C756.52,-257.61 755.19,-248.62 753.95,-240.23"/>
<polygon fill="#63b8ff" stroke="#63b8ff" points="757.27,-239.76 752.34,-230.38 750.34,-240.79 757.27,-239.76"/>
</g>
<!-- Node23&#45;&gt;Node21 -->
<g id="edge55" class="edge">
<title>Node23&#45;&gt;Node21</title>
<path fill="none" stroke="#63b8ff" d="M759.99,-334.5C759.99,-327.11 759.99,-318.12 759.99,-309.73"/>
<polygon fill="#63b8ff" stroke="#63b8ff" points="763.49,-309.88 759.99,-299.88 756.49,-309.88 763.49,-309.88"/>
</g>
<!-- Node24 -->
<g id="node24" class="node">
<title>Node24</title>
<g id="a_node24"><a xlink:href="../../dd/dcd/operators_8hpp.html" target="_top" xlink:title=" ">
<polygon fill="white" stroke="#666666" points="1001.86,-298.75 880.11,-298.75 880.11,-265.25 1001.86,-265.25 1001.86,-298.75"/>
<text text-anchor="start" x="888.11" y="-285.25" font-family="Helvetica,sans-Serif" font-size="10.00">Simple&#45;Utility/concepts</text>
<text text-anchor="middle" x="940.99" y="-272.5" font-family="Helvetica,sans-Serif" font-size="10.00">/operators.hpp</text>
</a>
</g>
</g>
<!-- Node23&#45;&gt;Node24 -->
<g id="edge53" class="edge">
<title>Node23&#45;&gt;Node24</title>
<path fill="none" stroke="#63b8ff" d="M803.34,-334.33C828.66,-324.89 860.8,-312.9 887.66,-302.89"/>
<polygon fill="#63b8ff" stroke="#63b8ff" points="888.53,-305.93 896.67,-299.15 886.08,-299.37 888.53,-305.93"/>
</g>
<!-- Node24&#45;&gt;Node4 -->
<g id="edge54" class="edge">
<title>Node24&#45;&gt;Node4</title>
<path fill="none" stroke="#63b8ff" d="M969.37,-265C1032.42,-227.51 1173.71,-131.51 1109.99,-56.75 1079.12,-20.54 936.4,-13.11 866.2,-11.66"/>
<polygon fill="#63b8ff" stroke="#63b8ff" points="866.64,-8.15 856.58,-11.48 866.52,-15.15 866.64,-8.15"/>
</g>
<!-- Node25&#45;&gt;Node18 -->
<g id="edge57" class="edge">
<title>Node25&#45;&gt;Node18</title>
<path fill="none" stroke="#63b8ff" d="M506.85,-403.83C489.32,-394.73 467.24,-383.27 448.39,-373.48"/>
<polygon fill="#63b8ff" stroke="#63b8ff" points="450.36,-370.04 439.87,-368.54 447.13,-376.25 450.36,-370.04"/>
</g>
<!-- Node25&#45;&gt;Node21 -->
<g id="edge58" class="edge">
<title>Node25&#45;&gt;Node21</title>
<path fill="none" stroke="#63b8ff" d="M557.75,-403.76C580.25,-385.69 618.49,-356.22 653.99,-334.75 672.7,-323.43 694.25,-312.55 713.01,-303.71"/>
<polygon fill="#63b8ff" stroke="#63b8ff" points="714.23,-306.54 721.82,-299.15 711.28,-300.19 714.23,-306.54"/>
</g>
<!-- Node26&#45;&gt;Node10 -->
<g id="edge60" class="edge">
<title>Node26&#45;&gt;Node10</title>
<path fill="none" stroke="#63b8ff" d="M1132.68,-334.27C1124.77,-316.97 1111.6,-288.86 1098.99,-265.25 1082.09,-233.62 1085.49,-218.76 1057.99,-195.75 1022.71,-166.25 997.84,-187.25 960.99,-159.75 939.61,-143.8 922.02,-118.79 910.73,-99.98"/>
<polygon fill="#63b8ff" stroke="#63b8ff" points="913.3,-98.43 905.26,-91.53 907.24,-101.94 913.3,-98.43"/>
</g>
<!-- Node26&#45;&gt;Node12 -->
<g id="edge63" class="edge">
<title>Node26&#45;&gt;Node12</title>
<path fill="none" stroke="#63b8ff" d="M1145.52,-334.41C1148.7,-324.31 1152.37,-310.93 1153.99,-298.75 1160.02,-253.37 1166.24,-239.86 1153.99,-195.75 1142.82,-155.56 1114.37,-115.36 1096.46,-92.83"/>
<polygon fill="#63b8ff" stroke="#63b8ff" points="1098.54,-90.85 1089.51,-85.31 1093.12,-95.27 1098.54,-90.85"/>
</g>
<!-- Node26&#45;&gt;Node13 -->
<g id="edge62" class="edge">
<title>Node26&#45;&gt;Node13</title>
<path fill="none" stroke="#63b8ff" d="M1188.04,-334.36C1204.3,-326.34 1220.69,-314.82 1229.99,-298.75 1269.22,-230.94 1222.76,-134.05 1199.6,-93.5"/>
<polygon fill="#63b8ff" stroke="#63b8ff" points="1202.24,-92.08 1194.15,-85.24 1196.21,-95.63 1202.24,-92.08"/>
</g>
<!-- Node26&#45;&gt;Node21 -->
<g id="edge61" class="edge">
<title>Node26&#45;&gt;Node21</title>
<path fill="none" stroke="#63b8ff" d="M1076.38,-339.2C1009.66,-327.35 904.88,-308.74 834.37,-296.21"/>
<polygon fill="#63b8ff" stroke="#63b8ff" points="835.25,-292.64 824.8,-294.33 834.03,-299.53 835.25,-292.64"/>
</g>
<!-- Node27&#45;&gt;Node9 -->
<g id="edge66" class="edge">
<title>Node27&#45;&gt;Node9</title>
<path fill="none" stroke="#63b8ff" d="M1033.82,-335.67C1052.91,-327.94 1071.74,-316.27 1082.99,-298.75 1091.03,-286.22 1088.12,-279.23 1082.99,-265.25 1069.02,-227.22 1057.13,-219.06 1023.99,-195.75 986.71,-169.54 969.77,-177.94 927.99,-159.75 882.17,-139.8 831.07,-113.82 796.76,-95.8"/>
<polygon fill="#63b8ff" stroke="#63b8ff" points="798.59,-92.28 788.12,-90.71 795.33,-98.47 798.59,-92.28"/>
</g>
<!-- Node27&#45;&gt;Node13 -->
<g id="edge69" class="edge">
<title>Node27&#45;&gt;Node13</title>
<path fill="none" stroke="#63b8ff" d="M1033.68,-336.24C1056.66,-328.4 1081.27,-316.53 1098.99,-298.75 1157.5,-240.02 1178.73,-138.05 1185.36,-94.82"/>
<polygon fill="#63b8ff" stroke="#63b8ff" points="1188.95,-95.44 1186.89,-85.04 1182.02,-94.45 1188.95,-95.44"/>
</g>
<!-- Node27&#45;&gt;Node21 -->
<g id="edge67" class="edge">
<title>Node27&#45;&gt;Node21</title>
<path fill="none" stroke="#63b8ff" d="M919.69,-334.33C889.92,-324.77 852.03,-312.58 820.62,-302.49"/>
<polygon fill="#63b8ff" stroke="#63b8ff" points="821.83,-298.88 811.24,-299.15 819.69,-305.55 821.83,-298.88"/>
</g>
<!-- Node27&#45;&gt;Node24 -->
<g id="edge65" class="edge">
<title>Node27&#45;&gt;Node24</title>
<path fill="none" stroke="#63b8ff" d="M963.11,-334.5C959.83,-326.85 955.81,-317.5 952.1,-308.88"/>
<polygon fill="#63b8ff" stroke="#63b8ff" points="954.97,-307.69 947.81,-299.88 948.54,-310.45 954.97,-307.69"/>
</g>
<!-- Node28 -->
<g id="node28" class="node">
<title>Node28</title>
<g id="a_node28"><a xlink:title=" ">
<polygon fill="#e0e0e0" stroke="#999999" points="1073.74,-292.38 1020.24,-292.38 1020.24,-271.62 1073.74,-271.62 1073.74,-292.38"/>
<text text-anchor="middle" x="1046.99" y="-278.88" font-family="Helvetica,sans-Serif" font-size="10.00">memory</text>
</a>
</g>
</g>
<!-- Node27&#45;&gt;Node28 -->
<g id="edge68" class="edge">
<title>Node27&#45;&gt;Node28</title>
<path fill="none" stroke="#63b8ff" d="M988.23,-334.5C1000.12,-324.09 1015.59,-310.52 1027.68,-299.92"/>
<polygon fill="#63b8ff" stroke="#63b8ff" points="1029.57,-302.05 1034.78,-292.82 1024.95,-296.78 1029.57,-302.05"/>
</g>
</g>
</svg>
        <g id="navigator" transform="translate(0 0)" fill="#404254">
                <rect fill="#f2f5e9" fill-opacity="0.5" stroke="#606060" stroke-width=".5" x="0" y="0" width="60" height="60"/>
                <use id="zoomplus" xlink:href="#zoomPlus" x="17" y="9" onmousedown="handleZoom(evt,'in')"/>
                <use id="zoomminus" xlink:href="#zoomMin" x="42" y="9" onmousedown="handleZoom(evt,'out')"/>
                <use id="reset" xlink:href="#resetDef" x="30" y="36" onmousedown="handleReset()"/>
                <g id="arrowUp" xlink:href="#dirArrow" transform="translate(30 24)" onmousedown="handlePan(0,-1)">
                  <use xlink:href="#rim" fill="#404040">
                        <set attributeName="fill" to="#808080" begin="arrowUp.mouseover" end="arrowUp.mouseout"/>
                  </use>
                  <path fill="none" stroke="white" stroke-width="1.5" d="M0,-3.0v7 M-2.5,-0.5L0,-3.0L2.5,-0.5"/>
                </g>
                <g id="arrowRight" xlink:href="#dirArrow" transform="rotate(90) translate(36 -43)" onmousedown="handlePan(1,0)">
                  <use xlink:href="#rim" fill="#404040">
                        <set attributeName="fill" to="#808080" begin="arrowRight.mouseover" end="arrowRight.mouseout"/>
                  </use>
                  <path fill="none" stroke="white" stroke-width="1.5" d="M0,-3.0v7 M-2.5,-0.5L0,-3.0L2.5,-0.5"/>
                </g>
                <g id="arrowDown" xlink:href="#dirArrow" transform="rotate(180) translate(-30 -48)" onmousedown="handlePan(0,1)">
                  <use xlink:href="#rim" fill="#404040">
                        <set attributeName="fill" to="#808080" begin="arrowDown.mouseover" end="arrowDown.mouseout"/>
                  </use>
                  <path fill="none" stroke="white" stroke-width="1.5" d="M0,-3.0v7 M-2.5,-0.5L0,-3.0L2.5,-0.5"/>
                </g>
                <g id="arrowLeft" xlink:href="#dirArrow" transform="rotate(270) translate(-36 17)" onmousedown="handlePan(-1,0)">
                  <use xlink:href="#rim" fill="#404040">
                        <set attributeName="fill" to="#808080" begin="arrowLeft.mouseover" end="arrowLeft.mouseout"/>
                  </use>
                  <path fill="none" stroke="white" stroke-width="1.5" d="M0,-3.0v7 M-2.5,-0.5L0,-3.0L2.5,-0.5"/>
                </g>
        </g>
        <svg viewBox="0 0 15 15" width="100%" height="30px" preserveAspectRatio="xMaxYMin meet">
         <g id="arrow_out" transform="scale(0.3 0.3)">
          <a xlink:href="functional_8hpp__incl_org.svg" target="_base">
           <rect id="button" ry="5" rx="5" y="6" x="6" height="38" width="38"
                fill="#f2f5e9" fill-opacity="0.5" stroke="#606060" stroke-width="1.0"/>
           <path id="arrow"
             d="M 11.500037,31.436501 C 11.940474,20.09759 22.043105,11.32322 32.158766,21.979434 L 37.068811,17.246167 C 37.068811,17.246167 37.088388,32 37.088388,32 L 22.160133,31.978069 C 22.160133,31.978069 26.997745,27.140456 26.997745,27.140456 C 18.528582,18.264221 13.291696,25.230495 11.500037,31.436501 z"
             style="fill:#404040;"/>
          </a>
         </g>
        </svg>
</svg>
