<?xml version="1.0" encoding="UTF-8" standalone="no"?>
<!DOCTYPE svg PUBLIC "-//W3C//DTD SVG 1.1//EN"
 "http://www.w3.org/Graphics/SVG/1.1/DTD/svg11.dtd">
<!-- Generated by graphviz version 2.43.0 (0)
 -->
<!-- Title: /home/runner/work/Simple&#45;Utility/Simple&#45;Utility/include/Simple&#45;Utility/functional.hpp Pages: 1 -->
<!--zoomable 519 -->
<svg id="main" version="1.1" xmlns="http://www.w3.org/2000/svg" xmlns:xlink="http://www.w3.org/1999/xlink" xml:space="preserve" onload="init(evt)">
<style type="text/css"><![CDATA[
.edge:hover path { stroke: red; }
.edge:hover polygon { stroke: red; fill: red; }
]]></style>
<script type="text/javascript"><![CDATA[
var edges = document.getElementsByTagName('g');
if (edges && edges.length) {
  for (var i=0;i<edges.length;i++) {
    if (edges[i].id.substr(0,4)=='edge') {
      edges[i].setAttribute('class','edge');
    }
  }
}
]]></script>
        <defs>
                <circle id="rim" cx="0" cy="0" r="7"/>
                <circle id="rim2" cx="0" cy="0" r="3.5"/>
                <g id="zoomPlus">
                        <use xlink:href="#rim" fill="#404040">
                                <set attributeName="fill" to="#808080" begin="zoomplus.mouseover" end="zoomplus.mouseout"/>
                        </use>
                        <path d="M-4,0h8M0,-4v8" fill="none" stroke="white" stroke-width="1.5" pointer-events="none"/>
                </g>
                <g id="zoomMin">
                        <use xlink:href="#rim" fill="#404040">
                                <set attributeName="fill" to="#808080" begin="zoomminus.mouseover" end="zoomminus.mouseout"/>
                        </use>
                        <path d="M-4,0h8" fill="none" stroke="white" stroke-width="1.5" pointer-events="none"/>
                </g>
                <g id="dirArrow">
                        <path fill="none" stroke="white" stroke-width="1.5" d="M0,-3.0v7 M-2.5,-0.5L0,-3.0L2.5,-0.5"/>
                </g>
               <g id="resetDef">
                       <use xlink:href="#rim2" fill="#404040">
                               <set attributeName="fill" to="#808080" begin="reset.mouseover" end="reset.mouseout"/>
                       </use>
               </g>
        </defs>

<script type="text/javascript">
var viewWidth = 1298;
var viewHeight = 519;
var sectionId = 'dynsection-0';
</script>
<script xlink:href="../../svgpan.js"/>
<svg id="graph" class="graph">
<g id="viewport">
<title>/home/runner/work/Simple&#45;Utility/Simple&#45;Utility/include/Simple&#45;Utility/functional.hpp</title>
<polygon fill="white" stroke="transparent" points="-4,4 -4,-515 1293.59,-515 1293.59,4 -4,4"/>
<!-- Node1 -->
<g id="node1" class="node">
<title>Node1</title>
<g id="a_node1"><a xlink:title=" ">
<polygon fill="#bfbfbf" stroke="black" points="579.41,-458.5 579.41,-510.5 725.41,-510.5 725.41,-458.5 579.41,-458.5"/>
<text text-anchor="start" x="587.41" y="-498.5" font-family="Helvetica,sans-Serif" font-size="10.00">/home/runner/work/Simple</text>
<text text-anchor="start" x="587.41" y="-487.5" font-family="Helvetica,sans-Serif" font-size="10.00">&#45;Utility/Simple&#45;Utility</text>
<text text-anchor="start" x="587.41" y="-476.5" font-family="Helvetica,sans-Serif" font-size="10.00">/include/Simple&#45;Utility</text>
<text text-anchor="middle" x="652.41" y="-465.5" font-family="Helvetica,sans-Serif" font-size="10.00">/functional.hpp</text>
</a>
</g>
</g>
<!-- Node2 -->
<g id="node2" class="node">
<title>Node2</title>
<g id="a_node2"><a xlink:href="../../d9/d76/bind_8hpp.html" target="_top" xlink:title=" ">
<polygon fill="white" stroke="black" points="906.41,-190.5 906.41,-220.5 1042.41,-220.5 1042.41,-190.5 906.41,-190.5"/>
<text text-anchor="start" x="914.41" y="-208.5" font-family="Helvetica,sans-Serif" font-size="10.00">Simple&#45;Utility/functional</text>
<text text-anchor="middle" x="974.41" y="-197.5" font-family="Helvetica,sans-Serif" font-size="10.00">/operators/bind.hpp</text>
</a>
</g>
</g>
<!-- Node1&#45;&gt;Node2 -->
<g id="edge1" class="edge">
<title>Node1&#45;&gt;Node2</title>
<path fill="none" stroke="midnightblue" d="M715.35,-458.33C761.78,-436.95 823.56,-402.19 863.41,-355 893.65,-319.18 873.34,-293.77 902.41,-257 912.1,-244.74 925.56,-234.21 938.21,-225.98"/>
<polygon fill="midnightblue" stroke="midnightblue" points="940.14,-228.91 946.79,-220.67 936.45,-222.96 940.14,-228.91"/>
</g>
<!-- Node3 -->
<g id="node3" class="node">
<title>Node3</title>
<g id="a_node3"><a xlink:href="../../d1/d76/functional_2base_8hpp.html" target="_top" xlink:title=" ">
<polygon fill="white" stroke="black" points="396.41,-123.5 396.41,-153.5 532.41,-153.5 532.41,-123.5 396.41,-123.5"/>
<text text-anchor="start" x="404.41" y="-141.5" font-family="Helvetica,sans-Serif" font-size="10.00">Simple&#45;Utility/functional</text>
<text text-anchor="middle" x="464.41" y="-130.5" font-family="Helvetica,sans-Serif" font-size="10.00">/base.hpp</text>
</a>
</g>
</g>
<!-- Node1&#45;&gt;Node3 -->
<g id="edge32" class="edge">
<title>Node1&#45;&gt;Node3</title>
<path fill="none" stroke="midnightblue" d="M579.3,-482.45C411.38,-478.07 12.41,-455.56 12.41,-340.5 12.41,-340.5 12.41,-340.5 12.41,-271.5 12.41,-258.69 -52.87,-262.44 119.41,-190 205.84,-153.66 313.97,-142.81 385.91,-139.9"/>
<polygon fill="midnightblue" stroke="midnightblue" points="386.38,-143.39 396.25,-139.53 386.13,-136.39 386.38,-143.39"/>
</g>
<!-- Node14 -->
<g id="node14" class="node">
<title>Node14</title>
<g id="a_node14"><a xlink:href="../../df/d80/conjunction_8hpp.html" target="_top" xlink:title=" ">
<polygon fill="white" stroke="black" points="550.41,-190.5 550.41,-220.5 696.41,-220.5 696.41,-190.5 550.41,-190.5"/>
<text text-anchor="start" x="558.41" y="-208.5" font-family="Helvetica,sans-Serif" font-size="10.00">Simple&#45;Utility/functional</text>
<text text-anchor="middle" x="623.41" y="-197.5" font-family="Helvetica,sans-Serif" font-size="10.00">/operators/conjunction.hpp</text>
</a>
</g>
</g>
<!-- Node1&#45;&gt;Node14 -->
<g id="edge19" class="edge">
<title>Node1&#45;&gt;Node14</title>
<path fill="none" stroke="midnightblue" d="M579.15,-476.89C542.84,-469.48 502.02,-454.03 479.41,-422 471.46,-410.74 474.93,-404.03 479.41,-391 492.14,-353.99 567.26,-268.19 603.66,-228"/>
<polygon fill="midnightblue" stroke="midnightblue" points="606.25,-230.35 610.39,-220.6 601.08,-225.64 606.25,-230.35"/>
</g>
<!-- Node15 -->
<g id="node15" class="node">
<title>Node15</title>
<g id="a_node15"><a xlink:href="../../d4/d7c/disjunction_8hpp.html" target="_top" xlink:title=" ">
<polygon fill="white" stroke="black" points="194.91,-257.5 194.91,-287.5 337.91,-287.5 337.91,-257.5 194.91,-257.5"/>
<text text-anchor="start" x="202.91" y="-275.5" font-family="Helvetica,sans-Serif" font-size="10.00">Simple&#45;Utility/functional</text>
<text text-anchor="middle" x="266.41" y="-264.5" font-family="Helvetica,sans-Serif" font-size="10.00">/operators/disjunction.hpp</text>
</a>
</g>
</g>
<!-- Node1&#45;&gt;Node15 -->
<g id="edge22" class="edge">
<title>Node1&#45;&gt;Node15</title>
<path fill="none" stroke="midnightblue" d="M579.28,-471.79C533.54,-462.52 474.42,-446.9 426.41,-422 365.26,-390.29 310.29,-328.75 283.54,-295.72"/>
<polygon fill="midnightblue" stroke="midnightblue" points="286.04,-293.23 277.07,-287.59 280.56,-297.6 286.04,-293.23"/>
</g>
<!-- Node16 -->
<g id="node16" class="node">
<title>Node16</title>
<g id="a_node16"><a xlink:href="../../d8/dea/negation_8hpp.html" target="_top" xlink:title=" ">
<polygon fill="white" stroke="black" points="40.41,-257.5 40.41,-287.5 176.41,-287.5 176.41,-257.5 40.41,-257.5"/>
<text text-anchor="start" x="48.41" y="-275.5" font-family="Helvetica,sans-Serif" font-size="10.00">Simple&#45;Utility/functional</text>
<text text-anchor="middle" x="108.41" y="-264.5" font-family="Helvetica,sans-Serif" font-size="10.00">/operators/negation.hpp</text>
</a>
</g>
</g>
<!-- Node1&#45;&gt;Node16 -->
<g id="edge25" class="edge">
<title>Node1&#45;&gt;Node16</title>
<path fill="none" stroke="midnightblue" d="M579.28,-473.08C522.67,-463.63 442.96,-447.25 376.41,-422 284.36,-387.08 185.34,-325.04 137.53,-293.34"/>
<polygon fill="midnightblue" stroke="midnightblue" points="139.2,-290.25 128.94,-287.6 135.31,-296.07 139.2,-290.25"/>
</g>
<!-- Node17 -->
<g id="node17" class="node">
<title>Node17</title>
<g id="a_node17"><a xlink:href="../../d5/db7/pipe_8hpp.html" target="_top" xlink:title=" ">
<polygon fill="white" stroke="black" points="714.41,-190.5 714.41,-220.5 850.41,-220.5 850.41,-190.5 714.41,-190.5"/>
<text text-anchor="start" x="722.41" y="-208.5" font-family="Helvetica,sans-Serif" font-size="10.00">Simple&#45;Utility/functional</text>
<text text-anchor="middle" x="782.41" y="-197.5" font-family="Helvetica,sans-Serif" font-size="10.00">/operators/pipe.hpp</text>
</a>
</g>
</g>
<!-- Node1&#45;&gt;Node17 -->
<g id="edge31" class="edge">
<title>Node1&#45;&gt;Node17</title>
<path fill="none" stroke="midnightblue" d="M652.67,-458.44C654.35,-413.68 663.52,-318.88 709.41,-257 718.66,-244.53 731.93,-234.05 744.63,-225.93"/>
<polygon fill="midnightblue" stroke="midnightblue" points="746.54,-228.87 753.28,-220.69 742.91,-222.88 746.54,-228.87"/>
</g>
<!-- Node18 -->
<g id="node18" class="node">
<title>Node18</title>
<g id="a_node18"><a xlink:href="../../d2/d7e/predicate_8hpp.html" target="_top" xlink:title=" ">
<polygon fill="white" stroke="black" points="354.41,-324.5 354.41,-354.5 490.41,-354.5 490.41,-324.5 354.41,-324.5"/>
<text text-anchor="start" x="362.41" y="-342.5" font-family="Helvetica,sans-Serif" font-size="10.00">Simple&#45;Utility/functional</text>
<text text-anchor="middle" x="422.41" y="-331.5" font-family="Helvetica,sans-Serif" font-size="10.00">/predicate.hpp</text>
</a>
</g>
</g>
<!-- Node1&#45;&gt;Node18 -->
<g id="edge33" class="edge">
<title>Node1&#45;&gt;Node18</title>
<path fill="none" stroke="midnightblue" d="M579.21,-478.83C535.27,-472.28 481.31,-457.03 446.41,-422 431.34,-406.87 425.64,-382.79 423.53,-364.72"/>
<polygon fill="midnightblue" stroke="midnightblue" points="427,-364.29 422.64,-354.63 420.03,-364.9 427,-364.29"/>
</g>
<!-- Node21 -->
<g id="node21" class="node">
<title>Node21</title>
<g id="a_node21"><a xlink:href="../../d6/deb/transform_8hpp.html" target="_top" xlink:title=" ">
<polygon fill="white" stroke="black" points="718.41,-257.5 718.41,-287.5 854.41,-287.5 854.41,-257.5 718.41,-257.5"/>
<text text-anchor="start" x="726.41" y="-275.5" font-family="Helvetica,sans-Serif" font-size="10.00">Simple&#45;Utility/functional</text>
<text text-anchor="middle" x="786.41" y="-264.5" font-family="Helvetica,sans-Serif" font-size="10.00">/transform.hpp</text>
</a>
</g>
</g>
<!-- Node1&#45;&gt;Node21 -->
<g id="edge46" class="edge">
<title>Node1&#45;&gt;Node21</title>
<path fill="none" stroke="midnightblue" d="M659.25,-458.43C670.31,-419.15 692.59,-345.37 709.41,-324 719.47,-311.22 733.69,-300.62 747.18,-292.49"/>
<polygon fill="midnightblue" stroke="midnightblue" points="748.94,-295.51 755.88,-287.51 745.47,-289.44 748.94,-295.51"/>
</g>
<!-- Node22 -->
<g id="node22" class="node">
<title>Node22</title>
<g id="a_node22"><a xlink:href="../../da/df1/overloaded_8hpp.html" target="_top" xlink:title=" ">
<polygon fill="white" stroke="black" points="986.41,-391.5 986.41,-421.5 1122.41,-421.5 1122.41,-391.5 986.41,-391.5"/>
<text text-anchor="start" x="994.41" y="-409.5" font-family="Helvetica,sans-Serif" font-size="10.00">Simple&#45;Utility/functional</text>
<text text-anchor="middle" x="1054.41" y="-398.5" font-family="Helvetica,sans-Serif" font-size="10.00">/overloaded.hpp</text>
</a>
</g>
</g>
<!-- Node1&#45;&gt;Node22 -->
<g id="edge51" class="edge">
<title>Node1&#45;&gt;Node22</title>
<path fill="none" stroke="midnightblue" d="M725.67,-469.65C796.62,-456.24 903.81,-435.97 976.34,-422.26"/>
<polygon fill="midnightblue" stroke="midnightblue" points="977.16,-425.67 986.34,-420.37 975.86,-418.79 977.16,-425.67"/>
</g>
<!-- Node23 -->
<g id="node23" class="node">
<title>Node23</title>
<g id="a_node23"><a xlink:href="../../d3/d23/arithmetic_8hpp.html" target="_top" xlink:title=" ">
<polygon fill="white" stroke="black" points="718.41,-324.5 718.41,-354.5 854.41,-354.5 854.41,-324.5 718.41,-324.5"/>
<text text-anchor="start" x="726.41" y="-342.5" font-family="Helvetica,sans-Serif" font-size="10.00">Simple&#45;Utility/functional</text>
<text text-anchor="middle" x="786.41" y="-331.5" font-family="Helvetica,sans-Serif" font-size="10.00">/arithmetic.hpp</text>
</a>
</g>
</g>
<!-- Node1&#45;&gt;Node23 -->
<g id="edge52" class="edge">
<title>Node1&#45;&gt;Node23</title>
<path fill="none" stroke="midnightblue" d="M676.06,-458.26C701.66,-430.94 742.06,-387.83 766.22,-362.04"/>
<polygon fill="midnightblue" stroke="midnightblue" points="768.88,-364.32 773.17,-354.63 763.77,-359.54 768.88,-364.32"/>
</g>
<!-- Node25 -->
<g id="node25" class="node">
<title>Node25</title>
<g id="a_node25"><a xlink:href="../../dd/d3f/compare_8hpp.html" target="_top" xlink:title=" ">
<polygon fill="white" stroke="black" points="488.41,-391.5 488.41,-421.5 624.41,-421.5 624.41,-391.5 488.41,-391.5"/>
<text text-anchor="start" x="496.41" y="-409.5" font-family="Helvetica,sans-Serif" font-size="10.00">Simple&#45;Utility/functional</text>
<text text-anchor="middle" x="556.41" y="-398.5" font-family="Helvetica,sans-Serif" font-size="10.00">/compare.hpp</text>
</a>
</g>
</g>
<!-- Node1&#45;&gt;Node25 -->
<g id="edge56" class="edge">
<title>Node1&#45;&gt;Node25</title>
<path fill="none" stroke="midnightblue" d="M620.71,-458.4C608.32,-448.59 594.28,-437.48 582.49,-428.14"/>
<polygon fill="midnightblue" stroke="midnightblue" points="584.37,-425.17 574.35,-421.71 580.02,-430.66 584.37,-425.17"/>
</g>
<!-- Node26 -->
<g id="node26" class="node">
<title>Node26</title>
<g id="a_node26"><a xlink:href="../../d9/d5f/functional_2tuple_8hpp.html" target="_top" xlink:title=" ">
<polygon fill="white" stroke="black" points="1116.41,-324.5 1116.41,-354.5 1252.41,-354.5 1252.41,-324.5 1116.41,-324.5"/>
<text text-anchor="start" x="1124.41" y="-342.5" font-family="Helvetica,sans-Serif" font-size="10.00">Simple&#45;Utility/functional</text>
<text text-anchor="middle" x="1184.41" y="-331.5" font-family="Helvetica,sans-Serif" font-size="10.00">/tuple.hpp</text>
</a>
</g>
</g>
<!-- Node1&#45;&gt;Node26 -->
<g id="edge59" class="edge">
<title>Node1&#45;&gt;Node26</title>
<path fill="none" stroke="midnightblue" d="M725.51,-475.04C783.18,-466.58 864.74,-450.58 931.41,-422 954.07,-412.29 954.86,-400.97 977.41,-391 1018.27,-372.94 1066.64,-360.68 1106.35,-352.77"/>
<polygon fill="midnightblue" stroke="midnightblue" points="1107.1,-356.19 1116.25,-350.85 1105.77,-349.32 1107.1,-356.19"/>
</g>
<!-- Node27 -->
<g id="node27" class="node">
<title>Node27</title>
<g id="a_node27"><a xlink:href="../../df/d4e/functional_2utility_8hpp.html" target="_top" xlink:title=" ">
<polygon fill="white" stroke="black" points="936.41,-324.5 936.41,-354.5 1072.41,-354.5 1072.41,-324.5 936.41,-324.5"/>
<text text-anchor="start" x="944.41" y="-342.5" font-family="Helvetica,sans-Serif" font-size="10.00">Simple&#45;Utility/functional</text>
<text text-anchor="middle" x="1004.41" y="-331.5" font-family="Helvetica,sans-Serif" font-size="10.00">/utility.hpp</text>
</a>
</g>
</g>
<!-- Node1&#45;&gt;Node27 -->
<g id="edge64" class="edge">
<title>Node1&#45;&gt;Node27</title>
<path fill="none" stroke="midnightblue" d="M725.48,-472.95C775.38,-463.88 842.04,-448.04 896.41,-422 913.8,-413.67 953.33,-382.49 979.43,-361.2"/>
<polygon fill="midnightblue" stroke="midnightblue" points="981.87,-363.72 987.39,-354.68 977.43,-358.31 981.87,-363.72"/>
</g>
<!-- Node2&#45;&gt;Node3 -->
<g id="edge2" class="edge">
<title>Node2&#45;&gt;Node3</title>
<path fill="none" stroke="midnightblue" d="M906,-192.1C901.4,-191.36 896.84,-190.65 892.41,-190 770.77,-172.09 628.95,-156.36 542.97,-147.4"/>
<polygon fill="midnightblue" stroke="midnightblue" points="543.07,-143.89 532.77,-146.34 542.35,-150.85 543.07,-143.89"/>
</g>
<!-- Node11 -->
<g id="node11" class="node">
<title>Node11</title>
<g id="a_node11"><a xlink:href="../../d2/d30/general_8hpp.html" target="_top" xlink:title=" ">
<polygon fill="white" stroke="black" points="1006.41,-123.5 1006.41,-153.5 1118.41,-153.5 1118.41,-123.5 1006.41,-123.5"/>
<text text-anchor="start" x="1014.41" y="-141.5" font-family="Helvetica,sans-Serif" font-size="10.00">Simple&#45;Utility/tuple</text>
<text text-anchor="middle" x="1062.41" y="-130.5" font-family="Helvetica,sans-Serif" font-size="10.00">/general.hpp</text>
</a>
</g>
</g>
<!-- Node2&#45;&gt;Node11 -->
<g id="edge14" class="edge">
<title>Node2&#45;&gt;Node11</title>
<path fill="none" stroke="midnightblue" d="M993.5,-190.4C1005.73,-181.37 1021.77,-169.51 1035.31,-159.52"/>
<polygon fill="midnightblue" stroke="midnightblue" points="1037.39,-162.33 1043.35,-153.58 1033.23,-156.7 1037.39,-162.33"/>
</g>
<!-- Node4 -->
<g id="node4" class="node">
<title>Node4</title>
<g id="a_node4"><a xlink:title=" ">
<polygon fill="white" stroke="#bfbfbf" points="830.41,-0.5 830.41,-19.5 890.41,-19.5 890.41,-0.5 830.41,-0.5"/>
<text text-anchor="middle" x="860.41" y="-7.5" font-family="Helvetica,sans-Serif" font-size="10.00">concepts</text>
</a>
</g>
</g>
<!-- Node3&#45;&gt;Node4 -->
<g id="edge3" class="edge">
<title>Node3&#45;&gt;Node4</title>
<path fill="none" stroke="midnightblue" d="M532.85,-128.65C574.95,-121.38 629.13,-108.63 673.41,-87 693.3,-77.28 692.8,-66.29 712.41,-56 746.8,-37.94 789.58,-25.93 820.29,-18.89"/>
<polygon fill="midnightblue" stroke="midnightblue" points="821.2,-22.27 830.21,-16.69 819.69,-15.44 821.2,-22.27"/>
</g>
<!-- Node5 -->
<g id="node5" class="node">
<title>Node5</title>
<g id="a_node5"><a xlink:title=" ">
<polygon fill="white" stroke="#bfbfbf" points="146.91,-62 146.91,-81 211.91,-81 211.91,-62 146.91,-62"/>
<text text-anchor="middle" x="179.41" y="-69" font-family="Helvetica,sans-Serif" font-size="10.00">functional</text>
</a>
</g>
</g>
<!-- Node3&#45;&gt;Node5 -->
<g id="edge4" class="edge">
<title>Node3&#45;&gt;Node5</title>
<path fill="none" stroke="midnightblue" d="M402.92,-123.48C348.34,-111.03 270.02,-93.17 222.05,-82.23"/>
<polygon fill="midnightblue" stroke="midnightblue" points="222.54,-78.75 212.01,-79.93 220.98,-85.57 222.54,-78.75"/>
</g>
<!-- Node6 -->
<g id="node6" class="node">
<title>Node6</title>
<g id="a_node6"><a xlink:title=" ">
<polygon fill="white" stroke="#bfbfbf" points="569.91,-0.5 569.91,-19.5 638.91,-19.5 638.91,-0.5 569.91,-0.5"/>
<text text-anchor="middle" x="604.41" y="-7.5" font-family="Helvetica,sans-Serif" font-size="10.00">type_traits</text>
</a>
</g>
</g>
<!-- Node3&#45;&gt;Node6 -->
<g id="edge5" class="edge">
<title>Node3&#45;&gt;Node6</title>
<path fill="none" stroke="midnightblue" d="M421.6,-123.42C404.72,-115.52 387.08,-103.8 377.41,-87 370.53,-75.06 368.66,-66.65 377.41,-56 399.96,-28.54 499.72,-17.54 559.22,-13.37"/>
<polygon fill="midnightblue" stroke="midnightblue" points="559.74,-16.84 569.48,-12.69 559.27,-9.86 559.74,-16.84"/>
</g>
<!-- Node7 -->
<g id="node7" class="node">
<title>Node7</title>
<g id="a_node7"><a xlink:href="../../d8/dd2/_config_8hpp.html" target="_top" xlink:title=" ">
<polygon fill="white" stroke="black" points="386.91,-62 386.91,-81 525.91,-81 525.91,-62 386.91,-62"/>
<text text-anchor="middle" x="456.41" y="-69" font-family="Helvetica,sans-Serif" font-size="10.00">Simple&#45;Utility/Config.hpp</text>
</a>
</g>
</g>
<!-- Node3&#45;&gt;Node7 -->
<g id="edge6" class="edge">
<title>Node3&#45;&gt;Node7</title>
<path fill="none" stroke="midnightblue" d="M462.67,-123.4C461.51,-113.96 459.97,-101.45 458.71,-91.19"/>
<polygon fill="midnightblue" stroke="midnightblue" points="462.17,-90.69 457.48,-81.19 455.23,-91.55 462.17,-90.69"/>
</g>
<!-- Node8 -->
<g id="node8" class="node">
<title>Node8</title>
<g id="a_node8"><a xlink:href="../../d4/d1c/unified__base_8hpp.html" target="_top" xlink:title=" ">
<polygon fill="white" stroke="black" points="544.41,-56.5 544.41,-86.5 664.41,-86.5 664.41,-56.5 544.41,-56.5"/>
<text text-anchor="start" x="552.41" y="-74.5" font-family="Helvetica,sans-Serif" font-size="10.00">Simple&#45;Utility/unified</text>
<text text-anchor="middle" x="604.41" y="-63.5" font-family="Helvetica,sans-Serif" font-size="10.00">_base.hpp</text>
</a>
</g>
</g>
<!-- Node3&#45;&gt;Node8 -->
<g id="edge7" class="edge">
<title>Node3&#45;&gt;Node8</title>
<path fill="none" stroke="midnightblue" d="M494.79,-123.4C515.33,-113.86 542.67,-101.16 564.91,-90.84"/>
<polygon fill="midnightblue" stroke="midnightblue" points="566.49,-93.96 574.09,-86.58 563.55,-87.61 566.49,-93.96"/>
</g>
<!-- Node9 -->
<g id="node9" class="node">
<title>Node9</title>
<g id="a_node9"><a xlink:href="../../dd/d5c/stl__extensions_8hpp.html" target="_top" xlink:title=" ">
<polygon fill="white" stroke="black" points="720.91,-56.5 720.91,-86.5 851.91,-86.5 851.91,-56.5 720.91,-56.5"/>
<text text-anchor="start" x="728.91" y="-74.5" font-family="Helvetica,sans-Serif" font-size="10.00">Simple&#45;Utility/concepts</text>
<text text-anchor="middle" x="786.41" y="-63.5" font-family="Helvetica,sans-Serif" font-size="10.00">/stl_extensions.hpp</text>
</a>
</g>
</g>
<!-- Node3&#45;&gt;Node9 -->
<g id="edge10" class="edge">
<title>Node3&#45;&gt;Node9</title>
<path fill="none" stroke="midnightblue" d="M532.7,-123.72C584.92,-113.17 656.89,-98.65 710.84,-87.75"/>
<polygon fill="midnightblue" stroke="midnightblue" points="711.59,-91.17 720.7,-85.77 710.2,-84.31 711.59,-91.17"/>
</g>
<!-- Node10 -->
<g id="node10" class="node">
<title>Node10</title>
<g id="a_node10"><a xlink:href="../../d5/d8e/concepts_2utility_8hpp.html" target="_top" xlink:title=" ">
<polygon fill="white" stroke="black" points="869.91,-56.5 869.91,-86.5 1000.91,-86.5 1000.91,-56.5 869.91,-56.5"/>
<text text-anchor="start" x="877.91" y="-74.5" font-family="Helvetica,sans-Serif" font-size="10.00">Simple&#45;Utility/concepts</text>
<text text-anchor="middle" x="935.41" y="-63.5" font-family="Helvetica,sans-Serif" font-size="10.00">/utility.hpp</text>
</a>
</g>
</g>
<!-- Node3&#45;&gt;Node10 -->
<g id="edge12" class="edge">
<title>Node3&#45;&gt;Node10</title>
<path fill="none" stroke="midnightblue" d="M532.75,-130.21C609.85,-121.68 739.2,-106.41 859.55,-87.24"/>
<polygon fill="midnightblue" stroke="midnightblue" points="860.36,-90.66 869.68,-85.62 859.25,-83.75 860.36,-90.66"/>
</g>
<!-- Node8&#45;&gt;Node4 -->
<g id="edge8" class="edge">
<title>Node8&#45;&gt;Node4</title>
<path fill="none" stroke="midnightblue" d="M664.43,-56.55C712.49,-45.38 778.56,-30.02 820.37,-20.31"/>
<polygon fill="midnightblue" stroke="midnightblue" points="821.25,-23.7 830.19,-18.02 819.66,-16.88 821.25,-23.7"/>
</g>
<!-- Node8&#45;&gt;Node6 -->
<g id="edge9" class="edge">
<title>Node8&#45;&gt;Node6</title>
<path fill="none" stroke="midnightblue" d="M604.41,-56.4C604.41,-48.47 604.41,-38.46 604.41,-29.86"/>
<polygon fill="midnightblue" stroke="midnightblue" points="607.91,-29.66 604.41,-19.66 600.91,-29.66 607.91,-29.66"/>
</g>
<!-- Node9&#45;&gt;Node4 -->
<g id="edge11" class="edge">
<title>Node9&#45;&gt;Node4</title>
<path fill="none" stroke="midnightblue" d="M803.95,-56.4C815.25,-47.31 829.95,-35.49 841.52,-26.19"/>
<polygon fill="midnightblue" stroke="midnightblue" points="844.04,-28.65 849.64,-19.66 839.65,-23.2 844.04,-28.65"/>
</g>
<!-- Node10&#45;&gt;Node4 -->
<g id="edge13" class="edge">
<title>Node10&#45;&gt;Node4</title>
<path fill="none" stroke="midnightblue" d="M917.63,-56.4C906.06,-47.22 890.99,-35.26 879.21,-25.92"/>
<polygon fill="midnightblue" stroke="midnightblue" points="881.33,-23.13 871.32,-19.66 876.98,-28.61 881.33,-23.13"/>
</g>
<!-- Node11&#45;&gt;Node4 -->
<g id="edge15" class="edge">
<title>Node11&#45;&gt;Node4</title>
<path fill="none" stroke="midnightblue" d="M1063.28,-123.31C1063.57,-105.17 1061.18,-73.98 1043.41,-56 1023.7,-36.05 948.33,-22.64 900.68,-15.96"/>
<polygon fill="midnightblue" stroke="midnightblue" points="901.05,-12.48 890.67,-14.6 900.11,-19.41 901.05,-12.48"/>
</g>
<!-- Node11&#45;&gt;Node6 -->
<g id="edge17" class="edge">
<title>Node11&#45;&gt;Node6</title>
<path fill="none" stroke="midnightblue" d="M1057.82,-123.49C1050.83,-104.65 1035.63,-71.7 1010.41,-56 980.24,-37.23 748.49,-20.27 649.26,-13.79"/>
<polygon fill="midnightblue" stroke="midnightblue" points="649.45,-10.29 639.24,-13.14 648.99,-17.28 649.45,-10.29"/>
</g>
<!-- Node12 -->
<g id="node12" class="node">
<title>Node12</title>
<g id="a_node12"><a xlink:title=" ">
<polygon fill="white" stroke="#bfbfbf" points="1102.91,-62 1102.91,-81 1143.91,-81 1143.91,-62 1102.91,-62"/>
<text text-anchor="middle" x="1123.41" y="-69" font-family="Helvetica,sans-Serif" font-size="10.00">tuple</text>
</a>
</g>
</g>
<!-- Node11&#45;&gt;Node12 -->
<g id="edge16" class="edge">
<title>Node11&#45;&gt;Node12</title>
<path fill="none" stroke="midnightblue" d="M1075.64,-123.4C1085.25,-113.16 1098.26,-99.3 1108.28,-88.62"/>
<polygon fill="midnightblue" stroke="midnightblue" points="1110.96,-90.88 1115.25,-81.19 1105.85,-86.09 1110.96,-90.88"/>
</g>
<!-- Node13 -->
<g id="node13" class="node">
<title>Node13</title>
<g id="a_node13"><a xlink:title=" ">
<polygon fill="white" stroke="#bfbfbf" points="1212.91,-62 1212.91,-81 1257.91,-81 1257.91,-62 1212.91,-62"/>
<text text-anchor="middle" x="1235.41" y="-69" font-family="Helvetica,sans-Serif" font-size="10.00">utility</text>
</a>
</g>
</g>
<!-- Node11&#45;&gt;Node13 -->
<g id="edge18" class="edge">
<title>Node11&#45;&gt;Node13</title>
<path fill="none" stroke="midnightblue" d="M1099.95,-123.4C1130.7,-111.84 1173.78,-95.66 1203.04,-84.66"/>
<polygon fill="midnightblue" stroke="midnightblue" points="1204.64,-87.8 1212.77,-81.01 1202.17,-81.25 1204.64,-87.8"/>
</g>
<!-- Node14&#45;&gt;Node3 -->
<g id="edge21" class="edge">
<title>Node14&#45;&gt;Node3</title>
<path fill="none" stroke="midnightblue" d="M588.91,-190.4C565.26,-180.73 533.69,-167.82 508.26,-157.43"/>
<polygon fill="midnightblue" stroke="midnightblue" points="509.42,-154.12 498.84,-153.58 506.77,-160.6 509.42,-154.12"/>
</g>
<!-- Node14&#45;&gt;Node10 -->
<g id="edge20" class="edge">
<title>Node14&#45;&gt;Node10</title>
<path fill="none" stroke="midnightblue" d="M696.72,-191.51C699.66,-191 702.56,-190.49 705.41,-190 752.27,-181.86 881.78,-186.61 916.41,-154 931.81,-139.5 935.84,-115.13 936.45,-96.8"/>
<polygon fill="midnightblue" stroke="midnightblue" points="939.95,-96.59 936.47,-86.58 932.95,-96.57 939.95,-96.59"/>
</g>
<!-- Node15&#45;&gt;Node3 -->
<g id="edge24" class="edge">
<title>Node15&#45;&gt;Node3</title>
<path fill="none" stroke="midnightblue" d="M219.7,-257.4C179.7,-242.96 132.1,-218.62 156.41,-190 185.3,-155.99 304.51,-144.84 385.86,-141.21"/>
<polygon fill="midnightblue" stroke="midnightblue" points="386.23,-144.7 396.08,-140.78 385.94,-137.7 386.23,-144.7"/>
</g>
<!-- Node15&#45;&gt;Node10 -->
<g id="edge23" class="edge">
<title>Node15&#45;&gt;Node10</title>
<path fill="none" stroke="midnightblue" d="M291.68,-257.34C308.42,-247.67 330.68,-234.24 349.41,-221 367.21,-208.42 367.47,-198.8 387.41,-190 487.29,-145.91 523.5,-176.13 630.41,-154 718.49,-135.77 818.99,-107.42 879.78,-89.42"/>
<polygon fill="midnightblue" stroke="midnightblue" points="880.97,-92.71 889.55,-86.51 878.97,-86 880.97,-92.71"/>
</g>
<!-- Node16&#45;&gt;Node3 -->
<g id="edge26" class="edge">
<title>Node16&#45;&gt;Node3</title>
<path fill="none" stroke="midnightblue" d="M110.79,-257.44C114.74,-238.86 124.47,-206.54 146.41,-190 183.17,-162.29 304.26,-149.33 385.95,-143.61"/>
<polygon fill="midnightblue" stroke="midnightblue" points="386.47,-147.09 396.21,-142.92 385.99,-140.1 386.47,-147.09"/>
</g>
<!-- Node16&#45;&gt;Node5 -->
<g id="edge30" class="edge">
<title>Node16&#45;&gt;Node5</title>
<path fill="none" stroke="midnightblue" d="M108.88,-257.35C109.75,-240.84 112.25,-212.89 119.41,-190 131.2,-152.3 154.34,-112.06 168.18,-89.82"/>
<polygon fill="midnightblue" stroke="midnightblue" points="171.25,-91.52 173.65,-81.2 165.34,-87.77 171.25,-91.52"/>
</g>
<!-- Node16&#45;&gt;Node17 -->
<g id="edge27" class="edge">
<title>Node16&#45;&gt;Node17</title>
<path fill="none" stroke="midnightblue" d="M176.78,-258.2C179.69,-257.77 182.58,-257.36 185.41,-257 411.94,-227.93 473.88,-249.85 704.02,-221.08"/>
<polygon fill="midnightblue" stroke="midnightblue" points="704.56,-224.53 714.04,-219.8 703.68,-217.59 704.56,-224.53"/>
</g>
<!-- Node17&#45;&gt;Node3 -->
<g id="edge28" class="edge">
<title>Node17&#45;&gt;Node3</title>
<path fill="none" stroke="midnightblue" d="M714.19,-190.56C663.78,-180.25 595.07,-166.21 542.47,-155.46"/>
<polygon fill="midnightblue" stroke="midnightblue" points="543.01,-151.99 532.51,-153.42 541.61,-158.85 543.01,-151.99"/>
</g>
<!-- Node17&#45;&gt;Node11 -->
<g id="edge29" class="edge">
<title>Node17&#45;&gt;Node11</title>
<path fill="none" stroke="midnightblue" d="M842.82,-190.48C888.05,-179.98 949.88,-165.62 996.41,-154.82"/>
<polygon fill="midnightblue" stroke="midnightblue" points="997.44,-158.17 1006.39,-152.5 995.86,-151.36 997.44,-158.17"/>
</g>
<!-- Node18&#45;&gt;Node2 -->
<g id="edge35" class="edge">
<title>Node18&#45;&gt;Node2</title>
<path fill="none" stroke="midnightblue" d="M477.28,-324.4C514.86,-314.58 565.79,-300.97 610.41,-288 654.68,-275.13 664.69,-268.22 709.41,-257 771.61,-241.39 843.08,-228.03 896.12,-218.98"/>
<polygon fill="midnightblue" stroke="midnightblue" points="896.86,-222.41 906.13,-217.29 895.69,-215.5 896.86,-222.41"/>
</g>
<!-- Node18&#45;&gt;Node3 -->
<g id="edge34" class="edge">
<title>Node18&#45;&gt;Node3</title>
<path fill="none" stroke="midnightblue" d="M410.85,-324.21C393.64,-303.28 361.66,-265.79 346.41,-257 280.68,-219.12 140.85,-248.29 189.41,-190 214.08,-160.39 313.94,-148.08 386.22,-143.01"/>
<polygon fill="midnightblue" stroke="midnightblue" points="386.49,-146.5 396.23,-142.34 386.02,-139.51 386.49,-146.5"/>
</g>
<!-- Node18&#45;&gt;Node14 -->
<g id="edge36" class="edge">
<title>Node18&#45;&gt;Node14</title>
<path fill="none" stroke="midnightblue" d="M433.59,-324.46C448.27,-306.78 475.59,-276.37 504.41,-257 524.44,-243.54 548.64,-232.47 569.97,-224.17"/>
<polygon fill="midnightblue" stroke="midnightblue" points="571.43,-227.36 579.54,-220.55 568.95,-220.81 571.43,-227.36"/>
</g>
<!-- Node18&#45;&gt;Node15 -->
<g id="edge37" class="edge">
<title>Node18&#45;&gt;Node15</title>
<path fill="none" stroke="midnightblue" d="M388.56,-324.4C365.36,-314.73 334.38,-301.82 309.43,-291.43"/>
<polygon fill="midnightblue" stroke="midnightblue" points="310.77,-288.19 300.19,-287.58 308.08,-294.65 310.77,-288.19"/>
</g>
<!-- Node18&#45;&gt;Node16 -->
<g id="edge44" class="edge">
<title>Node18&#45;&gt;Node16</title>
<path fill="none" stroke="midnightblue" d="M354.66,-324.48C305.12,-314.22 237.82,-300.29 186.1,-289.58"/>
<polygon fill="midnightblue" stroke="midnightblue" points="186.81,-286.15 176.3,-287.55 185.39,-293.01 186.81,-286.15"/>
</g>
<!-- Node18&#45;&gt;Node17 -->
<g id="edge45" class="edge">
<title>Node18&#45;&gt;Node17</title>
<path fill="none" stroke="midnightblue" d="M459,-324.39C501.88,-307.93 575.13,-280.03 638.41,-257 669.47,-245.69 704.47,-233.41 732.18,-223.79"/>
<polygon fill="midnightblue" stroke="midnightblue" points="733.36,-227.09 741.66,-220.5 731.07,-220.47 733.36,-227.09"/>
</g>
<!-- Node19 -->
<g id="node19" class="node">
<title>Node19</title>
<g id="a_node19"><a xlink:href="../../dc/d0a/equal_8hpp.html" target="_top" xlink:title=" ">
<polygon fill="white" stroke="black" points="396.41,-190.5 396.41,-220.5 532.41,-220.5 532.41,-190.5 396.41,-190.5"/>
<text text-anchor="start" x="404.41" y="-208.5" font-family="Helvetica,sans-Serif" font-size="10.00">Simple&#45;Utility/functional</text>
<text text-anchor="middle" x="464.41" y="-197.5" font-family="Helvetica,sans-Serif" font-size="10.00">/operators/equal.hpp</text>
</a>
</g>
</g>
<!-- Node18&#45;&gt;Node19 -->
<g id="edge38" class="edge">
<title>Node18&#45;&gt;Node19</title>
<path fill="none" stroke="midnightblue" d="M426.9,-324.37C434.07,-301.85 448.17,-257.53 456.89,-230.12"/>
<polygon fill="midnightblue" stroke="midnightblue" points="460.25,-231.12 459.95,-220.52 453.58,-228.99 460.25,-231.12"/>
</g>
<!-- Node20 -->
<g id="node20" class="node">
<title>Node20</title>
<g id="a_node20"><a xlink:href="../../d7/dd0/equivalent_8hpp.html" target="_top" xlink:title=" ">
<polygon fill="white" stroke="black" points="198.41,-190.5 198.41,-220.5 340.41,-220.5 340.41,-190.5 198.41,-190.5"/>
<text text-anchor="start" x="206.41" y="-208.5" font-family="Helvetica,sans-Serif" font-size="10.00">Simple&#45;Utility/functional</text>
<text text-anchor="middle" x="269.41" y="-197.5" font-family="Helvetica,sans-Serif" font-size="10.00">/operators/equivalent.hpp</text>
</a>
</g>
</g>
<!-- Node18&#45;&gt;Node20 -->
<g id="edge41" class="edge">
<title>Node18&#45;&gt;Node20</title>
<path fill="none" stroke="midnightblue" d="M418.32,-324.34C412.52,-306.53 400.35,-275.99 380.41,-257 365.46,-242.76 345.79,-232.04 327.17,-224.23"/>
<polygon fill="midnightblue" stroke="midnightblue" points="328.43,-220.96 317.84,-220.51 325.84,-227.47 328.43,-220.96"/>
</g>
<!-- Node19&#45;&gt;Node3 -->
<g id="edge40" class="edge">
<title>Node19&#45;&gt;Node3</title>
<path fill="none" stroke="midnightblue" d="M464.41,-190.4C464.41,-182.64 464.41,-172.81 464.41,-163.86"/>
<polygon fill="midnightblue" stroke="midnightblue" points="467.91,-163.58 464.41,-153.58 460.91,-163.58 467.91,-163.58"/>
</g>
<!-- Node19&#45;&gt;Node10 -->
<g id="edge39" class="edge">
<title>Node19&#45;&gt;Node10</title>
<path fill="none" stroke="midnightblue" d="M532.41,-191.59C535.45,-191.04 538.46,-190.51 541.41,-190 641.62,-172.59 670.39,-184.53 767.41,-154 817.01,-138.39 870.42,-110.34 903.38,-91.57"/>
<polygon fill="midnightblue" stroke="midnightblue" points="905.2,-94.57 912.12,-86.54 901.71,-88.5 905.2,-94.57"/>
</g>
<!-- Node20&#45;&gt;Node3 -->
<g id="edge43" class="edge">
<title>Node20&#45;&gt;Node3</title>
<path fill="none" stroke="midnightblue" d="M311.72,-190.4C341.36,-180.52 381.15,-167.25 412.68,-156.74"/>
<polygon fill="midnightblue" stroke="midnightblue" points="413.8,-160.06 422.18,-153.58 411.59,-153.42 413.8,-160.06"/>
</g>
<!-- Node20&#45;&gt;Node10 -->
<g id="edge42" class="edge">
<title>Node20&#45;&gt;Node10</title>
<path fill="none" stroke="midnightblue" d="M340.5,-191.71C395.42,-181.73 473.31,-167.36 541.41,-154 652.33,-132.23 780.46,-105.42 859.72,-88.64"/>
<polygon fill="midnightblue" stroke="midnightblue" points="860.56,-92.04 869.61,-86.54 859.1,-85.19 860.56,-92.04"/>
</g>
<!-- Node21&#45;&gt;Node2 -->
<g id="edge49" class="edge">
<title>Node21&#45;&gt;Node2</title>
<path fill="none" stroke="midnightblue" d="M827.2,-257.4C855.66,-247.56 893.81,-234.37 924.14,-223.88"/>
<polygon fill="midnightblue" stroke="midnightblue" points="925.39,-227.15 933.7,-220.58 923.1,-220.54 925.39,-227.15"/>
</g>
<!-- Node21&#45;&gt;Node3 -->
<g id="edge48" class="edge">
<title>Node21&#45;&gt;Node3</title>
<path fill="none" stroke="midnightblue" d="M814.34,-257.43C842.92,-241.24 880.37,-213.81 859.41,-190 849.05,-178.24 655.17,-157.8 542.96,-146.88"/>
<polygon fill="midnightblue" stroke="midnightblue" points="542.99,-143.37 532.7,-145.88 542.32,-150.33 542.99,-143.37"/>
</g>
<!-- Node21&#45;&gt;Node8 -->
<g id="edge47" class="edge">
<title>Node21&#45;&gt;Node8</title>
<path fill="none" stroke="midnightblue" d="M854.71,-263.03C928.99,-253.12 1038.89,-236.13 1051.41,-221 1060.19,-210.38 1060.25,-200.57 1051.41,-190 1022.29,-155.2 894.39,-165.16 850.41,-154 779.68,-136.05 699.83,-108.13 650.81,-90.08"/>
<polygon fill="midnightblue" stroke="midnightblue" points="652.02,-86.8 641.43,-86.61 649.59,-93.36 652.02,-86.8"/>
</g>
<!-- Node21&#45;&gt;Node17 -->
<g id="edge50" class="edge">
<title>Node21&#45;&gt;Node17</title>
<path fill="none" stroke="midnightblue" d="M785.54,-257.4C785.06,-249.56 784.45,-239.6 783.89,-230.57"/>
<polygon fill="midnightblue" stroke="midnightblue" points="787.38,-230.34 783.27,-220.58 780.4,-230.77 787.38,-230.34"/>
</g>
<!-- Node23&#45;&gt;Node21 -->
<g id="edge55" class="edge">
<title>Node23&#45;&gt;Node21</title>
<path fill="none" stroke="midnightblue" d="M786.41,-324.4C786.41,-316.64 786.41,-306.81 786.41,-297.86"/>
<polygon fill="midnightblue" stroke="midnightblue" points="789.91,-297.58 786.41,-287.58 782.91,-297.58 789.91,-297.58"/>
</g>
<!-- Node24 -->
<g id="node24" class="node">
<title>Node24</title>
<g id="a_node24"><a xlink:href="../../dd/dcd/operators_8hpp.html" target="_top" xlink:title=" ">
<polygon fill="white" stroke="black" points="910.91,-257.5 910.91,-287.5 1041.91,-287.5 1041.91,-257.5 910.91,-257.5"/>
<text text-anchor="start" x="918.91" y="-275.5" font-family="Helvetica,sans-Serif" font-size="10.00">Simple&#45;Utility/concepts</text>
<text text-anchor="middle" x="976.41" y="-264.5" font-family="Helvetica,sans-Serif" font-size="10.00">/operators.hpp</text>
</a>
</g>
</g>
<!-- Node23&#45;&gt;Node24 -->
<g id="edge53" class="edge">
<title>Node23&#45;&gt;Node24</title>
<path fill="none" stroke="midnightblue" d="M827.64,-324.4C856.39,-314.56 894.95,-301.37 925.61,-290.88"/>
<polygon fill="midnightblue" stroke="midnightblue" points="926.93,-294.13 935.26,-287.58 924.67,-287.5 926.93,-294.13"/>
</g>
<!-- Node24&#45;&gt;Node4 -->
<g id="edge54" class="edge">
<title>Node24&#45;&gt;Node4</title>
<path fill="none" stroke="midnightblue" d="M1008.33,-257.4C1026.85,-248.4 1050.06,-235.7 1068.41,-221 1132.79,-169.42 1207.13,-118.6 1153.41,-56 1121.3,-18.59 973.16,-11.97 900.64,-11.01"/>
<polygon fill="midnightblue" stroke="midnightblue" points="900.54,-7.51 890.51,-10.9 900.47,-14.51 900.54,-7.51"/>
</g>
<!-- Node25&#45;&gt;Node18 -->
<g id="edge57" class="edge">
<title>Node25&#45;&gt;Node18</title>
<path fill="none" stroke="midnightblue" d="M527.33,-391.4C507.75,-381.9 481.73,-369.28 460.5,-358.98"/>
<polygon fill="midnightblue" stroke="midnightblue" points="461.95,-355.79 451.43,-354.58 458.9,-362.09 461.95,-355.79"/>
</g>
<!-- Node25&#45;&gt;Node21 -->
<g id="edge58" class="edge">
<title>Node25&#45;&gt;Node21</title>
<path fill="none" stroke="midnightblue" d="M575.31,-391.21C598.44,-374.07 639.12,-345.03 676.41,-324 697.58,-312.06 722.08,-300.6 742.58,-291.62"/>
<polygon fill="midnightblue" stroke="midnightblue" points="744.2,-294.73 751.98,-287.55 741.42,-288.31 744.2,-294.73"/>
</g>
<!-- Node26&#45;&gt;Node10 -->
<g id="edge60" class="edge">
<title>Node26&#45;&gt;Node10</title>
<path fill="none" stroke="midnightblue" d="M1177.83,-324.45C1170.04,-308.04 1156.47,-280.18 1143.41,-257 1126.16,-226.38 1128.91,-211.88 1101.41,-190 1063.13,-159.55 1037.02,-182.69 997.41,-154 976.07,-138.55 958.67,-113.68 947.79,-95.47"/>
<polygon fill="midnightblue" stroke="midnightblue" points="950.73,-93.57 942.71,-86.64 944.66,-97.06 950.73,-93.57"/>
</g>
<!-- Node26&#45;&gt;Node12 -->
<g id="edge63" class="edge">
<title>Node26&#45;&gt;Node12</title>
<path fill="none" stroke="midnightblue" d="M1189.51,-324.13C1192.78,-314.14 1196.72,-300.44 1198.41,-288 1204.28,-244.84 1210.62,-231.81 1198.41,-190 1186.67,-149.78 1156.5,-110.21 1138.2,-88.82"/>
<polygon fill="midnightblue" stroke="midnightblue" points="1140.62,-86.27 1131.39,-81.05 1135.36,-90.88 1140.62,-86.27"/>
</g>
<!-- Node26&#45;&gt;Node13 -->
<g id="edge62" class="edge">
<title>Node26&#45;&gt;Node13</title>
<path fill="none" stroke="midnightblue" d="M1229.59,-324.34C1246.76,-316.51 1264.54,-304.85 1274.41,-288 1312.68,-222.64 1267.78,-128.52 1245.97,-89.97"/>
<polygon fill="midnightblue" stroke="midnightblue" points="1248.81,-87.9 1240.75,-81.02 1242.77,-91.42 1248.81,-87.9"/>
</g>
<!-- Node26&#45;&gt;Node21 -->
<g id="edge61" class="edge">
<title>Node26&#45;&gt;Node21</title>
<path fill="none" stroke="midnightblue" d="M1115.99,-327.33C1046.15,-315.92 937.9,-298.24 864.69,-286.28"/>
<polygon fill="midnightblue" stroke="midnightblue" points="865.03,-282.79 854.6,-284.64 863.9,-289.7 865.03,-282.79"/>
</g>
<!-- Node27&#45;&gt;Node9 -->
<g id="edge66" class="edge">
<title>Node27&#45;&gt;Node9</title>
<path fill="none" stroke="midnightblue" d="M1072.42,-326.12C1093.62,-318.71 1114.75,-306.89 1127.41,-288 1135.08,-276.56 1132.28,-269.89 1127.41,-257 1113.39,-219.88 1101.36,-212.11 1068.41,-190 1027.79,-162.75 1009.81,-172.2 964.41,-154 915.18,-134.26 859.82,-108.3 824.11,-91.04"/>
<polygon fill="midnightblue" stroke="midnightblue" points="825.54,-87.85 815.02,-86.63 822.49,-94.15 825.54,-87.85"/>
</g>
<!-- Node27&#45;&gt;Node13 -->
<g id="edge69" class="edge">
<title>Node27&#45;&gt;Node13</title>
<path fill="none" stroke="midnightblue" d="M1072.72,-325.64C1097.44,-318.13 1124.02,-306.35 1143.41,-288 1202.28,-232.28 1225.24,-132.74 1232.53,-91.35"/>
<polygon fill="midnightblue" stroke="midnightblue" points="1236.01,-91.74 1234.19,-81.31 1229.11,-90.6 1236.01,-91.74"/>
</g>
<!-- Node27&#45;&gt;Node21 -->
<g id="edge67" class="edge">
<title>Node27&#45;&gt;Node21</title>
<path fill="none" stroke="midnightblue" d="M957.37,-324.48C923.97,-314.51 878.93,-301.09 843.47,-290.51"/>
<polygon fill="midnightblue" stroke="midnightblue" points="844.32,-287.11 833.73,-287.61 842.32,-293.82 844.32,-287.11"/>
</g>
<!-- Node27&#45;&gt;Node24 -->
<g id="edge65" class="edge">
<title>Node27&#45;&gt;Node24</title>
<path fill="none" stroke="midnightblue" d="M998.33,-324.4C994.88,-316.39 990.48,-306.16 986.52,-296.98"/>
<polygon fill="midnightblue" stroke="midnightblue" points="989.64,-295.38 982.47,-287.58 983.21,-298.15 989.64,-295.38"/>
</g>
<!-- Node28 -->
<g id="node28" class="node">
<title>Node28</title>
<g id="a_node28"><a xlink:title=" ">
<polygon fill="white" stroke="#bfbfbf" points="1060.41,-263 1060.41,-282 1118.41,-282 1118.41,-263 1060.41,-263"/>
<text text-anchor="middle" x="1089.41" y="-270" font-family="Helvetica,sans-Serif" font-size="10.00">memory</text>
</a>
</g>
</g>
<!-- Node27&#45;&gt;Node28 -->
<g id="edge68" class="edge">
<title>Node27&#45;&gt;Node28</title>
<path fill="none" stroke="midnightblue" d="M1022.85,-324.4C1036.76,-313.76 1055.8,-299.2 1069.95,-288.38"/>
<polygon fill="midnightblue" stroke="midnightblue" points="1072.22,-291.05 1078.04,-282.19 1067.97,-285.49 1072.22,-291.05"/>
</g>
</g>
</svg>
        <g id="navigator" transform="translate(0 0)" fill="#404254">
                <rect fill="#f2f5e9" fill-opacity="0.5" stroke="#606060" stroke-width=".5" x="0" y="0" width="60" height="60"/>
                <use id="zoomplus" xlink:href="#zoomPlus" x="17" y="9" onmousedown="handleZoom(evt,'in')"/>
                <use id="zoomminus" xlink:href="#zoomMin" x="42" y="9" onmousedown="handleZoom(evt,'out')"/>
                <use id="reset" xlink:href="#resetDef" x="30" y="36" onmousedown="handleReset()"/>
                <g id="arrowUp" xlink:href="#dirArrow" transform="translate(30 24)" onmousedown="handlePan(0,-1)">
                  <use xlink:href="#rim" fill="#404040">
                        <set attributeName="fill" to="#808080" begin="arrowUp.mouseover" end="arrowUp.mouseout"/>
                  </use>
                  <path fill="none" stroke="white" stroke-width="1.5" d="M0,-3.0v7 M-2.5,-0.5L0,-3.0L2.5,-0.5"/>
                </g>
                <g id="arrowRight" xlink:href="#dirArrow" transform="rotate(90) translate(36 -43)" onmousedown="handlePan(1,0)">
                  <use xlink:href="#rim" fill="#404040">
                        <set attributeName="fill" to="#808080" begin="arrowRight.mouseover" end="arrowRight.mouseout"/>
                  </use>
                  <path fill="none" stroke="white" stroke-width="1.5" d="M0,-3.0v7 M-2.5,-0.5L0,-3.0L2.5,-0.5"/>
                </g>
                <g id="arrowDown" xlink:href="#dirArrow" transform="rotate(180) translate(-30 -48)" onmousedown="handlePan(0,1)">
                  <use xlink:href="#rim" fill="#404040">
                        <set attributeName="fill" to="#808080" begin="arrowDown.mouseover" end="arrowDown.mouseout"/>
                  </use>
                  <path fill="none" stroke="white" stroke-width="1.5" d="M0,-3.0v7 M-2.5,-0.5L0,-3.0L2.5,-0.5"/>
                </g>
                <g id="arrowLeft" xlink:href="#dirArrow" transform="rotate(270) translate(-36 17)" onmousedown="handlePan(-1,0)">
                  <use xlink:href="#rim" fill="#404040">
                        <set attributeName="fill" to="#808080" begin="arrowLeft.mouseover" end="arrowLeft.mouseout"/>
                  </use>
                  <path fill="none" stroke="white" stroke-width="1.5" d="M0,-3.0v7 M-2.5,-0.5L0,-3.0L2.5,-0.5"/>
                </g>
        </g>
        <svg viewBox="0 0 15 15" width="100%" height="30px" preserveAspectRatio="xMaxYMin meet">
         <g id="arrow_out" transform="scale(0.3 0.3)">
          <a xlink:href="functional_8hpp__incl_org.svg" target="_base">
           <rect id="button" ry="5" rx="5" y="6" x="6" height="38" width="38"
                fill="#f2f5e9" fill-opacity="0.5" stroke="#606060" stroke-width="1.0"/>
           <path id="arrow"
             d="M 11.500037,31.436501 C 11.940474,20.09759 22.043105,11.32322 32.158766,21.979434 L 37.068811,17.246167 C 37.068811,17.246167 37.088388,32 37.088388,32 L 22.160133,31.978069 C 22.160133,31.978069 26.997745,27.140456 26.997745,27.140456 C 18.528582,18.264221 13.291696,25.230495 11.500037,31.436501 z"
             style="fill:#404040;"/>
          </a>
         </g>
        </svg>
</svg>
