<?xml version="1.0" encoding="UTF-8" standalone="no"?>
<!DOCTYPE svg PUBLIC "-//W3C//DTD SVG 1.1//EN"
 "http://www.w3.org/Graphics/SVG/1.1/DTD/svg11.dtd">
<!-- Generated by graphviz version 7.0.5 (20221223.1930)
 -->
<!-- Title: Simple&#45;Utility/functional.hpp Pages: 1 -->
<!--zoomable 478 -->
<svg id="main" version="1.1" xmlns="http://www.w3.org/2000/svg" xmlns:xlink="http://www.w3.org/1999/xlink" xml:space="preserve" onload="init(evt)">
<style type="text/css"><![CDATA[
.edge:hover path { stroke: red; }
.edge:hover polygon { stroke: red; fill: red; }
]]></style>
<script type="text/javascript"><![CDATA[
var edges = document.getElementsByTagName('g');
if (edges && edges.length) {
  for (var i=0;i<edges.length;i++) {
    if (edges[i].id.substr(0,4)=='edge') {
      edges[i].setAttribute('class','edge');
    }
  }
}
]]></script>
        <defs>
                <circle id="rim" cx="0" cy="0" r="7"/>
                <circle id="rim2" cx="0" cy="0" r="3.5"/>
                <g id="zoomPlus">
                        <use xlink:href="#rim" fill="#404040">
                                <set attributeName="fill" to="#808080" begin="zoomplus.mouseover" end="zoomplus.mouseout"/>
                        </use>
                        <path d="M-4,0h8M0,-4v8" fill="none" stroke="white" stroke-width="1.5" pointer-events="none"/>
                </g>
                <g id="zoomMin">
                        <use xlink:href="#rim" fill="#404040">
                                <set attributeName="fill" to="#808080" begin="zoomminus.mouseover" end="zoomminus.mouseout"/>
                        </use>
                        <path d="M-4,0h8" fill="none" stroke="white" stroke-width="1.5" pointer-events="none"/>
                </g>
                <g id="dirArrow">
                        <path fill="none" stroke="white" stroke-width="1.5" d="M0,-3.0v7 M-2.5,-0.5L0,-3.0L2.5,-0.5"/>
                </g>
               <g id="resetDef">
                       <use xlink:href="#rim2" fill="#404040">
                               <set attributeName="fill" to="#808080" begin="reset.mouseover" end="reset.mouseout"/>
                       </use>
               </g>
        </defs>

<script type="text/javascript">
var viewWidth = 1246;
var viewHeight = 478;
var sectionId = 'dynsection-0';
</script>
<script xlink:href="../../svgpan.js"/>
<svg id="graph" class="graph">
<g id="viewport">
<title>Simple&#45;Utility/functional.hpp</title>
<!-- Node1 -->
<g id="node1" class="node">
<title>Node1</title>
<g id="a_node1"><a xlink:title=" ">
<polygon fill="#999999" stroke="#666666" points="697,-470 549,-470 549,-451 697,-451 697,-470"/>
<text text-anchor="middle" x="623" y="-458" font-family="Helvetica,sans-Serif" font-size="10.00">Simple&#45;Utility/functional.hpp</text>
</a>
</g>
</g>
<!-- Node2 -->
<g id="node2" class="node">
<title>Node2</title>
<g id="a_node2"><a xlink:href="../../d9/d76/bind_8hpp.html" target="_top" xlink:title=" ">
<polygon fill="white" stroke="#666666" points="991,-217 863,-217 863,-187 991,-187 991,-217"/>
<text text-anchor="start" x="871" y="-205" font-family="Helvetica,sans-Serif" font-size="10.00">Simple&#45;Utility/functional</text>
<text text-anchor="middle" x="927" y="-194" font-family="Helvetica,sans-Serif" font-size="10.00">/operators/bind.hpp</text>
</a>
</g>
</g>
<!-- Node1&#45;&gt;Node2 -->
<g id="edge1" class="edge">
<title>Node1&#45;&gt;Node2</title>
<path fill="none" stroke="#63b8ff" d="M652.67,-450.61C696.31,-436.1 777.86,-403.38 826,-349 856.42,-314.64 836.65,-289.85 864,-253 872.17,-241.99 883.35,-232.06 894.02,-224.01"/>
<polygon fill="#63b8ff" stroke="#63b8ff" points="895.87,-227 901.95,-218.33 891.79,-221.31 895.87,-227"/>
</g>
<!-- Node3 -->
<g id="node3" class="node">
<title>Node3</title>
<g id="a_node3"><a xlink:href="../../d1/d76/functional_2base_8hpp.html" target="_top" xlink:title=" ">
<polygon fill="white" stroke="#666666" points="501,-151 373,-151 373,-121 501,-121 501,-151"/>
<text text-anchor="start" x="381" y="-139" font-family="Helvetica,sans-Serif" font-size="10.00">Simple&#45;Utility/functional</text>
<text text-anchor="middle" x="437" y="-128" font-family="Helvetica,sans-Serif" font-size="10.00">/base.hpp</text>
</a>
</g>
</g>
<!-- Node1&#45;&gt;Node3 -->
<g id="edge32" class="edge">
<title>Node1&#45;&gt;Node3</title>
<path fill="none" stroke="#63b8ff" d="M548.78,-460.08C383.58,-459.36 0,-445.78 0,-335 0,-335 0,-335 0,-267 0,-209.04 49.71,-209.81 103,-187 186.61,-151.21 291.52,-140.43 361.22,-137.5"/>
<polygon fill="#63b8ff" stroke="#63b8ff" points="361.15,-141 371.02,-137.14 360.89,-134.01 361.15,-141"/>
</g>
<!-- Node14 -->
<g id="node14" class="node">
<title>Node14</title>
<g id="a_node14"><a xlink:href="../../df/d80/conjunction_8hpp.html" target="_top" xlink:title=" ">
<polygon fill="white" stroke="#666666" points="660.5,-217 519.5,-217 519.5,-187 660.5,-187 660.5,-217"/>
<text text-anchor="start" x="527.5" y="-205" font-family="Helvetica,sans-Serif" font-size="10.00">Simple&#45;Utility/functional</text>
<text text-anchor="middle" x="590" y="-194" font-family="Helvetica,sans-Serif" font-size="10.00">/operators/conjunction.hpp</text>
</a>
</g>
</g>
<!-- Node1&#45;&gt;Node14 -->
<g id="edge19" class="edge">
<title>Node1&#45;&gt;Node14</title>
<path fill="none" stroke="#63b8ff" d="M559.85,-450.53C518.79,-443.25 470.63,-431.49 458,-415 449.89,-404.42 453.89,-397.68 458,-385 469.46,-349.69 536.74,-266.4 570.58,-225.9"/>
<polygon fill="#63b8ff" stroke="#63b8ff" points="573.12,-228.33 576.87,-218.42 567.76,-223.83 573.12,-228.33"/>
</g>
<!-- Node15 -->
<g id="node15" class="node">
<title>Node15</title>
<g id="a_node15"><a xlink:href="../../d4/d7c/disjunction_8hpp.html" target="_top" xlink:title=" ">
<polygon fill="white" stroke="#666666" points="312.5,-283 175.5,-283 175.5,-253 312.5,-253 312.5,-283"/>
<text text-anchor="start" x="183.5" y="-271" font-family="Helvetica,sans-Serif" font-size="10.00">Simple&#45;Utility/functional</text>
<text text-anchor="middle" x="244" y="-260" font-family="Helvetica,sans-Serif" font-size="10.00">/operators/disjunction.hpp</text>
</a>
</g>
</g>
<!-- Node1&#45;&gt;Node15 -->
<g id="edge22" class="edge">
<title>Node1&#45;&gt;Node15</title>
<path fill="none" stroke="#63b8ff" d="M548.69,-453.94C504.8,-448.38 449.16,-437.25 404,-415 343.52,-385.2 289.27,-325.52 262.19,-292.44"/>
<polygon fill="#63b8ff" stroke="#63b8ff" points="264.93,-290.26 255.94,-284.65 259.47,-294.64 264.93,-290.26"/>
</g>
<!-- Node16 -->
<g id="node16" class="node">
<title>Node16</title>
<g id="a_node16"><a xlink:href="../../d8/dea/negation_8hpp.html" target="_top" xlink:title=" ">
<polygon fill="white" stroke="#666666" points="157.5,-283 28.5,-283 28.5,-253 157.5,-253 157.5,-283"/>
<text text-anchor="start" x="36.5" y="-271" font-family="Helvetica,sans-Serif" font-size="10.00">Simple&#45;Utility/functional</text>
<text text-anchor="middle" x="93" y="-260" font-family="Helvetica,sans-Serif" font-size="10.00">/operators/negation.hpp</text>
</a>
</g>
</g>
<!-- Node1&#45;&gt;Node16 -->
<g id="edge25" class="edge">
<title>Node1&#45;&gt;Node16</title>
<path fill="none" stroke="#63b8ff" d="M548.51,-454.14C493.53,-448.53 417.55,-437.26 354,-415 263.88,-383.43 168.54,-321.86 121.99,-289.7"/>
<polygon fill="#63b8ff" stroke="#63b8ff" points="124.26,-287.02 114.06,-284.17 120.26,-292.76 124.26,-287.02"/>
</g>
<!-- Node17 -->
<g id="node17" class="node">
<title>Node17</title>
<g id="a_node17"><a xlink:href="../../d5/db7/pipe_8hpp.html" target="_top" xlink:title=" ">
<polygon fill="white" stroke="#666666" points="807,-217 679,-217 679,-187 807,-187 807,-217"/>
<text text-anchor="start" x="687" y="-205" font-family="Helvetica,sans-Serif" font-size="10.00">Simple&#45;Utility/functional</text>
<text text-anchor="middle" x="743" y="-194" font-family="Helvetica,sans-Serif" font-size="10.00">/operators/pipe.hpp</text>
</a>
</g>
</g>
<!-- Node1&#45;&gt;Node17 -->
<g id="edge31" class="edge">
<title>Node1&#45;&gt;Node17</title>
<path fill="none" stroke="#63b8ff" d="M623.38,-450.78C625.09,-420.62 634.15,-318.96 680,-253 687.77,-241.83 698.75,-231.91 709.38,-223.92"/>
<polygon fill="#63b8ff" stroke="#63b8ff" points="711.18,-226.94 717.3,-218.29 707.12,-221.23 711.18,-226.94"/>
</g>
<!-- Node18 -->
<g id="node18" class="node">
<title>Node18</title>
<g id="a_node18"><a xlink:href="../../d2/d7e/predicate_8hpp.html" target="_top" xlink:title=" ">
<polygon fill="white" stroke="#666666" points="465,-349 337,-349 337,-319 465,-319 465,-349"/>
<text text-anchor="start" x="345" y="-337" font-family="Helvetica,sans-Serif" font-size="10.00">Simple&#45;Utility/functional</text>
<text text-anchor="middle" x="401" y="-326" font-family="Helvetica,sans-Serif" font-size="10.00">/predicate.hpp</text>
</a>
</g>
</g>
<!-- Node1&#45;&gt;Node18 -->
<g id="edge33" class="edge">
<title>Node1&#45;&gt;Node18</title>
<path fill="none" stroke="#63b8ff" d="M548.73,-450.69C500.36,-443.51 443.01,-431.78 425,-415 410.09,-401.1 404.32,-378.35 402.14,-360.65"/>
<polygon fill="#63b8ff" stroke="#63b8ff" points="405.65,-360.54 401.28,-350.89 398.67,-361.16 405.65,-360.54"/>
</g>
<!-- Node21 -->
<g id="node21" class="node">
<title>Node21</title>
<g id="a_node21"><a xlink:href="../../d6/deb/transform_8hpp.html" target="_top" xlink:title=" ">
<polygon fill="white" stroke="#666666" points="817,-283 689,-283 689,-253 817,-253 817,-283"/>
<text text-anchor="start" x="697" y="-271" font-family="Helvetica,sans-Serif" font-size="10.00">Simple&#45;Utility/functional</text>
<text text-anchor="middle" x="753" y="-260" font-family="Helvetica,sans-Serif" font-size="10.00">/transform.hpp</text>
</a>
</g>
</g>
<!-- Node1&#45;&gt;Node21 -->
<g id="edge46" class="edge">
<title>Node1&#45;&gt;Node21</title>
<path fill="none" stroke="#63b8ff" d="M625.8,-450.79C634.63,-423.6 662.42,-340.84 680,-319 689.43,-307.29 702.31,-297.23 714.63,-289.27"/>
<polygon fill="#63b8ff" stroke="#63b8ff" points="716.32,-292.33 723.03,-284.13 712.67,-286.36 716.32,-292.33"/>
</g>
<!-- Node22 -->
<g id="node22" class="node">
<title>Node22</title>
<g id="a_node22"><a xlink:href="../../da/df1/overloaded_8hpp.html" target="_top" xlink:title=" ">
<polygon fill="white" stroke="#666666" points="1077,-415 949,-415 949,-385 1077,-385 1077,-415"/>
<text text-anchor="start" x="957" y="-403" font-family="Helvetica,sans-Serif" font-size="10.00">Simple&#45;Utility/functional</text>
<text text-anchor="middle" x="1013" y="-392" font-family="Helvetica,sans-Serif" font-size="10.00">/overloaded.hpp</text>
</a>
</g>
</g>
<!-- Node1&#45;&gt;Node22 -->
<g id="edge51" class="edge">
<title>Node1&#45;&gt;Node22</title>
<path fill="none" stroke="#63b8ff" d="M690.97,-450.52C754.24,-441.99 851.14,-428.5 935,-415 935.84,-414.86 936.69,-414.73 937.54,-414.59"/>
<polygon fill="#63b8ff" stroke="#63b8ff" points="937.98,-418.06 947.27,-412.97 936.83,-411.16 937.98,-418.06"/>
</g>
<!-- Node23 -->
<g id="node23" class="node">
<title>Node23</title>
<g id="a_node23"><a xlink:href="../../d3/d23/arithmetic_8hpp.html" target="_top" xlink:title=" ">
<polygon fill="white" stroke="#666666" points="817,-349 689,-349 689,-319 817,-319 817,-349"/>
<text text-anchor="start" x="697" y="-337" font-family="Helvetica,sans-Serif" font-size="10.00">Simple&#45;Utility/functional</text>
<text text-anchor="middle" x="753" y="-326" font-family="Helvetica,sans-Serif" font-size="10.00">/arithmetic.hpp</text>
</a>
</g>
</g>
<!-- Node1&#45;&gt;Node23 -->
<g id="edge52" class="edge">
<title>Node1&#45;&gt;Node23</title>
<path fill="none" stroke="#63b8ff" d="M634,-450.57C644.7,-441.78 661.3,-427.84 675,-415 694.94,-396.31 716.56,-373.96 731.97,-357.64"/>
<polygon fill="#63b8ff" stroke="#63b8ff" points="734.52,-360.04 738.81,-350.36 729.41,-355.25 734.52,-360.04"/>
</g>
<!-- Node25 -->
<g id="node25" class="node">
<title>Node25</title>
<g id="a_node25"><a xlink:href="../../dd/d3f/compare_8hpp.html" target="_top" xlink:title=" ">
<polygon fill="white" stroke="#666666" points="595,-415 467,-415 467,-385 595,-385 595,-415"/>
<text text-anchor="start" x="475" y="-403" font-family="Helvetica,sans-Serif" font-size="10.00">Simple&#45;Utility/functional</text>
<text text-anchor="middle" x="531" y="-392" font-family="Helvetica,sans-Serif" font-size="10.00">/compare.hpp</text>
</a>
</g>
</g>
<!-- Node1&#45;&gt;Node25 -->
<g id="edge56" class="edge">
<title>Node1&#45;&gt;Node25</title>
<path fill="none" stroke="#63b8ff" d="M609.03,-450.62C596.87,-442.89 578.79,-431.39 563.1,-421.41"/>
<polygon fill="#63b8ff" stroke="#63b8ff" points="565.3,-418.66 554.99,-416.25 561.55,-424.57 565.3,-418.66"/>
</g>
<!-- Node26 -->
<g id="node26" class="node">
<title>Node26</title>
<g id="a_node26"><a xlink:href="../../d9/d5f/functional_2tuple_8hpp.html" target="_top" xlink:title=" ">
<polygon fill="white" stroke="#666666" points="1197,-349 1069,-349 1069,-319 1197,-319 1197,-349"/>
<text text-anchor="start" x="1077" y="-337" font-family="Helvetica,sans-Serif" font-size="10.00">Simple&#45;Utility/functional</text>
<text text-anchor="middle" x="1133" y="-326" font-family="Helvetica,sans-Serif" font-size="10.00">/tuple.hpp</text>
</a>
</g>
</g>
<!-- Node1&#45;&gt;Node26 -->
<g id="edge59" class="edge">
<title>Node1&#45;&gt;Node26</title>
<path fill="none" stroke="#63b8ff" d="M697.35,-455.59C753.06,-450.71 830.33,-439.72 894,-415 916.75,-406.17 917.67,-394.86 940,-385 977.31,-368.53 1021.15,-356.63 1057.61,-348.58"/>
<polygon fill="#63b8ff" stroke="#63b8ff" points="1058.16,-352.05 1067.2,-346.53 1056.69,-345.2 1058.16,-352.05"/>
</g>
<!-- Node27 -->
<g id="node27" class="node">
<title>Node27</title>
<g id="a_node27"><a xlink:href="../../df/d4e/functional_2utility_8hpp.html" target="_top" xlink:title=" ">
<polygon fill="white" stroke="#666666" points="1026,-349 898,-349 898,-319 1026,-319 1026,-349"/>
<text text-anchor="start" x="906" y="-337" font-family="Helvetica,sans-Serif" font-size="10.00">Simple&#45;Utility/functional</text>
<text text-anchor="middle" x="962" y="-326" font-family="Helvetica,sans-Serif" font-size="10.00">/utility.hpp</text>
</a>
</g>
</g>
<!-- Node1&#45;&gt;Node27 -->
<g id="edge64" class="edge">
<title>Node1&#45;&gt;Node27</title>
<path fill="none" stroke="#63b8ff" d="M697.47,-454.51C745.32,-449.15 807.87,-438.04 859,-415 875.64,-407.5 912.16,-377.73 936.93,-356.7"/>
<polygon fill="#63b8ff" stroke="#63b8ff" points="938.99,-359.55 944.32,-350.39 934.44,-354.23 938.99,-359.55"/>
</g>
<!-- Node2&#45;&gt;Node3 -->
<g id="edge2" class="edge">
<title>Node2&#45;&gt;Node3</title>
<path fill="none" stroke="#63b8ff" d="M862.77,-189.17C858.12,-188.41 853.49,-187.67 849,-187 731.95,-169.41 595.47,-153.8 512.7,-144.88"/>
<polygon fill="#63b8ff" stroke="#63b8ff" points="513.2,-141.42 502.89,-143.83 512.45,-148.38 513.2,-141.42"/>
</g>
<!-- Node11 -->
<g id="node11" class="node">
<title>Node11</title>
<g id="a_node11"><a xlink:href="../../d2/d30/general_8hpp.html" target="_top" xlink:title=" ">
<polygon fill="white" stroke="#666666" points="1066.5,-151 961.5,-151 961.5,-121 1066.5,-121 1066.5,-151"/>
<text text-anchor="start" x="969.5" y="-139" font-family="Helvetica,sans-Serif" font-size="10.00">Simple&#45;Utility/tuple</text>
<text text-anchor="middle" x="1014" y="-128" font-family="Helvetica,sans-Serif" font-size="10.00">/general.hpp</text>
</a>
</g>
</g>
<!-- Node2&#45;&gt;Node11 -->
<g id="edge14" class="edge">
<title>Node2&#45;&gt;Node11</title>
<path fill="none" stroke="#63b8ff" d="M946.31,-186.8C957.83,-178.32 972.67,-167.4 985.52,-157.95"/>
<polygon fill="#63b8ff" stroke="#63b8ff" points="987.24,-161.03 993.23,-152.28 983.1,-155.39 987.24,-161.03"/>
</g>
<!-- Node4 -->
<g id="node4" class="node">
<title>Node4</title>
<g id="a_node4"><a xlink:title=" ">
<polygon fill="#e0e0e0" stroke="#999999" points="847.5,-19 790.5,-19 790.5,0 847.5,0 847.5,-19"/>
<text text-anchor="middle" x="819" y="-7" font-family="Helvetica,sans-Serif" font-size="10.00">concepts</text>
</a>
</g>
</g>
<!-- Node3&#45;&gt;Node4 -->
<g id="edge3" class="edge">
<title>Node3&#45;&gt;Node4</title>
<path fill="none" stroke="#63b8ff" d="M501.46,-126.45C542.86,-119.23 596.93,-106.52 641,-85 660.33,-75.56 659.99,-65.09 679,-55 710.92,-38.06 750.39,-26.24 779.28,-19.06"/>
<polygon fill="#63b8ff" stroke="#63b8ff" points="779.8,-22.53 788.71,-16.8 778.17,-15.73 779.8,-22.53"/>
</g>
<!-- Node5 -->
<g id="node5" class="node">
<title>Node5</title>
<g id="a_node5"><a xlink:title=" ">
<polygon fill="#e0e0e0" stroke="#999999" points="192,-79.5 130,-79.5 130,-60.5 192,-60.5 192,-79.5"/>
<text text-anchor="middle" x="161" y="-67.5" font-family="Helvetica,sans-Serif" font-size="10.00">functional</text>
</a>
</g>
</g>
<!-- Node3&#45;&gt;Node5 -->
<g id="edge4" class="edge">
<title>Node3&#45;&gt;Node5</title>
<path fill="none" stroke="#63b8ff" d="M374.72,-120.56C322.39,-108.42 249.03,-91.41 203.3,-80.81"/>
<polygon fill="#63b8ff" stroke="#63b8ff" points="204.3,-77.45 193.77,-78.6 202.72,-84.27 204.3,-77.45"/>
</g>
<!-- Node6 -->
<g id="node6" class="node">
<title>Node6</title>
<g id="a_node6"><a xlink:title=" ">
<polygon fill="#e0e0e0" stroke="#999999" points="607.5,-19 542.5,-19 542.5,0 607.5,0 607.5,-19"/>
<text text-anchor="middle" x="575" y="-7" font-family="Helvetica,sans-Serif" font-size="10.00">type_traits</text>
</a>
</g>
</g>
<!-- Node3&#45;&gt;Node6 -->
<g id="edge5" class="edge">
<title>Node3&#45;&gt;Node6</title>
<path fill="none" stroke="#63b8ff" d="M405.06,-120.62C375.19,-105.19 337.95,-79.58 358,-55 379.38,-28.79 473.81,-17.59 530.82,-13.15"/>
<polygon fill="#63b8ff" stroke="#63b8ff" points="530.81,-16.66 540.53,-12.43 530.3,-9.68 530.81,-16.66"/>
</g>
<!-- Node7 -->
<g id="node7" class="node">
<title>Node7</title>
<g id="a_node7"><a xlink:href="../../d8/dd2/_config_8hpp.html" target="_top" xlink:title=" ">
<polygon fill="white" stroke="#666666" points="500.5,-79.5 367.5,-79.5 367.5,-60.5 500.5,-60.5 500.5,-79.5"/>
<text text-anchor="middle" x="434" y="-67.5" font-family="Helvetica,sans-Serif" font-size="10.00">Simple&#45;Utility/Config.hpp</text>
</a>
</g>
</g>
<!-- Node3&#45;&gt;Node7 -->
<g id="edge6" class="edge">
<title>Node3&#45;&gt;Node7</title>
<path fill="none" stroke="#63b8ff" d="M436.33,-120.8C435.93,-112.09 435.4,-100.81 434.95,-91.18"/>
<polygon fill="#63b8ff" stroke="#63b8ff" points="438.45,-91.18 434.49,-81.36 431.46,-91.51 438.45,-91.18"/>
</g>
<!-- Node8 -->
<g id="node8" class="node">
<title>Node8</title>
<g id="a_node8"><a xlink:href="../../d4/d1c/unified__base_8hpp.html" target="_top" xlink:title=" ">
<polygon fill="white" stroke="#666666" points="631.5,-85 518.5,-85 518.5,-55 631.5,-55 631.5,-85"/>
<text text-anchor="start" x="526.5" y="-73" font-family="Helvetica,sans-Serif" font-size="10.00">Simple&#45;Utility/unified</text>
<text text-anchor="middle" x="575" y="-62" font-family="Helvetica,sans-Serif" font-size="10.00">_base.hpp</text>
</a>
</g>
</g>
<!-- Node3&#45;&gt;Node8 -->
<g id="edge7" class="edge">
<title>Node3&#45;&gt;Node8</title>
<path fill="none" stroke="#63b8ff" d="M467.97,-120.64C487.41,-111.62 512.71,-99.89 533.83,-90.09"/>
<polygon fill="#63b8ff" stroke="#63b8ff" points="535.16,-93.33 542.76,-85.95 532.22,-86.98 535.16,-93.33"/>
</g>
<!-- Node9 -->
<g id="node9" class="node">
<title>Node9</title>
<g id="a_node9"><a xlink:href="../../dd/d5c/stl__extensions_8hpp.html" target="_top" xlink:title=" ">
<polygon fill="white" stroke="#666666" points="810,-85 688,-85 688,-55 810,-55 810,-85"/>
<text text-anchor="start" x="696" y="-73" font-family="Helvetica,sans-Serif" font-size="10.00">Simple&#45;Utility/concepts</text>
<text text-anchor="middle" x="749" y="-62" font-family="Helvetica,sans-Serif" font-size="10.00">/stl_extensions.hpp</text>
</a>
</g>
</g>
<!-- Node3&#45;&gt;Node9 -->
<g id="edge10" class="edge">
<title>Node3&#45;&gt;Node9</title>
<path fill="none" stroke="#63b8ff" d="M501.27,-121.82C552.31,-111.35 623.68,-96.71 676.71,-85.83"/>
<polygon fill="#63b8ff" stroke="#63b8ff" points="677.16,-89.31 686.25,-83.87 675.75,-82.45 677.16,-89.31"/>
</g>
<!-- Node10 -->
<g id="node10" class="node">
<title>Node10</title>
<g id="a_node10"><a xlink:href="../../d5/d8e/concepts_2utility_8hpp.html" target="_top" xlink:title=" ">
<polygon fill="white" stroke="#666666" points="950,-85 828,-85 828,-55 950,-55 950,-85"/>
<text text-anchor="start" x="836" y="-73" font-family="Helvetica,sans-Serif" font-size="10.00">Simple&#45;Utility/concepts</text>
<text text-anchor="middle" x="889" y="-62" font-family="Helvetica,sans-Serif" font-size="10.00">/utility.hpp</text>
</a>
</g>
</g>
<!-- Node3&#45;&gt;Node10 -->
<g id="edge12" class="edge">
<title>Node3&#45;&gt;Node10</title>
<path fill="none" stroke="#63b8ff" d="M501.4,-127.91C575.12,-119.49 699.72,-104.36 816.32,-85.38"/>
<polygon fill="#63b8ff" stroke="#63b8ff" points="816.79,-88.85 826.09,-83.77 815.65,-81.94 816.79,-88.85"/>
</g>
<!-- Node8&#45;&gt;Node4 -->
<g id="edge8" class="edge">
<title>Node8&#45;&gt;Node4</title>
<path fill="none" stroke="#63b8ff" d="M631.9,-55.36C677.01,-44.54 738.93,-29.7 778.95,-20.1"/>
<polygon fill="#63b8ff" stroke="#63b8ff" points="779.75,-23.51 788.66,-17.78 778.11,-16.7 779.75,-23.51"/>
</g>
<!-- Node8&#45;&gt;Node6 -->
<g id="edge9" class="edge">
<title>Node8&#45;&gt;Node6</title>
<path fill="none" stroke="#63b8ff" d="M575,-54.54C575,-47.34 575,-38.53 575,-30.68"/>
<polygon fill="#63b8ff" stroke="#63b8ff" points="578.5,-30.69 575,-20.69 571.5,-30.69 578.5,-30.69"/>
</g>
<!-- Node9&#45;&gt;Node4 -->
<g id="edge11" class="edge">
<title>Node9&#45;&gt;Node4</title>
<path fill="none" stroke="#63b8ff" d="M766.3,-54.54C776.47,-46.04 789.34,-35.29 799.82,-26.53"/>
<polygon fill="#63b8ff" stroke="#63b8ff" points="802.03,-29.24 807.46,-20.15 797.54,-23.87 802.03,-29.24"/>
</g>
<!-- Node10&#45;&gt;Node4 -->
<g id="edge13" class="edge">
<title>Node10&#45;&gt;Node4</title>
<path fill="none" stroke="#63b8ff" d="M871.7,-54.54C861.53,-46.04 848.66,-35.29 838.18,-26.53"/>
<polygon fill="#63b8ff" stroke="#63b8ff" points="840.46,-23.87 830.54,-20.15 835.97,-29.24 840.46,-23.87"/>
</g>
<!-- Node11&#45;&gt;Node4 -->
<g id="edge15" class="edge">
<title>Node11&#45;&gt;Node4</title>
<path fill="none" stroke="#63b8ff" d="M1014.16,-120.74C1013.57,-102.87 1009.77,-72.47 992,-55 956.73,-20.31 898.26,-11.58 859.18,-9.92"/>
<polygon fill="#63b8ff" stroke="#63b8ff" points="859.33,-6.42 849.24,-9.65 859.14,-13.42 859.33,-6.42"/>
</g>
<!-- Node11&#45;&gt;Node6 -->
<g id="edge17" class="edge">
<title>Node11&#45;&gt;Node6</title>
<path fill="none" stroke="#63b8ff" d="M1008.56,-120.61C1000.69,-102.01 984.27,-70.21 959,-55 902.67,-21.08 707.59,-13.02 619.17,-11.1"/>
<polygon fill="#63b8ff" stroke="#63b8ff" points="619.51,-7.6 609.44,-10.91 619.37,-14.6 619.51,-7.6"/>
</g>
<!-- Node12 -->
<g id="node12" class="node">
<title>Node12</title>
<g id="a_node12"><a xlink:title=" ">
<polygon fill="#e0e0e0" stroke="#999999" points="1094,-79.5 1054,-79.5 1054,-60.5 1094,-60.5 1094,-79.5"/>
<text text-anchor="middle" x="1074" y="-67.5" font-family="Helvetica,sans-Serif" font-size="10.00">tuple</text>
</a>
</g>
</g>
<!-- Node11&#45;&gt;Node12 -->
<g id="edge16" class="edge">
<title>Node11&#45;&gt;Node12</title>
<path fill="none" stroke="#63b8ff" d="M1027.32,-120.8C1036.39,-111.11 1048.46,-98.24 1058.05,-88.01"/>
<polygon fill="#63b8ff" stroke="#63b8ff" points="1060.39,-90.64 1064.67,-80.95 1055.28,-85.85 1060.39,-90.64"/>
</g>
<!-- Node13 -->
<g id="node13" class="node">
<title>Node13</title>
<g id="a_node13"><a xlink:title=" ">
<polygon fill="#e0e0e0" stroke="#999999" points="1202.5,-79.5 1161.5,-79.5 1161.5,-60.5 1202.5,-60.5 1202.5,-79.5"/>
<text text-anchor="middle" x="1182" y="-67.5" font-family="Helvetica,sans-Serif" font-size="10.00">utility</text>
</a>
</g>
</g>
<!-- Node11&#45;&gt;Node13 -->
<g id="edge18" class="edge">
<title>Node11&#45;&gt;Node13</title>
<path fill="none" stroke="#63b8ff" d="M1051.7,-120.64C1081.59,-109.25 1122.86,-93.53 1150.89,-82.85"/>
<polygon fill="#63b8ff" stroke="#63b8ff" points="1151.78,-86.26 1159.88,-79.43 1149.29,-79.72 1151.78,-86.26"/>
</g>
<!-- Node14&#45;&gt;Node3 -->
<g id="edge21" class="edge">
<title>Node14&#45;&gt;Node3</title>
<path fill="none" stroke="#63b8ff" d="M555.66,-186.64C533.89,-177.53 505.49,-165.65 481.93,-155.79"/>
<polygon fill="#63b8ff" stroke="#63b8ff" points="483.46,-152.64 472.88,-152.01 480.76,-159.1 483.46,-152.64"/>
</g>
<!-- Node14&#45;&gt;Node10 -->
<g id="edge20" class="edge">
<title>Node14&#45;&gt;Node10</title>
<path fill="none" stroke="#63b8ff" d="M660.75,-188.53C743.84,-173.87 870.52,-151.46 871,-151 885.47,-137.17 889.47,-114.41 890.15,-96.7"/>
<polygon fill="#63b8ff" stroke="#63b8ff" points="893.64,-96.93 890.16,-86.92 886.64,-96.92 893.64,-96.93"/>
</g>
<!-- Node15&#45;&gt;Node3 -->
<g id="edge24" class="edge">
<title>Node15&#45;&gt;Node3</title>
<path fill="none" stroke="#63b8ff" d="M198.24,-252.55C160.23,-238.18 115.83,-214.38 139,-187 166.94,-153.98 282.52,-142.76 361.25,-138.95"/>
<polygon fill="#63b8ff" stroke="#63b8ff" points="361.24,-142.45 371.07,-138.5 360.92,-135.46 361.24,-142.45"/>
</g>
<!-- Node15&#45;&gt;Node10 -->
<g id="edge23" class="edge">
<title>Node15&#45;&gt;Node10</title>
<path fill="none" stroke="#63b8ff" d="M268.88,-252.55C285.12,-242.89 306.64,-229.68 325,-217 342.99,-204.57 343.91,-195.65 364,-187 457.83,-146.61 491.09,-172.27 591,-151 675.1,-133.1 770.89,-106.19 830.65,-88.62"/>
<polygon fill="#63b8ff" stroke="#63b8ff" points="831.33,-92.06 839.92,-85.87 829.34,-85.35 831.33,-92.06"/>
</g>
<!-- Node16&#45;&gt;Node3 -->
<g id="edge26" class="edge">
<title>Node16&#45;&gt;Node3</title>
<path fill="none" stroke="#63b8ff" d="M95.24,-252.6C98.9,-234.29 107.97,-203.13 129,-187 164.43,-159.81 282,-146.91 361.2,-141.16"/>
<polygon fill="#63b8ff" stroke="#63b8ff" points="361.35,-144.66 371.08,-140.47 360.86,-137.68 361.35,-144.66"/>
</g>
<!-- Node16&#45;&gt;Node5 -->
<g id="edge30" class="edge">
<title>Node16&#45;&gt;Node5</title>
<path fill="none" stroke="#63b8ff" d="M93.34,-252.53C94.06,-236.27 96.27,-209.24 103,-187 114,-150.68 135.65,-111.91 149.16,-89.65"/>
<polygon fill="#63b8ff" stroke="#63b8ff" points="152.13,-91.51 154.43,-81.17 146.18,-87.82 152.13,-91.51"/>
</g>
<!-- Node16&#45;&gt;Node17 -->
<g id="edge27" class="edge">
<title>Node16&#45;&gt;Node17</title>
<path fill="none" stroke="#63b8ff" d="M157.81,-254.16C160.58,-253.74 163.31,-253.35 166,-253 384.97,-224.29 445.34,-245.47 667.2,-217.25"/>
<polygon fill="#63b8ff" stroke="#63b8ff" points="667.61,-220.73 677.08,-215.98 666.71,-213.79 667.61,-220.73"/>
</g>
<!-- Node17&#45;&gt;Node3 -->
<g id="edge28" class="edge">
<title>Node17&#45;&gt;Node3</title>
<path fill="none" stroke="#63b8ff" d="M678.85,-187.58C630.28,-177.42 563.42,-163.44 512.31,-152.75"/>
<polygon fill="#63b8ff" stroke="#63b8ff" points="513.31,-149.39 502.81,-150.76 511.88,-156.24 513.31,-149.39"/>
</g>
<!-- Node17&#45;&gt;Node11 -->
<g id="edge29" class="edge">
<title>Node17&#45;&gt;Node11</title>
<path fill="none" stroke="#63b8ff" d="M804.16,-186.56C847.67,-176.28 906,-162.51 950.11,-152.09"/>
<polygon fill="#63b8ff" stroke="#63b8ff" points="950.89,-155.5 959.82,-149.8 949.28,-148.69 950.89,-155.5"/>
</g>
<!-- Node18&#45;&gt;Node2 -->
<g id="edge35" class="edge">
<title>Node18&#45;&gt;Node2</title>
<path fill="none" stroke="#63b8ff" d="M456.32,-318.59C492.94,-308.9 541.96,-295.64 585,-283 627.48,-270.53 637.13,-264.07 680,-253 736.98,-238.28 802.28,-225.22 851.42,-216.15"/>
<polygon fill="#63b8ff" stroke="#63b8ff" points="851.91,-219.62 861.11,-214.37 850.65,-212.73 851.91,-219.62"/>
</g>
<!-- Node18&#45;&gt;Node3 -->
<g id="edge34" class="edge">
<title>Node18&#45;&gt;Node3</title>
<path fill="none" stroke="#63b8ff" d="M387.45,-318.62C366.76,-296.81 328.88,-257.42 321,-253 257.83,-217.56 125.78,-242.76 172,-187 195.67,-158.45 291.54,-146.09 361.17,-140.81"/>
<polygon fill="#63b8ff" stroke="#63b8ff" points="361.31,-144.31 371.03,-140.1 360.81,-137.33 361.31,-144.31"/>
</g>
<!-- Node18&#45;&gt;Node14 -->
<g id="edge36" class="edge">
<title>Node18&#45;&gt;Node14</title>
<path fill="none" stroke="#63b8ff" d="M412.1,-318.69C426.15,-301.32 451.82,-272.02 479,-253 496.9,-240.47 518.44,-229.91 537.76,-221.77"/>
<polygon fill="#63b8ff" stroke="#63b8ff" points="538.89,-225.09 546.83,-218.07 536.25,-218.61 538.89,-225.09"/>
</g>
<!-- Node18&#45;&gt;Node15 -->
<g id="edge37" class="edge">
<title>Node18&#45;&gt;Node15</title>
<path fill="none" stroke="#63b8ff" d="M365.77,-318.64C343.32,-309.49 314.01,-297.54 289.78,-287.66"/>
<polygon fill="#63b8ff" stroke="#63b8ff" points="291.37,-284.53 280.79,-284 288.73,-291.01 291.37,-284.53"/>
</g>
<!-- Node18&#45;&gt;Node16 -->
<g id="edge44" class="edge">
<title>Node18&#45;&gt;Node16</title>
<path fill="none" stroke="#63b8ff" d="M336.81,-319.66C287.94,-309.51 220.54,-295.5 168.98,-284.79"/>
<polygon fill="#63b8ff" stroke="#63b8ff" points="169.89,-281.4 159.39,-282.79 168.46,-288.26 169.89,-281.4"/>
</g>
<!-- Node18&#45;&gt;Node17 -->
<g id="edge45" class="edge">
<title>Node18&#45;&gt;Node17</title>
<path fill="none" stroke="#63b8ff" d="M438.15,-318.58C479.73,-302.47 549.12,-275.69 609,-253 636.81,-242.46 667.93,-230.84 693.18,-221.46"/>
<polygon fill="#63b8ff" stroke="#63b8ff" points="694.39,-224.74 702.55,-217.97 691.96,-218.17 694.39,-224.74"/>
</g>
<!-- Node19 -->
<g id="node19" class="node">
<title>Node19</title>
<g id="a_node19"><a xlink:href="../../dc/d0a/equal_8hpp.html" target="_top" xlink:title=" ">
<polygon fill="white" stroke="#666666" points="501,-217 373,-217 373,-187 501,-187 501,-217"/>
<text text-anchor="start" x="381" y="-205" font-family="Helvetica,sans-Serif" font-size="10.00">Simple&#45;Utility/functional</text>
<text text-anchor="middle" x="437" y="-194" font-family="Helvetica,sans-Serif" font-size="10.00">/operators/equal.hpp</text>
</a>
</g>
</g>
<!-- Node18&#45;&gt;Node19 -->
<g id="edge38" class="edge">
<title>Node18&#45;&gt;Node19</title>
<path fill="none" stroke="#63b8ff" d="M404.99,-318.59C411.02,-296.82 422.53,-255.25 429.98,-228.34"/>
<polygon fill="#63b8ff" stroke="#63b8ff" points="433.29,-229.5 432.59,-218.93 426.55,-227.64 433.29,-229.5"/>
</g>
<!-- Node20 -->
<g id="node20" class="node">
<title>Node20</title>
<g id="a_node20"><a xlink:href="../../d7/dd0/equivalent_8hpp.html" target="_top" xlink:title=" ">
<polygon fill="white" stroke="#666666" points="316.5,-217 181.5,-217 181.5,-187 316.5,-187 316.5,-217"/>
<text text-anchor="start" x="189.5" y="-205" font-family="Helvetica,sans-Serif" font-size="10.00">Simple&#45;Utility/functional</text>
<text text-anchor="middle" x="249" y="-194" font-family="Helvetica,sans-Serif" font-size="10.00">/operators/equivalent.hpp</text>
</a>
</g>
</g>
<!-- Node18&#45;&gt;Node20 -->
<g id="edge41" class="edge">
<title>Node18&#45;&gt;Node20</title>
<path fill="none" stroke="#63b8ff" d="M395.82,-318.54C388.9,-301.03 375.14,-271.57 355,-253 340.68,-239.8 322.25,-229.48 304.79,-221.73"/>
<polygon fill="#63b8ff" stroke="#63b8ff" points="306.62,-218.71 296.05,-218.05 303.91,-225.16 306.62,-218.71"/>
</g>
<!-- Node19&#45;&gt;Node3 -->
<g id="edge40" class="edge">
<title>Node19&#45;&gt;Node3</title>
<path fill="none" stroke="#63b8ff" d="M437,-186.8C437,-179.67 437,-170.82 437,-162.56"/>
<polygon fill="#63b8ff" stroke="#63b8ff" points="440.5,-162.68 437,-152.68 433.5,-162.68 440.5,-162.68"/>
</g>
<!-- Node19&#45;&gt;Node10 -->
<g id="edge39" class="edge">
<title>Node19&#45;&gt;Node10</title>
<path fill="none" stroke="#63b8ff" d="M501.47,-188.54C504.35,-188.01 507.2,-187.5 510,-187 607.55,-169.67 635.77,-181.62 730,-151 776.01,-136.05 825.21,-109.47 856.49,-91.07"/>
<polygon fill="#63b8ff" stroke="#63b8ff" points="857.89,-94.31 864.69,-86.18 854.31,-88.29 857.89,-94.31"/>
</g>
<!-- Node20&#45;&gt;Node3 -->
<g id="edge43" class="edge">
<title>Node20&#45;&gt;Node3</title>
<path fill="none" stroke="#63b8ff" d="M291.19,-186.64C318.55,-177.32 354.42,-165.11 383.74,-155.13"/>
<polygon fill="#63b8ff" stroke="#63b8ff" points="384.85,-158.45 393.19,-151.91 382.6,-151.82 384.85,-158.45"/>
</g>
<!-- Node20&#45;&gt;Node10 -->
<g id="edge42" class="edge">
<title>Node20&#45;&gt;Node10</title>
<path fill="none" stroke="#63b8ff" d="M316.94,-188.35C369.65,-178.44 444.53,-164.18 510,-151 616.98,-129.46 740.61,-103.09 816.81,-86.66"/>
<polygon fill="#63b8ff" stroke="#63b8ff" points="817.18,-90.16 826.22,-84.63 815.7,-83.32 817.18,-90.16"/>
</g>
<!-- Node21&#45;&gt;Node2 -->
<g id="edge49" class="edge">
<title>Node21&#45;&gt;Node2</title>
<path fill="none" stroke="#63b8ff" d="M792.05,-252.64C817.15,-243.41 849.99,-231.33 876.99,-221.39"/>
<polygon fill="#63b8ff" stroke="#63b8ff" points="878.18,-224.68 886.36,-217.95 875.77,-218.12 878.18,-224.68"/>
</g>
<!-- Node21&#45;&gt;Node3 -->
<g id="edge48" class="edge">
<title>Node21&#45;&gt;Node3</title>
<path fill="none" stroke="#63b8ff" d="M777.61,-252.76C802.72,-236.48 835.46,-209.2 816,-187 806.09,-175.7 620.43,-155.36 512.71,-144.43"/>
<polygon fill="#63b8ff" stroke="#63b8ff" points="513.07,-140.94 502.77,-143.42 512.36,-147.91 513.07,-140.94"/>
</g>
<!-- Node21&#45;&gt;Node8 -->
<g id="edge47" class="edge">
<title>Node21&#45;&gt;Node8</title>
<path fill="none" stroke="#63b8ff" d="M817.3,-258.24C886.54,-248.16 988.42,-231.16 1000,-217 1008.44,-206.68 1008.53,-197.25 1000,-187 943.62,-119.26 890.2,-173.54 805,-151 740.3,-133.88 667.66,-107.34 621.65,-89.58"/>
<polygon fill="#63b8ff" stroke="#63b8ff" points="623.12,-86.39 612.53,-86.03 620.58,-92.92 623.12,-86.39"/>
</g>
<!-- Node21&#45;&gt;Node17 -->
<g id="edge50" class="edge">
<title>Node21&#45;&gt;Node17</title>
<path fill="none" stroke="#63b8ff" d="M750.78,-252.8C749.65,-245.59 748.25,-236.61 746.95,-228.27"/>
<polygon fill="#63b8ff" stroke="#63b8ff" points="750.45,-228 745.45,-218.66 743.53,-229.08 750.45,-228"/>
</g>
<!-- Node23&#45;&gt;Node21 -->
<g id="edge55" class="edge">
<title>Node23&#45;&gt;Node21</title>
<path fill="none" stroke="#63b8ff" d="M753,-318.8C753,-311.67 753,-302.82 753,-294.56"/>
<polygon fill="#63b8ff" stroke="#63b8ff" points="756.5,-294.68 753,-284.68 749.5,-294.68 756.5,-294.68"/>
</g>
<!-- Node24 -->
<g id="node24" class="node">
<title>Node24</title>
<g id="a_node24"><a xlink:href="../../dd/dcd/operators_8hpp.html" target="_top" xlink:title=" ">
<polygon fill="white" stroke="#666666" points="995,-283 873,-283 873,-253 995,-253 995,-283"/>
<text text-anchor="start" x="881" y="-271" font-family="Helvetica,sans-Serif" font-size="10.00">Simple&#45;Utility/concepts</text>
<text text-anchor="middle" x="934" y="-260" font-family="Helvetica,sans-Serif" font-size="10.00">/operators.hpp</text>
</a>
</g>
</g>
<!-- Node23&#45;&gt;Node24 -->
<g id="edge53" class="edge">
<title>Node23&#45;&gt;Node24</title>
<path fill="none" stroke="#63b8ff" d="M793.62,-318.64C819.84,-309.36 854.19,-297.22 882.35,-287.26"/>
<polygon fill="#63b8ff" stroke="#63b8ff" points="883.51,-290.56 891.78,-283.93 881.18,-283.96 883.51,-290.56"/>
</g>
<!-- Node24&#45;&gt;Node4 -->
<g id="edge54" class="edge">
<title>Node24&#45;&gt;Node4</title>
<path fill="none" stroke="#63b8ff" d="M961.18,-252.58C1023.15,-217.92 1164.96,-127.43 1103,-55 1072.04,-18.81 929.36,-11.85 858.78,-10.65"/>
<polygon fill="#63b8ff" stroke="#63b8ff" points="859.25,-7.15 849.2,-10.52 859.15,-14.15 859.25,-7.15"/>
</g>
<!-- Node25&#45;&gt;Node18 -->
<g id="edge57" class="edge">
<title>Node25&#45;&gt;Node18</title>
<path fill="none" stroke="#63b8ff" d="M501.83,-384.64C483.68,-375.7 460.11,-364.1 440.32,-354.36"/>
<polygon fill="#63b8ff" stroke="#63b8ff" points="441.95,-351.26 431.44,-349.98 438.86,-357.54 441.95,-351.26"/>
</g>
<!-- Node25&#45;&gt;Node21 -->
<g id="edge58" class="edge">
<title>Node25&#45;&gt;Node21</title>
<path fill="none" stroke="#63b8ff" d="M549.67,-384.71C572.09,-367.88 611.17,-339.62 647,-319 666.64,-307.7 689.26,-296.76 708.54,-288.02"/>
<polygon fill="#63b8ff" stroke="#63b8ff" points="709.79,-291.29 717.49,-284.02 706.93,-284.91 709.79,-291.29"/>
</g>
<!-- Node26&#45;&gt;Node10 -->
<g id="edge60" class="edge">
<title>Node26&#45;&gt;Node10</title>
<path fill="none" stroke="#63b8ff" d="M1126.14,-318.62C1118.29,-302.44 1104.88,-275.48 1092,-253 1074.72,-222.83 1077.04,-208.86 1050,-187 1014.24,-158.1 990.27,-177.93 953,-151 932.27,-136.02 914.64,-112.63 903.16,-95.01"/>
<polygon fill="#63b8ff" stroke="#63b8ff" points="906.22,-93.3 897.94,-86.68 900.29,-97.01 906.22,-93.3"/>
</g>
<!-- Node26&#45;&gt;Node12 -->
<g id="edge63" class="edge">
<title>Node26&#45;&gt;Node12</title>
<path fill="none" stroke="#63b8ff" d="M1138.1,-318.78C1141.37,-308.89 1145.31,-295.32 1147,-283 1152.81,-240.73 1158.83,-228 1147,-187 1135.79,-148.14 1107.29,-109.75 1089.39,-88.33"/>
<polygon fill="#63b8ff" stroke="#63b8ff" points="1092.18,-86.2 1083.01,-80.89 1086.87,-90.76 1092.18,-86.2"/>
</g>
<!-- Node26&#45;&gt;Node13 -->
<g id="edge62" class="edge">
<title>Node26&#45;&gt;Node13</title>
<path fill="none" stroke="#63b8ff" d="M1179.12,-318.65C1195.99,-310.92 1213.3,-299.48 1223,-283 1260.53,-219.21 1215.79,-127.71 1193.35,-89.19"/>
<polygon fill="#63b8ff" stroke="#63b8ff" points="1196.63,-87.86 1188.48,-81.1 1190.63,-91.47 1196.63,-87.86"/>
</g>
<!-- Node26&#45;&gt;Node21 -->
<g id="edge61" class="edge">
<title>Node26&#45;&gt;Node21</title>
<path fill="none" stroke="#63b8ff" d="M1068.54,-322.14C1002.11,-310.96 898.62,-293.53 828.43,-281.7"/>
<polygon fill="#63b8ff" stroke="#63b8ff" points="829.4,-278.32 818.95,-280.11 828.23,-285.22 829.4,-278.32"/>
</g>
<!-- Node27&#45;&gt;Node9 -->
<g id="edge66" class="edge">
<title>Node27&#45;&gt;Node9</title>
<path fill="none" stroke="#63b8ff" d="M1026.33,-319.29C1045.59,-311.86 1064.59,-300.46 1076,-283 1083.29,-271.84 1080.76,-265.46 1076,-253 1061.97,-216.24 1049.55,-209.11 1017,-187 978.62,-160.93 961.81,-168.9 919,-151 873.18,-131.85 821.73,-107.18 787.56,-90.33"/>
<polygon fill="#63b8ff" stroke="#63b8ff" points="789.4,-87.34 778.89,-86.04 786.3,-93.61 789.4,-87.34"/>
</g>
<!-- Node27&#45;&gt;Node13 -->
<g id="edge69" class="edge">
<title>Node27&#45;&gt;Node13</title>
<path fill="none" stroke="#63b8ff" d="M1026.27,-319.42C1049.31,-311.89 1074,-300.39 1092,-283 1148.69,-228.23 1171.44,-132.1 1178.9,-90.78"/>
<polygon fill="#63b8ff" stroke="#63b8ff" points="1182.32,-91.56 1180.53,-81.12 1175.42,-90.4 1182.32,-91.56"/>
</g>
<!-- Node27&#45;&gt;Node21 -->
<g id="edge67" class="edge">
<title>Node27&#45;&gt;Node21</title>
<path fill="none" stroke="#63b8ff" d="M914.84,-318.56C884.01,-309.12 843.54,-296.72 810.78,-286.69"/>
<polygon fill="#63b8ff" stroke="#63b8ff" points="812.03,-283.41 801.44,-283.83 809.98,-290.11 812.03,-283.41"/>
</g>
<!-- Node27&#45;&gt;Node24 -->
<g id="edge65" class="edge">
<title>Node27&#45;&gt;Node24</title>
<path fill="none" stroke="#63b8ff" d="M955.79,-318.8C952.56,-311.42 948.52,-302.2 944.81,-293.7"/>
<polygon fill="#63b8ff" stroke="#63b8ff" points="948.02,-292.31 940.8,-284.55 941.61,-295.12 948.02,-292.31"/>
</g>
<!-- Node28 -->
<g id="node28" class="node">
<title>Node28</title>
<g id="a_node28"><a xlink:title=" ">
<polygon fill="#e0e0e0" stroke="#999999" points="1067,-277.5 1013,-277.5 1013,-258.5 1067,-258.5 1067,-277.5"/>
<text text-anchor="middle" x="1040" y="-265.5" font-family="Helvetica,sans-Serif" font-size="10.00">memory</text>
</a>
</g>
</g>
<!-- Node27&#45;&gt;Node28 -->
<g id="edge68" class="edge">
<title>Node27&#45;&gt;Node28</title>
<path fill="none" stroke="#63b8ff" d="M979.31,-318.8C991.47,-308.82 1007.76,-295.46 1020.4,-285.09"/>
<polygon fill="#63b8ff" stroke="#63b8ff" points="1022.54,-287.85 1028.05,-278.8 1018.1,-282.44 1022.54,-287.85"/>
</g>
</g>
</svg>
        <g id="navigator" transform="translate(0 0)" fill="#404254">
                <rect fill="#f2f5e9" fill-opacity="0.5" stroke="#606060" stroke-width=".5" x="0" y="0" width="60" height="60"/>
                <use id="zoomplus" xlink:href="#zoomPlus" x="17" y="9" onmousedown="handleZoom(evt,'in')"/>
                <use id="zoomminus" xlink:href="#zoomMin" x="42" y="9" onmousedown="handleZoom(evt,'out')"/>
                <use id="reset" xlink:href="#resetDef" x="30" y="36" onmousedown="handleReset()"/>
                <g id="arrowUp" xlink:href="#dirArrow" transform="translate(30 24)" onmousedown="handlePan(0,-1)">
                  <use xlink:href="#rim" fill="#404040">
                        <set attributeName="fill" to="#808080" begin="arrowUp.mouseover" end="arrowUp.mouseout"/>
                  </use>
                  <path fill="none" stroke="white" stroke-width="1.5" d="M0,-3.0v7 M-2.5,-0.5L0,-3.0L2.5,-0.5"/>
                </g>
                <g id="arrowRight" xlink:href="#dirArrow" transform="rotate(90) translate(36 -43)" onmousedown="handlePan(1,0)">
                  <use xlink:href="#rim" fill="#404040">
                        <set attributeName="fill" to="#808080" begin="arrowRight.mouseover" end="arrowRight.mouseout"/>
                  </use>
                  <path fill="none" stroke="white" stroke-width="1.5" d="M0,-3.0v7 M-2.5,-0.5L0,-3.0L2.5,-0.5"/>
                </g>
                <g id="arrowDown" xlink:href="#dirArrow" transform="rotate(180) translate(-30 -48)" onmousedown="handlePan(0,1)">
                  <use xlink:href="#rim" fill="#404040">
                        <set attributeName="fill" to="#808080" begin="arrowDown.mouseover" end="arrowDown.mouseout"/>
                  </use>
                  <path fill="none" stroke="white" stroke-width="1.5" d="M0,-3.0v7 M-2.5,-0.5L0,-3.0L2.5,-0.5"/>
                </g>
                <g id="arrowLeft" xlink:href="#dirArrow" transform="rotate(270) translate(-36 17)" onmousedown="handlePan(-1,0)">
                  <use xlink:href="#rim" fill="#404040">
                        <set attributeName="fill" to="#808080" begin="arrowLeft.mouseover" end="arrowLeft.mouseout"/>
                  </use>
                  <path fill="none" stroke="white" stroke-width="1.5" d="M0,-3.0v7 M-2.5,-0.5L0,-3.0L2.5,-0.5"/>
                </g>
        </g>
        <svg viewBox="0 0 15 15" width="100%" height="30px" preserveAspectRatio="xMaxYMin meet">
         <g id="arrow_out" transform="scale(0.3 0.3)">
          <a xlink:href="functional_8hpp__incl_org.svg" target="_base">
           <rect id="button" ry="5" rx="5" y="6" x="6" height="38" width="38"
                fill="#f2f5e9" fill-opacity="0.5" stroke="#606060" stroke-width="1.0"/>
           <path id="arrow"
             d="M 11.500037,31.436501 C 11.940474,20.09759 22.043105,11.32322 32.158766,21.979434 L 37.068811,17.246167 C 37.068811,17.246167 37.088388,32 37.088388,32 L 22.160133,31.978069 C 22.160133,31.978069 26.997745,27.140456 26.997745,27.140456 C 18.528582,18.264221 13.291696,25.230495 11.500037,31.436501 z"
             style="fill:#404040;"/>
          </a>
         </g>
        </svg>
</svg>
