<?xml version="1.0" encoding="UTF-8" standalone="no"?>
<!DOCTYPE svg PUBLIC "-//W3C//DTD SVG 1.1//EN"
 "http://www.w3.org/Graphics/SVG/1.1/DTD/svg11.dtd">
<!-- Generated by graphviz version 7.0.5 (20221223.1930)
 -->
<!-- Title: sl::type_list::concat&lt; Lists &gt; Pages: 1 -->
<svg width="678pt" height="144pt"
 viewBox="0.00 0.00 678.00 143.50" xmlns="http://www.w3.org/2000/svg" xmlns:xlink="http://www.w3.org/1999/xlink">
<g id="graph0" class="graph" transform="scale(1 1) rotate(0) translate(4 139.5)">
<title>sl::type_list::concat&lt; Lists &gt;</title>
<!-- Node1 -->
<g id="node1" class="node">
<title>Node1</title>
<g id="a_node1"><a xlink:title="Primary template isn&#39;t defined on purpose.">
<polygon fill="#999999" stroke="#666666" points="101,-85.5 0,-85.5 0,-55.5 101,-55.5 101,-85.5"/>
<text text-anchor="start" x="8" y="-73.5" font-family="Helvetica,sans-Serif" font-size="10.00">sl::type_list::concat</text>
<text text-anchor="middle" x="50.5" y="-62.5" font-family="Helvetica,sans-Serif" font-size="10.00">&lt; Lists &gt;</text>
</a>
</g>
</g>
<!-- Node2 -->
<g id="node2" class="node">
<title>Node2</title>
<g id="a_node2"><a xlink:href="../../da/de2/structsl_1_1type__list_1_1concat.html" target="_top" xlink:title=" ">
<polygon fill="white" stroke="#666666" points="455.5,-130 294.5,-130 294.5,-89 455.5,-89 455.5,-130"/>
<text text-anchor="start" x="302.5" y="-118" font-family="Helvetica,sans-Serif" font-size="10.00">sl::type_list::concat</text>
<text text-anchor="start" x="302.5" y="-107" font-family="Helvetica,sans-Serif" font-size="10.00">&lt; LhsContainer&lt; LhsElements...,</text>
<text text-anchor="middle" x="375" y="-96" font-family="Helvetica,sans-Serif" font-size="10.00"> RhsElements... &gt;, Others... &gt;</text>
</a>
</g>
</g>
<!-- Node1&#45;&gt;Node2 -->
<g id="edge1" class="edge">
<title>Node1&#45;&gt;Node2</title>
<path fill="none" stroke="orange" stroke-dasharray="5,2" d="M112.48,-86.33C114.68,-86.75 116.85,-87.14 119,-87.5 177.17,-97.27 243.58,-102.82 294.05,-105.91"/>
<polygon fill="orange" stroke="orange" points="113.43,-82.95 102.92,-84.34 112,-89.8 113.43,-82.95"/>
<text text-anchor="start" x="119" y="-117.5" font-family="Helvetica,sans-Serif" font-size="10.00"> &lt; LhsContainer&lt; LhsElements...,</text>
<text text-anchor="middle" x="193" y="-106.5" font-family="Helvetica,sans-Serif" font-size="10.00"> RhsElements... &gt;, Others... &gt;</text>
</g>
<!-- Node4 -->
<g id="node4" class="node">
<title>Node4</title>
<g id="a_node4"><a xlink:href="../../da/de2/structsl_1_1type__list_1_1concat.html" target="_top" xlink:title=" ">
<polygon fill="white" stroke="#666666" points="465,-63 285,-63 285,0 465,0 465,-63"/>
<text text-anchor="start" x="293" y="-51" font-family="Helvetica,sans-Serif" font-size="10.00">sl::type_list::concat</text>
<text text-anchor="start" x="293" y="-40" font-family="Helvetica,sans-Serif" font-size="10.00">&lt; difference_as_t&lt; TargetContainer,</text>
<text text-anchor="start" x="293" y="-29" font-family="Helvetica,sans-Serif" font-size="10.00"> First, Second &gt;, difference</text>
<text text-anchor="start" x="293" y="-18" font-family="Helvetica,sans-Serif" font-size="10.00">_as_t&lt; TargetContainer, Second,</text>
<text text-anchor="middle" x="375" y="-7" font-family="Helvetica,sans-Serif" font-size="10.00"> First &gt; &gt;</text>
</a>
</g>
</g>
<!-- Node1&#45;&gt;Node4 -->
<g id="edge3" class="edge">
<title>Node1&#45;&gt;Node4</title>
<path fill="none" stroke="orange" stroke-dasharray="5,2" d="M79.04,-48.51C90.67,-40.56 104.8,-32.56 119,-28.5 172.53,-13.21 235,-13.66 284.71,-18.08"/>
<polygon fill="orange" stroke="orange" points="77.21,-45.51 71.14,-54.19 81.3,-51.19 77.21,-45.51"/>
<text text-anchor="start" x="126.5" y="-75.5" font-family="Helvetica,sans-Serif" font-size="10.00"> &lt; difference_as_t&lt;</text>
<text text-anchor="start" x="126.5" y="-64.5" font-family="Helvetica,sans-Serif" font-size="10.00"> TargetContainer, First,</text>
<text text-anchor="start" x="126.5" y="-53.5" font-family="Helvetica,sans-Serif" font-size="10.00"> Second &gt;, difference_as</text>
<text text-anchor="start" x="126.5" y="-42.5" font-family="Helvetica,sans-Serif" font-size="10.00">_t&lt; TargetContainer, Second,</text>
<text text-anchor="middle" x="193" y="-31.5" font-family="Helvetica,sans-Serif" font-size="10.00"> First &gt; &gt;</text>
</g>
<!-- Node3 -->
<g id="node3" class="node">
<title>Node3</title>
<g id="a_node3"><a xlink:href="../../d8/d54/structsl_1_1type__list_1_1concat_3_01_lhs_container_3_01_lhs_elements_8_8_8_01_4_00_01_rhs_conta7009fe165327d5b38426b1aad4e78ff7.html" target="_top" xlink:title="Specialization appending all elements of the second type&#45;list at the back of the first type&#45;list and ...">
<polygon fill="white" stroke="#666666" points="668.5,-135.5 503.5,-135.5 503.5,-83.5 668.5,-83.5 668.5,-135.5"/>
<text text-anchor="start" x="511.5" y="-123.5" font-family="Helvetica,sans-Serif" font-size="10.00">sl::type_list::concat</text>
<text text-anchor="start" x="511.5" y="-112.5" font-family="Helvetica,sans-Serif" font-size="10.00">&lt; LhsContainer&lt; LhsElements...</text>
<text text-anchor="start" x="511.5" y="-101.5" font-family="Helvetica,sans-Serif" font-size="10.00"> &gt;, RhsContainer&lt; RhsElements...</text>
<text text-anchor="middle" x="586" y="-90.5" font-family="Helvetica,sans-Serif" font-size="10.00"> &gt;, Others... &gt;</text>
</a>
</g>
</g>
<!-- Node2&#45;&gt;Node3 -->
<g id="edge2" class="edge">
<title>Node2&#45;&gt;Node3</title>
<path fill="none" stroke="#63b8ff" d="M467.24,-109.5C479.16,-109.5 491.31,-109.5 503.06,-109.5"/>
<polygon fill="#63b8ff" stroke="#63b8ff" points="467.42,-106 457.42,-109.5 467.42,-113 467.42,-106"/>
</g>
<!-- Node5 -->
<g id="node5" class="node">
<title>Node5</title>
<g id="a_node5"><a xlink:href="../../df/d55/structsl_1_1type__list_1_1symmetric__difference__as.html" target="_top" xlink:title="Determines which elements are in either of the source type&#45;lists, but not in both....">
<polygon fill="white" stroke="#666666" points="670,-52 502,-52 502,-11 670,-11 670,-52"/>
<text text-anchor="start" x="510" y="-40" font-family="Helvetica,sans-Serif" font-size="10.00">sl::type_list::symmetric</text>
<text text-anchor="start" x="510" y="-29" font-family="Helvetica,sans-Serif" font-size="10.00">_difference_as&lt; TargetContainer,</text>
<text text-anchor="middle" x="586" y="-18" font-family="Helvetica,sans-Serif" font-size="10.00"> First, Second &gt;</text>
</a>
</g>
</g>
<!-- Node4&#45;&gt;Node5 -->
<g id="edge4" class="edge">
<title>Node4&#45;&gt;Node5</title>
<path fill="none" stroke="#63b8ff" d="M476.64,-31.5C485.03,-31.5 493.45,-31.5 501.69,-31.5"/>
<polygon fill="#63b8ff" stroke="#63b8ff" points="476.75,-28 466.75,-31.5 476.75,-35 476.75,-28"/>
</g>
</g>
</svg>
