<?xml version="1.0" encoding="UTF-8" standalone="no"?>
<!DOCTYPE svg PUBLIC "-//W3C//DTD SVG 1.1//EN"
 "http://www.w3.org/Graphics/SVG/1.1/DTD/svg11.dtd">
<!-- Generated by graphviz version 8.0.5 (20230430.1635)
 -->
<!-- Title: sl::type_list::concat&lt; Lists &gt; Pages: 1 -->
<svg width="676pt" height="160pt"
 viewBox="0.00 0.00 675.75 160.38" xmlns="http://www.w3.org/2000/svg" xmlns:xlink="http://www.w3.org/1999/xlink">
<g id="graph0" class="graph" transform="scale(1 1) rotate(0) translate(4 156.38)">
<title>sl::type_list::concat&lt; Lists &gt;</title>
<!-- Node1 -->
<g id="node1" class="node">
<title>Node1</title>
<g id="a_node1"><a xlink:title="Primary template isn&#39;t defined on purpose.">
<polygon fill="#999999" stroke="#666666" points="100.75,-95.62 0,-95.62 0,-62.12 100.75,-62.12 100.75,-95.62"/>
<text text-anchor="start" x="8" y="-82.12" font-family="Helvetica,sans-Serif" font-size="10.00">sl::type_list::concat</text>
<text text-anchor="middle" x="50.38" y="-69.38" font-family="Helvetica,sans-Serif" font-size="10.00">&lt; Lists &gt;</text>
</a>
</g>
</g>
<!-- Node2 -->
<g id="node2" class="node">
<title>Node2</title>
<g id="a_node2"><a xlink:href="../../da/de2/structsl_1_1type__list_1_1concat.html" target="_top" xlink:title=" ">
<polygon fill="white" stroke="#666666" points="453.88,-146 293.12,-146 293.12,-99.75 453.88,-99.75 453.88,-146"/>
<text text-anchor="start" x="301.12" y="-132.5" font-family="Helvetica,sans-Serif" font-size="10.00">sl::type_list::concat</text>
<text text-anchor="start" x="301.12" y="-119.75" font-family="Helvetica,sans-Serif" font-size="10.00">&lt; LhsContainer&lt; LhsElements...,</text>
<text text-anchor="middle" x="373.5" y="-107" font-family="Helvetica,sans-Serif" font-size="10.00"> RhsElements... &gt;, Others... &gt;</text>
</a>
</g>
</g>
<!-- Node1&#45;&gt;Node2 -->
<g id="edge1" class="edge">
<title>Node1&#45;&gt;Node2</title>
<path fill="none" stroke="orange" stroke-dasharray="5,2" d="M110.12,-98.92C113.02,-99.64 115.91,-100.3 118.75,-100.88 176.27,-112.6 242.37,-118.08 292.68,-120.64"/>
<polygon fill="orange" stroke="orange" points="111.16,-95.31 100.6,-96.09 109.34,-102.07 111.16,-95.31"/>
<text text-anchor="start" x="118.75" y="-133.88" font-family="Helvetica,sans-Serif" font-size="10.00"> &lt; LhsContainer&lt; LhsElements...,</text>
<text text-anchor="middle" x="192.25" y="-121.12" font-family="Helvetica,sans-Serif" font-size="10.00"> RhsElements... &gt;, Others... &gt;</text>
</g>
<!-- Node4 -->
<g id="node4" class="node">
<title>Node4</title>
<g id="a_node4"><a xlink:href="../../da/de2/structsl_1_1type__list_1_1concat.html" target="_top" xlink:title=" ">
<polygon fill="white" stroke="#666666" points="463.25,-71.75 283.75,-71.75 283.75,0 463.25,0 463.25,-71.75"/>
<text text-anchor="start" x="291.75" y="-58.25" font-family="Helvetica,sans-Serif" font-size="10.00">sl::type_list::concat</text>
<text text-anchor="start" x="291.75" y="-45.5" font-family="Helvetica,sans-Serif" font-size="10.00">&lt; difference_as_t&lt; TargetContainer,</text>
<text text-anchor="start" x="291.75" y="-32.75" font-family="Helvetica,sans-Serif" font-size="10.00"> First, Second &gt;, difference</text>
<text text-anchor="start" x="291.75" y="-20" font-family="Helvetica,sans-Serif" font-size="10.00">_as_t&lt; TargetContainer, Second,</text>
<text text-anchor="middle" x="373.5" y="-7.25" font-family="Helvetica,sans-Serif" font-size="10.00"> First &gt; &gt;</text>
</a>
</g>
</g>
<!-- Node1&#45;&gt;Node4 -->
<g id="edge3" class="edge">
<title>Node1&#45;&gt;Node4</title>
<path fill="none" stroke="orange" stroke-dasharray="5,2" d="M81.21,-55.49C92.35,-48.13 105.52,-40.93 118.75,-37.12 171.89,-21.85 233.91,-21.26 283.33,-24.61"/>
<polygon fill="orange" stroke="orange" points="79.57,-53.06 73.37,-61.65 83.57,-58.81 79.57,-53.06"/>
<text text-anchor="start" x="126.25" y="-92.12" font-family="Helvetica,sans-Serif" font-size="10.00"> &lt; difference_as_t&lt;</text>
<text text-anchor="start" x="126.25" y="-79.38" font-family="Helvetica,sans-Serif" font-size="10.00"> TargetContainer, First,</text>
<text text-anchor="start" x="126.25" y="-66.62" font-family="Helvetica,sans-Serif" font-size="10.00"> Second &gt;, difference_as</text>
<text text-anchor="start" x="126.25" y="-53.88" font-family="Helvetica,sans-Serif" font-size="10.00">_t&lt; TargetContainer, Second,</text>
<text text-anchor="middle" x="192.25" y="-41.12" font-family="Helvetica,sans-Serif" font-size="10.00"> First &gt; &gt;</text>
</g>
<!-- Node3 -->
<g id="node3" class="node">
<title>Node3</title>
<g id="a_node3"><a xlink:href="../../d8/d54/structsl_1_1type__list_1_1concat_3_01_lhs_container_3_01_lhs_elements_8_8_8_01_4_00_01_rhs_conta7009fe165327d5b38426b1aad4e78ff7.html" target="_top" xlink:title="Specialization appending all elements of the second type&#45;list at the back of the first type&#45;list and ...">
<polygon fill="white" stroke="#666666" points="666.25,-152.38 501.75,-152.38 501.75,-93.38 666.25,-93.38 666.25,-152.38"/>
<text text-anchor="start" x="509.75" y="-138.88" font-family="Helvetica,sans-Serif" font-size="10.00">sl::type_list::concat</text>
<text text-anchor="start" x="509.75" y="-126.12" font-family="Helvetica,sans-Serif" font-size="10.00">&lt; LhsContainer&lt; LhsElements...</text>
<text text-anchor="start" x="509.75" y="-113.38" font-family="Helvetica,sans-Serif" font-size="10.00"> &gt;, RhsContainer&lt; RhsElements...</text>
<text text-anchor="middle" x="584" y="-100.62" font-family="Helvetica,sans-Serif" font-size="10.00"> &gt;, Others... &gt;</text>
</a>
</g>
</g>
<!-- Node2&#45;&gt;Node3 -->
<g id="edge2" class="edge">
<title>Node2&#45;&gt;Node3</title>
<path fill="none" stroke="#63b8ff" d="M465.16,-122.88C477.16,-122.88 489.41,-122.88 501.25,-122.88"/>
<polygon fill="#63b8ff" stroke="#63b8ff" points="465.22,-119.38 455.22,-122.88 465.22,-126.38 465.22,-119.38"/>
</g>
<!-- Node5 -->
<g id="node5" class="node">
<title>Node5</title>
<g id="a_node5"><a xlink:href="../../df/d55/structsl_1_1type__list_1_1symmetric__difference__as.html" target="_top" xlink:title="Determines which elements are in either of the source type&#45;lists, but not in both....">
<polygon fill="white" stroke="#666666" points="667.75,-59 500.25,-59 500.25,-12.75 667.75,-12.75 667.75,-59"/>
<text text-anchor="start" x="508.25" y="-45.5" font-family="Helvetica,sans-Serif" font-size="10.00">sl::type_list::symmetric</text>
<text text-anchor="start" x="508.25" y="-32.75" font-family="Helvetica,sans-Serif" font-size="10.00">_difference_as&lt; TargetContainer,</text>
<text text-anchor="middle" x="584" y="-20" font-family="Helvetica,sans-Serif" font-size="10.00"> First, Second &gt;</text>
</a>
</g>
</g>
<!-- Node4&#45;&gt;Node5 -->
<g id="edge4" class="edge">
<title>Node4&#45;&gt;Node5</title>
<path fill="none" stroke="#63b8ff" d="M474.33,-35.88C482.89,-35.88 491.48,-35.88 499.89,-35.88"/>
<polygon fill="#63b8ff" stroke="#63b8ff" points="474.53,-32.38 464.53,-35.88 474.53,-39.38 474.53,-32.38"/>
</g>
</g>
</svg>
