<?xml version="1.0" encoding="UTF-8" standalone="no"?>
<!DOCTYPE svg PUBLIC "-//W3C//DTD SVG 1.1//EN"
 "http://www.w3.org/Graphics/SVG/1.1/DTD/svg11.dtd">
<!-- Generated by graphviz version 2.43.0 (0)
 -->
<!-- Title: /home/runner/work/Simple&#45;Utility/Simple&#45;Utility/include/Simple&#45;Utility/nullables/and_then.hpp Pages: 1 -->
<svg width="1035pt" height="385pt"
 viewBox="0.00 0.00 1035.00 385.00" xmlns="http://www.w3.org/2000/svg" xmlns:xlink="http://www.w3.org/1999/xlink">
<g id="graph0" class="graph" transform="scale(1 1) rotate(0) translate(4 381)">
<title>/home/runner/work/Simple&#45;Utility/Simple&#45;Utility/include/Simple&#45;Utility/nullables/and_then.hpp</title>
<polygon fill="white" stroke="transparent" points="-4,4 -4,-381 1031,-381 1031,4 -4,4"/>
<!-- Node1 -->
<g id="node1" class="node">
<title>Node1</title>
<g id="a_node1"><a xlink:title=" ">
<polygon fill="#bfbfbf" stroke="black" points="594.5,-324.5 594.5,-376.5 740.5,-376.5 740.5,-324.5 594.5,-324.5"/>
<text text-anchor="start" x="602.5" y="-364.5" font-family="Helvetica,sans-Serif" font-size="10.00">/home/runner/work/Simple</text>
<text text-anchor="start" x="602.5" y="-353.5" font-family="Helvetica,sans-Serif" font-size="10.00">&#45;Utility/Simple&#45;Utility</text>
<text text-anchor="start" x="602.5" y="-342.5" font-family="Helvetica,sans-Serif" font-size="10.00">/include/Simple&#45;Utility</text>
<text text-anchor="middle" x="667.5" y="-331.5" font-family="Helvetica,sans-Serif" font-size="10.00">/nullables/and_then.hpp</text>
</a>
</g>
</g>
<!-- Node2 -->
<g id="node2" class="node">
<title>Node2</title>
<g id="a_node2"><a xlink:href="../../d6/dbe/nullables_2base_8hpp.html" target="_top" xlink:title=" ">
<polygon fill="white" stroke="black" points="487,-257.5 487,-287.5 618,-287.5 618,-257.5 487,-257.5"/>
<text text-anchor="start" x="495" y="-275.5" font-family="Helvetica,sans-Serif" font-size="10.00">Simple&#45;Utility/nullables</text>
<text text-anchor="middle" x="552.5" y="-264.5" font-family="Helvetica,sans-Serif" font-size="10.00">/base.hpp</text>
</a>
</g>
</g>
<!-- Node1&#45;&gt;Node2 -->
<g id="edge1" class="edge">
<title>Node1&#45;&gt;Node2</title>
<path fill="none" stroke="midnightblue" d="M629.53,-324.4C614.25,-314.31 596.88,-302.83 582.51,-293.33"/>
<polygon fill="midnightblue" stroke="midnightblue" points="584.27,-290.3 574,-287.71 580.41,-296.14 584.27,-290.3"/>
</g>
<!-- Node17 -->
<g id="node17" class="node">
<title>Node17</title>
<g id="a_node17"><a xlink:href="../../d6/deb/transform_8hpp.html" target="_top" xlink:title=" ">
<polygon fill="white" stroke="black" points="741.5,-257.5 741.5,-287.5 877.5,-287.5 877.5,-257.5 741.5,-257.5"/>
<text text-anchor="start" x="749.5" y="-275.5" font-family="Helvetica,sans-Serif" font-size="10.00">Simple&#45;Utility/functional</text>
<text text-anchor="middle" x="809.5" y="-264.5" font-family="Helvetica,sans-Serif" font-size="10.00">/transform.hpp</text>
</a>
</g>
</g>
<!-- Node1&#45;&gt;Node17 -->
<g id="edge27" class="edge">
<title>Node1&#45;&gt;Node17</title>
<path fill="none" stroke="midnightblue" d="M714.39,-324.4C733.79,-314.02 755.91,-302.18 773.94,-292.53"/>
<polygon fill="midnightblue" stroke="midnightblue" points="775.79,-295.51 782.96,-287.71 772.49,-289.34 775.79,-295.51"/>
</g>
<!-- Node3 -->
<g id="node3" class="node">
<title>Node3</title>
<g id="a_node3"><a xlink:href="../../dd/d5c/stl__extensions_8hpp.html" target="_top" xlink:title=" ">
<polygon fill="white" stroke="black" points="55,-56.5 55,-86.5 186,-86.5 186,-56.5 55,-56.5"/>
<text text-anchor="start" x="63" y="-74.5" font-family="Helvetica,sans-Serif" font-size="10.00">Simple&#45;Utility/concepts</text>
<text text-anchor="middle" x="120.5" y="-63.5" font-family="Helvetica,sans-Serif" font-size="10.00">/stl_extensions.hpp</text>
</a>
</g>
</g>
<!-- Node2&#45;&gt;Node3 -->
<g id="edge2" class="edge">
<title>Node2&#45;&gt;Node3</title>
<path fill="none" stroke="midnightblue" d="M521.78,-257.35C445.14,-222.04 245.54,-130.1 160.17,-90.77"/>
<polygon fill="midnightblue" stroke="midnightblue" points="161.61,-87.58 151.07,-86.58 158.68,-93.94 161.61,-87.58"/>
</g>
<!-- Node5 -->
<g id="node5" class="node">
<title>Node5</title>
<g id="a_node5"><a xlink:href="../../dd/dcd/operators_8hpp.html" target="_top" xlink:title=" ">
<polygon fill="white" stroke="black" points="0,-123.5 0,-153.5 131,-153.5 131,-123.5 0,-123.5"/>
<text text-anchor="start" x="8" y="-141.5" font-family="Helvetica,sans-Serif" font-size="10.00">Simple&#45;Utility/concepts</text>
<text text-anchor="middle" x="65.5" y="-130.5" font-family="Helvetica,sans-Serif" font-size="10.00">/operators.hpp</text>
</a>
</g>
</g>
<!-- Node2&#45;&gt;Node5 -->
<g id="edge4" class="edge">
<title>Node2&#45;&gt;Node5</title>
<path fill="none" stroke="midnightblue" d="M486.92,-261.16C435.06,-252.35 361.06,-238.36 297.5,-221 230.99,-202.83 156.05,-175.15 109.8,-157.19"/>
<polygon fill="midnightblue" stroke="midnightblue" points="110.97,-153.89 100.38,-153.51 108.42,-160.41 110.97,-153.89"/>
</g>
<!-- Node6 -->
<g id="node6" class="node">
<title>Node6</title>
<g id="a_node6"><a xlink:href="../../d1/d76/functional_2base_8hpp.html" target="_top" xlink:title=" ">
<polygon fill="white" stroke="black" points="415.5,-123.5 415.5,-153.5 551.5,-153.5 551.5,-123.5 415.5,-123.5"/>
<text text-anchor="start" x="423.5" y="-141.5" font-family="Helvetica,sans-Serif" font-size="10.00">Simple&#45;Utility/functional</text>
<text text-anchor="middle" x="483.5" y="-130.5" font-family="Helvetica,sans-Serif" font-size="10.00">/base.hpp</text>
</a>
</g>
</g>
<!-- Node2&#45;&gt;Node6 -->
<g id="edge6" class="edge">
<title>Node2&#45;&gt;Node6</title>
<path fill="none" stroke="midnightblue" d="M525.98,-257.34C512.63,-248.71 497.59,-236.38 489.5,-221 480.29,-203.49 479.33,-180.87 480.37,-163.91"/>
<polygon fill="midnightblue" stroke="midnightblue" points="483.88,-163.96 481.27,-153.69 476.91,-163.34 483.88,-163.96"/>
</g>
<!-- Node8 -->
<g id="node8" class="node">
<title>Node8</title>
<g id="a_node8"><a xlink:title=" ">
<polygon fill="white" stroke="#bfbfbf" points="759,-0.5 759,-19.5 828,-19.5 828,-0.5 759,-0.5"/>
<text text-anchor="middle" x="793.5" y="-7.5" font-family="Helvetica,sans-Serif" font-size="10.00">type_traits</text>
</a>
</g>
</g>
<!-- Node2&#45;&gt;Node8 -->
<g id="edge26" class="edge">
<title>Node2&#45;&gt;Node8</title>
<path fill="none" stroke="midnightblue" d="M566.95,-257.16C588.97,-235.36 629.16,-195.78 636.5,-190 703.83,-136.99 758.14,-162.06 799.5,-87 809.26,-69.29 805.23,-45.66 800.4,-29.47"/>
<polygon fill="midnightblue" stroke="midnightblue" points="803.59,-27.99 797.09,-19.63 796.96,-30.22 803.59,-27.99"/>
</g>
<!-- Node10 -->
<g id="node10" class="node">
<title>Node10</title>
<g id="a_node10"><a xlink:href="../../d4/d1c/unified__base_8hpp.html" target="_top" xlink:title=" ">
<polygon fill="white" stroke="black" points="670.5,-56.5 670.5,-86.5 790.5,-86.5 790.5,-56.5 670.5,-56.5"/>
<text text-anchor="start" x="678.5" y="-74.5" font-family="Helvetica,sans-Serif" font-size="10.00">Simple&#45;Utility/unified</text>
<text text-anchor="middle" x="730.5" y="-63.5" font-family="Helvetica,sans-Serif" font-size="10.00">_base.hpp</text>
</a>
</g>
</g>
<!-- Node2&#45;&gt;Node10 -->
<g id="edge24" class="edge">
<title>Node2&#45;&gt;Node10</title>
<path fill="none" stroke="midnightblue" d="M559.77,-257.49C568.85,-240.62 585.4,-211.85 603.5,-190 634.58,-152.47 677.27,-115.32 704.37,-93.14"/>
<polygon fill="midnightblue" stroke="midnightblue" points="706.69,-95.77 712.25,-86.76 702.28,-90.33 706.69,-95.77"/>
</g>
<!-- Node12 -->
<g id="node12" class="node">
<title>Node12</title>
<g id="a_node12"><a xlink:href="../../d9/d76/bind_8hpp.html" target="_top" xlink:title=" ">
<polygon fill="white" stroke="black" points="645.5,-190.5 645.5,-220.5 781.5,-220.5 781.5,-190.5 645.5,-190.5"/>
<text text-anchor="start" x="653.5" y="-208.5" font-family="Helvetica,sans-Serif" font-size="10.00">Simple&#45;Utility/functional</text>
<text text-anchor="middle" x="713.5" y="-197.5" font-family="Helvetica,sans-Serif" font-size="10.00">/operators/bind.hpp</text>
</a>
</g>
</g>
<!-- Node2&#45;&gt;Node12 -->
<g id="edge17" class="edge">
<title>Node2&#45;&gt;Node12</title>
<path fill="none" stroke="midnightblue" d="M587.43,-257.4C611.38,-247.73 643.35,-234.82 669.1,-224.43"/>
<polygon fill="midnightblue" stroke="midnightblue" points="670.67,-227.57 678.63,-220.58 668.05,-221.07 670.67,-227.57"/>
</g>
<!-- Node16 -->
<g id="node16" class="node">
<title>Node16</title>
<g id="a_node16"><a xlink:title=" ">
<polygon fill="white" stroke="#bfbfbf" points="498,-196 498,-215 551,-215 551,-196 498,-196"/>
<text text-anchor="middle" x="524.5" y="-203" font-family="Helvetica,sans-Serif" font-size="10.00">cstddef</text>
</a>
</g>
</g>
<!-- Node2&#45;&gt;Node16 -->
<g id="edge25" class="edge">
<title>Node2&#45;&gt;Node16</title>
<path fill="none" stroke="midnightblue" d="M546.42,-257.4C542.27,-247.76 536.74,-234.91 532.27,-224.54"/>
<polygon fill="midnightblue" stroke="midnightblue" points="535.42,-222.99 528.25,-215.19 528.99,-225.76 535.42,-222.99"/>
</g>
<!-- Node4 -->
<g id="node4" class="node">
<title>Node4</title>
<g id="a_node4"><a xlink:title=" ">
<polygon fill="white" stroke="#bfbfbf" points="231.5,-0.5 231.5,-19.5 291.5,-19.5 291.5,-0.5 231.5,-0.5"/>
<text text-anchor="middle" x="261.5" y="-7.5" font-family="Helvetica,sans-Serif" font-size="10.00">concepts</text>
</a>
</g>
</g>
<!-- Node3&#45;&gt;Node4 -->
<g id="edge3" class="edge">
<title>Node3&#45;&gt;Node4</title>
<path fill="none" stroke="midnightblue" d="M153.92,-56.4C177.47,-46.46 208.74,-33.26 231.49,-23.66"/>
<polygon fill="midnightblue" stroke="midnightblue" points="233.13,-26.77 240.98,-19.66 230.41,-20.32 233.13,-26.77"/>
</g>
<!-- Node5&#45;&gt;Node4 -->
<g id="edge5" class="edge">
<title>Node5&#45;&gt;Node4</title>
<path fill="none" stroke="midnightblue" d="M55.35,-123.21C44.15,-105.55 29.69,-75.44 45.5,-56 67.23,-29.28 164.99,-17.9 221.26,-13.49"/>
<polygon fill="midnightblue" stroke="midnightblue" points="221.55,-16.97 231.26,-12.74 221.03,-9.99 221.55,-16.97"/>
</g>
<!-- Node6&#45;&gt;Node3 -->
<g id="edge14" class="edge">
<title>Node6&#45;&gt;Node3</title>
<path fill="none" stroke="midnightblue" d="M415.44,-125.41C358.11,-115.21 273.93,-100.21 200.5,-87 199.21,-86.77 197.91,-86.53 196.6,-86.3"/>
<polygon fill="midnightblue" stroke="midnightblue" points="196.88,-82.79 186.42,-84.46 195.64,-89.68 196.88,-82.79"/>
</g>
<!-- Node6&#45;&gt;Node4 -->
<g id="edge7" class="edge">
<title>Node6&#45;&gt;Node4</title>
<path fill="none" stroke="midnightblue" d="M415.4,-133.22C349.42,-127.49 256.11,-114.63 233.5,-87 219.24,-69.58 233.77,-44.22 246.65,-27.67"/>
<polygon fill="midnightblue" stroke="midnightblue" points="249.4,-29.84 253.08,-19.91 244.01,-25.38 249.4,-29.84"/>
</g>
<!-- Node7 -->
<g id="node7" class="node">
<title>Node7</title>
<g id="a_node7"><a xlink:title=" ">
<polygon fill="white" stroke="#bfbfbf" points="392,-62 392,-81 457,-81 457,-62 392,-62"/>
<text text-anchor="middle" x="424.5" y="-69" font-family="Helvetica,sans-Serif" font-size="10.00">functional</text>
</a>
</g>
</g>
<!-- Node6&#45;&gt;Node7 -->
<g id="edge8" class="edge">
<title>Node6&#45;&gt;Node7</title>
<path fill="none" stroke="midnightblue" d="M470.7,-123.4C461.41,-113.16 448.82,-99.3 439.13,-88.62"/>
<polygon fill="midnightblue" stroke="midnightblue" points="441.7,-86.25 432.39,-81.19 436.52,-90.95 441.7,-86.25"/>
</g>
<!-- Node6&#45;&gt;Node8 -->
<g id="edge9" class="edge">
<title>Node6&#45;&gt;Node8</title>
<path fill="none" stroke="midnightblue" d="M535.21,-123.45C562.45,-114.93 595.84,-102.66 623.5,-87 642.47,-76.26 642.44,-66.57 661.5,-56 689,-40.74 722.58,-29.38 748.99,-21.89"/>
<polygon fill="midnightblue" stroke="midnightblue" points="750.02,-25.24 758.73,-19.21 748.16,-18.49 750.02,-25.24"/>
</g>
<!-- Node9 -->
<g id="node9" class="node">
<title>Node9</title>
<g id="a_node9"><a xlink:href="../../d8/dd2/_config_8hpp.html" target="_top" xlink:title=" ">
<polygon fill="white" stroke="black" points="475,-62 475,-81 614,-81 614,-62 475,-62"/>
<text text-anchor="middle" x="544.5" y="-69" font-family="Helvetica,sans-Serif" font-size="10.00">Simple&#45;Utility/Config.hpp</text>
</a>
</g>
</g>
<!-- Node6&#45;&gt;Node9 -->
<g id="edge10" class="edge">
<title>Node6&#45;&gt;Node9</title>
<path fill="none" stroke="midnightblue" d="M496.74,-123.4C506.34,-113.16 519.35,-99.3 529.37,-88.62"/>
<polygon fill="midnightblue" stroke="midnightblue" points="532.05,-90.88 536.34,-81.19 526.95,-86.09 532.05,-90.88"/>
</g>
<!-- Node6&#45;&gt;Node10 -->
<g id="edge11" class="edge">
<title>Node6&#45;&gt;Node10</title>
<path fill="none" stroke="midnightblue" d="M536.79,-123.48C575.05,-113.41 626.76,-99.8 667.14,-89.17"/>
<polygon fill="midnightblue" stroke="midnightblue" points="668.1,-92.54 676.88,-86.61 666.32,-85.77 668.1,-92.54"/>
</g>
<!-- Node11 -->
<g id="node11" class="node">
<title>Node11</title>
<g id="a_node11"><a xlink:href="../../d5/d8e/concepts_2utility_8hpp.html" target="_top" xlink:title=" ">
<polygon fill="white" stroke="black" points="243,-56.5 243,-86.5 374,-86.5 374,-56.5 243,-56.5"/>
<text text-anchor="start" x="251" y="-74.5" font-family="Helvetica,sans-Serif" font-size="10.00">Simple&#45;Utility/concepts</text>
<text text-anchor="middle" x="308.5" y="-63.5" font-family="Helvetica,sans-Serif" font-size="10.00">/utility.hpp</text>
</a>
</g>
</g>
<!-- Node6&#45;&gt;Node11 -->
<g id="edge15" class="edge">
<title>Node6&#45;&gt;Node11</title>
<path fill="none" stroke="midnightblue" d="M445.53,-123.4C419.27,-113.64 384.14,-100.59 356.02,-90.15"/>
<polygon fill="midnightblue" stroke="midnightblue" points="356.99,-86.78 346.4,-86.58 354.55,-93.34 356.99,-86.78"/>
</g>
<!-- Node10&#45;&gt;Node4 -->
<g id="edge12" class="edge">
<title>Node10&#45;&gt;Node4</title>
<path fill="none" stroke="midnightblue" d="M670.25,-62.22C655,-60.15 638.65,-57.97 623.5,-56 506.66,-40.82 368.45,-23.94 301.64,-15.84"/>
<polygon fill="midnightblue" stroke="midnightblue" points="301.9,-12.35 291.55,-14.62 301.06,-19.3 301.9,-12.35"/>
</g>
<!-- Node10&#45;&gt;Node8 -->
<g id="edge13" class="edge">
<title>Node10&#45;&gt;Node8</title>
<path fill="none" stroke="midnightblue" d="M745.43,-56.4C754.87,-47.49 767.08,-35.95 776.83,-26.74"/>
<polygon fill="midnightblue" stroke="midnightblue" points="779.47,-29.07 784.33,-19.66 774.66,-23.98 779.47,-29.07"/>
</g>
<!-- Node11&#45;&gt;Node4 -->
<g id="edge16" class="edge">
<title>Node11&#45;&gt;Node4</title>
<path fill="none" stroke="midnightblue" d="M297.36,-56.4C290.53,-47.75 281.76,-36.64 274.59,-27.58"/>
<polygon fill="midnightblue" stroke="midnightblue" points="277.28,-25.34 268.34,-19.66 271.79,-29.67 277.28,-25.34"/>
</g>
<!-- Node12&#45;&gt;Node6 -->
<g id="edge18" class="edge">
<title>Node12&#45;&gt;Node6</title>
<path fill="none" stroke="midnightblue" d="M663.88,-190.48C628.48,-180.47 580.71,-166.97 543.22,-156.38"/>
<polygon fill="midnightblue" stroke="midnightblue" points="544.01,-152.96 533.43,-153.61 542.1,-159.7 544.01,-152.96"/>
</g>
<!-- Node13 -->
<g id="node13" class="node">
<title>Node13</title>
<g id="a_node13"><a xlink:href="../../d2/d30/general_8hpp.html" target="_top" xlink:title=" ">
<polygon fill="white" stroke="black" points="887.5,-123.5 887.5,-153.5 999.5,-153.5 999.5,-123.5 887.5,-123.5"/>
<text text-anchor="start" x="895.5" y="-141.5" font-family="Helvetica,sans-Serif" font-size="10.00">Simple&#45;Utility/tuple</text>
<text text-anchor="middle" x="943.5" y="-130.5" font-family="Helvetica,sans-Serif" font-size="10.00">/general.hpp</text>
</a>
</g>
</g>
<!-- Node12&#45;&gt;Node13 -->
<g id="edge19" class="edge">
<title>Node12&#45;&gt;Node13</title>
<path fill="none" stroke="midnightblue" d="M763.12,-190.48C798.52,-180.47 846.29,-166.97 883.78,-156.38"/>
<polygon fill="midnightblue" stroke="midnightblue" points="884.9,-159.7 893.57,-153.61 882.99,-152.96 884.9,-159.7"/>
</g>
<!-- Node13&#45;&gt;Node4 -->
<g id="edge20" class="edge">
<title>Node13&#45;&gt;Node4</title>
<path fill="none" stroke="midnightblue" d="M921.45,-123.46C887.75,-102.28 824.69,-63.77 799.5,-56 706.54,-27.32 410.58,-15.56 301.97,-12.14"/>
<polygon fill="midnightblue" stroke="midnightblue" points="301.86,-8.64 291.76,-11.83 301.65,-15.63 301.86,-8.64"/>
</g>
<!-- Node13&#45;&gt;Node8 -->
<g id="edge22" class="edge">
<title>Node13&#45;&gt;Node8</title>
<path fill="none" stroke="midnightblue" d="M933.02,-123.31C919.78,-106 895.66,-76.54 870.5,-56 855.2,-43.51 836.04,-32.3 820.65,-24.19"/>
<polygon fill="midnightblue" stroke="midnightblue" points="822.13,-21.01 811.63,-19.56 818.93,-27.24 822.13,-21.01"/>
</g>
<!-- Node14 -->
<g id="node14" class="node">
<title>Node14</title>
<g id="a_node14"><a xlink:title=" ">
<polygon fill="white" stroke="#bfbfbf" points="923,-62 923,-81 964,-81 964,-62 923,-62"/>
<text text-anchor="middle" x="943.5" y="-69" font-family="Helvetica,sans-Serif" font-size="10.00">tuple</text>
</a>
</g>
</g>
<!-- Node13&#45;&gt;Node14 -->
<g id="edge21" class="edge">
<title>Node13&#45;&gt;Node14</title>
<path fill="none" stroke="midnightblue" d="M943.5,-123.4C943.5,-114.06 943.5,-101.71 943.5,-91.52"/>
<polygon fill="midnightblue" stroke="midnightblue" points="947,-91.19 943.5,-81.19 940,-91.19 947,-91.19"/>
</g>
<!-- Node15 -->
<g id="node15" class="node">
<title>Node15</title>
<g id="a_node15"><a xlink:title=" ">
<polygon fill="white" stroke="#bfbfbf" points="982,-62 982,-81 1027,-81 1027,-62 982,-62"/>
<text text-anchor="middle" x="1004.5" y="-69" font-family="Helvetica,sans-Serif" font-size="10.00">utility</text>
</a>
</g>
</g>
<!-- Node13&#45;&gt;Node15 -->
<g id="edge23" class="edge">
<title>Node13&#45;&gt;Node15</title>
<path fill="none" stroke="midnightblue" d="M956.74,-123.4C966.34,-113.16 979.35,-99.3 989.37,-88.62"/>
<polygon fill="midnightblue" stroke="midnightblue" points="992.05,-90.88 996.34,-81.19 986.95,-86.09 992.05,-90.88"/>
</g>
<!-- Node17&#45;&gt;Node6 -->
<g id="edge29" class="edge">
<title>Node17&#45;&gt;Node6</title>
<path fill="none" stroke="midnightblue" d="M810.57,-257.4C811.12,-239.08 809.06,-207.38 790.5,-190 758.21,-159.78 641.63,-147.56 561.79,-142.67"/>
<polygon fill="midnightblue" stroke="midnightblue" points="561.95,-139.18 551.76,-142.09 561.54,-146.16 561.95,-139.18"/>
</g>
<!-- Node17&#45;&gt;Node10 -->
<g id="edge28" class="edge">
<title>Node17&#45;&gt;Node10</title>
<path fill="none" stroke="midnightblue" d="M877.52,-263.92C938.27,-254.22 1013.26,-233.2 982.5,-190 954.13,-150.16 923.2,-173.87 878.5,-154 836.84,-135.48 791.21,-109.41 761.79,-91.78"/>
<polygon fill="midnightblue" stroke="midnightblue" points="763.57,-88.77 753.2,-86.6 759.96,-94.76 763.57,-88.77"/>
</g>
<!-- Node17&#45;&gt;Node12 -->
<g id="edge30" class="edge">
<title>Node17&#45;&gt;Node12</title>
<path fill="none" stroke="midnightblue" d="M788.67,-257.4C775.21,-248.28 757.5,-236.29 742.65,-226.24"/>
<polygon fill="midnightblue" stroke="midnightblue" points="744.53,-223.28 734.29,-220.58 740.61,-229.08 744.53,-223.28"/>
</g>
<!-- Node18 -->
<g id="node18" class="node">
<title>Node18</title>
<g id="a_node18"><a xlink:href="../../d5/db7/pipe_8hpp.html" target="_top" xlink:title=" ">
<polygon fill="white" stroke="black" points="837.5,-190.5 837.5,-220.5 973.5,-220.5 973.5,-190.5 837.5,-190.5"/>
<text text-anchor="start" x="845.5" y="-208.5" font-family="Helvetica,sans-Serif" font-size="10.00">Simple&#45;Utility/functional</text>
<text text-anchor="middle" x="905.5" y="-197.5" font-family="Helvetica,sans-Serif" font-size="10.00">/operators/pipe.hpp</text>
</a>
</g>
</g>
<!-- Node17&#45;&gt;Node18 -->
<g id="edge31" class="edge">
<title>Node17&#45;&gt;Node18</title>
<path fill="none" stroke="midnightblue" d="M830.33,-257.4C843.79,-248.28 861.5,-236.29 876.35,-226.24"/>
<polygon fill="midnightblue" stroke="midnightblue" points="878.39,-229.08 884.71,-220.58 874.47,-223.28 878.39,-229.08"/>
</g>
<!-- Node18&#45;&gt;Node6 -->
<g id="edge32" class="edge">
<title>Node18&#45;&gt;Node6</title>
<path fill="none" stroke="midnightblue" d="M837.07,-192.25C832.48,-191.48 827.92,-190.72 823.5,-190 733.82,-175.41 630.54,-160.31 561.56,-150.47"/>
<polygon fill="midnightblue" stroke="midnightblue" points="562.04,-147 551.64,-149.06 561.05,-153.93 562.04,-147"/>
</g>
<!-- Node18&#45;&gt;Node13 -->
<g id="edge33" class="edge">
<title>Node18&#45;&gt;Node13</title>
<path fill="none" stroke="midnightblue" d="M913.75,-190.4C918.53,-182.22 924.66,-171.73 930.12,-162.39"/>
<polygon fill="midnightblue" stroke="midnightblue" points="933.25,-163.98 935.27,-153.58 927.2,-160.44 933.25,-163.98"/>
</g>
</g>
</svg>
