<?xml version="1.0" encoding="UTF-8" standalone="no"?>
<!DOCTYPE svg PUBLIC "-//W3C//DTD SVG 1.1//EN"
 "http://www.w3.org/Graphics/SVG/1.1/DTD/svg11.dtd">
<!-- Generated by graphviz version 8.0.5 (20230430.1635)
 -->
<!-- Title: Simple&#45;Utility/nullables/and_then.hpp Pages: 1 -->
<svg width="804pt" height="237pt"
 viewBox="0.00 0.00 804.25 237.25" xmlns="http://www.w3.org/2000/svg" xmlns:xlink="http://www.w3.org/1999/xlink">
<g id="graph0" class="graph" transform="scale(1 1) rotate(0) translate(4 233.25)">
<title>Simple&#45;Utility/nullables/and_then.hpp</title>
<!-- Node1 -->
<g id="node1" class="node">
<title>Node1</title>
<g id="a_node1"><a xlink:title=" ">
<polygon fill="#999999" stroke="#666666" points="573.12,-229.25 450.62,-229.25 450.62,-195.75 573.12,-195.75 573.12,-229.25"/>
<text text-anchor="start" x="458.62" y="-215.75" font-family="Helvetica,sans-Serif" font-size="10.00">Simple&#45;Utility/nullables</text>
<text text-anchor="middle" x="511.88" y="-203" font-family="Helvetica,sans-Serif" font-size="10.00">/and_then.hpp</text>
</a>
</g>
</g>
<!-- Node2 -->
<g id="node2" class="node">
<title>Node2</title>
<g id="a_node2"><a xlink:href="../../d2/dc8/bind__back_8hpp.html" target="_top" xlink:title=" ">
<polygon fill="white" stroke="#666666" points="673.38,-159.75 546.38,-159.75 546.38,-126.25 673.38,-126.25 673.38,-159.75"/>
<text text-anchor="start" x="554.38" y="-146.25" font-family="Helvetica,sans-Serif" font-size="10.00">Simple&#45;Utility/functional</text>
<text text-anchor="middle" x="609.88" y="-133.5" font-family="Helvetica,sans-Serif" font-size="10.00">/bind_back.hpp</text>
</a>
</g>
</g>
<!-- Node1&#45;&gt;Node2 -->
<g id="edge1" class="edge">
<title>Node1&#45;&gt;Node2</title>
<path fill="none" stroke="#63b8ff" d="M535.1,-195.5C547.82,-186.74 563.78,-175.75 577.69,-166.17"/>
<polygon fill="#63b8ff" stroke="#63b8ff" points="579.23,-168.67 585.48,-160.12 575.26,-162.91 579.23,-168.67"/>
</g>
<!-- Node9 -->
<g id="node9" class="node">
<title>Node9</title>
<g id="a_node9"><a xlink:href="../../dd/d3c/base_8hpp.html" target="_top" xlink:title=" ">
<polygon fill="white" stroke="#666666" points="475.12,-159.75 352.62,-159.75 352.62,-126.25 475.12,-126.25 475.12,-159.75"/>
<text text-anchor="start" x="360.62" y="-146.25" font-family="Helvetica,sans-Serif" font-size="10.00">Simple&#45;Utility/nullables</text>
<text text-anchor="middle" x="413.88" y="-133.5" font-family="Helvetica,sans-Serif" font-size="10.00">/base.hpp</text>
</a>
</g>
</g>
<!-- Node1&#45;&gt;Node9 -->
<g id="edge8" class="edge">
<title>Node1&#45;&gt;Node9</title>
<path fill="none" stroke="#63b8ff" d="M488.65,-195.5C475.93,-186.74 459.97,-175.75 446.06,-166.17"/>
<polygon fill="#63b8ff" stroke="#63b8ff" points="448.49,-162.91 438.27,-160.12 444.52,-168.67 448.49,-162.91"/>
</g>
<!-- Node3 -->
<g id="node3" class="node">
<title>Node3</title>
<g id="a_node3"><a xlink:href="../../d8/dd2/_config_8hpp.html" target="_top" xlink:title=" ">
<polygon fill="white" stroke="#666666" points="480,-83.88 347.75,-83.88 347.75,-63.12 480,-63.12 480,-83.88"/>
<text text-anchor="middle" x="413.88" y="-70.38" font-family="Helvetica,sans-Serif" font-size="10.00">Simple&#45;Utility/Config.hpp</text>
</a>
</g>
</g>
<!-- Node2&#45;&gt;Node3 -->
<g id="edge2" class="edge">
<title>Node2&#45;&gt;Node3</title>
<path fill="none" stroke="#63b8ff" d="M562.93,-125.83C529.25,-114.23 484.41,-98.79 452.73,-87.88"/>
<polygon fill="#63b8ff" stroke="#63b8ff" points="454.13,-84.32 443.53,-84.37 451.85,-90.94 454.13,-84.32"/>
</g>
<!-- Node4 -->
<g id="node4" class="node">
<title>Node4</title>
<g id="a_node4"><a xlink:title=" ">
<polygon fill="#e0e0e0" stroke="#999999" points="297.12,-20.75 240.62,-20.75 240.62,0 297.12,0 297.12,-20.75"/>
<text text-anchor="middle" x="268.88" y="-7.25" font-family="Helvetica,sans-Serif" font-size="10.00">concepts</text>
</a>
</g>
</g>
<!-- Node2&#45;&gt;Node4 -->
<g id="edge3" class="edge">
<title>Node2&#45;&gt;Node4</title>
<path fill="none" stroke="#63b8ff" d="M627.57,-126.02C645.81,-107.65 669.2,-77.38 650.88,-56.75 628.36,-31.41 401.28,-17.72 308.28,-13.14"/>
<polygon fill="#63b8ff" stroke="#63b8ff" points="308.52,-9.6 298.36,-12.62 308.18,-16.6 308.52,-9.6"/>
</g>
<!-- Node5 -->
<g id="node5" class="node">
<title>Node5</title>
<g id="a_node5"><a xlink:title=" ">
<polygon fill="#e0e0e0" stroke="#999999" points="559.75,-83.88 498,-83.88 498,-63.12 559.75,-63.12 559.75,-83.88"/>
<text text-anchor="middle" x="528.88" y="-70.38" font-family="Helvetica,sans-Serif" font-size="10.00">functional</text>
</a>
</g>
</g>
<!-- Node2&#45;&gt;Node5 -->
<g id="edge4" class="edge">
<title>Node2&#45;&gt;Node5</title>
<path fill="none" stroke="#63b8ff" d="M590.68,-126C578.06,-115.49 561.58,-101.76 548.81,-91.12"/>
<polygon fill="#63b8ff" stroke="#63b8ff" points="551.58,-88.03 541.66,-84.32 547.1,-93.41 551.58,-88.03"/>
</g>
<!-- Node6 -->
<g id="node6" class="node">
<title>Node6</title>
<g id="a_node6"><a xlink:title=" ">
<polygon fill="#e0e0e0" stroke="#999999" points="737.5,-83.88 698.25,-83.88 698.25,-63.12 737.5,-63.12 737.5,-83.88"/>
<text text-anchor="middle" x="717.88" y="-70.38" font-family="Helvetica,sans-Serif" font-size="10.00">tuple</text>
</a>
</g>
</g>
<!-- Node2&#45;&gt;Node6 -->
<g id="edge5" class="edge">
<title>Node2&#45;&gt;Node6</title>
<path fill="none" stroke="#63b8ff" d="M635.74,-125.83C653.22,-114.91 676.16,-100.57 693.35,-89.83"/>
<polygon fill="#63b8ff" stroke="#63b8ff" points="694.62,-92.54 701.24,-84.27 690.91,-86.6 694.62,-92.54"/>
</g>
<!-- Node7 -->
<g id="node7" class="node">
<title>Node7</title>
<g id="a_node7"><a xlink:title=" ">
<polygon fill="#e0e0e0" stroke="#999999" points="641.88,-83.88 577.88,-83.88 577.88,-63.12 641.88,-63.12 641.88,-83.88"/>
<text text-anchor="middle" x="609.88" y="-70.38" font-family="Helvetica,sans-Serif" font-size="10.00">type_traits</text>
</a>
</g>
</g>
<!-- Node2&#45;&gt;Node7 -->
<g id="edge6" class="edge">
<title>Node2&#45;&gt;Node7</title>
<path fill="none" stroke="#63b8ff" d="M609.88,-126C609.88,-116.8 609.88,-105.14 609.88,-95.24"/>
<polygon fill="#63b8ff" stroke="#63b8ff" points="613.38,-95.32 609.88,-85.32 606.38,-95.32 613.38,-95.32"/>
</g>
<!-- Node8 -->
<g id="node8" class="node">
<title>Node8</title>
<g id="a_node8"><a xlink:title=" ">
<polygon fill="#e0e0e0" stroke="#999999" points="796.25,-83.88 755.5,-83.88 755.5,-63.12 796.25,-63.12 796.25,-83.88"/>
<text text-anchor="middle" x="775.88" y="-70.38" font-family="Helvetica,sans-Serif" font-size="10.00">utility</text>
</a>
</g>
</g>
<!-- Node2&#45;&gt;Node8 -->
<g id="edge7" class="edge">
<title>Node2&#45;&gt;Node8</title>
<path fill="none" stroke="#63b8ff" d="M657.45,-125.84C684.1,-116.33 717.75,-103.59 746.88,-90.25 747.62,-89.91 748.37,-89.56 749.12,-89.2"/>
<polygon fill="#63b8ff" stroke="#63b8ff" points="750.57,-91.88 757.9,-84.22 747.4,-85.64 750.57,-91.88"/>
</g>
<!-- Node9&#45;&gt;Node3 -->
<g id="edge9" class="edge">
<title>Node9&#45;&gt;Node3</title>
<path fill="none" stroke="#63b8ff" d="M413.88,-126C413.88,-116.8 413.88,-105.14 413.88,-95.24"/>
<polygon fill="#63b8ff" stroke="#63b8ff" points="417.38,-95.32 413.88,-85.32 410.38,-95.32 417.38,-95.32"/>
</g>
<!-- Node9&#45;&gt;Node5 -->
<g id="edge16" class="edge">
<title>Node9&#45;&gt;Node5</title>
<path fill="none" stroke="#63b8ff" d="M441.42,-125.83C460.03,-114.91 484.46,-100.57 502.76,-89.83"/>
<polygon fill="#63b8ff" stroke="#63b8ff" points="504.38,-92.35 511.23,-84.27 500.83,-86.31 504.38,-92.35"/>
</g>
<!-- Node9&#45;&gt;Node7 -->
<g id="edge17" class="edge">
<title>Node9&#45;&gt;Node7</title>
<path fill="none" stroke="#63b8ff" d="M464.33,-125.78C494.73,-115.86 534.16,-102.71 568.88,-90.25 570.81,-89.55 572.8,-88.83 574.8,-88.09"/>
<polygon fill="#63b8ff" stroke="#63b8ff" points="575.66,-91.13 583.79,-84.34 573.2,-84.58 575.66,-91.13"/>
</g>
<!-- Node10 -->
<g id="node10" class="node">
<title>Node10</title>
<g id="a_node10"><a xlink:href="../../dd/dcd/operators_8hpp.html" target="_top" xlink:title=" ">
<polygon fill="white" stroke="#666666" points="329.75,-90.25 208,-90.25 208,-56.75 329.75,-56.75 329.75,-90.25"/>
<text text-anchor="start" x="216" y="-76.75" font-family="Helvetica,sans-Serif" font-size="10.00">Simple&#45;Utility/concepts</text>
<text text-anchor="middle" x="268.88" y="-64" font-family="Helvetica,sans-Serif" font-size="10.00">/operators.hpp</text>
</a>
</g>
</g>
<!-- Node9&#45;&gt;Node10 -->
<g id="edge10" class="edge">
<title>Node9&#45;&gt;Node10</title>
<path fill="none" stroke="#63b8ff" d="M379.14,-125.83C359.4,-116.64 334.47,-105.03 313.31,-95.18"/>
<polygon fill="#63b8ff" stroke="#63b8ff" points="315.12,-91.7 304.57,-90.65 312.16,-98.05 315.12,-91.7"/>
</g>
<!-- Node11 -->
<g id="node11" class="node">
<title>Node11</title>
<g id="a_node11"><a xlink:href="../../dd/d5c/stl__extensions_8hpp.html" target="_top" xlink:title=" ">
<polygon fill="white" stroke="#666666" points="189.75,-90.25 68,-90.25 68,-56.75 189.75,-56.75 189.75,-90.25"/>
<text text-anchor="start" x="76" y="-76.75" font-family="Helvetica,sans-Serif" font-size="10.00">Simple&#45;Utility/concepts</text>
<text text-anchor="middle" x="128.88" y="-64" font-family="Helvetica,sans-Serif" font-size="10.00">/stl_extensions.hpp</text>
</a>
</g>
</g>
<!-- Node9&#45;&gt;Node11 -->
<g id="edge12" class="edge">
<title>Node9&#45;&gt;Node11</title>
<path fill="none" stroke="#63b8ff" d="M352.39,-127.44C307.75,-116.87 247.24,-102.53 200.44,-91.45"/>
<polygon fill="#63b8ff" stroke="#63b8ff" points="201.3,-87.82 190.76,-88.92 199.69,-94.63 201.3,-87.82"/>
</g>
<!-- Node13 -->
<g id="node13" class="node">
<title>Node13</title>
<g id="a_node13"><a xlink:title=" ">
<polygon fill="#e0e0e0" stroke="#999999" points="49.75,-83.88 0,-83.88 0,-63.12 49.75,-63.12 49.75,-83.88"/>
<text text-anchor="middle" x="24.88" y="-70.38" font-family="Helvetica,sans-Serif" font-size="10.00">cstddef</text>
</a>
</g>
</g>
<!-- Node9&#45;&gt;Node13 -->
<g id="edge15" class="edge">
<title>Node9&#45;&gt;Node13</title>
<path fill="none" stroke="#63b8ff" d="M352.42,-138.44C280.71,-133.06 159.16,-120.1 58.88,-90.25 57.12,-89.73 55.33,-89.13 53.55,-88.48"/>
<polygon fill="#63b8ff" stroke="#63b8ff" points="55.14,-84.93 44.56,-84.33 52.45,-91.39 55.14,-84.93"/>
</g>
<!-- Node10&#45;&gt;Node4 -->
<g id="edge11" class="edge">
<title>Node10&#45;&gt;Node4</title>
<path fill="none" stroke="#63b8ff" d="M268.88,-56.44C268.88,-49.02 268.88,-40.11 268.88,-32.18"/>
<polygon fill="#63b8ff" stroke="#63b8ff" points="272.38,-32.22 268.88,-22.22 265.38,-32.22 272.38,-32.22"/>
</g>
<!-- Node11&#45;&gt;Node4 -->
<g id="edge14" class="edge">
<title>Node11&#45;&gt;Node4</title>
<path fill="none" stroke="#63b8ff" d="M166.02,-56.28C187.92,-46.72 215.37,-34.74 236.4,-25.55"/>
<polygon fill="#63b8ff" stroke="#63b8ff" points="237.69,-28.37 245.45,-21.17 234.89,-21.96 237.69,-28.37"/>
</g>
<!-- Node12 -->
<g id="node12" class="node">
<title>Node12</title>
<g id="a_node12"><a xlink:title=" ">
<polygon fill="#e0e0e0" stroke="#999999" points="156.75,-20.75 101,-20.75 101,0 156.75,0 156.75,-20.75"/>
<text text-anchor="middle" x="128.88" y="-7.25" font-family="Helvetica,sans-Serif" font-size="10.00">compare</text>
</a>
</g>
</g>
<!-- Node11&#45;&gt;Node12 -->
<g id="edge13" class="edge">
<title>Node11&#45;&gt;Node12</title>
<path fill="none" stroke="#63b8ff" d="M128.88,-56.44C128.88,-49.02 128.88,-40.11 128.88,-32.18"/>
<polygon fill="#63b8ff" stroke="#63b8ff" points="132.38,-32.22 128.88,-22.22 125.38,-32.22 132.38,-32.22"/>
</g>
</g>
</svg>
