<?xml version="1.0" encoding="UTF-8" standalone="no"?>
<!DOCTYPE svg PUBLIC "-//W3C//DTD SVG 1.1//EN"
 "http://www.w3.org/Graphics/SVG/1.1/DTD/svg11.dtd">
<!-- Generated by graphviz version 7.0.5 (20221223.1930)
 -->
<!-- Title: Simple&#45;Utility/nullables/and_then.hpp Pages: 1 -->
<!--zoomable 357 -->
<svg id="main" version="1.1" xmlns="http://www.w3.org/2000/svg" xmlns:xlink="http://www.w3.org/1999/xlink" xml:space="preserve" onload="init(evt)">
<style type="text/css"><![CDATA[
.edge:hover path { stroke: red; }
.edge:hover polygon { stroke: red; fill: red; }
]]></style>
<script type="text/javascript"><![CDATA[
var edges = document.getElementsByTagName('g');
if (edges && edges.length) {
  for (var i=0;i<edges.length;i++) {
    if (edges[i].id.substr(0,4)=='edge') {
      edges[i].setAttribute('class','edge');
    }
  }
}
]]></script>
        <defs>
                <circle id="rim" cx="0" cy="0" r="7"/>
                <circle id="rim2" cx="0" cy="0" r="3.5"/>
                <g id="zoomPlus">
                        <use xlink:href="#rim" fill="#404040">
                                <set attributeName="fill" to="#808080" begin="zoomplus.mouseover" end="zoomplus.mouseout"/>
                        </use>
                        <path d="M-4,0h8M0,-4v8" fill="none" stroke="white" stroke-width="1.5" pointer-events="none"/>
                </g>
                <g id="zoomMin">
                        <use xlink:href="#rim" fill="#404040">
                                <set attributeName="fill" to="#808080" begin="zoomminus.mouseover" end="zoomminus.mouseout"/>
                        </use>
                        <path d="M-4,0h8" fill="none" stroke="white" stroke-width="1.5" pointer-events="none"/>
                </g>
                <g id="dirArrow">
                        <path fill="none" stroke="white" stroke-width="1.5" d="M0,-3.0v7 M-2.5,-0.5L0,-3.0L2.5,-0.5"/>
                </g>
               <g id="resetDef">
                       <use xlink:href="#rim2" fill="#404040">
                               <set attributeName="fill" to="#808080" begin="reset.mouseover" end="reset.mouseout"/>
                       </use>
               </g>
        </defs>

<script type="text/javascript">
var viewWidth = 994;
var viewHeight = 357;
var sectionId = 'dynsection-0';
</script>
<script xlink:href="../../svgpan.js"/>
<svg id="graph" class="graph">
<g id="viewport">
<title>Simple&#45;Utility/nullables/and_then.hpp</title>
<!-- Node1 -->
<g id="node1" class="node">
<title>Node1</title>
<g id="a_node1"><a xlink:title=" ">
<polygon fill="#999999" stroke="#666666" points="701.5,-349 578.5,-349 578.5,-319 701.5,-319 701.5,-349"/>
<text text-anchor="start" x="586.5" y="-337" font-family="Helvetica,sans-Serif" font-size="10.00">Simple&#45;Utility/nullables</text>
<text text-anchor="middle" x="640" y="-326" font-family="Helvetica,sans-Serif" font-size="10.00">/and_then.hpp</text>
</a>
</g>
</g>
<!-- Node2 -->
<g id="node2" class="node">
<title>Node2</title>
<g id="a_node2"><a xlink:href="../../d6/dbe/nullables_2base_8hpp.html" target="_top" xlink:title=" ">
<polygon fill="white" stroke="#666666" points="590.5,-283 467.5,-283 467.5,-253 590.5,-253 590.5,-283"/>
<text text-anchor="start" x="475.5" y="-271" font-family="Helvetica,sans-Serif" font-size="10.00">Simple&#45;Utility/nullables</text>
<text text-anchor="middle" x="529" y="-260" font-family="Helvetica,sans-Serif" font-size="10.00">/base.hpp</text>
</a>
</g>
</g>
<!-- Node1&#45;&gt;Node2 -->
<g id="edge1" class="edge">
<title>Node1&#45;&gt;Node2</title>
<path fill="none" stroke="#63b8ff" d="M615.09,-318.64C599.95,-309.91 580.4,-298.63 563.75,-289.04"/>
<polygon fill="#63b8ff" stroke="#63b8ff" points="565.55,-286.03 555.14,-284.07 562.05,-292.1 565.55,-286.03"/>
</g>
<!-- Node17 -->
<g id="node17" class="node">
<title>Node17</title>
<g id="a_node17"><a xlink:href="../../d6/deb/transform_8hpp.html" target="_top" xlink:title=" ">
<polygon fill="white" stroke="#666666" points="841,-283 713,-283 713,-253 841,-253 841,-283"/>
<text text-anchor="start" x="721" y="-271" font-family="Helvetica,sans-Serif" font-size="10.00">Simple&#45;Utility/functional</text>
<text text-anchor="middle" x="777" y="-260" font-family="Helvetica,sans-Serif" font-size="10.00">/transform.hpp</text>
</a>
</g>
</g>
<!-- Node1&#45;&gt;Node17 -->
<g id="edge27" class="edge">
<title>Node1&#45;&gt;Node17</title>
<path fill="none" stroke="#63b8ff" d="M670.75,-318.64C690.05,-309.62 715.17,-297.89 736.13,-288.09"/>
<polygon fill="#63b8ff" stroke="#63b8ff" points="737.41,-291.36 744.99,-283.96 734.44,-285.02 737.41,-291.36"/>
</g>
<!-- Node3 -->
<g id="node3" class="node">
<title>Node3</title>
<g id="a_node3"><a xlink:href="../../dd/d5c/stl__extensions_8hpp.html" target="_top" xlink:title=" ">
<polygon fill="white" stroke="#666666" points="174,-85 52,-85 52,-55 174,-55 174,-85"/>
<text text-anchor="start" x="60" y="-73" font-family="Helvetica,sans-Serif" font-size="10.00">Simple&#45;Utility/concepts</text>
<text text-anchor="middle" x="113" y="-62" font-family="Helvetica,sans-Serif" font-size="10.00">/stl_extensions.hpp</text>
</a>
</g>
</g>
<!-- Node2&#45;&gt;Node3 -->
<g id="edge2" class="edge">
<title>Node2&#45;&gt;Node3</title>
<path fill="none" stroke="#63b8ff" d="M498.41,-252.59C424.71,-217.86 237.26,-129.55 153.97,-90.3"/>
<polygon fill="#63b8ff" stroke="#63b8ff" points="155.54,-87.17 145,-86.08 152.56,-93.51 155.54,-87.17"/>
</g>
<!-- Node5 -->
<g id="node5" class="node">
<title>Node5</title>
<g id="a_node5"><a xlink:href="../../dd/dcd/operators_8hpp.html" target="_top" xlink:title=" ">
<polygon fill="white" stroke="#666666" points="122,-151 0,-151 0,-121 122,-121 122,-151"/>
<text text-anchor="start" x="8" y="-139" font-family="Helvetica,sans-Serif" font-size="10.00">Simple&#45;Utility/concepts</text>
<text text-anchor="middle" x="61" y="-128" font-family="Helvetica,sans-Serif" font-size="10.00">/operators.hpp</text>
</a>
</g>
</g>
<!-- Node2&#45;&gt;Node5 -->
<g id="edge4" class="edge">
<title>Node2&#45;&gt;Node5</title>
<path fill="none" stroke="#63b8ff" d="M467.25,-257.02C417.13,-248.3 344.9,-234.34 283,-217 220.68,-199.54 150.74,-173.16 106.31,-155.53"/>
<polygon fill="#63b8ff" stroke="#63b8ff" points="107.85,-152.37 97.27,-151.91 105.25,-158.87 107.85,-152.37"/>
</g>
<!-- Node6 -->
<g id="node6" class="node">
<title>Node6</title>
<g id="a_node6"><a xlink:href="../../d1/d76/functional_2base_8hpp.html" target="_top" xlink:title=" ">
<polygon fill="white" stroke="#666666" points="527,-151 399,-151 399,-121 527,-121 527,-151"/>
<text text-anchor="start" x="407" y="-139" font-family="Helvetica,sans-Serif" font-size="10.00">Simple&#45;Utility/functional</text>
<text text-anchor="middle" x="463" y="-128" font-family="Helvetica,sans-Serif" font-size="10.00">/base.hpp</text>
</a>
</g>
</g>
<!-- Node2&#45;&gt;Node6 -->
<g id="edge6" class="edge">
<title>Node2&#45;&gt;Node6</title>
<path fill="none" stroke="#63b8ff" d="M502.93,-252.67C490.06,-244.12 475.68,-231.99 468,-217 459.51,-200.42 458.53,-179.3 459.53,-162.93"/>
<polygon fill="#63b8ff" stroke="#63b8ff" points="463.01,-163.27 460.45,-152.99 456.04,-162.63 463.01,-163.27"/>
</g>
<!-- Node8 -->
<g id="node8" class="node">
<title>Node8</title>
<g id="a_node8"><a xlink:title=" ">
<polygon fill="#e0e0e0" stroke="#999999" points="790.5,-19 725.5,-19 725.5,0 790.5,0 790.5,-19"/>
<text text-anchor="middle" x="758" y="-7" font-family="Helvetica,sans-Serif" font-size="10.00">type_traits</text>
</a>
</g>
</g>
<!-- Node2&#45;&gt;Node8 -->
<g id="edge26" class="edge">
<title>Node2&#45;&gt;Node8</title>
<path fill="none" stroke="#63b8ff" d="M543.23,-252.7C563.05,-232.89 598.08,-198.27 612,-187 674.95,-136.04 725,-156.52 763,-85 772.01,-68.03 768.91,-45.74 764.71,-29.97"/>
<polygon fill="#63b8ff" stroke="#63b8ff" points="768.18,-29.37 761.9,-20.84 761.49,-31.42 768.18,-29.37"/>
</g>
<!-- Node10 -->
<g id="node10" class="node">
<title>Node10</title>
<g id="a_node10"><a xlink:href="../../d4/d1c/unified__base_8hpp.html" target="_top" xlink:title=" ">
<polygon fill="white" stroke="#666666" points="753.5,-85 640.5,-85 640.5,-55 753.5,-55 753.5,-85"/>
<text text-anchor="start" x="648.5" y="-73" font-family="Helvetica,sans-Serif" font-size="10.00">Simple&#45;Utility/unified</text>
<text text-anchor="middle" x="697" y="-62" font-family="Helvetica,sans-Serif" font-size="10.00">_base.hpp</text>
</a>
</g>
</g>
<!-- Node2&#45;&gt;Node10 -->
<g id="edge24" class="edge">
<title>Node2&#45;&gt;Node10</title>
<path fill="none" stroke="#63b8ff" d="M536.56,-252.75C545.63,-236.21 561.78,-208.46 579,-187 607.66,-151.28 646.39,-115.06 671.53,-92.82"/>
<polygon fill="#63b8ff" stroke="#63b8ff" points="673.78,-95.5 678.99,-86.28 669.16,-90.24 673.78,-95.5"/>
</g>
<!-- Node12 -->
<g id="node12" class="node">
<title>Node12</title>
<g id="a_node12"><a xlink:href="../../d9/d76/bind_8hpp.html" target="_top" xlink:title=" ">
<polygon fill="white" stroke="#666666" points="749,-217 621,-217 621,-187 749,-187 749,-217"/>
<text text-anchor="start" x="629" y="-205" font-family="Helvetica,sans-Serif" font-size="10.00">Simple&#45;Utility/functional</text>
<text text-anchor="middle" x="685" y="-194" font-family="Helvetica,sans-Serif" font-size="10.00">/operators/bind.hpp</text>
</a>
</g>
</g>
<!-- Node2&#45;&gt;Node12 -->
<g id="edge17" class="edge">
<title>Node2&#45;&gt;Node12</title>
<path fill="none" stroke="#63b8ff" d="M564.01,-252.64C586.21,-243.53 615.17,-231.65 639.19,-221.79"/>
<polygon fill="#63b8ff" stroke="#63b8ff" points="640.51,-225.03 648.44,-218 637.86,-218.56 640.51,-225.03"/>
</g>
<!-- Node16 -->
<g id="node16" class="node">
<title>Node16</title>
<g id="a_node16"><a xlink:title=" ">
<polygon fill="#e0e0e0" stroke="#999999" points="527,-211.5 477,-211.5 477,-192.5 527,-192.5 527,-211.5"/>
<text text-anchor="middle" x="502" y="-199.5" font-family="Helvetica,sans-Serif" font-size="10.00">cstddef</text>
</a>
</g>
</g>
<!-- Node2&#45;&gt;Node16 -->
<g id="edge25" class="edge">
<title>Node2&#45;&gt;Node16</title>
<path fill="none" stroke="#63b8ff" d="M523.01,-252.8C519.21,-243.8 514.25,-232.04 510.11,-222.22"/>
<polygon fill="#63b8ff" stroke="#63b8ff" points="513.43,-221.09 506.32,-213.24 506.98,-223.81 513.43,-221.09"/>
</g>
<!-- Node4 -->
<g id="node4" class="node">
<title>Node4</title>
<g id="a_node4"><a xlink:title=" ">
<polygon fill="#e0e0e0" stroke="#999999" points="275.5,-19 218.5,-19 218.5,0 275.5,0 275.5,-19"/>
<text text-anchor="middle" x="247" y="-7" font-family="Helvetica,sans-Serif" font-size="10.00">concepts</text>
</a>
</g>
</g>
<!-- Node3&#45;&gt;Node4 -->
<g id="edge3" class="edge">
<title>Node3&#45;&gt;Node4</title>
<path fill="none" stroke="#63b8ff" d="M146.12,-54.54C167.64,-45.15 195.48,-32.99 216.46,-23.83"/>
<polygon fill="#63b8ff" stroke="#63b8ff" points="217.59,-27.16 225.35,-19.95 214.78,-20.75 217.59,-27.16"/>
</g>
<!-- Node5&#45;&gt;Node4 -->
<g id="edge5" class="edge">
<title>Node5&#45;&gt;Node4</title>
<path fill="none" stroke="#63b8ff" d="M51.31,-120.67C40.89,-103.28 27.73,-73.96 43,-55 63.13,-30 153.05,-18.29 206.55,-13.45"/>
<polygon fill="#63b8ff" stroke="#63b8ff" points="206.85,-16.94 216.52,-12.6 206.25,-9.96 206.85,-16.94"/>
</g>
<!-- Node6&#45;&gt;Node3 -->
<g id="edge14" class="edge">
<title>Node6&#45;&gt;Node3</title>
<path fill="none" stroke="#63b8ff" d="M398.53,-123.37C342.79,-113.29 260.06,-98.28 188,-85 187.17,-84.85 186.33,-84.69 185.49,-84.54"/>
<polygon fill="#63b8ff" stroke="#63b8ff" points="186.35,-81.14 175.88,-82.76 185.08,-88.02 186.35,-81.14"/>
</g>
<!-- Node6&#45;&gt;Node4 -->
<g id="edge7" class="edge">
<title>Node6&#45;&gt;Node4</title>
<path fill="none" stroke="#63b8ff" d="M398.54,-130.68C334.59,-124.89 243.01,-112.03 221,-85 207.53,-68.46 220.06,-44.49 231.95,-28.24"/>
<polygon fill="#63b8ff" stroke="#63b8ff" points="234.65,-30.46 238.09,-20.44 229.15,-26.13 234.65,-30.46"/>
</g>
<!-- Node7 -->
<g id="node7" class="node">
<title>Node7</title>
<g id="a_node7"><a xlink:title=" ">
<polygon fill="#e0e0e0" stroke="#999999" points="432,-79.5 370,-79.5 370,-60.5 432,-60.5 432,-79.5"/>
<text text-anchor="middle" x="401" y="-67.5" font-family="Helvetica,sans-Serif" font-size="10.00">functional</text>
</a>
</g>
</g>
<!-- Node6&#45;&gt;Node7 -->
<g id="edge8" class="edge">
<title>Node6&#45;&gt;Node7</title>
<path fill="none" stroke="#63b8ff" d="M449.24,-120.8C439.86,-111.11 427.39,-98.24 417.48,-88.01"/>
<polygon fill="#63b8ff" stroke="#63b8ff" points="420.09,-85.68 410.62,-80.93 415.07,-90.55 420.09,-85.68"/>
</g>
<!-- Node6&#45;&gt;Node8 -->
<g id="edge9" class="edge">
<title>Node6&#45;&gt;Node8</title>
<path fill="none" stroke="#63b8ff" d="M510.19,-120.53C535.53,-111.86 566.85,-99.68 593,-85 612.07,-74.3 612.78,-65.44 632,-55 657.99,-40.88 689.34,-29.79 714.26,-22.21"/>
<polygon fill="#63b8ff" stroke="#63b8ff" points="715.17,-25.59 723.77,-19.41 713.19,-18.88 715.17,-25.59"/>
</g>
<!-- Node9 -->
<g id="node9" class="node">
<title>Node9</title>
<g id="a_node9"><a xlink:href="../../d8/dd2/_config_8hpp.html" target="_top" xlink:title=" ">
<polygon fill="white" stroke="#666666" points="583.5,-79.5 450.5,-79.5 450.5,-60.5 583.5,-60.5 583.5,-79.5"/>
<text text-anchor="middle" x="517" y="-67.5" font-family="Helvetica,sans-Serif" font-size="10.00">Simple&#45;Utility/Config.hpp</text>
</a>
</g>
</g>
<!-- Node6&#45;&gt;Node9 -->
<g id="edge10" class="edge">
<title>Node6&#45;&gt;Node9</title>
<path fill="none" stroke="#63b8ff" d="M474.98,-120.8C482.99,-111.31 493.58,-98.76 502.12,-88.63"/>
<polygon fill="#63b8ff" stroke="#63b8ff" points="504.79,-90.9 508.56,-81 499.44,-86.39 504.79,-90.9"/>
</g>
<!-- Node6&#45;&gt;Node10 -->
<g id="edge11" class="edge">
<title>Node6&#45;&gt;Node10</title>
<path fill="none" stroke="#63b8ff" d="M515.81,-120.56C550.77,-110.99 596.82,-98.4 633.74,-88.3"/>
<polygon fill="#63b8ff" stroke="#63b8ff" points="634.2,-91.8 642.93,-85.79 632.36,-85.05 634.2,-91.8"/>
</g>
<!-- Node11 -->
<g id="node11" class="node">
<title>Node11</title>
<g id="a_node11"><a xlink:href="../../d5/d8e/concepts_2utility_8hpp.html" target="_top" xlink:title=" ">
<polygon fill="white" stroke="#666666" points="352,-85 230,-85 230,-55 352,-55 352,-85"/>
<text text-anchor="start" x="238" y="-73" font-family="Helvetica,sans-Serif" font-size="10.00">Simple&#45;Utility/concepts</text>
<text text-anchor="middle" x="291" y="-62" font-family="Helvetica,sans-Serif" font-size="10.00">/utility.hpp</text>
</a>
</g>
</g>
<!-- Node6&#45;&gt;Node11 -->
<g id="edge15" class="edge">
<title>Node6&#45;&gt;Node11</title>
<path fill="none" stroke="#63b8ff" d="M424.4,-120.64C399.59,-111.41 367.13,-99.33 340.44,-89.39"/>
<polygon fill="#63b8ff" stroke="#63b8ff" points="341.78,-86.16 331.19,-85.95 339.34,-92.72 341.78,-86.16"/>
</g>
<!-- Node10&#45;&gt;Node4 -->
<g id="edge12" class="edge">
<title>Node10&#45;&gt;Node4</title>
<path fill="none" stroke="#63b8ff" d="M640.06,-61.27C624.78,-59.22 608.26,-57.01 593,-55 482.21,-40.42 351.38,-23.74 286.95,-15.56"/>
<polygon fill="#63b8ff" stroke="#63b8ff" points="287.58,-12.11 277.22,-14.33 286.7,-19.06 287.58,-12.11"/>
</g>
<!-- Node10&#45;&gt;Node8 -->
<g id="edge13" class="edge">
<title>Node10&#45;&gt;Node8</title>
<path fill="none" stroke="#63b8ff" d="M712.08,-54.54C720.76,-46.22 731.7,-35.72 740.72,-27.07"/>
<polygon fill="#63b8ff" stroke="#63b8ff" points="743.07,-29.67 747.86,-20.22 738.22,-24.62 743.07,-29.67"/>
</g>
<!-- Node11&#45;&gt;Node4 -->
<g id="edge16" class="edge">
<title>Node11&#45;&gt;Node4</title>
<path fill="none" stroke="#63b8ff" d="M280.12,-54.54C274.12,-46.56 266.63,-36.59 260.28,-28.16"/>
<polygon fill="#63b8ff" stroke="#63b8ff" points="263.24,-26.27 254.43,-20.38 257.65,-30.48 263.24,-26.27"/>
</g>
<!-- Node12&#45;&gt;Node6 -->
<g id="edge18" class="edge">
<title>Node12&#45;&gt;Node6</title>
<path fill="none" stroke="#63b8ff" d="M634.9,-186.56C602.01,-177.08 558.8,-164.62 523.92,-154.56"/>
<polygon fill="#63b8ff" stroke="#63b8ff" points="524.95,-151.22 514.37,-151.81 523.01,-157.94 524.95,-151.22"/>
</g>
<!-- Node13 -->
<g id="node13" class="node">
<title>Node13</title>
<g id="a_node13"><a xlink:href="../../d2/d30/general_8hpp.html" target="_top" xlink:title=" ">
<polygon fill="white" stroke="#666666" points="958.5,-151 853.5,-151 853.5,-121 958.5,-121 958.5,-151"/>
<text text-anchor="start" x="861.5" y="-139" font-family="Helvetica,sans-Serif" font-size="10.00">Simple&#45;Utility/tuple</text>
<text text-anchor="middle" x="906" y="-128" font-family="Helvetica,sans-Serif" font-size="10.00">/general.hpp</text>
</a>
</g>
</g>
<!-- Node12&#45;&gt;Node13 -->
<g id="edge19" class="edge">
<title>Node12&#45;&gt;Node13</title>
<path fill="none" stroke="#63b8ff" d="M734.87,-186.56C767.61,-177.08 810.64,-164.62 845.35,-154.56"/>
<polygon fill="#63b8ff" stroke="#63b8ff" points="846.22,-157.95 854.86,-151.81 844.28,-151.23 846.22,-157.95"/>
</g>
<!-- Node13&#45;&gt;Node4 -->
<g id="edge20" class="edge">
<title>Node13&#45;&gt;Node4</title>
<path fill="none" stroke="#63b8ff" d="M882.99,-120.54C849.24,-99.63 787.68,-62.58 763,-55 674.13,-27.7 392.17,-15.47 287.03,-11.77"/>
<polygon fill="#63b8ff" stroke="#63b8ff" points="287.31,-8.28 277.2,-11.44 287.07,-15.28 287.31,-8.28"/>
</g>
<!-- Node13&#45;&gt;Node8 -->
<g id="edge22" class="edge">
<title>Node13&#45;&gt;Node8</title>
<path fill="none" stroke="#63b8ff" d="M895.42,-120.78C882.29,-103.76 858.62,-75.07 834,-55 819.6,-43.26 801.75,-32.64 786.96,-24.72"/>
<polygon fill="#63b8ff" stroke="#63b8ff" points="788.67,-21.66 778.18,-20.15 785.44,-27.87 788.67,-21.66"/>
</g>
<!-- Node14 -->
<g id="node14" class="node">
<title>Node14</title>
<g id="a_node14"><a xlink:title=" ">
<polygon fill="#e0e0e0" stroke="#999999" points="926,-79.5 886,-79.5 886,-60.5 926,-60.5 926,-79.5"/>
<text text-anchor="middle" x="906" y="-67.5" font-family="Helvetica,sans-Serif" font-size="10.00">tuple</text>
</a>
</g>
</g>
<!-- Node13&#45;&gt;Node14 -->
<g id="edge21" class="edge">
<title>Node13&#45;&gt;Node14</title>
<path fill="none" stroke="#63b8ff" d="M906,-120.8C906,-112.09 906,-100.81 906,-91.18"/>
<polygon fill="#63b8ff" stroke="#63b8ff" points="909.5,-91.36 906,-81.36 902.5,-91.36 909.5,-91.36"/>
</g>
<!-- Node15 -->
<g id="node15" class="node">
<title>Node15</title>
<g id="a_node15"><a xlink:title=" ">
<polygon fill="#e0e0e0" stroke="#999999" points="985.5,-79.5 944.5,-79.5 944.5,-60.5 985.5,-60.5 985.5,-79.5"/>
<text text-anchor="middle" x="965" y="-67.5" font-family="Helvetica,sans-Serif" font-size="10.00">utility</text>
</a>
</g>
</g>
<!-- Node13&#45;&gt;Node15 -->
<g id="edge23" class="edge">
<title>Node13&#45;&gt;Node15</title>
<path fill="none" stroke="#63b8ff" d="M919.09,-120.8C928.02,-111.11 939.89,-98.24 949.32,-88.01"/>
<polygon fill="#63b8ff" stroke="#63b8ff" points="951.62,-90.68 955.82,-80.96 946.47,-85.94 951.62,-90.68"/>
</g>
<!-- Node17&#45;&gt;Node6 -->
<g id="edge29" class="edge">
<title>Node17&#45;&gt;Node6</title>
<path fill="none" stroke="#63b8ff" d="M777.99,-252.55C778.36,-234.48 776.02,-203.88 758,-187 726.97,-157.93 615,-145.59 538.29,-140.48"/>
<polygon fill="#63b8ff" stroke="#63b8ff" points="538.96,-137.01 528.75,-139.87 538.51,-144 538.96,-137.01"/>
</g>
<!-- Node17&#45;&gt;Node10 -->
<g id="edge28" class="edge">
<title>Node17&#45;&gt;Node10</title>
<path fill="none" stroke="#63b8ff" d="M841.48,-259.33C899.36,-249.61 971.08,-228.82 942,-187 915.74,-149.25 886.88,-169.98 845,-151 804.78,-132.78 760.45,-108.18 730.89,-91.09"/>
<polygon fill="#63b8ff" stroke="#63b8ff" points="732.79,-88.15 722.39,-86.14 729.27,-94.2 732.79,-88.15"/>
</g>
<!-- Node17&#45;&gt;Node12 -->
<g id="edge30" class="edge">
<title>Node17&#45;&gt;Node12</title>
<path fill="none" stroke="#63b8ff" d="M756.58,-252.8C744.4,-244.32 728.71,-233.4 715.12,-223.95"/>
<polygon fill="#63b8ff" stroke="#63b8ff" points="717.13,-221.09 706.92,-218.25 713.13,-226.83 717.13,-221.09"/>
</g>
<!-- Node18 -->
<g id="node18" class="node">
<title>Node18</title>
<g id="a_node18"><a xlink:href="../../d5/db7/pipe_8hpp.html" target="_top" xlink:title=" ">
<polygon fill="white" stroke="#666666" points="933,-217 805,-217 805,-187 933,-187 933,-217"/>
<text text-anchor="start" x="813" y="-205" font-family="Helvetica,sans-Serif" font-size="10.00">Simple&#45;Utility/functional</text>
<text text-anchor="middle" x="869" y="-194" font-family="Helvetica,sans-Serif" font-size="10.00">/operators/pipe.hpp</text>
</a>
</g>
</g>
<!-- Node17&#45;&gt;Node18 -->
<g id="edge31" class="edge">
<title>Node17&#45;&gt;Node18</title>
<path fill="none" stroke="#63b8ff" d="M797.42,-252.8C809.6,-244.32 825.29,-233.4 838.88,-223.95"/>
<polygon fill="#63b8ff" stroke="#63b8ff" points="840.87,-226.83 847.08,-218.25 836.87,-221.09 840.87,-226.83"/>
</g>
<!-- Node18&#45;&gt;Node6 -->
<g id="edge32" class="edge">
<title>Node18&#45;&gt;Node6</title>
<path fill="none" stroke="#63b8ff" d="M804.75,-189.33C800.1,-188.53 795.48,-187.74 791,-187 704.65,-172.67 605.24,-157.74 538.7,-147.96"/>
<polygon fill="#63b8ff" stroke="#63b8ff" points="539.39,-144.53 528.99,-146.54 538.38,-151.45 539.39,-144.53"/>
</g>
<!-- Node18&#45;&gt;Node13 -->
<g id="edge33" class="edge">
<title>Node18&#45;&gt;Node13</title>
<path fill="none" stroke="#63b8ff" d="M877.21,-186.8C881.57,-179.26 887.05,-169.78 892.05,-161.13"/>
<polygon fill="#63b8ff" stroke="#63b8ff" points="895.08,-162.88 897.05,-152.47 889.02,-159.38 895.08,-162.88"/>
</g>
</g>
</svg>
        <g id="navigator" transform="translate(0 0)" fill="#404254">
                <rect fill="#f2f5e9" fill-opacity="0.5" stroke="#606060" stroke-width=".5" x="0" y="0" width="60" height="60"/>
                <use id="zoomplus" xlink:href="#zoomPlus" x="17" y="9" onmousedown="handleZoom(evt,'in')"/>
                <use id="zoomminus" xlink:href="#zoomMin" x="42" y="9" onmousedown="handleZoom(evt,'out')"/>
                <use id="reset" xlink:href="#resetDef" x="30" y="36" onmousedown="handleReset()"/>
                <g id="arrowUp" xlink:href="#dirArrow" transform="translate(30 24)" onmousedown="handlePan(0,-1)">
                  <use xlink:href="#rim" fill="#404040">
                        <set attributeName="fill" to="#808080" begin="arrowUp.mouseover" end="arrowUp.mouseout"/>
                  </use>
                  <path fill="none" stroke="white" stroke-width="1.5" d="M0,-3.0v7 M-2.5,-0.5L0,-3.0L2.5,-0.5"/>
                </g>
                <g id="arrowRight" xlink:href="#dirArrow" transform="rotate(90) translate(36 -43)" onmousedown="handlePan(1,0)">
                  <use xlink:href="#rim" fill="#404040">
                        <set attributeName="fill" to="#808080" begin="arrowRight.mouseover" end="arrowRight.mouseout"/>
                  </use>
                  <path fill="none" stroke="white" stroke-width="1.5" d="M0,-3.0v7 M-2.5,-0.5L0,-3.0L2.5,-0.5"/>
                </g>
                <g id="arrowDown" xlink:href="#dirArrow" transform="rotate(180) translate(-30 -48)" onmousedown="handlePan(0,1)">
                  <use xlink:href="#rim" fill="#404040">
                        <set attributeName="fill" to="#808080" begin="arrowDown.mouseover" end="arrowDown.mouseout"/>
                  </use>
                  <path fill="none" stroke="white" stroke-width="1.5" d="M0,-3.0v7 M-2.5,-0.5L0,-3.0L2.5,-0.5"/>
                </g>
                <g id="arrowLeft" xlink:href="#dirArrow" transform="rotate(270) translate(-36 17)" onmousedown="handlePan(-1,0)">
                  <use xlink:href="#rim" fill="#404040">
                        <set attributeName="fill" to="#808080" begin="arrowLeft.mouseover" end="arrowLeft.mouseout"/>
                  </use>
                  <path fill="none" stroke="white" stroke-width="1.5" d="M0,-3.0v7 M-2.5,-0.5L0,-3.0L2.5,-0.5"/>
                </g>
        </g>
        <svg viewBox="0 0 15 15" width="100%" height="30px" preserveAspectRatio="xMaxYMin meet">
         <g id="arrow_out" transform="scale(0.3 0.3)">
          <a xlink:href="and__then_8hpp__incl_org.svg" target="_base">
           <rect id="button" ry="5" rx="5" y="6" x="6" height="38" width="38"
                fill="#f2f5e9" fill-opacity="0.5" stroke="#606060" stroke-width="1.0"/>
           <path id="arrow"
             d="M 11.500037,31.436501 C 11.940474,20.09759 22.043105,11.32322 32.158766,21.979434 L 37.068811,17.246167 C 37.068811,17.246167 37.088388,32 37.088388,32 L 22.160133,31.978069 C 22.160133,31.978069 26.997745,27.140456 26.997745,27.140456 C 18.528582,18.264221 13.291696,25.230495 11.500037,31.436501 z"
             style="fill:#404040;"/>
          </a>
         </g>
        </svg>
</svg>
