<?xml version="1.0" encoding="UTF-8" standalone="no"?>
<!DOCTYPE svg PUBLIC "-//W3C//DTD SVG 1.1//EN"
 "http://www.w3.org/Graphics/SVG/1.1/DTD/svg11.dtd">
<!-- Generated by graphviz version 8.0.5 (20230430.1635)
 -->
<!-- Title: Simple&#45;Utility/functional/mixins/Pipe.hpp Pages: 1 -->
<!--zoomable 433 -->
<svg id="main" version="1.1" xmlns="http://www.w3.org/2000/svg" xmlns:xlink="http://www.w3.org/1999/xlink" xml:space="preserve" onload="init(evt)">
<style type="text/css"><![CDATA[
.edge:hover path { stroke: red; }
.edge:hover polygon { stroke: red; fill: red; }
]]></style>
<script type="text/javascript"><![CDATA[
var edges = document.getElementsByTagName('g');
if (edges && edges.length) {
  for (var i=0;i<edges.length;i++) {
    if (edges[i].id.substr(0,4)=='edge') {
      edges[i].setAttribute('class','edge');
    }
  }
}
]]></script>
        <defs>
                <circle id="rim" cx="0" cy="0" r="7"/>
                <circle id="rim2" cx="0" cy="0" r="3.5"/>
                <g id="zoomPlus">
                        <use xlink:href="#rim" fill="#404040">
                                <set attributeName="fill" to="#808080" begin="zoomplus.mouseover" end="zoomplus.mouseout"/>
                        </use>
                        <path d="M-4,0h8M0,-4v8" fill="none" stroke="white" stroke-width="1.5" pointer-events="none"/>
                </g>
                <g id="zoomMin">
                        <use xlink:href="#rim" fill="#404040">
                                <set attributeName="fill" to="#808080" begin="zoomminus.mouseover" end="zoomminus.mouseout"/>
                        </use>
                        <path d="M-4,0h8" fill="none" stroke="white" stroke-width="1.5" pointer-events="none"/>
                </g>
                <g id="dirArrow">
                        <path fill="none" stroke="white" stroke-width="1.5" d="M0,-3.0v7 M-2.5,-0.5L0,-3.0L2.5,-0.5"/>
                </g>
               <g id="resetDef">
                       <use xlink:href="#rim2" fill="#404040">
                               <set attributeName="fill" to="#808080" begin="reset.mouseover" end="reset.mouseout"/>
                       </use>
               </g>
        </defs>

<script type="text/javascript">
var viewWidth = 930;
var viewHeight = 433;
var sectionId = 'dynsection-0';
</script>
<script xlink:href="../../svgpan.js"/>
<svg id="graph" class="graph">
<g id="viewport">
<title>Simple&#45;Utility/functional/mixins/Pipe.hpp</title>
<!-- Node1 -->
<g id="node1" class="node">
<title>Node1</title>
<g id="a_node1"><a xlink:title=" ">
<polygon fill="#999999" stroke="#666666" points="446.5,-425 319.5,-425 319.5,-391.5 446.5,-391.5 446.5,-425"/>
<text text-anchor="start" x="327.5" y="-411.5" font-family="Helvetica,sans-Serif" font-size="10.00">Simple&#45;Utility/functional</text>
<text text-anchor="middle" x="383" y="-398.75" font-family="Helvetica,sans-Serif" font-size="10.00">/mixins/Pipe.hpp</text>
</a>
</g>
</g>
<!-- Node2 -->
<g id="node2" class="node">
<title>Node2</title>
<g id="a_node2"><a xlink:title=" ">
<polygon fill="#e0e0e0" stroke="#999999" points="753.25,-20.75 696.75,-20.75 696.75,0 753.25,0 753.25,-20.75"/>
<text text-anchor="middle" x="725" y="-7.25" font-family="Helvetica,sans-Serif" font-size="10.00">concepts</text>
</a>
</g>
</g>
<!-- Node1&#45;&gt;Node2 -->
<g id="edge1" class="edge">
<title>Node1&#45;&gt;Node2</title>
<path fill="none" stroke="#63b8ff" d="M446.95,-404.43C589.72,-396.4 922,-367.28 922,-270.25 922,-270.25 922,-270.25 922,-129.25 922,-56.42 821.64,-27.51 764.18,-16.92"/>
<polygon fill="#63b8ff" stroke="#63b8ff" points="765.1,-13.35 754.65,-15.09 763.9,-20.25 765.1,-13.35"/>
</g>
<!-- Node3 -->
<g id="node3" class="node">
<title>Node3</title>
<g id="a_node3"><a xlink:title=" ">
<polygon fill="#e0e0e0" stroke="#999999" points="95.62,-20.75 56.38,-20.75 56.38,0 95.62,0 95.62,-20.75"/>
<text text-anchor="middle" x="76" y="-7.25" font-family="Helvetica,sans-Serif" font-size="10.00">tuple</text>
</a>
</g>
</g>
<!-- Node1&#45;&gt;Node3 -->
<g id="edge2" class="edge">
<title>Node1&#45;&gt;Node3</title>
<path fill="none" stroke="#63b8ff" d="M319.33,-397.93C210.42,-380.19 0,-337.25 0,-270.25 0,-270.25 0,-270.25 0,-129.25 0,-87.8 33.61,-49.35 56.13,-28.24"/>
<polygon fill="#63b8ff" stroke="#63b8ff" points="58.04,-31.32 63.12,-22.03 53.36,-26.13 58.04,-31.32"/>
</g>
<!-- Node4 -->
<g id="node4" class="node">
<title>Node4</title>
<g id="a_node4"><a xlink:href="../../d5/d7b/_tuple_8hpp.html" target="_top" xlink:title=" ">
<polygon fill="white" stroke="#666666" points="307.5,-279.62 180.5,-279.62 180.5,-258.88 307.5,-258.88 307.5,-279.62"/>
<text text-anchor="middle" x="244" y="-266.12" font-family="Helvetica,sans-Serif" font-size="10.00">Simple&#45;Utility/Tuple.hpp</text>
</a>
</g>
</g>
<!-- Node1&#45;&gt;Node4 -->
<g id="edge3" class="edge">
<title>Node1&#45;&gt;Node4</title>
<path fill="none" stroke="#63b8ff" d="M366.78,-391.27C340.43,-365.3 288.55,-314.16 261.43,-287.43"/>
<polygon fill="#63b8ff" stroke="#63b8ff" points="264.45,-285.51 254.87,-280.98 259.54,-290.49 264.45,-285.51"/>
</g>
<!-- Node11 -->
<g id="node11" class="node">
<title>Node11</title>
<g id="a_node11"><a xlink:href="../../df/d2e/_type_list_8hpp.html" target="_top" xlink:title=" ">
<polygon fill="white" stroke="#666666" points="281.5,-77.5 142.5,-77.5 142.5,-56.75 281.5,-56.75 281.5,-77.5"/>
<text text-anchor="middle" x="212" y="-64" font-family="Helvetica,sans-Serif" font-size="10.00">Simple&#45;Utility/TypeList.hpp</text>
</a>
</g>
</g>
<!-- Node1&#45;&gt;Node11 -->
<g id="edge20" class="edge">
<title>Node1&#45;&gt;Node11</title>
<path fill="none" stroke="#63b8ff" d="M319.25,-402.33C239.7,-392.31 114,-361.97 114,-270.25 114,-270.25 114,-270.25 114,-198.75 114,-149.12 159.82,-106.29 188.8,-84.16"/>
<polygon fill="#63b8ff" stroke="#63b8ff" points="190.57,-86.47 196.54,-77.72 186.41,-80.84 190.57,-86.47"/>
</g>
<!-- Node12 -->
<g id="node12" class="node">
<title>Node12</title>
<g id="a_node12"><a xlink:href="../../dd/d5c/stl__extensions_8hpp.html" target="_top" xlink:title=" ">
<polygon fill="white" stroke="#666666" points="893.88,-147 772.12,-147 772.12,-113.5 893.88,-113.5 893.88,-147"/>
<text text-anchor="start" x="780.12" y="-133.5" font-family="Helvetica,sans-Serif" font-size="10.00">Simple&#45;Utility/concepts</text>
<text text-anchor="middle" x="833" y="-120.75" font-family="Helvetica,sans-Serif" font-size="10.00">/stl_extensions.hpp</text>
</a>
</g>
</g>
<!-- Node1&#45;&gt;Node12 -->
<g id="edge21" class="edge">
<title>Node1&#45;&gt;Node12</title>
<path fill="none" stroke="#63b8ff" d="M446.78,-403.9C533.19,-396.17 687.8,-370.58 785,-286 822.18,-253.65 830.95,-193.1 832.78,-158.1"/>
<polygon fill="#63b8ff" stroke="#63b8ff" points="836.31,-158.41 833.17,-148.29 829.32,-158.16 836.31,-158.41"/>
</g>
<!-- Node14 -->
<g id="node14" class="node">
<title>Node14</title>
<g id="a_node14"><a xlink:href="../../d3/d48/_composition_8hpp.html" target="_top" xlink:title=" ">
<polygon fill="white" stroke="#666666" points="493.5,-355.5 366.5,-355.5 366.5,-322 493.5,-322 493.5,-355.5"/>
<text text-anchor="start" x="374.5" y="-342" font-family="Helvetica,sans-Serif" font-size="10.00">Simple&#45;Utility/functional</text>
<text text-anchor="middle" x="430" y="-329.25" font-family="Helvetica,sans-Serif" font-size="10.00">/Composition.hpp</text>
</a>
</g>
</g>
<!-- Node1&#45;&gt;Node14 -->
<g id="edge24" class="edge">
<title>Node1&#45;&gt;Node14</title>
<path fill="none" stroke="#63b8ff" d="M394.14,-391.25C399.7,-383.27 406.55,-373.43 412.77,-364.5"/>
<polygon fill="#63b8ff" stroke="#63b8ff" points="416.1,-366.84 418.94,-356.63 410.36,-362.84 416.1,-366.84"/>
</g>
<!-- Node5 -->
<g id="node5" class="node">
<title>Node5</title>
<g id="a_node5"><a xlink:href="../../dc/d83/_algorithm_8hpp.html" target="_top" xlink:title=" ">
<polygon fill="white" stroke="#666666" points="322.25,-216.5 217.75,-216.5 217.75,-183 322.25,-183 322.25,-216.5"/>
<text text-anchor="start" x="225.75" y="-203" font-family="Helvetica,sans-Serif" font-size="10.00">Simple&#45;Utility/tuple</text>
<text text-anchor="middle" x="270" y="-190.25" font-family="Helvetica,sans-Serif" font-size="10.00">/Algorithm.hpp</text>
</a>
</g>
</g>
<!-- Node4&#45;&gt;Node5 -->
<g id="edge4" class="edge">
<title>Node4&#45;&gt;Node5</title>
<path fill="none" stroke="#63b8ff" d="M247.73,-258.58C250.9,-250.35 255.6,-238.13 259.87,-227.04"/>
<polygon fill="#63b8ff" stroke="#63b8ff" points="263.44,-228.51 263.77,-217.92 256.91,-225.99 263.44,-228.51"/>
</g>
<!-- Node9 -->
<g id="node9" class="node">
<title>Node9</title>
<g id="a_node9"><a xlink:href="../../dd/d5a/_general_8hpp.html" target="_top" xlink:title=" ">
<polygon fill="white" stroke="#666666" points="303.25,-147 198.75,-147 198.75,-113.5 303.25,-113.5 303.25,-147"/>
<text text-anchor="start" x="206.75" y="-133.5" font-family="Helvetica,sans-Serif" font-size="10.00">Simple&#45;Utility/tuple</text>
<text text-anchor="middle" x="251" y="-120.75" font-family="Helvetica,sans-Serif" font-size="10.00">/General.hpp</text>
</a>
</g>
</g>
<!-- Node4&#45;&gt;Node9 -->
<g id="edge19" class="edge">
<title>Node4&#45;&gt;Node9</title>
<path fill="none" stroke="#63b8ff" d="M234.75,-258.51C226.18,-248.76 214.02,-232.89 209,-216.5 204.64,-202.26 204.02,-197.03 209,-183 212.62,-172.8 219.2,-163.15 226.09,-155"/>
<polygon fill="#63b8ff" stroke="#63b8ff" points="228.14,-157.85 232.28,-148.1 222.96,-153.14 228.14,-157.85"/>
</g>
<!-- Node6 -->
<g id="node6" class="node">
<title>Node6</title>
<g id="a_node6"><a xlink:title=" ">
<polygon fill="#e0e0e0" stroke="#999999" points="208.5,-20.75 147.5,-20.75 147.5,0 208.5,0 208.5,-20.75"/>
<text text-anchor="middle" x="178" y="-7.25" font-family="Helvetica,sans-Serif" font-size="10.00">algorithm</text>
</a>
</g>
</g>
<!-- Node5&#45;&gt;Node6 -->
<g id="edge5" class="edge">
<title>Node5&#45;&gt;Node6</title>
<path fill="none" stroke="#63b8ff" d="M237.38,-182.56C202.77,-163.17 150.7,-127 133,-77.5 129.89,-68.82 129.49,-65.28 133,-56.75 137.63,-45.52 146.53,-35.59 155.2,-27.91"/>
<polygon fill="#63b8ff" stroke="#63b8ff" points="157.11,-30.05 162.63,-21.01 152.68,-24.64 157.11,-30.05"/>
</g>
<!-- Node7 -->
<g id="node7" class="node">
<title>Node7</title>
<g id="a_node7"><a xlink:title=" ">
<polygon fill="#e0e0e0" stroke="#999999" points="420.88,-140.62 359.12,-140.62 359.12,-119.88 420.88,-119.88 420.88,-140.62"/>
<text text-anchor="middle" x="390" y="-127.12" font-family="Helvetica,sans-Serif" font-size="10.00">functional</text>
</a>
</g>
</g>
<!-- Node5&#45;&gt;Node7 -->
<g id="edge6" class="edge">
<title>Node5&#45;&gt;Node7</title>
<path fill="none" stroke="#63b8ff" d="M298.74,-182.58C318.35,-171.56 344.13,-157.05 363.28,-146.28"/>
<polygon fill="#63b8ff" stroke="#63b8ff" points="364.63,-148.97 371.63,-141.02 361.2,-142.87 364.63,-148.97"/>
</g>
<!-- Node8 -->
<g id="node8" class="node">
<title>Node8</title>
<g id="a_node8"><a xlink:title=" ">
<polygon fill="#e0e0e0" stroke="#999999" points="494,-20.75 430,-20.75 430,0 494,0 494,-20.75"/>
<text text-anchor="middle" x="462" y="-7.25" font-family="Helvetica,sans-Serif" font-size="10.00">type_traits</text>
</a>
</g>
</g>
<!-- Node5&#45;&gt;Node8 -->
<g id="edge7" class="edge">
<title>Node5&#45;&gt;Node8</title>
<path fill="none" stroke="#63b8ff" d="M284.39,-182.69C300.13,-165.28 326.29,-136.87 350,-113.5 381.43,-82.51 419.76,-48.29 442.45,-28.37"/>
<polygon fill="#63b8ff" stroke="#63b8ff" points="444.38,-30.46 449.61,-21.24 439.77,-25.19 444.38,-30.46"/>
</g>
<!-- Node5&#45;&gt;Node9 -->
<g id="edge8" class="edge">
<title>Node5&#45;&gt;Node9</title>
<path fill="none" stroke="#63b8ff" d="M265.5,-182.75C263.39,-175.27 260.83,-166.16 258.44,-157.7"/>
<polygon fill="#63b8ff" stroke="#63b8ff" points="261.55,-156.81 255.47,-148.13 254.81,-158.71 261.55,-156.81"/>
</g>
<!-- Node9&#45;&gt;Node2 -->
<g id="edge9" class="edge">
<title>Node9&#45;&gt;Node2</title>
<path fill="none" stroke="#63b8ff" d="M303.54,-116.18C399.48,-92.32 600.98,-42.22 685.92,-21.09"/>
<polygon fill="#63b8ff" stroke="#63b8ff" points="686.54,-24.3 695.4,-18.49 684.85,-17.5 686.54,-24.3"/>
</g>
<!-- Node9&#45;&gt;Node3 -->
<g id="edge10" class="edge">
<title>Node9&#45;&gt;Node3</title>
<path fill="none" stroke="#63b8ff" d="M201,-113.02C178.93,-104.47 153.42,-92.59 133,-77.5 115,-64.2 98.8,-44.24 88.31,-29.74"/>
<polygon fill="#63b8ff" stroke="#63b8ff" points="90.88,-28.3 82.29,-22.11 85.15,-32.31 90.88,-28.3"/>
</g>
<!-- Node9&#45;&gt;Node8 -->
<g id="edge11" class="edge">
<title>Node9&#45;&gt;Node8</title>
<path fill="none" stroke="#63b8ff" d="M279.9,-113.11C320.8,-90.25 395.05,-48.78 434.94,-26.49"/>
<polygon fill="#63b8ff" stroke="#63b8ff" points="436.5,-29.07 443.53,-21.14 433.09,-22.96 436.5,-29.07"/>
</g>
<!-- Node10 -->
<g id="node10" class="node">
<title>Node10</title>
<g id="a_node10"><a xlink:title=" ">
<polygon fill="#e0e0e0" stroke="#999999" points="330.38,-20.75 289.62,-20.75 289.62,0 330.38,0 330.38,-20.75"/>
<text text-anchor="middle" x="310" y="-7.25" font-family="Helvetica,sans-Serif" font-size="10.00">utility</text>
</a>
</g>
</g>
<!-- Node9&#45;&gt;Node10 -->
<g id="edge12" class="edge">
<title>Node9&#45;&gt;Node10</title>
<path fill="none" stroke="#63b8ff" d="M266.07,-113.1C274.43,-103.4 284.43,-90.47 291,-77.5 298.35,-63 303.25,-45.22 306.24,-31.75"/>
<polygon fill="#63b8ff" stroke="#63b8ff" points="309.82,-32.71 308.38,-22.22 302.96,-31.32 309.82,-32.71"/>
</g>
<!-- Node9&#45;&gt;Node11 -->
<g id="edge13" class="edge">
<title>Node9&#45;&gt;Node11</title>
<path fill="none" stroke="#63b8ff" d="M240.75,-113.19C235.63,-105.16 229.39,-95.38 224.04,-86.99"/>
<polygon fill="#63b8ff" stroke="#63b8ff" points="226.61,-85.51 218.28,-78.97 220.71,-89.28 226.61,-85.51"/>
</g>
<!-- Node11&#45;&gt;Node2 -->
<g id="edge15" class="edge">
<title>Node11&#45;&gt;Node2</title>
<path fill="none" stroke="#63b8ff" d="M281.99,-58.66C391.28,-46.99 598.91,-24.83 685.52,-15.59"/>
<polygon fill="#63b8ff" stroke="#63b8ff" points="685.86,-18.97 695.43,-14.42 685.12,-12.01 685.86,-18.97"/>
</g>
<!-- Node11&#45;&gt;Node3 -->
<g id="edge16" class="edge">
<title>Node11&#45;&gt;Node3</title>
<path fill="none" stroke="#63b8ff" d="M187.69,-56.34C164.92,-47.17 130.84,-33.45 106.31,-23.58"/>
<polygon fill="#63b8ff" stroke="#63b8ff" points="107.7,-19.96 97.12,-19.47 105.09,-26.46 107.7,-19.96"/>
</g>
<!-- Node11&#45;&gt;Node6 -->
<g id="edge14" class="edge">
<title>Node11&#45;&gt;Node6</title>
<path fill="none" stroke="#63b8ff" d="M205.92,-56.34C201.43,-49.1 195.16,-39.01 189.7,-30.22"/>
<polygon fill="#63b8ff" stroke="#63b8ff" points="192.27,-28.73 184.03,-22.08 186.33,-32.42 192.27,-28.73"/>
</g>
<!-- Node11&#45;&gt;Node8 -->
<g id="edge17" class="edge">
<title>Node11&#45;&gt;Node8</title>
<path fill="none" stroke="#63b8ff" d="M256.98,-56.27C302.96,-46.21 373.85,-30.68 419.06,-20.78"/>
<polygon fill="#63b8ff" stroke="#63b8ff" points="419.68,-24.01 428.7,-18.45 418.18,-17.17 419.68,-24.01"/>
</g>
<!-- Node11&#45;&gt;Node10 -->
<g id="edge18" class="edge">
<title>Node11&#45;&gt;Node10</title>
<path fill="none" stroke="#63b8ff" d="M229.52,-56.34C244.43,-48.01 266.09,-35.91 283.18,-26.36"/>
<polygon fill="#63b8ff" stroke="#63b8ff" points="284.61,-29.01 291.63,-21.08 281.19,-22.9 284.61,-29.01"/>
</g>
<!-- Node12&#45;&gt;Node2 -->
<g id="edge23" class="edge">
<title>Node12&#45;&gt;Node2</title>
<path fill="none" stroke="#63b8ff" d="M839.11,-113.07C843.94,-97.31 848.2,-73.37 837,-56.75 820.86,-32.8 789.71,-21.49 764.34,-16.15"/>
<polygon fill="#63b8ff" stroke="#63b8ff" points="765,-12.53 754.53,-14.15 763.73,-19.41 765,-12.53"/>
</g>
<!-- Node13 -->
<g id="node13" class="node">
<title>Node13</title>
<g id="a_node13"><a xlink:title=" ">
<polygon fill="#e0e0e0" stroke="#999999" points="827.88,-77.5 772.12,-77.5 772.12,-56.75 827.88,-56.75 827.88,-77.5"/>
<text text-anchor="middle" x="800" y="-64" font-family="Helvetica,sans-Serif" font-size="10.00">compare</text>
</a>
</g>
</g>
<!-- Node12&#45;&gt;Node13 -->
<g id="edge22" class="edge">
<title>Node12&#45;&gt;Node13</title>
<path fill="none" stroke="#63b8ff" d="M824.33,-113.19C820.09,-105.33 814.94,-95.81 810.48,-87.54"/>
<polygon fill="#63b8ff" stroke="#63b8ff" points="813.14,-86.1 805.31,-78.97 806.98,-89.43 813.14,-86.1"/>
</g>
<!-- Node14&#45;&gt;Node2 -->
<g id="edge25" class="edge">
<title>Node14&#45;&gt;Node2</title>
<path fill="none" stroke="#63b8ff" d="M493.77,-334.93C567.73,-330.2 683.12,-317.8 711,-286 775.25,-212.72 745.93,-81.69 731.42,-31.6"/>
<polygon fill="#63b8ff" stroke="#63b8ff" points="734.52,-30.75 728.27,-22.19 727.82,-32.77 734.52,-30.75"/>
</g>
<!-- Node14&#45;&gt;Node3 -->
<g id="edge27" class="edge">
<title>Node14&#45;&gt;Node3</title>
<path fill="none" stroke="#63b8ff" d="M366.08,-334.4C307.65,-329.4 219.95,-316.96 150,-286 92.8,-260.68 38,-263.31 38,-200.75 38,-200.75 38,-200.75 38,-129.25 38,-93.05 54.43,-53.49 65.68,-30.64"/>
<polygon fill="#63b8ff" stroke="#63b8ff" points="69.12,-32.62 70.56,-22.12 62.88,-29.43 69.12,-32.62"/>
</g>
<!-- Node14&#45;&gt;Node4 -->
<g id="edge30" class="edge">
<title>Node14&#45;&gt;Node4</title>
<path fill="none" stroke="#63b8ff" d="M385.45,-321.58C353.63,-310.03 311.31,-294.68 281.27,-283.78"/>
<polygon fill="#63b8ff" stroke="#63b8ff" points="282.79,-280.24 272.2,-280.12 280.4,-286.82 282.79,-280.24"/>
</g>
<!-- Node14&#45;&gt;Node7 -->
<g id="edge26" class="edge">
<title>Node14&#45;&gt;Node7</title>
<path fill="none" stroke="#63b8ff" d="M392.93,-321.71C378.35,-313.34 363.16,-301.55 355,-286 331.3,-240.86 360.16,-180.11 377.97,-149.91"/>
<polygon fill="#63b8ff" stroke="#63b8ff" points="381.25,-152.26 383.5,-141.9 375.28,-148.6 381.25,-152.26"/>
</g>
<!-- Node14&#45;&gt;Node8 -->
<g id="edge28" class="edge">
<title>Node14&#45;&gt;Node8</title>
<path fill="none" stroke="#63b8ff" d="M493.96,-334.02C562.52,-328.53 664.8,-315.52 689,-286 770.64,-186.43 569.44,-67.22 491.38,-26.13"/>
<polygon fill="#63b8ff" stroke="#63b8ff" points="493.13,-22.58 482.65,-21.08 489.91,-28.8 493.13,-22.58"/>
</g>
<!-- Node14&#45;&gt;Node11 -->
<g id="edge31" class="edge">
<title>Node14&#45;&gt;Node11</title>
<path fill="none" stroke="#63b8ff" d="M366.04,-334.02C297.48,-328.53 195.2,-315.52 171,-286 122.4,-226.73 174.21,-127.85 199.63,-86.83"/>
<polygon fill="#63b8ff" stroke="#63b8ff" points="203.02,-89.03 205.45,-78.71 197.12,-85.26 203.02,-89.03"/>
</g>
<!-- Node14&#45;&gt;Node12 -->
<g id="edge32" class="edge">
<title>Node14&#45;&gt;Node12</title>
<path fill="none" stroke="#63b8ff" d="M493.86,-334.75C577.69,-329.65 719.04,-316.68 760,-286 781.79,-269.68 809.79,-197.42 823.95,-157.67"/>
<polygon fill="#63b8ff" stroke="#63b8ff" points="827.54,-158.99 827.56,-148.4 820.94,-156.67 827.54,-158.99"/>
</g>
<!-- Node15 -->
<g id="node15" class="node">
<title>Node15</title>
<g id="a_node15"><a xlink:href="../../d8/dd2/_config_8hpp.html" target="_top" xlink:title=" ">
<polygon fill="white" stroke="#666666" points="496.12,-279.62 363.88,-279.62 363.88,-258.88 496.12,-258.88 496.12,-279.62"/>
<text text-anchor="middle" x="430" y="-266.12" font-family="Helvetica,sans-Serif" font-size="10.00">Simple&#45;Utility/Config.hpp</text>
</a>
</g>
</g>
<!-- Node14&#45;&gt;Node15 -->
<g id="edge29" class="edge">
<title>Node14&#45;&gt;Node15</title>
<path fill="none" stroke="#63b8ff" d="M430,-321.75C430,-312.55 430,-300.89 430,-290.99"/>
<polygon fill="#63b8ff" stroke="#63b8ff" points="433.5,-291.07 430,-281.07 426.5,-291.07 433.5,-291.07"/>
</g>
<!-- Node16 -->
<g id="node16" class="node">
<title>Node16</title>
<g id="a_node16"><a xlink:href="../../d8/d05/_basic_closure_8hpp.html" target="_top" xlink:title=" ">
<polygon fill="white" stroke="#666666" points="575.5,-216.5 448.5,-216.5 448.5,-183 575.5,-183 575.5,-216.5"/>
<text text-anchor="start" x="456.5" y="-203" font-family="Helvetica,sans-Serif" font-size="10.00">Simple&#45;Utility/functional</text>
<text text-anchor="middle" x="512" y="-190.25" font-family="Helvetica,sans-Serif" font-size="10.00">/BasicClosure.hpp</text>
</a>
</g>
</g>
<!-- Node14&#45;&gt;Node16 -->
<g id="edge33" class="edge">
<title>Node14&#45;&gt;Node16</title>
<path fill="none" stroke="#63b8ff" d="M466.07,-321.61C480.66,-313.16 496.13,-301.34 505,-286 515.19,-268.39 516.47,-245.21 515.47,-227.47"/>
<polygon fill="#63b8ff" stroke="#63b8ff" points="518.89,-227.38 514.55,-217.71 511.92,-227.97 518.89,-227.38"/>
</g>
<!-- Node17 -->
<g id="node17" class="node">
<title>Node17</title>
<g id="a_node17"><a xlink:href="../../d6/d50/_overloaded_8hpp.html" target="_top" xlink:title=" ">
<polygon fill="white" stroke="#666666" points="679.5,-286 552.5,-286 552.5,-252.5 679.5,-252.5 679.5,-286"/>
<text text-anchor="start" x="560.5" y="-272.5" font-family="Helvetica,sans-Serif" font-size="10.00">Simple&#45;Utility/functional</text>
<text text-anchor="middle" x="616" y="-259.75" font-family="Helvetica,sans-Serif" font-size="10.00">/Overloaded.hpp</text>
</a>
</g>
</g>
<!-- Node14&#45;&gt;Node17 -->
<g id="edge39" class="edge">
<title>Node14&#45;&gt;Node17</title>
<path fill="none" stroke="#63b8ff" d="M474.55,-321.58C500.57,-312.14 533.6,-300.15 561.2,-290.14"/>
<polygon fill="#63b8ff" stroke="#63b8ff" points="562.28,-293.1 570.49,-286.4 559.9,-286.52 562.28,-293.1"/>
</g>
<!-- Node16&#45;&gt;Node2 -->
<g id="edge34" class="edge">
<title>Node16&#45;&gt;Node2</title>
<path fill="none" stroke="#63b8ff" d="M530.16,-182.77C570.09,-147.65 665.19,-63.99 705.93,-28.15"/>
<polygon fill="#63b8ff" stroke="#63b8ff" points="707.79,-30.3 712.98,-21.07 703.16,-25.04 707.79,-30.3"/>
</g>
<!-- Node16&#45;&gt;Node7 -->
<g id="edge35" class="edge">
<title>Node16&#45;&gt;Node7</title>
<path fill="none" stroke="#63b8ff" d="M482.78,-182.58C462.85,-171.56 436.64,-157.05 417.16,-146.28"/>
<polygon fill="#63b8ff" stroke="#63b8ff" points="419.1,-142.8 408.66,-141.02 415.72,-148.92 419.1,-142.8"/>
</g>
<!-- Node16&#45;&gt;Node8 -->
<g id="edge36" class="edge">
<title>Node16&#45;&gt;Node8</title>
<path fill="none" stroke="#63b8ff" d="M508.27,-182.92C502,-156.62 488.79,-102.29 476,-56.75 473.66,-48.43 470.89,-39.32 468.44,-31.46"/>
<polygon fill="#63b8ff" stroke="#63b8ff" points="471.5,-30.55 465.15,-22.07 464.83,-32.66 471.5,-30.55"/>
</g>
<!-- Node16&#45;&gt;Node10 -->
<g id="edge37" class="edge">
<title>Node16&#45;&gt;Node10</title>
<path fill="none" stroke="#63b8ff" d="M497.34,-182.58C481.28,-165.07 454.53,-136.58 430,-113.5 396.43,-81.92 355.07,-47.67 330.72,-27.95"/>
<polygon fill="#63b8ff" stroke="#63b8ff" points="333.25,-24.69 323.27,-21.14 328.86,-30.14 333.25,-24.69"/>
</g>
<!-- Node16&#45;&gt;Node12 -->
<g id="edge38" class="edge">
<title>Node16&#45;&gt;Node12</title>
<path fill="none" stroke="#63b8ff" d="M575.8,-185.33C629.31,-174.08 705.67,-158.02 761.29,-146.33"/>
<polygon fill="#63b8ff" stroke="#63b8ff" points="761.7,-149.61 770.77,-144.13 760.26,-142.76 761.7,-149.61"/>
</g>
</g>
</svg>
        <g id="navigator" transform="translate(0 0)" fill="#404254">
                <rect fill="#f2f5e9" fill-opacity="0.5" stroke="#606060" stroke-width=".5" x="0" y="0" width="60" height="60"/>
                <use id="zoomplus" xlink:href="#zoomPlus" x="17" y="9" onmousedown="handleZoom(evt,'in')"/>
                <use id="zoomminus" xlink:href="#zoomMin" x="42" y="9" onmousedown="handleZoom(evt,'out')"/>
                <use id="reset" xlink:href="#resetDef" x="30" y="36" onmousedown="handleReset()"/>
                <g id="arrowUp" xlink:href="#dirArrow" transform="translate(30 24)" onmousedown="handlePan(0,-1)">
                  <use xlink:href="#rim" fill="#404040">
                        <set attributeName="fill" to="#808080" begin="arrowUp.mouseover" end="arrowUp.mouseout"/>
                  </use>
                  <path fill="none" stroke="white" stroke-width="1.5" d="M0,-3.0v7 M-2.5,-0.5L0,-3.0L2.5,-0.5"/>
                </g>
                <g id="arrowRight" xlink:href="#dirArrow" transform="rotate(90) translate(36 -43)" onmousedown="handlePan(1,0)">
                  <use xlink:href="#rim" fill="#404040">
                        <set attributeName="fill" to="#808080" begin="arrowRight.mouseover" end="arrowRight.mouseout"/>
                  </use>
                  <path fill="none" stroke="white" stroke-width="1.5" d="M0,-3.0v7 M-2.5,-0.5L0,-3.0L2.5,-0.5"/>
                </g>
                <g id="arrowDown" xlink:href="#dirArrow" transform="rotate(180) translate(-30 -48)" onmousedown="handlePan(0,1)">
                  <use xlink:href="#rim" fill="#404040">
                        <set attributeName="fill" to="#808080" begin="arrowDown.mouseover" end="arrowDown.mouseout"/>
                  </use>
                  <path fill="none" stroke="white" stroke-width="1.5" d="M0,-3.0v7 M-2.5,-0.5L0,-3.0L2.5,-0.5"/>
                </g>
                <g id="arrowLeft" xlink:href="#dirArrow" transform="rotate(270) translate(-36 17)" onmousedown="handlePan(-1,0)">
                  <use xlink:href="#rim" fill="#404040">
                        <set attributeName="fill" to="#808080" begin="arrowLeft.mouseover" end="arrowLeft.mouseout"/>
                  </use>
                  <path fill="none" stroke="white" stroke-width="1.5" d="M0,-3.0v7 M-2.5,-0.5L0,-3.0L2.5,-0.5"/>
                </g>
        </g>
        <svg viewBox="0 0 15 15" width="100%" height="30px" preserveAspectRatio="xMaxYMin meet">
         <g id="arrow_out" transform="scale(0.3 0.3)">
          <a xlink:href="_pipe_8hpp__incl_org.svg" target="_base">
           <rect id="button" ry="5" rx="5" y="6" x="6" height="38" width="38"
                fill="#f2f5e9" fill-opacity="0.5" stroke="#606060" stroke-width="1.0"/>
           <path id="arrow"
             d="M 11.500037,31.436501 C 11.940474,20.09759 22.043105,11.32322 32.158766,21.979434 L 37.068811,17.246167 C 37.068811,17.246167 37.088388,32 37.088388,32 L 22.160133,31.978069 C 22.160133,31.978069 26.997745,27.140456 26.997745,27.140456 C 18.528582,18.264221 13.291696,25.230495 11.500037,31.436501 z"
             style="fill:#404040;"/>
          </a>
         </g>
        </svg>
</svg>
