<?xml version="1.0" encoding="UTF-8" standalone="no"?>
<!DOCTYPE svg PUBLIC "-//W3C//DTD SVG 1.1//EN"
 "http://www.w3.org/Graphics/SVG/1.1/DTD/svg11.dtd">
<!-- Generated by graphviz version 8.0.5 (20230430.1635)
 -->
<!-- Title: Simple&#45;Utility/functional/transform.hpp Pages: 1 -->
<svg width="1155pt" height="168pt"
 viewBox="0.00 0.00 1154.65 167.75" xmlns="http://www.w3.org/2000/svg" xmlns:xlink="http://www.w3.org/1999/xlink">
<g id="graph0" class="graph" transform="scale(1 1) rotate(0) translate(4 163.75)">
<title>Simple&#45;Utility/functional/transform.hpp</title>
<!-- Node1 -->
<g id="node1" class="node">
<title>Node1</title>
<g id="a_node1"><a xlink:title=" ">
<polygon fill="#999999" stroke="#666666" points="582.9,-159.75 455.9,-159.75 455.9,-126.25 582.9,-126.25 582.9,-159.75"/>
<text text-anchor="start" x="463.9" y="-146.25" font-family="Helvetica,sans-Serif" font-size="10.00">Simple&#45;Utility/functional</text>
<text text-anchor="middle" x="519.4" y="-133.5" font-family="Helvetica,sans-Serif" font-size="10.00">/transform.hpp</text>
</a>
</g>
</g>
<!-- Node2 -->
<g id="node2" class="node">
<title>Node2</title>
<g id="a_node2"><a xlink:href="../../d2/db4/functional_8hpp.html" target="_top" xlink:title=" ">
<polygon fill="white" stroke="#666666" points="303.02,-20.75 155.77,-20.75 155.77,0 303.02,0 303.02,-20.75"/>
<text text-anchor="middle" x="229.4" y="-7.25" font-family="Helvetica,sans-Serif" font-size="10.00">Simple&#45;Utility/functional.hpp</text>
</a>
</g>
</g>
<!-- Node1&#45;&gt;Node2 -->
<g id="edge1" class="edge">
<title>Node1&#45;&gt;Node2</title>
<path fill="none" stroke="#63b8ff" d="M444.56,-139.81C310.32,-135.09 39.86,-121.76 11.4,-90.25 -34.27,-39.7 75.74,-21.51 155.53,-14.99"/>
<polygon fill="#63b8ff" stroke="#63b8ff" points="444.43,-143.34 454.55,-140.18 444.67,-136.34 444.43,-143.34"/>
</g>
<!-- Node3 -->
<g id="node3" class="node">
<title>Node3</title>
<g id="a_node3"><a xlink:href="../../d3/d23/arithmetic_8hpp.html" target="_top" xlink:title=" ">
<polygon fill="white" stroke="#666666" points="147.9,-90.25 20.9,-90.25 20.9,-56.75 147.9,-56.75 147.9,-90.25"/>
<text text-anchor="start" x="28.9" y="-76.75" font-family="Helvetica,sans-Serif" font-size="10.00">Simple&#45;Utility/functional</text>
<text text-anchor="middle" x="84.4" y="-64" font-family="Helvetica,sans-Serif" font-size="10.00">/arithmetic.hpp</text>
</a>
</g>
</g>
<!-- Node1&#45;&gt;Node3 -->
<g id="edge2" class="edge">
<title>Node1&#45;&gt;Node3</title>
<path fill="none" stroke="#63b8ff" d="M445.02,-133.03C371.47,-123.77 255.81,-108.19 156.4,-90.25 153.75,-89.77 151.06,-89.27 148.34,-88.74"/>
<polygon fill="#63b8ff" stroke="#63b8ff" points="444.2,-136.58 454.56,-134.35 445.07,-129.63 444.2,-136.58"/>
</g>
<!-- Node4 -->
<g id="node4" class="node">
<title>Node4</title>
<g id="a_node4"><a xlink:href="../../dd/d3f/compare_8hpp.html" target="_top" xlink:title=" ">
<polygon fill="white" stroke="#666666" points="292.9,-90.25 165.9,-90.25 165.9,-56.75 292.9,-56.75 292.9,-90.25"/>
<text text-anchor="start" x="173.9" y="-76.75" font-family="Helvetica,sans-Serif" font-size="10.00">Simple&#45;Utility/functional</text>
<text text-anchor="middle" x="229.4" y="-64" font-family="Helvetica,sans-Serif" font-size="10.00">/compare.hpp</text>
</a>
</g>
</g>
<!-- Node1&#45;&gt;Node4 -->
<g id="edge4" class="edge">
<title>Node1&#45;&gt;Node4</title>
<path fill="none" stroke="#63b8ff" d="M445.04,-124.69C398.14,-113.78 338.17,-99.82 293.39,-89.4"/>
<polygon fill="#63b8ff" stroke="#63b8ff" points="444.22,-128.33 454.75,-127.19 445.81,-121.51 444.22,-128.33"/>
</g>
<!-- Node5 -->
<g id="node5" class="node">
<title>Node5</title>
<g id="a_node5"><a xlink:href="../../d9/d5f/functional_2tuple_8hpp.html" target="_top" xlink:title=" ">
<polygon fill="white" stroke="#666666" points="437.9,-90.25 310.9,-90.25 310.9,-56.75 437.9,-56.75 437.9,-90.25"/>
<text text-anchor="start" x="318.9" y="-76.75" font-family="Helvetica,sans-Serif" font-size="10.00">Simple&#45;Utility/functional</text>
<text text-anchor="middle" x="374.4" y="-64" font-family="Helvetica,sans-Serif" font-size="10.00">/tuple.hpp</text>
</a>
</g>
</g>
<!-- Node1&#45;&gt;Node5 -->
<g id="edge6" class="edge">
<title>Node1&#45;&gt;Node5</title>
<path fill="none" stroke="#63b8ff" d="M474.93,-121.3C453.77,-111.45 428.83,-99.84 409.09,-90.65"/>
<polygon fill="#63b8ff" stroke="#63b8ff" points="473.12,-124.78 483.66,-125.83 476.08,-118.44 473.12,-124.78"/>
</g>
<!-- Node6 -->
<g id="node6" class="node">
<title>Node6</title>
<g id="a_node6"><a xlink:href="../../df/d4e/functional_2utility_8hpp.html" target="_top" xlink:title=" ">
<polygon fill="white" stroke="#666666" points="582.9,-90.25 455.9,-90.25 455.9,-56.75 582.9,-56.75 582.9,-90.25"/>
<text text-anchor="start" x="463.9" y="-76.75" font-family="Helvetica,sans-Serif" font-size="10.00">Simple&#45;Utility/functional</text>
<text text-anchor="middle" x="519.4" y="-64" font-family="Helvetica,sans-Serif" font-size="10.00">/utility.hpp</text>
</a>
</g>
</g>
<!-- Node1&#45;&gt;Node6 -->
<g id="edge8" class="edge">
<title>Node1&#45;&gt;Node6</title>
<path fill="none" stroke="#63b8ff" d="M519.4,-115.14C519.4,-106.75 519.4,-97.76 519.4,-90.38"/>
<polygon fill="#63b8ff" stroke="#63b8ff" points="515.9,-115 519.4,-125 522.9,-115 515.9,-115"/>
</g>
<!-- Node7 -->
<g id="node7" class="node">
<title>Node7</title>
<g id="a_node7"><a xlink:href="../../d4/dc9/and__then_8hpp.html" target="_top" xlink:title=" ">
<polygon fill="white" stroke="#666666" points="723.65,-90.25 601.15,-90.25 601.15,-56.75 723.65,-56.75 723.65,-90.25"/>
<text text-anchor="start" x="609.15" y="-76.75" font-family="Helvetica,sans-Serif" font-size="10.00">Simple&#45;Utility/nullables</text>
<text text-anchor="middle" x="662.4" y="-64" font-family="Helvetica,sans-Serif" font-size="10.00">/and_then.hpp</text>
</a>
</g>
</g>
<!-- Node1&#45;&gt;Node7 -->
<g id="edge10" class="edge">
<title>Node1&#45;&gt;Node7</title>
<path fill="none" stroke="#63b8ff" d="M563.57,-121.15C584.46,-111.29 609.02,-99.7 628.42,-90.54"/>
<polygon fill="#63b8ff" stroke="#63b8ff" points="562.2,-118.4 554.65,-125.83 565.19,-124.73 562.2,-118.4"/>
</g>
<!-- Node9 -->
<g id="node9" class="node">
<title>Node9</title>
<g id="a_node9"><a xlink:href="../../d7/d5f/fwd__value_8hpp.html" target="_top" xlink:title=" ">
<polygon fill="white" stroke="#666666" points="864.65,-90.25 742.15,-90.25 742.15,-56.75 864.65,-56.75 864.65,-90.25"/>
<text text-anchor="start" x="750.15" y="-76.75" font-family="Helvetica,sans-Serif" font-size="10.00">Simple&#45;Utility/nullables</text>
<text text-anchor="middle" x="803.4" y="-64" font-family="Helvetica,sans-Serif" font-size="10.00">/fwd_value.hpp</text>
</a>
</g>
</g>
<!-- Node1&#45;&gt;Node9 -->
<g id="edge12" class="edge">
<title>Node1&#45;&gt;Node9</title>
<path fill="none" stroke="#63b8ff" d="M593.67,-124.35C639.77,-113.39 698.31,-99.48 741.82,-89.13"/>
<polygon fill="#63b8ff" stroke="#63b8ff" points="593.05,-121.13 584.13,-126.85 594.67,-127.94 593.05,-121.13"/>
</g>
<!-- Node10 -->
<g id="node10" class="node">
<title>Node10</title>
<g id="a_node10"><a xlink:href="../../d2/d0e/or__else_8hpp.html" target="_top" xlink:title=" ">
<polygon fill="white" stroke="#666666" points="1005.65,-90.25 883.15,-90.25 883.15,-56.75 1005.65,-56.75 1005.65,-90.25"/>
<text text-anchor="start" x="891.15" y="-76.75" font-family="Helvetica,sans-Serif" font-size="10.00">Simple&#45;Utility/nullables</text>
<text text-anchor="middle" x="944.4" y="-64" font-family="Helvetica,sans-Serif" font-size="10.00">/or_else.hpp</text>
</a>
</g>
</g>
<!-- Node1&#45;&gt;Node10 -->
<g id="edge14" class="edge">
<title>Node1&#45;&gt;Node10</title>
<path fill="none" stroke="#63b8ff" d="M593.99,-132.71C665.81,-123.38 777.38,-107.89 873.4,-90.25 876.5,-89.68 879.68,-89.07 882.88,-88.44"/>
<polygon fill="#63b8ff" stroke="#63b8ff" points="593.72,-129.34 584.26,-134.09 594.62,-136.28 593.72,-129.34"/>
</g>
<!-- Node11 -->
<g id="node11" class="node">
<title>Node11</title>
<g id="a_node11"><a xlink:href="../../d0/d48/value__or_8hpp.html" target="_top" xlink:title=" ">
<polygon fill="white" stroke="#666666" points="1146.65,-90.25 1024.15,-90.25 1024.15,-56.75 1146.65,-56.75 1146.65,-90.25"/>
<text text-anchor="start" x="1032.15" y="-76.75" font-family="Helvetica,sans-Serif" font-size="10.00">Simple&#45;Utility/nullables</text>
<text text-anchor="middle" x="1085.4" y="-64" font-family="Helvetica,sans-Serif" font-size="10.00">/value_or.hpp</text>
</a>
</g>
</g>
<!-- Node1&#45;&gt;Node11 -->
<g id="edge16" class="edge">
<title>Node1&#45;&gt;Node11</title>
<path fill="none" stroke="#63b8ff" d="M594.28,-136.85C691.54,-129.54 866.37,-114.32 1014.4,-90.25 1017.51,-89.74 1020.7,-89.19 1023.91,-88.59"/>
<polygon fill="#63b8ff" stroke="#63b8ff" points="594.1,-133.42 584.39,-137.66 594.62,-140.41 594.1,-133.42"/>
</g>
<!-- Node3&#45;&gt;Node2 -->
<g id="edge3" class="edge">
<title>Node3&#45;&gt;Node2</title>
<path fill="none" stroke="#63b8ff" d="M132.81,-52.09C157.53,-41.67 186.46,-29.47 206.17,-21.17"/>
<polygon fill="#63b8ff" stroke="#63b8ff" points="131.73,-49.17 123.87,-56.28 134.45,-55.62 131.73,-49.17"/>
</g>
<!-- Node4&#45;&gt;Node2 -->
<g id="edge5" class="edge">
<title>Node4&#45;&gt;Node2</title>
<path fill="none" stroke="#63b8ff" d="M229.4,-45.52C229.4,-36.87 229.4,-27.82 229.4,-21.22"/>
<polygon fill="#63b8ff" stroke="#63b8ff" points="225.9,-45.44 229.4,-55.44 232.9,-45.44 225.9,-45.44"/>
</g>
<!-- Node5&#45;&gt;Node2 -->
<g id="edge7" class="edge">
<title>Node5&#45;&gt;Node2</title>
<path fill="none" stroke="#63b8ff" d="M325.98,-52.09C301.26,-41.67 272.33,-29.47 252.62,-21.17"/>
<polygon fill="#63b8ff" stroke="#63b8ff" points="324.34,-55.62 334.92,-56.28 327.06,-49.17 324.34,-55.62"/>
</g>
<!-- Node6&#45;&gt;Node2 -->
<g id="edge9" class="edge">
<title>Node6&#45;&gt;Node2</title>
<path fill="none" stroke="#63b8ff" d="M445,-56.46C381.01,-42.89 318.48,-29.85 276.83,-21.2"/>
<polygon fill="#63b8ff" stroke="#63b8ff" points="444.19,-60.08 454.7,-58.73 445.64,-53.23 444.19,-60.08"/>
</g>
<!-- Node8 -->
<g id="node8" class="node">
<title>Node8</title>
<g id="a_node8"><a xlink:href="../../d3/ddc/nullables_8hpp.html" target="_top" xlink:title=" ">
<polygon fill="white" stroke="#666666" points="944.77,-20.75 802.02,-20.75 802.02,0 944.77,0 944.77,-20.75"/>
<text text-anchor="middle" x="873.4" y="-7.25" font-family="Helvetica,sans-Serif" font-size="10.00">Simple&#45;Utility/nullables.hpp</text>
</a>
</g>
</g>
<!-- Node7&#45;&gt;Node8 -->
<g id="edge11" class="edge">
<title>Node7&#45;&gt;Node8</title>
<path fill="none" stroke="#63b8ff" d="M728.57,-53.33C765.43,-42.65 809.77,-29.81 839.6,-21.17"/>
<polygon fill="#63b8ff" stroke="#63b8ff" points="728.02,-50.14 719.39,-56.28 729.97,-56.86 728.02,-50.14"/>
</g>
<!-- Node9&#45;&gt;Node8 -->
<g id="edge13" class="edge">
<title>Node9&#45;&gt;Node8</title>
<path fill="none" stroke="#63b8ff" d="M829.98,-49.28C841.12,-39.56 853.46,-28.79 862.12,-21.22"/>
<polygon fill="#63b8ff" stroke="#63b8ff" points="828.02,-47.23 822.79,-56.44 832.62,-52.5 828.02,-47.23"/>
</g>
<!-- Node10&#45;&gt;Node8 -->
<g id="edge15" class="edge">
<title>Node10&#45;&gt;Node8</title>
<path fill="none" stroke="#63b8ff" d="M917.43,-49.28C906.14,-39.56 893.62,-28.79 884.83,-21.22"/>
<polygon fill="#63b8ff" stroke="#63b8ff" points="914.88,-52.57 924.74,-56.44 919.45,-47.26 914.88,-52.57"/>
</g>
<!-- Node11&#45;&gt;Node8 -->
<g id="edge17" class="edge">
<title>Node11&#45;&gt;Node8</title>
<path fill="none" stroke="#63b8ff" d="M1018.91,-53.33C981.87,-42.65 937.32,-29.81 907.35,-21.17"/>
<polygon fill="#63b8ff" stroke="#63b8ff" points="1017.56,-56.87 1028.14,-56.28 1019.5,-50.15 1017.56,-56.87"/>
</g>
</g>
</svg>
