<?xml version="1.0" encoding="UTF-8" standalone="no"?>
<!DOCTYPE svg PUBLIC "-//W3C//DTD SVG 1.1//EN"
 "http://www.w3.org/Graphics/SVG/1.1/DTD/svg11.dtd">
<!-- Generated by graphviz version 7.0.5 (20221223.1930)
 -->
<!-- Title: Simple&#45;Utility/functional/operators/equivalent.hpp Pages: 1 -->
<svg width="192pt" height="225pt"
 viewBox="0.00 0.00 192.00 225.00" xmlns="http://www.w3.org/2000/svg" xmlns:xlink="http://www.w3.org/1999/xlink">
<g id="graph0" class="graph" transform="scale(1 1) rotate(0) translate(4 221)">
<title>Simple&#45;Utility/functional/operators/equivalent.hpp</title>
<!-- Node1 -->
<g id="node1" class="node">
<title>Node1</title>
<g id="a_node1"><a xlink:title=" ">
<polygon fill="#999999" stroke="#666666" points="141.5,-217 6.5,-217 6.5,-187 141.5,-187 141.5,-217"/>
<text text-anchor="start" x="14.5" y="-205" font-family="Helvetica,sans-Serif" font-size="10.00">Simple&#45;Utility/functional</text>
<text text-anchor="middle" x="74" y="-194" font-family="Helvetica,sans-Serif" font-size="10.00">/operators/equivalent.hpp</text>
</a>
</g>
</g>
<!-- Node2 -->
<g id="node2" class="node">
<title>Node2</title>
<g id="a_node2"><a xlink:href="../../d2/d7e/predicate_8hpp.html" target="_top" xlink:title=" ">
<polygon fill="white" stroke="#666666" points="138,-151 10,-151 10,-121 138,-121 138,-151"/>
<text text-anchor="start" x="18" y="-139" font-family="Helvetica,sans-Serif" font-size="10.00">Simple&#45;Utility/functional</text>
<text text-anchor="middle" x="74" y="-128" font-family="Helvetica,sans-Serif" font-size="10.00">/predicate.hpp</text>
</a>
</g>
</g>
<!-- Node1&#45;&gt;Node2 -->
<g id="edge1" class="edge">
<title>Node1&#45;&gt;Node2</title>
<path fill="none" stroke="#63b8ff" d="M74,-175.39C74,-167.13 74,-158.28 74,-151.16"/>
<polygon fill="#63b8ff" stroke="#63b8ff" points="70.5,-175.28 74,-185.28 77.5,-175.28 70.5,-175.28"/>
</g>
<!-- Node3 -->
<g id="node3" class="node">
<title>Node3</title>
<g id="a_node3"><a xlink:href="../../d2/db4/functional_8hpp.html" target="_top" xlink:title=" ">
<polygon fill="white" stroke="#666666" points="148,-19 0,-19 0,0 148,0 148,-19"/>
<text text-anchor="middle" x="74" y="-7" font-family="Helvetica,sans-Serif" font-size="10.00">Simple&#45;Utility/functional.hpp</text>
</a>
</g>
</g>
<!-- Node2&#45;&gt;Node3 -->
<g id="edge2" class="edge">
<title>Node2&#45;&gt;Node3</title>
<path fill="none" stroke="#63b8ff" d="M58.06,-111.22C53.57,-103.23 49.29,-94.04 47,-85 43.73,-72.07 43.41,-67.84 47,-55 50.8,-41.42 59.99,-27.87 66.6,-19.35"/>
<polygon fill="#63b8ff" stroke="#63b8ff" points="54.97,-112.88 63.15,-119.62 60.96,-109.25 54.97,-112.88"/>
</g>
<!-- Node4 -->
<g id="node4" class="node">
<title>Node4</title>
<g id="a_node4"><a xlink:href="../../dd/d3f/compare_8hpp.html" target="_top" xlink:title=" ">
<polygon fill="white" stroke="#666666" points="184,-85 56,-85 56,-55 184,-55 184,-85"/>
<text text-anchor="start" x="64" y="-73" font-family="Helvetica,sans-Serif" font-size="10.00">Simple&#45;Utility/functional</text>
<text text-anchor="middle" x="120" y="-62" font-family="Helvetica,sans-Serif" font-size="10.00">/compare.hpp</text>
</a>
</g>
</g>
<!-- Node2&#45;&gt;Node4 -->
<g id="edge3" class="edge">
<title>Node2&#45;&gt;Node4</title>
<path fill="none" stroke="#63b8ff" d="M90.76,-111.68C97.15,-102.79 104.23,-92.95 109.82,-85.16"/>
<polygon fill="#63b8ff" stroke="#63b8ff" points="88.09,-109.4 85.09,-119.57 93.77,-113.49 88.09,-109.4"/>
</g>
<!-- Node4&#45;&gt;Node3 -->
<g id="edge4" class="edge">
<title>Node4&#45;&gt;Node3</title>
<path fill="none" stroke="#63b8ff" d="M101.63,-45.64C94.3,-36.32 86.31,-26.16 80.82,-19.18"/>
<polygon fill="#63b8ff" stroke="#63b8ff" points="98.76,-47.65 107.69,-53.35 104.26,-43.33 98.76,-47.65"/>
</g>
</g>
</svg>
