<?xml version="1.0" encoding="UTF-8" standalone="no"?>
<!DOCTYPE svg PUBLIC "-//W3C//DTD SVG 1.1//EN"
 "http://www.w3.org/Graphics/SVG/1.1/DTD/svg11.dtd">
<!-- Generated by graphviz version 8.0.5 (20230430.1635)
 -->
<!-- Title: Simple&#45;Utility/nullables/adapter.hpp Pages: 1 -->
<svg width="919pt" height="376pt"
 viewBox="0.00 0.00 919.38 376.25" xmlns="http://www.w3.org/2000/svg" xmlns:xlink="http://www.w3.org/1999/xlink">
<g id="graph0" class="graph" transform="scale(1 1) rotate(0) translate(4 372.25)">
<title>Simple&#45;Utility/nullables/adapter.hpp</title>
<!-- Node1 -->
<g id="node1" class="node">
<title>Node1</title>
<g id="a_node1"><a xlink:title=" ">
<polygon fill="#999999" stroke="#666666" points="503.12,-368.25 380.62,-368.25 380.62,-334.75 503.12,-334.75 503.12,-368.25"/>
<text text-anchor="start" x="388.62" y="-354.75" font-family="Helvetica,sans-Serif" font-size="10.00">Simple&#45;Utility/nullables</text>
<text text-anchor="middle" x="441.88" y="-342" font-family="Helvetica,sans-Serif" font-size="10.00">/adapter.hpp</text>
</a>
</g>
</g>
<!-- Node2 -->
<g id="node2" class="node">
<title>Node2</title>
<g id="a_node2"><a xlink:href="../../d8/dd2/_config_8hpp.html" target="_top" xlink:title=" ">
<polygon fill="white" stroke="#666666" points="272,-83.88 139.75,-83.88 139.75,-63.12 272,-63.12 272,-83.88"/>
<text text-anchor="middle" x="205.88" y="-70.38" font-family="Helvetica,sans-Serif" font-size="10.00">Simple&#45;Utility/Config.hpp</text>
</a>
</g>
</g>
<!-- Node1&#45;&gt;Node2 -->
<g id="edge1" class="edge">
<title>Node1&#45;&gt;Node2</title>
<path fill="none" stroke="#63b8ff" d="M415.36,-334.45C369.92,-305.5 277.48,-240.03 229.88,-159.75 217.9,-139.56 211.67,-113.13 208.6,-95.09"/>
<polygon fill="#63b8ff" stroke="#63b8ff" points="211.93,-94.71 206.97,-85.35 205.01,-95.76 211.93,-94.71"/>
</g>
<!-- Node3 -->
<g id="node3" class="node">
<title>Node3</title>
<g id="a_node3"><a xlink:href="../../dd/d5c/stl__extensions_8hpp.html" target="_top" xlink:title=" ">
<polygon fill="white" stroke="#666666" points="121.75,-90.25 0,-90.25 0,-56.75 121.75,-56.75 121.75,-90.25"/>
<text text-anchor="start" x="8" y="-76.75" font-family="Helvetica,sans-Serif" font-size="10.00">Simple&#45;Utility/concepts</text>
<text text-anchor="middle" x="60.88" y="-64" font-family="Helvetica,sans-Serif" font-size="10.00">/stl_extensions.hpp</text>
</a>
</g>
</g>
<!-- Node1&#45;&gt;Node3 -->
<g id="edge2" class="edge">
<title>Node1&#45;&gt;Node3</title>
<path fill="none" stroke="#63b8ff" d="M394.81,-334.29C371.47,-325.33 343.33,-313.1 319.88,-298.75 222.65,-239.25 125.84,-143.16 83.31,-98.61"/>
<polygon fill="#63b8ff" stroke="#63b8ff" points="86.2,-96.51 76.78,-91.66 81.12,-101.33 86.2,-96.51"/>
</g>
<!-- Node5 -->
<g id="node5" class="node">
<title>Node5</title>
<g id="a_node5"><a xlink:href="../../d6/dbe/nullables_2base_8hpp.html" target="_top" xlink:title=" ">
<polygon fill="white" stroke="#666666" points="503.12,-298.75 380.62,-298.75 380.62,-265.25 503.12,-265.25 503.12,-298.75"/>
<text text-anchor="start" x="388.62" y="-285.25" font-family="Helvetica,sans-Serif" font-size="10.00">Simple&#45;Utility/nullables</text>
<text text-anchor="middle" x="441.88" y="-272.5" font-family="Helvetica,sans-Serif" font-size="10.00">/base.hpp</text>
</a>
</g>
</g>
<!-- Node1&#45;&gt;Node5 -->
<g id="edge4" class="edge">
<title>Node1&#45;&gt;Node5</title>
<path fill="none" stroke="#63b8ff" d="M441.88,-334.5C441.88,-327.11 441.88,-318.12 441.88,-309.73"/>
<polygon fill="#63b8ff" stroke="#63b8ff" points="445.38,-309.88 441.88,-299.88 438.38,-309.88 445.38,-309.88"/>
</g>
<!-- Node17 -->
<g id="node17" class="node">
<title>Node17</title>
<g id="a_node17"><a xlink:title=" ">
<polygon fill="#e0e0e0" stroke="#999999" points="568.62,-292.38 521.12,-292.38 521.12,-271.62 568.62,-271.62 568.62,-292.38"/>
<text text-anchor="middle" x="544.88" y="-278.88" font-family="Helvetica,sans-Serif" font-size="10.00">cassert</text>
</a>
</g>
</g>
<!-- Node1&#45;&gt;Node17 -->
<g id="edge29" class="edge">
<title>Node1&#45;&gt;Node17</title>
<path fill="none" stroke="#63b8ff" d="M466.55,-334.33C483.06,-323.51 504.69,-309.34 521.03,-298.63"/>
<polygon fill="#63b8ff" stroke="#63b8ff" points="522.52,-301.18 528.96,-292.77 518.68,-295.33 522.52,-301.18"/>
</g>
<!-- Node18 -->
<g id="node18" class="node">
<title>Node18</title>
<g id="a_node18"><a xlink:title=" ">
<polygon fill="#e0e0e0" stroke="#999999" points="633.25,-292.38 586.5,-292.38 586.5,-271.62 633.25,-271.62 633.25,-292.38"/>
<text text-anchor="middle" x="609.88" y="-278.88" font-family="Helvetica,sans-Serif" font-size="10.00">ranges</text>
</a>
</g>
</g>
<!-- Node1&#45;&gt;Node18 -->
<g id="edge30" class="edge">
<title>Node1&#45;&gt;Node18</title>
<path fill="none" stroke="#63b8ff" d="M487.64,-334.3C514.23,-324.59 548.23,-311.65 577.88,-298.75 578.93,-298.29 579.99,-297.82 581.06,-297.33"/>
<polygon fill="#63b8ff" stroke="#63b8ff" points="582.16,-300.22 589.72,-292.79 579.18,-293.88 582.16,-300.22"/>
</g>
<!-- Node4 -->
<g id="node4" class="node">
<title>Node4</title>
<g id="a_node4"><a xlink:title=" ">
<polygon fill="#e0e0e0" stroke="#999999" points="451.12,-20.75 394.62,-20.75 394.62,0 451.12,0 451.12,-20.75"/>
<text text-anchor="middle" x="422.88" y="-7.25" font-family="Helvetica,sans-Serif" font-size="10.00">concepts</text>
</a>
</g>
</g>
<!-- Node3&#45;&gt;Node4 -->
<g id="edge3" class="edge">
<title>Node3&#45;&gt;Node4</title>
<path fill="none" stroke="#63b8ff" d="M121.91,-58.51C124.94,-57.9 127.94,-57.31 130.88,-56.75 220.89,-39.65 327.42,-24.33 383.62,-16.62"/>
<polygon fill="#63b8ff" stroke="#63b8ff" points="383.73,-20 393.17,-15.18 382.79,-13.07 383.73,-20"/>
</g>
<!-- Node5&#45;&gt;Node3 -->
<g id="edge5" class="edge">
<title>Node5&#45;&gt;Node3</title>
<path fill="none" stroke="#63b8ff" d="M411.98,-264.8C343.68,-227.78 176.22,-137.02 99.91,-95.66"/>
<polygon fill="#63b8ff" stroke="#63b8ff" points="102.09,-92.32 91.63,-90.63 98.76,-98.47 102.09,-92.32"/>
</g>
<!-- Node6 -->
<g id="node6" class="node">
<title>Node6</title>
<g id="a_node6"><a xlink:href="../../dd/dcd/operators_8hpp.html" target="_top" xlink:title=" ">
<polygon fill="white" stroke="#666666" points="360.75,-159.75 239,-159.75 239,-126.25 360.75,-126.25 360.75,-159.75"/>
<text text-anchor="start" x="247" y="-146.25" font-family="Helvetica,sans-Serif" font-size="10.00">Simple&#45;Utility/concepts</text>
<text text-anchor="middle" x="299.88" y="-133.5" font-family="Helvetica,sans-Serif" font-size="10.00">/operators.hpp</text>
</a>
</g>
</g>
<!-- Node5&#45;&gt;Node6 -->
<g id="edge6" class="edge">
<title>Node5&#45;&gt;Node6</title>
<path fill="none" stroke="#63b8ff" d="M425.31,-265.02C400.3,-240.89 352.77,-195.03 323.94,-167.22"/>
<polygon fill="#63b8ff" stroke="#63b8ff" points="326.96,-165.31 317.34,-160.88 322.1,-170.34 326.96,-165.31"/>
</g>
<!-- Node7 -->
<g id="node7" class="node">
<title>Node7</title>
<g id="a_node7"><a xlink:href="../../d1/d76/functional_2base_8hpp.html" target="_top" xlink:title=" ">
<polygon fill="white" stroke="#666666" points="505.38,-159.75 378.38,-159.75 378.38,-126.25 505.38,-126.25 505.38,-159.75"/>
<text text-anchor="start" x="386.38" y="-146.25" font-family="Helvetica,sans-Serif" font-size="10.00">Simple&#45;Utility/functional</text>
<text text-anchor="middle" x="441.88" y="-133.5" font-family="Helvetica,sans-Serif" font-size="10.00">/base.hpp</text>
</a>
</g>
</g>
<!-- Node5&#45;&gt;Node7 -->
<g id="edge8" class="edge">
<title>Node5&#45;&gt;Node7</title>
<path fill="none" stroke="#63b8ff" d="M441.88,-265.02C441.88,-241.92 441.88,-198.91 441.88,-170.88"/>
<polygon fill="#63b8ff" stroke="#63b8ff" points="445.38,-170.88 441.88,-160.88 438.38,-170.88 445.38,-170.88"/>
</g>
<!-- Node9 -->
<g id="node9" class="node">
<title>Node9</title>
<g id="a_node9"><a xlink:title=" ">
<polygon fill="#e0e0e0" stroke="#999999" points="729.88,-20.75 665.88,-20.75 665.88,0 729.88,0 729.88,-20.75"/>
<text text-anchor="middle" x="697.88" y="-7.25" font-family="Helvetica,sans-Serif" font-size="10.00">type_traits</text>
</a>
</g>
</g>
<!-- Node5&#45;&gt;Node9 -->
<g id="edge28" class="edge">
<title>Node5&#45;&gt;Node9</title>
<path fill="none" stroke="#63b8ff" d="M503.36,-267.08C546.99,-256.48 601.16,-241.66 620.88,-229.25 690.93,-185.14 715.39,-167.61 744.88,-90.25 750.18,-76.34 750.69,-70.45 744.88,-56.75 740.04,-45.36 730.78,-35.43 721.76,-27.79"/>
<polygon fill="#63b8ff" stroke="#63b8ff" points="724.36,-24.6 714.33,-21.2 720.05,-30.12 724.36,-24.6"/>
</g>
<!-- Node10 -->
<g id="node10" class="node">
<title>Node10</title>
<g id="a_node10"><a xlink:href="../../d4/d1c/unified__base_8hpp.html" target="_top" xlink:title=" ">
<polygon fill="white" stroke="#666666" points="735.88,-90.25 623.88,-90.25 623.88,-56.75 735.88,-56.75 735.88,-90.25"/>
<text text-anchor="start" x="631.88" y="-76.75" font-family="Helvetica,sans-Serif" font-size="10.00">Simple&#45;Utility/unified</text>
<text text-anchor="middle" x="679.88" y="-64" font-family="Helvetica,sans-Serif" font-size="10.00">_base.hpp</text>
</a>
</g>
</g>
<!-- Node5&#45;&gt;Node10 -->
<g id="edge26" class="edge">
<title>Node5&#45;&gt;Node10</title>
<path fill="none" stroke="#63b8ff" d="M460.55,-264.8C502.52,-228.38 604.43,-139.96 653.12,-97.72"/>
<polygon fill="#63b8ff" stroke="#63b8ff" points="655.03,-99.83 660.29,-90.63 650.44,-94.54 655.03,-99.83"/>
</g>
<!-- Node12 -->
<g id="node12" class="node">
<title>Node12</title>
<g id="a_node12"><a xlink:href="../../d9/d76/bind_8hpp.html" target="_top" xlink:title=" ">
<polygon fill="white" stroke="#666666" points="911.38,-229.25 784.38,-229.25 784.38,-195.75 911.38,-195.75 911.38,-229.25"/>
<text text-anchor="start" x="792.38" y="-215.75" font-family="Helvetica,sans-Serif" font-size="10.00">Simple&#45;Utility/functional</text>
<text text-anchor="middle" x="847.88" y="-203" font-family="Helvetica,sans-Serif" font-size="10.00">/operators/bind.hpp</text>
</a>
</g>
</g>
<!-- Node5&#45;&gt;Node12 -->
<g id="edge19" class="edge">
<title>Node5&#45;&gt;Node12</title>
<path fill="none" stroke="#63b8ff" d="M503.28,-266.88C506.18,-266.31 509.06,-265.76 511.88,-265.25 625.78,-244.53 655.75,-248.72 769.88,-229.25 771.03,-229.05 772.2,-228.85 773.37,-228.65"/>
<polygon fill="#63b8ff" stroke="#63b8ff" points="773.87,-231.93 783.08,-226.71 772.62,-225.04 773.87,-231.93"/>
</g>
<!-- Node16 -->
<g id="node16" class="node">
<title>Node16</title>
<g id="a_node16"><a xlink:title=" ">
<polygon fill="#e0e0e0" stroke="#999999" points="611.75,-222.88 562,-222.88 562,-202.12 611.75,-202.12 611.75,-222.88"/>
<text text-anchor="middle" x="586.88" y="-209.38" font-family="Helvetica,sans-Serif" font-size="10.00">cstddef</text>
</a>
</g>
</g>
<!-- Node5&#45;&gt;Node16 -->
<g id="edge27" class="edge">
<title>Node5&#45;&gt;Node16</title>
<path fill="none" stroke="#63b8ff" d="M476.61,-264.83C500.84,-253.55 532.88,-238.64 556.17,-227.79"/>
<polygon fill="#63b8ff" stroke="#63b8ff" points="557.3,-230.66 564.89,-223.27 554.34,-224.32 557.3,-230.66"/>
</g>
<!-- Node6&#45;&gt;Node4 -->
<g id="edge7" class="edge">
<title>Node6&#45;&gt;Node4</title>
<path fill="none" stroke="#63b8ff" d="M305.95,-125.97C313.55,-107.55 328.02,-77.24 347.88,-56.75 360.09,-44.14 376.53,-33.68 390.91,-25.99"/>
<polygon fill="#63b8ff" stroke="#63b8ff" points="392.13,-28.79 399.45,-21.12 388.95,-22.55 392.13,-28.79"/>
</g>
<!-- Node7&#45;&gt;Node2 -->
<g id="edge12" class="edge">
<title>Node7&#45;&gt;Node2</title>
<path fill="none" stroke="#63b8ff" d="M385.35,-125.83C344.09,-114.03 288.92,-98.25 250.69,-87.32"/>
<polygon fill="#63b8ff" stroke="#63b8ff" points="251.96,-83.75 241.38,-84.37 250.03,-90.48 251.96,-83.75"/>
</g>
<!-- Node7&#45;&gt;Node3 -->
<g id="edge16" class="edge">
<title>Node7&#45;&gt;Node3</title>
<path fill="none" stroke="#63b8ff" d="M377.93,-127.78C375.21,-127.25 372.52,-126.74 369.88,-126.25 267.64,-107.39 238.33,-109.86 132.71,-90.51"/>
<polygon fill="#63b8ff" stroke="#63b8ff" points="133.38,-86.89 122.9,-88.5 132.1,-93.77 133.38,-86.89"/>
</g>
<!-- Node7&#45;&gt;Node4 -->
<g id="edge9" class="edge">
<title>Node7&#45;&gt;Node4</title>
<path fill="none" stroke="#63b8ff" d="M397.77,-125.96C381.96,-117.83 365.85,-106.22 356.88,-90.25 349.58,-77.27 349.94,-69.93 356.88,-56.75 363.79,-43.61 376.42,-33.54 388.79,-26.26"/>
<polygon fill="#63b8ff" stroke="#63b8ff" points="389.97,-29.06 397.1,-21.23 386.64,-22.9 389.97,-29.06"/>
</g>
<!-- Node8 -->
<g id="node8" class="node">
<title>Node8</title>
<g id="a_node8"><a xlink:title=" ">
<polygon fill="#e0e0e0" stroke="#999999" points="427.75,-83.88 366,-83.88 366,-63.12 427.75,-63.12 427.75,-83.88"/>
<text text-anchor="middle" x="396.88" y="-70.38" font-family="Helvetica,sans-Serif" font-size="10.00">functional</text>
</a>
</g>
</g>
<!-- Node7&#45;&gt;Node8 -->
<g id="edge10" class="edge">
<title>Node7&#45;&gt;Node8</title>
<path fill="none" stroke="#63b8ff" d="M431.21,-126C424.67,-116.19 416.27,-103.59 409.41,-93.3"/>
<polygon fill="#63b8ff" stroke="#63b8ff" points="411.88,-91.7 403.42,-85.32 406.06,-95.58 411.88,-91.7"/>
</g>
<!-- Node7&#45;&gt;Node9 -->
<g id="edge11" class="edge">
<title>Node7&#45;&gt;Node9</title>
<path fill="none" stroke="#63b8ff" d="M497.15,-125.8C522.43,-117.16 552.18,-105.2 576.88,-90.25 596.14,-78.59 596.44,-69.67 614.88,-56.75 631.47,-45.12 651.35,-34.16 667.49,-25.92"/>
<polygon fill="#63b8ff" stroke="#63b8ff" points="668.62,-28.77 676,-21.17 665.49,-22.51 668.62,-28.77"/>
</g>
<!-- Node7&#45;&gt;Node10 -->
<g id="edge13" class="edge">
<title>Node7&#45;&gt;Node10</title>
<path fill="none" stroke="#63b8ff" d="M498.88,-125.83C533.3,-116.07 577.32,-103.59 613.33,-93.37"/>
<polygon fill="#63b8ff" stroke="#63b8ff" points="614.08,-96.52 622.74,-90.42 612.17,-89.78 614.08,-96.52"/>
</g>
<!-- Node11 -->
<g id="node11" class="node">
<title>Node11</title>
<g id="a_node11"><a xlink:href="../../d5/d8e/concepts_2utility_8hpp.html" target="_top" xlink:title=" ">
<polygon fill="white" stroke="#666666" points="567.75,-90.25 446,-90.25 446,-56.75 567.75,-56.75 567.75,-90.25"/>
<text text-anchor="start" x="454" y="-76.75" font-family="Helvetica,sans-Serif" font-size="10.00">Simple&#45;Utility/concepts</text>
<text text-anchor="middle" x="506.88" y="-64" font-family="Helvetica,sans-Serif" font-size="10.00">/utility.hpp</text>
</a>
</g>
</g>
<!-- Node7&#45;&gt;Node11 -->
<g id="edge17" class="edge">
<title>Node7&#45;&gt;Node11</title>
<path fill="none" stroke="#63b8ff" d="M457.28,-126C465.29,-117.68 475.25,-107.35 484.13,-98.12"/>
<polygon fill="#63b8ff" stroke="#63b8ff" points="486.17,-101.01 490.58,-91.38 481.12,-96.16 486.17,-101.01"/>
</g>
<!-- Node10&#45;&gt;Node4 -->
<g id="edge14" class="edge">
<title>Node10&#45;&gt;Node4</title>
<path fill="none" stroke="#63b8ff" d="M623.48,-59.09C574.54,-47.45 504.98,-30.9 461.96,-20.67"/>
<polygon fill="#63b8ff" stroke="#63b8ff" points="462.89,-17.06 452.35,-18.15 461.27,-23.87 462.89,-17.06"/>
</g>
<!-- Node10&#45;&gt;Node9 -->
<g id="edge15" class="edge">
<title>Node10&#45;&gt;Node9</title>
<path fill="none" stroke="#63b8ff" d="M684.6,-56.44C686.84,-48.84 689.54,-39.69 691.91,-31.62"/>
<polygon fill="#63b8ff" stroke="#63b8ff" points="695.51,-32.8 694.98,-22.22 688.79,-30.82 695.51,-32.8"/>
</g>
<!-- Node11&#45;&gt;Node4 -->
<g id="edge18" class="edge">
<title>Node11&#45;&gt;Node4</title>
<path fill="none" stroke="#63b8ff" d="M484.8,-56.44C472.56,-47.53 457.38,-36.49 445.12,-27.56"/>
<polygon fill="#63b8ff" stroke="#63b8ff" points="447.55,-24.27 437.4,-21.22 443.43,-29.93 447.55,-24.27"/>
</g>
<!-- Node12&#45;&gt;Node7 -->
<g id="edge20" class="edge">
<title>Node12&#45;&gt;Node7</title>
<path fill="none" stroke="#63b8ff" d="M783.99,-200.88C711.37,-188.81 592.98,-169.12 516.26,-156.37"/>
<polygon fill="#63b8ff" stroke="#63b8ff" points="517.16,-152.8 506.72,-154.61 516.01,-159.71 517.16,-152.8"/>
</g>
<!-- Node13 -->
<g id="node13" class="node">
<title>Node13</title>
<g id="a_node13"><a xlink:href="../../d2/d30/general_8hpp.html" target="_top" xlink:title=" ">
<polygon fill="white" stroke="#666666" points="896.12,-90.25 791.62,-90.25 791.62,-56.75 896.12,-56.75 896.12,-90.25"/>
<text text-anchor="start" x="799.62" y="-76.75" font-family="Helvetica,sans-Serif" font-size="10.00">Simple&#45;Utility/tuple</text>
<text text-anchor="middle" x="843.88" y="-64" font-family="Helvetica,sans-Serif" font-size="10.00">/general.hpp</text>
</a>
</g>
</g>
<!-- Node12&#45;&gt;Node13 -->
<g id="edge21" class="edge">
<title>Node12&#45;&gt;Node13</title>
<path fill="none" stroke="#63b8ff" d="M847.41,-195.52C846.73,-172.42 845.48,-129.41 844.66,-101.38"/>
<polygon fill="#63b8ff" stroke="#63b8ff" points="848.13,-101.28 844.34,-91.38 841.13,-101.48 848.13,-101.28"/>
</g>
<!-- Node13&#45;&gt;Node4 -->
<g id="edge22" class="edge">
<title>Node13&#45;&gt;Node4</title>
<path fill="none" stroke="#63b8ff" d="M791.24,-63.95C776.27,-61.56 759.93,-59.01 744.88,-56.75 642.91,-41.46 522.55,-24.89 461.93,-16.65"/>
<polygon fill="#63b8ff" stroke="#63b8ff" points="462.71,-13.09 452.33,-15.21 461.77,-20.02 462.71,-13.09"/>
</g>
<!-- Node13&#45;&gt;Node9 -->
<g id="edge24" class="edge">
<title>Node13&#45;&gt;Node9</title>
<path fill="none" stroke="#63b8ff" d="M805.13,-56.28C782.09,-46.63 753.15,-34.52 731.14,-25.3"/>
<polygon fill="#63b8ff" stroke="#63b8ff" points="732.83,-21.8 722.26,-21.17 730.13,-28.26 732.83,-21.8"/>
</g>
<!-- Node14 -->
<g id="node14" class="node">
<title>Node14</title>
<g id="a_node14"><a xlink:title=" ">
<polygon fill="#e0e0e0" stroke="#999999" points="834.5,-20.75 795.25,-20.75 795.25,0 834.5,0 834.5,-20.75"/>
<text text-anchor="middle" x="814.88" y="-7.25" font-family="Helvetica,sans-Serif" font-size="10.00">tuple</text>
</a>
</g>
</g>
<!-- Node13&#45;&gt;Node14 -->
<g id="edge23" class="edge">
<title>Node13&#45;&gt;Node14</title>
<path fill="none" stroke="#63b8ff" d="M836.26,-56.44C832.57,-48.67 828.11,-39.27 824.22,-31.07"/>
<polygon fill="#63b8ff" stroke="#63b8ff" points="826.99,-29.75 819.54,-22.22 820.67,-32.75 826.99,-29.75"/>
</g>
<!-- Node15 -->
<g id="node15" class="node">
<title>Node15</title>
<g id="a_node15"><a xlink:title=" ">
<polygon fill="#e0e0e0" stroke="#999999" points="893.25,-20.75 852.5,-20.75 852.5,0 893.25,0 893.25,-20.75"/>
<text text-anchor="middle" x="872.88" y="-7.25" font-family="Helvetica,sans-Serif" font-size="10.00">utility</text>
</a>
</g>
</g>
<!-- Node13&#45;&gt;Node15 -->
<g id="edge25" class="edge">
<title>Node13&#45;&gt;Node15</title>
<path fill="none" stroke="#63b8ff" d="M851.49,-56.44C855.18,-48.67 859.64,-39.27 863.53,-31.07"/>
<polygon fill="#63b8ff" stroke="#63b8ff" points="867.08,-32.75 868.21,-22.22 860.76,-29.75 867.08,-32.75"/>
</g>
</g>
</svg>
