<?xml version="1.0" encoding="UTF-8" standalone="no"?>
<!DOCTYPE svg PUBLIC "-//W3C//DTD SVG 1.1//EN"
 "http://www.w3.org/Graphics/SVG/1.1/DTD/svg11.dtd">
<!-- Generated by graphviz version 7.0.5 (20221223.1930)
 -->
<!-- Title: Simple&#45;Utility/nullables/adapter.hpp Pages: 1 -->
<!--zoomable 357 -->
<svg id="main" version="1.1" xmlns="http://www.w3.org/2000/svg" xmlns:xlink="http://www.w3.org/1999/xlink" xml:space="preserve" onload="init(evt)">
<style type="text/css"><![CDATA[
.edge:hover path { stroke: red; }
.edge:hover polygon { stroke: red; fill: red; }
]]></style>
<script type="text/javascript"><![CDATA[
var edges = document.getElementsByTagName('g');
if (edges && edges.length) {
  for (var i=0;i<edges.length;i++) {
    if (edges[i].id.substr(0,4)=='edge') {
      edges[i].setAttribute('class','edge');
    }
  }
}
]]></script>
        <defs>
                <circle id="rim" cx="0" cy="0" r="7"/>
                <circle id="rim2" cx="0" cy="0" r="3.5"/>
                <g id="zoomPlus">
                        <use xlink:href="#rim" fill="#404040">
                                <set attributeName="fill" to="#808080" begin="zoomplus.mouseover" end="zoomplus.mouseout"/>
                        </use>
                        <path d="M-4,0h8M0,-4v8" fill="none" stroke="white" stroke-width="1.5" pointer-events="none"/>
                </g>
                <g id="zoomMin">
                        <use xlink:href="#rim" fill="#404040">
                                <set attributeName="fill" to="#808080" begin="zoomminus.mouseover" end="zoomminus.mouseout"/>
                        </use>
                        <path d="M-4,0h8" fill="none" stroke="white" stroke-width="1.5" pointer-events="none"/>
                </g>
                <g id="dirArrow">
                        <path fill="none" stroke="white" stroke-width="1.5" d="M0,-3.0v7 M-2.5,-0.5L0,-3.0L2.5,-0.5"/>
                </g>
               <g id="resetDef">
                       <use xlink:href="#rim2" fill="#404040">
                               <set attributeName="fill" to="#808080" begin="reset.mouseover" end="reset.mouseout"/>
                       </use>
               </g>
        </defs>

<script type="text/javascript">
var viewWidth = 925;
var viewHeight = 357;
var sectionId = 'dynsection-0';
</script>
<script xlink:href="../../svgpan.js"/>
<svg id="graph" class="graph">
<g id="viewport">
<title>Simple&#45;Utility/nullables/adapter.hpp</title>
<!-- Node1 -->
<g id="node1" class="node">
<title>Node1</title>
<g id="a_node1"><a xlink:title=" ">
<polygon fill="#999999" stroke="#666666" points="506.5,-349 383.5,-349 383.5,-319 506.5,-319 506.5,-349"/>
<text text-anchor="start" x="391.5" y="-337" font-family="Helvetica,sans-Serif" font-size="10.00">Simple&#45;Utility/nullables</text>
<text text-anchor="middle" x="445" y="-326" font-family="Helvetica,sans-Serif" font-size="10.00">/adapter.hpp</text>
</a>
</g>
</g>
<!-- Node2 -->
<g id="node2" class="node">
<title>Node2</title>
<g id="a_node2"><a xlink:href="../../d8/dd2/_config_8hpp.html" target="_top" xlink:title=" ">
<polygon fill="white" stroke="#666666" points="273.5,-79.5 140.5,-79.5 140.5,-60.5 273.5,-60.5 273.5,-79.5"/>
<text text-anchor="middle" x="207" y="-67.5" font-family="Helvetica,sans-Serif" font-size="10.00">Simple&#45;Utility/Config.hpp</text>
</a>
</g>
</g>
<!-- Node1&#45;&gt;Node2 -->
<g id="edge1" class="edge">
<title>Node1&#45;&gt;Node2</title>
<path fill="none" stroke="#63b8ff" d="M419.65,-318.54C374.74,-291.57 281.28,-229.18 232,-151 220.25,-132.36 213.66,-107.79 210.23,-90.82"/>
<polygon fill="#63b8ff" stroke="#63b8ff" points="213.68,-90.25 208.46,-81.04 206.79,-91.5 213.68,-90.25"/>
</g>
<!-- Node3 -->
<g id="node3" class="node">
<title>Node3</title>
<g id="a_node3"><a xlink:href="../../dd/d5c/stl__extensions_8hpp.html" target="_top" xlink:title=" ">
<polygon fill="white" stroke="#666666" points="122,-85 0,-85 0,-55 122,-55 122,-85"/>
<text text-anchor="start" x="8" y="-73" font-family="Helvetica,sans-Serif" font-size="10.00">Simple&#45;Utility/concepts</text>
<text text-anchor="middle" x="61" y="-62" font-family="Helvetica,sans-Serif" font-size="10.00">/stl_extensions.hpp</text>
</a>
</g>
</g>
<!-- Node1&#45;&gt;Node3 -->
<g id="edge2" class="edge">
<title>Node1&#45;&gt;Node3</title>
<path fill="none" stroke="#63b8ff" d="M402.88,-318.57C379.48,-309.76 350.27,-297.43 326,-283 228.63,-225.13 128.05,-134.61 84,-93.12"/>
<polygon fill="#63b8ff" stroke="#63b8ff" points="86.48,-90.65 76.82,-86.31 81.66,-95.73 86.48,-90.65"/>
</g>
<!-- Node5 -->
<g id="node5" class="node">
<title>Node5</title>
<g id="a_node5"><a xlink:href="../../d6/dbe/nullables_2base_8hpp.html" target="_top" xlink:title=" ">
<polygon fill="white" stroke="#666666" points="506.5,-283 383.5,-283 383.5,-253 506.5,-253 506.5,-283"/>
<text text-anchor="start" x="391.5" y="-271" font-family="Helvetica,sans-Serif" font-size="10.00">Simple&#45;Utility/nullables</text>
<text text-anchor="middle" x="445" y="-260" font-family="Helvetica,sans-Serif" font-size="10.00">/base.hpp</text>
</a>
</g>
</g>
<!-- Node1&#45;&gt;Node5 -->
<g id="edge4" class="edge">
<title>Node1&#45;&gt;Node5</title>
<path fill="none" stroke="#63b8ff" d="M445,-318.8C445,-311.67 445,-302.82 445,-294.56"/>
<polygon fill="#63b8ff" stroke="#63b8ff" points="448.5,-294.68 445,-284.68 441.5,-294.68 448.5,-294.68"/>
</g>
<!-- Node17 -->
<g id="node17" class="node">
<title>Node17</title>
<g id="a_node17"><a xlink:title=" ">
<polygon fill="#e0e0e0" stroke="#999999" points="573,-277.5 525,-277.5 525,-258.5 573,-258.5 573,-277.5"/>
<text text-anchor="middle" x="549" y="-265.5" font-family="Helvetica,sans-Serif" font-size="10.00">cassert</text>
</a>
</g>
</g>
<!-- Node1&#45;&gt;Node17 -->
<g id="edge29" class="edge">
<title>Node1&#45;&gt;Node17</title>
<path fill="none" stroke="#63b8ff" d="M468.34,-318.64C485.1,-308.32 507.64,-294.45 524.64,-283.99"/>
<polygon fill="#63b8ff" stroke="#63b8ff" points="526.43,-287 533.11,-278.78 522.76,-281.04 526.43,-287"/>
</g>
<!-- Node18 -->
<g id="node18" class="node">
<title>Node18</title>
<g id="a_node18"><a xlink:title=" ">
<polygon fill="#e0e0e0" stroke="#999999" points="638.5,-277.5 591.5,-277.5 591.5,-258.5 638.5,-258.5 638.5,-277.5"/>
<text text-anchor="middle" x="615" y="-265.5" font-family="Helvetica,sans-Serif" font-size="10.00">ranges</text>
</a>
</g>
</g>
<!-- Node1&#45;&gt;Node18 -->
<g id="edge30" class="edge">
<title>Node1&#45;&gt;Node18</title>
<path fill="none" stroke="#63b8ff" d="M486.27,-318.56C513.57,-308.86 550.08,-295.58 582,-283 582.63,-282.75 583.27,-282.5 583.92,-282.24"/>
<polygon fill="#63b8ff" stroke="#63b8ff" points="585.15,-285.52 593.07,-278.48 582.49,-279.04 585.15,-285.52"/>
</g>
<!-- Node4 -->
<g id="node4" class="node">
<title>Node4</title>
<g id="a_node4"><a xlink:title=" ">
<polygon fill="#e0e0e0" stroke="#999999" points="453.5,-19 396.5,-19 396.5,0 453.5,0 453.5,-19"/>
<text text-anchor="middle" x="425" y="-7" font-family="Helvetica,sans-Serif" font-size="10.00">concepts</text>
</a>
</g>
</g>
<!-- Node3&#45;&gt;Node4 -->
<g id="edge3" class="edge">
<title>Node3&#45;&gt;Node4</title>
<path fill="none" stroke="#63b8ff" d="M122.43,-56.54C125.32,-56.01 128.19,-55.49 131,-55 221.43,-39.12 328.11,-23.83 384.81,-15.97"/>
<polygon fill="#63b8ff" stroke="#63b8ff" points="385.2,-19.45 394.63,-14.62 384.25,-12.52 385.2,-19.45"/>
</g>
<!-- Node5&#45;&gt;Node3 -->
<g id="edge5" class="edge">
<title>Node5&#45;&gt;Node3</title>
<path fill="none" stroke="#63b8ff" d="M416.76,-252.59C348.94,-217.97 176.76,-130.09 99.53,-90.66"/>
<polygon fill="#63b8ff" stroke="#63b8ff" points="101.12,-87.55 90.63,-86.12 97.94,-93.79 101.12,-87.55"/>
</g>
<!-- Node6 -->
<g id="node6" class="node">
<title>Node6</title>
<g id="a_node6"><a xlink:href="../../dd/dcd/operators_8hpp.html" target="_top" xlink:title=" ">
<polygon fill="white" stroke="#666666" points="363,-151 241,-151 241,-121 363,-121 363,-151"/>
<text text-anchor="start" x="249" y="-139" font-family="Helvetica,sans-Serif" font-size="10.00">Simple&#45;Utility/concepts</text>
<text text-anchor="middle" x="302" y="-128" font-family="Helvetica,sans-Serif" font-size="10.00">/operators.hpp</text>
</a>
</g>
</g>
<!-- Node5&#45;&gt;Node6 -->
<g id="edge6" class="edge">
<title>Node5&#45;&gt;Node6</title>
<path fill="none" stroke="#63b8ff" d="M429.15,-252.59C404.24,-229.95 355.74,-185.86 326.37,-159.16"/>
<polygon fill="#63b8ff" stroke="#63b8ff" points="328.79,-156.63 319.04,-152.49 324.09,-161.81 328.79,-156.63"/>
</g>
<!-- Node7 -->
<g id="node7" class="node">
<title>Node7</title>
<g id="a_node7"><a xlink:href="../../d1/d76/functional_2base_8hpp.html" target="_top" xlink:title=" ">
<polygon fill="white" stroke="#666666" points="509,-151 381,-151 381,-121 509,-121 509,-151"/>
<text text-anchor="start" x="389" y="-139" font-family="Helvetica,sans-Serif" font-size="10.00">Simple&#45;Utility/functional</text>
<text text-anchor="middle" x="445" y="-128" font-family="Helvetica,sans-Serif" font-size="10.00">/base.hpp</text>
</a>
</g>
</g>
<!-- Node5&#45;&gt;Node7 -->
<g id="edge8" class="edge">
<title>Node5&#45;&gt;Node7</title>
<path fill="none" stroke="#63b8ff" d="M445,-252.59C445,-230.92 445,-189.62 445,-162.7"/>
<polygon fill="#63b8ff" stroke="#63b8ff" points="448.5,-162.99 445,-152.99 441.5,-162.99 448.5,-162.99"/>
</g>
<!-- Node9 -->
<g id="node9" class="node">
<title>Node9</title>
<g id="a_node9"><a xlink:title=" ">
<polygon fill="#e0e0e0" stroke="#999999" points="733.5,-19 668.5,-19 668.5,0 733.5,0 733.5,-19"/>
<text text-anchor="middle" x="701" y="-7" font-family="Helvetica,sans-Serif" font-size="10.00">type_traits</text>
</a>
</g>
</g>
<!-- Node5&#45;&gt;Node9 -->
<g id="edge28" class="edge">
<title>Node5&#45;&gt;Node9</title>
<path fill="none" stroke="#63b8ff" d="M506.84,-253.44C550.33,-243.22 604.17,-228.95 624,-217 693.2,-175.29 719.1,-160.06 749,-85 753.93,-72.61 754.33,-67.22 749,-55 743.95,-43.44 734.26,-33.54 724.9,-26.03"/>
<polygon fill="#63b8ff" stroke="#63b8ff" points="727.17,-23.36 717.05,-20.25 723.02,-29 727.17,-23.36"/>
</g>
<!-- Node10 -->
<g id="node10" class="node">
<title>Node10</title>
<g id="a_node10"><a xlink:href="../../d4/d1c/unified__base_8hpp.html" target="_top" xlink:title=" ">
<polygon fill="white" stroke="#666666" points="739.5,-85 626.5,-85 626.5,-55 739.5,-55 739.5,-85"/>
<text text-anchor="start" x="634.5" y="-73" font-family="Helvetica,sans-Serif" font-size="10.00">Simple&#45;Utility/unified</text>
<text text-anchor="middle" x="683" y="-62" font-family="Helvetica,sans-Serif" font-size="10.00">_base.hpp</text>
</a>
</g>
</g>
<!-- Node5&#45;&gt;Node10 -->
<g id="edge26" class="edge">
<title>Node5&#45;&gt;Node10</title>
<path fill="none" stroke="#63b8ff" d="M462.5,-252.59C503.85,-218.54 607.78,-132.95 656.73,-92.64"/>
<polygon fill="#63b8ff" stroke="#63b8ff" points="658.81,-95.45 664.31,-86.4 654.36,-90.05 658.81,-95.45"/>
</g>
<!-- Node12 -->
<g id="node12" class="node">
<title>Node12</title>
<g id="a_node12"><a xlink:href="../../d9/d76/bind_8hpp.html" target="_top" xlink:title=" ">
<polygon fill="white" stroke="#666666" points="917,-217 789,-217 789,-187 917,-187 917,-217"/>
<text text-anchor="start" x="797" y="-205" font-family="Helvetica,sans-Serif" font-size="10.00">Simple&#45;Utility/functional</text>
<text text-anchor="middle" x="853" y="-194" font-family="Helvetica,sans-Serif" font-size="10.00">/operators/bind.hpp</text>
</a>
</g>
</g>
<!-- Node5&#45;&gt;Node12 -->
<g id="edge19" class="edge">
<title>Node5&#45;&gt;Node12</title>
<path fill="none" stroke="#63b8ff" d="M506.92,-254.58C509.99,-254.03 513.03,-253.5 516,-253 630.61,-233.75 660.23,-235.27 775,-217 775.84,-216.87 776.69,-216.73 777.54,-216.59"/>
<polygon fill="#63b8ff" stroke="#63b8ff" points="777.97,-220.07 787.27,-214.98 776.83,-213.16 777.97,-220.07"/>
</g>
<!-- Node16 -->
<g id="node16" class="node">
<title>Node16</title>
<g id="a_node16"><a xlink:title=" ">
<polygon fill="#e0e0e0" stroke="#999999" points="615,-211.5 565,-211.5 565,-192.5 615,-192.5 615,-211.5"/>
<text text-anchor="middle" x="590" y="-199.5" font-family="Helvetica,sans-Serif" font-size="10.00">cstddef</text>
</a>
</g>
</g>
<!-- Node5&#45;&gt;Node16 -->
<g id="edge27" class="edge">
<title>Node5&#45;&gt;Node16</title>
<path fill="none" stroke="#63b8ff" d="M477.54,-252.64C502.01,-241.83 535.32,-227.13 559.33,-216.54"/>
<polygon fill="#63b8ff" stroke="#63b8ff" points="560.52,-219.84 568.26,-212.6 557.7,-213.43 560.52,-219.84"/>
</g>
<!-- Node6&#45;&gt;Node4 -->
<g id="edge7" class="edge">
<title>Node6&#45;&gt;Node4</title>
<path fill="none" stroke="#63b8ff" d="M308.22,-120.58C316.18,-103.38 331.34,-74.5 351,-55 363.59,-42.51 380.34,-32.06 394.73,-24.44"/>
<polygon fill="#63b8ff" stroke="#63b8ff" points="396,-27.72 403.34,-20.08 392.83,-21.47 396,-27.72"/>
</g>
<!-- Node7&#45;&gt;Node2 -->
<g id="edge12" class="edge">
<title>Node7&#45;&gt;Node2</title>
<path fill="none" stroke="#63b8ff" d="M391.29,-120.56C349.02,-109.19 290.84,-93.55 251.23,-82.89"/>
<polygon fill="#63b8ff" stroke="#63b8ff" points="252.36,-79.57 241.79,-80.36 250.54,-86.33 252.36,-79.57"/>
</g>
<!-- Node7&#45;&gt;Node3 -->
<g id="edge16" class="edge">
<title>Node7&#45;&gt;Node3</title>
<path fill="none" stroke="#63b8ff" d="M380.54,-122.49C377.66,-121.98 374.8,-121.48 372,-121 268.79,-103.4 239.6,-103.59 133.62,-85.4"/>
<polygon fill="#63b8ff" stroke="#63b8ff" points="134.37,-81.98 123.92,-83.72 133.17,-88.88 134.37,-81.98"/>
</g>
<!-- Node7&#45;&gt;Node4 -->
<g id="edge9" class="edge">
<title>Node7&#45;&gt;Node4</title>
<path fill="none" stroke="#63b8ff" d="M401.78,-120.62C385.37,-112.8 368.39,-101.32 359,-85 352.35,-73.44 352.74,-66.77 359,-55 366.07,-41.71 379.06,-31.68 391.66,-24.53"/>
<polygon fill="#63b8ff" stroke="#63b8ff" points="392.95,-27.81 400.22,-20.11 389.73,-21.59 392.95,-27.81"/>
</g>
<!-- Node8 -->
<g id="node8" class="node">
<title>Node8</title>
<g id="a_node8"><a xlink:title=" ">
<polygon fill="#e0e0e0" stroke="#999999" points="430,-79.5 368,-79.5 368,-60.5 430,-60.5 430,-79.5"/>
<text text-anchor="middle" x="399" y="-67.5" font-family="Helvetica,sans-Serif" font-size="10.00">functional</text>
</a>
</g>
</g>
<!-- Node7&#45;&gt;Node8 -->
<g id="edge10" class="edge">
<title>Node7&#45;&gt;Node8</title>
<path fill="none" stroke="#63b8ff" d="M434.79,-120.8C428.04,-111.41 419.14,-99.02 411.9,-88.95"/>
<polygon fill="#63b8ff" stroke="#63b8ff" points="414.92,-87.15 406.24,-81.07 409.23,-91.24 414.92,-87.15"/>
</g>
<!-- Node7&#45;&gt;Node9 -->
<g id="edge11" class="edge">
<title>Node7&#45;&gt;Node9</title>
<path fill="none" stroke="#63b8ff" d="M494.3,-120.53C520.31,-111.94 552.29,-99.81 579,-85 598.12,-74.39 599.64,-66.87 618,-55 635.46,-43.71 656.05,-32.66 672.35,-24.39"/>
<polygon fill="#63b8ff" stroke="#63b8ff" points="673.64,-27.67 681.02,-20.07 670.51,-21.4 673.64,-27.67"/>
</g>
<!-- Node7&#45;&gt;Node10 -->
<g id="edge13" class="edge">
<title>Node7&#45;&gt;Node10</title>
<path fill="none" stroke="#63b8ff" d="M498.71,-120.56C534.27,-110.99 581.1,-98.4 618.66,-88.3"/>
<polygon fill="#63b8ff" stroke="#63b8ff" points="619.28,-91.76 628.03,-85.78 617.46,-85 619.28,-91.76"/>
</g>
<!-- Node11 -->
<g id="node11" class="node">
<title>Node11</title>
<g id="a_node11"><a xlink:href="../../d5/d8e/concepts_2utility_8hpp.html" target="_top" xlink:title=" ">
<polygon fill="white" stroke="#666666" points="570,-85 448,-85 448,-55 570,-55 570,-85"/>
<text text-anchor="start" x="456" y="-73" font-family="Helvetica,sans-Serif" font-size="10.00">Simple&#45;Utility/concepts</text>
<text text-anchor="middle" x="509" y="-62" font-family="Helvetica,sans-Serif" font-size="10.00">/utility.hpp</text>
</a>
</g>
</g>
<!-- Node7&#45;&gt;Node11 -->
<g id="edge17" class="edge">
<title>Node7&#45;&gt;Node11</title>
<path fill="none" stroke="#63b8ff" d="M459.2,-120.8C467.32,-112.68 477.69,-102.31 486.85,-93.15"/>
<polygon fill="#63b8ff" stroke="#63b8ff" points="489.17,-95.78 493.77,-86.23 484.22,-90.83 489.17,-95.78"/>
</g>
<!-- Node10&#45;&gt;Node4 -->
<g id="edge14" class="edge">
<title>Node10&#45;&gt;Node4</title>
<path fill="none" stroke="#63b8ff" d="M626.06,-56.09C577.26,-45.02 508.2,-29.37 465.04,-19.58"/>
<polygon fill="#63b8ff" stroke="#63b8ff" points="465.86,-16.18 455.34,-17.38 464.32,-23 465.86,-16.18"/>
</g>
<!-- Node10&#45;&gt;Node9 -->
<g id="edge15" class="edge">
<title>Node10&#45;&gt;Node9</title>
<path fill="none" stroke="#63b8ff" d="M687.45,-54.54C689.72,-47.17 692.51,-38.1 694.97,-30.11"/>
<polygon fill="#63b8ff" stroke="#63b8ff" points="698.29,-31.21 697.89,-20.62 691.6,-29.15 698.29,-31.21"/>
</g>
<!-- Node11&#45;&gt;Node4 -->
<g id="edge18" class="edge">
<title>Node11&#45;&gt;Node4</title>
<path fill="none" stroke="#63b8ff" d="M488.24,-54.54C475.66,-45.78 459.64,-34.63 446.87,-25.73"/>
<polygon fill="#63b8ff" stroke="#63b8ff" points="448.9,-22.88 438.7,-20.04 444.9,-28.63 448.9,-22.88"/>
</g>
<!-- Node12&#45;&gt;Node7 -->
<g id="edge20" class="edge">
<title>Node12&#45;&gt;Node7</title>
<path fill="none" stroke="#63b8ff" d="M788.8,-190.93C716.08,-179.52 597.68,-160.95 520.57,-148.85"/>
<polygon fill="#63b8ff" stroke="#63b8ff" points="521.41,-145.44 510.99,-147.35 520.33,-152.36 521.41,-145.44"/>
</g>
<!-- Node13 -->
<g id="node13" class="node">
<title>Node13</title>
<g id="a_node13"><a xlink:href="../../d2/d30/general_8hpp.html" target="_top" xlink:title=" ">
<polygon fill="white" stroke="#666666" points="901.5,-85 796.5,-85 796.5,-55 901.5,-55 901.5,-85"/>
<text text-anchor="start" x="804.5" y="-73" font-family="Helvetica,sans-Serif" font-size="10.00">Simple&#45;Utility/tuple</text>
<text text-anchor="middle" x="849" y="-62" font-family="Helvetica,sans-Serif" font-size="10.00">/general.hpp</text>
</a>
</g>
</g>
<!-- Node12&#45;&gt;Node13 -->
<g id="edge21" class="edge">
<title>Node12&#45;&gt;Node13</title>
<path fill="none" stroke="#63b8ff" d="M852.56,-186.59C851.89,-164.92 850.62,-123.62 849.79,-96.7"/>
<polygon fill="#63b8ff" stroke="#63b8ff" points="853.3,-96.87 849.49,-86.99 846.3,-97.09 853.3,-96.87"/>
</g>
<!-- Node13&#45;&gt;Node4 -->
<g id="edge22" class="edge">
<title>Node13&#45;&gt;Node4</title>
<path fill="none" stroke="#63b8ff" d="M796.07,-61.56C780.87,-59.44 764.28,-57.12 749,-55 646.5,-40.79 525.73,-24.26 464.65,-15.91"/>
<polygon fill="#63b8ff" stroke="#63b8ff" points="465.49,-12.49 455.11,-14.61 464.54,-19.43 465.49,-12.49"/>
</g>
<!-- Node13&#45;&gt;Node9 -->
<g id="edge24" class="edge">
<title>Node13&#45;&gt;Node9</title>
<path fill="none" stroke="#63b8ff" d="M812.42,-54.54C788.33,-45.02 757.06,-32.66 733.78,-23.46"/>
<polygon fill="#63b8ff" stroke="#63b8ff" points="735.37,-20.32 724.79,-19.9 732.8,-26.83 735.37,-20.32"/>
</g>
<!-- Node14 -->
<g id="node14" class="node">
<title>Node14</title>
<g id="a_node14"><a xlink:title=" ">
<polygon fill="#e0e0e0" stroke="#999999" points="839,-19 799,-19 799,0 839,0 839,-19"/>
<text text-anchor="middle" x="819" y="-7" font-family="Helvetica,sans-Serif" font-size="10.00">tuple</text>
</a>
</g>
</g>
<!-- Node13&#45;&gt;Node14 -->
<g id="edge23" class="edge">
<title>Node13&#45;&gt;Node14</title>
<path fill="none" stroke="#63b8ff" d="M841.58,-54.54C837.67,-46.91 832.82,-37.46 828.63,-29.27"/>
<polygon fill="#63b8ff" stroke="#63b8ff" points="831.82,-27.82 824.14,-20.52 825.59,-31.02 831.82,-27.82"/>
</g>
<!-- Node15 -->
<g id="node15" class="node">
<title>Node15</title>
<g id="a_node15"><a xlink:title=" ">
<polygon fill="#e0e0e0" stroke="#999999" points="898.5,-19 857.5,-19 857.5,0 898.5,0 898.5,-19"/>
<text text-anchor="middle" x="878" y="-7" font-family="Helvetica,sans-Serif" font-size="10.00">utility</text>
</a>
</g>
</g>
<!-- Node13&#45;&gt;Node15 -->
<g id="edge25" class="edge">
<title>Node13&#45;&gt;Node15</title>
<path fill="none" stroke="#63b8ff" d="M856.17,-54.54C859.95,-46.91 864.64,-37.46 868.7,-29.27"/>
<polygon fill="#63b8ff" stroke="#63b8ff" points="871.72,-31.05 873.03,-20.53 865.45,-27.94 871.72,-31.05"/>
</g>
</g>
</svg>
        <g id="navigator" transform="translate(0 0)" fill="#404254">
                <rect fill="#f2f5e9" fill-opacity="0.5" stroke="#606060" stroke-width=".5" x="0" y="0" width="60" height="60"/>
                <use id="zoomplus" xlink:href="#zoomPlus" x="17" y="9" onmousedown="handleZoom(evt,'in')"/>
                <use id="zoomminus" xlink:href="#zoomMin" x="42" y="9" onmousedown="handleZoom(evt,'out')"/>
                <use id="reset" xlink:href="#resetDef" x="30" y="36" onmousedown="handleReset()"/>
                <g id="arrowUp" xlink:href="#dirArrow" transform="translate(30 24)" onmousedown="handlePan(0,-1)">
                  <use xlink:href="#rim" fill="#404040">
                        <set attributeName="fill" to="#808080" begin="arrowUp.mouseover" end="arrowUp.mouseout"/>
                  </use>
                  <path fill="none" stroke="white" stroke-width="1.5" d="M0,-3.0v7 M-2.5,-0.5L0,-3.0L2.5,-0.5"/>
                </g>
                <g id="arrowRight" xlink:href="#dirArrow" transform="rotate(90) translate(36 -43)" onmousedown="handlePan(1,0)">
                  <use xlink:href="#rim" fill="#404040">
                        <set attributeName="fill" to="#808080" begin="arrowRight.mouseover" end="arrowRight.mouseout"/>
                  </use>
                  <path fill="none" stroke="white" stroke-width="1.5" d="M0,-3.0v7 M-2.5,-0.5L0,-3.0L2.5,-0.5"/>
                </g>
                <g id="arrowDown" xlink:href="#dirArrow" transform="rotate(180) translate(-30 -48)" onmousedown="handlePan(0,1)">
                  <use xlink:href="#rim" fill="#404040">
                        <set attributeName="fill" to="#808080" begin="arrowDown.mouseover" end="arrowDown.mouseout"/>
                  </use>
                  <path fill="none" stroke="white" stroke-width="1.5" d="M0,-3.0v7 M-2.5,-0.5L0,-3.0L2.5,-0.5"/>
                </g>
                <g id="arrowLeft" xlink:href="#dirArrow" transform="rotate(270) translate(-36 17)" onmousedown="handlePan(-1,0)">
                  <use xlink:href="#rim" fill="#404040">
                        <set attributeName="fill" to="#808080" begin="arrowLeft.mouseover" end="arrowLeft.mouseout"/>
                  </use>
                  <path fill="none" stroke="white" stroke-width="1.5" d="M0,-3.0v7 M-2.5,-0.5L0,-3.0L2.5,-0.5"/>
                </g>
        </g>
        <svg viewBox="0 0 15 15" width="100%" height="30px" preserveAspectRatio="xMaxYMin meet">
         <g id="arrow_out" transform="scale(0.3 0.3)">
          <a xlink:href="adapter_8hpp__incl_org.svg" target="_base">
           <rect id="button" ry="5" rx="5" y="6" x="6" height="38" width="38"
                fill="#f2f5e9" fill-opacity="0.5" stroke="#606060" stroke-width="1.0"/>
           <path id="arrow"
             d="M 11.500037,31.436501 C 11.940474,20.09759 22.043105,11.32322 32.158766,21.979434 L 37.068811,17.246167 C 37.068811,17.246167 37.088388,32 37.088388,32 L 22.160133,31.978069 C 22.160133,31.978069 26.997745,27.140456 26.997745,27.140456 C 18.528582,18.264221 13.291696,25.230495 11.500037,31.436501 z"
             style="fill:#404040;"/>
          </a>
         </g>
        </svg>
</svg>
