<?xml version="1.0" encoding="UTF-8" standalone="no"?>
<!DOCTYPE svg PUBLIC "-//W3C//DTD SVG 1.1//EN"
 "http://www.w3.org/Graphics/SVG/1.1/DTD/svg11.dtd">
<!-- Generated by graphviz version 2.43.0 (0)
 -->
<!-- Title: /home/runner/work/Simple&#45;Utility/Simple&#45;Utility/include/Simple&#45;Utility/nullables/adapter.hpp Pages: 1 -->
<svg width="966pt" height="385pt"
 viewBox="0.00 0.00 965.50 385.00" xmlns="http://www.w3.org/2000/svg" xmlns:xlink="http://www.w3.org/1999/xlink">
<g id="graph0" class="graph" transform="scale(1 1) rotate(0) translate(4 381)">
<title>/home/runner/work/Simple&#45;Utility/Simple&#45;Utility/include/Simple&#45;Utility/nullables/adapter.hpp</title>
<polygon fill="white" stroke="transparent" points="-4,4 -4,-381 961.5,-381 961.5,4 -4,4"/>
<!-- Node1 -->
<g id="node1" class="node">
<title>Node1</title>
<g id="a_node1"><a xlink:title=" ">
<polygon fill="#bfbfbf" stroke="black" points="395.5,-324.5 395.5,-376.5 541.5,-376.5 541.5,-324.5 395.5,-324.5"/>
<text text-anchor="start" x="403.5" y="-364.5" font-family="Helvetica,sans-Serif" font-size="10.00">/home/runner/work/Simple</text>
<text text-anchor="start" x="403.5" y="-353.5" font-family="Helvetica,sans-Serif" font-size="10.00">&#45;Utility/Simple&#45;Utility</text>
<text text-anchor="start" x="403.5" y="-342.5" font-family="Helvetica,sans-Serif" font-size="10.00">/include/Simple&#45;Utility</text>
<text text-anchor="middle" x="468.5" y="-331.5" font-family="Helvetica,sans-Serif" font-size="10.00">/nullables/adapter.hpp</text>
</a>
</g>
</g>
<!-- Node2 -->
<g id="node2" class="node">
<title>Node2</title>
<g id="a_node2"><a xlink:href="../../d8/dd2/_config_8hpp.html" target="_top" xlink:title=" ">
<polygon fill="white" stroke="black" points="149,-62 149,-81 288,-81 288,-62 149,-62"/>
<text text-anchor="middle" x="218.5" y="-69" font-family="Helvetica,sans-Serif" font-size="10.00">Simple&#45;Utility/Config.hpp</text>
</a>
</g>
</g>
<!-- Node1&#45;&gt;Node2 -->
<g id="edge1" class="edge">
<title>Node1&#45;&gt;Node2</title>
<path fill="none" stroke="midnightblue" d="M426.16,-324.34C374.74,-291.58 289.01,-229.5 241.5,-154 229.3,-134.61 223.43,-108.62 220.7,-91.25"/>
<polygon fill="midnightblue" stroke="midnightblue" points="224.16,-90.68 219.33,-81.24 217.22,-91.63 224.16,-90.68"/>
</g>
<!-- Node3 -->
<g id="node3" class="node">
<title>Node3</title>
<g id="a_node3"><a xlink:href="../../dd/d5c/stl__extensions_8hpp.html" target="_top" xlink:title=" ">
<polygon fill="white" stroke="black" points="0,-56.5 0,-86.5 131,-86.5 131,-56.5 0,-56.5"/>
<text text-anchor="start" x="8" y="-74.5" font-family="Helvetica,sans-Serif" font-size="10.00">Simple&#45;Utility/concepts</text>
<text text-anchor="middle" x="65.5" y="-63.5" font-family="Helvetica,sans-Serif" font-size="10.00">/stl_extensions.hpp</text>
</a>
</g>
</g>
<!-- Node1&#45;&gt;Node3 -->
<g id="edge2" class="edge">
<title>Node1&#45;&gt;Node3</title>
<path fill="none" stroke="midnightblue" d="M403.66,-324.49C380.24,-314.4 354.04,-301.86 331.5,-288 233.32,-227.62 131.24,-135.05 87.51,-93.71"/>
<polygon fill="midnightblue" stroke="midnightblue" points="89.7,-90.96 80.04,-86.61 84.88,-96.04 89.7,-90.96"/>
</g>
<!-- Node5 -->
<g id="node5" class="node">
<title>Node5</title>
<g id="a_node5"><a xlink:href="../../d6/dbe/nullables_2base_8hpp.html" target="_top" xlink:title=" ">
<polygon fill="white" stroke="black" points="403,-257.5 403,-287.5 534,-287.5 534,-257.5 403,-257.5"/>
<text text-anchor="start" x="411" y="-275.5" font-family="Helvetica,sans-Serif" font-size="10.00">Simple&#45;Utility/nullables</text>
<text text-anchor="middle" x="468.5" y="-264.5" font-family="Helvetica,sans-Serif" font-size="10.00">/base.hpp</text>
</a>
</g>
</g>
<!-- Node1&#45;&gt;Node5 -->
<g id="edge4" class="edge">
<title>Node1&#45;&gt;Node5</title>
<path fill="none" stroke="midnightblue" d="M468.5,-324.19C468.5,-315.79 468.5,-306.44 468.5,-298.09"/>
<polygon fill="midnightblue" stroke="midnightblue" points="472,-297.85 468.5,-287.85 465,-297.85 472,-297.85"/>
</g>
<!-- Node17 -->
<g id="node17" class="node">
<title>Node17</title>
<g id="a_node17"><a xlink:title=" ">
<polygon fill="white" stroke="#bfbfbf" points="552.5,-263 552.5,-282 604.5,-282 604.5,-263 552.5,-263"/>
<text text-anchor="middle" x="578.5" y="-270" font-family="Helvetica,sans-Serif" font-size="10.00">cassert</text>
</a>
</g>
</g>
<!-- Node1&#45;&gt;Node17 -->
<g id="edge29" class="edge">
<title>Node1&#45;&gt;Node17</title>
<path fill="none" stroke="midnightblue" d="M504.82,-324.4C522.34,-312.3 542.72,-298.22 557.6,-287.94"/>
<polygon fill="midnightblue" stroke="midnightblue" points="559.85,-290.64 566.08,-282.08 555.87,-284.88 559.85,-290.64"/>
</g>
<!-- Node18 -->
<g id="node18" class="node">
<title>Node18</title>
<g id="a_node18"><a xlink:title=" ">
<polygon fill="white" stroke="#bfbfbf" points="622.5,-263 622.5,-282 672.5,-282 672.5,-263 622.5,-263"/>
<text text-anchor="middle" x="647.5" y="-270" font-family="Helvetica,sans-Serif" font-size="10.00">ranges</text>
</a>
</g>
</g>
<!-- Node1&#45;&gt;Node18 -->
<g id="edge30" class="edge">
<title>Node1&#45;&gt;Node18</title>
<path fill="none" stroke="midnightblue" d="M527.77,-324.39C554.04,-313.26 585.32,-299.99 613.5,-288 614.9,-287.4 616.34,-286.79 617.79,-286.18"/>
<polygon fill="midnightblue" stroke="midnightblue" points="619.54,-289.23 627.37,-282.09 616.8,-282.79 619.54,-289.23"/>
</g>
<!-- Node4 -->
<g id="node4" class="node">
<title>Node4</title>
<g id="a_node4"><a xlink:title=" ">
<polygon fill="white" stroke="#bfbfbf" points="413.5,-0.5 413.5,-19.5 473.5,-19.5 473.5,-0.5 413.5,-0.5"/>
<text text-anchor="middle" x="443.5" y="-7.5" font-family="Helvetica,sans-Serif" font-size="10.00">concepts</text>
</a>
</g>
</g>
<!-- Node3&#45;&gt;Node4 -->
<g id="edge3" class="edge">
<title>Node3&#45;&gt;Node4</title>
<path fill="none" stroke="midnightblue" d="M131.24,-57.45C134.03,-56.95 136.79,-56.47 139.5,-56 233.55,-39.83 344.58,-24.29 402.95,-16.39"/>
<polygon fill="midnightblue" stroke="midnightblue" points="403.78,-19.81 413.22,-15.01 402.84,-12.87 403.78,-19.81"/>
</g>
<!-- Node5&#45;&gt;Node3 -->
<g id="edge5" class="edge">
<title>Node5&#45;&gt;Node3</title>
<path fill="none" stroke="midnightblue" d="M439.84,-257.35C368.56,-222.15 183.28,-130.66 103.24,-91.13"/>
<polygon fill="midnightblue" stroke="midnightblue" points="104.53,-87.87 94.01,-86.58 101.43,-94.15 104.53,-87.87"/>
</g>
<!-- Node6 -->
<g id="node6" class="node">
<title>Node6</title>
<g id="a_node6"><a xlink:href="../../dd/dcd/operators_8hpp.html" target="_top" xlink:title=" ">
<polygon fill="white" stroke="black" points="251,-123.5 251,-153.5 382,-153.5 382,-123.5 251,-123.5"/>
<text text-anchor="start" x="259" y="-141.5" font-family="Helvetica,sans-Serif" font-size="10.00">Simple&#45;Utility/concepts</text>
<text text-anchor="middle" x="316.5" y="-130.5" font-family="Helvetica,sans-Serif" font-size="10.00">/operators.hpp</text>
</a>
</g>
</g>
<!-- Node5&#45;&gt;Node6 -->
<g id="edge6" class="edge">
<title>Node5&#45;&gt;Node6</title>
<path fill="none" stroke="midnightblue" d="M452.23,-257.37C425.38,-234.05 371.64,-187.38 340.44,-160.29"/>
<polygon fill="midnightblue" stroke="midnightblue" points="342.49,-157.44 332.65,-153.52 337.91,-162.72 342.49,-157.44"/>
</g>
<!-- Node7 -->
<g id="node7" class="node">
<title>Node7</title>
<g id="a_node7"><a xlink:href="../../d1/d76/functional_2base_8hpp.html" target="_top" xlink:title=" ">
<polygon fill="white" stroke="black" points="400.5,-123.5 400.5,-153.5 536.5,-153.5 536.5,-123.5 400.5,-123.5"/>
<text text-anchor="start" x="408.5" y="-141.5" font-family="Helvetica,sans-Serif" font-size="10.00">Simple&#45;Utility/functional</text>
<text text-anchor="middle" x="468.5" y="-130.5" font-family="Helvetica,sans-Serif" font-size="10.00">/base.hpp</text>
</a>
</g>
</g>
<!-- Node5&#45;&gt;Node7 -->
<g id="edge8" class="edge">
<title>Node5&#45;&gt;Node7</title>
<path fill="none" stroke="midnightblue" d="M468.5,-257.37C468.5,-235.04 468.5,-191.31 468.5,-163.85"/>
<polygon fill="midnightblue" stroke="midnightblue" points="472,-163.52 468.5,-153.52 465,-163.52 472,-163.52"/>
</g>
<!-- Node9 -->
<g id="node9" class="node">
<title>Node9</title>
<g id="a_node9"><a xlink:title=" ">
<polygon fill="white" stroke="#bfbfbf" points="698,-0.5 698,-19.5 767,-19.5 767,-0.5 698,-0.5"/>
<text text-anchor="middle" x="732.5" y="-7.5" font-family="Helvetica,sans-Serif" font-size="10.00">type_traits</text>
</a>
</g>
</g>
<!-- Node5&#45;&gt;Node9 -->
<g id="edge28" class="edge">
<title>Node5&#45;&gt;Node9</title>
<path fill="none" stroke="midnightblue" d="M534.05,-257.76C579.31,-247.53 634.92,-233.28 655.5,-221 725.96,-178.95 752.12,-163.22 782.5,-87 787.6,-74.2 788.11,-68.59 782.5,-56 776.93,-43.5 765.98,-33.01 755.75,-25.32"/>
<polygon fill="midnightblue" stroke="midnightblue" points="757.66,-22.38 747.45,-19.53 753.65,-28.12 757.66,-22.38"/>
</g>
<!-- Node10 -->
<g id="node10" class="node">
<title>Node10</title>
<g id="a_node10"><a xlink:href="../../d4/d1c/unified__base_8hpp.html" target="_top" xlink:title=" ">
<polygon fill="white" stroke="black" points="653.5,-56.5 653.5,-86.5 773.5,-86.5 773.5,-56.5 653.5,-56.5"/>
<text text-anchor="start" x="661.5" y="-74.5" font-family="Helvetica,sans-Serif" font-size="10.00">Simple&#45;Utility/unified</text>
<text text-anchor="middle" x="713.5" y="-63.5" font-family="Helvetica,sans-Serif" font-size="10.00">_base.hpp</text>
</a>
</g>
</g>
<!-- Node5&#45;&gt;Node10 -->
<g id="edge26" class="edge">
<title>Node5&#45;&gt;Node10</title>
<path fill="none" stroke="midnightblue" d="M486.12,-257.19C528.85,-222.48 638.14,-133.71 688.01,-93.21"/>
<polygon fill="midnightblue" stroke="midnightblue" points="690.48,-95.7 696.04,-86.68 686.07,-90.27 690.48,-95.7"/>
</g>
<!-- Node12 -->
<g id="node12" class="node">
<title>Node12</title>
<g id="a_node12"><a xlink:href="../../d9/d76/bind_8hpp.html" target="_top" xlink:title=" ">
<polygon fill="white" stroke="black" points="821.5,-190.5 821.5,-220.5 957.5,-220.5 957.5,-190.5 821.5,-190.5"/>
<text text-anchor="start" x="829.5" y="-208.5" font-family="Helvetica,sans-Serif" font-size="10.00">Simple&#45;Utility/functional</text>
<text text-anchor="middle" x="889.5" y="-197.5" font-family="Helvetica,sans-Serif" font-size="10.00">/operators/bind.hpp</text>
</a>
</g>
</g>
<!-- Node5&#45;&gt;Node12 -->
<g id="edge19" class="edge">
<title>Node5&#45;&gt;Node12</title>
<path fill="none" stroke="midnightblue" d="M534.31,-258.56C537.42,-258.02 540.49,-257.5 543.5,-257 660.34,-237.75 690.51,-239.31 807.5,-221 808.61,-220.83 809.72,-220.65 810.84,-220.47"/>
<polygon fill="midnightblue" stroke="midnightblue" points="811.77,-223.87 821.08,-218.81 810.64,-216.96 811.77,-223.87"/>
</g>
<!-- Node16 -->
<g id="node16" class="node">
<title>Node16</title>
<g id="a_node16"><a xlink:title=" ">
<polygon fill="white" stroke="#bfbfbf" points="593,-196 593,-215 646,-215 646,-196 593,-196"/>
<text text-anchor="middle" x="619.5" y="-203" font-family="Helvetica,sans-Serif" font-size="10.00">cstddef</text>
</a>
</g>
</g>
<!-- Node5&#45;&gt;Node16 -->
<g id="edge27" class="edge">
<title>Node5&#45;&gt;Node16</title>
<path fill="none" stroke="midnightblue" d="M501.26,-257.4C527.76,-245.99 564.72,-230.08 590.23,-219.1"/>
<polygon fill="midnightblue" stroke="midnightblue" points="591.94,-222.18 599.74,-215.01 589.17,-215.75 591.94,-222.18"/>
</g>
<!-- Node6&#45;&gt;Node4 -->
<g id="edge7" class="edge">
<title>Node6&#45;&gt;Node4</title>
<path fill="none" stroke="midnightblue" d="M322.12,-123.34C329.63,-105.8 344.38,-75.83 364.5,-56 378.28,-42.42 396.97,-31.53 412.71,-23.86"/>
<polygon fill="midnightblue" stroke="midnightblue" points="414.48,-26.91 422.07,-19.51 411.52,-20.56 414.48,-26.91"/>
</g>
<!-- Node7&#45;&gt;Node2 -->
<g id="edge12" class="edge">
<title>Node7&#45;&gt;Node2</title>
<path fill="none" stroke="midnightblue" d="M414.56,-123.48C368.58,-111.52 303.39,-94.57 261.03,-83.56"/>
<polygon fill="midnightblue" stroke="midnightblue" points="261.86,-80.16 251.3,-81.03 260.1,-86.93 261.86,-80.16"/>
</g>
<!-- Node7&#45;&gt;Node3 -->
<g id="edge16" class="edge">
<title>Node7&#45;&gt;Node3</title>
<path fill="none" stroke="midnightblue" d="M400.46,-124.68C397.1,-124.1 393.76,-123.54 390.5,-123 282.45,-105.22 252.3,-105.79 141.16,-87.23"/>
<polygon fill="midnightblue" stroke="midnightblue" points="141.68,-83.77 131.24,-85.56 140.52,-90.67 141.68,-83.77"/>
</g>
<!-- Node7&#45;&gt;Node4 -->
<g id="edge9" class="edge">
<title>Node7&#45;&gt;Node4</title>
<path fill="none" stroke="midnightblue" d="M419.38,-123.28C401.74,-115.55 383.7,-103.97 373.5,-87 366.4,-75.19 366.9,-68.09 373.5,-56 381.32,-41.68 395.86,-31.24 409.68,-24.04"/>
<polygon fill="midnightblue" stroke="midnightblue" points="411.52,-27.03 419.03,-19.56 408.5,-20.72 411.52,-27.03"/>
</g>
<!-- Node8 -->
<g id="node8" class="node">
<title>Node8</title>
<g id="a_node8"><a xlink:title=" ">
<polygon fill="white" stroke="#bfbfbf" points="383,-62 383,-81 448,-81 448,-62 383,-62"/>
<text text-anchor="middle" x="415.5" y="-69" font-family="Helvetica,sans-Serif" font-size="10.00">functional</text>
</a>
</g>
</g>
<!-- Node7&#45;&gt;Node8 -->
<g id="edge10" class="edge">
<title>Node7&#45;&gt;Node8</title>
<path fill="none" stroke="midnightblue" d="M457,-123.4C448.82,-113.36 437.79,-99.84 429.16,-89.25"/>
<polygon fill="midnightblue" stroke="midnightblue" points="431.62,-86.73 422.59,-81.19 426.2,-91.16 431.62,-86.73"/>
</g>
<!-- Node7&#45;&gt;Node9 -->
<g id="edge11" class="edge">
<title>Node7&#45;&gt;Node9</title>
<path fill="none" stroke="midnightblue" d="M519.13,-123.45C546.04,-114.89 579.12,-102.59 606.5,-87 625.44,-76.22 626.25,-67.92 644.5,-56 663.41,-43.65 686.14,-32.1 703.76,-23.8"/>
<polygon fill="midnightblue" stroke="midnightblue" points="705.36,-26.91 712.97,-19.54 702.42,-20.56 705.36,-26.91"/>
</g>
<!-- Node7&#45;&gt;Node10 -->
<g id="edge13" class="edge">
<title>Node7&#45;&gt;Node10</title>
<path fill="none" stroke="midnightblue" d="M521.36,-123.48C559.23,-113.43 610.39,-99.86 650.4,-89.24"/>
<polygon fill="midnightblue" stroke="midnightblue" points="651.54,-92.56 660.31,-86.61 649.75,-85.79 651.54,-92.56"/>
</g>
<!-- Node11 -->
<g id="node11" class="node">
<title>Node11</title>
<g id="a_node11"><a xlink:href="../../d5/d8e/concepts_2utility_8hpp.html" target="_top" xlink:title=" ">
<polygon fill="white" stroke="black" points="466,-56.5 466,-86.5 597,-86.5 597,-56.5 466,-56.5"/>
<text text-anchor="start" x="474" y="-74.5" font-family="Helvetica,sans-Serif" font-size="10.00">Simple&#45;Utility/concepts</text>
<text text-anchor="middle" x="531.5" y="-63.5" font-family="Helvetica,sans-Serif" font-size="10.00">/utility.hpp</text>
</a>
</g>
</g>
<!-- Node7&#45;&gt;Node11 -->
<g id="edge17" class="edge">
<title>Node7&#45;&gt;Node11</title>
<path fill="none" stroke="midnightblue" d="M482.17,-123.4C490.51,-114.79 501.33,-103.63 510.72,-93.94"/>
<polygon fill="midnightblue" stroke="midnightblue" points="513.41,-96.19 517.86,-86.58 508.38,-91.32 513.41,-96.19"/>
</g>
<!-- Node10&#45;&gt;Node4 -->
<g id="edge14" class="edge">
<title>Node10&#45;&gt;Node4</title>
<path fill="none" stroke="midnightblue" d="M653.24,-57.22C601.48,-45.81 528.31,-29.69 483.48,-19.81"/>
<polygon fill="midnightblue" stroke="midnightblue" points="484.07,-16.36 473.55,-17.62 482.56,-23.19 484.07,-16.36"/>
</g>
<!-- Node10&#45;&gt;Node9 -->
<g id="edge15" class="edge">
<title>Node10&#45;&gt;Node9</title>
<path fill="none" stroke="midnightblue" d="M718,-56.4C720.59,-48.29 723.88,-38.01 726.66,-29.28"/>
<polygon fill="midnightblue" stroke="midnightblue" points="730.03,-30.25 729.74,-19.66 723.36,-28.12 730.03,-30.25"/>
</g>
<!-- Node11&#45;&gt;Node4 -->
<g id="edge18" class="edge">
<title>Node11&#45;&gt;Node4</title>
<path fill="none" stroke="midnightblue" d="M510.65,-56.4C496.8,-47.04 478.69,-34.79 464.76,-25.38"/>
<polygon fill="midnightblue" stroke="midnightblue" points="466.55,-22.36 456.3,-19.66 462.63,-28.16 466.55,-22.36"/>
</g>
<!-- Node12&#45;&gt;Node7 -->
<g id="edge20" class="edge">
<title>Node12&#45;&gt;Node7</title>
<path fill="none" stroke="midnightblue" d="M821.39,-193.98C746.18,-182.37 625.32,-163.71 546.4,-151.53"/>
<polygon fill="midnightblue" stroke="midnightblue" points="546.93,-148.07 536.51,-150 545.86,-154.99 546.93,-148.07"/>
</g>
<!-- Node13 -->
<g id="node13" class="node">
<title>Node13</title>
<g id="a_node13"><a xlink:href="../../d2/d30/general_8hpp.html" target="_top" xlink:title=" ">
<polygon fill="white" stroke="black" points="829.5,-56.5 829.5,-86.5 941.5,-86.5 941.5,-56.5 829.5,-56.5"/>
<text text-anchor="start" x="837.5" y="-74.5" font-family="Helvetica,sans-Serif" font-size="10.00">Simple&#45;Utility/tuple</text>
<text text-anchor="middle" x="885.5" y="-63.5" font-family="Helvetica,sans-Serif" font-size="10.00">/general.hpp</text>
</a>
</g>
</g>
<!-- Node12&#45;&gt;Node13 -->
<g id="edge21" class="edge">
<title>Node12&#45;&gt;Node13</title>
<path fill="none" stroke="midnightblue" d="M889.07,-190.37C888.4,-168.04 887.07,-124.31 886.24,-96.85"/>
<polygon fill="midnightblue" stroke="midnightblue" points="889.73,-96.41 885.92,-86.52 882.73,-96.63 889.73,-96.41"/>
</g>
<!-- Node13&#45;&gt;Node4 -->
<g id="edge22" class="edge">
<title>Node13&#45;&gt;Node4</title>
<path fill="none" stroke="midnightblue" d="M829.38,-62.52C814.17,-60.38 797.71,-58.08 782.5,-56 674.68,-41.25 547.47,-24.56 483.91,-16.26"/>
<polygon fill="midnightblue" stroke="midnightblue" points="484.27,-12.78 473.9,-14.95 483.36,-19.72 484.27,-12.78"/>
</g>
<!-- Node13&#45;&gt;Node9 -->
<g id="edge24" class="edge">
<title>Node13&#45;&gt;Node9</title>
<path fill="none" stroke="midnightblue" d="M849.24,-56.4C823.46,-46.37 789.14,-33.03 764.4,-23.4"/>
<polygon fill="midnightblue" stroke="midnightblue" points="765.35,-20.02 754.76,-19.66 762.81,-26.54 765.35,-20.02"/>
</g>
<!-- Node14 -->
<g id="node14" class="node">
<title>Node14</title>
<g id="a_node14"><a xlink:title=" ">
<polygon fill="white" stroke="#bfbfbf" points="834,-0.5 834,-19.5 875,-19.5 875,-0.5 834,-0.5"/>
<text text-anchor="middle" x="854.5" y="-7.5" font-family="Helvetica,sans-Serif" font-size="10.00">tuple</text>
</a>
</g>
</g>
<!-- Node13&#45;&gt;Node14 -->
<g id="edge23" class="edge">
<title>Node13&#45;&gt;Node14</title>
<path fill="none" stroke="midnightblue" d="M878.15,-56.4C873.83,-48.11 868.33,-37.55 863.73,-28.71"/>
<polygon fill="midnightblue" stroke="midnightblue" points="866.74,-26.91 859.01,-19.66 860.53,-30.14 866.74,-26.91"/>
</g>
<!-- Node15 -->
<g id="node15" class="node">
<title>Node15</title>
<g id="a_node15"><a xlink:title=" ">
<polygon fill="white" stroke="#bfbfbf" points="893,-0.5 893,-19.5 938,-19.5 938,-0.5 893,-0.5"/>
<text text-anchor="middle" x="915.5" y="-7.5" font-family="Helvetica,sans-Serif" font-size="10.00">utility</text>
</a>
</g>
</g>
<!-- Node13&#45;&gt;Node15 -->
<g id="edge25" class="edge">
<title>Node13&#45;&gt;Node15</title>
<path fill="none" stroke="midnightblue" d="M892.61,-56.4C896.79,-48.11 902.11,-37.55 906.57,-28.71"/>
<polygon fill="midnightblue" stroke="midnightblue" points="909.76,-30.16 911.13,-19.66 903.51,-27.01 909.76,-30.16"/>
</g>
</g>
</svg>
