<?xml version="1.0" encoding="UTF-8" standalone="no"?>
<!DOCTYPE svg PUBLIC "-//W3C//DTD SVG 1.1//EN"
 "http://www.w3.org/Graphics/SVG/1.1/DTD/svg11.dtd">
<!-- Generated by graphviz version 8.0.5 (20230430.1635)
 -->
<!-- Title: std::tuple_element&lt; index, sl::type_list::TypeList&lt; Types... &gt; &gt; Pages: 1 -->
<svg width="172pt" height="245pt"
 viewBox="0.00 0.00 172.38 245.25" xmlns="http://www.w3.org/2000/svg" xmlns:xlink="http://www.w3.org/1999/xlink">
<g id="graph0" class="graph" transform="scale(1 1) rotate(0) translate(4 241.25)">
<title>std::tuple_element&lt; index, sl::type_list::TypeList&lt; Types... &gt; &gt;</title>
<!-- Node1 -->
<g id="node1" class="node">
<title>Node1</title>
<g id="a_node1"><a xlink:title="Specialization of std::tuple_element for TypeList.">
<polygon fill="#999999" stroke="#666666" points="122.5,-46.25 6.75,-46.25 6.75,0 122.5,0 122.5,-46.25"/>
<text text-anchor="start" x="14.75" y="-32.75" font-family="Helvetica,sans-Serif" font-size="10.00">std::tuple_element</text>
<text text-anchor="start" x="14.75" y="-20" font-family="Helvetica,sans-Serif" font-size="10.00">&lt; index, sl::type_list</text>
<text text-anchor="middle" x="64.62" y="-7.25" font-family="Helvetica,sans-Serif" font-size="10.00">::TypeList&lt; Types... &gt; &gt;</text>
</a>
</g>
</g>
<!-- Node2 -->
<g id="node2" class="node">
<title>Node2</title>
<g id="a_node2"><a xlink:title=" ">
<polygon fill="white" stroke="#666666" points="115.75,-142.25 13.5,-142.25 13.5,-83.25 115.75,-83.25 115.75,-142.25"/>
<text text-anchor="start" x="21.5" y="-128.75" font-family="Helvetica,sans-Serif" font-size="10.00">sl::type_list::detail</text>
<text text-anchor="start" x="21.5" y="-116" font-family="Helvetica,sans-Serif" font-size="10.00">::element&lt; index, sl</text>
<text text-anchor="start" x="21.5" y="-103.25" font-family="Helvetica,sans-Serif" font-size="10.00">::type_list::TypeList</text>
<text text-anchor="middle" x="64.62" y="-90.5" font-family="Helvetica,sans-Serif" font-size="10.00">&lt; Types... &gt; &gt;</text>
</a>
</g>
</g>
<!-- Node2&#45;&gt;Node1 -->
<g id="edge1" class="edge">
<title>Node2&#45;&gt;Node1</title>
<path fill="none" stroke="#63b8ff" d="M64.62,-72.14C64.62,-63.34 64.62,-54.31 64.62,-46.49"/>
<polygon fill="#63b8ff" stroke="#63b8ff" points="61.13,-72.06 64.62,-82.06 68.13,-72.06 61.13,-72.06"/>
</g>
<!-- Node3 -->
<g id="node3" class="node">
<title>Node3</title>
<g id="a_node3"><a xlink:title=" ">
<polygon fill="white" stroke="#666666" points="129.25,-237.25 0,-237.25 0,-203.75 129.25,-203.75 129.25,-237.25"/>
<text text-anchor="start" x="8" y="-223.75" font-family="Helvetica,sans-Serif" font-size="10.00">sl::type_list::detail</text>
<text text-anchor="middle" x="64.62" y="-211" font-family="Helvetica,sans-Serif" font-size="10.00">::element&lt; index, Types &gt;</text>
</a>
</g>
</g>
<!-- Node3&#45;&gt;Node2 -->
<g id="edge2" class="edge">
<title>Node3&#45;&gt;Node2</title>
<path fill="none" stroke="orange" stroke-dasharray="5,2" d="M64.62,-192.57C64.62,-177.21 64.62,-157.97 64.62,-142.34"/>
<polygon fill="orange" stroke="orange" points="61.13,-192.44 64.62,-202.44 68.13,-192.44 61.13,-192.44"/>
<text text-anchor="start" x="64.62" y="-176.25" font-family="Helvetica,sans-Serif" font-size="10.00"> &lt; index, sl::type_list</text>
<text text-anchor="middle" x="114.5" y="-163.5" font-family="Helvetica,sans-Serif" font-size="10.00">::TypeList&lt; Types... &gt; &gt;</text>
</g>
</g>
</svg>
