<?xml version="1.0" encoding="UTF-8" standalone="no"?>
<!DOCTYPE svg PUBLIC "-//W3C//DTD SVG 1.1//EN"
 "http://www.w3.org/Graphics/SVG/1.1/DTD/svg11.dtd">
<!-- Generated by graphviz version 2.43.0 (0)
 -->
<!-- Title: functional Pages: 1 -->
<svg width="202pt" height="249pt"
 viewBox="0.00 0.00 202.00 249.00" xmlns="http://www.w3.org/2000/svg" xmlns:xlink="http://www.w3.org/1999/xlink">
<g id="graph0" class="graph" transform="scale(1 1) rotate(0) translate(4 245)">
<title>functional</title>
<polygon fill="white" stroke="transparent" points="-4,4 -4,-245 198,-245 198,4 -4,4"/>
<!-- Node6 -->
<g id="node1" class="node">
<title>Node6</title>
<g id="a_node1"><a xlink:href="../../df/db2/group___g_r_o_u_p___f_u_n_c_t_i_o_n_a_l___t_r_a_n_s_f_o_r_m.html" target="_top" xlink:title="Contains the base transform_fn and several pre&#45;defined transform objects.">
<polygon fill="white" stroke="black" points="180,-241 115,-241 115,-222 180,-222 180,-241"/>
<text text-anchor="middle" x="147.5" y="-229" font-family="Helvetica,sans-Serif" font-size="10.00">transform</text>
</a>
</g>
</g>
<!-- Node8 -->
<g id="node2" class="node">
<title>Node8</title>
<g id="a_node2"><a xlink:href="../../de/d1c/group___g_r_o_u_p___f_u_n_c_t_i_o_n_a_l___u_t_i_l_i_t_y.html" target="_top" xlink:title="Contains functional objects, implementing several utility operations.">
<polygon fill="white" stroke="black" points="170,-204 125,-204 125,-185 170,-185 170,-204"/>
<text text-anchor="middle" x="147.5" y="-192" font-family="Helvetica,sans-Serif" font-size="10.00">utility</text>
</a>
</g>
</g>
<!-- Node1 -->
<g id="node3" class="node">
<title>Node1</title>
<g id="a_node3"><a xlink:title="This namespace contains helper types for complex functional chaining and concrete functional objects.">
<polygon fill="#bfbfbf" stroke="black" points="65,-130 0,-130 0,-111 65,-111 65,-130"/>
<text text-anchor="middle" x="32.5" y="-118" font-family="Helvetica,sans-Serif" font-size="10.00">functional</text>
</a>
</g>
</g>
<!-- Node1&#45;&gt;Node6 -->
<g id="edge5" class="edge">
<title>Node1&#45;&gt;Node6</title>
<path fill="none" stroke="black" d="M42.81,-139.11C54.04,-159.84 74.72,-193.11 101,-213.5 105.3,-216.83 110.29,-219.62 115.36,-221.94"/>
<polygon fill="black" stroke="black" points="45.81,-137.29 38.08,-130.05 39.61,-140.53 45.81,-137.29"/>
</g>
<!-- Node1&#45;&gt;Node8 -->
<g id="edge7" class="edge">
<title>Node1&#45;&gt;Node8</title>
<path fill="none" stroke="black" d="M50.55,-137.26C63.55,-149.36 82.34,-165.45 101,-176.5 108.31,-180.83 116.85,-184.52 124.55,-187.42"/>
<polygon fill="black" stroke="black" points="52.91,-134.68 43.25,-130.32 48.09,-139.75 52.91,-134.68"/>
</g>
<!-- Node5 -->
<g id="node4" class="node">
<title>Node5</title>
<g id="a_node4"><a xlink:href="../../dc/d1e/group___g_r_o_u_p___f_u_n_c_t_i_o_n_a_l___p_r_e_d_i_c_a_t_e.html" target="_top" xlink:title="Contains the base predicate_fn and several pre&#45;defined predicate objects.">
<polygon fill="white" stroke="black" points="178.5,-167 116.5,-167 116.5,-148 178.5,-148 178.5,-167"/>
<text text-anchor="middle" x="147.5" y="-155" font-family="Helvetica,sans-Serif" font-size="10.00">predicate</text>
</a>
</g>
</g>
<!-- Node1&#45;&gt;Node5 -->
<g id="edge4" class="edge">
<title>Node1&#45;&gt;Node5</title>
<path fill="none" stroke="black" d="M72.41,-133.24C87.06,-138.04 103.46,-143.41 117.11,-147.88"/>
<polygon fill="black" stroke="black" points="73.19,-129.81 62.6,-130.03 71.01,-136.47 73.19,-129.81"/>
</g>
<!-- Node4 -->
<g id="node5" class="node">
<title>Node4</title>
<g id="a_node5"><a xlink:href="../../d1/d53/group___g_r_o_u_p___f_u_n_c_t_i_o_n_a_l___o_p_e_r_a_t_o_r_s.html" target="_top" xlink:title=" ">
<polygon fill="white" stroke="black" points="179,-130 116,-130 116,-111 179,-111 179,-130"/>
<text text-anchor="middle" x="147.5" y="-118" font-family="Helvetica,sans-Serif" font-size="10.00">operators</text>
</a>
</g>
</g>
<!-- Node1&#45;&gt;Node4 -->
<g id="edge3" class="edge">
<title>Node1&#45;&gt;Node4</title>
<path fill="none" stroke="black" d="M75.64,-120.5C88.95,-120.5 103.39,-120.5 115.74,-120.5"/>
<polygon fill="black" stroke="black" points="75.28,-117 65.28,-120.5 75.28,-124 75.28,-117"/>
</g>
<!-- Node2 -->
<g id="node6" class="node">
<title>Node2</title>
<g id="a_node6"><a xlink:href="../../d5/dc1/group___g_r_o_u_p___f_u_n_c_t_i_o_n_a_l___a_r_i_t_h_m_e_t_i_c.html" target="_top" xlink:title="Contains functional objects, implementing several arithmetically operations.">
<polygon fill="white" stroke="black" points="181,-93 114,-93 114,-74 181,-74 181,-93"/>
<text text-anchor="middle" x="147.5" y="-81" font-family="Helvetica,sans-Serif" font-size="10.00">arithmetic</text>
</a>
</g>
</g>
<!-- Node1&#45;&gt;Node2 -->
<g id="edge1" class="edge">
<title>Node1&#45;&gt;Node2</title>
<path fill="none" stroke="black" d="M72.41,-107.76C87.06,-102.96 103.46,-97.59 117.11,-93.12"/>
<polygon fill="black" stroke="black" points="71.01,-104.53 62.6,-110.97 73.19,-111.19 71.01,-104.53"/>
</g>
<!-- Node7 -->
<g id="node7" class="node">
<title>Node7</title>
<g id="a_node7"><a xlink:href="../../dc/dc2/group___g_r_o_u_p___f_u_n_c_t_i_o_n_a_l___t_u_p_l_e.html" target="_top" xlink:title=" ">
<polygon fill="white" stroke="black" points="194,-56 101,-56 101,-37 194,-37 194,-56"/>
<text text-anchor="middle" x="147.5" y="-44" font-family="Helvetica,sans-Serif" font-size="10.00">tuple functional</text>
</a>
</g>
</g>
<!-- Node1&#45;&gt;Node7 -->
<g id="edge6" class="edge">
<title>Node1&#45;&gt;Node7</title>
<path fill="none" stroke="black" d="M51.03,-103.83C64.07,-92.04 82.7,-76.46 101,-65.5 106.88,-61.98 113.52,-58.81 119.88,-56.1"/>
<polygon fill="black" stroke="black" points="48.3,-101.58 43.33,-110.94 53.05,-106.73 48.3,-101.58"/>
</g>
<!-- Node3 -->
<g id="node8" class="node">
<title>Node3</title>
<g id="a_node8"><a xlink:href="../../de/d23/group___g_r_o_u_p___f_u_n_c_t_i_o_n_a_l___c_o_m_p_a_r_e.html" target="_top" xlink:title=" ">
<polygon fill="white" stroke="black" points="177,-19 118,-19 118,0 177,0 177,-19"/>
<text text-anchor="middle" x="147.5" y="-7" font-family="Helvetica,sans-Serif" font-size="10.00">compare</text>
</a>
</g>
</g>
<!-- Node1&#45;&gt;Node3 -->
<g id="edge2" class="edge">
<title>Node1&#45;&gt;Node3</title>
<path fill="none" stroke="black" d="M43.11,-101.87C54.48,-81.43 75.18,-48.82 101,-28.5 105.98,-24.58 111.88,-21.34 117.76,-18.72"/>
<polygon fill="black" stroke="black" points="39.95,-100.36 38.29,-110.82 46.11,-103.67 39.95,-100.36"/>
</g>
</g>
</svg>
