<?xml version="1.0" encoding="UTF-8" standalone="no"?>
<!DOCTYPE svg PUBLIC "-//W3C//DTD SVG 1.1//EN"
 "http://www.w3.org/Graphics/SVG/1.1/DTD/svg11.dtd">
<!-- Generated by graphviz version 8.0.5 (20230430.1635)
 -->
<!-- Title: functional Pages: 1 -->
<svg width="207pt" height="380pt"
 viewBox="0.00 0.00 206.50 379.75" xmlns="http://www.w3.org/2000/svg" xmlns:xlink="http://www.w3.org/1999/xlink">
<g id="graph0" class="graph" transform="scale(1 1) rotate(0) translate(4 375.75)">
<title>functional</title>
<!-- Node1 -->
<g id="node1" class="node">
<title>Node1</title>
<g id="a_node1"><a xlink:title="This namespace contains helper types for complex functional chaining and concrete functional objects.">
<polygon fill="#999999" stroke="#666666" points="61.75,-195.75 0,-195.75 0,-175 61.75,-175 61.75,-195.75"/>
<text text-anchor="middle" x="30.88" y="-182.25" font-family="Helvetica,sans-Serif" font-size="10.00">functional</text>
</a>
</g>
</g>
<!-- Node2 -->
<g id="node2" class="node">
<title>Node2</title>
<g id="a_node2"><a xlink:href="../../d5/dc1/group___g_r_o_u_p___f_u_n_c_t_i_o_n_a_l___a_r_i_t_h_m_e_t_i_c.html" target="_top" xlink:title="Contains functional objects, implementing several arithmetically operations.">
<polygon fill="white" stroke="#666666" points="179,-371.75 117.25,-371.75 117.25,-351 179,-351 179,-371.75"/>
<text text-anchor="middle" x="148.12" y="-358.25" font-family="Helvetica,sans-Serif" font-size="10.00">arithmetic</text>
</a>
</g>
</g>
<!-- Node1&#45;&gt;Node2 -->
<g id="edge1" class="edge">
<title>Node1&#45;&gt;Node2</title>
<path fill="none" stroke="black" d="M35.49,-206.73C42.14,-239.8 59.33,-303.52 97.75,-341.38 103.09,-346.63 109.99,-350.57 116.93,-353.49"/>
<polygon fill="black" stroke="black" points="38.77,-206.23 33.5,-197.04 31.89,-207.51 38.77,-206.23"/>
</g>
<!-- Node3 -->
<g id="node3" class="node">
<title>Node3</title>
<g id="a_node3"><a xlink:href="../../d0/d96/group___g_r_o_u_p___f_u_n_c_t_i_o_n_a_l___c_l_o_s_u_r_e___t_e_m_p_l_a_t_e.html" target="_top" xlink:title="Trait type, exposing the closure template.">
<polygon fill="white" stroke="#666666" points="195.5,-332.75 100.75,-332.75 100.75,-312 195.5,-312 195.5,-332.75"/>
<text text-anchor="middle" x="148.12" y="-319.25" font-family="Helvetica,sans-Serif" font-size="10.00">closure_template</text>
</a>
</g>
</g>
<!-- Node1&#45;&gt;Node3 -->
<g id="edge2" class="edge">
<title>Node1&#45;&gt;Node3</title>
<path fill="none" stroke="black" d="M38.7,-206.13C48.15,-231.94 67.56,-275.82 97.75,-302.38 101.92,-306.04 106.84,-309.09 111.94,-311.6"/>
<polygon fill="black" stroke="black" points="41.75,-205.26 35.15,-196.98 35.14,-207.57 41.75,-205.26"/>
</g>
<!-- Node4 -->
<g id="node4" class="node">
<title>Node4</title>
<g id="a_node4"><a xlink:href="../../de/d23/group___g_r_o_u_p___f_u_n_c_t_i_o_n_a_l___c_o_m_p_a_r_e.html" target="_top" xlink:title="Contains various comparision predicates.">
<polygon fill="white" stroke="#666666" points="176,-293.75 120.25,-293.75 120.25,-273 176,-273 176,-293.75"/>
<text text-anchor="middle" x="148.12" y="-280.25" font-family="Helvetica,sans-Serif" font-size="10.00">compare</text>
</a>
</g>
</g>
<!-- Node1&#45;&gt;Node4 -->
<g id="edge3" class="edge">
<title>Node1&#45;&gt;Node4</title>
<path fill="none" stroke="black" d="M44.29,-204.89C56.2,-222.25 75.59,-247.31 97.75,-263.38 104.34,-268.15 112.23,-272.01 119.76,-275.01"/>
<polygon fill="black" stroke="black" points="46.93,-203.53 38.48,-197.14 41.1,-207.41 46.93,-203.53"/>
</g>
<!-- Node5 -->
<g id="node5" class="node">
<title>Node5</title>
<g id="a_node5"><a xlink:href="../../d9/db2/group___g_r_o_u_p___f_u_n_c_t_i_o_n_a_l___c_o_m_p_o_s_i_t_i_o_n.html" target="_top" xlink:title=" ">
<polygon fill="white" stroke="#666666" points="184.25,-254.75 112,-254.75 112,-234 184.25,-234 184.25,-254.75"/>
<text text-anchor="middle" x="148.12" y="-241.25" font-family="Helvetica,sans-Serif" font-size="10.00">composition</text>
</a>
</g>
</g>
<!-- Node1&#45;&gt;Node5 -->
<g id="edge4" class="edge">
<title>Node1&#45;&gt;Node5</title>
<path fill="none" stroke="black" d="M57.89,-202C69.81,-209.29 84.26,-217.7 97.75,-224.38 104.3,-227.62 111.51,-230.76 118.34,-233.56"/>
<polygon fill="black" stroke="black" points="59.89,-198.5 49.55,-196.19 56.19,-204.44 59.89,-198.5"/>
</g>
<!-- Node6 -->
<g id="node6" class="node">
<title>Node6</title>
<g id="a_node6"><a xlink:href="../../d9/d07/group___g_r_o_u_p___f_u_n_c_t_i_o_n_a_l___i_n_v_o_k_e___p_o_l_i_c_y.html" target="_top" xlink:title="Contains several CRTP types, decorating the behavior of functional types.">
<polygon fill="white" stroke="#666666" points="185,-215.75 111.25,-215.75 111.25,-195 185,-195 185,-215.75"/>
<text text-anchor="middle" x="148.12" y="-202.25" font-family="Helvetica,sans-Serif" font-size="10.00">invoke policy</text>
</a>
</g>
</g>
<!-- Node1&#45;&gt;Node6 -->
<g id="edge5" class="edge">
<title>Node1&#45;&gt;Node6</title>
<path fill="none" stroke="black" d="M72.74,-192.47C85.18,-194.63 98.78,-196.98 110.9,-199.09"/>
<polygon fill="black" stroke="black" points="73.61,-188.89 63.16,-190.63 72.41,-195.79 73.61,-188.89"/>
</g>
<!-- Node7 -->
<g id="node7" class="node">
<title>Node7</title>
<g id="a_node7"><a xlink:href="../../dc/d1e/group___g_r_o_u_p___f_u_n_c_t_i_o_n_a_l___p_r_e_d_i_c_a_t_e.html" target="_top" xlink:title="Contains the Predicate closure template.">
<polygon fill="white" stroke="#666666" points="177.12,-176.75 119.12,-176.75 119.12,-156 177.12,-156 177.12,-176.75"/>
<text text-anchor="middle" x="148.12" y="-163.25" font-family="Helvetica,sans-Serif" font-size="10.00">predicate</text>
</a>
</g>
</g>
<!-- Node1&#45;&gt;Node7 -->
<g id="edge6" class="edge">
<title>Node1&#45;&gt;Node7</title>
<path fill="none" stroke="black" d="M72.83,-178.62C87.98,-176.13 104.82,-173.35 118.63,-171.07"/>
<polygon fill="black" stroke="black" points="72.45,-175.3 63.16,-180.38 73.59,-182.21 72.45,-175.3"/>
</g>
<!-- Node8 -->
<g id="node8" class="node">
<title>Node8</title>
<g id="a_node8"><a xlink:href="../../df/db2/group___g_r_o_u_p___f_u_n_c_t_i_o_n_a_l___t_r_a_n_s_f_o_r_m.html" target="_top" xlink:title="Contains the Transform closure template.">
<polygon fill="white" stroke="#666666" points="179,-137.75 117.25,-137.75 117.25,-117 179,-117 179,-137.75"/>
<text text-anchor="middle" x="148.12" y="-124.25" font-family="Helvetica,sans-Serif" font-size="10.00">transform</text>
</a>
</g>
</g>
<!-- Node1&#45;&gt;Node8 -->
<g id="edge7" class="edge">
<title>Node1&#45;&gt;Node8</title>
<path fill="none" stroke="black" d="M58.43,-168.93C70.26,-161.9 84.49,-153.84 97.75,-147.38 104.32,-144.17 111.53,-141.04 118.37,-138.24"/>
<polygon fill="black" stroke="black" points="56.89,-166.38 50.13,-174.54 60.5,-172.38 56.89,-166.38"/>
</g>
<!-- Node9 -->
<g id="node9" class="node">
<title>Node9</title>
<g id="a_node9"><a xlink:href="../../dc/dc2/group___g_r_o_u_p___f_u_n_c_t_i_o_n_a_l___t_u_p_l_e.html" target="_top" xlink:title="Contains several tuple related Transform definitions and the Apply closure template.">
<polygon fill="white" stroke="#666666" points="167.75,-98.75 128.5,-98.75 128.5,-78 167.75,-78 167.75,-98.75"/>
<text text-anchor="middle" x="148.12" y="-85.25" font-family="Helvetica,sans-Serif" font-size="10.00">tuple</text>
</a>
</g>
</g>
<!-- Node1&#45;&gt;Node9 -->
<g id="edge8" class="edge">
<title>Node1&#45;&gt;Node9</title>
<path fill="none" stroke="black" d="M44.35,-166.12C56.29,-148.98 75.7,-124.25 97.75,-108.38 106.91,-101.78 118.55,-96.93 128.23,-93.66"/>
<polygon fill="black" stroke="black" points="41.21,-163.51 38.52,-173.75 47.01,-167.42 41.21,-163.51"/>
</g>
<!-- Node10 -->
<g id="node10" class="node">
<title>Node10</title>
<g id="a_node10"><a xlink:href="../../de/d3a/group___g_r_o_u_p___f_u_n_c_t_i_o_n_a_l___u_n_w_r_a_p___f_u_n_c_t_i_o_n_a_l.html" target="_top" xlink:title="Trait, unwrapping the functional type if a closure type is given, otherwise the given type.">
<polygon fill="white" stroke="#666666" points="198.5,-59.75 97.75,-59.75 97.75,-39 198.5,-39 198.5,-59.75"/>
<text text-anchor="middle" x="148.12" y="-46.25" font-family="Helvetica,sans-Serif" font-size="10.00">unwrap_functional</text>
</a>
</g>
</g>
<!-- Node1&#45;&gt;Node10 -->
<g id="edge9" class="edge">
<title>Node1&#45;&gt;Node10</title>
<path fill="none" stroke="black" d="M38.89,-164.41C48.44,-138.77 67.86,-95.57 97.75,-69.38 101.92,-65.72 106.85,-62.68 111.95,-60.16"/>
<polygon fill="black" stroke="black" points="35.34,-162.93 35.29,-173.52 41.94,-165.27 35.34,-162.93"/>
</g>
<!-- Node11 -->
<g id="node11" class="node">
<title>Node11</title>
<g id="a_node11"><a xlink:href="../../de/d1c/group___g_r_o_u_p___f_u_n_c_t_i_o_n_a_l___u_t_i_l_i_t_y.html" target="_top" xlink:title="Contains functional objects, implementing several utility operations.">
<polygon fill="white" stroke="#666666" points="168.5,-20.75 127.75,-20.75 127.75,0 168.5,0 168.5,-20.75"/>
<text text-anchor="middle" x="148.12" y="-7.25" font-family="Helvetica,sans-Serif" font-size="10.00">utility</text>
</a>
</g>
</g>
<!-- Node1&#45;&gt;Node11 -->
<g id="edge10" class="edge">
<title>Node1&#45;&gt;Node11</title>
<path fill="none" stroke="black" d="M35.53,-164.16C42.24,-131.3 59.5,-67.98 97.75,-30.38 105.8,-22.46 117.39,-17.55 127.32,-14.58"/>
<polygon fill="black" stroke="black" points="31.94,-163.3 33.52,-173.78 38.82,-164.61 31.94,-163.3"/>
</g>
</g>
</svg>
