<?xml version="1.0" encoding="UTF-8" standalone="no"?>
<!DOCTYPE svg PUBLIC "-//W3C//DTD SVG 1.1//EN"
 "http://www.w3.org/Graphics/SVG/1.1/DTD/svg11.dtd">
<!-- Generated by graphviz version 7.0.5 (20221223.1930)
 -->
<!-- Title: functional Pages: 1 -->
<svg width="194pt" height="249pt"
 viewBox="0.00 0.00 194.00 249.00" xmlns="http://www.w3.org/2000/svg" xmlns:xlink="http://www.w3.org/1999/xlink">
<g id="graph0" class="graph" transform="scale(1 1) rotate(0) translate(4 245)">
<title>functional</title>
<!-- Node1 -->
<g id="node1" class="node">
<title>Node1</title>
<g id="a_node1"><a xlink:title="This namespace contains helper types for complex functional chaining and concrete functional objects.">
<polygon fill="#999999" stroke="#666666" points="62,-130 0,-130 0,-111 62,-111 62,-130"/>
<text text-anchor="middle" x="31" y="-118" font-family="Helvetica,sans-Serif" font-size="10.00">functional</text>
</a>
</g>
</g>
<!-- Node2 -->
<g id="node2" class="node">
<title>Node2</title>
<g id="a_node2"><a xlink:href="../../d5/dc1/group___g_r_o_u_p___f_u_n_c_t_i_o_n_a_l___a_r_i_t_h_m_e_t_i_c.html" target="_top" xlink:title="Contains functional objects, implementing several arithmetically operations.">
<polygon fill="white" stroke="#666666" points="173,-241 111,-241 111,-222 173,-222 173,-241"/>
<text text-anchor="middle" x="142" y="-229" font-family="Helvetica,sans-Serif" font-size="10.00">arithmetic</text>
</a>
</g>
</g>
<!-- Node1&#45;&gt;Node2 -->
<g id="edge1" class="edge">
<title>Node1&#45;&gt;Node2</title>
<path fill="none" stroke="black" d="M41.86,-140.48C52.98,-161.21 72.83,-193.35 98,-213.5 101.92,-216.64 106.46,-219.31 111.09,-221.56"/>
<polygon fill="black" stroke="black" points="44.99,-138.92 37.3,-131.63 38.77,-142.12 44.99,-138.92"/>
</g>
<!-- Node3 -->
<g id="node3" class="node">
<title>Node3</title>
<g id="a_node3"><a xlink:href="../../de/d23/group___g_r_o_u_p___f_u_n_c_t_i_o_n_a_l___c_o_m_p_a_r_e.html" target="_top" xlink:title=" ">
<polygon fill="white" stroke="#666666" points="170,-204 114,-204 114,-185 170,-185 170,-204"/>
<text text-anchor="middle" x="142" y="-192" font-family="Helvetica,sans-Serif" font-size="10.00">compare</text>
</a>
</g>
</g>
<!-- Node1&#45;&gt;Node3 -->
<g id="edge2" class="edge">
<title>Node1&#45;&gt;Node3</title>
<path fill="none" stroke="black" d="M49.76,-138.21C62.42,-150.14 80.27,-165.63 98,-176.5 102.97,-179.55 108.54,-182.3 113.99,-184.69"/>
<polygon fill="black" stroke="black" points="52.25,-135.75 42.63,-131.32 47.39,-140.78 52.25,-135.75"/>
</g>
<!-- Node4 -->
<g id="node4" class="node">
<title>Node4</title>
<g id="a_node4"><a xlink:href="../../d1/d53/group___g_r_o_u_p___f_u_n_c_t_i_o_n_a_l___o_p_e_r_a_t_o_r_s.html" target="_top" xlink:title=" ">
<polygon fill="white" stroke="#666666" points="172.5,-167 111.5,-167 111.5,-148 172.5,-148 172.5,-167"/>
<text text-anchor="middle" x="142" y="-155" font-family="Helvetica,sans-Serif" font-size="10.00">operators</text>
</a>
</g>
</g>
<!-- Node1&#45;&gt;Node4 -->
<g id="edge3" class="edge">
<title>Node1&#45;&gt;Node4</title>
<path fill="none" stroke="black" d="M71.91,-134.05C85.08,-138.52 99.48,-143.41 111.71,-147.56"/>
<polygon fill="black" stroke="black" points="73.24,-130.8 62.64,-130.9 70.99,-137.43 73.24,-130.8"/>
</g>
<!-- Node5 -->
<g id="node5" class="node">
<title>Node5</title>
<g id="a_node5"><a xlink:href="../../dc/d1e/group___g_r_o_u_p___f_u_n_c_t_i_o_n_a_l___p_r_e_d_i_c_a_t_e.html" target="_top" xlink:title="Contains the base predicate_fn and several pre&#45;defined predicate objects.">
<polygon fill="white" stroke="#666666" points="171.5,-130 112.5,-130 112.5,-111 171.5,-111 171.5,-130"/>
<text text-anchor="middle" x="142" y="-118" font-family="Helvetica,sans-Serif" font-size="10.00">predicate</text>
</a>
</g>
</g>
<!-- Node1&#45;&gt;Node5 -->
<g id="edge4" class="edge">
<title>Node1&#45;&gt;Node5</title>
<path fill="none" stroke="black" d="M73.8,-120.5C86.67,-120.5 100.53,-120.5 112.3,-120.5"/>
<polygon fill="black" stroke="black" points="73.88,-117 63.88,-120.5 73.88,-124 73.88,-117"/>
</g>
<!-- Node6 -->
<g id="node6" class="node">
<title>Node6</title>
<g id="a_node6"><a xlink:href="../../df/db2/group___g_r_o_u_p___f_u_n_c_t_i_o_n_a_l___t_r_a_n_s_f_o_r_m.html" target="_top" xlink:title="Contains the base transform_fn and several pre&#45;defined transform objects.">
<polygon fill="white" stroke="#666666" points="173,-93 111,-93 111,-74 173,-74 173,-93"/>
<text text-anchor="middle" x="142" y="-81" font-family="Helvetica,sans-Serif" font-size="10.00">transform</text>
</a>
</g>
</g>
<!-- Node1&#45;&gt;Node6 -->
<g id="edge5" class="edge">
<title>Node1&#45;&gt;Node6</title>
<path fill="none" stroke="black" d="M71.91,-106.95C85.08,-102.48 99.48,-97.59 111.71,-93.44"/>
<polygon fill="black" stroke="black" points="70.99,-103.57 62.64,-110.1 73.24,-110.2 70.99,-103.57"/>
</g>
<!-- Node7 -->
<g id="node7" class="node">
<title>Node7</title>
<g id="a_node7"><a xlink:href="../../dc/dc2/group___g_r_o_u_p___f_u_n_c_t_i_o_n_a_l___t_u_p_l_e.html" target="_top" xlink:title=" ">
<polygon fill="white" stroke="#666666" points="186,-56 98,-56 98,-37 186,-37 186,-56"/>
<text text-anchor="middle" x="142" y="-44" font-family="Helvetica,sans-Serif" font-size="10.00">tuple functional</text>
</a>
</g>
</g>
<!-- Node1&#45;&gt;Node7 -->
<g id="edge6" class="edge">
<title>Node1&#45;&gt;Node7</title>
<path fill="none" stroke="black" d="M50.33,-102.83C63.01,-91.22 80.66,-76.26 98,-65.5 103.41,-62.14 109.51,-59.07 115.39,-56.41"/>
<polygon fill="black" stroke="black" points="48.06,-100.15 43.15,-109.54 52.85,-105.27 48.06,-100.15"/>
</g>
<!-- Node8 -->
<g id="node8" class="node">
<title>Node8</title>
<g id="a_node8"><a xlink:href="../../de/d1c/group___g_r_o_u_p___f_u_n_c_t_i_o_n_a_l___u_t_i_l_i_t_y.html" target="_top" xlink:title="Contains functional objects, implementing several utility operations.">
<polygon fill="white" stroke="#666666" points="162.5,-19 121.5,-19 121.5,0 162.5,0 162.5,-19"/>
<text text-anchor="middle" x="142" y="-7" font-family="Helvetica,sans-Serif" font-size="10.00">utility</text>
</a>
</g>
</g>
<!-- Node1&#45;&gt;Node8 -->
<g id="edge7" class="edge">
<title>Node1&#45;&gt;Node8</title>
<path fill="none" stroke="black" d="M42.16,-100.52C53.42,-80.09 73.28,-48.58 98,-28.5 104.84,-22.94 113.56,-18.69 121.36,-15.64"/>
<polygon fill="black" stroke="black" points="39.13,-98.78 37.53,-109.25 45.31,-102.06 39.13,-98.78"/>
</g>
</g>
</svg>
