<?xml version="1.0" encoding="UTF-8" standalone="no"?>
<!DOCTYPE svg PUBLIC "-//W3C//DTD SVG 1.1//EN"
 "http://www.w3.org/Graphics/SVG/1.1/DTD/svg11.dtd">
<!-- Generated by graphviz version 8.0.5 (20230430.1635)
 -->
<!-- Title: functional Pages: 1 -->
<svg width="193pt" height="263pt"
 viewBox="0.00 0.00 193.00 262.75" xmlns="http://www.w3.org/2000/svg" xmlns:xlink="http://www.w3.org/1999/xlink">
<g id="graph0" class="graph" transform="scale(1 1) rotate(0) translate(4 258.75)">
<title>functional</title>
<!-- Node1 -->
<g id="node1" class="node">
<title>Node1</title>
<g id="a_node1"><a xlink:title="This namespace contains helper types for complex functional chaining and concrete functional objects.">
<polygon fill="#999999" stroke="#666666" points="61.75,-137.75 0,-137.75 0,-117 61.75,-117 61.75,-137.75"/>
<text text-anchor="middle" x="30.88" y="-124.25" font-family="Helvetica,sans-Serif" font-size="10.00">functional</text>
</a>
</g>
</g>
<!-- Node2 -->
<g id="node2" class="node">
<title>Node2</title>
<g id="a_node2"><a xlink:href="../../d5/dc1/group___g_r_o_u_p___f_u_n_c_t_i_o_n_a_l___a_r_i_t_h_m_e_t_i_c.html" target="_top" xlink:title="Contains functional objects, implementing several arithmetically operations.">
<polygon fill="white" stroke="#666666" points="172.25,-254.75 110.5,-254.75 110.5,-234 172.25,-234 172.25,-254.75"/>
<text text-anchor="middle" x="141.38" y="-241.25" font-family="Helvetica,sans-Serif" font-size="10.00">arithmetic</text>
</a>
</g>
</g>
<!-- Node1&#45;&gt;Node2 -->
<g id="edge1" class="edge">
<title>Node1&#45;&gt;Node2</title>
<path fill="none" stroke="black" d="M41.57,-147.79C52.61,-169.24 72.45,-202.78 97.75,-224.38 101.98,-227.98 106.97,-231.09 112.02,-233.7"/>
<polygon fill="black" stroke="black" points="44.32,-146.48 36.74,-139.08 38.05,-149.59 44.32,-146.48"/>
</g>
<!-- Node3 -->
<g id="node3" class="node">
<title>Node3</title>
<g id="a_node3"><a xlink:href="../../de/d23/group___g_r_o_u_p___f_u_n_c_t_i_o_n_a_l___c_o_m_p_a_r_e.html" target="_top" xlink:title=" ">
<polygon fill="white" stroke="#666666" points="169.25,-215.75 113.5,-215.75 113.5,-195 169.25,-195 169.25,-215.75"/>
<text text-anchor="middle" x="141.38" y="-202.25" font-family="Helvetica,sans-Serif" font-size="10.00">compare</text>
</a>
</g>
</g>
<!-- Node1&#45;&gt;Node3 -->
<g id="edge2" class="edge">
<title>Node1&#45;&gt;Node3</title>
<path fill="none" stroke="black" d="M49.8,-145.68C62.44,-157.94 80.19,-173.86 97.75,-185.38 102.95,-188.78 108.81,-191.93 114.5,-194.67"/>
<polygon fill="black" stroke="black" points="52.86,-143.79 43.29,-139.25 47.93,-148.77 52.86,-143.79"/>
</g>
<!-- Node4 -->
<g id="node4" class="node">
<title>Node4</title>
<g id="a_node4"><a xlink:href="../../d1/d53/group___g_r_o_u_p___f_u_n_c_t_i_o_n_a_l___o_p_e_r_a_t_o_r_s.html" target="_top" xlink:title=" ">
<polygon fill="white" stroke="#666666" points="171.5,-176.75 111.25,-176.75 111.25,-156 171.5,-156 171.5,-176.75"/>
<text text-anchor="middle" x="141.38" y="-163.25" font-family="Helvetica,sans-Serif" font-size="10.00">operators</text>
</a>
</g>
</g>
<!-- Node1&#45;&gt;Node4 -->
<g id="edge3" class="edge">
<title>Node1&#45;&gt;Node4</title>
<path fill="none" stroke="black" d="M72.15,-141.85C85.05,-146.49 99.09,-151.54 111.06,-155.84"/>
<polygon fill="black" stroke="black" points="73.69,-138.33 63.1,-138.24 71.32,-144.92 73.69,-138.33"/>
</g>
<!-- Node5 -->
<g id="node5" class="node">
<title>Node5</title>
<g id="a_node5"><a xlink:href="../../dc/d1e/group___g_r_o_u_p___f_u_n_c_t_i_o_n_a_l___p_r_e_d_i_c_a_t_e.html" target="_top" xlink:title="Contains the base predicate_fn and several pre&#45;defined predicate objects.">
<polygon fill="white" stroke="#666666" points="170.38,-137.75 112.38,-137.75 112.38,-117 170.38,-117 170.38,-137.75"/>
<text text-anchor="middle" x="141.38" y="-124.25" font-family="Helvetica,sans-Serif" font-size="10.00">predicate</text>
</a>
</g>
</g>
<!-- Node1&#45;&gt;Node5 -->
<g id="edge4" class="edge">
<title>Node1&#45;&gt;Node5</title>
<path fill="none" stroke="black" d="M72.79,-127.38C85.92,-127.38 100.17,-127.38 112.18,-127.38"/>
<polygon fill="black" stroke="black" points="73.1,-123.88 63.1,-127.38 73.1,-130.88 73.1,-123.88"/>
</g>
<!-- Node6 -->
<g id="node6" class="node">
<title>Node6</title>
<g id="a_node6"><a xlink:href="../../df/db2/group___g_r_o_u_p___f_u_n_c_t_i_o_n_a_l___t_r_a_n_s_f_o_r_m.html" target="_top" xlink:title="Contains the base transform_fn and several pre&#45;defined transform objects.">
<polygon fill="white" stroke="#666666" points="172.25,-98.75 110.5,-98.75 110.5,-78 172.25,-78 172.25,-98.75"/>
<text text-anchor="middle" x="141.38" y="-85.25" font-family="Helvetica,sans-Serif" font-size="10.00">transform</text>
</a>
</g>
</g>
<!-- Node1&#45;&gt;Node6 -->
<g id="edge5" class="edge">
<title>Node1&#45;&gt;Node6</title>
<path fill="none" stroke="black" d="M72.35,-112.83C84.93,-108.3 98.57,-103.4 110.31,-99.18"/>
<polygon fill="black" stroke="black" points="71.32,-109.83 63.1,-116.51 73.69,-116.42 71.32,-109.83"/>
</g>
<!-- Node7 -->
<g id="node7" class="node">
<title>Node7</title>
<g id="a_node7"><a xlink:href="../../dc/dc2/group___g_r_o_u_p___f_u_n_c_t_i_o_n_a_l___t_u_p_l_e.html" target="_top" xlink:title=" ">
<polygon fill="white" stroke="#666666" points="185,-59.75 97.75,-59.75 97.75,-39 185,-39 185,-59.75"/>
<text text-anchor="middle" x="141.38" y="-46.25" font-family="Helvetica,sans-Serif" font-size="10.00">tuple functional</text>
</a>
</g>
</g>
<!-- Node1&#45;&gt;Node7 -->
<g id="edge6" class="edge">
<title>Node1&#45;&gt;Node7</title>
<path fill="none" stroke="black" d="M49.8,-109.07C62.44,-96.81 80.19,-80.89 97.75,-69.38 102.95,-65.97 108.81,-62.82 114.5,-60.08"/>
<polygon fill="black" stroke="black" points="47.93,-105.98 43.29,-115.5 52.86,-110.96 47.93,-105.98"/>
</g>
<!-- Node8 -->
<g id="node8" class="node">
<title>Node8</title>
<g id="a_node8"><a xlink:href="../../de/d1c/group___g_r_o_u_p___f_u_n_c_t_i_o_n_a_l___u_t_i_l_i_t_y.html" target="_top" xlink:title="Contains functional objects, implementing several utility operations.">
<polygon fill="white" stroke="#666666" points="161.75,-20.75 121,-20.75 121,0 161.75,0 161.75,-20.75"/>
<text text-anchor="middle" x="141.38" y="-7.25" font-family="Helvetica,sans-Serif" font-size="10.00">utility</text>
</a>
</g>
</g>
<!-- Node1&#45;&gt;Node8 -->
<g id="edge7" class="edge">
<title>Node1&#45;&gt;Node8</title>
<path fill="none" stroke="black" d="M41.57,-106.96C52.61,-85.51 72.45,-51.97 97.75,-30.38 104.47,-24.64 113.1,-20.19 120.84,-16.95"/>
<polygon fill="black" stroke="black" points="38.05,-105.16 36.74,-115.67 44.32,-108.27 38.05,-105.16"/>
</g>
</g>
</svg>
