<?xml version="1.0" encoding="UTF-8" standalone="no"?>
<!DOCTYPE svg PUBLIC "-//W3C//DTD SVG 1.1//EN"
 "http://www.w3.org/Graphics/SVG/1.1/DTD/svg11.dtd">
<!-- Generated by graphviz version 7.0.5 (20221223.1930)
 -->
<!-- Title: Simple&#45;Utility/bind_back.hpp Pages: 1 -->
<svg width="497pt" height="93pt"
 viewBox="0.00 0.00 497.00 93.00" xmlns="http://www.w3.org/2000/svg" xmlns:xlink="http://www.w3.org/1999/xlink">
<g id="graph0" class="graph" transform="scale(1 1) rotate(0) translate(4 89)">
<title>Simple&#45;Utility/bind_back.hpp</title>
<!-- Node1 -->
<g id="node1" class="node">
<title>Node1</title>
<g id="a_node1"><a xlink:title=" ">
<polygon fill="#999999" stroke="#666666" points="342.5,-85 240.5,-85 240.5,-55 342.5,-55 342.5,-85"/>
<text text-anchor="start" x="248.5" y="-73" font-family="Helvetica,sans-Serif" font-size="10.00">Simple&#45;Utility/bind</text>
<text text-anchor="middle" x="291.5" y="-62" font-family="Helvetica,sans-Serif" font-size="10.00">_back.hpp</text>
</a>
</g>
</g>
<!-- Node2 -->
<g id="node2" class="node">
<title>Node2</title>
<g id="a_node2"><a xlink:href="../../d8/dd2/_config_8hpp.html" target="_top" xlink:title=" ">
<polygon fill="white" stroke="#666666" points="133,-19 0,-19 0,0 133,0 133,-19"/>
<text text-anchor="middle" x="66.5" y="-7" font-family="Helvetica,sans-Serif" font-size="10.00">Simple&#45;Utility/Config.hpp</text>
</a>
</g>
</g>
<!-- Node1&#45;&gt;Node2 -->
<g id="edge1" class="edge">
<title>Node1&#45;&gt;Node2</title>
<path fill="none" stroke="#63b8ff" d="M240.16,-55.65C201.49,-45.6 148.97,-31.94 111.84,-22.29"/>
<polygon fill="#63b8ff" stroke="#63b8ff" points="112.87,-18.94 102.31,-19.81 111.11,-25.71 112.87,-18.94"/>
</g>
<!-- Node3 -->
<g id="node3" class="node">
<title>Node3</title>
<g id="a_node3"><a xlink:title=" ">
<polygon fill="#e0e0e0" stroke="#999999" points="208,-19 151,-19 151,0 208,0 208,-19"/>
<text text-anchor="middle" x="179.5" y="-7" font-family="Helvetica,sans-Serif" font-size="10.00">concepts</text>
</a>
</g>
</g>
<!-- Node1&#45;&gt;Node3 -->
<g id="edge2" class="edge">
<title>Node1&#45;&gt;Node3</title>
<path fill="none" stroke="#63b8ff" d="M263.81,-54.54C246.33,-45.4 223.84,-33.66 206.49,-24.6"/>
<polygon fill="#63b8ff" stroke="#63b8ff" points="208.26,-21.57 197.78,-20.05 205.02,-27.78 208.26,-21.57"/>
</g>
<!-- Node4 -->
<g id="node4" class="node">
<title>Node4</title>
<g id="a_node4"><a xlink:title=" ">
<polygon fill="#e0e0e0" stroke="#999999" points="288.5,-19 226.5,-19 226.5,0 288.5,0 288.5,-19"/>
<text text-anchor="middle" x="257.5" y="-7" font-family="Helvetica,sans-Serif" font-size="10.00">functional</text>
</a>
</g>
</g>
<!-- Node1&#45;&gt;Node4 -->
<g id="edge3" class="edge">
<title>Node1&#45;&gt;Node4</title>
<path fill="none" stroke="#63b8ff" d="M283.1,-54.54C278.61,-46.82 273.04,-37.24 268.25,-28.99"/>
<polygon fill="#63b8ff" stroke="#63b8ff" points="271.35,-27.37 263.3,-20.48 265.3,-30.89 271.35,-27.37"/>
</g>
<!-- Node5 -->
<g id="node5" class="node">
<title>Node5</title>
<g id="a_node5"><a xlink:title=" ">
<polygon fill="#e0e0e0" stroke="#999999" points="346.5,-19 306.5,-19 306.5,0 346.5,0 346.5,-19"/>
<text text-anchor="middle" x="326.5" y="-7" font-family="Helvetica,sans-Serif" font-size="10.00">tuple</text>
</a>
</g>
</g>
<!-- Node1&#45;&gt;Node5 -->
<g id="edge4" class="edge">
<title>Node1&#45;&gt;Node5</title>
<path fill="none" stroke="#63b8ff" d="M300.15,-54.54C304.77,-46.82 310.5,-37.24 315.44,-28.99"/>
<polygon fill="#63b8ff" stroke="#63b8ff" points="318.4,-30.85 320.53,-20.47 312.39,-27.26 318.4,-30.85"/>
</g>
<!-- Node6 -->
<g id="node6" class="node">
<title>Node6</title>
<g id="a_node6"><a xlink:title=" ">
<polygon fill="#e0e0e0" stroke="#999999" points="430,-19 365,-19 365,0 430,0 430,-19"/>
<text text-anchor="middle" x="397.5" y="-7" font-family="Helvetica,sans-Serif" font-size="10.00">type_traits</text>
</a>
</g>
</g>
<!-- Node1&#45;&gt;Node6 -->
<g id="edge5" class="edge">
<title>Node1&#45;&gt;Node6</title>
<path fill="none" stroke="#63b8ff" d="M317.7,-54.54C334.1,-45.49 355.14,-33.88 371.49,-24.85"/>
<polygon fill="#63b8ff" stroke="#63b8ff" points="373.08,-27.97 380.15,-20.08 369.7,-21.85 373.08,-27.97"/>
</g>
<!-- Node7 -->
<g id="node7" class="node">
<title>Node7</title>
<g id="a_node7"><a xlink:title=" ">
<polygon fill="#e0e0e0" stroke="#999999" points="489,-19 448,-19 448,0 489,0 489,-19"/>
<text text-anchor="middle" x="468.5" y="-7" font-family="Helvetica,sans-Serif" font-size="10.00">utility</text>
</a>
</g>
</g>
<!-- Node1&#45;&gt;Node7 -->
<g id="edge6" class="edge">
<title>Node1&#45;&gt;Node7</title>
<path fill="none" stroke="#63b8ff" d="M335.25,-54.54C366.74,-44.13 408.49,-30.33 436.81,-20.97"/>
<polygon fill="#63b8ff" stroke="#63b8ff" points="437.85,-24.32 446.25,-17.85 435.65,-17.67 437.85,-24.32"/>
</g>
</g>
</svg>
