<?xml version="1.0" encoding="UTF-8" standalone="no"?>
<!DOCTYPE svg PUBLIC "-//W3C//DTD SVG 1.1//EN"
 "http://www.w3.org/Graphics/SVG/1.1/DTD/svg11.dtd">
<!-- Generated by graphviz version 8.0.5 (20230430.1635)
 -->
<!-- Title: Simple&#45;Utility/functional/bind_back.hpp Pages: 1 -->
<svg width="493pt" height="98pt"
 viewBox="0.00 0.00 492.50 98.25" xmlns="http://www.w3.org/2000/svg" xmlns:xlink="http://www.w3.org/1999/xlink">
<g id="graph0" class="graph" transform="scale(1 1) rotate(0) translate(4 94.25)">
<title>Simple&#45;Utility/functional/bind_back.hpp</title>
<!-- Node1 -->
<g id="node1" class="node">
<title>Node1</title>
<g id="a_node1"><a xlink:title=" ">
<polygon fill="#999999" stroke="#666666" points="352.62,-90.25 225.62,-90.25 225.62,-56.75 352.62,-56.75 352.62,-90.25"/>
<text text-anchor="start" x="233.62" y="-76.75" font-family="Helvetica,sans-Serif" font-size="10.00">Simple&#45;Utility/functional</text>
<text text-anchor="middle" x="289.12" y="-64" font-family="Helvetica,sans-Serif" font-size="10.00">/bind_back.hpp</text>
</a>
</g>
</g>
<!-- Node2 -->
<g id="node2" class="node">
<title>Node2</title>
<g id="a_node2"><a xlink:href="../../d8/dd2/_config_8hpp.html" target="_top" xlink:title=" ">
<polygon fill="white" stroke="#666666" points="132.25,-20.75 0,-20.75 0,0 132.25,0 132.25,-20.75"/>
<text text-anchor="middle" x="66.12" y="-7.25" font-family="Helvetica,sans-Serif" font-size="10.00">Simple&#45;Utility/Config.hpp</text>
</a>
</g>
</g>
<!-- Node1&#45;&gt;Node2 -->
<g id="edge1" class="edge">
<title>Node1&#45;&gt;Node2</title>
<path fill="none" stroke="#63b8ff" d="M229.95,-56.28C193.16,-46.2 146.53,-33.42 112.44,-24.07"/>
<polygon fill="#63b8ff" stroke="#63b8ff" points="113.41,-20.43 102.84,-21.17 111.56,-27.18 113.41,-20.43"/>
</g>
<!-- Node3 -->
<g id="node3" class="node">
<title>Node3</title>
<g id="a_node3"><a xlink:title=" ">
<polygon fill="#e0e0e0" stroke="#999999" points="206.38,-20.75 149.88,-20.75 149.88,0 206.38,0 206.38,-20.75"/>
<text text-anchor="middle" x="178.12" y="-7.25" font-family="Helvetica,sans-Serif" font-size="10.00">concepts</text>
</a>
</g>
</g>
<!-- Node1&#45;&gt;Node3 -->
<g id="edge2" class="edge">
<title>Node1&#45;&gt;Node3</title>
<path fill="none" stroke="#63b8ff" d="M259.67,-56.28C242.86,-47.02 221.93,-35.5 205.49,-26.44"/>
<polygon fill="#63b8ff" stroke="#63b8ff" points="207.35,-22.92 196.9,-21.17 203.97,-29.05 207.35,-22.92"/>
</g>
<!-- Node4 -->
<g id="node4" class="node">
<title>Node4</title>
<g id="a_node4"><a xlink:title=" ">
<polygon fill="#e0e0e0" stroke="#999999" points="286,-20.75 224.25,-20.75 224.25,0 286,0 286,-20.75"/>
<text text-anchor="middle" x="255.12" y="-7.25" font-family="Helvetica,sans-Serif" font-size="10.00">functional</text>
</a>
</g>
</g>
<!-- Node1&#45;&gt;Node4 -->
<g id="edge3" class="edge">
<title>Node1&#45;&gt;Node4</title>
<path fill="none" stroke="#63b8ff" d="M280.19,-56.44C275.82,-48.58 270.52,-39.06 265.93,-30.79"/>
<polygon fill="#63b8ff" stroke="#63b8ff" points="268.52,-29.25 260.6,-22.22 262.4,-32.66 268.52,-29.25"/>
</g>
<!-- Node5 -->
<g id="node5" class="node">
<title>Node5</title>
<g id="a_node5"><a xlink:title=" ">
<polygon fill="#e0e0e0" stroke="#999999" points="343.75,-20.75 304.5,-20.75 304.5,0 343.75,0 343.75,-20.75"/>
<text text-anchor="middle" x="324.12" y="-7.25" font-family="Helvetica,sans-Serif" font-size="10.00">tuple</text>
</a>
</g>
</g>
<!-- Node1&#45;&gt;Node5 -->
<g id="edge4" class="edge">
<title>Node1&#45;&gt;Node5</title>
<path fill="none" stroke="#63b8ff" d="M298.32,-56.44C302.87,-48.49 308.4,-38.84 313.16,-30.52"/>
<polygon fill="#63b8ff" stroke="#63b8ff" points="316.56,-32.63 318.49,-22.22 310.48,-29.16 316.56,-32.63"/>
</g>
<!-- Node6 -->
<g id="node6" class="node">
<title>Node6</title>
<g id="a_node6"><a xlink:title=" ">
<polygon fill="#e0e0e0" stroke="#999999" points="426.12,-20.75 362.12,-20.75 362.12,0 426.12,0 426.12,-20.75"/>
<text text-anchor="middle" x="394.12" y="-7.25" font-family="Helvetica,sans-Serif" font-size="10.00">type_traits</text>
</a>
</g>
</g>
<!-- Node1&#45;&gt;Node6 -->
<g id="edge5" class="edge">
<title>Node1&#45;&gt;Node6</title>
<path fill="none" stroke="#63b8ff" d="M316.99,-56.28C332.89,-47.02 352.68,-35.5 368.24,-26.44"/>
<polygon fill="#63b8ff" stroke="#63b8ff" points="369.43,-29.22 376.31,-21.17 365.9,-23.17 369.43,-29.22"/>
</g>
<!-- Node7 -->
<g id="node7" class="node">
<title>Node7</title>
<g id="a_node7"><a xlink:title=" ">
<polygon fill="#e0e0e0" stroke="#999999" points="484.5,-20.75 443.75,-20.75 443.75,0 484.5,0 484.5,-20.75"/>
<text text-anchor="middle" x="464.12" y="-7.25" font-family="Helvetica,sans-Serif" font-size="10.00">utility</text>
</a>
</g>
</g>
<!-- Node1&#45;&gt;Node7 -->
<g id="edge6" class="edge">
<title>Node1&#45;&gt;Node7</title>
<path fill="none" stroke="#63b8ff" d="M335.56,-56.28C366.49,-45.48 406.27,-31.58 433.34,-22.13"/>
<polygon fill="#63b8ff" stroke="#63b8ff" points="434.11,-25.22 442.39,-18.62 431.8,-18.61 434.11,-25.22"/>
</g>
</g>
</svg>
