<?xml version="1.0" encoding="UTF-8" standalone="no"?>
<!DOCTYPE svg PUBLIC "-//W3C//DTD SVG 1.1//EN"
 "http://www.w3.org/Graphics/SVG/1.1/DTD/svg11.dtd">
<!-- Generated by graphviz version 2.43.0 (0)
 -->
<!-- Title: /home/runner/work/Simple&#45;Utility/Simple&#45;Utility/include/Simple&#45;Utility/functional/operators/equal.hpp Pages: 1 -->
<svg width="721pt" height="251pt"
 viewBox="0.00 0.00 721.49 251.00" xmlns="http://www.w3.org/2000/svg" xmlns:xlink="http://www.w3.org/1999/xlink">
<g id="graph0" class="graph" transform="scale(1 1) rotate(0) translate(4 247)">
<title>/home/runner/work/Simple&#45;Utility/Simple&#45;Utility/include/Simple&#45;Utility/functional/operators/equal.hpp</title>
<polygon fill="white" stroke="transparent" points="-4,4 -4,-247 717.49,-247 717.49,4 -4,4"/>
<!-- Node1 -->
<g id="node1" class="node">
<title>Node1</title>
<g id="a_node1"><a xlink:title=" ">
<polygon fill="#bfbfbf" stroke="black" points="346.49,-190.5 346.49,-242.5 515.49,-242.5 515.49,-190.5 346.49,-190.5"/>
<text text-anchor="start" x="354.49" y="-230.5" font-family="Helvetica,sans-Serif" font-size="10.00">/home/runner/work/Simple</text>
<text text-anchor="start" x="354.49" y="-219.5" font-family="Helvetica,sans-Serif" font-size="10.00">&#45;Utility/Simple&#45;Utility</text>
<text text-anchor="start" x="354.49" y="-208.5" font-family="Helvetica,sans-Serif" font-size="10.00">/include/Simple&#45;Utility</text>
<text text-anchor="middle" x="430.99" y="-197.5" font-family="Helvetica,sans-Serif" font-size="10.00">/functional/operators/equal.hpp</text>
</a>
</g>
</g>
<!-- Node2 -->
<g id="node2" class="node">
<title>Node2</title>
<g id="a_node2"><a xlink:href="../../d5/d8e/concepts_2utility_8hpp.html" target="_top" xlink:title=" ">
<polygon fill="white" stroke="black" points="582.49,-56.5 582.49,-86.5 713.49,-86.5 713.49,-56.5 582.49,-56.5"/>
<text text-anchor="start" x="590.49" y="-74.5" font-family="Helvetica,sans-Serif" font-size="10.00">Simple&#45;Utility/concepts</text>
<text text-anchor="middle" x="647.99" y="-63.5" font-family="Helvetica,sans-Serif" font-size="10.00">/utility.hpp</text>
</a>
</g>
</g>
<!-- Node1&#45;&gt;Node2 -->
<g id="edge1" class="edge">
<title>Node1&#45;&gt;Node2</title>
<path fill="none" stroke="midnightblue" d="M469.29,-190.26C511.64,-162.35 579.01,-117.96 617.8,-92.4"/>
<polygon fill="midnightblue" stroke="midnightblue" points="620.13,-95.06 626.55,-86.63 616.27,-89.21 620.13,-95.06"/>
</g>
<!-- Node4 -->
<g id="node4" class="node">
<title>Node4</title>
<g id="a_node4"><a xlink:href="../../d1/d76/functional_2base_8hpp.html" target="_top" xlink:title=" ">
<polygon fill="white" stroke="black" points="314.99,-123.5 314.99,-153.5 450.99,-153.5 450.99,-123.5 314.99,-123.5"/>
<text text-anchor="start" x="322.99" y="-141.5" font-family="Helvetica,sans-Serif" font-size="10.00">Simple&#45;Utility/functional</text>
<text text-anchor="middle" x="382.99" y="-130.5" font-family="Helvetica,sans-Serif" font-size="10.00">/base.hpp</text>
</a>
</g>
</g>
<!-- Node1&#45;&gt;Node4 -->
<g id="edge3" class="edge">
<title>Node1&#45;&gt;Node4</title>
<path fill="none" stroke="midnightblue" d="M415.01,-190.19C409.34,-181.22 403,-171.18 397.47,-162.42"/>
<polygon fill="midnightblue" stroke="midnightblue" points="400.35,-160.43 392.05,-153.85 394.44,-164.17 400.35,-160.43"/>
</g>
<!-- Node3 -->
<g id="node3" class="node">
<title>Node3</title>
<g id="a_node3"><a xlink:title=" ">
<polygon fill="white" stroke="#bfbfbf" points="476.99,-0.5 476.99,-19.5 536.99,-19.5 536.99,-0.5 476.99,-0.5"/>
<text text-anchor="middle" x="506.99" y="-7.5" font-family="Helvetica,sans-Serif" font-size="10.00">concepts</text>
</a>
</g>
</g>
<!-- Node2&#45;&gt;Node3 -->
<g id="edge2" class="edge">
<title>Node2&#45;&gt;Node3</title>
<path fill="none" stroke="midnightblue" d="M614.58,-56.4C591.03,-46.46 559.76,-33.26 537,-23.66"/>
<polygon fill="midnightblue" stroke="midnightblue" points="538.09,-20.32 527.51,-19.66 535.36,-26.77 538.09,-20.32"/>
</g>
<!-- Node4&#45;&gt;Node2 -->
<g id="edge13" class="edge">
<title>Node4&#45;&gt;Node2</title>
<path fill="none" stroke="midnightblue" d="M440.17,-123.48C481.39,-113.37 537.17,-99.68 580.56,-89.04"/>
<polygon fill="midnightblue" stroke="midnightblue" points="581.59,-92.39 590.47,-86.61 579.92,-85.59 581.59,-92.39"/>
</g>
<!-- Node4&#45;&gt;Node3 -->
<g id="edge4" class="edge">
<title>Node4&#45;&gt;Node3</title>
<path fill="none" stroke="midnightblue" d="M451.15,-132.49C482,-126.42 515.8,-113.61 534.99,-87 548.05,-68.91 534.17,-44.06 521.73,-27.77"/>
<polygon fill="midnightblue" stroke="midnightblue" points="524.18,-25.24 515.15,-19.7 518.76,-29.66 524.18,-25.24"/>
</g>
<!-- Node5 -->
<g id="node5" class="node">
<title>Node5</title>
<g id="a_node5"><a xlink:title=" ">
<polygon fill="white" stroke="#bfbfbf" points="15.49,-62 15.49,-81 80.49,-81 80.49,-62 15.49,-62"/>
<text text-anchor="middle" x="47.99" y="-69" font-family="Helvetica,sans-Serif" font-size="10.00">functional</text>
</a>
</g>
</g>
<!-- Node4&#45;&gt;Node5 -->
<g id="edge5" class="edge">
<title>Node4&#45;&gt;Node5</title>
<path fill="none" stroke="midnightblue" d="M314.84,-128.94C255.03,-120.67 165.98,-106.53 89.99,-87 86.78,-86.17 83.46,-85.22 80.17,-84.2"/>
<polygon fill="midnightblue" stroke="midnightblue" points="81.05,-80.8 70.46,-81.01 78.87,-87.45 81.05,-80.8"/>
</g>
<!-- Node6 -->
<g id="node6" class="node">
<title>Node6</title>
<g id="a_node6"><a xlink:title=" ">
<polygon fill="white" stroke="#bfbfbf" points="38.49,-0.5 38.49,-19.5 107.49,-19.5 107.49,-0.5 38.49,-0.5"/>
<text text-anchor="middle" x="72.99" y="-7.5" font-family="Helvetica,sans-Serif" font-size="10.00">type_traits</text>
</a>
</g>
</g>
<!-- Node4&#45;&gt;Node6 -->
<g id="edge6" class="edge">
<title>Node4&#45;&gt;Node6</title>
<path fill="none" stroke="midnightblue" d="M314.63,-133.16C211.5,-125.9 25.97,-109.83 5.99,-87 -3.08,-76.63 -0.49,-68.16 5.99,-56 13.54,-41.83 27.75,-31.33 41.15,-24.06"/>
<polygon fill="midnightblue" stroke="midnightblue" points="42.83,-27.13 50.21,-19.53 39.7,-20.87 42.83,-27.13"/>
</g>
<!-- Node7 -->
<g id="node7" class="node">
<title>Node7</title>
<g id="a_node7"><a xlink:href="../../d8/dd2/_config_8hpp.html" target="_top" xlink:title=" ">
<polygon fill="white" stroke="black" points="237.49,-62 237.49,-81 376.49,-81 376.49,-62 237.49,-62"/>
<text text-anchor="middle" x="306.99" y="-69" font-family="Helvetica,sans-Serif" font-size="10.00">Simple&#45;Utility/Config.hpp</text>
</a>
</g>
</g>
<!-- Node4&#45;&gt;Node7 -->
<g id="edge7" class="edge">
<title>Node4&#45;&gt;Node7</title>
<path fill="none" stroke="midnightblue" d="M366.5,-123.4C354.3,-112.96 337.69,-98.75 325.11,-88"/>
<polygon fill="midnightblue" stroke="midnightblue" points="327.03,-85.03 317.16,-81.19 322.49,-90.35 327.03,-85.03"/>
</g>
<!-- Node8 -->
<g id="node8" class="node">
<title>Node8</title>
<g id="a_node8"><a xlink:href="../../d4/d1c/unified__base_8hpp.html" target="_top" xlink:title=" ">
<polygon fill="white" stroke="black" points="98.99,-56.5 98.99,-86.5 218.99,-86.5 218.99,-56.5 98.99,-56.5"/>
<text text-anchor="start" x="106.99" y="-74.5" font-family="Helvetica,sans-Serif" font-size="10.00">Simple&#45;Utility/unified</text>
<text text-anchor="middle" x="158.99" y="-63.5" font-family="Helvetica,sans-Serif" font-size="10.00">_base.hpp</text>
</a>
</g>
</g>
<!-- Node4&#45;&gt;Node8 -->
<g id="edge8" class="edge">
<title>Node4&#45;&gt;Node8</title>
<path fill="none" stroke="midnightblue" d="M334.67,-123.48C300.34,-113.51 254.06,-100.09 217.62,-89.51"/>
<polygon fill="midnightblue" stroke="midnightblue" points="218.2,-86.04 207.62,-86.61 216.25,-92.76 218.2,-86.04"/>
</g>
<!-- Node9 -->
<g id="node9" class="node">
<title>Node9</title>
<g id="a_node9"><a xlink:href="../../dd/d5c/stl__extensions_8hpp.html" target="_top" xlink:title=" ">
<polygon fill="white" stroke="black" points="394.49,-56.5 394.49,-86.5 525.49,-86.5 525.49,-56.5 394.49,-56.5"/>
<text text-anchor="start" x="402.49" y="-74.5" font-family="Helvetica,sans-Serif" font-size="10.00">Simple&#45;Utility/concepts</text>
<text text-anchor="middle" x="459.99" y="-63.5" font-family="Helvetica,sans-Serif" font-size="10.00">/stl_extensions.hpp</text>
</a>
</g>
</g>
<!-- Node4&#45;&gt;Node9 -->
<g id="edge11" class="edge">
<title>Node4&#45;&gt;Node9</title>
<path fill="none" stroke="midnightblue" d="M399.7,-123.4C410.2,-114.54 423.91,-102.96 435.61,-93.09"/>
<polygon fill="midnightblue" stroke="midnightblue" points="437.94,-95.7 443.32,-86.58 433.42,-90.35 437.94,-95.7"/>
</g>
<!-- Node8&#45;&gt;Node3 -->
<g id="edge9" class="edge">
<title>Node8&#45;&gt;Node3</title>
<path fill="none" stroke="midnightblue" d="M219.17,-57.68C222.15,-57.1 225.11,-56.54 227.99,-56 312.74,-40.27 412.56,-24.94 466.86,-16.86"/>
<polygon fill="midnightblue" stroke="midnightblue" points="467.4,-20.32 476.77,-15.4 466.37,-13.4 467.4,-20.32"/>
</g>
<!-- Node8&#45;&gt;Node6 -->
<g id="edge10" class="edge">
<title>Node8&#45;&gt;Node6</title>
<path fill="none" stroke="midnightblue" d="M138.61,-56.4C125.09,-47.04 107.38,-34.79 93.77,-25.38"/>
<polygon fill="midnightblue" stroke="midnightblue" points="95.72,-22.47 85.51,-19.66 91.74,-28.23 95.72,-22.47"/>
</g>
<!-- Node9&#45;&gt;Node3 -->
<g id="edge12" class="edge">
<title>Node9&#45;&gt;Node3</title>
<path fill="none" stroke="midnightblue" d="M471.13,-56.4C477.96,-47.75 486.74,-36.64 493.9,-27.58"/>
<polygon fill="midnightblue" stroke="midnightblue" points="496.7,-29.67 500.16,-19.66 491.21,-25.34 496.7,-29.67"/>
</g>
</g>
</svg>
