<?xml version="1.0" encoding="UTF-8" standalone="no"?>
<!DOCTYPE svg PUBLIC "-//W3C//DTD SVG 1.1//EN"
 "http://www.w3.org/Graphics/SVG/1.1/DTD/svg11.dtd">
<!-- Generated by graphviz version 7.0.5 (20221223.1930)
 -->
<!-- Title: Simple&#45;Utility/functional/operators/equal.hpp Pages: 1 -->
<!--zoomable 225 -->
<svg id="main" version="1.1" xmlns="http://www.w3.org/2000/svg" xmlns:xlink="http://www.w3.org/1999/xlink" xml:space="preserve" onload="init(evt)">
<style type="text/css"><![CDATA[
.edge:hover path { stroke: red; }
.edge:hover polygon { stroke: red; fill: red; }
]]></style>
<script type="text/javascript"><![CDATA[
var edges = document.getElementsByTagName('g');
if (edges && edges.length) {
  for (var i=0;i<edges.length;i++) {
    if (edges[i].id.substr(0,4)=='edge') {
      edges[i].setAttribute('class','edge');
    }
  }
}
]]></script>
        <defs>
                <circle id="rim" cx="0" cy="0" r="7"/>
                <circle id="rim2" cx="0" cy="0" r="3.5"/>
                <g id="zoomPlus">
                        <use xlink:href="#rim" fill="#404040">
                                <set attributeName="fill" to="#808080" begin="zoomplus.mouseover" end="zoomplus.mouseout"/>
                        </use>
                        <path d="M-4,0h8M0,-4v8" fill="none" stroke="white" stroke-width="1.5" pointer-events="none"/>
                </g>
                <g id="zoomMin">
                        <use xlink:href="#rim" fill="#404040">
                                <set attributeName="fill" to="#808080" begin="zoomminus.mouseover" end="zoomminus.mouseout"/>
                        </use>
                        <path d="M-4,0h8" fill="none" stroke="white" stroke-width="1.5" pointer-events="none"/>
                </g>
                <g id="dirArrow">
                        <path fill="none" stroke="white" stroke-width="1.5" d="M0,-3.0v7 M-2.5,-0.5L0,-3.0L2.5,-0.5"/>
                </g>
               <g id="resetDef">
                       <use xlink:href="#rim2" fill="#404040">
                               <set attributeName="fill" to="#808080" begin="reset.mouseover" end="reset.mouseout"/>
                       </use>
               </g>
        </defs>

<script type="text/javascript">
var viewWidth = 686;
var viewHeight = 225;
var sectionId = 'dynsection-0';
</script>
<script xlink:href="../../svgpan.js"/>
<svg id="graph" class="graph">
<g id="viewport">
<title>Simple&#45;Utility/functional/operators/equal.hpp</title>
<!-- Node1 -->
<g id="node1" class="node">
<title>Node1</title>
<g id="a_node1"><a xlink:title=" ">
<polygon fill="#999999" stroke="#666666" points="475.76,-217 347.76,-217 347.76,-187 475.76,-187 475.76,-217"/>
<text text-anchor="start" x="355.76" y="-205" font-family="Helvetica,sans-Serif" font-size="10.00">Simple&#45;Utility/functional</text>
<text text-anchor="middle" x="411.76" y="-194" font-family="Helvetica,sans-Serif" font-size="10.00">/operators/equal.hpp</text>
</a>
</g>
</g>
<!-- Node2 -->
<g id="node2" class="node">
<title>Node2</title>
<g id="a_node2"><a xlink:href="../../d5/d8e/concepts_2utility_8hpp.html" target="_top" xlink:title=" ">
<polygon fill="white" stroke="#666666" points="677.76,-85 555.76,-85 555.76,-55 677.76,-55 677.76,-85"/>
<text text-anchor="start" x="563.76" y="-73" font-family="Helvetica,sans-Serif" font-size="10.00">Simple&#45;Utility/concepts</text>
<text text-anchor="middle" x="616.76" y="-62" font-family="Helvetica,sans-Serif" font-size="10.00">/utility.hpp</text>
</a>
</g>
</g>
<!-- Node1&#45;&gt;Node2 -->
<g id="edge1" class="edge">
<title>Node1&#45;&gt;Node2</title>
<path fill="none" stroke="#63b8ff" d="M434.48,-186.59C470.89,-163.51 542.43,-118.14 584.24,-91.62"/>
<polygon fill="#63b8ff" stroke="#63b8ff" points="586.09,-94.6 592.66,-86.28 582.34,-88.68 586.09,-94.6"/>
</g>
<!-- Node4 -->
<g id="node4" class="node">
<title>Node4</title>
<g id="a_node4"><a xlink:href="../../d1/d76/functional_2base_8hpp.html" target="_top" xlink:title=" ">
<polygon fill="white" stroke="#666666" points="429.76,-151 301.76,-151 301.76,-121 429.76,-121 429.76,-151"/>
<text text-anchor="start" x="309.76" y="-139" font-family="Helvetica,sans-Serif" font-size="10.00">Simple&#45;Utility/functional</text>
<text text-anchor="middle" x="365.76" y="-128" font-family="Helvetica,sans-Serif" font-size="10.00">/base.hpp</text>
</a>
</g>
</g>
<!-- Node1&#45;&gt;Node4 -->
<g id="edge3" class="edge">
<title>Node1&#45;&gt;Node4</title>
<path fill="none" stroke="#63b8ff" d="M401.55,-186.8C395.95,-179.01 388.87,-169.16 382.49,-160.28"/>
<polygon fill="#63b8ff" stroke="#63b8ff" points="385.5,-158.47 376.82,-152.39 379.82,-162.56 385.5,-158.47"/>
</g>
<!-- Node3 -->
<g id="node3" class="node">
<title>Node3</title>
<g id="a_node3"><a xlink:title=" ">
<polygon fill="#e0e0e0" stroke="#999999" points="511.26,-19 454.26,-19 454.26,0 511.26,0 511.26,-19"/>
<text text-anchor="middle" x="482.76" y="-7" font-family="Helvetica,sans-Serif" font-size="10.00">concepts</text>
</a>
</g>
</g>
<!-- Node2&#45;&gt;Node3 -->
<g id="edge2" class="edge">
<title>Node2&#45;&gt;Node3</title>
<path fill="none" stroke="#63b8ff" d="M583.64,-54.54C562.12,-45.15 534.28,-32.99 513.3,-23.83"/>
<polygon fill="#63b8ff" stroke="#63b8ff" points="514.98,-20.75 504.41,-19.95 512.18,-27.16 514.98,-20.75"/>
</g>
<!-- Node4&#45;&gt;Node2 -->
<g id="edge13" class="edge">
<title>Node4&#45;&gt;Node2</title>
<path fill="none" stroke="#63b8ff" d="M422.4,-120.56C460.07,-110.95 509.72,-98.29 549.41,-88.17"/>
<polygon fill="#63b8ff" stroke="#63b8ff" points="550.03,-91.63 558.86,-85.76 548.3,-84.84 550.03,-91.63"/>
</g>
<!-- Node4&#45;&gt;Node3 -->
<g id="edge4" class="edge">
<title>Node4&#45;&gt;Node3</title>
<path fill="none" stroke="#63b8ff" d="M429.96,-129.14C459.01,-122.91 490.8,-110.31 508.76,-85 521.1,-67.61 508.82,-43.82 497.29,-27.84"/>
<polygon fill="#63b8ff" stroke="#63b8ff" points="500.27,-25.97 491.37,-20.23 494.75,-30.27 500.27,-25.97"/>
</g>
<!-- Node5 -->
<g id="node5" class="node">
<title>Node5</title>
<g id="a_node5"><a xlink:title=" ">
<polygon fill="#e0e0e0" stroke="#999999" points="76.76,-79.5 14.76,-79.5 14.76,-60.5 76.76,-60.5 76.76,-79.5"/>
<text text-anchor="middle" x="45.76" y="-67.5" font-family="Helvetica,sans-Serif" font-size="10.00">functional</text>
</a>
</g>
</g>
<!-- Node4&#45;&gt;Node5 -->
<g id="edge5" class="edge">
<title>Node4&#45;&gt;Node5</title>
<path fill="none" stroke="#63b8ff" d="M301.46,-126.51C244.3,-118.25 158.72,-104.15 85.76,-85 83.9,-84.51 82.01,-83.98 80.1,-83.41"/>
<polygon fill="#63b8ff" stroke="#63b8ff" points="81.29,-80.12 70.7,-80.39 79.15,-86.78 81.29,-80.12"/>
</g>
<!-- Node6 -->
<g id="node6" class="node">
<title>Node6</title>
<g id="a_node6"><a xlink:title=" ">
<polygon fill="#e0e0e0" stroke="#999999" points="102.26,-19 37.26,-19 37.26,0 102.26,0 102.26,-19"/>
<text text-anchor="middle" x="69.76" y="-7" font-family="Helvetica,sans-Serif" font-size="10.00">type_traits</text>
</a>
</g>
</g>
<!-- Node4&#45;&gt;Node6 -->
<g id="edge6" class="edge">
<title>Node4&#45;&gt;Node6</title>
<path fill="none" stroke="#63b8ff" d="M301.59,-135.73C208.6,-135.27 43.36,-128.19 5.76,-85 -2.99,-74.94 -0.42,-66.82 5.76,-55 12.57,-41.98 25.12,-31.99 37.31,-24.82"/>
<polygon fill="#63b8ff" stroke="#63b8ff" points="38.84,-27.97 46,-20.16 35.53,-21.8 38.84,-27.97"/>
</g>
<!-- Node7 -->
<g id="node7" class="node">
<title>Node7</title>
<g id="a_node7"><a xlink:href="../../d8/dd2/_config_8hpp.html" target="_top" xlink:title=" ">
<polygon fill="white" stroke="#666666" points="359.26,-79.5 226.26,-79.5 226.26,-60.5 359.26,-60.5 359.26,-79.5"/>
<text text-anchor="middle" x="292.76" y="-67.5" font-family="Helvetica,sans-Serif" font-size="10.00">Simple&#45;Utility/Config.hpp</text>
</a>
</g>
</g>
<!-- Node4&#45;&gt;Node7 -->
<g id="edge7" class="edge">
<title>Node4&#45;&gt;Node7</title>
<path fill="none" stroke="#63b8ff" d="M349.56,-120.8C338.29,-110.92 323.24,-97.72 311.46,-87.39"/>
<polygon fill="#63b8ff" stroke="#63b8ff" points="313.81,-84.8 303.99,-80.84 309.2,-90.07 313.81,-84.8"/>
</g>
<!-- Node8 -->
<g id="node8" class="node">
<title>Node8</title>
<g id="a_node8"><a xlink:href="../../d4/d1c/unified__base_8hpp.html" target="_top" xlink:title=" ">
<polygon fill="white" stroke="#666666" points="208.26,-85 95.26,-85 95.26,-55 208.26,-55 208.26,-85"/>
<text text-anchor="start" x="103.26" y="-73" font-family="Helvetica,sans-Serif" font-size="10.00">Simple&#45;Utility/unified</text>
<text text-anchor="middle" x="151.76" y="-62" font-family="Helvetica,sans-Serif" font-size="10.00">_base.hpp</text>
</a>
</g>
</g>
<!-- Node4&#45;&gt;Node8 -->
<g id="edge8" class="edge">
<title>Node4&#45;&gt;Node8</title>
<path fill="none" stroke="#63b8ff" d="M317.47,-120.56C285.77,-111.08 244.1,-98.62 210.49,-88.56"/>
<polygon fill="#63b8ff" stroke="#63b8ff" points="211.91,-85.34 201.33,-85.82 209.91,-92.04 211.91,-85.34"/>
</g>
<!-- Node9 -->
<g id="node9" class="node">
<title>Node9</title>
<g id="a_node9"><a xlink:href="../../dd/d5c/stl__extensions_8hpp.html" target="_top" xlink:title=" ">
<polygon fill="white" stroke="#666666" points="499.76,-85 377.76,-85 377.76,-55 499.76,-55 499.76,-85"/>
<text text-anchor="start" x="385.76" y="-73" font-family="Helvetica,sans-Serif" font-size="10.00">Simple&#45;Utility/concepts</text>
<text text-anchor="middle" x="438.76" y="-62" font-family="Helvetica,sans-Serif" font-size="10.00">/stl_extensions.hpp</text>
</a>
</g>
</g>
<!-- Node4&#45;&gt;Node9 -->
<g id="edge11" class="edge">
<title>Node4&#45;&gt;Node9</title>
<path fill="none" stroke="#63b8ff" d="M381.96,-120.8C391.35,-112.57 403.36,-102.04 413.92,-92.78"/>
<polygon fill="#63b8ff" stroke="#63b8ff" points="416,-95.61 421.21,-86.38 411.39,-90.34 416,-95.61"/>
</g>
<!-- Node8&#45;&gt;Node3 -->
<g id="edge9" class="edge">
<title>Node8&#45;&gt;Node3</title>
<path fill="none" stroke="#63b8ff" d="M208.45,-56.63C211.26,-56.07 214.04,-55.52 216.76,-55 296.71,-39.71 390.75,-24.66 442.87,-16.58"/>
<polygon fill="#63b8ff" stroke="#63b8ff" points="443.1,-20.09 452.45,-15.1 442.04,-13.17 443.1,-20.09"/>
</g>
<!-- Node8&#45;&gt;Node6 -->
<g id="edge10" class="edge">
<title>Node8&#45;&gt;Node6</title>
<path fill="none" stroke="#63b8ff" d="M131.49,-54.54C119.22,-45.78 103.58,-34.63 91.11,-25.73"/>
<polygon fill="#63b8ff" stroke="#63b8ff" points="93.33,-23.01 83.15,-20.05 89.26,-28.71 93.33,-23.01"/>
</g>
<!-- Node9&#45;&gt;Node3 -->
<g id="edge12" class="edge">
<title>Node9&#45;&gt;Node3</title>
<path fill="none" stroke="#63b8ff" d="M449.64,-54.54C455.64,-46.56 463.13,-36.59 469.48,-28.16"/>
<polygon fill="#63b8ff" stroke="#63b8ff" points="472.11,-30.48 475.33,-20.38 466.52,-26.27 472.11,-30.48"/>
</g>
</g>
</svg>
        <g id="navigator" transform="translate(0 0)" fill="#404254">
                <rect fill="#f2f5e9" fill-opacity="0.5" stroke="#606060" stroke-width=".5" x="0" y="0" width="60" height="60"/>
                <use id="zoomplus" xlink:href="#zoomPlus" x="17" y="9" onmousedown="handleZoom(evt,'in')"/>
                <use id="zoomminus" xlink:href="#zoomMin" x="42" y="9" onmousedown="handleZoom(evt,'out')"/>
                <use id="reset" xlink:href="#resetDef" x="30" y="36" onmousedown="handleReset()"/>
                <g id="arrowUp" xlink:href="#dirArrow" transform="translate(30 24)" onmousedown="handlePan(0,-1)">
                  <use xlink:href="#rim" fill="#404040">
                        <set attributeName="fill" to="#808080" begin="arrowUp.mouseover" end="arrowUp.mouseout"/>
                  </use>
                  <path fill="none" stroke="white" stroke-width="1.5" d="M0,-3.0v7 M-2.5,-0.5L0,-3.0L2.5,-0.5"/>
                </g>
                <g id="arrowRight" xlink:href="#dirArrow" transform="rotate(90) translate(36 -43)" onmousedown="handlePan(1,0)">
                  <use xlink:href="#rim" fill="#404040">
                        <set attributeName="fill" to="#808080" begin="arrowRight.mouseover" end="arrowRight.mouseout"/>
                  </use>
                  <path fill="none" stroke="white" stroke-width="1.5" d="M0,-3.0v7 M-2.5,-0.5L0,-3.0L2.5,-0.5"/>
                </g>
                <g id="arrowDown" xlink:href="#dirArrow" transform="rotate(180) translate(-30 -48)" onmousedown="handlePan(0,1)">
                  <use xlink:href="#rim" fill="#404040">
                        <set attributeName="fill" to="#808080" begin="arrowDown.mouseover" end="arrowDown.mouseout"/>
                  </use>
                  <path fill="none" stroke="white" stroke-width="1.5" d="M0,-3.0v7 M-2.5,-0.5L0,-3.0L2.5,-0.5"/>
                </g>
                <g id="arrowLeft" xlink:href="#dirArrow" transform="rotate(270) translate(-36 17)" onmousedown="handlePan(-1,0)">
                  <use xlink:href="#rim" fill="#404040">
                        <set attributeName="fill" to="#808080" begin="arrowLeft.mouseover" end="arrowLeft.mouseout"/>
                  </use>
                  <path fill="none" stroke="white" stroke-width="1.5" d="M0,-3.0v7 M-2.5,-0.5L0,-3.0L2.5,-0.5"/>
                </g>
        </g>
        <svg viewBox="0 0 15 15" width="100%" height="30px" preserveAspectRatio="xMaxYMin meet">
         <g id="arrow_out" transform="scale(0.3 0.3)">
          <a xlink:href="equal_8hpp__incl_org.svg" target="_base">
           <rect id="button" ry="5" rx="5" y="6" x="6" height="38" width="38"
                fill="#f2f5e9" fill-opacity="0.5" stroke="#606060" stroke-width="1.0"/>
           <path id="arrow"
             d="M 11.500037,31.436501 C 11.940474,20.09759 22.043105,11.32322 32.158766,21.979434 L 37.068811,17.246167 C 37.068811,17.246167 37.088388,32 37.088388,32 L 22.160133,31.978069 C 22.160133,31.978069 26.997745,27.140456 26.997745,27.140456 C 18.528582,18.264221 13.291696,25.230495 11.500037,31.436501 z"
             style="fill:#404040;"/>
          </a>
         </g>
        </svg>
</svg>
