<?xml version="1.0" encoding="UTF-8" standalone="no"?>
<!DOCTYPE svg PUBLIC "-//W3C//DTD SVG 1.1//EN"
 "http://www.w3.org/Graphics/SVG/1.1/DTD/svg11.dtd">
<!-- Generated by graphviz version 8.0.5 (20230430.1635)
 -->
<!-- Title: sl::type_list::back&lt; Container&lt; First, Others... &gt; &gt; Pages: 1 -->
<svg width="192pt" height="207pt"
 viewBox="0.00 0.00 191.50 207.00" xmlns="http://www.w3.org/2000/svg" xmlns:xlink="http://www.w3.org/1999/xlink">
<g id="graph0" class="graph" transform="scale(1 1) rotate(0) translate(4 203)">
<title>sl::type_list::back&lt; Container&lt; First, Others... &gt; &gt;</title>
<!-- Node1 -->
<g id="node1" class="node">
<title>Node1</title>
<g id="a_node1"><a xlink:title="Specialization investigating the current element of the source type&#45;list.">
<polygon fill="#999999" stroke="#666666" points="115.75,-46.25 15.75,-46.25 15.75,0 115.75,0 115.75,-46.25"/>
<text text-anchor="start" x="23.75" y="-32.75" font-family="Helvetica,sans-Serif" font-size="10.00">sl::type_list::back</text>
<text text-anchor="start" x="23.75" y="-20" font-family="Helvetica,sans-Serif" font-size="10.00">&lt; Container&lt; First,</text>
<text text-anchor="middle" x="65.75" y="-7.25" font-family="Helvetica,sans-Serif" font-size="10.00"> Others... &gt; &gt;</text>
</a>
</g>
</g>
<!-- Node2 -->
<g id="node2" class="node">
<title>Node2</title>
<g id="a_node2"><a xlink:href="../../de/dba/structsl_1_1type__list_1_1back.html" target="_top" xlink:title=" ">
<polygon fill="white" stroke="#666666" points="131.5,-116.75 0,-116.75 0,-83.25 131.5,-83.25 131.5,-116.75"/>
<text text-anchor="start" x="8" y="-103.25" font-family="Helvetica,sans-Serif" font-size="10.00">sl::type_list::back</text>
<text text-anchor="middle" x="65.75" y="-90.5" font-family="Helvetica,sans-Serif" font-size="10.00">&lt; Container&lt; Others... &gt; &gt;</text>
</a>
</g>
</g>
<!-- Node2&#45;&gt;Node1 -->
<g id="edge1" class="edge">
<title>Node2&#45;&gt;Node1</title>
<path fill="none" stroke="#63b8ff" d="M65.75,-72.02C65.75,-63.68 65.75,-54.59 65.75,-46.59"/>
<polygon fill="#63b8ff" stroke="#63b8ff" points="62.25,-71.75 65.75,-81.75 69.25,-71.75 62.25,-71.75"/>
</g>
<!-- Node3 -->
<g id="node3" class="node">
<title>Node3</title>
<g id="a_node3"><a xlink:href="../../de/dba/structsl_1_1type__list_1_1back.html" target="_top" xlink:title="Primary template isn&#39;t defined on purpose.">
<polygon fill="white" stroke="#666666" points="111.62,-199 19.88,-199 19.88,-165.5 111.62,-165.5 111.62,-199"/>
<text text-anchor="start" x="27.88" y="-185.5" font-family="Helvetica,sans-Serif" font-size="10.00">sl::type_list::back</text>
<text text-anchor="middle" x="65.75" y="-172.75" font-family="Helvetica,sans-Serif" font-size="10.00">&lt; List &gt;</text>
</a>
</g>
</g>
<!-- Node3&#45;&gt;Node2 -->
<g id="edge2" class="edge">
<title>Node3&#45;&gt;Node2</title>
<path fill="none" stroke="orange" stroke-dasharray="5,2" d="M65.75,-154.38C65.75,-142.06 65.75,-127.87 65.75,-117.22"/>
<polygon fill="orange" stroke="orange" points="62.25,-154.01 65.75,-164.01 69.25,-154.01 62.25,-154.01"/>
<text text-anchor="middle" x="124.62" y="-138" font-family="Helvetica,sans-Serif" font-size="10.00"> &lt; Container&lt; Others... &gt; &gt;</text>
</g>
</g>
</svg>
