<?xml version="1.0" encoding="UTF-8" standalone="no"?>
<!DOCTYPE svg PUBLIC "-//W3C//DTD SVG 1.1//EN"
 "http://www.w3.org/Graphics/SVG/1.1/DTD/svg11.dtd">
<!-- Generated by graphviz version 7.0.5 (20221223.1930)
 -->
<!-- Title: sl::type_list::back&lt; Container&lt; First, Others... &gt; &gt; Pages: 1 -->
<svg width="192pt" height="193pt"
 viewBox="0.00 0.00 192.00 193.00" xmlns="http://www.w3.org/2000/svg" xmlns:xlink="http://www.w3.org/1999/xlink">
<g id="graph0" class="graph" transform="scale(1 1) rotate(0) translate(4 189)">
<title>sl::type_list::back&lt; Container&lt; First, Others... &gt; &gt;</title>
<!-- Node1 -->
<g id="node1" class="node">
<title>Node1</title>
<g id="a_node1"><a xlink:title="Specialization investigating the current element of the source type&#45;list.">
<polygon fill="#999999" stroke="#666666" points="116.5,-41 15.5,-41 15.5,0 116.5,0 116.5,-41"/>
<text text-anchor="start" x="23.5" y="-29" font-family="Helvetica,sans-Serif" font-size="10.00">sl::type_list::back</text>
<text text-anchor="start" x="23.5" y="-18" font-family="Helvetica,sans-Serif" font-size="10.00">&lt; Container&lt; First,</text>
<text text-anchor="middle" x="66" y="-7" font-family="Helvetica,sans-Serif" font-size="10.00"> Others... &gt; &gt;</text>
</a>
</g>
</g>
<!-- Node2 -->
<g id="node2" class="node">
<title>Node2</title>
<g id="a_node2"><a xlink:href="../../de/dba/structsl_1_1type__list_1_1back.html" target="_top" xlink:title=" ">
<polygon fill="white" stroke="#666666" points="132,-108 0,-108 0,-78 132,-78 132,-108"/>
<text text-anchor="start" x="8" y="-96" font-family="Helvetica,sans-Serif" font-size="10.00">sl::type_list::back</text>
<text text-anchor="middle" x="66" y="-85" font-family="Helvetica,sans-Serif" font-size="10.00">&lt; Container&lt; Others... &gt; &gt;</text>
</a>
</g>
</g>
<!-- Node2&#45;&gt;Node1 -->
<g id="edge1" class="edge">
<title>Node2&#45;&gt;Node1</title>
<path fill="none" stroke="#63b8ff" d="M66,-66.42C66,-58.16 66,-49.14 66,-41.36"/>
<polygon fill="#63b8ff" stroke="#63b8ff" points="62.5,-66.22 66,-76.22 69.5,-66.22 62.5,-66.22"/>
</g>
<!-- Node3 -->
<g id="node3" class="node">
<title>Node3</title>
<g id="a_node3"><a xlink:href="../../de/dba/structsl_1_1type__list_1_1back.html" target="_top" xlink:title="Primary template isn&#39;t defined on purpose.">
<polygon fill="white" stroke="#666666" points="112,-185 20,-185 20,-155 112,-155 112,-185"/>
<text text-anchor="start" x="28" y="-173" font-family="Helvetica,sans-Serif" font-size="10.00">sl::type_list::back</text>
<text text-anchor="middle" x="66" y="-162" font-family="Helvetica,sans-Serif" font-size="10.00">&lt; List &gt;</text>
</a>
</g>
</g>
<!-- Node3&#45;&gt;Node2 -->
<g id="edge2" class="edge">
<title>Node3&#45;&gt;Node2</title>
<path fill="none" stroke="orange" stroke-dasharray="5,2" d="M66,-143.23C66,-131.58 66,-118.26 66,-108.42"/>
<polygon fill="orange" stroke="orange" points="62.5,-143.03 66,-153.03 69.5,-143.03 62.5,-143.03"/>
<text text-anchor="middle" x="125" y="-129" font-family="Helvetica,sans-Serif" font-size="10.00"> &lt; Container&lt; Others... &gt; &gt;</text>
</g>
</g>
</svg>
