<?xml version="1.0" encoding="UTF-8" standalone="no"?>
<!DOCTYPE svg PUBLIC "-//W3C//DTD SVG 1.1//EN"
 "http://www.w3.org/Graphics/SVG/1.1/DTD/svg11.dtd">
<!-- Generated by graphviz version 8.0.5 (20230430.1635)
 -->
<!-- Title: Simple&#45;Utility/TypeList.hpp Pages: 1 -->
<svg width="342pt" height="86pt"
 viewBox="0.00 0.00 341.88 85.50" xmlns="http://www.w3.org/2000/svg" xmlns:xlink="http://www.w3.org/1999/xlink">
<g id="graph0" class="graph" transform="scale(1 1) rotate(0) translate(4 81.5)">
<title>Simple&#45;Utility/TypeList.hpp</title>
<!-- Node1 -->
<g id="node1" class="node">
<title>Node1</title>
<g id="a_node1"><a xlink:title=" ">
<polygon fill="#999999" stroke="#666666" points="243,-77.5 104,-77.5 104,-56.75 243,-56.75 243,-77.5"/>
<text text-anchor="middle" x="173.5" y="-64" font-family="Helvetica,sans-Serif" font-size="10.00">Simple&#45;Utility/TypeList.hpp</text>
</a>
</g>
</g>
<!-- Node2 -->
<g id="node2" class="node">
<title>Node2</title>
<g id="a_node2"><a xlink:title=" ">
<polygon fill="#e0e0e0" stroke="#999999" points="61,-20.75 0,-20.75 0,0 61,0 61,-20.75"/>
<text text-anchor="middle" x="30.5" y="-7.25" font-family="Helvetica,sans-Serif" font-size="10.00">algorithm</text>
</a>
</g>
</g>
<!-- Node1&#45;&gt;Node2 -->
<g id="edge1" class="edge">
<title>Node1&#45;&gt;Node2</title>
<path fill="none" stroke="#63b8ff" d="M147.93,-56.34C125.06,-47.58 91.3,-34.65 65.84,-24.91"/>
<polygon fill="#63b8ff" stroke="#63b8ff" points="67.43,-21.39 56.84,-21.08 64.93,-27.92 67.43,-21.39"/>
</g>
<!-- Node3 -->
<g id="node3" class="node">
<title>Node3</title>
<g id="a_node3"><a xlink:title=" ">
<polygon fill="#e0e0e0" stroke="#999999" points="135.75,-20.75 79.25,-20.75 79.25,0 135.75,0 135.75,-20.75"/>
<text text-anchor="middle" x="107.5" y="-7.25" font-family="Helvetica,sans-Serif" font-size="10.00">concepts</text>
</a>
</g>
</g>
<!-- Node1&#45;&gt;Node3 -->
<g id="edge2" class="edge">
<title>Node1&#45;&gt;Node3</title>
<path fill="none" stroke="#63b8ff" d="M161.7,-56.34C152.22,-48.47 138.69,-37.25 127.53,-27.99"/>
<polygon fill="#63b8ff" stroke="#63b8ff" points="130.13,-24.77 120.2,-21.08 125.66,-30.16 130.13,-24.77"/>
</g>
<!-- Node4 -->
<g id="node4" class="node">
<title>Node4</title>
<g id="a_node4"><a xlink:title=" ">
<polygon fill="#e0e0e0" stroke="#999999" points="193.12,-20.75 153.88,-20.75 153.88,0 193.12,0 193.12,-20.75"/>
<text text-anchor="middle" x="173.5" y="-7.25" font-family="Helvetica,sans-Serif" font-size="10.00">tuple</text>
</a>
</g>
</g>
<!-- Node1&#45;&gt;Node4 -->
<g id="edge3" class="edge">
<title>Node1&#45;&gt;Node4</title>
<path fill="none" stroke="#63b8ff" d="M173.5,-56.34C173.5,-49.56 173.5,-40.3 173.5,-31.94"/>
<polygon fill="#63b8ff" stroke="#63b8ff" points="177,-32.08 173.5,-22.08 170,-32.08 177,-32.08"/>
</g>
<!-- Node5 -->
<g id="node5" class="node">
<title>Node5</title>
<g id="a_node5"><a xlink:title=" ">
<polygon fill="#e0e0e0" stroke="#999999" points="275.5,-20.75 211.5,-20.75 211.5,0 275.5,0 275.5,-20.75"/>
<text text-anchor="middle" x="243.5" y="-7.25" font-family="Helvetica,sans-Serif" font-size="10.00">type_traits</text>
</a>
</g>
</g>
<!-- Node1&#45;&gt;Node5 -->
<g id="edge4" class="edge">
<title>Node1&#45;&gt;Node5</title>
<path fill="none" stroke="#63b8ff" d="M186.01,-56.34C196.17,-48.4 210.7,-37.03 222.61,-27.71"/>
<polygon fill="#63b8ff" stroke="#63b8ff" points="224.37,-30 230.09,-21.08 220.06,-24.48 224.37,-30"/>
</g>
<!-- Node6 -->
<g id="node6" class="node">
<title>Node6</title>
<g id="a_node6"><a xlink:title=" ">
<polygon fill="#e0e0e0" stroke="#999999" points="333.88,-20.75 293.12,-20.75 293.12,0 333.88,0 333.88,-20.75"/>
<text text-anchor="middle" x="313.5" y="-7.25" font-family="Helvetica,sans-Serif" font-size="10.00">utility</text>
</a>
</g>
</g>
<!-- Node1&#45;&gt;Node6 -->
<g id="edge5" class="edge">
<title>Node1&#45;&gt;Node6</title>
<path fill="none" stroke="#63b8ff" d="M198.53,-56.34C222.07,-47.13 257.36,-33.33 282.64,-23.45"/>
<polygon fill="#63b8ff" stroke="#63b8ff" points="283.75,-26.38 291.79,-19.47 281.2,-19.86 283.75,-26.38"/>
</g>
</g>
</svg>
