<?xml version="1.0" encoding="UTF-8" standalone="no"?>
<!DOCTYPE svg PUBLIC "-//W3C//DTD SVG 1.1//EN"
 "http://www.w3.org/Graphics/SVG/1.1/DTD/svg11.dtd">
<!-- Generated by graphviz version 7.0.5 (20221223.1930)
 -->
<!-- Title: Simple&#45;Utility/unified_base.hpp Pages: 1 -->
<svg width="2209pt" height="423pt"
 viewBox="0.00 0.00 2209.00 423.00" xmlns="http://www.w3.org/2000/svg" xmlns:xlink="http://www.w3.org/1999/xlink">
<g id="graph0" class="graph" transform="scale(1 1) rotate(0) translate(4 419)">
<title>Simple&#45;Utility/unified_base.hpp</title>
<!-- Node1 -->
<g id="node1" class="node">
<title>Node1</title>
<g id="a_node1"><a xlink:title=" ">
<polygon fill="#999999" stroke="#666666" points="1018,-415 905,-415 905,-385 1018,-385 1018,-415"/>
<text text-anchor="start" x="913" y="-403" font-family="Helvetica,sans-Serif" font-size="10.00">Simple&#45;Utility/unified</text>
<text text-anchor="middle" x="961.5" y="-392" font-family="Helvetica,sans-Serif" font-size="10.00">_base.hpp</text>
</a>
</g>
</g>
<!-- Node2 -->
<g id="node2" class="node">
<title>Node2</title>
<g id="a_node2"><a xlink:href="../../d1/d76/functional_2base_8hpp.html" target="_top" xlink:title=" ">
<polygon fill="white" stroke="#666666" points="658.5,-349 530.5,-349 530.5,-319 658.5,-319 658.5,-349"/>
<text text-anchor="start" x="538.5" y="-337" font-family="Helvetica,sans-Serif" font-size="10.00">Simple&#45;Utility/functional</text>
<text text-anchor="middle" x="594.5" y="-326" font-family="Helvetica,sans-Serif" font-size="10.00">/base.hpp</text>
</a>
</g>
</g>
<!-- Node1&#45;&gt;Node2 -->
<g id="edge1" class="edge">
<title>Node1&#45;&gt;Node2</title>
<path fill="none" stroke="#63b8ff" d="M893.28,-387.1C826.25,-375.41 724.72,-357.71 659,-346.25"/>
<polygon fill="#63b8ff" stroke="#63b8ff" points="892.62,-390.54 903.07,-388.81 893.82,-383.64 892.62,-390.54"/>
</g>
<!-- Node7 -->
<g id="node7" class="node">
<title>Node7</title>
<g id="a_node7"><a xlink:href="../../d6/deb/transform_8hpp.html" target="_top" xlink:title=" ">
<polygon fill="white" stroke="#666666" points="949.5,-151 821.5,-151 821.5,-121 949.5,-121 949.5,-151"/>
<text text-anchor="start" x="829.5" y="-139" font-family="Helvetica,sans-Serif" font-size="10.00">Simple&#45;Utility/functional</text>
<text text-anchor="middle" x="885.5" y="-128" font-family="Helvetica,sans-Serif" font-size="10.00">/transform.hpp</text>
</a>
</g>
</g>
<!-- Node1&#45;&gt;Node7 -->
<g id="edge60" class="edge">
<title>Node1&#45;&gt;Node7</title>
<path fill="none" stroke="#63b8ff" d="M954.11,-373.52C938.38,-319.3 902.02,-193.94 889.68,-151.41"/>
<polygon fill="#63b8ff" stroke="#63b8ff" points="950.74,-374.46 956.88,-383.09 957.46,-372.51 950.74,-374.46"/>
</g>
<!-- Node16 -->
<g id="node16" class="node">
<title>Node16</title>
<g id="a_node16"><a xlink:href="../../d6/dbe/nullables_2base_8hpp.html" target="_top" xlink:title=" ">
<polygon fill="white" stroke="#666666" points="1537,-151 1414,-151 1414,-121 1537,-121 1537,-151"/>
<text text-anchor="start" x="1422" y="-139" font-family="Helvetica,sans-Serif" font-size="10.00">Simple&#45;Utility/nullables</text>
<text text-anchor="middle" x="1475.5" y="-128" font-family="Helvetica,sans-Serif" font-size="10.00">/base.hpp</text>
</a>
</g>
</g>
<!-- Node1&#45;&gt;Node16 -->
<g id="edge61" class="edge">
<title>Node1&#45;&gt;Node16</title>
<path fill="none" stroke="#63b8ff" d="M1000.03,-379.36C1099.03,-328.9 1360.63,-195.55 1447.22,-151.41"/>
<polygon fill="#63b8ff" stroke="#63b8ff" points="998.54,-376.19 991.22,-383.85 1001.71,-382.43 998.54,-376.19"/>
</g>
<!-- Node3 -->
<g id="node3" class="node">
<title>Node3</title>
<g id="a_node3"><a xlink:href="../../d2/db4/functional_8hpp.html" target="_top" xlink:title=" ">
<polygon fill="white" stroke="#666666" points="547.5,-19 399.5,-19 399.5,0 547.5,0 547.5,-19"/>
<text text-anchor="middle" x="473.5" y="-7" font-family="Helvetica,sans-Serif" font-size="10.00">Simple&#45;Utility/functional.hpp</text>
</a>
</g>
</g>
<!-- Node2&#45;&gt;Node3 -->
<g id="edge2" class="edge">
<title>Node2&#45;&gt;Node3</title>
<path fill="none" stroke="#63b8ff" d="M518.84,-327.59C431.49,-320.4 293.87,-305.86 247.5,-283 201.83,-260.48 165.5,-253.92 165.5,-203 165.5,-203 165.5,-203 165.5,-135 165.5,-79.12 212.15,-79.24 262.5,-55 305.34,-34.37 357.6,-23.26 399.4,-17.3"/>
<polygon fill="#63b8ff" stroke="#63b8ff" points="518.54,-331.08 528.78,-328.4 519.1,-324.1 518.54,-331.08"/>
</g>
<!-- Node4 -->
<g id="node4" class="node">
<title>Node4</title>
<g id="a_node4"><a xlink:href="../../d9/d76/bind_8hpp.html" target="_top" xlink:title=" ">
<polygon fill="white" stroke="#666666" points="857.5,-217 729.5,-217 729.5,-187 857.5,-187 857.5,-217"/>
<text text-anchor="start" x="737.5" y="-205" font-family="Helvetica,sans-Serif" font-size="10.00">Simple&#45;Utility/functional</text>
<text text-anchor="middle" x="793.5" y="-194" font-family="Helvetica,sans-Serif" font-size="10.00">/operators/bind.hpp</text>
</a>
</g>
</g>
<!-- Node2&#45;&gt;Node4 -->
<g id="edge3" class="edge">
<title>Node2&#45;&gt;Node4</title>
<path fill="none" stroke="#63b8ff" d="M669.97,-325.71C702.2,-319.1 738.16,-306.6 763.5,-283 782.28,-265.51 789.38,-235.13 792.01,-217.26"/>
<polygon fill="#63b8ff" stroke="#63b8ff" points="669.41,-322.25 660.23,-327.53 670.7,-329.13 669.41,-322.25"/>
</g>
<!-- Node5 -->
<g id="node5" class="node">
<title>Node5</title>
<g id="a_node5"><a xlink:href="../../d2/d7e/predicate_8hpp.html" target="_top" xlink:title=" ">
<polygon fill="white" stroke="#666666" points="491.5,-151 363.5,-151 363.5,-121 491.5,-121 491.5,-151"/>
<text text-anchor="start" x="371.5" y="-139" font-family="Helvetica,sans-Serif" font-size="10.00">Simple&#45;Utility/functional</text>
<text text-anchor="middle" x="427.5" y="-128" font-family="Helvetica,sans-Serif" font-size="10.00">/predicate.hpp</text>
</a>
</g>
</g>
<!-- Node2&#45;&gt;Node5 -->
<g id="edge57" class="edge">
<title>Node2&#45;&gt;Node5</title>
<path fill="none" stroke="#63b8ff" d="M519.31,-324.23C492.49,-317.28 464.49,-304.93 446.5,-283 414.88,-244.47 420.41,-179.93 424.84,-151.36"/>
<polygon fill="#63b8ff" stroke="#63b8ff" points="518.29,-327.59 528.83,-326.46 519.89,-320.77 518.29,-327.59"/>
</g>
<!-- Node2&#45;&gt;Node7 -->
<g id="edge58" class="edge">
<title>Node2&#45;&gt;Node7</title>
<path fill="none" stroke="#63b8ff" d="M669.93,-321.25C706.49,-313.61 750.22,-301.53 786.5,-283 827.55,-262.03 842.13,-256.12 866.5,-217 879.26,-196.52 883.45,-168.22 884.83,-151.34"/>
<polygon fill="#63b8ff" stroke="#63b8ff" points="669.43,-317.78 660.31,-323.18 670.8,-324.64 669.43,-317.78"/>
</g>
<!-- Node2&#45;&gt;Node16 -->
<g id="edge59" class="edge">
<title>Node2&#45;&gt;Node16</title>
<path fill="none" stroke="#63b8ff" d="M670.07,-317.43C715.27,-307.92 773.79,-295.26 825.5,-283 991.64,-243.6 1030.69,-223.47 1197.5,-187 1271.4,-170.84 1357.17,-156 1413.68,-146.76"/>
<polygon fill="#63b8ff" stroke="#63b8ff" points="669.43,-313.99 660.36,-319.46 670.87,-320.84 669.43,-313.99"/>
</g>
<!-- Node21 -->
<g id="node21" class="node">
<title>Node21</title>
<g id="a_node21"><a xlink:href="../../df/d80/conjunction_8hpp.html" target="_top" xlink:title=" ">
<polygon fill="white" stroke="#666666" points="673,-217 532,-217 532,-187 673,-187 673,-217"/>
<text text-anchor="start" x="540" y="-205" font-family="Helvetica,sans-Serif" font-size="10.00">Simple&#45;Utility/functional</text>
<text text-anchor="middle" x="602.5" y="-194" font-family="Helvetica,sans-Serif" font-size="10.00">/operators/conjunction.hpp</text>
</a>
</g>
</g>
<!-- Node2&#45;&gt;Node21 -->
<g id="edge39" class="edge">
<title>Node2&#45;&gt;Node21</title>
<path fill="none" stroke="#63b8ff" d="M669.68,-326.75C698.52,-320.25 728.74,-307.54 746.5,-283 770.9,-249.29 721.05,-228.06 673.46,-216.01"/>
<polygon fill="#63b8ff" stroke="#63b8ff" points="669.33,-323.25 660.21,-328.65 670.71,-330.11 669.33,-323.25"/>
</g>
<!-- Node22 -->
<g id="node22" class="node">
<title>Node22</title>
<g id="a_node22"><a xlink:href="../../d4/d7c/disjunction_8hpp.html" target="_top" xlink:title=" ">
<polygon fill="white" stroke="#666666" points="137,-217 0,-217 0,-187 137,-187 137,-217"/>
<text text-anchor="start" x="8" y="-205" font-family="Helvetica,sans-Serif" font-size="10.00">Simple&#45;Utility/functional</text>
<text text-anchor="middle" x="68.5" y="-194" font-family="Helvetica,sans-Serif" font-size="10.00">/operators/disjunction.hpp</text>
</a>
</g>
</g>
<!-- Node2&#45;&gt;Node22 -->
<g id="edge42" class="edge">
<title>Node2&#45;&gt;Node22</title>
<path fill="none" stroke="#63b8ff" d="M519.2,-330.32C410.29,-325.48 214.91,-312.83 151.5,-283 119.81,-268.09 92.66,-236.18 78.65,-217.48"/>
<polygon fill="#63b8ff" stroke="#63b8ff" points="518.77,-333.81 528.91,-330.74 519.07,-326.82 518.77,-333.81"/>
</g>
<!-- Node23 -->
<g id="node23" class="node">
<title>Node23</title>
<g id="a_node23"><a xlink:href="../../dc/d0a/equal_8hpp.html" target="_top" xlink:title=" ">
<polygon fill="white" stroke="#666666" points="583.5,-283 455.5,-283 455.5,-253 583.5,-253 583.5,-283"/>
<text text-anchor="start" x="463.5" y="-271" font-family="Helvetica,sans-Serif" font-size="10.00">Simple&#45;Utility/functional</text>
<text text-anchor="middle" x="519.5" y="-260" font-family="Helvetica,sans-Serif" font-size="10.00">/operators/equal.hpp</text>
</a>
</g>
</g>
<!-- Node2&#45;&gt;Node23 -->
<g id="edge45" class="edge">
<title>Node2&#45;&gt;Node23</title>
<path fill="none" stroke="#63b8ff" d="M569.21,-311.42C558.39,-302.18 546.04,-291.65 536.36,-283.39"/>
<polygon fill="#63b8ff" stroke="#63b8ff" points="566.82,-313.99 576.7,-317.81 571.37,-308.66 566.82,-313.99"/>
</g>
<!-- Node24 -->
<g id="node24" class="node">
<title>Node24</title>
<g id="a_node24"><a xlink:href="../../d7/dd0/equivalent_8hpp.html" target="_top" xlink:title=" ">
<polygon fill="white" stroke="#666666" points="737,-283 602,-283 602,-253 737,-253 737,-283"/>
<text text-anchor="start" x="610" y="-271" font-family="Helvetica,sans-Serif" font-size="10.00">Simple&#45;Utility/functional</text>
<text text-anchor="middle" x="669.5" y="-260" font-family="Helvetica,sans-Serif" font-size="10.00">/operators/equivalent.hpp</text>
</a>
</g>
</g>
<!-- Node2&#45;&gt;Node24 -->
<g id="edge47" class="edge">
<title>Node2&#45;&gt;Node24</title>
<path fill="none" stroke="#63b8ff" d="M619.79,-311.42C630.61,-302.18 642.96,-291.65 652.64,-283.39"/>
<polygon fill="#63b8ff" stroke="#63b8ff" points="617.63,-308.66 612.3,-317.81 622.18,-313.99 617.63,-308.66"/>
</g>
<!-- Node25 -->
<g id="node25" class="node">
<title>Node25</title>
<g id="a_node25"><a xlink:href="../../d8/dea/negation_8hpp.html" target="_top" xlink:title=" ">
<polygon fill="white" stroke="#666666" points="323,-217 194,-217 194,-187 323,-187 323,-217"/>
<text text-anchor="start" x="202" y="-205" font-family="Helvetica,sans-Serif" font-size="10.00">Simple&#45;Utility/functional</text>
<text text-anchor="middle" x="258.5" y="-194" font-family="Helvetica,sans-Serif" font-size="10.00">/operators/negation.hpp</text>
</a>
</g>
</g>
<!-- Node2&#45;&gt;Node25 -->
<g id="edge49" class="edge">
<title>Node2&#45;&gt;Node25</title>
<path fill="none" stroke="#63b8ff" d="M518.7,-332.3C431.42,-329.74 295.77,-319.76 262.5,-283 246.45,-265.27 250.16,-235.25 254.32,-217.46"/>
<polygon fill="#63b8ff" stroke="#63b8ff" points="518.55,-335.8 528.64,-332.57 518.73,-328.8 518.55,-335.8"/>
</g>
<!-- Node26 -->
<g id="node26" class="node">
<title>Node26</title>
<g id="a_node26"><a xlink:href="../../d5/db7/pipe_8hpp.html" target="_top" xlink:title=" ">
<polygon fill="white" stroke="#666666" points="399.5,-283 271.5,-283 271.5,-253 399.5,-253 399.5,-283"/>
<text text-anchor="start" x="279.5" y="-271" font-family="Helvetica,sans-Serif" font-size="10.00">Simple&#45;Utility/functional</text>
<text text-anchor="middle" x="335.5" y="-260" font-family="Helvetica,sans-Serif" font-size="10.00">/operators/pipe.hpp</text>
</a>
</g>
</g>
<!-- Node2&#45;&gt;Node26 -->
<g id="edge52" class="edge">
<title>Node2&#45;&gt;Node26</title>
<path fill="none" stroke="#63b8ff" d="M525.04,-315.84C484.01,-305.7 432.64,-293 393.73,-283.39"/>
<polygon fill="#63b8ff" stroke="#63b8ff" points="524.04,-319.19 534.58,-318.19 525.71,-312.4 524.04,-319.19"/>
</g>
<!-- Node4&#45;&gt;Node3 -->
<g id="edge4" class="edge">
<title>Node4&#45;&gt;Node3</title>
<path fill="none" stroke="#63b8ff" d="M751.69,-181.76C706.18,-160.23 631.82,-123.31 571.5,-85 537.94,-63.69 501.41,-34.02 483.95,-19.38"/>
<polygon fill="#63b8ff" stroke="#63b8ff" points="750.15,-184.91 760.69,-186 753.13,-178.57 750.15,-184.91"/>
</g>
<!-- Node4&#45;&gt;Node5 -->
<g id="edge5" class="edge">
<title>Node4&#45;&gt;Node5</title>
<path fill="none" stroke="#63b8ff" d="M718.06,-187.81C651.35,-176.14 555.07,-159.31 491.91,-148.26"/>
<polygon fill="#63b8ff" stroke="#63b8ff" points="717.38,-191.24 727.84,-189.52 718.59,-184.35 717.38,-191.24"/>
</g>
<!-- Node4&#45;&gt;Node7 -->
<g id="edge9" class="edge">
<title>Node4&#45;&gt;Node7</title>
<path fill="none" stroke="#63b8ff" d="M823.33,-180.25C836.89,-170.82 852.59,-159.9 864.82,-151.39"/>
<polygon fill="#63b8ff" stroke="#63b8ff" points="821.37,-177.35 815.16,-185.93 825.37,-183.09 821.37,-177.35"/>
</g>
<!-- Node4&#45;&gt;Node16 -->
<g id="edge26" class="edge">
<title>Node4&#45;&gt;Node16</title>
<path fill="none" stroke="#63b8ff" d="M869.08,-193.91C1005.01,-181.15 1288.23,-154.57 1413.55,-142.81"/>
<polygon fill="#63b8ff" stroke="#63b8ff" points="869.1,-190.39 859.47,-194.81 869.76,-197.36 869.1,-190.39"/>
</g>
<!-- Node5&#45;&gt;Node3 -->
<g id="edge6" class="edge">
<title>Node5&#45;&gt;Node3</title>
<path fill="none" stroke="#63b8ff" d="M383.6,-114.78C372.04,-107.18 360.99,-97.31 354.5,-85 348.28,-73.21 346.9,-65.96 354.5,-55 367.26,-36.6 388.61,-25.8 409.73,-19.46"/>
<polygon fill="#63b8ff" stroke="#63b8ff" points="381.67,-117.7 392.04,-119.86 385.27,-111.7 381.67,-117.7"/>
</g>
<!-- Node6 -->
<g id="node6" class="node">
<title>Node6</title>
<g id="a_node6"><a xlink:href="../../dd/d3f/compare_8hpp.html" target="_top" xlink:title=" ">
<polygon fill="white" stroke="#666666" points="491.5,-85 363.5,-85 363.5,-55 491.5,-55 491.5,-85"/>
<text text-anchor="start" x="371.5" y="-73" font-family="Helvetica,sans-Serif" font-size="10.00">Simple&#45;Utility/functional</text>
<text text-anchor="middle" x="427.5" y="-62" font-family="Helvetica,sans-Serif" font-size="10.00">/compare.hpp</text>
</a>
</g>
</g>
<!-- Node5&#45;&gt;Node6 -->
<g id="edge7" class="edge">
<title>Node5&#45;&gt;Node6</title>
<path fill="none" stroke="#63b8ff" d="M427.5,-109.39C427.5,-101.13 427.5,-92.28 427.5,-85.16"/>
<polygon fill="#63b8ff" stroke="#63b8ff" points="424,-109.28 427.5,-119.28 431,-109.28 424,-109.28"/>
</g>
<!-- Node6&#45;&gt;Node3 -->
<g id="edge8" class="edge">
<title>Node6&#45;&gt;Node3</title>
<path fill="none" stroke="#63b8ff" d="M445.87,-45.64C453.2,-36.32 461.19,-26.16 466.68,-19.18"/>
<polygon fill="#63b8ff" stroke="#63b8ff" points="443.24,-43.33 439.81,-53.35 448.74,-47.65 443.24,-43.33"/>
</g>
<!-- Node7&#45;&gt;Node3 -->
<g id="edge10" class="edge">
<title>Node7&#45;&gt;Node3</title>
<path fill="none" stroke="#63b8ff" d="M809.95,-129.72C754.18,-123.79 677.38,-111.27 614.5,-85 593,-76.02 591.75,-66.53 571.5,-55 546.66,-40.85 516.5,-27.72 496.26,-19.44"/>
<polygon fill="#63b8ff" stroke="#63b8ff" points="809.35,-133.18 819.66,-130.71 810.06,-126.22 809.35,-133.18"/>
</g>
<!-- Node7&#45;&gt;Node6 -->
<g id="edge13" class="edge">
<title>Node7&#45;&gt;Node6</title>
<path fill="none" stroke="#63b8ff" d="M810.01,-124.45C721.29,-112.05 575.61,-91.7 491.97,-80.01"/>
<polygon fill="#63b8ff" stroke="#63b8ff" points="809.45,-127.91 819.84,-125.82 810.42,-120.97 809.45,-127.91"/>
</g>
<!-- Node8 -->
<g id="node8" class="node">
<title>Node8</title>
<g id="a_node8"><a xlink:href="../../d3/d23/arithmetic_8hpp.html" target="_top" xlink:title=" ">
<polygon fill="white" stroke="#666666" points="751.5,-85 623.5,-85 623.5,-55 751.5,-55 751.5,-85"/>
<text text-anchor="start" x="631.5" y="-73" font-family="Helvetica,sans-Serif" font-size="10.00">Simple&#45;Utility/functional</text>
<text text-anchor="middle" x="687.5" y="-62" font-family="Helvetica,sans-Serif" font-size="10.00">/arithmetic.hpp</text>
</a>
</g>
</g>
<!-- Node7&#45;&gt;Node8 -->
<g id="edge11" class="edge">
<title>Node7&#45;&gt;Node8</title>
<path fill="none" stroke="#63b8ff" d="M830.43,-117.2C799.44,-107.18 761.24,-94.83 732.13,-85.43"/>
<polygon fill="#63b8ff" stroke="#63b8ff" points="829.03,-120.43 839.62,-120.17 831.19,-113.77 829.03,-120.43"/>
</g>
<!-- Node9 -->
<g id="node9" class="node">
<title>Node9</title>
<g id="a_node9"><a xlink:href="../../d9/d5f/functional_2tuple_8hpp.html" target="_top" xlink:title=" ">
<polygon fill="white" stroke="#666666" points="897.5,-85 769.5,-85 769.5,-55 897.5,-55 897.5,-85"/>
<text text-anchor="start" x="777.5" y="-73" font-family="Helvetica,sans-Serif" font-size="10.00">Simple&#45;Utility/functional</text>
<text text-anchor="middle" x="833.5" y="-62" font-family="Helvetica,sans-Serif" font-size="10.00">/tuple.hpp</text>
</a>
</g>
</g>
<!-- Node7&#45;&gt;Node9 -->
<g id="edge14" class="edge">
<title>Node7&#45;&gt;Node9</title>
<path fill="none" stroke="#63b8ff" d="M866.78,-111.96C859.5,-103 851.4,-93.03 845.01,-85.16"/>
<polygon fill="#63b8ff" stroke="#63b8ff" points="863.98,-114.07 873.01,-119.62 869.42,-109.65 863.98,-114.07"/>
</g>
<!-- Node10 -->
<g id="node10" class="node">
<title>Node10</title>
<g id="a_node10"><a xlink:href="../../df/d4e/functional_2utility_8hpp.html" target="_top" xlink:title=" ">
<polygon fill="white" stroke="#666666" points="1043.5,-85 915.5,-85 915.5,-55 1043.5,-55 1043.5,-85"/>
<text text-anchor="start" x="923.5" y="-73" font-family="Helvetica,sans-Serif" font-size="10.00">Simple&#45;Utility/functional</text>
<text text-anchor="middle" x="979.5" y="-62" font-family="Helvetica,sans-Serif" font-size="10.00">/utility.hpp</text>
</a>
</g>
</g>
<!-- Node7&#45;&gt;Node10 -->
<g id="edge16" class="edge">
<title>Node7&#45;&gt;Node10</title>
<path fill="none" stroke="#63b8ff" d="M915.57,-114.52C929.52,-105.03 945.75,-93.98 958.37,-85.39"/>
<polygon fill="#63b8ff" stroke="#63b8ff" points="913.91,-111.42 907.61,-119.94 917.85,-117.21 913.91,-111.42"/>
</g>
<!-- Node11 -->
<g id="node11" class="node">
<title>Node11</title>
<g id="a_node11"><a xlink:href="../../d4/dc9/and__then_8hpp.html" target="_top" xlink:title=" ">
<polygon fill="white" stroke="#666666" points="1608,-85 1485,-85 1485,-55 1608,-55 1608,-85"/>
<text text-anchor="start" x="1493" y="-73" font-family="Helvetica,sans-Serif" font-size="10.00">Simple&#45;Utility/nullables</text>
<text text-anchor="middle" x="1546.5" y="-62" font-family="Helvetica,sans-Serif" font-size="10.00">/and_then.hpp</text>
</a>
</g>
</g>
<!-- Node7&#45;&gt;Node11 -->
<g id="edge18" class="edge">
<title>Node7&#45;&gt;Node11</title>
<path fill="none" stroke="#63b8ff" d="M960.83,-131.36C1073.45,-125.3 1292.18,-111.14 1476.5,-85 1479.2,-84.62 1481.95,-84.2 1484.73,-83.75"/>
<polygon fill="#63b8ff" stroke="#63b8ff" points="960.92,-127.85 951.12,-131.87 961.29,-134.84 960.92,-127.85"/>
</g>
<!-- Node13 -->
<g id="node13" class="node">
<title>Node13</title>
<g id="a_node13"><a xlink:href="../../d7/d5f/fwd__value_8hpp.html" target="_top" xlink:title=" ">
<polygon fill="white" stroke="#666666" points="1185,-85 1062,-85 1062,-55 1185,-55 1185,-85"/>
<text text-anchor="start" x="1070" y="-73" font-family="Helvetica,sans-Serif" font-size="10.00">Simple&#45;Utility/nullables</text>
<text text-anchor="middle" x="1123.5" y="-62" font-family="Helvetica,sans-Serif" font-size="10.00">/fwd_value.hpp</text>
</a>
</g>
</g>
<!-- Node7&#45;&gt;Node13 -->
<g id="edge20" class="edge">
<title>Node7&#45;&gt;Node13</title>
<path fill="none" stroke="#63b8ff" d="M950.05,-117.64C987.64,-107.53 1034.46,-94.94 1069.99,-85.39"/>
<polygon fill="#63b8ff" stroke="#63b8ff" points="949.42,-114.19 940.67,-120.16 951.24,-120.95 949.42,-114.19"/>
</g>
<!-- Node14 -->
<g id="node14" class="node">
<title>Node14</title>
<g id="a_node14"><a xlink:href="../../d2/d0e/or__else_8hpp.html" target="_top" xlink:title=" ">
<polygon fill="white" stroke="#666666" points="1326,-85 1203,-85 1203,-55 1326,-55 1326,-85"/>
<text text-anchor="start" x="1211" y="-73" font-family="Helvetica,sans-Serif" font-size="10.00">Simple&#45;Utility/nullables</text>
<text text-anchor="middle" x="1264.5" y="-62" font-family="Helvetica,sans-Serif" font-size="10.00">/or_else.hpp</text>
</a>
</g>
</g>
<!-- Node7&#45;&gt;Node14 -->
<g id="edge22" class="edge">
<title>Node7&#45;&gt;Node14</title>
<path fill="none" stroke="#63b8ff" d="M961.18,-123.55C1023.82,-113.89 1115.08,-99.36 1194.5,-85 1197.18,-84.51 1199.92,-84.01 1202.69,-83.49"/>
<polygon fill="#63b8ff" stroke="#63b8ff" points="960.68,-120.09 951.33,-125.07 961.74,-127.01 960.68,-120.09"/>
</g>
<!-- Node15 -->
<g id="node15" class="node">
<title>Node15</title>
<g id="a_node15"><a xlink:href="../../d0/d48/value__or_8hpp.html" target="_top" xlink:title=" ">
<polygon fill="white" stroke="#666666" points="1467,-85 1344,-85 1344,-55 1467,-55 1467,-85"/>
<text text-anchor="start" x="1352" y="-73" font-family="Helvetica,sans-Serif" font-size="10.00">Simple&#45;Utility/nullables</text>
<text text-anchor="middle" x="1405.5" y="-62" font-family="Helvetica,sans-Serif" font-size="10.00">/value_or.hpp</text>
</a>
</g>
</g>
<!-- Node7&#45;&gt;Node15 -->
<g id="edge24" class="edge">
<title>Node7&#45;&gt;Node15</title>
<path fill="none" stroke="#63b8ff" d="M961.23,-128.61C1050.88,-120.57 1204.53,-105.33 1335.5,-85 1338.19,-84.58 1340.94,-84.13 1343.72,-83.66"/>
<polygon fill="#63b8ff" stroke="#63b8ff" points="960.98,-125.12 951.33,-129.49 961.6,-132.09 960.98,-125.12"/>
</g>
<!-- Node8&#45;&gt;Node3 -->
<g id="edge12" class="edge">
<title>Node8&#45;&gt;Node3</title>
<path fill="none" stroke="#63b8ff" d="M623.95,-51.63C585.23,-41.04 537.37,-27.96 506.17,-19.43"/>
<polygon fill="#63b8ff" stroke="#63b8ff" points="622.57,-54.88 633.14,-54.14 624.42,-48.13 622.57,-54.88"/>
</g>
<!-- Node9&#45;&gt;Node3 -->
<g id="edge15" class="edge">
<title>Node9&#45;&gt;Node3</title>
<path fill="none" stroke="#63b8ff" d="M757.71,-54.55C675.46,-40.43 591.39,-27.69 535.75,-19.5"/>
<polygon fill="#63b8ff" stroke="#63b8ff" points="757.09,-58 767.54,-56.25 758.29,-51.1 757.09,-58"/>
</g>
<!-- Node10&#45;&gt;Node3 -->
<g id="edge17" class="edge">
<title>Node10&#45;&gt;Node3</title>
<path fill="none" stroke="#63b8ff" d="M904.05,-54.72C773.09,-35.84 631.74,-22.99 547.68,-16.15"/>
<polygon fill="#63b8ff" stroke="#63b8ff" points="903.17,-58.13 913.57,-56.11 904.18,-51.2 903.17,-58.13"/>
</g>
<!-- Node12 -->
<g id="node12" class="node">
<title>Node12</title>
<g id="a_node12"><a xlink:href="../../d3/ddc/nullables_8hpp.html" target="_top" xlink:title=" ">
<polygon fill="white" stroke="#666666" points="1663,-19 1520,-19 1520,0 1663,0 1663,-19"/>
<text text-anchor="middle" x="1591.5" y="-7" font-family="Helvetica,sans-Serif" font-size="10.00">Simple&#45;Utility/nullables.hpp</text>
</a>
</g>
</g>
<!-- Node11&#45;&gt;Node12 -->
<g id="edge19" class="edge">
<title>Node11&#45;&gt;Node12</title>
<path fill="none" stroke="#63b8ff" d="M1564.47,-45.64C1571.64,-36.32 1579.45,-26.16 1584.83,-19.18"/>
<polygon fill="#63b8ff" stroke="#63b8ff" points="1561.87,-43.28 1558.55,-53.34 1567.42,-47.55 1561.87,-43.28"/>
</g>
<!-- Node13&#45;&gt;Node12 -->
<g id="edge21" class="edge">
<title>Node13&#45;&gt;Node12</title>
<path fill="none" stroke="#63b8ff" d="M1196.53,-54.77C1315.55,-36.73 1442.24,-23.88 1519.54,-16.75"/>
<polygon fill="#63b8ff" stroke="#63b8ff" points="1196.25,-51.28 1186.9,-56.25 1197.31,-58.19 1196.25,-51.28"/>
</g>
<!-- Node14&#45;&gt;Node12 -->
<g id="edge23" class="edge">
<title>Node14&#45;&gt;Node12</title>
<path fill="none" stroke="#63b8ff" d="M1337.55,-54.65C1412.87,-40.75 1488.59,-27.78 1537.99,-19.44"/>
<polygon fill="#63b8ff" stroke="#63b8ff" points="1337.12,-51.16 1327.93,-56.43 1338.4,-58.05 1337.12,-51.16"/>
</g>
<!-- Node15&#45;&gt;Node12 -->
<g id="edge25" class="edge">
<title>Node15&#45;&gt;Node12</title>
<path fill="none" stroke="#63b8ff" d="M1462.04,-51.22C1495.45,-40.71 1536.33,-27.85 1563.1,-19.43"/>
<polygon fill="#63b8ff" stroke="#63b8ff" points="1461.41,-47.75 1452.92,-54.09 1463.51,-54.42 1461.41,-47.75"/>
</g>
<!-- Node16&#45;&gt;Node11 -->
<g id="edge30" class="edge">
<title>Node16&#45;&gt;Node11</title>
<path fill="none" stroke="#63b8ff" d="M1499.81,-113.09C1510.06,-103.85 1521.69,-93.36 1530.79,-85.16"/>
<polygon fill="#63b8ff" stroke="#63b8ff" points="1497.47,-110.49 1492.38,-119.78 1502.15,-115.69 1497.47,-110.49"/>
</g>
<!-- Node16&#45;&gt;Node12 -->
<g id="edge27" class="edge">
<title>Node16&#45;&gt;Node12</title>
<path fill="none" stroke="#63b8ff" d="M1548.55,-126.8C1574.68,-119.94 1601.58,-107.49 1617.5,-85 1632.38,-63.98 1611.38,-33.66 1599.18,-19.03"/>
<polygon fill="#63b8ff" stroke="#63b8ff" points="1547.84,-123.37 1538.91,-129.06 1549.45,-130.18 1547.84,-123.37"/>
</g>
<!-- Node16&#45;&gt;Node13 -->
<g id="edge31" class="edge">
<title>Node16&#45;&gt;Node13</title>
<path fill="none" stroke="#63b8ff" d="M1402.75,-122.44C1345.98,-112.54 1265.16,-98.25 1194.5,-85 1191.54,-84.44 1188.5,-83.87 1185.44,-83.28"/>
<polygon fill="#63b8ff" stroke="#63b8ff" points="1401.83,-125.83 1412.28,-124.1 1403.03,-118.93 1401.83,-125.83"/>
</g>
<!-- Node16&#45;&gt;Node14 -->
<g id="edge32" class="edge">
<title>Node16&#45;&gt;Node14</title>
<path fill="none" stroke="#63b8ff" d="M1416.98,-117.25C1383.88,-107.21 1343.03,-94.82 1311.94,-85.39"/>
<polygon fill="#63b8ff" stroke="#63b8ff" points="1415.85,-120.56 1426.44,-120.12 1417.88,-113.87 1415.85,-120.56"/>
</g>
<!-- Node16&#45;&gt;Node15 -->
<g id="edge37" class="edge">
<title>Node16&#45;&gt;Node15</title>
<path fill="none" stroke="#63b8ff" d="M1451.53,-113.09C1441.43,-103.85 1429.96,-93.36 1420.99,-85.16"/>
<polygon fill="#63b8ff" stroke="#63b8ff" points="1449.11,-115.61 1458.85,-119.78 1453.83,-110.44 1449.11,-115.61"/>
</g>
<!-- Node17 -->
<g id="node17" class="node">
<title>Node17</title>
<g id="a_node17"><a xlink:href="../../d6/dca/adapter_8hpp.html" target="_top" xlink:title=" ">
<polygon fill="white" stroke="#666666" points="1788,-85 1665,-85 1665,-55 1788,-55 1788,-85"/>
<text text-anchor="start" x="1673" y="-73" font-family="Helvetica,sans-Serif" font-size="10.00">Simple&#45;Utility/nullables</text>
<text text-anchor="middle" x="1726.5" y="-62" font-family="Helvetica,sans-Serif" font-size="10.00">/adapter.hpp</text>
</a>
</g>
</g>
<!-- Node16&#45;&gt;Node17 -->
<g id="edge28" class="edge">
<title>Node16&#45;&gt;Node17</title>
<path fill="none" stroke="#63b8ff" d="M1543.07,-117.77C1582.79,-107.64 1632.44,-94.98 1670.06,-85.39"/>
<polygon fill="#63b8ff" stroke="#63b8ff" points="1542.43,-114.32 1533.61,-120.18 1544.16,-121.1 1542.43,-114.32"/>
</g>
<!-- Node18 -->
<g id="node18" class="node">
<title>Node18</title>
<g id="a_node18"><a xlink:href="../../d9/d20/std__optional_8hpp.html" target="_top" xlink:title=" ">
<polygon fill="white" stroke="#666666" points="1929,-85 1806,-85 1806,-55 1929,-55 1929,-85"/>
<text text-anchor="start" x="1814" y="-73" font-family="Helvetica,sans-Serif" font-size="10.00">Simple&#45;Utility/nullables</text>
<text text-anchor="middle" x="1867.5" y="-62" font-family="Helvetica,sans-Serif" font-size="10.00">/std_optional.hpp</text>
</a>
</g>
</g>
<!-- Node16&#45;&gt;Node18 -->
<g id="edge33" class="edge">
<title>Node16&#45;&gt;Node18</title>
<path fill="none" stroke="#63b8ff" d="M1548.36,-124.61C1613.72,-115.06 1712.2,-100.15 1797.5,-85 1800.18,-84.52 1802.92,-84.03 1805.69,-83.51"/>
<polygon fill="#63b8ff" stroke="#63b8ff" points="1548.25,-121.09 1538.86,-125.99 1549.26,-128.01 1548.25,-121.09"/>
</g>
<!-- Node19 -->
<g id="node19" class="node">
<title>Node19</title>
<g id="a_node19"><a xlink:href="../../d8/d9a/std__pointers_8hpp.html" target="_top" xlink:title=" ">
<polygon fill="white" stroke="#666666" points="2201,-85 2078,-85 2078,-55 2201,-55 2201,-85"/>
<text text-anchor="start" x="2086" y="-73" font-family="Helvetica,sans-Serif" font-size="10.00">Simple&#45;Utility/nullables</text>
<text text-anchor="middle" x="2139.5" y="-62" font-family="Helvetica,sans-Serif" font-size="10.00">/std_pointers.hpp</text>
</a>
</g>
</g>
<!-- Node16&#45;&gt;Node19 -->
<g id="edge35" class="edge">
<title>Node16&#45;&gt;Node19</title>
<path fill="none" stroke="#63b8ff" d="M1548.38,-131.46C1660.54,-125.41 1882.04,-111.16 2068.5,-85 2071.49,-84.58 2074.54,-84.12 2077.61,-83.62"/>
<polygon fill="#63b8ff" stroke="#63b8ff" points="1548.53,-127.94 1538.73,-131.97 1548.9,-134.93 1548.53,-127.94"/>
</g>
<!-- Node20 -->
<g id="node20" class="node">
<title>Node20</title>
<g id="a_node20"><a xlink:href="../../d0/d0f/unique__handle_8hpp.html" target="_top" xlink:title=" ">
<polygon fill="white" stroke="#666666" points="2059.5,-85 1947.5,-85 1947.5,-55 2059.5,-55 2059.5,-85"/>
<text text-anchor="start" x="1955.5" y="-73" font-family="Helvetica,sans-Serif" font-size="10.00">Simple&#45;Utility/unique</text>
<text text-anchor="middle" x="2003.5" y="-62" font-family="Helvetica,sans-Serif" font-size="10.00">_handle.hpp</text>
</a>
</g>
</g>
<!-- Node16&#45;&gt;Node20 -->
<g id="edge38" class="edge">
<title>Node16&#45;&gt;Node20</title>
<path fill="none" stroke="#63b8ff" d="M1548.54,-129.49C1640.04,-122.04 1801.49,-107.09 1938.5,-85 1941.35,-84.54 1944.26,-84.04 1947.2,-83.5"/>
<polygon fill="#63b8ff" stroke="#63b8ff" points="1548.38,-125.99 1538.7,-130.28 1548.94,-132.97 1548.38,-125.99"/>
</g>
<!-- Node17&#45;&gt;Node12 -->
<g id="edge29" class="edge">
<title>Node17&#45;&gt;Node12</title>
<path fill="none" stroke="#63b8ff" d="M1682.57,-49.96C1658.8,-39.67 1630.58,-27.43 1611.91,-19.35"/>
<polygon fill="#63b8ff" stroke="#63b8ff" points="1681.17,-53.17 1691.74,-53.94 1683.96,-46.75 1681.17,-53.17"/>
</g>
<!-- Node18&#45;&gt;Node12 -->
<g id="edge34" class="edge">
<title>Node18&#45;&gt;Node12</title>
<path fill="none" stroke="#63b8ff" d="M1794.56,-53.54C1743.35,-42.69 1676.66,-28.55 1633.95,-19.5"/>
<polygon fill="#63b8ff" stroke="#63b8ff" points="1793.57,-56.91 1804.08,-55.56 1795.02,-50.06 1793.57,-56.91"/>
</g>
<!-- Node19&#45;&gt;Node12 -->
<g id="edge36" class="edge">
<title>Node19&#45;&gt;Node12</title>
<path fill="none" stroke="#63b8ff" d="M2066.44,-54.81C1917.29,-33.65 1754.59,-21.04 1663.29,-14.91"/>
<polygon fill="#63b8ff" stroke="#63b8ff" points="2065.71,-58.24 2076.11,-56.2 2066.71,-51.31 2065.71,-58.24"/>
</g>
<!-- Node21&#45;&gt;Node3 -->
<g id="edge40" class="edge">
<title>Node21&#45;&gt;Node3</title>
<path fill="none" stroke="#63b8ff" d="M572.09,-179.58C562.07,-171.46 551.47,-161.6 543.5,-151 515.41,-113.63 522.22,-96.4 500.5,-55 493.78,-42.2 484.91,-28.02 479.21,-19.18"/>
<polygon fill="#63b8ff" stroke="#63b8ff" points="569.78,-182.23 579.83,-185.59 574.07,-176.69 569.78,-182.23"/>
</g>
<!-- Node21&#45;&gt;Node5 -->
<g id="edge41" class="edge">
<title>Node21&#45;&gt;Node5</title>
<path fill="none" stroke="#63b8ff" d="M552.75,-182.8C525.55,-172.86 492.33,-160.71 466.94,-151.43"/>
<polygon fill="#63b8ff" stroke="#63b8ff" points="551.21,-185.97 561.81,-186.12 553.62,-179.4 551.21,-185.97"/>
</g>
<!-- Node22&#45;&gt;Node3 -->
<g id="edge43" class="edge">
<title>Node22&#45;&gt;Node3</title>
<path fill="none" stroke="#63b8ff" d="M75.11,-176.21C85.42,-142.74 108.75,-83.97 151.5,-55 190.68,-28.45 316.78,-17.58 399.06,-13.25"/>
<polygon fill="#63b8ff" stroke="#63b8ff" points="71.85,-174.87 72.42,-185.45 78.57,-176.83 71.85,-174.87"/>
</g>
<!-- Node22&#45;&gt;Node5 -->
<g id="edge44" class="edge">
<title>Node22&#45;&gt;Node5</title>
<path fill="none" stroke="#63b8ff" d="M148.26,-186.78C212.96,-175.25 303,-159.2 363.16,-148.47"/>
<polygon fill="#63b8ff" stroke="#63b8ff" points="148.01,-183.27 138.78,-188.47 149.24,-190.16 148.01,-183.27"/>
</g>
<!-- Node23&#45;&gt;Node5 -->
<g id="edge46" class="edge">
<title>Node23&#45;&gt;Node5</title>
<path fill="none" stroke="#63b8ff" d="M502.89,-243.52C483.93,-216.74 453.52,-173.77 437.74,-151.47"/>
<polygon fill="#63b8ff" stroke="#63b8ff" points="499.79,-245.21 508.43,-251.36 505.51,-241.17 499.79,-245.21"/>
</g>
<!-- Node24&#45;&gt;Node5 -->
<g id="edge48" class="edge">
<title>Node24&#45;&gt;Node5</title>
<path fill="none" stroke="#63b8ff" d="M599.78,-249.25C574.53,-241.31 546.37,-230.61 522.5,-217 504.7,-206.85 503.15,-200.22 487.5,-187 473.21,-174.92 456.89,-161.34 444.88,-151.38"/>
<polygon fill="#63b8ff" stroke="#63b8ff" points="598.75,-252.6 609.33,-252.16 600.79,-245.9 598.75,-252.6"/>
</g>
<!-- Node25&#45;&gt;Node3 -->
<g id="edge50" class="edge">
<title>Node25&#45;&gt;Node3</title>
<path fill="none" stroke="#63b8ff" d="M255.1,-175.57C252.3,-143.19 252.87,-87.54 283.5,-55 299.44,-38.07 352.9,-26.5 399.07,-19.41"/>
<polygon fill="#63b8ff" stroke="#63b8ff" points="251.59,-175.67 256.12,-185.24 258.55,-174.93 251.59,-175.67"/>
</g>
<!-- Node25&#45;&gt;Node5 -->
<g id="edge51" class="edge">
<title>Node25&#45;&gt;Node5</title>
<path fill="none" stroke="#63b8ff" d="M306.9,-182.67C333.1,-172.75 365,-160.67 389.41,-151.43"/>
<polygon fill="#63b8ff" stroke="#63b8ff" points="305.95,-179.29 297.84,-186.1 308.43,-185.83 305.95,-179.29"/>
</g>
<!-- Node26&#45;&gt;Node3 -->
<g id="edge53" class="edge">
<title>Node26&#45;&gt;Node3</title>
<path fill="none" stroke="#63b8ff" d="M335.12,-241.26C334.57,-188.03 334.6,-69.59 345.5,-55 359.23,-36.62 381.07,-25.79 402.85,-19.42"/>
<polygon fill="#63b8ff" stroke="#63b8ff" points="331.62,-241.24 335.24,-251.2 338.62,-241.16 331.62,-241.24"/>
</g>
<!-- Node26&#45;&gt;Node5 -->
<g id="edge55" class="edge">
<title>Node26&#45;&gt;Node5</title>
<path fill="none" stroke="#63b8ff" d="M352.11,-243.52C371.07,-216.74 401.48,-173.77 417.26,-151.47"/>
<polygon fill="#63b8ff" stroke="#63b8ff" points="349.49,-241.17 346.57,-251.36 355.21,-245.21 349.49,-241.17"/>
</g>
<!-- Node26&#45;&gt;Node7 -->
<g id="edge56" class="edge">
<title>Node26&#45;&gt;Node7</title>
<path fill="none" stroke="#63b8ff" d="M411.12,-257.12C509.43,-244.12 670.14,-222.31 682.5,-217 702.27,-208.51 701.43,-196.96 720.5,-187 751.94,-170.58 789.63,-158.65 821.04,-150.57"/>
<polygon fill="#63b8ff" stroke="#63b8ff" points="410.7,-253.64 401.25,-258.42 411.62,-260.58 410.7,-253.64"/>
</g>
<!-- Node26&#45;&gt;Node25 -->
<g id="edge54" class="edge">
<title>Node26&#45;&gt;Node25</title>
<path fill="none" stroke="#63b8ff" d="M309.87,-245.7C298.68,-236.4 285.85,-225.73 275.81,-217.39"/>
<polygon fill="#63b8ff" stroke="#63b8ff" points="307.32,-248.13 317.25,-251.83 311.79,-242.75 307.32,-248.13"/>
</g>
</g>
</svg>
