<?xml version="1.0" encoding="UTF-8" standalone="no"?>
<!DOCTYPE svg PUBLIC "-//W3C//DTD SVG 1.1//EN"
 "http://www.w3.org/Graphics/SVG/1.1/DTD/svg11.dtd">
<!-- Generated by graphviz version 8.0.5 (20230430.1635)
 -->
<!-- Title: Simple&#45;Utility/unified_base.hpp Pages: 1 -->
<svg width="2199pt" height="446pt"
 viewBox="0.00 0.00 2198.62 445.75" xmlns="http://www.w3.org/2000/svg" xmlns:xlink="http://www.w3.org/1999/xlink">
<g id="graph0" class="graph" transform="scale(1 1) rotate(0) translate(4 441.75)">
<title>Simple&#45;Utility/unified_base.hpp</title>
<!-- Node1 -->
<g id="node1" class="node">
<title>Node1</title>
<g id="a_node1"><a xlink:title=" ">
<polygon fill="#999999" stroke="#666666" points="1012.38,-437.75 900.38,-437.75 900.38,-404.25 1012.38,-404.25 1012.38,-437.75"/>
<text text-anchor="start" x="908.38" y="-424.25" font-family="Helvetica,sans-Serif" font-size="10.00">Simple&#45;Utility/unified</text>
<text text-anchor="middle" x="956.38" y="-411.5" font-family="Helvetica,sans-Serif" font-size="10.00">_base.hpp</text>
</a>
</g>
</g>
<!-- Node2 -->
<g id="node2" class="node">
<title>Node2</title>
<g id="a_node2"><a xlink:href="../../d1/d76/functional_2base_8hpp.html" target="_top" xlink:title=" ">
<polygon fill="white" stroke="#666666" points="654.88,-368.25 527.88,-368.25 527.88,-334.75 654.88,-334.75 654.88,-368.25"/>
<text text-anchor="start" x="535.88" y="-354.75" font-family="Helvetica,sans-Serif" font-size="10.00">Simple&#45;Utility/functional</text>
<text text-anchor="middle" x="591.38" y="-342" font-family="Helvetica,sans-Serif" font-size="10.00">/base.hpp</text>
</a>
</g>
</g>
<!-- Node1&#45;&gt;Node2 -->
<g id="edge1" class="edge">
<title>Node1&#45;&gt;Node2</title>
<path fill="none" stroke="#63b8ff" d="M889.34,-407.6C822.62,-395.27 720.98,-376.47 655.35,-364.33"/>
<polygon fill="#63b8ff" stroke="#63b8ff" points="888.67,-411.22 899.14,-409.6 889.95,-404.34 888.67,-411.22"/>
</g>
<!-- Node7 -->
<g id="node7" class="node">
<title>Node7</title>
<g id="a_node7"><a xlink:href="../../d6/deb/transform_8hpp.html" target="_top" xlink:title=" ">
<polygon fill="white" stroke="#666666" points="943.88,-159.75 816.88,-159.75 816.88,-126.25 943.88,-126.25 943.88,-159.75"/>
<text text-anchor="start" x="824.88" y="-146.25" font-family="Helvetica,sans-Serif" font-size="10.00">Simple&#45;Utility/functional</text>
<text text-anchor="middle" x="880.38" y="-133.5" font-family="Helvetica,sans-Serif" font-size="10.00">/transform.hpp</text>
</a>
</g>
</g>
<!-- Node1&#45;&gt;Node7 -->
<g id="edge60" class="edge">
<title>Node1&#45;&gt;Node7</title>
<path fill="none" stroke="#63b8ff" d="M949.04,-393.37C933.45,-336.74 897.38,-205.77 884.8,-160.08"/>
<polygon fill="#63b8ff" stroke="#63b8ff" points="945.93,-394.26 951.96,-402.97 952.68,-392.4 945.93,-394.26"/>
</g>
<!-- Node16 -->
<g id="node16" class="node">
<title>Node16</title>
<g id="a_node16"><a xlink:href="../../d6/dbe/nullables_2base_8hpp.html" target="_top" xlink:title=" ">
<polygon fill="white" stroke="#666666" points="1530.62,-159.75 1408.12,-159.75 1408.12,-126.25 1530.62,-126.25 1530.62,-159.75"/>
<text text-anchor="start" x="1416.12" y="-146.25" font-family="Helvetica,sans-Serif" font-size="10.00">Simple&#45;Utility/nullables</text>
<text text-anchor="middle" x="1469.38" y="-133.5" font-family="Helvetica,sans-Serif" font-size="10.00">/base.hpp</text>
</a>
</g>
</g>
<!-- Node1&#45;&gt;Node16 -->
<g id="edge61" class="edge">
<title>Node1&#45;&gt;Node16</title>
<path fill="none" stroke="#63b8ff" d="M996.19,-398.58C1095.29,-345.26 1351.35,-207.5 1439.24,-160.21"/>
<polygon fill="#63b8ff" stroke="#63b8ff" points="994.7,-395.95 987.55,-403.77 998.01,-402.11 994.7,-395.95"/>
</g>
<!-- Node3 -->
<g id="node3" class="node">
<title>Node3</title>
<g id="a_node3"><a xlink:href="../../d2/db4/functional_8hpp.html" target="_top" xlink:title=" ">
<polygon fill="white" stroke="#666666" points="544,-20.75 396.75,-20.75 396.75,0 544,0 544,-20.75"/>
<text text-anchor="middle" x="470.38" y="-7.25" font-family="Helvetica,sans-Serif" font-size="10.00">Simple&#45;Utility/functional.hpp</text>
</a>
</g>
</g>
<!-- Node2&#45;&gt;Node3 -->
<g id="edge2" class="edge">
<title>Node2&#45;&gt;Node3</title>
<path fill="none" stroke="#63b8ff" d="M516.81,-345.13C429.34,-337.84 290.42,-322.88 244.38,-298.75 198.35,-274.64 164.38,-265.46 164.38,-213.5 164.38,-213.5 164.38,-213.5 164.38,-142 164.38,-41.49 305.74,-17.27 396.3,-12.06"/>
<polygon fill="#63b8ff" stroke="#63b8ff" points="516.49,-348.69 526.74,-346.02 517.06,-341.72 516.49,-348.69"/>
</g>
<!-- Node4 -->
<g id="node4" class="node">
<title>Node4</title>
<g id="a_node4"><a xlink:href="../../d9/d76/bind_8hpp.html" target="_top" xlink:title=" ">
<polygon fill="white" stroke="#666666" points="851.88,-229.25 724.88,-229.25 724.88,-195.75 851.88,-195.75 851.88,-229.25"/>
<text text-anchor="start" x="732.88" y="-215.75" font-family="Helvetica,sans-Serif" font-size="10.00">Simple&#45;Utility/functional</text>
<text text-anchor="middle" x="788.38" y="-203" font-family="Helvetica,sans-Serif" font-size="10.00">/operators/bind.hpp</text>
</a>
</g>
</g>
<!-- Node2&#45;&gt;Node4 -->
<g id="edge3" class="edge">
<title>Node2&#45;&gt;Node4</title>
<path fill="none" stroke="#63b8ff" d="M665.81,-342.49C697.82,-335.56 733.52,-322.68 758.38,-298.75 777.59,-280.25 784.51,-248.73 787,-229.63"/>
<polygon fill="#63b8ff" stroke="#63b8ff" points="665.23,-339.23 656.11,-344.61 666.6,-346.1 665.23,-339.23"/>
</g>
<!-- Node5 -->
<g id="node5" class="node">
<title>Node5</title>
<g id="a_node5"><a xlink:href="../../d2/d7e/predicate_8hpp.html" target="_top" xlink:title=" ">
<polygon fill="white" stroke="#666666" points="487.88,-159.75 360.88,-159.75 360.88,-126.25 487.88,-126.25 487.88,-159.75"/>
<text text-anchor="start" x="368.88" y="-146.25" font-family="Helvetica,sans-Serif" font-size="10.00">Simple&#45;Utility/functional</text>
<text text-anchor="middle" x="424.38" y="-133.5" font-family="Helvetica,sans-Serif" font-size="10.00">/predicate.hpp</text>
</a>
</g>
</g>
<!-- Node2&#45;&gt;Node5 -->
<g id="edge57" class="edge">
<title>Node2&#45;&gt;Node5</title>
<path fill="none" stroke="#63b8ff" d="M516.74,-341.06C489.69,-333.83 461.39,-321.11 443.38,-298.75 410.6,-258.07 416.44,-190.77 421.31,-160.11"/>
<polygon fill="#63b8ff" stroke="#63b8ff" points="515.88,-344.69 526.42,-343.65 517.53,-337.89 515.88,-344.69"/>
</g>
<!-- Node2&#45;&gt;Node7 -->
<g id="edge58" class="edge">
<title>Node2&#45;&gt;Node7</title>
<path fill="none" stroke="#63b8ff" d="M665.78,-338.57C702.39,-330.69 746.29,-318.14 782.38,-298.75 823.57,-276.62 837.56,-269.5 861.38,-229.25 874.19,-207.59 878.38,-178.17 879.73,-160.17"/>
<polygon fill="#63b8ff" stroke="#63b8ff" points="665.24,-335.31 656.16,-340.77 666.66,-342.17 665.24,-335.31"/>
</g>
<!-- Node2&#45;&gt;Node16 -->
<g id="edge59" class="edge">
<title>Node2&#45;&gt;Node16</title>
<path fill="none" stroke="#63b8ff" d="M665.62,-334.77C710.78,-324.96 769.56,-311.76 821.38,-298.75 987.35,-257.07 1025.67,-234.39 1192.38,-195.75 1265.89,-178.71 1351.38,-163.42 1407.72,-153.95"/>
<polygon fill="#63b8ff" stroke="#63b8ff" points="665.06,-331.53 656.03,-337.06 666.55,-338.37 665.06,-331.53"/>
</g>
<!-- Node21 -->
<g id="node21" class="node">
<title>Node21</title>
<g id="a_node21"><a xlink:href="../../df/d80/conjunction_8hpp.html" target="_top" xlink:title=" ">
<polygon fill="white" stroke="#666666" points="668.62,-229.25 528.12,-229.25 528.12,-195.75 668.62,-195.75 668.62,-229.25"/>
<text text-anchor="start" x="536.12" y="-215.75" font-family="Helvetica,sans-Serif" font-size="10.00">Simple&#45;Utility/functional</text>
<text text-anchor="middle" x="598.38" y="-203" font-family="Helvetica,sans-Serif" font-size="10.00">/operators/conjunction.hpp</text>
</a>
</g>
</g>
<!-- Node2&#45;&gt;Node21 -->
<g id="edge39" class="edge">
<title>Node2&#45;&gt;Node21</title>
<path fill="none" stroke="#63b8ff" d="M665.63,-343.11C694.11,-336.24 723.93,-323.22 741.38,-298.75 765.79,-264.51 716.25,-241.65 668.95,-228.3"/>
<polygon fill="#63b8ff" stroke="#63b8ff" points="665.25,-339.83 656.23,-345.38 666.74,-346.67 665.25,-339.83"/>
</g>
<!-- Node22 -->
<g id="node22" class="node">
<title>Node22</title>
<g id="a_node22"><a xlink:href="../../d4/d7c/disjunction_8hpp.html" target="_top" xlink:title=" ">
<polygon fill="white" stroke="#666666" points="136.75,-229.25 0,-229.25 0,-195.75 136.75,-195.75 136.75,-229.25"/>
<text text-anchor="start" x="8" y="-215.75" font-family="Helvetica,sans-Serif" font-size="10.00">Simple&#45;Utility/functional</text>
<text text-anchor="middle" x="68.38" y="-203" font-family="Helvetica,sans-Serif" font-size="10.00">/operators/disjunction.hpp</text>
</a>
</g>
</g>
<!-- Node2&#45;&gt;Node22 -->
<g id="edge42" class="edge">
<title>Node2&#45;&gt;Node22</title>
<path fill="none" stroke="#63b8ff" d="M516.58,-347.79C408.03,-342.84 212.96,-329.82 150.38,-298.75 118.55,-282.95 92.29,-249.57 78.61,-229.59"/>
<polygon fill="#63b8ff" stroke="#63b8ff" points="516.31,-351.32 526.45,-348.27 516.62,-344.33 516.31,-351.32"/>
</g>
<!-- Node23 -->
<g id="node23" class="node">
<title>Node23</title>
<g id="a_node23"><a xlink:href="../../dc/d0a/equal_8hpp.html" target="_top" xlink:title=" ">
<polygon fill="white" stroke="#666666" points="579.88,-298.75 452.88,-298.75 452.88,-265.25 579.88,-265.25 579.88,-298.75"/>
<text text-anchor="start" x="460.88" y="-285.25" font-family="Helvetica,sans-Serif" font-size="10.00">Simple&#45;Utility/functional</text>
<text text-anchor="middle" x="516.38" y="-272.5" font-family="Helvetica,sans-Serif" font-size="10.00">/operators/equal.hpp</text>
</a>
</g>
</g>
<!-- Node2&#45;&gt;Node23 -->
<g id="edge45" class="edge">
<title>Node2&#45;&gt;Node23</title>
<path fill="none" stroke="#63b8ff" d="M565.67,-327.36C555.33,-318.06 543.67,-307.56 534.28,-299.12"/>
<polygon fill="#63b8ff" stroke="#63b8ff" points="562.83,-329.42 572.6,-333.5 567.51,-324.21 562.83,-329.42"/>
</g>
<!-- Node24 -->
<g id="node24" class="node">
<title>Node24</title>
<g id="a_node24"><a xlink:href="../../d7/dd0/equivalent_8hpp.html" target="_top" xlink:title=" ">
<polygon fill="white" stroke="#666666" points="732.62,-298.75 598.12,-298.75 598.12,-265.25 732.62,-265.25 732.62,-298.75"/>
<text text-anchor="start" x="606.12" y="-285.25" font-family="Helvetica,sans-Serif" font-size="10.00">Simple&#45;Utility/functional</text>
<text text-anchor="middle" x="665.38" y="-272.5" font-family="Helvetica,sans-Serif" font-size="10.00">/operators/equivalent.hpp</text>
</a>
</g>
</g>
<!-- Node2&#45;&gt;Node24 -->
<g id="edge47" class="edge">
<title>Node2&#45;&gt;Node24</title>
<path fill="none" stroke="#63b8ff" d="M616.74,-327.36C626.94,-318.06 638.45,-307.56 647.71,-299.12"/>
<polygon fill="#63b8ff" stroke="#63b8ff" points="614.94,-324.18 609.91,-333.5 619.66,-329.35 614.94,-324.18"/>
</g>
<!-- Node25 -->
<g id="node25" class="node">
<title>Node25</title>
<g id="a_node25"><a xlink:href="../../d8/dea/negation_8hpp.html" target="_top" xlink:title=" ">
<polygon fill="white" stroke="#666666" points="320.62,-229.25 192.12,-229.25 192.12,-195.75 320.62,-195.75 320.62,-229.25"/>
<text text-anchor="start" x="200.12" y="-215.75" font-family="Helvetica,sans-Serif" font-size="10.00">Simple&#45;Utility/functional</text>
<text text-anchor="middle" x="256.38" y="-203" font-family="Helvetica,sans-Serif" font-size="10.00">/operators/negation.hpp</text>
</a>
</g>
</g>
<!-- Node2&#45;&gt;Node25 -->
<g id="edge49" class="edge">
<title>Node2&#45;&gt;Node25</title>
<path fill="none" stroke="#63b8ff" d="M516.73,-349.51C429.39,-346.61 292.46,-336.05 259.38,-298.75 242.67,-279.92 246.83,-248.5 251.51,-229.52"/>
<polygon fill="#63b8ff" stroke="#63b8ff" points="516.55,-353.04 526.65,-349.84 516.76,-346.04 516.55,-353.04"/>
</g>
<!-- Node26 -->
<g id="node26" class="node">
<title>Node26</title>
<g id="a_node26"><a xlink:href="../../d5/db7/pipe_8hpp.html" target="_top" xlink:title=" ">
<polygon fill="white" stroke="#666666" points="395.88,-298.75 268.88,-298.75 268.88,-265.25 395.88,-265.25 395.88,-298.75"/>
<text text-anchor="start" x="276.88" y="-285.25" font-family="Helvetica,sans-Serif" font-size="10.00">Simple&#45;Utility/functional</text>
<text text-anchor="middle" x="332.38" y="-272.5" font-family="Helvetica,sans-Serif" font-size="10.00">/operators/pipe.hpp</text>
</a>
</g>
</g>
<!-- Node2&#45;&gt;Node26 -->
<g id="edge52" class="edge">
<title>Node2&#45;&gt;Node26</title>
<path fill="none" stroke="#63b8ff" d="M518.8,-331.58C479.62,-321.37 431.77,-308.9 394.35,-299.15"/>
<polygon fill="#63b8ff" stroke="#63b8ff" points="517.78,-335.2 528.34,-334.33 519.54,-328.42 517.78,-335.2"/>
</g>
<!-- Node4&#45;&gt;Node3 -->
<g id="edge4" class="edge">
<title>Node4&#45;&gt;Node3</title>
<path fill="none" stroke="#63b8ff" d="M745.1,-190.47C699.77,-167.81 627.14,-129.65 568.38,-90.25 534.82,-67.75 498.58,-36.58 481.06,-21.02"/>
<polygon fill="#63b8ff" stroke="#63b8ff" points="743.39,-194.03 753.9,-195.34 746.5,-187.76 743.39,-194.03"/>
</g>
<!-- Node4&#45;&gt;Node5 -->
<g id="edge5" class="edge">
<title>Node4&#45;&gt;Node5</title>
<path fill="none" stroke="#63b8ff" d="M713.74,-197.66C647.27,-185.33 551.06,-167.49 488.12,-155.82"/>
<polygon fill="#63b8ff" stroke="#63b8ff" points="713.08,-201.28 723.55,-199.67 714.36,-194.4 713.08,-201.28"/>
</g>
<!-- Node4&#45;&gt;Node7 -->
<g id="edge9" class="edge">
<title>Node4&#45;&gt;Node7</title>
<path fill="none" stroke="#63b8ff" d="M818.78,-189.19C831.73,-179.69 846.55,-168.81 858.41,-160.12"/>
<polygon fill="#63b8ff" stroke="#63b8ff" points="817.17,-186.77 811.18,-195.5 821.31,-192.41 817.17,-186.77"/>
</g>
<!-- Node4&#45;&gt;Node16 -->
<g id="edge26" class="edge">
<title>Node4&#45;&gt;Node16</title>
<path fill="none" stroke="#63b8ff" d="M862.81,-204.12C998.26,-190.7 1282.59,-162.51 1407.87,-150.1"/>
<polygon fill="#63b8ff" stroke="#63b8ff" points="862.74,-200.71 853.14,-205.18 863.43,-207.68 862.74,-200.71"/>
</g>
<!-- Node5&#45;&gt;Node3 -->
<g id="edge6" class="edge">
<title>Node5&#45;&gt;Node3</title>
<path fill="none" stroke="#63b8ff" d="M379.58,-120.18C368.33,-112.39 357.68,-102.45 351.38,-90.25 344.54,-77.02 342.93,-69.01 351.38,-56.75 363.86,-38.63 384.61,-27.74 405.32,-21.2"/>
<polygon fill="#63b8ff" stroke="#63b8ff" points="377.34,-123.54 387.65,-125.97 381.1,-117.64 377.34,-123.54"/>
</g>
<!-- Node6 -->
<g id="node6" class="node">
<title>Node6</title>
<g id="a_node6"><a xlink:href="../../dd/d3f/compare_8hpp.html" target="_top" xlink:title=" ">
<polygon fill="white" stroke="#666666" points="487.88,-90.25 360.88,-90.25 360.88,-56.75 487.88,-56.75 487.88,-90.25"/>
<text text-anchor="start" x="368.88" y="-76.75" font-family="Helvetica,sans-Serif" font-size="10.00">Simple&#45;Utility/functional</text>
<text text-anchor="middle" x="424.38" y="-64" font-family="Helvetica,sans-Serif" font-size="10.00">/compare.hpp</text>
</a>
</g>
</g>
<!-- Node5&#45;&gt;Node6 -->
<g id="edge7" class="edge">
<title>Node5&#45;&gt;Node6</title>
<path fill="none" stroke="#63b8ff" d="M424.38,-115.14C424.38,-106.75 424.38,-97.76 424.38,-90.38"/>
<polygon fill="#63b8ff" stroke="#63b8ff" points="420.88,-115 424.38,-125 427.88,-115 420.88,-115"/>
</g>
<!-- Node6&#45;&gt;Node3 -->
<g id="edge8" class="edge">
<title>Node6&#45;&gt;Node3</title>
<path fill="none" stroke="#63b8ff" d="M442.93,-47.85C449.95,-38.51 457.55,-28.42 462.97,-21.22"/>
<polygon fill="#63b8ff" stroke="#63b8ff" points="439.68,-45.35 436.46,-55.44 445.27,-49.55 439.68,-45.35"/>
</g>
<!-- Node7&#45;&gt;Node3 -->
<g id="edge10" class="edge">
<title>Node7&#45;&gt;Node3</title>
<path fill="none" stroke="#63b8ff" d="M805.57,-137.07C749.95,-131.2 673.29,-118.34 611.38,-90.25 589.31,-80.24 589.06,-69.37 568.38,-56.75 544.85,-42.4 516.03,-29.57 495.75,-21.24"/>
<polygon fill="#63b8ff" stroke="#63b8ff" points="805.11,-140.64 815.41,-138.16 805.8,-133.68 805.11,-140.64"/>
</g>
<!-- Node7&#45;&gt;Node6 -->
<g id="edge13" class="edge">
<title>Node7&#45;&gt;Node6</title>
<path fill="none" stroke="#63b8ff" d="M805.74,-130.95C717.33,-117.87 571.58,-96.29 488.19,-83.95"/>
<polygon fill="#63b8ff" stroke="#63b8ff" points="805.09,-134.54 815.49,-132.54 806.11,-127.62 805.09,-134.54"/>
</g>
<!-- Node8 -->
<g id="node8" class="node">
<title>Node8</title>
<g id="a_node8"><a xlink:href="../../d3/d23/arithmetic_8hpp.html" target="_top" xlink:title=" ">
<polygon fill="white" stroke="#666666" points="747.88,-90.25 620.88,-90.25 620.88,-56.75 747.88,-56.75 747.88,-90.25"/>
<text text-anchor="start" x="628.88" y="-76.75" font-family="Helvetica,sans-Serif" font-size="10.00">Simple&#45;Utility/functional</text>
<text text-anchor="middle" x="684.38" y="-64" font-family="Helvetica,sans-Serif" font-size="10.00">/arithmetic.hpp</text>
</a>
</g>
</g>
<!-- Node7&#45;&gt;Node8 -->
<g id="edge11" class="edge">
<title>Node7&#45;&gt;Node8</title>
<path fill="none" stroke="#63b8ff" d="M823.35,-122.36C794.11,-112.29 758.93,-100.17 731.28,-90.65"/>
<polygon fill="#63b8ff" stroke="#63b8ff" points="821.83,-125.89 832.43,-125.83 824.11,-119.27 821.83,-125.89"/>
</g>
<!-- Node9 -->
<g id="node9" class="node">
<title>Node9</title>
<g id="a_node9"><a xlink:href="../../d9/d5f/functional_2tuple_8hpp.html" target="_top" xlink:title=" ">
<polygon fill="white" stroke="#666666" points="892.88,-90.25 765.88,-90.25 765.88,-56.75 892.88,-56.75 892.88,-90.25"/>
<text text-anchor="start" x="773.88" y="-76.75" font-family="Helvetica,sans-Serif" font-size="10.00">Simple&#45;Utility/functional</text>
<text text-anchor="middle" x="829.38" y="-64" font-family="Helvetica,sans-Serif" font-size="10.00">/tuple.hpp</text>
</a>
</g>
</g>
<!-- Node7&#45;&gt;Node9 -->
<g id="edge14" class="edge">
<title>Node7&#45;&gt;Node9</title>
<path fill="none" stroke="#63b8ff" d="M861.79,-117.41C854.98,-108.39 847.46,-98.43 841.37,-90.38"/>
<polygon fill="#63b8ff" stroke="#63b8ff" points="859.47,-119.13 868.29,-125 865.05,-114.91 859.47,-119.13"/>
</g>
<!-- Node10 -->
<g id="node10" class="node">
<title>Node10</title>
<g id="a_node10"><a xlink:href="../../df/d4e/functional_2utility_8hpp.html" target="_top" xlink:title=" ">
<polygon fill="white" stroke="#666666" points="1037.88,-90.25 910.88,-90.25 910.88,-56.75 1037.88,-56.75 1037.88,-90.25"/>
<text text-anchor="start" x="918.88" y="-76.75" font-family="Helvetica,sans-Serif" font-size="10.00">Simple&#45;Utility/functional</text>
<text text-anchor="middle" x="974.38" y="-64" font-family="Helvetica,sans-Serif" font-size="10.00">/utility.hpp</text>
</a>
</g>
</g>
<!-- Node7&#45;&gt;Node10 -->
<g id="edge16" class="edge">
<title>Node7&#45;&gt;Node10</title>
<path fill="none" stroke="#63b8ff" d="M911.45,-119.69C924.68,-110.19 939.82,-99.31 951.93,-90.62"/>
<polygon fill="#63b8ff" stroke="#63b8ff" points="909.73,-117.33 903.65,-126 913.82,-123.01 909.73,-117.33"/>
</g>
<!-- Node11 -->
<g id="node11" class="node">
<title>Node11</title>
<g id="a_node11"><a xlink:href="../../d4/dc9/and__then_8hpp.html" target="_top" xlink:title=" ">
<polygon fill="white" stroke="#666666" points="1601.62,-90.25 1479.12,-90.25 1479.12,-56.75 1601.62,-56.75 1601.62,-90.25"/>
<text text-anchor="start" x="1487.12" y="-76.75" font-family="Helvetica,sans-Serif" font-size="10.00">Simple&#45;Utility/nullables</text>
<text text-anchor="middle" x="1540.38" y="-64" font-family="Helvetica,sans-Serif" font-size="10.00">/and_then.hpp</text>
</a>
</g>
</g>
<!-- Node7&#45;&gt;Node11 -->
<g id="edge18" class="edge">
<title>Node7&#45;&gt;Node11</title>
<path fill="none" stroke="#63b8ff" d="M955.18,-138.56C1067.41,-132.7 1285.77,-118.56 1469.38,-90.25 1472.49,-89.77 1475.68,-89.23 1478.89,-88.65"/>
<polygon fill="#63b8ff" stroke="#63b8ff" points="955.14,-135.11 945.33,-139.12 955.5,-142.1 955.14,-135.11"/>
</g>
<!-- Node13 -->
<g id="node13" class="node">
<title>Node13</title>
<g id="a_node13"><a xlink:href="../../d7/d5f/fwd__value_8hpp.html" target="_top" xlink:title=" ">
<polygon fill="white" stroke="#666666" points="1178.62,-90.25 1056.12,-90.25 1056.12,-56.75 1178.62,-56.75 1178.62,-90.25"/>
<text text-anchor="start" x="1064.12" y="-76.75" font-family="Helvetica,sans-Serif" font-size="10.00">Simple&#45;Utility/nullables</text>
<text text-anchor="middle" x="1117.38" y="-64" font-family="Helvetica,sans-Serif" font-size="10.00">/fwd_value.hpp</text>
</a>
</g>
</g>
<!-- Node7&#45;&gt;Node13 -->
<g id="edge20" class="edge">
<title>Node7&#45;&gt;Node13</title>
<path fill="none" stroke="#63b8ff" d="M947.48,-122.89C983.2,-112.72 1026.64,-100.34 1060.66,-90.65"/>
<polygon fill="#63b8ff" stroke="#63b8ff" points="946.8,-119.73 938.14,-125.83 948.72,-126.46 946.8,-119.73"/>
</g>
<!-- Node14 -->
<g id="node14" class="node">
<title>Node14</title>
<g id="a_node14"><a xlink:href="../../d2/d0e/or__else_8hpp.html" target="_top" xlink:title=" ">
<polygon fill="white" stroke="#666666" points="1319.62,-90.25 1197.12,-90.25 1197.12,-56.75 1319.62,-56.75 1319.62,-90.25"/>
<text text-anchor="start" x="1205.12" y="-76.75" font-family="Helvetica,sans-Serif" font-size="10.00">Simple&#45;Utility/nullables</text>
<text text-anchor="middle" x="1258.38" y="-64" font-family="Helvetica,sans-Serif" font-size="10.00">/or_else.hpp</text>
</a>
</g>
</g>
<!-- Node7&#45;&gt;Node14 -->
<g id="edge22" class="edge">
<title>Node7&#45;&gt;Node14</title>
<path fill="none" stroke="#63b8ff" d="M954.86,-130.54C1017.15,-120.69 1108.26,-105.68 1187.38,-90.25 1190.47,-89.65 1193.64,-89.01 1196.84,-88.35"/>
<polygon fill="#63b8ff" stroke="#63b8ff" points="954.68,-127.18 945.34,-132.2 955.77,-134.1 954.68,-127.18"/>
</g>
<!-- Node15 -->
<g id="node15" class="node">
<title>Node15</title>
<g id="a_node15"><a xlink:href="../../d0/d48/value__or_8hpp.html" target="_top" xlink:title=" ">
<polygon fill="white" stroke="#666666" points="1460.62,-90.25 1338.12,-90.25 1338.12,-56.75 1460.62,-56.75 1460.62,-90.25"/>
<text text-anchor="start" x="1346.12" y="-76.75" font-family="Helvetica,sans-Serif" font-size="10.00">Simple&#45;Utility/nullables</text>
<text text-anchor="middle" x="1399.38" y="-64" font-family="Helvetica,sans-Serif" font-size="10.00">/value_or.hpp</text>
</a>
</g>
</g>
<!-- Node7&#45;&gt;Node15 -->
<g id="edge24" class="edge">
<title>Node7&#45;&gt;Node15</title>
<path fill="none" stroke="#63b8ff" d="M954.91,-135.76C1044.09,-127.76 1197.74,-112.22 1328.38,-90.25 1331.49,-89.73 1334.67,-89.15 1337.88,-88.55"/>
<polygon fill="#63b8ff" stroke="#63b8ff" points="954.75,-132.35 945.1,-136.73 955.37,-139.33 954.75,-132.35"/>
</g>
<!-- Node8&#45;&gt;Node3 -->
<g id="edge12" class="edge">
<title>Node8&#45;&gt;Node3</title>
<path fill="none" stroke="#63b8ff" d="M617.26,-53.33C579.87,-42.65 534.9,-29.81 504.65,-21.17"/>
<polygon fill="#63b8ff" stroke="#63b8ff" points="616.01,-56.9 626.59,-56.28 617.93,-50.17 616.01,-56.9"/>
</g>
<!-- Node9&#45;&gt;Node3 -->
<g id="edge15" class="edge">
<title>Node9&#45;&gt;Node3</title>
<path fill="none" stroke="#63b8ff" d="M754.85,-56.33C676.24,-41.73 595.9,-29.39 540.16,-21.24"/>
<polygon fill="#63b8ff" stroke="#63b8ff" points="753.95,-59.91 764.42,-58.31 755.24,-53.03 753.95,-59.91"/>
</g>
<!-- Node10&#45;&gt;Node3 -->
<g id="edge17" class="edge">
<title>Node10&#45;&gt;Node3</title>
<path fill="none" stroke="#63b8ff" d="M899.91,-56.45C769.79,-35.9 628.5,-23.19 544.47,-16.65"/>
<polygon fill="#63b8ff" stroke="#63b8ff" points="899.03,-60.01 909.46,-58.13 900.13,-53.1 899.03,-60.01"/>
</g>
<!-- Node12 -->
<g id="node12" class="node">
<title>Node12</title>
<g id="a_node12"><a xlink:href="../../d3/ddc/nullables_8hpp.html" target="_top" xlink:title=" ">
<polygon fill="white" stroke="#666666" points="1655.75,-20.75 1513,-20.75 1513,0 1655.75,0 1655.75,-20.75"/>
<text text-anchor="middle" x="1584.38" y="-7.25" font-family="Helvetica,sans-Serif" font-size="10.00">Simple&#45;Utility/nullables.hpp</text>
</a>
</g>
</g>
<!-- Node11&#45;&gt;Node12 -->
<g id="edge19" class="edge">
<title>Node11&#45;&gt;Node12</title>
<path fill="none" stroke="#63b8ff" d="M1558.33,-47.56C1564.99,-38.3 1572.16,-28.34 1577.29,-21.22"/>
<polygon fill="#63b8ff" stroke="#63b8ff" points="1554.94,-45.28 1551.94,-55.44 1560.62,-49.37 1554.94,-45.28"/>
</g>
<!-- Node13&#45;&gt;Node12 -->
<g id="edge21" class="edge">
<title>Node13&#45;&gt;Node12</title>
<path fill="none" stroke="#63b8ff" d="M1189.63,-56.66C1308.67,-37.08 1435.27,-24.26 1512.52,-17.34"/>
<polygon fill="#63b8ff" stroke="#63b8ff" points="1189.16,-53.35 1179.87,-58.45 1190.31,-60.26 1189.16,-53.35"/>
</g>
<!-- Node14&#45;&gt;Node12 -->
<g id="edge23" class="edge">
<title>Node14&#45;&gt;Node12</title>
<path fill="none" stroke="#63b8ff" d="M1330.64,-56.55C1403.35,-42.15 1475.65,-29.55 1524.99,-21.21"/>
<polygon fill="#63b8ff" stroke="#63b8ff" points="1330.04,-53.3 1320.92,-58.68 1331.41,-60.16 1330.04,-53.3"/>
</g>
<!-- Node15&#45;&gt;Node12 -->
<g id="edge25" class="edge">
<title>Node15&#45;&gt;Node12</title>
<path fill="none" stroke="#63b8ff" d="M1458.64,-52.92C1490.71,-42.32 1528.93,-29.69 1554.74,-21.17"/>
<polygon fill="#63b8ff" stroke="#63b8ff" points="1457.86,-49.82 1449.47,-56.28 1460.06,-56.47 1457.86,-49.82"/>
</g>
<!-- Node16&#45;&gt;Node11 -->
<g id="edge30" class="edge">
<title>Node16&#45;&gt;Node11</title>
<path fill="none" stroke="#63b8ff" d="M1494.06,-118.53C1503.85,-109.23 1514.85,-98.77 1523.67,-90.38"/>
<polygon fill="#63b8ff" stroke="#63b8ff" points="1492.04,-115.58 1487.2,-125 1496.86,-120.65 1492.04,-115.58"/>
</g>
<!-- Node16&#45;&gt;Node12 -->
<g id="edge27" class="edge">
<title>Node16&#45;&gt;Node12</title>
<path fill="none" stroke="#63b8ff" d="M1541.29,-132.94C1567.47,-125.77 1594.5,-112.99 1610.38,-90.25 1625.65,-68.38 1605.27,-36.93 1592.79,-21.16"/>
<polygon fill="#63b8ff" stroke="#63b8ff" points="1540.81,-129.7 1531.95,-135.51 1542.49,-136.5 1540.81,-129.7"/>
</g>
<!-- Node16&#45;&gt;Node13 -->
<g id="edge31" class="edge">
<title>Node16&#45;&gt;Node13</title>
<path fill="none" stroke="#63b8ff" d="M1397.18,-129.45C1340.34,-119.38 1259.16,-104.62 1188.38,-90.25 1185.28,-89.62 1182.12,-88.97 1178.92,-88.3"/>
<polygon fill="#63b8ff" stroke="#63b8ff" points="1396.4,-133.04 1406.86,-131.33 1397.62,-126.15 1396.4,-133.04"/>
</g>
<!-- Node16&#45;&gt;Node14 -->
<g id="edge32" class="edge">
<title>Node16&#45;&gt;Node14</title>
<path fill="none" stroke="#63b8ff" d="M1408.4,-122.49C1376.84,-112.4 1338.76,-100.22 1308.87,-90.65"/>
<polygon fill="#63b8ff" stroke="#63b8ff" points="1407.24,-126.12 1417.84,-125.83 1409.38,-119.45 1407.24,-126.12"/>
</g>
<!-- Node16&#45;&gt;Node15 -->
<g id="edge37" class="edge">
<title>Node16&#45;&gt;Node15</title>
<path fill="none" stroke="#63b8ff" d="M1445.04,-118.53C1435.39,-109.23 1424.54,-98.77 1415.84,-90.38"/>
<polygon fill="#63b8ff" stroke="#63b8ff" points="1442.16,-120.58 1451.79,-125 1447.02,-115.54 1442.16,-120.58"/>
</g>
<!-- Node17 -->
<g id="node17" class="node">
<title>Node17</title>
<g id="a_node17"><a xlink:href="../../d6/dca/adapter_8hpp.html" target="_top" xlink:title=" ">
<polygon fill="white" stroke="#666666" points="1779.62,-90.25 1657.12,-90.25 1657.12,-56.75 1779.62,-56.75 1779.62,-90.25"/>
<text text-anchor="start" x="1665.12" y="-76.75" font-family="Helvetica,sans-Serif" font-size="10.00">Simple&#45;Utility/nullables</text>
<text text-anchor="middle" x="1718.38" y="-64" font-family="Helvetica,sans-Serif" font-size="10.00">/adapter.hpp</text>
</a>
</g>
</g>
<!-- Node16&#45;&gt;Node17 -->
<g id="edge28" class="edge">
<title>Node16&#45;&gt;Node17</title>
<path fill="none" stroke="#63b8ff" d="M1539.39,-123.02C1577.01,-112.82 1622.9,-100.38 1658.79,-90.65"/>
<polygon fill="#63b8ff" stroke="#63b8ff" points="1538.75,-119.84 1530.02,-125.83 1540.58,-126.59 1538.75,-119.84"/>
</g>
<!-- Node18 -->
<g id="node18" class="node">
<title>Node18</title>
<g id="a_node18"><a xlink:href="../../d9/d20/std__optional_8hpp.html" target="_top" xlink:title=" ">
<polygon fill="white" stroke="#666666" points="1920.62,-90.25 1798.12,-90.25 1798.12,-56.75 1920.62,-56.75 1920.62,-90.25"/>
<text text-anchor="start" x="1806.12" y="-76.75" font-family="Helvetica,sans-Serif" font-size="10.00">Simple&#45;Utility/nullables</text>
<text text-anchor="middle" x="1859.38" y="-64" font-family="Helvetica,sans-Serif" font-size="10.00">/std_optional.hpp</text>
</a>
</g>
</g>
<!-- Node16&#45;&gt;Node18 -->
<g id="edge33" class="edge">
<title>Node16&#45;&gt;Node18</title>
<path fill="none" stroke="#63b8ff" d="M1541.52,-131.51C1606.31,-121.79 1703.95,-106.45 1788.38,-90.25 1791.47,-89.66 1794.65,-89.03 1797.85,-88.38"/>
<polygon fill="#63b8ff" stroke="#63b8ff" points="1541.39,-128.14 1532.01,-133.08 1542.42,-135.06 1541.39,-128.14"/>
</g>
<!-- Node19 -->
<g id="node19" class="node">
<title>Node19</title>
<g id="a_node19"><a xlink:href="../../d8/d9a/std__pointers_8hpp.html" target="_top" xlink:title=" ">
<polygon fill="white" stroke="#666666" points="2190.62,-90.25 2068.12,-90.25 2068.12,-56.75 2190.62,-56.75 2190.62,-90.25"/>
<text text-anchor="start" x="2076.12" y="-76.75" font-family="Helvetica,sans-Serif" font-size="10.00">Simple&#45;Utility/nullables</text>
<text text-anchor="middle" x="2129.38" y="-64" font-family="Helvetica,sans-Serif" font-size="10.00">/std_pointers.hpp</text>
</a>
</g>
</g>
<!-- Node16&#45;&gt;Node19 -->
<g id="edge35" class="edge">
<title>Node16&#45;&gt;Node19</title>
<path fill="none" stroke="#63b8ff" d="M1541.64,-138.78C1653.24,-133.11 1874.03,-119.1 2059.38,-90.25 2062.21,-89.81 2065.09,-89.32 2068,-88.8"/>
<polygon fill="#63b8ff" stroke="#63b8ff" points="1541.67,-135.33 1531.86,-139.32 1542.02,-142.32 1541.67,-135.33"/>
</g>
<!-- Node20 -->
<g id="node20" class="node">
<title>Node20</title>
<g id="a_node20"><a xlink:href="../../d0/d0f/unique__handle_8hpp.html" target="_top" xlink:title=" ">
<polygon fill="white" stroke="#666666" points="2050,-90.25 1938.75,-90.25 1938.75,-56.75 2050,-56.75 2050,-90.25"/>
<text text-anchor="start" x="1946.75" y="-76.75" font-family="Helvetica,sans-Serif" font-size="10.00">Simple&#45;Utility/unique</text>
<text text-anchor="middle" x="1994.38" y="-64" font-family="Helvetica,sans-Serif" font-size="10.00">_handle.hpp</text>
</a>
</g>
</g>
<!-- Node16&#45;&gt;Node20 -->
<g id="edge38" class="edge">
<title>Node16&#45;&gt;Node20</title>
<path fill="none" stroke="#63b8ff" d="M1541.86,-136.68C1632.83,-129.35 1793.44,-114.27 1929.38,-90.25 1932.35,-89.72 1935.39,-89.14 1938.45,-88.52"/>
<polygon fill="#63b8ff" stroke="#63b8ff" points="1541.8,-133.25 1532.11,-137.53 1542.36,-140.23 1541.8,-133.25"/>
</g>
<!-- Node17&#45;&gt;Node12 -->
<g id="edge29" class="edge">
<title>Node17&#45;&gt;Node12</title>
<path fill="none" stroke="#63b8ff" d="M1673.02,-51.81C1650.31,-41.45 1623.89,-29.4 1605.84,-21.17"/>
<polygon fill="#63b8ff" stroke="#63b8ff" points="1671.27,-55.31 1681.82,-56.28 1674.17,-48.95 1671.27,-55.31"/>
</g>
<!-- Node18&#45;&gt;Node12 -->
<g id="edge34" class="edge">
<title>Node18&#45;&gt;Node12</title>
<path fill="none" stroke="#63b8ff" d="M1787.18,-56.45C1736.93,-45.28 1671.53,-30.75 1628.77,-21.24"/>
<polygon fill="#63b8ff" stroke="#63b8ff" points="1786.14,-60.03 1796.66,-58.78 1787.66,-53.2 1786.14,-60.03"/>
</g>
<!-- Node19&#45;&gt;Node12 -->
<g id="edge36" class="edge">
<title>Node19&#45;&gt;Node12</title>
<path fill="none" stroke="#63b8ff" d="M2057.37,-56.55C1909.4,-33.47 1747.05,-21.13 1655.95,-15.39"/>
<polygon fill="#63b8ff" stroke="#63b8ff" points="2056.58,-60.13 2067,-58.23 2057.67,-53.21 2056.58,-60.13"/>
</g>
<!-- Node21&#45;&gt;Node3 -->
<g id="edge40" class="edge">
<title>Node21&#45;&gt;Node3</title>
<path fill="none" stroke="#63b8ff" d="M567.56,-188.43C557.96,-180.16 547.93,-170.26 540.38,-159.75 511.33,-119.32 518.56,-101.31 496.38,-56.75 490.06,-44.07 481.79,-30 476.29,-20.93"/>
<polygon fill="#63b8ff" stroke="#63b8ff" points="564.87,-191.57 574.8,-195.25 569.33,-186.18 564.87,-191.57"/>
</g>
<!-- Node21&#45;&gt;Node5 -->
<g id="edge41" class="edge">
<title>Node21&#45;&gt;Node5</title>
<path fill="none" stroke="#63b8ff" d="M546.73,-191.47C520.98,-181.47 490.24,-169.55 466.01,-160.15"/>
<polygon fill="#63b8ff" stroke="#63b8ff" points="545.11,-194.98 555.7,-195.33 547.64,-188.45 545.11,-194.98"/>
</g>
<!-- Node22&#45;&gt;Node3 -->
<g id="edge43" class="edge">
<title>Node22&#45;&gt;Node3</title>
<path fill="none" stroke="#63b8ff" d="M74.5,-184.86C84.14,-149.4 106.48,-87.57 150.38,-56.75 188.95,-29.66 314.71,-18.59 396.61,-14.17"/>
<polygon fill="#63b8ff" stroke="#63b8ff" points="70.89,-183.82 71.8,-194.38 77.67,-185.56 70.89,-183.82"/>
</g>
<!-- Node22&#45;&gt;Node5 -->
<g id="edge44" class="edge">
<title>Node22&#45;&gt;Node5</title>
<path fill="none" stroke="#63b8ff" d="M147.48,-196.5C211.59,-184.35 300.78,-167.43 360.43,-156.12"/>
<polygon fill="#63b8ff" stroke="#63b8ff" points="147.19,-193.18 138.02,-198.49 148.49,-200.06 147.19,-193.18"/>
</g>
<!-- Node23&#45;&gt;Node5 -->
<g id="edge46" class="edge">
<title>Node23&#45;&gt;Node5</title>
<path fill="none" stroke="#63b8ff" d="M499.74,-256.22C480.95,-228.24 450.93,-183.54 435.04,-159.88"/>
<polygon fill="#63b8ff" stroke="#63b8ff" points="497.16,-257.67 505.64,-264.02 502.97,-253.76 497.16,-257.67"/>
</g>
<!-- Node24&#45;&gt;Node5 -->
<g id="edge48" class="edge">
<title>Node24&#45;&gt;Node5</title>
<path fill="none" stroke="#63b8ff" d="M591.2,-261.45C567.29,-253.41 541.32,-242.76 519.38,-229.25 501.04,-217.96 500.31,-210.23 484.38,-195.75 470.94,-183.54 455.4,-170.16 443.51,-160.07"/>
<polygon fill="#63b8ff" stroke="#63b8ff" points="590.06,-265.08 600.65,-264.84 592.22,-258.42 590.06,-265.08"/>
</g>
<!-- Node25&#45;&gt;Node3 -->
<g id="edge50" class="edge">
<title>Node25&#45;&gt;Node3</title>
<path fill="none" stroke="#63b8ff" d="M252.33,-184.92C248.74,-150.72 248.24,-91.58 280.38,-56.75 296.21,-39.58 350.02,-27.75 396.35,-20.49"/>
<polygon fill="#63b8ff" stroke="#63b8ff" points="248.93,-184.99 253.62,-194.49 255.88,-184.14 248.93,-184.99"/>
</g>
<!-- Node25&#45;&gt;Node5 -->
<g id="edge51" class="edge">
<title>Node25&#45;&gt;Node5</title>
<path fill="none" stroke="#63b8ff" d="M306.57,-191.33C331.37,-181.37 360.89,-169.51 384.17,-160.15"/>
<polygon fill="#63b8ff" stroke="#63b8ff" points="305.59,-188.36 297.62,-195.33 308.2,-194.85 305.59,-188.36"/>
</g>
<!-- Node26&#45;&gt;Node3 -->
<g id="edge53" class="edge">
<title>Node26&#45;&gt;Node3</title>
<path fill="none" stroke="#63b8ff" d="M331.91,-254C331.19,-197.82 330.9,-72.25 342.38,-56.75 355.77,-38.65 376.99,-27.74 398.32,-21.18"/>
<polygon fill="#63b8ff" stroke="#63b8ff" points="328.43,-253.93 332.07,-263.87 335.43,-253.83 328.43,-253.93"/>
</g>
<!-- Node26&#45;&gt;Node5 -->
<g id="edge55" class="edge">
<title>Node26&#45;&gt;Node5</title>
<path fill="none" stroke="#63b8ff" d="M349.01,-256.22C367.8,-228.24 397.82,-183.54 413.71,-159.88"/>
<polygon fill="#63b8ff" stroke="#63b8ff" points="345.78,-253.76 343.11,-264.02 351.59,-257.67 345.78,-253.76"/>
</g>
<!-- Node26&#45;&gt;Node7 -->
<g id="edge56" class="edge">
<title>Node26&#45;&gt;Node7</title>
<path fill="none" stroke="#63b8ff" d="M406.81,-270.36C506.38,-256.05 671.24,-232.06 677.38,-229.25 698.15,-219.74 696.41,-206.86 716.38,-195.75 747.42,-178.48 785.04,-166.08 816.42,-157.76"/>
<polygon fill="#63b8ff" stroke="#63b8ff" points="406.6,-267 397.19,-271.88 407.59,-273.92 406.6,-267"/>
</g>
<!-- Node26&#45;&gt;Node25 -->
<g id="edge54" class="edge">
<title>Node26&#45;&gt;Node25</title>
<path fill="none" stroke="#63b8ff" d="M306.32,-257.86C295.85,-248.56 284.03,-238.06 274.52,-229.62"/>
<polygon fill="#63b8ff" stroke="#63b8ff" points="303.56,-259.98 313.36,-264 308.21,-254.75 303.56,-259.98"/>
</g>
</g>
</svg>
