<?xml version="1.0" encoding="UTF-8" standalone="no"?>
<!DOCTYPE svg PUBLIC "-//W3C//DTD SVG 1.1//EN"
 "http://www.w3.org/Graphics/SVG/1.1/DTD/svg11.dtd">
<!-- Generated by graphviz version 2.43.0 (0)
 -->
<!-- Title: /home/runner/work/Simple&#45;Utility/Simple&#45;Utility/include/Simple&#45;Utility/unified_base.hpp Pages: 1 -->
<svg width="2694pt" height="595pt"
 viewBox="0.00 0.00 2693.97 595.00" xmlns="http://www.w3.org/2000/svg" xmlns:xlink="http://www.w3.org/1999/xlink">
<g id="graph0" class="graph" transform="scale(1 1) rotate(0) translate(4 591)">
<title>/home/runner/work/Simple&#45;Utility/Simple&#45;Utility/include/Simple&#45;Utility/unified_base.hpp</title>
<polygon fill="white" stroke="transparent" points="-4,4 -4,-591 2689.97,-591 2689.97,4 -4,4"/>
<!-- Node1 -->
<g id="node1" class="node">
<title>Node1</title>
<g id="a_node1"><a xlink:title=" ">
<polygon fill="#bfbfbf" stroke="black" points="1247,-534.5 1247,-586.5 1393,-586.5 1393,-534.5 1247,-534.5"/>
<text text-anchor="start" x="1255" y="-574.5" font-family="Helvetica,sans-Serif" font-size="10.00">/home/runner/work/Simple</text>
<text text-anchor="start" x="1255" y="-563.5" font-family="Helvetica,sans-Serif" font-size="10.00">&#45;Utility/Simple&#45;Utility</text>
<text text-anchor="start" x="1255" y="-552.5" font-family="Helvetica,sans-Serif" font-size="10.00">/include/Simple&#45;Utility</text>
<text text-anchor="middle" x="1320" y="-541.5" font-family="Helvetica,sans-Serif" font-size="10.00">/unified_base.hpp</text>
</a>
</g>
</g>
<!-- Node2 -->
<g id="node2" class="node">
<title>Node2</title>
<g id="a_node2"><a xlink:href="../../d1/d76/functional_2base_8hpp.html" target="_top" xlink:title=" ">
<polygon fill="white" stroke="black" points="727,-445.5 727,-497.5 873,-497.5 873,-445.5 727,-445.5"/>
<text text-anchor="start" x="735" y="-485.5" font-family="Helvetica,sans-Serif" font-size="10.00">/home/runner/work/Simple</text>
<text text-anchor="start" x="735" y="-474.5" font-family="Helvetica,sans-Serif" font-size="10.00">&#45;Utility/Simple&#45;Utility</text>
<text text-anchor="start" x="735" y="-463.5" font-family="Helvetica,sans-Serif" font-size="10.00">/include/Simple&#45;Utility</text>
<text text-anchor="middle" x="800" y="-452.5" font-family="Helvetica,sans-Serif" font-size="10.00">/functional/base.hpp</text>
</a>
</g>
</g>
<!-- Node1&#45;&gt;Node2 -->
<g id="edge1" class="edge">
<title>Node1&#45;&gt;Node2</title>
<path fill="none" stroke="midnightblue" d="M1236.76,-545.57C1136.26,-528.76 968.84,-500.75 873.11,-484.73"/>
<polygon fill="midnightblue" stroke="midnightblue" points="1236.43,-549.07 1246.87,-547.27 1237.59,-542.16 1236.43,-549.07"/>
</g>
<!-- Node7 -->
<g id="node7" class="node">
<title>Node7</title>
<g id="a_node7"><a xlink:href="../../d6/deb/transform_8hpp.html" target="_top" xlink:title=" ">
<polygon fill="white" stroke="black" points="1171,-178.5 1171,-230.5 1317,-230.5 1317,-178.5 1171,-178.5"/>
<text text-anchor="start" x="1179" y="-218.5" font-family="Helvetica,sans-Serif" font-size="10.00">/home/runner/work/Simple</text>
<text text-anchor="start" x="1179" y="-207.5" font-family="Helvetica,sans-Serif" font-size="10.00">&#45;Utility/Simple&#45;Utility</text>
<text text-anchor="start" x="1179" y="-196.5" font-family="Helvetica,sans-Serif" font-size="10.00">/include/Simple&#45;Utility</text>
<text text-anchor="middle" x="1244" y="-185.5" font-family="Helvetica,sans-Serif" font-size="10.00">/functional/transform.hpp</text>
</a>
</g>
</g>
<!-- Node1&#45;&gt;Node7 -->
<g id="edge60" class="edge">
<title>Node1&#45;&gt;Node7</title>
<path fill="none" stroke="midnightblue" d="M1313.75,-524.38C1303.75,-469.29 1283.04,-359.31 1261,-267 1258.12,-254.93 1254.5,-241.65 1251.35,-230.53"/>
<polygon fill="midnightblue" stroke="midnightblue" points="1310.32,-525.11 1315.54,-534.33 1317.21,-523.87 1310.32,-525.11"/>
</g>
<!-- Node16 -->
<g id="node16" class="node">
<title>Node16</title>
<g id="a_node16"><a xlink:href="../../d6/dbe/nullables_2base_8hpp.html" target="_top" xlink:title=" ">
<polygon fill="white" stroke="black" points="1777,-178.5 1777,-230.5 1923,-230.5 1923,-178.5 1777,-178.5"/>
<text text-anchor="start" x="1785" y="-218.5" font-family="Helvetica,sans-Serif" font-size="10.00">/home/runner/work/Simple</text>
<text text-anchor="start" x="1785" y="-207.5" font-family="Helvetica,sans-Serif" font-size="10.00">&#45;Utility/Simple&#45;Utility</text>
<text text-anchor="start" x="1785" y="-196.5" font-family="Helvetica,sans-Serif" font-size="10.00">/include/Simple&#45;Utility</text>
<text text-anchor="middle" x="1850" y="-185.5" font-family="Helvetica,sans-Serif" font-size="10.00">/nullables/base.hpp</text>
</a>
</g>
</g>
<!-- Node1&#45;&gt;Node16 -->
<g id="edge61" class="edge">
<title>Node1&#45;&gt;Node16</title>
<path fill="none" stroke="midnightblue" d="M1366.05,-528.74C1469.34,-459.75 1717.82,-293.78 1812.5,-230.55"/>
<polygon fill="midnightblue" stroke="midnightblue" points="1364.06,-525.86 1357.69,-534.32 1367.95,-531.68 1364.06,-525.86"/>
</g>
<!-- Node3 -->
<g id="node3" class="node">
<title>Node3</title>
<g id="a_node3"><a xlink:href="../../d9/d76/bind_8hpp.html" target="_top" xlink:title=" ">
<polygon fill="white" stroke="black" points="1014.5,-267.5 1014.5,-319.5 1177.5,-319.5 1177.5,-267.5 1014.5,-267.5"/>
<text text-anchor="start" x="1022.5" y="-307.5" font-family="Helvetica,sans-Serif" font-size="10.00">/home/runner/work/Simple</text>
<text text-anchor="start" x="1022.5" y="-296.5" font-family="Helvetica,sans-Serif" font-size="10.00">&#45;Utility/Simple&#45;Utility</text>
<text text-anchor="start" x="1022.5" y="-285.5" font-family="Helvetica,sans-Serif" font-size="10.00">/include/Simple&#45;Utility</text>
<text text-anchor="middle" x="1096" y="-274.5" font-family="Helvetica,sans-Serif" font-size="10.00">/functional/operators/bind.hpp</text>
</a>
</g>
</g>
<!-- Node2&#45;&gt;Node3 -->
<g id="edge2" class="edge">
<title>Node2&#45;&gt;Node3</title>
<path fill="none" stroke="midnightblue" d="M883.51,-469.42C985.38,-466.12 1148.78,-453.77 1187,-409 1202.29,-391.08 1198.05,-376.8 1187,-356 1179.04,-341.01 1165.62,-329.01 1151.49,-319.73"/>
<polygon fill="midnightblue" stroke="midnightblue" points="883.13,-465.93 873.24,-469.72 883.34,-472.92 883.13,-465.93"/>
</g>
<!-- Node4 -->
<g id="node4" class="node">
<title>Node4</title>
<g id="a_node4"><a xlink:href="../../d2/d7e/predicate_8hpp.html" target="_top" xlink:title=" ">
<polygon fill="white" stroke="black" points="597,-178.5 597,-230.5 743,-230.5 743,-178.5 597,-178.5"/>
<text text-anchor="start" x="605" y="-218.5" font-family="Helvetica,sans-Serif" font-size="10.00">/home/runner/work/Simple</text>
<text text-anchor="start" x="605" y="-207.5" font-family="Helvetica,sans-Serif" font-size="10.00">&#45;Utility/Simple&#45;Utility</text>
<text text-anchor="start" x="605" y="-196.5" font-family="Helvetica,sans-Serif" font-size="10.00">/include/Simple&#45;Utility</text>
<text text-anchor="middle" x="670" y="-185.5" font-family="Helvetica,sans-Serif" font-size="10.00">/functional/predicate.hpp</text>
</a>
</g>
</g>
<!-- Node2&#45;&gt;Node4 -->
<g id="edge56" class="edge">
<title>Node2&#45;&gt;Node4</title>
<path fill="none" stroke="midnightblue" d="M716.76,-465.93C676.77,-459.03 632.16,-443.42 607,-409 593.1,-389.98 596.8,-377.23 607,-356 618.1,-332.92 639.14,-342.15 652,-320 667.96,-292.5 671.08,-255.33 671.12,-230.9"/>
<polygon fill="midnightblue" stroke="midnightblue" points="716.4,-469.41 726.82,-467.5 717.48,-462.5 716.4,-469.41"/>
</g>
<!-- Node6 -->
<g id="node6" class="node">
<title>Node6</title>
<g id="a_node6"><a xlink:href="../../d2/db4/functional_8hpp.html" target="_top" xlink:title=" ">
<polygon fill="white" stroke="black" points="585,-0.5 585,-52.5 731,-52.5 731,-0.5 585,-0.5"/>
<text text-anchor="start" x="593" y="-40.5" font-family="Helvetica,sans-Serif" font-size="10.00">/home/runner/work/Simple</text>
<text text-anchor="start" x="593" y="-29.5" font-family="Helvetica,sans-Serif" font-size="10.00">&#45;Utility/Simple&#45;Utility</text>
<text text-anchor="start" x="593" y="-18.5" font-family="Helvetica,sans-Serif" font-size="10.00">/include/Simple&#45;Utility</text>
<text text-anchor="middle" x="658" y="-7.5" font-family="Helvetica,sans-Serif" font-size="10.00">/functional.hpp</text>
</a>
</g>
</g>
<!-- Node2&#45;&gt;Node6 -->
<g id="edge58" class="edge">
<title>Node2&#45;&gt;Node6</title>
<path fill="none" stroke="midnightblue" d="M716.78,-469.67C511.96,-465.39 0,-440.12 0,-294.5 0,-294.5 0,-294.5 0,-203.5 0,-83.55 413.24,-43.18 584.75,-31.6"/>
<polygon fill="midnightblue" stroke="midnightblue" points="716.82,-473.17 726.88,-469.87 716.96,-466.17 716.82,-473.17"/>
</g>
<!-- Node2&#45;&gt;Node7 -->
<g id="edge57" class="edge">
<title>Node2&#45;&gt;Node7</title>
<path fill="none" stroke="midnightblue" d="M883.52,-468.85C988.47,-464.96 1160.3,-452.01 1205,-409 1253.87,-361.99 1251.91,-273.87 1247.49,-230.68"/>
<polygon fill="midnightblue" stroke="midnightblue" points="883.13,-465.36 873.26,-469.21 883.38,-472.35 883.13,-465.36"/>
</g>
<!-- Node2&#45;&gt;Node16 -->
<g id="edge59" class="edge">
<title>Node2&#45;&gt;Node16</title>
<path fill="none" stroke="midnightblue" d="M883.1,-465.72C971.54,-459.02 1114.88,-443.53 1234,-409 1381.5,-366.24 1402.87,-314.22 1549,-267 1625,-242.44 1715.08,-225.57 1776.77,-215.8"/>
<polygon fill="midnightblue" stroke="midnightblue" points="882.83,-462.23 873.12,-466.45 883.35,-469.21 882.83,-462.23"/>
</g>
<!-- Node21 -->
<g id="node21" class="node">
<title>Node21</title>
<g id="a_node21"><a xlink:href="../../df/d80/conjunction_8hpp.html" target="_top" xlink:title=" ">
<polygon fill="white" stroke="black" points="28,-267.5 28,-319.5 226,-319.5 226,-267.5 28,-267.5"/>
<text text-anchor="start" x="36" y="-307.5" font-family="Helvetica,sans-Serif" font-size="10.00">/home/runner/work/Simple</text>
<text text-anchor="start" x="36" y="-296.5" font-family="Helvetica,sans-Serif" font-size="10.00">&#45;Utility/Simple&#45;Utility</text>
<text text-anchor="start" x="36" y="-285.5" font-family="Helvetica,sans-Serif" font-size="10.00">/include/Simple&#45;Utility</text>
<text text-anchor="middle" x="127" y="-274.5" font-family="Helvetica,sans-Serif" font-size="10.00">/functional/operators/conjunction.hpp</text>
</a>
</g>
</g>
<!-- Node2&#45;&gt;Node21 -->
<g id="edge38" class="edge">
<title>Node2&#45;&gt;Node21</title>
<path fill="none" stroke="midnightblue" d="M716.63,-460.63C643.07,-450.88 533.34,-433.83 440,-409 349.27,-384.87 247.82,-345.33 185.68,-319.61"/>
<polygon fill="midnightblue" stroke="midnightblue" points="716.4,-464.13 726.77,-461.95 717.3,-457.18 716.4,-464.13"/>
</g>
<!-- Node22 -->
<g id="node22" class="node">
<title>Node22</title>
<g id="a_node22"><a xlink:href="../../d4/d7c/disjunction_8hpp.html" target="_top" xlink:title=" ">
<polygon fill="white" stroke="black" points="244.5,-267.5 244.5,-319.5 439.5,-319.5 439.5,-267.5 244.5,-267.5"/>
<text text-anchor="start" x="252.5" y="-307.5" font-family="Helvetica,sans-Serif" font-size="10.00">/home/runner/work/Simple</text>
<text text-anchor="start" x="252.5" y="-296.5" font-family="Helvetica,sans-Serif" font-size="10.00">&#45;Utility/Simple&#45;Utility</text>
<text text-anchor="start" x="252.5" y="-285.5" font-family="Helvetica,sans-Serif" font-size="10.00">/include/Simple&#45;Utility</text>
<text text-anchor="middle" x="342" y="-274.5" font-family="Helvetica,sans-Serif" font-size="10.00">/functional/operators/disjunction.hpp</text>
</a>
</g>
</g>
<!-- Node2&#45;&gt;Node22 -->
<g id="edge41" class="edge">
<title>Node2&#45;&gt;Node22</title>
<path fill="none" stroke="midnightblue" d="M717.12,-456.25C666.86,-446.17 602.03,-430.59 547,-409 485.52,-384.88 419.76,-345.43 379.75,-319.72"/>
<polygon fill="midnightblue" stroke="midnightblue" points="716.48,-459.69 726.97,-458.19 717.84,-452.82 716.48,-459.69"/>
</g>
<!-- Node23 -->
<g id="node23" class="node">
<title>Node23</title>
<g id="a_node23"><a xlink:href="../../dc/d0a/equal_8hpp.html" target="_top" xlink:title=" ">
<polygon fill="white" stroke="black" points="615.5,-356.5 615.5,-408.5 784.5,-408.5 784.5,-356.5 615.5,-356.5"/>
<text text-anchor="start" x="623.5" y="-396.5" font-family="Helvetica,sans-Serif" font-size="10.00">/home/runner/work/Simple</text>
<text text-anchor="start" x="623.5" y="-385.5" font-family="Helvetica,sans-Serif" font-size="10.00">&#45;Utility/Simple&#45;Utility</text>
<text text-anchor="start" x="623.5" y="-374.5" font-family="Helvetica,sans-Serif" font-size="10.00">/include/Simple&#45;Utility</text>
<text text-anchor="middle" x="700" y="-363.5" font-family="Helvetica,sans-Serif" font-size="10.00">/functional/operators/equal.hpp</text>
</a>
</g>
</g>
<!-- Node2&#45;&gt;Node23 -->
<g id="edge44" class="edge">
<title>Node2&#45;&gt;Node23</title>
<path fill="none" stroke="midnightblue" d="M763.39,-438.65C752.01,-428.75 739.63,-417.98 728.86,-408.61"/>
<polygon fill="midnightblue" stroke="midnightblue" points="761.23,-441.41 771.08,-445.34 765.83,-436.13 761.23,-441.41"/>
</g>
<!-- Node24 -->
<g id="node24" class="node">
<title>Node24</title>
<g id="a_node24"><a xlink:href="../../d7/dd0/equivalent_8hpp.html" target="_top" xlink:title=" ">
<polygon fill="white" stroke="black" points="802,-356.5 802,-408.5 996,-408.5 996,-356.5 802,-356.5"/>
<text text-anchor="start" x="810" y="-396.5" font-family="Helvetica,sans-Serif" font-size="10.00">/home/runner/work/Simple</text>
<text text-anchor="start" x="810" y="-385.5" font-family="Helvetica,sans-Serif" font-size="10.00">&#45;Utility/Simple&#45;Utility</text>
<text text-anchor="start" x="810" y="-374.5" font-family="Helvetica,sans-Serif" font-size="10.00">/include/Simple&#45;Utility</text>
<text text-anchor="middle" x="899" y="-363.5" font-family="Helvetica,sans-Serif" font-size="10.00">/functional/operators/equivalent.hpp</text>
</a>
</g>
</g>
<!-- Node2&#45;&gt;Node24 -->
<g id="edge46" class="edge">
<title>Node2&#45;&gt;Node24</title>
<path fill="none" stroke="midnightblue" d="M836.24,-438.65C847.51,-428.75 859.76,-417.98 870.43,-408.61"/>
<polygon fill="midnightblue" stroke="midnightblue" points="833.84,-436.11 828.63,-445.34 838.46,-441.36 833.84,-436.11"/>
</g>
<!-- Node25 -->
<g id="node25" class="node">
<title>Node25</title>
<g id="a_node25"><a xlink:href="../../d8/dea/negation_8hpp.html" target="_top" xlink:title=" ">
<polygon fill="white" stroke="black" points="457.5,-267.5 457.5,-319.5 642.5,-319.5 642.5,-267.5 457.5,-267.5"/>
<text text-anchor="start" x="465.5" y="-307.5" font-family="Helvetica,sans-Serif" font-size="10.00">/home/runner/work/Simple</text>
<text text-anchor="start" x="465.5" y="-296.5" font-family="Helvetica,sans-Serif" font-size="10.00">&#45;Utility/Simple&#45;Utility</text>
<text text-anchor="start" x="465.5" y="-285.5" font-family="Helvetica,sans-Serif" font-size="10.00">/include/Simple&#45;Utility</text>
<text text-anchor="middle" x="550" y="-274.5" font-family="Helvetica,sans-Serif" font-size="10.00">/functional/operators/negation.hpp</text>
</a>
</g>
</g>
<!-- Node2&#45;&gt;Node25 -->
<g id="edge48" class="edge">
<title>Node2&#45;&gt;Node25</title>
<path fill="none" stroke="midnightblue" d="M716.94,-457.21C660.93,-446.57 593.77,-429.97 574,-409 551.43,-385.06 547.82,-345.57 548.2,-319.79"/>
<polygon fill="midnightblue" stroke="midnightblue" points="716.42,-460.68 726.89,-459.07 717.7,-453.8 716.42,-460.68"/>
</g>
<!-- Node26 -->
<g id="node26" class="node">
<title>Node26</title>
<g id="a_node26"><a xlink:href="../../d5/db7/pipe_8hpp.html" target="_top" xlink:title=" ">
<polygon fill="white" stroke="black" points="1014.5,-356.5 1014.5,-408.5 1177.5,-408.5 1177.5,-356.5 1014.5,-356.5"/>
<text text-anchor="start" x="1022.5" y="-396.5" font-family="Helvetica,sans-Serif" font-size="10.00">/home/runner/work/Simple</text>
<text text-anchor="start" x="1022.5" y="-385.5" font-family="Helvetica,sans-Serif" font-size="10.00">&#45;Utility/Simple&#45;Utility</text>
<text text-anchor="start" x="1022.5" y="-374.5" font-family="Helvetica,sans-Serif" font-size="10.00">/include/Simple&#45;Utility</text>
<text text-anchor="middle" x="1096" y="-363.5" font-family="Helvetica,sans-Serif" font-size="10.00">/functional/operators/pipe.hpp</text>
</a>
</g>
</g>
<!-- Node2&#45;&gt;Node26 -->
<g id="edge51" class="edge">
<title>Node2&#45;&gt;Node26</title>
<path fill="none" stroke="midnightblue" d="M882.88,-446.14C923.95,-434.07 973.38,-419.54 1014.29,-407.52"/>
<polygon fill="midnightblue" stroke="midnightblue" points="881.78,-442.82 873.17,-448.99 883.75,-449.53 881.78,-442.82"/>
</g>
<!-- Node3&#45;&gt;Node4 -->
<g id="edge3" class="edge">
<title>Node3&#45;&gt;Node4</title>
<path fill="none" stroke="midnightblue" d="M1004.53,-273.82C926.41,-257.87 815.52,-235.22 743.18,-220.45"/>
<polygon fill="midnightblue" stroke="midnightblue" points="1003.87,-277.26 1014.37,-275.83 1005.27,-270.4 1003.87,-277.26"/>
</g>
<!-- Node3&#45;&gt;Node6 -->
<g id="edge24" class="edge">
<title>Node3&#45;&gt;Node6</title>
<path fill="none" stroke="midnightblue" d="M1025.4,-263.25C968,-237.16 887.13,-194.94 828,-142 806.41,-122.67 812.31,-107.5 790,-89 772.1,-74.15 750.01,-62.03 729.07,-52.6"/>
<polygon fill="midnightblue" stroke="midnightblue" points="1024.21,-266.55 1034.76,-267.46 1027.08,-260.17 1024.21,-266.55"/>
</g>
<!-- Node3&#45;&gt;Node7 -->
<g id="edge7" class="edge">
<title>Node3&#45;&gt;Node7</title>
<path fill="none" stroke="midnightblue" d="M1147.77,-262.07C1165.26,-251.79 1184.58,-240.43 1201.29,-230.61"/>
<polygon fill="midnightblue" stroke="midnightblue" points="1145.65,-259.25 1138.81,-267.34 1149.2,-265.29 1145.65,-259.25"/>
</g>
<!-- Node3&#45;&gt;Node16 -->
<g id="edge25" class="edge">
<title>Node3&#45;&gt;Node16</title>
<path fill="none" stroke="midnightblue" d="M1187.88,-278.15C1213.76,-274.31 1241.96,-270.3 1268,-267 1450.69,-243.82 1666.43,-222.63 1776.84,-212.24"/>
<polygon fill="midnightblue" stroke="midnightblue" points="1187.08,-274.73 1177.71,-279.67 1188.12,-281.65 1187.08,-274.73"/>
</g>
<!-- Node5 -->
<g id="node5" class="node">
<title>Node5</title>
<g id="a_node5"><a xlink:href="../../dd/d3f/compare_8hpp.html" target="_top" xlink:title=" ">
<polygon fill="white" stroke="black" points="635,-89.5 635,-141.5 781,-141.5 781,-89.5 635,-89.5"/>
<text text-anchor="start" x="643" y="-129.5" font-family="Helvetica,sans-Serif" font-size="10.00">/home/runner/work/Simple</text>
<text text-anchor="start" x="643" y="-118.5" font-family="Helvetica,sans-Serif" font-size="10.00">&#45;Utility/Simple&#45;Utility</text>
<text text-anchor="start" x="643" y="-107.5" font-family="Helvetica,sans-Serif" font-size="10.00">/include/Simple&#45;Utility</text>
<text text-anchor="middle" x="708" y="-96.5" font-family="Helvetica,sans-Serif" font-size="10.00">/functional/compare.hpp</text>
</a>
</g>
</g>
<!-- Node4&#45;&gt;Node5 -->
<g id="edge4" class="edge">
<title>Node4&#45;&gt;Node5</title>
<path fill="none" stroke="midnightblue" d="M685.04,-169.06C689.05,-159.9 693.29,-150.17 697.03,-141.61"/>
<polygon fill="midnightblue" stroke="midnightblue" points="681.79,-167.77 680.99,-178.34 688.2,-170.57 681.79,-167.77"/>
</g>
<!-- Node4&#45;&gt;Node6 -->
<g id="edge6" class="edge">
<title>Node4&#45;&gt;Node6</title>
<path fill="none" stroke="midnightblue" d="M616.97,-171.8C607.28,-163.41 598.5,-153.44 593,-142 582.79,-120.77 583.69,-110.64 593,-89 599.08,-74.87 610.18,-62.48 621.51,-52.58"/>
<polygon fill="midnightblue" stroke="midnightblue" points="614.92,-174.64 624.9,-178.2 619.31,-169.19 614.92,-174.64"/>
</g>
<!-- Node5&#45;&gt;Node6 -->
<g id="edge5" class="edge">
<title>Node5&#45;&gt;Node6</title>
<path fill="none" stroke="midnightblue" d="M688.54,-80.64C683.18,-71.31 677.45,-61.35 672.43,-52.61"/>
<polygon fill="midnightblue" stroke="midnightblue" points="685.52,-82.41 693.54,-89.34 691.59,-78.92 685.52,-82.41"/>
</g>
<!-- Node7&#45;&gt;Node5 -->
<g id="edge10" class="edge">
<title>Node7&#45;&gt;Node5</title>
<path fill="none" stroke="midnightblue" d="M1160.87,-192.77C1076.72,-181.54 942.96,-162.69 828,-142 812.8,-139.26 796.59,-136.03 781.15,-132.81"/>
<polygon fill="midnightblue" stroke="midnightblue" points="1160.51,-196.25 1170.88,-194.1 1161.43,-189.31 1160.51,-196.25"/>
</g>
<!-- Node7&#45;&gt;Node6 -->
<g id="edge15" class="edge">
<title>Node7&#45;&gt;Node6</title>
<path fill="none" stroke="midnightblue" d="M1216.6,-170.55C1209.16,-161.4 1201.17,-151.39 1194,-142 1176.41,-118.97 1180.92,-103.8 1156,-89 1085.87,-47.36 851.9,-33.73 731.28,-29.41"/>
<polygon fill="midnightblue" stroke="midnightblue" points="1213.93,-172.82 1222.97,-178.34 1219.35,-168.39 1213.93,-172.82"/>
</g>
<!-- Node8 -->
<g id="node8" class="node">
<title>Node8</title>
<g id="a_node8"><a xlink:href="../../d3/d23/arithmetic_8hpp.html" target="_top" xlink:title=" ">
<polygon fill="white" stroke="black" points="1203,-89.5 1203,-141.5 1349,-141.5 1349,-89.5 1203,-89.5"/>
<text text-anchor="start" x="1211" y="-129.5" font-family="Helvetica,sans-Serif" font-size="10.00">/home/runner/work/Simple</text>
<text text-anchor="start" x="1211" y="-118.5" font-family="Helvetica,sans-Serif" font-size="10.00">&#45;Utility/Simple&#45;Utility</text>
<text text-anchor="start" x="1211" y="-107.5" font-family="Helvetica,sans-Serif" font-size="10.00">/include/Simple&#45;Utility</text>
<text text-anchor="middle" x="1276" y="-96.5" font-family="Helvetica,sans-Serif" font-size="10.00">/functional/arithmetic.hpp</text>
</a>
</g>
</g>
<!-- Node7&#45;&gt;Node8 -->
<g id="edge8" class="edge">
<title>Node7&#45;&gt;Node8</title>
<path fill="none" stroke="midnightblue" d="M1256.77,-168.77C1260.11,-159.69 1263.65,-150.08 1266.77,-141.61"/>
<polygon fill="midnightblue" stroke="midnightblue" points="1253.42,-167.74 1253.26,-178.34 1259.99,-170.16 1253.42,-167.74"/>
</g>
<!-- Node9 -->
<g id="node9" class="node">
<title>Node9</title>
<g id="a_node9"><a xlink:href="../../d9/d5f/functional_2tuple_8hpp.html" target="_top" xlink:title=" ">
<polygon fill="white" stroke="black" points="837,-89.5 837,-141.5 983,-141.5 983,-89.5 837,-89.5"/>
<text text-anchor="start" x="845" y="-129.5" font-family="Helvetica,sans-Serif" font-size="10.00">/home/runner/work/Simple</text>
<text text-anchor="start" x="845" y="-118.5" font-family="Helvetica,sans-Serif" font-size="10.00">&#45;Utility/Simple&#45;Utility</text>
<text text-anchor="start" x="845" y="-107.5" font-family="Helvetica,sans-Serif" font-size="10.00">/include/Simple&#45;Utility</text>
<text text-anchor="middle" x="910" y="-96.5" font-family="Helvetica,sans-Serif" font-size="10.00">/functional/tuple.hpp</text>
</a>
</g>
</g>
<!-- Node7&#45;&gt;Node9 -->
<g id="edge11" class="edge">
<title>Node7&#45;&gt;Node9</title>
<path fill="none" stroke="midnightblue" d="M1160.93,-184.6C1111.64,-173.04 1048.03,-157.53 992,-142 989.13,-141.2 986.2,-140.38 983.25,-139.53"/>
<polygon fill="midnightblue" stroke="midnightblue" points="1160.37,-188.06 1170.91,-186.93 1161.97,-181.24 1160.37,-188.06"/>
</g>
<!-- Node10 -->
<g id="node10" class="node">
<title>Node10</title>
<g id="a_node10"><a xlink:href="../../df/d4e/functional_2utility_8hpp.html" target="_top" xlink:title=" ">
<polygon fill="white" stroke="black" points="1001,-89.5 1001,-141.5 1147,-141.5 1147,-89.5 1001,-89.5"/>
<text text-anchor="start" x="1009" y="-129.5" font-family="Helvetica,sans-Serif" font-size="10.00">/home/runner/work/Simple</text>
<text text-anchor="start" x="1009" y="-118.5" font-family="Helvetica,sans-Serif" font-size="10.00">&#45;Utility/Simple&#45;Utility</text>
<text text-anchor="start" x="1009" y="-107.5" font-family="Helvetica,sans-Serif" font-size="10.00">/include/Simple&#45;Utility</text>
<text text-anchor="middle" x="1074" y="-96.5" font-family="Helvetica,sans-Serif" font-size="10.00">/functional/utility.hpp</text>
</a>
</g>
</g>
<!-- Node7&#45;&gt;Node10 -->
<g id="edge13" class="edge">
<title>Node7&#45;&gt;Node10</title>
<path fill="none" stroke="midnightblue" d="M1185.92,-173.78C1165.47,-163.31 1142.7,-151.66 1123.06,-141.61"/>
<polygon fill="midnightblue" stroke="midnightblue" points="1184.33,-176.9 1194.83,-178.34 1187.52,-170.66 1184.33,-176.9"/>
</g>
<!-- Node11 -->
<g id="node11" class="node">
<title>Node11</title>
<g id="a_node11"><a xlink:href="../../d4/dc9/and__then_8hpp.html" target="_top" xlink:title=" ">
<polygon fill="white" stroke="black" points="1695,-89.5 1695,-141.5 1841,-141.5 1841,-89.5 1695,-89.5"/>
<text text-anchor="start" x="1703" y="-129.5" font-family="Helvetica,sans-Serif" font-size="10.00">/home/runner/work/Simple</text>
<text text-anchor="start" x="1703" y="-118.5" font-family="Helvetica,sans-Serif" font-size="10.00">&#45;Utility/Simple&#45;Utility</text>
<text text-anchor="start" x="1703" y="-107.5" font-family="Helvetica,sans-Serif" font-size="10.00">/include/Simple&#45;Utility</text>
<text text-anchor="middle" x="1768" y="-96.5" font-family="Helvetica,sans-Serif" font-size="10.00">/nullables/and_then.hpp</text>
</a>
</g>
</g>
<!-- Node7&#45;&gt;Node11 -->
<g id="edge16" class="edge">
<title>Node7&#45;&gt;Node11</title>
<path fill="none" stroke="midnightblue" d="M1327.08,-196.03C1416.46,-187.04 1562.41,-169.62 1686,-142 1688.91,-141.35 1691.87,-140.65 1694.84,-139.9"/>
<polygon fill="midnightblue" stroke="midnightblue" points="1326.61,-192.56 1317,-197.03 1327.3,-199.52 1326.61,-192.56"/>
</g>
<!-- Node13 -->
<g id="node13" class="node">
<title>Node13</title>
<g id="a_node13"><a xlink:href="../../d7/d5f/fwd__value_8hpp.html" target="_top" xlink:title=" ">
<polygon fill="white" stroke="black" points="1859,-89.5 1859,-141.5 2005,-141.5 2005,-89.5 1859,-89.5"/>
<text text-anchor="start" x="1867" y="-129.5" font-family="Helvetica,sans-Serif" font-size="10.00">/home/runner/work/Simple</text>
<text text-anchor="start" x="1867" y="-118.5" font-family="Helvetica,sans-Serif" font-size="10.00">&#45;Utility/Simple&#45;Utility</text>
<text text-anchor="start" x="1867" y="-107.5" font-family="Helvetica,sans-Serif" font-size="10.00">/include/Simple&#45;Utility</text>
<text text-anchor="middle" x="1932" y="-96.5" font-family="Helvetica,sans-Serif" font-size="10.00">/nullables/fwd_value.hpp</text>
</a>
</g>
</g>
<!-- Node7&#45;&gt;Node13 -->
<g id="edge18" class="edge">
<title>Node7&#45;&gt;Node13</title>
<path fill="none" stroke="midnightblue" d="M1327.01,-200.34C1444.49,-194.68 1665.51,-179.65 1850,-142 1852.92,-141.4 1855.89,-140.75 1858.87,-140.04"/>
<polygon fill="midnightblue" stroke="midnightblue" points="1326.83,-196.84 1317,-200.81 1327.16,-203.84 1326.83,-196.84"/>
</g>
<!-- Node14 -->
<g id="node14" class="node">
<title>Node14</title>
<g id="a_node14"><a xlink:href="../../d2/d0e/or__else_8hpp.html" target="_top" xlink:title=" ">
<polygon fill="white" stroke="black" points="1367,-89.5 1367,-141.5 1513,-141.5 1513,-89.5 1367,-89.5"/>
<text text-anchor="start" x="1375" y="-129.5" font-family="Helvetica,sans-Serif" font-size="10.00">/home/runner/work/Simple</text>
<text text-anchor="start" x="1375" y="-118.5" font-family="Helvetica,sans-Serif" font-size="10.00">&#45;Utility/Simple&#45;Utility</text>
<text text-anchor="start" x="1375" y="-107.5" font-family="Helvetica,sans-Serif" font-size="10.00">/include/Simple&#45;Utility</text>
<text text-anchor="middle" x="1440" y="-96.5" font-family="Helvetica,sans-Serif" font-size="10.00">/nullables/or_else.hpp</text>
</a>
</g>
</g>
<!-- Node7&#45;&gt;Node14 -->
<g id="edge20" class="edge">
<title>Node7&#45;&gt;Node14</title>
<path fill="none" stroke="midnightblue" d="M1309.8,-174.29C1333.74,-163.67 1360.57,-151.76 1383.63,-141.52"/>
<polygon fill="midnightblue" stroke="midnightblue" points="1308.15,-171.2 1300.43,-178.45 1310.99,-177.59 1308.15,-171.2"/>
</g>
<!-- Node15 -->
<g id="node15" class="node">
<title>Node15</title>
<g id="a_node15"><a xlink:href="../../d0/d48/value__or_8hpp.html" target="_top" xlink:title=" ">
<polygon fill="white" stroke="black" points="1531,-89.5 1531,-141.5 1677,-141.5 1677,-89.5 1531,-89.5"/>
<text text-anchor="start" x="1539" y="-129.5" font-family="Helvetica,sans-Serif" font-size="10.00">/home/runner/work/Simple</text>
<text text-anchor="start" x="1539" y="-118.5" font-family="Helvetica,sans-Serif" font-size="10.00">&#45;Utility/Simple&#45;Utility</text>
<text text-anchor="start" x="1539" y="-107.5" font-family="Helvetica,sans-Serif" font-size="10.00">/include/Simple&#45;Utility</text>
<text text-anchor="middle" x="1604" y="-96.5" font-family="Helvetica,sans-Serif" font-size="10.00">/nullables/value_or.hpp</text>
</a>
</g>
</g>
<!-- Node7&#45;&gt;Node15 -->
<g id="edge22" class="edge">
<title>Node7&#45;&gt;Node15</title>
<path fill="none" stroke="midnightblue" d="M1327.4,-186.95C1382.85,-175.49 1457.12,-159.23 1522,-142 1524.88,-141.23 1527.81,-140.43 1530.77,-139.61"/>
<polygon fill="midnightblue" stroke="midnightblue" points="1326.37,-183.59 1317.28,-189.04 1327.78,-190.45 1326.37,-183.59"/>
</g>
<!-- Node8&#45;&gt;Node6 -->
<g id="edge9" class="edge">
<title>Node8&#45;&gt;Node6</title>
<path fill="none" stroke="midnightblue" d="M1192.8,-89.79C1191.52,-89.52 1190.26,-89.26 1189,-89 1027.34,-56.19 834.17,-39.3 731.19,-32.03"/>
<polygon fill="midnightblue" stroke="midnightblue" points="1192.12,-93.23 1202.65,-92.05 1193.68,-86.41 1192.12,-93.23"/>
</g>
<!-- Node9&#45;&gt;Node6 -->
<g id="edge12" class="edge">
<title>Node9&#45;&gt;Node6</title>
<path fill="none" stroke="midnightblue" d="M827.85,-86.14C796.45,-75.3 760.91,-63.03 730.47,-52.52"/>
<polygon fill="midnightblue" stroke="midnightblue" points="826.85,-89.5 837.45,-89.45 829.14,-82.88 826.85,-89.5"/>
</g>
<!-- Node10&#45;&gt;Node6 -->
<g id="edge14" class="edge">
<title>Node10&#45;&gt;Node6</title>
<path fill="none" stroke="midnightblue" d="M991.06,-88.87C896.26,-65.9 796.95,-48.77 731.18,-38.39"/>
<polygon fill="midnightblue" stroke="midnightblue" points="990.26,-92.28 1000.8,-91.26 991.92,-85.48 990.26,-92.28"/>
</g>
<!-- Node12 -->
<g id="node12" class="node">
<title>Node12</title>
<g id="a_node12"><a xlink:href="../../d3/ddc/nullables_8hpp.html" target="_top" xlink:title=" ">
<polygon fill="white" stroke="black" points="1941,-0.5 1941,-52.5 2087,-52.5 2087,-0.5 1941,-0.5"/>
<text text-anchor="start" x="1949" y="-40.5" font-family="Helvetica,sans-Serif" font-size="10.00">/home/runner/work/Simple</text>
<text text-anchor="start" x="1949" y="-29.5" font-family="Helvetica,sans-Serif" font-size="10.00">&#45;Utility/Simple&#45;Utility</text>
<text text-anchor="start" x="1949" y="-18.5" font-family="Helvetica,sans-Serif" font-size="10.00">/include/Simple&#45;Utility</text>
<text text-anchor="middle" x="2014" y="-7.5" font-family="Helvetica,sans-Serif" font-size="10.00">/nullables.hpp</text>
</a>
</g>
</g>
<!-- Node11&#45;&gt;Node12 -->
<g id="edge17" class="edge">
<title>Node11&#45;&gt;Node12</title>
<path fill="none" stroke="midnightblue" d="M1848.59,-86C1879.14,-75.19 1913.67,-62.98 1943.25,-52.52"/>
<polygon fill="midnightblue" stroke="midnightblue" points="1847.08,-82.82 1838.82,-89.45 1849.42,-89.42 1847.08,-82.82"/>
</g>
<!-- Node13&#45;&gt;Node12 -->
<g id="edge19" class="edge">
<title>Node13&#45;&gt;Node12</title>
<path fill="none" stroke="midnightblue" d="M1962.83,-81.79C1971.94,-72.13 1981.76,-61.71 1990.34,-52.61"/>
<polygon fill="midnightblue" stroke="midnightblue" points="1960.03,-79.66 1955.72,-89.34 1965.12,-84.46 1960.03,-79.66"/>
</g>
<!-- Node14&#45;&gt;Node12 -->
<g id="edge21" class="edge">
<title>Node14&#45;&gt;Node12</title>
<path fill="none" stroke="midnightblue" d="M1523.21,-88.89C1676.31,-56.53 1846.16,-40.05 1940.8,-32.58"/>
<polygon fill="midnightblue" stroke="midnightblue" points="1522.19,-85.53 1513.15,-91.05 1523.66,-92.38 1522.19,-85.53"/>
</g>
<!-- Node15&#45;&gt;Node12 -->
<g id="edge23" class="edge">
<title>Node15&#45;&gt;Node12</title>
<path fill="none" stroke="midnightblue" d="M1687.01,-88.85C1779.62,-66.24 1876.31,-49.18 1940.85,-38.72"/>
<polygon fill="midnightblue" stroke="midnightblue" points="1686.07,-85.48 1677.2,-91.27 1687.75,-92.28 1686.07,-85.48"/>
</g>
<!-- Node16&#45;&gt;Node11 -->
<g id="edge28" class="edge">
<title>Node16&#45;&gt;Node11</title>
<path fill="none" stroke="midnightblue" d="M1819.17,-170.79C1810.06,-161.13 1800.24,-150.71 1791.66,-141.61"/>
<polygon fill="midnightblue" stroke="midnightblue" points="1816.88,-173.46 1826.28,-178.34 1821.97,-168.66 1816.88,-173.46"/>
</g>
<!-- Node16&#45;&gt;Node12 -->
<g id="edge36" class="edge">
<title>Node16&#45;&gt;Node12</title>
<path fill="none" stroke="midnightblue" d="M1933.24,-203.55C2132.54,-202.81 2624.33,-195.51 2674,-142 2690.02,-124.73 2689.86,-106.41 2674,-89 2635.08,-46.28 2250.87,-32.74 2087.21,-28.88"/>
<polygon fill="midnightblue" stroke="midnightblue" points="1933.1,-200.05 1923.11,-203.58 1933.12,-207.05 1933.1,-200.05"/>
</g>
<!-- Node16&#45;&gt;Node13 -->
<g id="edge29" class="edge">
<title>Node16&#45;&gt;Node13</title>
<path fill="none" stroke="midnightblue" d="M1880.83,-170.79C1889.94,-161.13 1899.76,-150.71 1908.34,-141.61"/>
<polygon fill="midnightblue" stroke="midnightblue" points="1878.03,-168.66 1873.72,-178.34 1883.12,-173.46 1878.03,-168.66"/>
</g>
<!-- Node16&#45;&gt;Node14 -->
<g id="edge30" class="edge">
<title>Node16&#45;&gt;Node14</title>
<path fill="none" stroke="midnightblue" d="M1766.82,-190.65C1700.17,-179.69 1604.5,-162.49 1522,-142 1519.11,-141.28 1516.16,-140.52 1513.2,-139.73"/>
<polygon fill="midnightblue" stroke="midnightblue" points="1766.41,-194.13 1776.85,-192.28 1767.54,-187.22 1766.41,-194.13"/>
</g>
<!-- Node16&#45;&gt;Node15 -->
<g id="edge35" class="edge">
<title>Node16&#45;&gt;Node15</title>
<path fill="none" stroke="midnightblue" d="M1769.41,-175C1738.86,-164.19 1704.33,-151.98 1674.75,-141.52"/>
<polygon fill="midnightblue" stroke="midnightblue" points="1768.58,-178.42 1779.18,-178.45 1770.92,-171.82 1768.58,-178.42"/>
</g>
<!-- Node17 -->
<g id="node17" class="node">
<title>Node17</title>
<g id="a_node17"><a xlink:href="../../d6/dca/adapter_8hpp.html" target="_top" xlink:title=" ">
<polygon fill="white" stroke="black" points="2023,-89.5 2023,-141.5 2169,-141.5 2169,-89.5 2023,-89.5"/>
<text text-anchor="start" x="2031" y="-129.5" font-family="Helvetica,sans-Serif" font-size="10.00">/home/runner/work/Simple</text>
<text text-anchor="start" x="2031" y="-118.5" font-family="Helvetica,sans-Serif" font-size="10.00">&#45;Utility/Simple&#45;Utility</text>
<text text-anchor="start" x="2031" y="-107.5" font-family="Helvetica,sans-Serif" font-size="10.00">/include/Simple&#45;Utility</text>
<text text-anchor="middle" x="2096" y="-96.5" font-family="Helvetica,sans-Serif" font-size="10.00">/nullables/adapter.hpp</text>
</a>
</g>
</g>
<!-- Node16&#45;&gt;Node17 -->
<g id="edge26" class="edge">
<title>Node16&#45;&gt;Node17</title>
<path fill="none" stroke="midnightblue" d="M1930.59,-175C1961.14,-164.19 1995.67,-151.98 2025.25,-141.52"/>
<polygon fill="midnightblue" stroke="midnightblue" points="1929.08,-171.82 1920.82,-178.45 1931.42,-178.42 1929.08,-171.82"/>
</g>
<!-- Node18 -->
<g id="node18" class="node">
<title>Node18</title>
<g id="a_node18"><a xlink:href="../../d9/d20/std__optional_8hpp.html" target="_top" xlink:title=" ">
<polygon fill="white" stroke="black" points="2187,-89.5 2187,-141.5 2335,-141.5 2335,-89.5 2187,-89.5"/>
<text text-anchor="start" x="2195" y="-129.5" font-family="Helvetica,sans-Serif" font-size="10.00">/home/runner/work/Simple</text>
<text text-anchor="start" x="2195" y="-118.5" font-family="Helvetica,sans-Serif" font-size="10.00">&#45;Utility/Simple&#45;Utility</text>
<text text-anchor="start" x="2195" y="-107.5" font-family="Helvetica,sans-Serif" font-size="10.00">/include/Simple&#45;Utility</text>
<text text-anchor="middle" x="2261" y="-96.5" font-family="Helvetica,sans-Serif" font-size="10.00">/nullables/std_optional.hpp</text>
</a>
</g>
</g>
<!-- Node16&#45;&gt;Node18 -->
<g id="edge31" class="edge">
<title>Node16&#45;&gt;Node18</title>
<path fill="none" stroke="midnightblue" d="M1933.16,-190.57C1999.8,-179.57 2095.47,-162.35 2178,-142 2180.93,-141.28 2183.9,-140.51 2186.9,-139.72"/>
<polygon fill="midnightblue" stroke="midnightblue" points="1932.44,-187.14 1923.14,-192.21 1933.57,-194.05 1932.44,-187.14"/>
</g>
<!-- Node19 -->
<g id="node19" class="node">
<title>Node19</title>
<g id="a_node19"><a xlink:href="../../d8/d9a/std__pointers_8hpp.html" target="_top" xlink:title=" ">
<polygon fill="white" stroke="black" points="2353,-89.5 2353,-141.5 2501,-141.5 2501,-89.5 2353,-89.5"/>
<text text-anchor="start" x="2361" y="-129.5" font-family="Helvetica,sans-Serif" font-size="10.00">/home/runner/work/Simple</text>
<text text-anchor="start" x="2361" y="-118.5" font-family="Helvetica,sans-Serif" font-size="10.00">&#45;Utility/Simple&#45;Utility</text>
<text text-anchor="start" x="2361" y="-107.5" font-family="Helvetica,sans-Serif" font-size="10.00">/include/Simple&#45;Utility</text>
<text text-anchor="middle" x="2427" y="-96.5" font-family="Helvetica,sans-Serif" font-size="10.00">/nullables/std_pointers.hpp</text>
</a>
</g>
</g>
<!-- Node16&#45;&gt;Node19 -->
<g id="edge33" class="edge">
<title>Node16&#45;&gt;Node19</title>
<path fill="none" stroke="midnightblue" d="M1933.29,-197.58C2032.08,-189.55 2201.37,-172.55 2344,-142 2346.95,-141.37 2349.94,-140.68 2352.96,-139.95"/>
<polygon fill="midnightblue" stroke="midnightblue" points="1932.76,-194.12 1923.07,-198.4 1933.32,-201.09 1932.76,-194.12"/>
</g>
<!-- Node20 -->
<g id="node20" class="node">
<title>Node20</title>
<g id="a_node20"><a xlink:href="../../d0/d0f/unique__handle_8hpp.html" target="_top" xlink:title=" ">
<polygon fill="white" stroke="black" points="2519,-89.5 2519,-141.5 2665,-141.5 2665,-89.5 2519,-89.5"/>
<text text-anchor="start" x="2527" y="-129.5" font-family="Helvetica,sans-Serif" font-size="10.00">/home/runner/work/Simple</text>
<text text-anchor="start" x="2527" y="-118.5" font-family="Helvetica,sans-Serif" font-size="10.00">&#45;Utility/Simple&#45;Utility</text>
<text text-anchor="start" x="2527" y="-107.5" font-family="Helvetica,sans-Serif" font-size="10.00">/include/Simple&#45;Utility</text>
<text text-anchor="middle" x="2592" y="-96.5" font-family="Helvetica,sans-Serif" font-size="10.00">/unique_handle.hpp</text>
</a>
</g>
</g>
<!-- Node16&#45;&gt;Node20 -->
<g id="edge37" class="edge">
<title>Node16&#45;&gt;Node20</title>
<path fill="none" stroke="midnightblue" d="M1933.83,-201.28C2059.96,-196.68 2305.57,-182.85 2510,-142 2512.92,-141.42 2515.89,-140.77 2518.88,-140.07"/>
<polygon fill="midnightblue" stroke="midnightblue" points="1933.35,-197.79 1923.48,-201.64 1933.6,-204.79 1933.35,-197.79"/>
</g>
<!-- Node17&#45;&gt;Node12 -->
<g id="edge27" class="edge">
<title>Node17&#45;&gt;Node12</title>
<path fill="none" stroke="midnightblue" d="M2065.17,-81.79C2056.06,-72.13 2046.24,-61.71 2037.66,-52.61"/>
<polygon fill="midnightblue" stroke="midnightblue" points="2062.88,-84.46 2072.28,-89.34 2067.97,-79.66 2062.88,-84.46"/>
</g>
<!-- Node18&#45;&gt;Node12 -->
<g id="edge32" class="edge">
<title>Node18&#45;&gt;Node12</title>
<path fill="none" stroke="midnightblue" d="M2180.08,-86C2149.4,-75.19 2114.74,-62.98 2085.04,-52.52"/>
<polygon fill="midnightblue" stroke="midnightblue" points="2179.29,-89.43 2189.89,-89.45 2181.62,-82.83 2179.29,-89.43"/>
</g>
<!-- Node19&#45;&gt;Node12 -->
<g id="edge34" class="edge">
<title>Node19&#45;&gt;Node12</title>
<path fill="none" stroke="midnightblue" d="M2343.01,-88.86C2249.63,-66.28 2152.17,-49.18 2087.26,-38.7"/>
<polygon fill="midnightblue" stroke="midnightblue" points="2342.36,-92.3 2352.9,-91.28 2344.02,-85.5 2342.36,-92.3"/>
</g>
<!-- Node21&#45;&gt;Node4 -->
<g id="edge39" class="edge">
<title>Node21&#45;&gt;Node4</title>
<path fill="none" stroke="midnightblue" d="M236.03,-266.87C368.71,-242.25 512.35,-223.79 596.93,-213.76"/>
<polygon fill="midnightblue" stroke="midnightblue" points="235.28,-263.45 226.09,-268.73 236.56,-270.33 235.28,-263.45"/>
</g>
<!-- Node21&#45;&gt;Node6 -->
<g id="edge40" class="edge">
<title>Node21&#45;&gt;Node6</title>
<path fill="none" stroke="midnightblue" d="M175.56,-261.96C243.99,-219.71 373.46,-142.58 490,-89 520.34,-75.05 554.82,-61.97 584.62,-51.49"/>
<polygon fill="midnightblue" stroke="midnightblue" points="173.38,-259.2 166.72,-267.44 177.07,-265.15 173.38,-259.2"/>
</g>
<!-- Node22&#45;&gt;Node4 -->
<g id="edge42" class="edge">
<title>Node22&#45;&gt;Node4</title>
<path fill="none" stroke="midnightblue" d="M446.12,-264.88C495.13,-251.88 552.42,-236.69 596.77,-224.92"/>
<polygon fill="midnightblue" stroke="midnightblue" points="445.2,-261.51 436.43,-267.45 446.99,-268.27 445.2,-261.51"/>
</g>
<!-- Node22&#45;&gt;Node6 -->
<g id="edge43" class="edge">
<title>Node22&#45;&gt;Node6</title>
<path fill="none" stroke="midnightblue" d="M371.86,-260C411.56,-217.8 484.99,-143.14 556,-89 573.35,-75.77 593.72,-63 611.68,-52.56"/>
<polygon fill="midnightblue" stroke="midnightblue" points="369.13,-257.8 364.85,-267.49 374.24,-262.58 369.13,-257.8"/>
</g>
<!-- Node23&#45;&gt;Node4 -->
<g id="edge45" class="edge">
<title>Node23&#45;&gt;Node4</title>
<path fill="none" stroke="midnightblue" d="M695.85,-346.2C693,-323.5 688.84,-293.42 684,-267 681.79,-254.94 678.83,-241.66 676.21,-230.53"/>
<polygon fill="midnightblue" stroke="midnightblue" points="692.41,-346.89 697.11,-356.39 699.36,-346.03 692.41,-346.89"/>
</g>
<!-- Node24&#45;&gt;Node4 -->
<g id="edge47" class="edge">
<title>Node24&#45;&gt;Node4</title>
<path fill="none" stroke="midnightblue" d="M824.32,-352.23C805.7,-343.27 786.39,-332.43 770,-320 736.35,-294.48 705.7,-256.13 687.45,-230.96"/>
<polygon fill="midnightblue" stroke="midnightblue" points="822.85,-355.4 833.39,-356.48 825.82,-349.06 822.85,-355.4"/>
</g>
<!-- Node25&#45;&gt;Node4 -->
<g id="edge49" class="edge">
<title>Node25&#45;&gt;Node4</title>
<path fill="none" stroke="midnightblue" d="M593.15,-261.22C607.02,-251.16 622.19,-240.16 635.37,-230.61"/>
<polygon fill="midnightblue" stroke="midnightblue" points="590.75,-258.63 584.71,-267.34 594.86,-264.3 590.75,-258.63"/>
</g>
<!-- Node25&#45;&gt;Node6 -->
<g id="edge50" class="edge">
<title>Node25&#45;&gt;Node6</title>
<path fill="none" stroke="midnightblue" d="M547.86,-257.25C546.88,-214.55 550.5,-141.77 581,-89 589.3,-74.63 602.37,-62.32 615.4,-52.57"/>
<polygon fill="midnightblue" stroke="midnightblue" points="544.37,-257.55 548.2,-267.43 551.37,-257.32 544.37,-257.55"/>
</g>
<!-- Node26&#45;&gt;Node4 -->
<g id="edge53" class="edge">
<title>Node26&#45;&gt;Node4</title>
<path fill="none" stroke="midnightblue" d="M1004.35,-356.03C915.98,-337.72 883.66,-360.62 808,-320 779.2,-304.54 781.79,-288.31 757,-267 741.99,-254.1 724.33,-241.24 708.86,-230.64"/>
<polygon fill="midnightblue" stroke="midnightblue" points="1003.72,-359.48 1014.24,-358.2 1005.22,-352.64 1003.72,-359.48"/>
</g>
<!-- Node26&#45;&gt;Node6 -->
<g id="edge55" class="edge">
<title>Node26&#45;&gt;Node6</title>
<path fill="none" stroke="midnightblue" d="M1047.54,-350.74C967.75,-300.45 811.61,-203.64 752,-178 698.5,-154.99 661.07,-188.5 626,-142 606.11,-115.64 623.58,-77.5 639.49,-52.61"/>
<polygon fill="midnightblue" stroke="midnightblue" points="1046.09,-353.96 1056.42,-356.34 1049.83,-348.04 1046.09,-353.96"/>
</g>
<!-- Node26&#45;&gt;Node7 -->
<g id="edge54" class="edge">
<title>Node26&#45;&gt;Node7</title>
<path fill="none" stroke="midnightblue" d="M1151.82,-350.41C1164.41,-341.69 1177,-331.42 1187,-320 1210.26,-293.44 1226.61,-255.7 1235.67,-230.92"/>
<polygon fill="midnightblue" stroke="midnightblue" points="1149.52,-347.75 1143.14,-356.2 1153.4,-353.57 1149.52,-347.75"/>
</g>
<!-- Node26&#45;&gt;Node25 -->
<g id="edge52" class="edge">
<title>Node26&#45;&gt;Node25</title>
<path fill="none" stroke="midnightblue" d="M1004.34,-356.03C922.9,-340.23 750.41,-318.51 642.64,-305.48"/>
<polygon fill="midnightblue" stroke="midnightblue" points="1003.79,-359.49 1014.28,-358.02 1005.16,-352.62 1003.79,-359.49"/>
</g>
</g>
</svg>
