<?xml version="1.0" encoding="UTF-8" standalone="no"?>
<!DOCTYPE svg PUBLIC "-//W3C//DTD SVG 1.1//EN"
 "http://www.w3.org/Graphics/SVG/1.1/DTD/svg11.dtd">
<!-- Generated by graphviz version 2.43.0 (0)
 -->
<!-- Title: sl::nullables::adapter&lt; TNull, TAdapted &gt; Pages: 1 -->
<svg width="409pt" height="137pt"
 viewBox="0.00 0.00 409.00 137.00" xmlns="http://www.w3.org/2000/svg" xmlns:xlink="http://www.w3.org/1999/xlink">
<g id="graph0" class="graph" transform="scale(1 1) rotate(0) translate(4 133)">
<title>sl::nullables::adapter&lt; TNull, TAdapted &gt;</title>
<polygon fill="white" stroke="transparent" points="-4,4 -4,-133 405,-133 405,4 -4,4"/>
<!-- Node1 -->
<g id="node1" class="node">
<title>Node1</title>
<g id="a_node1"><a xlink:title="A adapter class, mimic the behaviour of nullable types.">
<polygon fill="#bfbfbf" stroke="black" points="282,-49.5 282,-79.5 401,-79.5 401,-49.5 282,-49.5"/>
<text text-anchor="start" x="290" y="-67.5" font-family="Helvetica,sans-Serif" font-size="10.00">sl::nullables::adapter</text>
<text text-anchor="middle" x="341.5" y="-56.5" font-family="Helvetica,sans-Serif" font-size="10.00">&lt; TNull, TAdapted &gt;</text>
</a>
</g>
</g>
<!-- Node2 -->
<g id="node2" class="node">
<title>Node2</title>
<g id="a_node2"><a xlink:title=" ">
<polygon fill="white" stroke="#bfbfbf" points="0,-98.5 0,-128.5 140,-128.5 140,-98.5 0,-98.5"/>
<text text-anchor="start" x="8" y="-116.5" font-family="Helvetica,sans-Serif" font-size="10.00">sl::nullables::detail</text>
<text text-anchor="middle" x="70" y="-105.5" font-family="Helvetica,sans-Serif" font-size="10.00">::to_nullables_adapter_fn</text>
</a>
</g>
</g>
<!-- Node2&#45;&gt;Node1 -->
<g id="edge1" class="edge">
<title>Node2&#45;&gt;Node1</title>
<path fill="none" stroke="#9a32cd" stroke-dasharray="5,2" d="M150.41,-99.86C185.29,-93.78 226.71,-86.44 264,-79.5 269.72,-78.44 275.68,-77.3 281.63,-76.16"/>
<polygon fill="#9a32cd" stroke="#9a32cd" points="149.54,-96.46 140.29,-101.63 150.74,-103.36 149.54,-96.46"/>
<text text-anchor="middle" x="211" y="-100.5" font-family="Helvetica,sans-Serif" font-size="10.00"> to_nullables_adapter</text>
</g>
<!-- Node3 -->
<g id="node3" class="node">
<title>Node3</title>
<g id="a_node3"><a xlink:href="../../dd/d09/structsl_1_1nullables_1_1in__place__null__t.html" target="_top" xlink:title="Tag type for adapters, which can be used to disambiguate the construction with just a null&#45;object.">
<polygon fill="white" stroke="black" points="9,-49.5 9,-79.5 131,-79.5 131,-49.5 9,-49.5"/>
<text text-anchor="start" x="17" y="-67.5" font-family="Helvetica,sans-Serif" font-size="10.00">sl::nullables::in_place</text>
<text text-anchor="middle" x="70" y="-56.5" font-family="Helvetica,sans-Serif" font-size="10.00">_null_t</text>
</a>
</g>
</g>
<!-- Node3&#45;&gt;Node1 -->
<g id="edge2" class="edge">
<title>Node3&#45;&gt;Node1</title>
<path fill="none" stroke="#9a32cd" stroke-dasharray="5,2" d="M141.42,-64.5C185.13,-64.5 240.63,-64.5 281.93,-64.5"/>
<polygon fill="#9a32cd" stroke="#9a32cd" points="141.15,-61 131.15,-64.5 141.15,-68 141.15,-61"/>
<text text-anchor="middle" x="211" y="-67.5" font-family="Helvetica,sans-Serif" font-size="10.00"> in_place_null</text>
</g>
<!-- Node4 -->
<g id="node4" class="node">
<title>Node4</title>
<g id="a_node4"><a xlink:href="../../d2/d03/structsl_1_1nullables_1_1adapter__null__t.html" target="_top" xlink:title="Dedicated null type for adapters.">
<polygon fill="white" stroke="black" points="10.5,-0.5 10.5,-30.5 129.5,-30.5 129.5,-0.5 10.5,-0.5"/>
<text text-anchor="start" x="18.5" y="-18.5" font-family="Helvetica,sans-Serif" font-size="10.00">sl::nullables::adapter</text>
<text text-anchor="middle" x="70" y="-7.5" font-family="Helvetica,sans-Serif" font-size="10.00">_null_t</text>
</a>
</g>
</g>
<!-- Node4&#45;&gt;Node1 -->
<g id="edge3" class="edge">
<title>Node4&#45;&gt;Node1</title>
<path fill="none" stroke="#9a32cd" stroke-dasharray="5,2" d="M139.89,-27.3C176.74,-33.7 222.88,-41.85 264,-49.5 269.72,-50.56 275.68,-51.7 281.63,-52.84"/>
<polygon fill="#9a32cd" stroke="#9a32cd" points="140.21,-23.81 129.75,-25.55 139.01,-30.7 140.21,-23.81"/>
<text text-anchor="middle" x="211" y="-52.5" font-family="Helvetica,sans-Serif" font-size="10.00"> adapter_null</text>
</g>
</g>
</svg>
