<?xml version="1.0" encoding="UTF-8" standalone="no"?>
<!DOCTYPE svg PUBLIC "-//W3C//DTD SVG 1.1//EN"
 "http://www.w3.org/Graphics/SVG/1.1/DTD/svg11.dtd">
<!-- Generated by graphviz version 7.0.5 (20221223.1930)
 -->
<!-- Title: sl::nullables::adapter&lt; TNull, TAdapted &gt; Pages: 1 -->
<svg width="387pt" height="134pt"
 viewBox="0.00 0.00 387.00 134.00" xmlns="http://www.w3.org/2000/svg" xmlns:xlink="http://www.w3.org/1999/xlink">
<g id="graph0" class="graph" transform="scale(1 1) rotate(0) translate(4 130)">
<title>sl::nullables::adapter&lt; TNull, TAdapted &gt;</title>
<!-- Node1 -->
<g id="node1" class="node">
<title>Node1</title>
<g id="a_node1"><a xlink:title="A adapter class, mimic the behaviour of nullable types.">
<polygon fill="#999999" stroke="#666666" points="379,-78 269,-78 269,-48 379,-48 379,-78"/>
<text text-anchor="start" x="277" y="-66" font-family="Helvetica,sans-Serif" font-size="10.00">sl::nullables::adapter</text>
<text text-anchor="middle" x="324" y="-55" font-family="Helvetica,sans-Serif" font-size="10.00">&lt; TNull, TAdapted &gt;</text>
</a>
</g>
</g>
<!-- Node2 -->
<g id="node2" class="node">
<title>Node2</title>
<g id="a_node2"><a xlink:href="../../d2/d03/structsl_1_1nullables_1_1adapter__null__t.html" target="_top" xlink:title="Dedicated null type for adapters.">
<polygon fill="white" stroke="#666666" points="121.5,-126 11.5,-126 11.5,-96 121.5,-96 121.5,-126"/>
<text text-anchor="start" x="19.5" y="-114" font-family="Helvetica,sans-Serif" font-size="10.00">sl::nullables::adapter</text>
<text text-anchor="middle" x="66.5" y="-103" font-family="Helvetica,sans-Serif" font-size="10.00">_null_t</text>
</a>
</g>
</g>
<!-- Node2&#45;&gt;Node1 -->
<g id="edge1" class="edge">
<title>Node2&#45;&gt;Node1</title>
<path fill="none" stroke="#9a32cd" stroke-dasharray="5,2" d="M132.83,-99.7C167.91,-93.52 211.86,-85.59 251,-78 256.77,-76.88 262.78,-75.68 268.78,-74.46"/>
<polygon fill="#9a32cd" stroke="#9a32cd" points="132.51,-96.2 123.26,-101.38 133.72,-103.1 132.51,-96.2"/>
<text text-anchor="middle" x="201" y="-99" font-family="Helvetica,sans-Serif" font-size="10.00"> adapter_null</text>
</g>
<!-- Node3 -->
<g id="node3" class="node">
<title>Node3</title>
<g id="a_node3"><a xlink:href="../../dd/d09/structsl_1_1nullables_1_1in__place__null__t.html" target="_top" xlink:title="Tag type for adapters, which can be used to disambiguate the construction with just a null&#45;object.">
<polygon fill="white" stroke="#666666" points="122.5,-78 10.5,-78 10.5,-48 122.5,-48 122.5,-78"/>
<text text-anchor="start" x="18.5" y="-66" font-family="Helvetica,sans-Serif" font-size="10.00">sl::nullables::in_place</text>
<text text-anchor="middle" x="66.5" y="-55" font-family="Helvetica,sans-Serif" font-size="10.00">_null_t</text>
</a>
</g>
</g>
<!-- Node3&#45;&gt;Node1 -->
<g id="edge2" class="edge">
<title>Node3&#45;&gt;Node1</title>
<path fill="none" stroke="#9a32cd" stroke-dasharray="5,2" d="M134.41,-63C176.2,-63 229.34,-63 268.55,-63"/>
<polygon fill="#9a32cd" stroke="#9a32cd" points="134.45,-59.5 124.45,-63 134.45,-66.5 134.45,-59.5"/>
<text text-anchor="middle" x="201" y="-66" font-family="Helvetica,sans-Serif" font-size="10.00"> in_place_null</text>
</g>
<!-- Node4 -->
<g id="node4" class="node">
<title>Node4</title>
<g id="a_node4"><a xlink:title=" ">
<polygon fill="white" stroke="#666666" points="133,-30 0,-30 0,0 133,0 133,-30"/>
<text text-anchor="start" x="8" y="-18" font-family="Helvetica,sans-Serif" font-size="10.00">sl::nullables::detail</text>
<text text-anchor="middle" x="66.5" y="-7" font-family="Helvetica,sans-Serif" font-size="10.00">::to_nullables_adapter_fn</text>
</a>
</g>
</g>
<!-- Node4&#45;&gt;Node1 -->
<g id="edge3" class="edge">
<title>Node4&#45;&gt;Node1</title>
<path fill="none" stroke="#9a32cd" stroke-dasharray="5,2" d="M144.32,-28.33C177.21,-34.16 216.03,-41.21 251,-48 256.77,-49.12 262.78,-50.32 268.78,-51.54"/>
<polygon fill="#9a32cd" stroke="#9a32cd" points="145.35,-24.96 134.89,-26.66 144.13,-31.85 145.35,-24.96"/>
<text text-anchor="middle" x="201" y="-51" font-family="Helvetica,sans-Serif" font-size="10.00"> to_nullables_adapter</text>
</g>
</g>
</svg>
