<?xml version="1.0" encoding="UTF-8" standalone="no"?>
<!DOCTYPE svg PUBLIC "-//W3C//DTD SVG 1.1//EN"
 "http://www.w3.org/Graphics/SVG/1.1/DTD/svg11.dtd">
<!-- Generated by graphviz version 8.0.5 (20230430.1635)
 -->
<!-- Title: Simple&#45;Utility/functional/bind_back.hpp Pages: 1 -->
<svg width="554pt" height="168pt"
 viewBox="0.00 0.00 553.50 167.75" xmlns="http://www.w3.org/2000/svg" xmlns:xlink="http://www.w3.org/1999/xlink">
<g id="graph0" class="graph" transform="scale(1 1) rotate(0) translate(4 163.75)">
<title>Simple&#45;Utility/functional/bind_back.hpp</title>
<!-- Node1 -->
<g id="node1" class="node">
<title>Node1</title>
<g id="a_node1"><a xlink:title=" ">
<polygon fill="#999999" stroke="#666666" points="335.75,-159.75 208.75,-159.75 208.75,-126.25 335.75,-126.25 335.75,-159.75"/>
<text text-anchor="start" x="216.75" y="-146.25" font-family="Helvetica,sans-Serif" font-size="10.00">Simple&#45;Utility/functional</text>
<text text-anchor="middle" x="272.25" y="-133.5" font-family="Helvetica,sans-Serif" font-size="10.00">/bind_back.hpp</text>
</a>
</g>
</g>
<!-- Node2 -->
<g id="node2" class="node">
<title>Node2</title>
<g id="a_node2"><a xlink:href="../../d4/dc9/and__then_8hpp.html" target="_top" xlink:title=" ">
<polygon fill="white" stroke="#666666" points="122.5,-90.25 0,-90.25 0,-56.75 122.5,-56.75 122.5,-90.25"/>
<text text-anchor="start" x="8" y="-76.75" font-family="Helvetica,sans-Serif" font-size="10.00">Simple&#45;Utility/nullables</text>
<text text-anchor="middle" x="61.25" y="-64" font-family="Helvetica,sans-Serif" font-size="10.00">/and_then.hpp</text>
</a>
</g>
</g>
<!-- Node1&#45;&gt;Node2 -->
<g id="edge1" class="edge">
<title>Node1&#45;&gt;Node2</title>
<path fill="none" stroke="#63b8ff" d="M211.28,-122.49C179.71,-112.4 141.64,-100.22 111.74,-90.65"/>
<polygon fill="#63b8ff" stroke="#63b8ff" points="210.12,-126.12 220.71,-125.83 212.25,-119.45 210.12,-126.12"/>
</g>
<!-- Node4 -->
<g id="node4" class="node">
<title>Node4</title>
<g id="a_node4"><a xlink:href="../../d7/d5f/fwd__value_8hpp.html" target="_top" xlink:title=" ">
<polygon fill="white" stroke="#666666" points="263.5,-90.25 141,-90.25 141,-56.75 263.5,-56.75 263.5,-90.25"/>
<text text-anchor="start" x="149" y="-76.75" font-family="Helvetica,sans-Serif" font-size="10.00">Simple&#45;Utility/nullables</text>
<text text-anchor="middle" x="202.25" y="-64" font-family="Helvetica,sans-Serif" font-size="10.00">/fwd_value.hpp</text>
</a>
</g>
</g>
<!-- Node1&#45;&gt;Node4 -->
<g id="edge3" class="edge">
<title>Node1&#45;&gt;Node4</title>
<path fill="none" stroke="#63b8ff" d="M247.91,-118.53C238.26,-109.23 227.42,-98.77 218.72,-90.38"/>
<polygon fill="#63b8ff" stroke="#63b8ff" points="245.03,-120.58 254.66,-125 249.89,-115.54 245.03,-120.58"/>
</g>
<!-- Node5 -->
<g id="node5" class="node">
<title>Node5</title>
<g id="a_node5"><a xlink:href="../../d2/d0e/or__else_8hpp.html" target="_top" xlink:title=" ">
<polygon fill="white" stroke="#666666" points="404.5,-90.25 282,-90.25 282,-56.75 404.5,-56.75 404.5,-90.25"/>
<text text-anchor="start" x="290" y="-76.75" font-family="Helvetica,sans-Serif" font-size="10.00">Simple&#45;Utility/nullables</text>
<text text-anchor="middle" x="343.25" y="-64" font-family="Helvetica,sans-Serif" font-size="10.00">/or_else.hpp</text>
</a>
</g>
</g>
<!-- Node1&#45;&gt;Node5 -->
<g id="edge5" class="edge">
<title>Node1&#45;&gt;Node5</title>
<path fill="none" stroke="#63b8ff" d="M296.94,-118.53C306.72,-109.23 317.72,-98.77 326.54,-90.38"/>
<polygon fill="#63b8ff" stroke="#63b8ff" points="294.91,-115.58 290.08,-125 299.74,-120.65 294.91,-115.58"/>
</g>
<!-- Node6 -->
<g id="node6" class="node">
<title>Node6</title>
<g id="a_node6"><a xlink:href="../../d0/d48/value__or_8hpp.html" target="_top" xlink:title=" ">
<polygon fill="white" stroke="#666666" points="545.5,-90.25 423,-90.25 423,-56.75 545.5,-56.75 545.5,-90.25"/>
<text text-anchor="start" x="431" y="-76.75" font-family="Helvetica,sans-Serif" font-size="10.00">Simple&#45;Utility/nullables</text>
<text text-anchor="middle" x="484.25" y="-64" font-family="Helvetica,sans-Serif" font-size="10.00">/value_or.hpp</text>
</a>
</g>
</g>
<!-- Node1&#45;&gt;Node6 -->
<g id="edge7" class="edge">
<title>Node1&#45;&gt;Node6</title>
<path fill="none" stroke="#63b8ff" d="M333.1,-122.63C364.89,-112.5 403.35,-100.26 433.52,-90.65"/>
<polygon fill="#63b8ff" stroke="#63b8ff" points="332.5,-119.46 324.03,-125.83 334.62,-126.13 332.5,-119.46"/>
</g>
<!-- Node3 -->
<g id="node3" class="node">
<title>Node3</title>
<g id="a_node3"><a xlink:href="../../d3/ddc/nullables_8hpp.html" target="_top" xlink:title=" ">
<polygon fill="white" stroke="#666666" points="343.62,-20.75 200.88,-20.75 200.88,0 343.62,0 343.62,-20.75"/>
<text text-anchor="middle" x="272.25" y="-7.25" font-family="Helvetica,sans-Serif" font-size="10.00">Simple&#45;Utility/nullables.hpp</text>
</a>
</g>
</g>
<!-- Node2&#45;&gt;Node3 -->
<g id="edge2" class="edge">
<title>Node2&#45;&gt;Node3</title>
<path fill="none" stroke="#63b8ff" d="M127.42,-53.33C164.29,-42.65 208.63,-29.81 238.46,-21.17"/>
<polygon fill="#63b8ff" stroke="#63b8ff" points="126.87,-50.14 118.24,-56.28 128.82,-56.86 126.87,-50.14"/>
</g>
<!-- Node4&#45;&gt;Node3 -->
<g id="edge4" class="edge">
<title>Node4&#45;&gt;Node3</title>
<path fill="none" stroke="#63b8ff" d="M228.84,-49.28C239.97,-39.56 252.31,-28.79 260.98,-21.22"/>
<polygon fill="#63b8ff" stroke="#63b8ff" points="226.87,-47.23 221.64,-56.44 231.48,-52.5 226.87,-47.23"/>
</g>
<!-- Node5&#45;&gt;Node3 -->
<g id="edge6" class="edge">
<title>Node5&#45;&gt;Node3</title>
<path fill="none" stroke="#63b8ff" d="M316.28,-49.28C304.99,-39.56 292.47,-28.79 283.68,-21.22"/>
<polygon fill="#63b8ff" stroke="#63b8ff" points="313.73,-52.57 323.6,-56.44 318.3,-47.26 313.73,-52.57"/>
</g>
<!-- Node6&#45;&gt;Node3 -->
<g id="edge8" class="edge">
<title>Node6&#45;&gt;Node3</title>
<path fill="none" stroke="#63b8ff" d="M417.76,-53.33C380.73,-42.65 336.17,-29.81 306.2,-21.17"/>
<polygon fill="#63b8ff" stroke="#63b8ff" points="416.42,-56.87 426.99,-56.28 418.36,-50.15 416.42,-56.87"/>
</g>
</g>
</svg>
