<?xml version="1.0" encoding="UTF-8" standalone="no"?>
<!DOCTYPE svg PUBLIC "-//W3C//DTD SVG 1.1//EN"
 "http://www.w3.org/Graphics/SVG/1.1/DTD/svg11.dtd">
<!-- Generated by graphviz version 8.0.5 (20230430.1635)
 -->
<!-- Title: Simple&#45;Utility/functional/bind_back.hpp Pages: 1 -->
<svg width="719pt" height="168pt"
 viewBox="0.00 0.00 718.88 167.75" xmlns="http://www.w3.org/2000/svg" xmlns:xlink="http://www.w3.org/1999/xlink">
<g id="graph0" class="graph" transform="scale(1 1) rotate(0) translate(4 163.75)">
<title>Simple&#45;Utility/functional/bind_back.hpp</title>
<!-- Node1 -->
<g id="node1" class="node">
<title>Node1</title>
<g id="a_node1"><a xlink:title=" ">
<polygon fill="#999999" stroke="#666666" points="431.12,-159.75 304.12,-159.75 304.12,-126.25 431.12,-126.25 431.12,-159.75"/>
<text text-anchor="start" x="312.12" y="-146.25" font-family="Helvetica,sans-Serif" font-size="10.00">Simple&#45;Utility/functional</text>
<text text-anchor="middle" x="367.62" y="-133.5" font-family="Helvetica,sans-Serif" font-size="10.00">/bind_back.hpp</text>
</a>
</g>
</g>
<!-- Node2 -->
<g id="node2" class="node">
<title>Node2</title>
<g id="a_node2"><a xlink:href="../../d2/db4/functional_8hpp.html" target="_top" xlink:title=" ">
<polygon fill="white" stroke="#666666" points="147.25,-83.88 0,-83.88 0,-63.12 147.25,-63.12 147.25,-83.88"/>
<text text-anchor="middle" x="73.62" y="-70.38" font-family="Helvetica,sans-Serif" font-size="10.00">Simple&#45;Utility/functional.hpp</text>
</a>
</g>
</g>
<!-- Node1&#45;&gt;Node2 -->
<g id="edge1" class="edge">
<title>Node1&#45;&gt;Node2</title>
<path fill="none" stroke="#63b8ff" d="M293.27,-124.93C237.35,-112.09 162.7,-94.95 116.41,-84.32"/>
<polygon fill="#63b8ff" stroke="#63b8ff" points="292.3,-128.53 302.83,-127.35 293.87,-121.7 292.3,-128.53"/>
</g>
<!-- Node3 -->
<g id="node3" class="node">
<title>Node3</title>
<g id="a_node3"><a xlink:href="../../d4/dc9/and__then_8hpp.html" target="_top" xlink:title=" ">
<polygon fill="white" stroke="#666666" points="287.88,-90.25 165.38,-90.25 165.38,-56.75 287.88,-56.75 287.88,-90.25"/>
<text text-anchor="start" x="173.38" y="-76.75" font-family="Helvetica,sans-Serif" font-size="10.00">Simple&#45;Utility/nullables</text>
<text text-anchor="middle" x="226.62" y="-64" font-family="Helvetica,sans-Serif" font-size="10.00">/and_then.hpp</text>
</a>
</g>
</g>
<!-- Node1&#45;&gt;Node3 -->
<g id="edge2" class="edge">
<title>Node1&#45;&gt;Node3</title>
<path fill="none" stroke="#63b8ff" d="M324.07,-121.15C303.47,-111.29 279.26,-99.7 260.12,-90.54"/>
<polygon fill="#63b8ff" stroke="#63b8ff" points="322.32,-124.67 332.85,-125.83 325.34,-118.36 322.32,-124.67"/>
</g>
<!-- Node5 -->
<g id="node5" class="node">
<title>Node5</title>
<g id="a_node5"><a xlink:href="../../d7/d5f/fwd__value_8hpp.html" target="_top" xlink:title=" ">
<polygon fill="white" stroke="#666666" points="428.88,-90.25 306.38,-90.25 306.38,-56.75 428.88,-56.75 428.88,-90.25"/>
<text text-anchor="start" x="314.38" y="-76.75" font-family="Helvetica,sans-Serif" font-size="10.00">Simple&#45;Utility/nullables</text>
<text text-anchor="middle" x="367.62" y="-64" font-family="Helvetica,sans-Serif" font-size="10.00">/fwd_value.hpp</text>
</a>
</g>
</g>
<!-- Node1&#45;&gt;Node5 -->
<g id="edge4" class="edge">
<title>Node1&#45;&gt;Node5</title>
<path fill="none" stroke="#63b8ff" d="M367.62,-115.14C367.62,-106.75 367.62,-97.76 367.62,-90.38"/>
<polygon fill="#63b8ff" stroke="#63b8ff" points="364.13,-115 367.62,-125 371.13,-115 364.13,-115"/>
</g>
<!-- Node6 -->
<g id="node6" class="node">
<title>Node6</title>
<g id="a_node6"><a xlink:href="../../d2/d0e/or__else_8hpp.html" target="_top" xlink:title=" ">
<polygon fill="white" stroke="#666666" points="569.88,-90.25 447.38,-90.25 447.38,-56.75 569.88,-56.75 569.88,-90.25"/>
<text text-anchor="start" x="455.38" y="-76.75" font-family="Helvetica,sans-Serif" font-size="10.00">Simple&#45;Utility/nullables</text>
<text text-anchor="middle" x="508.62" y="-64" font-family="Helvetica,sans-Serif" font-size="10.00">/or_else.hpp</text>
</a>
</g>
</g>
<!-- Node1&#45;&gt;Node6 -->
<g id="edge6" class="edge">
<title>Node1&#45;&gt;Node6</title>
<path fill="none" stroke="#63b8ff" d="M411.18,-121.15C431.78,-111.29 455.99,-99.7 475.13,-90.54"/>
<polygon fill="#63b8ff" stroke="#63b8ff" points="409.91,-118.36 402.4,-125.83 412.93,-124.67 409.91,-118.36"/>
</g>
<!-- Node7 -->
<g id="node7" class="node">
<title>Node7</title>
<g id="a_node7"><a xlink:href="../../d0/d48/value__or_8hpp.html" target="_top" xlink:title=" ">
<polygon fill="white" stroke="#666666" points="710.88,-90.25 588.38,-90.25 588.38,-56.75 710.88,-56.75 710.88,-90.25"/>
<text text-anchor="start" x="596.38" y="-76.75" font-family="Helvetica,sans-Serif" font-size="10.00">Simple&#45;Utility/nullables</text>
<text text-anchor="middle" x="649.62" y="-64" font-family="Helvetica,sans-Serif" font-size="10.00">/value_or.hpp</text>
</a>
</g>
</g>
<!-- Node1&#45;&gt;Node7 -->
<g id="edge8" class="edge">
<title>Node1&#45;&gt;Node7</title>
<path fill="none" stroke="#63b8ff" d="M442.04,-124.19C487.65,-113.27 545.33,-99.46 588.31,-89.18"/>
<polygon fill="#63b8ff" stroke="#63b8ff" points="441.53,-120.95 432.62,-126.68 443.16,-127.76 441.53,-120.95"/>
</g>
<!-- Node4 -->
<g id="node4" class="node">
<title>Node4</title>
<g id="a_node4"><a xlink:href="../../d3/ddc/nullables_8hpp.html" target="_top" xlink:title=" ">
<polygon fill="white" stroke="#666666" points="509,-20.75 366.25,-20.75 366.25,0 509,0 509,-20.75"/>
<text text-anchor="middle" x="437.62" y="-7.25" font-family="Helvetica,sans-Serif" font-size="10.00">Simple&#45;Utility/nullables.hpp</text>
</a>
</g>
</g>
<!-- Node3&#45;&gt;Node4 -->
<g id="edge3" class="edge">
<title>Node3&#45;&gt;Node4</title>
<path fill="none" stroke="#63b8ff" d="M292.8,-53.33C329.66,-42.65 374,-29.81 403.83,-21.17"/>
<polygon fill="#63b8ff" stroke="#63b8ff" points="292.25,-50.14 283.62,-56.28 294.19,-56.86 292.25,-50.14"/>
</g>
<!-- Node5&#45;&gt;Node4 -->
<g id="edge5" class="edge">
<title>Node5&#45;&gt;Node4</title>
<path fill="none" stroke="#63b8ff" d="M394.21,-49.28C405.35,-39.56 417.69,-28.79 426.35,-21.22"/>
<polygon fill="#63b8ff" stroke="#63b8ff" points="392.25,-47.23 387.02,-56.44 396.85,-52.5 392.25,-47.23"/>
</g>
<!-- Node6&#45;&gt;Node4 -->
<g id="edge7" class="edge">
<title>Node6&#45;&gt;Node4</title>
<path fill="none" stroke="#63b8ff" d="M481.66,-49.28C470.37,-39.56 457.85,-28.79 449.06,-21.22"/>
<polygon fill="#63b8ff" stroke="#63b8ff" points="479.11,-52.57 488.97,-56.44 483.68,-47.26 479.11,-52.57"/>
</g>
<!-- Node7&#45;&gt;Node4 -->
<g id="edge9" class="edge">
<title>Node7&#45;&gt;Node4</title>
<path fill="none" stroke="#63b8ff" d="M583.14,-53.33C546.1,-42.65 501.55,-29.81 471.58,-21.17"/>
<polygon fill="#63b8ff" stroke="#63b8ff" points="581.79,-56.87 592.37,-56.28 583.73,-50.15 581.79,-56.87"/>
</g>
</g>
</svg>
