<?xml version="1.0" encoding="UTF-8" standalone="no"?>
<!DOCTYPE svg PUBLIC "-//W3C//DTD SVG 1.1//EN"
 "http://www.w3.org/Graphics/SVG/1.1/DTD/svg11.dtd">
<!-- Generated by graphviz version 2.43.0 (0)
 -->
<!-- Title: /home/runner/work/Simple&#45;Utility/Simple&#45;Utility/include/Simple&#45;Utility/functional/base.hpp Pages: 1 -->
<svg width="700pt" height="184pt"
 viewBox="0.00 0.00 699.93 184.00" xmlns="http://www.w3.org/2000/svg" xmlns:xlink="http://www.w3.org/1999/xlink">
<g id="graph0" class="graph" transform="scale(1 1) rotate(0) translate(4 180)">
<title>/home/runner/work/Simple&#45;Utility/Simple&#45;Utility/include/Simple&#45;Utility/functional/base.hpp</title>
<polygon fill="white" stroke="transparent" points="-4,4 -4,-180 695.93,-180 695.93,4 -4,4"/>
<!-- Node1 -->
<g id="node1" class="node">
<title>Node1</title>
<g id="a_node1"><a xlink:title=" ">
<polygon fill="#bfbfbf" stroke="black" points="233.84,-123.5 233.84,-175.5 379.84,-175.5 379.84,-123.5 233.84,-123.5"/>
<text text-anchor="start" x="241.84" y="-163.5" font-family="Helvetica,sans-Serif" font-size="10.00">/home/runner/work/Simple</text>
<text text-anchor="start" x="241.84" y="-152.5" font-family="Helvetica,sans-Serif" font-size="10.00">&#45;Utility/Simple&#45;Utility</text>
<text text-anchor="start" x="241.84" y="-141.5" font-family="Helvetica,sans-Serif" font-size="10.00">/include/Simple&#45;Utility</text>
<text text-anchor="middle" x="306.84" y="-130.5" font-family="Helvetica,sans-Serif" font-size="10.00">/functional/base.hpp</text>
</a>
</g>
</g>
<!-- Node2 -->
<g id="node2" class="node">
<title>Node2</title>
<g id="a_node2"><a xlink:title=" ">
<polygon fill="white" stroke="#bfbfbf" points="503.84,-0.5 503.84,-19.5 563.84,-19.5 563.84,-0.5 503.84,-0.5"/>
<text text-anchor="middle" x="533.84" y="-7.5" font-family="Helvetica,sans-Serif" font-size="10.00">concepts</text>
</a>
</g>
</g>
<!-- Node1&#45;&gt;Node2 -->
<g id="edge1" class="edge">
<title>Node1&#45;&gt;Node2</title>
<path fill="none" stroke="midnightblue" d="M379.86,-147.38C478.28,-144.14 645.61,-131.97 683.84,-87 717.94,-46.88 629.52,-25.57 574.3,-16.47"/>
<polygon fill="midnightblue" stroke="midnightblue" points="574.5,-12.96 564.08,-14.87 573.42,-19.88 574.5,-12.96"/>
</g>
<!-- Node3 -->
<g id="node3" class="node">
<title>Node3</title>
<g id="a_node3"><a xlink:title=" ">
<polygon fill="white" stroke="#bfbfbf" points="15.34,-62 15.34,-81 80.34,-81 80.34,-62 15.34,-62"/>
<text text-anchor="middle" x="47.84" y="-69" font-family="Helvetica,sans-Serif" font-size="10.00">functional</text>
</a>
</g>
</g>
<!-- Node1&#45;&gt;Node3 -->
<g id="edge2" class="edge">
<title>Node1&#45;&gt;Node3</title>
<path fill="none" stroke="midnightblue" d="M233.7,-128.88C191.48,-117.27 137.47,-101.96 89.84,-87 87.08,-86.13 84.22,-85.21 81.37,-84.26"/>
<polygon fill="midnightblue" stroke="midnightblue" points="82.34,-80.9 71.75,-81.02 80.1,-87.53 82.34,-80.9"/>
</g>
<!-- Node4 -->
<g id="node4" class="node">
<title>Node4</title>
<g id="a_node4"><a xlink:title=" ">
<polygon fill="white" stroke="#bfbfbf" points="38.34,-0.5 38.34,-19.5 107.34,-19.5 107.34,-0.5 38.34,-0.5"/>
<text text-anchor="middle" x="72.84" y="-7.5" font-family="Helvetica,sans-Serif" font-size="10.00">type_traits</text>
</a>
</g>
</g>
<!-- Node1&#45;&gt;Node4 -->
<g id="edge3" class="edge">
<title>Node1&#45;&gt;Node4</title>
<path fill="none" stroke="midnightblue" d="M233.56,-143.91C153.87,-137.21 34.04,-121.55 5.84,-87 -2.88,-76.33 -0.64,-68.16 5.84,-56 13.39,-41.83 27.6,-31.33 41,-24.06"/>
<polygon fill="midnightblue" stroke="midnightblue" points="42.67,-27.13 50.05,-19.53 39.54,-20.87 42.67,-27.13"/>
</g>
<!-- Node5 -->
<g id="node5" class="node">
<title>Node5</title>
<g id="a_node5"><a xlink:href="../../d8/dd2/_config_8hpp.html" target="_top" xlink:title=" ">
<polygon fill="white" stroke="black" points="237.34,-62 237.34,-81 376.34,-81 376.34,-62 237.34,-62"/>
<text text-anchor="middle" x="306.84" y="-69" font-family="Helvetica,sans-Serif" font-size="10.00">Simple&#45;Utility/Config.hpp</text>
</a>
</g>
</g>
<!-- Node1&#45;&gt;Node5 -->
<g id="edge4" class="edge">
<title>Node1&#45;&gt;Node5</title>
<path fill="none" stroke="midnightblue" d="M306.84,-123.19C306.84,-112.76 306.84,-100.9 306.84,-91.27"/>
<polygon fill="midnightblue" stroke="midnightblue" points="310.34,-91.21 306.84,-81.21 303.34,-91.21 310.34,-91.21"/>
</g>
<!-- Node6 -->
<g id="node6" class="node">
<title>Node6</title>
<g id="a_node6"><a xlink:href="../../d4/d1c/unified__base_8hpp.html" target="_top" xlink:title=" ">
<polygon fill="white" stroke="black" points="98.84,-56.5 98.84,-86.5 218.84,-86.5 218.84,-56.5 98.84,-56.5"/>
<text text-anchor="start" x="106.84" y="-74.5" font-family="Helvetica,sans-Serif" font-size="10.00">Simple&#45;Utility/unified</text>
<text text-anchor="middle" x="158.84" y="-63.5" font-family="Helvetica,sans-Serif" font-size="10.00">_base.hpp</text>
</a>
</g>
</g>
<!-- Node1&#45;&gt;Node6 -->
<g id="edge5" class="edge">
<title>Node1&#45;&gt;Node6</title>
<path fill="none" stroke="midnightblue" d="M257.97,-123.4C237.65,-112.97 214.48,-101.07 195.64,-91.4"/>
<polygon fill="midnightblue" stroke="midnightblue" points="197,-88.16 186.5,-86.71 193.8,-94.39 197,-88.16"/>
</g>
<!-- Node7 -->
<g id="node7" class="node">
<title>Node7</title>
<g id="a_node7"><a xlink:href="../../dd/d5c/stl__extensions_8hpp.html" target="_top" xlink:title=" ">
<polygon fill="white" stroke="black" points="394.34,-56.5 394.34,-86.5 525.34,-86.5 525.34,-56.5 394.34,-56.5"/>
<text text-anchor="start" x="402.34" y="-74.5" font-family="Helvetica,sans-Serif" font-size="10.00">Simple&#45;Utility/concepts</text>
<text text-anchor="middle" x="459.84" y="-63.5" font-family="Helvetica,sans-Serif" font-size="10.00">/stl_extensions.hpp</text>
</a>
</g>
</g>
<!-- Node1&#45;&gt;Node7 -->
<g id="edge8" class="edge">
<title>Node1&#45;&gt;Node7</title>
<path fill="none" stroke="midnightblue" d="M357.36,-123.4C378.45,-112.93 402.54,-100.96 422.06,-91.27"/>
<polygon fill="midnightblue" stroke="midnightblue" points="423.84,-94.29 431.24,-86.71 420.72,-88.02 423.84,-94.29"/>
</g>
<!-- Node8 -->
<g id="node8" class="node">
<title>Node8</title>
<g id="a_node8"><a xlink:href="../../d5/d8e/concepts_2utility_8hpp.html" target="_top" xlink:title=" ">
<polygon fill="white" stroke="black" points="543.34,-56.5 543.34,-86.5 674.34,-86.5 674.34,-56.5 543.34,-56.5"/>
<text text-anchor="start" x="551.34" y="-74.5" font-family="Helvetica,sans-Serif" font-size="10.00">Simple&#45;Utility/concepts</text>
<text text-anchor="middle" x="608.84" y="-63.5" font-family="Helvetica,sans-Serif" font-size="10.00">/utility.hpp</text>
</a>
</g>
</g>
<!-- Node1&#45;&gt;Node8 -->
<g id="edge10" class="edge">
<title>Node1&#45;&gt;Node8</title>
<path fill="none" stroke="midnightblue" d="M379.94,-130.1C429.65,-117.59 494.86,-101.18 542.96,-89.08"/>
<polygon fill="midnightblue" stroke="midnightblue" points="544.11,-92.4 552.96,-86.56 542.4,-85.61 544.11,-92.4"/>
</g>
<!-- Node6&#45;&gt;Node2 -->
<g id="edge6" class="edge">
<title>Node6&#45;&gt;Node2</title>
<path fill="none" stroke="midnightblue" d="M219.01,-57.63C221.99,-57.06 224.94,-56.52 227.84,-56 322.83,-39.05 435.25,-23.72 493.82,-16.09"/>
<polygon fill="midnightblue" stroke="midnightblue" points="494.3,-19.56 503.77,-14.8 493.4,-12.62 494.3,-19.56"/>
</g>
<!-- Node6&#45;&gt;Node4 -->
<g id="edge7" class="edge">
<title>Node6&#45;&gt;Node4</title>
<path fill="none" stroke="midnightblue" d="M138.46,-56.4C124.93,-47.04 107.23,-34.79 93.62,-25.38"/>
<polygon fill="midnightblue" stroke="midnightblue" points="95.57,-22.47 85.35,-19.66 91.58,-28.23 95.57,-22.47"/>
</g>
<!-- Node7&#45;&gt;Node2 -->
<g id="edge9" class="edge">
<title>Node7&#45;&gt;Node2</title>
<path fill="none" stroke="midnightblue" d="M477.37,-56.4C488.68,-47.31 503.38,-35.49 514.94,-26.19"/>
<polygon fill="midnightblue" stroke="midnightblue" points="517.47,-28.65 523.07,-19.66 513.08,-23.2 517.47,-28.65"/>
</g>
<!-- Node8&#45;&gt;Node2 -->
<g id="edge11" class="edge">
<title>Node8&#45;&gt;Node2</title>
<path fill="none" stroke="midnightblue" d="M591.06,-56.4C579.49,-47.22 564.41,-35.26 552.64,-25.92"/>
<polygon fill="midnightblue" stroke="midnightblue" points="554.76,-23.13 544.75,-19.66 550.41,-28.61 554.76,-23.13"/>
</g>
</g>
</svg>
