<?xml version="1.0" encoding="UTF-8" standalone="no"?>
<!DOCTYPE svg PUBLIC "-//W3C//DTD SVG 1.1//EN"
 "http://www.w3.org/Graphics/SVG/1.1/DTD/svg11.dtd">
<!-- Generated by graphviz version 7.0.5 (20221223.1930)
 -->
<!-- Title: Simple&#45;Utility/functional/base.hpp Pages: 1 -->
<svg width="665pt" height="159pt"
 viewBox="0.00 0.00 664.53 159.00" xmlns="http://www.w3.org/2000/svg" xmlns:xlink="http://www.w3.org/1999/xlink">
<g id="graph0" class="graph" transform="scale(1 1) rotate(0) translate(4 155)">
<title>Simple&#45;Utility/functional/base.hpp</title>
<!-- Node1 -->
<g id="node1" class="node">
<title>Node1</title>
<g id="a_node1"><a xlink:title=" ">
<polygon fill="#999999" stroke="#666666" points="356.68,-151 228.68,-151 228.68,-121 356.68,-121 356.68,-151"/>
<text text-anchor="start" x="236.68" y="-139" font-family="Helvetica,sans-Serif" font-size="10.00">Simple&#45;Utility/functional</text>
<text text-anchor="middle" x="292.68" y="-128" font-family="Helvetica,sans-Serif" font-size="10.00">/base.hpp</text>
</a>
</g>
</g>
<!-- Node2 -->
<g id="node2" class="node">
<title>Node2</title>
<g id="a_node2"><a xlink:title=" ">
<polygon fill="#e0e0e0" stroke="#999999" points="537.18,-19 480.18,-19 480.18,0 537.18,0 537.18,-19"/>
<text text-anchor="middle" x="508.68" y="-7" font-family="Helvetica,sans-Serif" font-size="10.00">concepts</text>
</a>
</g>
</g>
<!-- Node1&#45;&gt;Node2 -->
<g id="edge1" class="edge">
<title>Node1&#45;&gt;Node2</title>
<path fill="none" stroke="#63b8ff" d="M356.91,-135.62C449.01,-134.97 611.63,-127.63 648.68,-85 680.84,-48.01 600.56,-26.44 548.68,-16.73"/>
<polygon fill="#63b8ff" stroke="#63b8ff" points="549.4,-13.3 538.95,-14.99 548.18,-20.19 549.4,-13.3"/>
</g>
<!-- Node3 -->
<g id="node3" class="node">
<title>Node3</title>
<g id="a_node3"><a xlink:title=" ">
<polygon fill="#e0e0e0" stroke="#999999" points="76.68,-79.5 14.68,-79.5 14.68,-60.5 76.68,-60.5 76.68,-79.5"/>
<text text-anchor="middle" x="45.68" y="-67.5" font-family="Helvetica,sans-Serif" font-size="10.00">functional</text>
</a>
</g>
</g>
<!-- Node1&#45;&gt;Node3 -->
<g id="edge2" class="edge">
<title>Node1&#45;&gt;Node3</title>
<path fill="none" stroke="#63b8ff" d="M228.37,-121.2C187.28,-111.96 133.02,-98.96 85.68,-85 84.1,-84.53 82.48,-84.04 80.85,-83.53"/>
<polygon fill="#63b8ff" stroke="#63b8ff" points="82.13,-80.26 71.53,-80.45 79.93,-86.91 82.13,-80.26"/>
</g>
<!-- Node4 -->
<g id="node4" class="node">
<title>Node4</title>
<g id="a_node4"><a xlink:title=" ">
<polygon fill="#e0e0e0" stroke="#999999" points="102.18,-19 37.18,-19 37.18,0 102.18,0 102.18,-19"/>
<text text-anchor="middle" x="69.68" y="-7" font-family="Helvetica,sans-Serif" font-size="10.00">type_traits</text>
</a>
</g>
</g>
<!-- Node1&#45;&gt;Node4 -->
<g id="edge3" class="edge">
<title>Node1&#45;&gt;Node4</title>
<path fill="none" stroke="#63b8ff" d="M228.31,-133.09C152.57,-129.32 33.56,-118.15 5.68,-85 -2.9,-74.79 -0.49,-66.82 5.68,-55 12.49,-41.98 25.04,-31.99 37.23,-24.82"/>
<polygon fill="#63b8ff" stroke="#63b8ff" points="38.77,-27.97 45.93,-20.16 35.46,-21.8 38.77,-27.97"/>
</g>
<!-- Node5 -->
<g id="node5" class="node">
<title>Node5</title>
<g id="a_node5"><a xlink:href="../../d8/dd2/_config_8hpp.html" target="_top" xlink:title=" ">
<polygon fill="white" stroke="#666666" points="359.18,-79.5 226.18,-79.5 226.18,-60.5 359.18,-60.5 359.18,-79.5"/>
<text text-anchor="middle" x="292.68" y="-67.5" font-family="Helvetica,sans-Serif" font-size="10.00">Simple&#45;Utility/Config.hpp</text>
</a>
</g>
</g>
<!-- Node1&#45;&gt;Node5 -->
<g id="edge4" class="edge">
<title>Node1&#45;&gt;Node5</title>
<path fill="none" stroke="#63b8ff" d="M292.68,-120.8C292.68,-112.09 292.68,-100.81 292.68,-91.18"/>
<polygon fill="#63b8ff" stroke="#63b8ff" points="296.18,-91.36 292.68,-81.36 289.18,-91.36 296.18,-91.36"/>
</g>
<!-- Node6 -->
<g id="node6" class="node">
<title>Node6</title>
<g id="a_node6"><a xlink:href="../../d4/d1c/unified__base_8hpp.html" target="_top" xlink:title=" ">
<polygon fill="white" stroke="#666666" points="208.18,-85 95.18,-85 95.18,-55 208.18,-55 208.18,-85"/>
<text text-anchor="start" x="103.18" y="-73" font-family="Helvetica,sans-Serif" font-size="10.00">Simple&#45;Utility/unified</text>
<text text-anchor="middle" x="151.68" y="-62" font-family="Helvetica,sans-Serif" font-size="10.00">_base.hpp</text>
</a>
</g>
</g>
<!-- Node1&#45;&gt;Node6 -->
<g id="edge5" class="edge">
<title>Node1&#45;&gt;Node6</title>
<path fill="none" stroke="#63b8ff" d="M261.04,-120.64C241.09,-111.58 215.09,-99.78 193.45,-89.96"/>
<polygon fill="#63b8ff" stroke="#63b8ff" points="195.15,-86.89 184.6,-85.94 192.26,-93.26 195.15,-86.89"/>
</g>
<!-- Node7 -->
<g id="node7" class="node">
<title>Node7</title>
<g id="a_node7"><a xlink:href="../../dd/d5c/stl__extensions_8hpp.html" target="_top" xlink:title=" ">
<polygon fill="white" stroke="#666666" points="499.68,-85 377.68,-85 377.68,-55 499.68,-55 499.68,-85"/>
<text text-anchor="start" x="385.68" y="-73" font-family="Helvetica,sans-Serif" font-size="10.00">Simple&#45;Utility/concepts</text>
<text text-anchor="middle" x="438.68" y="-62" font-family="Helvetica,sans-Serif" font-size="10.00">/stl_extensions.hpp</text>
</a>
</g>
</g>
<!-- Node1&#45;&gt;Node7 -->
<g id="edge8" class="edge">
<title>Node1&#45;&gt;Node7</title>
<path fill="none" stroke="#63b8ff" d="M325.45,-120.64C346.13,-111.57 373.09,-99.75 395.51,-89.93"/>
<polygon fill="#63b8ff" stroke="#63b8ff" points="396.64,-93.25 404.39,-86.03 393.83,-86.84 396.64,-93.25"/>
</g>
<!-- Node8 -->
<g id="node8" class="node">
<title>Node8</title>
<g id="a_node8"><a xlink:href="../../d5/d8e/concepts_2utility_8hpp.html" target="_top" xlink:title=" ">
<polygon fill="white" stroke="#666666" points="639.68,-85 517.68,-85 517.68,-55 639.68,-55 639.68,-85"/>
<text text-anchor="start" x="525.68" y="-73" font-family="Helvetica,sans-Serif" font-size="10.00">Simple&#45;Utility/concepts</text>
<text text-anchor="middle" x="578.68" y="-62" font-family="Helvetica,sans-Serif" font-size="10.00">/utility.hpp</text>
</a>
</g>
</g>
<!-- Node1&#45;&gt;Node8 -->
<g id="edge10" class="edge">
<title>Node1&#45;&gt;Node8</title>
<path fill="none" stroke="#63b8ff" d="M356.87,-120.64C401.3,-110.7 460.48,-97.45 506.54,-87.14"/>
<polygon fill="#63b8ff" stroke="#63b8ff" points="507.18,-90.59 516.18,-84.99 505.65,-83.76 507.18,-90.59"/>
</g>
<!-- Node6&#45;&gt;Node2 -->
<g id="edge6" class="edge">
<title>Node6&#45;&gt;Node2</title>
<path fill="none" stroke="#63b8ff" d="M208.36,-56.58C211.17,-56.03 213.96,-55.5 216.68,-55 306.38,-38.52 412.38,-23.46 468.74,-15.8"/>
<polygon fill="#63b8ff" stroke="#63b8ff" points="469.05,-19.29 478.49,-14.48 468.11,-12.36 469.05,-19.29"/>
</g>
<!-- Node6&#45;&gt;Node4 -->
<g id="edge7" class="edge">
<title>Node6&#45;&gt;Node4</title>
<path fill="none" stroke="#63b8ff" d="M131.41,-54.54C119.14,-45.78 103.5,-34.63 91.04,-25.73"/>
<polygon fill="#63b8ff" stroke="#63b8ff" points="93.25,-23.01 83.08,-20.05 89.18,-28.71 93.25,-23.01"/>
</g>
<!-- Node7&#45;&gt;Node2 -->
<g id="edge9" class="edge">
<title>Node7&#45;&gt;Node2</title>
<path fill="none" stroke="#63b8ff" d="M455.99,-54.54C466.15,-46.04 479.03,-35.29 489.5,-26.53"/>
<polygon fill="#63b8ff" stroke="#63b8ff" points="491.71,-29.24 497.14,-20.15 487.22,-23.87 491.71,-29.24"/>
</g>
<!-- Node8&#45;&gt;Node2 -->
<g id="edge11" class="edge">
<title>Node8&#45;&gt;Node2</title>
<path fill="none" stroke="#63b8ff" d="M561.38,-54.54C551.21,-46.04 538.34,-35.29 527.87,-26.53"/>
<polygon fill="#63b8ff" stroke="#63b8ff" points="530.14,-23.87 520.23,-20.15 525.65,-29.24 530.14,-23.87"/>
</g>
</g>
</svg>
