<?xml version="1.0" encoding="UTF-8" standalone="no"?>
<!DOCTYPE svg PUBLIC "-//W3C//DTD SVG 1.1//EN"
 "http://www.w3.org/Graphics/SVG/1.1/DTD/svg11.dtd">
<!-- Generated by graphviz version 8.0.5 (20230430.1635)
 -->
<!-- Title: Simple&#45;Utility/functional/base.hpp Pages: 1 -->
<svg width="661pt" height="168pt"
 viewBox="0.00 0.00 661.29 167.75" xmlns="http://www.w3.org/2000/svg" xmlns:xlink="http://www.w3.org/1999/xlink">
<g id="graph0" class="graph" transform="scale(1 1) rotate(0) translate(4 163.75)">
<title>Simple&#45;Utility/functional/base.hpp</title>
<!-- Node1 -->
<g id="node1" class="node">
<title>Node1</title>
<g id="a_node1"><a xlink:title=" ">
<polygon fill="#999999" stroke="#666666" points="354.8,-159.75 227.8,-159.75 227.8,-126.25 354.8,-126.25 354.8,-159.75"/>
<text text-anchor="start" x="235.8" y="-146.25" font-family="Helvetica,sans-Serif" font-size="10.00">Simple&#45;Utility/functional</text>
<text text-anchor="middle" x="291.3" y="-133.5" font-family="Helvetica,sans-Serif" font-size="10.00">/base.hpp</text>
</a>
</g>
</g>
<!-- Node2 -->
<g id="node2" class="node">
<title>Node2</title>
<g id="a_node2"><a xlink:title=" ">
<polygon fill="#e0e0e0" stroke="#999999" points="534.55,-20.75 478.05,-20.75 478.05,0 534.55,0 534.55,-20.75"/>
<text text-anchor="middle" x="506.3" y="-7.25" font-family="Helvetica,sans-Serif" font-size="10.00">concepts</text>
</a>
</g>
</g>
<!-- Node1&#45;&gt;Node2 -->
<g id="edge1" class="edge">
<title>Node1&#45;&gt;Node2</title>
<path fill="none" stroke="#63b8ff" d="M354.98,-142.26C446.78,-141.12 609.37,-132.94 646.3,-90.25 656.03,-78.99 655.05,-68.79 646.3,-56.75 623.48,-25.37 578.48,-15.25 545.64,-12.21"/>
<polygon fill="#63b8ff" stroke="#63b8ff" points="546.24,-8.68 536.01,-11.43 545.73,-15.66 546.24,-8.68"/>
</g>
<!-- Node3 -->
<g id="node3" class="node">
<title>Node3</title>
<g id="a_node3"><a xlink:title=" ">
<polygon fill="#e0e0e0" stroke="#999999" points="77.17,-83.88 15.42,-83.88 15.42,-63.12 77.17,-63.12 77.17,-83.88"/>
<text text-anchor="middle" x="46.3" y="-70.38" font-family="Helvetica,sans-Serif" font-size="10.00">functional</text>
</a>
</g>
</g>
<!-- Node1&#45;&gt;Node3 -->
<g id="edge2" class="edge">
<title>Node1&#45;&gt;Node3</title>
<path fill="none" stroke="#63b8ff" d="M227.44,-128.1C186.69,-118.68 132.95,-105.25 86.3,-90.25 84.19,-89.57 82.03,-88.84 79.86,-88.07"/>
<polygon fill="#63b8ff" stroke="#63b8ff" points="81.4,-84.54 70.8,-84.33 78.96,-91.1 81.4,-84.54"/>
</g>
<!-- Node4 -->
<g id="node4" class="node">
<title>Node4</title>
<g id="a_node4"><a xlink:title=" ">
<polygon fill="#e0e0e0" stroke="#999999" points="101.3,-20.75 37.3,-20.75 37.3,0 101.3,0 101.3,-20.75"/>
<text text-anchor="middle" x="69.3" y="-7.25" font-family="Helvetica,sans-Serif" font-size="10.00">type_traits</text>
</a>
</g>
</g>
<!-- Node1&#45;&gt;Node4 -->
<g id="edge3" class="edge">
<title>Node1&#45;&gt;Node4</title>
<path fill="none" stroke="#63b8ff" d="M227.34,-139.61C152.1,-135.29 33.89,-123.31 6.3,-90.25 -3.25,-78.82 -0.49,-70 6.3,-56.75 12.89,-43.88 25.02,-33.82 36.9,-26.49"/>
<polygon fill="#63b8ff" stroke="#63b8ff" points="38.28,-29.16 45.25,-21.18 34.83,-23.07 38.28,-29.16"/>
</g>
<!-- Node5 -->
<g id="node5" class="node">
<title>Node5</title>
<g id="a_node5"><a xlink:href="../../d8/dd2/_config_8hpp.html" target="_top" xlink:title=" ">
<polygon fill="white" stroke="#666666" points="357.42,-83.88 225.17,-83.88 225.17,-63.12 357.42,-63.12 357.42,-83.88"/>
<text text-anchor="middle" x="291.3" y="-70.38" font-family="Helvetica,sans-Serif" font-size="10.00">Simple&#45;Utility/Config.hpp</text>
</a>
</g>
</g>
<!-- Node1&#45;&gt;Node5 -->
<g id="edge4" class="edge">
<title>Node1&#45;&gt;Node5</title>
<path fill="none" stroke="#63b8ff" d="M291.3,-126C291.3,-116.8 291.3,-105.14 291.3,-95.24"/>
<polygon fill="#63b8ff" stroke="#63b8ff" points="294.8,-95.32 291.3,-85.32 287.8,-95.32 294.8,-95.32"/>
</g>
<!-- Node6 -->
<g id="node6" class="node">
<title>Node6</title>
<g id="a_node6"><a xlink:href="../../d4/d1c/unified__base_8hpp.html" target="_top" xlink:title=" ">
<polygon fill="white" stroke="#666666" points="207.3,-90.25 95.3,-90.25 95.3,-56.75 207.3,-56.75 207.3,-90.25"/>
<text text-anchor="start" x="103.3" y="-76.75" font-family="Helvetica,sans-Serif" font-size="10.00">Simple&#45;Utility/unified</text>
<text text-anchor="middle" x="151.3" y="-64" font-family="Helvetica,sans-Serif" font-size="10.00">_base.hpp</text>
</a>
</g>
</g>
<!-- Node1&#45;&gt;Node6 -->
<g id="edge5" class="edge">
<title>Node1&#45;&gt;Node6</title>
<path fill="none" stroke="#63b8ff" d="M257.76,-125.83C238.71,-116.65 214.67,-105.05 194.25,-95.21"/>
<polygon fill="#63b8ff" stroke="#63b8ff" points="196.08,-91.73 185.56,-90.54 193.04,-98.03 196.08,-91.73"/>
</g>
<!-- Node7 -->
<g id="node7" class="node">
<title>Node7</title>
<g id="a_node7"><a xlink:href="../../dd/d5c/stl__extensions_8hpp.html" target="_top" xlink:title=" ">
<polygon fill="white" stroke="#666666" points="497.17,-90.25 375.42,-90.25 375.42,-56.75 497.17,-56.75 497.17,-90.25"/>
<text text-anchor="start" x="383.42" y="-76.75" font-family="Helvetica,sans-Serif" font-size="10.00">Simple&#45;Utility/concepts</text>
<text text-anchor="middle" x="436.3" y="-64" font-family="Helvetica,sans-Serif" font-size="10.00">/stl_extensions.hpp</text>
</a>
</g>
</g>
<!-- Node1&#45;&gt;Node7 -->
<g id="edge8" class="edge">
<title>Node1&#45;&gt;Node7</title>
<path fill="none" stroke="#63b8ff" d="M326.03,-125.83C345.77,-116.64 370.7,-105.03 391.86,-95.18"/>
<polygon fill="#63b8ff" stroke="#63b8ff" points="393.01,-98.05 400.6,-90.65 390.05,-91.7 393.01,-98.05"/>
</g>
<!-- Node8 -->
<g id="node8" class="node">
<title>Node8</title>
<g id="a_node8"><a xlink:href="../../d5/d8e/concepts_2utility_8hpp.html" target="_top" xlink:title=" ">
<polygon fill="white" stroke="#666666" points="637.17,-90.25 515.42,-90.25 515.42,-56.75 637.17,-56.75 637.17,-90.25"/>
<text text-anchor="start" x="523.42" y="-76.75" font-family="Helvetica,sans-Serif" font-size="10.00">Simple&#45;Utility/concepts</text>
<text text-anchor="middle" x="576.3" y="-64" font-family="Helvetica,sans-Serif" font-size="10.00">/utility.hpp</text>
</a>
</g>
</g>
<!-- Node1&#45;&gt;Node8 -->
<g id="edge10" class="edge">
<title>Node1&#45;&gt;Node8</title>
<path fill="none" stroke="#63b8ff" d="M355.25,-126.85C399.56,-116.36 458.6,-102.38 504.52,-91.5"/>
<polygon fill="#63b8ff" stroke="#63b8ff" points="505.07,-94.73 513.99,-89.02 503.46,-87.92 505.07,-94.73"/>
</g>
<!-- Node6&#45;&gt;Node2 -->
<g id="edge6" class="edge">
<title>Node6&#45;&gt;Node2</title>
<path fill="none" stroke="#63b8ff" d="M207.6,-58.56C210.54,-57.92 213.45,-57.32 216.3,-56.75 305.37,-39.02 410.97,-23.99 466.92,-16.49"/>
<polygon fill="#63b8ff" stroke="#63b8ff" points="467.3,-19.83 476.75,-15.04 466.38,-12.89 467.3,-19.83"/>
</g>
<!-- Node6&#45;&gt;Node4 -->
<g id="edge7" class="edge">
<title>Node6&#45;&gt;Node4</title>
<path fill="none" stroke="#63b8ff" d="M129.75,-56.44C117.8,-47.53 102.98,-36.49 91.01,-27.56"/>
<polygon fill="#63b8ff" stroke="#63b8ff" points="93.61,-24.39 83.5,-21.22 89.42,-30 93.61,-24.39"/>
</g>
<!-- Node7&#45;&gt;Node2 -->
<g id="edge9" class="edge">
<title>Node7&#45;&gt;Node2</title>
<path fill="none" stroke="#63b8ff" d="M454.69,-56.44C464.59,-47.8 476.8,-37.13 486.85,-28.35"/>
<polygon fill="#63b8ff" stroke="#63b8ff" points="488.79,-30.43 494.02,-21.22 484.19,-25.16 488.79,-30.43"/>
</g>
<!-- Node8&#45;&gt;Node2 -->
<g id="edge11" class="edge">
<title>Node8&#45;&gt;Node2</title>
<path fill="none" stroke="#63b8ff" d="M557.9,-56.44C548,-47.8 535.8,-37.13 525.74,-28.35"/>
<polygon fill="#63b8ff" stroke="#63b8ff" points="528.4,-25.16 518.57,-21.22 523.8,-30.43 528.4,-25.16"/>
</g>
</g>
</svg>
