<?xml version="1.0" encoding="UTF-8" standalone="no"?>
<!DOCTYPE svg PUBLIC "-//W3C//DTD SVG 1.1//EN"
 "http://www.w3.org/Graphics/SVG/1.1/DTD/svg11.dtd">
<!-- Generated by graphviz version 2.43.0 (0)
 -->
<!-- Title: sl::functional::enable_operation&lt; TClosureTemplate, TOperationTags &gt; Pages: 1 -->
<!--zoomable 276 -->
<svg id="main" version="1.1" xmlns="http://www.w3.org/2000/svg" xmlns:xlink="http://www.w3.org/1999/xlink" xml:space="preserve" onload="init(evt)">
<style type="text/css"><![CDATA[
.edge:hover path { stroke: red; }
.edge:hover polygon { stroke: red; fill: red; }
]]></style>
<script type="text/javascript"><![CDATA[
var edges = document.getElementsByTagName('g');
if (edges && edges.length) {
  for (var i=0;i<edges.length;i++) {
    if (edges[i].id.substr(0,4)=='edge') {
      edges[i].setAttribute('class','edge');
    }
  }
}
]]></script>
        <defs>
                <circle id="rim" cx="0" cy="0" r="7"/>
                <circle id="rim2" cx="0" cy="0" r="3.5"/>
                <g id="zoomPlus">
                        <use xlink:href="#rim" fill="#404040">
                                <set attributeName="fill" to="#808080" begin="zoomplus.mouseover" end="zoomplus.mouseout"/>
                        </use>
                        <path d="M-4,0h8M0,-4v8" fill="none" stroke="white" stroke-width="1.5" pointer-events="none"/>
                </g>
                <g id="zoomMin">
                        <use xlink:href="#rim" fill="#404040">
                                <set attributeName="fill" to="#808080" begin="zoomminus.mouseover" end="zoomminus.mouseout"/>
                        </use>
                        <path d="M-4,0h8" fill="none" stroke="white" stroke-width="1.5" pointer-events="none"/>
                </g>
                <g id="dirArrow">
                        <path fill="none" stroke="white" stroke-width="1.5" d="M0,-3.0v7 M-2.5,-0.5L0,-3.0L2.5,-0.5"/>
                </g>
               <g id="resetDef">
                       <use xlink:href="#rim2" fill="#404040">
                               <set attributeName="fill" to="#808080" begin="reset.mouseover" end="reset.mouseout"/>
                       </use>
               </g>
        </defs>

<script type="text/javascript">
var viewWidth = 1298;
var viewHeight = 276;
var sectionId = 'dynsection-0';
</script>
<script xlink:href="../../svgpan.js"/>
<svg id="graph" class="graph">
<g id="viewport">
<title>sl::functional::enable_operation&lt; TClosureTemplate, TOperationTags &gt;</title>
<polygon fill="white" stroke="transparent" points="-4,4 -4,-271.5 1294,-271.5 1294,4 -4,4"/>
<!-- Node1 -->
<g id="node1" class="node">
<title>Node1</title>
<g id="a_node1"><a xlink:title=" ">
<polygon fill="#bfbfbf" stroke="black" points="511,-83 511,-124 681,-124 681,-83 511,-83"/>
<text text-anchor="start" x="519" y="-112" font-family="Helvetica,sans-Serif" font-size="10.00">sl::functional::enable</text>
<text text-anchor="start" x="519" y="-101" font-family="Helvetica,sans-Serif" font-size="10.00">_operation&lt; TClosureTemplate,</text>
<text text-anchor="middle" x="596" y="-90" font-family="Helvetica,sans-Serif" font-size="10.00"> TOperationTags &gt;</text>
</a>
</g>
</g>
<!-- Node5 -->
<g id="node5" class="node">
<title>Node5</title>
<g id="a_node5"><a xlink:href="../../d0/d50/structsl_1_1functional_1_1enable__operation.html" target="_top" xlink:title=" ">
<polygon fill="white" stroke="black" points="910,-154.5 910,-250.5 1119,-250.5 1119,-154.5 910,-154.5"/>
<text text-anchor="start" x="918" y="-238.5" font-family="Helvetica,sans-Serif" font-size="10.00">sl::functional::enable</text>
<text text-anchor="start" x="918" y="-227.5" font-family="Helvetica,sans-Serif" font-size="10.00">_operation&lt; predicate</text>
<text text-anchor="start" x="918" y="-216.5" font-family="Helvetica,sans-Serif" font-size="10.00">_fn, operators::pipe, operators</text>
<text text-anchor="start" x="918" y="-205.5" font-family="Helvetica,sans-Serif" font-size="10.00">::bind_front, operators::bind</text>
<text text-anchor="start" x="918" y="-194.5" font-family="Helvetica,sans-Serif" font-size="10.00">_back, operators::disjunction,</text>
<text text-anchor="start" x="918" y="-183.5" font-family="Helvetica,sans-Serif" font-size="10.00"> operators::conjunction, operators</text>
<text text-anchor="start" x="918" y="-172.5" font-family="Helvetica,sans-Serif" font-size="10.00">::equal, operators::not_equal, operators</text>
<text text-anchor="middle" x="1014.5" y="-161.5" font-family="Helvetica,sans-Serif" font-size="10.00">::equivalent, operators::negate &gt;</text>
</a>
</g>
</g>
<!-- Node1&#45;&gt;Node5 -->
<g id="edge4" class="edge">
<title>Node1&#45;&gt;Node5</title>
<path fill="none" stroke="orange" stroke-dasharray="5,2" d="M643.43,-128.7C660.49,-137.05 680.23,-145.69 699,-151.5 767.69,-172.77 847.72,-185.59 909.86,-193.06"/>
<polygon fill="orange" stroke="orange" points="644.76,-125.45 634.26,-124.11 641.63,-131.71 644.76,-125.45"/>
<text text-anchor="start" x="699" y="-259.5" font-family="Helvetica,sans-Serif" font-size="10.00"> &lt; predicate_fn, operators</text>
<text text-anchor="start" x="699" y="-248.5" font-family="Helvetica,sans-Serif" font-size="10.00">::pipe, operators::bind</text>
<text text-anchor="start" x="699" y="-237.5" font-family="Helvetica,sans-Serif" font-size="10.00">_front, operators::bind</text>
<text text-anchor="start" x="699" y="-226.5" font-family="Helvetica,sans-Serif" font-size="10.00">_back, operators::disjunction,</text>
<text text-anchor="start" x="699" y="-215.5" font-family="Helvetica,sans-Serif" font-size="10.00"> operators::conjunction, operators</text>
<text text-anchor="start" x="699" y="-204.5" font-family="Helvetica,sans-Serif" font-size="10.00">::equal, operators::not_equal, operators</text>
<text text-anchor="middle" x="795.5" y="-193.5" font-family="Helvetica,sans-Serif" font-size="10.00">::equivalent, operators::negate &gt;</text>
</g>
<!-- Node7 -->
<g id="node7" class="node">
<title>Node7</title>
<g id="a_node7"><a xlink:href="../../d0/d50/structsl_1_1functional_1_1enable__operation.html" target="_top" xlink:title=" ">
<polygon fill="white" stroke="black" points="925,-72 925,-135 1104,-135 1104,-72 925,-72"/>
<text text-anchor="start" x="933" y="-123" font-family="Helvetica,sans-Serif" font-size="10.00">sl::functional::enable</text>
<text text-anchor="start" x="933" y="-112" font-family="Helvetica,sans-Serif" font-size="10.00">_operation&lt; algorithm</text>
<text text-anchor="start" x="933" y="-101" font-family="Helvetica,sans-Serif" font-size="10.00">_fn, functional::operators</text>
<text text-anchor="start" x="933" y="-90" font-family="Helvetica,sans-Serif" font-size="10.00">::bind_back, functional::operators</text>
<text text-anchor="middle" x="1014.5" y="-79" font-family="Helvetica,sans-Serif" font-size="10.00">::bind_front &gt;</text>
</a>
</g>
</g>
<!-- Node1&#45;&gt;Node7 -->
<g id="edge6" class="edge">
<title>Node1&#45;&gt;Node7</title>
<path fill="none" stroke="orange" stroke-dasharray="5,2" d="M691.19,-103.5C761.25,-103.5 856.23,-103.5 924.92,-103.5"/>
<polygon fill="orange" stroke="orange" points="691.03,-100 681.03,-103.5 691.03,-107 691.03,-100"/>
<text text-anchor="start" x="729.5" y="-139.5" font-family="Helvetica,sans-Serif" font-size="10.00"> &lt; algorithm_fn, functional</text>
<text text-anchor="start" x="729.5" y="-128.5" font-family="Helvetica,sans-Serif" font-size="10.00">::operators::bind_back,</text>
<text text-anchor="start" x="729.5" y="-117.5" font-family="Helvetica,sans-Serif" font-size="10.00"> functional::operators::bind</text>
<text text-anchor="middle" x="795.5" y="-106.5" font-family="Helvetica,sans-Serif" font-size="10.00">_front &gt;</text>
</g>
<!-- Node9 -->
<g id="node9" class="node">
<title>Node9</title>
<g id="a_node9"><a xlink:href="../../d0/d50/structsl_1_1functional_1_1enable__operation.html" target="_top" xlink:title=" ">
<polygon fill="white" stroke="black" points="919,-0.5 919,-52.5 1110,-52.5 1110,-0.5 919,-0.5"/>
<text text-anchor="start" x="927" y="-40.5" font-family="Helvetica,sans-Serif" font-size="10.00">sl::functional::enable</text>
<text text-anchor="start" x="927" y="-29.5" font-family="Helvetica,sans-Serif" font-size="10.00">_operation&lt; transform</text>
<text text-anchor="start" x="927" y="-18.5" font-family="Helvetica,sans-Serif" font-size="10.00">_fn, operators::pipe, operators</text>
<text text-anchor="middle" x="1014.5" y="-7.5" font-family="Helvetica,sans-Serif" font-size="10.00">::bind_front, operators::bind_back &gt;</text>
</a>
</g>
</g>
<!-- Node1&#45;&gt;Node9 -->
<g id="edge8" class="edge">
<title>Node1&#45;&gt;Node9</title>
<path fill="none" stroke="orange" stroke-dasharray="5,2" d="M656.09,-79.56C669.98,-74.64 684.87,-69.92 699,-66.5 771.76,-48.91 855.97,-38.72 918.93,-33.03"/>
<polygon fill="orange" stroke="orange" points="654.85,-76.29 646.65,-82.99 657.24,-82.87 654.85,-76.29"/>
<text text-anchor="start" x="721.5" y="-91.5" font-family="Helvetica,sans-Serif" font-size="10.00"> &lt; transform_fn, operators</text>
<text text-anchor="start" x="721.5" y="-80.5" font-family="Helvetica,sans-Serif" font-size="10.00">::pipe, operators::bind</text>
<text text-anchor="middle" x="795.5" y="-69.5" font-family="Helvetica,sans-Serif" font-size="10.00">_front, operators::bind_back &gt;</text>
</g>
<!-- Node2 -->
<g id="node2" class="node">
<title>Node2</title>
<g id="a_node2"><a xlink:href="../../d6/d62/structsl_1_1unified__base.html" target="_top" xlink:title=" ">
<polygon fill="white" stroke="black" points="306,-120.5 306,-150.5 474,-150.5 474,-120.5 306,-120.5"/>
<text text-anchor="start" x="314" y="-138.5" font-family="Helvetica,sans-Serif" font-size="10.00">sl::unified_base&lt; detail</text>
<text text-anchor="middle" x="390" y="-127.5" font-family="Helvetica,sans-Serif" font-size="10.00">::enable_operators_base_tag &gt;</text>
</a>
</g>
</g>
<!-- Node2&#45;&gt;Node1 -->
<g id="edge1" class="edge">
<title>Node2&#45;&gt;Node1</title>
<path fill="none" stroke="#8b1a1a" d="M484.19,-120.88C493.02,-119.5 501.93,-118.1 510.67,-116.73"/>
<polygon fill="#8b1a1a" stroke="#8b1a1a" points="483.61,-117.43 474.27,-122.44 484.69,-124.35 483.61,-117.43"/>
</g>
<!-- Node3 -->
<g id="node3" class="node">
<title>Node3</title>
<g id="a_node3"><a xlink:href="../../d6/d62/structsl_1_1unified__base.html" target="_top" xlink:title="Helper type, which can be used to create a unified base class for templated derived classes and thus ...">
<polygon fill="white" stroke="black" points="0,-126 0,-145 137,-145 137,-126 0,-126"/>
<text text-anchor="middle" x="68.5" y="-133" font-family="Helvetica,sans-Serif" font-size="10.00">sl::unified_base&lt; TTag &gt;</text>
</a>
</g>
</g>
<!-- Node3&#45;&gt;Node2 -->
<g id="edge2" class="edge">
<title>Node3&#45;&gt;Node2</title>
<path fill="none" stroke="orange" stroke-dasharray="5,2" d="M147.28,-135.5C195.25,-135.5 256.75,-135.5 305.71,-135.5"/>
<polygon fill="orange" stroke="orange" points="147.26,-132 137.26,-135.5 147.26,-139 147.26,-132"/>
<text text-anchor="start" x="155" y="-149.5" font-family="Helvetica,sans-Serif" font-size="10.00"> &lt; detail::enable_operators</text>
<text text-anchor="middle" x="221.5" y="-138.5" font-family="Helvetica,sans-Serif" font-size="10.00">_base_tag &gt;</text>
</g>
<!-- Node4 -->
<g id="node4" class="node">
<title>Node4</title>
<g id="a_node4"><a xlink:title=" ">
<polygon fill="white" stroke="#bfbfbf" points="344,-82 344,-101 436,-101 436,-82 344,-82"/>
<text text-anchor="middle" x="390" y="-89" font-family="Helvetica,sans-Serif" font-size="10.00">TOperationTags</text>
</a>
</g>
</g>
<!-- Node4&#45;&gt;Node1 -->
<g id="edge3" class="edge">
<title>Node4&#45;&gt;Node1</title>
<path fill="none" stroke="midnightblue" d="M446.11,-94.74C465.98,-95.91 488.88,-97.26 510.67,-98.54"/>
<polygon fill="midnightblue" stroke="midnightblue" points="446.21,-91.24 436.02,-94.15 445.8,-98.23 446.21,-91.24"/>
</g>
<!-- Node6 -->
<g id="node6" class="node">
<title>Node6</title>
<g id="a_node6"><a xlink:href="../../df/d86/classsl_1_1functional_1_1predicate__fn.html" target="_top" xlink:title="Adapter type for predicates, which accepts a functional type and enables pipe, conjunctive and disjun...">
<polygon fill="white" stroke="black" points="1157.5,-187.5 1157.5,-217.5 1288.5,-217.5 1288.5,-187.5 1157.5,-187.5"/>
<text text-anchor="start" x="1165.5" y="-205.5" font-family="Helvetica,sans-Serif" font-size="10.00">sl::functional::predicate</text>
<text text-anchor="middle" x="1223" y="-194.5" font-family="Helvetica,sans-Serif" font-size="10.00">_fn&lt; TFunc &gt;</text>
</a>
</g>
</g>
<!-- Node5&#45;&gt;Node6 -->
<g id="edge5" class="edge">
<title>Node5&#45;&gt;Node6</title>
<path fill="none" stroke="midnightblue" d="M1129.16,-202.5C1138.82,-202.5 1148.36,-202.5 1157.44,-202.5"/>
<polygon fill="midnightblue" stroke="midnightblue" points="1129.05,-199 1119.05,-202.5 1129.05,-206 1129.05,-199"/>
</g>
<!-- Node8 -->
<g id="node8" class="node">
<title>Node8</title>
<g id="a_node8"><a xlink:href="../../d6/d3b/classsl_1_1nullables_1_1algorithm__fn.html" target="_top" xlink:title="The core algorithm helper, which executes the held algorithm when used as the right&#45;hand&#45;side of oper...">
<polygon fill="white" stroke="black" points="1159,-88.5 1159,-118.5 1287,-118.5 1287,-88.5 1159,-88.5"/>
<text text-anchor="start" x="1167" y="-106.5" font-family="Helvetica,sans-Serif" font-size="10.00">sl::nullables::algorithm</text>
<text text-anchor="middle" x="1223" y="-95.5" font-family="Helvetica,sans-Serif" font-size="10.00">_fn&lt; TFunc &gt;</text>
</a>
</g>
</g>
<!-- Node7&#45;&gt;Node8 -->
<g id="edge7" class="edge">
<title>Node7&#45;&gt;Node8</title>
<path fill="none" stroke="midnightblue" d="M1114.65,-103.5C1129.7,-103.5 1144.86,-103.5 1158.85,-103.5"/>
<polygon fill="midnightblue" stroke="midnightblue" points="1114.27,-100 1104.27,-103.5 1114.27,-107 1114.27,-100"/>
</g>
<!-- Node10 -->
<g id="node10" class="node">
<title>Node10</title>
<g id="a_node10"><a xlink:href="../../da/dbe/classsl_1_1functional_1_1transform__fn.html" target="_top" xlink:title="Adapter type which accepts a functional type and enables pipe chaining and currying.">
<polygon fill="white" stroke="black" points="1156,-11.5 1156,-41.5 1290,-41.5 1290,-11.5 1156,-11.5"/>
<text text-anchor="start" x="1164" y="-29.5" font-family="Helvetica,sans-Serif" font-size="10.00">sl::functional::transform</text>
<text text-anchor="middle" x="1223" y="-18.5" font-family="Helvetica,sans-Serif" font-size="10.00">_fn&lt; TFunc &gt;</text>
</a>
</g>
</g>
<!-- Node9&#45;&gt;Node10 -->
<g id="edge9" class="edge">
<title>Node9&#45;&gt;Node10</title>
<path fill="none" stroke="midnightblue" d="M1120.4,-26.5C1132.44,-26.5 1144.46,-26.5 1155.79,-26.5"/>
<polygon fill="midnightblue" stroke="midnightblue" points="1120.29,-23 1110.29,-26.5 1120.29,-30 1120.29,-23"/>
</g>
</g>
</svg>
        <g id="navigator" transform="translate(0 0)" fill="#404254">
                <rect fill="#f2f5e9" fill-opacity="0.5" stroke="#606060" stroke-width=".5" x="0" y="0" width="60" height="60"/>
                <use id="zoomplus" xlink:href="#zoomPlus" x="17" y="9" onmousedown="handleZoom(evt,'in')"/>
                <use id="zoomminus" xlink:href="#zoomMin" x="42" y="9" onmousedown="handleZoom(evt,'out')"/>
                <use id="reset" xlink:href="#resetDef" x="30" y="36" onmousedown="handleReset()"/>
                <g id="arrowUp" xlink:href="#dirArrow" transform="translate(30 24)" onmousedown="handlePan(0,-1)">
                  <use xlink:href="#rim" fill="#404040">
                        <set attributeName="fill" to="#808080" begin="arrowUp.mouseover" end="arrowUp.mouseout"/>
                  </use>
                  <path fill="none" stroke="white" stroke-width="1.5" d="M0,-3.0v7 M-2.5,-0.5L0,-3.0L2.5,-0.5"/>
                </g>
                <g id="arrowRight" xlink:href="#dirArrow" transform="rotate(90) translate(36 -43)" onmousedown="handlePan(1,0)">
                  <use xlink:href="#rim" fill="#404040">
                        <set attributeName="fill" to="#808080" begin="arrowRight.mouseover" end="arrowRight.mouseout"/>
                  </use>
                  <path fill="none" stroke="white" stroke-width="1.5" d="M0,-3.0v7 M-2.5,-0.5L0,-3.0L2.5,-0.5"/>
                </g>
                <g id="arrowDown" xlink:href="#dirArrow" transform="rotate(180) translate(-30 -48)" onmousedown="handlePan(0,1)">
                  <use xlink:href="#rim" fill="#404040">
                        <set attributeName="fill" to="#808080" begin="arrowDown.mouseover" end="arrowDown.mouseout"/>
                  </use>
                  <path fill="none" stroke="white" stroke-width="1.5" d="M0,-3.0v7 M-2.5,-0.5L0,-3.0L2.5,-0.5"/>
                </g>
                <g id="arrowLeft" xlink:href="#dirArrow" transform="rotate(270) translate(-36 17)" onmousedown="handlePan(-1,0)">
                  <use xlink:href="#rim" fill="#404040">
                        <set attributeName="fill" to="#808080" begin="arrowLeft.mouseover" end="arrowLeft.mouseout"/>
                  </use>
                  <path fill="none" stroke="white" stroke-width="1.5" d="M0,-3.0v7 M-2.5,-0.5L0,-3.0L2.5,-0.5"/>
                </g>
        </g>
        <svg viewBox="0 0 15 15" width="100%" height="30px" preserveAspectRatio="xMaxYMin meet">
         <g id="arrow_out" transform="scale(0.3 0.3)">
          <a xlink:href="structsl_1_1functional_1_1enable__operation__inherit__graph_org.svg" target="_base">
           <rect id="button" ry="5" rx="5" y="6" x="6" height="38" width="38"
                fill="#f2f5e9" fill-opacity="0.5" stroke="#606060" stroke-width="1.0"/>
           <path id="arrow"
             d="M 11.500037,31.436501 C 11.940474,20.09759 22.043105,11.32322 32.158766,21.979434 L 37.068811,17.246167 C 37.068811,17.246167 37.088388,32 37.088388,32 L 22.160133,31.978069 C 22.160133,31.978069 26.997745,27.140456 26.997745,27.140456 C 18.528582,18.264221 13.291696,25.230495 11.500037,31.436501 z"
             style="fill:#404040;"/>
          </a>
         </g>
        </svg>
</svg>
