<?xml version="1.0" encoding="UTF-8" standalone="no"?>
<!DOCTYPE svg PUBLIC "-//W3C//DTD SVG 1.1//EN"
 "http://www.w3.org/Graphics/SVG/1.1/DTD/svg11.dtd">
<!-- Generated by graphviz version 8.0.5 (20230430.1635)
 -->
<!-- Title: sl::functional::enable_operation&lt; TClosureTemplate, TOperationTags &gt; Pages: 1 -->
<svg width="1209pt" height="299pt"
 viewBox="0.00 0.00 1209.00 299.12" xmlns="http://www.w3.org/2000/svg" xmlns:xlink="http://www.w3.org/1999/xlink">
<g id="graph0" class="graph" transform="scale(1 1) rotate(0) translate(4 295.12)">
<title>sl::functional::enable_operation&lt; TClosureTemplate, TOperationTags &gt;</title>
<!-- Node1 -->
<g id="node1" class="node">
<title>Node1</title>
<g id="a_node1"><a xlink:title=" ">
<polygon fill="#999999" stroke="#666666" points="634,-142 474,-142 474,-95.75 634,-95.75 634,-142"/>
<text text-anchor="start" x="482" y="-128.5" font-family="Helvetica,sans-Serif" font-size="10.00">sl::functional::enable</text>
<text text-anchor="start" x="482" y="-115.75" font-family="Helvetica,sans-Serif" font-size="10.00">_operation&lt; TClosureTemplate,</text>
<text text-anchor="middle" x="554" y="-103" font-family="Helvetica,sans-Serif" font-size="10.00"> TOperationTags &gt;</text>
</a>
</g>
</g>
<!-- Node5 -->
<g id="node5" class="node">
<title>Node5</title>
<g id="a_node5"><a xlink:href="../../d0/d50/structsl_1_1functional_1_1enable__operation.html" target="_top" xlink:title=" ">
<polygon fill="white" stroke="#666666" points="1040,-276.88 847,-276.88 847,-166.88 1040,-166.88 1040,-276.88"/>
<text text-anchor="start" x="855" y="-263.38" font-family="Helvetica,sans-Serif" font-size="10.00">sl::functional::enable</text>
<text text-anchor="start" x="855" y="-250.62" font-family="Helvetica,sans-Serif" font-size="10.00">_operation&lt; predicate</text>
<text text-anchor="start" x="855" y="-237.88" font-family="Helvetica,sans-Serif" font-size="10.00">_fn, operators::pipe, operators</text>
<text text-anchor="start" x="855" y="-225.12" font-family="Helvetica,sans-Serif" font-size="10.00">::bind_front, operators::bind</text>
<text text-anchor="start" x="855" y="-212.38" font-family="Helvetica,sans-Serif" font-size="10.00">_back, operators::disjunction,</text>
<text text-anchor="start" x="855" y="-199.62" font-family="Helvetica,sans-Serif" font-size="10.00"> operators::conjunction, operators</text>
<text text-anchor="start" x="855" y="-186.88" font-family="Helvetica,sans-Serif" font-size="10.00">::equal, operators::not_equal, operators</text>
<text text-anchor="middle" x="943.5" y="-174.12" font-family="Helvetica,sans-Serif" font-size="10.00">::equivalent, operators::negate &gt;</text>
</a>
</g>
</g>
<!-- Node1&#45;&gt;Node5 -->
<g id="edge4" class="edge">
<title>Node1&#45;&gt;Node5</title>
<path fill="none" stroke="orange" stroke-dasharray="5,2" d="M613.88,-146.62C626.3,-151.83 639.44,-156.88 652,-160.88 715.72,-181.13 789.48,-196.53 846.72,-206.78"/>
<polygon fill="orange" stroke="orange" points="615.68,-143.15 605.11,-142.42 612.92,-149.58 615.68,-143.15"/>
<text text-anchor="start" x="652" y="-281.62" font-family="Helvetica,sans-Serif" font-size="10.00"> &lt; predicate_fn, operators</text>
<text text-anchor="start" x="652" y="-268.88" font-family="Helvetica,sans-Serif" font-size="10.00">::pipe, operators::bind</text>
<text text-anchor="start" x="652" y="-256.12" font-family="Helvetica,sans-Serif" font-size="10.00">_front, operators::bind</text>
<text text-anchor="start" x="652" y="-243.38" font-family="Helvetica,sans-Serif" font-size="10.00">_back, operators::disjunction,</text>
<text text-anchor="start" x="652" y="-230.62" font-family="Helvetica,sans-Serif" font-size="10.00"> operators::conjunction, operators</text>
<text text-anchor="start" x="652" y="-217.88" font-family="Helvetica,sans-Serif" font-size="10.00">::equal, operators::not_equal, operators</text>
<text text-anchor="middle" x="740.5" y="-205.12" font-family="Helvetica,sans-Serif" font-size="10.00">::equivalent, operators::negate &gt;</text>
</g>
<!-- Node7 -->
<g id="node7" class="node">
<title>Node7</title>
<g id="a_node7"><a xlink:href="../../d0/d50/structsl_1_1functional_1_1enable__operation.html" target="_top" xlink:title=" ">
<polygon fill="white" stroke="#666666" points="1032.12,-148.38 854.88,-148.38 854.88,-89.38 1032.12,-89.38 1032.12,-148.38"/>
<text text-anchor="start" x="862.88" y="-134.88" font-family="Helvetica,sans-Serif" font-size="10.00">sl::functional::enable</text>
<text text-anchor="start" x="862.88" y="-122.12" font-family="Helvetica,sans-Serif" font-size="10.00">_operation&lt; transform</text>
<text text-anchor="start" x="862.88" y="-109.38" font-family="Helvetica,sans-Serif" font-size="10.00">_fn, operators::pipe, operators</text>
<text text-anchor="middle" x="943.5" y="-96.62" font-family="Helvetica,sans-Serif" font-size="10.00">::bind_front, operators::bind_back &gt;</text>
</a>
</g>
</g>
<!-- Node1&#45;&gt;Node7 -->
<g id="edge6" class="edge">
<title>Node1&#45;&gt;Node7</title>
<path fill="none" stroke="orange" stroke-dasharray="5,2" d="M645.07,-118.88C708.11,-118.88 791.89,-118.88 854.47,-118.88"/>
<polygon fill="orange" stroke="orange" points="645.35,-115.38 635.35,-118.88 645.35,-122.38 645.35,-115.38"/>
<text text-anchor="start" x="672.25" y="-147.62" font-family="Helvetica,sans-Serif" font-size="10.00"> &lt; transform_fn, operators</text>
<text text-anchor="start" x="672.25" y="-134.88" font-family="Helvetica,sans-Serif" font-size="10.00">::pipe, operators::bind</text>
<text text-anchor="middle" x="740.5" y="-122.12" font-family="Helvetica,sans-Serif" font-size="10.00">_front, operators::bind_back &gt;</text>
</g>
<!-- Node9 -->
<g id="node9" class="node">
<title>Node9</title>
<g id="a_node9"><a xlink:href="../../d0/d50/structsl_1_1functional_1_1enable__operation.html" target="_top" xlink:title=" ">
<polygon fill="white" stroke="#666666" points="1026.5,-71.75 860.5,-71.75 860.5,0 1026.5,0 1026.5,-71.75"/>
<text text-anchor="start" x="868.5" y="-58.25" font-family="Helvetica,sans-Serif" font-size="10.00">sl::functional::enable</text>
<text text-anchor="start" x="868.5" y="-45.5" font-family="Helvetica,sans-Serif" font-size="10.00">_operation&lt; algorithm</text>
<text text-anchor="start" x="868.5" y="-32.75" font-family="Helvetica,sans-Serif" font-size="10.00">_fn, functional::operators</text>
<text text-anchor="start" x="868.5" y="-20" font-family="Helvetica,sans-Serif" font-size="10.00">::bind_back, functional::operators</text>
<text text-anchor="middle" x="943.5" y="-7.25" font-family="Helvetica,sans-Serif" font-size="10.00">::bind_front &gt;</text>
</a>
</g>
</g>
<!-- Node1&#45;&gt;Node9 -->
<g id="edge8" class="edge">
<title>Node1&#45;&gt;Node9</title>
<path fill="none" stroke="orange" stroke-dasharray="5,2" d="M597.64,-89.56C613.95,-79.76 633.17,-69.82 652,-63.88 720,-42.4 801.04,-36.07 860.23,-34.73"/>
<polygon fill="orange" stroke="orange" points="596.05,-87.05 589.4,-95.29 599.74,-93 596.05,-87.05"/>
<text text-anchor="start" x="679.75" y="-105.38" font-family="Helvetica,sans-Serif" font-size="10.00"> &lt; algorithm_fn, functional</text>
<text text-anchor="start" x="679.75" y="-92.62" font-family="Helvetica,sans-Serif" font-size="10.00">::operators::bind_back,</text>
<text text-anchor="start" x="679.75" y="-79.88" font-family="Helvetica,sans-Serif" font-size="10.00"> functional::operators::bind</text>
<text text-anchor="middle" x="740.5" y="-67.12" font-family="Helvetica,sans-Serif" font-size="10.00">_front &gt;</text>
</g>
<!-- Node2 -->
<g id="node2" class="node">
<title>Node2</title>
<g id="a_node2"><a xlink:href="../../d6/d62/structsl_1_1unified__base.html" target="_top" xlink:title=" ">
<polygon fill="white" stroke="#666666" points="437,-168.62 281.5,-168.62 281.5,-135.12 437,-135.12 437,-168.62"/>
<text text-anchor="start" x="289.5" y="-155.12" font-family="Helvetica,sans-Serif" font-size="10.00">sl::unified_base&lt; detail</text>
<text text-anchor="middle" x="359.25" y="-142.38" font-family="Helvetica,sans-Serif" font-size="10.00">::enable_operators_base_tag &gt;</text>
</a>
</g>
</g>
<!-- Node2&#45;&gt;Node1 -->
<g id="edge1" class="edge">
<title>Node2&#45;&gt;Node1</title>
<path fill="none" stroke="#8b1a1a" d="M448,-136.85C456.53,-135.39 465.15,-133.92 473.59,-132.47"/>
<polygon fill="#8b1a1a" stroke="#8b1a1a" points="447.53,-133.55 438.26,-138.69 448.71,-140.45 447.53,-133.55"/>
</g>
<!-- Node3 -->
<g id="node3" class="node">
<title>Node3</title>
<g id="a_node3"><a xlink:href="../../d6/d62/structsl_1_1unified__base.html" target="_top" xlink:title="Helper type, which can be used to create a unified base class for templated derived classes and thus ...">
<polygon fill="white" stroke="#666666" points="124.75,-162.25 0,-162.25 0,-141.5 124.75,-141.5 124.75,-162.25"/>
<text text-anchor="middle" x="62.38" y="-148.75" font-family="Helvetica,sans-Serif" font-size="10.00">sl::unified_base&lt; TTag &gt;</text>
</a>
</g>
</g>
<!-- Node3&#45;&gt;Node2 -->
<g id="edge2" class="edge">
<title>Node3&#45;&gt;Node2</title>
<path fill="none" stroke="orange" stroke-dasharray="5,2" d="M136.11,-151.88C180.12,-151.88 236.21,-151.88 281.02,-151.88"/>
<polygon fill="orange" stroke="orange" points="136.19,-148.38 126.19,-151.88 136.19,-155.38 136.19,-148.38"/>
<text text-anchor="start" x="142.75" y="-167.88" font-family="Helvetica,sans-Serif" font-size="10.00"> &lt; detail::enable_operators</text>
<text text-anchor="middle" x="203.12" y="-155.12" font-family="Helvetica,sans-Serif" font-size="10.00">_base_tag &gt;</text>
</g>
<!-- Node4 -->
<g id="node4" class="node">
<title>Node4</title>
<g id="a_node4"><a xlink:title=" ">
<polygon fill="white" stroke="#666666" points="404,-117.25 314.5,-117.25 314.5,-96.5 404,-96.5 404,-117.25"/>
<text text-anchor="middle" x="359.25" y="-103.75" font-family="Helvetica,sans-Serif" font-size="10.00">TOperationTags</text>
</a>
</g>
</g>
<!-- Node4&#45;&gt;Node1 -->
<g id="edge3" class="edge">
<title>Node4&#45;&gt;Node1</title>
<path fill="none" stroke="#63b8ff" d="M415.44,-110.31C433.62,-111.44 454.19,-112.72 473.79,-113.94"/>
<polygon fill="#63b8ff" stroke="#63b8ff" points="415.67,-106.76 405.47,-109.63 415.23,-113.74 415.67,-106.76"/>
</g>
<!-- Node6 -->
<g id="node6" class="node">
<title>Node6</title>
<g id="a_node6"><a xlink:href="../../df/d86/classsl_1_1functional_1_1predicate__fn.html" target="_top" xlink:title="Adapter type for predicates, which accepts a functional type and enables pipe, conjunctive and disjun...">
<polygon fill="white" stroke="#666666" points="1199.12,-238.62 1078.88,-238.62 1078.88,-205.12 1199.12,-205.12 1199.12,-238.62"/>
<text text-anchor="start" x="1086.88" y="-225.12" font-family="Helvetica,sans-Serif" font-size="10.00">sl::functional::predicate</text>
<text text-anchor="middle" x="1139" y="-212.38" font-family="Helvetica,sans-Serif" font-size="10.00">_fn&lt; TFunc &gt;</text>
</a>
</g>
</g>
<!-- Node5&#45;&gt;Node6 -->
<g id="edge5" class="edge">
<title>Node5&#45;&gt;Node6</title>
<path fill="none" stroke="#63b8ff" d="M1051.37,-221.88C1060.68,-221.88 1069.87,-221.88 1078.58,-221.88"/>
<polygon fill="#63b8ff" stroke="#63b8ff" points="1051.4,-218.38 1041.4,-221.88 1051.4,-225.38 1051.4,-218.38"/>
</g>
<!-- Node8 -->
<g id="node8" class="node">
<title>Node8</title>
<g id="a_node8"><a xlink:href="../../da/dbe/classsl_1_1functional_1_1transform__fn.html" target="_top" xlink:title="Adapter type which accepts a functional type and enables pipe chaining and currying.">
<polygon fill="white" stroke="#666666" points="1201,-135.62 1077,-135.62 1077,-102.12 1201,-102.12 1201,-135.62"/>
<text text-anchor="start" x="1085" y="-122.12" font-family="Helvetica,sans-Serif" font-size="10.00">sl::functional::transform</text>
<text text-anchor="middle" x="1139" y="-109.38" font-family="Helvetica,sans-Serif" font-size="10.00">_fn&lt; TFunc &gt;</text>
</a>
</g>
</g>
<!-- Node7&#45;&gt;Node8 -->
<g id="edge7" class="edge">
<title>Node7&#45;&gt;Node8</title>
<path fill="none" stroke="#63b8ff" d="M1043.31,-118.88C1054.62,-118.88 1065.9,-118.88 1076.52,-118.88"/>
<polygon fill="#63b8ff" stroke="#63b8ff" points="1043.47,-115.38 1033.47,-118.88 1043.47,-122.38 1043.47,-115.38"/>
</g>
<!-- Node10 -->
<g id="node10" class="node">
<title>Node10</title>
<g id="a_node10"><a xlink:href="../../d6/d3b/classsl_1_1nullables_1_1algorithm__fn.html" target="_top" xlink:title="The core algorithm helper, which executes the held algorithm when used as the right&#45;hand&#45;side of oper...">
<polygon fill="white" stroke="#666666" points="1198.38,-52.62 1079.62,-52.62 1079.62,-19.12 1198.38,-19.12 1198.38,-52.62"/>
<text text-anchor="start" x="1087.62" y="-39.12" font-family="Helvetica,sans-Serif" font-size="10.00">sl::nullables::algorithm</text>
<text text-anchor="middle" x="1139" y="-26.38" font-family="Helvetica,sans-Serif" font-size="10.00">_fn&lt; TFunc &gt;</text>
</a>
</g>
</g>
<!-- Node9&#45;&gt;Node10 -->
<g id="edge9" class="edge">
<title>Node9&#45;&gt;Node10</title>
<path fill="none" stroke="#63b8ff" d="M1037.62,-35.88C1051.77,-35.88 1066.02,-35.88 1079.16,-35.88"/>
<polygon fill="#63b8ff" stroke="#63b8ff" points="1037.84,-32.38 1027.84,-35.88 1037.84,-39.38 1037.84,-32.38"/>
</g>
</g>
</svg>
