<?xml version="1.0" encoding="UTF-8" standalone="no"?>
<!DOCTYPE svg PUBLIC "-//W3C//DTD SVG 1.1//EN"
 "http://www.w3.org/Graphics/SVG/1.1/DTD/svg11.dtd">
<!-- Generated by graphviz version 8.0.5 (20230430.1635)
 -->
<!-- Title: Simple&#45;Utility/functional/tuple.hpp Pages: 1 -->
<!--zoomable 376 -->
<svg id="main" version="1.1" xmlns="http://www.w3.org/2000/svg" xmlns:xlink="http://www.w3.org/1999/xlink" xml:space="preserve" onload="init(evt)">
<style type="text/css"><![CDATA[
.edge:hover path { stroke: red; }
.edge:hover polygon { stroke: red; fill: red; }
]]></style>
<script type="text/javascript"><![CDATA[
var edges = document.getElementsByTagName('g');
if (edges && edges.length) {
  for (var i=0;i<edges.length;i++) {
    if (edges[i].id.substr(0,4)=='edge') {
      edges[i].setAttribute('class','edge');
    }
  }
}
]]></script>
        <defs>
                <circle id="rim" cx="0" cy="0" r="7"/>
                <circle id="rim2" cx="0" cy="0" r="3.5"/>
                <g id="zoomPlus">
                        <use xlink:href="#rim" fill="#404040">
                                <set attributeName="fill" to="#808080" begin="zoomplus.mouseover" end="zoomplus.mouseout"/>
                        </use>
                        <path d="M-4,0h8M0,-4v8" fill="none" stroke="white" stroke-width="1.5" pointer-events="none"/>
                </g>
                <g id="zoomMin">
                        <use xlink:href="#rim" fill="#404040">
                                <set attributeName="fill" to="#808080" begin="zoomminus.mouseover" end="zoomminus.mouseout"/>
                        </use>
                        <path d="M-4,0h8" fill="none" stroke="white" stroke-width="1.5" pointer-events="none"/>
                </g>
                <g id="dirArrow">
                        <path fill="none" stroke="white" stroke-width="1.5" d="M0,-3.0v7 M-2.5,-0.5L0,-3.0L2.5,-0.5"/>
                </g>
               <g id="resetDef">
                       <use xlink:href="#rim2" fill="#404040">
                               <set attributeName="fill" to="#808080" begin="reset.mouseover" end="reset.mouseout"/>
                       </use>
               </g>
        </defs>

<script type="text/javascript">
var viewWidth = 898;
var viewHeight = 376;
var sectionId = 'dynsection-0';
</script>
<script xlink:href="../../svgpan.js"/>
<svg id="graph" class="graph">
<g id="viewport">
<title>Simple&#45;Utility/functional/tuple.hpp</title>
<!-- Node1 -->
<g id="node1" class="node">
<title>Node1</title>
<g id="a_node1"><a xlink:title=" ">
<polygon fill="#999999" stroke="#666666" points="700.38,-368.25 573.38,-368.25 573.38,-334.75 700.38,-334.75 700.38,-368.25"/>
<text text-anchor="start" x="581.38" y="-354.75" font-family="Helvetica,sans-Serif" font-size="10.00">Simple&#45;Utility/functional</text>
<text text-anchor="middle" x="636.88" y="-342" font-family="Helvetica,sans-Serif" font-size="10.00">/tuple.hpp</text>
</a>
</g>
</g>
<!-- Node2 -->
<g id="node2" class="node">
<title>Node2</title>
<g id="a_node2"><a xlink:href="../../d5/d8e/concepts_2utility_8hpp.html" target="_top" xlink:title=" ">
<polygon fill="white" stroke="#666666" points="121.75,-90.25 0,-90.25 0,-56.75 121.75,-56.75 121.75,-90.25"/>
<text text-anchor="start" x="8" y="-76.75" font-family="Helvetica,sans-Serif" font-size="10.00">Simple&#45;Utility/concepts</text>
<text text-anchor="middle" x="60.88" y="-64" font-family="Helvetica,sans-Serif" font-size="10.00">/utility.hpp</text>
</a>
</g>
</g>
<!-- Node1&#45;&gt;Node2 -->
<g id="edge1" class="edge">
<title>Node1&#45;&gt;Node2</title>
<path fill="none" stroke="#63b8ff" d="M572.98,-343.47C523.22,-336.43 453.21,-323.04 395.88,-298.75 270.43,-245.61 142.06,-143.62 87.75,-97.8"/>
<polygon fill="#63b8ff" stroke="#63b8ff" points="90.27,-94.5 80.38,-90.69 85.73,-99.83 90.27,-94.5"/>
</g>
<!-- Node4 -->
<g id="node4" class="node">
<title>Node4</title>
<g id="a_node4"><a xlink:href="../../d6/deb/transform_8hpp.html" target="_top" xlink:title=" ">
<polygon fill="white" stroke="#666666" points="532.38,-298.75 405.38,-298.75 405.38,-265.25 532.38,-265.25 532.38,-298.75"/>
<text text-anchor="start" x="413.38" y="-285.25" font-family="Helvetica,sans-Serif" font-size="10.00">Simple&#45;Utility/functional</text>
<text text-anchor="middle" x="468.88" y="-272.5" font-family="Helvetica,sans-Serif" font-size="10.00">/transform.hpp</text>
</a>
</g>
</g>
<!-- Node1&#45;&gt;Node4 -->
<g id="edge3" class="edge">
<title>Node1&#45;&gt;Node4</title>
<path fill="none" stroke="#63b8ff" d="M596.63,-334.33C573.34,-324.97 543.82,-313.11 519.03,-303.15"/>
<polygon fill="#63b8ff" stroke="#63b8ff" points="520.66,-299.63 510.08,-299.15 518.05,-306.13 520.66,-299.63"/>
</g>
<!-- Node13 -->
<g id="node13" class="node">
<title>Node13</title>
<g id="a_node13"><a xlink:title=" ">
<polygon fill="#e0e0e0" stroke="#999999" points="831.5,-83.88 792.25,-83.88 792.25,-63.12 831.5,-63.12 831.5,-83.88"/>
<text text-anchor="middle" x="811.88" y="-70.38" font-family="Helvetica,sans-Serif" font-size="10.00">tuple</text>
</a>
</g>
</g>
<!-- Node1&#45;&gt;Node13 -->
<g id="edge27" class="edge">
<title>Node1&#45;&gt;Node13</title>
<path fill="none" stroke="#63b8ff" d="M653.07,-334.72C683.81,-303.9 750.81,-232.35 787.88,-159.75 798.55,-138.84 805.03,-112.55 808.52,-94.74"/>
<polygon fill="#63b8ff" stroke="#63b8ff" points="812.1,-95.62 810.43,-85.16 805.21,-94.38 812.1,-95.62"/>
</g>
<!-- Node14 -->
<g id="node14" class="node">
<title>Node14</title>
<g id="a_node14"><a xlink:title=" ">
<polygon fill="#e0e0e0" stroke="#999999" points="890.25,-83.88 849.5,-83.88 849.5,-63.12 890.25,-63.12 890.25,-83.88"/>
<text text-anchor="middle" x="869.88" y="-70.38" font-family="Helvetica,sans-Serif" font-size="10.00">utility</text>
</a>
</g>
</g>
<!-- Node1&#45;&gt;Node14 -->
<g id="edge26" class="edge">
<title>Node1&#45;&gt;Node14</title>
<path fill="none" stroke="#63b8ff" d="M665.92,-334.34C681.34,-325.03 700.1,-312.46 714.88,-298.75 783.66,-234.92 838.88,-135.44 860.28,-93.82"/>
<polygon fill="#63b8ff" stroke="#63b8ff" points="863.8,-95.62 865.19,-85.12 857.55,-92.46 863.8,-95.62"/>
</g>
<!-- Node3 -->
<g id="node3" class="node">
<title>Node3</title>
<g id="a_node3"><a xlink:title=" ">
<polygon fill="#e0e0e0" stroke="#999999" points="288.12,-20.75 231.62,-20.75 231.62,0 288.12,0 288.12,-20.75"/>
<text text-anchor="middle" x="259.88" y="-7.25" font-family="Helvetica,sans-Serif" font-size="10.00">concepts</text>
</a>
</g>
</g>
<!-- Node2&#45;&gt;Node3 -->
<g id="edge2" class="edge">
<title>Node2&#45;&gt;Node3</title>
<path fill="none" stroke="#63b8ff" d="M113.68,-56.28C147.36,-45.93 190.28,-32.75 220.88,-23.35"/>
<polygon fill="#63b8ff" stroke="#63b8ff" points="221.62,-26.48 230.16,-20.2 219.57,-19.79 221.62,-26.48"/>
</g>
<!-- Node5 -->
<g id="node5" class="node">
<title>Node5</title>
<g id="a_node5"><a xlink:href="../../d4/d1c/unified__base_8hpp.html" target="_top" xlink:title=" ">
<polygon fill="white" stroke="#666666" points="251.88,-90.25 139.88,-90.25 139.88,-56.75 251.88,-56.75 251.88,-90.25"/>
<text text-anchor="start" x="147.88" y="-76.75" font-family="Helvetica,sans-Serif" font-size="10.00">Simple&#45;Utility/unified</text>
<text text-anchor="middle" x="195.88" y="-64" font-family="Helvetica,sans-Serif" font-size="10.00">_base.hpp</text>
</a>
</g>
</g>
<!-- Node4&#45;&gt;Node5 -->
<g id="edge4" class="edge">
<title>Node4&#45;&gt;Node5</title>
<path fill="none" stroke="#63b8ff" d="M437.62,-264.84C419.91,-255.24 397.61,-242.4 378.88,-229.25 318.91,-187.17 254.86,-129.77 220.71,-98.03"/>
<polygon fill="#63b8ff" stroke="#63b8ff" points="223.39,-95.81 213.7,-91.53 218.61,-100.92 223.39,-95.81"/>
</g>
<!-- Node7 -->
<g id="node7" class="node">
<title>Node7</title>
<g id="a_node7"><a xlink:href="../../d1/d76/functional_2base_8hpp.html" target="_top" xlink:title=" ">
<polygon fill="white" stroke="#666666" points="440.38,-159.75 313.38,-159.75 313.38,-126.25 440.38,-126.25 440.38,-159.75"/>
<text text-anchor="start" x="321.38" y="-146.25" font-family="Helvetica,sans-Serif" font-size="10.00">Simple&#45;Utility/functional</text>
<text text-anchor="middle" x="376.88" y="-133.5" font-family="Helvetica,sans-Serif" font-size="10.00">/base.hpp</text>
</a>
</g>
</g>
<!-- Node4&#45;&gt;Node7 -->
<g id="edge7" class="edge">
<title>Node4&#45;&gt;Node7</title>
<path fill="none" stroke="#63b8ff" d="M436.21,-264.96C421.78,-256.29 405.85,-244.26 395.88,-229.25 384.37,-211.95 379.74,-188.75 377.92,-170.93"/>
<polygon fill="#63b8ff" stroke="#63b8ff" points="381.34,-170.8 377.08,-161.1 374.36,-171.34 381.34,-170.8"/>
</g>
<!-- Node11 -->
<g id="node11" class="node">
<title>Node11</title>
<g id="a_node11"><a xlink:href="../../d9/d76/bind_8hpp.html" target="_top" xlink:title=" ">
<polygon fill="white" stroke="#666666" points="532.38,-229.25 405.38,-229.25 405.38,-195.75 532.38,-195.75 532.38,-229.25"/>
<text text-anchor="start" x="413.38" y="-215.75" font-family="Helvetica,sans-Serif" font-size="10.00">Simple&#45;Utility/functional</text>
<text text-anchor="middle" x="468.88" y="-203" font-family="Helvetica,sans-Serif" font-size="10.00">/operators/bind.hpp</text>
</a>
</g>
</g>
<!-- Node4&#45;&gt;Node11 -->
<g id="edge16" class="edge">
<title>Node4&#45;&gt;Node11</title>
<path fill="none" stroke="#63b8ff" d="M468.88,-265C468.88,-257.61 468.88,-248.62 468.88,-240.23"/>
<polygon fill="#63b8ff" stroke="#63b8ff" points="472.38,-240.38 468.88,-230.38 465.38,-240.38 472.38,-240.38"/>
</g>
<!-- Node15 -->
<g id="node15" class="node">
<title>Node15</title>
<g id="a_node15"><a xlink:href="../../d5/db7/pipe_8hpp.html" target="_top" xlink:title=" ">
<polygon fill="white" stroke="#666666" points="677.38,-229.25 550.38,-229.25 550.38,-195.75 677.38,-195.75 677.38,-229.25"/>
<text text-anchor="start" x="558.38" y="-215.75" font-family="Helvetica,sans-Serif" font-size="10.00">Simple&#45;Utility/functional</text>
<text text-anchor="middle" x="613.88" y="-203" font-family="Helvetica,sans-Serif" font-size="10.00">/operators/pipe.hpp</text>
</a>
</g>
</g>
<!-- Node4&#45;&gt;Node15 -->
<g id="edge23" class="edge">
<title>Node4&#45;&gt;Node15</title>
<path fill="none" stroke="#63b8ff" d="M503.61,-264.83C523.35,-255.64 548.28,-244.03 569.44,-234.18"/>
<polygon fill="#63b8ff" stroke="#63b8ff" points="570.59,-237.05 578.18,-229.65 567.63,-230.7 570.59,-237.05"/>
</g>
<!-- Node5&#45;&gt;Node3 -->
<g id="edge5" class="edge">
<title>Node5&#45;&gt;Node3</title>
<path fill="none" stroke="#63b8ff" d="M212.69,-56.44C221.65,-47.88 232.68,-37.35 241.82,-28.62"/>
<polygon fill="#63b8ff" stroke="#63b8ff" points="243.76,-31.65 248.57,-22.22 238.92,-26.59 243.76,-31.65"/>
</g>
<!-- Node6 -->
<g id="node6" class="node">
<title>Node6</title>
<g id="a_node6"><a xlink:title=" ">
<polygon fill="#e0e0e0" stroke="#999999" points="369.88,-20.75 305.88,-20.75 305.88,0 369.88,0 369.88,-20.75"/>
<text text-anchor="middle" x="337.88" y="-7.25" font-family="Helvetica,sans-Serif" font-size="10.00">type_traits</text>
</a>
</g>
</g>
<!-- Node5&#45;&gt;Node6 -->
<g id="edge6" class="edge">
<title>Node5&#45;&gt;Node6</title>
<path fill="none" stroke="#63b8ff" d="M233.56,-56.28C255.87,-46.68 283.86,-34.63 305.23,-25.43"/>
<polygon fill="#63b8ff" stroke="#63b8ff" points="306.33,-28.33 314.13,-21.17 303.56,-21.9 306.33,-28.33"/>
</g>
<!-- Node7&#45;&gt;Node2 -->
<g id="edge15" class="edge">
<title>Node7&#45;&gt;Node2</title>
<path fill="none" stroke="#63b8ff" d="M313.11,-128.84C265.84,-119.03 199.56,-105.15 132.31,-90.55"/>
<polygon fill="#63b8ff" stroke="#63b8ff" points="133.46,-87 122.95,-88.29 131.98,-93.84 133.46,-87"/>
</g>
<!-- Node7&#45;&gt;Node3 -->
<g id="edge8" class="edge">
<title>Node7&#45;&gt;Node3</title>
<path fill="none" stroke="#63b8ff" d="M361.62,-125.8C352.12,-115.65 339.7,-102.27 328.88,-90.25 310.18,-69.49 289.08,-45.26 275.2,-29.18"/>
<polygon fill="#63b8ff" stroke="#63b8ff" points="277.46,-27.46 268.28,-22.17 272.16,-32.03 277.46,-27.46"/>
</g>
<!-- Node7&#45;&gt;Node5 -->
<g id="edge12" class="edge">
<title>Node7&#45;&gt;Node5</title>
<path fill="none" stroke="#63b8ff" d="M333.52,-125.83C308.2,-116.39 276.06,-104.4 249.2,-94.39"/>
<polygon fill="#63b8ff" stroke="#63b8ff" points="250.78,-90.87 240.19,-90.65 248.34,-97.43 250.78,-90.87"/>
</g>
<!-- Node7&#45;&gt;Node6 -->
<g id="edge10" class="edge">
<title>Node7&#45;&gt;Node6</title>
<path fill="none" stroke="#63b8ff" d="M359.98,-125.99C351.26,-116.54 341.5,-103.79 336.88,-90.25 330.36,-71.17 331.67,-47.94 333.96,-31.65"/>
<polygon fill="#63b8ff" stroke="#63b8ff" points="337.51,-32.61 335.7,-22.17 330.61,-31.46 337.51,-32.61"/>
</g>
<!-- Node8 -->
<g id="node8" class="node">
<title>Node8</title>
<g id="a_node8"><a xlink:title=" ">
<polygon fill="#e0e0e0" stroke="#999999" points="407.75,-83.88 346,-83.88 346,-63.12 407.75,-63.12 407.75,-83.88"/>
<text text-anchor="middle" x="376.88" y="-70.38" font-family="Helvetica,sans-Serif" font-size="10.00">functional</text>
</a>
</g>
</g>
<!-- Node7&#45;&gt;Node8 -->
<g id="edge9" class="edge">
<title>Node7&#45;&gt;Node8</title>
<path fill="none" stroke="#63b8ff" d="M376.88,-126C376.88,-116.8 376.88,-105.14 376.88,-95.24"/>
<polygon fill="#63b8ff" stroke="#63b8ff" points="380.38,-95.32 376.88,-85.32 373.38,-95.32 380.38,-95.32"/>
</g>
<!-- Node9 -->
<g id="node9" class="node">
<title>Node9</title>
<g id="a_node9"><a xlink:href="../../d8/dd2/_config_8hpp.html" target="_top" xlink:title=" ">
<polygon fill="white" stroke="#666666" points="558,-83.88 425.75,-83.88 425.75,-63.12 558,-63.12 558,-83.88"/>
<text text-anchor="middle" x="491.88" y="-70.38" font-family="Helvetica,sans-Serif" font-size="10.00">Simple&#45;Utility/Config.hpp</text>
</a>
</g>
</g>
<!-- Node7&#45;&gt;Node9 -->
<g id="edge11" class="edge">
<title>Node7&#45;&gt;Node9</title>
<path fill="none" stroke="#63b8ff" d="M404.42,-125.83C423.03,-114.91 447.46,-100.57 465.76,-89.83"/>
<polygon fill="#63b8ff" stroke="#63b8ff" points="467.38,-92.35 474.23,-84.27 463.83,-86.31 467.38,-92.35"/>
</g>
<!-- Node10 -->
<g id="node10" class="node">
<title>Node10</title>
<g id="a_node10"><a xlink:href="../../dd/d5c/stl__extensions_8hpp.html" target="_top" xlink:title=" ">
<polygon fill="white" stroke="#666666" points="697.75,-90.25 576,-90.25 576,-56.75 697.75,-56.75 697.75,-90.25"/>
<text text-anchor="start" x="584" y="-76.75" font-family="Helvetica,sans-Serif" font-size="10.00">Simple&#45;Utility/concepts</text>
<text text-anchor="middle" x="636.88" y="-64" font-family="Helvetica,sans-Serif" font-size="10.00">/stl_extensions.hpp</text>
</a>
</g>
</g>
<!-- Node7&#45;&gt;Node10 -->
<g id="edge13" class="edge">
<title>Node7&#45;&gt;Node10</title>
<path fill="none" stroke="#63b8ff" d="M439.15,-125.83C477,-116.01 525.46,-103.42 564.94,-93.18"/>
<polygon fill="#63b8ff" stroke="#63b8ff" points="565.76,-96.32 574.56,-90.42 564,-89.54 565.76,-96.32"/>
</g>
<!-- Node10&#45;&gt;Node3 -->
<g id="edge14" class="edge">
<title>Node10&#45;&gt;Node3</title>
<path fill="none" stroke="#63b8ff" d="M575.86,-58.44C572.82,-57.84 569.82,-57.28 566.88,-56.75 451.08,-36.05 417.63,-43.21 299.07,-20.99"/>
<polygon fill="#63b8ff" stroke="#63b8ff" points="299.96,-17.41 289.48,-18.97 298.65,-24.28 299.96,-17.41"/>
</g>
<!-- Node11&#45;&gt;Node7 -->
<g id="edge17" class="edge">
<title>Node11&#45;&gt;Node7</title>
<path fill="none" stroke="#63b8ff" d="M447.07,-195.5C435.24,-186.82 420.43,-175.96 407.46,-166.44"/>
<polygon fill="#63b8ff" stroke="#63b8ff" points="409.97,-163.21 399.84,-160.12 405.83,-168.85 409.97,-163.21"/>
</g>
<!-- Node12 -->
<g id="node12" class="node">
<title>Node12</title>
<g id="a_node12"><a xlink:href="../../d2/d30/general_8hpp.html" target="_top" xlink:title=" ">
<polygon fill="white" stroke="#666666" points="779.12,-159.75 674.62,-159.75 674.62,-126.25 779.12,-126.25 779.12,-159.75"/>
<text text-anchor="start" x="682.62" y="-146.25" font-family="Helvetica,sans-Serif" font-size="10.00">Simple&#45;Utility/tuple</text>
<text text-anchor="middle" x="726.88" y="-133.5" font-family="Helvetica,sans-Serif" font-size="10.00">/general.hpp</text>
</a>
</g>
</g>
<!-- Node11&#45;&gt;Node12 -->
<g id="edge18" class="edge">
<title>Node11&#45;&gt;Node12</title>
<path fill="none" stroke="#63b8ff" d="M530.67,-195.33C570.91,-184.81 623.24,-171.11 663.74,-160.52"/>
<polygon fill="#63b8ff" stroke="#63b8ff" points="664.5,-163.67 673.29,-157.76 662.73,-156.9 664.5,-163.67"/>
</g>
<!-- Node12&#45;&gt;Node3 -->
<g id="edge19" class="edge">
<title>Node12&#45;&gt;Node3</title>
<path fill="none" stroke="#63b8ff" d="M728.21,-126.02C728.87,-106.47 726.64,-73.87 706.88,-56.75 640.11,1.1 403.98,-33.47 299.09,-20.65"/>
<polygon fill="#63b8ff" stroke="#63b8ff" points="299.86,-17.08 289.46,-19.1 298.85,-24 299.86,-17.08"/>
</g>
<!-- Node12&#45;&gt;Node6 -->
<g id="edge21" class="edge">
<title>Node12&#45;&gt;Node6</title>
<path fill="none" stroke="#63b8ff" d="M736.03,-126.03C745.54,-107.1 756.83,-75.73 739.88,-56.75 716.25,-30.31 479.69,-17.34 380.88,-13.05"/>
<polygon fill="#63b8ff" stroke="#63b8ff" points="381.23,-9.52 371.09,-12.59 380.94,-16.51 381.23,-9.52"/>
</g>
<!-- Node12&#45;&gt;Node13 -->
<g id="edge20" class="edge">
<title>Node12&#45;&gt;Node13</title>
<path fill="none" stroke="#63b8ff" d="M747.02,-126C760.26,-115.49 777.55,-101.76 790.95,-91.12"/>
<polygon fill="#63b8ff" stroke="#63b8ff" points="792.85,-93.28 798.51,-84.32 788.5,-87.8 792.85,-93.28"/>
</g>
<!-- Node12&#45;&gt;Node14 -->
<g id="edge22" class="edge">
<title>Node12&#45;&gt;Node14</title>
<path fill="none" stroke="#63b8ff" d="M764.41,-125.77C786.8,-115.89 815.68,-102.79 840.88,-90.25 841.45,-89.96 842.03,-89.67 842.62,-89.37"/>
<polygon fill="#63b8ff" stroke="#63b8ff" points="843.95,-92.1 851.19,-84.36 840.71,-85.9 843.95,-92.1"/>
</g>
<!-- Node15&#45;&gt;Node7 -->
<g id="edge24" class="edge">
<title>Node15&#45;&gt;Node7</title>
<path fill="none" stroke="#63b8ff" d="M557.11,-195.33C523.08,-185.64 479.63,-173.27 443.92,-163.1"/>
<polygon fill="#63b8ff" stroke="#63b8ff" points="445.17,-159.53 434.59,-160.15 443.25,-166.26 445.17,-159.53"/>
</g>
<!-- Node15&#45;&gt;Node12 -->
<g id="edge25" class="edge">
<title>Node15&#45;&gt;Node12</title>
<path fill="none" stroke="#63b8ff" d="M640.94,-195.33C655.9,-186.4 674.67,-175.19 690.85,-165.52"/>
<polygon fill="#63b8ff" stroke="#63b8ff" points="692.24,-168.17 699.03,-160.04 688.65,-162.16 692.24,-168.17"/>
</g>
</g>
</svg>
        <g id="navigator" transform="translate(0 0)" fill="#404254">
                <rect fill="#f2f5e9" fill-opacity="0.5" stroke="#606060" stroke-width=".5" x="0" y="0" width="60" height="60"/>
                <use id="zoomplus" xlink:href="#zoomPlus" x="17" y="9" onmousedown="handleZoom(evt,'in')"/>
                <use id="zoomminus" xlink:href="#zoomMin" x="42" y="9" onmousedown="handleZoom(evt,'out')"/>
                <use id="reset" xlink:href="#resetDef" x="30" y="36" onmousedown="handleReset()"/>
                <g id="arrowUp" xlink:href="#dirArrow" transform="translate(30 24)" onmousedown="handlePan(0,-1)">
                  <use xlink:href="#rim" fill="#404040">
                        <set attributeName="fill" to="#808080" begin="arrowUp.mouseover" end="arrowUp.mouseout"/>
                  </use>
                  <path fill="none" stroke="white" stroke-width="1.5" d="M0,-3.0v7 M-2.5,-0.5L0,-3.0L2.5,-0.5"/>
                </g>
                <g id="arrowRight" xlink:href="#dirArrow" transform="rotate(90) translate(36 -43)" onmousedown="handlePan(1,0)">
                  <use xlink:href="#rim" fill="#404040">
                        <set attributeName="fill" to="#808080" begin="arrowRight.mouseover" end="arrowRight.mouseout"/>
                  </use>
                  <path fill="none" stroke="white" stroke-width="1.5" d="M0,-3.0v7 M-2.5,-0.5L0,-3.0L2.5,-0.5"/>
                </g>
                <g id="arrowDown" xlink:href="#dirArrow" transform="rotate(180) translate(-30 -48)" onmousedown="handlePan(0,1)">
                  <use xlink:href="#rim" fill="#404040">
                        <set attributeName="fill" to="#808080" begin="arrowDown.mouseover" end="arrowDown.mouseout"/>
                  </use>
                  <path fill="none" stroke="white" stroke-width="1.5" d="M0,-3.0v7 M-2.5,-0.5L0,-3.0L2.5,-0.5"/>
                </g>
                <g id="arrowLeft" xlink:href="#dirArrow" transform="rotate(270) translate(-36 17)" onmousedown="handlePan(-1,0)">
                  <use xlink:href="#rim" fill="#404040">
                        <set attributeName="fill" to="#808080" begin="arrowLeft.mouseover" end="arrowLeft.mouseout"/>
                  </use>
                  <path fill="none" stroke="white" stroke-width="1.5" d="M0,-3.0v7 M-2.5,-0.5L0,-3.0L2.5,-0.5"/>
                </g>
        </g>
        <svg viewBox="0 0 15 15" width="100%" height="30px" preserveAspectRatio="xMaxYMin meet">
         <g id="arrow_out" transform="scale(0.3 0.3)">
          <a xlink:href="functional_2tuple_8hpp__incl_org.svg" target="_base">
           <rect id="button" ry="5" rx="5" y="6" x="6" height="38" width="38"
                fill="#f2f5e9" fill-opacity="0.5" stroke="#606060" stroke-width="1.0"/>
           <path id="arrow"
             d="M 11.500037,31.436501 C 11.940474,20.09759 22.043105,11.32322 32.158766,21.979434 L 37.068811,17.246167 C 37.068811,17.246167 37.088388,32 37.088388,32 L 22.160133,31.978069 C 22.160133,31.978069 26.997745,27.140456 26.997745,27.140456 C 18.528582,18.264221 13.291696,25.230495 11.500037,31.436501 z"
             style="fill:#404040;"/>
          </a>
         </g>
        </svg>
</svg>
