<?xml version="1.0" encoding="UTF-8" standalone="no"?>
<!DOCTYPE svg PUBLIC "-//W3C//DTD SVG 1.1//EN"
 "http://www.w3.org/Graphics/SVG/1.1/DTD/svg11.dtd">
<!-- Generated by graphviz version 2.43.0 (0)
 -->
<!-- Title: /home/runner/work/Simple&#45;Utility/Simple&#45;Utility/include/Simple&#45;Utility/functional/tuple.hpp Pages: 1 -->
<!--zoomable 385 -->
<svg id="main" version="1.1" xmlns="http://www.w3.org/2000/svg" xmlns:xlink="http://www.w3.org/1999/xlink" xml:space="preserve" onload="init(evt)">
<style type="text/css"><![CDATA[
.edge:hover path { stroke: red; }
.edge:hover polygon { stroke: red; fill: red; }
]]></style>
<script type="text/javascript"><![CDATA[
var edges = document.getElementsByTagName('g');
if (edges && edges.length) {
  for (var i=0;i<edges.length;i++) {
    if (edges[i].id.substr(0,4)=='edge') {
      edges[i].setAttribute('class','edge');
    }
  }
}
]]></script>
        <defs>
                <circle id="rim" cx="0" cy="0" r="7"/>
                <circle id="rim2" cx="0" cy="0" r="3.5"/>
                <g id="zoomPlus">
                        <use xlink:href="#rim" fill="#404040">
                                <set attributeName="fill" to="#808080" begin="zoomplus.mouseover" end="zoomplus.mouseout"/>
                        </use>
                        <path d="M-4,0h8M0,-4v8" fill="none" stroke="white" stroke-width="1.5" pointer-events="none"/>
                </g>
                <g id="zoomMin">
                        <use xlink:href="#rim" fill="#404040">
                                <set attributeName="fill" to="#808080" begin="zoomminus.mouseover" end="zoomminus.mouseout"/>
                        </use>
                        <path d="M-4,0h8" fill="none" stroke="white" stroke-width="1.5" pointer-events="none"/>
                </g>
                <g id="dirArrow">
                        <path fill="none" stroke="white" stroke-width="1.5" d="M0,-3.0v7 M-2.5,-0.5L0,-3.0L2.5,-0.5"/>
                </g>
               <g id="resetDef">
                       <use xlink:href="#rim2" fill="#404040">
                               <set attributeName="fill" to="#808080" begin="reset.mouseover" end="reset.mouseout"/>
                       </use>
               </g>
        </defs>

<script type="text/javascript">
var viewWidth = 942;
var viewHeight = 385;
var sectionId = 'dynsection-0';
</script>
<script xlink:href="../../svgpan.js"/>
<svg id="graph" class="graph">
<g id="viewport">
<title>/home/runner/work/Simple&#45;Utility/Simple&#45;Utility/include/Simple&#45;Utility/functional/tuple.hpp</title>
<polygon fill="white" stroke="transparent" points="-4,4 -4,-381 938,-381 938,4 -4,4"/>
<!-- Node1 -->
<g id="node1" class="node">
<title>Node1</title>
<g id="a_node1"><a xlink:title=" ">
<polygon fill="#bfbfbf" stroke="black" points="596.5,-324.5 596.5,-376.5 742.5,-376.5 742.5,-324.5 596.5,-324.5"/>
<text text-anchor="start" x="604.5" y="-364.5" font-family="Helvetica,sans-Serif" font-size="10.00">/home/runner/work/Simple</text>
<text text-anchor="start" x="604.5" y="-353.5" font-family="Helvetica,sans-Serif" font-size="10.00">&#45;Utility/Simple&#45;Utility</text>
<text text-anchor="start" x="604.5" y="-342.5" font-family="Helvetica,sans-Serif" font-size="10.00">/include/Simple&#45;Utility</text>
<text text-anchor="middle" x="669.5" y="-331.5" font-family="Helvetica,sans-Serif" font-size="10.00">/functional/tuple.hpp</text>
</a>
</g>
</g>
<!-- Node2 -->
<g id="node2" class="node">
<title>Node2</title>
<g id="a_node2"><a xlink:href="../../d5/d8e/concepts_2utility_8hpp.html" target="_top" xlink:title=" ">
<polygon fill="white" stroke="black" points="0,-56.5 0,-86.5 131,-86.5 131,-56.5 0,-56.5"/>
<text text-anchor="start" x="8" y="-74.5" font-family="Helvetica,sans-Serif" font-size="10.00">Simple&#45;Utility/concepts</text>
<text text-anchor="middle" x="65.5" y="-63.5" font-family="Helvetica,sans-Serif" font-size="10.00">/utility.hpp</text>
</a>
</g>
</g>
<!-- Node1&#45;&gt;Node2 -->
<g id="edge1" class="edge">
<title>Node1&#45;&gt;Node2</title>
<path fill="none" stroke="midnightblue" d="M596.42,-338.11C544.6,-328.53 474.14,-312.43 415.5,-288 285.49,-233.84 147.91,-135.1 91.71,-92.71"/>
<polygon fill="midnightblue" stroke="midnightblue" points="93.79,-89.9 83.71,-86.64 89.56,-95.47 93.79,-89.9"/>
</g>
<!-- Node4 -->
<g id="node4" class="node">
<title>Node4</title>
<g id="a_node4"><a xlink:href="../../d6/deb/transform_8hpp.html" target="_top" xlink:title=" ">
<polygon fill="white" stroke="black" points="424.5,-257.5 424.5,-287.5 560.5,-287.5 560.5,-257.5 424.5,-257.5"/>
<text text-anchor="start" x="432.5" y="-275.5" font-family="Helvetica,sans-Serif" font-size="10.00">Simple&#45;Utility/functional</text>
<text text-anchor="middle" x="492.5" y="-264.5" font-family="Helvetica,sans-Serif" font-size="10.00">/transform.hpp</text>
</a>
</g>
</g>
<!-- Node1&#45;&gt;Node4 -->
<g id="edge3" class="edge">
<title>Node1&#45;&gt;Node4</title>
<path fill="none" stroke="midnightblue" d="M611.05,-324.4C586.12,-313.7 557.57,-301.44 534.74,-291.64"/>
<polygon fill="midnightblue" stroke="midnightblue" points="535.9,-288.33 525.33,-287.6 533.14,-294.76 535.9,-288.33"/>
</g>
<!-- Node13 -->
<g id="node13" class="node">
<title>Node13</title>
<g id="a_node13"><a xlink:title=" ">
<polygon fill="white" stroke="#bfbfbf" points="830,-62 830,-81 871,-81 871,-62 830,-62"/>
<text text-anchor="middle" x="850.5" y="-69" font-family="Helvetica,sans-Serif" font-size="10.00">tuple</text>
</a>
</g>
</g>
<!-- Node1&#45;&gt;Node13 -->
<g id="edge27" class="edge">
<title>Node1&#45;&gt;Node13</title>
<path fill="none" stroke="midnightblue" d="M696.39,-324.33C732.07,-289.44 794.61,-222.86 829.5,-154 839.7,-133.88 845.23,-108.39 848.02,-91.32"/>
<polygon fill="midnightblue" stroke="midnightblue" points="851.54,-91.42 849.53,-81.02 844.62,-90.4 851.54,-91.42"/>
</g>
<!-- Node14 -->
<g id="node14" class="node">
<title>Node14</title>
<g id="a_node14"><a xlink:title=" ">
<polygon fill="white" stroke="#bfbfbf" points="889,-62 889,-81 934,-81 934,-62 889,-62"/>
<text text-anchor="middle" x="911.5" y="-69" font-family="Helvetica,sans-Serif" font-size="10.00">utility</text>
</a>
</g>
</g>
<!-- Node1&#45;&gt;Node14 -->
<g id="edge26" class="edge">
<title>Node1&#45;&gt;Node14</title>
<path fill="none" stroke="midnightblue" d="M711.78,-324.4C727.55,-314.09 745.11,-301.42 759.5,-288 826.34,-225.67 881.36,-129.51 902.36,-90.18"/>
<polygon fill="midnightblue" stroke="midnightblue" points="905.49,-91.74 907.05,-81.26 899.3,-88.48 905.49,-91.74"/>
</g>
<!-- Node3 -->
<g id="node3" class="node">
<title>Node3</title>
<g id="a_node3"><a xlink:title=" ">
<polygon fill="white" stroke="#bfbfbf" points="244.5,-0.5 244.5,-19.5 304.5,-19.5 304.5,-0.5 244.5,-0.5"/>
<text text-anchor="middle" x="274.5" y="-7.5" font-family="Helvetica,sans-Serif" font-size="10.00">concepts</text>
</a>
</g>
</g>
<!-- Node2&#45;&gt;Node3 -->
<g id="edge2" class="edge">
<title>Node2&#45;&gt;Node3</title>
<path fill="none" stroke="midnightblue" d="M114.77,-56.47C151.45,-46.03 200.88,-31.96 234.99,-22.25"/>
<polygon fill="midnightblue" stroke="midnightblue" points="235.96,-25.61 244.62,-19.51 234.04,-18.88 235.96,-25.61"/>
</g>
<!-- Node5 -->
<g id="node5" class="node">
<title>Node5</title>
<g id="a_node5"><a xlink:href="../../d4/d1c/unified__base_8hpp.html" target="_top" xlink:title=" ">
<polygon fill="white" stroke="black" points="149.5,-56.5 149.5,-86.5 269.5,-86.5 269.5,-56.5 149.5,-56.5"/>
<text text-anchor="start" x="157.5" y="-74.5" font-family="Helvetica,sans-Serif" font-size="10.00">Simple&#45;Utility/unified</text>
<text text-anchor="middle" x="209.5" y="-63.5" font-family="Helvetica,sans-Serif" font-size="10.00">_base.hpp</text>
</a>
</g>
</g>
<!-- Node4&#45;&gt;Node5 -->
<g id="edge4" class="edge">
<title>Node4&#45;&gt;Node5</title>
<path fill="none" stroke="midnightblue" d="M463.71,-257.44C444.97,-247.9 420.24,-234.6 399.5,-221 336.62,-179.77 268.45,-123.3 233.37,-93.27"/>
<polygon fill="midnightblue" stroke="midnightblue" points="235.45,-90.44 225.58,-86.57 230.88,-95.75 235.45,-90.44"/>
</g>
<!-- Node7 -->
<g id="node7" class="node">
<title>Node7</title>
<g id="a_node7"><a xlink:href="../../d1/d76/functional_2base_8hpp.html" target="_top" xlink:title=" ">
<polygon fill="white" stroke="black" points="328.5,-123.5 328.5,-153.5 464.5,-153.5 464.5,-123.5 328.5,-123.5"/>
<text text-anchor="start" x="336.5" y="-141.5" font-family="Helvetica,sans-Serif" font-size="10.00">Simple&#45;Utility/functional</text>
<text text-anchor="middle" x="396.5" y="-130.5" font-family="Helvetica,sans-Serif" font-size="10.00">/base.hpp</text>
</a>
</g>
</g>
<!-- Node4&#45;&gt;Node7 -->
<g id="edge7" class="edge">
<title>Node4&#45;&gt;Node7</title>
<path fill="none" stroke="midnightblue" d="M460.09,-257.41C444.38,-249.01 426.58,-236.86 415.5,-221 403.83,-204.29 399.24,-181.42 397.48,-164.16"/>
<polygon fill="midnightblue" stroke="midnightblue" points="400.94,-163.46 396.69,-153.75 393.96,-163.99 400.94,-163.46"/>
</g>
<!-- Node11 -->
<g id="node11" class="node">
<title>Node11</title>
<g id="a_node11"><a xlink:href="../../d9/d76/bind_8hpp.html" target="_top" xlink:title=" ">
<polygon fill="white" stroke="black" points="424.5,-190.5 424.5,-220.5 560.5,-220.5 560.5,-190.5 424.5,-190.5"/>
<text text-anchor="start" x="432.5" y="-208.5" font-family="Helvetica,sans-Serif" font-size="10.00">Simple&#45;Utility/functional</text>
<text text-anchor="middle" x="492.5" y="-197.5" font-family="Helvetica,sans-Serif" font-size="10.00">/operators/bind.hpp</text>
</a>
</g>
</g>
<!-- Node4&#45;&gt;Node11 -->
<g id="edge16" class="edge">
<title>Node4&#45;&gt;Node11</title>
<path fill="none" stroke="midnightblue" d="M492.5,-257.4C492.5,-249.64 492.5,-239.81 492.5,-230.86"/>
<polygon fill="midnightblue" stroke="midnightblue" points="496,-230.58 492.5,-220.58 489,-230.58 496,-230.58"/>
</g>
<!-- Node15 -->
<g id="node15" class="node">
<title>Node15</title>
<g id="a_node15"><a xlink:href="../../d5/db7/pipe_8hpp.html" target="_top" xlink:title=" ">
<polygon fill="white" stroke="black" points="578.5,-190.5 578.5,-220.5 714.5,-220.5 714.5,-190.5 578.5,-190.5"/>
<text text-anchor="start" x="586.5" y="-208.5" font-family="Helvetica,sans-Serif" font-size="10.00">Simple&#45;Utility/functional</text>
<text text-anchor="middle" x="646.5" y="-197.5" font-family="Helvetica,sans-Serif" font-size="10.00">/operators/pipe.hpp</text>
</a>
</g>
</g>
<!-- Node4&#45;&gt;Node15 -->
<g id="edge23" class="edge">
<title>Node4&#45;&gt;Node15</title>
<path fill="none" stroke="midnightblue" d="M525.92,-257.4C548.72,-247.77 579.13,-234.94 603.7,-224.56"/>
<polygon fill="midnightblue" stroke="midnightblue" points="605.3,-227.69 613.15,-220.58 602.58,-221.24 605.3,-227.69"/>
</g>
<!-- Node5&#45;&gt;Node3 -->
<g id="edge5" class="edge">
<title>Node5&#45;&gt;Node3</title>
<path fill="none" stroke="midnightblue" d="M224.9,-56.4C234.74,-47.4 247.49,-35.72 257.61,-26.47"/>
<polygon fill="midnightblue" stroke="midnightblue" points="260.03,-28.99 265.04,-19.66 255.3,-23.83 260.03,-28.99"/>
</g>
<!-- Node6 -->
<g id="node6" class="node">
<title>Node6</title>
<g id="a_node6"><a xlink:title=" ">
<polygon fill="white" stroke="#bfbfbf" points="323,-0.5 323,-19.5 392,-19.5 392,-0.5 323,-0.5"/>
<text text-anchor="middle" x="357.5" y="-7.5" font-family="Helvetica,sans-Serif" font-size="10.00">type_traits</text>
</a>
</g>
</g>
<!-- Node5&#45;&gt;Node6 -->
<g id="edge6" class="edge">
<title>Node5&#45;&gt;Node6</title>
<path fill="none" stroke="midnightblue" d="M244.57,-56.4C269.52,-46.37 302.71,-33.03 326.64,-23.4"/>
<polygon fill="midnightblue" stroke="midnightblue" points="327.99,-26.64 335.96,-19.66 325.38,-20.14 327.99,-26.64"/>
</g>
<!-- Node7&#45;&gt;Node2 -->
<g id="edge15" class="edge">
<title>Node7&#45;&gt;Node2</title>
<path fill="none" stroke="midnightblue" d="M328.32,-124.11C273.78,-113.4 197.37,-98.4 140.99,-87.32"/>
<polygon fill="midnightblue" stroke="midnightblue" points="141.54,-83.87 131.06,-85.37 140.19,-90.73 141.54,-83.87"/>
</g>
<!-- Node7&#45;&gt;Node3 -->
<g id="edge8" class="edge">
<title>Node7&#45;&gt;Node3</title>
<path fill="none" stroke="midnightblue" d="M382.41,-123.43C372.34,-113.35 358.52,-99.41 346.5,-87 326.87,-66.73 304.57,-43.09 290.06,-27.63"/>
<polygon fill="midnightblue" stroke="midnightblue" points="292.25,-24.86 282.86,-19.95 287.15,-29.64 292.25,-24.86"/>
</g>
<!-- Node7&#45;&gt;Node5 -->
<g id="edge12" class="edge">
<title>Node7&#45;&gt;Node5</title>
<path fill="none" stroke="midnightblue" d="M355.92,-123.4C327.62,-113.56 289.67,-100.37 259.5,-89.88"/>
<polygon fill="midnightblue" stroke="midnightblue" points="260.59,-86.55 250,-86.58 258.29,-93.17 260.59,-86.55"/>
</g>
<!-- Node7&#45;&gt;Node6 -->
<g id="edge10" class="edge">
<title>Node7&#45;&gt;Node6</title>
<path fill="none" stroke="midnightblue" d="M380.09,-123.4C370.62,-114.14 359.62,-101.16 354.5,-87 347.78,-68.41 349.94,-45.58 352.9,-29.82"/>
<polygon fill="midnightblue" stroke="midnightblue" points="356.38,-30.27 355.08,-19.76 349.54,-28.79 356.38,-30.27"/>
</g>
<!-- Node8 -->
<g id="node8" class="node">
<title>Node8</title>
<g id="a_node8"><a xlink:title=" ">
<polygon fill="white" stroke="#bfbfbf" points="364,-62 364,-81 429,-81 429,-62 364,-62"/>
<text text-anchor="middle" x="396.5" y="-69" font-family="Helvetica,sans-Serif" font-size="10.00">functional</text>
</a>
</g>
</g>
<!-- Node7&#45;&gt;Node8 -->
<g id="edge9" class="edge">
<title>Node7&#45;&gt;Node8</title>
<path fill="none" stroke="midnightblue" d="M396.5,-123.4C396.5,-114.06 396.5,-101.71 396.5,-91.52"/>
<polygon fill="midnightblue" stroke="midnightblue" points="400,-91.19 396.5,-81.19 393,-91.19 400,-91.19"/>
</g>
<!-- Node9 -->
<g id="node9" class="node">
<title>Node9</title>
<g id="a_node9"><a xlink:href="../../d8/dd2/_config_8hpp.html" target="_top" xlink:title=" ">
<polygon fill="white" stroke="black" points="447,-62 447,-81 586,-81 586,-62 447,-62"/>
<text text-anchor="middle" x="516.5" y="-69" font-family="Helvetica,sans-Serif" font-size="10.00">Simple&#45;Utility/Config.hpp</text>
</a>
</g>
</g>
<!-- Node7&#45;&gt;Node9 -->
<g id="edge11" class="edge">
<title>Node7&#45;&gt;Node9</title>
<path fill="none" stroke="midnightblue" d="M422.54,-123.4C443.13,-112.24 471.67,-96.78 491.88,-85.83"/>
<polygon fill="midnightblue" stroke="midnightblue" points="493.67,-88.85 500.79,-81.01 490.33,-82.69 493.67,-88.85"/>
</g>
<!-- Node10 -->
<g id="node10" class="node">
<title>Node10</title>
<g id="a_node10"><a xlink:href="../../dd/d5c/stl__extensions_8hpp.html" target="_top" xlink:title=" ">
<polygon fill="white" stroke="black" points="604,-56.5 604,-86.5 735,-86.5 735,-56.5 604,-56.5"/>
<text text-anchor="start" x="612" y="-74.5" font-family="Helvetica,sans-Serif" font-size="10.00">Simple&#45;Utility/concepts</text>
<text text-anchor="middle" x="669.5" y="-63.5" font-family="Helvetica,sans-Serif" font-size="10.00">/stl_extensions.hpp</text>
</a>
</g>
</g>
<!-- Node7&#45;&gt;Node10 -->
<g id="edge13" class="edge">
<title>Node7&#45;&gt;Node10</title>
<path fill="none" stroke="midnightblue" d="M455.4,-123.48C497.95,-113.34 555.57,-99.63 600.31,-88.97"/>
<polygon fill="midnightblue" stroke="midnightblue" points="601.32,-92.33 610.23,-86.61 599.7,-85.52 601.32,-92.33"/>
</g>
<!-- Node10&#45;&gt;Node3 -->
<g id="edge14" class="edge">
<title>Node10&#45;&gt;Node3</title>
<path fill="none" stroke="midnightblue" d="M603.77,-57.39C600.98,-56.9 598.21,-56.44 595.5,-56 473.94,-36.35 439.61,-41.93 314.63,-20.04"/>
<polygon fill="midnightblue" stroke="midnightblue" points="315.13,-16.58 304.67,-18.28 313.91,-23.47 315.13,-16.58"/>
</g>
<!-- Node11&#45;&gt;Node7 -->
<g id="edge17" class="edge">
<title>Node11&#45;&gt;Node7</title>
<path fill="none" stroke="midnightblue" d="M471.67,-190.4C458.21,-181.28 440.5,-169.29 425.65,-159.24"/>
<polygon fill="midnightblue" stroke="midnightblue" points="427.53,-156.28 417.29,-153.58 423.61,-162.08 427.53,-156.28"/>
</g>
<!-- Node12 -->
<g id="node12" class="node">
<title>Node12</title>
<g id="a_node12"><a xlink:href="../../d2/d30/general_8hpp.html" target="_top" xlink:title=" ">
<polygon fill="white" stroke="black" points="708.5,-123.5 708.5,-153.5 820.5,-153.5 820.5,-123.5 708.5,-123.5"/>
<text text-anchor="start" x="716.5" y="-141.5" font-family="Helvetica,sans-Serif" font-size="10.00">Simple&#45;Utility/tuple</text>
<text text-anchor="middle" x="764.5" y="-130.5" font-family="Helvetica,sans-Serif" font-size="10.00">/general.hpp</text>
</a>
</g>
</g>
<!-- Node11&#45;&gt;Node12 -->
<g id="edge18" class="edge">
<title>Node11&#45;&gt;Node12</title>
<path fill="none" stroke="midnightblue" d="M551.19,-190.48C594.45,-180.14 653.35,-166.06 698.3,-155.32"/>
<polygon fill="midnightblue" stroke="midnightblue" points="699.33,-158.67 708.25,-152.94 697.71,-151.86 699.33,-158.67"/>
</g>
<!-- Node12&#45;&gt;Node3 -->
<g id="edge19" class="edge">
<title>Node12&#45;&gt;Node3</title>
<path fill="none" stroke="midnightblue" d="M765.57,-123.48C766.14,-104.93 764,-72.65 744.5,-56 673.69,4.46 424.71,-32.37 314.84,-19.78"/>
<polygon fill="midnightblue" stroke="midnightblue" points="315.03,-16.28 304.65,-18.41 314.09,-23.22 315.03,-16.28"/>
</g>
<!-- Node12&#45;&gt;Node6 -->
<g id="edge21" class="edge">
<title>Node12&#45;&gt;Node6</title>
<path fill="none" stroke="midnightblue" d="M772.78,-123.48C782.17,-105.53 794.16,-74.54 777.5,-56 752.74,-28.45 505.41,-16.35 402.28,-12.48"/>
<polygon fill="midnightblue" stroke="midnightblue" points="402.3,-8.98 392.18,-12.11 402.05,-15.98 402.3,-8.98"/>
</g>
<!-- Node12&#45;&gt;Node13 -->
<g id="edge20" class="edge">
<title>Node12&#45;&gt;Node13</title>
<path fill="none" stroke="midnightblue" d="M783.16,-123.4C797.23,-112.76 816.49,-98.2 830.81,-87.38"/>
<polygon fill="midnightblue" stroke="midnightblue" points="833.13,-90.02 839,-81.19 828.91,-84.43 833.13,-90.02"/>
</g>
<!-- Node12&#45;&gt;Node14 -->
<g id="edge22" class="edge">
<title>Node12&#45;&gt;Node14</title>
<path fill="none" stroke="midnightblue" d="M797.35,-123.48C820.64,-113.47 852.57,-99.61 880.5,-87 881.69,-86.46 882.9,-85.91 884.12,-85.35"/>
<polygon fill="midnightblue" stroke="midnightblue" points="885.9,-88.39 893.51,-81.02 882.96,-82.04 885.9,-88.39"/>
</g>
<!-- Node15&#45;&gt;Node7 -->
<g id="edge24" class="edge">
<title>Node15&#45;&gt;Node7</title>
<path fill="none" stroke="midnightblue" d="M592.56,-190.48C553.84,-180.41 501.5,-166.8 460.63,-156.17"/>
<polygon fill="midnightblue" stroke="midnightblue" points="461.33,-152.74 450.77,-153.61 459.57,-159.51 461.33,-152.74"/>
</g>
<!-- Node15&#45;&gt;Node12 -->
<g id="edge25" class="edge">
<title>Node15&#45;&gt;Node12</title>
<path fill="none" stroke="midnightblue" d="M672.1,-190.4C689.04,-181.07 711.44,-168.73 729.95,-158.53"/>
<polygon fill="midnightblue" stroke="midnightblue" points="731.88,-161.47 738.95,-153.58 728.5,-155.34 731.88,-161.47"/>
</g>
</g>
</svg>
        <g id="navigator" transform="translate(0 0)" fill="#404254">
                <rect fill="#f2f5e9" fill-opacity="0.5" stroke="#606060" stroke-width=".5" x="0" y="0" width="60" height="60"/>
                <use id="zoomplus" xlink:href="#zoomPlus" x="17" y="9" onmousedown="handleZoom(evt,'in')"/>
                <use id="zoomminus" xlink:href="#zoomMin" x="42" y="9" onmousedown="handleZoom(evt,'out')"/>
                <use id="reset" xlink:href="#resetDef" x="30" y="36" onmousedown="handleReset()"/>
                <g id="arrowUp" xlink:href="#dirArrow" transform="translate(30 24)" onmousedown="handlePan(0,-1)">
                  <use xlink:href="#rim" fill="#404040">
                        <set attributeName="fill" to="#808080" begin="arrowUp.mouseover" end="arrowUp.mouseout"/>
                  </use>
                  <path fill="none" stroke="white" stroke-width="1.5" d="M0,-3.0v7 M-2.5,-0.5L0,-3.0L2.5,-0.5"/>
                </g>
                <g id="arrowRight" xlink:href="#dirArrow" transform="rotate(90) translate(36 -43)" onmousedown="handlePan(1,0)">
                  <use xlink:href="#rim" fill="#404040">
                        <set attributeName="fill" to="#808080" begin="arrowRight.mouseover" end="arrowRight.mouseout"/>
                  </use>
                  <path fill="none" stroke="white" stroke-width="1.5" d="M0,-3.0v7 M-2.5,-0.5L0,-3.0L2.5,-0.5"/>
                </g>
                <g id="arrowDown" xlink:href="#dirArrow" transform="rotate(180) translate(-30 -48)" onmousedown="handlePan(0,1)">
                  <use xlink:href="#rim" fill="#404040">
                        <set attributeName="fill" to="#808080" begin="arrowDown.mouseover" end="arrowDown.mouseout"/>
                  </use>
                  <path fill="none" stroke="white" stroke-width="1.5" d="M0,-3.0v7 M-2.5,-0.5L0,-3.0L2.5,-0.5"/>
                </g>
                <g id="arrowLeft" xlink:href="#dirArrow" transform="rotate(270) translate(-36 17)" onmousedown="handlePan(-1,0)">
                  <use xlink:href="#rim" fill="#404040">
                        <set attributeName="fill" to="#808080" begin="arrowLeft.mouseover" end="arrowLeft.mouseout"/>
                  </use>
                  <path fill="none" stroke="white" stroke-width="1.5" d="M0,-3.0v7 M-2.5,-0.5L0,-3.0L2.5,-0.5"/>
                </g>
        </g>
        <svg viewBox="0 0 15 15" width="100%" height="30px" preserveAspectRatio="xMaxYMin meet">
         <g id="arrow_out" transform="scale(0.3 0.3)">
          <a xlink:href="functional_2tuple_8hpp__incl_org.svg" target="_base">
           <rect id="button" ry="5" rx="5" y="6" x="6" height="38" width="38"
                fill="#f2f5e9" fill-opacity="0.5" stroke="#606060" stroke-width="1.0"/>
           <path id="arrow"
             d="M 11.500037,31.436501 C 11.940474,20.09759 22.043105,11.32322 32.158766,21.979434 L 37.068811,17.246167 C 37.068811,17.246167 37.088388,32 37.088388,32 L 22.160133,31.978069 C 22.160133,31.978069 26.997745,27.140456 26.997745,27.140456 C 18.528582,18.264221 13.291696,25.230495 11.500037,31.436501 z"
             style="fill:#404040;"/>
          </a>
         </g>
        </svg>
</svg>
