<?xml version="1.0" encoding="UTF-8" standalone="no"?>
<!DOCTYPE svg PUBLIC "-//W3C//DTD SVG 1.1//EN"
 "http://www.w3.org/Graphics/SVG/1.1/DTD/svg11.dtd">
<!-- Generated by graphviz version 7.0.5 (20221223.1930)
 -->
<!-- Title: sl::functional::composition_fn&lt; TOperation, TFunctions &gt; Pages: 1 -->
<svg width="183pt" height="182pt"
 viewBox="0.00 0.00 182.50 182.00" xmlns="http://www.w3.org/2000/svg" xmlns:xlink="http://www.w3.org/1999/xlink">
<g id="graph0" class="graph" transform="scale(1 1) rotate(0) translate(4 178)">
<title>sl::functional::composition_fn&lt; TOperation, TFunctions &gt;</title>
<!-- Node1 -->
<g id="node1" class="node">
<title>Node1</title>
<g id="a_node1"><a xlink:title="Functional type, which composes multiple functional objects via the given operation.">
<polygon fill="#999999" stroke="#666666" points="155,-30 0,-30 0,0 155,0 155,-30"/>
<text text-anchor="start" x="8" y="-18" font-family="Helvetica,sans-Serif" font-size="10.00">sl::functional::composition</text>
<text text-anchor="middle" x="77.5" y="-7" font-family="Helvetica,sans-Serif" font-size="10.00">_fn&lt; TOperation, TFunctions &gt;</text>
</a>
</g>
</g>
<!-- Node2 -->
<g id="node2" class="node">
<title>Node2</title>
<g id="a_node2"><a xlink:href="../../d6/d62/structsl_1_1unified__base.html" target="_top" xlink:title=" ">
<polygon fill="white" stroke="#666666" points="143.5,-97 11.5,-97 11.5,-67 143.5,-67 143.5,-97"/>
<text text-anchor="start" x="19.5" y="-85" font-family="Helvetica,sans-Serif" font-size="10.00">sl::unified_base&lt; detail</text>
<text text-anchor="middle" x="77.5" y="-74" font-family="Helvetica,sans-Serif" font-size="10.00">::composition_base_tag &gt;</text>
</a>
</g>
</g>
<!-- Node2&#45;&gt;Node1 -->
<g id="edge1" class="edge">
<title>Node2&#45;&gt;Node1</title>
<path fill="none" stroke="#8b1a1a" d="M77.5,-55.28C77.5,-46.81 77.5,-37.7 77.5,-30.39"/>
<polygon fill="#8b1a1a" stroke="#8b1a1a" points="74,-55.06 77.5,-65.06 81,-55.06 74,-55.06"/>
</g>
<!-- Node3 -->
<g id="node3" class="node">
<title>Node3</title>
<g id="a_node3"><a xlink:href="../../d6/d62/structsl_1_1unified__base.html" target="_top" xlink:title="Helper type, which can be used to create a unified base class for templated derived classes and thus ...">
<polygon fill="white" stroke="#666666" points="140,-174 15,-174 15,-155 140,-155 140,-174"/>
<text text-anchor="middle" x="77.5" y="-162" font-family="Helvetica,sans-Serif" font-size="10.00">sl::unified_base&lt; TTag &gt;</text>
</a>
</g>
</g>
<!-- Node3&#45;&gt;Node2 -->
<g id="edge2" class="edge">
<title>Node3&#45;&gt;Node2</title>
<path fill="none" stroke="orange" stroke-dasharray="5,2" d="M77.5,-143.45C77.5,-129.14 77.5,-110.22 77.5,-97.39"/>
<polygon fill="orange" stroke="orange" points="74,-143.06 77.5,-153.06 81,-143.06 74,-143.06"/>
<text text-anchor="start" x="77.5" y="-129" font-family="Helvetica,sans-Serif" font-size="10.00"> &lt; detail::composition</text>
<text text-anchor="middle" x="126" y="-118" font-family="Helvetica,sans-Serif" font-size="10.00">_base_tag &gt;</text>
</g>
</g>
</svg>
