<?xml version="1.0" encoding="UTF-8" standalone="no"?>
<!DOCTYPE svg PUBLIC "-//W3C//DTD SVG 1.1//EN"
 "http://www.w3.org/Graphics/SVG/1.1/DTD/svg11.dtd">
<!-- Generated by graphviz version 8.0.5 (20230430.1635)
 -->
<!-- Title: Simple&#45;Utility/functional/mixins/Disjunction.hpp Pages: 1 -->
<svg width="842pt" height="433pt"
 viewBox="0.00 0.00 842.00 433.00" xmlns="http://www.w3.org/2000/svg" xmlns:xlink="http://www.w3.org/1999/xlink">
<g id="graph0" class="graph" transform="scale(1 1) rotate(0) translate(4 429)">
<title>Simple&#45;Utility/functional/mixins/Disjunction.hpp</title>
<!-- Node1 -->
<g id="node1" class="node">
<title>Node1</title>
<g id="a_node1"><a xlink:title=" ">
<polygon fill="#999999" stroke="#666666" points="272.5,-425 145.5,-425 145.5,-391.5 272.5,-391.5 272.5,-425"/>
<text text-anchor="start" x="153.5" y="-411.5" font-family="Helvetica,sans-Serif" font-size="10.00">Simple&#45;Utility/functional</text>
<text text-anchor="middle" x="209" y="-398.75" font-family="Helvetica,sans-Serif" font-size="10.00">/mixins/Disjunction.hpp</text>
</a>
</g>
</g>
<!-- Node2 -->
<g id="node2" class="node">
<title>Node2</title>
<g id="a_node2"><a xlink:title=" ">
<polygon fill="#e0e0e0" stroke="#999999" points="225.25,-20.75 168.75,-20.75 168.75,0 225.25,0 225.25,-20.75"/>
<text text-anchor="middle" x="197" y="-7.25" font-family="Helvetica,sans-Serif" font-size="10.00">concepts</text>
</a>
</g>
</g>
<!-- Node1&#45;&gt;Node2 -->
<g id="edge1" class="edge">
<title>Node1&#45;&gt;Node2</title>
<path fill="none" stroke="#63b8ff" d="M145.16,-393.83C83.69,-376.73 0,-340.53 0,-270.25 0,-270.25 0,-270.25 0,-129.25 0,-56.42 100.36,-27.51 157.82,-16.92"/>
<polygon fill="#63b8ff" stroke="#63b8ff" points="158.1,-20.25 167.35,-15.09 156.9,-13.35 158.1,-20.25"/>
</g>
<!-- Node3 -->
<g id="node3" class="node">
<title>Node3</title>
<g id="a_node3"><a xlink:title=" ">
<polygon fill="#e0e0e0" stroke="#999999" points="756.62,-20.75 717.38,-20.75 717.38,0 756.62,0 756.62,-20.75"/>
<text text-anchor="middle" x="737" y="-7.25" font-family="Helvetica,sans-Serif" font-size="10.00">tuple</text>
</a>
</g>
</g>
<!-- Node1&#45;&gt;Node3 -->
<g id="edge2" class="edge">
<title>Node1&#45;&gt;Node3</title>
<path fill="none" stroke="#63b8ff" d="M272.95,-406.67C432.24,-403.51 834,-384.25 834,-270.25 834,-270.25 834,-270.25 834,-129.25 834,-84.25 791.32,-47.08 762.58,-27.16"/>
<polygon fill="#63b8ff" stroke="#63b8ff" points="764.72,-23.71 754.45,-21.08 760.84,-29.54 764.72,-23.71"/>
</g>
<!-- Node4 -->
<g id="node4" class="node">
<title>Node4</title>
<g id="a_node4"><a xlink:href="../../dd/d5c/stl__extensions_8hpp.html" target="_top" xlink:title=" ">
<polygon fill="white" stroke="#666666" points="149.88,-147 28.12,-147 28.12,-113.5 149.88,-113.5 149.88,-147"/>
<text text-anchor="start" x="36.12" y="-133.5" font-family="Helvetica,sans-Serif" font-size="10.00">Simple&#45;Utility/concepts</text>
<text text-anchor="middle" x="89" y="-120.75" font-family="Helvetica,sans-Serif" font-size="10.00">/stl_extensions.hpp</text>
</a>
</g>
</g>
<!-- Node1&#45;&gt;Node4 -->
<g id="edge3" class="edge">
<title>Node1&#45;&gt;Node4</title>
<path fill="none" stroke="#63b8ff" d="M185.25,-391.12C156.88,-370.41 110.42,-331.64 88,-286 67.76,-244.8 74.98,-189.66 82.03,-157.55"/>
<polygon fill="#63b8ff" stroke="#63b8ff" points="85.58,-158.74 84.46,-148.21 78.76,-157.13 85.58,-158.74"/>
</g>
<!-- Node6 -->
<g id="node6" class="node">
<title>Node6</title>
<g id="a_node6"><a xlink:href="../../d3/d48/_composition_8hpp.html" target="_top" xlink:title=" ">
<polygon fill="white" stroke="#666666" points="425.5,-355.5 298.5,-355.5 298.5,-322 425.5,-322 425.5,-355.5"/>
<text text-anchor="start" x="306.5" y="-342" font-family="Helvetica,sans-Serif" font-size="10.00">Simple&#45;Utility/functional</text>
<text text-anchor="middle" x="362" y="-329.25" font-family="Helvetica,sans-Serif" font-size="10.00">/Composition.hpp</text>
</a>
</g>
</g>
<!-- Node1&#45;&gt;Node6 -->
<g id="edge6" class="edge">
<title>Node1&#45;&gt;Node6</title>
<path fill="none" stroke="#63b8ff" d="M245.65,-391.08C266.58,-381.85 293.03,-370.18 315.42,-360.3"/>
<polygon fill="#63b8ff" stroke="#63b8ff" points="316.65,-363.14 324.39,-355.9 313.82,-356.74 316.65,-363.14"/>
</g>
<!-- Node4&#45;&gt;Node2 -->
<g id="edge5" class="edge">
<title>Node4&#45;&gt;Node2</title>
<path fill="none" stroke="#63b8ff" d="M82.89,-113.07C78.06,-97.31 73.8,-73.37 85,-56.75 101.14,-32.8 132.29,-21.49 157.66,-16.15"/>
<polygon fill="#63b8ff" stroke="#63b8ff" points="158.27,-19.41 167.47,-14.15 157,-12.53 158.27,-19.41"/>
</g>
<!-- Node5 -->
<g id="node5" class="node">
<title>Node5</title>
<g id="a_node5"><a xlink:title=" ">
<polygon fill="#e0e0e0" stroke="#999999" points="149.88,-77.5 94.12,-77.5 94.12,-56.75 149.88,-56.75 149.88,-77.5"/>
<text text-anchor="middle" x="122" y="-64" font-family="Helvetica,sans-Serif" font-size="10.00">compare</text>
</a>
</g>
</g>
<!-- Node4&#45;&gt;Node5 -->
<g id="edge4" class="edge">
<title>Node4&#45;&gt;Node5</title>
<path fill="none" stroke="#63b8ff" d="M97.67,-113.19C101.91,-105.33 107.06,-95.81 111.52,-87.54"/>
<polygon fill="#63b8ff" stroke="#63b8ff" points="115.02,-89.43 116.69,-78.97 108.86,-86.1 115.02,-89.43"/>
</g>
<!-- Node6&#45;&gt;Node2 -->
<g id="edge7" class="edge">
<title>Node6&#45;&gt;Node2</title>
<path fill="none" stroke="#63b8ff" d="M343.43,-321.59C322.7,-303.84 287.88,-274.91 256,-252.5 230.87,-234.84 212.04,-243.29 197,-216.5 163.35,-156.55 180.45,-70.38 190.89,-31.62"/>
<polygon fill="#63b8ff" stroke="#63b8ff" points="194.49,-32.77 193.86,-22.19 187.76,-30.86 194.49,-32.77"/>
</g>
<!-- Node6&#45;&gt;Node3 -->
<g id="edge9" class="edge">
<title>Node6&#45;&gt;Node3</title>
<path fill="none" stroke="#63b8ff" d="M425.66,-338.45C529.01,-338.21 726.83,-331.6 777,-286 805.72,-259.89 796,-239.57 796,-200.75 796,-200.75 796,-200.75 796,-129.25 796,-90.4 770.06,-51.25 752.58,-29.27"/>
<polygon fill="#63b8ff" stroke="#63b8ff" points="754.77,-27.43 745.71,-21.96 749.38,-31.89 754.77,-27.43"/>
</g>
<!-- Node6&#45;&gt;Node4 -->
<g id="edge30" class="edge">
<title>Node6&#45;&gt;Node4</title>
<path fill="none" stroke="#63b8ff" d="M298.03,-332.83C232.26,-326.39 136.02,-312.63 111,-286 78.61,-251.53 80.13,-192.26 84.39,-157.94"/>
<polygon fill="#63b8ff" stroke="#63b8ff" points="87.96,-158.73 85.9,-148.33 81.03,-157.74 87.96,-158.73"/>
</g>
<!-- Node7 -->
<g id="node7" class="node">
<title>Node7</title>
<g id="a_node7"><a xlink:title=" ">
<polygon fill="#e0e0e0" stroke="#999999" points="381.88,-140.62 320.12,-140.62 320.12,-119.88 381.88,-119.88 381.88,-140.62"/>
<text text-anchor="middle" x="351" y="-127.12" font-family="Helvetica,sans-Serif" font-size="10.00">functional</text>
</a>
</g>
</g>
<!-- Node6&#45;&gt;Node7 -->
<g id="edge8" class="edge">
<title>Node6&#45;&gt;Node7</title>
<path fill="none" stroke="#63b8ff" d="M361.14,-321.55C359.15,-284.24 354.26,-192.37 352.08,-151.46"/>
<polygon fill="#63b8ff" stroke="#63b8ff" points="355.53,-151.53 351.5,-141.73 348.54,-151.9 355.53,-151.53"/>
</g>
<!-- Node8 -->
<g id="node8" class="node">
<title>Node8</title>
<g id="a_node8"><a xlink:title=" ">
<polygon fill="#e0e0e0" stroke="#999999" points="476,-20.75 412,-20.75 412,0 476,0 476,-20.75"/>
<text text-anchor="middle" x="444" y="-7.25" font-family="Helvetica,sans-Serif" font-size="10.00">type_traits</text>
</a>
</g>
</g>
<!-- Node6&#45;&gt;Node8 -->
<g id="edge10" class="edge">
<title>Node6&#45;&gt;Node8</title>
<path fill="none" stroke="#63b8ff" d="M425.84,-335.09C466.38,-330.17 517.36,-317.52 551,-286 562.72,-275.02 609.91,-146.3 621,-77.5 622.47,-68.4 626.65,-64.04 621,-56.75 604.71,-35.75 533.91,-22.8 486.94,-16.36"/>
<polygon fill="#63b8ff" stroke="#63b8ff" points="487.51,-12.77 477.14,-14.94 486.6,-19.71 487.51,-12.77"/>
</g>
<!-- Node9 -->
<g id="node9" class="node">
<title>Node9</title>
<g id="a_node9"><a xlink:href="../../d8/dd2/_config_8hpp.html" target="_top" xlink:title=" ">
<polygon fill="white" stroke="#666666" points="768.12,-279.62 635.88,-279.62 635.88,-258.88 768.12,-258.88 768.12,-279.62"/>
<text text-anchor="middle" x="702" y="-266.12" font-family="Helvetica,sans-Serif" font-size="10.00">Simple&#45;Utility/Config.hpp</text>
</a>
</g>
</g>
<!-- Node6&#45;&gt;Node9 -->
<g id="edge11" class="edge">
<title>Node6&#45;&gt;Node9</title>
<path fill="none" stroke="#63b8ff" d="M425.95,-325.05C487.92,-312.75 581.2,-294.23 641.85,-282.19"/>
<polygon fill="#63b8ff" stroke="#63b8ff" points="642.28,-285.48 651.41,-280.1 640.92,-278.61 642.28,-285.48"/>
</g>
<!-- Node10 -->
<g id="node10" class="node">
<title>Node10</title>
<g id="a_node10"><a xlink:href="../../d5/d7b/_tuple_8hpp.html" target="_top" xlink:title=" ">
<polygon fill="white" stroke="#666666" points="517.5,-279.62 390.5,-279.62 390.5,-258.88 517.5,-258.88 517.5,-279.62"/>
<text text-anchor="middle" x="454" y="-266.12" font-family="Helvetica,sans-Serif" font-size="10.00">Simple&#45;Utility/Tuple.hpp</text>
</a>
</g>
</g>
<!-- Node6&#45;&gt;Node10 -->
<g id="edge12" class="edge">
<title>Node6&#45;&gt;Node10</title>
<path fill="none" stroke="#63b8ff" d="M383.8,-321.75C398.27,-311.14 417.21,-297.24 431.77,-286.56"/>
<polygon fill="#63b8ff" stroke="#63b8ff" points="433.62,-288.81 439.61,-280.07 429.48,-283.17 433.62,-288.81"/>
</g>
<!-- Node15 -->
<g id="node15" class="node">
<title>Node15</title>
<g id="a_node15"><a xlink:href="../../df/d2e/_type_list_8hpp.html" target="_top" xlink:title=" ">
<polygon fill="white" stroke="#666666" points="611.5,-77.5 472.5,-77.5 472.5,-56.75 611.5,-56.75 611.5,-77.5"/>
<text text-anchor="middle" x="542" y="-64" font-family="Helvetica,sans-Serif" font-size="10.00">Simple&#45;Utility/TypeList.hpp</text>
</a>
</g>
</g>
<!-- Node6&#45;&gt;Node15 -->
<g id="edge29" class="edge">
<title>Node6&#45;&gt;Node15</title>
<path fill="none" stroke="#63b8ff" d="M425.85,-331.59C459.8,-325.21 499.98,-312.26 527,-286 581.05,-233.48 560.21,-131.16 548.19,-88.04"/>
<polygon fill="#63b8ff" stroke="#63b8ff" points="551.34,-87.37 545.17,-78.76 544.63,-89.34 551.34,-87.37"/>
</g>
<!-- Node16 -->
<g id="node16" class="node">
<title>Node16</title>
<g id="a_node16"><a xlink:href="../../d8/d05/_basic_closure_8hpp.html" target="_top" xlink:title=" ">
<polygon fill="white" stroke="#666666" points="333.5,-216.5 206.5,-216.5 206.5,-183 333.5,-183 333.5,-216.5"/>
<text text-anchor="start" x="214.5" y="-203" font-family="Helvetica,sans-Serif" font-size="10.00">Simple&#45;Utility/functional</text>
<text text-anchor="middle" x="270" y="-190.25" font-family="Helvetica,sans-Serif" font-size="10.00">/BasicClosure.hpp</text>
</a>
</g>
</g>
<!-- Node6&#45;&gt;Node16 -->
<g id="edge31" class="edge">
<title>Node6&#45;&gt;Node16</title>
<path fill="none" stroke="#63b8ff" d="M351.27,-321.77C335.34,-298.05 305.32,-253.34 286.56,-225.41"/>
<polygon fill="#63b8ff" stroke="#63b8ff" points="289.15,-223.98 280.67,-217.63 283.33,-227.89 289.15,-223.98"/>
</g>
<!-- Node17 -->
<g id="node17" class="node">
<title>Node17</title>
<g id="a_node17"><a xlink:href="../../d6/d50/_overloaded_8hpp.html" target="_top" xlink:title=" ">
<polygon fill="white" stroke="#666666" points="247.5,-286 120.5,-286 120.5,-252.5 247.5,-252.5 247.5,-286"/>
<text text-anchor="start" x="128.5" y="-272.5" font-family="Helvetica,sans-Serif" font-size="10.00">Simple&#45;Utility/functional</text>
<text text-anchor="middle" x="184" y="-259.75" font-family="Helvetica,sans-Serif" font-size="10.00">/Overloaded.hpp</text>
</a>
</g>
</g>
<!-- Node6&#45;&gt;Node17 -->
<g id="edge37" class="edge">
<title>Node6&#45;&gt;Node17</title>
<path fill="none" stroke="#63b8ff" d="M319.36,-321.58C294.58,-312.18 263.13,-300.26 236.79,-290.27"/>
<polygon fill="#63b8ff" stroke="#63b8ff" points="238.19,-286.68 227.6,-286.4 235.7,-293.22 238.19,-286.68"/>
</g>
<!-- Node11 -->
<g id="node11" class="node">
<title>Node11</title>
<g id="a_node11"><a xlink:href="../../dc/d83/_algorithm_8hpp.html" target="_top" xlink:title=" ">
<polygon fill="white" stroke="#666666" points="542.25,-216.5 437.75,-216.5 437.75,-183 542.25,-183 542.25,-216.5"/>
<text text-anchor="start" x="445.75" y="-203" font-family="Helvetica,sans-Serif" font-size="10.00">Simple&#45;Utility/tuple</text>
<text text-anchor="middle" x="490" y="-190.25" font-family="Helvetica,sans-Serif" font-size="10.00">/Algorithm.hpp</text>
</a>
</g>
</g>
<!-- Node10&#45;&gt;Node11 -->
<g id="edge13" class="edge">
<title>Node10&#45;&gt;Node11</title>
<path fill="none" stroke="#63b8ff" d="M459.16,-258.58C463.64,-250.18 470.34,-237.62 476.35,-226.35"/>
<polygon fill="#63b8ff" stroke="#63b8ff" points="479.76,-228.39 481.38,-217.92 473.58,-225.1 479.76,-228.39"/>
</g>
<!-- Node13 -->
<g id="node13" class="node">
<title>Node13</title>
<g id="a_node13"><a xlink:href="../../dd/d5a/_general_8hpp.html" target="_top" xlink:title=" ">
<polygon fill="white" stroke="#666666" points="504.25,-147 399.75,-147 399.75,-113.5 504.25,-113.5 504.25,-147"/>
<text text-anchor="start" x="407.75" y="-133.5" font-family="Helvetica,sans-Serif" font-size="10.00">Simple&#45;Utility/tuple</text>
<text text-anchor="middle" x="452" y="-120.75" font-family="Helvetica,sans-Serif" font-size="10.00">/General.hpp</text>
</a>
</g>
</g>
<!-- Node10&#45;&gt;Node13 -->
<g id="edge28" class="edge">
<title>Node10&#45;&gt;Node13</title>
<path fill="none" stroke="#63b8ff" d="M447.59,-258.44C441.44,-248.39 432.56,-232.06 429,-216.5 425.68,-201.99 425.91,-197.56 429,-183 430.84,-174.31 434.25,-165.3 437.89,-157.29"/>
<polygon fill="#63b8ff" stroke="#63b8ff" points="441.46,-158.95 442.7,-148.43 435.17,-155.89 441.46,-158.95"/>
</g>
<!-- Node11&#45;&gt;Node7 -->
<g id="edge15" class="edge">
<title>Node11&#45;&gt;Node7</title>
<path fill="none" stroke="#63b8ff" d="M456.71,-182.58C433.58,-171.35 403.04,-156.52 380.73,-145.69"/>
<polygon fill="#63b8ff" stroke="#63b8ff" points="382.65,-142.24 372.12,-141.02 379.59,-148.54 382.65,-142.24"/>
</g>
<!-- Node11&#45;&gt;Node8 -->
<g id="edge16" class="edge">
<title>Node11&#45;&gt;Node8</title>
<path fill="none" stroke="#63b8ff" d="M500.98,-182.65C511.57,-164.96 524.42,-136.07 513,-113.5 500.8,-89.39 479.6,-99.57 464,-77.5 454.37,-63.88 449.3,-45.55 446.68,-31.64"/>
<polygon fill="#63b8ff" stroke="#63b8ff" points="450.04,-31.52 445.01,-22.2 443.13,-32.62 450.04,-31.52"/>
</g>
<!-- Node12 -->
<g id="node12" class="node">
<title>Node12</title>
<g id="a_node12"><a xlink:title=" ">
<polygon fill="#e0e0e0" stroke="#999999" points="621.5,-20.75 560.5,-20.75 560.5,0 621.5,0 621.5,-20.75"/>
<text text-anchor="middle" x="591" y="-7.25" font-family="Helvetica,sans-Serif" font-size="10.00">algorithm</text>
</a>
</g>
</g>
<!-- Node11&#45;&gt;Node12 -->
<g id="edge14" class="edge">
<title>Node11&#45;&gt;Node12</title>
<path fill="none" stroke="#63b8ff" d="M518.41,-182.53C550.25,-162.52 600.15,-125.21 621,-77.5 628.14,-61.17 618.24,-42.71 607.95,-29.45"/>
<polygon fill="#63b8ff" stroke="#63b8ff" points="610.1,-27.57 600.97,-22.2 604.75,-32.09 610.1,-27.57"/>
</g>
<!-- Node11&#45;&gt;Node13 -->
<g id="edge17" class="edge">
<title>Node11&#45;&gt;Node13</title>
<path fill="none" stroke="#63b8ff" d="M480.99,-182.75C476.59,-174.94 471.19,-165.34 466.25,-156.56"/>
<polygon fill="#63b8ff" stroke="#63b8ff" points="468.9,-155.13 460.94,-148.13 462.8,-158.56 468.9,-155.13"/>
</g>
<!-- Node13&#45;&gt;Node2 -->
<g id="edge18" class="edge">
<title>Node13&#45;&gt;Node2</title>
<path fill="none" stroke="#63b8ff" d="M417.08,-113.11C367.01,-89.96 275.62,-47.72 227.88,-25.65"/>
<polygon fill="#63b8ff" stroke="#63b8ff" points="229.66,-22.16 219.12,-21.14 226.73,-28.51 229.66,-22.16"/>
</g>
<!-- Node13&#45;&gt;Node3 -->
<g id="edge19" class="edge">
<title>Node13&#45;&gt;Node3</title>
<path fill="none" stroke="#63b8ff" d="M504.46,-116.4C538.38,-107.32 583.11,-93.86 621,-77.5 654.52,-63.03 690.7,-41.33 713.58,-26.78"/>
<polygon fill="#63b8ff" stroke="#63b8ff" points="715.01,-29.38 721.53,-21.02 711.22,-23.49 715.01,-29.38"/>
</g>
<!-- Node13&#45;&gt;Node8 -->
<g id="edge20" class="edge">
<title>Node13&#45;&gt;Node8</title>
<path fill="none" stroke="#63b8ff" d="M443.1,-113.02C438.17,-103.09 432.53,-89.94 430,-77.5 426.85,-62.03 430.88,-44.55 435.41,-31.45"/>
<polygon fill="#63b8ff" stroke="#63b8ff" points="439.02,-32.81 439.36,-22.22 432.49,-30.29 439.02,-32.81"/>
</g>
<!-- Node14 -->
<g id="node14" class="node">
<title>Node14</title>
<g id="a_node14"><a xlink:title=" ">
<polygon fill="#e0e0e0" stroke="#999999" points="388.38,-20.75 347.62,-20.75 347.62,0 388.38,0 388.38,-20.75"/>
<text text-anchor="middle" x="368" y="-7.25" font-family="Helvetica,sans-Serif" font-size="10.00">utility</text>
</a>
</g>
</g>
<!-- Node13&#45;&gt;Node14 -->
<g id="edge21" class="edge">
<title>Node13&#45;&gt;Node14</title>
<path fill="none" stroke="#63b8ff" d="M440.67,-113.35C425.23,-91.69 397.64,-52.96 381.26,-29.98"/>
<polygon fill="#63b8ff" stroke="#63b8ff" points="383.64,-28.3 374.99,-22.18 377.94,-32.36 383.64,-28.3"/>
</g>
<!-- Node13&#45;&gt;Node15 -->
<g id="edge22" class="edge">
<title>Node13&#45;&gt;Node15</title>
<path fill="none" stroke="#63b8ff" d="M475.65,-113.19C488.89,-104.2 505.34,-93.02 518.56,-84.05"/>
<polygon fill="#63b8ff" stroke="#63b8ff" points="520.2,-86.48 526.51,-77.97 516.27,-80.69 520.2,-86.48"/>
</g>
<!-- Node15&#45;&gt;Node2 -->
<g id="edge24" class="edge">
<title>Node15&#45;&gt;Node2</title>
<path fill="none" stroke="#63b8ff" d="M479.92,-56.27C409.21,-45.05 295.78,-27.05 236.3,-17.61"/>
<polygon fill="#63b8ff" stroke="#63b8ff" points="236.93,-14.01 226.5,-15.9 235.83,-20.92 236.93,-14.01"/>
</g>
<!-- Node15&#45;&gt;Node3 -->
<g id="edge25" class="edge">
<title>Node15&#45;&gt;Node3</title>
<path fill="none" stroke="#63b8ff" d="M576.86,-56.34C613.73,-45.98 671.33,-29.81 706.47,-19.95"/>
<polygon fill="#63b8ff" stroke="#63b8ff" points="707.35,-23.05 716.04,-16.98 705.46,-16.31 707.35,-23.05"/>
</g>
<!-- Node15&#45;&gt;Node8 -->
<g id="edge26" class="edge">
<title>Node15&#45;&gt;Node8</title>
<path fill="none" stroke="#63b8ff" d="M524.48,-56.34C509.57,-48.01 487.91,-35.91 470.82,-26.36"/>
<polygon fill="#63b8ff" stroke="#63b8ff" points="472.81,-22.9 462.37,-21.08 469.39,-29.01 472.81,-22.9"/>
</g>
<!-- Node15&#45;&gt;Node12 -->
<g id="edge23" class="edge">
<title>Node15&#45;&gt;Node12</title>
<path fill="none" stroke="#63b8ff" d="M550.76,-56.34C557.52,-48.78 567.05,-38.14 575.14,-29.1"/>
<polygon fill="#63b8ff" stroke="#63b8ff" points="577.25,-31.86 581.32,-22.08 572.04,-27.2 577.25,-31.86"/>
</g>
<!-- Node15&#45;&gt;Node14 -->
<g id="edge27" class="edge">
<title>Node15&#45;&gt;Node14</title>
<path fill="none" stroke="#63b8ff" d="M510.89,-56.34C479.24,-46.38 430.47,-31.03 398.89,-21.09"/>
<polygon fill="#63b8ff" stroke="#63b8ff" points="400.09,-17.49 389.5,-17.82 397.98,-24.16 400.09,-17.49"/>
</g>
<!-- Node16&#45;&gt;Node2 -->
<g id="edge32" class="edge">
<title>Node16&#45;&gt;Node2</title>
<path fill="none" stroke="#63b8ff" d="M259.6,-182.91C253.34,-172.9 245.54,-159.54 240,-147 222.52,-107.44 208.83,-58.55 201.93,-31.6"/>
<polygon fill="#63b8ff" stroke="#63b8ff" points="205.15,-31.03 199.32,-22.18 198.36,-32.73 205.15,-31.03"/>
</g>
<!-- Node16&#45;&gt;Node4 -->
<g id="edge36" class="edge">
<title>Node16&#45;&gt;Node4</title>
<path fill="none" stroke="#63b8ff" d="M226.65,-182.58C201.33,-173.14 169.18,-161.15 142.32,-151.14"/>
<polygon fill="#63b8ff" stroke="#63b8ff" points="143.91,-147.62 133.31,-147.4 141.46,-154.18 143.91,-147.62"/>
</g>
<!-- Node16&#45;&gt;Node7 -->
<g id="edge33" class="edge">
<title>Node16&#45;&gt;Node7</title>
<path fill="none" stroke="#63b8ff" d="M289.2,-182.75C301.82,-172.24 318.29,-158.51 331.06,-147.87"/>
<polygon fill="#63b8ff" stroke="#63b8ff" points="332.77,-150.16 338.21,-141.07 328.29,-144.78 332.77,-150.16"/>
</g>
<!-- Node16&#45;&gt;Node8 -->
<g id="edge34" class="edge">
<title>Node16&#45;&gt;Node8</title>
<path fill="none" stroke="#63b8ff" d="M275.15,-182.72C281.53,-164.58 293.71,-134.79 311,-113.5 341.34,-76.14 387.96,-44.45 417.18,-26.68"/>
<polygon fill="#63b8ff" stroke="#63b8ff" points="418.57,-29.33 425.37,-21.2 414.99,-23.31 418.57,-29.33"/>
</g>
<!-- Node16&#45;&gt;Node14 -->
<g id="edge35" class="edge">
<title>Node16&#45;&gt;Node14</title>
<path fill="none" stroke="#63b8ff" d="M269.19,-182.53C268.84,-165 269.83,-136.47 278,-113.5 290.88,-77.3 323.71,-45.88 345.94,-27.78"/>
<polygon fill="#63b8ff" stroke="#63b8ff" points="347.76,-30.02 353.45,-21.08 343.43,-24.52 347.76,-30.02"/>
</g>
</g>
</svg>
