<?xml version="1.0" encoding="UTF-8" standalone="no"?>
<!DOCTYPE svg PUBLIC "-//W3C//DTD SVG 1.1//EN"
 "http://www.w3.org/Graphics/SVG/1.1/DTD/svg11.dtd">
<!-- Generated by graphviz version 7.0.5 (20221223.1930)
 -->
<!-- Title: sl::functional::predicate_fn&lt; TFunc &gt; Pages: 1 -->
<svg width="1210pt" height="179pt"
 viewBox="0.00 0.00 1210.00 178.63" xmlns="http://www.w3.org/2000/svg" xmlns:xlink="http://www.w3.org/1999/xlink">
<g id="graph0" class="graph" transform="scale(1 1) rotate(0) translate(4 174.63)">
<title>sl::functional::predicate_fn&lt; TFunc &gt;</title>
<!-- Node1 -->
<g id="node1" class="node">
<title>Node1</title>
<g id="a_node1"><a xlink:title="Adapter type for predicates, which accepts a functional type and enables pipe, conjunctive and disjun...">
<polygon fill="#999999" stroke="#666666" points="1202,-118.63 1081,-118.63 1081,-88.63 1202,-88.63 1202,-118.63"/>
<text text-anchor="start" x="1089" y="-106.63" font-family="Helvetica,sans-Serif" font-size="10.00">sl::functional::predicate</text>
<text text-anchor="middle" x="1141.5" y="-95.63" font-family="Helvetica,sans-Serif" font-size="10.00">_fn&lt; TFunc &gt;</text>
</a>
</g>
</g>
<!-- Node2 -->
<g id="node2" class="node">
<title>Node2</title>
<g id="a_node2"><a xlink:href="../../d9/de4/classsl_1_1functional_1_1closure__base__fn.html" target="_top" xlink:title="Helper type which simply stores functional objects or function pointers.">
<polygon fill="white" stroke="#666666" points="798.5,-166.63 687.5,-166.63 687.5,-136.63 798.5,-136.63 798.5,-166.63"/>
<text text-anchor="start" x="695.5" y="-154.63" font-family="Helvetica,sans-Serif" font-size="10.00">sl::functional::closure</text>
<text text-anchor="middle" x="743" y="-143.63" font-family="Helvetica,sans-Serif" font-size="10.00">_base_fn&lt; TFunc &gt;</text>
</a>
</g>
</g>
<!-- Node2&#45;&gt;Node1 -->
<g id="edge1" class="edge">
<title>Node2&#45;&gt;Node1</title>
<path fill="none" stroke="#63b8ff" d="M809.94,-143.64C885.34,-134.52 1007.71,-119.7 1080.52,-110.89"/>
<polygon fill="#63b8ff" stroke="#63b8ff" points="809.72,-140.14 800.22,-144.82 810.57,-147.09 809.72,-140.14"/>
</g>
<!-- Node3 -->
<g id="node3" class="node">
<title>Node3</title>
<g id="a_node3"><a xlink:href="../../d6/d62/structsl_1_1unified__base.html" target="_top" xlink:title=" ">
<polygon fill="white" stroke="#666666" points="419.5,-170.63 300.5,-170.63 300.5,-140.63 419.5,-140.63 419.5,-170.63"/>
<text text-anchor="start" x="308.5" y="-158.63" font-family="Helvetica,sans-Serif" font-size="10.00">sl::unified_base&lt; detail</text>
<text text-anchor="middle" x="360" y="-147.63" font-family="Helvetica,sans-Serif" font-size="10.00">::closure_base_tag &gt;</text>
</a>
</g>
</g>
<!-- Node3&#45;&gt;Node2 -->
<g id="edge2" class="edge">
<title>Node3&#45;&gt;Node2</title>
<path fill="none" stroke="#8b1a1a" d="M431.19,-154.89C505.06,-154.11 619.8,-152.91 687.26,-152.2"/>
<polygon fill="#8b1a1a" stroke="#8b1a1a" points="431.17,-151.39 421.21,-154.99 431.25,-158.39 431.17,-151.39"/>
</g>
<!-- Node4 -->
<g id="node4" class="node">
<title>Node4</title>
<g id="a_node4"><a xlink:href="../../d6/d62/structsl_1_1unified__base.html" target="_top" xlink:title="Helper type, which can be used to create a unified base class for templated derived classes and thus ...">
<polygon fill="white" stroke="#666666" points="125,-140.13 0,-140.13 0,-121.13 125,-121.13 125,-140.13"/>
<text text-anchor="middle" x="62.5" y="-128.13" font-family="Helvetica,sans-Serif" font-size="10.00">sl::unified_base&lt; TTag &gt;</text>
</a>
</g>
</g>
<!-- Node4&#45;&gt;Node3 -->
<g id="edge3" class="edge">
<title>Node4&#45;&gt;Node3</title>
<path fill="none" stroke="orange" stroke-dasharray="5,2" d="M136.92,-136.84C187.29,-141.1 253.24,-146.68 300.15,-150.65"/>
<polygon fill="orange" stroke="orange" points="137.21,-133.35 126.95,-135.99 136.62,-140.32 137.21,-133.35"/>
<text text-anchor="start" x="153.5" y="-160.63" font-family="Helvetica,sans-Serif" font-size="10.00"> &lt; detail::closure_base</text>
<text text-anchor="middle" x="203.5" y="-149.63" font-family="Helvetica,sans-Serif" font-size="10.00">_tag &gt;</text>
</g>
<!-- Node6 -->
<g id="node6" class="node">
<title>Node6</title>
<g id="a_node6"><a xlink:href="../../d6/d62/structsl_1_1unified__base.html" target="_top" xlink:title=" ">
<polygon fill="white" stroke="#666666" points="438,-122.63 282,-122.63 282,-92.63 438,-92.63 438,-122.63"/>
<text text-anchor="start" x="290" y="-110.63" font-family="Helvetica,sans-Serif" font-size="10.00">sl::unified_base&lt; detail</text>
<text text-anchor="middle" x="360" y="-99.63" font-family="Helvetica,sans-Serif" font-size="10.00">::enable_operators_base_tag &gt;</text>
</a>
</g>
</g>
<!-- Node4&#45;&gt;Node6 -->
<g id="edge6" class="edge">
<title>Node4&#45;&gt;Node6</title>
<path fill="none" stroke="orange" stroke-dasharray="5,2" d="M106.52,-117.87C118.25,-114.92 131.02,-112.19 143,-110.63 188.74,-104.64 240.39,-103.71 281.71,-104.36"/>
<polygon fill="orange" stroke="orange" points="105.9,-114.41 97.13,-120.34 107.69,-121.18 105.9,-114.41"/>
<text text-anchor="start" x="143" y="-124.63" font-family="Helvetica,sans-Serif" font-size="10.00"> &lt; detail::enable_operators</text>
<text text-anchor="middle" x="203.5" y="-113.63" font-family="Helvetica,sans-Serif" font-size="10.00">_base_tag &gt;</text>
</g>
<!-- Node5 -->
<g id="node5" class="node">
<title>Node5</title>
<g id="a_node5"><a xlink:href="../../d0/d50/structsl_1_1functional_1_1enable__operation.html" target="_top" xlink:title=" ">
<polygon fill="white" stroke="#666666" points="1044,-100.63 850,-100.63 850,-4.63 1044,-4.63 1044,-100.63"/>
<text text-anchor="start" x="858" y="-88.63" font-family="Helvetica,sans-Serif" font-size="10.00">sl::functional::enable</text>
<text text-anchor="start" x="858" y="-77.63" font-family="Helvetica,sans-Serif" font-size="10.00">_operation&lt; predicate</text>
<text text-anchor="start" x="858" y="-66.63" font-family="Helvetica,sans-Serif" font-size="10.00">_fn, operators::pipe, operators</text>
<text text-anchor="start" x="858" y="-55.63" font-family="Helvetica,sans-Serif" font-size="10.00">::bind_front, operators::bind</text>
<text text-anchor="start" x="858" y="-44.63" font-family="Helvetica,sans-Serif" font-size="10.00">_back, operators::disjunction,</text>
<text text-anchor="start" x="858" y="-33.63" font-family="Helvetica,sans-Serif" font-size="10.00"> operators::conjunction, operators</text>
<text text-anchor="start" x="858" y="-22.63" font-family="Helvetica,sans-Serif" font-size="10.00">::equal, operators::not_equal, operators</text>
<text text-anchor="middle" x="947" y="-11.63" font-family="Helvetica,sans-Serif" font-size="10.00">::equivalent, operators::negate &gt;</text>
</a>
</g>
</g>
<!-- Node5&#45;&gt;Node1 -->
<g id="edge4" class="edge">
<title>Node5&#45;&gt;Node1</title>
<path fill="none" stroke="#63b8ff" d="M1055.17,-81.02C1064.44,-83.48 1073.58,-85.9 1082.22,-88.19"/>
<polygon fill="#63b8ff" stroke="#63b8ff" points="1056.28,-77.69 1045.71,-78.51 1054.48,-84.46 1056.28,-77.69"/>
</g>
<!-- Node6&#45;&gt;Node5 -->
<g id="edge5" class="edge">
<title>Node6&#45;&gt;Node5</title>
<path fill="none" stroke="#8b1a1a" d="M449.7,-117.57C545.28,-125.82 701.29,-132.11 832,-103.63 837.83,-102.36 843.72,-100.77 849.59,-98.95"/>
<polygon fill="#8b1a1a" stroke="#8b1a1a" points="450.13,-114.1 439.86,-116.69 449.5,-121.07 450.13,-114.1"/>
</g>
<!-- Node8 -->
<g id="node8" class="node">
<title>Node8</title>
<g id="a_node8"><a xlink:href="../../d0/d50/structsl_1_1functional_1_1enable__operation.html" target="_top" xlink:title=" ">
<polygon fill="white" stroke="#666666" points="636,-62.13 475,-62.13 475,-21.13 636,-21.13 636,-62.13"/>
<text text-anchor="start" x="483" y="-50.13" font-family="Helvetica,sans-Serif" font-size="10.00">sl::functional::enable</text>
<text text-anchor="start" x="483" y="-39.13" font-family="Helvetica,sans-Serif" font-size="10.00">_operation&lt; TClosureTemplate,</text>
<text text-anchor="middle" x="555.5" y="-28.13" font-family="Helvetica,sans-Serif" font-size="10.00"> TOperationTags &gt;</text>
</a>
</g>
</g>
<!-- Node6&#45;&gt;Node8 -->
<g id="edge9" class="edge">
<title>Node6&#45;&gt;Node8</title>
<path fill="none" stroke="#8b1a1a" d="M416.99,-88.53C440.77,-80.42 468.58,-70.93 492.94,-62.62"/>
<polygon fill="#8b1a1a" stroke="#8b1a1a" points="416.13,-85.12 407.8,-91.66 418.39,-91.75 416.13,-85.12"/>
</g>
<!-- Node7 -->
<g id="node7" class="node">
<title>Node7</title>
<g id="a_node7"><a xlink:title=" ">
<polygon fill="white" stroke="#666666" points="405,-21.13 315,-21.13 315,-2.13 405,-2.13 405,-21.13"/>
<text text-anchor="middle" x="360" y="-9.13" font-family="Helvetica,sans-Serif" font-size="10.00">TOperationTags</text>
</a>
</g>
</g>
<!-- Node7&#45;&gt;Node5 -->
<g id="edge7" class="edge">
<title>Node7&#45;&gt;Node5</title>
<path fill="none" stroke="#63b8ff" d="M416.6,-6.79C505.19,-0.29 683.54,7.81 832,-16.63 837.84,-17.59 843.79,-18.78 849.75,-20.14"/>
<polygon fill="#63b8ff" stroke="#63b8ff" points="416.43,-3.29 406.73,-7.54 416.96,-10.27 416.43,-3.29"/>
</g>
<!-- Node7&#45;&gt;Node8 -->
<g id="edge10" class="edge">
<title>Node7&#45;&gt;Node8</title>
<path fill="none" stroke="#63b8ff" d="M416.6,-20.25C434.68,-23.05 455.11,-26.22 474.6,-29.24"/>
<polygon fill="#63b8ff" stroke="#63b8ff" points="417.31,-16.81 406.89,-18.74 416.23,-23.73 417.31,-16.81"/>
</g>
<!-- Node8&#45;&gt;Node5 -->
<g id="edge8" class="edge">
<title>Node8&#45;&gt;Node5</title>
<path fill="none" stroke="orange" stroke-dasharray="5,2" d="M647.77,-27.15C649.87,-26.96 651.94,-26.78 654,-26.63 732.88,-20.59 753.39,-17.77 832,-26.63 837.75,-27.27 843.63,-28.1 849.55,-29.05"/>
<polygon fill="orange" stroke="orange" points="647.56,-23.65 637.97,-28.16 648.28,-30.62 647.56,-23.65"/>
<text text-anchor="start" x="654" y="-95.63" font-family="Helvetica,sans-Serif" font-size="10.00"> &lt; predicate_fn, operators</text>
<text text-anchor="start" x="654" y="-84.63" font-family="Helvetica,sans-Serif" font-size="10.00">::pipe, operators::bind</text>
<text text-anchor="start" x="654" y="-73.63" font-family="Helvetica,sans-Serif" font-size="10.00">_front, operators::bind</text>
<text text-anchor="start" x="654" y="-62.63" font-family="Helvetica,sans-Serif" font-size="10.00">_back, operators::disjunction,</text>
<text text-anchor="start" x="654" y="-51.63" font-family="Helvetica,sans-Serif" font-size="10.00"> operators::conjunction, operators</text>
<text text-anchor="start" x="654" y="-40.63" font-family="Helvetica,sans-Serif" font-size="10.00">::equal, operators::not_equal, operators</text>
<text text-anchor="middle" x="743" y="-29.63" font-family="Helvetica,sans-Serif" font-size="10.00">::equivalent, operators::negate &gt;</text>
</g>
</g>
</svg>
