<?xml version="1.0" encoding="UTF-8" standalone="no"?>
<!DOCTYPE svg PUBLIC "-//W3C//DTD SVG 1.1//EN"
 "http://www.w3.org/Graphics/SVG/1.1/DTD/svg11.dtd">
<!-- Generated by graphviz version 7.0.5 (20221223.1930)
 -->
<!-- Title: Simple&#45;Utility/nullables/std_pointers.hpp Pages: 1 -->
<!--zoomable 357 -->
<svg id="main" version="1.1" xmlns="http://www.w3.org/2000/svg" xmlns:xlink="http://www.w3.org/1999/xlink" xml:space="preserve" onload="init(evt)">
<style type="text/css"><![CDATA[
.edge:hover path { stroke: red; }
.edge:hover polygon { stroke: red; fill: red; }
]]></style>
<script type="text/javascript"><![CDATA[
var edges = document.getElementsByTagName('g');
if (edges && edges.length) {
  for (var i=0;i<edges.length;i++) {
    if (edges[i].id.substr(0,4)=='edge') {
      edges[i].setAttribute('class','edge');
    }
  }
}
]]></script>
        <defs>
                <circle id="rim" cx="0" cy="0" r="7"/>
                <circle id="rim2" cx="0" cy="0" r="3.5"/>
                <g id="zoomPlus">
                        <use xlink:href="#rim" fill="#404040">
                                <set attributeName="fill" to="#808080" begin="zoomplus.mouseover" end="zoomplus.mouseout"/>
                        </use>
                        <path d="M-4,0h8M0,-4v8" fill="none" stroke="white" stroke-width="1.5" pointer-events="none"/>
                </g>
                <g id="zoomMin">
                        <use xlink:href="#rim" fill="#404040">
                                <set attributeName="fill" to="#808080" begin="zoomminus.mouseover" end="zoomminus.mouseout"/>
                        </use>
                        <path d="M-4,0h8" fill="none" stroke="white" stroke-width="1.5" pointer-events="none"/>
                </g>
                <g id="dirArrow">
                        <path fill="none" stroke="white" stroke-width="1.5" d="M0,-3.0v7 M-2.5,-0.5L0,-3.0L2.5,-0.5"/>
                </g>
               <g id="resetDef">
                       <use xlink:href="#rim2" fill="#404040">
                               <set attributeName="fill" to="#808080" begin="reset.mouseover" end="reset.mouseout"/>
                       </use>
               </g>
        </defs>

<script type="text/javascript">
var viewWidth = 954;
var viewHeight = 357;
var sectionId = 'dynsection-0';
</script>
<script xlink:href="../../svgpan.js"/>
<svg id="graph" class="graph">
<g id="viewport">
<title>Simple&#45;Utility/nullables/std_pointers.hpp</title>
<!-- Node1 -->
<g id="node1" class="node">
<title>Node1</title>
<g id="a_node1"><a xlink:title=" ">
<polygon fill="#999999" stroke="#666666" points="682.14,-349 559.14,-349 559.14,-319 682.14,-319 682.14,-349"/>
<text text-anchor="start" x="567.14" y="-337" font-family="Helvetica,sans-Serif" font-size="10.00">Simple&#45;Utility/nullables</text>
<text text-anchor="middle" x="620.64" y="-326" font-family="Helvetica,sans-Serif" font-size="10.00">/std_pointers.hpp</text>
</a>
</g>
</g>
<!-- Node2 -->
<g id="node2" class="node">
<title>Node2</title>
<g id="a_node2"><a xlink:href="../../d6/dbe/nullables_2base_8hpp.html" target="_top" xlink:title=" ">
<polygon fill="white" stroke="#666666" points="629.14,-283 506.14,-283 506.14,-253 629.14,-253 629.14,-283"/>
<text text-anchor="start" x="514.14" y="-271" font-family="Helvetica,sans-Serif" font-size="10.00">Simple&#45;Utility/nullables</text>
<text text-anchor="middle" x="567.64" y="-260" font-family="Helvetica,sans-Serif" font-size="10.00">/base.hpp</text>
</a>
</g>
</g>
<!-- Node1&#45;&gt;Node2 -->
<g id="edge1" class="edge">
<title>Node1&#45;&gt;Node2</title>
<path fill="none" stroke="#63b8ff" d="M608.88,-318.8C602.36,-310.92 594.1,-300.95 586.68,-291.99"/>
<polygon fill="#63b8ff" stroke="#63b8ff" points="589.41,-289.8 580.34,-284.33 584.02,-294.26 589.41,-289.8"/>
</g>
<!-- Node17 -->
<g id="node17" class="node">
<title>Node17</title>
<g id="a_node17"><a xlink:title=" ">
<polygon fill="#e0e0e0" stroke="#999999" points="701.64,-277.5 647.64,-277.5 647.64,-258.5 701.64,-258.5 701.64,-277.5"/>
<text text-anchor="middle" x="674.64" y="-265.5" font-family="Helvetica,sans-Serif" font-size="10.00">memory</text>
</a>
</g>
</g>
<!-- Node1&#45;&gt;Node17 -->
<g id="edge27" class="edge">
<title>Node1&#45;&gt;Node17</title>
<path fill="none" stroke="#63b8ff" d="M632.63,-318.8C640.63,-309.31 651.22,-296.76 659.77,-286.63"/>
<polygon fill="#63b8ff" stroke="#63b8ff" points="662.43,-288.9 666.2,-279 657.08,-284.39 662.43,-288.9"/>
</g>
<!-- Node3 -->
<g id="node3" class="node">
<title>Node3</title>
<g id="a_node3"><a xlink:href="../../dd/d5c/stl__extensions_8hpp.html" target="_top" xlink:title=" ">
<polygon fill="white" stroke="#666666" points="136.64,-85 14.64,-85 14.64,-55 136.64,-55 136.64,-85"/>
<text text-anchor="start" x="22.64" y="-73" font-family="Helvetica,sans-Serif" font-size="10.00">Simple&#45;Utility/concepts</text>
<text text-anchor="middle" x="75.64" y="-62" font-family="Helvetica,sans-Serif" font-size="10.00">/stl_extensions.hpp</text>
</a>
</g>
</g>
<!-- Node2&#45;&gt;Node3 -->
<g id="edge2" class="edge">
<title>Node2&#45;&gt;Node3</title>
<path fill="none" stroke="#63b8ff" d="M531.47,-252.59C443.77,-217.65 219.89,-128.47 122.3,-89.59"/>
<polygon fill="#63b8ff" stroke="#63b8ff" points="123.87,-86.44 113.28,-85.99 121.27,-92.95 123.87,-86.44"/>
</g>
<!-- Node5 -->
<g id="node5" class="node">
<title>Node5</title>
<g id="a_node5"><a xlink:href="../../dd/dcd/operators_8hpp.html" target="_top" xlink:title=" ">
<polygon fill="white" stroke="#666666" points="124.64,-151 2.64,-151 2.64,-121 124.64,-121 124.64,-151"/>
<text text-anchor="start" x="10.64" y="-139" font-family="Helvetica,sans-Serif" font-size="10.00">Simple&#45;Utility/concepts</text>
<text text-anchor="middle" x="63.64" y="-128" font-family="Helvetica,sans-Serif" font-size="10.00">/operators.hpp</text>
</a>
</g>
</g>
<!-- Node2&#45;&gt;Node5 -->
<g id="edge4" class="edge">
<title>Node2&#45;&gt;Node5</title>
<path fill="none" stroke="#63b8ff" d="M505.87,-258.59C449.74,-250.29 364.9,-236.07 292.64,-217 227.99,-199.94 155.45,-173.27 109.67,-155.47"/>
<polygon fill="#63b8ff" stroke="#63b8ff" points="111.19,-152.31 100.61,-151.92 108.64,-158.83 111.19,-152.31"/>
</g>
<!-- Node6 -->
<g id="node6" class="node">
<title>Node6</title>
<g id="a_node6"><a xlink:href="../../d1/d76/functional_2base_8hpp.html" target="_top" xlink:title=" ">
<polygon fill="white" stroke="#666666" points="539.64,-151 411.64,-151 411.64,-121 539.64,-121 539.64,-151"/>
<text text-anchor="start" x="419.64" y="-139" font-family="Helvetica,sans-Serif" font-size="10.00">Simple&#45;Utility/functional</text>
<text text-anchor="middle" x="475.64" y="-128" font-family="Helvetica,sans-Serif" font-size="10.00">/base.hpp</text>
</a>
</g>
</g>
<!-- Node2&#45;&gt;Node6 -->
<g id="edge6" class="edge">
<title>Node2&#45;&gt;Node6</title>
<path fill="none" stroke="#63b8ff" d="M536.56,-252.53C521.77,-244.13 505.08,-232.2 494.64,-217 483.59,-200.9 478.92,-179.16 476.98,-162.41"/>
<polygon fill="#63b8ff" stroke="#63b8ff" points="480.49,-162.4 476.12,-152.75 473.52,-163.02 480.49,-162.4"/>
</g>
<!-- Node8 -->
<g id="node8" class="node">
<title>Node8</title>
<g id="a_node8"><a xlink:title=" ">
<polygon fill="#e0e0e0" stroke="#999999" points="706.14,-19 641.14,-19 641.14,0 706.14,0 706.14,-19"/>
<text text-anchor="middle" x="673.64" y="-7" font-family="Helvetica,sans-Serif" font-size="10.00">type_traits</text>
</a>
</g>
</g>
<!-- Node2&#45;&gt;Node8 -->
<g id="edge26" class="edge">
<title>Node2&#45;&gt;Node8</title>
<path fill="none" stroke="#63b8ff" d="M615.59,-252.56C682.4,-229.52 800.66,-177.32 848.64,-85 854.79,-73.17 856.83,-65.53 848.64,-55 832.72,-34.52 764.26,-21.93 717.84,-15.58"/>
<polygon fill="#63b8ff" stroke="#63b8ff" points="718.43,-12.12 708.06,-14.29 717.52,-19.06 718.43,-12.12"/>
</g>
<!-- Node10 -->
<g id="node10" class="node">
<title>Node10</title>
<g id="a_node10"><a xlink:href="../../d4/d1c/unified__base_8hpp.html" target="_top" xlink:title=" ">
<polygon fill="white" stroke="#666666" points="716.14,-85 603.14,-85 603.14,-55 716.14,-55 716.14,-85"/>
<text text-anchor="start" x="611.14" y="-73" font-family="Helvetica,sans-Serif" font-size="10.00">Simple&#45;Utility/unified</text>
<text text-anchor="middle" x="659.64" y="-62" font-family="Helvetica,sans-Serif" font-size="10.00">_base.hpp</text>
</a>
</g>
</g>
<!-- Node2&#45;&gt;Node10 -->
<g id="edge24" class="edge">
<title>Node2&#45;&gt;Node10</title>
<path fill="none" stroke="#63b8ff" d="M600.15,-252.55C614.92,-244.29 631.17,-232.45 640.64,-217 663.42,-179.84 664.28,-127.41 662.32,-96.54"/>
<polygon fill="#63b8ff" stroke="#63b8ff" points="665.81,-96.3 661.52,-86.61 658.84,-96.86 665.81,-96.3"/>
</g>
<!-- Node12 -->
<g id="node12" class="node">
<title>Node12</title>
<g id="a_node12"><a xlink:href="../../d9/d76/bind_8hpp.html" target="_top" xlink:title=" ">
<polygon fill="white" stroke="#666666" points="631.64,-217 503.64,-217 503.64,-187 631.64,-187 631.64,-217"/>
<text text-anchor="start" x="511.64" y="-205" font-family="Helvetica,sans-Serif" font-size="10.00">Simple&#45;Utility/functional</text>
<text text-anchor="middle" x="567.64" y="-194" font-family="Helvetica,sans-Serif" font-size="10.00">/operators/bind.hpp</text>
</a>
</g>
</g>
<!-- Node2&#45;&gt;Node12 -->
<g id="edge17" class="edge">
<title>Node2&#45;&gt;Node12</title>
<path fill="none" stroke="#63b8ff" d="M567.64,-252.8C567.64,-245.67 567.64,-236.82 567.64,-228.56"/>
<polygon fill="#63b8ff" stroke="#63b8ff" points="571.14,-228.68 567.64,-218.68 564.14,-228.68 571.14,-228.68"/>
</g>
<!-- Node16 -->
<g id="node16" class="node">
<title>Node16</title>
<g id="a_node16"><a xlink:title=" ">
<polygon fill="#e0e0e0" stroke="#999999" points="945.64,-211.5 895.64,-211.5 895.64,-192.5 945.64,-192.5 945.64,-211.5"/>
<text text-anchor="middle" x="920.64" y="-199.5" font-family="Helvetica,sans-Serif" font-size="10.00">cstddef</text>
</a>
</g>
</g>
<!-- Node2&#45;&gt;Node16 -->
<g id="edge25" class="edge">
<title>Node2&#45;&gt;Node16</title>
<path fill="none" stroke="#63b8ff" d="M629.57,-254.61C632.63,-254.05 635.67,-253.51 638.64,-253 746.23,-234.43 775.75,-243.57 881.64,-217 883.51,-216.53 885.42,-216.01 887.34,-215.44"/>
<polygon fill="#63b8ff" stroke="#63b8ff" points="888.33,-218.8 896.75,-212.38 886.16,-212.14 888.33,-218.8"/>
</g>
<!-- Node4 -->
<g id="node4" class="node">
<title>Node4</title>
<g id="a_node4"><a xlink:title=" ">
<polygon fill="#e0e0e0" stroke="#999999" points="238.14,-19 181.14,-19 181.14,0 238.14,0 238.14,-19"/>
<text text-anchor="middle" x="209.64" y="-7" font-family="Helvetica,sans-Serif" font-size="10.00">concepts</text>
</a>
</g>
</g>
<!-- Node3&#45;&gt;Node4 -->
<g id="edge3" class="edge">
<title>Node3&#45;&gt;Node4</title>
<path fill="none" stroke="#63b8ff" d="M108.77,-54.54C130.28,-45.15 158.12,-32.99 179.1,-23.83"/>
<polygon fill="#63b8ff" stroke="#63b8ff" points="180.23,-27.16 187.99,-19.95 177.43,-20.75 180.23,-27.16"/>
</g>
<!-- Node5&#45;&gt;Node4 -->
<g id="edge5" class="edge">
<title>Node5&#45;&gt;Node4</title>
<path fill="none" stroke="#63b8ff" d="M40.55,-120.51C17.47,-104.23 -12.22,-77.18 5.64,-55 25.78,-30 115.69,-18.29 169.2,-13.45"/>
<polygon fill="#63b8ff" stroke="#63b8ff" points="169.49,-16.94 179.16,-12.6 168.9,-9.96 169.49,-16.94"/>
</g>
<!-- Node6&#45;&gt;Node3 -->
<g id="edge14" class="edge">
<title>Node6&#45;&gt;Node3</title>
<path fill="none" stroke="#63b8ff" d="M411.41,-125.74C345.78,-116.12 240.97,-100.37 150.64,-85 149.81,-84.86 148.97,-84.71 148.13,-84.57"/>
<polygon fill="#63b8ff" stroke="#63b8ff" points="148.95,-81.16 138.5,-82.88 147.75,-88.06 148.95,-81.16"/>
</g>
<!-- Node6&#45;&gt;Node4 -->
<g id="edge7" class="edge">
<title>Node6&#45;&gt;Node4</title>
<path fill="none" stroke="#63b8ff" d="M411.15,-128.36C329.65,-119.3 198.17,-102.23 183.64,-85 169.89,-68.7 182.48,-44.67 194.46,-28.34"/>
<polygon fill="#63b8ff" stroke="#63b8ff" points="197.21,-30.51 200.66,-20.5 191.72,-26.17 197.21,-30.51"/>
</g>
<!-- Node7 -->
<g id="node7" class="node">
<title>Node7</title>
<g id="a_node7"><a xlink:title=" ">
<polygon fill="#e0e0e0" stroke="#999999" points="546.64,-79.5 484.64,-79.5 484.64,-60.5 546.64,-60.5 546.64,-79.5"/>
<text text-anchor="middle" x="515.64" y="-67.5" font-family="Helvetica,sans-Serif" font-size="10.00">functional</text>
</a>
</g>
</g>
<!-- Node6&#45;&gt;Node7 -->
<g id="edge8" class="edge">
<title>Node6&#45;&gt;Node7</title>
<path fill="none" stroke="#63b8ff" d="M484.52,-120.8C490.27,-111.6 497.81,-99.53 504.03,-89.58"/>
<polygon fill="#63b8ff" stroke="#63b8ff" points="506.98,-91.46 509.31,-81.13 501.05,-87.75 506.98,-91.46"/>
</g>
<!-- Node6&#45;&gt;Node8 -->
<g id="edge9" class="edge">
<title>Node6&#45;&gt;Node8</title>
<path fill="none" stroke="#63b8ff" d="M500.19,-120.5C516.23,-110.83 537.48,-97.61 555.64,-85 573.6,-72.52 576.4,-67.06 594.64,-55 611.28,-43.99 630.81,-32.98 646.29,-24.66"/>
<polygon fill="#63b8ff" stroke="#63b8ff" points="647.74,-27.85 654.94,-20.07 644.46,-21.67 647.74,-27.85"/>
</g>
<!-- Node9 -->
<g id="node9" class="node">
<title>Node9</title>
<g id="a_node9"><a xlink:href="../../d8/dd2/_config_8hpp.html" target="_top" xlink:title=" ">
<polygon fill="white" stroke="#666666" points="466.14,-79.5 333.14,-79.5 333.14,-60.5 466.14,-60.5 466.14,-79.5"/>
<text text-anchor="middle" x="399.64" y="-67.5" font-family="Helvetica,sans-Serif" font-size="10.00">Simple&#45;Utility/Config.hpp</text>
</a>
</g>
</g>
<!-- Node6&#45;&gt;Node9 -->
<g id="edge10" class="edge">
<title>Node6&#45;&gt;Node9</title>
<path fill="none" stroke="#63b8ff" d="M458.78,-120.8C446.93,-110.82 431.06,-97.46 418.75,-87.09"/>
<polygon fill="#63b8ff" stroke="#63b8ff" points="421.21,-84.58 411.3,-80.82 416.7,-89.94 421.21,-84.58"/>
</g>
<!-- Node6&#45;&gt;Node10 -->
<g id="edge11" class="edge">
<title>Node6&#45;&gt;Node10</title>
<path fill="none" stroke="#63b8ff" d="M516.94,-120.64C543.71,-111.32 578.82,-99.11 607.52,-89.13"/>
<polygon fill="#63b8ff" stroke="#63b8ff" points="608.45,-92.51 616.74,-85.92 606.15,-85.9 608.45,-92.51"/>
</g>
<!-- Node11 -->
<g id="node11" class="node">
<title>Node11</title>
<g id="a_node11"><a xlink:href="../../d5/d8e/concepts_2utility_8hpp.html" target="_top" xlink:title=" ">
<polygon fill="white" stroke="#666666" points="314.64,-85 192.64,-85 192.64,-55 314.64,-55 314.64,-85"/>
<text text-anchor="start" x="200.64" y="-73" font-family="Helvetica,sans-Serif" font-size="10.00">Simple&#45;Utility/concepts</text>
<text text-anchor="middle" x="253.64" y="-62" font-family="Helvetica,sans-Serif" font-size="10.00">/utility.hpp</text>
</a>
</g>
</g>
<!-- Node6&#45;&gt;Node11 -->
<g id="edge15" class="edge">
<title>Node6&#45;&gt;Node11</title>
<path fill="none" stroke="#63b8ff" d="M425.55,-120.56C392.66,-111.08 349.44,-98.62 314.56,-88.56"/>
<polygon fill="#63b8ff" stroke="#63b8ff" points="315.59,-85.22 305.01,-85.81 313.65,-91.94 315.59,-85.22"/>
</g>
<!-- Node10&#45;&gt;Node4 -->
<g id="edge12" class="edge">
<title>Node10&#45;&gt;Node4</title>
<path fill="none" stroke="#63b8ff" d="M602.71,-61.27C587.42,-59.22 570.91,-57.01 555.64,-55 444.85,-40.42 314.02,-23.74 249.59,-15.56"/>
<polygon fill="#63b8ff" stroke="#63b8ff" points="250.22,-12.11 239.86,-14.33 249.34,-19.06 250.22,-12.11"/>
</g>
<!-- Node10&#45;&gt;Node8 -->
<g id="edge13" class="edge">
<title>Node10&#45;&gt;Node8</title>
<path fill="none" stroke="#63b8ff" d="M663.1,-54.54C664.87,-47.17 667.04,-38.1 668.95,-30.11"/>
<polygon fill="#63b8ff" stroke="#63b8ff" points="672.29,-31.19 671.21,-20.65 665.48,-29.56 672.29,-31.19"/>
</g>
<!-- Node11&#45;&gt;Node4 -->
<g id="edge16" class="edge">
<title>Node11&#45;&gt;Node4</title>
<path fill="none" stroke="#63b8ff" d="M242.77,-54.54C236.77,-46.56 229.27,-36.59 222.93,-28.16"/>
<polygon fill="#63b8ff" stroke="#63b8ff" points="225.89,-26.27 217.08,-20.38 220.29,-30.48 225.89,-26.27"/>
</g>
<!-- Node12&#45;&gt;Node6 -->
<g id="edge18" class="edge">
<title>Node12&#45;&gt;Node6</title>
<path fill="none" stroke="#63b8ff" d="M547.23,-186.8C535.04,-178.32 519.35,-167.4 505.76,-157.95"/>
<polygon fill="#63b8ff" stroke="#63b8ff" points="507.77,-155.09 497.56,-152.25 503.77,-160.83 507.77,-155.09"/>
</g>
<!-- Node13 -->
<g id="node13" class="node">
<title>Node13</title>
<g id="a_node13"><a xlink:href="../../d2/d30/general_8hpp.html" target="_top" xlink:title=" ">
<polygon fill="white" stroke="#666666" points="839.14,-85 734.14,-85 734.14,-55 839.14,-55 839.14,-85"/>
<text text-anchor="start" x="742.14" y="-73" font-family="Helvetica,sans-Serif" font-size="10.00">Simple&#45;Utility/tuple</text>
<text text-anchor="middle" x="786.64" y="-62" font-family="Helvetica,sans-Serif" font-size="10.00">/general.hpp</text>
</a>
</g>
</g>
<!-- Node12&#45;&gt;Node13 -->
<g id="edge19" class="edge">
<title>Node12&#45;&gt;Node13</title>
<path fill="none" stroke="#63b8ff" d="M591.92,-186.59C630.97,-163.41 707.88,-117.76 752.46,-91.29"/>
<polygon fill="#63b8ff" stroke="#63b8ff" points="754.15,-94.36 760.96,-86.25 750.57,-88.34 754.15,-94.36"/>
</g>
<!-- Node13&#45;&gt;Node4 -->
<g id="edge20" class="edge">
<title>Node13&#45;&gt;Node4</title>
<path fill="none" stroke="#63b8ff" d="M733.83,-56.4C731.07,-55.89 728.33,-55.42 725.64,-55 549.82,-27.38 337.4,-15.87 250.1,-12.07"/>
<polygon fill="#63b8ff" stroke="#63b8ff" points="250.28,-8.57 240.14,-11.64 249.98,-15.56 250.28,-8.57"/>
</g>
<!-- Node13&#45;&gt;Node8 -->
<g id="edge22" class="edge">
<title>Node13&#45;&gt;Node8</title>
<path fill="none" stroke="#63b8ff" d="M758.71,-54.54C741.07,-45.4 718.38,-33.66 700.87,-24.6"/>
<polygon fill="#63b8ff" stroke="#63b8ff" points="702.56,-21.53 692.07,-20.04 699.35,-27.75 702.56,-21.53"/>
</g>
<!-- Node14 -->
<g id="node14" class="node">
<title>Node14</title>
<g id="a_node14"><a xlink:title=" ">
<polygon fill="#e0e0e0" stroke="#999999" points="792.64,-19 752.64,-19 752.64,0 792.64,0 792.64,-19"/>
<text text-anchor="middle" x="772.64" y="-7" font-family="Helvetica,sans-Serif" font-size="10.00">tuple</text>
</a>
</g>
</g>
<!-- Node13&#45;&gt;Node14 -->
<g id="edge21" class="edge">
<title>Node13&#45;&gt;Node14</title>
<path fill="none" stroke="#63b8ff" d="M783.18,-54.54C781.42,-47.17 779.25,-38.1 777.34,-30.11"/>
<polygon fill="#63b8ff" stroke="#63b8ff" points="780.8,-29.56 775.07,-20.65 774,-31.19 780.8,-29.56"/>
</g>
<!-- Node15 -->
<g id="node15" class="node">
<title>Node15</title>
<g id="a_node15"><a xlink:title=" ">
<polygon fill="#e0e0e0" stroke="#999999" points="852.14,-19 811.14,-19 811.14,0 852.14,0 852.14,-19"/>
<text text-anchor="middle" x="831.64" y="-7" font-family="Helvetica,sans-Serif" font-size="10.00">utility</text>
</a>
</g>
</g>
<!-- Node13&#45;&gt;Node15 -->
<g id="edge23" class="edge">
<title>Node13&#45;&gt;Node15</title>
<path fill="none" stroke="#63b8ff" d="M797.77,-54.54C803.9,-46.56 811.57,-36.59 818.06,-28.16"/>
<polygon fill="#63b8ff" stroke="#63b8ff" points="820.72,-30.44 824.05,-20.37 815.18,-26.17 820.72,-30.44"/>
</g>
</g>
</svg>
        <g id="navigator" transform="translate(0 0)" fill="#404254">
                <rect fill="#f2f5e9" fill-opacity="0.5" stroke="#606060" stroke-width=".5" x="0" y="0" width="60" height="60"/>
                <use id="zoomplus" xlink:href="#zoomPlus" x="17" y="9" onmousedown="handleZoom(evt,'in')"/>
                <use id="zoomminus" xlink:href="#zoomMin" x="42" y="9" onmousedown="handleZoom(evt,'out')"/>
                <use id="reset" xlink:href="#resetDef" x="30" y="36" onmousedown="handleReset()"/>
                <g id="arrowUp" xlink:href="#dirArrow" transform="translate(30 24)" onmousedown="handlePan(0,-1)">
                  <use xlink:href="#rim" fill="#404040">
                        <set attributeName="fill" to="#808080" begin="arrowUp.mouseover" end="arrowUp.mouseout"/>
                  </use>
                  <path fill="none" stroke="white" stroke-width="1.5" d="M0,-3.0v7 M-2.5,-0.5L0,-3.0L2.5,-0.5"/>
                </g>
                <g id="arrowRight" xlink:href="#dirArrow" transform="rotate(90) translate(36 -43)" onmousedown="handlePan(1,0)">
                  <use xlink:href="#rim" fill="#404040">
                        <set attributeName="fill" to="#808080" begin="arrowRight.mouseover" end="arrowRight.mouseout"/>
                  </use>
                  <path fill="none" stroke="white" stroke-width="1.5" d="M0,-3.0v7 M-2.5,-0.5L0,-3.0L2.5,-0.5"/>
                </g>
                <g id="arrowDown" xlink:href="#dirArrow" transform="rotate(180) translate(-30 -48)" onmousedown="handlePan(0,1)">
                  <use xlink:href="#rim" fill="#404040">
                        <set attributeName="fill" to="#808080" begin="arrowDown.mouseover" end="arrowDown.mouseout"/>
                  </use>
                  <path fill="none" stroke="white" stroke-width="1.5" d="M0,-3.0v7 M-2.5,-0.5L0,-3.0L2.5,-0.5"/>
                </g>
                <g id="arrowLeft" xlink:href="#dirArrow" transform="rotate(270) translate(-36 17)" onmousedown="handlePan(-1,0)">
                  <use xlink:href="#rim" fill="#404040">
                        <set attributeName="fill" to="#808080" begin="arrowLeft.mouseover" end="arrowLeft.mouseout"/>
                  </use>
                  <path fill="none" stroke="white" stroke-width="1.5" d="M0,-3.0v7 M-2.5,-0.5L0,-3.0L2.5,-0.5"/>
                </g>
        </g>
        <svg viewBox="0 0 15 15" width="100%" height="30px" preserveAspectRatio="xMaxYMin meet">
         <g id="arrow_out" transform="scale(0.3 0.3)">
          <a xlink:href="std__pointers_8hpp__incl_org.svg" target="_base">
           <rect id="button" ry="5" rx="5" y="6" x="6" height="38" width="38"
                fill="#f2f5e9" fill-opacity="0.5" stroke="#606060" stroke-width="1.0"/>
           <path id="arrow"
             d="M 11.500037,31.436501 C 11.940474,20.09759 22.043105,11.32322 32.158766,21.979434 L 37.068811,17.246167 C 37.068811,17.246167 37.088388,32 37.088388,32 L 22.160133,31.978069 C 22.160133,31.978069 26.997745,27.140456 26.997745,27.140456 C 18.528582,18.264221 13.291696,25.230495 11.500037,31.436501 z"
             style="fill:#404040;"/>
          </a>
         </g>
        </svg>
</svg>
