<?xml version="1.0" encoding="UTF-8" standalone="no"?>
<!DOCTYPE svg PUBLIC "-//W3C//DTD SVG 1.1//EN"
 "http://www.w3.org/Graphics/SVG/1.1/DTD/svg11.dtd">
<!-- Generated by graphviz version 2.43.0 (0)
 -->
<!-- Title: /home/runner/work/Simple&#45;Utility/Simple&#45;Utility/include/Simple&#45;Utility/nullables/std_pointers.hpp Pages: 1 -->
<svg width="998pt" height="385pt"
 viewBox="0.00 0.00 998.31 385.00" xmlns="http://www.w3.org/2000/svg" xmlns:xlink="http://www.w3.org/1999/xlink">
<g id="graph0" class="graph" transform="scale(1 1) rotate(0) translate(4 381)">
<title>/home/runner/work/Simple&#45;Utility/Simple&#45;Utility/include/Simple&#45;Utility/nullables/std_pointers.hpp</title>
<polygon fill="white" stroke="transparent" points="-4,4 -4,-381 994.31,-381 994.31,4 -4,4"/>
<!-- Node1 -->
<g id="node1" class="node">
<title>Node1</title>
<g id="a_node1"><a xlink:title=" ">
<polygon fill="#bfbfbf" stroke="black" points="576.81,-324.5 576.81,-376.5 724.81,-376.5 724.81,-324.5 576.81,-324.5"/>
<text text-anchor="start" x="584.81" y="-364.5" font-family="Helvetica,sans-Serif" font-size="10.00">/home/runner/work/Simple</text>
<text text-anchor="start" x="584.81" y="-353.5" font-family="Helvetica,sans-Serif" font-size="10.00">&#45;Utility/Simple&#45;Utility</text>
<text text-anchor="start" x="584.81" y="-342.5" font-family="Helvetica,sans-Serif" font-size="10.00">/include/Simple&#45;Utility</text>
<text text-anchor="middle" x="650.81" y="-331.5" font-family="Helvetica,sans-Serif" font-size="10.00">/nullables/std_pointers.hpp</text>
</a>
</g>
</g>
<!-- Node2 -->
<g id="node2" class="node">
<title>Node2</title>
<g id="a_node2"><a xlink:href="../../d6/dbe/nullables_2base_8hpp.html" target="_top" xlink:title=" ">
<polygon fill="white" stroke="black" points="529.31,-257.5 529.31,-287.5 660.31,-287.5 660.31,-257.5 529.31,-257.5"/>
<text text-anchor="start" x="537.31" y="-275.5" font-family="Helvetica,sans-Serif" font-size="10.00">Simple&#45;Utility/nullables</text>
<text text-anchor="middle" x="594.81" y="-264.5" font-family="Helvetica,sans-Serif" font-size="10.00">/base.hpp</text>
</a>
</g>
</g>
<!-- Node1&#45;&gt;Node2 -->
<g id="edge1" class="edge">
<title>Node1&#45;&gt;Node2</title>
<path fill="none" stroke="midnightblue" d="M632.16,-324.19C625.48,-315.13 618,-304.97 611.49,-296.14"/>
<polygon fill="midnightblue" stroke="midnightblue" points="614.13,-293.82 605.38,-287.85 608.5,-297.97 614.13,-293.82"/>
</g>
<!-- Node17 -->
<g id="node17" class="node">
<title>Node17</title>
<g id="a_node17"><a xlink:title=" ">
<polygon fill="white" stroke="#bfbfbf" points="678.81,-263 678.81,-282 736.81,-282 736.81,-263 678.81,-263"/>
<text text-anchor="middle" x="707.81" y="-270" font-family="Helvetica,sans-Serif" font-size="10.00">memory</text>
</a>
</g>
</g>
<!-- Node1&#45;&gt;Node17 -->
<g id="edge27" class="edge">
<title>Node1&#45;&gt;Node17</title>
<path fill="none" stroke="midnightblue" d="M669.79,-324.19C678.12,-313.08 687.68,-300.34 695.13,-290.41"/>
<polygon fill="midnightblue" stroke="midnightblue" points="698.08,-292.31 701.28,-282.21 692.48,-288.11 698.08,-292.31"/>
</g>
<!-- Node3 -->
<g id="node3" class="node">
<title>Node3</title>
<g id="a_node3"><a xlink:href="../../dd/d5c/stl__extensions_8hpp.html" target="_top" xlink:title=" ">
<polygon fill="white" stroke="black" points="15.31,-56.5 15.31,-86.5 146.31,-86.5 146.31,-56.5 15.31,-56.5"/>
<text text-anchor="start" x="23.31" y="-74.5" font-family="Helvetica,sans-Serif" font-size="10.00">Simple&#45;Utility/concepts</text>
<text text-anchor="middle" x="80.81" y="-63.5" font-family="Helvetica,sans-Serif" font-size="10.00">/stl_extensions.hpp</text>
</a>
</g>
</g>
<!-- Node2&#45;&gt;Node3 -->
<g id="edge2" class="edge">
<title>Node2&#45;&gt;Node3</title>
<path fill="none" stroke="midnightblue" d="M558.26,-257.35C466.7,-221.9 227.66,-129.35 126.79,-90.3"/>
<polygon fill="midnightblue" stroke="midnightblue" points="127.77,-86.93 117.18,-86.58 125.24,-93.45 127.77,-86.93"/>
</g>
<!-- Node5 -->
<g id="node5" class="node">
<title>Node5</title>
<g id="a_node5"><a xlink:href="../../dd/dcd/operators_8hpp.html" target="_top" xlink:title=" ">
<polygon fill="white" stroke="black" points="2.31,-123.5 2.31,-153.5 133.31,-153.5 133.31,-123.5 2.31,-123.5"/>
<text text-anchor="start" x="10.31" y="-141.5" font-family="Helvetica,sans-Serif" font-size="10.00">Simple&#45;Utility/concepts</text>
<text text-anchor="middle" x="67.81" y="-130.5" font-family="Helvetica,sans-Serif" font-size="10.00">/operators.hpp</text>
</a>
</g>
</g>
<!-- Node2&#45;&gt;Node5 -->
<g id="edge4" class="edge">
<title>Node2&#45;&gt;Node5</title>
<path fill="none" stroke="midnightblue" d="M529.18,-262.8C470.82,-254.38 383.43,-240.09 308.81,-221 239.36,-203.23 161.09,-175.23 113.11,-157.12"/>
<polygon fill="midnightblue" stroke="midnightblue" points="114.23,-153.8 103.64,-153.52 111.74,-160.34 114.23,-153.8"/>
</g>
<!-- Node6 -->
<g id="node6" class="node">
<title>Node6</title>
<g id="a_node6"><a xlink:href="../../d1/d76/functional_2base_8hpp.html" target="_top" xlink:title=" ">
<polygon fill="white" stroke="black" points="430.81,-123.5 430.81,-153.5 566.81,-153.5 566.81,-123.5 430.81,-123.5"/>
<text text-anchor="start" x="438.81" y="-141.5" font-family="Helvetica,sans-Serif" font-size="10.00">Simple&#45;Utility/functional</text>
<text text-anchor="middle" x="498.81" y="-130.5" font-family="Helvetica,sans-Serif" font-size="10.00">/base.hpp</text>
</a>
</g>
</g>
<!-- Node2&#45;&gt;Node6 -->
<g id="edge6" class="edge">
<title>Node2&#45;&gt;Node6</title>
<path fill="none" stroke="midnightblue" d="M562.4,-257.41C546.7,-249.01 528.89,-236.86 517.81,-221 506.14,-204.29 501.56,-181.42 499.8,-164.16"/>
<polygon fill="midnightblue" stroke="midnightblue" points="503.25,-163.46 499,-153.75 496.27,-163.99 503.25,-163.46"/>
</g>
<!-- Node8 -->
<g id="node8" class="node">
<title>Node8</title>
<g id="a_node8"><a xlink:title=" ">
<polygon fill="white" stroke="#bfbfbf" points="671.31,-0.5 671.31,-19.5 740.31,-19.5 740.31,-0.5 671.31,-0.5"/>
<text text-anchor="middle" x="705.81" y="-7.5" font-family="Helvetica,sans-Serif" font-size="10.00">type_traits</text>
</a>
</g>
</g>
<!-- Node2&#45;&gt;Node8 -->
<g id="edge26" class="edge">
<title>Node2&#45;&gt;Node8</title>
<path fill="none" stroke="midnightblue" d="M644.77,-257.48C714.74,-234.8 839.05,-182.64 889.81,-87 896.27,-74.83 898.32,-66.84 889.81,-56 881.13,-44.93 801.86,-28.56 750.24,-18.92"/>
<polygon fill="midnightblue" stroke="midnightblue" points="750.78,-15.46 740.31,-17.08 749.51,-22.34 750.78,-15.46"/>
</g>
<!-- Node10 -->
<g id="node10" class="node">
<title>Node10</title>
<g id="a_node10"><a xlink:href="../../d4/d1c/unified__base_8hpp.html" target="_top" xlink:title=" ">
<polygon fill="white" stroke="black" points="630.81,-56.5 630.81,-86.5 750.81,-86.5 750.81,-56.5 630.81,-56.5"/>
<text text-anchor="start" x="638.81" y="-74.5" font-family="Helvetica,sans-Serif" font-size="10.00">Simple&#45;Utility/unified</text>
<text text-anchor="middle" x="690.81" y="-63.5" font-family="Helvetica,sans-Serif" font-size="10.00">_base.hpp</text>
</a>
</g>
</g>
<!-- Node2&#45;&gt;Node10 -->
<g id="edge24" class="edge">
<title>Node2&#45;&gt;Node10</title>
<path fill="none" stroke="midnightblue" d="M628.7,-257.45C644.38,-249.18 661.73,-237.13 671.81,-221 695.72,-182.76 695.95,-128.12 693.61,-96.89"/>
<polygon fill="midnightblue" stroke="midnightblue" points="697.09,-96.54 692.71,-86.89 690.12,-97.16 697.09,-96.54"/>
</g>
<!-- Node12 -->
<g id="node12" class="node">
<title>Node12</title>
<g id="a_node12"><a xlink:href="../../d9/d76/bind_8hpp.html" target="_top" xlink:title=" ">
<polygon fill="white" stroke="black" points="526.81,-190.5 526.81,-220.5 662.81,-220.5 662.81,-190.5 526.81,-190.5"/>
<text text-anchor="start" x="534.81" y="-208.5" font-family="Helvetica,sans-Serif" font-size="10.00">Simple&#45;Utility/functional</text>
<text text-anchor="middle" x="594.81" y="-197.5" font-family="Helvetica,sans-Serif" font-size="10.00">/operators/bind.hpp</text>
</a>
</g>
</g>
<!-- Node2&#45;&gt;Node12 -->
<g id="edge17" class="edge">
<title>Node2&#45;&gt;Node12</title>
<path fill="none" stroke="midnightblue" d="M594.81,-257.4C594.81,-249.64 594.81,-239.81 594.81,-230.86"/>
<polygon fill="midnightblue" stroke="midnightblue" points="598.31,-230.58 594.81,-220.58 591.31,-230.58 598.31,-230.58"/>
</g>
<!-- Node16 -->
<g id="node16" class="node">
<title>Node16</title>
<g id="a_node16"><a xlink:title=" ">
<polygon fill="white" stroke="#bfbfbf" points="937.31,-196 937.31,-215 990.31,-215 990.31,-196 937.31,-196"/>
<text text-anchor="middle" x="963.81" y="-203" font-family="Helvetica,sans-Serif" font-size="10.00">cstddef</text>
</a>
</g>
</g>
<!-- Node2&#45;&gt;Node16 -->
<g id="edge25" class="edge">
<title>Node2&#45;&gt;Node16</title>
<path fill="none" stroke="midnightblue" d="M660.63,-258.58C663.73,-258.04 666.8,-257.5 669.81,-257 781.82,-238.21 812.51,-248.07 922.81,-221 925.87,-220.25 929.01,-219.36 932.14,-218.4"/>
<polygon fill="midnightblue" stroke="midnightblue" points="933.54,-221.62 941.93,-215.14 931.33,-214.98 933.54,-221.62"/>
</g>
<!-- Node4 -->
<g id="node4" class="node">
<title>Node4</title>
<g id="a_node4"><a xlink:title=" ">
<polygon fill="white" stroke="#bfbfbf" points="191.81,-0.5 191.81,-19.5 251.81,-19.5 251.81,-0.5 191.81,-0.5"/>
<text text-anchor="middle" x="221.81" y="-7.5" font-family="Helvetica,sans-Serif" font-size="10.00">concepts</text>
</a>
</g>
</g>
<!-- Node3&#45;&gt;Node4 -->
<g id="edge3" class="edge">
<title>Node3&#45;&gt;Node4</title>
<path fill="none" stroke="midnightblue" d="M114.23,-56.4C137.78,-46.46 169.05,-33.26 191.8,-23.66"/>
<polygon fill="midnightblue" stroke="midnightblue" points="193.44,-26.77 201.3,-19.66 190.72,-20.32 193.44,-26.77"/>
</g>
<!-- Node5&#45;&gt;Node4 -->
<g id="edge5" class="edge">
<title>Node5&#45;&gt;Node4</title>
<path fill="none" stroke="midnightblue" d="M44.19,-123.44C19.56,-107.03 -13.03,-79.17 5.81,-56 27.54,-29.28 125.3,-17.9 181.57,-13.49"/>
<polygon fill="midnightblue" stroke="midnightblue" points="181.86,-16.97 191.57,-12.74 181.34,-9.99 181.86,-16.97"/>
</g>
<!-- Node6&#45;&gt;Node3 -->
<g id="edge14" class="edge">
<title>Node6&#45;&gt;Node3</title>
<path fill="none" stroke="midnightblue" d="M430.74,-127.96C362.41,-118.24 254.18,-102.43 160.81,-87 159.52,-86.79 158.22,-86.57 156.9,-86.35"/>
<polygon fill="midnightblue" stroke="midnightblue" points="157.15,-82.84 146.7,-84.61 155.97,-89.74 157.15,-82.84"/>
</g>
<!-- Node6&#45;&gt;Node4 -->
<g id="edge7" class="edge">
<title>Node6&#45;&gt;Node4</title>
<path fill="none" stroke="midnightblue" d="M430.73,-130.87C345.56,-121.88 208.98,-104.88 193.81,-87 179.25,-69.83 193.85,-44.41 206.84,-27.78"/>
<polygon fill="midnightblue" stroke="midnightblue" points="209.62,-29.9 213.32,-19.97 204.24,-25.43 209.62,-29.9"/>
</g>
<!-- Node7 -->
<g id="node7" class="node">
<title>Node7</title>
<g id="a_node7"><a xlink:title=" ">
<polygon fill="white" stroke="#bfbfbf" points="509.31,-62 509.31,-81 574.31,-81 574.31,-62 509.31,-62"/>
<text text-anchor="middle" x="541.81" y="-69" font-family="Helvetica,sans-Serif" font-size="10.00">functional</text>
</a>
</g>
</g>
<!-- Node6&#45;&gt;Node7 -->
<g id="edge8" class="edge">
<title>Node6&#45;&gt;Node7</title>
<path fill="none" stroke="midnightblue" d="M508.14,-123.4C514.71,-113.46 523.55,-100.11 530.52,-89.57"/>
<polygon fill="midnightblue" stroke="midnightblue" points="533.46,-91.47 536.06,-81.19 527.62,-87.6 533.46,-91.47"/>
</g>
<!-- Node6&#45;&gt;Node8 -->
<g id="edge9" class="edge">
<title>Node6&#45;&gt;Node8</title>
<path fill="none" stroke="midnightblue" d="M524.72,-123.43C541.89,-113.79 564.68,-100.38 583.81,-87 601.67,-74.51 603.68,-68.09 621.81,-56 639.88,-43.95 661.5,-32.43 678.28,-24.06"/>
<polygon fill="midnightblue" stroke="midnightblue" points="680.1,-27.07 687.54,-19.52 677.02,-20.78 680.1,-27.07"/>
</g>
<!-- Node9 -->
<g id="node9" class="node">
<title>Node9</title>
<g id="a_node9"><a xlink:href="../../d8/dd2/_config_8hpp.html" target="_top" xlink:title=" ">
<polygon fill="white" stroke="black" points="352.31,-62 352.31,-81 491.31,-81 491.31,-62 352.31,-62"/>
<text text-anchor="middle" x="421.81" y="-69" font-family="Helvetica,sans-Serif" font-size="10.00">Simple&#45;Utility/Config.hpp</text>
</a>
</g>
</g>
<!-- Node6&#45;&gt;Node9 -->
<g id="edge10" class="edge">
<title>Node6&#45;&gt;Node9</title>
<path fill="none" stroke="midnightblue" d="M482.1,-123.4C469.62,-112.86 452.58,-98.48 439.8,-87.69"/>
<polygon fill="midnightblue" stroke="midnightblue" points="442.01,-84.97 432.11,-81.19 437.5,-90.32 442.01,-84.97"/>
</g>
<!-- Node6&#45;&gt;Node10 -->
<g id="edge11" class="edge">
<title>Node6&#45;&gt;Node10</title>
<path fill="none" stroke="midnightblue" d="M540.47,-123.4C569.53,-113.56 608.5,-100.37 639.48,-89.88"/>
<polygon fill="midnightblue" stroke="midnightblue" points="640.88,-93.1 649.23,-86.58 638.64,-86.47 640.88,-93.1"/>
</g>
<!-- Node11 -->
<g id="node11" class="node">
<title>Node11</title>
<g id="a_node11"><a xlink:href="../../d5/d8e/concepts_2utility_8hpp.html" target="_top" xlink:title=" ">
<polygon fill="white" stroke="black" points="203.31,-56.5 203.31,-86.5 334.31,-86.5 334.31,-56.5 203.31,-56.5"/>
<text text-anchor="start" x="211.31" y="-74.5" font-family="Helvetica,sans-Serif" font-size="10.00">Simple&#45;Utility/concepts</text>
<text text-anchor="middle" x="268.81" y="-63.5" font-family="Helvetica,sans-Serif" font-size="10.00">/utility.hpp</text>
</a>
</g>
</g>
<!-- Node6&#45;&gt;Node11 -->
<g id="edge15" class="edge">
<title>Node6&#45;&gt;Node11</title>
<path fill="none" stroke="midnightblue" d="M449.19,-123.48C413.79,-113.47 366.02,-99.97 328.53,-89.38"/>
<polygon fill="midnightblue" stroke="midnightblue" points="329.32,-85.96 318.74,-86.61 327.41,-92.7 329.32,-85.96"/>
</g>
<!-- Node10&#45;&gt;Node4 -->
<g id="edge12" class="edge">
<title>Node10&#45;&gt;Node4</title>
<path fill="none" stroke="midnightblue" d="M630.56,-62.22C615.31,-60.15 598.96,-57.97 583.81,-56 466.97,-40.82 328.76,-23.94 261.96,-15.84"/>
<polygon fill="midnightblue" stroke="midnightblue" points="262.21,-12.35 251.86,-14.62 261.37,-19.3 262.21,-12.35"/>
</g>
<!-- Node10&#45;&gt;Node8 -->
<g id="edge13" class="edge">
<title>Node10&#45;&gt;Node8</title>
<path fill="none" stroke="midnightblue" d="M694.37,-56.4C696.39,-48.38 698.95,-38.23 701.13,-29.57"/>
<polygon fill="midnightblue" stroke="midnightblue" points="704.58,-30.21 703.63,-19.66 697.79,-28.5 704.58,-30.21"/>
</g>
<!-- Node11&#45;&gt;Node4 -->
<g id="edge16" class="edge">
<title>Node11&#45;&gt;Node4</title>
<path fill="none" stroke="midnightblue" d="M257.67,-56.4C250.84,-47.75 242.07,-36.64 234.91,-27.58"/>
<polygon fill="midnightblue" stroke="midnightblue" points="237.6,-25.34 228.65,-19.66 232.1,-29.67 237.6,-25.34"/>
</g>
<!-- Node12&#45;&gt;Node6 -->
<g id="edge18" class="edge">
<title>Node12&#45;&gt;Node6</title>
<path fill="none" stroke="midnightblue" d="M573.98,-190.4C560.52,-181.28 542.81,-169.29 527.96,-159.24"/>
<polygon fill="midnightblue" stroke="midnightblue" points="529.84,-156.28 519.6,-153.58 525.92,-162.08 529.84,-156.28"/>
</g>
<!-- Node13 -->
<g id="node13" class="node">
<title>Node13</title>
<g id="a_node13"><a xlink:href="../../d2/d30/general_8hpp.html" target="_top" xlink:title=" ">
<polygon fill="white" stroke="black" points="768.81,-56.5 768.81,-86.5 880.81,-86.5 880.81,-56.5 768.81,-56.5"/>
<text text-anchor="start" x="776.81" y="-74.5" font-family="Helvetica,sans-Serif" font-size="10.00">Simple&#45;Utility/tuple</text>
<text text-anchor="middle" x="824.81" y="-63.5" font-family="Helvetica,sans-Serif" font-size="10.00">/general.hpp</text>
</a>
</g>
</g>
<!-- Node12&#45;&gt;Node13 -->
<g id="edge19" class="edge">
<title>Node12&#45;&gt;Node13</title>
<path fill="none" stroke="midnightblue" d="M619.43,-190.37C660.93,-166.56 744.86,-118.39 791.55,-91.59"/>
<polygon fill="midnightblue" stroke="midnightblue" points="793.44,-94.54 800.37,-86.52 789.96,-88.47 793.44,-94.54"/>
</g>
<!-- Node13&#45;&gt;Node4 -->
<g id="edge20" class="edge">
<title>Node13&#45;&gt;Node4</title>
<path fill="none" stroke="midnightblue" d="M768.53,-57.45C765.59,-56.93 762.67,-56.44 759.81,-56 575.1,-27.81 351.81,-16.23 262.04,-12.49"/>
<polygon fill="midnightblue" stroke="midnightblue" points="262.15,-9 252.02,-12.09 261.87,-15.99 262.15,-9"/>
</g>
<!-- Node13&#45;&gt;Node8 -->
<g id="edge22" class="edge">
<title>Node13&#45;&gt;Node8</title>
<path fill="none" stroke="midnightblue" d="M796.61,-56.4C777.09,-46.64 751.29,-33.74 732.18,-24.18"/>
<polygon fill="midnightblue" stroke="midnightblue" points="733.64,-21 723.13,-19.66 730.51,-27.26 733.64,-21"/>
</g>
<!-- Node14 -->
<g id="node14" class="node">
<title>Node14</title>
<g id="a_node14"><a xlink:title=" ">
<polygon fill="white" stroke="#bfbfbf" points="788.31,-0.5 788.31,-19.5 829.31,-19.5 829.31,-0.5 788.31,-0.5"/>
<text text-anchor="middle" x="808.81" y="-7.5" font-family="Helvetica,sans-Serif" font-size="10.00">tuple</text>
</a>
</g>
</g>
<!-- Node13&#45;&gt;Node14 -->
<g id="edge21" class="edge">
<title>Node13&#45;&gt;Node14</title>
<path fill="none" stroke="midnightblue" d="M821.02,-56.4C818.86,-48.38 816.13,-38.23 813.81,-29.57"/>
<polygon fill="midnightblue" stroke="midnightblue" points="817.12,-28.41 811.14,-19.66 810.36,-30.22 817.12,-28.41"/>
</g>
<!-- Node15 -->
<g id="node15" class="node">
<title>Node15</title>
<g id="a_node15"><a xlink:title=" ">
<polygon fill="white" stroke="#bfbfbf" points="847.31,-0.5 847.31,-19.5 892.31,-19.5 892.31,-0.5 847.31,-0.5"/>
<text text-anchor="middle" x="869.81" y="-7.5" font-family="Helvetica,sans-Serif" font-size="10.00">utility</text>
</a>
</g>
</g>
<!-- Node13&#45;&gt;Node15 -->
<g id="edge23" class="edge">
<title>Node13&#45;&gt;Node15</title>
<path fill="none" stroke="midnightblue" d="M835.48,-56.4C841.95,-47.84 850.25,-36.87 857.06,-27.86"/>
<polygon fill="midnightblue" stroke="midnightblue" points="860.02,-29.74 863.26,-19.66 854.44,-25.52 860.02,-29.74"/>
</g>
</g>
</svg>
