<?xml version="1.0" encoding="UTF-8" standalone="no"?>
<!DOCTYPE svg PUBLIC "-//W3C//DTD SVG 1.1//EN"
 "http://www.w3.org/Graphics/SVG/1.1/DTD/svg11.dtd">
<!-- Generated by graphviz version 8.0.5 (20230430.1635)
 -->
<!-- Title: Simple&#45;Utility/nullables/std_pointers.hpp Pages: 1 -->
<svg width="650pt" height="237pt"
 viewBox="0.00 0.00 650.12 237.25" xmlns="http://www.w3.org/2000/svg" xmlns:xlink="http://www.w3.org/1999/xlink">
<g id="graph0" class="graph" transform="scale(1 1) rotate(0) translate(4 233.25)">
<title>Simple&#45;Utility/nullables/std_pointers.hpp</title>
<!-- Node1 -->
<g id="node1" class="node">
<title>Node1</title>
<g id="a_node1"><a xlink:title=" ">
<polygon fill="#999999" stroke="#666666" points="517.38,-229.25 394.88,-229.25 394.88,-195.75 517.38,-195.75 517.38,-229.25"/>
<text text-anchor="start" x="402.88" y="-215.75" font-family="Helvetica,sans-Serif" font-size="10.00">Simple&#45;Utility/nullables</text>
<text text-anchor="middle" x="456.12" y="-203" font-family="Helvetica,sans-Serif" font-size="10.00">/std_pointers.hpp</text>
</a>
</g>
</g>
<!-- Node2 -->
<g id="node2" class="node">
<title>Node2</title>
<g id="a_node2"><a xlink:href="../../dd/d3c/base_8hpp.html" target="_top" xlink:title=" ">
<polygon fill="white" stroke="#666666" points="464.38,-159.75 341.88,-159.75 341.88,-126.25 464.38,-126.25 464.38,-159.75"/>
<text text-anchor="start" x="349.88" y="-146.25" font-family="Helvetica,sans-Serif" font-size="10.00">Simple&#45;Utility/nullables</text>
<text text-anchor="middle" x="403.12" y="-133.5" font-family="Helvetica,sans-Serif" font-size="10.00">/base.hpp</text>
</a>
</g>
</g>
<!-- Node1&#45;&gt;Node2 -->
<g id="edge1" class="edge">
<title>Node1&#45;&gt;Node2</title>
<path fill="none" stroke="#63b8ff" d="M443.56,-195.5C437.23,-187.43 429.41,-177.47 422.33,-168.46"/>
<polygon fill="#63b8ff" stroke="#63b8ff" points="424.52,-166.59 415.6,-160.88 419.02,-170.91 424.52,-166.59"/>
</g>
<!-- Node11 -->
<g id="node11" class="node">
<title>Node11</title>
<g id="a_node11"><a xlink:title=" ">
<polygon fill="#e0e0e0" stroke="#999999" points="535.88,-153.38 482.38,-153.38 482.38,-132.62 535.88,-132.62 535.88,-153.38"/>
<text text-anchor="middle" x="509.12" y="-139.88" font-family="Helvetica,sans-Serif" font-size="10.00">memory</text>
</a>
</g>
</g>
<!-- Node1&#45;&gt;Node11 -->
<g id="edge11" class="edge">
<title>Node1&#45;&gt;Node11</title>
<path fill="none" stroke="#63b8ff" d="M468.69,-195.5C476.55,-185.49 486.69,-172.57 494.86,-162.17"/>
<polygon fill="#63b8ff" stroke="#63b8ff" points="497.99,-164.85 501.41,-154.82 492.48,-160.53 497.99,-164.85"/>
</g>
<!-- Node3 -->
<g id="node3" class="node">
<title>Node3</title>
<g id="a_node3"><a xlink:href="../../d8/dd2/_config_8hpp.html" target="_top" xlink:title=" ">
<polygon fill="white" stroke="#666666" points="132.25,-83.88 0,-83.88 0,-63.12 132.25,-63.12 132.25,-83.88"/>
<text text-anchor="middle" x="66.12" y="-70.38" font-family="Helvetica,sans-Serif" font-size="10.00">Simple&#45;Utility/Config.hpp</text>
</a>
</g>
</g>
<!-- Node2&#45;&gt;Node3 -->
<g id="edge2" class="edge">
<title>Node2&#45;&gt;Node3</title>
<path fill="none" stroke="#63b8ff" d="M341.41,-130.03C288.29,-119.67 209.61,-104.2 141.12,-90.25 135.2,-89.04 129,-87.77 122.83,-86.48"/>
<polygon fill="#63b8ff" stroke="#63b8ff" points="124.02,-82.95 113.52,-84.33 122.59,-89.8 124.02,-82.95"/>
</g>
<!-- Node4 -->
<g id="node4" class="node">
<title>Node4</title>
<g id="a_node4"><a xlink:href="../../dd/dcd/operators_8hpp.html" target="_top" xlink:title=" ">
<polygon fill="white" stroke="#666666" points="272,-90.25 150.25,-90.25 150.25,-56.75 272,-56.75 272,-90.25"/>
<text text-anchor="start" x="158.25" y="-76.75" font-family="Helvetica,sans-Serif" font-size="10.00">Simple&#45;Utility/concepts</text>
<text text-anchor="middle" x="211.12" y="-64" font-family="Helvetica,sans-Serif" font-size="10.00">/operators.hpp</text>
</a>
</g>
</g>
<!-- Node2&#45;&gt;Node4 -->
<g id="edge3" class="edge">
<title>Node2&#45;&gt;Node4</title>
<path fill="none" stroke="#63b8ff" d="M357.14,-125.83C330.16,-116.35 295.88,-104.3 267.31,-94.25"/>
<polygon fill="#63b8ff" stroke="#63b8ff" points="268.67,-90.67 258.07,-90.65 266.34,-97.27 268.67,-90.67"/>
</g>
<!-- Node6 -->
<g id="node6" class="node">
<title>Node6</title>
<g id="a_node6"><a xlink:href="../../dd/d5c/stl__extensions_8hpp.html" target="_top" xlink:title=" ">
<polygon fill="white" stroke="#666666" points="412,-90.25 290.25,-90.25 290.25,-56.75 412,-56.75 412,-90.25"/>
<text text-anchor="start" x="298.25" y="-76.75" font-family="Helvetica,sans-Serif" font-size="10.00">Simple&#45;Utility/concepts</text>
<text text-anchor="middle" x="351.12" y="-64" font-family="Helvetica,sans-Serif" font-size="10.00">/stl_extensions.hpp</text>
</a>
</g>
</g>
<!-- Node2&#45;&gt;Node6 -->
<g id="edge5" class="edge">
<title>Node2&#45;&gt;Node6</title>
<path fill="none" stroke="#63b8ff" d="M390.8,-126C384.58,-117.93 376.91,-107.97 369.97,-98.96"/>
<polygon fill="#63b8ff" stroke="#63b8ff" points="372.24,-97.17 363.36,-91.38 366.69,-101.44 372.24,-97.17"/>
</g>
<!-- Node8 -->
<g id="node8" class="node">
<title>Node8</title>
<g id="a_node8"><a xlink:title=" ">
<polygon fill="#e0e0e0" stroke="#999999" points="480,-83.88 430.25,-83.88 430.25,-63.12 480,-63.12 480,-83.88"/>
<text text-anchor="middle" x="455.12" y="-70.38" font-family="Helvetica,sans-Serif" font-size="10.00">cstddef</text>
</a>
</g>
</g>
<!-- Node2&#45;&gt;Node8 -->
<g id="edge8" class="edge">
<title>Node2&#45;&gt;Node8</title>
<path fill="none" stroke="#63b8ff" d="M415.45,-126C423.08,-116.09 432.92,-103.33 440.88,-92.99"/>
<polygon fill="#63b8ff" stroke="#63b8ff" points="444.23,-95.38 447.56,-85.32 438.68,-91.11 444.23,-95.38"/>
</g>
<!-- Node9 -->
<g id="node9" class="node">
<title>Node9</title>
<g id="a_node9"><a xlink:title=" ">
<polygon fill="#e0e0e0" stroke="#999999" points="560,-83.88 498.25,-83.88 498.25,-63.12 560,-63.12 560,-83.88"/>
<text text-anchor="middle" x="529.12" y="-70.38" font-family="Helvetica,sans-Serif" font-size="10.00">functional</text>
</a>
</g>
</g>
<!-- Node2&#45;&gt;Node9 -->
<g id="edge9" class="edge">
<title>Node2&#45;&gt;Node9</title>
<path fill="none" stroke="#63b8ff" d="M433.31,-125.83C453.98,-114.75 481.2,-100.17 501.35,-89.38"/>
<polygon fill="#63b8ff" stroke="#63b8ff" points="502.72,-92.08 509.89,-84.27 499.42,-85.91 502.72,-92.08"/>
</g>
<!-- Node10 -->
<g id="node10" class="node">
<title>Node10</title>
<g id="a_node10"><a xlink:title=" ">
<polygon fill="#e0e0e0" stroke="#999999" points="642.12,-83.88 578.12,-83.88 578.12,-63.12 642.12,-63.12 642.12,-83.88"/>
<text text-anchor="middle" x="610.12" y="-70.38" font-family="Helvetica,sans-Serif" font-size="10.00">type_traits</text>
</a>
</g>
</g>
<!-- Node2&#45;&gt;Node10 -->
<g id="edge10" class="edge">
<title>Node2&#45;&gt;Node10</title>
<path fill="none" stroke="#63b8ff" d="M458.37,-125.75C490.8,-115.97 532.48,-102.98 569.12,-90.25 571.12,-89.56 573.17,-88.83 575.23,-88.08"/>
<polygon fill="#63b8ff" stroke="#63b8ff" points="576.35,-91.02 584.5,-84.25 573.91,-84.46 576.35,-91.02"/>
</g>
<!-- Node5 -->
<g id="node5" class="node">
<title>Node5</title>
<g id="a_node5"><a xlink:title=" ">
<polygon fill="#e0e0e0" stroke="#999999" points="272.38,-20.75 215.88,-20.75 215.88,0 272.38,0 272.38,-20.75"/>
<text text-anchor="middle" x="244.12" y="-7.25" font-family="Helvetica,sans-Serif" font-size="10.00">concepts</text>
</a>
</g>
</g>
<!-- Node4&#45;&gt;Node5 -->
<g id="edge4" class="edge">
<title>Node4&#45;&gt;Node5</title>
<path fill="none" stroke="#63b8ff" d="M219.8,-56.44C224.04,-48.58 229.18,-39.06 233.64,-30.79"/>
<polygon fill="#63b8ff" stroke="#63b8ff" points="237.14,-32.68 238.81,-22.22 230.98,-29.35 237.14,-32.68"/>
</g>
<!-- Node6&#45;&gt;Node5 -->
<g id="edge7" class="edge">
<title>Node6&#45;&gt;Node5</title>
<path fill="none" stroke="#63b8ff" d="M322.73,-56.28C306.53,-47.02 286.36,-35.5 270.5,-26.44"/>
<polygon fill="#63b8ff" stroke="#63b8ff" points="272.68,-23.09 262.26,-21.17 269.21,-29.16 272.68,-23.09"/>
</g>
<!-- Node7 -->
<g id="node7" class="node">
<title>Node7</title>
<g id="a_node7"><a xlink:title=" ">
<polygon fill="#e0e0e0" stroke="#999999" points="379,-20.75 323.25,-20.75 323.25,0 379,0 379,-20.75"/>
<text text-anchor="middle" x="351.12" y="-7.25" font-family="Helvetica,sans-Serif" font-size="10.00">compare</text>
</a>
</g>
</g>
<!-- Node6&#45;&gt;Node7 -->
<g id="edge6" class="edge">
<title>Node6&#45;&gt;Node7</title>
<path fill="none" stroke="#63b8ff" d="M351.12,-56.44C351.12,-49.02 351.12,-40.11 351.12,-32.18"/>
<polygon fill="#63b8ff" stroke="#63b8ff" points="354.63,-32.22 351.12,-22.22 347.63,-32.22 354.63,-32.22"/>
</g>
</g>
</svg>
