<?xml version="1.0" encoding="UTF-8" standalone="no"?>
<!DOCTYPE svg PUBLIC "-//W3C//DTD SVG 1.1//EN"
 "http://www.w3.org/Graphics/SVG/1.1/DTD/svg11.dtd">
<!-- Generated by graphviz version 8.0.5 (20230430.1635)
 -->
<!-- Title: Simple&#45;Utility/nullables/std_pointers.hpp Pages: 1 -->
<svg width="949pt" height="376pt"
 viewBox="0.00 0.00 948.85 376.25" xmlns="http://www.w3.org/2000/svg" xmlns:xlink="http://www.w3.org/1999/xlink">
<g id="graph0" class="graph" transform="scale(1 1) rotate(0) translate(4 372.25)">
<title>Simple&#45;Utility/nullables/std_pointers.hpp</title>
<!-- Node1 -->
<g id="node1" class="node">
<title>Node1</title>
<g id="a_node1"><a xlink:title=" ">
<polygon fill="#999999" stroke="#666666" points="679.23,-368.25 556.73,-368.25 556.73,-334.75 679.23,-334.75 679.23,-368.25"/>
<text text-anchor="start" x="564.73" y="-354.75" font-family="Helvetica,sans-Serif" font-size="10.00">Simple&#45;Utility/nullables</text>
<text text-anchor="middle" x="617.98" y="-342" font-family="Helvetica,sans-Serif" font-size="10.00">/std_pointers.hpp</text>
</a>
</g>
</g>
<!-- Node2 -->
<g id="node2" class="node">
<title>Node2</title>
<g id="a_node2"><a xlink:href="../../d6/dbe/nullables_2base_8hpp.html" target="_top" xlink:title=" ">
<polygon fill="white" stroke="#666666" points="626.23,-298.75 503.73,-298.75 503.73,-265.25 626.23,-265.25 626.23,-298.75"/>
<text text-anchor="start" x="511.73" y="-285.25" font-family="Helvetica,sans-Serif" font-size="10.00">Simple&#45;Utility/nullables</text>
<text text-anchor="middle" x="564.98" y="-272.5" font-family="Helvetica,sans-Serif" font-size="10.00">/base.hpp</text>
</a>
</g>
</g>
<!-- Node1&#45;&gt;Node2 -->
<g id="edge1" class="edge">
<title>Node1&#45;&gt;Node2</title>
<path fill="none" stroke="#63b8ff" d="M605.42,-334.5C599.08,-326.43 591.26,-316.47 584.19,-307.46"/>
<polygon fill="#63b8ff" stroke="#63b8ff" points="586.38,-305.59 577.45,-299.88 580.87,-309.91 586.38,-305.59"/>
</g>
<!-- Node17 -->
<g id="node17" class="node">
<title>Node17</title>
<g id="a_node17"><a xlink:title=" ">
<polygon fill="#e0e0e0" stroke="#999999" points="697.73,-292.38 644.23,-292.38 644.23,-271.62 697.73,-271.62 697.73,-292.38"/>
<text text-anchor="middle" x="670.98" y="-278.88" font-family="Helvetica,sans-Serif" font-size="10.00">memory</text>
</a>
</g>
</g>
<!-- Node1&#45;&gt;Node17 -->
<g id="edge27" class="edge">
<title>Node1&#45;&gt;Node17</title>
<path fill="none" stroke="#63b8ff" d="M630.54,-334.5C638.4,-324.49 648.55,-311.57 656.71,-301.17"/>
<polygon fill="#63b8ff" stroke="#63b8ff" points="659.84,-303.85 663.27,-293.82 654.34,-299.53 659.84,-303.85"/>
</g>
<!-- Node3 -->
<g id="node3" class="node">
<title>Node3</title>
<g id="a_node3"><a xlink:href="../../dd/d5c/stl__extensions_8hpp.html" target="_top" xlink:title=" ">
<polygon fill="white" stroke="#666666" points="136.85,-90.25 15.1,-90.25 15.1,-56.75 136.85,-56.75 136.85,-90.25"/>
<text text-anchor="start" x="23.1" y="-76.75" font-family="Helvetica,sans-Serif" font-size="10.00">Simple&#45;Utility/concepts</text>
<text text-anchor="middle" x="75.98" y="-64" font-family="Helvetica,sans-Serif" font-size="10.00">/stl_extensions.hpp</text>
</a>
</g>
</g>
<!-- Node2&#45;&gt;Node3 -->
<g id="edge2" class="edge">
<title>Node2&#45;&gt;Node3</title>
<path fill="none" stroke="#63b8ff" d="M526.61,-264.8C438.41,-227.55 221.39,-135.91 124.29,-94.9"/>
<polygon fill="#63b8ff" stroke="#63b8ff" points="125.74,-91.29 115.17,-90.63 123.02,-97.74 125.74,-91.29"/>
</g>
<!-- Node5 -->
<g id="node5" class="node">
<title>Node5</title>
<g id="a_node5"><a xlink:href="../../dd/dcd/operators_8hpp.html" target="_top" xlink:title=" ">
<polygon fill="white" stroke="#666666" points="124.85,-159.75 3.1,-159.75 3.1,-126.25 124.85,-126.25 124.85,-159.75"/>
<text text-anchor="start" x="11.1" y="-146.25" font-family="Helvetica,sans-Serif" font-size="10.00">Simple&#45;Utility/concepts</text>
<text text-anchor="middle" x="63.98" y="-133.5" font-family="Helvetica,sans-Serif" font-size="10.00">/operators.hpp</text>
</a>
</g>
</g>
<!-- Node2&#45;&gt;Node5 -->
<g id="edge4" class="edge">
<title>Node2&#45;&gt;Node5</title>
<path fill="none" stroke="#63b8ff" d="M503.34,-272.47C447.34,-263.99 362.77,-249.35 290.98,-229.25 227.42,-211.46 156.57,-183.48 111.2,-164.47"/>
<polygon fill="#63b8ff" stroke="#63b8ff" points="112.65,-160.86 102.07,-160.2 109.93,-167.31 112.65,-160.86"/>
</g>
<!-- Node6 -->
<g id="node6" class="node">
<title>Node6</title>
<g id="a_node6"><a xlink:href="../../d1/d76/functional_2base_8hpp.html" target="_top" xlink:title=" ">
<polygon fill="white" stroke="#666666" points="536.48,-159.75 409.48,-159.75 409.48,-126.25 536.48,-126.25 536.48,-159.75"/>
<text text-anchor="start" x="417.48" y="-146.25" font-family="Helvetica,sans-Serif" font-size="10.00">Simple&#45;Utility/functional</text>
<text text-anchor="middle" x="472.98" y="-133.5" font-family="Helvetica,sans-Serif" font-size="10.00">/base.hpp</text>
</a>
</g>
</g>
<!-- Node2&#45;&gt;Node6 -->
<g id="edge6" class="edge">
<title>Node2&#45;&gt;Node6</title>
<path fill="none" stroke="#63b8ff" d="M532.83,-264.82C518.61,-256.12 502.9,-244.1 492.98,-229.25 481.41,-211.93 476.49,-188.74 474.42,-170.91"/>
<polygon fill="#63b8ff" stroke="#63b8ff" points="477.83,-170.73 473.43,-161.09 470.86,-171.37 477.83,-170.73"/>
</g>
<!-- Node8 -->
<g id="node8" class="node">
<title>Node8</title>
<g id="a_node8"><a xlink:title=" ">
<polygon fill="#e0e0e0" stroke="#999999" points="702.98,-20.75 638.98,-20.75 638.98,0 702.98,0 702.98,-20.75"/>
<text text-anchor="middle" x="670.98" y="-7.25" font-family="Helvetica,sans-Serif" font-size="10.00">type_traits</text>
</a>
</g>
</g>
<!-- Node2&#45;&gt;Node8 -->
<g id="edge26" class="edge">
<title>Node2&#45;&gt;Node8</title>
<path fill="none" stroke="#63b8ff" d="M613.62,-264.8C680.33,-239.56 797.24,-183.82 843.98,-90.25 850.63,-76.93 853.07,-68.54 843.98,-56.75 828.21,-36.31 759.93,-23.28 714.01,-16.66"/>
<polygon fill="#63b8ff" stroke="#63b8ff" points="714.54,-13.06 704.15,-15.15 713.58,-19.99 714.54,-13.06"/>
</g>
<!-- Node10 -->
<g id="node10" class="node">
<title>Node10</title>
<g id="a_node10"><a xlink:href="../../d4/d1c/unified__base_8hpp.html" target="_top" xlink:title=" ">
<polygon fill="white" stroke="#666666" points="712.98,-90.25 600.98,-90.25 600.98,-56.75 712.98,-56.75 712.98,-90.25"/>
<text text-anchor="start" x="608.98" y="-76.75" font-family="Helvetica,sans-Serif" font-size="10.00">Simple&#45;Utility/unified</text>
<text text-anchor="middle" x="656.98" y="-64" font-family="Helvetica,sans-Serif" font-size="10.00">_base.hpp</text>
</a>
</g>
</g>
<!-- Node2&#45;&gt;Node10 -->
<g id="edge24" class="edge">
<title>Node2&#45;&gt;Node10</title>
<path fill="none" stroke="#63b8ff" d="M599.06,-264.93C613.43,-256.38 628.9,-244.46 637.98,-229.25 661.7,-189.51 662.21,-133.81 659.93,-101.21"/>
<polygon fill="#63b8ff" stroke="#63b8ff" points="663.34,-100.98 659,-91.31 656.36,-101.57 663.34,-100.98"/>
</g>
<!-- Node12 -->
<g id="node12" class="node">
<title>Node12</title>
<g id="a_node12"><a xlink:href="../../d9/d76/bind_8hpp.html" target="_top" xlink:title=" ">
<polygon fill="white" stroke="#666666" points="628.48,-229.25 501.48,-229.25 501.48,-195.75 628.48,-195.75 628.48,-229.25"/>
<text text-anchor="start" x="509.48" y="-215.75" font-family="Helvetica,sans-Serif" font-size="10.00">Simple&#45;Utility/functional</text>
<text text-anchor="middle" x="564.98" y="-203" font-family="Helvetica,sans-Serif" font-size="10.00">/operators/bind.hpp</text>
</a>
</g>
</g>
<!-- Node2&#45;&gt;Node12 -->
<g id="edge17" class="edge">
<title>Node2&#45;&gt;Node12</title>
<path fill="none" stroke="#63b8ff" d="M564.98,-265C564.98,-257.61 564.98,-248.62 564.98,-240.23"/>
<polygon fill="#63b8ff" stroke="#63b8ff" points="568.48,-240.38 564.98,-230.38 561.48,-240.38 568.48,-240.38"/>
</g>
<!-- Node16 -->
<g id="node16" class="node">
<title>Node16</title>
<g id="a_node16"><a xlink:title=" ">
<polygon fill="#e0e0e0" stroke="#999999" points="940.85,-222.88 891.1,-222.88 891.1,-202.12 940.85,-202.12 940.85,-222.88"/>
<text text-anchor="middle" x="915.98" y="-209.38" font-family="Helvetica,sans-Serif" font-size="10.00">cstddef</text>
</a>
</g>
</g>
<!-- Node2&#45;&gt;Node16 -->
<g id="edge25" class="edge">
<title>Node2&#45;&gt;Node16</title>
<path fill="none" stroke="#63b8ff" d="M626.38,-266.91C629.29,-266.33 632.16,-265.78 634.98,-265.25 741.87,-245.3 772.06,-257.81 876.98,-229.25 879.32,-228.61 881.72,-227.87 884.11,-227.07"/>
<polygon fill="#63b8ff" stroke="#63b8ff" points="885.26,-230.01 893.43,-223.26 882.83,-223.44 885.26,-230.01"/>
</g>
<!-- Node4 -->
<g id="node4" class="node">
<title>Node4</title>
<g id="a_node4"><a xlink:title=" ">
<polygon fill="#e0e0e0" stroke="#999999" points="238.23,-20.75 181.73,-20.75 181.73,0 238.23,0 238.23,-20.75"/>
<text text-anchor="middle" x="209.98" y="-7.25" font-family="Helvetica,sans-Serif" font-size="10.00">concepts</text>
</a>
</g>
</g>
<!-- Node3&#45;&gt;Node4 -->
<g id="edge3" class="edge">
<title>Node3&#45;&gt;Node4</title>
<path fill="none" stroke="#63b8ff" d="M111.54,-56.28C132.4,-46.76 158.52,-34.85 178.62,-25.68"/>
<polygon fill="#63b8ff" stroke="#63b8ff" points="179.87,-28.5 187.52,-21.17 176.96,-22.13 179.87,-28.5"/>
</g>
<!-- Node5&#45;&gt;Node4 -->
<g id="edge5" class="edge">
<title>Node5&#45;&gt;Node4</title>
<path fill="none" stroke="#63b8ff" d="M39.77,-125.76C16.58,-108.2 -12.39,-79.65 5.98,-56.75 26.22,-31.51 117.24,-19.42 170.61,-14.4"/>
<polygon fill="#63b8ff" stroke="#63b8ff" points="170.75,-17.82 180.39,-13.44 170.12,-10.84 170.75,-17.82"/>
</g>
<!-- Node6&#45;&gt;Node3 -->
<g id="edge14" class="edge">
<title>Node6&#45;&gt;Node3</title>
<path fill="none" stroke="#63b8ff" d="M408.98,-132.63C343.89,-122.89 240.19,-106.78 150.98,-90.25 150,-90.07 149.02,-89.89 148.04,-89.7"/>
<polygon fill="#63b8ff" stroke="#63b8ff" points="148.81,-86.09 138.33,-87.63 147.48,-92.96 148.81,-86.09"/>
</g>
<!-- Node6&#45;&gt;Node4 -->
<g id="edge7" class="edge">
<title>Node6&#45;&gt;Node4</title>
<path fill="none" stroke="#63b8ff" d="M409.13,-134.91C328.46,-125.31 198.31,-107.38 183.98,-90.25 169.46,-72.9 182.51,-47.18 194.79,-29.87"/>
<polygon fill="#63b8ff" stroke="#63b8ff" points="198.09,-32.31 201.35,-22.23 192.51,-28.08 198.09,-32.31"/>
</g>
<!-- Node7 -->
<g id="node7" class="node">
<title>Node7</title>
<g id="a_node7"><a xlink:title=" ">
<polygon fill="#e0e0e0" stroke="#999999" points="544.85,-83.88 483.1,-83.88 483.1,-63.12 544.85,-63.12 544.85,-83.88"/>
<text text-anchor="middle" x="513.98" y="-70.38" font-family="Helvetica,sans-Serif" font-size="10.00">functional</text>
</a>
</g>
</g>
<!-- Node6&#45;&gt;Node7 -->
<g id="edge8" class="edge">
<title>Node6&#45;&gt;Node7</title>
<path fill="none" stroke="#63b8ff" d="M482.69,-126C488.59,-116.3 496.15,-103.85 502.36,-93.62"/>
<polygon fill="#63b8ff" stroke="#63b8ff" points="505.81,-95.69 508.01,-85.32 499.83,-92.05 505.81,-95.69"/>
</g>
<!-- Node6&#45;&gt;Node8 -->
<g id="edge9" class="edge">
<title>Node6&#45;&gt;Node8</title>
<path fill="none" stroke="#63b8ff" d="M500.68,-125.76C516.67,-116.04 536.92,-103.1 553.98,-90.25 571.96,-76.7 573.68,-69.87 591.98,-56.75 607.8,-45.41 626.66,-34.49 641.98,-26.2"/>
<polygon fill="#63b8ff" stroke="#63b8ff" points="643.29,-28.94 650.48,-21.16 640.01,-22.76 643.29,-28.94"/>
</g>
<!-- Node9 -->
<g id="node9" class="node">
<title>Node9</title>
<g id="a_node9"><a xlink:href="../../d8/dd2/_config_8hpp.html" target="_top" xlink:title=" ">
<polygon fill="white" stroke="#666666" points="465.1,-83.88 332.85,-83.88 332.85,-63.12 465.1,-63.12 465.1,-83.88"/>
<text text-anchor="middle" x="398.98" y="-70.38" font-family="Helvetica,sans-Serif" font-size="10.00">Simple&#45;Utility/Config.hpp</text>
</a>
</g>
</g>
<!-- Node6&#45;&gt;Node9 -->
<g id="edge10" class="edge">
<title>Node6&#45;&gt;Node9</title>
<path fill="none" stroke="#63b8ff" d="M455.44,-126C444.13,-115.69 429.44,-102.28 417.87,-91.73"/>
<polygon fill="#63b8ff" stroke="#63b8ff" points="420.49,-89.48 410.75,-85.32 415.77,-94.65 420.49,-89.48"/>
</g>
<!-- Node6&#45;&gt;Node10 -->
<g id="edge11" class="edge">
<title>Node6&#45;&gt;Node10</title>
<path fill="none" stroke="#63b8ff" d="M517.05,-125.83C542.79,-116.39 575.47,-104.4 602.77,-94.39"/>
<polygon fill="#63b8ff" stroke="#63b8ff" points="603.76,-97.38 611.95,-90.65 601.35,-90.81 603.76,-97.38"/>
</g>
<!-- Node11 -->
<g id="node11" class="node">
<title>Node11</title>
<g id="a_node11"><a xlink:href="../../d5/d8e/concepts_2utility_8hpp.html" target="_top" xlink:title=" ">
<polygon fill="white" stroke="#666666" points="314.85,-90.25 193.1,-90.25 193.1,-56.75 314.85,-56.75 314.85,-90.25"/>
<text text-anchor="start" x="201.1" y="-76.75" font-family="Helvetica,sans-Serif" font-size="10.00">Simple&#45;Utility/concepts</text>
<text text-anchor="middle" x="253.98" y="-64" font-family="Helvetica,sans-Serif" font-size="10.00">/utility.hpp</text>
</a>
</g>
</g>
<!-- Node6&#45;&gt;Node11 -->
<g id="edge15" class="edge">
<title>Node6&#45;&gt;Node11</title>
<path fill="none" stroke="#63b8ff" d="M420.52,-125.83C389.35,-116.22 349.62,-103.98 316.78,-93.86"/>
<polygon fill="#63b8ff" stroke="#63b8ff" points="317.97,-90.25 307.38,-90.65 315.91,-96.94 317.97,-90.25"/>
</g>
<!-- Node10&#45;&gt;Node4 -->
<g id="edge12" class="edge">
<title>Node10&#45;&gt;Node4</title>
<path fill="none" stroke="#63b8ff" d="M600.61,-63.67C585.48,-61.35 569.11,-58.9 553.98,-56.75 443.71,-41.05 313.27,-24.36 249.33,-16.3"/>
<polygon fill="#63b8ff" stroke="#63b8ff" points="249.91,-12.72 239.55,-14.94 249.03,-19.66 249.91,-12.72"/>
</g>
<!-- Node10&#45;&gt;Node8 -->
<g id="edge13" class="edge">
<title>Node10&#45;&gt;Node8</title>
<path fill="none" stroke="#63b8ff" d="M660.66,-56.44C662.38,-48.93 664.44,-39.9 666.28,-31.9"/>
<polygon fill="#63b8ff" stroke="#63b8ff" points="669.9,-32.75 668.72,-22.22 663.08,-31.18 669.9,-32.75"/>
</g>
<!-- Node11&#45;&gt;Node4 -->
<g id="edge16" class="edge">
<title>Node11&#45;&gt;Node4</title>
<path fill="none" stroke="#63b8ff" d="M242.42,-56.44C236.57,-48.32 229.45,-38.42 223.36,-29.97"/>
<polygon fill="#63b8ff" stroke="#63b8ff" points="225.75,-28.29 217.06,-22.22 220.06,-32.38 225.75,-28.29"/>
</g>
<!-- Node12&#45;&gt;Node6 -->
<g id="edge18" class="edge">
<title>Node12&#45;&gt;Node6</title>
<path fill="none" stroke="#63b8ff" d="M543.17,-195.5C531.35,-186.82 516.53,-175.96 503.56,-166.44"/>
<polygon fill="#63b8ff" stroke="#63b8ff" points="506.08,-163.21 495.94,-160.12 501.93,-168.85 506.08,-163.21"/>
</g>
<!-- Node13 -->
<g id="node13" class="node">
<title>Node13</title>
<g id="a_node13"><a xlink:href="../../d2/d30/general_8hpp.html" target="_top" xlink:title=" ">
<polygon fill="white" stroke="#666666" points="835.23,-90.25 730.73,-90.25 730.73,-56.75 835.23,-56.75 835.23,-90.25"/>
<text text-anchor="start" x="738.73" y="-76.75" font-family="Helvetica,sans-Serif" font-size="10.00">Simple&#45;Utility/tuple</text>
<text text-anchor="middle" x="782.98" y="-64" font-family="Helvetica,sans-Serif" font-size="10.00">/general.hpp</text>
</a>
</g>
</g>
<!-- Node12&#45;&gt;Node13 -->
<g id="edge19" class="edge">
<title>Node12&#45;&gt;Node13</title>
<path fill="none" stroke="#63b8ff" d="M590.41,-195.52C629.44,-170.99 704.2,-124.01 748.2,-96.35"/>
<polygon fill="#63b8ff" stroke="#63b8ff" points="749.76,-98.88 756.37,-90.59 746.04,-92.95 749.76,-98.88"/>
</g>
<!-- Node13&#45;&gt;Node4 -->
<g id="edge20" class="edge">
<title>Node13&#45;&gt;Node4</title>
<path fill="none" stroke="#63b8ff" d="M730.52,-58.37C727.64,-57.78 724.78,-57.23 721.98,-56.75 547.34,-26.68 335.55,-15.96 249.33,-12.66"/>
<polygon fill="#63b8ff" stroke="#63b8ff" points="249.62,-9.13 239.5,-12.26 249.36,-16.13 249.62,-9.13"/>
</g>
<!-- Node13&#45;&gt;Node8 -->
<g id="edge22" class="edge">
<title>Node13&#45;&gt;Node8</title>
<path fill="none" stroke="#63b8ff" d="M753.26,-56.28C736.14,-46.94 714.78,-35.28 698.12,-26.19"/>
<polygon fill="#63b8ff" stroke="#63b8ff" points="700.37,-22.88 689.92,-21.17 697.02,-29.03 700.37,-22.88"/>
</g>
<!-- Node14 -->
<g id="node14" class="node">
<title>Node14</title>
<g id="a_node14"><a xlink:title=" ">
<polygon fill="#e0e0e0" stroke="#999999" points="788.6,-20.75 749.35,-20.75 749.35,0 788.6,0 788.6,-20.75"/>
<text text-anchor="middle" x="768.98" y="-7.25" font-family="Helvetica,sans-Serif" font-size="10.00">tuple</text>
</a>
</g>
</g>
<!-- Node13&#45;&gt;Node14 -->
<g id="edge21" class="edge">
<title>Node13&#45;&gt;Node14</title>
<path fill="none" stroke="#63b8ff" d="M779.3,-56.44C777.58,-48.93 775.51,-39.9 773.68,-31.9"/>
<polygon fill="#63b8ff" stroke="#63b8ff" points="776.88,-31.18 771.23,-22.22 770.05,-32.75 776.88,-31.18"/>
</g>
<!-- Node15 -->
<g id="node15" class="node">
<title>Node15</title>
<g id="a_node15"><a xlink:title=" ">
<polygon fill="#e0e0e0" stroke="#999999" points="847.35,-20.75 806.6,-20.75 806.6,0 847.35,0 847.35,-20.75"/>
<text text-anchor="middle" x="826.98" y="-7.25" font-family="Helvetica,sans-Serif" font-size="10.00">utility</text>
</a>
</g>
</g>
<!-- Node13&#45;&gt;Node15 -->
<g id="edge23" class="edge">
<title>Node13&#45;&gt;Node15</title>
<path fill="none" stroke="#63b8ff" d="M794.54,-56.44C800.38,-48.32 807.51,-38.42 813.59,-29.97"/>
<polygon fill="#63b8ff" stroke="#63b8ff" points="816.89,-32.38 819.89,-22.22 811.21,-28.29 816.89,-32.38"/>
</g>
</g>
</svg>
