<?xml version="1.0" encoding="UTF-8" standalone="no"?>
<!DOCTYPE svg PUBLIC "-//W3C//DTD SVG 1.1//EN"
 "http://www.w3.org/Graphics/SVG/1.1/DTD/svg11.dtd">
<!-- Generated by graphviz version 7.0.5 (20221223.1930)
 -->
<!-- Title: Simple&#45;Utility/functional/operators/negation.hpp Pages: 1 -->
<svg width="238pt" height="225pt"
 viewBox="0.00 0.00 238.00 225.00" xmlns="http://www.w3.org/2000/svg" xmlns:xlink="http://www.w3.org/1999/xlink">
<g id="graph0" class="graph" transform="scale(1 1) rotate(0) translate(4 221)">
<title>Simple&#45;Utility/functional/operators/negation.hpp</title>
<!-- Node1 -->
<g id="node1" class="node">
<title>Node1</title>
<g id="a_node1"><a xlink:title=" ">
<polygon fill="#999999" stroke="#666666" points="146.5,-217 17.5,-217 17.5,-187 146.5,-187 146.5,-217"/>
<text text-anchor="start" x="25.5" y="-205" font-family="Helvetica,sans-Serif" font-size="10.00">Simple&#45;Utility/functional</text>
<text text-anchor="middle" x="82" y="-194" font-family="Helvetica,sans-Serif" font-size="10.00">/operators/negation.hpp</text>
</a>
</g>
</g>
<!-- Node2 -->
<g id="node2" class="node">
<title>Node2</title>
<g id="a_node2"><a xlink:href="../../d2/db4/functional_8hpp.html" target="_top" xlink:title=" ">
<polygon fill="white" stroke="#666666" points="148,-19 0,-19 0,0 148,0 148,-19"/>
<text text-anchor="middle" x="74" y="-7" font-family="Helvetica,sans-Serif" font-size="10.00">Simple&#45;Utility/functional.hpp</text>
</a>
</g>
</g>
<!-- Node1&#45;&gt;Node2 -->
<g id="edge1" class="edge">
<title>Node1&#45;&gt;Node2</title>
<path fill="none" stroke="#63b8ff" d="M66.06,-177.22C61.57,-169.23 57.29,-160.04 55,-151 42.64,-102.08 62.26,-41.41 70.57,-19.18"/>
<polygon fill="#63b8ff" stroke="#63b8ff" points="62.97,-178.88 71.15,-185.62 68.96,-175.25 62.97,-178.88"/>
</g>
<!-- Node3 -->
<g id="node3" class="node">
<title>Node3</title>
<g id="a_node3"><a xlink:href="../../d2/d7e/predicate_8hpp.html" target="_top" xlink:title=" ">
<polygon fill="white" stroke="#666666" points="192,-151 64,-151 64,-121 192,-121 192,-151"/>
<text text-anchor="start" x="72" y="-139" font-family="Helvetica,sans-Serif" font-size="10.00">Simple&#45;Utility/functional</text>
<text text-anchor="middle" x="128" y="-128" font-family="Helvetica,sans-Serif" font-size="10.00">/predicate.hpp</text>
</a>
</g>
</g>
<!-- Node1&#45;&gt;Node3 -->
<g id="edge2" class="edge">
<title>Node1&#45;&gt;Node3</title>
<path fill="none" stroke="#63b8ff" d="M98.76,-177.68C105.15,-168.79 112.23,-158.95 117.82,-151.16"/>
<polygon fill="#63b8ff" stroke="#63b8ff" points="96.09,-175.4 93.09,-185.57 101.77,-179.49 96.09,-175.4"/>
</g>
<!-- Node3&#45;&gt;Node2 -->
<g id="edge3" class="edge">
<title>Node3&#45;&gt;Node2</title>
<path fill="none" stroke="#63b8ff" d="M108.91,-111.47C103.13,-103.44 97.21,-94.17 93,-85 82.65,-62.44 77.31,-33.33 75.16,-19.1"/>
<polygon fill="#63b8ff" stroke="#63b8ff" points="106.04,-113.47 114.85,-119.34 111.62,-109.25 106.04,-113.47"/>
</g>
<!-- Node4 -->
<g id="node4" class="node">
<title>Node4</title>
<g id="a_node4"><a xlink:href="../../dd/d3f/compare_8hpp.html" target="_top" xlink:title=" ">
<polygon fill="white" stroke="#666666" points="230,-85 102,-85 102,-55 230,-55 230,-85"/>
<text text-anchor="start" x="110" y="-73" font-family="Helvetica,sans-Serif" font-size="10.00">Simple&#45;Utility/functional</text>
<text text-anchor="middle" x="166" y="-62" font-family="Helvetica,sans-Serif" font-size="10.00">/compare.hpp</text>
</a>
</g>
</g>
<!-- Node3&#45;&gt;Node4 -->
<g id="edge4" class="edge">
<title>Node3&#45;&gt;Node4</title>
<path fill="none" stroke="#63b8ff" d="M142.18,-111.11C147.37,-102.38 153.07,-92.78 157.59,-85.16"/>
<polygon fill="#63b8ff" stroke="#63b8ff" points="139.3,-109.11 137.21,-119.49 145.32,-112.68 139.3,-109.11"/>
</g>
<!-- Node4&#45;&gt;Node2 -->
<g id="edge5" class="edge">
<title>Node4&#45;&gt;Node2</title>
<path fill="none" stroke="#63b8ff" d="M133.86,-48.56C118.15,-38.57 100.06,-27.07 87.91,-19.35"/>
<polygon fill="#63b8ff" stroke="#63b8ff" points="131.66,-51.31 141.98,-53.73 135.42,-45.41 131.66,-51.31"/>
</g>
</g>
</svg>
