<?xml version="1.0" encoding="UTF-8" standalone="no"?>
<!DOCTYPE svg PUBLIC "-//W3C//DTD SVG 1.1//EN"
 "http://www.w3.org/Graphics/SVG/1.1/DTD/svg11.dtd">
<!-- Generated by graphviz version 2.43.0 (0)
 -->
<!-- Title: /home/runner/work/Simple&#45;Utility/Simple&#45;Utility/include/Simple&#45;Utility/functional/operators/negation.hpp Pages: 1 -->
<svg width="262pt" height="328pt"
 viewBox="0.00 0.00 261.50 328.00" xmlns="http://www.w3.org/2000/svg" xmlns:xlink="http://www.w3.org/1999/xlink">
<g id="graph0" class="graph" transform="scale(1 1) rotate(0) translate(4 324)">
<title>/home/runner/work/Simple&#45;Utility/Simple&#45;Utility/include/Simple&#45;Utility/functional/operators/negation.hpp</title>
<polygon fill="white" stroke="transparent" points="-4,4 -4,-324 257.5,-324 257.5,4 -4,4"/>
<!-- Node1 -->
<g id="node1" class="node">
<title>Node1</title>
<g id="a_node1"><a xlink:title=" ">
<polygon fill="#bfbfbf" stroke="black" points="68.5,-267.5 68.5,-319.5 253.5,-319.5 253.5,-267.5 68.5,-267.5"/>
<text text-anchor="start" x="76.5" y="-307.5" font-family="Helvetica,sans-Serif" font-size="10.00">/home/runner/work/Simple</text>
<text text-anchor="start" x="76.5" y="-296.5" font-family="Helvetica,sans-Serif" font-size="10.00">&#45;Utility/Simple&#45;Utility</text>
<text text-anchor="start" x="76.5" y="-285.5" font-family="Helvetica,sans-Serif" font-size="10.00">/include/Simple&#45;Utility</text>
<text text-anchor="middle" x="161" y="-274.5" font-family="Helvetica,sans-Serif" font-size="10.00">/functional/operators/negation.hpp</text>
</a>
</g>
</g>
<!-- Node2 -->
<g id="node2" class="node">
<title>Node2</title>
<g id="a_node2"><a xlink:href="../../d2/d7e/predicate_8hpp.html" target="_top" xlink:title=" ">
<polygon fill="white" stroke="black" points="38,-178.5 38,-230.5 184,-230.5 184,-178.5 38,-178.5"/>
<text text-anchor="start" x="46" y="-218.5" font-family="Helvetica,sans-Serif" font-size="10.00">/home/runner/work/Simple</text>
<text text-anchor="start" x="46" y="-207.5" font-family="Helvetica,sans-Serif" font-size="10.00">&#45;Utility/Simple&#45;Utility</text>
<text text-anchor="start" x="46" y="-196.5" font-family="Helvetica,sans-Serif" font-size="10.00">/include/Simple&#45;Utility</text>
<text text-anchor="middle" x="111" y="-185.5" font-family="Helvetica,sans-Serif" font-size="10.00">/functional/predicate.hpp</text>
</a>
</g>
</g>
<!-- Node1&#45;&gt;Node2 -->
<g id="edge1" class="edge">
<title>Node1&#45;&gt;Node2</title>
<path fill="none" stroke="midnightblue" d="M141.54,-258.64C136.18,-249.31 130.45,-239.35 125.43,-230.61"/>
<polygon fill="midnightblue" stroke="midnightblue" points="138.52,-260.41 146.54,-267.34 144.59,-256.92 138.52,-260.41"/>
</g>
<!-- Node4 -->
<g id="node4" class="node">
<title>Node4</title>
<g id="a_node4"><a xlink:href="../../d2/db4/functional_8hpp.html" target="_top" xlink:title=" ">
<polygon fill="white" stroke="black" points="101,-0.5 101,-52.5 247,-52.5 247,-0.5 101,-0.5"/>
<text text-anchor="start" x="109" y="-40.5" font-family="Helvetica,sans-Serif" font-size="10.00">/home/runner/work/Simple</text>
<text text-anchor="start" x="109" y="-29.5" font-family="Helvetica,sans-Serif" font-size="10.00">&#45;Utility/Simple&#45;Utility</text>
<text text-anchor="start" x="109" y="-18.5" font-family="Helvetica,sans-Serif" font-size="10.00">/include/Simple&#45;Utility</text>
<text text-anchor="middle" x="174" y="-7.5" font-family="Helvetica,sans-Serif" font-size="10.00">/functional.hpp</text>
</a>
</g>
</g>
<!-- Node1&#45;&gt;Node4 -->
<g id="edge5" class="edge">
<title>Node1&#45;&gt;Node4</title>
<path fill="none" stroke="midnightblue" d="M182.45,-258.3C186.8,-249.7 190.73,-240.27 193,-231 208.39,-168.1 192.18,-91.46 181.6,-52.64"/>
<polygon fill="midnightblue" stroke="midnightblue" points="179.28,-256.8 177.62,-267.26 185.45,-260.12 179.28,-256.8"/>
</g>
<!-- Node3 -->
<g id="node3" class="node">
<title>Node3</title>
<g id="a_node3"><a xlink:href="../../dd/d3f/compare_8hpp.html" target="_top" xlink:title=" ">
<polygon fill="white" stroke="black" points="0,-89.5 0,-141.5 146,-141.5 146,-89.5 0,-89.5"/>
<text text-anchor="start" x="8" y="-129.5" font-family="Helvetica,sans-Serif" font-size="10.00">/home/runner/work/Simple</text>
<text text-anchor="start" x="8" y="-118.5" font-family="Helvetica,sans-Serif" font-size="10.00">&#45;Utility/Simple&#45;Utility</text>
<text text-anchor="start" x="8" y="-107.5" font-family="Helvetica,sans-Serif" font-size="10.00">/include/Simple&#45;Utility</text>
<text text-anchor="middle" x="73" y="-96.5" font-family="Helvetica,sans-Serif" font-size="10.00">/functional/compare.hpp</text>
</a>
</g>
</g>
<!-- Node2&#45;&gt;Node3 -->
<g id="edge2" class="edge">
<title>Node2&#45;&gt;Node3</title>
<path fill="none" stroke="midnightblue" d="M95.96,-169.06C91.95,-159.9 87.71,-150.17 83.97,-141.61"/>
<polygon fill="midnightblue" stroke="midnightblue" points="92.8,-170.57 100.01,-178.34 99.21,-167.77 92.8,-170.57"/>
</g>
<!-- Node2&#45;&gt;Node4 -->
<g id="edge4" class="edge">
<title>Node2&#45;&gt;Node4</title>
<path fill="none" stroke="midnightblue" d="M138.85,-170.38C145.02,-161.61 150.93,-151.83 155,-142 167.11,-112.77 171.51,-76.33 173.11,-52.51"/>
<polygon fill="midnightblue" stroke="midnightblue" points="136.02,-168.31 132.9,-178.44 141.65,-172.47 136.02,-168.31"/>
</g>
<!-- Node3&#45;&gt;Node4 -->
<g id="edge3" class="edge">
<title>Node3&#45;&gt;Node4</title>
<path fill="none" stroke="midnightblue" d="M109.98,-82.65C121.47,-72.75 133.97,-61.98 144.85,-52.61"/>
<polygon fill="midnightblue" stroke="midnightblue" points="107.51,-80.16 102.21,-89.34 112.07,-85.46 107.51,-80.16"/>
</g>
</g>
</svg>
