<?xml version="1.0" encoding="UTF-8" standalone="no"?>
<!DOCTYPE svg PUBLIC "-//W3C//DTD SVG 1.1//EN"
 "http://www.w3.org/Graphics/SVG/1.1/DTD/svg11.dtd">
<!-- Generated by graphviz version 2.43.0 (0)
 -->
<!-- Title: tuple Pages: 1 -->
<svg width="165pt" height="64pt"
 viewBox="0.00 0.00 165.00 64.00" xmlns="http://www.w3.org/2000/svg" xmlns:xlink="http://www.w3.org/1999/xlink">
<g id="graph0" class="graph" transform="scale(1 1) rotate(0) translate(4 60)">
<title>tuple</title>
<polygon fill="white" stroke="transparent" points="-4,4 -4,-60 161,-60 161,4 -4,4"/>
<!-- Node3 -->
<g id="node1" class="node">
<title>Node3</title>
<g id="a_node1"><a xlink:href="../../d4/dd5/group___g_r_o_u_p___t_u_p_l_e___s_t_l___e_x_t.html" target="_top" xlink:title=" ">
<polygon fill="white" stroke="black" points="157,-56 77,-56 77,-37 157,-37 157,-56"/>
<text text-anchor="middle" x="117" y="-44" font-family="Helvetica,sans-Serif" font-size="10.00">stl extension</text>
</a>
</g>
</g>
<!-- Node1 -->
<g id="node2" class="node">
<title>Node1</title>
<g id="a_node2"><a xlink:title=" ">
<polygon fill="#bfbfbf" stroke="black" points="41,-37 0,-37 0,-18 41,-18 41,-37"/>
<text text-anchor="middle" x="20.5" y="-25" font-family="Helvetica,sans-Serif" font-size="10.00">tuple</text>
</a>
</g>
</g>
<!-- Node1&#45;&gt;Node3 -->
<g id="edge2" class="edge">
<title>Node1&#45;&gt;Node3</title>
<path fill="none" stroke="black" d="M50.96,-33.42C59.19,-35.08 68.26,-36.9 76.95,-38.65"/>
<polygon fill="black" stroke="black" points="51.57,-29.98 41.08,-31.44 50.19,-36.84 51.57,-29.98"/>
</g>
<!-- Node2 -->
<g id="node3" class="node">
<title>Node2</title>
<g id="a_node3"><a xlink:href="../../d8/dec/group___g_r_o_u_p___t_u_p_l_e___a_l_g_o_r_i_t_h_m.html" target="_top" xlink:title=" ">
<polygon fill="white" stroke="black" points="149,-19 85,-19 85,0 149,0 149,-19"/>
<text text-anchor="middle" x="117" y="-7" font-family="Helvetica,sans-Serif" font-size="10.00">algorithm</text>
</a>
</g>
</g>
<!-- Node1&#45;&gt;Node2 -->
<g id="edge1" class="edge">
<title>Node1&#45;&gt;Node2</title>
<path fill="none" stroke="black" d="M51.23,-21.84C61.96,-19.79 74.08,-17.49 84.91,-15.42"/>
<polygon fill="black" stroke="black" points="50.25,-18.46 41.08,-23.77 51.56,-25.34 50.25,-18.46"/>
</g>
</g>
</svg>
