<?xml version="1.0" encoding="UTF-8" standalone="no"?>
<!DOCTYPE svg PUBLIC "-//W3C//DTD SVG 1.1//EN"
 "http://www.w3.org/Graphics/SVG/1.1/DTD/svg11.dtd">
<!-- Generated by graphviz version 8.0.5 (20230430.1635)
 -->
<!-- Title: tuple Pages: 1 -->
<svg width="156pt" height="68pt"
 viewBox="0.00 0.00 156.25 67.75" xmlns="http://www.w3.org/2000/svg" xmlns:xlink="http://www.w3.org/1999/xlink">
<g id="graph0" class="graph" transform="scale(1 1) rotate(0) translate(4 63.75)">
<title>tuple</title>
<!-- Node1 -->
<g id="node1" class="node">
<title>Node1</title>
<g id="a_node1"><a xlink:title=" ">
<polygon fill="#999999" stroke="#666666" points="39.25,-39.75 0,-39.75 0,-19 39.25,-19 39.25,-39.75"/>
<text text-anchor="middle" x="19.62" y="-26.25" font-family="Helvetica,sans-Serif" font-size="10.00">tuple</text>
</a>
</g>
</g>
<!-- Node2 -->
<g id="node2" class="node">
<title>Node2</title>
<g id="a_node2"><a xlink:href="../../d8/dec/group___g_r_o_u_p___t_u_p_l_e___a_l_g_o_r_i_t_h_m.html" target="_top" xlink:title=" ">
<polygon fill="white" stroke="#666666" points="142.25,-59.75 81.25,-59.75 81.25,-39 142.25,-39 142.25,-59.75"/>
<text text-anchor="middle" x="111.75" y="-46.25" font-family="Helvetica,sans-Serif" font-size="10.00">algorithm</text>
</a>
</g>
</g>
<!-- Node1&#45;&gt;Node2 -->
<g id="edge1" class="edge">
<title>Node1&#45;&gt;Node2</title>
<path fill="none" stroke="black" d="M50.29,-35.96C60.16,-38.15 71.15,-40.59 81.02,-42.78"/>
<polygon fill="black" stroke="black" points="51.26,-32.37 40.74,-33.62 49.74,-39.2 51.26,-32.37"/>
</g>
<!-- Node3 -->
<g id="node3" class="node">
<title>Node3</title>
<g id="a_node3"><a xlink:href="../../d4/dd5/group___g_r_o_u_p___t_u_p_l_e___s_t_l___e_x_t.html" target="_top" xlink:title=" ">
<polygon fill="white" stroke="#666666" points="148.25,-20.75 75.25,-20.75 75.25,0 148.25,0 148.25,-20.75"/>
<text text-anchor="middle" x="111.75" y="-7.25" font-family="Helvetica,sans-Serif" font-size="10.00">stl extension</text>
</a>
</g>
</g>
<!-- Node1&#45;&gt;Node3 -->
<g id="edge2" class="edge">
<title>Node1&#45;&gt;Node3</title>
<path fill="none" stroke="black" d="M50.28,-23.12C58.16,-21.46 66.76,-19.65 74.93,-17.93"/>
<polygon fill="black" stroke="black" points="49.8,-19.86 40.74,-25.35 51.25,-26.71 49.8,-19.86"/>
</g>
</g>
</svg>
