<?xml version="1.0" encoding="UTF-8" standalone="no"?>
<!DOCTYPE svg PUBLIC "-//W3C//DTD SVG 1.1//EN"
 "http://www.w3.org/Graphics/SVG/1.1/DTD/svg11.dtd">
<!-- Generated by graphviz version 7.0.5 (20221223.1930)
 -->
<!-- Title: tuple Pages: 1 -->
<svg width="158pt" height="64pt"
 viewBox="0.00 0.00 158.00 64.00" xmlns="http://www.w3.org/2000/svg" xmlns:xlink="http://www.w3.org/1999/xlink">
<g id="graph0" class="graph" transform="scale(1 1) rotate(0) translate(4 60)">
<title>tuple</title>
<!-- Node1 -->
<g id="node1" class="node">
<title>Node1</title>
<g id="a_node1"><a xlink:title=" ">
<polygon fill="#999999" stroke="#666666" points="40,-37 0,-37 0,-18 40,-18 40,-37"/>
<text text-anchor="middle" x="20" y="-25" font-family="Helvetica,sans-Serif" font-size="10.00">tuple</text>
</a>
</g>
</g>
<!-- Node2 -->
<g id="node2" class="node">
<title>Node2</title>
<g id="a_node2"><a xlink:href="../../d8/dec/group___g_r_o_u_p___t_u_p_l_e___a_l_g_o_r_i_t_h_m.html" target="_top" xlink:title=" ">
<polygon fill="white" stroke="#666666" points="144,-56 82,-56 82,-37 144,-37 144,-56"/>
<text text-anchor="middle" x="113" y="-44" font-family="Helvetica,sans-Serif" font-size="10.00">algorithm</text>
</a>
</g>
</g>
<!-- Node1&#45;&gt;Node2 -->
<g id="edge1" class="edge">
<title>Node1&#45;&gt;Node2</title>
<path fill="none" stroke="black" d="M51.49,-33.87C61.2,-35.89 71.93,-38.13 81.63,-40.16"/>
<polygon fill="black" stroke="black" points="52.28,-30.46 41.78,-31.84 50.85,-37.31 52.28,-30.46"/>
</g>
<!-- Node3 -->
<g id="node3" class="node">
<title>Node3</title>
<g id="a_node3"><a xlink:href="../../d4/dd5/group___g_r_o_u_p___t_u_p_l_e___s_t_l___e_x_t.html" target="_top" xlink:title=" ">
<polygon fill="white" stroke="#666666" points="150,-19 76,-19 76,0 150,0 150,-19"/>
<text text-anchor="middle" x="113" y="-7" font-family="Helvetica,sans-Serif" font-size="10.00">stl extension</text>
</a>
</g>
</g>
<!-- Node1&#45;&gt;Node3 -->
<g id="edge2" class="edge">
<title>Node1&#45;&gt;Node3</title>
<path fill="none" stroke="black" d="M51.5,-21.47C59.3,-19.92 67.77,-18.25 75.83,-16.65"/>
<polygon fill="black" stroke="black" points="50.91,-18.01 41.78,-23.39 52.27,-24.88 50.91,-18.01"/>
</g>
</g>
</svg>
