<?xml version="1.0" encoding="UTF-8" standalone="no"?>
<!DOCTYPE svg PUBLIC "-//W3C//DTD SVG 1.1//EN"
 "http://www.w3.org/Graphics/SVG/1.1/DTD/svg11.dtd">
<!-- Generated by graphviz version 8.0.5 (20230430.1635)
 -->
<!-- Title: Simple&#45;Utility/CRTPBase.hpp Pages: 1 -->
<svg width="155pt" height="155pt"
 viewBox="0.00 0.00 155.25 155.00" xmlns="http://www.w3.org/2000/svg" xmlns:xlink="http://www.w3.org/1999/xlink">
<g id="graph0" class="graph" transform="scale(1 1) rotate(0) translate(4 151)">
<title>Simple&#45;Utility/CRTPBase.hpp</title>
<!-- Node1 -->
<g id="node1" class="node">
<title>Node1</title>
<g id="a_node1"><a xlink:title=" ">
<polygon fill="#999999" stroke="#666666" points="147.25,-147 0,-147 0,-126.25 147.25,-126.25 147.25,-147"/>
<text text-anchor="middle" x="73.62" y="-133.5" font-family="Helvetica,sans-Serif" font-size="10.00">Simple&#45;Utility/CRTPBase.hpp</text>
</a>
</g>
</g>
<!-- Node2 -->
<g id="node2" class="node">
<title>Node2</title>
<g id="a_node2"><a xlink:href="../../dd/d5c/stl__extensions_8hpp.html" target="_top" xlink:title=" ">
<polygon fill="white" stroke="#666666" points="134.5,-90.25 12.75,-90.25 12.75,-56.75 134.5,-56.75 134.5,-90.25"/>
<text text-anchor="start" x="20.75" y="-76.75" font-family="Helvetica,sans-Serif" font-size="10.00">Simple&#45;Utility/concepts</text>
<text text-anchor="middle" x="73.62" y="-64" font-family="Helvetica,sans-Serif" font-size="10.00">/stl_extensions.hpp</text>
</a>
</g>
</g>
<!-- Node1&#45;&gt;Node2 -->
<g id="edge1" class="edge">
<title>Node1&#45;&gt;Node2</title>
<path fill="none" stroke="#63b8ff" d="M73.62,-125.8C73.62,-119.23 73.62,-110.24 73.62,-101.62"/>
<polygon fill="#63b8ff" stroke="#63b8ff" points="77.13,-101.73 73.62,-91.73 70.13,-101.73 77.13,-101.73"/>
</g>
<!-- Node3 -->
<g id="node3" class="node">
<title>Node3</title>
<g id="a_node3"><a xlink:title=" ">
<polygon fill="#e0e0e0" stroke="#999999" points="64.5,-20.75 8.75,-20.75 8.75,0 64.5,0 64.5,-20.75"/>
<text text-anchor="middle" x="36.62" y="-7.25" font-family="Helvetica,sans-Serif" font-size="10.00">compare</text>
</a>
</g>
</g>
<!-- Node2&#45;&gt;Node3 -->
<g id="edge2" class="edge">
<title>Node2&#45;&gt;Node3</title>
<path fill="none" stroke="#63b8ff" d="M63.9,-56.44C59.09,-48.49 53.25,-38.84 48.21,-30.52"/>
<polygon fill="#63b8ff" stroke="#63b8ff" points="50.76,-28.96 42.58,-22.22 44.77,-32.58 50.76,-28.96"/>
</g>
<!-- Node4 -->
<g id="node4" class="node">
<title>Node4</title>
<g id="a_node4"><a xlink:title=" ">
<polygon fill="#e0e0e0" stroke="#999999" points="138.88,-20.75 82.38,-20.75 82.38,0 138.88,0 138.88,-20.75"/>
<text text-anchor="middle" x="110.62" y="-7.25" font-family="Helvetica,sans-Serif" font-size="10.00">concepts</text>
</a>
</g>
</g>
<!-- Node2&#45;&gt;Node4 -->
<g id="edge3" class="edge">
<title>Node2&#45;&gt;Node4</title>
<path fill="none" stroke="#63b8ff" d="M83.35,-56.44C88.16,-48.49 94,-38.84 99.04,-30.52"/>
<polygon fill="#63b8ff" stroke="#63b8ff" points="102.48,-32.58 104.67,-22.22 96.49,-28.96 102.48,-32.58"/>
</g>
</g>
</svg>
