<?xml version="1.0" encoding="UTF-8" standalone="no"?>
<!DOCTYPE svg PUBLIC "-//W3C//DTD SVG 1.1//EN"
 "http://www.w3.org/Graphics/SVG/1.1/DTD/svg11.dtd">
<!-- Generated by graphviz version 8.0.5 (20230430.1635)
 -->
<!-- Title: Simple&#45;Utility/functional/base.hpp Pages: 1 -->
<svg width="2296pt" height="376pt"
 viewBox="0.00 0.00 2295.50 376.25" xmlns="http://www.w3.org/2000/svg" xmlns:xlink="http://www.w3.org/1999/xlink">
<g id="graph0" class="graph" transform="scale(1 1) rotate(0) translate(4 372.25)">
<title>Simple&#45;Utility/functional/base.hpp</title>
<!-- Node1 -->
<g id="node1" class="node">
<title>Node1</title>
<g id="a_node1"><a xlink:title=" ">
<polygon fill="#999999" stroke="#666666" points="1729.75,-368.25 1602.75,-368.25 1602.75,-334.75 1729.75,-334.75 1729.75,-368.25"/>
<text text-anchor="start" x="1610.75" y="-354.75" font-family="Helvetica,sans-Serif" font-size="10.00">Simple&#45;Utility/functional</text>
<text text-anchor="middle" x="1666.25" y="-342" font-family="Helvetica,sans-Serif" font-size="10.00">/base.hpp</text>
</a>
</g>
</g>
<!-- Node2 -->
<g id="node2" class="node">
<title>Node2</title>
<g id="a_node2"><a xlink:href="../../d2/db4/functional_8hpp.html" target="_top" xlink:title=" ">
<polygon fill="white" stroke="#666666" points="1795.88,-20.75 1648.62,-20.75 1648.62,0 1795.88,0 1795.88,-20.75"/>
<text text-anchor="middle" x="1722.25" y="-7.25" font-family="Helvetica,sans-Serif" font-size="10.00">Simple&#45;Utility/functional.hpp</text>
</a>
</g>
</g>
<!-- Node1&#45;&gt;Node2 -->
<g id="edge1" class="edge">
<title>Node1&#45;&gt;Node2</title>
<path fill="none" stroke="#63b8ff" d="M1652.14,-324.46C1648.5,-316.45 1645.09,-307.44 1643.25,-298.75 1640.16,-284.19 1642.82,-280.13 1643.25,-265.25 1644.14,-234.32 1641.25,-226.1 1647.25,-195.75 1659.91,-131.63 1667.73,-116.03 1695.25,-56.75 1701.19,-43.95 1709.76,-30.13 1715.64,-21.15"/>
<polygon fill="#63b8ff" stroke="#63b8ff" points="1649.42,-325.86 1656.95,-333.32 1655.71,-322.8 1649.42,-325.86"/>
</g>
<!-- Node3 -->
<g id="node3" class="node">
<title>Node3</title>
<g id="a_node3"><a xlink:href="../../d9/d76/bind_8hpp.html" target="_top" xlink:title=" ">
<polygon fill="white" stroke="#666666" points="1561.75,-229.25 1434.75,-229.25 1434.75,-195.75 1561.75,-195.75 1561.75,-229.25"/>
<text text-anchor="start" x="1442.75" y="-215.75" font-family="Helvetica,sans-Serif" font-size="10.00">Simple&#45;Utility/functional</text>
<text text-anchor="middle" x="1498.25" y="-203" font-family="Helvetica,sans-Serif" font-size="10.00">/operators/bind.hpp</text>
</a>
</g>
</g>
<!-- Node1&#45;&gt;Node3 -->
<g id="edge2" class="edge">
<title>Node1&#45;&gt;Node3</title>
<path fill="none" stroke="#63b8ff" d="M1623.24,-329.3C1607.75,-320.77 1590.57,-310.23 1576.25,-298.75 1550.11,-277.79 1524.88,-247.9 1510.5,-229.65"/>
<polygon fill="#63b8ff" stroke="#63b8ff" points="1621.15,-332.69 1631.62,-334.34 1624.47,-326.52 1621.15,-332.69"/>
</g>
<!-- Node4 -->
<g id="node4" class="node">
<title>Node4</title>
<g id="a_node4"><a xlink:href="../../d2/d7e/predicate_8hpp.html" target="_top" xlink:title=" ">
<polygon fill="white" stroke="#666666" points="2053.75,-159.75 1926.75,-159.75 1926.75,-126.25 2053.75,-126.25 2053.75,-159.75"/>
<text text-anchor="start" x="1934.75" y="-146.25" font-family="Helvetica,sans-Serif" font-size="10.00">Simple&#45;Utility/functional</text>
<text text-anchor="middle" x="1990.25" y="-133.5" font-family="Helvetica,sans-Serif" font-size="10.00">/predicate.hpp</text>
</a>
</g>
</g>
<!-- Node1&#45;&gt;Node4 -->
<g id="edge56" class="edge">
<title>Node1&#45;&gt;Node4</title>
<path fill="none" stroke="#63b8ff" d="M1740.91,-347.51C1865.29,-341.76 2103.86,-327.13 2129.25,-298.75 2174.51,-248.15 2078.33,-188.41 2024.04,-160.24"/>
<polygon fill="#63b8ff" stroke="#63b8ff" points="1740.8,-344.06 1730.97,-348.01 1741.11,-351.05 1740.8,-344.06"/>
</g>
<!-- Node6 -->
<g id="node6" class="node">
<title>Node6</title>
<g id="a_node6"><a xlink:href="../../d6/deb/transform_8hpp.html" target="_top" xlink:title=" ">
<polygon fill="white" stroke="#666666" points="1418.75,-159.75 1291.75,-159.75 1291.75,-126.25 1418.75,-126.25 1418.75,-159.75"/>
<text text-anchor="start" x="1299.75" y="-146.25" font-family="Helvetica,sans-Serif" font-size="10.00">Simple&#45;Utility/functional</text>
<text text-anchor="middle" x="1355.25" y="-133.5" font-family="Helvetica,sans-Serif" font-size="10.00">/transform.hpp</text>
</a>
</g>
</g>
<!-- Node1&#45;&gt;Node6 -->
<g id="edge57" class="edge">
<title>Node1&#45;&gt;Node6</title>
<path fill="none" stroke="#63b8ff" d="M1607.59,-330.58C1555.53,-310.8 1479.51,-276.59 1425.25,-229.25 1401.15,-208.23 1378.7,-178.35 1366.01,-160.12"/>
<polygon fill="#63b8ff" stroke="#63b8ff" points="1606.08,-334.12 1616.67,-334.34 1608.53,-327.57 1606.08,-334.12"/>
</g>
<!-- Node15 -->
<g id="node15" class="node">
<title>Node15</title>
<g id="a_node15"><a xlink:href="../../d6/dbe/nullables_2base_8hpp.html" target="_top" xlink:title=" ">
<polygon fill="white" stroke="#666666" points="712.5,-159.75 590,-159.75 590,-126.25 712.5,-126.25 712.5,-159.75"/>
<text text-anchor="start" x="598" y="-146.25" font-family="Helvetica,sans-Serif" font-size="10.00">Simple&#45;Utility/nullables</text>
<text text-anchor="middle" x="651.25" y="-133.5" font-family="Helvetica,sans-Serif" font-size="10.00">/base.hpp</text>
</a>
</g>
</g>
<!-- Node1&#45;&gt;Node15 -->
<g id="edge58" class="edge">
<title>Node1&#45;&gt;Node15</title>
<path fill="none" stroke="#63b8ff" d="M1591.82,-335.36C1399.66,-296.26 889.62,-192.5 712.71,-156.5"/>
<polygon fill="#63b8ff" stroke="#63b8ff" points="1590.88,-338.94 1601.37,-337.5 1592.27,-332.08 1590.88,-338.94"/>
</g>
<!-- Node20 -->
<g id="node20" class="node">
<title>Node20</title>
<g id="a_node20"><a xlink:href="../../df/d80/conjunction_8hpp.html" target="_top" xlink:title=" ">
<polygon fill="white" stroke="#666666" points="1796.5,-229.25 1656,-229.25 1656,-195.75 1796.5,-195.75 1796.5,-229.25"/>
<text text-anchor="start" x="1664" y="-215.75" font-family="Helvetica,sans-Serif" font-size="10.00">Simple&#45;Utility/functional</text>
<text text-anchor="middle" x="1726.25" y="-203" font-family="Helvetica,sans-Serif" font-size="10.00">/operators/conjunction.hpp</text>
</a>
</g>
</g>
<!-- Node1&#45;&gt;Node20 -->
<g id="edge38" class="edge">
<title>Node1&#45;&gt;Node20</title>
<path fill="none" stroke="#63b8ff" d="M1653.9,-324.36C1647.47,-306.77 1642.72,-283.54 1652.25,-265.25 1660.29,-249.82 1675.27,-238.04 1689.66,-229.65"/>
<polygon fill="#63b8ff" stroke="#63b8ff" points="1651.01,-325.54 1658.01,-333.49 1657.49,-322.9 1651.01,-325.54"/>
</g>
<!-- Node21 -->
<g id="node21" class="node">
<title>Node21</title>
<g id="a_node21"><a xlink:href="../../d4/d7c/disjunction_8hpp.html" target="_top" xlink:title=" ">
<polygon fill="white" stroke="#666666" points="1951.62,-229.25 1814.88,-229.25 1814.88,-195.75 1951.62,-195.75 1951.62,-229.25"/>
<text text-anchor="start" x="1822.88" y="-215.75" font-family="Helvetica,sans-Serif" font-size="10.00">Simple&#45;Utility/functional</text>
<text text-anchor="middle" x="1883.25" y="-203" font-family="Helvetica,sans-Serif" font-size="10.00">/operators/disjunction.hpp</text>
</a>
</g>
</g>
<!-- Node1&#45;&gt;Node21 -->
<g id="edge41" class="edge">
<title>Node1&#45;&gt;Node21</title>
<path fill="none" stroke="#63b8ff" d="M1665.33,-323.58C1666.17,-304.86 1670.43,-280.62 1685.25,-265.25 1694.51,-255.64 1761.11,-239.49 1814.55,-227.78"/>
<polygon fill="#63b8ff" stroke="#63b8ff" points="1661.82,-323.34 1665.18,-333.38 1668.82,-323.43 1661.82,-323.34"/>
</g>
<!-- Node22 -->
<g id="node22" class="node">
<title>Node22</title>
<g id="a_node22"><a xlink:href="../../dc/d0a/equal_8hpp.html" target="_top" xlink:title=" ">
<polygon fill="white" stroke="#666666" points="1821.75,-298.75 1694.75,-298.75 1694.75,-265.25 1821.75,-265.25 1821.75,-298.75"/>
<text text-anchor="start" x="1702.75" y="-285.25" font-family="Helvetica,sans-Serif" font-size="10.00">Simple&#45;Utility/functional</text>
<text text-anchor="middle" x="1758.25" y="-272.5" font-family="Helvetica,sans-Serif" font-size="10.00">/operators/equal.hpp</text>
</a>
</g>
</g>
<!-- Node1&#45;&gt;Node22 -->
<g id="edge44" class="edge">
<title>Node1&#45;&gt;Node22</title>
<path fill="none" stroke="#63b8ff" d="M1696.66,-328.19C1709.61,-318.69 1724.43,-307.81 1736.28,-299.12"/>
<polygon fill="#63b8ff" stroke="#63b8ff" points="1695.04,-325.77 1689.05,-334.5 1699.19,-331.41 1695.04,-325.77"/>
</g>
<!-- Node23 -->
<g id="node23" class="node">
<title>Node23</title>
<g id="a_node23"><a xlink:href="../../d7/dd0/equivalent_8hpp.html" target="_top" xlink:title=" ">
<polygon fill="white" stroke="#666666" points="1974.5,-298.75 1840,-298.75 1840,-265.25 1974.5,-265.25 1974.5,-298.75"/>
<text text-anchor="start" x="1848" y="-285.25" font-family="Helvetica,sans-Serif" font-size="10.00">Simple&#45;Utility/functional</text>
<text text-anchor="middle" x="1907.25" y="-272.5" font-family="Helvetica,sans-Serif" font-size="10.00">/operators/equivalent.hpp</text>
</a>
</g>
</g>
<!-- Node1&#45;&gt;Node23 -->
<g id="edge46" class="edge">
<title>Node1&#45;&gt;Node23</title>
<path fill="none" stroke="#63b8ff" d="M1734.49,-331.39C1770.81,-321.22 1814.99,-308.84 1849.58,-299.15"/>
<polygon fill="#63b8ff" stroke="#63b8ff" points="1733.66,-328.26 1724.98,-334.33 1735.55,-335.01 1733.66,-328.26"/>
</g>
<!-- Node24 -->
<g id="node24" class="node">
<title>Node24</title>
<g id="a_node24"><a xlink:href="../../d8/dea/negation_8hpp.html" target="_top" xlink:title=" ">
<polygon fill="white" stroke="#666666" points="2287.5,-229.25 2159,-229.25 2159,-195.75 2287.5,-195.75 2287.5,-229.25"/>
<text text-anchor="start" x="2167" y="-215.75" font-family="Helvetica,sans-Serif" font-size="10.00">Simple&#45;Utility/functional</text>
<text text-anchor="middle" x="2223.25" y="-203" font-family="Helvetica,sans-Serif" font-size="10.00">/operators/negation.hpp</text>
</a>
</g>
</g>
<!-- Node1&#45;&gt;Node24 -->
<g id="edge48" class="edge">
<title>Node1&#45;&gt;Node24</title>
<path fill="none" stroke="#63b8ff" d="M1740.78,-350.1C1861.29,-348.25 2092.49,-339.33 2162.25,-298.75 2189.47,-282.92 2207.75,-249.55 2216.75,-229.58"/>
<polygon fill="#63b8ff" stroke="#63b8ff" points="1740.77,-346.62 1730.82,-350.26 1740.87,-353.62 1740.77,-346.62"/>
</g>
<!-- Node25 -->
<g id="node25" class="node">
<title>Node25</title>
<g id="a_node25"><a xlink:href="../../d5/db7/pipe_8hpp.html" target="_top" xlink:title=" ">
<polygon fill="white" stroke="#666666" points="2119.75,-298.75 1992.75,-298.75 1992.75,-265.25 2119.75,-265.25 2119.75,-298.75"/>
<text text-anchor="start" x="2000.75" y="-285.25" font-family="Helvetica,sans-Serif" font-size="10.00">Simple&#45;Utility/functional</text>
<text text-anchor="middle" x="2056.25" y="-272.5" font-family="Helvetica,sans-Serif" font-size="10.00">/operators/pipe.hpp</text>
</a>
</g>
</g>
<!-- Node1&#45;&gt;Node25 -->
<g id="edge51" class="edge">
<title>Node1&#45;&gt;Node25</title>
<path fill="none" stroke="#63b8ff" d="M1741.02,-339.39C1805.38,-329.56 1900.64,-314.39 1983.25,-298.75 1986.31,-298.17 1989.43,-297.56 1992.59,-296.93"/>
<polygon fill="#63b8ff" stroke="#63b8ff" points="1740.53,-336.07 1731.17,-341.04 1741.58,-342.99 1740.53,-336.07"/>
</g>
<!-- Node3&#45;&gt;Node2 -->
<g id="edge3" class="edge">
<title>Node3&#45;&gt;Node2</title>
<path fill="none" stroke="#63b8ff" d="M1521.72,-187.8C1552.89,-156.68 1610.11,-100.84 1662.25,-56.75 1677.61,-43.76 1696.2,-29.98 1708.58,-21.06"/>
<polygon fill="#63b8ff" stroke="#63b8ff" points="1519.6,-184.97 1515.01,-194.52 1524.55,-189.92 1519.6,-184.97"/>
</g>
<!-- Node3&#45;&gt;Node4 -->
<g id="edge4" class="edge">
<title>Node3&#45;&gt;Node4</title>
<path fill="none" stroke="#63b8ff" d="M1572.9,-201.26C1669.38,-188.02 1835.73,-165.2 1926.55,-152.74"/>
<polygon fill="#63b8ff" stroke="#63b8ff" points="1572.5,-197.92 1563.07,-202.74 1573.45,-204.85 1572.5,-197.92"/>
</g>
<!-- Node3&#45;&gt;Node6 -->
<g id="edge8" class="edge">
<title>Node3&#45;&gt;Node6</title>
<path fill="none" stroke="#63b8ff" d="M1454.08,-190.65C1433.18,-180.79 1408.63,-169.2 1389.22,-160.04"/>
<polygon fill="#63b8ff" stroke="#63b8ff" points="1452.46,-194.23 1463,-195.33 1455.45,-187.9 1452.46,-194.23"/>
</g>
<!-- Node3&#45;&gt;Node15 -->
<g id="edge25" class="edge">
<title>Node3&#45;&gt;Node15</title>
<path fill="none" stroke="#63b8ff" d="M1424.07,-205.59C1259.23,-192.45 865.09,-161.04 712.78,-148.9"/>
<polygon fill="#63b8ff" stroke="#63b8ff" points="1423.34,-209.12 1433.59,-206.43 1423.9,-202.14 1423.34,-209.12"/>
</g>
<!-- Node4&#45;&gt;Node2 -->
<g id="edge5" class="edge">
<title>Node4&#45;&gt;Node2</title>
<path fill="none" stroke="#63b8ff" d="M1973.68,-116.91C1959.59,-97.58 1937.65,-71.71 1912.25,-56.75 1877.03,-36.02 1832.87,-24.75 1795.99,-18.63"/>
<polygon fill="#63b8ff" stroke="#63b8ff" points="1971.32,-118.64 1979.94,-124.8 1977.04,-114.61 1971.32,-118.64"/>
</g>
<!-- Node5 -->
<g id="node5" class="node">
<title>Node5</title>
<g id="a_node5"><a xlink:href="../../dd/d3f/compare_8hpp.html" target="_top" xlink:title=" ">
<polygon fill="white" stroke="#666666" points="1831.75,-90.25 1704.75,-90.25 1704.75,-56.75 1831.75,-56.75 1831.75,-90.25"/>
<text text-anchor="start" x="1712.75" y="-76.75" font-family="Helvetica,sans-Serif" font-size="10.00">Simple&#45;Utility/functional</text>
<text text-anchor="middle" x="1768.25" y="-64" font-family="Helvetica,sans-Serif" font-size="10.00">/compare.hpp</text>
</a>
</g>
</g>
<!-- Node4&#45;&gt;Node5 -->
<g id="edge6" class="edge">
<title>Node4&#45;&gt;Node5</title>
<path fill="none" stroke="#63b8ff" d="M1926.96,-122.76C1893.59,-112.61 1853.1,-100.3 1821.37,-90.65"/>
<polygon fill="#63b8ff" stroke="#63b8ff" points="1925.49,-126.27 1936.08,-125.83 1927.53,-119.57 1925.49,-126.27"/>
</g>
<!-- Node5&#45;&gt;Node2 -->
<g id="edge7" class="edge">
<title>Node5&#45;&gt;Node2</title>
<path fill="none" stroke="#63b8ff" d="M1749.7,-47.85C1742.67,-38.51 1735.07,-28.42 1729.66,-21.22"/>
<polygon fill="#63b8ff" stroke="#63b8ff" points="1747.35,-49.55 1756.16,-55.44 1752.95,-45.35 1747.35,-49.55"/>
</g>
<!-- Node6&#45;&gt;Node2 -->
<g id="edge9" class="edge">
<title>Node6&#45;&gt;Node2</title>
<path fill="none" stroke="#63b8ff" d="M1335.87,-117.13C1323.86,-98.52 1313.31,-73.5 1328.25,-56.75 1349.13,-33.33 1539.97,-20.26 1648.19,-14.67"/>
<polygon fill="#63b8ff" stroke="#63b8ff" points="1333.4,-118.71 1341.97,-124.94 1339.15,-114.73 1333.4,-118.71"/>
</g>
<!-- Node6&#45;&gt;Node5 -->
<g id="edge12" class="edge">
<title>Node6&#45;&gt;Node5</title>
<path fill="none" stroke="#63b8ff" d="M1429.65,-129.84C1508.1,-117.02 1630.4,-97.03 1704.55,-84.91"/>
<polygon fill="#63b8ff" stroke="#63b8ff" points="1429.18,-126.53 1419.88,-131.6 1430.31,-133.44 1429.18,-126.53"/>
</g>
<!-- Node7 -->
<g id="node7" class="node">
<title>Node7</title>
<g id="a_node7"><a xlink:href="../../d3/d23/arithmetic_8hpp.html" target="_top" xlink:title=" ">
<polygon fill="white" stroke="#666666" points="1464.75,-90.25 1337.75,-90.25 1337.75,-56.75 1464.75,-56.75 1464.75,-90.25"/>
<text text-anchor="start" x="1345.75" y="-76.75" font-family="Helvetica,sans-Serif" font-size="10.00">Simple&#45;Utility/functional</text>
<text text-anchor="middle" x="1401.25" y="-64" font-family="Helvetica,sans-Serif" font-size="10.00">/arithmetic.hpp</text>
</a>
</g>
</g>
<!-- Node6&#45;&gt;Node7 -->
<g id="edge10" class="edge">
<title>Node6&#45;&gt;Node7</title>
<path fill="none" stroke="#63b8ff" d="M1372.2,-117.13C1378.29,-108.19 1385,-98.35 1390.43,-90.38"/>
<polygon fill="#63b8ff" stroke="#63b8ff" points="1368.89,-114.77 1366.15,-125 1374.68,-118.71 1368.89,-114.77"/>
</g>
<!-- Node8 -->
<g id="node8" class="node">
<title>Node8</title>
<g id="a_node8"><a xlink:href="../../d9/d5f/functional_2tuple_8hpp.html" target="_top" xlink:title=" ">
<polygon fill="white" stroke="#666666" points="1609.75,-90.25 1482.75,-90.25 1482.75,-56.75 1609.75,-56.75 1609.75,-90.25"/>
<text text-anchor="start" x="1490.75" y="-76.75" font-family="Helvetica,sans-Serif" font-size="10.00">Simple&#45;Utility/functional</text>
<text text-anchor="middle" x="1546.25" y="-64" font-family="Helvetica,sans-Serif" font-size="10.00">/tuple.hpp</text>
</a>
</g>
</g>
<!-- Node6&#45;&gt;Node8 -->
<g id="edge13" class="edge">
<title>Node6&#45;&gt;Node8</title>
<path fill="none" stroke="#63b8ff" d="M1411.19,-122.23C1439.61,-112.19 1473.72,-100.13 1500.54,-90.65"/>
<polygon fill="#63b8ff" stroke="#63b8ff" points="1410.26,-119.2 1402,-125.83 1412.59,-125.8 1410.26,-119.2"/>
</g>
<!-- Node9 -->
<g id="node9" class="node">
<title>Node9</title>
<g id="a_node9"><a xlink:href="../../df/d4e/functional_2utility_8hpp.html" target="_top" xlink:title=" ">
<polygon fill="white" stroke="#666666" points="1280.75,-90.25 1153.75,-90.25 1153.75,-56.75 1280.75,-56.75 1280.75,-90.25"/>
<text text-anchor="start" x="1161.75" y="-76.75" font-family="Helvetica,sans-Serif" font-size="10.00">Simple&#45;Utility/functional</text>
<text text-anchor="middle" x="1217.25" y="-64" font-family="Helvetica,sans-Serif" font-size="10.00">/utility.hpp</text>
</a>
</g>
</g>
<!-- Node6&#45;&gt;Node9 -->
<g id="edge15" class="edge">
<title>Node6&#45;&gt;Node9</title>
<path fill="none" stroke="#63b8ff" d="M1312.34,-121.01C1292.24,-111.18 1268.68,-99.66 1250.03,-90.54"/>
<polygon fill="#63b8ff" stroke="#63b8ff" points="1310.67,-124.58 1321.2,-125.83 1313.75,-118.29 1310.67,-124.58"/>
</g>
<!-- Node10 -->
<g id="node10" class="node">
<title>Node10</title>
<g id="a_node10"><a xlink:href="../../d4/dc9/and__then_8hpp.html" target="_top" xlink:title=" ">
<polygon fill="white" stroke="#666666" points="712.5,-90.25 590,-90.25 590,-56.75 712.5,-56.75 712.5,-90.25"/>
<text text-anchor="start" x="598" y="-76.75" font-family="Helvetica,sans-Serif" font-size="10.00">Simple&#45;Utility/nullables</text>
<text text-anchor="middle" x="651.25" y="-64" font-family="Helvetica,sans-Serif" font-size="10.00">/and_then.hpp</text>
</a>
</g>
</g>
<!-- Node6&#45;&gt;Node10 -->
<g id="edge17" class="edge">
<title>Node6&#45;&gt;Node10</title>
<path fill="none" stroke="#63b8ff" d="M1280.82,-139.21C1162.11,-134.03 922.86,-120.56 722.25,-90.25 719.13,-89.78 715.94,-89.25 712.73,-88.68"/>
<polygon fill="#63b8ff" stroke="#63b8ff" points="1280.44,-142.74 1290.58,-139.68 1280.74,-135.75 1280.44,-142.74"/>
</g>
<!-- Node12 -->
<g id="node12" class="node">
<title>Node12</title>
<g id="a_node12"><a xlink:href="../../d7/d5f/fwd__value_8hpp.html" target="_top" xlink:title=" ">
<polygon fill="white" stroke="#666666" points="853.5,-90.25 731,-90.25 731,-56.75 853.5,-56.75 853.5,-90.25"/>
<text text-anchor="start" x="739" y="-76.75" font-family="Helvetica,sans-Serif" font-size="10.00">Simple&#45;Utility/nullables</text>
<text text-anchor="middle" x="792.25" y="-64" font-family="Helvetica,sans-Serif" font-size="10.00">/fwd_value.hpp</text>
</a>
</g>
</g>
<!-- Node6&#45;&gt;Node12 -->
<g id="edge19" class="edge">
<title>Node6&#45;&gt;Node12</title>
<path fill="none" stroke="#63b8ff" d="M1280.42,-136.79C1183.67,-129.44 1010.17,-114.19 863.25,-90.25 860.13,-89.74 856.95,-89.18 853.74,-88.59"/>
<polygon fill="#63b8ff" stroke="#63b8ff" points="1280.02,-140.34 1290.25,-137.6 1280.54,-133.36 1280.02,-140.34"/>
</g>
<!-- Node13 -->
<g id="node13" class="node">
<title>Node13</title>
<g id="a_node13"><a xlink:href="../../d2/d0e/or__else_8hpp.html" target="_top" xlink:title=" ">
<polygon fill="white" stroke="#666666" points="994.5,-90.25 872,-90.25 872,-56.75 994.5,-56.75 994.5,-90.25"/>
<text text-anchor="start" x="880" y="-76.75" font-family="Helvetica,sans-Serif" font-size="10.00">Simple&#45;Utility/nullables</text>
<text text-anchor="middle" x="933.25" y="-64" font-family="Helvetica,sans-Serif" font-size="10.00">/or_else.hpp</text>
</a>
</g>
</g>
<!-- Node6&#45;&gt;Node13 -->
<g id="edge21" class="edge">
<title>Node6&#45;&gt;Node13</title>
<path fill="none" stroke="#63b8ff" d="M1280.64,-132.58C1209.41,-123.22 1099.17,-107.75 1004.25,-90.25 1001.15,-89.68 997.97,-89.07 994.77,-88.43"/>
<polygon fill="#63b8ff" stroke="#63b8ff" points="1279.92,-136.15 1290.29,-133.98 1280.83,-129.21 1279.92,-136.15"/>
</g>
<!-- Node14 -->
<g id="node14" class="node">
<title>Node14</title>
<g id="a_node14"><a xlink:href="../../d0/d48/value__or_8hpp.html" target="_top" xlink:title=" ">
<polygon fill="white" stroke="#666666" points="1135.5,-90.25 1013,-90.25 1013,-56.75 1135.5,-56.75 1135.5,-90.25"/>
<text text-anchor="start" x="1021" y="-76.75" font-family="Helvetica,sans-Serif" font-size="10.00">Simple&#45;Utility/nullables</text>
<text text-anchor="middle" x="1074.25" y="-64" font-family="Helvetica,sans-Serif" font-size="10.00">/value_or.hpp</text>
</a>
</g>
</g>
<!-- Node6&#45;&gt;Node14 -->
<g id="edge23" class="edge">
<title>Node6&#45;&gt;Node14</title>
<path fill="none" stroke="#63b8ff" d="M1280.85,-124.13C1235.61,-113.26 1178.52,-99.55 1135.83,-89.29"/>
<polygon fill="#63b8ff" stroke="#63b8ff" points="1279.95,-127.75 1290.49,-126.68 1281.58,-120.94 1279.95,-127.75"/>
</g>
<!-- Node7&#45;&gt;Node2 -->
<g id="edge11" class="edge">
<title>Node7&#45;&gt;Node2</title>
<path fill="none" stroke="#63b8ff" d="M1475.6,-56.31C1546,-42.32 1617.11,-29.59 1665.28,-21.17"/>
<polygon fill="#63b8ff" stroke="#63b8ff" points="1475.34,-52.99 1466.22,-58.39 1476.71,-59.86 1475.34,-52.99"/>
</g>
<!-- Node8&#45;&gt;Node2 -->
<g id="edge14" class="edge">
<title>Node8&#45;&gt;Node2</title>
<path fill="none" stroke="#63b8ff" d="M1603.03,-52.78C1633.46,-42.21 1669.61,-29.66 1694.06,-21.17"/>
<polygon fill="#63b8ff" stroke="#63b8ff" points="1602.25,-49.69 1593.95,-56.28 1604.55,-56.31 1602.25,-49.69"/>
</g>
<!-- Node9&#45;&gt;Node2 -->
<g id="edge16" class="edge">
<title>Node9&#45;&gt;Node2</title>
<path fill="none" stroke="#63b8ff" d="M1291.74,-57.3C1292.92,-57.11 1294.09,-56.93 1295.25,-56.75 1418.49,-37.8 1562.95,-24.25 1648.31,-17.12"/>
<polygon fill="#63b8ff" stroke="#63b8ff" points="1291.29,-54 1282.01,-59.12 1292.46,-60.9 1291.29,-54"/>
</g>
<!-- Node11 -->
<g id="node11" class="node">
<title>Node11</title>
<g id="a_node11"><a xlink:href="../../d3/ddc/nullables_8hpp.html" target="_top" xlink:title=" ">
<polygon fill="white" stroke="#666666" points="613.62,-20.75 470.88,-20.75 470.88,0 613.62,0 613.62,-20.75"/>
<text text-anchor="middle" x="542.25" y="-7.25" font-family="Helvetica,sans-Serif" font-size="10.00">Simple&#45;Utility/nullables.hpp</text>
</a>
</g>
</g>
<!-- Node10&#45;&gt;Node11 -->
<g id="edge18" class="edge">
<title>Node10&#45;&gt;Node11</title>
<path fill="none" stroke="#63b8ff" d="M613.11,-51.11C594.93,-40.91 574.06,-29.21 559.71,-21.17"/>
<polygon fill="#63b8ff" stroke="#63b8ff" points="610.89,-54.44 621.33,-56.28 614.32,-48.34 610.89,-54.44"/>
</g>
<!-- Node12&#45;&gt;Node11 -->
<g id="edge20" class="edge">
<title>Node12&#45;&gt;Node11</title>
<path fill="none" stroke="#63b8ff" d="M720.23,-54.89C675.42,-43.93 619.46,-30.25 582.38,-21.19"/>
<polygon fill="#63b8ff" stroke="#63b8ff" points="719.23,-58.49 729.77,-57.47 720.89,-51.69 719.23,-58.49"/>
</g>
<!-- Node13&#45;&gt;Node11 -->
<g id="edge22" class="edge">
<title>Node13&#45;&gt;Node11</title>
<path fill="none" stroke="#63b8ff" d="M860.94,-56.6C769.92,-40.34 676.54,-27.76 614,-19.93"/>
<polygon fill="#63b8ff" stroke="#63b8ff" points="860.27,-60.22 870.74,-58.55 861.52,-53.33 860.27,-60.22"/>
</g>
<!-- Node14&#45;&gt;Node11 -->
<g id="edge24" class="edge">
<title>Node14&#45;&gt;Node11</title>
<path fill="none" stroke="#63b8ff" d="M1002.02,-56.69C858.61,-34.3 702.82,-21.78 614.06,-15.76"/>
<polygon fill="#63b8ff" stroke="#63b8ff" points="1001.34,-60.28 1011.76,-58.39 1002.43,-53.37 1001.34,-60.28"/>
</g>
<!-- Node15&#45;&gt;Node10 -->
<g id="edge29" class="edge">
<title>Node15&#45;&gt;Node10</title>
<path fill="none" stroke="#63b8ff" d="M651.25,-115.14C651.25,-106.75 651.25,-97.76 651.25,-90.38"/>
<polygon fill="#63b8ff" stroke="#63b8ff" points="647.75,-115 651.25,-125 654.75,-115 647.75,-115"/>
</g>
<!-- Node15&#45;&gt;Node11 -->
<g id="edge26" class="edge">
<title>Node15&#45;&gt;Node11</title>
<path fill="none" stroke="#63b8ff" d="M578.99,-132.68C528.37,-124.49 467.06,-110.67 451.25,-90.25 442.14,-78.48 443.42,-69.41 451.25,-56.75 462.3,-38.89 482.74,-27.82 501.46,-21.1"/>
<polygon fill="#63b8ff" stroke="#63b8ff" points="578.18,-136.25 588.61,-134.34 579.27,-129.34 578.18,-136.25"/>
</g>
<!-- Node15&#45;&gt;Node12 -->
<g id="edge30" class="edge">
<title>Node15&#45;&gt;Node12</title>
<path fill="none" stroke="#63b8ff" d="M694.81,-121.15C715.41,-111.29 739.62,-99.7 758.75,-90.54"/>
<polygon fill="#63b8ff" stroke="#63b8ff" points="693.53,-118.36 686.02,-125.83 696.55,-124.67 693.53,-118.36"/>
</g>
<!-- Node15&#45;&gt;Node13 -->
<g id="edge31" class="edge">
<title>Node15&#45;&gt;Node13</title>
<path fill="none" stroke="#63b8ff" d="M723.27,-124.76C769.22,-113.76 828.12,-99.66 871.84,-89.2"/>
<polygon fill="#63b8ff" stroke="#63b8ff" points="722.7,-121.54 713.79,-127.27 724.33,-128.35 722.7,-121.54"/>
</g>
<!-- Node15&#45;&gt;Node14 -->
<g id="edge36" class="edge">
<title>Node15&#45;&gt;Node14</title>
<path fill="none" stroke="#63b8ff" d="M723.49,-132.93C794.82,-123.62 906.9,-107.99 1003.25,-90.25 1006.35,-89.68 1009.53,-89.07 1012.73,-88.43"/>
<polygon fill="#63b8ff" stroke="#63b8ff" points="723.3,-129.56 713.83,-134.32 724.2,-136.5 723.3,-129.56"/>
</g>
<!-- Node16 -->
<g id="node16" class="node">
<title>Node16</title>
<g id="a_node16"><a xlink:href="../../d6/dca/adapter_8hpp.html" target="_top" xlink:title=" ">
<polygon fill="white" stroke="#666666" points="122.5,-90.25 0,-90.25 0,-56.75 122.5,-56.75 122.5,-90.25"/>
<text text-anchor="start" x="8" y="-76.75" font-family="Helvetica,sans-Serif" font-size="10.00">Simple&#45;Utility/nullables</text>
<text text-anchor="middle" x="61.25" y="-64" font-family="Helvetica,sans-Serif" font-size="10.00">/adapter.hpp</text>
</a>
</g>
</g>
<!-- Node15&#45;&gt;Node16 -->
<g id="edge27" class="edge">
<title>Node15&#45;&gt;Node16</title>
<path fill="none" stroke="#63b8ff" d="M578.88,-137.51C478.26,-130.65 290.61,-115.62 132.25,-90.25 129.13,-89.75 125.95,-89.2 122.74,-88.61"/>
<polygon fill="#63b8ff" stroke="#63b8ff" points="578.61,-141.07 588.82,-138.25 579.08,-134.09 578.61,-141.07"/>
</g>
<!-- Node17 -->
<g id="node17" class="node">
<title>Node17</title>
<g id="a_node17"><a xlink:href="../../d9/d20/std__optional_8hpp.html" target="_top" xlink:title=" ">
<polygon fill="white" stroke="#666666" points="263.5,-90.25 141,-90.25 141,-56.75 263.5,-56.75 263.5,-90.25"/>
<text text-anchor="start" x="149" y="-76.75" font-family="Helvetica,sans-Serif" font-size="10.00">Simple&#45;Utility/nullables</text>
<text text-anchor="middle" x="202.25" y="-64" font-family="Helvetica,sans-Serif" font-size="10.00">/std_optional.hpp</text>
</a>
</g>
</g>
<!-- Node15&#45;&gt;Node17 -->
<g id="edge32" class="edge">
<title>Node15&#45;&gt;Node17</title>
<path fill="none" stroke="#63b8ff" d="M578.89,-133.89C502.6,-124.91 379.05,-109.19 273.25,-90.25 270.14,-89.69 266.97,-89.1 263.76,-88.47"/>
<polygon fill="#63b8ff" stroke="#63b8ff" points="578.45,-137.48 588.79,-135.16 579.27,-130.52 578.45,-137.48"/>
</g>
<!-- Node18 -->
<g id="node18" class="node">
<title>Node18</title>
<g id="a_node18"><a xlink:href="../../d8/d9a/std__pointers_8hpp.html" target="_top" xlink:title=" ">
<polygon fill="white" stroke="#666666" points="404.5,-90.25 282,-90.25 282,-56.75 404.5,-56.75 404.5,-90.25"/>
<text text-anchor="start" x="290" y="-76.75" font-family="Helvetica,sans-Serif" font-size="10.00">Simple&#45;Utility/nullables</text>
<text text-anchor="middle" x="343.25" y="-64" font-family="Helvetica,sans-Serif" font-size="10.00">/std_pointers.hpp</text>
</a>
</g>
</g>
<!-- Node15&#45;&gt;Node18 -->
<g id="edge34" class="edge">
<title>Node15&#45;&gt;Node18</title>
<path fill="none" stroke="#63b8ff" d="M579.01,-126.17C526.16,-114.59 455.21,-99.04 404.99,-88.03"/>
<polygon fill="#63b8ff" stroke="#63b8ff" points="578.14,-129.78 588.66,-128.5 579.64,-122.94 578.14,-129.78"/>
</g>
<!-- Node19 -->
<g id="node19" class="node">
<title>Node19</title>
<g id="a_node19"><a xlink:href="../../d0/d0f/unique__handle_8hpp.html" target="_top" xlink:title=" ">
<polygon fill="white" stroke="#666666" points="571.88,-90.25 460.62,-90.25 460.62,-56.75 571.88,-56.75 571.88,-90.25"/>
<text text-anchor="start" x="468.62" y="-76.75" font-family="Helvetica,sans-Serif" font-size="10.00">Simple&#45;Utility/unique</text>
<text text-anchor="middle" x="516.25" y="-64" font-family="Helvetica,sans-Serif" font-size="10.00">_handle.hpp</text>
</a>
</g>
</g>
<!-- Node15&#45;&gt;Node19 -->
<g id="edge37" class="edge">
<title>Node15&#45;&gt;Node19</title>
<path fill="none" stroke="#63b8ff" d="M609.28,-121.01C589.61,-111.18 566.56,-99.66 548.32,-90.54"/>
<polygon fill="#63b8ff" stroke="#63b8ff" points="607.4,-124.49 617.91,-125.83 610.54,-118.23 607.4,-124.49"/>
</g>
<!-- Node16&#45;&gt;Node11 -->
<g id="edge28" class="edge">
<title>Node16&#45;&gt;Node11</title>
<path fill="none" stroke="#63b8ff" d="M133.59,-56.65C257.85,-36.47 390.68,-23.69 470.45,-16.95"/>
<polygon fill="#63b8ff" stroke="#63b8ff" points="133.04,-53.36 123.74,-58.43 134.18,-60.26 133.04,-53.36"/>
</g>
<!-- Node17&#45;&gt;Node11 -->
<g id="edge33" class="edge">
<title>Node17&#45;&gt;Node11</title>
<path fill="none" stroke="#63b8ff" d="M274.48,-56.57C350.27,-41.94 426.07,-29.47 478.22,-21.23"/>
<polygon fill="#63b8ff" stroke="#63b8ff" points="273.93,-53.3 264.78,-58.65 275.27,-60.18 273.93,-53.3"/>
</g>
<!-- Node18&#45;&gt;Node11 -->
<g id="edge35" class="edge">
<title>Node18&#45;&gt;Node11</title>
<path fill="none" stroke="#63b8ff" d="M406.55,-53.06C441.14,-42.43 482.49,-29.73 510.38,-21.17"/>
<polygon fill="#63b8ff" stroke="#63b8ff" points="405.59,-50 397.06,-56.28 407.64,-56.69 405.59,-50"/>
</g>
<!-- Node20&#45;&gt;Node2 -->
<g id="edge39" class="edge">
<title>Node20&#45;&gt;Node2</title>
<path fill="none" stroke="#63b8ff" d="M1763.16,-189.53C1808.23,-159.85 1874.56,-105.1 1841.25,-56.75 1828.77,-38.63 1808.01,-27.74 1787.3,-21.2"/>
<polygon fill="#63b8ff" stroke="#63b8ff" points="1761.71,-186.94 1755.19,-195.29 1765.5,-192.83 1761.71,-186.94"/>
</g>
<!-- Node20&#45;&gt;Node4 -->
<g id="edge40" class="edge">
<title>Node20&#45;&gt;Node4</title>
<path fill="none" stroke="#63b8ff" d="M1799.97,-192.65C1839.95,-182.43 1888.86,-169.92 1927.07,-160.15"/>
<polygon fill="#63b8ff" stroke="#63b8ff" points="1799.31,-189.46 1790.48,-195.33 1801.04,-196.25 1799.31,-189.46"/>
</g>
<!-- Node21&#45;&gt;Node2 -->
<g id="edge42" class="edge">
<title>Node21&#45;&gt;Node2</title>
<path fill="none" stroke="#63b8ff" d="M1887.13,-184.37C1890.39,-150.48 1890.47,-92.61 1860.25,-56.75 1844.16,-37.66 1819.87,-26.55 1796.14,-20.1"/>
<polygon fill="#63b8ff" stroke="#63b8ff" points="1883.55,-183.95 1885.89,-194.28 1890.5,-184.74 1883.55,-183.95"/>
</g>
<!-- Node21&#45;&gt;Node4 -->
<g id="edge43" class="edge">
<title>Node21&#45;&gt;Node4</title>
<path fill="none" stroke="#63b8ff" d="M1918.02,-189.57C1933.27,-179.95 1950.84,-168.86 1964.83,-160.04"/>
<polygon fill="#63b8ff" stroke="#63b8ff" points="1916.47,-187.04 1909.88,-195.33 1920.2,-192.96 1916.47,-187.04"/>
</g>
<!-- Node22&#45;&gt;Node4 -->
<g id="edge45" class="edge">
<title>Node22&#45;&gt;Node4</title>
<path fill="none" stroke="#63b8ff" d="M1832.65,-263.67C1888.18,-250.46 1955.3,-233.79 1960.25,-229.25 1980.03,-211.13 1986.77,-179.18 1989.07,-159.96"/>
<polygon fill="#63b8ff" stroke="#63b8ff" points="1832,-260.47 1823.07,-266.18 1833.61,-267.28 1832,-260.47"/>
</g>
<!-- Node23&#45;&gt;Node4 -->
<g id="edge47" class="edge">
<title>Node23&#45;&gt;Node4</title>
<path fill="none" stroke="#63b8ff" d="M1961.57,-259.7C1974.17,-252.06 1986,-242.07 1993.25,-229.25 2005.42,-207.72 2000.44,-178 1995.5,-159.94"/>
<polygon fill="#63b8ff" stroke="#63b8ff" points="1960.35,-256.93 1953.32,-264.85 1963.76,-263.04 1960.35,-256.93"/>
</g>
<!-- Node24&#45;&gt;Node2 -->
<g id="edge49" class="edge">
<title>Node24&#45;&gt;Node2</title>
<path fill="none" stroke="#63b8ff" d="M2212.04,-185.7C2195.05,-150.02 2159.16,-86.64 2107.25,-56.75 2055.85,-27.15 1892.74,-16.8 1796.1,-13.23"/>
<polygon fill="#63b8ff" stroke="#63b8ff" points="2209.15,-186.78 2216.52,-194.39 2215.51,-183.85 2209.15,-186.78"/>
</g>
<!-- Node24&#45;&gt;Node4 -->
<g id="edge50" class="edge">
<title>Node24&#45;&gt;Node4</title>
<path fill="none" stroke="#63b8ff" d="M2157.28,-192.39C2122.16,-182.22 2079.45,-169.84 2046.01,-160.15"/>
<polygon fill="#63b8ff" stroke="#63b8ff" points="2155.86,-195.91 2166.44,-195.33 2157.81,-189.19 2155.86,-195.91"/>
</g>
<!-- Node25&#45;&gt;Node2 -->
<g id="edge52" class="edge">
<title>Node25&#45;&gt;Node2</title>
<path fill="none" stroke="#63b8ff" d="M2065.5,-254.7C2075.21,-222.2 2086.15,-166.32 2063.25,-126.25 2033.05,-73.41 2002.07,-78.56 1945.25,-56.75 1897.3,-38.34 1840.54,-26.93 1796.29,-20.15"/>
<polygon fill="#63b8ff" stroke="#63b8ff" points="2061.99,-253.17 2062.3,-263.76 2068.66,-255.29 2061.99,-253.17"/>
</g>
<!-- Node25&#45;&gt;Node4 -->
<g id="edge54" class="edge">
<title>Node25&#45;&gt;Node4</title>
<path fill="none" stroke="#63b8ff" d="M2051.22,-254.4C2047.28,-237.06 2040.85,-214.29 2031.25,-195.75 2024.51,-182.72 2014.26,-169.78 2005.69,-160.1"/>
<polygon fill="#63b8ff" stroke="#63b8ff" points="2047.95,-254.86 2053.45,-263.91 2054.8,-253.4 2047.95,-254.86"/>
</g>
<!-- Node25&#45;&gt;Node6 -->
<g id="edge55" class="edge">
<title>Node25&#45;&gt;Node6</title>
<path fill="none" stroke="#63b8ff" d="M1982.17,-265.22C1833.01,-242.53 1789.18,-266.79 1647.25,-229.25 1611.17,-219.71 1605.64,-207.61 1570.25,-195.75 1520.38,-179.04 1462.31,-165.39 1419.1,-156.32"/>
<polygon fill="#63b8ff" stroke="#63b8ff" points="1981.2,-268.77 1991.62,-266.86 1982.29,-261.85 1981.2,-268.77"/>
</g>
<!-- Node25&#45;&gt;Node24 -->
<g id="edge53" class="edge">
<title>Node25&#45;&gt;Node24</title>
<path fill="none" stroke="#63b8ff" d="M2106.14,-260.83C2130.8,-250.87 2160.14,-239.01 2183.29,-229.65"/>
<polygon fill="#63b8ff" stroke="#63b8ff" points="2105.21,-257.84 2097.25,-264.83 2107.83,-264.33 2105.21,-257.84"/>
</g>
</g>
</svg>
