<?xml version="1.0" encoding="UTF-8" standalone="no"?>
<!DOCTYPE svg PUBLIC "-//W3C//DTD SVG 1.1//EN"
 "http://www.w3.org/Graphics/SVG/1.1/DTD/svg11.dtd">
<!-- Generated by graphviz version 7.0.5 (20221223.1930)
 -->
<!-- Title: Simple&#45;Utility/functional/base.hpp Pages: 1 -->
<!--zoomable 357 -->
<svg id="main" version="1.1" xmlns="http://www.w3.org/2000/svg" xmlns:xlink="http://www.w3.org/1999/xlink" xml:space="preserve" onload="init(evt)">
<style type="text/css"><![CDATA[
.edge:hover path { stroke: red; }
.edge:hover polygon { stroke: red; fill: red; }
]]></style>
<script type="text/javascript"><![CDATA[
var edges = document.getElementsByTagName('g');
if (edges && edges.length) {
  for (var i=0;i<edges.length;i++) {
    if (edges[i].id.substr(0,4)=='edge') {
      edges[i].setAttribute('class','edge');
    }
  }
}
]]></script>
        <defs>
                <circle id="rim" cx="0" cy="0" r="7"/>
                <circle id="rim2" cx="0" cy="0" r="3.5"/>
                <g id="zoomPlus">
                        <use xlink:href="#rim" fill="#404040">
                                <set attributeName="fill" to="#808080" begin="zoomplus.mouseover" end="zoomplus.mouseout"/>
                        </use>
                        <path d="M-4,0h8M0,-4v8" fill="none" stroke="white" stroke-width="1.5" pointer-events="none"/>
                </g>
                <g id="zoomMin">
                        <use xlink:href="#rim" fill="#404040">
                                <set attributeName="fill" to="#808080" begin="zoomminus.mouseover" end="zoomminus.mouseout"/>
                        </use>
                        <path d="M-4,0h8" fill="none" stroke="white" stroke-width="1.5" pointer-events="none"/>
                </g>
                <g id="dirArrow">
                        <path fill="none" stroke="white" stroke-width="1.5" d="M0,-3.0v7 M-2.5,-0.5L0,-3.0L2.5,-0.5"/>
                </g>
               <g id="resetDef">
                       <use xlink:href="#rim2" fill="#404040">
                               <set attributeName="fill" to="#808080" begin="reset.mouseover" end="reset.mouseout"/>
                       </use>
               </g>
        </defs>

<script type="text/javascript">
var viewWidth = 2301;
var viewHeight = 357;
var sectionId = 'dynsection-1';
</script>
<script xlink:href="../../svgpan.js"/>
<svg id="graph" class="graph">
<g id="viewport">
<title>Simple&#45;Utility/functional/base.hpp</title>
<!-- Node1 -->
<g id="node1" class="node">
<title>Node1</title>
<g id="a_node1"><a xlink:title=" ">
<polygon fill="#999999" stroke="#666666" points="1732.5,-349 1604.5,-349 1604.5,-319 1732.5,-319 1732.5,-349"/>
<text text-anchor="start" x="1612.5" y="-337" font-family="Helvetica,sans-Serif" font-size="10.00">Simple&#45;Utility/functional</text>
<text text-anchor="middle" x="1668.5" y="-326" font-family="Helvetica,sans-Serif" font-size="10.00">/base.hpp</text>
</a>
</g>
</g>
<!-- Node2 -->
<g id="node2" class="node">
<title>Node2</title>
<g id="a_node2"><a xlink:href="../../d2/db4/functional_8hpp.html" target="_top" xlink:title=" ">
<polygon fill="white" stroke="#666666" points="1800.5,-19 1652.5,-19 1652.5,0 1800.5,0 1800.5,-19"/>
<text text-anchor="middle" x="1726.5" y="-7" font-family="Helvetica,sans-Serif" font-size="10.00">Simple&#45;Utility/functional.hpp</text>
</a>
</g>
</g>
<!-- Node1&#45;&gt;Node2 -->
<g id="edge1" class="edge">
<title>Node1&#45;&gt;Node2</title>
<path fill="none" stroke="#63b8ff" d="M1654.77,-308.69C1650.99,-300.75 1647.41,-291.73 1645.5,-283 1641.55,-264.98 1646.94,-198.91 1649.5,-187 1662.66,-125.66 1672,-111.39 1699.5,-55 1705.76,-42.17 1714.58,-28.22 1720.41,-19.43"/>
<polygon fill="#63b8ff" stroke="#63b8ff" points="1651.54,-310.06 1659.22,-317.36 1657.77,-306.87 1651.54,-310.06"/>
</g>
<!-- Node3 -->
<g id="node3" class="node">
<title>Node3</title>
<g id="a_node3"><a xlink:href="../../d9/d76/bind_8hpp.html" target="_top" xlink:title=" ">
<polygon fill="white" stroke="#666666" points="1564.5,-217 1436.5,-217 1436.5,-187 1564.5,-187 1564.5,-217"/>
<text text-anchor="start" x="1444.5" y="-205" font-family="Helvetica,sans-Serif" font-size="10.00">Simple&#45;Utility/functional</text>
<text text-anchor="middle" x="1500.5" y="-194" font-family="Helvetica,sans-Serif" font-size="10.00">/operators/bind.hpp</text>
</a>
</g>
</g>
<!-- Node1&#45;&gt;Node3 -->
<g id="edge2" class="edge">
<title>Node1&#45;&gt;Node3</title>
<path fill="none" stroke="#63b8ff" d="M1627.44,-313.43C1611.51,-305.02 1593.53,-294.49 1578.5,-283 1552.3,-262.98 1526.5,-234.27 1512.12,-217.24"/>
<polygon fill="#63b8ff" stroke="#63b8ff" points="1625.71,-316.48 1636.21,-317.94 1628.92,-310.25 1625.71,-316.48"/>
</g>
<!-- Node4 -->
<g id="node4" class="node">
<title>Node4</title>
<g id="a_node4"><a xlink:href="../../d2/d7e/predicate_8hpp.html" target="_top" xlink:title=" ">
<polygon fill="white" stroke="#666666" points="2058.5,-151 1930.5,-151 1930.5,-121 2058.5,-121 2058.5,-151"/>
<text text-anchor="start" x="1938.5" y="-139" font-family="Helvetica,sans-Serif" font-size="10.00">Simple&#45;Utility/functional</text>
<text text-anchor="middle" x="1994.5" y="-128" font-family="Helvetica,sans-Serif" font-size="10.00">/predicate.hpp</text>
</a>
</g>
</g>
<!-- Node1&#45;&gt;Node4 -->
<g id="edge56" class="edge">
<title>Node1&#45;&gt;Node4</title>
<path fill="none" stroke="#63b8ff" d="M1744.33,-330.29C1869.47,-325.03 2108.01,-311.37 2133.5,-283 2177.82,-233.66 2080.36,-177.37 2026.74,-151.45"/>
<polygon fill="#63b8ff" stroke="#63b8ff" points="1744.31,-326.79 1734.46,-330.7 1744.6,-333.78 1744.31,-326.79"/>
</g>
<!-- Node6 -->
<g id="node6" class="node">
<title>Node6</title>
<g id="a_node6"><a xlink:href="../../d6/deb/transform_8hpp.html" target="_top" xlink:title=" ">
<polygon fill="white" stroke="#666666" points="1422.5,-151 1294.5,-151 1294.5,-121 1422.5,-121 1422.5,-151"/>
<text text-anchor="start" x="1302.5" y="-139" font-family="Helvetica,sans-Serif" font-size="10.00">Simple&#45;Utility/functional</text>
<text text-anchor="middle" x="1358.5" y="-128" font-family="Helvetica,sans-Serif" font-size="10.00">/transform.hpp</text>
</a>
</g>
</g>
<!-- Node1&#45;&gt;Node6 -->
<g id="edge57" class="edge">
<title>Node1&#45;&gt;Node6</title>
<path fill="none" stroke="#63b8ff" d="M1612.39,-314.8C1560.55,-296.06 1483.33,-263.09 1427.5,-217 1403.45,-197.15 1380.92,-168.39 1368.49,-151.3"/>
<polygon fill="#63b8ff" stroke="#63b8ff" points="1611.03,-318.04 1621.63,-318.08 1613.37,-311.44 1611.03,-318.04"/>
</g>
<!-- Node15 -->
<g id="node15" class="node">
<title>Node15</title>
<g id="a_node15"><a xlink:href="../../d6/dbe/nullables_2base_8hpp.html" target="_top" xlink:title=" ">
<polygon fill="white" stroke="#666666" points="715,-151 592,-151 592,-121 715,-121 715,-151"/>
<text text-anchor="start" x="600" y="-139" font-family="Helvetica,sans-Serif" font-size="10.00">Simple&#45;Utility/nullables</text>
<text text-anchor="middle" x="653.5" y="-128" font-family="Helvetica,sans-Serif" font-size="10.00">/base.hpp</text>
</a>
</g>
</g>
<!-- Node1&#45;&gt;Node15 -->
<g id="edge58" class="edge">
<title>Node1&#45;&gt;Node15</title>
<path fill="none" stroke="#63b8ff" d="M1593.1,-318.44C1400.29,-281.21 892.06,-183.07 715.22,-148.92"/>
<polygon fill="#63b8ff" stroke="#63b8ff" points="1592.27,-321.84 1602.75,-320.3 1593.6,-314.97 1592.27,-321.84"/>
</g>
<!-- Node20 -->
<g id="node20" class="node">
<title>Node20</title>
<g id="a_node20"><a xlink:href="../../df/d80/conjunction_8hpp.html" target="_top" xlink:title=" ">
<polygon fill="white" stroke="#666666" points="1800,-217 1659,-217 1659,-187 1800,-187 1800,-217"/>
<text text-anchor="start" x="1667" y="-205" font-family="Helvetica,sans-Serif" font-size="10.00">Simple&#45;Utility/functional</text>
<text text-anchor="middle" x="1729.5" y="-194" font-family="Helvetica,sans-Serif" font-size="10.00">/operators/conjunction.hpp</text>
</a>
</g>
</g>
<!-- Node1&#45;&gt;Node20 -->
<g id="edge38" class="edge">
<title>Node1&#45;&gt;Node20</title>
<path fill="none" stroke="#63b8ff" d="M1656.26,-308.07C1650,-291.59 1645.42,-269.97 1654.5,-253 1662.99,-237.13 1678.99,-225.43 1694.03,-217.36"/>
<polygon fill="#63b8ff" stroke="#63b8ff" points="1652.99,-309.32 1660.12,-317.15 1659.43,-306.58 1652.99,-309.32"/>
</g>
<!-- Node21 -->
<g id="node21" class="node">
<title>Node21</title>
<g id="a_node21"><a xlink:href="../../d4/d7c/disjunction_8hpp.html" target="_top" xlink:title=" ">
<polygon fill="white" stroke="#666666" points="1955,-217 1818,-217 1818,-187 1955,-187 1955,-217"/>
<text text-anchor="start" x="1826" y="-205" font-family="Helvetica,sans-Serif" font-size="10.00">Simple&#45;Utility/functional</text>
<text text-anchor="middle" x="1886.5" y="-194" font-family="Helvetica,sans-Serif" font-size="10.00">/operators/disjunction.hpp</text>
</a>
</g>
</g>
<!-- Node1&#45;&gt;Node21 -->
<g id="edge41" class="edge">
<title>Node1&#45;&gt;Node21</title>
<path fill="none" stroke="#63b8ff" d="M1668.02,-307.33C1669.1,-289.78 1673.47,-267.21 1687.5,-253 1696.92,-243.46 1764.04,-227.86 1817.76,-216.62"/>
<polygon fill="#63b8ff" stroke="#63b8ff" points="1664.53,-307.17 1667.76,-317.25 1671.52,-307.35 1664.53,-307.17"/>
</g>
<!-- Node22 -->
<g id="node22" class="node">
<title>Node22</title>
<g id="a_node22"><a xlink:href="../../dc/d0a/equal_8hpp.html" target="_top" xlink:title=" ">
<polygon fill="white" stroke="#666666" points="1824.5,-283 1696.5,-283 1696.5,-253 1824.5,-253 1824.5,-283"/>
<text text-anchor="start" x="1704.5" y="-271" font-family="Helvetica,sans-Serif" font-size="10.00">Simple&#45;Utility/functional</text>
<text text-anchor="middle" x="1760.5" y="-260" font-family="Helvetica,sans-Serif" font-size="10.00">/operators/equal.hpp</text>
</a>
</g>
</g>
<!-- Node1&#45;&gt;Node22 -->
<g id="edge44" class="edge">
<title>Node1&#45;&gt;Node22</title>
<path fill="none" stroke="#63b8ff" d="M1698.33,-312.25C1711.89,-302.82 1727.59,-291.9 1739.82,-283.39"/>
<polygon fill="#63b8ff" stroke="#63b8ff" points="1696.37,-309.35 1690.16,-317.93 1700.37,-315.09 1696.37,-309.35"/>
</g>
<!-- Node23 -->
<g id="node23" class="node">
<title>Node23</title>
<g id="a_node23"><a xlink:href="../../d7/dd0/equivalent_8hpp.html" target="_top" xlink:title=" ">
<polygon fill="white" stroke="#666666" points="1978,-283 1843,-283 1843,-253 1978,-253 1978,-283"/>
<text text-anchor="start" x="1851" y="-271" font-family="Helvetica,sans-Serif" font-size="10.00">Simple&#45;Utility/functional</text>
<text text-anchor="middle" x="1910.5" y="-260" font-family="Helvetica,sans-Serif" font-size="10.00">/operators/equivalent.hpp</text>
</a>
</g>
</g>
<!-- Node1&#45;&gt;Node23 -->
<g id="edge46" class="edge">
<title>Node1&#45;&gt;Node23</title>
<path fill="none" stroke="#63b8ff" d="M1734.13,-315.64C1772.35,-305.53 1819.97,-292.94 1856.09,-283.39"/>
<polygon fill="#63b8ff" stroke="#63b8ff" points="1733.35,-312.23 1724.57,-318.17 1735.14,-319 1733.35,-312.23"/>
</g>
<!-- Node24 -->
<g id="node24" class="node">
<title>Node24</title>
<g id="a_node24"><a xlink:href="../../d8/dea/negation_8hpp.html" target="_top" xlink:title=" ">
<polygon fill="white" stroke="#666666" points="2293,-217 2164,-217 2164,-187 2293,-187 2293,-217"/>
<text text-anchor="start" x="2172" y="-205" font-family="Helvetica,sans-Serif" font-size="10.00">Simple&#45;Utility/functional</text>
<text text-anchor="middle" x="2228.5" y="-194" font-family="Helvetica,sans-Serif" font-size="10.00">/operators/negation.hpp</text>
</a>
</g>
</g>
<!-- Node1&#45;&gt;Node24 -->
<g id="edge48" class="edge">
<title>Node1&#45;&gt;Node24</title>
<path fill="none" stroke="#63b8ff" d="M1743.98,-332.61C1864.95,-330.81 2095.81,-322.15 2166.5,-283 2193.4,-268.1 2212.5,-236.19 2221.89,-217.48"/>
<polygon fill="#63b8ff" stroke="#63b8ff" points="1744.09,-329.11 1734.14,-332.74 1744.19,-336.11 1744.09,-329.11"/>
</g>
<!-- Node25 -->
<g id="node25" class="node">
<title>Node25</title>
<g id="a_node25"><a xlink:href="../../d5/db7/pipe_8hpp.html" target="_top" xlink:title=" ">
<polygon fill="white" stroke="#666666" points="2124.5,-283 1996.5,-283 1996.5,-253 2124.5,-253 2124.5,-283"/>
<text text-anchor="start" x="2004.5" y="-271" font-family="Helvetica,sans-Serif" font-size="10.00">Simple&#45;Utility/functional</text>
<text text-anchor="middle" x="2060.5" y="-260" font-family="Helvetica,sans-Serif" font-size="10.00">/operators/pipe.hpp</text>
</a>
</g>
</g>
<!-- Node1&#45;&gt;Node25 -->
<g id="edge51" class="edge">
<title>Node1&#45;&gt;Node25</title>
<path fill="none" stroke="#63b8ff" d="M1744.07,-321.89C1808.79,-312.21 1904.4,-297.48 1987.5,-283 1990.3,-282.51 1993.15,-282.01 1996.04,-281.49"/>
<polygon fill="#63b8ff" stroke="#63b8ff" points="1743.63,-318.42 1734.26,-323.36 1744.67,-325.35 1743.63,-318.42"/>
</g>
<!-- Node3&#45;&gt;Node2 -->
<g id="edge3" class="edge">
<title>Node3&#45;&gt;Node2</title>
<path fill="none" stroke="#63b8ff" d="M1523.88,-179.33C1555.54,-150.25 1614.11,-97.34 1666.5,-55 1682.44,-42.12 1701.56,-28.19 1713.86,-19.41"/>
<polygon fill="#63b8ff" stroke="#63b8ff" points="1521.79,-176.5 1516.81,-185.85 1526.53,-181.65 1521.79,-176.5"/>
</g>
<!-- Node3&#45;&gt;Node4 -->
<g id="edge4" class="edge">
<title>Node3&#45;&gt;Node4</title>
<path fill="none" stroke="#63b8ff" d="M1576,-191.22C1672.84,-178.67 1839.13,-157.13 1930.22,-145.33"/>
<polygon fill="#63b8ff" stroke="#63b8ff" points="1575.8,-187.72 1566.33,-192.47 1576.7,-194.66 1575.8,-187.72"/>
</g>
<!-- Node3&#45;&gt;Node6 -->
<g id="edge8" class="edge">
<title>Node3&#45;&gt;Node6</title>
<path fill="none" stroke="#63b8ff" d="M1458.32,-181.99C1436.52,-172.16 1410.34,-160.36 1390.26,-151.31"/>
<polygon fill="#63b8ff" stroke="#63b8ff" points="1456.7,-185.1 1467.25,-186.02 1459.57,-178.72 1456.7,-185.1"/>
</g>
<!-- Node3&#45;&gt;Node15 -->
<g id="edge25" class="edge">
<title>Node3&#45;&gt;Node15</title>
<path fill="none" stroke="#63b8ff" d="M1425.11,-195.3C1259.72,-182.81 867.71,-153.19 715.46,-141.68"/>
<polygon fill="#63b8ff" stroke="#63b8ff" points="1424.4,-198.76 1434.63,-196.02 1424.93,-191.78 1424.4,-198.76"/>
</g>
<!-- Node4&#45;&gt;Node2 -->
<g id="edge5" class="edge">
<title>Node4&#45;&gt;Node2</title>
<path fill="none" stroke="#63b8ff" d="M1977.96,-111.9C1963.71,-93.71 1941.53,-69.13 1916.5,-55 1881.25,-35.09 1837.51,-24.07 1800.88,-17.98"/>
<polygon fill="#63b8ff" stroke="#63b8ff" points="1974.92,-113.68 1983.75,-119.54 1980.5,-109.45 1974.92,-113.68"/>
</g>
<!-- Node5 -->
<g id="node5" class="node">
<title>Node5</title>
<g id="a_node5"><a xlink:href="../../dd/d3f/compare_8hpp.html" target="_top" xlink:title=" ">
<polygon fill="white" stroke="#666666" points="1836.5,-85 1708.5,-85 1708.5,-55 1836.5,-55 1836.5,-85"/>
<text text-anchor="start" x="1716.5" y="-73" font-family="Helvetica,sans-Serif" font-size="10.00">Simple&#45;Utility/functional</text>
<text text-anchor="middle" x="1772.5" y="-62" font-family="Helvetica,sans-Serif" font-size="10.00">/compare.hpp</text>
</a>
</g>
</g>
<!-- Node4&#45;&gt;Node5 -->
<g id="edge6" class="edge">
<title>Node4&#45;&gt;Node5</title>
<path fill="none" stroke="#63b8ff" d="M1933.38,-117.38C1898.48,-107.32 1855.27,-94.86 1822.42,-85.39"/>
<polygon fill="#63b8ff" stroke="#63b8ff" points="1932.37,-120.73 1942.95,-120.14 1934.31,-114 1932.37,-120.73"/>
</g>
<!-- Node5&#45;&gt;Node2 -->
<g id="edge7" class="edge">
<title>Node5&#45;&gt;Node2</title>
<path fill="none" stroke="#63b8ff" d="M1754.13,-45.64C1746.8,-36.32 1738.81,-26.16 1733.32,-19.18"/>
<polygon fill="#63b8ff" stroke="#63b8ff" points="1751.26,-47.65 1760.19,-53.35 1756.76,-43.33 1751.26,-47.65"/>
</g>
<!-- Node6&#45;&gt;Node2 -->
<g id="edge9" class="edge">
<title>Node6&#45;&gt;Node2</title>
<path fill="none" stroke="#63b8ff" d="M1339.51,-111.6C1327.78,-94.18 1317.41,-70.77 1331.5,-55 1352.45,-31.56 1543.77,-18.94 1652.26,-13.61"/>
<polygon fill="#63b8ff" stroke="#63b8ff" points="1336.43,-113.31 1345.13,-119.35 1342.1,-109.2 1336.43,-113.31"/>
</g>
<!-- Node6&#45;&gt;Node5 -->
<g id="edge12" class="edge">
<title>Node6&#45;&gt;Node5</title>
<path fill="none" stroke="#63b8ff" d="M1433.99,-123.33C1512.48,-111.2 1634.02,-92.41 1708.12,-80.95"/>
<polygon fill="#63b8ff" stroke="#63b8ff" points="1433.58,-119.85 1424.23,-124.84 1434.65,-126.77 1433.58,-119.85"/>
</g>
<!-- Node7 -->
<g id="node7" class="node">
<title>Node7</title>
<g id="a_node7"><a xlink:href="../../d3/d23/arithmetic_8hpp.html" target="_top" xlink:title=" ">
<polygon fill="white" stroke="#666666" points="1468.5,-85 1340.5,-85 1340.5,-55 1468.5,-55 1468.5,-85"/>
<text text-anchor="start" x="1348.5" y="-73" font-family="Helvetica,sans-Serif" font-size="10.00">Simple&#45;Utility/functional</text>
<text text-anchor="middle" x="1404.5" y="-62" font-family="Helvetica,sans-Serif" font-size="10.00">/arithmetic.hpp</text>
</a>
</g>
</g>
<!-- Node6&#45;&gt;Node7 -->
<g id="edge10" class="edge">
<title>Node6&#45;&gt;Node7</title>
<path fill="none" stroke="#63b8ff" d="M1375.26,-111.68C1381.65,-102.79 1388.73,-92.95 1394.32,-85.16"/>
<polygon fill="#63b8ff" stroke="#63b8ff" points="1372.59,-109.4 1369.59,-119.57 1378.27,-113.49 1372.59,-109.4"/>
</g>
<!-- Node8 -->
<g id="node8" class="node">
<title>Node8</title>
<g id="a_node8"><a xlink:href="../../d9/d5f/functional_2tuple_8hpp.html" target="_top" xlink:title=" ">
<polygon fill="white" stroke="#666666" points="1614.5,-85 1486.5,-85 1486.5,-55 1614.5,-55 1614.5,-85"/>
<text text-anchor="start" x="1494.5" y="-73" font-family="Helvetica,sans-Serif" font-size="10.00">Simple&#45;Utility/functional</text>
<text text-anchor="middle" x="1550.5" y="-62" font-family="Helvetica,sans-Serif" font-size="10.00">/tuple.hpp</text>
</a>
</g>
</g>
<!-- Node6&#45;&gt;Node8 -->
<g id="edge13" class="edge">
<title>Node6&#45;&gt;Node8</title>
<path fill="none" stroke="#63b8ff" d="M1412.3,-117.07C1442.28,-107.07 1479.12,-94.79 1507.22,-85.43"/>
<polygon fill="#63b8ff" stroke="#63b8ff" points="1411.4,-113.68 1403.02,-120.16 1413.62,-120.32 1411.4,-113.68"/>
</g>
<!-- Node9 -->
<g id="node9" class="node">
<title>Node9</title>
<g id="a_node9"><a xlink:href="../../df/d4e/functional_2utility_8hpp.html" target="_top" xlink:title=" ">
<polygon fill="white" stroke="#666666" points="1284.5,-85 1156.5,-85 1156.5,-55 1284.5,-55 1284.5,-85"/>
<text text-anchor="start" x="1164.5" y="-73" font-family="Helvetica,sans-Serif" font-size="10.00">Simple&#45;Utility/functional</text>
<text text-anchor="middle" x="1220.5" y="-62" font-family="Helvetica,sans-Serif" font-size="10.00">/utility.hpp</text>
</a>
</g>
</g>
<!-- Node6&#45;&gt;Node9 -->
<g id="edge15" class="edge">
<title>Node6&#45;&gt;Node9</title>
<path fill="none" stroke="#63b8ff" d="M1317.22,-115.86C1296.09,-106.05 1270.79,-94.32 1251.37,-85.31"/>
<polygon fill="#63b8ff" stroke="#63b8ff" points="1315.61,-118.97 1326.16,-120 1318.56,-112.62 1315.61,-118.97"/>
</g>
<!-- Node10 -->
<g id="node10" class="node">
<title>Node10</title>
<g id="a_node10"><a xlink:href="../../d4/dc9/and__then_8hpp.html" target="_top" xlink:title=" ">
<polygon fill="white" stroke="#666666" points="715,-85 592,-85 592,-55 715,-55 715,-85"/>
<text text-anchor="start" x="600" y="-73" font-family="Helvetica,sans-Serif" font-size="10.00">Simple&#45;Utility/nullables</text>
<text text-anchor="middle" x="653.5" y="-62" font-family="Helvetica,sans-Serif" font-size="10.00">/and_then.hpp</text>
</a>
</g>
</g>
<!-- Node6&#45;&gt;Node10 -->
<g id="edge17" class="edge">
<title>Node6&#45;&gt;Node10</title>
<path fill="none" stroke="#63b8ff" d="M1283.07,-131.96C1163.81,-126.51 924.58,-112.92 723.5,-85 720.8,-84.62 718.05,-84.21 715.27,-83.77"/>
<polygon fill="#63b8ff" stroke="#63b8ff" points="1282.57,-135.44 1292.72,-132.4 1282.89,-128.45 1282.57,-135.44"/>
</g>
<!-- Node12 -->
<g id="node12" class="node">
<title>Node12</title>
<g id="a_node12"><a xlink:href="../../d7/d5f/fwd__value_8hpp.html" target="_top" xlink:title=" ">
<polygon fill="white" stroke="#666666" points="856,-85 733,-85 733,-55 856,-55 856,-85"/>
<text text-anchor="start" x="741" y="-73" font-family="Helvetica,sans-Serif" font-size="10.00">Simple&#45;Utility/nullables</text>
<text text-anchor="middle" x="794.5" y="-62" font-family="Helvetica,sans-Serif" font-size="10.00">/fwd_value.hpp</text>
</a>
</g>
</g>
<!-- Node6&#45;&gt;Node12 -->
<g id="edge19" class="edge">
<title>Node6&#45;&gt;Node12</title>
<path fill="none" stroke="#63b8ff" d="M1282.84,-129.62C1185.67,-122.2 1011.95,-107.15 864.5,-85 861.8,-84.59 859.05,-84.16 856.28,-83.69"/>
<polygon fill="#63b8ff" stroke="#63b8ff" points="1282.56,-133.11 1292.8,-130.38 1283.09,-126.13 1282.56,-133.11"/>
</g>
<!-- Node13 -->
<g id="node13" class="node">
<title>Node13</title>
<g id="a_node13"><a xlink:href="../../d2/d0e/or__else_8hpp.html" target="_top" xlink:title=" ">
<polygon fill="white" stroke="#666666" points="997,-85 874,-85 874,-55 997,-55 997,-85"/>
<text text-anchor="start" x="882" y="-73" font-family="Helvetica,sans-Serif" font-size="10.00">Simple&#45;Utility/nullables</text>
<text text-anchor="middle" x="935.5" y="-62" font-family="Helvetica,sans-Serif" font-size="10.00">/or_else.hpp</text>
</a>
</g>
</g>
<!-- Node6&#45;&gt;Node13 -->
<g id="edge21" class="edge">
<title>Node6&#45;&gt;Node13</title>
<path fill="none" stroke="#63b8ff" d="M1283.09,-125.58C1211.49,-116.33 1100.92,-101.29 1005.5,-85 1002.81,-84.54 1000.07,-84.06 997.3,-83.56"/>
<polygon fill="#63b8ff" stroke="#63b8ff" points="1282.37,-129.01 1292.74,-126.82 1283.26,-122.07 1282.37,-129.01"/>
</g>
<!-- Node14 -->
<g id="node14" class="node">
<title>Node14</title>
<g id="a_node14"><a xlink:href="../../d0/d48/value__or_8hpp.html" target="_top" xlink:title=" ">
<polygon fill="white" stroke="#666666" points="1138,-85 1015,-85 1015,-55 1138,-55 1138,-85"/>
<text text-anchor="start" x="1023" y="-73" font-family="Helvetica,sans-Serif" font-size="10.00">Simple&#45;Utility/nullables</text>
<text text-anchor="middle" x="1076.5" y="-62" font-family="Helvetica,sans-Serif" font-size="10.00">/value_or.hpp</text>
</a>
</g>
</g>
<!-- Node6&#45;&gt;Node14 -->
<g id="edge23" class="edge">
<title>Node6&#45;&gt;Node14</title>
<path fill="none" stroke="#63b8ff" d="M1283.9,-118.07C1238.54,-107.78 1181.3,-94.78 1138.45,-85.06"/>
<polygon fill="#63b8ff" stroke="#63b8ff" points="1282.86,-121.42 1293.39,-120.22 1284.41,-114.6 1282.86,-121.42"/>
</g>
<!-- Node7&#45;&gt;Node2 -->
<g id="edge11" class="edge">
<title>Node7&#45;&gt;Node2</title>
<path fill="none" stroke="#63b8ff" d="M1480.26,-54.5C1553.6,-40.96 1627.54,-27.85 1675.44,-19.43"/>
<polygon fill="#63b8ff" stroke="#63b8ff" points="1479.66,-51.05 1470.47,-56.31 1480.94,-57.94 1479.66,-51.05"/>
</g>
<!-- Node8&#45;&gt;Node2 -->
<g id="edge14" class="edge">
<title>Node8&#45;&gt;Node2</title>
<path fill="none" stroke="#63b8ff" d="M1604.82,-50.94C1636.29,-40.49 1674.52,-27.78 1699.63,-19.43"/>
<polygon fill="#63b8ff" stroke="#63b8ff" points="1603.83,-47.59 1595.44,-54.06 1606.04,-54.23 1603.83,-47.59"/>
</g>
<!-- Node9&#45;&gt;Node2 -->
<g id="edge16" class="edge">
<title>Node9&#45;&gt;Node2</title>
<path fill="none" stroke="#63b8ff" d="M1295.96,-55.36C1296.81,-55.24 1297.66,-55.12 1298.5,-55 1422.03,-37.52 1566.53,-23.91 1652.07,-16.56"/>
<polygon fill="#63b8ff" stroke="#63b8ff" points="1295.56,-51.88 1286.21,-56.86 1296.62,-58.8 1295.56,-51.88"/>
</g>
<!-- Node11 -->
<g id="node11" class="node">
<title>Node11</title>
<g id="a_node11"><a xlink:href="../../d3/ddc/nullables_8hpp.html" target="_top" xlink:title=" ">
<polygon fill="white" stroke="#666666" points="615,-19 472,-19 472,0 615,0 615,-19"/>
<text text-anchor="middle" x="543.5" y="-7" font-family="Helvetica,sans-Serif" font-size="10.00">Simple&#45;Utility/nullables.hpp</text>
</a>
</g>
</g>
<!-- Node10&#45;&gt;Node11 -->
<g id="edge18" class="edge">
<title>Node10&#45;&gt;Node11</title>
<path fill="none" stroke="#63b8ff" d="M616.39,-49.27C597.31,-39.12 575,-27.25 560.13,-19.35"/>
<polygon fill="#63b8ff" stroke="#63b8ff" points="614.5,-52.22 624.97,-53.83 617.79,-46.04 614.5,-52.22"/>
</g>
<!-- Node12&#45;&gt;Node11 -->
<g id="edge20" class="edge">
<title>Node12&#45;&gt;Node11</title>
<path fill="none" stroke="#63b8ff" d="M721.73,-52.04C676.06,-41.39 619,-28.1 581.92,-19.46"/>
<polygon fill="#63b8ff" stroke="#63b8ff" points="720.77,-55.41 731.3,-54.27 722.36,-48.59 720.77,-55.41"/>
</g>
<!-- Node13&#45;&gt;Node11 -->
<g id="edge22" class="edge">
<title>Node13&#45;&gt;Node11</title>
<path fill="none" stroke="#63b8ff" d="M862.23,-54.68C771.35,-39.64 677.96,-27.19 615.39,-19.28"/>
<polygon fill="#63b8ff" stroke="#63b8ff" points="861.65,-58.13 872.09,-56.33 862.8,-51.23 861.65,-58.13"/>
</g>
<!-- Node14&#45;&gt;Node11 -->
<g id="edge24" class="edge">
<title>Node14&#45;&gt;Node11</title>
<path fill="none" stroke="#63b8ff" d="M1003.42,-54.8C860,-34.23 704.17,-21.53 615.39,-15.22"/>
<polygon fill="#63b8ff" stroke="#63b8ff" points="1002.71,-58.23 1013.11,-56.2 1003.71,-51.3 1002.71,-58.23"/>
</g>
<!-- Node15&#45;&gt;Node10 -->
<g id="edge29" class="edge">
<title>Node15&#45;&gt;Node10</title>
<path fill="none" stroke="#63b8ff" d="M653.5,-109.39C653.5,-101.13 653.5,-92.28 653.5,-85.16"/>
<polygon fill="#63b8ff" stroke="#63b8ff" points="650,-109.28 653.5,-119.28 657,-109.28 650,-109.28"/>
</g>
<!-- Node15&#45;&gt;Node11 -->
<g id="edge26" class="edge">
<title>Node15&#45;&gt;Node11</title>
<path fill="none" stroke="#63b8ff" d="M580.27,-126.28C529.54,-118.56 468.38,-105.31 452.5,-85 444.29,-74.5 445.44,-66.31 452.5,-55 463.86,-36.8 485.06,-25.84 504.14,-19.35"/>
<polygon fill="#63b8ff" stroke="#63b8ff" points="579.68,-129.73 590.08,-127.72 580.69,-122.8 579.68,-129.73"/>
</g>
<!-- Node15&#45;&gt;Node12 -->
<g id="edge30" class="edge">
<title>Node15&#45;&gt;Node12</title>
<path fill="none" stroke="#63b8ff" d="M695.38,-115.99C717.03,-106.16 743.03,-94.36 762.96,-85.31"/>
<polygon fill="#63b8ff" stroke="#63b8ff" points="694.18,-112.69 686.52,-120.01 697.07,-119.07 694.18,-112.69"/>
</g>
<!-- Node15&#45;&gt;Node13 -->
<g id="edge31" class="edge">
<title>Node15&#45;&gt;Node13</title>
<path fill="none" stroke="#63b8ff" d="M726.42,-118.45C772.11,-108.08 830.35,-94.86 873.76,-85.01"/>
<polygon fill="#63b8ff" stroke="#63b8ff" points="725.84,-114.99 716.86,-120.62 727.39,-121.82 725.84,-114.99"/>
</g>
<!-- Node15&#45;&gt;Node14 -->
<g id="edge36" class="edge">
<title>Node15&#45;&gt;Node14</title>
<path fill="none" stroke="#63b8ff" d="M726.42,-125.8C797.74,-116.53 909.32,-101.3 1005.5,-85 1008.47,-84.5 1011.51,-83.96 1014.58,-83.41"/>
<polygon fill="#63b8ff" stroke="#63b8ff" points="726.3,-122.29 716.84,-127.04 727.2,-129.23 726.3,-122.29"/>
</g>
<!-- Node16 -->
<g id="node16" class="node">
<title>Node16</title>
<g id="a_node16"><a xlink:href="../../d6/dca/adapter_8hpp.html" target="_top" xlink:title=" ">
<polygon fill="white" stroke="#666666" points="123,-85 0,-85 0,-55 123,-55 123,-85"/>
<text text-anchor="start" x="8" y="-73" font-family="Helvetica,sans-Serif" font-size="10.00">Simple&#45;Utility/nullables</text>
<text text-anchor="middle" x="61.5" y="-62" font-family="Helvetica,sans-Serif" font-size="10.00">/adapter.hpp</text>
</a>
</g>
</g>
<!-- Node15&#45;&gt;Node16 -->
<g id="edge27" class="edge">
<title>Node15&#45;&gt;Node16</title>
<path fill="none" stroke="#63b8ff" d="M580.48,-130.36C479.28,-123.4 290.85,-108.5 131.5,-85 128.8,-84.6 126.05,-84.17 123.28,-83.71"/>
<polygon fill="#63b8ff" stroke="#63b8ff" points="580.06,-133.84 590.27,-131.03 580.53,-126.86 580.06,-133.84"/>
</g>
<!-- Node17 -->
<g id="node17" class="node">
<title>Node17</title>
<g id="a_node17"><a xlink:href="../../d9/d20/std__optional_8hpp.html" target="_top" xlink:title=" ">
<polygon fill="white" stroke="#666666" points="264,-85 141,-85 141,-55 264,-55 264,-85"/>
<text text-anchor="start" x="149" y="-73" font-family="Helvetica,sans-Serif" font-size="10.00">Simple&#45;Utility/nullables</text>
<text text-anchor="middle" x="202.5" y="-62" font-family="Helvetica,sans-Serif" font-size="10.00">/std_optional.hpp</text>
</a>
</g>
</g>
<!-- Node15&#45;&gt;Node17 -->
<g id="edge32" class="edge">
<title>Node15&#45;&gt;Node17</title>
<path fill="none" stroke="#63b8ff" d="M580.63,-126.91C503.79,-118.03 379.3,-102.67 272.5,-85 269.81,-84.56 267.07,-84.08 264.3,-83.59"/>
<polygon fill="#63b8ff" stroke="#63b8ff" points="579.77,-130.33 590.11,-128 580.57,-123.38 579.77,-130.33"/>
</g>
<!-- Node18 -->
<g id="node18" class="node">
<title>Node18</title>
<g id="a_node18"><a xlink:href="../../d8/d9a/std__pointers_8hpp.html" target="_top" xlink:title=" ">
<polygon fill="white" stroke="#666666" points="405,-85 282,-85 282,-55 405,-55 405,-85"/>
<text text-anchor="start" x="290" y="-73" font-family="Helvetica,sans-Serif" font-size="10.00">Simple&#45;Utility/nullables</text>
<text text-anchor="middle" x="343.5" y="-62" font-family="Helvetica,sans-Serif" font-size="10.00">/std_pointers.hpp</text>
</a>
</g>
</g>
<!-- Node15&#45;&gt;Node18 -->
<g id="edge34" class="edge">
<title>Node15&#45;&gt;Node18</title>
<path fill="none" stroke="#63b8ff" d="M580.44,-119.92C527.19,-108.92 455.83,-94.19 405.38,-83.78"/>
<polygon fill="#63b8ff" stroke="#63b8ff" points="579.53,-123.3 590.03,-121.9 580.94,-116.45 579.53,-123.3"/>
</g>
<!-- Node19 -->
<g id="node19" class="node">
<title>Node19</title>
<g id="a_node19"><a xlink:href="../../d0/d0f/unique__handle_8hpp.html" target="_top" xlink:title=" ">
<polygon fill="white" stroke="#666666" points="573.5,-85 461.5,-85 461.5,-55 573.5,-55 573.5,-85"/>
<text text-anchor="start" x="469.5" y="-73" font-family="Helvetica,sans-Serif" font-size="10.00">Simple&#45;Utility/unique</text>
<text text-anchor="middle" x="517.5" y="-62" font-family="Helvetica,sans-Serif" font-size="10.00">_handle.hpp</text>
</a>
</g>
</g>
<!-- Node15&#45;&gt;Node19 -->
<g id="edge37" class="edge">
<title>Node15&#45;&gt;Node19</title>
<path fill="none" stroke="#63b8ff" d="M612.82,-115.86C591.99,-106.05 567.06,-94.32 547.92,-85.31"/>
<polygon fill="#63b8ff" stroke="#63b8ff" points="611.07,-118.9 621.61,-119.99 614.05,-112.57 611.07,-118.9"/>
</g>
<!-- Node16&#45;&gt;Node11 -->
<g id="edge28" class="edge">
<title>Node16&#45;&gt;Node11</title>
<path fill="none" stroke="#63b8ff" d="M134.47,-54.63C258.36,-35.97 391.81,-23.17 471.79,-16.28"/>
<polygon fill="#63b8ff" stroke="#63b8ff" points="134.14,-51.14 124.78,-56.1 135.19,-58.06 134.14,-51.14"/>
</g>
<!-- Node17&#45;&gt;Node11 -->
<g id="edge33" class="edge">
<title>Node17&#45;&gt;Node11</title>
<path fill="none" stroke="#63b8ff" d="M275.3,-54.52C353.22,-40.47 432.77,-27.68 485.25,-19.47"/>
<polygon fill="#63b8ff" stroke="#63b8ff" points="275.02,-51.02 265.8,-56.25 276.27,-57.91 275.02,-51.02"/>
</g>
<!-- Node18&#45;&gt;Node11 -->
<g id="edge35" class="edge">
<title>Node18&#45;&gt;Node11</title>
<path fill="none" stroke="#63b8ff" d="M403.83,-51.35C439.84,-40.82 484.06,-27.89 512.96,-19.43"/>
<polygon fill="#63b8ff" stroke="#63b8ff" points="403.01,-47.95 394.39,-54.11 404.97,-54.67 403.01,-47.95"/>
</g>
<!-- Node20&#45;&gt;Node2 -->
<g id="edge39" class="edge">
<title>Node20&#45;&gt;Node2</title>
<path fill="none" stroke="#63b8ff" d="M1766.14,-180.72C1811.19,-153.1 1877.92,-101.74 1845.5,-55 1832.74,-36.6 1811.39,-25.8 1790.27,-19.46"/>
<polygon fill="#63b8ff" stroke="#63b8ff" points="1764.44,-177.66 1757.64,-185.79 1768.02,-183.67 1764.44,-177.66"/>
</g>
<!-- Node20&#45;&gt;Node4 -->
<g id="edge40" class="edge">
<title>Node20&#45;&gt;Node4</title>
<path fill="none" stroke="#63b8ff" d="M1800.3,-183.9C1842.33,-173.75 1895.02,-161.02 1934.92,-151.39"/>
<polygon fill="#63b8ff" stroke="#63b8ff" points="1799.67,-180.45 1790.77,-186.2 1801.32,-187.26 1799.67,-180.45"/>
</g>
<!-- Node21&#45;&gt;Node2 -->
<g id="edge42" class="edge">
<title>Node21&#45;&gt;Node2</title>
<path fill="none" stroke="#63b8ff" d="M1890.12,-175.52C1893.16,-143.53 1893.2,-88.78 1864.5,-55 1848.45,-36.1 1824.32,-25.16 1800.7,-18.85"/>
<polygon fill="#63b8ff" stroke="#63b8ff" points="1886.69,-174.73 1889.03,-185.07 1893.64,-175.53 1886.69,-174.73"/>
</g>
<!-- Node21&#45;&gt;Node4 -->
<g id="edge43" class="edge">
<title>Node21&#45;&gt;Node4</title>
<path fill="none" stroke="#63b8ff" d="M1920.4,-180.91C1936.61,-171.31 1955.63,-160.03 1970.34,-151.31"/>
<polygon fill="#63b8ff" stroke="#63b8ff" points="1918.86,-177.76 1912.04,-185.87 1922.43,-183.78 1918.86,-177.76"/>
</g>
<!-- Node22&#45;&gt;Node4 -->
<g id="edge45" class="edge">
<title>Node22&#45;&gt;Node4</title>
<path fill="none" stroke="#63b8ff" d="M1835.93,-252.07C1889.85,-240.8 1954.57,-225.82 1964.5,-217 1983.69,-199.96 1990.64,-169.42 1993.14,-151.4"/>
<polygon fill="#63b8ff" stroke="#63b8ff" points="1835.53,-248.58 1826.45,-254.03 1836.95,-255.43 1835.53,-248.58"/>
</g>
<!-- Node23&#45;&gt;Node4 -->
<g id="edge47" class="edge">
<title>Node23&#45;&gt;Node4</title>
<path fill="none" stroke="#63b8ff" d="M1964.69,-247.31C1977.7,-239.88 1989.99,-229.98 1997.5,-217 2009.26,-196.67 2004.19,-168.32 1999.38,-151.39"/>
<polygon fill="#63b8ff" stroke="#63b8ff" points="1963.27,-244.1 1956.01,-251.82 1966.49,-250.31 1963.27,-244.1"/>
</g>
<!-- Node24&#45;&gt;Node2 -->
<g id="edge49" class="edge">
<title>Node24&#45;&gt;Node2</title>
<path fill="none" stroke="#63b8ff" d="M2216.82,-176.77C2199.17,-143.08 2162.29,-83.08 2111.5,-55 2059.68,-26.35 1897.14,-16.06 1800.61,-12.43"/>
<polygon fill="#63b8ff" stroke="#63b8ff" points="2213.54,-178.03 2221.19,-185.36 2219.78,-174.86 2213.54,-178.03"/>
</g>
<!-- Node24&#45;&gt;Node4 -->
<g id="edge50" class="edge">
<title>Node24&#45;&gt;Node4</title>
<path fill="none" stroke="#63b8ff" d="M2165.04,-183.64C2128.08,-173.53 2082.04,-160.94 2047.11,-151.39"/>
<polygon fill="#63b8ff" stroke="#63b8ff" points="2163.67,-186.9 2174.23,-186.16 2165.51,-180.14 2163.67,-186.9"/>
</g>
<!-- Node25&#45;&gt;Node2 -->
<g id="edge52" class="edge">
<title>Node25&#45;&gt;Node2</title>
<path fill="none" stroke="#63b8ff" d="M2069.44,-242.31C2078.92,-211.58 2089.72,-158.58 2067.5,-121 2036.52,-68.61 2004.66,-75.92 1947.5,-55 1899.63,-37.48 1843.26,-26.27 1799.43,-19.48"/>
<polygon fill="#63b8ff" stroke="#63b8ff" points="2066.22,-240.88 2066.42,-251.48 2072.87,-243.07 2066.22,-240.88"/>
</g>
<!-- Node25&#45;&gt;Node4 -->
<g id="edge54" class="edge">
<title>Node25&#45;&gt;Node4</title>
<path fill="none" stroke="#63b8ff" d="M2055.29,-241.93C2051.29,-225.65 2044.84,-204.31 2035.5,-187 2028.36,-173.76 2017.46,-160.68 2008.69,-151.22"/>
<polygon fill="#63b8ff" stroke="#63b8ff" points="2051.79,-242.33 2057.44,-251.29 2058.62,-240.76 2051.79,-242.33"/>
</g>
<!-- Node25&#45;&gt;Node6 -->
<g id="edge55" class="edge">
<title>Node25&#45;&gt;Node6</title>
<path fill="none" stroke="#63b8ff" d="M1984.7,-252.69C1835.97,-231.81 1792.62,-252.18 1649.5,-217 1614.24,-208.33 1608.17,-197.81 1573.5,-187 1523.56,-171.43 1465.75,-158.25 1422.66,-149.34"/>
<polygon fill="#63b8ff" stroke="#63b8ff" points="1984.17,-256.15 1994.57,-254.12 1985.17,-249.23 1984.17,-256.15"/>
</g>
<!-- Node25&#45;&gt;Node24 -->
<g id="edge53" class="edge">
<title>Node25&#45;&gt;Node24</title>
<path fill="none" stroke="#63b8ff" d="M2108.96,-248.54C2134.94,-238.64 2166.47,-226.63 2190.63,-217.43"/>
<polygon fill="#63b8ff" stroke="#63b8ff" points="2107.72,-245.27 2099.62,-252.1 2110.21,-251.81 2107.72,-245.27"/>
</g>
</g>
</svg>
        <g id="navigator" transform="translate(0 0)" fill="#404254">
                <rect fill="#f2f5e9" fill-opacity="0.5" stroke="#606060" stroke-width=".5" x="0" y="0" width="60" height="60"/>
                <use id="zoomplus" xlink:href="#zoomPlus" x="17" y="9" onmousedown="handleZoom(evt,'in')"/>
                <use id="zoomminus" xlink:href="#zoomMin" x="42" y="9" onmousedown="handleZoom(evt,'out')"/>
                <use id="reset" xlink:href="#resetDef" x="30" y="36" onmousedown="handleReset()"/>
                <g id="arrowUp" xlink:href="#dirArrow" transform="translate(30 24)" onmousedown="handlePan(0,-1)">
                  <use xlink:href="#rim" fill="#404040">
                        <set attributeName="fill" to="#808080" begin="arrowUp.mouseover" end="arrowUp.mouseout"/>
                  </use>
                  <path fill="none" stroke="white" stroke-width="1.5" d="M0,-3.0v7 M-2.5,-0.5L0,-3.0L2.5,-0.5"/>
                </g>
                <g id="arrowRight" xlink:href="#dirArrow" transform="rotate(90) translate(36 -43)" onmousedown="handlePan(1,0)">
                  <use xlink:href="#rim" fill="#404040">
                        <set attributeName="fill" to="#808080" begin="arrowRight.mouseover" end="arrowRight.mouseout"/>
                  </use>
                  <path fill="none" stroke="white" stroke-width="1.5" d="M0,-3.0v7 M-2.5,-0.5L0,-3.0L2.5,-0.5"/>
                </g>
                <g id="arrowDown" xlink:href="#dirArrow" transform="rotate(180) translate(-30 -48)" onmousedown="handlePan(0,1)">
                  <use xlink:href="#rim" fill="#404040">
                        <set attributeName="fill" to="#808080" begin="arrowDown.mouseover" end="arrowDown.mouseout"/>
                  </use>
                  <path fill="none" stroke="white" stroke-width="1.5" d="M0,-3.0v7 M-2.5,-0.5L0,-3.0L2.5,-0.5"/>
                </g>
                <g id="arrowLeft" xlink:href="#dirArrow" transform="rotate(270) translate(-36 17)" onmousedown="handlePan(-1,0)">
                  <use xlink:href="#rim" fill="#404040">
                        <set attributeName="fill" to="#808080" begin="arrowLeft.mouseover" end="arrowLeft.mouseout"/>
                  </use>
                  <path fill="none" stroke="white" stroke-width="1.5" d="M0,-3.0v7 M-2.5,-0.5L0,-3.0L2.5,-0.5"/>
                </g>
        </g>
        <svg viewBox="0 0 15 15" width="100%" height="30px" preserveAspectRatio="xMaxYMin meet">
         <g id="arrow_out" transform="scale(0.3 0.3)">
          <a xlink:href="functional_2base_8hpp__dep__incl_org.svg" target="_base">
           <rect id="button" ry="5" rx="5" y="6" x="6" height="38" width="38"
                fill="#f2f5e9" fill-opacity="0.5" stroke="#606060" stroke-width="1.0"/>
           <path id="arrow"
             d="M 11.500037,31.436501 C 11.940474,20.09759 22.043105,11.32322 32.158766,21.979434 L 37.068811,17.246167 C 37.068811,17.246167 37.088388,32 37.088388,32 L 22.160133,31.978069 C 22.160133,31.978069 26.997745,27.140456 26.997745,27.140456 C 18.528582,18.264221 13.291696,25.230495 11.500037,31.436501 z"
             style="fill:#404040;"/>
          </a>
         </g>
        </svg>
</svg>
