<?xml version="1.0" encoding="UTF-8" standalone="no"?>
<!DOCTYPE svg PUBLIC "-//W3C//DTD SVG 1.1//EN"
 "http://www.w3.org/Graphics/SVG/1.1/DTD/svg11.dtd">
<!-- Generated by graphviz version 2.43.0 (0)
 -->
<!-- Title: /home/runner/work/Simple&#45;Utility/Simple&#45;Utility/include/Simple&#45;Utility/functional/base.hpp Pages: 1 -->
<!--zoomable 506 -->
<svg id="main" version="1.1" xmlns="http://www.w3.org/2000/svg" xmlns:xlink="http://www.w3.org/1999/xlink" xml:space="preserve" onload="init(evt)">
<style type="text/css"><![CDATA[
.edge:hover path { stroke: red; }
.edge:hover polygon { stroke: red; fill: red; }
]]></style>
<script type="text/javascript"><![CDATA[
var edges = document.getElementsByTagName('g');
if (edges && edges.length) {
  for (var i=0;i<edges.length;i++) {
    if (edges[i].id.substr(0,4)=='edge') {
      edges[i].setAttribute('class','edge');
    }
  }
}
]]></script>
        <defs>
                <circle id="rim" cx="0" cy="0" r="7"/>
                <circle id="rim2" cx="0" cy="0" r="3.5"/>
                <g id="zoomPlus">
                        <use xlink:href="#rim" fill="#404040">
                                <set attributeName="fill" to="#808080" begin="zoomplus.mouseover" end="zoomplus.mouseout"/>
                        </use>
                        <path d="M-4,0h8M0,-4v8" fill="none" stroke="white" stroke-width="1.5" pointer-events="none"/>
                </g>
                <g id="zoomMin">
                        <use xlink:href="#rim" fill="#404040">
                                <set attributeName="fill" to="#808080" begin="zoomminus.mouseover" end="zoomminus.mouseout"/>
                        </use>
                        <path d="M-4,0h8" fill="none" stroke="white" stroke-width="1.5" pointer-events="none"/>
                </g>
                <g id="dirArrow">
                        <path fill="none" stroke="white" stroke-width="1.5" d="M0,-3.0v7 M-2.5,-0.5L0,-3.0L2.5,-0.5"/>
                </g>
               <g id="resetDef">
                       <use xlink:href="#rim2" fill="#404040">
                               <set attributeName="fill" to="#808080" begin="reset.mouseover" end="reset.mouseout"/>
                       </use>
               </g>
        </defs>

<script type="text/javascript">
var viewWidth = 2639;
var viewHeight = 506;
var sectionId = 'dynsection-1';
</script>
<script xlink:href="../../svgpan.js"/>
<svg id="graph" class="graph">
<g id="viewport">
<title>/home/runner/work/Simple&#45;Utility/Simple&#45;Utility/include/Simple&#45;Utility/functional/base.hpp</title>
<polygon fill="white" stroke="transparent" points="-4,4 -4,-502 2634.5,-502 2634.5,4 -4,4"/>
<!-- Node1 -->
<g id="node1" class="node">
<title>Node1</title>
<g id="a_node1"><a xlink:title=" ">
<polygon fill="#bfbfbf" stroke="black" points="1764,-445.5 1764,-497.5 1910,-497.5 1910,-445.5 1764,-445.5"/>
<text text-anchor="start" x="1772" y="-485.5" font-family="Helvetica,sans-Serif" font-size="10.00">/home/runner/work/Simple</text>
<text text-anchor="start" x="1772" y="-474.5" font-family="Helvetica,sans-Serif" font-size="10.00">&#45;Utility/Simple&#45;Utility</text>
<text text-anchor="start" x="1772" y="-463.5" font-family="Helvetica,sans-Serif" font-size="10.00">/include/Simple&#45;Utility</text>
<text text-anchor="middle" x="1837" y="-452.5" font-family="Helvetica,sans-Serif" font-size="10.00">/functional/base.hpp</text>
</a>
</g>
</g>
<!-- Node2 -->
<g id="node2" class="node">
<title>Node2</title>
<g id="a_node2"><a xlink:href="../../d9/d76/bind_8hpp.html" target="_top" xlink:title=" ">
<polygon fill="white" stroke="black" points="1569.5,-267.5 1569.5,-319.5 1732.5,-319.5 1732.5,-267.5 1569.5,-267.5"/>
<text text-anchor="start" x="1577.5" y="-307.5" font-family="Helvetica,sans-Serif" font-size="10.00">/home/runner/work/Simple</text>
<text text-anchor="start" x="1577.5" y="-296.5" font-family="Helvetica,sans-Serif" font-size="10.00">&#45;Utility/Simple&#45;Utility</text>
<text text-anchor="start" x="1577.5" y="-285.5" font-family="Helvetica,sans-Serif" font-size="10.00">/include/Simple&#45;Utility</text>
<text text-anchor="middle" x="1651" y="-274.5" font-family="Helvetica,sans-Serif" font-size="10.00">/functional/operators/bind.hpp</text>
</a>
</g>
</g>
<!-- Node1&#45;&gt;Node2 -->
<g id="edge1" class="edge">
<title>Node1&#45;&gt;Node2</title>
<path fill="none" stroke="midnightblue" d="M1787.05,-439.92C1773.49,-430.69 1759.19,-420.05 1747,-409 1716.63,-381.48 1687.18,-344.31 1669.08,-319.89"/>
<polygon fill="midnightblue" stroke="midnightblue" points="1785.11,-442.84 1795.37,-445.48 1789,-437.01 1785.11,-442.84"/>
</g>
<!-- Node3 -->
<g id="node3" class="node">
<title>Node3</title>
<g id="a_node3"><a xlink:href="../../d2/d7e/predicate_8hpp.html" target="_top" xlink:title=" ">
<polygon fill="white" stroke="black" points="2200,-178.5 2200,-230.5 2346,-230.5 2346,-178.5 2200,-178.5"/>
<text text-anchor="start" x="2208" y="-218.5" font-family="Helvetica,sans-Serif" font-size="10.00">/home/runner/work/Simple</text>
<text text-anchor="start" x="2208" y="-207.5" font-family="Helvetica,sans-Serif" font-size="10.00">&#45;Utility/Simple&#45;Utility</text>
<text text-anchor="start" x="2208" y="-196.5" font-family="Helvetica,sans-Serif" font-size="10.00">/include/Simple&#45;Utility</text>
<text text-anchor="middle" x="2273" y="-185.5" font-family="Helvetica,sans-Serif" font-size="10.00">/functional/predicate.hpp</text>
</a>
</g>
</g>
<!-- Node1&#45;&gt;Node3 -->
<g id="edge55" class="edge">
<title>Node1&#45;&gt;Node3</title>
<path fill="none" stroke="midnightblue" d="M1920.32,-468.02C2076.82,-462.49 2402.09,-446.56 2436,-409 2491.58,-347.42 2384.07,-269.73 2318.47,-230.54"/>
<polygon fill="midnightblue" stroke="midnightblue" points="1920.13,-464.52 1910.26,-468.37 1920.37,-471.52 1920.13,-464.52"/>
</g>
<!-- Node5 -->
<g id="node5" class="node">
<title>Node5</title>
<g id="a_node5"><a xlink:href="../../d2/db4/functional_8hpp.html" target="_top" xlink:title=" ">
<polygon fill="white" stroke="black" points="1909,-0.5 1909,-52.5 2055,-52.5 2055,-0.5 1909,-0.5"/>
<text text-anchor="start" x="1917" y="-40.5" font-family="Helvetica,sans-Serif" font-size="10.00">/home/runner/work/Simple</text>
<text text-anchor="start" x="1917" y="-29.5" font-family="Helvetica,sans-Serif" font-size="10.00">&#45;Utility/Simple&#45;Utility</text>
<text text-anchor="start" x="1917" y="-18.5" font-family="Helvetica,sans-Serif" font-size="10.00">/include/Simple&#45;Utility</text>
<text text-anchor="middle" x="1982" y="-7.5" font-family="Helvetica,sans-Serif" font-size="10.00">/functional.hpp</text>
</a>
</g>
</g>
<!-- Node1&#45;&gt;Node5 -->
<g id="edge57" class="edge">
<title>Node1&#45;&gt;Node5</title>
<path fill="none" stroke="midnightblue" d="M1819.53,-435.89C1816.01,-427.31 1812.82,-418 1811,-409 1798.45,-347.07 1795.8,-326.16 1818,-267 1842.33,-202.17 1872.05,-199.25 1911,-142 1931.39,-112.02 1953.12,-76.37 1967.09,-52.91"/>
<polygon fill="midnightblue" stroke="midnightblue" points="1816.39,-437.44 1823.61,-445.2 1822.81,-434.64 1816.39,-437.44"/>
</g>
<!-- Node6 -->
<g id="node6" class="node">
<title>Node6</title>
<g id="a_node6"><a xlink:href="../../d6/deb/transform_8hpp.html" target="_top" xlink:title=" ">
<polygon fill="white" stroke="black" points="1461,-178.5 1461,-230.5 1607,-230.5 1607,-178.5 1461,-178.5"/>
<text text-anchor="start" x="1469" y="-218.5" font-family="Helvetica,sans-Serif" font-size="10.00">/home/runner/work/Simple</text>
<text text-anchor="start" x="1469" y="-207.5" font-family="Helvetica,sans-Serif" font-size="10.00">&#45;Utility/Simple&#45;Utility</text>
<text text-anchor="start" x="1469" y="-196.5" font-family="Helvetica,sans-Serif" font-size="10.00">/include/Simple&#45;Utility</text>
<text text-anchor="middle" x="1534" y="-185.5" font-family="Helvetica,sans-Serif" font-size="10.00">/functional/transform.hpp</text>
</a>
</g>
</g>
<!-- Node1&#45;&gt;Node6 -->
<g id="edge56" class="edge">
<title>Node1&#45;&gt;Node6</title>
<path fill="none" stroke="midnightblue" d="M1754.33,-447.9C1690.65,-425.99 1605.97,-386.15 1560,-320 1541.5,-293.38 1535.95,-255.66 1534.4,-230.9"/>
<polygon fill="midnightblue" stroke="midnightblue" points="1753.37,-451.27 1763.97,-451.13 1755.6,-444.63 1753.37,-451.27"/>
</g>
<!-- Node15 -->
<g id="node15" class="node">
<title>Node15</title>
<g id="a_node15"><a xlink:href="../../d6/dbe/nullables_2base_8hpp.html" target="_top" xlink:title=" ">
<polygon fill="white" stroke="black" points="698,-178.5 698,-230.5 844,-230.5 844,-178.5 698,-178.5"/>
<text text-anchor="start" x="706" y="-218.5" font-family="Helvetica,sans-Serif" font-size="10.00">/home/runner/work/Simple</text>
<text text-anchor="start" x="706" y="-207.5" font-family="Helvetica,sans-Serif" font-size="10.00">&#45;Utility/Simple&#45;Utility</text>
<text text-anchor="start" x="706" y="-196.5" font-family="Helvetica,sans-Serif" font-size="10.00">/include/Simple&#45;Utility</text>
<text text-anchor="middle" x="771" y="-185.5" font-family="Helvetica,sans-Serif" font-size="10.00">/nullables/base.hpp</text>
</a>
</g>
</g>
<!-- Node1&#45;&gt;Node15 -->
<g id="edge58" class="edge">
<title>Node1&#45;&gt;Node15</title>
<path fill="none" stroke="midnightblue" d="M1754.18,-450.09C1705.74,-438.14 1643.39,-422.74 1588,-409 1313.47,-340.91 987.18,-259.49 844.22,-223.79"/>
<polygon fill="midnightblue" stroke="midnightblue" points="1753.44,-453.51 1763.99,-452.51 1755.12,-446.71 1753.44,-453.51"/>
</g>
<!-- Node20 -->
<g id="node20" class="node">
<title>Node20</title>
<g id="a_node20"><a xlink:href="../../df/d80/conjunction_8hpp.html" target="_top" xlink:title=" ">
<polygon fill="white" stroke="black" points="1827,-267.5 1827,-319.5 2025,-319.5 2025,-267.5 1827,-267.5"/>
<text text-anchor="start" x="1835" y="-307.5" font-family="Helvetica,sans-Serif" font-size="10.00">/home/runner/work/Simple</text>
<text text-anchor="start" x="1835" y="-296.5" font-family="Helvetica,sans-Serif" font-size="10.00">&#45;Utility/Simple&#45;Utility</text>
<text text-anchor="start" x="1835" y="-285.5" font-family="Helvetica,sans-Serif" font-size="10.00">/include/Simple&#45;Utility</text>
<text text-anchor="middle" x="1926" y="-274.5" font-family="Helvetica,sans-Serif" font-size="10.00">/functional/operators/conjunction.hpp</text>
</a>
</g>
</g>
<!-- Node1&#45;&gt;Node20 -->
<g id="edge37" class="edge">
<title>Node1&#45;&gt;Node20</title>
<path fill="none" stroke="midnightblue" d="M1822.16,-435.39C1814.51,-411.54 1809.33,-380.08 1823,-356 1831.74,-340.6 1846.03,-328.65 1861.22,-319.55"/>
<polygon fill="midnightblue" stroke="midnightblue" points="1818.95,-436.81 1825.55,-445.11 1825.56,-434.51 1818.95,-436.81"/>
</g>
<!-- Node21 -->
<g id="node21" class="node">
<title>Node21</title>
<g id="a_node21"><a xlink:href="../../d4/d7c/disjunction_8hpp.html" target="_top" xlink:title=" ">
<polygon fill="white" stroke="black" points="2043.5,-267.5 2043.5,-319.5 2238.5,-319.5 2238.5,-267.5 2043.5,-267.5"/>
<text text-anchor="start" x="2051.5" y="-307.5" font-family="Helvetica,sans-Serif" font-size="10.00">/home/runner/work/Simple</text>
<text text-anchor="start" x="2051.5" y="-296.5" font-family="Helvetica,sans-Serif" font-size="10.00">&#45;Utility/Simple&#45;Utility</text>
<text text-anchor="start" x="2051.5" y="-285.5" font-family="Helvetica,sans-Serif" font-size="10.00">/include/Simple&#45;Utility</text>
<text text-anchor="middle" x="2141" y="-274.5" font-family="Helvetica,sans-Serif" font-size="10.00">/functional/operators/disjunction.hpp</text>
</a>
</g>
</g>
<!-- Node1&#45;&gt;Node21 -->
<g id="edge40" class="edge">
<title>Node1&#45;&gt;Node21</title>
<path fill="none" stroke="midnightblue" d="M1832.76,-434.74C1831.87,-409.49 1835.26,-376.59 1855,-356 1911.15,-297.41 1954.74,-337.41 2034,-320 2037.08,-319.32 2040.2,-318.63 2043.36,-317.92"/>
<polygon fill="midnightblue" stroke="midnightblue" points="1829.29,-435.27 1833.38,-445.04 1836.28,-434.85 1829.29,-435.27"/>
</g>
<!-- Node22 -->
<g id="node22" class="node">
<title>Node22</title>
<g id="a_node22"><a xlink:href="../../dc/d0a/equal_8hpp.html" target="_top" xlink:title=" ">
<polygon fill="white" stroke="black" points="1864.5,-356.5 1864.5,-408.5 2033.5,-408.5 2033.5,-356.5 1864.5,-356.5"/>
<text text-anchor="start" x="1872.5" y="-396.5" font-family="Helvetica,sans-Serif" font-size="10.00">/home/runner/work/Simple</text>
<text text-anchor="start" x="1872.5" y="-385.5" font-family="Helvetica,sans-Serif" font-size="10.00">&#45;Utility/Simple&#45;Utility</text>
<text text-anchor="start" x="1872.5" y="-374.5" font-family="Helvetica,sans-Serif" font-size="10.00">/include/Simple&#45;Utility</text>
<text text-anchor="middle" x="1949" y="-363.5" font-family="Helvetica,sans-Serif" font-size="10.00">/functional/operators/equal.hpp</text>
</a>
</g>
</g>
<!-- Node1&#45;&gt;Node22 -->
<g id="edge43" class="edge">
<title>Node1&#45;&gt;Node22</title>
<path fill="none" stroke="midnightblue" d="M1877.64,-438.93C1890.48,-428.96 1904.5,-418.07 1916.68,-408.61"/>
<polygon fill="midnightblue" stroke="midnightblue" points="1875.15,-436.44 1869.4,-445.34 1879.44,-441.97 1875.15,-436.44"/>
</g>
<!-- Node23 -->
<g id="node23" class="node">
<title>Node23</title>
<g id="a_node23"><a xlink:href="../../d7/dd0/equivalent_8hpp.html" target="_top" xlink:title=" ">
<polygon fill="white" stroke="black" points="2051,-356.5 2051,-408.5 2245,-408.5 2245,-356.5 2051,-356.5"/>
<text text-anchor="start" x="2059" y="-396.5" font-family="Helvetica,sans-Serif" font-size="10.00">/home/runner/work/Simple</text>
<text text-anchor="start" x="2059" y="-385.5" font-family="Helvetica,sans-Serif" font-size="10.00">&#45;Utility/Simple&#45;Utility</text>
<text text-anchor="start" x="2059" y="-374.5" font-family="Helvetica,sans-Serif" font-size="10.00">/include/Simple&#45;Utility</text>
<text text-anchor="middle" x="2148" y="-363.5" font-family="Helvetica,sans-Serif" font-size="10.00">/functional/operators/equivalent.hpp</text>
</a>
</g>
</g>
<!-- Node1&#45;&gt;Node23 -->
<g id="edge45" class="edge">
<title>Node1&#45;&gt;Node23</title>
<path fill="none" stroke="midnightblue" d="M1920.11,-447.25C1962.83,-435.3 2014.94,-420.72 2058.54,-408.53"/>
<polygon fill="midnightblue" stroke="midnightblue" points="1919,-443.93 1910.31,-449.99 1920.88,-450.67 1919,-443.93"/>
</g>
<!-- Node24 -->
<g id="node24" class="node">
<title>Node24</title>
<g id="a_node24"><a xlink:href="../../d8/dea/negation_8hpp.html" target="_top" xlink:title=" ">
<polygon fill="white" stroke="black" points="2445.5,-267.5 2445.5,-319.5 2630.5,-319.5 2630.5,-267.5 2445.5,-267.5"/>
<text text-anchor="start" x="2453.5" y="-307.5" font-family="Helvetica,sans-Serif" font-size="10.00">/home/runner/work/Simple</text>
<text text-anchor="start" x="2453.5" y="-296.5" font-family="Helvetica,sans-Serif" font-size="10.00">&#45;Utility/Simple&#45;Utility</text>
<text text-anchor="start" x="2453.5" y="-285.5" font-family="Helvetica,sans-Serif" font-size="10.00">/include/Simple&#45;Utility</text>
<text text-anchor="middle" x="2538" y="-274.5" font-family="Helvetica,sans-Serif" font-size="10.00">/functional/operators/negation.hpp</text>
</a>
</g>
</g>
<!-- Node1&#45;&gt;Node24 -->
<g id="edge47" class="edge">
<title>Node1&#45;&gt;Node24</title>
<path fill="none" stroke="midnightblue" d="M1920.2,-471.48C2070.44,-471.79 2379.73,-465.31 2469,-409 2501.39,-388.57 2520.69,-346.91 2530.32,-319.87"/>
<polygon fill="midnightblue" stroke="midnightblue" points="1920.11,-467.98 1910.1,-471.45 1920.09,-474.98 1920.11,-467.98"/>
</g>
<!-- Node25 -->
<g id="node25" class="node">
<title>Node25</title>
<g id="a_node25"><a xlink:href="../../d5/db7/pipe_8hpp.html" target="_top" xlink:title=" ">
<polygon fill="white" stroke="black" points="2263.5,-356.5 2263.5,-408.5 2426.5,-408.5 2426.5,-356.5 2263.5,-356.5"/>
<text text-anchor="start" x="2271.5" y="-396.5" font-family="Helvetica,sans-Serif" font-size="10.00">/home/runner/work/Simple</text>
<text text-anchor="start" x="2271.5" y="-385.5" font-family="Helvetica,sans-Serif" font-size="10.00">&#45;Utility/Simple&#45;Utility</text>
<text text-anchor="start" x="2271.5" y="-374.5" font-family="Helvetica,sans-Serif" font-size="10.00">/include/Simple&#45;Utility</text>
<text text-anchor="middle" x="2345" y="-363.5" font-family="Helvetica,sans-Serif" font-size="10.00">/functional/operators/pipe.hpp</text>
</a>
</g>
</g>
<!-- Node1&#45;&gt;Node25 -->
<g id="edge50" class="edge">
<title>Node1&#45;&gt;Node25</title>
<path fill="none" stroke="midnightblue" d="M1920.25,-461.37C2004.82,-451.37 2139.31,-433.42 2254,-409 2257.05,-408.35 2260.15,-407.66 2263.27,-406.93"/>
<polygon fill="midnightblue" stroke="midnightblue" points="1919.72,-457.91 1910.19,-462.55 1920.53,-464.86 1919.72,-457.91"/>
</g>
<!-- Node2&#45;&gt;Node3 -->
<g id="edge2" class="edge">
<title>Node2&#45;&gt;Node3</title>
<path fill="none" stroke="midnightblue" d="M1742.51,-278.24C1767.02,-274.5 1793.51,-270.53 1818,-267 1952.52,-247.64 2109.68,-226.79 2199.66,-215.02"/>
<polygon fill="midnightblue" stroke="midnightblue" points="1741.86,-274.8 1732.5,-279.77 1742.92,-281.72 1741.86,-274.8"/>
</g>
<!-- Node2&#45;&gt;Node5 -->
<g id="edge23" class="edge">
<title>Node2&#45;&gt;Node5</title>
<path fill="none" stroke="midnightblue" d="M1705.22,-262.31C1752.72,-234.47 1822.2,-190.25 1875,-142 1897.39,-121.54 1897.47,-111.33 1918,-89 1929.47,-76.52 1942.9,-63.41 1954.49,-52.52"/>
<polygon fill="midnightblue" stroke="midnightblue" points="1703.21,-259.44 1696.32,-267.49 1706.73,-265.49 1703.21,-259.44"/>
</g>
<!-- Node2&#45;&gt;Node6 -->
<g id="edge6" class="edge">
<title>Node2&#45;&gt;Node6</title>
<path fill="none" stroke="midnightblue" d="M1608.93,-261.22C1595.41,-251.16 1580.61,-240.16 1567.77,-230.61"/>
<polygon fill="midnightblue" stroke="midnightblue" points="1607.05,-264.18 1617.16,-267.34 1611.22,-258.56 1607.05,-264.18"/>
</g>
<!-- Node2&#45;&gt;Node15 -->
<g id="edge24" class="edge">
<title>Node2&#45;&gt;Node15</title>
<path fill="none" stroke="midnightblue" d="M1559.42,-283.45C1384.02,-266.1 1003.94,-228.53 844.13,-212.73"/>
<polygon fill="midnightblue" stroke="midnightblue" points="1559.1,-286.93 1569.4,-284.43 1559.79,-279.97 1559.1,-286.93"/>
</g>
<!-- Node4 -->
<g id="node4" class="node">
<title>Node4</title>
<g id="a_node4"><a xlink:href="../../dd/d3f/compare_8hpp.html" target="_top" xlink:title=" ">
<polygon fill="white" stroke="black" points="1960,-89.5 1960,-141.5 2106,-141.5 2106,-89.5 1960,-89.5"/>
<text text-anchor="start" x="1968" y="-129.5" font-family="Helvetica,sans-Serif" font-size="10.00">/home/runner/work/Simple</text>
<text text-anchor="start" x="1968" y="-118.5" font-family="Helvetica,sans-Serif" font-size="10.00">&#45;Utility/Simple&#45;Utility</text>
<text text-anchor="start" x="1968" y="-107.5" font-family="Helvetica,sans-Serif" font-size="10.00">/include/Simple&#45;Utility</text>
<text text-anchor="middle" x="2033" y="-96.5" font-family="Helvetica,sans-Serif" font-size="10.00">/functional/compare.hpp</text>
</a>
</g>
</g>
<!-- Node3&#45;&gt;Node4 -->
<g id="edge3" class="edge">
<title>Node3&#45;&gt;Node4</title>
<path fill="none" stroke="midnightblue" d="M2194.37,-175C2164.57,-164.19 2130.88,-151.98 2102.02,-141.52"/>
<polygon fill="midnightblue" stroke="midnightblue" points="2193.31,-178.34 2203.9,-178.45 2195.7,-171.75 2193.31,-178.34"/>
</g>
<!-- Node3&#45;&gt;Node5 -->
<g id="edge5" class="edge">
<title>Node3&#45;&gt;Node5</title>
<path fill="none" stroke="midnightblue" d="M2255.14,-169.66C2239.96,-144.02 2215.9,-109.76 2186,-89 2147.26,-62.1 2096.51,-46.74 2055.31,-38.1"/>
<polygon fill="midnightblue" stroke="midnightblue" points="2252.11,-171.41 2260.13,-178.34 2258.18,-167.92 2252.11,-171.41"/>
</g>
<!-- Node4&#45;&gt;Node5 -->
<g id="edge4" class="edge">
<title>Node4&#45;&gt;Node5</title>
<path fill="none" stroke="midnightblue" d="M2013.15,-80.64C2007.68,-71.31 2001.84,-61.35 1996.72,-52.61"/>
<polygon fill="midnightblue" stroke="midnightblue" points="2010.17,-82.48 2018.25,-89.34 2016.21,-78.94 2010.17,-82.48"/>
</g>
<!-- Node6&#45;&gt;Node4 -->
<g id="edge9" class="edge">
<title>Node6&#45;&gt;Node4</title>
<path fill="none" stroke="midnightblue" d="M1617.02,-189.03C1712.67,-172.35 1868.37,-145.2 1959.71,-129.28"/>
<polygon fill="midnightblue" stroke="midnightblue" points="1616.34,-185.59 1607.09,-190.76 1617.55,-192.49 1616.34,-185.59"/>
</g>
<!-- Node6&#45;&gt;Node5 -->
<g id="edge14" class="edge">
<title>Node6&#45;&gt;Node5</title>
<path fill="none" stroke="midnightblue" d="M1527.71,-168.39C1525.32,-142.95 1527.01,-109.54 1547,-89 1595.8,-38.84 1798.14,-28.99 1908.84,-27.44"/>
<polygon fill="midnightblue" stroke="midnightblue" points="1524.25,-168.88 1528.9,-178.4 1531.2,-168.06 1524.25,-168.88"/>
</g>
<!-- Node7 -->
<g id="node7" class="node">
<title>Node7</title>
<g id="a_node7"><a xlink:href="../../d3/d23/arithmetic_8hpp.html" target="_top" xlink:title=" ">
<polygon fill="white" stroke="black" points="1556,-89.5 1556,-141.5 1702,-141.5 1702,-89.5 1556,-89.5"/>
<text text-anchor="start" x="1564" y="-129.5" font-family="Helvetica,sans-Serif" font-size="10.00">/home/runner/work/Simple</text>
<text text-anchor="start" x="1564" y="-118.5" font-family="Helvetica,sans-Serif" font-size="10.00">&#45;Utility/Simple&#45;Utility</text>
<text text-anchor="start" x="1564" y="-107.5" font-family="Helvetica,sans-Serif" font-size="10.00">/include/Simple&#45;Utility</text>
<text text-anchor="middle" x="1629" y="-96.5" font-family="Helvetica,sans-Serif" font-size="10.00">/functional/arithmetic.hpp</text>
</a>
</g>
</g>
<!-- Node6&#45;&gt;Node7 -->
<g id="edge7" class="edge">
<title>Node6&#45;&gt;Node7</title>
<path fill="none" stroke="midnightblue" d="M1569.09,-171.36C1579.82,-161.54 1591.45,-150.89 1601.58,-141.61"/>
<polygon fill="midnightblue" stroke="midnightblue" points="1566.49,-169 1561.48,-178.34 1571.22,-174.16 1566.49,-169"/>
</g>
<!-- Node8 -->
<g id="node8" class="node">
<title>Node8</title>
<g id="a_node8"><a xlink:href="../../d9/d5f/functional_2tuple_8hpp.html" target="_top" xlink:title=" ">
<polygon fill="white" stroke="black" points="1720,-89.5 1720,-141.5 1866,-141.5 1866,-89.5 1720,-89.5"/>
<text text-anchor="start" x="1728" y="-129.5" font-family="Helvetica,sans-Serif" font-size="10.00">/home/runner/work/Simple</text>
<text text-anchor="start" x="1728" y="-118.5" font-family="Helvetica,sans-Serif" font-size="10.00">&#45;Utility/Simple&#45;Utility</text>
<text text-anchor="start" x="1728" y="-107.5" font-family="Helvetica,sans-Serif" font-size="10.00">/include/Simple&#45;Utility</text>
<text text-anchor="middle" x="1793" y="-96.5" font-family="Helvetica,sans-Serif" font-size="10.00">/functional/tuple.hpp</text>
</a>
</g>
</g>
<!-- Node6&#45;&gt;Node8 -->
<g id="edge10" class="edge">
<title>Node6&#45;&gt;Node8</title>
<path fill="none" stroke="midnightblue" d="M1616.81,-175.68C1649.83,-164.59 1687.52,-151.93 1719.55,-141.17"/>
<polygon fill="midnightblue" stroke="midnightblue" points="1615.55,-172.42 1607.18,-178.92 1617.77,-179.05 1615.55,-172.42"/>
</g>
<!-- Node9 -->
<g id="node9" class="node">
<title>Node9</title>
<g id="a_node9"><a xlink:href="../../df/d4e/functional_2utility_8hpp.html" target="_top" xlink:title=" ">
<polygon fill="white" stroke="black" points="1354,-89.5 1354,-141.5 1500,-141.5 1500,-89.5 1354,-89.5"/>
<text text-anchor="start" x="1362" y="-129.5" font-family="Helvetica,sans-Serif" font-size="10.00">/home/runner/work/Simple</text>
<text text-anchor="start" x="1362" y="-118.5" font-family="Helvetica,sans-Serif" font-size="10.00">&#45;Utility/Simple&#45;Utility</text>
<text text-anchor="start" x="1362" y="-107.5" font-family="Helvetica,sans-Serif" font-size="10.00">/include/Simple&#45;Utility</text>
<text text-anchor="middle" x="1427" y="-96.5" font-family="Helvetica,sans-Serif" font-size="10.00">/functional/utility.hpp</text>
</a>
</g>
</g>
<!-- Node6&#45;&gt;Node9 -->
<g id="edge12" class="edge">
<title>Node6&#45;&gt;Node9</title>
<path fill="none" stroke="midnightblue" d="M1495.18,-171.93C1482.91,-161.96 1469.52,-151.07 1457.88,-141.61"/>
<polygon fill="midnightblue" stroke="midnightblue" points="1493.08,-174.74 1503.05,-178.34 1497.5,-169.31 1493.08,-174.74"/>
</g>
<!-- Node10 -->
<g id="node10" class="node">
<title>Node10</title>
<g id="a_node10"><a xlink:href="../../d4/dc9/and__then_8hpp.html" target="_top" xlink:title=" ">
<polygon fill="white" stroke="black" points="698,-89.5 698,-141.5 844,-141.5 844,-89.5 698,-89.5"/>
<text text-anchor="start" x="706" y="-129.5" font-family="Helvetica,sans-Serif" font-size="10.00">/home/runner/work/Simple</text>
<text text-anchor="start" x="706" y="-118.5" font-family="Helvetica,sans-Serif" font-size="10.00">&#45;Utility/Simple&#45;Utility</text>
<text text-anchor="start" x="706" y="-107.5" font-family="Helvetica,sans-Serif" font-size="10.00">/include/Simple&#45;Utility</text>
<text text-anchor="middle" x="771" y="-96.5" font-family="Helvetica,sans-Serif" font-size="10.00">/nullables/and_then.hpp</text>
</a>
</g>
</g>
<!-- Node6&#45;&gt;Node10 -->
<g id="edge15" class="edge">
<title>Node6&#45;&gt;Node10</title>
<path fill="none" stroke="midnightblue" d="M1450.76,-201.64C1321.62,-197.48 1065.71,-184.19 853,-142 850.08,-141.42 847.11,-140.77 844.12,-140.08"/>
<polygon fill="midnightblue" stroke="midnightblue" points="1450.86,-205.14 1460.97,-201.95 1451.08,-198.14 1450.86,-205.14"/>
</g>
<!-- Node12 -->
<g id="node12" class="node">
<title>Node12</title>
<g id="a_node12"><a xlink:href="../../d7/d5f/fwd__value_8hpp.html" target="_top" xlink:title=" ">
<polygon fill="white" stroke="black" points="862,-89.5 862,-141.5 1008,-141.5 1008,-89.5 862,-89.5"/>
<text text-anchor="start" x="870" y="-129.5" font-family="Helvetica,sans-Serif" font-size="10.00">/home/runner/work/Simple</text>
<text text-anchor="start" x="870" y="-118.5" font-family="Helvetica,sans-Serif" font-size="10.00">&#45;Utility/Simple&#45;Utility</text>
<text text-anchor="start" x="870" y="-107.5" font-family="Helvetica,sans-Serif" font-size="10.00">/include/Simple&#45;Utility</text>
<text text-anchor="middle" x="935" y="-96.5" font-family="Helvetica,sans-Serif" font-size="10.00">/nullables/fwd_value.hpp</text>
</a>
</g>
</g>
<!-- Node6&#45;&gt;Node12 -->
<g id="edge17" class="edge">
<title>Node6&#45;&gt;Node12</title>
<path fill="none" stroke="midnightblue" d="M1450.95,-198.32C1348.18,-190.84 1168.22,-174.22 1017,-142 1014.08,-141.38 1011.12,-140.7 1008.14,-139.97"/>
<polygon fill="midnightblue" stroke="midnightblue" points="1450.74,-201.82 1460.96,-199.04 1451.24,-194.83 1450.74,-201.82"/>
</g>
<!-- Node13 -->
<g id="node13" class="node">
<title>Node13</title>
<g id="a_node13"><a xlink:href="../../d2/d0e/or__else_8hpp.html" target="_top" xlink:title=" ">
<polygon fill="white" stroke="black" points="1026,-89.5 1026,-141.5 1172,-141.5 1172,-89.5 1026,-89.5"/>
<text text-anchor="start" x="1034" y="-129.5" font-family="Helvetica,sans-Serif" font-size="10.00">/home/runner/work/Simple</text>
<text text-anchor="start" x="1034" y="-118.5" font-family="Helvetica,sans-Serif" font-size="10.00">&#45;Utility/Simple&#45;Utility</text>
<text text-anchor="start" x="1034" y="-107.5" font-family="Helvetica,sans-Serif" font-size="10.00">/include/Simple&#45;Utility</text>
<text text-anchor="middle" x="1099" y="-96.5" font-family="Helvetica,sans-Serif" font-size="10.00">/nullables/or_else.hpp</text>
</a>
</g>
</g>
<!-- Node6&#45;&gt;Node13 -->
<g id="edge19" class="edge">
<title>Node6&#45;&gt;Node13</title>
<path fill="none" stroke="midnightblue" d="M1450.84,-192.11C1378.91,-181.52 1272.39,-164.07 1181,-142 1178.1,-141.3 1175.16,-140.55 1172.19,-139.77"/>
<polygon fill="midnightblue" stroke="midnightblue" points="1450.36,-195.57 1460.76,-193.56 1451.37,-188.65 1450.36,-195.57"/>
</g>
<!-- Node14 -->
<g id="node14" class="node">
<title>Node14</title>
<g id="a_node14"><a xlink:href="../../d0/d48/value__or_8hpp.html" target="_top" xlink:title=" ">
<polygon fill="white" stroke="black" points="1190,-89.5 1190,-141.5 1336,-141.5 1336,-89.5 1190,-89.5"/>
<text text-anchor="start" x="1198" y="-129.5" font-family="Helvetica,sans-Serif" font-size="10.00">/home/runner/work/Simple</text>
<text text-anchor="start" x="1198" y="-118.5" font-family="Helvetica,sans-Serif" font-size="10.00">&#45;Utility/Simple&#45;Utility</text>
<text text-anchor="start" x="1198" y="-107.5" font-family="Helvetica,sans-Serif" font-size="10.00">/include/Simple&#45;Utility</text>
<text text-anchor="middle" x="1263" y="-96.5" font-family="Helvetica,sans-Serif" font-size="10.00">/nullables/value_or.hpp</text>
</a>
</g>
</g>
<!-- Node6&#45;&gt;Node14 -->
<g id="edge21" class="edge">
<title>Node6&#45;&gt;Node14</title>
<path fill="none" stroke="midnightblue" d="M1451.01,-176.86C1414.43,-165.11 1371.8,-151.43 1336.4,-140.06"/>
<polygon fill="midnightblue" stroke="midnightblue" points="1450.07,-180.23 1460.66,-179.96 1452.21,-173.57 1450.07,-180.23"/>
</g>
<!-- Node7&#45;&gt;Node5 -->
<g id="edge8" class="edge">
<title>Node7&#45;&gt;Node5</title>
<path fill="none" stroke="midnightblue" d="M1711.94,-88.82C1784.06,-69.68 1856.47,-53.58 1908.87,-42.47"/>
<polygon fill="midnightblue" stroke="midnightblue" points="1710.99,-85.45 1702.23,-91.41 1712.8,-92.21 1710.99,-85.45"/>
</g>
<!-- Node8&#45;&gt;Node5 -->
<g id="edge11" class="edge">
<title>Node8&#45;&gt;Node5</title>
<path fill="none" stroke="midnightblue" d="M1856.75,-85.15C1879.77,-74.56 1905.51,-62.71 1927.64,-52.52"/>
<polygon fill="midnightblue" stroke="midnightblue" points="1855.03,-82.09 1847.41,-89.45 1857.96,-88.45 1855.03,-82.09"/>
</g>
<!-- Node9&#45;&gt;Node5 -->
<g id="edge13" class="edge">
<title>Node9&#45;&gt;Node5</title>
<path fill="none" stroke="midnightblue" d="M1510.21,-89.82C1511.48,-89.54 1512.74,-89.26 1514,-89 1652.12,-59.87 1816.25,-42.09 1908.85,-33.59"/>
<polygon fill="midnightblue" stroke="midnightblue" points="1509.3,-86.44 1500.37,-92.13 1510.9,-93.25 1509.3,-86.44"/>
</g>
<!-- Node11 -->
<g id="node11" class="node">
<title>Node11</title>
<g id="a_node11"><a xlink:href="../../d3/ddc/nullables_8hpp.html" target="_top" xlink:title=" ">
<polygon fill="white" stroke="black" points="566,-0.5 566,-52.5 712,-52.5 712,-0.5 566,-0.5"/>
<text text-anchor="start" x="574" y="-40.5" font-family="Helvetica,sans-Serif" font-size="10.00">/home/runner/work/Simple</text>
<text text-anchor="start" x="574" y="-29.5" font-family="Helvetica,sans-Serif" font-size="10.00">&#45;Utility/Simple&#45;Utility</text>
<text text-anchor="start" x="574" y="-18.5" font-family="Helvetica,sans-Serif" font-size="10.00">/include/Simple&#45;Utility</text>
<text text-anchor="middle" x="639" y="-7.5" font-family="Helvetica,sans-Serif" font-size="10.00">/nullables.hpp</text>
</a>
</g>
</g>
<!-- Node10&#45;&gt;Node11 -->
<g id="edge16" class="edge">
<title>Node10&#45;&gt;Node11</title>
<path fill="none" stroke="midnightblue" d="M724.4,-83.79C708.91,-73.58 691.86,-62.34 677.09,-52.61"/>
<polygon fill="midnightblue" stroke="midnightblue" points="722.54,-86.76 732.82,-89.34 726.4,-80.91 722.54,-86.76"/>
</g>
<!-- Node12&#45;&gt;Node11 -->
<g id="edge18" class="edge">
<title>Node12&#45;&gt;Node11</title>
<path fill="none" stroke="midnightblue" d="M852,-88.72C800.21,-73.28 751.34,-59.24 712.41,-48.17"/>
<polygon fill="midnightblue" stroke="midnightblue" points="851.12,-92.11 861.71,-91.62 853.13,-85.4 851.12,-92.11"/>
</g>
<!-- Node13&#45;&gt;Node11 -->
<g id="edge20" class="edge">
<title>Node13&#45;&gt;Node11</title>
<path fill="none" stroke="midnightblue" d="M1015.81,-88.85C904.96,-63.25 786.39,-45.94 712.06,-36.3"/>
<polygon fill="midnightblue" stroke="midnightblue" points="1015.29,-92.32 1025.82,-91.19 1016.88,-85.5 1015.29,-92.32"/>
</g>
<!-- Node14&#45;&gt;Node11 -->
<g id="edge22" class="edge">
<title>Node14&#45;&gt;Node11</title>
<path fill="none" stroke="midnightblue" d="M1179.87,-88.92C1007.82,-53.56 814.78,-37.87 712.02,-31.41"/>
<polygon fill="midnightblue" stroke="midnightblue" points="1179.36,-92.39 1189.86,-91.01 1180.79,-85.54 1179.36,-92.39"/>
</g>
<!-- Node15&#45;&gt;Node10 -->
<g id="edge27" class="edge">
<title>Node15&#45;&gt;Node10</title>
<path fill="none" stroke="midnightblue" d="M771,-168.19C771,-159.28 771,-149.9 771,-141.61"/>
<polygon fill="midnightblue" stroke="midnightblue" points="767.5,-168.34 771,-178.34 774.5,-168.34 767.5,-168.34"/>
</g>
<!-- Node15&#45;&gt;Node11 -->
<g id="edge35" class="edge">
<title>Node15&#45;&gt;Node11</title>
<path fill="none" stroke="midnightblue" d="M687.7,-193.67C624.47,-184.29 545.09,-167.73 525,-142 510.5,-123.43 512.93,-109.23 525,-89 534.51,-73.07 549.73,-61.02 565.99,-52"/>
<polygon fill="midnightblue" stroke="midnightblue" points="687.3,-197.15 697.7,-195.11 688.3,-190.22 687.3,-197.15"/>
</g>
<!-- Node15&#45;&gt;Node12 -->
<g id="edge28" class="edge">
<title>Node15&#45;&gt;Node12</title>
<path fill="none" stroke="midnightblue" d="M827.3,-173.64C846.96,-163.2 868.81,-151.61 887.67,-141.61"/>
<polygon fill="midnightblue" stroke="midnightblue" points="825.63,-170.56 818.44,-178.34 828.91,-176.74 825.63,-170.56"/>
</g>
<!-- Node15&#45;&gt;Node13 -->
<g id="edge29" class="edge">
<title>Node15&#45;&gt;Node13</title>
<path fill="none" stroke="midnightblue" d="M854.2,-183.94C902.01,-172.39 963.08,-157.11 1017,-142 1019.87,-141.2 1022.79,-140.36 1025.74,-139.51"/>
<polygon fill="midnightblue" stroke="midnightblue" points="853.11,-180.6 844.21,-186.34 854.75,-187.41 853.11,-180.6"/>
</g>
<!-- Node15&#45;&gt;Node14 -->
<g id="edge34" class="edge">
<title>Node15&#45;&gt;Node14</title>
<path fill="none" stroke="midnightblue" d="M854.38,-194.77C937.72,-185.17 1069.2,-167.61 1181,-142 1183.91,-141.33 1186.86,-140.62 1189.83,-139.86"/>
<polygon fill="midnightblue" stroke="midnightblue" points="853.75,-191.32 844.21,-195.93 854.54,-198.28 853.75,-191.32"/>
</g>
<!-- Node16 -->
<g id="node16" class="node">
<title>Node16</title>
<g id="a_node16"><a xlink:href="../../d6/dca/adapter_8hpp.html" target="_top" xlink:title=" ">
<polygon fill="white" stroke="black" points="0,-89.5 0,-141.5 146,-141.5 146,-89.5 0,-89.5"/>
<text text-anchor="start" x="8" y="-129.5" font-family="Helvetica,sans-Serif" font-size="10.00">/home/runner/work/Simple</text>
<text text-anchor="start" x="8" y="-118.5" font-family="Helvetica,sans-Serif" font-size="10.00">&#45;Utility/Simple&#45;Utility</text>
<text text-anchor="start" x="8" y="-107.5" font-family="Helvetica,sans-Serif" font-size="10.00">/include/Simple&#45;Utility</text>
<text text-anchor="middle" x="73" y="-96.5" font-family="Helvetica,sans-Serif" font-size="10.00">/nullables/adapter.hpp</text>
</a>
</g>
</g>
<!-- Node15&#45;&gt;Node16 -->
<g id="edge25" class="edge">
<title>Node15&#45;&gt;Node16</title>
<path fill="none" stroke="midnightblue" d="M687.6,-200.51C568.43,-195.04 343.05,-180.22 155,-142 152.08,-141.41 149.11,-140.75 146.13,-140.04"/>
<polygon fill="midnightblue" stroke="midnightblue" points="687.6,-204.02 697.74,-200.97 687.91,-197.02 687.6,-204.02"/>
</g>
<!-- Node17 -->
<g id="node17" class="node">
<title>Node17</title>
<g id="a_node17"><a xlink:href="../../d9/d20/std__optional_8hpp.html" target="_top" xlink:title=" ">
<polygon fill="white" stroke="black" points="164,-89.5 164,-141.5 312,-141.5 312,-89.5 164,-89.5"/>
<text text-anchor="start" x="172" y="-129.5" font-family="Helvetica,sans-Serif" font-size="10.00">/home/runner/work/Simple</text>
<text text-anchor="start" x="172" y="-118.5" font-family="Helvetica,sans-Serif" font-size="10.00">&#45;Utility/Simple&#45;Utility</text>
<text text-anchor="start" x="172" y="-107.5" font-family="Helvetica,sans-Serif" font-size="10.00">/include/Simple&#45;Utility</text>
<text text-anchor="middle" x="238" y="-96.5" font-family="Helvetica,sans-Serif" font-size="10.00">/nullables/std_optional.hpp</text>
</a>
</g>
</g>
<!-- Node15&#45;&gt;Node17 -->
<g id="edge30" class="edge">
<title>Node15&#45;&gt;Node17</title>
<path fill="none" stroke="midnightblue" d="M687.91,-196.22C597.06,-187.32 447.55,-169.89 321,-142 318.06,-141.35 315.07,-140.65 312.05,-139.9"/>
<polygon fill="midnightblue" stroke="midnightblue" points="687.59,-199.71 697.88,-197.19 688.26,-192.74 687.59,-199.71"/>
</g>
<!-- Node18 -->
<g id="node18" class="node">
<title>Node18</title>
<g id="a_node18"><a xlink:href="../../d8/d9a/std__pointers_8hpp.html" target="_top" xlink:title=" ">
<polygon fill="white" stroke="black" points="330,-89.5 330,-141.5 478,-141.5 478,-89.5 330,-89.5"/>
<text text-anchor="start" x="338" y="-129.5" font-family="Helvetica,sans-Serif" font-size="10.00">/home/runner/work/Simple</text>
<text text-anchor="start" x="338" y="-118.5" font-family="Helvetica,sans-Serif" font-size="10.00">&#45;Utility/Simple&#45;Utility</text>
<text text-anchor="start" x="338" y="-107.5" font-family="Helvetica,sans-Serif" font-size="10.00">/include/Simple&#45;Utility</text>
<text text-anchor="middle" x="404" y="-96.5" font-family="Helvetica,sans-Serif" font-size="10.00">/nullables/std_pointers.hpp</text>
</a>
</g>
</g>
<!-- Node15&#45;&gt;Node18 -->
<g id="edge32" class="edge">
<title>Node15&#45;&gt;Node18</title>
<path fill="none" stroke="midnightblue" d="M688.04,-186.69C632.37,-175.05 557.52,-158.7 492,-142 487.53,-140.86 482.94,-139.65 478.32,-138.41"/>
<polygon fill="midnightblue" stroke="midnightblue" points="687.35,-190.12 697.85,-188.73 688.77,-183.27 687.35,-190.12"/>
</g>
<!-- Node19 -->
<g id="node19" class="node">
<title>Node19</title>
<g id="a_node19"><a xlink:href="../../d0/d0f/unique__handle_8hpp.html" target="_top" xlink:title=" ">
<polygon fill="white" stroke="black" points="534,-89.5 534,-141.5 680,-141.5 680,-89.5 534,-89.5"/>
<text text-anchor="start" x="542" y="-129.5" font-family="Helvetica,sans-Serif" font-size="10.00">/home/runner/work/Simple</text>
<text text-anchor="start" x="542" y="-118.5" font-family="Helvetica,sans-Serif" font-size="10.00">&#45;Utility/Simple&#45;Utility</text>
<text text-anchor="start" x="542" y="-107.5" font-family="Helvetica,sans-Serif" font-size="10.00">/include/Simple&#45;Utility</text>
<text text-anchor="middle" x="607" y="-96.5" font-family="Helvetica,sans-Serif" font-size="10.00">/unique_handle.hpp</text>
</a>
</g>
</g>
<!-- Node15&#45;&gt;Node19 -->
<g id="edge36" class="edge">
<title>Node15&#45;&gt;Node19</title>
<path fill="none" stroke="midnightblue" d="M714.7,-173.64C695.04,-163.2 673.19,-151.61 654.33,-141.61"/>
<polygon fill="midnightblue" stroke="midnightblue" points="713.09,-176.74 723.56,-178.34 716.37,-170.56 713.09,-176.74"/>
</g>
<!-- Node16&#45;&gt;Node11 -->
<g id="edge26" class="edge">
<title>Node16&#45;&gt;Node11</title>
<path fill="none" stroke="midnightblue" d="M156.01,-88.93C306.15,-57.02 472.42,-40.42 565.76,-32.79"/>
<polygon fill="midnightblue" stroke="midnightblue" points="155.19,-85.53 146.15,-91.06 156.66,-92.37 155.19,-85.53"/>
</g>
<!-- Node17&#45;&gt;Node11 -->
<g id="edge31" class="edge">
<title>Node17&#45;&gt;Node11</title>
<path fill="none" stroke="midnightblue" d="M321.83,-88.89C410.98,-66.99 503.4,-50 565.89,-39.35"/>
<polygon fill="midnightblue" stroke="midnightblue" points="320.96,-85.5 312.1,-91.3 322.65,-92.29 320.96,-85.5"/>
</g>
<!-- Node18&#45;&gt;Node11 -->
<g id="edge33" class="edge">
<title>Node18&#45;&gt;Node11</title>
<path fill="none" stroke="midnightblue" d="M481.37,-85.86C510.46,-75.09 543.28,-62.94 571.41,-52.52"/>
<polygon fill="midnightblue" stroke="midnightblue" points="479.82,-82.7 471.66,-89.45 482.25,-89.26 479.82,-82.7"/>
</g>
<!-- Node20&#45;&gt;Node3 -->
<g id="edge38" class="edge">
<title>Node20&#45;&gt;Node3</title>
<path fill="none" stroke="midnightblue" d="M2035.33,-265.09C2088.93,-251.65 2152.04,-235.83 2199.75,-223.87"/>
<polygon fill="midnightblue" stroke="midnightblue" points="2034.28,-261.74 2025.44,-267.57 2035.99,-268.53 2034.28,-261.74"/>
</g>
<!-- Node20&#45;&gt;Node5 -->
<g id="edge39" class="edge">
<title>Node20&#45;&gt;Node5</title>
<path fill="none" stroke="midnightblue" d="M1988.18,-262.32C2032.56,-237 2088.85,-196.26 2115,-142 2125.23,-120.78 2127.69,-108.85 2115,-89 2101.37,-67.67 2078.24,-53.63 2055.06,-44.44"/>
<polygon fill="midnightblue" stroke="midnightblue" points="1986.22,-259.41 1979.19,-267.33 1989.63,-265.52 1986.22,-259.41"/>
</g>
<!-- Node21&#45;&gt;Node3 -->
<g id="edge41" class="edge">
<title>Node21&#45;&gt;Node3</title>
<path fill="none" stroke="midnightblue" d="M2187.6,-261.79C2203.09,-251.58 2220.14,-240.34 2234.91,-230.61"/>
<polygon fill="midnightblue" stroke="midnightblue" points="2185.6,-258.91 2179.18,-267.34 2189.46,-264.76 2185.6,-258.91"/>
</g>
<!-- Node21&#45;&gt;Node5 -->
<g id="edge42" class="edge">
<title>Node21&#45;&gt;Node5</title>
<path fill="none" stroke="midnightblue" d="M2150.46,-257.39C2160.01,-213.73 2168.89,-138.88 2134,-89 2115.81,-62.99 2084.63,-47.97 2055.23,-39.3"/>
<polygon fill="midnightblue" stroke="midnightblue" points="2147.02,-256.73 2148.17,-267.26 2153.84,-258.31 2147.02,-256.73"/>
</g>
<!-- Node22&#45;&gt;Node3 -->
<g id="edge44" class="edge">
<title>Node22&#45;&gt;Node3</title>
<path fill="none" stroke="midnightblue" d="M2043.51,-355.91C2135.55,-338.9 2182.28,-381.59 2247,-320 2271.07,-297.09 2275.03,-256.94 2274.73,-230.78"/>
<polygon fill="midnightblue" stroke="midnightblue" points="2042.66,-352.52 2033.56,-357.95 2044.06,-359.37 2042.66,-352.52"/>
</g>
<!-- Node23&#45;&gt;Node3 -->
<g id="edge46" class="edge">
<title>Node23&#45;&gt;Node3</title>
<path fill="none" stroke="midnightblue" d="M2246.85,-351.33C2259.99,-343.2 2271.75,-332.94 2280,-320 2297.02,-293.3 2290.2,-255.59 2282.58,-230.86"/>
<polygon fill="midnightblue" stroke="midnightblue" points="2244.99,-348.37 2238.04,-356.37 2248.46,-354.44 2244.99,-348.37"/>
</g>
<!-- Node24&#45;&gt;Node3 -->
<g id="edge48" class="edge">
<title>Node24&#45;&gt;Node3</title>
<path fill="none" stroke="midnightblue" d="M2452.18,-264.33C2417.92,-253.08 2378.89,-240.26 2346.02,-229.47"/>
<polygon fill="midnightblue" stroke="midnightblue" points="2451.11,-267.66 2461.71,-267.45 2453.3,-261.01 2451.11,-267.66"/>
</g>
<!-- Node24&#45;&gt;Node5 -->
<g id="edge49" class="edge">
<title>Node24&#45;&gt;Node5</title>
<path fill="none" stroke="midnightblue" d="M2524.1,-258.09C2503.3,-211.41 2459.39,-129.23 2394,-89 2338.64,-54.94 2157.9,-38.39 2055.15,-31.55"/>
<polygon fill="midnightblue" stroke="midnightblue" points="2520.99,-259.72 2528.19,-267.49 2527.41,-256.92 2520.99,-259.72"/>
</g>
<!-- Node25&#45;&gt;Node3 -->
<g id="edge52" class="edge">
<title>Node25&#45;&gt;Node3</title>
<path fill="none" stroke="midnightblue" d="M2340.44,-346.32C2336.53,-323.03 2329.63,-292.26 2318,-267 2312.08,-254.14 2303.24,-241.29 2294.97,-230.68"/>
<polygon fill="midnightblue" stroke="midnightblue" points="2337.02,-347.1 2342.03,-356.44 2343.93,-346.02 2337.02,-347.1"/>
</g>
<!-- Node25&#45;&gt;Node5 -->
<g id="edge54" class="edge">
<title>Node25&#45;&gt;Node5</title>
<path fill="none" stroke="midnightblue" d="M2356.98,-346.63C2369.37,-304.13 2383.28,-231.39 2355,-178 2298.22,-70.78 2146.69,-39.77 2055.19,-30.92"/>
<polygon fill="midnightblue" stroke="midnightblue" points="2353.62,-345.66 2354.05,-356.24 2360.31,-347.69 2353.62,-345.66"/>
</g>
<!-- Node25&#45;&gt;Node6 -->
<g id="edge53" class="edge">
<title>Node25&#45;&gt;Node6</title>
<path fill="none" stroke="midnightblue" d="M2253.44,-356.1C2060.55,-323.69 1998.1,-384.24 1818,-320 1778.87,-306.04 1778.48,-284.91 1741,-267 1698.55,-246.71 1647.97,-231.54 1607.44,-221.33"/>
<polygon fill="midnightblue" stroke="midnightblue" points="2252.87,-359.55 2263.32,-357.82 2254.07,-352.65 2252.87,-359.55"/>
</g>
<!-- Node25&#45;&gt;Node24 -->
<g id="edge51" class="edge">
<title>Node25&#45;&gt;Node24</title>
<path fill="none" stroke="midnightblue" d="M2409.79,-352.29C2433.37,-341.67 2459.79,-329.76 2482.49,-319.52"/>
<polygon fill="midnightblue" stroke="midnightblue" points="2408.24,-349.15 2400.56,-356.45 2411.12,-355.53 2408.24,-349.15"/>
</g>
</g>
</svg>
        <g id="navigator" transform="translate(0 0)" fill="#404254">
                <rect fill="#f2f5e9" fill-opacity="0.5" stroke="#606060" stroke-width=".5" x="0" y="0" width="60" height="60"/>
                <use id="zoomplus" xlink:href="#zoomPlus" x="17" y="9" onmousedown="handleZoom(evt,'in')"/>
                <use id="zoomminus" xlink:href="#zoomMin" x="42" y="9" onmousedown="handleZoom(evt,'out')"/>
                <use id="reset" xlink:href="#resetDef" x="30" y="36" onmousedown="handleReset()"/>
                <g id="arrowUp" xlink:href="#dirArrow" transform="translate(30 24)" onmousedown="handlePan(0,-1)">
                  <use xlink:href="#rim" fill="#404040">
                        <set attributeName="fill" to="#808080" begin="arrowUp.mouseover" end="arrowUp.mouseout"/>
                  </use>
                  <path fill="none" stroke="white" stroke-width="1.5" d="M0,-3.0v7 M-2.5,-0.5L0,-3.0L2.5,-0.5"/>
                </g>
                <g id="arrowRight" xlink:href="#dirArrow" transform="rotate(90) translate(36 -43)" onmousedown="handlePan(1,0)">
                  <use xlink:href="#rim" fill="#404040">
                        <set attributeName="fill" to="#808080" begin="arrowRight.mouseover" end="arrowRight.mouseout"/>
                  </use>
                  <path fill="none" stroke="white" stroke-width="1.5" d="M0,-3.0v7 M-2.5,-0.5L0,-3.0L2.5,-0.5"/>
                </g>
                <g id="arrowDown" xlink:href="#dirArrow" transform="rotate(180) translate(-30 -48)" onmousedown="handlePan(0,1)">
                  <use xlink:href="#rim" fill="#404040">
                        <set attributeName="fill" to="#808080" begin="arrowDown.mouseover" end="arrowDown.mouseout"/>
                  </use>
                  <path fill="none" stroke="white" stroke-width="1.5" d="M0,-3.0v7 M-2.5,-0.5L0,-3.0L2.5,-0.5"/>
                </g>
                <g id="arrowLeft" xlink:href="#dirArrow" transform="rotate(270) translate(-36 17)" onmousedown="handlePan(-1,0)">
                  <use xlink:href="#rim" fill="#404040">
                        <set attributeName="fill" to="#808080" begin="arrowLeft.mouseover" end="arrowLeft.mouseout"/>
                  </use>
                  <path fill="none" stroke="white" stroke-width="1.5" d="M0,-3.0v7 M-2.5,-0.5L0,-3.0L2.5,-0.5"/>
                </g>
        </g>
        <svg viewBox="0 0 15 15" width="100%" height="30px" preserveAspectRatio="xMaxYMin meet">
         <g id="arrow_out" transform="scale(0.3 0.3)">
          <a xlink:href="functional_2base_8hpp__dep__incl_org.svg" target="_base">
           <rect id="button" ry="5" rx="5" y="6" x="6" height="38" width="38"
                fill="#f2f5e9" fill-opacity="0.5" stroke="#606060" stroke-width="1.0"/>
           <path id="arrow"
             d="M 11.500037,31.436501 C 11.940474,20.09759 22.043105,11.32322 32.158766,21.979434 L 37.068811,17.246167 C 37.068811,17.246167 37.088388,32 37.088388,32 L 22.160133,31.978069 C 22.160133,31.978069 26.997745,27.140456 26.997745,27.140456 C 18.528582,18.264221 13.291696,25.230495 11.500037,31.436501 z"
             style="fill:#404040;"/>
          </a>
         </g>
        </svg>
</svg>
