<?xml version="1.0" encoding="UTF-8" standalone="no"?>
<!DOCTYPE svg PUBLIC "-//W3C//DTD SVG 1.1//EN"
 "http://www.w3.org/Graphics/SVG/1.1/DTD/svg11.dtd">
<!-- Generated by graphviz version 7.0.5 (20221223.1930)
 -->
<!-- Title: sl::type_list::remove&lt; List, Type &gt; Pages: 1 -->
<svg width="197pt" height="215pt"
 viewBox="0.00 0.00 196.50 215.00" xmlns="http://www.w3.org/2000/svg" xmlns:xlink="http://www.w3.org/1999/xlink">
<g id="graph0" class="graph" transform="scale(1 1) rotate(0) translate(4 211)">
<title>sl::type_list::remove&lt; List, Type &gt;</title>
<!-- Node1 -->
<g id="node1" class="node">
<title>Node1</title>
<g id="a_node1"><a xlink:title="Applies the filter trait on each element of the source type&#45;list.">
<polygon fill="#999999" stroke="#666666" points="139,-30 34,-30 34,0 139,0 139,-30"/>
<text text-anchor="start" x="42" y="-18" font-family="Helvetica,sans-Serif" font-size="10.00">sl::type_list::remove</text>
<text text-anchor="middle" x="86.5" y="-7" font-family="Helvetica,sans-Serif" font-size="10.00">&lt; List, Type &gt;</text>
</a>
</g>
</g>
<!-- Node2 -->
<g id="node2" class="node">
<title>Node2</title>
<g id="a_node2"><a xlink:href="../../db/d6d/structsl_1_1type__list_1_1filter.html" target="_top" xlink:title=" ">
<polygon fill="white" stroke="#666666" points="173,-108 0,-108 0,-67 173,-67 173,-108"/>
<text text-anchor="start" x="8" y="-96" font-family="Helvetica,sans-Serif" font-size="10.00">sl::type_list::filter</text>
<text text-anchor="start" x="8" y="-85" font-family="Helvetica,sans-Serif" font-size="10.00">&lt; List, detail::not_same</text>
<text text-anchor="middle" x="86.5" y="-74" font-family="Helvetica,sans-Serif" font-size="10.00">_as_filter&lt; Type &gt;::template type &gt;</text>
</a>
</g>
</g>
<!-- Node2&#45;&gt;Node1 -->
<g id="edge1" class="edge">
<title>Node2&#45;&gt;Node1</title>
<path fill="none" stroke="#63b8ff" d="M86.5,-55.39C86.5,-46.68 86.5,-37.62 86.5,-30.39"/>
<polygon fill="#63b8ff" stroke="#63b8ff" points="83,-55.35 86.5,-65.35 90,-55.35 83,-55.35"/>
</g>
<!-- Node3 -->
<g id="node3" class="node">
<title>Node3</title>
<g id="a_node3"><a xlink:href="../../db/d6d/structsl_1_1type__list_1_1filter.html" target="_top" xlink:title="Primary template isn&#39;t defined on purpose.">
<polygon fill="white" stroke="#666666" points="133,-207 40,-207 40,-177 133,-177 133,-207"/>
<text text-anchor="start" x="48" y="-195" font-family="Helvetica,sans-Serif" font-size="10.00">sl::type_list::filter</text>
<text text-anchor="middle" x="86.5" y="-184" font-family="Helvetica,sans-Serif" font-size="10.00">&lt; List, Filter &gt;</text>
</a>
</g>
</g>
<!-- Node3&#45;&gt;Node2 -->
<g id="edge2" class="edge">
<title>Node3&#45;&gt;Node2</title>
<path fill="none" stroke="orange" stroke-dasharray="5,2" d="M86.5,-165.27C86.5,-147.6 86.5,-124.48 86.5,-108.25"/>
<polygon fill="orange" stroke="orange" points="83,-165.23 86.5,-175.23 90,-165.23 83,-165.23"/>
<text text-anchor="start" x="86.5" y="-151" font-family="Helvetica,sans-Serif" font-size="10.00"> &lt; List, detail::not</text>
<text text-anchor="start" x="86.5" y="-140" font-family="Helvetica,sans-Serif" font-size="10.00">_same_as_filter&lt; Type</text>
<text text-anchor="middle" x="137.5" y="-129" font-family="Helvetica,sans-Serif" font-size="10.00"> &gt;::template type &gt;</text>
</g>
</g>
</svg>
