<?xml version="1.0" encoding="UTF-8" standalone="no"?>
<!DOCTYPE svg PUBLIC "-//W3C//DTD SVG 1.1//EN"
 "http://www.w3.org/Graphics/SVG/1.1/DTD/svg11.dtd">
<!-- Generated by graphviz version 8.0.5 (20230430.1635)
 -->
<!-- Title: Simple&#45;Utility/math.hpp Pages: 1 -->
<svg width="134pt" height="86pt"
 viewBox="0.00 0.00 134.00 85.50" xmlns="http://www.w3.org/2000/svg" xmlns:xlink="http://www.w3.org/1999/xlink">
<g id="graph0" class="graph" transform="scale(1 1) rotate(0) translate(4 81.5)">
<title>Simple&#45;Utility/math.hpp</title>
<!-- Node1 -->
<g id="node1" class="node">
<title>Node1</title>
<g id="a_node1"><a xlink:title=" ">
<polygon fill="#999999" stroke="#666666" points="125.5,-77.5 0,-77.5 0,-56.75 125.5,-56.75 125.5,-77.5"/>
<text text-anchor="middle" x="62.75" y="-64" font-family="Helvetica,sans-Serif" font-size="10.00">Simple&#45;Utility/math.hpp</text>
</a>
</g>
</g>
<!-- Node2 -->
<g id="node2" class="node">
<title>Node2</title>
<g id="a_node2"><a xlink:title=" ">
<polygon fill="#e0e0e0" stroke="#999999" points="51,-20.75 6.5,-20.75 6.5,0 51,0 51,-20.75"/>
<text text-anchor="middle" x="28.75" y="-7.25" font-family="Helvetica,sans-Serif" font-size="10.00">cmath</text>
</a>
</g>
</g>
<!-- Node1&#45;&gt;Node2 -->
<g id="edge1" class="edge">
<title>Node1&#45;&gt;Node2</title>
<path fill="none" stroke="#63b8ff" d="M56.67,-56.34C52.18,-49.1 45.91,-39.01 40.45,-30.22"/>
<polygon fill="#63b8ff" stroke="#63b8ff" points="43.02,-28.73 34.78,-22.08 37.08,-32.42 43.02,-28.73"/>
</g>
<!-- Node3 -->
<g id="node3" class="node">
<title>Node3</title>
<g id="a_node3"><a xlink:title=" ">
<polygon fill="#e0e0e0" stroke="#999999" points="126,-20.75 69.5,-20.75 69.5,0 126,0 126,-20.75"/>
<text text-anchor="middle" x="97.75" y="-7.25" font-family="Helvetica,sans-Serif" font-size="10.00">concepts</text>
</a>
</g>
</g>
<!-- Node1&#45;&gt;Node3 -->
<g id="edge2" class="edge">
<title>Node1&#45;&gt;Node3</title>
<path fill="none" stroke="#63b8ff" d="M69.01,-56.34C73.64,-49.1 80.08,-39.01 85.7,-30.22"/>
<polygon fill="#63b8ff" stroke="#63b8ff" points="89.11,-32.39 91.55,-22.08 83.21,-28.62 89.11,-32.39"/>
</g>
</g>
</svg>
