<?xml version="1.0" encoding="UTF-8" standalone="no"?>
<!DOCTYPE svg PUBLIC "-//W3C//DTD SVG 1.1//EN"
 "http://www.w3.org/Graphics/SVG/1.1/DTD/svg11.dtd">
<!-- Generated by graphviz version 7.0.5 (20221223.1930)
 -->
<!-- Title: sl::type_list::equal&lt; First, Others &gt; Pages: 1 -->
<svg width="763pt" height="120pt"
 viewBox="0.00 0.00 763.00 119.50" xmlns="http://www.w3.org/2000/svg" xmlns:xlink="http://www.w3.org/1999/xlink">
<g id="graph0" class="graph" transform="scale(1 1) rotate(0) translate(4 115.5)">
<title>sl::type_list::equal&lt; First, Others &gt;</title>
<!-- Node1 -->
<g id="node1" class="node">
<title>Node1</title>
<g id="a_node1"><a xlink:title="Primary template yields false.">
<polygon fill="#999999" stroke="#666666" points="215,-64.5 119,-64.5 119,-34.5 215,-34.5 215,-64.5"/>
<text text-anchor="start" x="127" y="-52.5" font-family="Helvetica,sans-Serif" font-size="10.00">sl::type_list::equal</text>
<text text-anchor="middle" x="167" y="-41.5" font-family="Helvetica,sans-Serif" font-size="10.00">&lt; First, Others &gt;</text>
</a>
</g>
</g>
<!-- Node3 -->
<g id="node3" class="node">
<title>Node3</title>
<g id="a_node3"><a xlink:href="../../dd/d9c/structsl_1_1type__list_1_1equal.html" target="_top" xlink:title=" ">
<polygon fill="white" stroke="#666666" points="543,-103 395,-103 395,-62 543,-62 543,-103"/>
<text text-anchor="start" x="403" y="-91" font-family="Helvetica,sans-Serif" font-size="10.00">sl::type_list::equal</text>
<text text-anchor="start" x="403" y="-80" font-family="Helvetica,sans-Serif" font-size="10.00">&lt; FirstContainer&lt; Elements...</text>
<text text-anchor="middle" x="469" y="-69" font-family="Helvetica,sans-Serif" font-size="10.00"> &gt;, Others... &gt;</text>
</a>
</g>
</g>
<!-- Node1&#45;&gt;Node3 -->
<g id="edge2" class="edge">
<title>Node1&#45;&gt;Node3</title>
<path fill="none" stroke="orange" stroke-dasharray="5,2" d="M226.36,-55.92C274.48,-61.21 342.99,-68.75 394.78,-74.45"/>
<polygon fill="orange" stroke="orange" points="227.03,-52.47 216.71,-54.86 226.27,-59.43 227.03,-52.47"/>
<text text-anchor="start" x="233" y="-85.5" font-family="Helvetica,sans-Serif" font-size="10.00"> &lt; FirstContainer&lt; Elements...</text>
<text text-anchor="middle" x="300" y="-74.5" font-family="Helvetica,sans-Serif" font-size="10.00"> &gt;, Others... &gt;</text>
</g>
<!-- Node5 -->
<g id="node5" class="node">
<title>Node5</title>
<g id="a_node5"><a xlink:href="../../dd/d9c/structsl_1_1type__list_1_1equal.html" target="_top" xlink:title=" ">
<polygon fill="white" stroke="#666666" points="553,-38.5 385,-38.5 385,-8.5 553,-8.5 553,-38.5"/>
<text text-anchor="start" x="393" y="-26.5" font-family="Helvetica,sans-Serif" font-size="10.00">sl::type_list::equal</text>
<text text-anchor="middle" x="469" y="-15.5" font-family="Helvetica,sans-Serif" font-size="10.00">&lt; FirstContainer&lt;&gt;, OtherLists... &gt;</text>
</a>
</g>
</g>
<!-- Node1&#45;&gt;Node5 -->
<g id="edge4" class="edge">
<title>Node1&#45;&gt;Node5</title>
<path fill="none" stroke="orange" stroke-dasharray="5,2" d="M226.45,-34.54C228.65,-34.16 230.84,-33.81 233,-33.5 283.03,-26.35 339.6,-23.78 384.7,-23.03"/>
<polygon fill="orange" stroke="orange" points="225.99,-31.06 216.84,-36.4 227.32,-37.93 225.99,-31.06"/>
<text text-anchor="start" x="254.5" y="-47.5" font-family="Helvetica,sans-Serif" font-size="10.00"> &lt; FirstContainer&lt;&gt;,</text>
<text text-anchor="middle" x="300" y="-36.5" font-family="Helvetica,sans-Serif" font-size="10.00"> OtherLists... &gt;</text>
</g>
<!-- Node2 -->
<g id="node2" class="node">
<title>Node2</title>
<g id="a_node2"><a xlink:title=" ">
<polygon fill="white" stroke="#666666" points="82,-59 0,-59 0,-40 82,-40 82,-59"/>
<text text-anchor="middle" x="41" y="-47" font-family="Helvetica,sans-Serif" font-size="10.00">std::false_type</text>
</a>
</g>
</g>
<!-- Node2&#45;&gt;Node1 -->
<g id="edge1" class="edge">
<title>Node2&#45;&gt;Node1</title>
<path fill="none" stroke="#63b8ff" d="M93.7,-49.5C101.95,-49.5 110.46,-49.5 118.6,-49.5"/>
<polygon fill="#63b8ff" stroke="#63b8ff" points="93.77,-46 83.77,-49.5 93.77,-53 93.77,-46"/>
</g>
<!-- Node4 -->
<g id="node4" class="node">
<title>Node4</title>
<g id="a_node4"><a xlink:href="../../d5/de5/structsl_1_1type__list_1_1equal_3_01_first_container_3_01_elements_8_8_8_01_4_00_01_second_conta6f0f2b64bdcd65e4b0dceb365a3048ce.html" target="_top" xlink:title="Specialization, determining whether the first two type&#45;lists have equal template arguments.">
<polygon fill="white" stroke="#666666" points="755,-111.5 590,-111.5 590,-59.5 755,-59.5 755,-111.5"/>
<text text-anchor="start" x="598" y="-99.5" font-family="Helvetica,sans-Serif" font-size="10.00">sl::type_list::equal</text>
<text text-anchor="start" x="598" y="-88.5" font-family="Helvetica,sans-Serif" font-size="10.00">&lt; FirstContainer&lt; Elements...</text>
<text text-anchor="start" x="598" y="-77.5" font-family="Helvetica,sans-Serif" font-size="10.00"> &gt;, SecondContainer&lt; Elements...</text>
<text text-anchor="middle" x="672.5" y="-66.5" font-family="Helvetica,sans-Serif" font-size="10.00"> &gt;, Others... &gt;</text>
</a>
</g>
</g>
<!-- Node3&#45;&gt;Node4 -->
<g id="edge3" class="edge">
<title>Node3&#45;&gt;Node4</title>
<path fill="none" stroke="#63b8ff" d="M554.77,-83.76C566.34,-83.93 578.2,-84.11 589.72,-84.28"/>
<polygon fill="#63b8ff" stroke="#63b8ff" points="554.88,-80.26 544.83,-83.61 554.78,-87.26 554.88,-80.26"/>
</g>
<!-- Node6 -->
<g id="node6" class="node">
<title>Node6</title>
<g id="a_node6"><a xlink:href="../../de/d8f/structsl_1_1type__list_1_1unordered__equal_3_01_first_container_3_4_00_01_other_lists_8_8_8_01_4.html" target="_top" xlink:title="Root specialization, determining whether all type&#45;lists are empty.">
<polygon fill="white" stroke="#666666" points="732.5,-41 612.5,-41 612.5,0 732.5,0 732.5,-41"/>
<text text-anchor="start" x="620.5" y="-29" font-family="Helvetica,sans-Serif" font-size="10.00">sl::type_list::unordered</text>
<text text-anchor="start" x="620.5" y="-18" font-family="Helvetica,sans-Serif" font-size="10.00">_equal&lt; FirstContainer</text>
<text text-anchor="middle" x="672.5" y="-7" font-family="Helvetica,sans-Serif" font-size="10.00">&lt;&gt;, OtherLists... &gt;</text>
</a>
</g>
</g>
<!-- Node5&#45;&gt;Node6 -->
<g id="edge5" class="edge">
<title>Node5&#45;&gt;Node6</title>
<path fill="none" stroke="#63b8ff" d="M564.57,-22.09C580.77,-21.85 597.18,-21.61 612.13,-21.38"/>
<polygon fill="#63b8ff" stroke="#63b8ff" points="564.87,-18.59 554.93,-22.24 564.98,-25.59 564.87,-18.59"/>
</g>
</g>
</svg>
