<?xml version="1.0" encoding="UTF-8" standalone="no"?>
<!DOCTYPE svg PUBLIC "-//W3C//DTD SVG 1.1//EN"
 "http://www.w3.org/Graphics/SVG/1.1/DTD/svg11.dtd">
<!-- Generated by graphviz version 8.0.5 (20230430.1635)
 -->
<!-- Title: sl::type_list::equal&lt; First, Others &gt; Pages: 1 -->
<svg width="760pt" height="132pt"
 viewBox="0.00 0.00 760.25 131.62" xmlns="http://www.w3.org/2000/svg" xmlns:xlink="http://www.w3.org/1999/xlink">
<g id="graph0" class="graph" transform="scale(1 1) rotate(0) translate(4 127.62)">
<title>sl::type_list::equal&lt; First, Others &gt;</title>
<!-- Node1 -->
<g id="node1" class="node">
<title>Node1</title>
<g id="a_node1"><a xlink:title="Primary template yields false.">
<polygon fill="#999999" stroke="#666666" points="213.75,-71.88 118.25,-71.88 118.25,-38.38 213.75,-38.38 213.75,-71.88"/>
<text text-anchor="start" x="126.25" y="-58.38" font-family="Helvetica,sans-Serif" font-size="10.00">sl::type_list::equal</text>
<text text-anchor="middle" x="166" y="-45.62" font-family="Helvetica,sans-Serif" font-size="10.00">&lt; First, Others &gt;</text>
</a>
</g>
</g>
<!-- Node3 -->
<g id="node3" class="node">
<title>Node3</title>
<g id="a_node3"><a xlink:href="../../dd/d9c/structsl_1_1type__list_1_1equal.html" target="_top" xlink:title=" ">
<polygon fill="white" stroke="#666666" points="540.62,-114.25 393.38,-114.25 393.38,-68 540.62,-68 540.62,-114.25"/>
<text text-anchor="start" x="401.38" y="-100.75" font-family="Helvetica,sans-Serif" font-size="10.00">sl::type_list::equal</text>
<text text-anchor="start" x="401.38" y="-88" font-family="Helvetica,sans-Serif" font-size="10.00">&lt; FirstContainer&lt; Elements...</text>
<text text-anchor="middle" x="467" y="-75.25" font-family="Helvetica,sans-Serif" font-size="10.00"> &gt;, Others... &gt;</text>
</a>
</g>
</g>
<!-- Node1&#45;&gt;Node3 -->
<g id="edge2" class="edge">
<title>Node1&#45;&gt;Node3</title>
<path fill="none" stroke="orange" stroke-dasharray="5,2" d="M224.92,-62.29C227.23,-62.57 229.51,-62.85 231.75,-63.12 285.72,-69.69 346.71,-76.97 392.92,-82.47"/>
<polygon fill="orange" stroke="orange" points="225.38,-58.7 215.03,-60.96 224.53,-65.65 225.38,-58.7"/>
<text text-anchor="start" x="231.75" y="-95.12" font-family="Helvetica,sans-Serif" font-size="10.00"> &lt; FirstContainer&lt; Elements...</text>
<text text-anchor="middle" x="298.5" y="-82.38" font-family="Helvetica,sans-Serif" font-size="10.00"> &gt;, Others... &gt;</text>
</g>
<!-- Node5 -->
<g id="node5" class="node">
<title>Node5</title>
<g id="a_node5"><a xlink:href="../../dd/d9c/structsl_1_1type__list_1_1equal.html" target="_top" xlink:title=" ">
<polygon fill="white" stroke="#666666" points="550.75,-43.88 383.25,-43.88 383.25,-10.38 550.75,-10.38 550.75,-43.88"/>
<text text-anchor="start" x="391.25" y="-30.38" font-family="Helvetica,sans-Serif" font-size="10.00">sl::type_list::equal</text>
<text text-anchor="middle" x="467" y="-17.62" font-family="Helvetica,sans-Serif" font-size="10.00">&lt; FirstContainer&lt;&gt;, OtherLists... &gt;</text>
</a>
</g>
</g>
<!-- Node1&#45;&gt;Node5 -->
<g id="edge4" class="edge">
<title>Node1&#45;&gt;Node5</title>
<path fill="none" stroke="orange" stroke-dasharray="5,2" d="M224.65,-38.86C227.04,-38.4 229.41,-37.99 231.75,-37.62 281.53,-29.88 337.92,-27.17 382.9,-26.43"/>
<polygon fill="orange" stroke="orange" points="224.18,-35.6 215.13,-41.11 225.64,-42.44 224.18,-35.6"/>
<text text-anchor="start" x="253.5" y="-54.12" font-family="Helvetica,sans-Serif" font-size="10.00"> &lt; FirstContainer&lt;&gt;,</text>
<text text-anchor="middle" x="298.5" y="-41.38" font-family="Helvetica,sans-Serif" font-size="10.00"> OtherLists... &gt;</text>
</g>
<!-- Node2 -->
<g id="node2" class="node">
<title>Node2</title>
<g id="a_node2"><a xlink:title=" ">
<polygon fill="white" stroke="#666666" points="81.25,-65.5 0,-65.5 0,-44.75 81.25,-44.75 81.25,-65.5"/>
<text text-anchor="middle" x="40.62" y="-52" font-family="Helvetica,sans-Serif" font-size="10.00">std::false_type</text>
</a>
</g>
</g>
<!-- Node2&#45;&gt;Node1 -->
<g id="edge1" class="edge">
<title>Node2&#45;&gt;Node1</title>
<path fill="none" stroke="#63b8ff" d="M92.5,-55.12C100.89,-55.12 109.55,-55.12 117.84,-55.12"/>
<polygon fill="#63b8ff" stroke="#63b8ff" points="92.68,-51.63 82.68,-55.12 92.68,-58.63 92.68,-51.63"/>
</g>
<!-- Node4 -->
<g id="node4" class="node">
<title>Node4</title>
<g id="a_node4"><a xlink:href="../../d5/de5/structsl_1_1type__list_1_1equal_3_01_first_container_3_01_elements_8_8_8_01_4_00_01_second_conta6f0f2b64bdcd65e4b0dceb365a3048ce.html" target="_top" xlink:title="Specialization, determining whether the first two type&#45;lists have equal template arguments.">
<polygon fill="white" stroke="#666666" points="752.25,-123.62 587.75,-123.62 587.75,-64.62 752.25,-64.62 752.25,-123.62"/>
<text text-anchor="start" x="595.75" y="-110.12" font-family="Helvetica,sans-Serif" font-size="10.00">sl::type_list::equal</text>
<text text-anchor="start" x="595.75" y="-97.38" font-family="Helvetica,sans-Serif" font-size="10.00">&lt; FirstContainer&lt; Elements...</text>
<text text-anchor="start" x="595.75" y="-84.62" font-family="Helvetica,sans-Serif" font-size="10.00"> &gt;, SecondContainer&lt; Elements...</text>
<text text-anchor="middle" x="670" y="-71.88" font-family="Helvetica,sans-Serif" font-size="10.00"> &gt;, Others... &gt;</text>
</a>
</g>
</g>
<!-- Node3&#45;&gt;Node4 -->
<g id="edge3" class="edge">
<title>Node3&#45;&gt;Node4</title>
<path fill="none" stroke="#63b8ff" d="M551.64,-92.37C563.52,-92.55 575.72,-92.73 587.55,-92.91"/>
<polygon fill="#63b8ff" stroke="#63b8ff" points="551.9,-88.86 541.85,-92.21 551.8,-95.86 551.9,-88.86"/>
</g>
<!-- Node6 -->
<g id="node6" class="node">
<title>Node6</title>
<g id="a_node6"><a xlink:href="../../de/d8f/structsl_1_1type__list_1_1unordered__equal_3_01_first_container_3_4_00_01_other_lists_8_8_8_01_4.html" target="_top" xlink:title="Root specialization, determining whether all type&#45;lists are empty.">
<polygon fill="white" stroke="#666666" points="729.75,-46.25 610.25,-46.25 610.25,0 729.75,0 729.75,-46.25"/>
<text text-anchor="start" x="618.25" y="-32.75" font-family="Helvetica,sans-Serif" font-size="10.00">sl::type_list::unordered</text>
<text text-anchor="start" x="618.25" y="-20" font-family="Helvetica,sans-Serif" font-size="10.00">_equal&lt; FirstContainer</text>
<text text-anchor="middle" x="670" y="-7.25" font-family="Helvetica,sans-Serif" font-size="10.00">&lt;&gt;, OtherLists... &gt;</text>
</a>
</g>
</g>
<!-- Node5&#45;&gt;Node6 -->
<g id="edge5" class="edge">
<title>Node5&#45;&gt;Node6</title>
<path fill="none" stroke="#63b8ff" d="M561.87,-25.26C578.18,-24.93 594.72,-24.6 609.77,-24.3"/>
<polygon fill="#63b8ff" stroke="#63b8ff" points="562.13,-21.77 552.21,-25.47 562.27,-28.77 562.13,-21.77"/>
</g>
</g>
</svg>
