<?xml version="1.0" encoding="UTF-8" standalone="no"?>
<!DOCTYPE svg PUBLIC "-//W3C//DTD SVG 1.1//EN"
 "http://www.w3.org/Graphics/SVG/1.1/DTD/svg11.dtd">
<!-- Generated by graphviz version 2.43.0 (0)
 -->
<!-- Title: traits Pages: 1 -->
<svg width="432pt" height="97pt"
 viewBox="0.00 0.00 432.00 96.94" xmlns="http://www.w3.org/2000/svg" xmlns:xlink="http://www.w3.org/1999/xlink">
<g id="graph0" class="graph" transform="scale(1 1) rotate(0) translate(4 92.94)">
<title>traits</title>
<polygon fill="white" stroke="transparent" points="-4,4 -4,-92.94 428,-92.94 428,4 -4,4"/>
<!-- Node3 -->
<g id="node1" class="node">
<title>Node3</title>
<g id="a_node1"><a xlink:href="../../df/dc9/group___g_r_o_u_p___n_u_l_l_a_b_l_e_s___a_d_a_p_t_e_r.html" target="_top" xlink:title=" ">
<polygon fill="white" stroke="black" points="407,-82.44 353,-82.44 353,-63.44 407,-63.44 407,-82.44"/>
<text text-anchor="middle" x="380" y="-70.44" font-family="Helvetica,sans-Serif" font-size="10.00">adapter</text>
</a>
</g>
</g>
<!-- Node4 -->
<g id="node2" class="node">
<title>Node4</title>
<g id="a_node2"><a xlink:href="../../d3/dc7/group___g_r_o_u_p___u_n_i_q_u_e___h_a_n_d_l_e.html" target="_top" xlink:title="A helper type, which acts as a nullable resource handle with self&#45;cleanup support.">
<polygon fill="white" stroke="black" points="424,-26.44 336,-26.44 336,-7.44 424,-7.44 424,-26.44"/>
<text text-anchor="middle" x="380" y="-14.44" font-family="Helvetica,sans-Serif" font-size="10.00">unique_handle</text>
</a>
</g>
</g>
<!-- Node1 -->
<g id="node3" class="node">
<title>Node1</title>
<g id="a_node3"><a xlink:title="These traits are used by the algorithms and my be specialized by users for their custom types.">
<polygon fill="#bfbfbf" stroke="black" points="140,-54.44 98,-54.44 98,-35.44 140,-35.44 140,-54.44"/>
<text text-anchor="middle" x="119" y="-42.44" font-family="Helvetica,sans-Serif" font-size="10.00">traits</text>
</a>
</g>
</g>
<!-- Node1&#45;&gt;Node3 -->
<g id="edge2" class="edge">
<title>Node1&#45;&gt;Node3</title>
<path fill="none" stroke="orange" stroke-dasharray="5,2" d="M140.08,-48.33C145.86,-49.25 152.17,-50.19 158,-50.94 228.18,-59.97 311.3,-67.36 352.75,-70.82"/>
<text text-anchor="start" x="158" y="-80.94" font-family="Helvetica,sans-Serif" font-size="10.00">sl::nullables::traits</text>
<text text-anchor="middle" x="238" y="-69.94" font-family="Helvetica,sans-Serif" font-size="10.00">&lt; adapter&lt; TNull, TAdapted &gt; &gt;</text>
</g>
<!-- Node1&#45;&gt;Node4 -->
<g id="edge3" class="edge">
<title>Node1&#45;&gt;Node4</title>
<path fill="none" stroke="orange" stroke-dasharray="5,2" d="M128.25,-35.3C135.28,-27.87 146.13,-18.17 158,-13.94 216.74,6.98 289.95,0.13 335.6,-7.66"/>
<text text-anchor="start" x="165.5" y="-38.94" font-family="Helvetica,sans-Serif" font-size="10.00">sl::nullables::traits</text>
<text text-anchor="start" x="165.5" y="-27.94" font-family="Helvetica,sans-Serif" font-size="10.00">&lt; unique_handle&lt; T, TDelete</text>
<text text-anchor="middle" x="238" y="-16.94" font-family="Helvetica,sans-Serif" font-size="10.00">Action &gt; &gt;</text>
</g>
<!-- Node2 -->
<g id="node4" class="node">
<title>Node2</title>
<g id="a_node4"><a xlink:href="../../d1/d3d/group___g_r_o_u_p___n_u_l_l_a_b_l_e_s.html" target="_top" xlink:title="This library offers some simple algorithms for convenient working with nullable types.">
<polygon fill="white" stroke="black" points="61,-54.44 0,-54.44 0,-35.44 61,-35.44 61,-54.44"/>
<text text-anchor="middle" x="30.5" y="-42.44" font-family="Helvetica,sans-Serif" font-size="10.00">nullables</text>
</a>
</g>
</g>
<!-- Node2&#45;&gt;Node1 -->
<g id="edge1" class="edge">
<title>Node2&#45;&gt;Node1</title>
<path fill="none" stroke="black" d="M71.47,-44.94C80.67,-44.94 90.06,-44.94 97.97,-44.94"/>
<polygon fill="black" stroke="black" points="71.27,-41.44 61.27,-44.94 71.27,-48.44 71.27,-41.44"/>
</g>
</g>
</svg>
