<?xml version="1.0" encoding="UTF-8" standalone="no"?>
<!DOCTYPE svg PUBLIC "-//W3C//DTD SVG 1.1//EN"
 "http://www.w3.org/Graphics/SVG/1.1/DTD/svg11.dtd">
<!-- Generated by graphviz version 7.0.5 (20221223.1930)
 -->
<!-- Title: traits Pages: 1 -->
<svg width="404pt" height="95pt"
 viewBox="0.00 0.00 404.00 94.80" xmlns="http://www.w3.org/2000/svg" xmlns:xlink="http://www.w3.org/1999/xlink">
<g id="graph0" class="graph" transform="scale(1 1) rotate(0) translate(4 90.8)">
<title>traits</title>
<!-- Node2 -->
<g id="node1" class="node">
<title>Node2</title>
<g id="a_node1"><a xlink:href="../../d1/d3d/group___g_r_o_u_p___n_u_l_l_a_b_l_e_s.html" target="_top" xlink:title="This library offers some simple algorithms for convenient working with nullable types.">
<polygon fill="white" stroke="#666666" points="58,-53.3 0,-53.3 0,-34.3 58,-34.3 58,-53.3"/>
<text text-anchor="middle" x="29" y="-41.3" font-family="Helvetica,sans-Serif" font-size="10.00">nullables</text>
</a>
</g>
</g>
<!-- Node1 -->
<g id="node3" class="node">
<title>Node1</title>
<g id="a_node3"><a xlink:title="These traits are used by the algorithms and my be specialized by users for their custom types.">
<polygon fill="#999999" stroke="#666666" points="135,-53.3 95,-53.3 95,-34.3 135,-34.3 135,-53.3"/>
<text text-anchor="middle" x="115" y="-41.3" font-family="Helvetica,sans-Serif" font-size="10.00">traits</text>
</a>
</g>
</g>
<!-- Node2&#45;&gt;Node1 -->
<g id="edge1" class="edge">
<title>Node2&#45;&gt;Node1</title>
<path fill="none" stroke="black" d="M69.94,-43.8C78.52,-43.8 87.22,-43.8 94.59,-43.8"/>
<polygon fill="black" stroke="black" points="69.95,-40.3 59.95,-43.8 69.95,-47.3 69.95,-40.3"/>
</g>
<!-- Node3 -->
<g id="node2" class="node">
<title>Node3</title>
<g id="a_node2"><a xlink:href="../../df/dc9/group___g_r_o_u_p___n_u_l_l_a_b_l_e_s___a_d_a_p_t_e_r.html" target="_top" xlink:title=" ">
<polygon fill="white" stroke="#666666" points="380.5,-81.3 328.5,-81.3 328.5,-62.3 380.5,-62.3 380.5,-81.3"/>
<text text-anchor="middle" x="354.5" y="-69.3" font-family="Helvetica,sans-Serif" font-size="10.00">adapter</text>
</a>
</g>
</g>
<!-- Node1&#45;&gt;Node3 -->
<g id="edge2" class="edge">
<title>Node1&#45;&gt;Node3</title>
<path fill="none" stroke="orange" stroke-dasharray="5,2" d="M135.18,-47.11C140.9,-48.04 147.2,-49.02 153,-49.8 215.81,-58.34 290.03,-65.8 328.13,-69.44"/>
<text text-anchor="start" x="153" y="-78.8" font-family="Helvetica,sans-Serif" font-size="10.00">sl::nullables::traits</text>
<text text-anchor="middle" x="224" y="-67.8" font-family="Helvetica,sans-Serif" font-size="10.00">&lt; adapter&lt; TNull, TAdapted &gt; &gt;</text>
</g>
<!-- Node4 -->
<g id="node4" class="node">
<title>Node4</title>
<g id="a_node4"><a xlink:href="../../d3/dc7/group___g_r_o_u_p___u_n_i_q_u_e___h_a_n_d_l_e.html" target="_top" xlink:title="A helper type, which acts as a nullable resource handle with self&#45;cleanup support.">
<polygon fill="white" stroke="#666666" points="396,-25.3 313,-25.3 313,-6.3 396,-6.3 396,-25.3"/>
<text text-anchor="middle" x="354.5" y="-13.3" font-family="Helvetica,sans-Serif" font-size="10.00">unique_handle</text>
</a>
</g>
</g>
<!-- Node1&#45;&gt;Node4 -->
<g id="edge3" class="edge">
<title>Node1&#45;&gt;Node4</title>
<path fill="none" stroke="orange" stroke-dasharray="5,2" d="M124.25,-33.87C131.08,-26.48 141.5,-16.98 153,-12.8 205.51,6.29 270.99,0.26 312.53,-6.89"/>
<text text-anchor="start" x="159" y="-37.8" font-family="Helvetica,sans-Serif" font-size="10.00">sl::nullables::traits</text>
<text text-anchor="start" x="159" y="-26.8" font-family="Helvetica,sans-Serif" font-size="10.00">&lt; unique_handle&lt; T, TDelete</text>
<text text-anchor="middle" x="224" y="-15.8" font-family="Helvetica,sans-Serif" font-size="10.00">Action &gt; &gt;</text>
</g>
</g>
</svg>
