<?xml version="1.0" encoding="UTF-8" standalone="no"?>
<!DOCTYPE svg PUBLIC "-//W3C//DTD SVG 1.1//EN"
 "http://www.w3.org/Graphics/SVG/1.1/DTD/svg11.dtd">
<!-- Generated by graphviz version 8.0.5 (20230430.1635)
 -->
<!-- Title: traits Pages: 1 -->
<svg width="402pt" height="102pt"
 viewBox="0.00 0.00 402.00 102.27" xmlns="http://www.w3.org/2000/svg" xmlns:xlink="http://www.w3.org/1999/xlink">
<g id="graph0" class="graph" transform="scale(1 1) rotate(0) translate(4 98.27)">
<title>traits</title>
<!-- Node2 -->
<g id="node1" class="node">
<title>Node2</title>
<g id="a_node1"><a xlink:href="../../d1/d3d/group___g_r_o_u_p___n_u_l_l_a_b_l_e_s.html" target="_top" xlink:title="This library offers some simple algorithms for convenient working with nullable types.">
<polygon fill="white" stroke="#666666" points="57.25,-53.14 0,-53.14 0,-32.39 57.25,-32.39 57.25,-53.14"/>
<text text-anchor="middle" x="28.62" y="-39.64" font-family="Helvetica,sans-Serif" font-size="10.00">nullables</text>
</a>
</g>
</g>
<!-- Node1 -->
<g id="node3" class="node">
<title>Node1</title>
<g id="a_node3"><a xlink:title="These traits are used by the algorithms and my be specialized by users for their custom types.">
<polygon fill="#999999" stroke="#666666" points="133.5,-53.14 94.25,-53.14 94.25,-32.39 133.5,-32.39 133.5,-53.14"/>
<text text-anchor="middle" x="113.88" y="-39.64" font-family="Helvetica,sans-Serif" font-size="10.00">traits</text>
</a>
</g>
</g>
<!-- Node2&#45;&gt;Node1 -->
<g id="edge1" class="edge">
<title>Node2&#45;&gt;Node1</title>
<path fill="none" stroke="black" d="M68.09,-42.77C77.07,-42.77 86.25,-42.77 93.94,-42.77"/>
<polygon fill="black" stroke="black" points="68.35,-39.27 58.35,-42.77 68.35,-46.27 68.35,-39.27"/>
</g>
<!-- Node3 -->
<g id="node2" class="node">
<title>Node3</title>
<g id="a_node2"><a xlink:href="../../df/dc9/group___g_r_o_u_p___n_u_l_l_a_b_l_e_s___a_d_a_p_t_e_r.html" target="_top" xlink:title=" ">
<polygon fill="white" stroke="#666666" points="378.25,-84.14 327,-84.14 327,-63.39 378.25,-63.39 378.25,-84.14"/>
<text text-anchor="middle" x="352.62" y="-70.64" font-family="Helvetica,sans-Serif" font-size="10.00">adapter</text>
</a>
</g>
</g>
<!-- Node1&#45;&gt;Node3 -->
<g id="edge2" class="edge">
<title>Node1&#45;&gt;Node3</title>
<path fill="none" stroke="orange" stroke-dasharray="5,2" d="M133.78,-47.92C139.45,-49.32 145.7,-50.74 151.5,-51.77 213.97,-62.83 288.45,-69.26 326.52,-72.07"/>
<text text-anchor="start" x="151.5" y="-84.77" font-family="Helvetica,sans-Serif" font-size="10.00">sl::nullables::traits</text>
<text text-anchor="middle" x="222.38" y="-72.02" font-family="Helvetica,sans-Serif" font-size="10.00">&lt; adapter&lt; TNull, TAdapted &gt; &gt;</text>
</g>
<!-- Node4 -->
<g id="node4" class="node">
<title>Node4</title>
<g id="a_node4"><a xlink:href="../../d3/dc7/group___g_r_o_u_p___u_n_i_q_u_e___h_a_n_d_l_e.html" target="_top" xlink:title="A helper type, which acts as a nullable resource handle with self&#45;cleanup support.">
<polygon fill="white" stroke="#666666" points="394,-23.14 311.25,-23.14 311.25,-2.39 394,-2.39 394,-23.14"/>
<text text-anchor="middle" x="352.62" y="-9.64" font-family="Helvetica,sans-Serif" font-size="10.00">unique_handle</text>
</a>
</g>
</g>
<!-- Node1&#45;&gt;Node4 -->
<g id="edge3" class="edge">
<title>Node1&#45;&gt;Node4</title>
<path fill="none" stroke="orange" stroke-dasharray="5,2" d="M124.59,-31.94C131.38,-25.22 141.06,-17.2 151.5,-13.52 204.09,5.02 269.4,0.6 310.81,-5.27"/>
<text text-anchor="start" x="157.88" y="-42.52" font-family="Helvetica,sans-Serif" font-size="10.00">sl::nullables::traits</text>
<text text-anchor="start" x="157.88" y="-29.77" font-family="Helvetica,sans-Serif" font-size="10.00">&lt; unique_handle&lt; T, TDelete</text>
<text text-anchor="middle" x="222.38" y="-17.02" font-family="Helvetica,sans-Serif" font-size="10.00">Action &gt; &gt;</text>
</g>
</g>
</svg>
