<?xml version="1.0" encoding="UTF-8" standalone="no"?>
<!DOCTYPE svg PUBLIC "-//W3C//DTD SVG 1.1//EN"
 "http://www.w3.org/Graphics/SVG/1.1/DTD/svg11.dtd">
<!-- Generated by graphviz version 2.43.0 (0)
 -->
<!-- Title: sl::functional::composition_fn&lt; TOperation, TFunctions &gt; Pages: 1 -->
<svg width="201pt" height="185pt"
 viewBox="0.00 0.00 200.50 185.00" xmlns="http://www.w3.org/2000/svg" xmlns:xlink="http://www.w3.org/1999/xlink">
<g id="graph0" class="graph" transform="scale(1 1) rotate(0) translate(4 181)">
<title>sl::functional::composition_fn&lt; TOperation, TFunctions &gt;</title>
<polygon fill="white" stroke="transparent" points="-4,4 -4,-181 196.5,-181 196.5,4 -4,4"/>
<!-- Node1 -->
<g id="node1" class="node">
<title>Node1</title>
<g id="a_node1"><a xlink:title="Functional type, which composes multiple functional objects via the given operation.">
<polygon fill="#bfbfbf" stroke="black" points="0,-0.5 0,-30.5 167,-30.5 167,-0.5 0,-0.5"/>
<text text-anchor="start" x="8" y="-18.5" font-family="Helvetica,sans-Serif" font-size="10.00">sl::functional::composition</text>
<text text-anchor="middle" x="83.5" y="-7.5" font-family="Helvetica,sans-Serif" font-size="10.00">_fn&lt; TOperation, TFunctions &gt;</text>
</a>
</g>
</g>
<!-- Node2 -->
<g id="node2" class="node">
<title>Node2</title>
<g id="a_node2"><a xlink:href="../../d6/d62/structsl_1_1unified__base.html" target="_top" xlink:title=" ">
<polygon fill="white" stroke="black" points="12,-68.5 12,-98.5 155,-98.5 155,-68.5 12,-68.5"/>
<text text-anchor="start" x="20" y="-86.5" font-family="Helvetica,sans-Serif" font-size="10.00">sl::unified_base&lt; detail</text>
<text text-anchor="middle" x="83.5" y="-75.5" font-family="Helvetica,sans-Serif" font-size="10.00">::composition_base_tag &gt;</text>
</a>
</g>
</g>
<!-- Node2&#45;&gt;Node1 -->
<g id="edge1" class="edge">
<title>Node2&#45;&gt;Node1</title>
<path fill="none" stroke="#8b1a1a" d="M83.5,-58.03C83.5,-48.86 83.5,-38.74 83.5,-30.79"/>
<polygon fill="#8b1a1a" stroke="#8b1a1a" points="80,-58.18 83.5,-68.18 87,-58.18 80,-58.18"/>
</g>
<!-- Node3 -->
<g id="node3" class="node">
<title>Node3</title>
<g id="a_node3"><a xlink:href="../../d6/d62/structsl_1_1unified__base.html" target="_top" xlink:title="Helper type, which can be used to create a unified base class for templated derived classes and thus ...">
<polygon fill="white" stroke="black" points="15,-157.5 15,-176.5 152,-176.5 152,-157.5 15,-157.5"/>
<text text-anchor="middle" x="83.5" y="-164.5" font-family="Helvetica,sans-Serif" font-size="10.00">sl::unified_base&lt; TTag &gt;</text>
</a>
</g>
</g>
<!-- Node3&#45;&gt;Node2 -->
<g id="edge2" class="edge">
<title>Node3&#45;&gt;Node2</title>
<path fill="none" stroke="orange" stroke-dasharray="5,2" d="M83.5,-147.23C83.5,-132.41 83.5,-112.05 83.5,-98.6"/>
<polygon fill="orange" stroke="orange" points="80,-147.28 83.5,-157.28 87,-147.28 80,-147.28"/>
<text text-anchor="start" x="83.5" y="-131" font-family="Helvetica,sans-Serif" font-size="10.00"> &lt; detail::composition</text>
<text text-anchor="middle" x="138" y="-120" font-family="Helvetica,sans-Serif" font-size="10.00">_base_tag &gt;</text>
</g>
</g>
</svg>
