<?xml version="1.0" encoding="UTF-8" standalone="no"?>
<!DOCTYPE svg PUBLIC "-//W3C//DTD SVG 1.1//EN"
 "http://www.w3.org/Graphics/SVG/1.1/DTD/svg11.dtd">
<!-- Generated by graphviz version 8.0.5 (20230430.1635)
 -->
<!-- Title: Simple&#45;Utility/functional/BasicClosure.hpp Pages: 1 -->
<svg width="365pt" height="168pt"
 viewBox="0.00 0.00 364.99 167.75" xmlns="http://www.w3.org/2000/svg" xmlns:xlink="http://www.w3.org/1999/xlink">
<g id="graph0" class="graph" transform="scale(1 1) rotate(0) translate(4 163.75)">
<title>Simple&#45;Utility/functional/BasicClosure.hpp</title>
<!-- Node1 -->
<g id="node1" class="node">
<title>Node1</title>
<g id="a_node1"><a xlink:title=" ">
<polygon fill="#999999" stroke="#666666" points="190.61,-159.75 63.61,-159.75 63.61,-126.25 190.61,-126.25 190.61,-159.75"/>
<text text-anchor="start" x="71.61" y="-146.25" font-family="Helvetica,sans-Serif" font-size="10.00">Simple&#45;Utility/functional</text>
<text text-anchor="middle" x="127.11" y="-133.5" font-family="Helvetica,sans-Serif" font-size="10.00">/BasicClosure.hpp</text>
</a>
</g>
</g>
<!-- Node2 -->
<g id="node2" class="node">
<title>Node2</title>
<g id="a_node2"><a xlink:title=" ">
<polygon fill="#e0e0e0" stroke="#999999" points="133.36,-20.75 76.86,-20.75 76.86,0 133.36,0 133.36,-20.75"/>
<text text-anchor="middle" x="105.11" y="-7.25" font-family="Helvetica,sans-Serif" font-size="10.00">concepts</text>
</a>
</g>
</g>
<!-- Node1&#45;&gt;Node2 -->
<g id="edge1" class="edge">
<title>Node1&#45;&gt;Node2</title>
<path fill="none" stroke="#63b8ff" d="M63.32,-129.8C41.41,-122.22 19.14,-109.99 6.11,-90.25 -2.09,-77.82 -1.93,-69.28 6.11,-56.75 19.3,-36.2 44.39,-24.83 66,-18.62"/>
<polygon fill="#63b8ff" stroke="#63b8ff" points="66.78,-21.77 75.59,-15.89 65.03,-14.99 66.78,-21.77"/>
</g>
<!-- Node3 -->
<g id="node3" class="node">
<title>Node3</title>
<g id="a_node3"><a xlink:title=" ">
<polygon fill="#e0e0e0" stroke="#999999" points="76.99,-83.88 15.24,-83.88 15.24,-63.12 76.99,-63.12 76.99,-83.88"/>
<text text-anchor="middle" x="46.11" y="-70.38" font-family="Helvetica,sans-Serif" font-size="10.00">functional</text>
</a>
</g>
</g>
<!-- Node1&#45;&gt;Node3 -->
<g id="edge2" class="edge">
<title>Node1&#45;&gt;Node3</title>
<path fill="none" stroke="#63b8ff" d="M107.91,-126C95.3,-115.49 78.82,-101.76 66.05,-91.12"/>
<polygon fill="#63b8ff" stroke="#63b8ff" points="68.82,-88.03 58.9,-84.32 64.34,-93.41 68.82,-88.03"/>
</g>
<!-- Node4 -->
<g id="node4" class="node">
<title>Node4</title>
<g id="a_node4"><a xlink:title=" ">
<polygon fill="#e0e0e0" stroke="#999999" points="159.11,-83.88 95.11,-83.88 95.11,-63.12 159.11,-63.12 159.11,-83.88"/>
<text text-anchor="middle" x="127.11" y="-70.38" font-family="Helvetica,sans-Serif" font-size="10.00">type_traits</text>
</a>
</g>
</g>
<!-- Node1&#45;&gt;Node4 -->
<g id="edge3" class="edge">
<title>Node1&#45;&gt;Node4</title>
<path fill="none" stroke="#63b8ff" d="M127.11,-126C127.11,-116.8 127.11,-105.14 127.11,-95.24"/>
<polygon fill="#63b8ff" stroke="#63b8ff" points="130.61,-95.32 127.11,-85.32 123.61,-95.32 130.61,-95.32"/>
</g>
<!-- Node5 -->
<g id="node5" class="node">
<title>Node5</title>
<g id="a_node5"><a xlink:title=" ">
<polygon fill="#e0e0e0" stroke="#999999" points="217.49,-83.88 176.74,-83.88 176.74,-63.12 217.49,-63.12 217.49,-83.88"/>
<text text-anchor="middle" x="197.11" y="-70.38" font-family="Helvetica,sans-Serif" font-size="10.00">utility</text>
</a>
</g>
</g>
<!-- Node1&#45;&gt;Node5 -->
<g id="edge4" class="edge">
<title>Node1&#45;&gt;Node5</title>
<path fill="none" stroke="#63b8ff" d="M143.7,-126C154.4,-115.69 168.3,-102.28 179.24,-91.73"/>
<polygon fill="#63b8ff" stroke="#63b8ff" points="181.16,-94.78 185.93,-85.32 176.3,-89.74 181.16,-94.78"/>
</g>
<!-- Node6 -->
<g id="node6" class="node">
<title>Node6</title>
<g id="a_node6"><a xlink:href="../../dd/d5c/stl__extensions_8hpp.html" target="_top" xlink:title=" ">
<polygon fill="white" stroke="#666666" points="356.99,-90.25 235.24,-90.25 235.24,-56.75 356.99,-56.75 356.99,-90.25"/>
<text text-anchor="start" x="243.24" y="-76.75" font-family="Helvetica,sans-Serif" font-size="10.00">Simple&#45;Utility/concepts</text>
<text text-anchor="middle" x="296.11" y="-64" font-family="Helvetica,sans-Serif" font-size="10.00">/stl_extensions.hpp</text>
</a>
</g>
</g>
<!-- Node1&#45;&gt;Node6 -->
<g id="edge5" class="edge">
<title>Node1&#45;&gt;Node6</title>
<path fill="none" stroke="#63b8ff" d="M167.59,-125.83C191.02,-116.47 220.72,-104.61 245.66,-94.65"/>
<polygon fill="#63b8ff" stroke="#63b8ff" points="246.68,-97.61 254.67,-90.65 244.08,-91.11 246.68,-97.61"/>
</g>
<!-- Node6&#45;&gt;Node2 -->
<g id="edge7" class="edge">
<title>Node6&#45;&gt;Node2</title>
<path fill="none" stroke="#63b8ff" d="M245.43,-56.28C213.64,-46.11 173.27,-33.19 144.01,-23.82"/>
<polygon fill="#63b8ff" stroke="#63b8ff" points="145.35,-20.26 134.76,-20.54 143.22,-26.93 145.35,-20.26"/>
</g>
<!-- Node7 -->
<g id="node7" class="node">
<title>Node7</title>
<g id="a_node7"><a xlink:title=" ">
<polygon fill="#e0e0e0" stroke="#999999" points="323.99,-20.75 268.24,-20.75 268.24,0 323.99,0 323.99,-20.75"/>
<text text-anchor="middle" x="296.11" y="-7.25" font-family="Helvetica,sans-Serif" font-size="10.00">compare</text>
</a>
</g>
</g>
<!-- Node6&#45;&gt;Node7 -->
<g id="edge6" class="edge">
<title>Node6&#45;&gt;Node7</title>
<path fill="none" stroke="#63b8ff" d="M296.11,-56.44C296.11,-49.02 296.11,-40.11 296.11,-32.18"/>
<polygon fill="#63b8ff" stroke="#63b8ff" points="299.61,-32.22 296.11,-22.22 292.61,-32.22 299.61,-32.22"/>
</g>
</g>
</svg>
