<?xml version="1.0" encoding="UTF-8" standalone="no"?>
<!DOCTYPE svg PUBLIC "-//W3C//DTD SVG 1.1//EN"
 "http://www.w3.org/Graphics/SVG/1.1/DTD/svg11.dtd">
<!-- Generated by graphviz version 7.0.5 (20221223.1930)
 -->
<!-- Title: Simple&#45;Utility/functional/compare.hpp Pages: 1 -->
<!--zoomable 423 -->
<svg id="main" version="1.1" xmlns="http://www.w3.org/2000/svg" xmlns:xlink="http://www.w3.org/1999/xlink" xml:space="preserve" onload="init(evt)">
<style type="text/css"><![CDATA[
.edge:hover path { stroke: red; }
.edge:hover polygon { stroke: red; fill: red; }
]]></style>
<script type="text/javascript"><![CDATA[
var edges = document.getElementsByTagName('g');
if (edges && edges.length) {
  for (var i=0;i<edges.length;i++) {
    if (edges[i].id.substr(0,4)=='edge') {
      edges[i].setAttribute('class','edge');
    }
  }
}
]]></script>
        <defs>
                <circle id="rim" cx="0" cy="0" r="7"/>
                <circle id="rim2" cx="0" cy="0" r="3.5"/>
                <g id="zoomPlus">
                        <use xlink:href="#rim" fill="#404040">
                                <set attributeName="fill" to="#808080" begin="zoomplus.mouseover" end="zoomplus.mouseout"/>
                        </use>
                        <path d="M-4,0h8M0,-4v8" fill="none" stroke="white" stroke-width="1.5" pointer-events="none"/>
                </g>
                <g id="zoomMin">
                        <use xlink:href="#rim" fill="#404040">
                                <set attributeName="fill" to="#808080" begin="zoomminus.mouseover" end="zoomminus.mouseout"/>
                        </use>
                        <path d="M-4,0h8" fill="none" stroke="white" stroke-width="1.5" pointer-events="none"/>
                </g>
                <g id="dirArrow">
                        <path fill="none" stroke="white" stroke-width="1.5" d="M0,-3.0v7 M-2.5,-0.5L0,-3.0L2.5,-0.5"/>
                </g>
               <g id="resetDef">
                       <use xlink:href="#rim2" fill="#404040">
                               <set attributeName="fill" to="#808080" begin="reset.mouseover" end="reset.mouseout"/>
                       </use>
               </g>
        </defs>

<script type="text/javascript">
var viewWidth = 1127;
var viewHeight = 423;
var sectionId = 'dynsection-0';
</script>
<script xlink:href="../../svgpan.js"/>
<svg id="graph" class="graph">
<g id="viewport">
<title>Simple&#45;Utility/functional/compare.hpp</title>
<!-- Node1 -->
<g id="node1" class="node">
<title>Node1</title>
<g id="a_node1"><a xlink:title=" ">
<polygon fill="#999999" stroke="#666666" points="717.5,-415 589.5,-415 589.5,-385 717.5,-385 717.5,-415"/>
<text text-anchor="start" x="597.5" y="-403" font-family="Helvetica,sans-Serif" font-size="10.00">Simple&#45;Utility/functional</text>
<text text-anchor="middle" x="653.5" y="-392" font-family="Helvetica,sans-Serif" font-size="10.00">/compare.hpp</text>
</a>
</g>
</g>
<!-- Node2 -->
<g id="node2" class="node">
<title>Node2</title>
<g id="a_node2"><a xlink:href="../../d2/d7e/predicate_8hpp.html" target="_top" xlink:title=" ">
<polygon fill="white" stroke="#666666" points="671.5,-349 543.5,-349 543.5,-319 671.5,-319 671.5,-349"/>
<text text-anchor="start" x="551.5" y="-337" font-family="Helvetica,sans-Serif" font-size="10.00">Simple&#45;Utility/functional</text>
<text text-anchor="middle" x="607.5" y="-326" font-family="Helvetica,sans-Serif" font-size="10.00">/predicate.hpp</text>
</a>
</g>
</g>
<!-- Node1&#45;&gt;Node2 -->
<g id="edge1" class="edge">
<title>Node1&#45;&gt;Node2</title>
<path fill="none" stroke="#63b8ff" d="M643.29,-384.8C637.69,-377.01 630.61,-367.16 624.23,-358.28"/>
<polygon fill="#63b8ff" stroke="#63b8ff" points="627.24,-356.47 618.56,-350.39 621.56,-360.56 627.24,-356.47"/>
</g>
<!-- Node21 -->
<g id="node21" class="node">
<title>Node21</title>
<g id="a_node21"><a xlink:href="../../d6/deb/transform_8hpp.html" target="_top" xlink:title=" ">
<polygon fill="white" stroke="#666666" points="949.5,-283 821.5,-283 821.5,-253 949.5,-253 949.5,-283"/>
<text text-anchor="start" x="829.5" y="-271" font-family="Helvetica,sans-Serif" font-size="10.00">Simple&#45;Utility/functional</text>
<text text-anchor="middle" x="885.5" y="-260" font-family="Helvetica,sans-Serif" font-size="10.00">/transform.hpp</text>
</a>
</g>
</g>
<!-- Node1&#45;&gt;Node21 -->
<g id="edge40" class="edge">
<title>Node1&#45;&gt;Node21</title>
<path fill="none" stroke="#63b8ff" d="M679.21,-384.59C720.76,-361.31 802.75,-315.37 849.89,-288.96"/>
<polygon fill="#63b8ff" stroke="#63b8ff" points="851.34,-292.16 858.35,-284.21 847.92,-286.05 851.34,-292.16"/>
</g>
<!-- Node3 -->
<g id="node3" class="node">
<title>Node3</title>
<g id="a_node3"><a xlink:href="../../d1/d76/functional_2base_8hpp.html" target="_top" xlink:title=" ">
<polygon fill="white" stroke="#666666" points="672.5,-151 544.5,-151 544.5,-121 672.5,-121 672.5,-151"/>
<text text-anchor="start" x="552.5" y="-139" font-family="Helvetica,sans-Serif" font-size="10.00">Simple&#45;Utility/functional</text>
<text text-anchor="middle" x="608.5" y="-128" font-family="Helvetica,sans-Serif" font-size="10.00">/base.hpp</text>
</a>
</g>
</g>
<!-- Node2&#45;&gt;Node3 -->
<g id="edge2" class="edge">
<title>Node2&#45;&gt;Node3</title>
<path fill="none" stroke="#63b8ff" d="M607.57,-318.59C607.74,-285.67 608.16,-204.59 608.37,-162.81"/>
<polygon fill="#63b8ff" stroke="#63b8ff" points="611.87,-162.96 608.42,-152.95 604.87,-162.93 611.87,-162.96"/>
</g>
<!-- Node11 -->
<g id="node11" class="node">
<title>Node11</title>
<g id="a_node11"><a xlink:href="../../d9/d76/bind_8hpp.html" target="_top" xlink:title=" ">
<polygon fill="white" stroke="#666666" points="1078.5,-217 950.5,-217 950.5,-187 1078.5,-187 1078.5,-217"/>
<text text-anchor="start" x="958.5" y="-205" font-family="Helvetica,sans-Serif" font-size="10.00">Simple&#45;Utility/functional</text>
<text text-anchor="middle" x="1014.5" y="-194" font-family="Helvetica,sans-Serif" font-size="10.00">/operators/bind.hpp</text>
</a>
</g>
</g>
<!-- Node2&#45;&gt;Node11 -->
<g id="edge14" class="edge">
<title>Node2&#45;&gt;Node11</title>
<path fill="none" stroke="#63b8ff" d="M671.66,-329.93C759.51,-324.72 911.69,-311.75 958.5,-283 979.53,-270.08 994.76,-245.98 1003.98,-227.59"/>
<polygon fill="#63b8ff" stroke="#63b8ff" points="1007.09,-229.2 1008.18,-218.66 1000.75,-226.22 1007.09,-229.2"/>
</g>
<!-- Node15 -->
<g id="node15" class="node">
<title>Node15</title>
<g id="a_node15"><a xlink:href="../../df/d80/conjunction_8hpp.html" target="_top" xlink:title=" ">
<polygon fill="white" stroke="#666666" points="596,-217 455,-217 455,-187 596,-187 596,-217"/>
<text text-anchor="start" x="463" y="-205" font-family="Helvetica,sans-Serif" font-size="10.00">Simple&#45;Utility/functional</text>
<text text-anchor="middle" x="525.5" y="-194" font-family="Helvetica,sans-Serif" font-size="10.00">/operators/conjunction.hpp</text>
</a>
</g>
</g>
<!-- Node2&#45;&gt;Node15 -->
<g id="edge21" class="edge">
<title>Node2&#45;&gt;Node15</title>
<path fill="none" stroke="#63b8ff" d="M598.41,-318.59C584.43,-296.43 557.51,-253.75 540.58,-226.91"/>
<polygon fill="#63b8ff" stroke="#63b8ff" points="543.73,-225.34 535.44,-218.75 537.81,-229.08 543.73,-225.34"/>
</g>
<!-- Node16 -->
<g id="node16" class="node">
<title>Node16</title>
<g id="a_node16"><a xlink:href="../../d4/d7c/disjunction_8hpp.html" target="_top" xlink:title=" ">
<polygon fill="white" stroke="#666666" points="437,-217 300,-217 300,-187 437,-187 437,-217"/>
<text text-anchor="start" x="308" y="-205" font-family="Helvetica,sans-Serif" font-size="10.00">Simple&#45;Utility/functional</text>
<text text-anchor="middle" x="368.5" y="-194" font-family="Helvetica,sans-Serif" font-size="10.00">/operators/disjunction.hpp</text>
</a>
</g>
</g>
<!-- Node2&#45;&gt;Node16 -->
<g id="edge24" class="edge">
<title>Node2&#45;&gt;Node16</title>
<path fill="none" stroke="#63b8ff" d="M581.01,-318.59C538.21,-295.31 453.75,-249.37 405.19,-222.96"/>
<polygon fill="#63b8ff" stroke="#63b8ff" points="406.9,-219.9 396.44,-218.2 403.55,-226.05 406.9,-219.9"/>
</g>
<!-- Node17 -->
<g id="node17" class="node">
<title>Node17</title>
<g id="a_node17"><a xlink:href="../../dc/d0a/equal_8hpp.html" target="_top" xlink:title=" ">
<polygon fill="white" stroke="#666666" points="281.5,-217 153.5,-217 153.5,-187 281.5,-187 281.5,-217"/>
<text text-anchor="start" x="161.5" y="-205" font-family="Helvetica,sans-Serif" font-size="10.00">Simple&#45;Utility/functional</text>
<text text-anchor="middle" x="217.5" y="-194" font-family="Helvetica,sans-Serif" font-size="10.00">/operators/equal.hpp</text>
</a>
</g>
</g>
<!-- Node2&#45;&gt;Node17 -->
<g id="edge27" class="edge">
<title>Node2&#45;&gt;Node17</title>
<path fill="none" stroke="#63b8ff" d="M564.27,-318.59C492.67,-294.72 349.63,-247.04 271.5,-221"/>
<polygon fill="#63b8ff" stroke="#63b8ff" points="272.95,-217.79 262.36,-217.95 270.74,-224.43 272.95,-217.79"/>
</g>
<!-- Node18 -->
<g id="node18" class="node">
<title>Node18</title>
<g id="a_node18"><a xlink:href="../../d7/dd0/equivalent_8hpp.html" target="_top" xlink:title=" ">
<polygon fill="white" stroke="#666666" points="135,-217 0,-217 0,-187 135,-187 135,-217"/>
<text text-anchor="start" x="8" y="-205" font-family="Helvetica,sans-Serif" font-size="10.00">Simple&#45;Utility/functional</text>
<text text-anchor="middle" x="67.5" y="-194" font-family="Helvetica,sans-Serif" font-size="10.00">/operators/equivalent.hpp</text>
</a>
</g>
</g>
<!-- Node2&#45;&gt;Node18 -->
<g id="edge30" class="edge">
<title>Node2&#45;&gt;Node18</title>
<path fill="none" stroke="#63b8ff" d="M543.01,-320.04C495.92,-310.37 430.59,-296.56 373.5,-283 289.08,-262.96 192.29,-237.18 130.57,-220.38"/>
<polygon fill="#63b8ff" stroke="#63b8ff" points="131.87,-217.11 121.3,-217.85 130.03,-223.86 131.87,-217.11"/>
</g>
<!-- Node19 -->
<g id="node19" class="node">
<title>Node19</title>
<g id="a_node19"><a xlink:href="../../d8/dea/negation_8hpp.html" target="_top" xlink:title=" ">
<polygon fill="white" stroke="#666666" points="765,-283 636,-283 636,-253 765,-253 765,-283"/>
<text text-anchor="start" x="644" y="-271" font-family="Helvetica,sans-Serif" font-size="10.00">Simple&#45;Utility/functional</text>
<text text-anchor="middle" x="700.5" y="-260" font-family="Helvetica,sans-Serif" font-size="10.00">/operators/negation.hpp</text>
</a>
</g>
</g>
<!-- Node2&#45;&gt;Node19 -->
<g id="edge33" class="edge">
<title>Node2&#45;&gt;Node19</title>
<path fill="none" stroke="#63b8ff" d="M628.14,-318.8C640.57,-310.24 656.63,-299.19 670.45,-289.68"/>
<polygon fill="#63b8ff" stroke="#63b8ff" points="672.1,-292.8 678.35,-284.24 668.13,-287.03 672.1,-292.8"/>
</g>
<!-- Node20 -->
<g id="node20" class="node">
<title>Node20</title>
<g id="a_node20"><a xlink:href="../../d5/db7/pipe_8hpp.html" target="_top" xlink:title=" ">
<polygon fill="white" stroke="#666666" points="856.5,-217 728.5,-217 728.5,-187 856.5,-187 856.5,-217"/>
<text text-anchor="start" x="736.5" y="-205" font-family="Helvetica,sans-Serif" font-size="10.00">Simple&#45;Utility/functional</text>
<text text-anchor="middle" x="792.5" y="-194" font-family="Helvetica,sans-Serif" font-size="10.00">/operators/pipe.hpp</text>
</a>
</g>
</g>
<!-- Node2&#45;&gt;Node20 -->
<g id="edge39" class="edge">
<title>Node2&#45;&gt;Node20</title>
<path fill="none" stroke="#63b8ff" d="M671.59,-329.18C706.65,-323.73 748.18,-311.22 774.5,-283 788,-268.52 792.15,-246.16 793.12,-228.76"/>
<polygon fill="#63b8ff" stroke="#63b8ff" points="796.61,-228.99 793.32,-218.92 789.61,-228.84 796.61,-228.99"/>
</g>
<!-- Node4 -->
<g id="node4" class="node">
<title>Node4</title>
<g id="a_node4"><a xlink:title=" ">
<polygon fill="#e0e0e0" stroke="#999999" points="542,-19 485,-19 485,0 542,0 542,-19"/>
<text text-anchor="middle" x="513.5" y="-7" font-family="Helvetica,sans-Serif" font-size="10.00">concepts</text>
</a>
</g>
</g>
<!-- Node3&#45;&gt;Node4 -->
<g id="edge3" class="edge">
<title>Node3&#45;&gt;Node4</title>
<path fill="none" stroke="#63b8ff" d="M576.76,-120.58C561.61,-112.2 544.45,-100.26 533.5,-85 521.92,-68.86 517.04,-46.41 514.99,-30.38"/>
<polygon fill="#63b8ff" stroke="#63b8ff" points="518.5,-30.26 514.03,-20.65 511.53,-30.95 518.5,-30.26"/>
</g>
<!-- Node5 -->
<g id="node5" class="node">
<title>Node5</title>
<g id="a_node5"><a xlink:title=" ">
<polygon fill="#e0e0e0" stroke="#999999" points="793.5,-79.5 731.5,-79.5 731.5,-60.5 793.5,-60.5 793.5,-79.5"/>
<text text-anchor="middle" x="762.5" y="-67.5" font-family="Helvetica,sans-Serif" font-size="10.00">functional</text>
</a>
</g>
</g>
<!-- Node3&#45;&gt;Node5 -->
<g id="edge4" class="edge">
<title>Node3&#45;&gt;Node5</title>
<path fill="none" stroke="#63b8ff" d="M643.06,-120.64C669.17,-109.79 704.75,-95 730.27,-84.39"/>
<polygon fill="#63b8ff" stroke="#63b8ff" points="731.59,-87.64 739.48,-80.57 728.9,-81.17 731.59,-87.64"/>
</g>
<!-- Node6 -->
<g id="node6" class="node">
<title>Node6</title>
<g id="a_node6"><a xlink:title=" ">
<polygon fill="#e0e0e0" stroke="#999999" points="901,-19 836,-19 836,0 901,0 901,-19"/>
<text text-anchor="middle" x="868.5" y="-7" font-family="Helvetica,sans-Serif" font-size="10.00">type_traits</text>
</a>
</g>
</g>
<!-- Node3&#45;&gt;Node6 -->
<g id="edge5" class="edge">
<title>Node3&#45;&gt;Node6</title>
<path fill="none" stroke="#63b8ff" d="M631.46,-120.63C646.72,-110.9 667.08,-97.57 684.5,-85 701.95,-72.41 703.43,-64.98 722.5,-55 754.87,-38.06 794.73,-26.46 824.61,-19.36"/>
<polygon fill="#63b8ff" stroke="#63b8ff" points="825.1,-22.84 834.07,-17.2 823.54,-16.02 825.1,-22.84"/>
</g>
<!-- Node7 -->
<g id="node7" class="node">
<title>Node7</title>
<g id="a_node7"><a xlink:href="../../d8/dd2/_config_8hpp.html" target="_top" xlink:title=" ">
<polygon fill="white" stroke="#666666" points="675,-79.5 542,-79.5 542,-60.5 675,-60.5 675,-79.5"/>
<text text-anchor="middle" x="608.5" y="-67.5" font-family="Helvetica,sans-Serif" font-size="10.00">Simple&#45;Utility/Config.hpp</text>
</a>
</g>
</g>
<!-- Node3&#45;&gt;Node7 -->
<g id="edge6" class="edge">
<title>Node3&#45;&gt;Node7</title>
<path fill="none" stroke="#63b8ff" d="M608.5,-120.8C608.5,-112.09 608.5,-100.81 608.5,-91.18"/>
<polygon fill="#63b8ff" stroke="#63b8ff" points="612,-91.36 608.5,-81.36 605,-91.36 612,-91.36"/>
</g>
<!-- Node8 -->
<g id="node8" class="node">
<title>Node8</title>
<g id="a_node8"><a xlink:href="../../d4/d1c/unified__base_8hpp.html" target="_top" xlink:title=" ">
<polygon fill="white" stroke="#666666" points="925,-85 812,-85 812,-55 925,-55 925,-85"/>
<text text-anchor="start" x="820" y="-73" font-family="Helvetica,sans-Serif" font-size="10.00">Simple&#45;Utility/unified</text>
<text text-anchor="middle" x="868.5" y="-62" font-family="Helvetica,sans-Serif" font-size="10.00">_base.hpp</text>
</a>
</g>
</g>
<!-- Node3&#45;&gt;Node8 -->
<g id="edge7" class="edge">
<title>Node3&#45;&gt;Node8</title>
<path fill="none" stroke="#63b8ff" d="M667.17,-120.56C706.82,-110.8 759.29,-97.88 800.73,-87.68"/>
<polygon fill="#63b8ff" stroke="#63b8ff" points="801.48,-91.1 810.36,-85.31 799.81,-84.3 801.48,-91.1"/>
</g>
<!-- Node9 -->
<g id="node9" class="node">
<title>Node9</title>
<g id="a_node9"><a xlink:href="../../dd/d5c/stl__extensions_8hpp.html" target="_top" xlink:title=" ">
<polygon fill="white" stroke="#666666" points="485.5,-85 363.5,-85 363.5,-55 485.5,-55 485.5,-85"/>
<text text-anchor="start" x="371.5" y="-73" font-family="Helvetica,sans-Serif" font-size="10.00">Simple&#45;Utility/concepts</text>
<text text-anchor="middle" x="424.5" y="-62" font-family="Helvetica,sans-Serif" font-size="10.00">/stl_extensions.hpp</text>
</a>
</g>
</g>
<!-- Node3&#45;&gt;Node9 -->
<g id="edge10" class="edge">
<title>Node3&#45;&gt;Node9</title>
<path fill="none" stroke="#63b8ff" d="M567.21,-120.64C540.43,-111.32 505.32,-99.11 476.63,-89.13"/>
<polygon fill="#63b8ff" stroke="#63b8ff" points="478,-85.9 467.4,-85.92 475.7,-92.51 478,-85.9"/>
</g>
<!-- Node10 -->
<g id="node10" class="node">
<title>Node10</title>
<g id="a_node10"><a xlink:href="../../d5/d8e/concepts_2utility_8hpp.html" target="_top" xlink:title=" ">
<polygon fill="white" stroke="#666666" points="345.5,-85 223.5,-85 223.5,-55 345.5,-55 345.5,-85"/>
<text text-anchor="start" x="231.5" y="-73" font-family="Helvetica,sans-Serif" font-size="10.00">Simple&#45;Utility/concepts</text>
<text text-anchor="middle" x="284.5" y="-62" font-family="Helvetica,sans-Serif" font-size="10.00">/utility.hpp</text>
</a>
</g>
</g>
<!-- Node3&#45;&gt;Node10 -->
<g id="edge12" class="edge">
<title>Node3&#45;&gt;Node10</title>
<path fill="none" stroke="#63b8ff" d="M544.03,-122.36C495.29,-112.8 426.4,-99.25 357.08,-85.51"/>
<polygon fill="#63b8ff" stroke="#63b8ff" points="357.93,-82.11 347.44,-83.6 356.57,-88.98 357.93,-82.11"/>
</g>
<!-- Node8&#45;&gt;Node4 -->
<g id="edge8" class="edge">
<title>Node8&#45;&gt;Node4</title>
<path fill="none" stroke="#63b8ff" d="M811.66,-56.73C808.56,-56.13 805.5,-55.55 802.5,-55 713.92,-38.8 609.34,-23.68 553.46,-15.93"/>
<polygon fill="#63b8ff" stroke="#63b8ff" points="554.19,-12.5 543.8,-14.59 553.23,-19.43 554.19,-12.5"/>
</g>
<!-- Node8&#45;&gt;Node6 -->
<g id="edge9" class="edge">
<title>Node8&#45;&gt;Node6</title>
<path fill="none" stroke="#63b8ff" d="M868.5,-54.54C868.5,-47.34 868.5,-38.53 868.5,-30.68"/>
<polygon fill="#63b8ff" stroke="#63b8ff" points="872,-30.69 868.5,-20.69 865,-30.69 872,-30.69"/>
</g>
<!-- Node9&#45;&gt;Node4 -->
<g id="edge11" class="edge">
<title>Node9&#45;&gt;Node4</title>
<path fill="none" stroke="#63b8ff" d="M446.5,-54.54C459.87,-45.75 476.92,-34.54 490.48,-25.63"/>
<polygon fill="#63b8ff" stroke="#63b8ff" points="492.34,-28.6 498.78,-20.18 488.5,-22.75 492.34,-28.6"/>
</g>
<!-- Node10&#45;&gt;Node4 -->
<g id="edge13" class="edge">
<title>Node10&#45;&gt;Node4</title>
<path fill="none" stroke="#63b8ff" d="M341.11,-54.54C382.4,-43.99 437.32,-29.96 473.96,-20.6"/>
<polygon fill="#63b8ff" stroke="#63b8ff" points="474.43,-24.09 483.25,-18.23 472.69,-17.31 474.43,-24.09"/>
</g>
<!-- Node11&#45;&gt;Node3 -->
<g id="edge15" class="edge">
<title>Node11&#45;&gt;Node3</title>
<path fill="none" stroke="#63b8ff" d="M950.17,-190.86C877.82,-179.45 760.45,-160.95 683.86,-148.88"/>
<polygon fill="#63b8ff" stroke="#63b8ff" points="684.78,-145.48 674.36,-147.38 683.69,-152.4 684.78,-145.48"/>
</g>
<!-- Node12 -->
<g id="node12" class="node">
<title>Node12</title>
<g id="a_node12"><a xlink:href="../../d2/d30/general_8hpp.html" target="_top" xlink:title=" ">
<polygon fill="white" stroke="#666666" points="1061,-151 956,-151 956,-121 1061,-121 1061,-151"/>
<text text-anchor="start" x="964" y="-139" font-family="Helvetica,sans-Serif" font-size="10.00">Simple&#45;Utility/tuple</text>
<text text-anchor="middle" x="1008.5" y="-128" font-family="Helvetica,sans-Serif" font-size="10.00">/general.hpp</text>
</a>
</g>
</g>
<!-- Node11&#45;&gt;Node12 -->
<g id="edge16" class="edge">
<title>Node11&#45;&gt;Node12</title>
<path fill="none" stroke="#63b8ff" d="M1013.17,-186.8C1012.5,-179.67 1011.67,-170.82 1010.9,-162.56"/>
<polygon fill="#63b8ff" stroke="#63b8ff" points="1014.39,-162.3 1009.97,-152.67 1007.42,-162.95 1014.39,-162.3"/>
</g>
<!-- Node12&#45;&gt;Node4 -->
<g id="edge17" class="edge">
<title>Node12&#45;&gt;Node4</title>
<path fill="none" stroke="#63b8ff" d="M997.38,-120.75C980.8,-99.9 949.89,-62.72 934.5,-55 868.33,-21.82 645.66,-13.3 553.73,-11.18"/>
<polygon fill="#63b8ff" stroke="#63b8ff" points="554,-7.69 543.93,-10.97 553.85,-14.68 554,-7.69"/>
</g>
<!-- Node12&#45;&gt;Node6 -->
<g id="edge19" class="edge">
<title>Node12&#45;&gt;Node6</title>
<path fill="none" stroke="#63b8ff" d="M1004.44,-120.78C998.78,-103.25 986.96,-73.49 967.5,-55 951.97,-40.24 930.71,-29.82 911.87,-22.79"/>
<polygon fill="#63b8ff" stroke="#63b8ff" points="913.14,-19.52 902.55,-19.53 910.83,-26.13 913.14,-19.52"/>
</g>
<!-- Node13 -->
<g id="node13" class="node">
<title>Node13</title>
<g id="a_node13"><a xlink:title=" ">
<polygon fill="#e0e0e0" stroke="#999999" points="1059.5,-79.5 1019.5,-79.5 1019.5,-60.5 1059.5,-60.5 1059.5,-79.5"/>
<text text-anchor="middle" x="1039.5" y="-67.5" font-family="Helvetica,sans-Serif" font-size="10.00">tuple</text>
</a>
</g>
</g>
<!-- Node12&#45;&gt;Node13 -->
<g id="edge18" class="edge">
<title>Node12&#45;&gt;Node13</title>
<path fill="none" stroke="#63b8ff" d="M1015.38,-120.8C1019.79,-111.7 1025.56,-99.79 1030.35,-89.9"/>
<polygon fill="#63b8ff" stroke="#63b8ff" points="1033.35,-91.73 1034.56,-81.21 1027.05,-88.68 1033.35,-91.73"/>
</g>
<!-- Node14 -->
<g id="node14" class="node">
<title>Node14</title>
<g id="a_node14"><a xlink:title=" ">
<polygon fill="#e0e0e0" stroke="#999999" points="1119,-79.5 1078,-79.5 1078,-60.5 1119,-60.5 1119,-79.5"/>
<text text-anchor="middle" x="1098.5" y="-67.5" font-family="Helvetica,sans-Serif" font-size="10.00">utility</text>
</a>
</g>
</g>
<!-- Node12&#45;&gt;Node14 -->
<g id="edge20" class="edge">
<title>Node12&#45;&gt;Node14</title>
<path fill="none" stroke="#63b8ff" d="M1028.47,-120.8C1042.78,-110.62 1062.03,-96.93 1076.73,-86.48"/>
<polygon fill="#63b8ff" stroke="#63b8ff" points="1078.71,-89.37 1084.83,-80.72 1074.65,-83.66 1078.71,-89.37"/>
</g>
<!-- Node15&#45;&gt;Node3 -->
<g id="edge23" class="edge">
<title>Node15&#45;&gt;Node3</title>
<path fill="none" stroke="#63b8ff" d="M543.92,-186.8C554.8,-178.4 568.8,-167.62 580.97,-158.23"/>
<polygon fill="#63b8ff" stroke="#63b8ff" points="582.86,-161.19 588.65,-152.31 578.59,-155.64 582.86,-161.19"/>
</g>
<!-- Node15&#45;&gt;Node10 -->
<g id="edge22" class="edge">
<title>Node15&#45;&gt;Node10</title>
<path fill="none" stroke="#63b8ff" d="M498.79,-186.59C455.54,-163.26 370.11,-117.18 321.19,-90.79"/>
<polygon fill="#63b8ff" stroke="#63b8ff" points="323.13,-87.86 312.66,-86.19 319.8,-94.02 323.13,-87.86"/>
</g>
<!-- Node16&#45;&gt;Node3 -->
<g id="edge26" class="edge">
<title>Node16&#45;&gt;Node3</title>
<path fill="none" stroke="#63b8ff" d="M422.66,-186.56C458.52,-176.99 505.75,-164.4 543.62,-154.3"/>
<polygon fill="#63b8ff" stroke="#63b8ff" points="544.31,-157.74 553.07,-151.78 542.51,-150.97 544.31,-157.74"/>
</g>
<!-- Node16&#45;&gt;Node10 -->
<g id="edge25" class="edge">
<title>Node16&#45;&gt;Node10</title>
<path fill="none" stroke="#63b8ff" d="M359.19,-186.59C344.87,-164.43 317.29,-121.75 299.95,-94.91"/>
<polygon fill="#63b8ff" stroke="#63b8ff" points="303.04,-93.24 294.67,-86.74 297.16,-97.04 303.04,-93.24"/>
</g>
<!-- Node17&#45;&gt;Node3 -->
<g id="edge29" class="edge">
<title>Node17&#45;&gt;Node3</title>
<path fill="none" stroke="#63b8ff" d="M281.65,-188.74C284.98,-188.14 288.28,-187.56 291.5,-187 373.84,-172.72 468.52,-158.01 532.81,-148.27"/>
<polygon fill="#63b8ff" stroke="#63b8ff" points="533.19,-151.76 542.55,-146.8 532.14,-144.84 533.19,-151.76"/>
</g>
<!-- Node17&#45;&gt;Node10 -->
<g id="edge28" class="edge">
<title>Node17&#45;&gt;Node10</title>
<path fill="none" stroke="#63b8ff" d="M224.93,-186.59C236.25,-164.63 257.96,-122.5 271.81,-95.62"/>
<polygon fill="#63b8ff" stroke="#63b8ff" points="274.88,-97.31 276.35,-86.82 268.65,-94.1 274.88,-97.31"/>
</g>
<!-- Node18&#45;&gt;Node3 -->
<g id="edge32" class="edge">
<title>Node18&#45;&gt;Node3</title>
<path fill="none" stroke="#63b8ff" d="M135.48,-188.36C138.52,-187.89 141.54,-187.43 144.5,-187 280.8,-167.29 440.67,-151.71 532.71,-143.47"/>
<polygon fill="#63b8ff" stroke="#63b8ff" points="532.98,-146.96 542.63,-142.58 532.36,-139.98 532.98,-146.96"/>
</g>
<!-- Node18&#45;&gt;Node10 -->
<g id="edge31" class="edge">
<title>Node18&#45;&gt;Node10</title>
<path fill="none" stroke="#63b8ff" d="M91.55,-186.59C130.25,-163.41 206.45,-117.76 250.63,-91.29"/>
<polygon fill="#63b8ff" stroke="#63b8ff" points="252.26,-94.39 259.04,-86.25 248.66,-88.39 252.26,-94.39"/>
</g>
<!-- Node19&#45;&gt;Node3 -->
<g id="edge34" class="edge">
<title>Node19&#45;&gt;Node3</title>
<path fill="none" stroke="#63b8ff" d="M690.3,-252.59C674.55,-230.34 644.15,-187.37 625.17,-160.55"/>
<polygon fill="#63b8ff" stroke="#63b8ff" points="628.25,-158.85 619.62,-152.71 622.54,-162.89 628.25,-158.85"/>
</g>
<!-- Node19&#45;&gt;Node5 -->
<g id="edge38" class="edge">
<title>Node19&#45;&gt;Node5</title>
<path fill="none" stroke="#63b8ff" d="M703.35,-252.7C706.68,-236.58 712.63,-209.68 719.5,-187 729.95,-152.5 745.18,-113.38 754.43,-90.52"/>
<polygon fill="#63b8ff" stroke="#63b8ff" points="757.66,-91.88 758.2,-81.3 751.18,-89.23 757.66,-91.88"/>
</g>
<!-- Node19&#45;&gt;Node20 -->
<g id="edge35" class="edge">
<title>Node19&#45;&gt;Node20</title>
<path fill="none" stroke="#63b8ff" d="M720.92,-252.8C733.1,-244.32 748.79,-233.4 762.38,-223.95"/>
<polygon fill="#63b8ff" stroke="#63b8ff" points="764.37,-226.83 770.58,-218.25 760.37,-221.09 764.37,-226.83"/>
</g>
<!-- Node20&#45;&gt;Node3 -->
<g id="edge36" class="edge">
<title>Node20&#45;&gt;Node3</title>
<path fill="none" stroke="#63b8ff" d="M751.21,-186.64C724.43,-177.32 689.32,-165.11 660.63,-155.13"/>
<polygon fill="#63b8ff" stroke="#63b8ff" points="662,-151.9 651.4,-151.92 659.7,-158.51 662,-151.9"/>
</g>
<!-- Node20&#45;&gt;Node12 -->
<g id="edge37" class="edge">
<title>Node20&#45;&gt;Node12</title>
<path fill="none" stroke="#63b8ff" d="M841.24,-186.56C873.24,-177.08 915.29,-164.62 949.22,-154.56"/>
<polygon fill="#63b8ff" stroke="#63b8ff" points="949.89,-158.02 958.48,-151.82 947.9,-151.31 949.89,-158.02"/>
</g>
<!-- Node21&#45;&gt;Node3 -->
<g id="edge42" class="edge">
<title>Node21&#45;&gt;Node3</title>
<path fill="none" stroke="#63b8ff" d="M886.22,-252.6C886.29,-234.59 883.47,-204.04 865.5,-187 839.82,-162.64 750.27,-149.42 684.06,-142.79"/>
<polygon fill="#63b8ff" stroke="#63b8ff" points="684.62,-139.33 674.33,-141.85 683.95,-146.3 684.62,-139.33"/>
</g>
<!-- Node21&#45;&gt;Node8 -->
<g id="edge41" class="edge">
<title>Node21&#45;&gt;Node8</title>
<path fill="none" stroke="#63b8ff" d="M886.23,-252.56C886.7,-242.58 887.26,-228.99 887.5,-217 887.77,-203.67 888.58,-200.29 887.5,-187 884.94,-155.48 878.51,-119.61 873.84,-96.21"/>
<polygon fill="#63b8ff" stroke="#63b8ff" points="877.33,-95.77 871.89,-86.68 870.47,-97.18 877.33,-95.77"/>
</g>
<!-- Node21&#45;&gt;Node11 -->
<g id="edge43" class="edge">
<title>Node21&#45;&gt;Node11</title>
<path fill="none" stroke="#63b8ff" d="M914.45,-252.64C932.46,-243.7 955.84,-232.1 975.48,-222.36"/>
<polygon fill="#63b8ff" stroke="#63b8ff" points="976.89,-225.57 984.29,-217.99 973.78,-219.3 976.89,-225.57"/>
</g>
<!-- Node21&#45;&gt;Node20 -->
<g id="edge44" class="edge">
<title>Node21&#45;&gt;Node20</title>
<path fill="none" stroke="#63b8ff" d="M864.86,-252.8C852.43,-244.24 836.37,-233.19 822.55,-223.68"/>
<polygon fill="#63b8ff" stroke="#63b8ff" points="824.87,-221.03 814.65,-218.24 820.9,-226.8 824.87,-221.03"/>
</g>
</g>
</svg>
        <g id="navigator" transform="translate(0 0)" fill="#404254">
                <rect fill="#f2f5e9" fill-opacity="0.5" stroke="#606060" stroke-width=".5" x="0" y="0" width="60" height="60"/>
                <use id="zoomplus" xlink:href="#zoomPlus" x="17" y="9" onmousedown="handleZoom(evt,'in')"/>
                <use id="zoomminus" xlink:href="#zoomMin" x="42" y="9" onmousedown="handleZoom(evt,'out')"/>
                <use id="reset" xlink:href="#resetDef" x="30" y="36" onmousedown="handleReset()"/>
                <g id="arrowUp" xlink:href="#dirArrow" transform="translate(30 24)" onmousedown="handlePan(0,-1)">
                  <use xlink:href="#rim" fill="#404040">
                        <set attributeName="fill" to="#808080" begin="arrowUp.mouseover" end="arrowUp.mouseout"/>
                  </use>
                  <path fill="none" stroke="white" stroke-width="1.5" d="M0,-3.0v7 M-2.5,-0.5L0,-3.0L2.5,-0.5"/>
                </g>
                <g id="arrowRight" xlink:href="#dirArrow" transform="rotate(90) translate(36 -43)" onmousedown="handlePan(1,0)">
                  <use xlink:href="#rim" fill="#404040">
                        <set attributeName="fill" to="#808080" begin="arrowRight.mouseover" end="arrowRight.mouseout"/>
                  </use>
                  <path fill="none" stroke="white" stroke-width="1.5" d="M0,-3.0v7 M-2.5,-0.5L0,-3.0L2.5,-0.5"/>
                </g>
                <g id="arrowDown" xlink:href="#dirArrow" transform="rotate(180) translate(-30 -48)" onmousedown="handlePan(0,1)">
                  <use xlink:href="#rim" fill="#404040">
                        <set attributeName="fill" to="#808080" begin="arrowDown.mouseover" end="arrowDown.mouseout"/>
                  </use>
                  <path fill="none" stroke="white" stroke-width="1.5" d="M0,-3.0v7 M-2.5,-0.5L0,-3.0L2.5,-0.5"/>
                </g>
                <g id="arrowLeft" xlink:href="#dirArrow" transform="rotate(270) translate(-36 17)" onmousedown="handlePan(-1,0)">
                  <use xlink:href="#rim" fill="#404040">
                        <set attributeName="fill" to="#808080" begin="arrowLeft.mouseover" end="arrowLeft.mouseout"/>
                  </use>
                  <path fill="none" stroke="white" stroke-width="1.5" d="M0,-3.0v7 M-2.5,-0.5L0,-3.0L2.5,-0.5"/>
                </g>
        </g>
        <svg viewBox="0 0 15 15" width="100%" height="30px" preserveAspectRatio="xMaxYMin meet">
         <g id="arrow_out" transform="scale(0.3 0.3)">
          <a xlink:href="compare_8hpp__incl_org.svg" target="_base">
           <rect id="button" ry="5" rx="5" y="6" x="6" height="38" width="38"
                fill="#f2f5e9" fill-opacity="0.5" stroke="#606060" stroke-width="1.0"/>
           <path id="arrow"
             d="M 11.500037,31.436501 C 11.940474,20.09759 22.043105,11.32322 32.158766,21.979434 L 37.068811,17.246167 C 37.068811,17.246167 37.088388,32 37.088388,32 L 22.160133,31.978069 C 22.160133,31.978069 26.997745,27.140456 26.997745,27.140456 C 18.528582,18.264221 13.291696,25.230495 11.500037,31.436501 z"
             style="fill:#404040;"/>
          </a>
         </g>
        </svg>
</svg>
