<?xml version="1.0" encoding="UTF-8" standalone="no"?>
<!DOCTYPE svg PUBLIC "-//W3C//DTD SVG 1.1//EN"
 "http://www.w3.org/Graphics/SVG/1.1/DTD/svg11.dtd">
<!-- Generated by graphviz version 8.0.5 (20230430.1635)
 -->
<!-- Title: Simple&#45;Utility/functional/compare.hpp Pages: 1 -->
<!--zoomable 446 -->
<svg id="main" version="1.1" xmlns="http://www.w3.org/2000/svg" xmlns:xlink="http://www.w3.org/1999/xlink" xml:space="preserve" onload="init(evt)">
<style type="text/css"><![CDATA[
.edge:hover path { stroke: red; }
.edge:hover polygon { stroke: red; fill: red; }
]]></style>
<script type="text/javascript"><![CDATA[
var edges = document.getElementsByTagName('g');
if (edges && edges.length) {
  for (var i=0;i<edges.length;i++) {
    if (edges[i].id.substr(0,4)=='edge') {
      edges[i].setAttribute('class','edge');
    }
  }
}
]]></script>
        <defs>
                <circle id="rim" cx="0" cy="0" r="7"/>
                <circle id="rim2" cx="0" cy="0" r="3.5"/>
                <g id="zoomPlus">
                        <use xlink:href="#rim" fill="#404040">
                                <set attributeName="fill" to="#808080" begin="zoomplus.mouseover" end="zoomplus.mouseout"/>
                        </use>
                        <path d="M-4,0h8M0,-4v8" fill="none" stroke="white" stroke-width="1.5" pointer-events="none"/>
                </g>
                <g id="zoomMin">
                        <use xlink:href="#rim" fill="#404040">
                                <set attributeName="fill" to="#808080" begin="zoomminus.mouseover" end="zoomminus.mouseout"/>
                        </use>
                        <path d="M-4,0h8" fill="none" stroke="white" stroke-width="1.5" pointer-events="none"/>
                </g>
                <g id="dirArrow">
                        <path fill="none" stroke="white" stroke-width="1.5" d="M0,-3.0v7 M-2.5,-0.5L0,-3.0L2.5,-0.5"/>
                </g>
               <g id="resetDef">
                       <use xlink:href="#rim2" fill="#404040">
                               <set attributeName="fill" to="#808080" begin="reset.mouseover" end="reset.mouseout"/>
                       </use>
               </g>
        </defs>

<script type="text/javascript">
var viewWidth = 1120;
var viewHeight = 446;
var sectionId = 'dynsection-0';
</script>
<script xlink:href="../../svgpan.js"/>
<svg id="graph" class="graph">
<g id="viewport">
<title>Simple&#45;Utility/functional/compare.hpp</title>
<!-- Node1 -->
<g id="node1" class="node">
<title>Node1</title>
<g id="a_node1"><a xlink:title=" ">
<polygon fill="#999999" stroke="#666666" points="714.75,-437.75 587.75,-437.75 587.75,-404.25 714.75,-404.25 714.75,-437.75"/>
<text text-anchor="start" x="595.75" y="-424.25" font-family="Helvetica,sans-Serif" font-size="10.00">Simple&#45;Utility/functional</text>
<text text-anchor="middle" x="651.25" y="-411.5" font-family="Helvetica,sans-Serif" font-size="10.00">/compare.hpp</text>
</a>
</g>
</g>
<!-- Node2 -->
<g id="node2" class="node">
<title>Node2</title>
<g id="a_node2"><a xlink:href="../../d2/d7e/predicate_8hpp.html" target="_top" xlink:title=" ">
<polygon fill="white" stroke="#666666" points="668.75,-368.25 541.75,-368.25 541.75,-334.75 668.75,-334.75 668.75,-368.25"/>
<text text-anchor="start" x="549.75" y="-354.75" font-family="Helvetica,sans-Serif" font-size="10.00">Simple&#45;Utility/functional</text>
<text text-anchor="middle" x="605.25" y="-342" font-family="Helvetica,sans-Serif" font-size="10.00">/predicate.hpp</text>
</a>
</g>
</g>
<!-- Node1&#45;&gt;Node2 -->
<g id="edge1" class="edge">
<title>Node1&#45;&gt;Node2</title>
<path fill="none" stroke="#63b8ff" d="M640.35,-404C634.91,-396.02 628.2,-386.18 622.11,-377.25"/>
<polygon fill="#63b8ff" stroke="#63b8ff" points="624.6,-375.67 616.07,-369.38 618.81,-379.62 624.6,-375.67"/>
</g>
<!-- Node21 -->
<g id="node21" class="node">
<title>Node21</title>
<g id="a_node21"><a xlink:href="../../d6/deb/transform_8hpp.html" target="_top" xlink:title=" ">
<polygon fill="white" stroke="#666666" points="944.75,-298.75 817.75,-298.75 817.75,-265.25 944.75,-265.25 944.75,-298.75"/>
<text text-anchor="start" x="825.75" y="-285.25" font-family="Helvetica,sans-Serif" font-size="10.00">Simple&#45;Utility/functional</text>
<text text-anchor="middle" x="881.25" y="-272.5" font-family="Helvetica,sans-Serif" font-size="10.00">/transform.hpp</text>
</a>
</g>
</g>
<!-- Node1&#45;&gt;Node21 -->
<g id="edge40" class="edge">
<title>Node1&#45;&gt;Node21</title>
<path fill="none" stroke="#63b8ff" d="M678.08,-404.02C719.35,-379.44 798.46,-332.31 844.85,-304.68"/>
<polygon fill="#63b8ff" stroke="#63b8ff" points="846.43,-307.22 853.23,-299.09 842.85,-301.2 846.43,-307.22"/>
</g>
<!-- Node3 -->
<g id="node3" class="node">
<title>Node3</title>
<g id="a_node3"><a xlink:href="../../d1/d76/functional_2base_8hpp.html" target="_top" xlink:title=" ">
<polygon fill="white" stroke="#666666" points="668.75,-159.75 541.75,-159.75 541.75,-126.25 668.75,-126.25 668.75,-159.75"/>
<text text-anchor="start" x="549.75" y="-146.25" font-family="Helvetica,sans-Serif" font-size="10.00">Simple&#45;Utility/functional</text>
<text text-anchor="middle" x="605.25" y="-133.5" font-family="Helvetica,sans-Serif" font-size="10.00">/base.hpp</text>
</a>
</g>
</g>
<!-- Node2&#45;&gt;Node3 -->
<g id="edge2" class="edge">
<title>Node2&#45;&gt;Node3</title>
<path fill="none" stroke="#63b8ff" d="M605.25,-334.3C605.25,-298.94 605.25,-214.54 605.25,-171"/>
<polygon fill="#63b8ff" stroke="#63b8ff" points="608.75,-171.13 605.25,-161.13 601.75,-171.13 608.75,-171.13"/>
</g>
<!-- Node11 -->
<g id="node11" class="node">
<title>Node11</title>
<g id="a_node11"><a xlink:href="../../d9/d76/bind_8hpp.html" target="_top" xlink:title=" ">
<polygon fill="white" stroke="#666666" points="1074.75,-229.25 947.75,-229.25 947.75,-195.75 1074.75,-195.75 1074.75,-229.25"/>
<text text-anchor="start" x="955.75" y="-215.75" font-family="Helvetica,sans-Serif" font-size="10.00">Simple&#45;Utility/functional</text>
<text text-anchor="middle" x="1011.25" y="-203" font-family="Helvetica,sans-Serif" font-size="10.00">/operators/bind.hpp</text>
</a>
</g>
</g>
<!-- Node2&#45;&gt;Node11 -->
<g id="edge14" class="edge">
<title>Node2&#45;&gt;Node11</title>
<path fill="none" stroke="#63b8ff" d="M669.14,-347.18C756.61,-341.61 908.06,-327.99 954.25,-298.75 976.18,-284.87 991.62,-259.15 1000.85,-239.57"/>
<polygon fill="#63b8ff" stroke="#63b8ff" points="1004.36,-241.28 1005.22,-230.72 997.97,-238.44 1004.36,-241.28"/>
</g>
<!-- Node15 -->
<g id="node15" class="node">
<title>Node15</title>
<g id="a_node15"><a xlink:href="../../df/d80/conjunction_8hpp.html" target="_top" xlink:title=" ">
<polygon fill="white" stroke="#666666" points="593.5,-229.25 453,-229.25 453,-195.75 593.5,-195.75 593.5,-229.25"/>
<text text-anchor="start" x="461" y="-215.75" font-family="Helvetica,sans-Serif" font-size="10.00">Simple&#45;Utility/functional</text>
<text text-anchor="middle" x="523.25" y="-203" font-family="Helvetica,sans-Serif" font-size="10.00">/operators/conjunction.hpp</text>
</a>
</g>
</g>
<!-- Node2&#45;&gt;Node15 -->
<g id="edge21" class="edge">
<title>Node2&#45;&gt;Node15</title>
<path fill="none" stroke="#63b8ff" d="M595.68,-334.52C581.55,-310.9 554.96,-266.48 538.23,-238.52"/>
<polygon fill="#63b8ff" stroke="#63b8ff" points="540.89,-237.16 532.76,-230.38 534.89,-240.76 540.89,-237.16"/>
</g>
<!-- Node16 -->
<g id="node16" class="node">
<title>Node16</title>
<g id="a_node16"><a xlink:href="../../d4/d7c/disjunction_8hpp.html" target="_top" xlink:title=" ">
<polygon fill="white" stroke="#666666" points="434.62,-229.25 297.88,-229.25 297.88,-195.75 434.62,-195.75 434.62,-229.25"/>
<text text-anchor="start" x="305.88" y="-215.75" font-family="Helvetica,sans-Serif" font-size="10.00">Simple&#45;Utility/functional</text>
<text text-anchor="middle" x="366.25" y="-203" font-family="Helvetica,sans-Serif" font-size="10.00">/operators/disjunction.hpp</text>
</a>
</g>
</g>
<!-- Node2&#45;&gt;Node16 -->
<g id="edge24" class="edge">
<title>Node2&#45;&gt;Node16</title>
<path fill="none" stroke="#63b8ff" d="M577.37,-334.52C534.4,-309.89 451.93,-262.61 403.77,-235.01"/>
<polygon fill="#63b8ff" stroke="#63b8ff" points="405.74,-231.53 395.33,-229.59 402.26,-237.6 405.74,-231.53"/>
</g>
<!-- Node17 -->
<g id="node17" class="node">
<title>Node17</title>
<g id="a_node17"><a xlink:href="../../dc/d0a/equal_8hpp.html" target="_top" xlink:title=" ">
<polygon fill="white" stroke="#666666" points="279.75,-229.25 152.75,-229.25 152.75,-195.75 279.75,-195.75 279.75,-229.25"/>
<text text-anchor="start" x="160.75" y="-215.75" font-family="Helvetica,sans-Serif" font-size="10.00">Simple&#45;Utility/functional</text>
<text text-anchor="middle" x="216.25" y="-203" font-family="Helvetica,sans-Serif" font-size="10.00">/operators/equal.hpp</text>
</a>
</g>
</g>
<!-- Node2&#45;&gt;Node17 -->
<g id="edge27" class="edge">
<title>Node2&#45;&gt;Node17</title>
<path fill="none" stroke="#63b8ff" d="M556.92,-334.28C527.01,-324.18 487.85,-310.86 453.25,-298.75 390.38,-276.74 318.42,-250.74 270.45,-233.29"/>
<polygon fill="#63b8ff" stroke="#63b8ff" points="271.88,-229.73 261.29,-229.6 269.49,-236.3 271.88,-229.73"/>
</g>
<!-- Node18 -->
<g id="node18" class="node">
<title>Node18</title>
<g id="a_node18"><a xlink:href="../../d7/dd0/equivalent_8hpp.html" target="_top" xlink:title=" ">
<polygon fill="white" stroke="#666666" points="134.5,-229.25 0,-229.25 0,-195.75 134.5,-195.75 134.5,-229.25"/>
<text text-anchor="start" x="8" y="-215.75" font-family="Helvetica,sans-Serif" font-size="10.00">Simple&#45;Utility/functional</text>
<text text-anchor="middle" x="67.25" y="-203" font-family="Helvetica,sans-Serif" font-size="10.00">/operators/equivalent.hpp</text>
</a>
</g>
</g>
<!-- Node2&#45;&gt;Node18 -->
<g id="edge30" class="edge">
<title>Node2&#45;&gt;Node18</title>
<path fill="none" stroke="#63b8ff" d="M541.47,-338.65C491.19,-328.96 419.43,-314.35 357.25,-298.75 277.3,-278.69 186.29,-251.16 127.89,-232.87"/>
<polygon fill="#63b8ff" stroke="#63b8ff" points="129.32,-229.33 118.73,-229.68 127.22,-236.01 129.32,-229.33"/>
</g>
<!-- Node19 -->
<g id="node19" class="node">
<title>Node19</title>
<g id="a_node19"><a xlink:href="../../d8/dea/negation_8hpp.html" target="_top" xlink:title=" ">
<polygon fill="white" stroke="#666666" points="761.5,-298.75 633,-298.75 633,-265.25 761.5,-265.25 761.5,-298.75"/>
<text text-anchor="start" x="641" y="-285.25" font-family="Helvetica,sans-Serif" font-size="10.00">Simple&#45;Utility/functional</text>
<text text-anchor="middle" x="697.25" y="-272.5" font-family="Helvetica,sans-Serif" font-size="10.00">/operators/negation.hpp</text>
</a>
</g>
</g>
<!-- Node2&#45;&gt;Node19 -->
<g id="edge33" class="edge">
<title>Node2&#45;&gt;Node19</title>
<path fill="none" stroke="#63b8ff" d="M627.05,-334.5C638.88,-325.82 653.7,-314.96 666.66,-305.44"/>
<polygon fill="#63b8ff" stroke="#63b8ff" points="668.29,-307.85 674.28,-299.12 664.15,-302.21 668.29,-307.85"/>
</g>
<!-- Node20 -->
<g id="node20" class="node">
<title>Node20</title>
<g id="a_node20"><a xlink:href="../../d5/db7/pipe_8hpp.html" target="_top" xlink:title=" ">
<polygon fill="white" stroke="#666666" points="852.75,-229.25 725.75,-229.25 725.75,-195.75 852.75,-195.75 852.75,-229.25"/>
<text text-anchor="start" x="733.75" y="-215.75" font-family="Helvetica,sans-Serif" font-size="10.00">Simple&#45;Utility/functional</text>
<text text-anchor="middle" x="789.25" y="-203" font-family="Helvetica,sans-Serif" font-size="10.00">/operators/pipe.hpp</text>
</a>
</g>
</g>
<!-- Node2&#45;&gt;Node20 -->
<g id="edge39" class="edge">
<title>Node2&#45;&gt;Node20</title>
<path fill="none" stroke="#63b8ff" d="M669.07,-345.71C703.64,-339.78 744.45,-326.83 770.25,-298.75 784.69,-283.03 789,-258.82 789.95,-240.21"/>
<polygon fill="#63b8ff" stroke="#63b8ff" points="793.46,-240.54 790.16,-230.47 786.46,-240.4 793.46,-240.54"/>
</g>
<!-- Node4 -->
<g id="node4" class="node">
<title>Node4</title>
<g id="a_node4"><a xlink:title=" ">
<polygon fill="#e0e0e0" stroke="#999999" points="539.5,-20.75 483,-20.75 483,0 539.5,0 539.5,-20.75"/>
<text text-anchor="middle" x="511.25" y="-7.25" font-family="Helvetica,sans-Serif" font-size="10.00">concepts</text>
</a>
</g>
</g>
<!-- Node3&#45;&gt;Node4 -->
<g id="edge3" class="edge">
<title>Node3&#45;&gt;Node4</title>
<path fill="none" stroke="#63b8ff" d="M571.43,-125.85C556.73,-117.21 540.55,-105.25 530.25,-90.25 518.32,-72.87 513.84,-48.85 512.19,-31.9"/>
<polygon fill="#63b8ff" stroke="#63b8ff" points="515.61,-31.72 511.41,-22 508.63,-32.22 515.61,-31.72"/>
</g>
<!-- Node5 -->
<g id="node5" class="node">
<title>Node5</title>
<g id="a_node5"><a xlink:title=" ">
<polygon fill="#e0e0e0" stroke="#999999" points="789.12,-83.88 727.38,-83.88 727.38,-63.12 789.12,-63.12 789.12,-83.88"/>
<text text-anchor="middle" x="758.25" y="-70.38" font-family="Helvetica,sans-Serif" font-size="10.00">functional</text>
</a>
</g>
</g>
<!-- Node3&#45;&gt;Node5 -->
<g id="edge4" class="edge">
<title>Node3&#45;&gt;Node5</title>
<path fill="none" stroke="#63b8ff" d="M641.9,-125.83C667.58,-114.5 701.57,-99.5 726.18,-88.65"/>
<polygon fill="#63b8ff" stroke="#63b8ff" points="727.37,-91.51 735.1,-84.27 724.54,-85.11 727.37,-91.51"/>
</g>
<!-- Node6 -->
<g id="node6" class="node">
<title>Node6</title>
<g id="a_node6"><a xlink:title=" ">
<polygon fill="#e0e0e0" stroke="#999999" points="895.25,-20.75 831.25,-20.75 831.25,0 895.25,0 895.25,-20.75"/>
<text text-anchor="middle" x="863.25" y="-7.25" font-family="Helvetica,sans-Serif" font-size="10.00">type_traits</text>
</a>
</g>
</g>
<!-- Node3&#45;&gt;Node6 -->
<g id="edge5" class="edge">
<title>Node3&#45;&gt;Node6</title>
<path fill="none" stroke="#63b8ff" d="M630.09,-125.93C644.96,-116.06 664.04,-102.91 680.25,-90.25 697.99,-76.39 698.63,-67.8 718.25,-56.75 750.28,-38.71 790.42,-26.86 820.34,-19.81"/>
<polygon fill="#63b8ff" stroke="#63b8ff" points="820.88,-23.05 829.86,-17.43 819.34,-16.22 820.88,-23.05"/>
</g>
<!-- Node7 -->
<g id="node7" class="node">
<title>Node7</title>
<g id="a_node7"><a xlink:href="../../d8/dd2/_config_8hpp.html" target="_top" xlink:title=" ">
<polygon fill="white" stroke="#666666" points="671.38,-83.88 539.12,-83.88 539.12,-63.12 671.38,-63.12 671.38,-83.88"/>
<text text-anchor="middle" x="605.25" y="-70.38" font-family="Helvetica,sans-Serif" font-size="10.00">Simple&#45;Utility/Config.hpp</text>
</a>
</g>
</g>
<!-- Node3&#45;&gt;Node7 -->
<g id="edge6" class="edge">
<title>Node3&#45;&gt;Node7</title>
<path fill="none" stroke="#63b8ff" d="M605.25,-126C605.25,-116.8 605.25,-105.14 605.25,-95.24"/>
<polygon fill="#63b8ff" stroke="#63b8ff" points="608.75,-95.32 605.25,-85.32 601.75,-95.32 608.75,-95.32"/>
</g>
<!-- Node8 -->
<g id="node8" class="node">
<title>Node8</title>
<g id="a_node8"><a xlink:href="../../d4/d1c/unified__base_8hpp.html" target="_top" xlink:title=" ">
<polygon fill="white" stroke="#666666" points="919.25,-90.25 807.25,-90.25 807.25,-56.75 919.25,-56.75 919.25,-90.25"/>
<text text-anchor="start" x="815.25" y="-76.75" font-family="Helvetica,sans-Serif" font-size="10.00">Simple&#45;Utility/unified</text>
<text text-anchor="middle" x="863.25" y="-64" font-family="Helvetica,sans-Serif" font-size="10.00">_base.hpp</text>
</a>
</g>
</g>
<!-- Node3&#45;&gt;Node8 -->
<g id="edge7" class="edge">
<title>Node3&#45;&gt;Node8</title>
<path fill="none" stroke="#63b8ff" d="M667.05,-125.83C706.05,-115.63 756.42,-102.45 796.36,-92"/>
<polygon fill="#63b8ff" stroke="#63b8ff" points="797.01,-95.19 805.8,-89.27 795.24,-88.41 797.01,-95.19"/>
</g>
<!-- Node9 -->
<g id="node9" class="node">
<title>Node9</title>
<g id="a_node9"><a xlink:href="../../dd/d5c/stl__extensions_8hpp.html" target="_top" xlink:title=" ">
<polygon fill="white" stroke="#666666" points="483.12,-90.25 361.38,-90.25 361.38,-56.75 483.12,-56.75 483.12,-90.25"/>
<text text-anchor="start" x="369.38" y="-76.75" font-family="Helvetica,sans-Serif" font-size="10.00">Simple&#45;Utility/concepts</text>
<text text-anchor="middle" x="422.25" y="-64" font-family="Helvetica,sans-Serif" font-size="10.00">/stl_extensions.hpp</text>
</a>
</g>
</g>
<!-- Node3&#45;&gt;Node9 -->
<g id="edge10" class="edge">
<title>Node3&#45;&gt;Node9</title>
<path fill="none" stroke="#63b8ff" d="M561.42,-125.83C535.82,-116.39 503.32,-104.4 476.16,-94.39"/>
<polygon fill="#63b8ff" stroke="#63b8ff" points="477.64,-90.83 467.04,-90.65 475.21,-97.4 477.64,-90.83"/>
</g>
<!-- Node10 -->
<g id="node10" class="node">
<title>Node10</title>
<g id="a_node10"><a xlink:href="../../d5/d8e/concepts_2utility_8hpp.html" target="_top" xlink:title=" ">
<polygon fill="white" stroke="#666666" points="343.12,-90.25 221.38,-90.25 221.38,-56.75 343.12,-56.75 343.12,-90.25"/>
<text text-anchor="start" x="229.38" y="-76.75" font-family="Helvetica,sans-Serif" font-size="10.00">Simple&#45;Utility/concepts</text>
<text text-anchor="middle" x="282.25" y="-64" font-family="Helvetica,sans-Serif" font-size="10.00">/utility.hpp</text>
</a>
</g>
</g>
<!-- Node3&#45;&gt;Node10 -->
<g id="edge12" class="edge">
<title>Node3&#45;&gt;Node10</title>
<path fill="none" stroke="#63b8ff" d="M541.49,-129.32C492.79,-119.55 423.72,-105.52 354.05,-90.62"/>
<polygon fill="#63b8ff" stroke="#63b8ff" points="354.83,-86.99 344.32,-88.31 353.36,-93.83 354.83,-86.99"/>
</g>
<!-- Node8&#45;&gt;Node4 -->
<g id="edge8" class="edge">
<title>Node8&#45;&gt;Node4</title>
<path fill="none" stroke="#63b8ff" d="M806.94,-58.56C804.01,-57.93 801.1,-57.32 798.25,-56.75 710.32,-39.18 606.13,-24.13 550.65,-16.58"/>
<polygon fill="#63b8ff" stroke="#63b8ff" points="551.28,-12.99 540.9,-15.12 550.34,-19.93 551.28,-12.99"/>
</g>
<!-- Node8&#45;&gt;Node6 -->
<g id="edge9" class="edge">
<title>Node8&#45;&gt;Node6</title>
<path fill="none" stroke="#63b8ff" d="M863.25,-56.44C863.25,-49.02 863.25,-40.11 863.25,-32.18"/>
<polygon fill="#63b8ff" stroke="#63b8ff" points="866.75,-32.22 863.25,-22.22 859.75,-32.22 866.75,-32.22"/>
</g>
<!-- Node9&#45;&gt;Node4 -->
<g id="edge11" class="edge">
<title>Node9&#45;&gt;Node4</title>
<path fill="none" stroke="#63b8ff" d="M445.63,-56.44C458.73,-47.45 475,-36.27 488.07,-27.3"/>
<polygon fill="#63b8ff" stroke="#63b8ff" points="489.66,-29.76 495.92,-21.22 485.7,-23.99 489.66,-29.76"/>
</g>
<!-- Node10&#45;&gt;Node4 -->
<g id="edge13" class="edge">
<title>Node10&#45;&gt;Node4</title>
<path fill="none" stroke="#63b8ff" d="M343.02,-56.28C383.96,-45.35 436.77,-31.26 472.2,-21.8"/>
<polygon fill="#63b8ff" stroke="#63b8ff" points="472.85,-24.98 481.61,-19.02 471.04,-18.22 472.85,-24.98"/>
</g>
<!-- Node11&#45;&gt;Node3 -->
<g id="edge15" class="edge">
<title>Node11&#45;&gt;Node3</title>
<path fill="none" stroke="#63b8ff" d="M947.37,-200.88C874.74,-188.81 756.35,-169.12 679.64,-156.37"/>
<polygon fill="#63b8ff" stroke="#63b8ff" points="680.53,-152.8 670.1,-154.61 679.39,-159.71 680.53,-152.8"/>
</g>
<!-- Node12 -->
<g id="node12" class="node">
<title>Node12</title>
<g id="a_node12"><a xlink:href="../../d2/d30/general_8hpp.html" target="_top" xlink:title=" ">
<polygon fill="white" stroke="#666666" points="1057.5,-159.75 953,-159.75 953,-126.25 1057.5,-126.25 1057.5,-159.75"/>
<text text-anchor="start" x="961" y="-146.25" font-family="Helvetica,sans-Serif" font-size="10.00">Simple&#45;Utility/tuple</text>
<text text-anchor="middle" x="1005.25" y="-133.5" font-family="Helvetica,sans-Serif" font-size="10.00">/general.hpp</text>
</a>
</g>
</g>
<!-- Node11&#45;&gt;Node12 -->
<g id="edge16" class="edge">
<title>Node11&#45;&gt;Node12</title>
<path fill="none" stroke="#63b8ff" d="M1009.83,-195.5C1009.17,-188.11 1008.37,-179.12 1007.63,-170.73"/>
<polygon fill="#63b8ff" stroke="#63b8ff" points="1011.03,-170.53 1006.66,-160.88 1004.06,-171.15 1011.03,-170.53"/>
</g>
<!-- Node12&#45;&gt;Node4 -->
<g id="edge17" class="edge">
<title>Node12&#45;&gt;Node4</title>
<path fill="none" stroke="#63b8ff" d="M991.69,-125.78C971.84,-102.22 936.33,-60.88 928.25,-56.75 862.87,-23.35 641.8,-14.42 550.85,-12.13"/>
<polygon fill="#63b8ff" stroke="#63b8ff" points="550.99,-8.61 540.91,-11.87 550.83,-15.6 550.99,-8.61"/>
</g>
<!-- Node12&#45;&gt;Node6 -->
<g id="edge19" class="edge">
<title>Node12&#45;&gt;Node6</title>
<path fill="none" stroke="#63b8ff" d="M1000.5,-125.9C994.24,-107.14 981.58,-76.22 961.25,-56.75 945.71,-41.87 924.42,-31.21 905.64,-23.98"/>
<polygon fill="#63b8ff" stroke="#63b8ff" points="907.12,-20.43 896.53,-20.31 904.73,-27.01 907.12,-20.43"/>
</g>
<!-- Node13 -->
<g id="node13" class="node">
<title>Node13</title>
<g id="a_node13"><a xlink:title=" ">
<polygon fill="#e0e0e0" stroke="#999999" points="1052.88,-83.88 1013.62,-83.88 1013.62,-63.12 1052.88,-63.12 1052.88,-83.88"/>
<text text-anchor="middle" x="1033.25" y="-70.38" font-family="Helvetica,sans-Serif" font-size="10.00">tuple</text>
</a>
</g>
</g>
<!-- Node12&#45;&gt;Node13 -->
<g id="edge18" class="edge">
<title>Node12&#45;&gt;Node13</title>
<path fill="none" stroke="#63b8ff" d="M1011.89,-126C1015.83,-116.5 1020.86,-104.37 1025.05,-94.27"/>
<polygon fill="#63b8ff" stroke="#63b8ff" points="1028.58,-95.9 1029.18,-85.32 1022.11,-93.22 1028.58,-95.9"/>
</g>
<!-- Node14 -->
<g id="node14" class="node">
<title>Node14</title>
<g id="a_node14"><a xlink:title=" ">
<polygon fill="#e0e0e0" stroke="#999999" points="1111.62,-83.88 1070.88,-83.88 1070.88,-63.12 1111.62,-63.12 1111.62,-83.88"/>
<text text-anchor="middle" x="1091.25" y="-70.38" font-family="Helvetica,sans-Serif" font-size="10.00">utility</text>
</a>
</g>
</g>
<!-- Node12&#45;&gt;Node14 -->
<g id="edge20" class="edge">
<title>Node12&#45;&gt;Node14</title>
<path fill="none" stroke="#63b8ff" d="M1025.63,-126C1039.16,-115.39 1056.86,-101.49 1070.47,-90.81"/>
<polygon fill="#63b8ff" stroke="#63b8ff" points="1072.03,-93.25 1077.74,-84.32 1067.71,-87.74 1072.03,-93.25"/>
</g>
<!-- Node15&#45;&gt;Node3 -->
<g id="edge23" class="edge">
<title>Node15&#45;&gt;Node3</title>
<path fill="none" stroke="#63b8ff" d="M542.68,-195.5C553.02,-186.99 565.92,-176.37 577.32,-166.99"/>
<polygon fill="#63b8ff" stroke="#63b8ff" points="579.18,-169.17 584.67,-160.12 574.73,-163.77 579.18,-169.17"/>
</g>
<!-- Node15&#45;&gt;Node10 -->
<g id="edge22" class="edge">
<title>Node15&#45;&gt;Node10</title>
<path fill="none" stroke="#63b8ff" d="M495.13,-195.52C451.8,-170.89 368.65,-123.61 320.08,-96.01"/>
<polygon fill="#63b8ff" stroke="#63b8ff" points="321.98,-92.49 311.56,-90.59 318.52,-98.58 321.98,-92.49"/>
</g>
<!-- Node16&#45;&gt;Node3 -->
<g id="edge26" class="edge">
<title>Node16&#45;&gt;Node3</title>
<path fill="none" stroke="#63b8ff" d="M423.5,-195.33C457.81,-185.64 501.62,-173.27 537.64,-163.1"/>
<polygon fill="#63b8ff" stroke="#63b8ff" points="538.38,-166.24 547.06,-160.15 536.48,-159.5 538.38,-166.24"/>
</g>
<!-- Node16&#45;&gt;Node10 -->
<g id="edge25" class="edge">
<title>Node16&#45;&gt;Node10</title>
<path fill="none" stroke="#63b8ff" d="M356.45,-195.52C341.97,-171.9 314.73,-127.48 297.59,-99.52"/>
<polygon fill="#63b8ff" stroke="#63b8ff" points="300.2,-98.08 291.99,-91.38 294.23,-101.74 300.2,-98.08"/>
</g>
<!-- Node17&#45;&gt;Node3 -->
<g id="edge29" class="edge">
<title>Node17&#45;&gt;Node3</title>
<path fill="none" stroke="#63b8ff" d="M279.91,-197.57C283.07,-196.94 286.19,-196.33 289.25,-195.75 371.6,-180.13 466.57,-164.96 530.72,-155.13"/>
<polygon fill="#63b8ff" stroke="#63b8ff" points="531.18,-158.44 540.53,-153.47 530.12,-151.52 531.18,-158.44"/>
</g>
<!-- Node17&#45;&gt;Node10 -->
<g id="edge28" class="edge">
<title>Node17&#45;&gt;Node10</title>
<path fill="none" stroke="#63b8ff" d="M223.95,-195.52C235.23,-172.11 256.35,-128.25 269.84,-100.26"/>
<polygon fill="#63b8ff" stroke="#63b8ff" points="273.41,-101.91 274.6,-91.38 267.11,-98.87 273.41,-101.91"/>
</g>
<!-- Node18&#45;&gt;Node3 -->
<g id="edge32" class="edge">
<title>Node18&#45;&gt;Node3</title>
<path fill="none" stroke="#63b8ff" d="M134.74,-197.18C137.61,-196.67 140.46,-196.2 143.25,-195.75 279.2,-174.1 439.08,-158.32 530.65,-150.21"/>
<polygon fill="#63b8ff" stroke="#63b8ff" points="530.82,-153.62 540.48,-149.26 530.21,-146.65 530.82,-153.62"/>
</g>
<!-- Node18&#45;&gt;Node10 -->
<g id="edge31" class="edge">
<title>Node18&#45;&gt;Node10</title>
<path fill="none" stroke="#63b8ff" d="M92.33,-195.52C130.83,-170.99 204.55,-124.01 247.96,-96.35"/>
<polygon fill="#63b8ff" stroke="#63b8ff" points="249.44,-98.92 255.99,-90.59 245.68,-93.02 249.44,-98.92"/>
</g>
<!-- Node19&#45;&gt;Node3 -->
<g id="edge34" class="edge">
<title>Node19&#45;&gt;Node3</title>
<path fill="none" stroke="#63b8ff" d="M686.52,-265.02C670.59,-241.3 640.57,-196.59 621.81,-168.66"/>
<polygon fill="#63b8ff" stroke="#63b8ff" points="624.4,-167.23 615.92,-160.88 618.58,-171.14 624.4,-167.23"/>
</g>
<!-- Node19&#45;&gt;Node5 -->
<g id="edge38" class="edge">
<title>Node19&#45;&gt;Node5</title>
<path fill="none" stroke="#63b8ff" d="M700.56,-264.86C704.2,-247.62 710.44,-219.58 717.25,-195.75 727.58,-159.58 742.18,-118.22 750.88,-94.36"/>
<polygon fill="#63b8ff" stroke="#63b8ff" points="754.47,-95.74 754.64,-85.15 747.9,-93.32 754.47,-95.74"/>
</g>
<!-- Node19&#45;&gt;Node20 -->
<g id="edge35" class="edge">
<title>Node19&#45;&gt;Node20</title>
<path fill="none" stroke="#63b8ff" d="M719.05,-265C730.88,-256.32 745.7,-245.46 758.66,-235.94"/>
<polygon fill="#63b8ff" stroke="#63b8ff" points="760.29,-238.35 766.28,-229.62 756.15,-232.71 760.29,-238.35"/>
</g>
<!-- Node20&#45;&gt;Node3 -->
<g id="edge36" class="edge">
<title>Node20&#45;&gt;Node3</title>
<path fill="none" stroke="#63b8ff" d="M745.18,-195.33C719.44,-185.89 686.76,-173.9 659.46,-163.89"/>
<polygon fill="#63b8ff" stroke="#63b8ff" points="660.88,-160.31 650.28,-160.15 658.46,-166.88 660.88,-160.31"/>
</g>
<!-- Node20&#45;&gt;Node12 -->
<g id="edge37" class="edge">
<title>Node20&#45;&gt;Node12</title>
<path fill="none" stroke="#63b8ff" d="M840.99,-195.33C871.73,-185.72 910.92,-173.48 943.3,-163.36"/>
<polygon fill="#63b8ff" stroke="#63b8ff" points="944.06,-166.48 952.56,-160.15 941.97,-159.79 944.06,-166.48"/>
</g>
<!-- Node21&#45;&gt;Node3 -->
<g id="edge42" class="edge">
<title>Node21&#45;&gt;Node3</title>
<path fill="none" stroke="#63b8ff" d="M882.48,-265.05C883.03,-245.84 880.77,-213.9 862.25,-195.75 836.8,-170.82 746.39,-157.03 679.97,-150.08"/>
<polygon fill="#63b8ff" stroke="#63b8ff" points="680.41,-146.5 670.11,-148.98 679.71,-153.47 680.41,-146.5"/>
</g>
<!-- Node21&#45;&gt;Node8 -->
<g id="edge41" class="edge">
<title>Node21&#45;&gt;Node8</title>
<path fill="none" stroke="#63b8ff" d="M882.41,-265.16C883.1,-254.92 883.9,-241.3 884.25,-229.25 884.68,-214.37 885.53,-210.58 884.25,-195.75 881.42,-162.86 874.36,-125.5 869.2,-101.05"/>
<polygon fill="#63b8ff" stroke="#63b8ff" points="872.45,-100.51 866.92,-91.47 865.61,-101.98 872.45,-100.51"/>
</g>
<!-- Node21&#45;&gt;Node11 -->
<g id="edge43" class="edge">
<title>Node21&#45;&gt;Node11</title>
<path fill="none" stroke="#63b8ff" d="M912.39,-264.83C929.91,-255.73 952,-244.27 970.85,-234.48"/>
<polygon fill="#63b8ff" stroke="#63b8ff" points="972.1,-237.25 979.37,-229.54 968.88,-231.04 972.1,-237.25"/>
</g>
<!-- Node21&#45;&gt;Node20 -->
<g id="edge44" class="edge">
<title>Node21&#45;&gt;Node20</title>
<path fill="none" stroke="#63b8ff" d="M859.45,-265C847.62,-256.32 832.8,-245.46 819.84,-235.94"/>
<polygon fill="#63b8ff" stroke="#63b8ff" points="822.35,-232.71 812.22,-229.62 818.21,-238.35 822.35,-232.71"/>
</g>
</g>
</svg>
        <g id="navigator" transform="translate(0 0)" fill="#404254">
                <rect fill="#f2f5e9" fill-opacity="0.5" stroke="#606060" stroke-width=".5" x="0" y="0" width="60" height="60"/>
                <use id="zoomplus" xlink:href="#zoomPlus" x="17" y="9" onmousedown="handleZoom(evt,'in')"/>
                <use id="zoomminus" xlink:href="#zoomMin" x="42" y="9" onmousedown="handleZoom(evt,'out')"/>
                <use id="reset" xlink:href="#resetDef" x="30" y="36" onmousedown="handleReset()"/>
                <g id="arrowUp" xlink:href="#dirArrow" transform="translate(30 24)" onmousedown="handlePan(0,-1)">
                  <use xlink:href="#rim" fill="#404040">
                        <set attributeName="fill" to="#808080" begin="arrowUp.mouseover" end="arrowUp.mouseout"/>
                  </use>
                  <path fill="none" stroke="white" stroke-width="1.5" d="M0,-3.0v7 M-2.5,-0.5L0,-3.0L2.5,-0.5"/>
                </g>
                <g id="arrowRight" xlink:href="#dirArrow" transform="rotate(90) translate(36 -43)" onmousedown="handlePan(1,0)">
                  <use xlink:href="#rim" fill="#404040">
                        <set attributeName="fill" to="#808080" begin="arrowRight.mouseover" end="arrowRight.mouseout"/>
                  </use>
                  <path fill="none" stroke="white" stroke-width="1.5" d="M0,-3.0v7 M-2.5,-0.5L0,-3.0L2.5,-0.5"/>
                </g>
                <g id="arrowDown" xlink:href="#dirArrow" transform="rotate(180) translate(-30 -48)" onmousedown="handlePan(0,1)">
                  <use xlink:href="#rim" fill="#404040">
                        <set attributeName="fill" to="#808080" begin="arrowDown.mouseover" end="arrowDown.mouseout"/>
                  </use>
                  <path fill="none" stroke="white" stroke-width="1.5" d="M0,-3.0v7 M-2.5,-0.5L0,-3.0L2.5,-0.5"/>
                </g>
                <g id="arrowLeft" xlink:href="#dirArrow" transform="rotate(270) translate(-36 17)" onmousedown="handlePan(-1,0)">
                  <use xlink:href="#rim" fill="#404040">
                        <set attributeName="fill" to="#808080" begin="arrowLeft.mouseover" end="arrowLeft.mouseout"/>
                  </use>
                  <path fill="none" stroke="white" stroke-width="1.5" d="M0,-3.0v7 M-2.5,-0.5L0,-3.0L2.5,-0.5"/>
                </g>
        </g>
        <svg viewBox="0 0 15 15" width="100%" height="30px" preserveAspectRatio="xMaxYMin meet">
         <g id="arrow_out" transform="scale(0.3 0.3)">
          <a xlink:href="compare_8hpp__incl_org.svg" target="_base">
           <rect id="button" ry="5" rx="5" y="6" x="6" height="38" width="38"
                fill="#f2f5e9" fill-opacity="0.5" stroke="#606060" stroke-width="1.0"/>
           <path id="arrow"
             d="M 11.500037,31.436501 C 11.940474,20.09759 22.043105,11.32322 32.158766,21.979434 L 37.068811,17.246167 C 37.068811,17.246167 37.088388,32 37.088388,32 L 22.160133,31.978069 C 22.160133,31.978069 26.997745,27.140456 26.997745,27.140456 C 18.528582,18.264221 13.291696,25.230495 11.500037,31.436501 z"
             style="fill:#404040;"/>
          </a>
         </g>
        </svg>
</svg>
