<?xml version="1.0" encoding="UTF-8" standalone="no"?>
<!DOCTYPE svg PUBLIC "-//W3C//DTD SVG 1.1//EN"
 "http://www.w3.org/Graphics/SVG/1.1/DTD/svg11.dtd">
<!-- Generated by graphviz version 2.43.0 (0)
 -->
<!-- Title: /home/runner/work/Simple&#45;Utility/Simple&#45;Utility/include/Simple&#45;Utility/functional/compare.hpp Pages: 1 -->
<!--zoomable 452 -->
<svg id="main" version="1.1" xmlns="http://www.w3.org/2000/svg" xmlns:xlink="http://www.w3.org/1999/xlink" xml:space="preserve" onload="init(evt)">
<style type="text/css"><![CDATA[
.edge:hover path { stroke: red; }
.edge:hover polygon { stroke: red; fill: red; }
]]></style>
<script type="text/javascript"><![CDATA[
var edges = document.getElementsByTagName('g');
if (edges && edges.length) {
  for (var i=0;i<edges.length;i++) {
    if (edges[i].id.substr(0,4)=='edge') {
      edges[i].setAttribute('class','edge');
    }
  }
}
]]></script>
        <defs>
                <circle id="rim" cx="0" cy="0" r="7"/>
                <circle id="rim2" cx="0" cy="0" r="3.5"/>
                <g id="zoomPlus">
                        <use xlink:href="#rim" fill="#404040">
                                <set attributeName="fill" to="#808080" begin="zoomplus.mouseover" end="zoomplus.mouseout"/>
                        </use>
                        <path d="M-4,0h8M0,-4v8" fill="none" stroke="white" stroke-width="1.5" pointer-events="none"/>
                </g>
                <g id="zoomMin">
                        <use xlink:href="#rim" fill="#404040">
                                <set attributeName="fill" to="#808080" begin="zoomminus.mouseover" end="zoomminus.mouseout"/>
                        </use>
                        <path d="M-4,0h8" fill="none" stroke="white" stroke-width="1.5" pointer-events="none"/>
                </g>
                <g id="dirArrow">
                        <path fill="none" stroke="white" stroke-width="1.5" d="M0,-3.0v7 M-2.5,-0.5L0,-3.0L2.5,-0.5"/>
                </g>
               <g id="resetDef">
                       <use xlink:href="#rim2" fill="#404040">
                               <set attributeName="fill" to="#808080" begin="reset.mouseover" end="reset.mouseout"/>
                       </use>
               </g>
        </defs>

<script type="text/javascript">
var viewWidth = 1167;
var viewHeight = 452;
var sectionId = 'dynsection-0';
</script>
<script xlink:href="../../svgpan.js"/>
<svg id="graph" class="graph">
<g id="viewport">
<title>/home/runner/work/Simple&#45;Utility/Simple&#45;Utility/include/Simple&#45;Utility/functional/compare.hpp</title>
<polygon fill="white" stroke="transparent" points="-4,4 -4,-448 1162.5,-448 1162.5,4 -4,4"/>
<!-- Node1 -->
<g id="node1" class="node">
<title>Node1</title>
<g id="a_node1"><a xlink:title=" ">
<polygon fill="#bfbfbf" stroke="black" points="605,-391.5 605,-443.5 751,-443.5 751,-391.5 605,-391.5"/>
<text text-anchor="start" x="613" y="-431.5" font-family="Helvetica,sans-Serif" font-size="10.00">/home/runner/work/Simple</text>
<text text-anchor="start" x="613" y="-420.5" font-family="Helvetica,sans-Serif" font-size="10.00">&#45;Utility/Simple&#45;Utility</text>
<text text-anchor="start" x="613" y="-409.5" font-family="Helvetica,sans-Serif" font-size="10.00">/include/Simple&#45;Utility</text>
<text text-anchor="middle" x="678" y="-398.5" font-family="Helvetica,sans-Serif" font-size="10.00">/functional/compare.hpp</text>
</a>
</g>
</g>
<!-- Node2 -->
<g id="node2" class="node">
<title>Node2</title>
<g id="a_node2"><a xlink:href="../../d2/d7e/predicate_8hpp.html" target="_top" xlink:title=" ">
<polygon fill="white" stroke="black" points="562,-324.5 562,-354.5 698,-354.5 698,-324.5 562,-324.5"/>
<text text-anchor="start" x="570" y="-342.5" font-family="Helvetica,sans-Serif" font-size="10.00">Simple&#45;Utility/functional</text>
<text text-anchor="middle" x="630" y="-331.5" font-family="Helvetica,sans-Serif" font-size="10.00">/predicate.hpp</text>
</a>
</g>
</g>
<!-- Node1&#45;&gt;Node2 -->
<g id="edge1" class="edge">
<title>Node1&#45;&gt;Node2</title>
<path fill="none" stroke="midnightblue" d="M662.02,-391.19C656.35,-382.22 650.01,-372.18 644.47,-363.42"/>
<polygon fill="midnightblue" stroke="midnightblue" points="647.36,-361.43 639.06,-354.85 641.44,-365.17 647.36,-361.43"/>
</g>
<!-- Node21 -->
<g id="node21" class="node">
<title>Node21</title>
<g id="a_node21"><a xlink:href="../../d6/deb/transform_8hpp.html" target="_top" xlink:title=" ">
<polygon fill="white" stroke="black" points="850,-257.5 850,-287.5 986,-287.5 986,-257.5 850,-257.5"/>
<text text-anchor="start" x="858" y="-275.5" font-family="Helvetica,sans-Serif" font-size="10.00">Simple&#45;Utility/functional</text>
<text text-anchor="middle" x="918" y="-264.5" font-family="Helvetica,sans-Serif" font-size="10.00">/transform.hpp</text>
</a>
</g>
</g>
<!-- Node1&#45;&gt;Node21 -->
<g id="edge40" class="edge">
<title>Node1&#45;&gt;Node21</title>
<path fill="none" stroke="midnightblue" d="M720.08,-391.43C767.27,-363.31 842.79,-318.31 885.61,-292.8"/>
<polygon fill="midnightblue" stroke="midnightblue" points="887.43,-295.79 894.22,-287.67 883.84,-289.78 887.43,-295.79"/>
</g>
<!-- Node3 -->
<g id="node3" class="node">
<title>Node3</title>
<g id="a_node3"><a xlink:href="../../d1/d76/functional_2base_8hpp.html" target="_top" xlink:title=" ">
<polygon fill="white" stroke="black" points="562,-123.5 562,-153.5 698,-153.5 698,-123.5 562,-123.5"/>
<text text-anchor="start" x="570" y="-141.5" font-family="Helvetica,sans-Serif" font-size="10.00">Simple&#45;Utility/functional</text>
<text text-anchor="middle" x="630" y="-130.5" font-family="Helvetica,sans-Serif" font-size="10.00">/base.hpp</text>
</a>
</g>
</g>
<!-- Node2&#45;&gt;Node3 -->
<g id="edge2" class="edge">
<title>Node2&#45;&gt;Node3</title>
<path fill="none" stroke="midnightblue" d="M630.25,-324.16C630.69,-297.67 631.49,-239.24 631,-190 630.92,-181.46 630.75,-172.12 630.58,-163.81"/>
<polygon fill="midnightblue" stroke="midnightblue" points="634.07,-163.57 630.36,-153.65 627.08,-163.72 634.07,-163.57"/>
</g>
<!-- Node11 -->
<g id="node11" class="node">
<title>Node11</title>
<g id="a_node11"><a xlink:href="../../d9/d76/bind_8hpp.html" target="_top" xlink:title=" ">
<polygon fill="white" stroke="black" points="984,-190.5 984,-220.5 1120,-220.5 1120,-190.5 984,-190.5"/>
<text text-anchor="start" x="992" y="-208.5" font-family="Helvetica,sans-Serif" font-size="10.00">Simple&#45;Utility/functional</text>
<text text-anchor="middle" x="1052" y="-197.5" font-family="Helvetica,sans-Serif" font-size="10.00">/operators/bind.hpp</text>
</a>
</g>
</g>
<!-- Node2&#45;&gt;Node11 -->
<g id="edge14" class="edge">
<title>Node2&#45;&gt;Node11</title>
<path fill="none" stroke="midnightblue" d="M698.25,-335.52C789.82,-330.45 946.57,-317.63 995,-288 1017.08,-274.5 1032.84,-248.87 1042.12,-229.94"/>
<polygon fill="midnightblue" stroke="midnightblue" points="1045.34,-231.3 1046.37,-220.76 1038.99,-228.36 1045.34,-231.3"/>
</g>
<!-- Node15 -->
<g id="node15" class="node">
<title>Node15</title>
<g id="a_node15"><a xlink:href="../../df/d80/conjunction_8hpp.html" target="_top" xlink:title=" ">
<polygon fill="white" stroke="black" points="476,-190.5 476,-220.5 622,-220.5 622,-190.5 476,-190.5"/>
<text text-anchor="start" x="484" y="-208.5" font-family="Helvetica,sans-Serif" font-size="10.00">Simple&#45;Utility/functional</text>
<text text-anchor="middle" x="549" y="-197.5" font-family="Helvetica,sans-Serif" font-size="10.00">/operators/conjunction.hpp</text>
</a>
</g>
</g>
<!-- Node2&#45;&gt;Node15 -->
<g id="edge21" class="edge">
<title>Node2&#45;&gt;Node15</title>
<path fill="none" stroke="midnightblue" d="M621.33,-324.37C607.39,-301.65 579.84,-256.75 563.05,-229.4"/>
<polygon fill="midnightblue" stroke="midnightblue" points="565.82,-227.22 557.61,-220.52 559.85,-230.88 565.82,-227.22"/>
</g>
<!-- Node16 -->
<g id="node16" class="node">
<title>Node16</title>
<g id="a_node16"><a xlink:href="../../d4/d7c/disjunction_8hpp.html" target="_top" xlink:title=" ">
<polygon fill="white" stroke="black" points="314.5,-190.5 314.5,-220.5 457.5,-220.5 457.5,-190.5 314.5,-190.5"/>
<text text-anchor="start" x="322.5" y="-208.5" font-family="Helvetica,sans-Serif" font-size="10.00">Simple&#45;Utility/functional</text>
<text text-anchor="middle" x="386" y="-197.5" font-family="Helvetica,sans-Serif" font-size="10.00">/operators/disjunction.hpp</text>
</a>
</g>
</g>
<!-- Node2&#45;&gt;Node16 -->
<g id="edge24" class="edge">
<title>Node2&#45;&gt;Node16</title>
<path fill="none" stroke="midnightblue" d="M603.89,-324.37C559.77,-300.51 470.45,-252.19 420.97,-225.42"/>
<polygon fill="midnightblue" stroke="midnightblue" points="422.39,-222.2 411.92,-220.52 419.05,-228.36 422.39,-222.2"/>
</g>
<!-- Node17 -->
<g id="node17" class="node">
<title>Node17</title>
<g id="a_node17"><a xlink:href="../../dc/d0a/equal_8hpp.html" target="_top" xlink:title=" ">
<polygon fill="white" stroke="black" points="160,-190.5 160,-220.5 296,-220.5 296,-190.5 160,-190.5"/>
<text text-anchor="start" x="168" y="-208.5" font-family="Helvetica,sans-Serif" font-size="10.00">Simple&#45;Utility/functional</text>
<text text-anchor="middle" x="228" y="-197.5" font-family="Helvetica,sans-Serif" font-size="10.00">/operators/equal.hpp</text>
</a>
</g>
</g>
<!-- Node2&#45;&gt;Node17 -->
<g id="edge27" class="edge">
<title>Node2&#45;&gt;Node17</title>
<path fill="none" stroke="midnightblue" d="M587.36,-324.5C513.34,-300.19 361.27,-250.26 280.74,-223.82"/>
<polygon fill="midnightblue" stroke="midnightblue" points="281.4,-220.35 270.81,-220.56 279.22,-227 281.4,-220.35"/>
</g>
<!-- Node18 -->
<g id="node18" class="node">
<title>Node18</title>
<g id="a_node18"><a xlink:href="../../d7/dd0/equivalent_8hpp.html" target="_top" xlink:title=" ">
<polygon fill="white" stroke="black" points="0,-190.5 0,-220.5 142,-220.5 142,-190.5 0,-190.5"/>
<text text-anchor="start" x="8" y="-208.5" font-family="Helvetica,sans-Serif" font-size="10.00">Simple&#45;Utility/functional</text>
<text text-anchor="middle" x="71" y="-197.5" font-family="Helvetica,sans-Serif" font-size="10.00">/operators/equivalent.hpp</text>
</a>
</g>
</g>
<!-- Node2&#45;&gt;Node18 -->
<g id="edge30" class="edge">
<title>Node2&#45;&gt;Node18</title>
<path fill="none" stroke="midnightblue" d="M561.75,-325.13C513.17,-315.4 446.42,-301.6 388,-288 298.82,-267.24 196.32,-240.33 132.6,-223.23"/>
<polygon fill="midnightblue" stroke="midnightblue" points="133.28,-219.79 122.71,-220.57 131.46,-226.55 133.28,-219.79"/>
</g>
<!-- Node19 -->
<g id="node19" class="node">
<title>Node19</title>
<g id="a_node19"><a xlink:href="../../d8/dea/negation_8hpp.html" target="_top" xlink:title=" ">
<polygon fill="white" stroke="black" points="658,-257.5 658,-287.5 794,-287.5 794,-257.5 658,-257.5"/>
<text text-anchor="start" x="666" y="-275.5" font-family="Helvetica,sans-Serif" font-size="10.00">Simple&#45;Utility/functional</text>
<text text-anchor="middle" x="726" y="-264.5" font-family="Helvetica,sans-Serif" font-size="10.00">/operators/negation.hpp</text>
</a>
</g>
</g>
<!-- Node2&#45;&gt;Node19 -->
<g id="edge33" class="edge">
<title>Node2&#45;&gt;Node19</title>
<path fill="none" stroke="midnightblue" d="M650.83,-324.4C664.29,-315.28 682,-303.29 696.85,-293.24"/>
<polygon fill="midnightblue" stroke="midnightblue" points="698.89,-296.08 705.21,-287.58 694.97,-290.28 698.89,-296.08"/>
</g>
<!-- Node20 -->
<g id="node20" class="node">
<title>Node20</title>
<g id="a_node20"><a xlink:href="../../d5/db7/pipe_8hpp.html" target="_top" xlink:title=" ">
<polygon fill="white" stroke="black" points="754,-190.5 754,-220.5 890,-220.5 890,-190.5 754,-190.5"/>
<text text-anchor="start" x="762" y="-208.5" font-family="Helvetica,sans-Serif" font-size="10.00">Simple&#45;Utility/functional</text>
<text text-anchor="middle" x="822" y="-197.5" font-family="Helvetica,sans-Serif" font-size="10.00">/operators/pipe.hpp</text>
</a>
</g>
</g>
<!-- Node2&#45;&gt;Node20 -->
<g id="edge39" class="edge">
<title>Node2&#45;&gt;Node20</title>
<path fill="none" stroke="midnightblue" d="M698.42,-334.68C734.24,-329.11 776.12,-316.4 803,-288 817.46,-272.72 821.64,-248.66 822.54,-230.63"/>
<polygon fill="midnightblue" stroke="midnightblue" points="826.05,-230.65 822.75,-220.58 819.05,-230.5 826.05,-230.65"/>
</g>
<!-- Node4 -->
<g id="node4" class="node">
<title>Node4</title>
<g id="a_node4"><a xlink:title=" ">
<polygon fill="white" stroke="#bfbfbf" points="502,-0.5 502,-19.5 562,-19.5 562,-0.5 502,-0.5"/>
<text text-anchor="middle" x="532" y="-7.5" font-family="Helvetica,sans-Serif" font-size="10.00">concepts</text>
</a>
</g>
</g>
<!-- Node3&#45;&gt;Node4 -->
<g id="edge3" class="edge">
<title>Node3&#45;&gt;Node4</title>
<path fill="none" stroke="midnightblue" d="M597.36,-123.37C581.5,-114.96 563.45,-102.81 552,-87 539.78,-70.12 535.02,-46.33 533.17,-29.88"/>
<polygon fill="midnightblue" stroke="midnightblue" points="536.65,-29.5 532.3,-19.84 529.68,-30.11 536.65,-29.5"/>
</g>
<!-- Node5 -->
<g id="node5" class="node">
<title>Node5</title>
<g id="a_node5"><a xlink:title=" ">
<polygon fill="white" stroke="#bfbfbf" points="756.5,-62 756.5,-81 821.5,-81 821.5,-62 756.5,-62"/>
<text text-anchor="middle" x="789" y="-69" font-family="Helvetica,sans-Serif" font-size="10.00">functional</text>
</a>
</g>
</g>
<!-- Node3&#45;&gt;Node5 -->
<g id="edge4" class="edge">
<title>Node3&#45;&gt;Node5</title>
<path fill="none" stroke="midnightblue" d="M664.5,-123.4C692.65,-111.89 732.01,-95.8 758.89,-84.81"/>
<polygon fill="midnightblue" stroke="midnightblue" points="760.26,-88.03 768.19,-81.01 757.61,-81.55 760.26,-88.03"/>
</g>
<!-- Node6 -->
<g id="node6" class="node">
<title>Node6</title>
<g id="a_node6"><a xlink:title=" ">
<polygon fill="white" stroke="#bfbfbf" points="865.5,-0.5 865.5,-19.5 934.5,-19.5 934.5,-0.5 865.5,-0.5"/>
<text text-anchor="middle" x="900" y="-7.5" font-family="Helvetica,sans-Serif" font-size="10.00">type_traits</text>
</a>
</g>
</g>
<!-- Node3&#45;&gt;Node6 -->
<g id="edge5" class="edge">
<title>Node3&#45;&gt;Node6</title>
<path fill="none" stroke="midnightblue" d="M653.58,-123.31C669.5,-113.51 690.85,-99.96 709,-87 727.02,-74.13 728.36,-66.22 748,-56 782,-38.31 823.99,-26.55 855.21,-19.5"/>
<polygon fill="midnightblue" stroke="midnightblue" points="856.34,-22.84 865.36,-17.29 854.85,-16 856.34,-22.84"/>
</g>
<!-- Node7 -->
<g id="node7" class="node">
<title>Node7</title>
<g id="a_node7"><a xlink:href="../../d8/dd2/_config_8hpp.html" target="_top" xlink:title=" ">
<polygon fill="white" stroke="black" points="560.5,-62 560.5,-81 699.5,-81 699.5,-62 560.5,-62"/>
<text text-anchor="middle" x="630" y="-69" font-family="Helvetica,sans-Serif" font-size="10.00">Simple&#45;Utility/Config.hpp</text>
</a>
</g>
</g>
<!-- Node3&#45;&gt;Node7 -->
<g id="edge6" class="edge">
<title>Node3&#45;&gt;Node7</title>
<path fill="none" stroke="midnightblue" d="M630,-123.4C630,-114.06 630,-101.71 630,-91.52"/>
<polygon fill="midnightblue" stroke="midnightblue" points="633.5,-91.19 630,-81.19 626.5,-91.19 633.5,-91.19"/>
</g>
<!-- Node8 -->
<g id="node8" class="node">
<title>Node8</title>
<g id="a_node8"><a xlink:href="../../d4/d1c/unified__base_8hpp.html" target="_top" xlink:title=" ">
<polygon fill="white" stroke="black" points="840,-56.5 840,-86.5 960,-86.5 960,-56.5 840,-56.5"/>
<text text-anchor="start" x="848" y="-74.5" font-family="Helvetica,sans-Serif" font-size="10.00">Simple&#45;Utility/unified</text>
<text text-anchor="middle" x="900" y="-63.5" font-family="Helvetica,sans-Serif" font-size="10.00">_base.hpp</text>
</a>
</g>
</g>
<!-- Node3&#45;&gt;Node8 -->
<g id="edge7" class="edge">
<title>Node3&#45;&gt;Node8</title>
<path fill="none" stroke="midnightblue" d="M688.25,-123.48C730.34,-113.34 787.32,-99.63 831.58,-88.97"/>
<polygon fill="midnightblue" stroke="midnightblue" points="832.48,-92.35 841.39,-86.61 830.84,-85.55 832.48,-92.35"/>
</g>
<!-- Node9 -->
<g id="node9" class="node">
<title>Node9</title>
<g id="a_node9"><a xlink:href="../../dd/d5c/stl__extensions_8hpp.html" target="_top" xlink:title=" ">
<polygon fill="white" stroke="black" points="372.5,-56.5 372.5,-86.5 503.5,-86.5 503.5,-56.5 372.5,-56.5"/>
<text text-anchor="start" x="380.5" y="-74.5" font-family="Helvetica,sans-Serif" font-size="10.00">Simple&#45;Utility/concepts</text>
<text text-anchor="middle" x="438" y="-63.5" font-family="Helvetica,sans-Serif" font-size="10.00">/stl_extensions.hpp</text>
</a>
</g>
</g>
<!-- Node3&#45;&gt;Node9 -->
<g id="edge10" class="edge">
<title>Node3&#45;&gt;Node9</title>
<path fill="none" stroke="midnightblue" d="M588.34,-123.4C559.28,-113.56 520.31,-100.37 489.33,-89.88"/>
<polygon fill="midnightblue" stroke="midnightblue" points="490.17,-86.47 479.58,-86.58 487.93,-93.1 490.17,-86.47"/>
</g>
<!-- Node10 -->
<g id="node10" class="node">
<title>Node10</title>
<g id="a_node10"><a xlink:href="../../d5/d8e/concepts_2utility_8hpp.html" target="_top" xlink:title=" ">
<polygon fill="white" stroke="black" points="223.5,-56.5 223.5,-86.5 354.5,-86.5 354.5,-56.5 223.5,-56.5"/>
<text text-anchor="start" x="231.5" y="-74.5" font-family="Helvetica,sans-Serif" font-size="10.00">Simple&#45;Utility/concepts</text>
<text text-anchor="middle" x="289" y="-63.5" font-family="Helvetica,sans-Serif" font-size="10.00">/utility.hpp</text>
</a>
</g>
</g>
<!-- Node3&#45;&gt;Node10 -->
<g id="edge12" class="edge">
<title>Node3&#45;&gt;Node10</title>
<path fill="none" stroke="midnightblue" d="M561.93,-124.64C510.49,-114.91 437.85,-101.14 364.7,-87.13"/>
<polygon fill="midnightblue" stroke="midnightblue" points="365.33,-83.69 354.85,-85.24 364.01,-90.56 365.33,-83.69"/>
</g>
<!-- Node8&#45;&gt;Node4 -->
<g id="edge8" class="edge">
<title>Node8&#45;&gt;Node4</title>
<path fill="none" stroke="midnightblue" d="M839.83,-57.64C836.85,-57.07 833.89,-56.52 831,-56 738.84,-39.39 629.92,-24.08 572.36,-16.32"/>
<polygon fill="midnightblue" stroke="midnightblue" points="572.6,-12.82 562.23,-14.96 571.67,-19.76 572.6,-12.82"/>
</g>
<!-- Node8&#45;&gt;Node6 -->
<g id="edge9" class="edge">
<title>Node8&#45;&gt;Node6</title>
<path fill="none" stroke="midnightblue" d="M900,-56.4C900,-48.47 900,-38.46 900,-29.86"/>
<polygon fill="midnightblue" stroke="midnightblue" points="903.5,-29.66 900,-19.66 896.5,-29.66 903.5,-29.66"/>
</g>
<!-- Node9&#45;&gt;Node4 -->
<g id="edge11" class="edge">
<title>Node9&#45;&gt;Node4</title>
<path fill="none" stroke="midnightblue" d="M460.28,-56.4C475.2,-46.95 494.78,-34.56 509.71,-25.11"/>
<polygon fill="midnightblue" stroke="midnightblue" points="511.74,-27.96 518.32,-19.66 508,-22.05 511.74,-27.96"/>
</g>
<!-- Node10&#45;&gt;Node4 -->
<g id="edge13" class="edge">
<title>Node10&#45;&gt;Node4</title>
<path fill="none" stroke="midnightblue" d="M346.28,-56.47C391.07,-45.51 452.2,-30.54 491.89,-20.82"/>
<polygon fill="midnightblue" stroke="midnightblue" points="492.86,-24.19 501.74,-18.41 491.19,-17.39 492.86,-24.19"/>
</g>
<!-- Node11&#45;&gt;Node3 -->
<g id="edge15" class="edge">
<title>Node11&#45;&gt;Node3</title>
<path fill="none" stroke="midnightblue" d="M983.73,-193.98C908.34,-182.37 787.19,-163.71 708.08,-151.53"/>
<polygon fill="midnightblue" stroke="midnightblue" points="708.59,-148.06 698.17,-150 707.52,-154.98 708.59,-148.06"/>
</g>
<!-- Node12 -->
<g id="node12" class="node">
<title>Node12</title>
<g id="a_node12"><a xlink:href="../../d2/d30/general_8hpp.html" target="_top" xlink:title=" ">
<polygon fill="white" stroke="black" points="990,-123.5 990,-153.5 1102,-153.5 1102,-123.5 990,-123.5"/>
<text text-anchor="start" x="998" y="-141.5" font-family="Helvetica,sans-Serif" font-size="10.00">Simple&#45;Utility/tuple</text>
<text text-anchor="middle" x="1046" y="-130.5" font-family="Helvetica,sans-Serif" font-size="10.00">/general.hpp</text>
</a>
</g>
</g>
<!-- Node11&#45;&gt;Node12 -->
<g id="edge16" class="edge">
<title>Node11&#45;&gt;Node12</title>
<path fill="none" stroke="midnightblue" d="M1050.7,-190.4C1049.97,-182.56 1049.05,-172.6 1048.22,-163.57"/>
<polygon fill="midnightblue" stroke="midnightblue" points="1051.7,-163.21 1047.3,-153.58 1044.73,-163.86 1051.7,-163.21"/>
</g>
<!-- Node12&#45;&gt;Node4 -->
<g id="edge17" class="edge">
<title>Node12&#45;&gt;Node4</title>
<path fill="none" stroke="midnightblue" d="M1033.7,-123.45C1014.09,-101.21 977.12,-60 969,-56 899.77,-21.86 666.82,-13.57 572.33,-11.6"/>
<polygon fill="midnightblue" stroke="midnightblue" points="572.37,-8.1 562.3,-11.41 572.23,-15.1 572.37,-8.1"/>
</g>
<!-- Node12&#45;&gt;Node6 -->
<g id="edge19" class="edge">
<title>Node12&#45;&gt;Node6</title>
<path fill="none" stroke="midnightblue" d="M1041.57,-123.31C1035.35,-105.46 1022.44,-74.87 1002,-56 985.46,-40.72 962.88,-30.04 943.18,-22.93"/>
<polygon fill="midnightblue" stroke="midnightblue" points="944.07,-19.53 933.48,-19.62 941.81,-26.16 944.07,-19.53"/>
</g>
<!-- Node13 -->
<g id="node13" class="node">
<title>Node13</title>
<g id="a_node13"><a xlink:title=" ">
<polygon fill="white" stroke="#bfbfbf" points="1054.5,-62 1054.5,-81 1095.5,-81 1095.5,-62 1054.5,-62"/>
<text text-anchor="middle" x="1075" y="-69" font-family="Helvetica,sans-Serif" font-size="10.00">tuple</text>
</a>
</g>
</g>
<!-- Node12&#45;&gt;Node13 -->
<g id="edge18" class="edge">
<title>Node12&#45;&gt;Node13</title>
<path fill="none" stroke="midnightblue" d="M1052.29,-123.4C1056.59,-113.76 1062.32,-100.91 1066.95,-90.54"/>
<polygon fill="midnightblue" stroke="midnightblue" points="1070.24,-91.75 1071.12,-81.19 1063.85,-88.9 1070.24,-91.75"/>
</g>
<!-- Node14 -->
<g id="node14" class="node">
<title>Node14</title>
<g id="a_node14"><a xlink:title=" ">
<polygon fill="white" stroke="#bfbfbf" points="1113.5,-62 1113.5,-81 1158.5,-81 1158.5,-62 1113.5,-62"/>
<text text-anchor="middle" x="1136" y="-69" font-family="Helvetica,sans-Serif" font-size="10.00">utility</text>
</a>
</g>
</g>
<!-- Node12&#45;&gt;Node14 -->
<g id="edge20" class="edge">
<title>Node12&#45;&gt;Node14</title>
<path fill="none" stroke="midnightblue" d="M1065.53,-123.4C1080.48,-112.6 1101.03,-97.76 1116.08,-86.89"/>
<polygon fill="midnightblue" stroke="midnightblue" points="1118.16,-89.7 1124.22,-81.01 1114.07,-84.02 1118.16,-89.7"/>
</g>
<!-- Node15&#45;&gt;Node3 -->
<g id="edge23" class="edge">
<title>Node15&#45;&gt;Node3</title>
<path fill="none" stroke="midnightblue" d="M566.58,-190.4C577.61,-181.54 592.04,-169.96 604.35,-160.09"/>
<polygon fill="midnightblue" stroke="midnightblue" points="606.85,-162.56 612.46,-153.58 602.47,-157.11 606.85,-162.56"/>
</g>
<!-- Node15&#45;&gt;Node10 -->
<g id="edge22" class="edge">
<title>Node15&#45;&gt;Node10</title>
<path fill="none" stroke="midnightblue" d="M521.18,-190.37C473.97,-166.41 378.2,-117.78 325.61,-91.09"/>
<polygon fill="midnightblue" stroke="midnightblue" points="327.13,-87.93 316.62,-86.52 323.96,-94.17 327.13,-87.93"/>
</g>
<!-- Node16&#45;&gt;Node3 -->
<g id="edge26" class="edge">
<title>Node16&#45;&gt;Node3</title>
<path fill="none" stroke="midnightblue" d="M438.64,-190.48C476.36,-180.43 527.31,-166.86 567.15,-156.24"/>
<polygon fill="midnightblue" stroke="midnightblue" points="568.27,-159.57 577.03,-153.61 566.47,-152.8 568.27,-159.57"/>
</g>
<!-- Node16&#45;&gt;Node10 -->
<g id="edge25" class="edge">
<title>Node16&#45;&gt;Node10</title>
<path fill="none" stroke="midnightblue" d="M375.62,-190.37C358.77,-167.45 325.35,-121.97 305.31,-94.69"/>
<polygon fill="midnightblue" stroke="midnightblue" points="308.05,-92.51 299.31,-86.52 302.41,-96.66 308.05,-92.51"/>
</g>
<!-- Node17&#45;&gt;Node3 -->
<g id="edge29" class="edge">
<title>Node17&#45;&gt;Node3</title>
<path fill="none" stroke="midnightblue" d="M296.04,-191.73C299.41,-191.14 302.74,-190.56 306,-190 389.76,-175.69 485.99,-160.9 551.68,-151.05"/>
<polygon fill="midnightblue" stroke="midnightblue" points="552.58,-154.46 561.95,-149.52 551.55,-147.53 552.58,-154.46"/>
</g>
<!-- Node17&#45;&gt;Node10 -->
<g id="edge28" class="edge">
<title>Node17&#45;&gt;Node10</title>
<path fill="none" stroke="midnightblue" d="M234.53,-190.37C244.98,-167.75 265.6,-123.14 278.25,-95.76"/>
<polygon fill="midnightblue" stroke="midnightblue" points="281.5,-97.07 282.52,-86.52 275.15,-94.13 281.5,-97.07"/>
</g>
<!-- Node18&#45;&gt;Node3 -->
<g id="edge32" class="edge">
<title>Node18&#45;&gt;Node3</title>
<path fill="none" stroke="midnightblue" d="M142.06,-191.34C145.07,-190.87 148.07,-190.42 151,-190 291.77,-169.85 456.88,-154.19 551.88,-145.94"/>
<polygon fill="midnightblue" stroke="midnightblue" points="552.32,-149.42 561.98,-145.07 551.72,-142.44 552.32,-149.42"/>
</g>
<!-- Node18&#45;&gt;Node10 -->
<g id="edge31" class="edge">
<title>Node18&#45;&gt;Node10</title>
<path fill="none" stroke="midnightblue" d="M94.33,-190.37C133.58,-166.6 212.88,-118.59 257.2,-91.75"/>
<polygon fill="midnightblue" stroke="midnightblue" points="259.1,-94.7 265.84,-86.52 255.47,-88.71 259.1,-94.7"/>
</g>
<!-- Node19&#45;&gt;Node3 -->
<g id="edge34" class="edge">
<title>Node19&#45;&gt;Node3</title>
<path fill="none" stroke="midnightblue" d="M715.73,-257.37C699.05,-234.45 665.98,-188.97 646.14,-161.69"/>
<polygon fill="midnightblue" stroke="midnightblue" points="648.91,-159.55 640.2,-153.52 643.25,-163.67 648.91,-159.55"/>
</g>
<!-- Node19&#45;&gt;Node5 -->
<g id="edge38" class="edge">
<title>Node19&#45;&gt;Node5</title>
<path fill="none" stroke="midnightblue" d="M728.75,-257.22C732.03,-240.83 737.98,-213.22 745,-190 755.83,-154.18 771.94,-113.52 781.37,-90.65"/>
<polygon fill="midnightblue" stroke="midnightblue" points="784.68,-91.79 785.29,-81.21 778.22,-89.1 784.68,-91.79"/>
</g>
<!-- Node19&#45;&gt;Node20 -->
<g id="edge35" class="edge">
<title>Node19&#45;&gt;Node20</title>
<path fill="none" stroke="midnightblue" d="M746.83,-257.4C760.29,-248.28 778,-236.29 792.85,-226.24"/>
<polygon fill="midnightblue" stroke="midnightblue" points="794.89,-229.08 801.21,-220.58 790.97,-223.28 794.89,-229.08"/>
</g>
<!-- Node20&#45;&gt;Node3 -->
<g id="edge36" class="edge">
<title>Node20&#45;&gt;Node3</title>
<path fill="none" stroke="midnightblue" d="M780.34,-190.4C751.28,-180.56 712.31,-167.37 681.33,-156.88"/>
<polygon fill="midnightblue" stroke="midnightblue" points="682.17,-153.47 671.58,-153.58 679.93,-160.1 682.17,-153.47"/>
</g>
<!-- Node20&#45;&gt;Node12 -->
<g id="edge37" class="edge">
<title>Node20&#45;&gt;Node12</title>
<path fill="none" stroke="midnightblue" d="M870.33,-190.48C904.66,-180.51 950.93,-167.09 987.37,-156.51"/>
<polygon fill="midnightblue" stroke="midnightblue" points="988.74,-159.76 997.37,-153.61 986.79,-153.04 988.74,-159.76"/>
</g>
<!-- Node21&#45;&gt;Node3 -->
<g id="edge42" class="edge">
<title>Node21&#45;&gt;Node3</title>
<path fill="none" stroke="midnightblue" d="M919.01,-257.47C919.5,-239.21 917.36,-207.58 899,-190 872.13,-164.28 777.53,-151.13 708.08,-144.8"/>
<polygon fill="midnightblue" stroke="midnightblue" points="708.3,-141.3 698.03,-143.91 707.68,-148.27 708.3,-141.3"/>
</g>
<!-- Node21&#45;&gt;Node8 -->
<g id="edge41" class="edge">
<title>Node21&#45;&gt;Node8</title>
<path fill="none" stroke="midnightblue" d="M918.71,-257.36C919.18,-247.23 919.76,-233.28 920,-221 920.27,-207.22 921.16,-203.73 920,-190 917.24,-157.28 910.21,-119.97 905.27,-96.34"/>
<polygon fill="midnightblue" stroke="midnightblue" points="908.69,-95.56 903.17,-86.51 901.84,-97.02 908.69,-95.56"/>
</g>
<!-- Node21&#45;&gt;Node11 -->
<g id="edge43" class="edge">
<title>Node21&#45;&gt;Node11</title>
<path fill="none" stroke="midnightblue" d="M947.08,-257.4C966.65,-247.9 992.68,-235.28 1013.91,-224.98"/>
<polygon fill="midnightblue" stroke="midnightblue" points="1015.51,-228.09 1022.98,-220.58 1012.46,-221.79 1015.51,-228.09"/>
</g>
<!-- Node21&#45;&gt;Node20 -->
<g id="edge44" class="edge">
<title>Node21&#45;&gt;Node20</title>
<path fill="none" stroke="midnightblue" d="M897.17,-257.4C883.71,-248.28 866,-236.29 851.15,-226.24"/>
<polygon fill="midnightblue" stroke="midnightblue" points="853.03,-223.28 842.79,-220.58 849.11,-229.08 853.03,-223.28"/>
</g>
</g>
</svg>
        <g id="navigator" transform="translate(0 0)" fill="#404254">
                <rect fill="#f2f5e9" fill-opacity="0.5" stroke="#606060" stroke-width=".5" x="0" y="0" width="60" height="60"/>
                <use id="zoomplus" xlink:href="#zoomPlus" x="17" y="9" onmousedown="handleZoom(evt,'in')"/>
                <use id="zoomminus" xlink:href="#zoomMin" x="42" y="9" onmousedown="handleZoom(evt,'out')"/>
                <use id="reset" xlink:href="#resetDef" x="30" y="36" onmousedown="handleReset()"/>
                <g id="arrowUp" xlink:href="#dirArrow" transform="translate(30 24)" onmousedown="handlePan(0,-1)">
                  <use xlink:href="#rim" fill="#404040">
                        <set attributeName="fill" to="#808080" begin="arrowUp.mouseover" end="arrowUp.mouseout"/>
                  </use>
                  <path fill="none" stroke="white" stroke-width="1.5" d="M0,-3.0v7 M-2.5,-0.5L0,-3.0L2.5,-0.5"/>
                </g>
                <g id="arrowRight" xlink:href="#dirArrow" transform="rotate(90) translate(36 -43)" onmousedown="handlePan(1,0)">
                  <use xlink:href="#rim" fill="#404040">
                        <set attributeName="fill" to="#808080" begin="arrowRight.mouseover" end="arrowRight.mouseout"/>
                  </use>
                  <path fill="none" stroke="white" stroke-width="1.5" d="M0,-3.0v7 M-2.5,-0.5L0,-3.0L2.5,-0.5"/>
                </g>
                <g id="arrowDown" xlink:href="#dirArrow" transform="rotate(180) translate(-30 -48)" onmousedown="handlePan(0,1)">
                  <use xlink:href="#rim" fill="#404040">
                        <set attributeName="fill" to="#808080" begin="arrowDown.mouseover" end="arrowDown.mouseout"/>
                  </use>
                  <path fill="none" stroke="white" stroke-width="1.5" d="M0,-3.0v7 M-2.5,-0.5L0,-3.0L2.5,-0.5"/>
                </g>
                <g id="arrowLeft" xlink:href="#dirArrow" transform="rotate(270) translate(-36 17)" onmousedown="handlePan(-1,0)">
                  <use xlink:href="#rim" fill="#404040">
                        <set attributeName="fill" to="#808080" begin="arrowLeft.mouseover" end="arrowLeft.mouseout"/>
                  </use>
                  <path fill="none" stroke="white" stroke-width="1.5" d="M0,-3.0v7 M-2.5,-0.5L0,-3.0L2.5,-0.5"/>
                </g>
        </g>
        <svg viewBox="0 0 15 15" width="100%" height="30px" preserveAspectRatio="xMaxYMin meet">
         <g id="arrow_out" transform="scale(0.3 0.3)">
          <a xlink:href="compare_8hpp__incl_org.svg" target="_base">
           <rect id="button" ry="5" rx="5" y="6" x="6" height="38" width="38"
                fill="#f2f5e9" fill-opacity="0.5" stroke="#606060" stroke-width="1.0"/>
           <path id="arrow"
             d="M 11.500037,31.436501 C 11.940474,20.09759 22.043105,11.32322 32.158766,21.979434 L 37.068811,17.246167 C 37.068811,17.246167 37.088388,32 37.088388,32 L 22.160133,31.978069 C 22.160133,31.978069 26.997745,27.140456 26.997745,27.140456 C 18.528582,18.264221 13.291696,25.230495 11.500037,31.436501 z"
             style="fill:#404040;"/>
          </a>
         </g>
        </svg>
</svg>
