<?xml version="1.0" encoding="UTF-8" standalone="no"?>
<!DOCTYPE svg PUBLIC "-//W3C//DTD SVG 1.1//EN"
 "http://www.w3.org/Graphics/SVG/1.1/DTD/svg11.dtd">
<!-- Generated by graphviz version 8.0.5 (20230430.1635)
 -->
<!-- Title: adapter Pages: 1 -->
<svg width="371pt" height="44pt"
 viewBox="0.00 0.00 370.50 43.88" xmlns="http://www.w3.org/2000/svg" xmlns:xlink="http://www.w3.org/1999/xlink">
<g id="graph0" class="graph" transform="scale(1 1) rotate(0) translate(4 39.88)">
<title>adapter</title>
<!-- Node2 -->
<g id="node1" class="node">
<title>Node2</title>
<g id="a_node1"><a xlink:href="../../d1/d3d/group___g_r_o_u_p___n_u_l_l_a_b_l_e_s.html" target="_top" xlink:title="This library offers some simple algorithms for convenient working with nullable types.">
<polygon fill="white" stroke="#666666" points="57.25,-20.75 0,-20.75 0,0 57.25,0 57.25,-20.75"/>
<text text-anchor="middle" x="28.62" y="-7.25" font-family="Helvetica,sans-Serif" font-size="10.00">nullables</text>
</a>
</g>
</g>
<!-- Node1 -->
<g id="node2" class="node">
<title>Node1</title>
<g id="a_node2"><a xlink:title=" ">
<polygon fill="#999999" stroke="#666666" points="145.5,-20.75 94.25,-20.75 94.25,0 145.5,0 145.5,-20.75"/>
<text text-anchor="middle" x="119.88" y="-7.25" font-family="Helvetica,sans-Serif" font-size="10.00">adapter</text>
</a>
</g>
</g>
<!-- Node2&#45;&gt;Node1 -->
<g id="edge1" class="edge">
<title>Node2&#45;&gt;Node1</title>
<path fill="none" stroke="black" d="M68.14,-10.38C76.85,-10.38 85.88,-10.38 93.87,-10.38"/>
<polygon fill="black" stroke="black" points="68.38,-6.88 58.38,-10.38 68.37,-13.88 68.38,-6.88"/>
</g>
<!-- Node3 -->
<g id="node3" class="node">
<title>Node3</title>
<g id="a_node3"><a xlink:href="../../dd/dc8/group___g_r_o_u_p___n_u_l_l_a_b_l_e_s___t_r_a_i_t_s.html" target="_top" xlink:title="These traits are used by the algorithms and my be specialized by users for their custom types.">
<polygon fill="white" stroke="#666666" points="362.5,-20.75 323.25,-20.75 323.25,0 362.5,0 362.5,-20.75"/>
<text text-anchor="middle" x="342.88" y="-7.25" font-family="Helvetica,sans-Serif" font-size="10.00">traits</text>
</a>
</g>
</g>
<!-- Node1&#45;&gt;Node3 -->
<g id="edge2" class="edge">
<title>Node1&#45;&gt;Node3</title>
<path fill="none" stroke="orange" stroke-dasharray="5,2" d="M145.8,-10.38C190.39,-10.38 282.88,-10.38 322.82,-10.38"/>
<text text-anchor="start" x="163.5" y="-26.38" font-family="Helvetica,sans-Serif" font-size="10.00">sl::nullables::traits</text>
<text text-anchor="middle" x="234.38" y="-13.62" font-family="Helvetica,sans-Serif" font-size="10.00">&lt; adapter&lt; TNull, TAdapted &gt; &gt;</text>
</g>
</g>
</svg>
