<?xml version="1.0" encoding="UTF-8" standalone="no"?>
<!DOCTYPE svg PUBLIC "-//W3C//DTD SVG 1.1//EN"
 "http://www.w3.org/Graphics/SVG/1.1/DTD/svg11.dtd">
<!-- Generated by graphviz version 2.43.0 (0)
 -->
<!-- Title: adapter Pages: 1 -->
<svg width="398pt" height="40pt"
 viewBox="0.00 0.00 398.00 39.50" xmlns="http://www.w3.org/2000/svg" xmlns:xlink="http://www.w3.org/1999/xlink">
<g id="graph0" class="graph" transform="scale(1 1) rotate(0) translate(4 35.5)">
<title>adapter</title>
<polygon fill="white" stroke="transparent" points="-4,4 -4,-35.5 394,-35.5 394,4 -4,4"/>
<!-- Node1 -->
<g id="node1" class="node">
<title>Node1</title>
<g id="a_node1"><a xlink:title=" ">
<polygon fill="#bfbfbf" stroke="black" points="152,-19 98,-19 98,0 152,0 152,-19"/>
<text text-anchor="middle" x="125" y="-7" font-family="Helvetica,sans-Serif" font-size="10.00">adapter</text>
</a>
</g>
</g>
<!-- Node3 -->
<g id="node2" class="node">
<title>Node3</title>
<g id="a_node2"><a xlink:href="../../dd/dc8/group___g_r_o_u_p___n_u_l_l_a_b_l_e_s___t_r_a_i_t_s.html" target="_top" xlink:title="These traits are used by the algorithms and my be specialized by users for their custom types.">
<polygon fill="white" stroke="black" points="390,-19 348,-19 348,0 390,0 390,-19"/>
<text text-anchor="middle" x="369" y="-7" font-family="Helvetica,sans-Serif" font-size="10.00">traits</text>
</a>
</g>
</g>
<!-- Node1&#45;&gt;Node3 -->
<g id="edge2" class="edge">
<title>Node1&#45;&gt;Node3</title>
<path fill="none" stroke="orange" stroke-dasharray="5,2" d="M152.36,-9.5C201.11,-9.5 304.37,-9.5 347.94,-9.5"/>
<text text-anchor="start" x="170" y="-23.5" font-family="Helvetica,sans-Serif" font-size="10.00">sl::nullables::traits</text>
<text text-anchor="middle" x="250" y="-12.5" font-family="Helvetica,sans-Serif" font-size="10.00">&lt; adapter&lt; TNull, TAdapted &gt; &gt;</text>
</g>
<!-- Node2 -->
<g id="node3" class="node">
<title>Node2</title>
<g id="a_node3"><a xlink:href="../../d1/d3d/group___g_r_o_u_p___n_u_l_l_a_b_l_e_s.html" target="_top" xlink:title="This library offers some simple algorithms for convenient working with nullable types.">
<polygon fill="white" stroke="black" points="61,-19 0,-19 0,0 61,0 61,-19"/>
<text text-anchor="middle" x="30.5" y="-7" font-family="Helvetica,sans-Serif" font-size="10.00">nullables</text>
</a>
</g>
</g>
<!-- Node2&#45;&gt;Node1 -->
<g id="edge1" class="edge">
<title>Node2&#45;&gt;Node1</title>
<path fill="none" stroke="black" d="M71.04,-9.5C80.11,-9.5 89.54,-9.5 97.88,-9.5"/>
<polygon fill="black" stroke="black" points="71.02,-6 61.02,-9.5 71.02,-13 71.02,-6"/>
</g>
</g>
</svg>
