<?xml version="1.0" encoding="UTF-8" standalone="no"?>
<!DOCTYPE svg PUBLIC "-//W3C//DTD SVG 1.1//EN"
 "http://www.w3.org/Graphics/SVG/1.1/DTD/svg11.dtd">
<!-- Generated by graphviz version 8.0.5 (20230430.1635)
 -->
<!-- Title: Simple&#45;Utility/functional/Utility.hpp Pages: 1 -->
<svg width="1354pt" height="572pt"
 viewBox="0.00 0.00 1353.62 572.00" xmlns="http://www.w3.org/2000/svg" xmlns:xlink="http://www.w3.org/1999/xlink">
<g id="graph0" class="graph" transform="scale(1 1) rotate(0) translate(4 568)">
<title>Simple&#45;Utility/functional/Utility.hpp</title>
<!-- Node1 -->
<g id="node1" class="node">
<title>Node1</title>
<g id="a_node1"><a xlink:title=" ">
<polygon fill="#999999" stroke="#666666" points="557.38,-564 430.38,-564 430.38,-530.5 557.38,-530.5 557.38,-564"/>
<text text-anchor="start" x="438.38" y="-550.5" font-family="Helvetica,sans-Serif" font-size="10.00">Simple&#45;Utility/functional</text>
<text text-anchor="middle" x="493.88" y="-537.75" font-family="Helvetica,sans-Serif" font-size="10.00">/Utility.hpp</text>
</a>
</g>
</g>
<!-- Node2 -->
<g id="node2" class="node">
<title>Node2</title>
<g id="a_node2"><a xlink:href="../../dd/dcd/operators_8hpp.html" target="_top" xlink:title=" ">
<polygon fill="white" stroke="#666666" points="121.75,-425 0,-425 0,-391.5 121.75,-391.5 121.75,-425"/>
<text text-anchor="start" x="8" y="-411.5" font-family="Helvetica,sans-Serif" font-size="10.00">Simple&#45;Utility/concepts</text>
<text text-anchor="middle" x="60.88" y="-398.75" font-family="Helvetica,sans-Serif" font-size="10.00">/operators.hpp</text>
</a>
</g>
</g>
<!-- Node1&#45;&gt;Node2 -->
<g id="edge1" class="edge">
<title>Node1&#45;&gt;Node2</title>
<path fill="none" stroke="#63b8ff" d="M429.98,-542.31C341.07,-535.95 185.36,-521.31 135.88,-494.5 110.11,-480.54 88.97,-454.04 75.78,-434.28"/>
<polygon fill="#63b8ff" stroke="#63b8ff" points="78.3,-432.73 69.96,-426.2 72.41,-436.51 78.3,-432.73"/>
</g>
<!-- Node4 -->
<g id="node4" class="node">
<title>Node4</title>
<g id="a_node4"><a xlink:href="../../dd/d5c/stl__extensions_8hpp.html" target="_top" xlink:title=" ">
<polygon fill="white" stroke="#666666" points="337.75,-147 216,-147 216,-113.5 337.75,-113.5 337.75,-147"/>
<text text-anchor="start" x="224" y="-133.5" font-family="Helvetica,sans-Serif" font-size="10.00">Simple&#45;Utility/concepts</text>
<text text-anchor="middle" x="276.88" y="-120.75" font-family="Helvetica,sans-Serif" font-size="10.00">/stl_extensions.hpp</text>
</a>
</g>
</g>
<!-- Node1&#45;&gt;Node4 -->
<g id="edge3" class="edge">
<title>Node1&#45;&gt;Node4</title>
<path fill="none" stroke="#63b8ff" d="M429.98,-534.37C330.5,-514.02 149.88,-468.87 149.88,-409.25 149.88,-409.25 149.88,-409.25 149.88,-268.25 149.88,-216.53 199.17,-176.08 236.33,-152.93"/>
<polygon fill="#63b8ff" stroke="#63b8ff" points="237.72,-155.58 244.48,-147.42 234.11,-149.58 237.72,-155.58"/>
</g>
<!-- Node6 -->
<g id="node6" class="node">
<title>Node6</title>
<g id="a_node6"><a xlink:href="../../d9/d8c/_transform_8hpp.html" target="_top" xlink:title=" ">
<polygon fill="white" stroke="#666666" points="557.38,-494.5 430.38,-494.5 430.38,-461 557.38,-461 557.38,-494.5"/>
<text text-anchor="start" x="438.38" y="-481" font-family="Helvetica,sans-Serif" font-size="10.00">Simple&#45;Utility/functional</text>
<text text-anchor="middle" x="493.88" y="-468.25" font-family="Helvetica,sans-Serif" font-size="10.00">/Transform.hpp</text>
</a>
</g>
</g>
<!-- Node1&#45;&gt;Node6 -->
<g id="edge6" class="edge">
<title>Node1&#45;&gt;Node6</title>
<path fill="none" stroke="#63b8ff" d="M493.88,-530.25C493.88,-522.86 493.88,-513.87 493.88,-505.48"/>
<polygon fill="#63b8ff" stroke="#63b8ff" points="497.38,-505.63 493.88,-495.63 490.38,-505.63 497.38,-505.63"/>
</g>
<!-- Node10 -->
<g id="node10" class="node">
<title>Node10</title>
<g id="a_node10"><a xlink:title=" ">
<polygon fill="#e0e0e0" stroke="#999999" points="944.25,-20.75 903.5,-20.75 903.5,0 944.25,0 944.25,-20.75"/>
<text text-anchor="middle" x="923.88" y="-7.25" font-family="Helvetica,sans-Serif" font-size="10.00">utility</text>
</a>
</g>
</g>
<!-- Node1&#45;&gt;Node10 -->
<g id="edge57" class="edge">
<title>Node1&#45;&gt;Node10</title>
<path fill="none" stroke="#63b8ff" d="M557.87,-541.6C742.64,-527.33 1263.88,-480.75 1263.88,-409.25 1263.88,-409.25 1263.88,-409.25 1263.88,-337.75 1263.88,-193.37 1215.98,-143.9 1100.88,-56.75 1057.78,-24.12 993.65,-14.83 955.57,-12.26"/>
<polygon fill="#63b8ff" stroke="#63b8ff" points="955.82,-8.71 945.64,-11.66 955.43,-15.7 955.82,-8.71"/>
</g>
<!-- Node23 -->
<g id="node23" class="node">
<title>Node23</title>
<g id="a_node23"><a xlink:title=" ">
<polygon fill="#e0e0e0" stroke="#999999" points="1345.62,-488.12 1292.12,-488.12 1292.12,-467.38 1345.62,-467.38 1345.62,-488.12"/>
<text text-anchor="middle" x="1318.88" y="-474.62" font-family="Helvetica,sans-Serif" font-size="10.00">memory</text>
</a>
</g>
</g>
<!-- Node1&#45;&gt;Node23 -->
<g id="edge56" class="edge">
<title>Node1&#45;&gt;Node23</title>
<path fill="none" stroke="#63b8ff" d="M557.68,-544.51C719.18,-539.7 1141.07,-524.57 1277.88,-494.5 1280.88,-493.84 1283.95,-493 1287,-492.05"/>
<polygon fill="#63b8ff" stroke="#63b8ff" points="1287.84,-495.11 1296.12,-488.5 1285.53,-488.5 1287.84,-495.11"/>
</g>
<!-- Node3 -->
<g id="node3" class="node">
<title>Node3</title>
<g id="a_node3"><a xlink:title=" ">
<polygon fill="#e0e0e0" stroke="#999999" points="338.12,-20.75 281.62,-20.75 281.62,0 338.12,0 338.12,-20.75"/>
<text text-anchor="middle" x="309.88" y="-7.25" font-family="Helvetica,sans-Serif" font-size="10.00">concepts</text>
</a>
</g>
</g>
<!-- Node2&#45;&gt;Node3 -->
<g id="edge2" class="edge">
<title>Node2&#45;&gt;Node3</title>
<path fill="none" stroke="#63b8ff" d="M62.03,-391.23C63.78,-365.67 66.88,-314.06 66.88,-270.25 66.88,-270.25 66.88,-270.25 66.88,-129.25 66.88,-94.21 70.82,-79.02 97.88,-56.75 123.78,-35.42 216.46,-21.79 270.31,-15.48"/>
<polygon fill="#63b8ff" stroke="#63b8ff" points="270.64,-18.85 280.18,-14.25 269.85,-11.9 270.64,-18.85"/>
</g>
<!-- Node4&#45;&gt;Node3 -->
<g id="edge5" class="edge">
<title>Node4&#45;&gt;Node3</title>
<path fill="none" stroke="#63b8ff" d="M272.5,-113.19C269.21,-98.15 266.28,-75.28 272.88,-56.75 276.58,-46.34 283.81,-36.59 290.9,-28.82"/>
<polygon fill="#63b8ff" stroke="#63b8ff" points="292.86,-31.81 297.37,-22.22 287.86,-26.9 292.86,-31.81"/>
</g>
<!-- Node5 -->
<g id="node5" class="node">
<title>Node5</title>
<g id="a_node5"><a xlink:title=" ">
<polygon fill="#e0e0e0" stroke="#999999" points="337.75,-77.5 282,-77.5 282,-56.75 337.75,-56.75 337.75,-77.5"/>
<text text-anchor="middle" x="309.88" y="-64" font-family="Helvetica,sans-Serif" font-size="10.00">compare</text>
</a>
</g>
</g>
<!-- Node4&#45;&gt;Node5 -->
<g id="edge4" class="edge">
<title>Node4&#45;&gt;Node5</title>
<path fill="none" stroke="#63b8ff" d="M285.55,-113.19C289.79,-105.33 294.93,-95.81 299.39,-87.54"/>
<polygon fill="#63b8ff" stroke="#63b8ff" points="302.89,-89.43 304.56,-78.97 296.73,-86.1 302.89,-89.43"/>
</g>
<!-- Node7 -->
<g id="node7" class="node">
<title>Node7</title>
<g id="a_node7"><a xlink:href="../../d8/d05/_basic_closure_8hpp.html" target="_top" xlink:title=" ">
<polygon fill="white" stroke="#666666" points="703.38,-216.5 576.38,-216.5 576.38,-183 703.38,-183 703.38,-216.5"/>
<text text-anchor="start" x="584.38" y="-203" font-family="Helvetica,sans-Serif" font-size="10.00">Simple&#45;Utility/functional</text>
<text text-anchor="middle" x="639.88" y="-190.25" font-family="Helvetica,sans-Serif" font-size="10.00">/BasicClosure.hpp</text>
</a>
</g>
</g>
<!-- Node6&#45;&gt;Node7 -->
<g id="edge7" class="edge">
<title>Node6&#45;&gt;Node7</title>
<path fill="none" stroke="#63b8ff" d="M490.06,-460.7C481.62,-420.99 465.65,-316.71 512.88,-252.5 525.73,-235.03 545.52,-223.44 565.68,-215.75"/>
<polygon fill="#63b8ff" stroke="#63b8ff" points="566.61,-218.79 574.9,-212.18 564.3,-212.18 566.61,-218.79"/>
</g>
<!-- Node11 -->
<g id="node11" class="node">
<title>Node11</title>
<g id="a_node11"><a xlink:href="../../d7/df7/_invoke_policies_8hpp.html" target="_top" xlink:title=" ">
<polygon fill="white" stroke="#666666" points="465.88,-286 329.88,-286 329.88,-252.5 465.88,-252.5 465.88,-286"/>
<text text-anchor="start" x="337.88" y="-272.5" font-family="Helvetica,sans-Serif" font-size="10.00">Simple&#45;Utility/functional</text>
<text text-anchor="middle" x="397.88" y="-259.75" font-family="Helvetica,sans-Serif" font-size="10.00">/mixins/InvokePolicies.hpp</text>
</a>
</g>
</g>
<!-- Node6&#45;&gt;Node11 -->
<g id="edge13" class="edge">
<title>Node6&#45;&gt;Node11</title>
<path fill="none" stroke="#63b8ff" d="M486.34,-460.55C469.76,-424.88 430,-339.35 409.92,-296.15"/>
<polygon fill="#63b8ff" stroke="#63b8ff" points="412.76,-294.97 405.37,-287.38 406.41,-297.92 412.76,-294.97"/>
</g>
<!-- Node17 -->
<g id="node17" class="node">
<title>Node17</title>
<g id="a_node17"><a xlink:href="../../d2/df5/_pipe_8hpp.html" target="_top" xlink:title=" ">
<polygon fill="white" stroke="#666666" points="910.38,-425 783.38,-425 783.38,-391.5 910.38,-391.5 910.38,-425"/>
<text text-anchor="start" x="791.38" y="-411.5" font-family="Helvetica,sans-Serif" font-size="10.00">Simple&#45;Utility/functional</text>
<text text-anchor="middle" x="846.88" y="-398.75" font-family="Helvetica,sans-Serif" font-size="10.00">/mixins/Pipe.hpp</text>
</a>
</g>
</g>
<!-- Node6&#45;&gt;Node17 -->
<g id="edge33" class="edge">
<title>Node6&#45;&gt;Node17</title>
<path fill="none" stroke="#63b8ff" d="M557.8,-464.53C618.18,-452.98 708.74,-435.66 772.37,-423.5"/>
<polygon fill="#63b8ff" stroke="#63b8ff" points="772.96,-426.76 782.13,-421.44 771.65,-419.88 772.96,-426.76"/>
</g>
<!-- Node7&#45;&gt;Node3 -->
<g id="edge8" class="edge">
<title>Node7&#45;&gt;Node3</title>
<path fill="none" stroke="#63b8ff" d="M611.45,-182.61C548.37,-146.79 397.39,-61.06 336.25,-26.35"/>
<polygon fill="#63b8ff" stroke="#63b8ff" points="338.33,-22.94 327.91,-21.04 334.87,-29.03 338.33,-22.94"/>
</g>
<!-- Node7&#45;&gt;Node4 -->
<g id="edge12" class="edge">
<title>Node7&#45;&gt;Node4</title>
<path fill="none" stroke="#63b8ff" d="M576.23,-186.92C512.67,-175.1 415.13,-156.96 348.8,-144.62"/>
<polygon fill="#63b8ff" stroke="#63b8ff" points="349.5,-141.01 339.02,-142.62 348.22,-147.89 349.5,-141.01"/>
</g>
<!-- Node8 -->
<g id="node8" class="node">
<title>Node8</title>
<g id="a_node8"><a xlink:title=" ">
<polygon fill="#e0e0e0" stroke="#999999" points="823.75,-140.62 762,-140.62 762,-119.88 823.75,-119.88 823.75,-140.62"/>
<text text-anchor="middle" x="792.88" y="-127.12" font-family="Helvetica,sans-Serif" font-size="10.00">functional</text>
</a>
</g>
</g>
<!-- Node7&#45;&gt;Node8 -->
<g id="edge9" class="edge">
<title>Node7&#45;&gt;Node8</title>
<path fill="none" stroke="#63b8ff" d="M676.52,-182.58C702.2,-171.25 736.2,-156.25 760.81,-145.4"/>
<polygon fill="#63b8ff" stroke="#63b8ff" points="761.99,-148.26 769.73,-141.02 759.17,-141.86 761.99,-148.26"/>
</g>
<!-- Node9 -->
<g id="node9" class="node">
<title>Node9</title>
<g id="a_node9"><a xlink:title=" ">
<polygon fill="#e0e0e0" stroke="#999999" points="784.88,-20.75 720.88,-20.75 720.88,0 784.88,0 784.88,-20.75"/>
<text text-anchor="middle" x="752.88" y="-7.25" font-family="Helvetica,sans-Serif" font-size="10.00">type_traits</text>
</a>
</g>
</g>
<!-- Node7&#45;&gt;Node9 -->
<g id="edge10" class="edge">
<title>Node7&#45;&gt;Node9</title>
<path fill="none" stroke="#63b8ff" d="M641,-182.64C643.69,-154.47 652.67,-95.58 681.88,-56.75 691.64,-43.77 706.29,-33.51 719.76,-26.06"/>
<polygon fill="#63b8ff" stroke="#63b8ff" points="721,-28.84 728.26,-21.13 717.77,-22.62 721,-28.84"/>
</g>
<!-- Node7&#45;&gt;Node10 -->
<g id="edge11" class="edge">
<title>Node7&#45;&gt;Node10</title>
<path fill="none" stroke="#63b8ff" d="M652.04,-182.68C666.63,-164.23 692.54,-133.88 719.88,-113.5 775.81,-71.8 851.37,-39.13 893.05,-22.81"/>
<polygon fill="#63b8ff" stroke="#63b8ff" points="894.06,-25.79 902.13,-18.92 891.54,-19.25 894.06,-25.79"/>
</g>
<!-- Node11&#45;&gt;Node3 -->
<g id="edge14" class="edge">
<title>Node11&#45;&gt;Node3</title>
<path fill="none" stroke="#63b8ff" d="M347.6,-252.12C301.69,-234.4 236.58,-201.04 206.88,-147 180.88,-99.71 244.32,-50.9 282.87,-26.79"/>
<polygon fill="#63b8ff" stroke="#63b8ff" points="284.34,-29.39 291.07,-21.21 280.7,-23.4 284.34,-29.39"/>
</g>
<!-- Node11&#45;&gt;Node4 -->
<g id="edge20" class="edge">
<title>Node11&#45;&gt;Node4</title>
<path fill="none" stroke="#63b8ff" d="M383.76,-252.27C362.63,-228.34 322.63,-183.06 298.01,-155.18"/>
<polygon fill="#63b8ff" stroke="#63b8ff" points="301.15,-153.31 291.9,-148.13 295.9,-157.94 301.15,-153.31"/>
</g>
<!-- Node11&#45;&gt;Node7 -->
<g id="edge21" class="edge">
<title>Node11&#45;&gt;Node7</title>
<path fill="none" stroke="#63b8ff" d="M455.84,-252.08C490.58,-242.39 534.95,-230.02 571.41,-219.85"/>
<polygon fill="#63b8ff" stroke="#63b8ff" points="572.27,-222.96 580.96,-216.9 570.39,-216.22 572.27,-222.96"/>
</g>
<!-- Node11&#45;&gt;Node8 -->
<g id="edge15" class="edge">
<title>Node11&#45;&gt;Node8</title>
<path fill="none" stroke="#63b8ff" d="M466.04,-258.96C566.24,-245.19 742.15,-220.55 747.88,-216.5 769.8,-200.98 781.92,-171.41 787.91,-151.51"/>
<polygon fill="#63b8ff" stroke="#63b8ff" points="791.5,-152.66 790.76,-142.09 784.75,-150.81 791.5,-152.66"/>
</g>
<!-- Node11&#45;&gt;Node9 -->
<g id="edge16" class="edge">
<title>Node11&#45;&gt;Node9</title>
<path fill="none" stroke="#63b8ff" d="M452.89,-252.09C476.34,-243.66 503.23,-231.87 524.88,-216.5 602.1,-161.68 591.31,-115.13 665.88,-56.75 681.87,-44.23 701.84,-33.53 718.61,-25.67"/>
<polygon fill="#63b8ff" stroke="#63b8ff" points="719.92,-28.46 727.58,-21.15 717.03,-22.09 719.92,-28.46"/>
</g>
<!-- Node11&#45;&gt;Node10 -->
<g id="edge17" class="edge">
<title>Node11&#45;&gt;Node10</title>
<path fill="none" stroke="#63b8ff" d="M466.03,-258.75C555.48,-246.03 702.34,-224.17 711.88,-216.5 750.26,-185.61 720.92,-151.01 752.88,-113.5 758.23,-107.22 850.77,-53.47 897.43,-26.57"/>
<polygon fill="#63b8ff" stroke="#63b8ff" points="898.98,-29.14 905.9,-21.12 895.49,-23.07 898.98,-29.14"/>
</g>
<!-- Node12 -->
<g id="node12" class="node">
<title>Node12</title>
<g id="a_node12"><a xlink:href="../../d6/dcb/_c_r_t_p_base_8hpp.html" target="_top" xlink:title=" ">
<polygon fill="white" stroke="#666666" points="515.5,-210.12 368.25,-210.12 368.25,-189.38 515.5,-189.38 515.5,-210.12"/>
<text text-anchor="middle" x="441.88" y="-196.62" font-family="Helvetica,sans-Serif" font-size="10.00">Simple&#45;Utility/CRTPBase.hpp</text>
</a>
</g>
</g>
<!-- Node11&#45;&gt;Node12 -->
<g id="edge18" class="edge">
<title>Node11&#45;&gt;Node12</title>
<path fill="none" stroke="#63b8ff" d="M408.3,-252.25C414.7,-242.44 422.91,-229.84 429.62,-219.55"/>
<polygon fill="#63b8ff" stroke="#63b8ff" points="432.94,-221.86 435.47,-211.57 427.08,-218.04 432.94,-221.86"/>
</g>
<!-- Node13 -->
<g id="node13" class="node">
<title>Node13</title>
<g id="a_node13"><a xlink:href="../../dd/d5a/_general_8hpp.html" target="_top" xlink:title=" ">
<polygon fill="white" stroke="#666666" points="1022.12,-147 917.62,-147 917.62,-113.5 1022.12,-113.5 1022.12,-147"/>
<text text-anchor="start" x="925.62" y="-133.5" font-family="Helvetica,sans-Serif" font-size="10.00">Simple&#45;Utility/tuple</text>
<text text-anchor="middle" x="969.88" y="-120.75" font-family="Helvetica,sans-Serif" font-size="10.00">/General.hpp</text>
</a>
</g>
</g>
<!-- Node11&#45;&gt;Node13 -->
<g id="edge22" class="edge">
<title>Node11&#45;&gt;Node13</title>
<path fill="none" stroke="#63b8ff" d="M466.29,-258.88C481.62,-256.78 497.8,-254.56 512.88,-252.5 629.76,-236.5 662.33,-248.54 775.88,-216.5 831.62,-200.77 892.17,-172.15 930.53,-152.44"/>
<polygon fill="#63b8ff" stroke="#63b8ff" points="932,-155.1 939.27,-147.38 928.78,-148.88 932,-155.1"/>
</g>
<!-- Node12&#45;&gt;Node4 -->
<g id="edge19" class="edge">
<title>Node12&#45;&gt;Node4</title>
<path fill="none" stroke="#63b8ff" d="M417.88,-188.93C394.03,-179.18 356.74,-163.92 326.5,-151.55"/>
<polygon fill="#63b8ff" stroke="#63b8ff" points="328.12,-148.02 317.54,-147.48 325.47,-154.5 328.12,-148.02"/>
</g>
<!-- Node13&#45;&gt;Node3 -->
<g id="edge23" class="edge">
<title>Node13&#45;&gt;Node3</title>
<path fill="none" stroke="#63b8ff" d="M917.26,-119.85C788.84,-96.92 461.67,-38.49 348.83,-18.33"/>
<polygon fill="#63b8ff" stroke="#63b8ff" points="349.75,-14.76 339.29,-16.45 348.52,-21.65 349.75,-14.76"/>
</g>
<!-- Node13&#45;&gt;Node9 -->
<g id="edge25" class="edge">
<title>Node13&#45;&gt;Node9</title>
<path fill="none" stroke="#63b8ff" d="M940.16,-113.11C898,-90.21 821.4,-48.6 780.45,-26.35"/>
<polygon fill="#63b8ff" stroke="#63b8ff" points="782.3,-22.83 771.85,-21.14 778.96,-28.99 782.3,-22.83"/>
</g>
<!-- Node13&#45;&gt;Node10 -->
<g id="edge26" class="edge">
<title>Node13&#45;&gt;Node10</title>
<path fill="none" stroke="#63b8ff" d="M960.95,-113.26C955.55,-103.2 948.79,-89.83 943.88,-77.5 937.82,-62.34 932.55,-44.6 928.94,-31.32"/>
<polygon fill="#63b8ff" stroke="#63b8ff" points="932.15,-30.75 926.22,-21.97 925.38,-32.53 932.15,-30.75"/>
</g>
<!-- Node14 -->
<g id="node14" class="node">
<title>Node14</title>
<g id="a_node14"><a xlink:title=" ">
<polygon fill="#e0e0e0" stroke="#999999" points="1234.5,-20.75 1195.25,-20.75 1195.25,0 1234.5,0 1234.5,-20.75"/>
<text text-anchor="middle" x="1214.88" y="-7.25" font-family="Helvetica,sans-Serif" font-size="10.00">tuple</text>
</a>
</g>
</g>
<!-- Node13&#45;&gt;Node14 -->
<g id="edge24" class="edge">
<title>Node13&#45;&gt;Node14</title>
<path fill="none" stroke="#63b8ff" d="M1015.76,-113.04C1041.23,-103.57 1073.25,-90.87 1100.88,-77.5 1132.81,-62.04 1167.88,-41.05 1190.57,-26.9"/>
<polygon fill="#63b8ff" stroke="#63b8ff" points="1192.18,-29.39 1198.78,-21.11 1188.45,-23.47 1192.18,-29.39"/>
</g>
<!-- Node15 -->
<g id="node15" class="node">
<title>Node15</title>
<g id="a_node15"><a xlink:href="../../df/d2e/_type_list_8hpp.html" target="_top" xlink:title=" ">
<polygon fill="white" stroke="#666666" points="1091.38,-77.5 952.38,-77.5 952.38,-56.75 1091.38,-56.75 1091.38,-77.5"/>
<text text-anchor="middle" x="1021.88" y="-64" font-family="Helvetica,sans-Serif" font-size="10.00">Simple&#45;Utility/TypeList.hpp</text>
</a>
</g>
</g>
<!-- Node13&#45;&gt;Node15 -->
<g id="edge27" class="edge">
<title>Node13&#45;&gt;Node15</title>
<path fill="none" stroke="#63b8ff" d="M983.54,-113.19C990.59,-104.89 999.23,-94.74 1006.52,-86.18"/>
<polygon fill="#63b8ff" stroke="#63b8ff" points="1009.69,-88.85 1013.5,-78.97 1004.36,-84.32 1009.69,-88.85"/>
</g>
<!-- Node15&#45;&gt;Node3 -->
<g id="edge29" class="edge">
<title>Node15&#45;&gt;Node3</title>
<path fill="none" stroke="#63b8ff" d="M951.98,-60.75C804.31,-49.4 464.66,-23.28 349.15,-14.4"/>
<polygon fill="#63b8ff" stroke="#63b8ff" points="349.62,-10.84 339.38,-13.57 349.08,-17.82 349.62,-10.84"/>
</g>
<!-- Node15&#45;&gt;Node9 -->
<g id="edge31" class="edge">
<title>Node15&#45;&gt;Node9</title>
<path fill="none" stroke="#63b8ff" d="M973.47,-56.27C922.95,-45.99 844.48,-30.02 796.01,-20.15"/>
<polygon fill="#63b8ff" stroke="#63b8ff" points="796.76,-16.53 786.26,-17.97 795.36,-23.39 796.76,-16.53"/>
</g>
<!-- Node15&#45;&gt;Node10 -->
<g id="edge32" class="edge">
<title>Node15&#45;&gt;Node10</title>
<path fill="none" stroke="#63b8ff" d="M1004.35,-56.34C989.44,-48.01 967.79,-35.91 950.69,-26.36"/>
<polygon fill="#63b8ff" stroke="#63b8ff" points="952.68,-22.9 942.24,-21.08 949.27,-29.01 952.68,-22.9"/>
</g>
<!-- Node15&#45;&gt;Node14 -->
<g id="edge30" class="edge">
<title>Node15&#45;&gt;Node14</title>
<path fill="none" stroke="#63b8ff" d="M1056.38,-56.34C1092.77,-46.01 1149.57,-29.9 1184.38,-20.03"/>
<polygon fill="#63b8ff" stroke="#63b8ff" points="1185.19,-23.15 1193.85,-17.06 1183.28,-16.42 1185.19,-23.15"/>
</g>
<!-- Node16 -->
<g id="node16" class="node">
<title>Node16</title>
<g id="a_node16"><a xlink:title=" ">
<polygon fill="#e0e0e0" stroke="#999999" points="1105.38,-20.75 1044.38,-20.75 1044.38,0 1105.38,0 1105.38,-20.75"/>
<text text-anchor="middle" x="1074.88" y="-7.25" font-family="Helvetica,sans-Serif" font-size="10.00">algorithm</text>
</a>
</g>
</g>
<!-- Node15&#45;&gt;Node16 -->
<g id="edge28" class="edge">
<title>Node15&#45;&gt;Node16</title>
<path fill="none" stroke="#63b8ff" d="M1031.35,-56.34C1038.74,-48.71 1049.18,-37.92 1057.99,-28.82"/>
<polygon fill="#63b8ff" stroke="#63b8ff" points="1060.04,-31.7 1064.48,-22.08 1055.01,-26.83 1060.04,-31.7"/>
</g>
<!-- Node17&#45;&gt;Node3 -->
<g id="edge34" class="edge">
<title>Node17&#45;&gt;Node3</title>
<path fill="none" stroke="#63b8ff" d="M783.2,-405.16C662.58,-400.51 405.47,-387.12 322.88,-355.5 214.27,-313.92 111.88,-317.05 111.88,-200.75 111.88,-200.75 111.88,-200.75 111.88,-129.25 111.88,-55.96 213.27,-27.2 270.94,-16.77"/>
<polygon fill="#63b8ff" stroke="#63b8ff" points="271.23,-20.1 280.51,-14.98 270.06,-13.2 271.23,-20.1"/>
</g>
<!-- Node17&#45;&gt;Node4 -->
<g id="edge44" class="edge">
<title>Node17&#45;&gt;Node4</title>
<path fill="none" stroke="#63b8ff" d="M782.9,-403.26C646.46,-393.35 333.82,-362.6 265.88,-286 234.59,-250.73 251.23,-191.33 264.89,-157.3"/>
<polygon fill="#63b8ff" stroke="#63b8ff" points="268.48,-158.78 269.15,-148.21 262.04,-156.06 268.48,-158.78"/>
</g>
<!-- Node17&#45;&gt;Node14 -->
<g id="edge35" class="edge">
<title>Node17&#45;&gt;Node14</title>
<path fill="none" stroke="#63b8ff" d="M910.82,-399.27C951.72,-392.16 1004.79,-379.07 1046.88,-355.5 1085.68,-333.77 1089.46,-319.36 1118.88,-286 1186.85,-208.92 1205.89,-179.45 1218.88,-77.5 1220.83,-62.13 1219.62,-44.62 1218.03,-31.48"/>
<polygon fill="#63b8ff" stroke="#63b8ff" points="1221.4,-31.25 1216.55,-21.83 1214.46,-32.22 1221.4,-31.25"/>
</g>
<!-- Node17&#45;&gt;Node15 -->
<g id="edge43" class="edge">
<title>Node17&#45;&gt;Node15</title>
<path fill="none" stroke="#63b8ff" d="M910.64,-393.54C967.44,-377.77 1047.87,-345.94 1089.88,-286 1134.09,-222.91 1116.02,-177.32 1072.88,-113.5 1065.35,-102.38 1054.5,-92.21 1044.73,-84.33"/>
<polygon fill="#63b8ff" stroke="#63b8ff" points="1047.26,-81.09 1037.2,-77.78 1043,-86.65 1047.26,-81.09"/>
</g>
<!-- Node18 -->
<g id="node18" class="node">
<title>Node18</title>
<g id="a_node18"><a xlink:href="../../d5/d7b/_tuple_8hpp.html" target="_top" xlink:title=" ">
<polygon fill="white" stroke="#666666" points="1059.38,-279.62 932.38,-279.62 932.38,-258.88 1059.38,-258.88 1059.38,-279.62"/>
<text text-anchor="middle" x="995.88" y="-266.12" font-family="Helvetica,sans-Serif" font-size="10.00">Simple&#45;Utility/Tuple.hpp</text>
</a>
</g>
</g>
<!-- Node17&#45;&gt;Node18 -->
<g id="edge36" class="edge">
<title>Node17&#45;&gt;Node18</title>
<path fill="none" stroke="#63b8ff" d="M872.6,-391.09C887.09,-381.49 905.17,-368.65 919.88,-355.5 943.41,-334.45 967.07,-306.6 981.6,-288.56"/>
<polygon fill="#63b8ff" stroke="#63b8ff" points="984.83,-291.11 988.31,-281.1 979.35,-286.76 984.83,-291.11"/>
</g>
<!-- Node20 -->
<g id="node20" class="node">
<title>Node20</title>
<g id="a_node20"><a xlink:href="../../d3/d48/_composition_8hpp.html" target="_top" xlink:title=" ">
<polygon fill="white" stroke="#666666" points="910.38,-355.5 783.38,-355.5 783.38,-322 910.38,-322 910.38,-355.5"/>
<text text-anchor="start" x="791.38" y="-342" font-family="Helvetica,sans-Serif" font-size="10.00">Simple&#45;Utility/functional</text>
<text text-anchor="middle" x="846.88" y="-329.25" font-family="Helvetica,sans-Serif" font-size="10.00">/Composition.hpp</text>
</a>
</g>
</g>
<!-- Node17&#45;&gt;Node20 -->
<g id="edge45" class="edge">
<title>Node17&#45;&gt;Node20</title>
<path fill="none" stroke="#63b8ff" d="M846.88,-391.25C846.88,-383.86 846.88,-374.87 846.88,-366.48"/>
<polygon fill="#63b8ff" stroke="#63b8ff" points="850.38,-366.63 846.88,-356.63 843.38,-366.63 850.38,-366.63"/>
</g>
<!-- Node18&#45;&gt;Node13 -->
<g id="edge42" class="edge">
<title>Node18&#45;&gt;Node13</title>
<path fill="none" stroke="#63b8ff" d="M1005.33,-258.41C1019.5,-242.42 1043.31,-209.86 1030.88,-183 1025.59,-171.6 1016.43,-161.79 1006.78,-153.87"/>
<polygon fill="#63b8ff" stroke="#63b8ff" points="1009.34,-150.67 999.26,-147.41 1005.11,-156.24 1009.34,-150.67"/>
</g>
<!-- Node19 -->
<g id="node19" class="node">
<title>Node19</title>
<g id="a_node19"><a xlink:href="../../dc/d83/_algorithm_8hpp.html" target="_top" xlink:title=" ">
<polygon fill="white" stroke="#666666" points="1022.12,-216.5 917.62,-216.5 917.62,-183 1022.12,-183 1022.12,-216.5"/>
<text text-anchor="start" x="925.62" y="-203" font-family="Helvetica,sans-Serif" font-size="10.00">Simple&#45;Utility/tuple</text>
<text text-anchor="middle" x="969.88" y="-190.25" font-family="Helvetica,sans-Serif" font-size="10.00">/Algorithm.hpp</text>
</a>
</g>
</g>
<!-- Node18&#45;&gt;Node19 -->
<g id="edge37" class="edge">
<title>Node18&#45;&gt;Node19</title>
<path fill="none" stroke="#63b8ff" d="M992.15,-258.58C988.98,-250.35 984.27,-238.13 980,-227.04"/>
<polygon fill="#63b8ff" stroke="#63b8ff" points="982.96,-225.99 976.1,-217.92 976.43,-228.51 982.96,-225.99"/>
</g>
<!-- Node19&#45;&gt;Node8 -->
<g id="edge39" class="edge">
<title>Node19&#45;&gt;Node8</title>
<path fill="none" stroke="#63b8ff" d="M927.48,-182.58C897.33,-171.08 857.27,-155.81 828.72,-144.92"/>
<polygon fill="#63b8ff" stroke="#63b8ff" points="830.35,-141.41 819.76,-141.12 827.85,-147.95 830.35,-141.41"/>
</g>
<!-- Node19&#45;&gt;Node9 -->
<g id="edge40" class="edge">
<title>Node19&#45;&gt;Node9</title>
<path fill="none" stroke="#63b8ff" d="M950.87,-182.72C938.8,-172.53 922.89,-159.03 908.88,-147 859.28,-104.41 801.28,-53.76 771.95,-28.09"/>
<polygon fill="#63b8ff" stroke="#63b8ff" points="774.63,-24.91 764.81,-20.96 770.02,-30.18 774.63,-24.91"/>
</g>
<!-- Node19&#45;&gt;Node13 -->
<g id="edge41" class="edge">
<title>Node19&#45;&gt;Node13</title>
<path fill="none" stroke="#63b8ff" d="M969.88,-182.75C969.88,-175.36 969.88,-166.37 969.88,-157.98"/>
<polygon fill="#63b8ff" stroke="#63b8ff" points="973.38,-158.13 969.88,-148.13 966.38,-158.13 973.38,-158.13"/>
</g>
<!-- Node19&#45;&gt;Node16 -->
<g id="edge38" class="edge">
<title>Node19&#45;&gt;Node16</title>
<path fill="none" stroke="#63b8ff" d="M998.58,-182.66C1030.7,-162.76 1080.87,-125.56 1100.88,-77.5 1107.59,-61.37 1098.92,-42.85 1089.83,-29.52"/>
<polygon fill="#63b8ff" stroke="#63b8ff" points="1092.14,-27.76 1083.35,-21.84 1086.53,-31.95 1092.14,-27.76"/>
</g>
<!-- Node20&#45;&gt;Node3 -->
<g id="edge46" class="edge">
<title>Node20&#45;&gt;Node3</title>
<path fill="none" stroke="#63b8ff" d="M783.06,-336.17C649.73,-332.22 351.4,-319.67 320.88,-286 310.88,-274.97 319.08,-267.28 320.88,-252.5 331.45,-165.38 376.31,-139.43 346.88,-56.75 343.17,-46.34 335.94,-36.59 328.85,-28.82"/>
<polygon fill="#63b8ff" stroke="#63b8ff" points="331.89,-26.9 322.38,-22.22 326.89,-31.81 331.89,-26.9"/>
</g>
<!-- Node20&#45;&gt;Node4 -->
<g id="edge53" class="edge">
<title>Node20&#45;&gt;Node4</title>
<path fill="none" stroke="#63b8ff" d="M782.96,-336.4C643.57,-332.81 321.94,-320.8 287.88,-286 254.87,-252.28 261.89,-192.24 269.61,-157.69"/>
<polygon fill="#63b8ff" stroke="#63b8ff" points="273.24,-158.57 272.19,-148.03 266.43,-156.92 273.24,-158.57"/>
</g>
<!-- Node20&#45;&gt;Node7 -->
<g id="edge54" class="edge">
<title>Node20&#45;&gt;Node7</title>
<path fill="none" stroke="#63b8ff" d="M843.88,-321.53C839.49,-302.36 829.51,-270.75 808.88,-252.5 782.76,-229.39 746.52,-216.6 714.3,-209.52"/>
<polygon fill="#63b8ff" stroke="#63b8ff" points="715.04,-205.9 704.54,-207.33 713.64,-212.76 715.04,-205.9"/>
</g>
<!-- Node20&#45;&gt;Node8 -->
<g id="edge47" class="edge">
<title>Node20&#45;&gt;Node8</title>
<path fill="none" stroke="#63b8ff" d="M845.26,-321.56C843.34,-304.29 839.64,-276.21 833.88,-252.5 824.98,-215.95 809.92,-174.71 800.74,-150.97"/>
<polygon fill="#63b8ff" stroke="#63b8ff" points="803.67,-149.86 796.76,-141.82 797.15,-152.41 803.67,-149.86"/>
</g>
<!-- Node20&#45;&gt;Node9 -->
<g id="edge49" class="edge">
<title>Node20&#45;&gt;Node9</title>
<path fill="none" stroke="#63b8ff" d="M849.48,-321.66C854.9,-283.59 864.41,-185.71 832.88,-113.5 824.54,-94.41 815.83,-93.81 802.88,-77.5 790.2,-61.54 776.25,-43 766.31,-29.62"/>
<polygon fill="#63b8ff" stroke="#63b8ff" points="768.62,-27.86 759.86,-21.9 762.99,-32.02 768.62,-27.86"/>
</g>
<!-- Node20&#45;&gt;Node14 -->
<g id="edge48" class="edge">
<title>Node20&#45;&gt;Node14</title>
<path fill="none" stroke="#63b8ff" d="M910.67,-330.72C973.12,-322.7 1062.72,-307.81 1089.88,-286 1173.62,-218.73 1203.41,-83.02 1211.94,-31.68"/>
<polygon fill="#63b8ff" stroke="#63b8ff" points="1215.52,-32.45 1213.6,-22.03 1208.61,-31.38 1215.52,-32.45"/>
</g>
<!-- Node20&#45;&gt;Node15 -->
<g id="edge52" class="edge">
<title>Node20&#45;&gt;Node15</title>
<path fill="none" stroke="#63b8ff" d="M910.74,-331.6C969.18,-324.51 1049.41,-310.53 1068.88,-286 1116.78,-225.65 1061.72,-127.36 1034.9,-86.67"/>
<polygon fill="#63b8ff" stroke="#63b8ff" points="1037.27,-84.94 1028.76,-78.63 1031.48,-88.87 1037.27,-84.94"/>
</g>
<!-- Node20&#45;&gt;Node18 -->
<g id="edge51" class="edge">
<title>Node20&#45;&gt;Node18</title>
<path fill="none" stroke="#63b8ff" d="M882.56,-321.58C907.46,-310.3 940.39,-295.39 964.32,-284.54"/>
<polygon fill="#63b8ff" stroke="#63b8ff" points="965.64,-287.34 973.31,-280.02 962.75,-280.96 965.64,-287.34"/>
</g>
<!-- Node21 -->
<g id="node21" class="node">
<title>Node21</title>
<g id="a_node21"><a xlink:href="../../d8/dd2/_config_8hpp.html" target="_top" xlink:title=" ">
<polygon fill="white" stroke="#666666" points="654,-279.62 521.75,-279.62 521.75,-258.88 654,-258.88 654,-279.62"/>
<text text-anchor="middle" x="587.88" y="-266.12" font-family="Helvetica,sans-Serif" font-size="10.00">Simple&#45;Utility/Config.hpp</text>
</a>
</g>
</g>
<!-- Node20&#45;&gt;Node21 -->
<g id="edge50" class="edge">
<title>Node20&#45;&gt;Node21</title>
<path fill="none" stroke="#63b8ff" d="M784.84,-321.58C739.27,-309.71 678.24,-293.8 636.25,-282.86"/>
<polygon fill="#63b8ff" stroke="#63b8ff" points="637.3,-279.25 626.74,-280.12 635.54,-286.03 637.3,-279.25"/>
</g>
<!-- Node22 -->
<g id="node22" class="node">
<title>Node22</title>
<g id="a_node22"><a xlink:href="../../d6/d50/_overloaded_8hpp.html" target="_top" xlink:title=" ">
<polygon fill="white" stroke="#666666" points="799.38,-286 672.38,-286 672.38,-252.5 799.38,-252.5 799.38,-286"/>
<text text-anchor="start" x="680.38" y="-272.5" font-family="Helvetica,sans-Serif" font-size="10.00">Simple&#45;Utility/functional</text>
<text text-anchor="middle" x="735.88" y="-259.75" font-family="Helvetica,sans-Serif" font-size="10.00">/Overloaded.hpp</text>
</a>
</g>
</g>
<!-- Node20&#45;&gt;Node22 -->
<g id="edge55" class="edge">
<title>Node20&#45;&gt;Node22</title>
<path fill="none" stroke="#63b8ff" d="M820.29,-321.58C805.6,-312.65 787.16,-301.44 771.26,-291.77"/>
<polygon fill="#63b8ff" stroke="#63b8ff" points="773.61,-288.49 763.25,-286.29 769.97,-294.47 773.61,-288.49"/>
</g>
</g>
</svg>
