<?xml version="1.0" encoding="UTF-8" standalone="no"?>
<!DOCTYPE svg PUBLIC "-//W3C//DTD SVG 1.1//EN"
 "http://www.w3.org/Graphics/SVG/1.1/DTD/svg11.dtd">
<!-- Generated by graphviz version 8.0.5 (20230430.1635)
 -->
<!-- Title: Simple&#45;Utility/TypeList.hpp Pages: 1 -->
<!--zoomable 559 -->
<svg id="main" version="1.1" xmlns="http://www.w3.org/2000/svg" xmlns:xlink="http://www.w3.org/1999/xlink" xml:space="preserve" onload="init(evt)">
<style type="text/css"><![CDATA[
.edge:hover path { stroke: red; }
.edge:hover polygon { stroke: red; fill: red; }
]]></style>
<script type="text/javascript"><![CDATA[
var edges = document.getElementsByTagName('g');
if (edges && edges.length) {
  for (var i=0;i<edges.length;i++) {
    if (edges[i].id.substr(0,4)=='edge') {
      edges[i].setAttribute('class','edge');
    }
  }
}
]]></script>
        <defs>
                <circle id="rim" cx="0" cy="0" r="7"/>
                <circle id="rim2" cx="0" cy="0" r="3.5"/>
                <g id="zoomPlus">
                        <use xlink:href="#rim" fill="#404040">
                                <set attributeName="fill" to="#808080" begin="zoomplus.mouseover" end="zoomplus.mouseout"/>
                        </use>
                        <path d="M-4,0h8M0,-4v8" fill="none" stroke="white" stroke-width="1.5" pointer-events="none"/>
                </g>
                <g id="zoomMin">
                        <use xlink:href="#rim" fill="#404040">
                                <set attributeName="fill" to="#808080" begin="zoomminus.mouseover" end="zoomminus.mouseout"/>
                        </use>
                        <path d="M-4,0h8" fill="none" stroke="white" stroke-width="1.5" pointer-events="none"/>
                </g>
                <g id="dirArrow">
                        <path fill="none" stroke="white" stroke-width="1.5" d="M0,-3.0v7 M-2.5,-0.5L0,-3.0L2.5,-0.5"/>
                </g>
               <g id="resetDef">
                       <use xlink:href="#rim2" fill="#404040">
                               <set attributeName="fill" to="#808080" begin="reset.mouseover" end="reset.mouseout"/>
                       </use>
               </g>
        </defs>

<script type="text/javascript">
var viewWidth = 987;
var viewHeight = 559;
var sectionId = 'dynsection-1';
</script>
<script xlink:href="../../svgpan.js"/>
<svg id="graph" class="graph">
<g id="viewport">
<title>Simple&#45;Utility/TypeList.hpp</title>
<!-- Node1 -->
<g id="node1" class="node">
<title>Node1</title>
<g id="a_node1"><a xlink:title=" ">
<polygon fill="#999999" stroke="#666666" points="657.74,-551.25 518.74,-551.25 518.74,-530.5 657.74,-530.5 657.74,-551.25"/>
<text text-anchor="middle" x="588.24" y="-537.75" font-family="Helvetica,sans-Serif" font-size="10.00">Simple&#45;Utility/TypeList.hpp</text>
</a>
</g>
</g>
<!-- Node2 -->
<g id="node2" class="node">
<title>Node2</title>
<g id="a_node2"><a xlink:href="../../d3/d48/_composition_8hpp.html" target="_top" xlink:title=" ">
<polygon fill="white" stroke="#666666" points="447.74,-298.75 320.74,-298.75 320.74,-265.25 447.74,-265.25 447.74,-298.75"/>
<text text-anchor="start" x="328.74" y="-285.25" font-family="Helvetica,sans-Serif" font-size="10.00">Simple&#45;Utility/functional</text>
<text text-anchor="middle" x="384.24" y="-272.5" font-family="Helvetica,sans-Serif" font-size="10.00">/Composition.hpp</text>
</a>
</g>
</g>
<!-- Node1&#45;&gt;Node2 -->
<g id="edge1" class="edge">
<title>Node1&#45;&gt;Node2</title>
<path fill="none" stroke="#63b8ff" d="M561.03,-524.72C528.53,-505.39 474.39,-469.11 441.24,-425 411.07,-384.87 394.38,-326.59 387.71,-298.84"/>
<polygon fill="#63b8ff" stroke="#63b8ff" points="558.97,-528.16 569.37,-530.17 562.5,-522.11 558.97,-528.16"/>
</g>
<!-- Node9 -->
<g id="node9" class="node">
<title>Node9</title>
<g id="a_node9"><a xlink:href="../../d2/df5/_pipe_8hpp.html" target="_top" xlink:title=" ">
<polygon fill="white" stroke="#666666" points="592.74,-229.25 465.74,-229.25 465.74,-195.75 592.74,-195.75 592.74,-229.25"/>
<text text-anchor="start" x="473.74" y="-215.75" font-family="Helvetica,sans-Serif" font-size="10.00">Simple&#45;Utility/functional</text>
<text text-anchor="middle" x="529.24" y="-203" font-family="Helvetica,sans-Serif" font-size="10.00">/mixins/Pipe.hpp</text>
</a>
</g>
</g>
<!-- Node1&#45;&gt;Node9 -->
<g id="edge27" class="edge">
<title>Node1&#45;&gt;Node9</title>
<path fill="none" stroke="#63b8ff" d="M588.24,-519.07C588.24,-493.29 588.24,-448.03 588.24,-409.25 588.24,-409.25 588.24,-409.25 588.24,-344.12 588.24,-299.33 559.07,-252.95 541.75,-229.36"/>
<polygon fill="#63b8ff" stroke="#63b8ff" points="584.74,-519.04 588.24,-529.04 591.74,-519.04 584.74,-519.04"/>
</g>
<!-- Node14 -->
<g id="node14" class="node">
<title>Node14</title>
<g id="a_node14"><a xlink:href="../../dd/d5a/_general_8hpp.html" target="_top" xlink:title=" ">
<polygon fill="white" stroke="#666666" points="720.49,-494.5 615.99,-494.5 615.99,-461 720.49,-461 720.49,-494.5"/>
<text text-anchor="start" x="623.99" y="-481" font-family="Helvetica,sans-Serif" font-size="10.00">Simple&#45;Utility/tuple</text>
<text text-anchor="middle" x="668.24" y="-468.25" font-family="Helvetica,sans-Serif" font-size="10.00">/General.hpp</text>
</a>
</g>
</g>
<!-- Node1&#45;&gt;Node14 -->
<g id="edge28" class="edge">
<title>Node1&#45;&gt;Node14</title>
<path fill="none" stroke="#63b8ff" d="M609.69,-523.48C621.25,-514.65 635.46,-503.79 646.99,-494.98"/>
<polygon fill="#63b8ff" stroke="#63b8ff" points="607.91,-521.2 602.09,-530.05 612.16,-526.76 607.91,-521.2"/>
</g>
<!-- Node3 -->
<g id="node3" class="node">
<title>Node3</title>
<g id="a_node3"><a xlink:href="../../d2/db4/functional_8hpp.html" target="_top" xlink:title=" ">
<polygon fill="white" stroke="#666666" points="482.86,-20.75 335.61,-20.75 335.61,0 482.86,0 482.86,-20.75"/>
<text text-anchor="middle" x="409.24" y="-7.25" font-family="Helvetica,sans-Serif" font-size="10.00">Simple&#45;Utility/functional.hpp</text>
</a>
</g>
</g>
<!-- Node2&#45;&gt;Node3 -->
<g id="edge2" class="edge">
<title>Node2&#45;&gt;Node3</title>
<path fill="none" stroke="#63b8ff" d="M309.57,-281.38C214.4,-280.08 57.79,-271.38 21.24,-229.25 -80.14,-112.39 214.49,-45.04 347.62,-21.25"/>
<polygon fill="#63b8ff" stroke="#63b8ff" points="309.25,-284.89 319.29,-281.5 309.33,-277.89 309.25,-284.89"/>
</g>
<!-- Node4 -->
<g id="node4" class="node">
<title>Node4</title>
<g id="a_node4"><a xlink:href="../../d7/d0e/_conjunction_8hpp.html" target="_top" xlink:title=" ">
<polygon fill="white" stroke="#666666" points="447.74,-229.25 320.74,-229.25 320.74,-195.75 447.74,-195.75 447.74,-229.25"/>
<text text-anchor="start" x="328.74" y="-215.75" font-family="Helvetica,sans-Serif" font-size="10.00">Simple&#45;Utility/functional</text>
<text text-anchor="middle" x="384.24" y="-203" font-family="Helvetica,sans-Serif" font-size="10.00">/mixins/Conjunction.hpp</text>
</a>
</g>
</g>
<!-- Node2&#45;&gt;Node4 -->
<g id="edge3" class="edge">
<title>Node2&#45;&gt;Node4</title>
<path fill="none" stroke="#63b8ff" d="M384.24,-254.14C384.24,-245.75 384.24,-236.76 384.24,-229.38"/>
<polygon fill="#63b8ff" stroke="#63b8ff" points="380.74,-254 384.24,-264 387.74,-254 380.74,-254"/>
</g>
<!-- Node7 -->
<g id="node7" class="node">
<title>Node7</title>
<g id="a_node7"><a xlink:href="../../d7/ddc/_disjunction_8hpp.html" target="_top" xlink:title=" ">
<polygon fill="white" stroke="#666666" points="157.74,-229.25 30.74,-229.25 30.74,-195.75 157.74,-195.75 157.74,-229.25"/>
<text text-anchor="start" x="38.74" y="-215.75" font-family="Helvetica,sans-Serif" font-size="10.00">Simple&#45;Utility/functional</text>
<text text-anchor="middle" x="94.24" y="-203" font-family="Helvetica,sans-Serif" font-size="10.00">/mixins/Disjunction.hpp</text>
</a>
</g>
</g>
<!-- Node2&#45;&gt;Node7 -->
<g id="edge9" class="edge">
<title>Node2&#45;&gt;Node7</title>
<path fill="none" stroke="#63b8ff" d="M309.88,-263.69C262.98,-252.78 203.01,-238.82 158.23,-228.4"/>
<polygon fill="#63b8ff" stroke="#63b8ff" points="309.06,-267.33 319.59,-266.19 310.65,-260.51 309.06,-267.33"/>
</g>
<!-- Node8 -->
<g id="node8" class="node">
<title>Node8</title>
<g id="a_node8"><a xlink:href="../../de/d71/_equality_8hpp.html" target="_top" xlink:title=" ">
<polygon fill="white" stroke="#666666" points="302.74,-229.25 175.74,-229.25 175.74,-195.75 302.74,-195.75 302.74,-229.25"/>
<text text-anchor="start" x="183.74" y="-215.75" font-family="Helvetica,sans-Serif" font-size="10.00">Simple&#45;Utility/functional</text>
<text text-anchor="middle" x="239.24" y="-203" font-family="Helvetica,sans-Serif" font-size="10.00">/mixins/Equality.hpp</text>
</a>
</g>
</g>
<!-- Node2&#45;&gt;Node8 -->
<g id="edge12" class="edge">
<title>Node2&#45;&gt;Node8</title>
<path fill="none" stroke="#63b8ff" d="M339.77,-260.3C318.6,-250.45 293.67,-238.84 273.93,-229.65"/>
<polygon fill="#63b8ff" stroke="#63b8ff" points="337.96,-263.78 348.5,-264.83 340.92,-257.44 337.96,-263.78"/>
</g>
<!-- Node2&#45;&gt;Node9 -->
<g id="edge15" class="edge">
<title>Node2&#45;&gt;Node9</title>
<path fill="none" stroke="#63b8ff" d="M428.7,-260.3C449.87,-250.45 474.8,-238.84 494.54,-229.65"/>
<polygon fill="#63b8ff" stroke="#63b8ff" points="427.56,-257.44 419.97,-264.83 430.51,-263.78 427.56,-257.44"/>
</g>
<!-- Node4&#45;&gt;Node3 -->
<g id="edge4" class="edge">
<title>Node4&#45;&gt;Node3</title>
<path fill="none" stroke="#63b8ff" d="M326.26,-190.37C312.48,-182.73 299.19,-172.7 290.24,-159.75 264.07,-121.93 253.65,-94.28 280.24,-56.75 293.13,-38.54 313.95,-27.58 335.14,-21.01"/>
<polygon fill="#63b8ff" stroke="#63b8ff" points="324.33,-193.83 334.83,-195.28 327.53,-187.6 324.33,-193.83"/>
</g>
<!-- Node5 -->
<g id="node5" class="node">
<title>Node5</title>
<g id="a_node5"><a xlink:href="../../d4/d53/_predicate_8hpp.html" target="_top" xlink:title=" ">
<polygon fill="white" stroke="#666666" points="426.74,-159.75 299.74,-159.75 299.74,-126.25 426.74,-126.25 426.74,-159.75"/>
<text text-anchor="start" x="307.74" y="-146.25" font-family="Helvetica,sans-Serif" font-size="10.00">Simple&#45;Utility/functional</text>
<text text-anchor="middle" x="363.24" y="-133.5" font-family="Helvetica,sans-Serif" font-size="10.00">/Predicate.hpp</text>
</a>
</g>
</g>
<!-- Node4&#45;&gt;Node5 -->
<g id="edge5" class="edge">
<title>Node4&#45;&gt;Node5</title>
<path fill="none" stroke="#63b8ff" d="M376.06,-185.21C373.4,-176.66 370.53,-167.43 368.18,-159.88"/>
<polygon fill="#63b8ff" stroke="#63b8ff" points="372.95,-185.99 379.26,-194.5 379.63,-183.92 372.95,-185.99"/>
</g>
<!-- Node5&#45;&gt;Node3 -->
<g id="edge6" class="edge">
<title>Node5&#45;&gt;Node3</title>
<path fill="none" stroke="#63b8ff" d="M318.44,-120.18C307.19,-112.39 296.54,-102.45 290.24,-90.25 283.4,-77.02 281.79,-69.01 290.24,-56.75 302.72,-38.63 323.47,-27.74 344.19,-21.2"/>
<polygon fill="#63b8ff" stroke="#63b8ff" points="316.2,-123.54 326.51,-125.97 319.96,-117.64 316.2,-123.54"/>
</g>
<!-- Node6 -->
<g id="node6" class="node">
<title>Node6</title>
<g id="a_node6"><a xlink:href="../../d8/d60/_compare_8hpp.html" target="_top" xlink:title=" ">
<polygon fill="white" stroke="#666666" points="426.74,-90.25 299.74,-90.25 299.74,-56.75 426.74,-56.75 426.74,-90.25"/>
<text text-anchor="start" x="307.74" y="-76.75" font-family="Helvetica,sans-Serif" font-size="10.00">Simple&#45;Utility/functional</text>
<text text-anchor="middle" x="363.24" y="-64" font-family="Helvetica,sans-Serif" font-size="10.00">/Compare.hpp</text>
</a>
</g>
</g>
<!-- Node5&#45;&gt;Node6 -->
<g id="edge7" class="edge">
<title>Node5&#45;&gt;Node6</title>
<path fill="none" stroke="#63b8ff" d="M363.24,-115.14C363.24,-106.75 363.24,-97.76 363.24,-90.38"/>
<polygon fill="#63b8ff" stroke="#63b8ff" points="359.74,-115 363.24,-125 366.74,-115 359.74,-115"/>
</g>
<!-- Node6&#45;&gt;Node3 -->
<g id="edge8" class="edge">
<title>Node6&#45;&gt;Node3</title>
<path fill="none" stroke="#63b8ff" d="M381.79,-47.85C388.81,-38.51 396.41,-28.42 401.83,-21.22"/>
<polygon fill="#63b8ff" stroke="#63b8ff" points="378.54,-45.35 375.32,-55.44 384.13,-49.55 378.54,-45.35"/>
</g>
<!-- Node7&#45;&gt;Node3 -->
<g id="edge10" class="edge">
<title>Node7&#45;&gt;Node3</title>
<path fill="none" stroke="#63b8ff" d="M110.98,-186.7C135.51,-152.31 184.5,-90.56 241.24,-56.75 271.21,-38.89 308.34,-27.91 340.06,-21.23"/>
<polygon fill="#63b8ff" stroke="#63b8ff" points="107.6,-184.43 104.72,-194.63 113.33,-188.45 107.6,-184.43"/>
</g>
<!-- Node7&#45;&gt;Node5 -->
<g id="edge11" class="edge">
<title>Node7&#45;&gt;Node5</title>
<path fill="none" stroke="#63b8ff" d="M168.49,-192.87C209.6,-182.55 260.17,-169.86 299.48,-160"/>
<polygon fill="#63b8ff" stroke="#63b8ff" points="167.83,-189.67 158.98,-195.5 169.54,-196.46 167.83,-189.67"/>
</g>
<!-- Node8&#45;&gt;Node3 -->
<g id="edge13" class="edge">
<title>Node8&#45;&gt;Node3</title>
<path fill="none" stroke="#63b8ff" d="M235.3,-184.81C231.88,-150.9 231.53,-92.51 262.24,-56.75 280.5,-35.47 308.52,-24.02 335.21,-17.9"/>
<polygon fill="#63b8ff" stroke="#63b8ff" points="231.94,-185.18 236.59,-194.7 238.89,-184.36 231.94,-185.18"/>
</g>
<!-- Node8&#45;&gt;Node5 -->
<g id="edge14" class="edge">
<title>Node8&#45;&gt;Node5</title>
<path fill="none" stroke="#63b8ff" d="M278.53,-190.11C296.43,-180.37 317.25,-169.03 333.78,-160.04"/>
<polygon fill="#63b8ff" stroke="#63b8ff" points="277.05,-187.48 269.94,-195.33 280.39,-193.63 277.05,-187.48"/>
</g>
<!-- Node9&#45;&gt;Node3 -->
<g id="edge16" class="edge">
<title>Node9&#45;&gt;Node3</title>
<path fill="none" stroke="#63b8ff" d="M514.04,-186.16C487.25,-141.48 432.76,-50.6 414.98,-20.96"/>
<polygon fill="#63b8ff" stroke="#63b8ff" points="511.47,-187.68 519.62,-194.46 517.48,-184.08 511.47,-187.68"/>
</g>
<!-- Node9&#45;&gt;Node5 -->
<g id="edge17" class="edge">
<title>Node9&#45;&gt;Node5</title>
<path fill="none" stroke="#63b8ff" d="M479.31,-191.2C454.88,-181.26 425.87,-169.47 402.96,-160.15"/>
<polygon fill="#63b8ff" stroke="#63b8ff" points="477.89,-194.81 488.47,-195.33 480.53,-188.32 477.89,-194.81"/>
</g>
<!-- Node10 -->
<g id="node10" class="node">
<title>Node10</title>
<g id="a_node10"><a xlink:href="../../d9/d8c/_transform_8hpp.html" target="_top" xlink:title=" ">
<polygon fill="white" stroke="#666666" points="702.74,-159.75 575.74,-159.75 575.74,-126.25 702.74,-126.25 702.74,-159.75"/>
<text text-anchor="start" x="583.74" y="-146.25" font-family="Helvetica,sans-Serif" font-size="10.00">Simple&#45;Utility/functional</text>
<text text-anchor="middle" x="639.24" y="-133.5" font-family="Helvetica,sans-Serif" font-size="10.00">/Transform.hpp</text>
</a>
</g>
</g>
<!-- Node9&#45;&gt;Node10 -->
<g id="edge18" class="edge">
<title>Node9&#45;&gt;Node10</title>
<path fill="none" stroke="#63b8ff" d="M564.54,-189.84C580.31,-180.16 598.58,-168.95 613.1,-160.04"/>
<polygon fill="#63b8ff" stroke="#63b8ff" points="563.28,-187.12 556.58,-195.33 566.94,-193.08 563.28,-187.12"/>
</g>
<!-- Node10&#45;&gt;Node3 -->
<g id="edge19" class="edge">
<title>Node10&#45;&gt;Node3</title>
<path fill="none" stroke="#63b8ff" d="M640.37,-115.21C639.67,-96.35 635.48,-71.88 620.24,-56.75 600.99,-37.65 536.05,-25.64 483.24,-18.81"/>
<polygon fill="#63b8ff" stroke="#63b8ff" points="636.88,-115.11 640.43,-125.09 643.88,-115.07 636.88,-115.11"/>
</g>
<!-- Node10&#45;&gt;Node6 -->
<g id="edge22" class="edge">
<title>Node10&#45;&gt;Node6</title>
<path fill="none" stroke="#63b8ff" d="M565.14,-123.88C522.04,-113.34 468.27,-100.19 427.06,-90.11"/>
<polygon fill="#63b8ff" stroke="#63b8ff" points="564.02,-127.45 574.57,-126.43 565.69,-120.65 564.02,-127.45"/>
</g>
<!-- Node11 -->
<g id="node11" class="node">
<title>Node11</title>
<g id="a_node11"><a xlink:href="../../d3/dc2/_arithmetic_8hpp.html" target="_top" xlink:title=" ">
<polygon fill="white" stroke="#666666" points="794.74,-90.25 667.74,-90.25 667.74,-56.75 794.74,-56.75 794.74,-90.25"/>
<text text-anchor="start" x="675.74" y="-76.75" font-family="Helvetica,sans-Serif" font-size="10.00">Simple&#45;Utility/functional</text>
<text text-anchor="middle" x="731.24" y="-64" font-family="Helvetica,sans-Serif" font-size="10.00">/Arithmetic.hpp</text>
</a>
</g>
</g>
<!-- Node10&#45;&gt;Node11 -->
<g id="edge20" class="edge">
<title>Node10&#45;&gt;Node11</title>
<path fill="none" stroke="#63b8ff" d="M669.65,-119.69C682.59,-110.19 697.41,-99.31 709.27,-90.62"/>
<polygon fill="#63b8ff" stroke="#63b8ff" points="668.03,-117.27 662.04,-126 672.17,-122.91 668.03,-117.27"/>
</g>
<!-- Node12 -->
<g id="node12" class="node">
<title>Node12</title>
<g id="a_node12"><a xlink:href="../../da/dae/functional_2_tuple_8hpp.html" target="_top" xlink:title=" ">
<polygon fill="white" stroke="#666666" points="978.74,-90.25 851.74,-90.25 851.74,-56.75 978.74,-56.75 978.74,-90.25"/>
<text text-anchor="start" x="859.74" y="-76.75" font-family="Helvetica,sans-Serif" font-size="10.00">Simple&#45;Utility/functional</text>
<text text-anchor="middle" x="915.24" y="-64" font-family="Helvetica,sans-Serif" font-size="10.00">/Tuple.hpp</text>
</a>
</g>
</g>
<!-- Node10&#45;&gt;Node12 -->
<g id="edge23" class="edge">
<title>Node10&#45;&gt;Node12</title>
<path fill="none" stroke="#63b8ff" d="M713.33,-123.88C756.43,-113.34 810.2,-100.19 851.41,-90.11"/>
<polygon fill="#63b8ff" stroke="#63b8ff" points="712.78,-120.65 703.9,-126.43 714.45,-127.45 712.78,-120.65"/>
</g>
<!-- Node13 -->
<g id="node13" class="node">
<title>Node13</title>
<g id="a_node13"><a xlink:href="../../de/d61/functional_2_utility_8hpp.html" target="_top" xlink:title=" ">
<polygon fill="white" stroke="#666666" points="610.74,-90.25 483.74,-90.25 483.74,-56.75 610.74,-56.75 610.74,-90.25"/>
<text text-anchor="start" x="491.74" y="-76.75" font-family="Helvetica,sans-Serif" font-size="10.00">Simple&#45;Utility/functional</text>
<text text-anchor="middle" x="547.24" y="-64" font-family="Helvetica,sans-Serif" font-size="10.00">/Utility.hpp</text>
</a>
</g>
</g>
<!-- Node10&#45;&gt;Node13 -->
<g id="edge25" class="edge">
<title>Node10&#45;&gt;Node13</title>
<path fill="none" stroke="#63b8ff" d="M608.83,-119.69C595.88,-110.19 581.06,-99.31 569.2,-90.62"/>
<polygon fill="#63b8ff" stroke="#63b8ff" points="606.3,-122.91 616.43,-126 610.44,-117.27 606.3,-122.91"/>
</g>
<!-- Node11&#45;&gt;Node3 -->
<g id="edge21" class="edge">
<title>Node11&#45;&gt;Node3</title>
<path fill="none" stroke="#63b8ff" d="M656.72,-57.43C655.55,-57.2 654.39,-56.97 653.24,-56.75 588.09,-44.12 513.03,-30.26 463.55,-21.23"/>
<polygon fill="#63b8ff" stroke="#63b8ff" points="655.91,-61.03 666.4,-59.53 657.26,-54.16 655.91,-61.03"/>
</g>
<!-- Node12&#45;&gt;Node3 -->
<g id="edge24" class="edge">
<title>Node12&#45;&gt;Node3</title>
<path fill="none" stroke="#63b8ff" d="M840.74,-57.3C839.57,-57.11 838.4,-56.93 837.24,-56.75 713.71,-37.77 568.91,-24.23 483.35,-17.11"/>
<polygon fill="#63b8ff" stroke="#63b8ff" points="840.03,-60.9 850.47,-59.12 841.2,-54 840.03,-60.9"/>
</g>
<!-- Node13&#45;&gt;Node3 -->
<g id="edge26" class="edge">
<title>Node13&#45;&gt;Node3</title>
<path fill="none" stroke="#63b8ff" d="M500.84,-51.95C477.39,-41.56 450.01,-29.44 431.34,-21.17"/>
<polygon fill="#63b8ff" stroke="#63b8ff" points="499.06,-55.43 509.62,-56.28 501.89,-49.03 499.06,-55.43"/>
</g>
<!-- Node14&#45;&gt;Node12 -->
<g id="edge32" class="edge">
<title>Node14&#45;&gt;Node12</title>
<path fill="none" stroke="#63b8ff" d="M731.52,-466.83C796.51,-452.61 888.24,-419.55 888.24,-346.12 888.24,-346.12 888.24,-346.12 888.24,-211.5 888.24,-167.14 902.03,-116.19 909.9,-90.74"/>
<polygon fill="#63b8ff" stroke="#63b8ff" points="731.01,-463.57 721.93,-469.03 732.43,-470.42 731.01,-463.57"/>
</g>
<!-- Node15 -->
<g id="node15" class="node">
<title>Node15</title>
<g id="a_node15"><a xlink:href="../../d5/d7b/_tuple_8hpp.html" target="_top" xlink:title=" ">
<polygon fill="white" stroke="#666666" points="559.74,-355.5 432.74,-355.5 432.74,-334.75 559.74,-334.75 559.74,-355.5"/>
<text text-anchor="middle" x="496.24" y="-342" font-family="Helvetica,sans-Serif" font-size="10.00">Simple&#45;Utility/Tuple.hpp</text>
</a>
</g>
</g>
<!-- Node14&#45;&gt;Node15 -->
<g id="edge29" class="edge">
<title>Node14&#45;&gt;Node15</title>
<path fill="none" stroke="#63b8ff" d="M640.9,-453.47C620.01,-435.94 590.29,-411.59 563.24,-391.5 545.86,-378.6 525.15,-364.8 511.4,-355.85"/>
<polygon fill="#63b8ff" stroke="#63b8ff" points="638.38,-456.76 648.28,-460.53 642.89,-451.41 638.38,-456.76"/>
</g>
<!-- Node16 -->
<g id="node16" class="node">
<title>Node16</title>
<g id="a_node16"><a xlink:href="../../d7/df7/_invoke_policies_8hpp.html" target="_top" xlink:title=" ">
<polygon fill="white" stroke="#666666" points="747.24,-229.25 611.24,-229.25 611.24,-195.75 747.24,-195.75 747.24,-229.25"/>
<text text-anchor="start" x="619.24" y="-215.75" font-family="Helvetica,sans-Serif" font-size="10.00">Simple&#45;Utility/functional</text>
<text text-anchor="middle" x="679.24" y="-203" font-family="Helvetica,sans-Serif" font-size="10.00">/mixins/InvokePolicies.hpp</text>
</a>
</g>
</g>
<!-- Node14&#45;&gt;Node16 -->
<g id="edge33" class="edge">
<title>Node14&#45;&gt;Node16</title>
<path fill="none" stroke="#63b8ff" d="M669.36,-449.84C671.64,-395.39 676.72,-273.63 678.56,-229.7"/>
<polygon fill="#63b8ff" stroke="#63b8ff" points="665.83,-449.54 668.91,-459.68 672.82,-449.83 665.83,-449.54"/>
</g>
<!-- Node17 -->
<g id="node17" class="node">
<title>Node17</title>
<g id="a_node17"><a xlink:href="../../dc/d83/_algorithm_8hpp.html" target="_top" xlink:title=" ">
<polygon fill="white" stroke="#666666" points="554.49,-425 449.99,-425 449.99,-391.5 554.49,-391.5 554.49,-425"/>
<text text-anchor="start" x="457.99" y="-411.5" font-family="Helvetica,sans-Serif" font-size="10.00">Simple&#45;Utility/tuple</text>
<text text-anchor="middle" x="502.24" y="-398.75" font-family="Helvetica,sans-Serif" font-size="10.00">/Algorithm.hpp</text>
</a>
</g>
</g>
<!-- Node14&#45;&gt;Node17 -->
<g id="edge37" class="edge">
<title>Node14&#45;&gt;Node17</title>
<path fill="none" stroke="#63b8ff" d="M618.31,-456.45C593.88,-446.51 564.87,-434.72 541.96,-425.4"/>
<polygon fill="#63b8ff" stroke="#63b8ff" points="616.89,-460.06 627.47,-460.58 619.53,-453.57 616.89,-460.06"/>
</g>
<!-- Node15&#45;&gt;Node2 -->
<g id="edge30" class="edge">
<title>Node15&#45;&gt;Node2</title>
<path fill="none" stroke="#63b8ff" d="M469.05,-329.29C452.4,-320.2 431.08,-308.57 413.98,-299.23"/>
<polygon fill="#63b8ff" stroke="#63b8ff" points="466.79,-332.59 477.24,-334.3 470.14,-326.44 466.79,-332.59"/>
</g>
<!-- Node15&#45;&gt;Node9 -->
<g id="edge31" class="edge">
<title>Node15&#45;&gt;Node9</title>
<path fill="none" stroke="#63b8ff" d="M501.38,-323.78C507.96,-297.72 519.23,-253.09 525.22,-229.38"/>
<polygon fill="#63b8ff" stroke="#63b8ff" points="497.77,-322.75 498.72,-333.31 504.56,-324.47 497.77,-322.75"/>
</g>
<!-- Node16&#45;&gt;Node3 -->
<g id="edge34" class="edge">
<title>Node16&#45;&gt;Node3</title>
<path fill="none" stroke="#63b8ff" d="M718.75,-189.71C769.11,-159.24 845.05,-102.52 804.24,-56.75 783.28,-33.24 591.46,-20.19 483.04,-14.64"/>
<polygon fill="#63b8ff" stroke="#63b8ff" points="717.19,-187.15 710.37,-195.26 720.76,-193.18 717.19,-187.15"/>
</g>
<!-- Node16&#45;&gt;Node5 -->
<g id="edge35" class="edge">
<title>Node16&#45;&gt;Node5</title>
<path fill="none" stroke="#63b8ff" d="M600.58,-194.7C547.03,-183.26 477.06,-168.31 426.99,-157.62"/>
<polygon fill="#63b8ff" stroke="#63b8ff" points="599.55,-198.27 610.06,-196.94 601.01,-191.42 599.55,-198.27"/>
</g>
<!-- Node16&#45;&gt;Node10 -->
<g id="edge36" class="edge">
<title>Node16&#45;&gt;Node10</title>
<path fill="none" stroke="#63b8ff" d="M664.16,-186.06C658.95,-177.27 653.27,-167.68 648.65,-159.88"/>
<polygon fill="#63b8ff" stroke="#63b8ff" points="661.65,-187.68 669.76,-194.5 667.67,-184.12 661.65,-187.68"/>
</g>
<!-- Node17&#45;&gt;Node15 -->
<g id="edge38" class="edge">
<title>Node17&#45;&gt;Node15</title>
<path fill="none" stroke="#63b8ff" d="M499.59,-380.27C498.74,-371.62 497.85,-362.57 497.2,-355.97"/>
<polygon fill="#63b8ff" stroke="#63b8ff" points="496.2,-380.58 500.66,-390.19 503.17,-379.9 496.2,-380.58"/>
</g>
</g>
</svg>
        <g id="navigator" transform="translate(0 0)" fill="#404254">
                <rect fill="#f2f5e9" fill-opacity="0.5" stroke="#606060" stroke-width=".5" x="0" y="0" width="60" height="60"/>
                <use id="zoomplus" xlink:href="#zoomPlus" x="17" y="9" onmousedown="handleZoom(evt,'in')"/>
                <use id="zoomminus" xlink:href="#zoomMin" x="42" y="9" onmousedown="handleZoom(evt,'out')"/>
                <use id="reset" xlink:href="#resetDef" x="30" y="36" onmousedown="handleReset()"/>
                <g id="arrowUp" xlink:href="#dirArrow" transform="translate(30 24)" onmousedown="handlePan(0,-1)">
                  <use xlink:href="#rim" fill="#404040">
                        <set attributeName="fill" to="#808080" begin="arrowUp.mouseover" end="arrowUp.mouseout"/>
                  </use>
                  <path fill="none" stroke="white" stroke-width="1.5" d="M0,-3.0v7 M-2.5,-0.5L0,-3.0L2.5,-0.5"/>
                </g>
                <g id="arrowRight" xlink:href="#dirArrow" transform="rotate(90) translate(36 -43)" onmousedown="handlePan(1,0)">
                  <use xlink:href="#rim" fill="#404040">
                        <set attributeName="fill" to="#808080" begin="arrowRight.mouseover" end="arrowRight.mouseout"/>
                  </use>
                  <path fill="none" stroke="white" stroke-width="1.5" d="M0,-3.0v7 M-2.5,-0.5L0,-3.0L2.5,-0.5"/>
                </g>
                <g id="arrowDown" xlink:href="#dirArrow" transform="rotate(180) translate(-30 -48)" onmousedown="handlePan(0,1)">
                  <use xlink:href="#rim" fill="#404040">
                        <set attributeName="fill" to="#808080" begin="arrowDown.mouseover" end="arrowDown.mouseout"/>
                  </use>
                  <path fill="none" stroke="white" stroke-width="1.5" d="M0,-3.0v7 M-2.5,-0.5L0,-3.0L2.5,-0.5"/>
                </g>
                <g id="arrowLeft" xlink:href="#dirArrow" transform="rotate(270) translate(-36 17)" onmousedown="handlePan(-1,0)">
                  <use xlink:href="#rim" fill="#404040">
                        <set attributeName="fill" to="#808080" begin="arrowLeft.mouseover" end="arrowLeft.mouseout"/>
                  </use>
                  <path fill="none" stroke="white" stroke-width="1.5" d="M0,-3.0v7 M-2.5,-0.5L0,-3.0L2.5,-0.5"/>
                </g>
        </g>
        <svg viewBox="0 0 15 15" width="100%" height="30px" preserveAspectRatio="xMaxYMin meet">
         <g id="arrow_out" transform="scale(0.3 0.3)">
          <a xlink:href="_type_list_8hpp__dep__incl_org.svg" target="_base">
           <rect id="button" ry="5" rx="5" y="6" x="6" height="38" width="38"
                fill="#f2f5e9" fill-opacity="0.5" stroke="#606060" stroke-width="1.0"/>
           <path id="arrow"
             d="M 11.500037,31.436501 C 11.940474,20.09759 22.043105,11.32322 32.158766,21.979434 L 37.068811,17.246167 C 37.068811,17.246167 37.088388,32 37.088388,32 L 22.160133,31.978069 C 22.160133,31.978069 26.997745,27.140456 26.997745,27.140456 C 18.528582,18.264221 13.291696,25.230495 11.500037,31.436501 z"
             style="fill:#404040;"/>
          </a>
         </g>
        </svg>
</svg>
