<?xml version="1.0" encoding="UTF-8" standalone="no"?>
<!DOCTYPE svg PUBLIC "-//W3C//DTD SVG 1.1//EN"
 "http://www.w3.org/Graphics/SVG/1.1/DTD/svg11.dtd">
<!-- Generated by graphviz version 8.0.5 (20230430.1635)
 -->
<!-- Title: Simple&#45;Utility/TypeList.hpp Pages: 1 -->
<svg width="879pt" height="559pt"
 viewBox="0.00 0.00 879.00 559.25" xmlns="http://www.w3.org/2000/svg" xmlns:xlink="http://www.w3.org/1999/xlink">
<g id="graph0" class="graph" transform="scale(1 1) rotate(0) translate(4 555.25)">
<title>Simple&#45;Utility/TypeList.hpp</title>
<!-- Node1 -->
<g id="node1" class="node">
<title>Node1</title>
<g id="a_node1"><a xlink:title=" ">
<polygon fill="#999999" stroke="#666666" points="515,-551.25 376,-551.25 376,-530.5 515,-530.5 515,-551.25"/>
<text text-anchor="middle" x="445.5" y="-537.75" font-family="Helvetica,sans-Serif" font-size="10.00">Simple&#45;Utility/TypeList.hpp</text>
</a>
</g>
</g>
<!-- Node2 -->
<g id="node2" class="node">
<title>Node2</title>
<g id="a_node2"><a xlink:href="../../d3/d48/_composition_8hpp.html" target="_top" xlink:title=" ">
<polygon fill="white" stroke="#666666" points="417,-298.75 290,-298.75 290,-265.25 417,-265.25 417,-298.75"/>
<text text-anchor="start" x="298" y="-285.25" font-family="Helvetica,sans-Serif" font-size="10.00">Simple&#45;Utility/functional</text>
<text text-anchor="middle" x="353.5" y="-272.5" font-family="Helvetica,sans-Serif" font-size="10.00">/Composition.hpp</text>
</a>
</g>
</g>
<!-- Node1&#45;&gt;Node2 -->
<g id="edge1" class="edge">
<title>Node1&#45;&gt;Node2</title>
<path fill="none" stroke="#63b8ff" d="M438.31,-519.81C420.62,-470.42 375.24,-343.7 359.21,-298.95"/>
<polygon fill="#63b8ff" stroke="#63b8ff" points="435.34,-520.88 442.01,-529.12 441.93,-518.52 435.34,-520.88"/>
</g>
<!-- Node9 -->
<g id="node9" class="node">
<title>Node9</title>
<g id="a_node9"><a xlink:href="../../d2/df5/_pipe_8hpp.html" target="_top" xlink:title=" ">
<polygon fill="white" stroke="#666666" points="562,-229.25 435,-229.25 435,-195.75 562,-195.75 562,-229.25"/>
<text text-anchor="start" x="443" y="-215.75" font-family="Helvetica,sans-Serif" font-size="10.00">Simple&#45;Utility/functional</text>
<text text-anchor="middle" x="498.5" y="-203" font-family="Helvetica,sans-Serif" font-size="10.00">/mixins/Pipe.hpp</text>
</a>
</g>
</g>
<!-- Node1&#45;&gt;Node9 -->
<g id="edge22" class="edge">
<title>Node1&#45;&gt;Node9</title>
<path fill="none" stroke="#63b8ff" d="M445.5,-519.07C445.5,-493.29 445.5,-448.03 445.5,-409.25 445.5,-409.25 445.5,-409.25 445.5,-344.12 445.5,-300.07 471.7,-253.39 487.26,-229.55"/>
<polygon fill="#63b8ff" stroke="#63b8ff" points="442,-519.04 445.5,-529.04 449,-519.04 442,-519.04"/>
</g>
<!-- Node14 -->
<g id="node14" class="node">
<title>Node14</title>
<g id="a_node14"><a xlink:href="../../dd/d5a/_general_8hpp.html" target="_top" xlink:title=" ">
<polygon fill="white" stroke="#666666" points="620.75,-494.5 516.25,-494.5 516.25,-461 620.75,-461 620.75,-494.5"/>
<text text-anchor="start" x="524.25" y="-481" font-family="Helvetica,sans-Serif" font-size="10.00">Simple&#45;Utility/tuple</text>
<text text-anchor="middle" x="568.5" y="-468.25" font-family="Helvetica,sans-Serif" font-size="10.00">/General.hpp</text>
</a>
</g>
</g>
<!-- Node1&#45;&gt;Node14 -->
<g id="edge23" class="edge">
<title>Node1&#45;&gt;Node14</title>
<path fill="none" stroke="#63b8ff" d="M475.1,-525.16C493.43,-516.06 516.97,-504.36 535.83,-494.98"/>
<polygon fill="#63b8ff" stroke="#63b8ff" points="473.66,-522.47 466.26,-530.05 476.77,-528.74 473.66,-522.47"/>
</g>
<!-- Node3 -->
<g id="node3" class="node">
<title>Node3</title>
<g id="a_node3"><a xlink:href="../../d7/d0e/_conjunction_8hpp.html" target="_top" xlink:title=" ">
<polygon fill="white" stroke="#666666" points="272,-229.25 145,-229.25 145,-195.75 272,-195.75 272,-229.25"/>
<text text-anchor="start" x="153" y="-215.75" font-family="Helvetica,sans-Serif" font-size="10.00">Simple&#45;Utility/functional</text>
<text text-anchor="middle" x="208.5" y="-203" font-family="Helvetica,sans-Serif" font-size="10.00">/mixins/Conjunction.hpp</text>
</a>
</g>
</g>
<!-- Node2&#45;&gt;Node3 -->
<g id="edge2" class="edge">
<title>Node2&#45;&gt;Node3</title>
<path fill="none" stroke="#63b8ff" d="M309.03,-260.3C287.87,-250.45 262.94,-238.84 243.2,-229.65"/>
<polygon fill="#63b8ff" stroke="#63b8ff" points="307.23,-263.78 317.77,-264.83 310.18,-257.44 307.23,-263.78"/>
</g>
<!-- Node7 -->
<g id="node7" class="node">
<title>Node7</title>
<g id="a_node7"><a xlink:href="../../d7/ddc/_disjunction_8hpp.html" target="_top" xlink:title=" ">
<polygon fill="white" stroke="#666666" points="417,-229.25 290,-229.25 290,-195.75 417,-195.75 417,-229.25"/>
<text text-anchor="start" x="298" y="-215.75" font-family="Helvetica,sans-Serif" font-size="10.00">Simple&#45;Utility/functional</text>
<text text-anchor="middle" x="353.5" y="-203" font-family="Helvetica,sans-Serif" font-size="10.00">/mixins/Disjunction.hpp</text>
</a>
</g>
</g>
<!-- Node2&#45;&gt;Node7 -->
<g id="edge7" class="edge">
<title>Node2&#45;&gt;Node7</title>
<path fill="none" stroke="#63b8ff" d="M353.5,-254.14C353.5,-245.75 353.5,-236.76 353.5,-229.38"/>
<polygon fill="#63b8ff" stroke="#63b8ff" points="350,-254 353.5,-264 357,-254 350,-254"/>
</g>
<!-- Node8 -->
<g id="node8" class="node">
<title>Node8</title>
<g id="a_node8"><a xlink:href="../../de/d71/_equality_8hpp.html" target="_top" xlink:title=" ">
<polygon fill="white" stroke="#666666" points="127,-229.25 0,-229.25 0,-195.75 127,-195.75 127,-229.25"/>
<text text-anchor="start" x="8" y="-215.75" font-family="Helvetica,sans-Serif" font-size="10.00">Simple&#45;Utility/functional</text>
<text text-anchor="middle" x="63.5" y="-203" font-family="Helvetica,sans-Serif" font-size="10.00">/mixins/Equality.hpp</text>
</a>
</g>
</g>
<!-- Node2&#45;&gt;Node8 -->
<g id="edge9" class="edge">
<title>Node2&#45;&gt;Node8</title>
<path fill="none" stroke="#63b8ff" d="M279.15,-263.69C232.24,-252.78 172.28,-238.82 127.49,-228.4"/>
<polygon fill="#63b8ff" stroke="#63b8ff" points="278.33,-267.33 288.86,-266.19 279.91,-260.51 278.33,-267.33"/>
</g>
<!-- Node2&#45;&gt;Node9 -->
<g id="edge11" class="edge">
<title>Node2&#45;&gt;Node9</title>
<path fill="none" stroke="#63b8ff" d="M397.97,-260.3C419.13,-250.45 444.06,-238.84 463.8,-229.65"/>
<polygon fill="#63b8ff" stroke="#63b8ff" points="396.82,-257.44 389.23,-264.83 399.77,-263.78 396.82,-257.44"/>
</g>
<!-- Node4 -->
<g id="node4" class="node">
<title>Node4</title>
<g id="a_node4"><a xlink:href="../../d4/d53/_predicate_8hpp.html" target="_top" xlink:title=" ">
<polygon fill="white" stroke="#666666" points="397,-159.75 270,-159.75 270,-126.25 397,-126.25 397,-159.75"/>
<text text-anchor="start" x="278" y="-146.25" font-family="Helvetica,sans-Serif" font-size="10.00">Simple&#45;Utility/functional</text>
<text text-anchor="middle" x="333.5" y="-133.5" font-family="Helvetica,sans-Serif" font-size="10.00">/Predicate.hpp</text>
</a>
</g>
</g>
<!-- Node3&#45;&gt;Node4 -->
<g id="edge3" class="edge">
<title>Node3&#45;&gt;Node4</title>
<path fill="none" stroke="#63b8ff" d="M248.11,-190.11C266.15,-180.37 287.15,-169.03 303.8,-160.04"/>
<polygon fill="#63b8ff" stroke="#63b8ff" points="246.58,-187.5 239.44,-195.33 249.9,-193.66 246.58,-187.5"/>
</g>
<!-- Node5 -->
<g id="node5" class="node">
<title>Node5</title>
<g id="a_node5"><a xlink:href="../../d2/db4/functional_8hpp.html" target="_top" xlink:title=" ">
<polygon fill="white" stroke="#666666" points="545.12,-20.75 397.88,-20.75 397.88,0 545.12,0 545.12,-20.75"/>
<text text-anchor="middle" x="471.5" y="-7.25" font-family="Helvetica,sans-Serif" font-size="10.00">Simple&#45;Utility/functional.hpp</text>
</a>
</g>
</g>
<!-- Node4&#45;&gt;Node5 -->
<g id="edge4" class="edge">
<title>Node4&#45;&gt;Node5</title>
<path fill="none" stroke="#63b8ff" d="M288.7,-120.18C277.46,-112.39 266.8,-102.45 260.5,-90.25 253.66,-77.02 251.14,-68.33 260.5,-56.75 277.69,-35.47 343.9,-23.71 397.63,-17.52"/>
<polygon fill="#63b8ff" stroke="#63b8ff" points="286.46,-123.54 296.78,-125.97 290.23,-117.64 286.46,-123.54"/>
</g>
<!-- Node6 -->
<g id="node6" class="node">
<title>Node6</title>
<g id="a_node6"><a xlink:href="../../d8/d60/_compare_8hpp.html" target="_top" xlink:title=" ">
<polygon fill="white" stroke="#666666" points="397,-90.25 270,-90.25 270,-56.75 397,-56.75 397,-90.25"/>
<text text-anchor="start" x="278" y="-76.75" font-family="Helvetica,sans-Serif" font-size="10.00">Simple&#45;Utility/functional</text>
<text text-anchor="middle" x="333.5" y="-64" font-family="Helvetica,sans-Serif" font-size="10.00">/Compare.hpp</text>
</a>
</g>
</g>
<!-- Node4&#45;&gt;Node6 -->
<g id="edge5" class="edge">
<title>Node4&#45;&gt;Node6</title>
<path fill="none" stroke="#63b8ff" d="M333.5,-115.14C333.5,-106.75 333.5,-97.76 333.5,-90.38"/>
<polygon fill="#63b8ff" stroke="#63b8ff" points="330,-115 333.5,-125 337,-115 330,-115"/>
</g>
<!-- Node6&#45;&gt;Node5 -->
<g id="edge6" class="edge">
<title>Node6&#45;&gt;Node5</title>
<path fill="none" stroke="#63b8ff" d="M379.89,-51.95C403.35,-41.56 430.72,-29.44 449.4,-21.17"/>
<polygon fill="#63b8ff" stroke="#63b8ff" points="378.84,-49.03 371.12,-56.28 381.68,-55.43 378.84,-49.03"/>
</g>
<!-- Node7&#45;&gt;Node4 -->
<g id="edge8" class="edge">
<title>Node7&#45;&gt;Node4</title>
<path fill="none" stroke="#63b8ff" d="M345.71,-185.21C343.18,-176.66 340.44,-167.43 338.21,-159.88"/>
<polygon fill="#63b8ff" stroke="#63b8ff" points="342.56,-185.91 348.76,-194.5 349.28,-183.92 342.56,-185.91"/>
</g>
<!-- Node8&#45;&gt;Node4 -->
<g id="edge10" class="edge">
<title>Node8&#45;&gt;Node4</title>
<path fill="none" stroke="#63b8ff" d="M138.03,-192.87C179.29,-182.55 230.05,-169.86 269.51,-160"/>
<polygon fill="#63b8ff" stroke="#63b8ff" points="137.34,-189.68 128.49,-195.5 139.04,-196.47 137.34,-189.68"/>
</g>
<!-- Node9&#45;&gt;Node4 -->
<g id="edge12" class="edge">
<title>Node9&#45;&gt;Node4</title>
<path fill="none" stroke="#63b8ff" d="M448.88,-191.2C424.59,-181.26 395.75,-169.47 372.98,-160.15"/>
<polygon fill="#63b8ff" stroke="#63b8ff" points="447.4,-194.79 457.98,-195.33 450.05,-188.31 447.4,-194.79"/>
</g>
<!-- Node10 -->
<g id="node10" class="node">
<title>Node10</title>
<g id="a_node10"><a xlink:href="../../d9/d8c/_transform_8hpp.html" target="_top" xlink:title=" ">
<polygon fill="white" stroke="#666666" points="581,-159.75 454,-159.75 454,-126.25 581,-126.25 581,-159.75"/>
<text text-anchor="start" x="462" y="-146.25" font-family="Helvetica,sans-Serif" font-size="10.00">Simple&#45;Utility/functional</text>
<text text-anchor="middle" x="517.5" y="-133.5" font-family="Helvetica,sans-Serif" font-size="10.00">/Transform.hpp</text>
</a>
</g>
</g>
<!-- Node9&#45;&gt;Node10 -->
<g id="edge13" class="edge">
<title>Node9&#45;&gt;Node10</title>
<path fill="none" stroke="#63b8ff" d="M505.98,-184.92C508.37,-176.45 510.93,-167.35 513.03,-159.88"/>
<polygon fill="#63b8ff" stroke="#63b8ff" points="502.34,-183.93 503,-194.5 509.08,-185.83 502.34,-183.93"/>
</g>
<!-- Node10&#45;&gt;Node5 -->
<g id="edge14" class="edge">
<title>Node10&#45;&gt;Node5</title>
<path fill="none" stroke="#63b8ff" d="M473.3,-120.06C462.21,-112.27 451.71,-102.36 445.5,-90.25 433.46,-66.77 451.92,-36.55 463.43,-21.23"/>
<polygon fill="#63b8ff" stroke="#63b8ff" points="470.96,-123.36 481.25,-125.86 474.76,-117.49 470.96,-123.36"/>
</g>
<!-- Node10&#45;&gt;Node6 -->
<g id="edge17" class="edge">
<title>Node10&#45;&gt;Node6</title>
<path fill="none" stroke="#63b8ff" d="M463.25,-122.1C435.94,-112.08 403.26,-100.09 377.53,-90.65"/>
<polygon fill="#63b8ff" stroke="#63b8ff" points="461.83,-125.67 472.43,-125.83 464.24,-119.1 461.83,-125.67"/>
</g>
<!-- Node11 -->
<g id="node11" class="node">
<title>Node11</title>
<g id="a_node11"><a xlink:href="../../d3/dc2/_arithmetic_8hpp.html" target="_top" xlink:title=" ">
<polygon fill="white" stroke="#666666" points="581,-90.25 454,-90.25 454,-56.75 581,-56.75 581,-90.25"/>
<text text-anchor="start" x="462" y="-76.75" font-family="Helvetica,sans-Serif" font-size="10.00">Simple&#45;Utility/functional</text>
<text text-anchor="middle" x="517.5" y="-64" font-family="Helvetica,sans-Serif" font-size="10.00">/Arithmetic.hpp</text>
</a>
</g>
</g>
<!-- Node10&#45;&gt;Node11 -->
<g id="edge15" class="edge">
<title>Node10&#45;&gt;Node11</title>
<path fill="none" stroke="#63b8ff" d="M517.5,-115.14C517.5,-106.75 517.5,-97.76 517.5,-90.38"/>
<polygon fill="#63b8ff" stroke="#63b8ff" points="514,-115 517.5,-125 521,-115 514,-115"/>
</g>
<!-- Node12 -->
<g id="node12" class="node">
<title>Node12</title>
<g id="a_node12"><a xlink:href="../../da/dae/functional_2_tuple_8hpp.html" target="_top" xlink:title=" ">
<polygon fill="white" stroke="#666666" points="871,-90.25 744,-90.25 744,-56.75 871,-56.75 871,-90.25"/>
<text text-anchor="start" x="752" y="-76.75" font-family="Helvetica,sans-Serif" font-size="10.00">Simple&#45;Utility/functional</text>
<text text-anchor="middle" x="807.5" y="-64" font-family="Helvetica,sans-Serif" font-size="10.00">/Tuple.hpp</text>
</a>
</g>
</g>
<!-- Node10&#45;&gt;Node12 -->
<g id="edge18" class="edge">
<title>Node10&#45;&gt;Node12</title>
<path fill="none" stroke="#63b8ff" d="M591.85,-124.69C638.76,-113.78 698.72,-99.82 743.51,-89.4"/>
<polygon fill="#63b8ff" stroke="#63b8ff" points="591.09,-121.51 582.14,-127.19 592.67,-128.33 591.09,-121.51"/>
</g>
<!-- Node13 -->
<g id="node13" class="node">
<title>Node13</title>
<g id="a_node13"><a xlink:href="../../de/d61/functional_2_utility_8hpp.html" target="_top" xlink:title=" ">
<polygon fill="white" stroke="#666666" points="726,-90.25 599,-90.25 599,-56.75 726,-56.75 726,-90.25"/>
<text text-anchor="start" x="607" y="-76.75" font-family="Helvetica,sans-Serif" font-size="10.00">Simple&#45;Utility/functional</text>
<text text-anchor="middle" x="662.5" y="-64" font-family="Helvetica,sans-Serif" font-size="10.00">/Utility.hpp</text>
</a>
</g>
</g>
<!-- Node10&#45;&gt;Node13 -->
<g id="edge20" class="edge">
<title>Node10&#45;&gt;Node13</title>
<path fill="none" stroke="#63b8ff" d="M561.97,-121.3C583.13,-111.45 608.06,-99.84 627.8,-90.65"/>
<polygon fill="#63b8ff" stroke="#63b8ff" points="560.82,-118.44 553.23,-125.83 563.77,-124.78 560.82,-118.44"/>
</g>
<!-- Node11&#45;&gt;Node5 -->
<g id="edge16" class="edge">
<title>Node11&#45;&gt;Node5</title>
<path fill="none" stroke="#63b8ff" d="M498.95,-47.85C491.92,-38.51 484.32,-28.42 478.91,-21.22"/>
<polygon fill="#63b8ff" stroke="#63b8ff" points="496.6,-49.55 505.41,-55.44 502.2,-45.35 496.6,-49.55"/>
</g>
<!-- Node12&#45;&gt;Node5 -->
<g id="edge19" class="edge">
<title>Node12&#45;&gt;Node5</title>
<path fill="none" stroke="#63b8ff" d="M733.16,-56.33C659.49,-42.1 584.71,-29.54 533.52,-21.22"/>
<polygon fill="#63b8ff" stroke="#63b8ff" points="732.06,-59.88 742.54,-58.35 733.39,-53.01 732.06,-59.88"/>
</g>
<!-- Node13&#45;&gt;Node5 -->
<g id="edge21" class="edge">
<title>Node13&#45;&gt;Node5</title>
<path fill="none" stroke="#63b8ff" d="M601.74,-53.06C568.54,-42.43 528.86,-29.73 502.09,-21.17"/>
<polygon fill="#63b8ff" stroke="#63b8ff" points="600.23,-56.57 610.82,-56.28 602.36,-49.9 600.23,-56.57"/>
</g>
<!-- Node14&#45;&gt;Node12 -->
<g id="edge27" class="edge">
<title>Node14&#45;&gt;Node12</title>
<path fill="none" stroke="#63b8ff" d="M631.62,-463.08C689.57,-446.38 766.5,-411.84 766.5,-346.12 766.5,-346.12 766.5,-346.12 766.5,-211.5 766.5,-166.07 787.45,-115.58 799.4,-90.48"/>
<polygon fill="#63b8ff" stroke="#63b8ff" points="630.75,-459.97 622.04,-466 632.61,-466.71 630.75,-459.97"/>
</g>
<!-- Node15 -->
<g id="node15" class="node">
<title>Node15</title>
<g id="a_node15"><a xlink:href="../../d5/d7b/_tuple_8hpp.html" target="_top" xlink:title=" ">
<polygon fill="white" stroke="#666666" points="601,-355.5 474,-355.5 474,-334.75 601,-334.75 601,-355.5"/>
<text text-anchor="middle" x="537.5" y="-342" font-family="Helvetica,sans-Serif" font-size="10.00">Simple&#45;Utility/Tuple.hpp</text>
</a>
</g>
</g>
<!-- Node14&#45;&gt;Node15 -->
<g id="edge24" class="edge">
<title>Node14&#45;&gt;Node15</title>
<path fill="none" stroke="#63b8ff" d="M531.6,-454.13C521.95,-446.21 512.78,-436.4 507.5,-425 501.24,-411.49 503.21,-405.76 507.5,-391.5 511.63,-377.75 521.43,-364.33 528.72,-355.7"/>
<polygon fill="#63b8ff" stroke="#63b8ff" points="529.03,-457.33 539.12,-460.59 533.26,-451.76 529.03,-457.33"/>
</g>
<!-- Node16 -->
<g id="node16" class="node">
<title>Node16</title>
<g id="a_node16"><a xlink:href="../../d7/df7/_invoke_policies_8hpp.html" target="_top" xlink:title=" ">
<polygon fill="white" stroke="#666666" points="716.5,-229.25 580.5,-229.25 580.5,-195.75 716.5,-195.75 716.5,-229.25"/>
<text text-anchor="start" x="588.5" y="-215.75" font-family="Helvetica,sans-Serif" font-size="10.00">Simple&#45;Utility/functional</text>
<text text-anchor="middle" x="648.5" y="-203" font-family="Helvetica,sans-Serif" font-size="10.00">/mixins/InvokePolicies.hpp</text>
</a>
</g>
</g>
<!-- Node14&#45;&gt;Node16 -->
<g id="edge28" class="edge">
<title>Node14&#45;&gt;Node16</title>
<path fill="none" stroke="#63b8ff" d="M604.52,-454.02C614.24,-446.06 623.66,-436.25 629.5,-425 663.62,-359.22 655.87,-266.35 650.97,-229.48"/>
<polygon fill="#63b8ff" stroke="#63b8ff" points="602.82,-451.68 596.99,-460.53 607.06,-457.25 602.82,-451.68"/>
</g>
<!-- Node17 -->
<g id="node17" class="node">
<title>Node17</title>
<g id="a_node17"><a xlink:href="../../dc/d83/_algorithm_8hpp.html" target="_top" xlink:title=" ">
<polygon fill="white" stroke="#666666" points="620.75,-425 516.25,-425 516.25,-391.5 620.75,-391.5 620.75,-425"/>
<text text-anchor="start" x="524.25" y="-411.5" font-family="Helvetica,sans-Serif" font-size="10.00">Simple&#45;Utility/tuple</text>
<text text-anchor="middle" x="568.5" y="-398.75" font-family="Helvetica,sans-Serif" font-size="10.00">/Algorithm.hpp</text>
</a>
</g>
</g>
<!-- Node14&#45;&gt;Node17 -->
<g id="edge31" class="edge">
<title>Node14&#45;&gt;Node17</title>
<path fill="none" stroke="#63b8ff" d="M568.5,-449.89C568.5,-441.5 568.5,-432.51 568.5,-425.13"/>
<polygon fill="#63b8ff" stroke="#63b8ff" points="565,-449.75 568.5,-459.75 572,-449.75 565,-449.75"/>
</g>
<!-- Node15&#45;&gt;Node2 -->
<g id="edge25" class="edge">
<title>Node15&#45;&gt;Node2</title>
<path fill="none" stroke="#63b8ff" d="M497.73,-330.91C469.76,-321.62 432.17,-309.13 402.37,-299.23"/>
<polygon fill="#63b8ff" stroke="#63b8ff" points="496.34,-334.47 506.94,-334.3 498.55,-327.83 496.34,-334.47"/>
</g>
<!-- Node15&#45;&gt;Node9 -->
<g id="edge26" class="edge">
<title>Node15&#45;&gt;Node9</title>
<path fill="none" stroke="#63b8ff" d="M531.43,-323.78C523.64,-297.72 510.32,-253.09 503.24,-229.38"/>
<polygon fill="#63b8ff" stroke="#63b8ff" points="528.35,-324.73 534.57,-333.31 535.06,-322.72 528.35,-324.73"/>
</g>
<!-- Node16&#45;&gt;Node4 -->
<g id="edge29" class="edge">
<title>Node16&#45;&gt;Node4</title>
<path fill="none" stroke="#63b8ff" d="M569.4,-194.55C516.25,-183.16 447.09,-168.34 397.42,-157.7"/>
<polygon fill="#63b8ff" stroke="#63b8ff" points="568.64,-198.18 579.15,-196.85 570.11,-191.34 568.64,-198.18"/>
</g>
<!-- Node16&#45;&gt;Node10 -->
<g id="edge30" class="edge">
<title>Node16&#45;&gt;Node10</title>
<path fill="none" stroke="#63b8ff" d="M607.51,-190.38C588.49,-180.58 566.24,-169.11 548.62,-160.04"/>
<polygon fill="#63b8ff" stroke="#63b8ff" points="605.63,-193.86 616.12,-195.33 608.84,-187.64 605.63,-193.86"/>
</g>
<!-- Node17&#45;&gt;Node15 -->
<g id="edge32" class="edge">
<title>Node17&#45;&gt;Node15</title>
<path fill="none" stroke="#63b8ff" d="M555.41,-381.44C550.84,-372.43 545.99,-362.87 542.49,-355.97"/>
<polygon fill="#63b8ff" stroke="#63b8ff" points="552.71,-382.85 560.36,-390.19 558.95,-379.69 552.71,-382.85"/>
</g>
</g>
</svg>
