<?xml version="1.0" encoding="UTF-8" standalone="no"?>
<!DOCTYPE svg PUBLIC "-//W3C//DTD SVG 1.1//EN"
 "http://www.w3.org/Graphics/SVG/1.1/DTD/svg11.dtd">
<!-- Generated by graphviz version 7.0.5 (20221223.1930)
 -->
<!-- Title: Simple&#45;Utility/Config.hpp Pages: 1 -->
<!--zoomable 412 -->
<svg id="main" version="1.1" xmlns="http://www.w3.org/2000/svg" xmlns:xlink="http://www.w3.org/1999/xlink" xml:space="preserve" onload="init(evt)">
<style type="text/css"><![CDATA[
.edge:hover path { stroke: red; }
.edge:hover polygon { stroke: red; fill: red; }
]]></style>
<script type="text/javascript"><![CDATA[
var edges = document.getElementsByTagName('g');
if (edges && edges.length) {
  for (var i=0;i<edges.length;i++) {
    if (edges[i].id.substr(0,4)=='edge') {
      edges[i].setAttribute('class','edge');
    }
  }
}
]]></script>
        <defs>
                <circle id="rim" cx="0" cy="0" r="7"/>
                <circle id="rim2" cx="0" cy="0" r="3.5"/>
                <g id="zoomPlus">
                        <use xlink:href="#rim" fill="#404040">
                                <set attributeName="fill" to="#808080" begin="zoomplus.mouseover" end="zoomplus.mouseout"/>
                        </use>
                        <path d="M-4,0h8M0,-4v8" fill="none" stroke="white" stroke-width="1.5" pointer-events="none"/>
                </g>
                <g id="zoomMin">
                        <use xlink:href="#rim" fill="#404040">
                                <set attributeName="fill" to="#808080" begin="zoomminus.mouseover" end="zoomminus.mouseout"/>
                        </use>
                        <path d="M-4,0h8" fill="none" stroke="white" stroke-width="1.5" pointer-events="none"/>
                </g>
                <g id="dirArrow">
                        <path fill="none" stroke="white" stroke-width="1.5" d="M0,-3.0v7 M-2.5,-0.5L0,-3.0L2.5,-0.5"/>
                </g>
               <g id="resetDef">
                       <use xlink:href="#rim2" fill="#404040">
                               <set attributeName="fill" to="#808080" begin="reset.mouseover" end="reset.mouseout"/>
                       </use>
               </g>
        </defs>

<script type="text/javascript">
var viewWidth = 2132;
var viewHeight = 412;
var sectionId = 'dynsection-0';
</script>
<script xlink:href="../../svgpan.js"/>
<svg id="graph" class="graph">
<g id="viewport">
<title>Simple&#45;Utility/Config.hpp</title>
<!-- Node1 -->
<g id="node1" class="node">
<title>Node1</title>
<g id="a_node1"><a xlink:title=" ">
<polygon fill="#999999" stroke="#666666" points="1881,-404 1748,-404 1748,-385 1881,-385 1881,-404"/>
<text text-anchor="middle" x="1814.5" y="-392" font-family="Helvetica,sans-Serif" font-size="10.00">Simple&#45;Utility/Config.hpp</text>
</a>
</g>
</g>
<!-- Node2 -->
<g id="node2" class="node">
<title>Node2</title>
<g id="a_node2"><a xlink:href="../../d2/dc8/bind__back_8hpp.html" target="_top" xlink:title=" ">
<polygon fill="white" stroke="#666666" points="1826.5,-349 1724.5,-349 1724.5,-319 1826.5,-319 1826.5,-349"/>
<text text-anchor="start" x="1732.5" y="-337" font-family="Helvetica,sans-Serif" font-size="10.00">Simple&#45;Utility/bind</text>
<text text-anchor="middle" x="1775.5" y="-326" font-family="Helvetica,sans-Serif" font-size="10.00">_back.hpp</text>
</a>
</g>
</g>
<!-- Node1&#45;&gt;Node2 -->
<g id="edge1" class="edge">
<title>Node1&#45;&gt;Node2</title>
<path fill="none" stroke="#63b8ff" d="M1802.5,-375.5C1796.84,-367.01 1790.19,-357.04 1784.91,-349.11"/>
<polygon fill="#63b8ff" stroke="#63b8ff" points="1799.45,-377.23 1807.91,-383.61 1805.27,-373.35 1799.45,-377.23"/>
</g>
<!-- Node5 -->
<g id="node5" class="node">
<title>Node5</title>
<g id="a_node5"><a xlink:href="../../d1/d76/functional_2base_8hpp.html" target="_top" xlink:title=" ">
<polygon fill="white" stroke="#666666" points="797.5,-349 669.5,-349 669.5,-319 797.5,-319 797.5,-349"/>
<text text-anchor="start" x="677.5" y="-337" font-family="Helvetica,sans-Serif" font-size="10.00">Simple&#45;Utility/functional</text>
<text text-anchor="middle" x="733.5" y="-326" font-family="Helvetica,sans-Serif" font-size="10.00">/base.hpp</text>
</a>
</g>
</g>
<!-- Node1&#45;&gt;Node5 -->
<g id="edge4" class="edge">
<title>Node1&#45;&gt;Node5</title>
<path fill="none" stroke="#63b8ff" d="M1736.49,-389.28C1532.4,-378.23 985.54,-348.64 797.81,-338.48"/>
<polygon fill="#63b8ff" stroke="#63b8ff" points="1736.01,-392.76 1746.18,-389.8 1736.39,-385.77 1736.01,-392.76"/>
</g>
<!-- Node18 -->
<g id="node18" class="node">
<title>Node18</title>
<g id="a_node18"><a xlink:href="../../d6/dca/adapter_8hpp.html" target="_top" xlink:title=" ">
<polygon fill="white" stroke="#666666" points="1955,-151 1832,-151 1832,-121 1955,-121 1955,-151"/>
<text text-anchor="start" x="1840" y="-139" font-family="Helvetica,sans-Serif" font-size="10.00">Simple&#45;Utility/nullables</text>
<text text-anchor="middle" x="1893.5" y="-128" font-family="Helvetica,sans-Serif" font-size="10.00">/adapter.hpp</text>
</a>
</g>
</g>
<!-- Node1&#45;&gt;Node18 -->
<g id="edge62" class="edge">
<title>Node1&#45;&gt;Node18</title>
<path fill="none" stroke="#63b8ff" d="M1824.29,-374.65C1828.1,-366.84 1832.32,-357.61 1835.5,-349 1862.28,-276.52 1882.99,-186.06 1890.47,-151.41"/>
<polygon fill="#63b8ff" stroke="#63b8ff" points="1821.21,-372.97 1819.83,-383.48 1827.46,-376.13 1821.21,-372.97"/>
</g>
<!-- Node21 -->
<g id="node21" class="node">
<title>Node21</title>
<g id="a_node21"><a xlink:href="../../d0/d0f/unique__handle_8hpp.html" target="_top" xlink:title=" ">
<polygon fill="white" stroke="#666666" points="2123.5,-151 2011.5,-151 2011.5,-121 2123.5,-121 2123.5,-151"/>
<text text-anchor="start" x="2019.5" y="-139" font-family="Helvetica,sans-Serif" font-size="10.00">Simple&#45;Utility/unique</text>
<text text-anchor="middle" x="2067.5" y="-128" font-family="Helvetica,sans-Serif" font-size="10.00">_handle.hpp</text>
</a>
</g>
</g>
<!-- Node1&#45;&gt;Node21 -->
<g id="edge63" class="edge">
<title>Node1&#45;&gt;Node21</title>
<path fill="none" stroke="#63b8ff" d="M1848.53,-380.15C1888.65,-362.94 1955.19,-329.58 1997.5,-283 2034.16,-242.63 2055.46,-179.6 2063.62,-151.44"/>
<polygon fill="#63b8ff" stroke="#63b8ff" points="1847.23,-376.9 1839.36,-383.99 1849.93,-383.35 1847.23,-376.9"/>
</g>
<!-- Node3 -->
<g id="node3" class="node">
<title>Node3</title>
<g id="a_node3"><a xlink:href="../../d0/d48/value__or_8hpp.html" target="_top" xlink:title=" ">
<polygon fill="white" stroke="#666666" points="1814,-151 1691,-151 1691,-121 1814,-121 1814,-151"/>
<text text-anchor="start" x="1699" y="-139" font-family="Helvetica,sans-Serif" font-size="10.00">Simple&#45;Utility/nullables</text>
<text text-anchor="middle" x="1752.5" y="-128" font-family="Helvetica,sans-Serif" font-size="10.00">/value_or.hpp</text>
</a>
</g>
</g>
<!-- Node2&#45;&gt;Node3 -->
<g id="edge2" class="edge">
<title>Node2&#45;&gt;Node3</title>
<path fill="none" stroke="#63b8ff" d="M1772.47,-307.22C1767.57,-265.46 1758.06,-184.37 1754.19,-151.43"/>
<polygon fill="#63b8ff" stroke="#63b8ff" points="1768.99,-307.56 1773.63,-317.08 1775.94,-306.74 1768.99,-307.56"/>
</g>
<!-- Node4 -->
<g id="node4" class="node">
<title>Node4</title>
<g id="a_node4"><a xlink:href="../../d3/ddc/nullables_8hpp.html" target="_top" xlink:title=" ">
<polygon fill="white" stroke="#666666" points="1497,-79.5 1354,-79.5 1354,-60.5 1497,-60.5 1497,-79.5"/>
<text text-anchor="middle" x="1425.5" y="-67.5" font-family="Helvetica,sans-Serif" font-size="10.00">Simple&#45;Utility/nullables.hpp</text>
</a>
</g>
</g>
<!-- Node3&#45;&gt;Node4 -->
<g id="edge3" class="edge">
<title>Node3&#45;&gt;Node4</title>
<path fill="none" stroke="#63b8ff" d="M1679.63,-120.44C1601.31,-105.01 1521.11,-89.46 1471.94,-79.96"/>
<polygon fill="#63b8ff" stroke="#63b8ff" points="1678.69,-123.82 1689.18,-122.32 1680.05,-116.95 1678.69,-123.82"/>
</g>
<!-- Node6 -->
<g id="node6" class="node">
<title>Node6</title>
<g id="a_node6"><a xlink:href="../../d2/db4/functional_8hpp.html" target="_top" xlink:title=" ">
<polygon fill="white" stroke="#666666" points="667.5,-19 519.5,-19 519.5,0 667.5,0 667.5,-19"/>
<text text-anchor="middle" x="593.5" y="-7" font-family="Helvetica,sans-Serif" font-size="10.00">Simple&#45;Utility/functional.hpp</text>
</a>
</g>
</g>
<!-- Node5&#45;&gt;Node6 -->
<g id="edge5" class="edge">
<title>Node5&#45;&gt;Node6</title>
<path fill="none" stroke="#63b8ff" d="M808.89,-333.12C1079.15,-332.55 1983.5,-321.77 1983.5,-203 1983.5,-203 1983.5,-203 1983.5,-135 1983.5,79.96 1720.47,-75.59 1506.5,-55 1195.9,-25.12 823.82,-14.89 667.93,-11.75"/>
<polygon fill="#63b8ff" stroke="#63b8ff" points="809.15,-329.61 799.15,-333.13 809.16,-336.61 809.15,-329.61"/>
</g>
<!-- Node7 -->
<g id="node7" class="node">
<title>Node7</title>
<g id="a_node7"><a xlink:href="../../d9/d76/bind_8hpp.html" target="_top" xlink:title=" ">
<polygon fill="white" stroke="#666666" points="1056.5,-283 928.5,-283 928.5,-253 1056.5,-253 1056.5,-283"/>
<text text-anchor="start" x="936.5" y="-271" font-family="Helvetica,sans-Serif" font-size="10.00">Simple&#45;Utility/functional</text>
<text text-anchor="middle" x="992.5" y="-260" font-family="Helvetica,sans-Serif" font-size="10.00">/operators/bind.hpp</text>
</a>
</g>
</g>
<!-- Node5&#45;&gt;Node7 -->
<g id="edge6" class="edge">
<title>Node5&#45;&gt;Node7</title>
<path fill="none" stroke="#63b8ff" d="M802.96,-315.84C843.99,-305.7 895.36,-293 934.27,-283.39"/>
<polygon fill="#63b8ff" stroke="#63b8ff" points="802.29,-312.4 793.42,-318.19 803.96,-319.19 802.29,-312.4"/>
</g>
<!-- Node8 -->
<g id="node8" class="node">
<title>Node8</title>
<g id="a_node8"><a xlink:href="../../d2/d7e/predicate_8hpp.html" target="_top" xlink:title=" ">
<polygon fill="white" stroke="#666666" points="535.5,-151 407.5,-151 407.5,-121 535.5,-121 535.5,-151"/>
<text text-anchor="start" x="415.5" y="-139" font-family="Helvetica,sans-Serif" font-size="10.00">Simple&#45;Utility/functional</text>
<text text-anchor="middle" x="471.5" y="-128" font-family="Helvetica,sans-Serif" font-size="10.00">/predicate.hpp</text>
</a>
</g>
</g>
<!-- Node5&#45;&gt;Node8 -->
<g id="edge59" class="edge">
<title>Node5&#45;&gt;Node8</title>
<path fill="none" stroke="#63b8ff" d="M657.75,-331.05C579.02,-327.24 463.44,-316.02 435.5,-283 426.89,-272.82 432.58,-266.01 435.5,-253 439.37,-235.73 446.65,-233.7 452.5,-217 460.34,-194.64 466,-167.64 469.01,-151.42"/>
<polygon fill="#63b8ff" stroke="#63b8ff" points="657.42,-334.54 667.57,-331.5 657.74,-327.55 657.42,-334.54"/>
</g>
<!-- Node10 -->
<g id="node10" class="node">
<title>Node10</title>
<g id="a_node10"><a xlink:href="../../d6/deb/transform_8hpp.html" target="_top" xlink:title=" ">
<polygon fill="white" stroke="#666666" points="906.5,-217 778.5,-217 778.5,-187 906.5,-187 906.5,-217"/>
<text text-anchor="start" x="786.5" y="-205" font-family="Helvetica,sans-Serif" font-size="10.00">Simple&#45;Utility/functional</text>
<text text-anchor="middle" x="842.5" y="-194" font-family="Helvetica,sans-Serif" font-size="10.00">/transform.hpp</text>
</a>
</g>
</g>
<!-- Node5&#45;&gt;Node10 -->
<g id="edge60" class="edge">
<title>Node5&#45;&gt;Node10</title>
<path fill="none" stroke="#63b8ff" d="M809.2,-325.66C836.53,-318.92 864.75,-306.34 881.5,-283 896.64,-261.91 875.11,-234.05 858.52,-217.38"/>
<polygon fill="#63b8ff" stroke="#63b8ff" points="808.48,-322.23 799.46,-327.8 809.98,-329.07 808.48,-322.23"/>
</g>
<!-- Node17 -->
<g id="node17" class="node">
<title>Node17</title>
<g id="a_node17"><a xlink:href="../../d6/dbe/nullables_2base_8hpp.html" target="_top" xlink:title=" ">
<polygon fill="white" stroke="#666666" points="1442,-217 1319,-217 1319,-187 1442,-187 1442,-217"/>
<text text-anchor="start" x="1327" y="-205" font-family="Helvetica,sans-Serif" font-size="10.00">Simple&#45;Utility/nullables</text>
<text text-anchor="middle" x="1380.5" y="-194" font-family="Helvetica,sans-Serif" font-size="10.00">/base.hpp</text>
</a>
</g>
</g>
<!-- Node5&#45;&gt;Node17 -->
<g id="edge61" class="edge">
<title>Node5&#45;&gt;Node17</title>
<path fill="none" stroke="#63b8ff" d="M809.16,-323.78C876.69,-315.04 978.13,-300.63 1065.5,-283 1159.8,-263.97 1268.22,-234.8 1330.12,-217.44"/>
<polygon fill="#63b8ff" stroke="#63b8ff" points="808.76,-320.3 799.29,-325.05 809.65,-327.25 808.76,-320.3"/>
</g>
<!-- Node22 -->
<g id="node22" class="node">
<title>Node22</title>
<g id="a_node22"><a xlink:href="../../df/d80/conjunction_8hpp.html" target="_top" xlink:title=" ">
<polygon fill="white" stroke="#666666" points="141,-217 0,-217 0,-187 141,-187 141,-217"/>
<text text-anchor="start" x="8" y="-205" font-family="Helvetica,sans-Serif" font-size="10.00">Simple&#45;Utility/functional</text>
<text text-anchor="middle" x="70.5" y="-194" font-family="Helvetica,sans-Serif" font-size="10.00">/operators/conjunction.hpp</text>
</a>
</g>
</g>
<!-- Node5&#45;&gt;Node22 -->
<g id="edge41" class="edge">
<title>Node5&#45;&gt;Node22</title>
<path fill="none" stroke="#63b8ff" d="M657.65,-328.83C572.01,-323.02 428.92,-310.02 308.5,-283 234.7,-266.44 151.62,-235.58 105.73,-217.41"/>
<polygon fill="#63b8ff" stroke="#63b8ff" points="657.36,-332.32 667.57,-329.48 657.82,-325.33 657.36,-332.32"/>
</g>
<!-- Node23 -->
<g id="node23" class="node">
<title>Node23</title>
<g id="a_node23"><a xlink:href="../../d4/d7c/disjunction_8hpp.html" target="_top" xlink:title=" ">
<polygon fill="white" stroke="#666666" points="296,-217 159,-217 159,-187 296,-187 296,-217"/>
<text text-anchor="start" x="167" y="-205" font-family="Helvetica,sans-Serif" font-size="10.00">Simple&#45;Utility/functional</text>
<text text-anchor="middle" x="227.5" y="-194" font-family="Helvetica,sans-Serif" font-size="10.00">/operators/disjunction.hpp</text>
</a>
</g>
</g>
<!-- Node5&#45;&gt;Node23 -->
<g id="edge44" class="edge">
<title>Node5&#45;&gt;Node23</title>
<path fill="none" stroke="#63b8ff" d="M657.83,-329.63C585.4,-324.69 473.84,-312.59 381.5,-283 331.58,-267 278.37,-235.79 249.41,-217.44"/>
<polygon fill="#63b8ff" stroke="#63b8ff" points="657.39,-333.11 667.59,-330.26 657.84,-326.12 657.39,-333.11"/>
</g>
<!-- Node24 -->
<g id="node24" class="node">
<title>Node24</title>
<g id="a_node24"><a xlink:href="../../dc/d0a/equal_8hpp.html" target="_top" xlink:title=" ">
<polygon fill="white" stroke="#666666" points="572.5,-283 444.5,-283 444.5,-253 572.5,-253 572.5,-283"/>
<text text-anchor="start" x="452.5" y="-271" font-family="Helvetica,sans-Serif" font-size="10.00">Simple&#45;Utility/functional</text>
<text text-anchor="middle" x="508.5" y="-260" font-family="Helvetica,sans-Serif" font-size="10.00">/operators/equal.hpp</text>
</a>
</g>
</g>
<!-- Node5&#45;&gt;Node24 -->
<g id="edge47" class="edge">
<title>Node5&#45;&gt;Node24</title>
<path fill="none" stroke="#63b8ff" d="M672.02,-315.51C636.56,-305.43 592.53,-292.9 559.09,-283.39"/>
<polygon fill="#63b8ff" stroke="#63b8ff" points="670.69,-318.77 681.27,-318.14 672.61,-312.04 670.69,-318.77"/>
</g>
<!-- Node25 -->
<g id="node25" class="node">
<title>Node25</title>
<g id="a_node25"><a xlink:href="../../d7/dd0/equivalent_8hpp.html" target="_top" xlink:title=" ">
<polygon fill="white" stroke="#666666" points="726,-283 591,-283 591,-253 726,-253 726,-283"/>
<text text-anchor="start" x="599" y="-271" font-family="Helvetica,sans-Serif" font-size="10.00">Simple&#45;Utility/functional</text>
<text text-anchor="middle" x="658.5" y="-260" font-family="Helvetica,sans-Serif" font-size="10.00">/operators/equivalent.hpp</text>
</a>
</g>
</g>
<!-- Node5&#45;&gt;Node25 -->
<g id="edge49" class="edge">
<title>Node5&#45;&gt;Node25</title>
<path fill="none" stroke="#63b8ff" d="M708.21,-311.42C697.39,-302.18 685.04,-291.65 675.36,-283.39"/>
<polygon fill="#63b8ff" stroke="#63b8ff" points="705.82,-313.99 715.7,-317.81 710.37,-308.66 705.82,-313.99"/>
</g>
<!-- Node26 -->
<g id="node26" class="node">
<title>Node26</title>
<g id="a_node26"><a xlink:href="../../d8/dea/negation_8hpp.html" target="_top" xlink:title=" ">
<polygon fill="white" stroke="#666666" points="443,-217 314,-217 314,-187 443,-187 443,-217"/>
<text text-anchor="start" x="322" y="-205" font-family="Helvetica,sans-Serif" font-size="10.00">Simple&#45;Utility/functional</text>
<text text-anchor="middle" x="378.5" y="-194" font-family="Helvetica,sans-Serif" font-size="10.00">/operators/negation.hpp</text>
</a>
</g>
</g>
<!-- Node5&#45;&gt;Node26 -->
<g id="edge51" class="edge">
<title>Node5&#45;&gt;Node26</title>
<path fill="none" stroke="#63b8ff" d="M657.89,-330.76C572.21,-326.69 439.63,-315.21 402.5,-283 383.44,-266.47 379.2,-235.45 378.44,-217.28"/>
<polygon fill="#63b8ff" stroke="#63b8ff" points="657.47,-334.25 667.62,-331.2 657.79,-327.25 657.47,-334.25"/>
</g>
<!-- Node27 -->
<g id="node27" class="node">
<title>Node27</title>
<g id="a_node27"><a xlink:href="../../d5/db7/pipe_8hpp.html" target="_top" xlink:title=" ">
<polygon fill="white" stroke="#666666" points="872.5,-283 744.5,-283 744.5,-253 872.5,-253 872.5,-283"/>
<text text-anchor="start" x="752.5" y="-271" font-family="Helvetica,sans-Serif" font-size="10.00">Simple&#45;Utility/functional</text>
<text text-anchor="middle" x="808.5" y="-260" font-family="Helvetica,sans-Serif" font-size="10.00">/operators/pipe.hpp</text>
</a>
</g>
</g>
<!-- Node5&#45;&gt;Node27 -->
<g id="edge54" class="edge">
<title>Node5&#45;&gt;Node27</title>
<path fill="none" stroke="#63b8ff" d="M758.79,-311.42C769.61,-302.18 781.96,-291.65 791.64,-283.39"/>
<polygon fill="#63b8ff" stroke="#63b8ff" points="756.63,-308.66 751.3,-317.81 761.18,-313.99 756.63,-308.66"/>
</g>
<!-- Node7&#45;&gt;Node6 -->
<g id="edge7" class="edge">
<title>Node7&#45;&gt;Node6</title>
<path fill="none" stroke="#63b8ff" d="M971.54,-244.33C945.72,-213.6 908.74,-158.3 938.5,-121 983.42,-64.7 1051.58,-141.3 1096.5,-85 1104.82,-74.58 1105.5,-64.83 1096.5,-55 1068.16,-24.04 800.75,-14.5 667.8,-11.66"/>
<polygon fill="#63b8ff" stroke="#63b8ff" points="968.59,-246.27 977.79,-251.53 973.87,-241.68 968.59,-246.27"/>
</g>
<!-- Node7&#45;&gt;Node8 -->
<g id="edge8" class="edge">
<title>Node7&#45;&gt;Node8</title>
<path fill="none" stroke="#63b8ff" d="M917.38,-250.98C874.05,-241.53 818.59,-229.09 769.5,-217 682.51,-195.58 581.99,-168 522.75,-151.46"/>
<polygon fill="#63b8ff" stroke="#63b8ff" points="916.42,-254.35 926.93,-253.05 917.9,-247.51 916.42,-254.35"/>
</g>
<!-- Node7&#45;&gt;Node10 -->
<g id="edge12" class="edge">
<title>Node7&#45;&gt;Node10</title>
<path fill="none" stroke="#63b8ff" d="M948.3,-248.14C925.29,-238.32 897.59,-226.51 876.31,-217.43"/>
<polygon fill="#63b8ff" stroke="#63b8ff" points="946.87,-251.34 957.44,-252.04 949.62,-244.9 946.87,-251.34"/>
</g>
<!-- Node7&#45;&gt;Node17 -->
<g id="edge28" class="edge">
<title>Node7&#45;&gt;Node17</title>
<path fill="none" stroke="#63b8ff" d="M1067.52,-254.63C1140.59,-242.57 1250.34,-224.47 1318.58,-213.21"/>
<polygon fill="#63b8ff" stroke="#63b8ff" points="1067.36,-251.1 1058.06,-256.19 1068.5,-258.01 1067.36,-251.1"/>
</g>
<!-- Node8&#45;&gt;Node6 -->
<g id="edge9" class="edge">
<title>Node8&#45;&gt;Node6</title>
<path fill="none" stroke="#63b8ff" d="M451.59,-111.78C439.57,-94.82 428.82,-71.93 441.5,-55 453.41,-39.1 500.3,-26.97 538.89,-19.42"/>
<polygon fill="#63b8ff" stroke="#63b8ff" points="448.49,-113.48 457.33,-119.31 454.05,-109.24 448.49,-113.48"/>
</g>
<!-- Node9 -->
<g id="node9" class="node">
<title>Node9</title>
<g id="a_node9"><a xlink:href="../../dd/d3f/compare_8hpp.html" target="_top" xlink:title=" ">
<polygon fill="white" stroke="#666666" points="611.5,-85 483.5,-85 483.5,-55 611.5,-55 611.5,-85"/>
<text text-anchor="start" x="491.5" y="-73" font-family="Helvetica,sans-Serif" font-size="10.00">Simple&#45;Utility/functional</text>
<text text-anchor="middle" x="547.5" y="-62" font-family="Helvetica,sans-Serif" font-size="10.00">/compare.hpp</text>
</a>
</g>
</g>
<!-- Node8&#45;&gt;Node9 -->
<g id="edge10" class="edge">
<title>Node8&#45;&gt;Node9</title>
<path fill="none" stroke="#63b8ff" d="M497.12,-113.42C508.09,-104.18 520.61,-93.65 530.42,-85.39"/>
<polygon fill="#63b8ff" stroke="#63b8ff" points="494.92,-110.7 489.52,-119.82 499.43,-116.06 494.92,-110.7"/>
</g>
<!-- Node9&#45;&gt;Node6 -->
<g id="edge11" class="edge">
<title>Node9&#45;&gt;Node6</title>
<path fill="none" stroke="#63b8ff" d="M565.87,-45.64C573.2,-36.32 581.19,-26.16 586.68,-19.18"/>
<polygon fill="#63b8ff" stroke="#63b8ff" points="563.24,-43.33 559.81,-53.35 568.74,-47.65 563.24,-43.33"/>
</g>
<!-- Node10&#45;&gt;Node3 -->
<g id="edge27" class="edge">
<title>Node10&#45;&gt;Node3</title>
<path fill="none" stroke="#63b8ff" d="M917.94,-199.99C1065.41,-197.25 1402.02,-187.22 1682.5,-151 1685.2,-150.65 1687.96,-150.26 1690.74,-149.83"/>
<polygon fill="#63b8ff" stroke="#63b8ff" points="918.25,-196.49 908.31,-200.16 918.38,-203.48 918.25,-196.49"/>
</g>
<!-- Node10&#45;&gt;Node6 -->
<g id="edge13" class="edge">
<title>Node10&#45;&gt;Node6</title>
<path fill="none" stroke="#63b8ff" d="M804.45,-181.31C765.63,-160.27 704.72,-124.56 658.5,-85 633.98,-64.02 610.42,-33.67 599.63,-19.04"/>
<polygon fill="#63b8ff" stroke="#63b8ff" points="802.49,-184.23 812.96,-185.87 805.8,-178.06 802.49,-184.23"/>
</g>
<!-- Node10&#45;&gt;Node9 -->
<g id="edge16" class="edge">
<title>Node10&#45;&gt;Node9</title>
<path fill="none" stroke="#63b8ff" d="M767.15,-188.31C714.55,-178.58 649.61,-164.56 625.5,-151 596.08,-134.46 570.62,-103.44 557.33,-85.27"/>
<polygon fill="#63b8ff" stroke="#63b8ff" points="766.21,-191.7 776.68,-190.05 767.47,-184.81 766.21,-191.7"/>
</g>
<!-- Node11 -->
<g id="node11" class="node">
<title>Node11</title>
<g id="a_node11"><a xlink:href="../../d3/d23/arithmetic_8hpp.html" target="_top" xlink:title=" ">
<polygon fill="white" stroke="#666666" points="795.5,-85 667.5,-85 667.5,-55 795.5,-55 795.5,-85"/>
<text text-anchor="start" x="675.5" y="-73" font-family="Helvetica,sans-Serif" font-size="10.00">Simple&#45;Utility/functional</text>
<text text-anchor="middle" x="731.5" y="-62" font-family="Helvetica,sans-Serif" font-size="10.00">/arithmetic.hpp</text>
</a>
</g>
</g>
<!-- Node10&#45;&gt;Node11 -->
<g id="edge14" class="edge">
<title>Node10&#45;&gt;Node11</title>
<path fill="none" stroke="#63b8ff" d="M822.75,-177.87C799.91,-151.11 762.98,-107.87 743.86,-85.47"/>
<polygon fill="#63b8ff" stroke="#63b8ff" points="820.06,-180.11 829.21,-185.44 825.38,-175.56 820.06,-180.11"/>
</g>
<!-- Node12 -->
<g id="node12" class="node">
<title>Node12</title>
<g id="a_node12"><a xlink:href="../../d9/d5f/functional_2tuple_8hpp.html" target="_top" xlink:title=" ">
<polygon fill="white" stroke="#666666" points="941.5,-85 813.5,-85 813.5,-55 941.5,-55 941.5,-85"/>
<text text-anchor="start" x="821.5" y="-73" font-family="Helvetica,sans-Serif" font-size="10.00">Simple&#45;Utility/functional</text>
<text text-anchor="middle" x="877.5" y="-62" font-family="Helvetica,sans-Serif" font-size="10.00">/tuple.hpp</text>
</a>
</g>
</g>
<!-- Node10&#45;&gt;Node12 -->
<g id="edge17" class="edge">
<title>Node10&#45;&gt;Node12</title>
<path fill="none" stroke="#63b8ff" d="M849.3,-175.74C856.54,-148.86 867.73,-107.28 873.6,-85.47"/>
<polygon fill="#63b8ff" stroke="#63b8ff" points="845.99,-174.56 846.77,-185.13 852.75,-176.38 845.99,-174.56"/>
</g>
<!-- Node13 -->
<g id="node13" class="node">
<title>Node13</title>
<g id="a_node13"><a xlink:href="../../df/d4e/functional_2utility_8hpp.html" target="_top" xlink:title=" ">
<polygon fill="white" stroke="#666666" points="1087.5,-85 959.5,-85 959.5,-55 1087.5,-55 1087.5,-85"/>
<text text-anchor="start" x="967.5" y="-73" font-family="Helvetica,sans-Serif" font-size="10.00">Simple&#45;Utility/functional</text>
<text text-anchor="middle" x="1023.5" y="-62" font-family="Helvetica,sans-Serif" font-size="10.00">/utility.hpp</text>
</a>
</g>
</g>
<!-- Node10&#45;&gt;Node13 -->
<g id="edge19" class="edge">
<title>Node10&#45;&gt;Node13</title>
<path fill="none" stroke="#63b8ff" d="M856.24,-177.23C867.37,-159.72 884.46,-136.38 904.5,-121 925.03,-105.24 951.26,-93.52 973.87,-85.41"/>
<polygon fill="#63b8ff" stroke="#63b8ff" points="853.43,-175.11 851.19,-185.47 859.4,-178.77 853.43,-175.11"/>
</g>
<!-- Node14 -->
<g id="node14" class="node">
<title>Node14</title>
<g id="a_node14"><a xlink:href="../../d4/dc9/and__then_8hpp.html" target="_top" xlink:title=" ">
<polygon fill="white" stroke="#666666" points="1211,-151 1088,-151 1088,-121 1211,-121 1211,-151"/>
<text text-anchor="start" x="1096" y="-139" font-family="Helvetica,sans-Serif" font-size="10.00">Simple&#45;Utility/nullables</text>
<text text-anchor="middle" x="1149.5" y="-128" font-family="Helvetica,sans-Serif" font-size="10.00">/and_then.hpp</text>
</a>
</g>
</g>
<!-- Node10&#45;&gt;Node14 -->
<g id="edge21" class="edge">
<title>Node10&#45;&gt;Node14</title>
<path fill="none" stroke="#63b8ff" d="M918.06,-185.25C970.2,-174.38 1038.67,-160.1 1087.59,-149.91"/>
<polygon fill="#63b8ff" stroke="#63b8ff" points="917.41,-181.81 908.34,-187.27 918.84,-188.66 917.41,-181.81"/>
</g>
<!-- Node15 -->
<g id="node15" class="node">
<title>Node15</title>
<g id="a_node15"><a xlink:href="../../d7/d5f/fwd__value_8hpp.html" target="_top" xlink:title=" ">
<polygon fill="white" stroke="#666666" points="1352,-151 1229,-151 1229,-121 1352,-121 1352,-151"/>
<text text-anchor="start" x="1237" y="-139" font-family="Helvetica,sans-Serif" font-size="10.00">Simple&#45;Utility/nullables</text>
<text text-anchor="middle" x="1290.5" y="-128" font-family="Helvetica,sans-Serif" font-size="10.00">/fwd_value.hpp</text>
</a>
</g>
</g>
<!-- Node10&#45;&gt;Node15 -->
<g id="edge23" class="edge">
<title>Node10&#45;&gt;Node15</title>
<path fill="none" stroke="#63b8ff" d="M918.31,-192.46C994.79,-183.5 1116.15,-168.32 1220.5,-151 1223.19,-150.55 1225.93,-150.08 1228.7,-149.59"/>
<polygon fill="#63b8ff" stroke="#63b8ff" points="917.93,-188.98 908.4,-193.62 918.74,-195.93 917.93,-188.98"/>
</g>
<!-- Node16 -->
<g id="node16" class="node">
<title>Node16</title>
<g id="a_node16"><a xlink:href="../../d2/d0e/or__else_8hpp.html" target="_top" xlink:title=" ">
<polygon fill="white" stroke="#666666" points="1070,-151 947,-151 947,-121 1070,-121 1070,-151"/>
<text text-anchor="start" x="955" y="-139" font-family="Helvetica,sans-Serif" font-size="10.00">Simple&#45;Utility/nullables</text>
<text text-anchor="middle" x="1008.5" y="-128" font-family="Helvetica,sans-Serif" font-size="10.00">/or_else.hpp</text>
</a>
</g>
</g>
<!-- Node10&#45;&gt;Node16 -->
<g id="edge25" class="edge">
<title>Node10&#45;&gt;Node16</title>
<path fill="none" stroke="#63b8ff" d="M890.38,-182.54C916.05,-172.64 947.21,-160.63 971.08,-151.43"/>
<polygon fill="#63b8ff" stroke="#63b8ff" points="889.24,-179.23 881.17,-186.09 891.76,-185.76 889.24,-179.23"/>
</g>
<!-- Node11&#45;&gt;Node6 -->
<g id="edge15" class="edge">
<title>Node11&#45;&gt;Node6</title>
<path fill="none" stroke="#63b8ff" d="M686.92,-50.1C662.56,-39.78 633.53,-27.47 614.37,-19.35"/>
<polygon fill="#63b8ff" stroke="#63b8ff" points="685.42,-53.27 695.99,-53.95 688.15,-46.82 685.42,-53.27"/>
</g>
<!-- Node12&#45;&gt;Node6 -->
<g id="edge18" class="edge">
<title>Node12&#45;&gt;Node6</title>
<path fill="none" stroke="#63b8ff" d="M802.06,-53.46C749.34,-42.6 680.79,-28.48 636.96,-19.45"/>
<polygon fill="#63b8ff" stroke="#63b8ff" points="801.07,-56.83 811.57,-55.42 802.49,-49.97 801.07,-56.83"/>
</g>
<!-- Node13&#45;&gt;Node6 -->
<g id="edge20" class="edge">
<title>Node13&#45;&gt;Node6</title>
<path fill="none" stroke="#63b8ff" d="M947.86,-54.65C845.29,-38.69 737.7,-26.02 667.89,-18.34"/>
<polygon fill="#63b8ff" stroke="#63b8ff" points="947.14,-58.07 957.56,-56.17 948.22,-51.16 947.14,-58.07"/>
</g>
<!-- Node14&#45;&gt;Node4 -->
<g id="edge22" class="edge">
<title>Node14&#45;&gt;Node4</title>
<path fill="none" stroke="#63b8ff" d="M1222.42,-118.09C1275.13,-105.87 1344.26,-89.84 1386.75,-79.99"/>
<polygon fill="#63b8ff" stroke="#63b8ff" points="1221.87,-114.63 1212.91,-120.3 1223.45,-121.45 1221.87,-114.63"/>
</g>
<!-- Node15&#45;&gt;Node4 -->
<g id="edge24" class="edge">
<title>Node15&#45;&gt;Node4</title>
<path fill="none" stroke="#63b8ff" d="M1331.11,-115.75C1356.14,-103.88 1387.07,-89.22 1406.55,-79.99"/>
<polygon fill="#63b8ff" stroke="#63b8ff" points="1329.7,-112.54 1322.16,-119.99 1332.7,-118.87 1329.7,-112.54"/>
</g>
<!-- Node16&#45;&gt;Node4 -->
<g id="edge26" class="edge">
<title>Node16&#45;&gt;Node4</title>
<path fill="none" stroke="#63b8ff" d="M1081.48,-120.72C1182.83,-103.61 1288.56,-88.93 1356.08,-79.97"/>
<polygon fill="#63b8ff" stroke="#63b8ff" points="1081.19,-117.22 1071.91,-122.34 1082.36,-124.12 1081.19,-117.22"/>
</g>
<!-- Node17&#45;&gt;Node3 -->
<g id="edge39" class="edge">
<title>Node17&#45;&gt;Node3</title>
<path fill="none" stroke="#63b8ff" d="M1453.59,-189.6C1514.82,-179.88 1604.49,-165.25 1682.5,-151 1685.18,-150.51 1687.92,-150 1690.68,-149.48"/>
<polygon fill="#63b8ff" stroke="#63b8ff" points="1453.32,-186.1 1443.99,-191.12 1454.41,-193.01 1453.32,-186.1"/>
</g>
<!-- Node17&#45;&gt;Node4 -->
<g id="edge29" class="edge">
<title>Node17&#45;&gt;Node4</title>
<path fill="none" stroke="#63b8ff" d="M1385.39,-175.45C1388.81,-159.53 1393.93,-138.76 1400.5,-121 1406.02,-106.07 1414.73,-89.75 1420.27,-79.95"/>
<polygon fill="#63b8ff" stroke="#63b8ff" points="1382,-174.57 1383.42,-185.07 1388.86,-175.98 1382,-174.57"/>
</g>
<!-- Node17&#45;&gt;Node14 -->
<g id="edge32" class="edge">
<title>Node17&#45;&gt;Node14</title>
<path fill="none" stroke="#63b8ff" d="M1317.38,-183.51C1280.98,-173.43 1235.77,-160.9 1201.44,-151.39"/>
<polygon fill="#63b8ff" stroke="#63b8ff" points="1316.34,-186.86 1326.91,-186.15 1318.21,-180.11 1316.34,-186.86"/>
</g>
<!-- Node17&#45;&gt;Node15 -->
<g id="edge33" class="edge">
<title>Node17&#45;&gt;Node15</title>
<path fill="none" stroke="#63b8ff" d="M1351.32,-180.25C1338.06,-170.82 1322.7,-159.9 1310.73,-151.39"/>
<polygon fill="#63b8ff" stroke="#63b8ff" points="1349.11,-182.98 1359.29,-185.92 1353.17,-177.27 1349.11,-182.98"/>
</g>
<!-- Node17&#45;&gt;Node16 -->
<g id="edge34" class="edge">
<title>Node17&#45;&gt;Node16</title>
<path fill="none" stroke="#63b8ff" d="M1307.67,-189.53C1246.64,-179.77 1157.27,-165.12 1079.5,-151 1076.53,-150.46 1073.5,-149.9 1070.44,-149.33"/>
<polygon fill="#63b8ff" stroke="#63b8ff" points="1306.8,-192.94 1317.23,-191.06 1307.91,-186.02 1306.8,-192.94"/>
</g>
<!-- Node17&#45;&gt;Node18 -->
<g id="edge30" class="edge">
<title>Node17&#45;&gt;Node18</title>
<path fill="none" stroke="#63b8ff" d="M1453.55,-194.67C1541.58,-186.61 1693.83,-171.25 1823.5,-151 1826.19,-150.58 1828.94,-150.13 1831.71,-149.65"/>
<polygon fill="#63b8ff" stroke="#63b8ff" points="1453.5,-191.16 1443.86,-195.56 1454.14,-198.14 1453.5,-191.16"/>
</g>
<!-- Node19 -->
<g id="node19" class="node">
<title>Node19</title>
<g id="a_node19"><a xlink:href="../../d9/d20/std__optional_8hpp.html" target="_top" xlink:title=" ">
<polygon fill="white" stroke="#666666" points="1532,-151 1409,-151 1409,-121 1532,-121 1532,-151"/>
<text text-anchor="start" x="1417" y="-139" font-family="Helvetica,sans-Serif" font-size="10.00">Simple&#45;Utility/nullables</text>
<text text-anchor="middle" x="1470.5" y="-128" font-family="Helvetica,sans-Serif" font-size="10.00">/std_optional.hpp</text>
</a>
</g>
</g>
<!-- Node17&#45;&gt;Node19 -->
<g id="edge35" class="edge">
<title>Node17&#45;&gt;Node19</title>
<path fill="none" stroke="#63b8ff" d="M1409.68,-180.25C1422.94,-170.82 1438.3,-159.9 1450.27,-151.39"/>
<polygon fill="#63b8ff" stroke="#63b8ff" points="1407.83,-177.27 1401.71,-185.92 1411.89,-182.98 1407.83,-177.27"/>
</g>
<!-- Node20 -->
<g id="node20" class="node">
<title>Node20</title>
<g id="a_node20"><a xlink:href="../../d8/d9a/std__pointers_8hpp.html" target="_top" xlink:title=" ">
<polygon fill="white" stroke="#666666" points="1673,-151 1550,-151 1550,-121 1673,-121 1673,-151"/>
<text text-anchor="start" x="1558" y="-139" font-family="Helvetica,sans-Serif" font-size="10.00">Simple&#45;Utility/nullables</text>
<text text-anchor="middle" x="1611.5" y="-128" font-family="Helvetica,sans-Serif" font-size="10.00">/std_pointers.hpp</text>
</a>
</g>
</g>
<!-- Node17&#45;&gt;Node20 -->
<g id="edge37" class="edge">
<title>Node17&#45;&gt;Node20</title>
<path fill="none" stroke="#63b8ff" d="M1443.62,-183.51C1480.02,-173.43 1525.23,-160.9 1559.56,-151.39"/>
<polygon fill="#63b8ff" stroke="#63b8ff" points="1442.79,-180.11 1434.09,-186.15 1444.66,-186.86 1442.79,-180.11"/>
</g>
<!-- Node17&#45;&gt;Node21 -->
<g id="edge40" class="edge">
<title>Node17&#45;&gt;Node21</title>
<path fill="none" stroke="#63b8ff" d="M1453.76,-195.9C1564.5,-187.93 1781.1,-171.3 1964.5,-151 1979.66,-149.32 1996.03,-147.23 2011.16,-145.17"/>
<polygon fill="#63b8ff" stroke="#63b8ff" points="1453.64,-192.4 1443.91,-196.61 1454.14,-199.38 1453.64,-192.4"/>
</g>
<!-- Node18&#45;&gt;Node4 -->
<g id="edge31" class="edge">
<title>Node18&#45;&gt;Node4</title>
<path fill="none" stroke="#63b8ff" d="M1820.62,-120.6C1701.92,-101.6 1574.71,-86.81 1497.26,-78.43"/>
<polygon fill="#63b8ff" stroke="#63b8ff" points="1819.78,-124.01 1830.21,-122.15 1820.9,-117.1 1819.78,-124.01"/>
</g>
<!-- Node19&#45;&gt;Node4 -->
<g id="edge36" class="edge">
<title>Node19&#45;&gt;Node4</title>
<path fill="none" stroke="#63b8ff" d="M1454.06,-111.61C1446.28,-100.56 1437.47,-88.03 1431.72,-79.84"/>
<polygon fill="#63b8ff" stroke="#63b8ff" points="1451.03,-113.39 1459.64,-119.56 1456.75,-109.36 1451.03,-113.39"/>
</g>
<!-- Node20&#45;&gt;Node4 -->
<g id="edge38" class="edge">
<title>Node20&#45;&gt;Node4</title>
<path fill="none" stroke="#63b8ff" d="M1559.21,-117.01C1524.12,-104.93 1479.41,-89.55 1451.62,-79.99"/>
<polygon fill="#63b8ff" stroke="#63b8ff" points="1557.73,-120.2 1568.33,-120.14 1560.01,-113.58 1557.73,-120.2"/>
</g>
<!-- Node22&#45;&gt;Node6 -->
<g id="edge42" class="edge">
<title>Node22&#45;&gt;Node6</title>
<path fill="none" stroke="#63b8ff" d="M101.98,-180.54C152.37,-148.75 255.18,-87.74 350.5,-55 405.46,-36.12 470.32,-24.76 519.2,-18.25"/>
<polygon fill="#63b8ff" stroke="#63b8ff" points="100.17,-177.55 93.61,-185.86 103.93,-183.45 100.17,-177.55"/>
</g>
<!-- Node22&#45;&gt;Node8 -->
<g id="edge43" class="edge">
<title>Node22&#45;&gt;Node8</title>
<path fill="none" stroke="#63b8ff" d="M152.3,-186.55C246.62,-170.96 344.73,-155.96 407.29,-146.56"/>
<polygon fill="#63b8ff" stroke="#63b8ff" points="151.91,-183.07 142.62,-188.16 153.05,-189.98 151.91,-183.07"/>
</g>
<!-- Node23&#45;&gt;Node6 -->
<g id="edge45" class="edge">
<title>Node23&#45;&gt;Node6</title>
<path fill="none" stroke="#63b8ff" d="M247.87,-178.48C278.45,-146.11 339.48,-86.82 403.5,-55 440.06,-36.83 484.3,-25.91 520.88,-19.43"/>
<polygon fill="#63b8ff" stroke="#63b8ff" points="245.36,-176.04 241.11,-185.75 250.48,-180.81 245.36,-176.04"/>
</g>
<!-- Node23&#45;&gt;Node8 -->
<g id="edge46" class="edge">
<title>Node23&#45;&gt;Node8</title>
<path fill="none" stroke="#63b8ff" d="M293.68,-183.64C332.21,-173.53 380.22,-160.94 416.64,-151.39"/>
<polygon fill="#63b8ff" stroke="#63b8ff" points="292.81,-180.25 284.03,-186.17 294.59,-187.02 292.81,-180.25"/>
</g>
<!-- Node24&#45;&gt;Node8 -->
<g id="edge48" class="edge">
<title>Node24&#45;&gt;Node8</title>
<path fill="none" stroke="#63b8ff" d="M501.31,-241.74C493.66,-214.86 481.83,-173.28 475.62,-151.47"/>
<polygon fill="#63b8ff" stroke="#63b8ff" points="497.88,-242.48 503.98,-251.14 504.61,-240.56 497.88,-242.48"/>
</g>
<!-- Node25&#45;&gt;Node8 -->
<g id="edge50" class="edge">
<title>Node25&#45;&gt;Node8</title>
<path fill="none" stroke="#63b8ff" d="M620.95,-247.08C605.33,-238.36 587.21,-227.7 571.5,-217 540.63,-195.97 507.21,-168.09 487.88,-151.4"/>
<polygon fill="#63b8ff" stroke="#63b8ff" points="619.03,-250.02 629.48,-251.77 622.41,-243.88 619.03,-250.02"/>
</g>
<!-- Node26&#45;&gt;Node6 -->
<g id="edge52" class="edge">
<title>Node26&#45;&gt;Node6</title>
<path fill="none" stroke="#63b8ff" d="M380.13,-175.22C383.7,-141.97 395.1,-84.9 431.5,-55 456.18,-34.73 489.39,-23.66 519.31,-17.62"/>
<polygon fill="#63b8ff" stroke="#63b8ff" points="376.64,-174.9 379.24,-185.17 383.61,-175.52 376.64,-174.9"/>
</g>
<!-- Node26&#45;&gt;Node8 -->
<g id="edge53" class="edge">
<title>Node26&#45;&gt;Node8</title>
<path fill="none" stroke="#63b8ff" d="M408.25,-180.52C422.05,-171.03 438.11,-159.98 450.6,-151.39"/>
<polygon fill="#63b8ff" stroke="#63b8ff" points="406.64,-177.39 400.39,-185.94 410.61,-183.15 406.64,-177.39"/>
</g>
<!-- Node27&#45;&gt;Node6 -->
<g id="edge55" class="edge">
<title>Node27&#45;&gt;Node6</title>
<path fill="none" stroke="#63b8ff" d="M767.01,-247.76C721.44,-226.1 646.59,-188.94 585.5,-151 566.32,-139.09 563.71,-132.87 544.5,-121 514.74,-102.61 492.72,-114.86 474.5,-85 467.55,-73.62 466.9,-65.96 474.5,-55 487.26,-36.6 508.61,-25.8 529.73,-19.46"/>
<polygon fill="#63b8ff" stroke="#63b8ff" points="765.48,-250.91 776.02,-252.02 768.47,-244.58 765.48,-250.91"/>
</g>
<!-- Node27&#45;&gt;Node8 -->
<g id="edge57" class="edge">
<title>Node27&#45;&gt;Node8</title>
<path fill="none" stroke="#63b8ff" d="M733.45,-251.01C686.82,-240.53 631.69,-226.97 609.5,-217 587.91,-207.3 585.76,-199.24 565.5,-187 544.14,-174.09 519.17,-160.89 500.33,-151.3"/>
<polygon fill="#63b8ff" stroke="#63b8ff" points="732.48,-254.38 743,-253.14 734,-247.55 732.48,-254.38"/>
</g>
<!-- Node27&#45;&gt;Node10 -->
<g id="edge58" class="edge">
<title>Node27&#45;&gt;Node10</title>
<path fill="none" stroke="#63b8ff" d="M821.34,-242.83C825.94,-234.17 830.97,-224.7 834.98,-217.16"/>
<polygon fill="#63b8ff" stroke="#63b8ff" points="818.36,-240.99 816.76,-251.46 824.54,-244.27 818.36,-240.99"/>
</g>
<!-- Node27&#45;&gt;Node26 -->
<g id="edge56" class="edge">
<title>Node27&#45;&gt;Node26</title>
<path fill="none" stroke="#63b8ff" d="M732.71,-252.59C625.73,-235.06 512.68,-219.95 443.47,-211.1"/>
<polygon fill="#63b8ff" stroke="#63b8ff" points="732.12,-256.04 742.55,-254.21 733.25,-249.13 732.12,-256.04"/>
</g>
</g>
</svg>
        <g id="navigator" transform="translate(0 0)" fill="#404254">
                <rect fill="#f2f5e9" fill-opacity="0.5" stroke="#606060" stroke-width=".5" x="0" y="0" width="60" height="60"/>
                <use id="zoomplus" xlink:href="#zoomPlus" x="17" y="9" onmousedown="handleZoom(evt,'in')"/>
                <use id="zoomminus" xlink:href="#zoomMin" x="42" y="9" onmousedown="handleZoom(evt,'out')"/>
                <use id="reset" xlink:href="#resetDef" x="30" y="36" onmousedown="handleReset()"/>
                <g id="arrowUp" xlink:href="#dirArrow" transform="translate(30 24)" onmousedown="handlePan(0,-1)">
                  <use xlink:href="#rim" fill="#404040">
                        <set attributeName="fill" to="#808080" begin="arrowUp.mouseover" end="arrowUp.mouseout"/>
                  </use>
                  <path fill="none" stroke="white" stroke-width="1.5" d="M0,-3.0v7 M-2.5,-0.5L0,-3.0L2.5,-0.5"/>
                </g>
                <g id="arrowRight" xlink:href="#dirArrow" transform="rotate(90) translate(36 -43)" onmousedown="handlePan(1,0)">
                  <use xlink:href="#rim" fill="#404040">
                        <set attributeName="fill" to="#808080" begin="arrowRight.mouseover" end="arrowRight.mouseout"/>
                  </use>
                  <path fill="none" stroke="white" stroke-width="1.5" d="M0,-3.0v7 M-2.5,-0.5L0,-3.0L2.5,-0.5"/>
                </g>
                <g id="arrowDown" xlink:href="#dirArrow" transform="rotate(180) translate(-30 -48)" onmousedown="handlePan(0,1)">
                  <use xlink:href="#rim" fill="#404040">
                        <set attributeName="fill" to="#808080" begin="arrowDown.mouseover" end="arrowDown.mouseout"/>
                  </use>
                  <path fill="none" stroke="white" stroke-width="1.5" d="M0,-3.0v7 M-2.5,-0.5L0,-3.0L2.5,-0.5"/>
                </g>
                <g id="arrowLeft" xlink:href="#dirArrow" transform="rotate(270) translate(-36 17)" onmousedown="handlePan(-1,0)">
                  <use xlink:href="#rim" fill="#404040">
                        <set attributeName="fill" to="#808080" begin="arrowLeft.mouseover" end="arrowLeft.mouseout"/>
                  </use>
                  <path fill="none" stroke="white" stroke-width="1.5" d="M0,-3.0v7 M-2.5,-0.5L0,-3.0L2.5,-0.5"/>
                </g>
        </g>
        <svg viewBox="0 0 15 15" width="100%" height="30px" preserveAspectRatio="xMaxYMin meet">
         <g id="arrow_out" transform="scale(0.3 0.3)">
          <a xlink:href="_config_8hpp__dep__incl_org.svg" target="_base">
           <rect id="button" ry="5" rx="5" y="6" x="6" height="38" width="38"
                fill="#f2f5e9" fill-opacity="0.5" stroke="#606060" stroke-width="1.0"/>
           <path id="arrow"
             d="M 11.500037,31.436501 C 11.940474,20.09759 22.043105,11.32322 32.158766,21.979434 L 37.068811,17.246167 C 37.068811,17.246167 37.088388,32 37.088388,32 L 22.160133,31.978069 C 22.160133,31.978069 26.997745,27.140456 26.997745,27.140456 C 18.528582,18.264221 13.291696,25.230495 11.500037,31.436501 z"
             style="fill:#404040;"/>
          </a>
         </g>
        </svg>
</svg>
