<?xml version="1.0" encoding="UTF-8" standalone="no"?>
<!DOCTYPE svg PUBLIC "-//W3C//DTD SVG 1.1//EN"
 "http://www.w3.org/Graphics/SVG/1.1/DTD/svg11.dtd">
<!-- Generated by graphviz version 8.0.5 (20230430.1635)
 -->
<!-- Title: Simple&#45;Utility/Config.hpp Pages: 1 -->
<svg width="1723pt" height="364pt"
 viewBox="0.00 0.00 1723.12 363.50" xmlns="http://www.w3.org/2000/svg" xmlns:xlink="http://www.w3.org/1999/xlink">
<g id="graph0" class="graph" transform="scale(1 1) rotate(0) translate(4 359.5)">
<title>Simple&#45;Utility/Config.hpp</title>
<!-- Node1 -->
<g id="node1" class="node">
<title>Node1</title>
<g id="a_node1"><a xlink:title=" ">
<polygon fill="#999999" stroke="#666666" points="1271.62,-355.5 1139.38,-355.5 1139.38,-334.75 1271.62,-334.75 1271.62,-355.5"/>
<text text-anchor="middle" x="1205.5" y="-342" font-family="Helvetica,sans-Serif" font-size="10.00">Simple&#45;Utility/Config.hpp</text>
</a>
</g>
</g>
<!-- Node2 -->
<g id="node2" class="node">
<title>Node2</title>
<g id="a_node2"><a xlink:href="../../d3/d48/_composition_8hpp.html" target="_top" xlink:title=" ">
<polygon fill="white" stroke="#666666" points="417,-298.75 290,-298.75 290,-265.25 417,-265.25 417,-298.75"/>
<text text-anchor="start" x="298" y="-285.25" font-family="Helvetica,sans-Serif" font-size="10.00">Simple&#45;Utility/functional</text>
<text text-anchor="middle" x="353.5" y="-272.5" font-family="Helvetica,sans-Serif" font-size="10.00">/Composition.hpp</text>
</a>
</g>
</g>
<!-- Node1&#45;&gt;Node2 -->
<g id="edge1" class="edge">
<title>Node1&#45;&gt;Node2</title>
<path fill="none" stroke="#63b8ff" d="M1128.36,-338.59C961.86,-326.65 571.41,-298.63 417.49,-287.59"/>
<polygon fill="#63b8ff" stroke="#63b8ff" points="1127.78,-342.13 1138,-339.35 1128.28,-335.15 1127.78,-342.13"/>
</g>
<!-- Node14 -->
<g id="node14" class="node">
<title>Node14</title>
<g id="a_node14"><a xlink:href="../../d2/dc8/bind__back_8hpp.html" target="_top" xlink:title=" ">
<polygon fill="white" stroke="#666666" points="987,-298.75 860,-298.75 860,-265.25 987,-265.25 987,-298.75"/>
<text text-anchor="start" x="868" y="-285.25" font-family="Helvetica,sans-Serif" font-size="10.00">Simple&#45;Utility/functional</text>
<text text-anchor="middle" x="923.5" y="-272.5" font-family="Helvetica,sans-Serif" font-size="10.00">/bind_back.hpp</text>
</a>
</g>
</g>
<!-- Node1&#45;&gt;Node14 -->
<g id="edge22" class="edge">
<title>Node1&#45;&gt;Node14</title>
<path fill="none" stroke="#63b8ff" d="M1149.65,-332.02C1102.91,-321.89 1036.2,-307.43 987.35,-296.84"/>
<polygon fill="#63b8ff" stroke="#63b8ff" points="1148.68,-335.61 1159.19,-334.3 1150.16,-328.77 1148.68,-335.61"/>
</g>
<!-- Node20 -->
<g id="node20" class="node">
<title>Node20</title>
<g id="a_node20"><a xlink:href="../../d6/dca/adapter_8hpp.html" target="_top" xlink:title=" ">
<polygon fill="white" stroke="#666666" points="1585.75,-229.25 1463.25,-229.25 1463.25,-195.75 1585.75,-195.75 1585.75,-229.25"/>
<text text-anchor="start" x="1471.25" y="-215.75" font-family="Helvetica,sans-Serif" font-size="10.00">Simple&#45;Utility/nullables</text>
<text text-anchor="middle" x="1524.5" y="-203" font-family="Helvetica,sans-Serif" font-size="10.00">/adapter.hpp</text>
</a>
</g>
</g>
<!-- Node1&#45;&gt;Node20 -->
<g id="edge31" class="edge">
<title>Node1&#45;&gt;Node20</title>
<path fill="none" stroke="#63b8ff" d="M1239.48,-330.21C1298.98,-305.85 1421.68,-255.6 1484.91,-229.71"/>
<polygon fill="#63b8ff" stroke="#63b8ff" points="1238.4,-327.28 1230.48,-334.31 1241.06,-333.76 1238.4,-327.28"/>
</g>
<!-- Node21 -->
<g id="node21" class="node">
<title>Node21</title>
<g id="a_node21"><a xlink:href="../../dd/d3c/base_8hpp.html" target="_top" xlink:title=" ">
<polygon fill="white" stroke="#666666" points="1266.75,-298.75 1144.25,-298.75 1144.25,-265.25 1266.75,-265.25 1266.75,-298.75"/>
<text text-anchor="start" x="1152.25" y="-285.25" font-family="Helvetica,sans-Serif" font-size="10.00">Simple&#45;Utility/nullables</text>
<text text-anchor="middle" x="1205.5" y="-272.5" font-family="Helvetica,sans-Serif" font-size="10.00">/base.hpp</text>
</a>
</g>
</g>
<!-- Node1&#45;&gt;Node21 -->
<g id="edge33" class="edge">
<title>Node1&#45;&gt;Node21</title>
<path fill="none" stroke="#63b8ff" d="M1205.5,-323.4C1205.5,-315.51 1205.5,-306.65 1205.5,-299.23"/>
<polygon fill="#63b8ff" stroke="#63b8ff" points="1202,-323.3 1205.5,-333.3 1209,-323.3 1202,-323.3"/>
</g>
<!-- Node24 -->
<g id="node24" class="node">
<title>Node24</title>
<g id="a_node24"><a xlink:href="../../d0/d0f/unique__handle_8hpp.html" target="_top" xlink:title=" ">
<polygon fill="white" stroke="#666666" points="1715.12,-229.25 1603.88,-229.25 1603.88,-195.75 1715.12,-195.75 1715.12,-229.25"/>
<text text-anchor="start" x="1611.88" y="-215.75" font-family="Helvetica,sans-Serif" font-size="10.00">Simple&#45;Utility/unique</text>
<text text-anchor="middle" x="1659.5" y="-203" font-family="Helvetica,sans-Serif" font-size="10.00">_handle.hpp</text>
</a>
</g>
</g>
<!-- Node1&#45;&gt;Node24 -->
<g id="edge45" class="edge">
<title>Node1&#45;&gt;Node24</title>
<path fill="none" stroke="#63b8ff" d="M1252.21,-331.53C1285.29,-322.55 1330.67,-310.1 1370.5,-298.75 1452.63,-275.35 1547.53,-247.12 1605.52,-229.75"/>
<polygon fill="#63b8ff" stroke="#63b8ff" points="1251.66,-328.32 1242.93,-334.31 1253.5,-335.08 1251.66,-328.32"/>
</g>
<!-- Node3 -->
<g id="node3" class="node">
<title>Node3</title>
<g id="a_node3"><a xlink:href="../../d7/d0e/_conjunction_8hpp.html" target="_top" xlink:title=" ">
<polygon fill="white" stroke="#666666" points="272,-229.25 145,-229.25 145,-195.75 272,-195.75 272,-229.25"/>
<text text-anchor="start" x="153" y="-215.75" font-family="Helvetica,sans-Serif" font-size="10.00">Simple&#45;Utility/functional</text>
<text text-anchor="middle" x="208.5" y="-203" font-family="Helvetica,sans-Serif" font-size="10.00">/mixins/Conjunction.hpp</text>
</a>
</g>
</g>
<!-- Node2&#45;&gt;Node3 -->
<g id="edge2" class="edge">
<title>Node2&#45;&gt;Node3</title>
<path fill="none" stroke="#63b8ff" d="M309.03,-260.3C287.87,-250.45 262.94,-238.84 243.2,-229.65"/>
<polygon fill="#63b8ff" stroke="#63b8ff" points="307.23,-263.78 317.77,-264.83 310.18,-257.44 307.23,-263.78"/>
</g>
<!-- Node7 -->
<g id="node7" class="node">
<title>Node7</title>
<g id="a_node7"><a xlink:href="../../d7/ddc/_disjunction_8hpp.html" target="_top" xlink:title=" ">
<polygon fill="white" stroke="#666666" points="417,-229.25 290,-229.25 290,-195.75 417,-195.75 417,-229.25"/>
<text text-anchor="start" x="298" y="-215.75" font-family="Helvetica,sans-Serif" font-size="10.00">Simple&#45;Utility/functional</text>
<text text-anchor="middle" x="353.5" y="-203" font-family="Helvetica,sans-Serif" font-size="10.00">/mixins/Disjunction.hpp</text>
</a>
</g>
</g>
<!-- Node2&#45;&gt;Node7 -->
<g id="edge7" class="edge">
<title>Node2&#45;&gt;Node7</title>
<path fill="none" stroke="#63b8ff" d="M353.5,-254.14C353.5,-245.75 353.5,-236.76 353.5,-229.38"/>
<polygon fill="#63b8ff" stroke="#63b8ff" points="350,-254 353.5,-264 357,-254 350,-254"/>
</g>
<!-- Node8 -->
<g id="node8" class="node">
<title>Node8</title>
<g id="a_node8"><a xlink:href="../../de/d71/_equality_8hpp.html" target="_top" xlink:title=" ">
<polygon fill="white" stroke="#666666" points="127,-229.25 0,-229.25 0,-195.75 127,-195.75 127,-229.25"/>
<text text-anchor="start" x="8" y="-215.75" font-family="Helvetica,sans-Serif" font-size="10.00">Simple&#45;Utility/functional</text>
<text text-anchor="middle" x="63.5" y="-203" font-family="Helvetica,sans-Serif" font-size="10.00">/mixins/Equality.hpp</text>
</a>
</g>
</g>
<!-- Node2&#45;&gt;Node8 -->
<g id="edge9" class="edge">
<title>Node2&#45;&gt;Node8</title>
<path fill="none" stroke="#63b8ff" d="M279.15,-263.69C232.24,-252.78 172.28,-238.82 127.49,-228.4"/>
<polygon fill="#63b8ff" stroke="#63b8ff" points="278.33,-267.33 288.86,-266.19 279.91,-260.51 278.33,-267.33"/>
</g>
<!-- Node9 -->
<g id="node9" class="node">
<title>Node9</title>
<g id="a_node9"><a xlink:href="../../d2/df5/_pipe_8hpp.html" target="_top" xlink:title=" ">
<polygon fill="white" stroke="#666666" points="562,-229.25 435,-229.25 435,-195.75 562,-195.75 562,-229.25"/>
<text text-anchor="start" x="443" y="-215.75" font-family="Helvetica,sans-Serif" font-size="10.00">Simple&#45;Utility/functional</text>
<text text-anchor="middle" x="498.5" y="-203" font-family="Helvetica,sans-Serif" font-size="10.00">/mixins/Pipe.hpp</text>
</a>
</g>
</g>
<!-- Node2&#45;&gt;Node9 -->
<g id="edge11" class="edge">
<title>Node2&#45;&gt;Node9</title>
<path fill="none" stroke="#63b8ff" d="M397.97,-260.3C419.13,-250.45 444.06,-238.84 463.8,-229.65"/>
<polygon fill="#63b8ff" stroke="#63b8ff" points="396.82,-257.44 389.23,-264.83 399.77,-263.78 396.82,-257.44"/>
</g>
<!-- Node4 -->
<g id="node4" class="node">
<title>Node4</title>
<g id="a_node4"><a xlink:href="../../d4/d53/_predicate_8hpp.html" target="_top" xlink:title=" ">
<polygon fill="white" stroke="#666666" points="272,-159.75 145,-159.75 145,-126.25 272,-126.25 272,-159.75"/>
<text text-anchor="start" x="153" y="-146.25" font-family="Helvetica,sans-Serif" font-size="10.00">Simple&#45;Utility/functional</text>
<text text-anchor="middle" x="208.5" y="-133.5" font-family="Helvetica,sans-Serif" font-size="10.00">/Predicate.hpp</text>
</a>
</g>
</g>
<!-- Node3&#45;&gt;Node4 -->
<g id="edge3" class="edge">
<title>Node3&#45;&gt;Node4</title>
<path fill="none" stroke="#63b8ff" d="M208.5,-184.64C208.5,-176.25 208.5,-167.26 208.5,-159.88"/>
<polygon fill="#63b8ff" stroke="#63b8ff" points="205,-184.5 208.5,-194.5 212,-184.5 205,-184.5"/>
</g>
<!-- Node5 -->
<g id="node5" class="node">
<title>Node5</title>
<g id="a_node5"><a xlink:href="../../d2/db4/functional_8hpp.html" target="_top" xlink:title=" ">
<polygon fill="white" stroke="#666666" points="499.12,-20.75 351.88,-20.75 351.88,0 499.12,0 499.12,-20.75"/>
<text text-anchor="middle" x="425.5" y="-7.25" font-family="Helvetica,sans-Serif" font-size="10.00">Simple&#45;Utility/functional.hpp</text>
</a>
</g>
</g>
<!-- Node4&#45;&gt;Node5 -->
<g id="edge4" class="edge">
<title>Node4&#45;&gt;Node5</title>
<path fill="none" stroke="#63b8ff" d="M163.7,-120.18C152.46,-112.39 141.8,-102.45 135.5,-90.25 128.66,-77.02 125.82,-68.06 135.5,-56.75 162.79,-24.86 275.06,-15.22 351.63,-12.4"/>
<polygon fill="#63b8ff" stroke="#63b8ff" points="161.46,-123.54 171.78,-125.97 165.23,-117.64 161.46,-123.54"/>
</g>
<!-- Node6 -->
<g id="node6" class="node">
<title>Node6</title>
<g id="a_node6"><a xlink:href="../../d8/d60/_compare_8hpp.html" target="_top" xlink:title=" ">
<polygon fill="white" stroke="#666666" points="272,-90.25 145,-90.25 145,-56.75 272,-56.75 272,-90.25"/>
<text text-anchor="start" x="153" y="-76.75" font-family="Helvetica,sans-Serif" font-size="10.00">Simple&#45;Utility/functional</text>
<text text-anchor="middle" x="208.5" y="-64" font-family="Helvetica,sans-Serif" font-size="10.00">/Compare.hpp</text>
</a>
</g>
</g>
<!-- Node4&#45;&gt;Node6 -->
<g id="edge5" class="edge">
<title>Node4&#45;&gt;Node6</title>
<path fill="none" stroke="#63b8ff" d="M208.5,-115.14C208.5,-106.75 208.5,-97.76 208.5,-90.38"/>
<polygon fill="#63b8ff" stroke="#63b8ff" points="205,-115 208.5,-125 212,-115 205,-115"/>
</g>
<!-- Node6&#45;&gt;Node5 -->
<g id="edge6" class="edge">
<title>Node6&#45;&gt;Node5</title>
<path fill="none" stroke="#63b8ff" d="M276.55,-53.33C314.47,-42.65 360.07,-29.81 390.74,-21.17"/>
<polygon fill="#63b8ff" stroke="#63b8ff" points="275.76,-50.2 267.08,-56.28 277.66,-56.94 275.76,-50.2"/>
</g>
<!-- Node7&#45;&gt;Node4 -->
<g id="edge8" class="edge">
<title>Node7&#45;&gt;Node4</title>
<path fill="none" stroke="#63b8ff" d="M309.03,-190.8C287.87,-180.95 262.94,-169.34 243.2,-160.15"/>
<polygon fill="#63b8ff" stroke="#63b8ff" points="307.23,-194.28 317.77,-195.33 310.18,-187.94 307.23,-194.28"/>
</g>
<!-- Node8&#45;&gt;Node4 -->
<g id="edge10" class="edge">
<title>Node8&#45;&gt;Node4</title>
<path fill="none" stroke="#63b8ff" d="M107.97,-190.8C129.13,-180.95 154.06,-169.34 173.8,-160.15"/>
<polygon fill="#63b8ff" stroke="#63b8ff" points="106.82,-187.94 99.23,-195.33 109.77,-194.28 106.82,-187.94"/>
</g>
<!-- Node9&#45;&gt;Node4 -->
<g id="edge12" class="edge">
<title>Node9&#45;&gt;Node4</title>
<path fill="none" stroke="#63b8ff" d="M424.15,-194.19C377.24,-183.28 317.28,-169.32 272.49,-158.9"/>
<polygon fill="#63b8ff" stroke="#63b8ff" points="423.33,-197.83 433.86,-196.69 424.91,-191.01 423.33,-197.83"/>
</g>
<!-- Node10 -->
<g id="node10" class="node">
<title>Node10</title>
<g id="a_node10"><a xlink:href="../../d9/d8c/_transform_8hpp.html" target="_top" xlink:title=" ">
<polygon fill="white" stroke="#666666" points="562,-159.75 435,-159.75 435,-126.25 562,-126.25 562,-159.75"/>
<text text-anchor="start" x="443" y="-146.25" font-family="Helvetica,sans-Serif" font-size="10.00">Simple&#45;Utility/functional</text>
<text text-anchor="middle" x="498.5" y="-133.5" font-family="Helvetica,sans-Serif" font-size="10.00">/Transform.hpp</text>
</a>
</g>
</g>
<!-- Node9&#45;&gt;Node10 -->
<g id="edge13" class="edge">
<title>Node9&#45;&gt;Node10</title>
<path fill="none" stroke="#63b8ff" d="M498.5,-184.64C498.5,-176.25 498.5,-167.26 498.5,-159.88"/>
<polygon fill="#63b8ff" stroke="#63b8ff" points="495,-184.5 498.5,-194.5 502,-184.5 495,-184.5"/>
</g>
<!-- Node10&#45;&gt;Node5 -->
<g id="edge14" class="edge">
<title>Node10&#45;&gt;Node5</title>
<path fill="none" stroke="#63b8ff" d="M542.7,-120.06C553.79,-112.27 564.29,-102.36 570.5,-90.25 577.29,-77 579.32,-68.75 570.5,-56.75 553.94,-34.22 526.24,-22.57 499.45,-16.65"/>
<polygon fill="#63b8ff" stroke="#63b8ff" points="541.24,-117.49 534.75,-125.86 545.04,-123.36 541.24,-117.49"/>
</g>
<!-- Node10&#45;&gt;Node6 -->
<g id="edge17" class="edge">
<title>Node10&#45;&gt;Node6</title>
<path fill="none" stroke="#63b8ff" d="M424.15,-124.69C377.24,-113.78 317.28,-99.82 272.49,-89.4"/>
<polygon fill="#63b8ff" stroke="#63b8ff" points="423.33,-128.33 433.86,-127.19 424.91,-121.51 423.33,-128.33"/>
</g>
<!-- Node11 -->
<g id="node11" class="node">
<title>Node11</title>
<g id="a_node11"><a xlink:href="../../d3/dc2/_arithmetic_8hpp.html" target="_top" xlink:title=" ">
<polygon fill="white" stroke="#666666" points="746,-90.25 619,-90.25 619,-56.75 746,-56.75 746,-90.25"/>
<text text-anchor="start" x="627" y="-76.75" font-family="Helvetica,sans-Serif" font-size="10.00">Simple&#45;Utility/functional</text>
<text text-anchor="middle" x="682.5" y="-64" font-family="Helvetica,sans-Serif" font-size="10.00">/Arithmetic.hpp</text>
</a>
</g>
</g>
<!-- Node10&#45;&gt;Node11 -->
<g id="edge15" class="edge">
<title>Node10&#45;&gt;Node11</title>
<path fill="none" stroke="#63b8ff" d="M552.75,-122.1C580.06,-112.08 612.74,-100.09 638.47,-90.65"/>
<polygon fill="#63b8ff" stroke="#63b8ff" points="551.76,-119.1 543.57,-125.83 554.17,-125.67 551.76,-119.1"/>
</g>
<!-- Node12 -->
<g id="node12" class="node">
<title>Node12</title>
<g id="a_node12"><a xlink:href="../../da/dae/functional_2_tuple_8hpp.html" target="_top" xlink:title=" ">
<polygon fill="white" stroke="#666666" points="417,-90.25 290,-90.25 290,-56.75 417,-56.75 417,-90.25"/>
<text text-anchor="start" x="298" y="-76.75" font-family="Helvetica,sans-Serif" font-size="10.00">Simple&#45;Utility/functional</text>
<text text-anchor="middle" x="353.5" y="-64" font-family="Helvetica,sans-Serif" font-size="10.00">/Tuple.hpp</text>
</a>
</g>
</g>
<!-- Node10&#45;&gt;Node12 -->
<g id="edge18" class="edge">
<title>Node10&#45;&gt;Node12</title>
<path fill="none" stroke="#63b8ff" d="M454.03,-121.3C432.87,-111.45 407.94,-99.84 388.2,-90.65"/>
<polygon fill="#63b8ff" stroke="#63b8ff" points="452.23,-124.78 462.77,-125.83 455.18,-118.44 452.23,-124.78"/>
</g>
<!-- Node13 -->
<g id="node13" class="node">
<title>Node13</title>
<g id="a_node13"><a xlink:href="../../de/d61/functional_2_utility_8hpp.html" target="_top" xlink:title=" ">
<polygon fill="white" stroke="#666666" points="562,-90.25 435,-90.25 435,-56.75 562,-56.75 562,-90.25"/>
<text text-anchor="start" x="443" y="-76.75" font-family="Helvetica,sans-Serif" font-size="10.00">Simple&#45;Utility/functional</text>
<text text-anchor="middle" x="498.5" y="-64" font-family="Helvetica,sans-Serif" font-size="10.00">/Utility.hpp</text>
</a>
</g>
</g>
<!-- Node10&#45;&gt;Node13 -->
<g id="edge20" class="edge">
<title>Node10&#45;&gt;Node13</title>
<path fill="none" stroke="#63b8ff" d="M498.5,-115.14C498.5,-106.75 498.5,-97.76 498.5,-90.38"/>
<polygon fill="#63b8ff" stroke="#63b8ff" points="495,-115 498.5,-125 502,-115 495,-115"/>
</g>
<!-- Node11&#45;&gt;Node5 -->
<g id="edge16" class="edge">
<title>Node11&#45;&gt;Node5</title>
<path fill="none" stroke="#63b8ff" d="M608.13,-54.81C562.19,-43.88 504.95,-30.27 466.93,-21.23"/>
<polygon fill="#63b8ff" stroke="#63b8ff" points="607.1,-58.4 617.64,-57.31 608.72,-51.59 607.1,-58.4"/>
</g>
<!-- Node12&#45;&gt;Node5 -->
<g id="edge19" class="edge">
<title>Node12&#45;&gt;Node5</title>
<path fill="none" stroke="#63b8ff" d="M380.51,-49.57C392.05,-39.77 404.9,-28.86 413.91,-21.22"/>
<polygon fill="#63b8ff" stroke="#63b8ff" points="378.78,-47.3 373.42,-56.44 383.31,-52.64 378.78,-47.3"/>
</g>
<!-- Node13&#45;&gt;Node5 -->
<g id="edge21" class="edge">
<title>Node13&#45;&gt;Node5</title>
<path fill="none" stroke="#63b8ff" d="M471.11,-49.57C459.41,-39.77 446.38,-28.86 437.25,-21.22"/>
<polygon fill="#63b8ff" stroke="#63b8ff" points="468.41,-52.7 478.32,-56.44 472.9,-47.34 468.41,-52.7"/>
</g>
<!-- Node15 -->
<g id="node15" class="node">
<title>Node15</title>
<g id="a_node15"><a xlink:href="../../d4/dc9/and__then_8hpp.html" target="_top" xlink:title=" ">
<polygon fill="white" stroke="#666666" points="1125.75,-229.25 1003.25,-229.25 1003.25,-195.75 1125.75,-195.75 1125.75,-229.25"/>
<text text-anchor="start" x="1011.25" y="-215.75" font-family="Helvetica,sans-Serif" font-size="10.00">Simple&#45;Utility/nullables</text>
<text text-anchor="middle" x="1064.5" y="-203" font-family="Helvetica,sans-Serif" font-size="10.00">/and_then.hpp</text>
</a>
</g>
</g>
<!-- Node14&#45;&gt;Node15 -->
<g id="edge23" class="edge">
<title>Node14&#45;&gt;Node15</title>
<path fill="none" stroke="#63b8ff" d="M967.06,-260.15C987.66,-250.29 1011.87,-238.7 1031,-229.54"/>
<polygon fill="#63b8ff" stroke="#63b8ff" points="965.78,-257.36 958.27,-264.83 968.8,-263.67 965.78,-257.36"/>
</g>
<!-- Node17 -->
<g id="node17" class="node">
<title>Node17</title>
<g id="a_node17"><a xlink:href="../../d7/d5f/fwd__value_8hpp.html" target="_top" xlink:title=" ">
<polygon fill="white" stroke="#666666" points="702.75,-229.25 580.25,-229.25 580.25,-195.75 702.75,-195.75 702.75,-229.25"/>
<text text-anchor="start" x="588.25" y="-215.75" font-family="Helvetica,sans-Serif" font-size="10.00">Simple&#45;Utility/nullables</text>
<text text-anchor="middle" x="641.5" y="-203" font-family="Helvetica,sans-Serif" font-size="10.00">/fwd_value.hpp</text>
</a>
</g>
</g>
<!-- Node14&#45;&gt;Node17 -->
<g id="edge25" class="edge">
<title>Node14&#45;&gt;Node17</title>
<path fill="none" stroke="#63b8ff" d="M849.08,-263.19C803.47,-252.27 745.79,-238.46 702.82,-228.18"/>
<polygon fill="#63b8ff" stroke="#63b8ff" points="847.97,-266.76 858.51,-265.68 849.6,-259.95 847.97,-266.76"/>
</g>
<!-- Node18 -->
<g id="node18" class="node">
<title>Node18</title>
<g id="a_node18"><a xlink:href="../../d2/d0e/or__else_8hpp.html" target="_top" xlink:title=" ">
<polygon fill="white" stroke="#666666" points="843.75,-229.25 721.25,-229.25 721.25,-195.75 843.75,-195.75 843.75,-229.25"/>
<text text-anchor="start" x="729.25" y="-215.75" font-family="Helvetica,sans-Serif" font-size="10.00">Simple&#45;Utility/nullables</text>
<text text-anchor="middle" x="782.5" y="-203" font-family="Helvetica,sans-Serif" font-size="10.00">/or_else.hpp</text>
</a>
</g>
</g>
<!-- Node14&#45;&gt;Node18 -->
<g id="edge27" class="edge">
<title>Node14&#45;&gt;Node18</title>
<path fill="none" stroke="#63b8ff" d="M879.94,-260.15C859.34,-250.29 835.13,-238.7 816,-229.54"/>
<polygon fill="#63b8ff" stroke="#63b8ff" points="878.2,-263.67 888.73,-264.83 881.22,-257.36 878.2,-263.67"/>
</g>
<!-- Node19 -->
<g id="node19" class="node">
<title>Node19</title>
<g id="a_node19"><a xlink:href="../../d0/d48/value__or_8hpp.html" target="_top" xlink:title=" ">
<polygon fill="white" stroke="#666666" points="984.75,-229.25 862.25,-229.25 862.25,-195.75 984.75,-195.75 984.75,-229.25"/>
<text text-anchor="start" x="870.25" y="-215.75" font-family="Helvetica,sans-Serif" font-size="10.00">Simple&#45;Utility/nullables</text>
<text text-anchor="middle" x="923.5" y="-203" font-family="Helvetica,sans-Serif" font-size="10.00">/value_or.hpp</text>
</a>
</g>
</g>
<!-- Node14&#45;&gt;Node19 -->
<g id="edge29" class="edge">
<title>Node14&#45;&gt;Node19</title>
<path fill="none" stroke="#63b8ff" d="M923.5,-254.14C923.5,-245.75 923.5,-236.76 923.5,-229.38"/>
<polygon fill="#63b8ff" stroke="#63b8ff" points="920,-254 923.5,-264 927,-254 920,-254"/>
</g>
<!-- Node16 -->
<g id="node16" class="node">
<title>Node16</title>
<g id="a_node16"><a xlink:href="../../d3/ddc/nullables_8hpp.html" target="_top" xlink:title=" ">
<polygon fill="white" stroke="#666666" points="1205.88,-153.38 1063.12,-153.38 1063.12,-132.62 1205.88,-132.62 1205.88,-153.38"/>
<text text-anchor="middle" x="1134.5" y="-139.88" font-family="Helvetica,sans-Serif" font-size="10.00">Simple&#45;Utility/nullables.hpp</text>
</a>
</g>
</g>
<!-- Node15&#45;&gt;Node16 -->
<g id="edge24" class="edge">
<title>Node15&#45;&gt;Node16</title>
<path fill="none" stroke="#63b8ff" d="M1088.74,-188.12C1100.92,-176.38 1115.02,-162.78 1124.31,-153.82"/>
<polygon fill="#63b8ff" stroke="#63b8ff" points="1086.86,-185.04 1082.09,-194.5 1091.72,-190.08 1086.86,-185.04"/>
</g>
<!-- Node17&#45;&gt;Node16 -->
<g id="edge26" class="edge">
<title>Node17&#45;&gt;Node16</title>
<path fill="none" stroke="#63b8ff" d="M713.46,-195.69C842.44,-173.89 980.91,-158.76 1062.89,-150.66"/>
<polygon fill="#63b8ff" stroke="#63b8ff" points="713.27,-192.34 704,-197.48 714.45,-199.24 713.27,-192.34"/>
</g>
<!-- Node18&#45;&gt;Node16 -->
<g id="edge28" class="edge">
<title>Node18&#45;&gt;Node16</title>
<path fill="none" stroke="#63b8ff" d="M854.75,-195.54C938.23,-178.72 1023.09,-163.44 1077.6,-153.86"/>
<polygon fill="#63b8ff" stroke="#63b8ff" points="854.15,-192.29 845.04,-197.7 855.54,-199.15 854.15,-192.29"/>
</g>
<!-- Node19&#45;&gt;Node16 -->
<g id="edge30" class="edge">
<title>Node19&#45;&gt;Node16</title>
<path fill="none" stroke="#63b8ff" d="M984.25,-192.07C1023.31,-179.57 1072.43,-163.86 1103.65,-153.87"/>
<polygon fill="#63b8ff" stroke="#63b8ff" points="983.5,-188.95 975.04,-195.33 985.63,-195.62 983.5,-188.95"/>
</g>
<!-- Node20&#45;&gt;Node16 -->
<g id="edge32" class="edge">
<title>Node20&#45;&gt;Node16</title>
<path fill="none" stroke="#63b8ff" d="M1452.44,-196.3C1451.45,-196.12 1450.47,-195.93 1449.5,-195.75 1363.43,-179.65 1263.61,-163.71 1199.8,-153.87"/>
<polygon fill="#63b8ff" stroke="#63b8ff" points="1451.66,-199.91 1462.15,-198.39 1453,-193.04 1451.66,-199.91"/>
</g>
<!-- Node21&#45;&gt;Node15 -->
<g id="edge36" class="edge">
<title>Node21&#45;&gt;Node15</title>
<path fill="none" stroke="#63b8ff" d="M1161.94,-260.15C1141.34,-250.29 1117.13,-238.7 1098,-229.54"/>
<polygon fill="#63b8ff" stroke="#63b8ff" points="1160.2,-263.67 1170.73,-264.83 1163.22,-257.36 1160.2,-263.67"/>
</g>
<!-- Node21&#45;&gt;Node16 -->
<g id="edge34" class="edge">
<title>Node21&#45;&gt;Node16</title>
<path fill="none" stroke="#63b8ff" d="M1277.76,-275.83C1354.43,-267.6 1459.07,-246.85 1416.5,-195.75 1390.21,-164.2 1280.66,-151.82 1206.1,-147.01"/>
<polygon fill="#63b8ff" stroke="#63b8ff" points="1277.74,-272.42 1268.15,-276.91 1278.45,-279.38 1277.74,-272.42"/>
</g>
<!-- Node21&#45;&gt;Node17 -->
<g id="edge37" class="edge">
<title>Node21&#45;&gt;Node17</title>
<path fill="none" stroke="#63b8ff" d="M1133.32,-276.01C1036.96,-268.75 861.15,-253.46 712.5,-229.25 709.38,-228.74 706.2,-228.18 702.99,-227.59"/>
<polygon fill="#63b8ff" stroke="#63b8ff" points="1132.87,-279.56 1143.1,-276.81 1133.39,-272.58 1132.87,-279.56"/>
</g>
<!-- Node21&#45;&gt;Node18 -->
<g id="edge38" class="edge">
<title>Node21&#45;&gt;Node18</title>
<path fill="none" stroke="#63b8ff" d="M1133.26,-271.93C1061.93,-262.62 949.85,-246.99 853.5,-229.25 850.4,-228.68 847.22,-228.07 844.02,-227.43"/>
<polygon fill="#63b8ff" stroke="#63b8ff" points="1132.55,-275.5 1142.92,-273.32 1133.45,-268.56 1132.55,-275.5"/>
</g>
<!-- Node21&#45;&gt;Node19 -->
<g id="edge43" class="edge">
<title>Node21&#45;&gt;Node19</title>
<path fill="none" stroke="#63b8ff" d="M1133.48,-263.76C1087.53,-252.76 1028.63,-238.66 984.91,-228.2"/>
<polygon fill="#63b8ff" stroke="#63b8ff" points="1132.42,-267.35 1142.96,-266.27 1134.05,-260.54 1132.42,-267.35"/>
</g>
<!-- Node21&#45;&gt;Node20 -->
<g id="edge35" class="edge">
<title>Node21&#45;&gt;Node20</title>
<path fill="none" stroke="#63b8ff" d="M1277.53,-265.76C1333.37,-253.94 1409.9,-237.75 1462.91,-226.53"/>
<polygon fill="#63b8ff" stroke="#63b8ff" points="1277.07,-262.49 1268.01,-267.99 1278.51,-269.34 1277.07,-262.49"/>
</g>
<!-- Node22 -->
<g id="node22" class="node">
<title>Node22</title>
<g id="a_node22"><a xlink:href="../../d9/d20/std__optional_8hpp.html" target="_top" xlink:title=" ">
<polygon fill="white" stroke="#666666" points="1266.75,-229.25 1144.25,-229.25 1144.25,-195.75 1266.75,-195.75 1266.75,-229.25"/>
<text text-anchor="start" x="1152.25" y="-215.75" font-family="Helvetica,sans-Serif" font-size="10.00">Simple&#45;Utility/nullables</text>
<text text-anchor="middle" x="1205.5" y="-203" font-family="Helvetica,sans-Serif" font-size="10.00">/std_optional.hpp</text>
</a>
</g>
</g>
<!-- Node21&#45;&gt;Node22 -->
<g id="edge39" class="edge">
<title>Node21&#45;&gt;Node22</title>
<path fill="none" stroke="#63b8ff" d="M1205.5,-254.14C1205.5,-245.75 1205.5,-236.76 1205.5,-229.38"/>
<polygon fill="#63b8ff" stroke="#63b8ff" points="1202,-254 1205.5,-264 1209,-254 1202,-254"/>
</g>
<!-- Node23 -->
<g id="node23" class="node">
<title>Node23</title>
<g id="a_node23"><a xlink:href="../../d8/d9a/std__pointers_8hpp.html" target="_top" xlink:title=" ">
<polygon fill="white" stroke="#666666" points="1407.75,-229.25 1285.25,-229.25 1285.25,-195.75 1407.75,-195.75 1407.75,-229.25"/>
<text text-anchor="start" x="1293.25" y="-215.75" font-family="Helvetica,sans-Serif" font-size="10.00">Simple&#45;Utility/nullables</text>
<text text-anchor="middle" x="1346.5" y="-203" font-family="Helvetica,sans-Serif" font-size="10.00">/std_pointers.hpp</text>
</a>
</g>
</g>
<!-- Node21&#45;&gt;Node23 -->
<g id="edge41" class="edge">
<title>Node21&#45;&gt;Node23</title>
<path fill="none" stroke="#63b8ff" d="M1249.06,-260.15C1269.66,-250.29 1293.87,-238.7 1313,-229.54"/>
<polygon fill="#63b8ff" stroke="#63b8ff" points="1247.78,-257.36 1240.27,-264.83 1250.8,-263.67 1247.78,-257.36"/>
</g>
<!-- Node21&#45;&gt;Node24 -->
<g id="edge44" class="edge">
<title>Node21&#45;&gt;Node24</title>
<path fill="none" stroke="#63b8ff" d="M1277.85,-273.68C1356.24,-265.22 1484.81,-249.78 1594.5,-229.25 1597.47,-228.69 1600.5,-228.09 1603.56,-227.45"/>
<polygon fill="#63b8ff" stroke="#63b8ff" points="1277.7,-270.29 1268.13,-274.83 1278.44,-277.25 1277.7,-270.29"/>
</g>
<!-- Node22&#45;&gt;Node16 -->
<g id="edge40" class="edge">
<title>Node22&#45;&gt;Node16</title>
<path fill="none" stroke="#63b8ff" d="M1180.91,-188.12C1168.56,-176.38 1154.26,-162.78 1144.83,-153.82"/>
<polygon fill="#63b8ff" stroke="#63b8ff" points="1178.01,-190.15 1187.67,-194.5 1182.84,-185.08 1178.01,-190.15"/>
</g>
<!-- Node23&#45;&gt;Node16 -->
<g id="edge42" class="edge">
<title>Node23&#45;&gt;Node16</title>
<path fill="none" stroke="#63b8ff" d="M1285.46,-192.07C1246.21,-179.57 1196.87,-163.86 1165.5,-153.87"/>
<polygon fill="#63b8ff" stroke="#63b8ff" points="1284.13,-195.63 1294.72,-195.33 1286.25,-188.96 1284.13,-195.63"/>
</g>
</g>
</svg>
