<?xml version="1.0" encoding="UTF-8" standalone="no"?>
<!DOCTYPE svg PUBLIC "-//W3C//DTD SVG 1.1//EN"
 "http://www.w3.org/Graphics/SVG/1.1/DTD/svg11.dtd">
<!-- Generated by graphviz version 8.0.5 (20230430.1635)
 -->
<!-- Title: Simple&#45;Utility/Config.hpp Pages: 1 -->
<!--zoomable 364 -->
<svg id="main" version="1.1" xmlns="http://www.w3.org/2000/svg" xmlns:xlink="http://www.w3.org/1999/xlink" xml:space="preserve" onload="init(evt)">
<style type="text/css"><![CDATA[
.edge:hover path { stroke: red; }
.edge:hover polygon { stroke: red; fill: red; }
]]></style>
<script type="text/javascript"><![CDATA[
var edges = document.getElementsByTagName('g');
if (edges && edges.length) {
  for (var i=0;i<edges.length;i++) {
    if (edges[i].id.substr(0,4)=='edge') {
      edges[i].setAttribute('class','edge');
    }
  }
}
]]></script>
        <defs>
                <circle id="rim" cx="0" cy="0" r="7"/>
                <circle id="rim2" cx="0" cy="0" r="3.5"/>
                <g id="zoomPlus">
                        <use xlink:href="#rim" fill="#404040">
                                <set attributeName="fill" to="#808080" begin="zoomplus.mouseover" end="zoomplus.mouseout"/>
                        </use>
                        <path d="M-4,0h8M0,-4v8" fill="none" stroke="white" stroke-width="1.5" pointer-events="none"/>
                </g>
                <g id="zoomMin">
                        <use xlink:href="#rim" fill="#404040">
                                <set attributeName="fill" to="#808080" begin="zoomminus.mouseover" end="zoomminus.mouseout"/>
                        </use>
                        <path d="M-4,0h8" fill="none" stroke="white" stroke-width="1.5" pointer-events="none"/>
                </g>
                <g id="dirArrow">
                        <path fill="none" stroke="white" stroke-width="1.5" d="M0,-3.0v7 M-2.5,-0.5L0,-3.0L2.5,-0.5"/>
                </g>
               <g id="resetDef">
                       <use xlink:href="#rim2" fill="#404040">
                               <set attributeName="fill" to="#808080" begin="reset.mouseover" end="reset.mouseout"/>
                       </use>
               </g>
        </defs>

<script type="text/javascript">
var viewWidth = 2051;
var viewHeight = 364;
var sectionId = 'dynsection-0';
</script>
<script xlink:href="../../svgpan.js"/>
<svg id="graph" class="graph">
<g id="viewport">
<title>Simple&#45;Utility/Config.hpp</title>
<!-- Node1 -->
<g id="node1" class="node">
<title>Node1</title>
<g id="a_node1"><a xlink:title=" ">
<polygon fill="#999999" stroke="#666666" points="1547.75,-355.5 1415.5,-355.5 1415.5,-334.75 1547.75,-334.75 1547.75,-355.5"/>
<text text-anchor="middle" x="1481.62" y="-342" font-family="Helvetica,sans-Serif" font-size="10.00">Simple&#45;Utility/Config.hpp</text>
</a>
</g>
</g>
<!-- Node2 -->
<g id="node2" class="node">
<title>Node2</title>
<g id="a_node2"><a xlink:href="../../d3/d48/_composition_8hpp.html" target="_top" xlink:title=" ">
<polygon fill="white" stroke="#666666" points="360.12,-298.75 233.12,-298.75 233.12,-265.25 360.12,-265.25 360.12,-298.75"/>
<text text-anchor="start" x="241.12" y="-285.25" font-family="Helvetica,sans-Serif" font-size="10.00">Simple&#45;Utility/functional</text>
<text text-anchor="middle" x="296.62" y="-272.5" font-family="Helvetica,sans-Serif" font-size="10.00">/Composition.hpp</text>
</a>
</g>
</g>
<!-- Node1&#45;&gt;Node2 -->
<g id="edge1" class="edge">
<title>Node1&#45;&gt;Node2</title>
<path fill="none" stroke="#63b8ff" d="M1404.63,-340.15C1185.72,-328.86 562.49,-296.71 360.59,-286.3"/>
<polygon fill="#63b8ff" stroke="#63b8ff" points="1404.2,-343.69 1414.37,-340.71 1404.56,-336.7 1404.2,-343.69"/>
</g>
<!-- Node14 -->
<g id="node14" class="node">
<title>Node14</title>
<g id="a_node14"><a xlink:href="../../d2/dc8/bind__back_8hpp.html" target="_top" xlink:title=" ">
<polygon fill="white" stroke="#666666" points="1245.12,-298.75 1118.12,-298.75 1118.12,-265.25 1245.12,-265.25 1245.12,-298.75"/>
<text text-anchor="start" x="1126.12" y="-285.25" font-family="Helvetica,sans-Serif" font-size="10.00">Simple&#45;Utility/functional</text>
<text text-anchor="middle" x="1181.62" y="-272.5" font-family="Helvetica,sans-Serif" font-size="10.00">/bind_back.hpp</text>
</a>
</g>
</g>
<!-- Node1&#45;&gt;Node14 -->
<g id="edge27" class="edge">
<title>Node1&#45;&gt;Node14</title>
<path fill="none" stroke="#63b8ff" d="M1422.88,-332.16C1371.79,-321.75 1297.91,-306.69 1245.39,-295.99"/>
<polygon fill="#63b8ff" stroke="#63b8ff" points="1421.92,-335.74 1432.42,-334.3 1423.32,-328.88 1421.92,-335.74"/>
</g>
<!-- Node20 -->
<g id="node20" class="node">
<title>Node20</title>
<g id="a_node20"><a xlink:href="../../d6/dca/adapter_8hpp.html" target="_top" xlink:title=" ">
<polygon fill="white" stroke="#666666" points="1913.87,-229.25 1791.37,-229.25 1791.37,-195.75 1913.87,-195.75 1913.87,-229.25"/>
<text text-anchor="start" x="1799.37" y="-215.75" font-family="Helvetica,sans-Serif" font-size="10.00">Simple&#45;Utility/nullables</text>
<text text-anchor="middle" x="1852.62" y="-203" font-family="Helvetica,sans-Serif" font-size="10.00">/adapter.hpp</text>
</a>
</g>
</g>
<!-- Node1&#45;&gt;Node20 -->
<g id="edge37" class="edge">
<title>Node1&#45;&gt;Node20</title>
<path fill="none" stroke="#63b8ff" d="M1519.86,-330.66C1588.56,-306.47 1732.58,-255.76 1806.58,-229.71"/>
<polygon fill="#63b8ff" stroke="#63b8ff" points="1518.78,-327.68 1510.51,-334.31 1521.1,-334.29 1518.78,-327.68"/>
</g>
<!-- Node21 -->
<g id="node21" class="node">
<title>Node21</title>
<g id="a_node21"><a xlink:href="../../dd/d3c/base_8hpp.html" target="_top" xlink:title=" ">
<polygon fill="white" stroke="#666666" points="1542.87,-298.75 1420.37,-298.75 1420.37,-265.25 1542.87,-265.25 1542.87,-298.75"/>
<text text-anchor="start" x="1428.37" y="-285.25" font-family="Helvetica,sans-Serif" font-size="10.00">Simple&#45;Utility/nullables</text>
<text text-anchor="middle" x="1481.62" y="-272.5" font-family="Helvetica,sans-Serif" font-size="10.00">/base.hpp</text>
</a>
</g>
</g>
<!-- Node1&#45;&gt;Node21 -->
<g id="edge39" class="edge">
<title>Node1&#45;&gt;Node21</title>
<path fill="none" stroke="#63b8ff" d="M1481.62,-323.4C1481.62,-315.51 1481.62,-306.65 1481.62,-299.23"/>
<polygon fill="#63b8ff" stroke="#63b8ff" points="1478.12,-323.3 1481.62,-333.3 1485.12,-323.3 1478.12,-323.3"/>
</g>
<!-- Node24 -->
<g id="node24" class="node">
<title>Node24</title>
<g id="a_node24"><a xlink:href="../../d0/d0f/unique__handle_8hpp.html" target="_top" xlink:title=" ">
<polygon fill="white" stroke="#666666" points="2043.25,-229.25 1932,-229.25 1932,-195.75 2043.25,-195.75 2043.25,-229.25"/>
<text text-anchor="start" x="1940" y="-215.75" font-family="Helvetica,sans-Serif" font-size="10.00">Simple&#45;Utility/unique</text>
<text text-anchor="middle" x="1987.62" y="-203" font-family="Helvetica,sans-Serif" font-size="10.00">_handle.hpp</text>
</a>
</g>
</g>
<!-- Node1&#45;&gt;Node24 -->
<g id="edge51" class="edge">
<title>Node1&#45;&gt;Node24</title>
<path fill="none" stroke="#63b8ff" d="M1534.42,-331.85C1572.37,-322.93 1624.74,-310.43 1670.62,-298.75 1762.3,-275.42 1868.37,-246.5 1931.62,-229.05"/>
<polygon fill="#63b8ff" stroke="#63b8ff" points="1534.05,-328.58 1525.11,-334.27 1535.65,-335.39 1534.05,-328.58"/>
</g>
<!-- Node3 -->
<g id="node3" class="node">
<title>Node3</title>
<g id="a_node3"><a xlink:href="../../d2/db4/functional_8hpp.html" target="_top" xlink:title=" ">
<polygon fill="white" stroke="#666666" points="449.25,-20.75 302,-20.75 302,0 449.25,0 449.25,-20.75"/>
<text text-anchor="middle" x="375.62" y="-7.25" font-family="Helvetica,sans-Serif" font-size="10.00">Simple&#45;Utility/functional.hpp</text>
</a>
</g>
</g>
<!-- Node2&#45;&gt;Node3 -->
<g id="edge2" class="edge">
<title>Node2&#45;&gt;Node3</title>
<path fill="none" stroke="#63b8ff" d="M222.08,-278.29C145.17,-273.75 32.73,-261.6 5.62,-229.25 -3.94,-217.84 1.02,-209.91 5.62,-195.75 29.22,-123.12 41.71,-96.97 106.62,-56.75 138.43,-37.04 233.44,-24.38 301.52,-17.57"/>
<polygon fill="#63b8ff" stroke="#63b8ff" points="221.5,-281.82 231.68,-278.88 221.89,-274.83 221.5,-281.82"/>
</g>
<!-- Node4 -->
<g id="node4" class="node">
<title>Node4</title>
<g id="a_node4"><a xlink:href="../../d7/d0e/_conjunction_8hpp.html" target="_top" xlink:title=" ">
<polygon fill="white" stroke="#666666" points="142.12,-229.25 15.12,-229.25 15.12,-195.75 142.12,-195.75 142.12,-229.25"/>
<text text-anchor="start" x="23.12" y="-215.75" font-family="Helvetica,sans-Serif" font-size="10.00">Simple&#45;Utility/functional</text>
<text text-anchor="middle" x="78.62" y="-203" font-family="Helvetica,sans-Serif" font-size="10.00">/mixins/Conjunction.hpp</text>
</a>
</g>
</g>
<!-- Node2&#45;&gt;Node4 -->
<g id="edge3" class="edge">
<title>Node2&#45;&gt;Node4</title>
<path fill="none" stroke="#63b8ff" d="M234.05,-261.63C201.36,-251.5 161.81,-239.26 130.79,-229.65"/>
<polygon fill="#63b8ff" stroke="#63b8ff" points="232.82,-265.22 243.4,-264.83 234.89,-258.53 232.82,-265.22"/>
</g>
<!-- Node7 -->
<g id="node7" class="node">
<title>Node7</title>
<g id="a_node7"><a xlink:href="../../d7/ddc/_disjunction_8hpp.html" target="_top" xlink:title=" ">
<polygon fill="white" stroke="#666666" points="287.12,-229.25 160.12,-229.25 160.12,-195.75 287.12,-195.75 287.12,-229.25"/>
<text text-anchor="start" x="168.12" y="-215.75" font-family="Helvetica,sans-Serif" font-size="10.00">Simple&#45;Utility/functional</text>
<text text-anchor="middle" x="223.62" y="-203" font-family="Helvetica,sans-Serif" font-size="10.00">/mixins/Disjunction.hpp</text>
</a>
</g>
</g>
<!-- Node2&#45;&gt;Node7 -->
<g id="edge9" class="edge">
<title>Node2&#45;&gt;Node7</title>
<path fill="none" stroke="#63b8ff" d="M271.3,-257.59C261.32,-248.35 250.1,-237.98 241.05,-229.62"/>
<polygon fill="#63b8ff" stroke="#63b8ff" points="268.6,-259.78 278.32,-264 273.36,-254.64 268.6,-259.78"/>
</g>
<!-- Node8 -->
<g id="node8" class="node">
<title>Node8</title>
<g id="a_node8"><a xlink:href="../../de/d71/_equality_8hpp.html" target="_top" xlink:title=" ">
<polygon fill="white" stroke="#666666" points="432.12,-229.25 305.12,-229.25 305.12,-195.75 432.12,-195.75 432.12,-229.25"/>
<text text-anchor="start" x="313.12" y="-215.75" font-family="Helvetica,sans-Serif" font-size="10.00">Simple&#45;Utility/functional</text>
<text text-anchor="middle" x="368.62" y="-203" font-family="Helvetica,sans-Serif" font-size="10.00">/mixins/Equality.hpp</text>
</a>
</g>
</g>
<!-- Node2&#45;&gt;Node8 -->
<g id="edge12" class="edge">
<title>Node2&#45;&gt;Node8</title>
<path fill="none" stroke="#63b8ff" d="M321.66,-257.53C331.58,-248.23 342.73,-237.77 351.68,-229.38"/>
<polygon fill="#63b8ff" stroke="#63b8ff" points="319.59,-254.61 314.68,-264 324.37,-259.72 319.59,-254.61"/>
</g>
<!-- Node9 -->
<g id="node9" class="node">
<title>Node9</title>
<g id="a_node9"><a xlink:href="../../d2/df5/_pipe_8hpp.html" target="_top" xlink:title=" ">
<polygon fill="white" stroke="#666666" points="577.12,-229.25 450.12,-229.25 450.12,-195.75 577.12,-195.75 577.12,-229.25"/>
<text text-anchor="start" x="458.12" y="-215.75" font-family="Helvetica,sans-Serif" font-size="10.00">Simple&#45;Utility/functional</text>
<text text-anchor="middle" x="513.62" y="-203" font-family="Helvetica,sans-Serif" font-size="10.00">/mixins/Pipe.hpp</text>
</a>
</g>
</g>
<!-- Node2&#45;&gt;Node9 -->
<g id="edge15" class="edge">
<title>Node2&#45;&gt;Node9</title>
<path fill="none" stroke="#63b8ff" d="M358.91,-261.63C391.45,-251.5 430.81,-239.26 461.69,-229.65"/>
<polygon fill="#63b8ff" stroke="#63b8ff" points="358.11,-258.52 349.6,-264.83 360.19,-265.2 358.11,-258.52"/>
</g>
<!-- Node4&#45;&gt;Node3 -->
<g id="edge4" class="edge">
<title>Node4&#45;&gt;Node3</title>
<path fill="none" stroke="#63b8ff" d="M80.63,-184.67C84.76,-149.68 97.33,-89.15 135.62,-56.75 160.3,-35.86 240.74,-23.76 301.76,-17.39"/>
<polygon fill="#63b8ff" stroke="#63b8ff" points="77.06,-184.17 79.53,-194.47 84.02,-184.88 77.06,-184.17"/>
</g>
<!-- Node5 -->
<g id="node5" class="node">
<title>Node5</title>
<g id="a_node5"><a xlink:href="../../d4/d53/_predicate_8hpp.html" target="_top" xlink:title=" ">
<polygon fill="white" stroke="#666666" points="294.12,-159.75 167.12,-159.75 167.12,-126.25 294.12,-126.25 294.12,-159.75"/>
<text text-anchor="start" x="175.12" y="-146.25" font-family="Helvetica,sans-Serif" font-size="10.00">Simple&#45;Utility/functional</text>
<text text-anchor="middle" x="230.62" y="-133.5" font-family="Helvetica,sans-Serif" font-size="10.00">/Predicate.hpp</text>
</a>
</g>
</g>
<!-- Node4&#45;&gt;Node5 -->
<g id="edge5" class="edge">
<title>Node4&#45;&gt;Node5</title>
<path fill="none" stroke="#63b8ff" d="M124.93,-190.93C147.18,-181.05 173.46,-169.38 194.25,-160.15"/>
<polygon fill="#63b8ff" stroke="#63b8ff" points="123.75,-188.07 116.03,-195.33 126.59,-194.47 123.75,-188.07"/>
</g>
<!-- Node5&#45;&gt;Node3 -->
<g id="edge6" class="edge">
<title>Node5&#45;&gt;Node3</title>
<path fill="none" stroke="#63b8ff" d="M190.54,-119.76C180.18,-111.89 170.35,-102.01 164.62,-90.25 158.11,-76.86 155.27,-68.33 164.62,-56.75 181.81,-35.47 248.02,-23.71 301.75,-17.52"/>
<polygon fill="#63b8ff" stroke="#63b8ff" points="188.08,-123.02 198.28,-125.9 192.1,-117.29 188.08,-123.02"/>
</g>
<!-- Node6 -->
<g id="node6" class="node">
<title>Node6</title>
<g id="a_node6"><a xlink:href="../../d8/d60/_compare_8hpp.html" target="_top" xlink:title=" ">
<polygon fill="white" stroke="#666666" points="301.12,-90.25 174.12,-90.25 174.12,-56.75 301.12,-56.75 301.12,-90.25"/>
<text text-anchor="start" x="182.12" y="-76.75" font-family="Helvetica,sans-Serif" font-size="10.00">Simple&#45;Utility/functional</text>
<text text-anchor="middle" x="237.62" y="-64" font-family="Helvetica,sans-Serif" font-size="10.00">/Compare.hpp</text>
</a>
</g>
</g>
<!-- Node5&#45;&gt;Node6 -->
<g id="edge7" class="edge">
<title>Node5&#45;&gt;Node6</title>
<path fill="none" stroke="#63b8ff" d="M233.41,-115.14C234.28,-106.75 235.21,-97.76 235.97,-90.38"/>
<polygon fill="#63b8ff" stroke="#63b8ff" points="229.83,-114.7 232.28,-125 236.79,-115.42 229.83,-114.7"/>
</g>
<!-- Node6&#45;&gt;Node3 -->
<g id="edge8" class="edge">
<title>Node6&#45;&gt;Node3</title>
<path fill="none" stroke="#63b8ff" d="M284.02,-51.95C307.47,-41.56 334.84,-29.44 353.52,-21.17"/>
<polygon fill="#63b8ff" stroke="#63b8ff" points="282.97,-49.03 275.24,-56.28 285.8,-55.43 282.97,-49.03"/>
</g>
<!-- Node7&#45;&gt;Node3 -->
<g id="edge10" class="edge">
<title>Node7&#45;&gt;Node3</title>
<path fill="none" stroke="#63b8ff" d="M183.75,-189.16C173.4,-181.28 163.51,-171.43 157.62,-159.75 137,-118.87 126.7,-92.25 155.62,-56.75 173.91,-34.3 245.01,-22.63 301.5,-16.78"/>
<polygon fill="#63b8ff" stroke="#63b8ff" points="181.28,-192.41 191.48,-195.3 185.31,-186.68 181.28,-192.41"/>
</g>
<!-- Node7&#45;&gt;Node5 -->
<g id="edge11" class="edge">
<title>Node7&#45;&gt;Node5</title>
<path fill="none" stroke="#63b8ff" d="M226.41,-184.64C227.28,-176.25 228.21,-167.26 228.97,-159.88"/>
<polygon fill="#63b8ff" stroke="#63b8ff" points="222.83,-184.2 225.28,-194.5 229.79,-184.92 222.83,-184.2"/>
</g>
<!-- Node8&#45;&gt;Node3 -->
<g id="edge13" class="edge">
<title>Node8&#45;&gt;Node3</title>
<path fill="none" stroke="#63b8ff" d="M359.07,-185.36C349.1,-154.24 336.48,-100.91 348.62,-56.75 352.32,-43.32 361.14,-29.84 367.7,-21.1"/>
<polygon fill="#63b8ff" stroke="#63b8ff" points="355.94,-186.03 362.44,-194.39 362.57,-183.8 355.94,-186.03"/>
</g>
<!-- Node8&#45;&gt;Node5 -->
<g id="edge14" class="edge">
<title>Node8&#45;&gt;Node5</title>
<path fill="none" stroke="#63b8ff" d="M325.72,-190.51C305.62,-180.68 282.05,-169.16 263.41,-160.04"/>
<polygon fill="#63b8ff" stroke="#63b8ff" points="324.05,-194.08 334.57,-195.33 327.12,-187.79 324.05,-194.08"/>
</g>
<!-- Node9&#45;&gt;Node3 -->
<g id="edge16" class="edge">
<title>Node9&#45;&gt;Node3</title>
<path fill="none" stroke="#63b8ff" d="M587.97,-201.55C701.44,-183.49 897.25,-139.33 822.62,-56.75 798.14,-29.66 570.32,-17.92 449.72,-13.57"/>
<polygon fill="#63b8ff" stroke="#63b8ff" points="587.6,-198.22 578.25,-203.21 588.67,-205.14 587.6,-198.22"/>
</g>
<!-- Node9&#45;&gt;Node5 -->
<g id="edge17" class="edge">
<title>Node9&#45;&gt;Node5</title>
<path fill="none" stroke="#63b8ff" d="M439.16,-193.74C394.09,-182.99 337.22,-169.42 294.25,-159.18"/>
<polygon fill="#63b8ff" stroke="#63b8ff" points="438.22,-197.35 448.76,-196.27 439.84,-190.54 438.22,-197.35"/>
</g>
<!-- Node10 -->
<g id="node10" class="node">
<title>Node10</title>
<g id="a_node10"><a xlink:href="../../d9/d8c/_transform_8hpp.html" target="_top" xlink:title=" ">
<polygon fill="white" stroke="#666666" points="577.12,-159.75 450.12,-159.75 450.12,-126.25 577.12,-126.25 577.12,-159.75"/>
<text text-anchor="start" x="458.12" y="-146.25" font-family="Helvetica,sans-Serif" font-size="10.00">Simple&#45;Utility/functional</text>
<text text-anchor="middle" x="513.62" y="-133.5" font-family="Helvetica,sans-Serif" font-size="10.00">/Transform.hpp</text>
</a>
</g>
</g>
<!-- Node9&#45;&gt;Node10 -->
<g id="edge18" class="edge">
<title>Node9&#45;&gt;Node10</title>
<path fill="none" stroke="#63b8ff" d="M513.62,-184.64C513.62,-176.25 513.62,-167.26 513.62,-159.88"/>
<polygon fill="#63b8ff" stroke="#63b8ff" points="510.12,-184.5 513.62,-194.5 517.12,-184.5 510.12,-184.5"/>
</g>
<!-- Node10&#45;&gt;Node3 -->
<g id="edge19" class="edge">
<title>Node10&#45;&gt;Node3</title>
<path fill="none" stroke="#63b8ff" d="M513.62,-114.95C512.23,-96.54 507.54,-72.71 493.62,-56.75 477.9,-38.72 454.17,-27.81 432.11,-21.24"/>
<polygon fill="#63b8ff" stroke="#63b8ff" points="510.16,-115.03 514.11,-124.86 517.16,-114.72 510.16,-115.03"/>
</g>
<!-- Node10&#45;&gt;Node6 -->
<g id="edge22" class="edge">
<title>Node10&#45;&gt;Node6</title>
<path fill="none" stroke="#63b8ff" d="M439.52,-123.88C396.43,-113.34 342.66,-100.19 301.45,-90.11"/>
<polygon fill="#63b8ff" stroke="#63b8ff" points="438.41,-127.45 448.95,-126.43 440.07,-120.65 438.41,-127.45"/>
</g>
<!-- Node11 -->
<g id="node11" class="node">
<title>Node11</title>
<g id="a_node11"><a xlink:href="../../d3/dc2/_arithmetic_8hpp.html" target="_top" xlink:title=" ">
<polygon fill="white" stroke="#666666" points="669.12,-90.25 542.12,-90.25 542.12,-56.75 669.12,-56.75 669.12,-90.25"/>
<text text-anchor="start" x="550.12" y="-76.75" font-family="Helvetica,sans-Serif" font-size="10.00">Simple&#45;Utility/functional</text>
<text text-anchor="middle" x="605.62" y="-64" font-family="Helvetica,sans-Serif" font-size="10.00">/Arithmetic.hpp</text>
</a>
</g>
</g>
<!-- Node10&#45;&gt;Node11 -->
<g id="edge20" class="edge">
<title>Node10&#45;&gt;Node11</title>
<path fill="none" stroke="#63b8ff" d="M544.03,-119.69C556.98,-110.19 571.8,-99.31 583.66,-90.62"/>
<polygon fill="#63b8ff" stroke="#63b8ff" points="542.42,-117.27 536.42,-126 546.56,-122.91 542.42,-117.27"/>
</g>
<!-- Node12 -->
<g id="node12" class="node">
<title>Node12</title>
<g id="a_node12"><a xlink:href="../../da/dae/functional_2_tuple_8hpp.html" target="_top" xlink:title=" ">
<polygon fill="white" stroke="#666666" points="814.12,-90.25 687.12,-90.25 687.12,-56.75 814.12,-56.75 814.12,-90.25"/>
<text text-anchor="start" x="695.12" y="-76.75" font-family="Helvetica,sans-Serif" font-size="10.00">Simple&#45;Utility/functional</text>
<text text-anchor="middle" x="750.62" y="-64" font-family="Helvetica,sans-Serif" font-size="10.00">/Tuple.hpp</text>
</a>
</g>
</g>
<!-- Node10&#45;&gt;Node12 -->
<g id="edge23" class="edge">
<title>Node10&#45;&gt;Node12</title>
<path fill="none" stroke="#63b8ff" d="M580.72,-122.89C616.44,-112.72 659.89,-100.34 693.91,-90.65"/>
<polygon fill="#63b8ff" stroke="#63b8ff" points="580.05,-119.73 571.39,-125.83 581.96,-126.46 580.05,-119.73"/>
</g>
<!-- Node13 -->
<g id="node13" class="node">
<title>Node13</title>
<g id="a_node13"><a xlink:href="../../de/d61/functional_2_utility_8hpp.html" target="_top" xlink:title=" ">
<polygon fill="white" stroke="#666666" points="485.12,-90.25 358.12,-90.25 358.12,-56.75 485.12,-56.75 485.12,-90.25"/>
<text text-anchor="start" x="366.12" y="-76.75" font-family="Helvetica,sans-Serif" font-size="10.00">Simple&#45;Utility/functional</text>
<text text-anchor="middle" x="421.62" y="-64" font-family="Helvetica,sans-Serif" font-size="10.00">/Utility.hpp</text>
</a>
</g>
</g>
<!-- Node10&#45;&gt;Node13 -->
<g id="edge25" class="edge">
<title>Node10&#45;&gt;Node13</title>
<path fill="none" stroke="#63b8ff" d="M483.21,-119.69C470.26,-110.19 455.44,-99.31 443.59,-90.62"/>
<polygon fill="#63b8ff" stroke="#63b8ff" points="480.69,-122.91 490.82,-126 484.83,-117.27 480.69,-122.91"/>
</g>
<!-- Node11&#45;&gt;Node3 -->
<g id="edge21" class="edge">
<title>Node11&#45;&gt;Node3</title>
<path fill="none" stroke="#63b8ff" d="M534.01,-53.47C493.72,-42.76 445.11,-29.84 412.46,-21.17"/>
<polygon fill="#63b8ff" stroke="#63b8ff" points="533.03,-57.09 543.59,-56.28 534.82,-50.33 533.03,-57.09"/>
</g>
<!-- Node12&#45;&gt;Node3 -->
<g id="edge24" class="edge">
<title>Node12&#45;&gt;Node3</title>
<path fill="none" stroke="#63b8ff" d="M676.28,-56.57C592.9,-41.53 508.44,-29.25 449.68,-21.17"/>
<polygon fill="#63b8ff" stroke="#63b8ff" points="675.5,-60.17 685.97,-58.52 676.76,-53.28 675.5,-60.17"/>
</g>
<!-- Node13&#45;&gt;Node3 -->
<g id="edge26" class="edge">
<title>Node13&#45;&gt;Node3</title>
<path fill="none" stroke="#63b8ff" d="M403.07,-47.85C396.04,-38.51 388.45,-28.42 383.03,-21.22"/>
<polygon fill="#63b8ff" stroke="#63b8ff" points="400.73,-49.55 409.54,-55.44 406.32,-45.35 400.73,-49.55"/>
</g>
<!-- Node14&#45;&gt;Node3 -->
<g id="edge28" class="edge">
<title>Node14&#45;&gt;Node3</title>
<path fill="none" stroke="#63b8ff" d="M1107.41,-275.98C1034.45,-269.56 929.78,-255.94 899.62,-229.25 839.46,-176.01 908,-107.38 845.62,-56.75 815.59,-32.37 574.34,-19.28 449.67,-14.08"/>
<polygon fill="#63b8ff" stroke="#63b8ff" points="1106.67,-279.51 1116.93,-276.87 1107.27,-272.54 1106.67,-279.51"/>
</g>
<!-- Node15 -->
<g id="node15" class="node">
<title>Node15</title>
<g id="a_node15"><a xlink:href="../../d4/dc9/and__then_8hpp.html" target="_top" xlink:title=" ">
<polygon fill="white" stroke="#666666" points="1171.87,-229.25 1049.37,-229.25 1049.37,-195.75 1171.87,-195.75 1171.87,-229.25"/>
<text text-anchor="start" x="1057.37" y="-215.75" font-family="Helvetica,sans-Serif" font-size="10.00">Simple&#45;Utility/nullables</text>
<text text-anchor="middle" x="1110.62" y="-203" font-family="Helvetica,sans-Serif" font-size="10.00">/and_then.hpp</text>
</a>
</g>
</g>
<!-- Node14&#45;&gt;Node15 -->
<g id="edge29" class="edge">
<title>Node14&#45;&gt;Node15</title>
<path fill="none" stroke="#63b8ff" d="M1156.93,-257.53C1147.15,-248.23 1136.15,-237.77 1127.33,-229.38"/>
<polygon fill="#63b8ff" stroke="#63b8ff" points="1154.14,-259.65 1163.8,-264 1158.96,-254.58 1154.14,-259.65"/>
</g>
<!-- Node17 -->
<g id="node17" class="node">
<title>Node17</title>
<g id="a_node17"><a xlink:href="../../d7/d5f/fwd__value_8hpp.html" target="_top" xlink:title=" ">
<polygon fill="white" stroke="#666666" points="1312.87,-229.25 1190.37,-229.25 1190.37,-195.75 1312.87,-195.75 1312.87,-229.25"/>
<text text-anchor="start" x="1198.37" y="-215.75" font-family="Helvetica,sans-Serif" font-size="10.00">Simple&#45;Utility/nullables</text>
<text text-anchor="middle" x="1251.62" y="-203" font-family="Helvetica,sans-Serif" font-size="10.00">/fwd_value.hpp</text>
</a>
</g>
</g>
<!-- Node14&#45;&gt;Node17 -->
<g id="edge31" class="edge">
<title>Node14&#45;&gt;Node17</title>
<path fill="none" stroke="#63b8ff" d="M1205.96,-257.53C1215.61,-248.23 1226.45,-237.77 1235.15,-229.38"/>
<polygon fill="#63b8ff" stroke="#63b8ff" points="1203.98,-254.54 1199.21,-264 1208.84,-259.58 1203.98,-254.54"/>
</g>
<!-- Node18 -->
<g id="node18" class="node">
<title>Node18</title>
<g id="a_node18"><a xlink:href="../../d2/d0e/or__else_8hpp.html" target="_top" xlink:title=" ">
<polygon fill="white" stroke="#666666" points="1453.87,-229.25 1331.37,-229.25 1331.37,-195.75 1453.87,-195.75 1453.87,-229.25"/>
<text text-anchor="start" x="1339.37" y="-215.75" font-family="Helvetica,sans-Serif" font-size="10.00">Simple&#45;Utility/nullables</text>
<text text-anchor="middle" x="1392.62" y="-203" font-family="Helvetica,sans-Serif" font-size="10.00">/or_else.hpp</text>
</a>
</g>
</g>
<!-- Node14&#45;&gt;Node18 -->
<g id="edge33" class="edge">
<title>Node14&#45;&gt;Node18</title>
<path fill="none" stroke="#63b8ff" d="M1242.59,-261.49C1274.16,-251.4 1312.23,-239.22 1342.13,-229.65"/>
<polygon fill="#63b8ff" stroke="#63b8ff" points="1241.62,-258.45 1233.16,-264.83 1243.75,-265.12 1241.62,-258.45"/>
</g>
<!-- Node19 -->
<g id="node19" class="node">
<title>Node19</title>
<g id="a_node19"><a xlink:href="../../d0/d48/value__or_8hpp.html" target="_top" xlink:title=" ">
<polygon fill="white" stroke="#666666" points="1030.87,-229.25 908.37,-229.25 908.37,-195.75 1030.87,-195.75 1030.87,-229.25"/>
<text text-anchor="start" x="916.37" y="-215.75" font-family="Helvetica,sans-Serif" font-size="10.00">Simple&#45;Utility/nullables</text>
<text text-anchor="middle" x="969.62" y="-203" font-family="Helvetica,sans-Serif" font-size="10.00">/value_or.hpp</text>
</a>
</g>
</g>
<!-- Node14&#45;&gt;Node19 -->
<g id="edge35" class="edge">
<title>Node14&#45;&gt;Node19</title>
<path fill="none" stroke="#63b8ff" d="M1120.77,-261.63C1088.98,-251.5 1050.52,-239.26 1020.35,-229.65"/>
<polygon fill="#63b8ff" stroke="#63b8ff" points="1119.25,-265.13 1129.84,-264.83 1121.38,-258.46 1119.25,-265.13"/>
</g>
<!-- Node16 -->
<g id="node16" class="node">
<title>Node16</title>
<g id="a_node16"><a xlink:href="../../d3/ddc/nullables_8hpp.html" target="_top" xlink:title=" ">
<polygon fill="white" stroke="#666666" points="1508,-153.38 1365.25,-153.38 1365.25,-132.62 1508,-132.62 1508,-153.38"/>
<text text-anchor="middle" x="1436.62" y="-139.88" font-family="Helvetica,sans-Serif" font-size="10.00">Simple&#45;Utility/nullables.hpp</text>
</a>
</g>
</g>
<!-- Node15&#45;&gt;Node16 -->
<g id="edge30" class="edge">
<title>Node15&#45;&gt;Node16</title>
<path fill="none" stroke="#63b8ff" d="M1182.58,-195.57C1259.8,-179.23 1337.49,-163.63 1386.73,-153.85"/>
<polygon fill="#63b8ff" stroke="#63b8ff" points="1182.24,-192.27 1173.18,-197.77 1183.69,-199.12 1182.24,-192.27"/>
</g>
<!-- Node17&#45;&gt;Node16 -->
<g id="edge32" class="edge">
<title>Node17&#45;&gt;Node16</title>
<path fill="none" stroke="#63b8ff" d="M1306.2,-191.59C1340.23,-179.17 1382.55,-163.73 1409.57,-153.87"/>
<polygon fill="#63b8ff" stroke="#63b8ff" points="1305.13,-188.62 1296.93,-195.33 1307.53,-195.19 1305.13,-188.62"/>
</g>
<!-- Node18&#45;&gt;Node16 -->
<g id="edge34" class="edge">
<title>Node18&#45;&gt;Node16</title>
<path fill="none" stroke="#63b8ff" d="M1408.96,-186.43C1416.35,-175.1 1424.66,-162.36 1430.22,-153.82"/>
<polygon fill="#63b8ff" stroke="#63b8ff" points="1405.58,-184.21 1403.05,-194.5 1411.44,-188.04 1405.58,-184.21"/>
</g>
<!-- Node19&#45;&gt;Node16 -->
<g id="edge36" class="edge">
<title>Node19&#45;&gt;Node16</title>
<path fill="none" stroke="#63b8ff" d="M1041.89,-195.63C1160.98,-175.01 1287.56,-159.91 1364.79,-151.46"/>
<polygon fill="#63b8ff" stroke="#63b8ff" points="1041.38,-192.34 1032.13,-197.51 1042.58,-199.23 1041.38,-192.34"/>
</g>
<!-- Node20&#45;&gt;Node16 -->
<g id="edge38" class="edge">
<title>Node20&#45;&gt;Node16</title>
<path fill="none" stroke="#63b8ff" d="M1780.46,-195.61C1680.11,-177.22 1575.78,-162.34 1508.22,-153.26"/>
<polygon fill="#63b8ff" stroke="#63b8ff" points="1779.63,-199.2 1790.1,-197.58 1780.9,-192.32 1779.63,-199.2"/>
</g>
<!-- Node21&#45;&gt;Node15 -->
<g id="edge42" class="edge">
<title>Node21&#45;&gt;Node15</title>
<path fill="none" stroke="#63b8ff" d="M1409.34,-269.52C1348.46,-259.61 1259.16,-244.53 1181.62,-229.25 1178.52,-228.64 1175.36,-228 1172.16,-227.34"/>
<polygon fill="#63b8ff" stroke="#63b8ff" points="1408.55,-273.1 1418.99,-271.25 1409.68,-266.19 1408.55,-273.1"/>
</g>
<!-- Node21&#45;&gt;Node16 -->
<g id="edge40" class="edge">
<title>Node21&#45;&gt;Node16</title>
<path fill="none" stroke="#63b8ff" d="M1477.39,-254.12C1474.28,-237.1 1469.41,-214.78 1462.62,-195.75 1457.15,-180.41 1448.19,-163.76 1442.35,-153.6"/>
<polygon fill="#63b8ff" stroke="#63b8ff" points="1474.11,-254.7 1479.26,-263.96 1481,-253.51 1474.11,-254.7"/>
</g>
<!-- Node21&#45;&gt;Node17 -->
<g id="edge43" class="edge">
<title>Node21&#45;&gt;Node17</title>
<path fill="none" stroke="#63b8ff" d="M1416.05,-261.76C1381.47,-251.61 1339.53,-239.3 1306.66,-229.65"/>
<polygon fill="#63b8ff" stroke="#63b8ff" points="1414.95,-265.37 1425.53,-264.83 1416.92,-258.66 1414.95,-265.37"/>
</g>
<!-- Node21&#45;&gt;Node18 -->
<g id="edge44" class="edge">
<title>Node21&#45;&gt;Node18</title>
<path fill="none" stroke="#63b8ff" d="M1451.84,-258.41C1439.4,-248.98 1425.23,-238.23 1413.87,-229.62"/>
<polygon fill="#63b8ff" stroke="#63b8ff" points="1449.45,-261.75 1459.53,-265 1453.68,-256.17 1449.45,-261.75"/>
</g>
<!-- Node21&#45;&gt;Node19 -->
<g id="edge49" class="edge">
<title>Node21&#45;&gt;Node19</title>
<path fill="none" stroke="#63b8ff" d="M1409.1,-274.77C1321.44,-266.71 1169.64,-251.07 1040.62,-229.25 1037.51,-228.72 1034.33,-228.15 1031.12,-227.54"/>
<polygon fill="#63b8ff" stroke="#63b8ff" points="1408.71,-278.34 1418.99,-275.76 1409.35,-271.36 1408.71,-278.34"/>
</g>
<!-- Node21&#45;&gt;Node20 -->
<g id="edge41" class="edge">
<title>Node21&#45;&gt;Node20</title>
<path fill="none" stroke="#63b8ff" d="M1553.91,-269.52C1614.78,-259.61 1704.09,-244.53 1781.62,-229.25 1784.72,-228.64 1787.89,-228 1791.09,-227.34"/>
<polygon fill="#63b8ff" stroke="#63b8ff" points="1553.57,-266.19 1544.26,-271.25 1554.69,-273.1 1553.57,-266.19"/>
</g>
<!-- Node22 -->
<g id="node22" class="node">
<title>Node22</title>
<g id="a_node22"><a xlink:href="../../d9/d20/std__optional_8hpp.html" target="_top" xlink:title=" ">
<polygon fill="white" stroke="#666666" points="1631.87,-229.25 1509.37,-229.25 1509.37,-195.75 1631.87,-195.75 1631.87,-229.25"/>
<text text-anchor="start" x="1517.37" y="-215.75" font-family="Helvetica,sans-Serif" font-size="10.00">Simple&#45;Utility/nullables</text>
<text text-anchor="middle" x="1570.62" y="-203" font-family="Helvetica,sans-Serif" font-size="10.00">/std_optional.hpp</text>
</a>
</g>
</g>
<!-- Node21&#45;&gt;Node22 -->
<g id="edge45" class="edge">
<title>Node21&#45;&gt;Node22</title>
<path fill="none" stroke="#63b8ff" d="M1511.4,-258.41C1523.84,-248.98 1538.01,-238.23 1549.37,-229.62"/>
<polygon fill="#63b8ff" stroke="#63b8ff" points="1509.57,-256.17 1503.71,-265 1513.8,-261.75 1509.57,-256.17"/>
</g>
<!-- Node23 -->
<g id="node23" class="node">
<title>Node23</title>
<g id="a_node23"><a xlink:href="../../d8/d9a/std__pointers_8hpp.html" target="_top" xlink:title=" ">
<polygon fill="white" stroke="#666666" points="1772.87,-229.25 1650.37,-229.25 1650.37,-195.75 1772.87,-195.75 1772.87,-229.25"/>
<text text-anchor="start" x="1658.37" y="-215.75" font-family="Helvetica,sans-Serif" font-size="10.00">Simple&#45;Utility/nullables</text>
<text text-anchor="middle" x="1711.62" y="-203" font-family="Helvetica,sans-Serif" font-size="10.00">/std_pointers.hpp</text>
</a>
</g>
</g>
<!-- Node21&#45;&gt;Node23 -->
<g id="edge47" class="edge">
<title>Node21&#45;&gt;Node23</title>
<path fill="none" stroke="#63b8ff" d="M1547.19,-261.76C1581.77,-251.61 1623.71,-239.3 1656.58,-229.65"/>
<polygon fill="#63b8ff" stroke="#63b8ff" points="1546.32,-258.66 1537.71,-264.83 1548.29,-265.37 1546.32,-258.66"/>
</g>
<!-- Node21&#45;&gt;Node24 -->
<g id="edge50" class="edge">
<title>Node21&#45;&gt;Node24</title>
<path fill="none" stroke="#63b8ff" d="M1554.22,-275.19C1641.95,-267.55 1793.82,-252.32 1922.62,-229.25 1925.59,-228.72 1928.63,-228.13 1931.69,-227.51"/>
<polygon fill="#63b8ff" stroke="#63b8ff" points="1553.98,-271.79 1544.32,-276.13 1554.58,-278.76 1553.98,-271.79"/>
</g>
<!-- Node22&#45;&gt;Node16 -->
<g id="edge46" class="edge">
<title>Node22&#45;&gt;Node16</title>
<path fill="none" stroke="#63b8ff" d="M1528.81,-190.44C1504.49,-178.19 1474.99,-163.33 1456.02,-153.77"/>
<polygon fill="#63b8ff" stroke="#63b8ff" points="1527.02,-193.96 1537.52,-195.33 1530.17,-187.71 1527.02,-193.96"/>
</g>
<!-- Node23&#45;&gt;Node16 -->
<g id="edge48" class="edge">
<title>Node23&#45;&gt;Node16</title>
<path fill="none" stroke="#63b8ff" d="M1639.39,-193.77C1587.32,-180.99 1518.99,-164.22 1476.45,-153.78"/>
<polygon fill="#63b8ff" stroke="#63b8ff" points="1638.36,-197.37 1648.91,-196.35 1640.03,-190.57 1638.36,-197.37"/>
</g>
</g>
</svg>
        <g id="navigator" transform="translate(0 0)" fill="#404254">
                <rect fill="#f2f5e9" fill-opacity="0.5" stroke="#606060" stroke-width=".5" x="0" y="0" width="60" height="60"/>
                <use id="zoomplus" xlink:href="#zoomPlus" x="17" y="9" onmousedown="handleZoom(evt,'in')"/>
                <use id="zoomminus" xlink:href="#zoomMin" x="42" y="9" onmousedown="handleZoom(evt,'out')"/>
                <use id="reset" xlink:href="#resetDef" x="30" y="36" onmousedown="handleReset()"/>
                <g id="arrowUp" xlink:href="#dirArrow" transform="translate(30 24)" onmousedown="handlePan(0,-1)">
                  <use xlink:href="#rim" fill="#404040">
                        <set attributeName="fill" to="#808080" begin="arrowUp.mouseover" end="arrowUp.mouseout"/>
                  </use>
                  <path fill="none" stroke="white" stroke-width="1.5" d="M0,-3.0v7 M-2.5,-0.5L0,-3.0L2.5,-0.5"/>
                </g>
                <g id="arrowRight" xlink:href="#dirArrow" transform="rotate(90) translate(36 -43)" onmousedown="handlePan(1,0)">
                  <use xlink:href="#rim" fill="#404040">
                        <set attributeName="fill" to="#808080" begin="arrowRight.mouseover" end="arrowRight.mouseout"/>
                  </use>
                  <path fill="none" stroke="white" stroke-width="1.5" d="M0,-3.0v7 M-2.5,-0.5L0,-3.0L2.5,-0.5"/>
                </g>
                <g id="arrowDown" xlink:href="#dirArrow" transform="rotate(180) translate(-30 -48)" onmousedown="handlePan(0,1)">
                  <use xlink:href="#rim" fill="#404040">
                        <set attributeName="fill" to="#808080" begin="arrowDown.mouseover" end="arrowDown.mouseout"/>
                  </use>
                  <path fill="none" stroke="white" stroke-width="1.5" d="M0,-3.0v7 M-2.5,-0.5L0,-3.0L2.5,-0.5"/>
                </g>
                <g id="arrowLeft" xlink:href="#dirArrow" transform="rotate(270) translate(-36 17)" onmousedown="handlePan(-1,0)">
                  <use xlink:href="#rim" fill="#404040">
                        <set attributeName="fill" to="#808080" begin="arrowLeft.mouseover" end="arrowLeft.mouseout"/>
                  </use>
                  <path fill="none" stroke="white" stroke-width="1.5" d="M0,-3.0v7 M-2.5,-0.5L0,-3.0L2.5,-0.5"/>
                </g>
        </g>
        <svg viewBox="0 0 15 15" width="100%" height="30px" preserveAspectRatio="xMaxYMin meet">
         <g id="arrow_out" transform="scale(0.3 0.3)">
          <a xlink:href="_config_8hpp__dep__incl_org.svg" target="_base">
           <rect id="button" ry="5" rx="5" y="6" x="6" height="38" width="38"
                fill="#f2f5e9" fill-opacity="0.5" stroke="#606060" stroke-width="1.0"/>
           <path id="arrow"
             d="M 11.500037,31.436501 C 11.940474,20.09759 22.043105,11.32322 32.158766,21.979434 L 37.068811,17.246167 C 37.068811,17.246167 37.088388,32 37.088388,32 L 22.160133,31.978069 C 22.160133,31.978069 26.997745,27.140456 26.997745,27.140456 C 18.528582,18.264221 13.291696,25.230495 11.500037,31.436501 z"
             style="fill:#404040;"/>
          </a>
         </g>
        </svg>
</svg>
