<?xml version="1.0" encoding="UTF-8" standalone="no"?>
<!DOCTYPE svg PUBLIC "-//W3C//DTD SVG 1.1//EN"
 "http://www.w3.org/Graphics/SVG/1.1/DTD/svg11.dtd">
<!-- Generated by graphviz version 8.0.5 (20230430.1635)
 -->
<!-- Title: Simple&#45;Utility/Config.hpp Pages: 1 -->
<svg width="2125pt" height="433pt"
 viewBox="0.00 0.00 2124.88 433.00" xmlns="http://www.w3.org/2000/svg" xmlns:xlink="http://www.w3.org/1999/xlink">
<g id="graph0" class="graph" transform="scale(1 1) rotate(0) translate(4 429)">
<title>Simple&#45;Utility/Config.hpp</title>
<!-- Node1 -->
<g id="node1" class="node">
<title>Node1</title>
<g id="a_node1"><a xlink:title=" ">
<polygon fill="#999999" stroke="#666666" points="1875.38,-425 1743.12,-425 1743.12,-404.25 1875.38,-404.25 1875.38,-425"/>
<text text-anchor="middle" x="1809.25" y="-411.5" font-family="Helvetica,sans-Serif" font-size="10.00">Simple&#45;Utility/Config.hpp</text>
</a>
</g>
</g>
<!-- Node2 -->
<g id="node2" class="node">
<title>Node2</title>
<g id="a_node2"><a xlink:href="../../d2/dc8/bind__back_8hpp.html" target="_top" xlink:title=" ">
<polygon fill="white" stroke="#666666" points="1821,-368.25 1719.5,-368.25 1719.5,-334.75 1821,-334.75 1821,-368.25"/>
<text text-anchor="start" x="1727.5" y="-354.75" font-family="Helvetica,sans-Serif" font-size="10.00">Simple&#45;Utility/bind</text>
<text text-anchor="middle" x="1770.25" y="-342" font-family="Helvetica,sans-Serif" font-size="10.00">_back.hpp</text>
</a>
</g>
</g>
<!-- Node1&#45;&gt;Node2 -->
<g id="edge1" class="edge">
<title>Node1&#45;&gt;Node2</title>
<path fill="none" stroke="#63b8ff" d="M1797.08,-394.56C1791.8,-386.27 1785.67,-376.67 1780.61,-368.73"/>
<polygon fill="#63b8ff" stroke="#63b8ff" points="1794.65,-396.26 1802.98,-402.8 1800.56,-392.49 1794.65,-396.26"/>
</g>
<!-- Node5 -->
<g id="node5" class="node">
<title>Node5</title>
<g id="a_node5"><a xlink:href="../../d1/d76/functional_2base_8hpp.html" target="_top" xlink:title=" ">
<polygon fill="white" stroke="#666666" points="795.75,-368.25 668.75,-368.25 668.75,-334.75 795.75,-334.75 795.75,-368.25"/>
<text text-anchor="start" x="676.75" y="-354.75" font-family="Helvetica,sans-Serif" font-size="10.00">Simple&#45;Utility/functional</text>
<text text-anchor="middle" x="732.25" y="-342" font-family="Helvetica,sans-Serif" font-size="10.00">/base.hpp</text>
</a>
</g>
</g>
<!-- Node1&#45;&gt;Node5 -->
<g id="edge4" class="edge">
<title>Node1&#45;&gt;Node5</title>
<path fill="none" stroke="#63b8ff" d="M1731.83,-409.23C1528.61,-397.7 982.79,-366.72 795.98,-356.12"/>
<polygon fill="#63b8ff" stroke="#63b8ff" points="1731.51,-412.78 1741.69,-409.85 1731.91,-405.79 1731.51,-412.78"/>
</g>
<!-- Node18 -->
<g id="node18" class="node">
<title>Node18</title>
<g id="a_node18"><a xlink:href="../../d6/dca/adapter_8hpp.html" target="_top" xlink:title=" ">
<polygon fill="white" stroke="#666666" points="1949.5,-159.75 1827,-159.75 1827,-126.25 1949.5,-126.25 1949.5,-159.75"/>
<text text-anchor="start" x="1835" y="-146.25" font-family="Helvetica,sans-Serif" font-size="10.00">Simple&#45;Utility/nullables</text>
<text text-anchor="middle" x="1888.25" y="-133.5" font-family="Helvetica,sans-Serif" font-size="10.00">/adapter.hpp</text>
</a>
</g>
</g>
<!-- Node1&#45;&gt;Node18 -->
<g id="edge62" class="edge">
<title>Node1&#45;&gt;Node18</title>
<path fill="none" stroke="#63b8ff" d="M1819.25,-394.04C1823.03,-386.16 1827.16,-376.9 1830.25,-368.25 1857.45,-292.14 1877.69,-197.3 1885.14,-160.07"/>
<polygon fill="#63b8ff" stroke="#63b8ff" points="1815.75,-392.23 1814.45,-402.75 1822.02,-395.34 1815.75,-392.23"/>
</g>
<!-- Node21 -->
<g id="node21" class="node">
<title>Node21</title>
<g id="a_node21"><a xlink:href="../../d0/d0f/unique__handle_8hpp.html" target="_top" xlink:title=" ">
<polygon fill="white" stroke="#666666" points="2116.88,-159.75 2005.62,-159.75 2005.62,-126.25 2116.88,-126.25 2116.88,-159.75"/>
<text text-anchor="start" x="2013.62" y="-146.25" font-family="Helvetica,sans-Serif" font-size="10.00">Simple&#45;Utility/unique</text>
<text text-anchor="middle" x="2061.25" y="-133.5" font-family="Helvetica,sans-Serif" font-size="10.00">_handle.hpp</text>
</a>
</g>
</g>
<!-- Node1&#45;&gt;Node21 -->
<g id="edge63" class="edge">
<title>Node1&#45;&gt;Node21</title>
<path fill="none" stroke="#63b8ff" d="M1843.47,-399.43C1883.55,-381.3 1949.72,-346.45 1991.25,-298.75 2028.42,-256.05 2049.21,-190.35 2057.28,-160.17"/>
<polygon fill="#63b8ff" stroke="#63b8ff" points="1842.36,-396.53 1834.63,-403.78 1845.19,-402.94 1842.36,-396.53"/>
</g>
<!-- Node3 -->
<g id="node3" class="node">
<title>Node3</title>
<g id="a_node3"><a xlink:href="../../d0/d48/value__or_8hpp.html" target="_top" xlink:title=" ">
<polygon fill="white" stroke="#666666" points="1808.5,-159.75 1686,-159.75 1686,-126.25 1808.5,-126.25 1808.5,-159.75"/>
<text text-anchor="start" x="1694" y="-146.25" font-family="Helvetica,sans-Serif" font-size="10.00">Simple&#45;Utility/nullables</text>
<text text-anchor="middle" x="1747.25" y="-133.5" font-family="Helvetica,sans-Serif" font-size="10.00">/value_or.hpp</text>
</a>
</g>
</g>
<!-- Node2&#45;&gt;Node3 -->
<g id="edge2" class="edge">
<title>Node2&#45;&gt;Node3</title>
<path fill="none" stroke="#63b8ff" d="M1767.23,-323.4C1762.38,-279.81 1752.98,-195.42 1749.05,-160.13"/>
<polygon fill="#63b8ff" stroke="#63b8ff" points="1763.86,-323.75 1768.45,-333.3 1770.82,-322.97 1763.86,-323.75"/>
</g>
<!-- Node4 -->
<g id="node4" class="node">
<title>Node4</title>
<g id="a_node4"><a xlink:href="../../d3/ddc/nullables_8hpp.html" target="_top" xlink:title=" ">
<polygon fill="white" stroke="#666666" points="1491.62,-83.88 1348.88,-83.88 1348.88,-63.12 1491.62,-63.12 1491.62,-83.88"/>
<text text-anchor="middle" x="1420.25" y="-70.38" font-family="Helvetica,sans-Serif" font-size="10.00">Simple&#45;Utility/nullables.hpp</text>
</a>
</g>
</g>
<!-- Node3&#45;&gt;Node4 -->
<g id="edge3" class="edge">
<title>Node3&#45;&gt;Node4</title>
<path fill="none" stroke="#63b8ff" d="M1675.26,-126.06C1597.77,-109.7 1519.77,-94.11 1470.34,-84.34"/>
<polygon fill="#63b8ff" stroke="#63b8ff" points="1674.18,-129.62 1684.69,-128.27 1675.63,-122.78 1674.18,-129.62"/>
</g>
<!-- Node6 -->
<g id="node6" class="node">
<title>Node6</title>
<g id="a_node6"><a xlink:href="../../d2/db4/functional_8hpp.html" target="_top" xlink:title=" ">
<polygon fill="white" stroke="#666666" points="665.88,-20.75 518.62,-20.75 518.62,0 665.88,0 665.88,-20.75"/>
<text text-anchor="middle" x="592.25" y="-7.25" font-family="Helvetica,sans-Serif" font-size="10.00">Simple&#45;Utility/functional.hpp</text>
</a>
</g>
</g>
<!-- Node5&#45;&gt;Node6 -->
<g id="edge5" class="edge">
<title>Node5&#45;&gt;Node6</title>
<path fill="none" stroke="#63b8ff" d="M806.94,-350.17C1075.63,-348.01 1977.25,-331.93 1977.25,-213.5 1977.25,-213.5 1977.25,-213.5 1977.25,-142 1977.25,73.36 1714.53,-78.31 1500.25,-56.75 1191.46,-25.69 821.36,-15.57 666.29,-12.55"/>
<polygon fill="#63b8ff" stroke="#63b8ff" points="807.11,-346.68 797.13,-350.25 807.16,-353.68 807.11,-346.68"/>
</g>
<!-- Node7 -->
<g id="node7" class="node">
<title>Node7</title>
<g id="a_node7"><a xlink:href="../../d9/d76/bind_8hpp.html" target="_top" xlink:title=" ">
<polygon fill="white" stroke="#666666" points="1053.75,-298.75 926.75,-298.75 926.75,-265.25 1053.75,-265.25 1053.75,-298.75"/>
<text text-anchor="start" x="934.75" y="-285.25" font-family="Helvetica,sans-Serif" font-size="10.00">Simple&#45;Utility/functional</text>
<text text-anchor="middle" x="990.25" y="-272.5" font-family="Helvetica,sans-Serif" font-size="10.00">/operators/bind.hpp</text>
</a>
</g>
</g>
<!-- Node5&#45;&gt;Node7 -->
<g id="edge6" class="edge">
<title>Node5&#45;&gt;Node7</title>
<path fill="none" stroke="#63b8ff" d="M804.3,-331.65C843.37,-321.43 891.16,-308.92 928.51,-299.15"/>
<polygon fill="#63b8ff" stroke="#63b8ff" points="803.84,-328.41 795.05,-334.33 805.61,-335.19 803.84,-328.41"/>
</g>
<!-- Node8 -->
<g id="node8" class="node">
<title>Node8</title>
<g id="a_node8"><a xlink:href="../../d2/d7e/predicate_8hpp.html" target="_top" xlink:title=" ">
<polygon fill="white" stroke="#666666" points="533.75,-159.75 406.75,-159.75 406.75,-126.25 533.75,-126.25 533.75,-159.75"/>
<text text-anchor="start" x="414.75" y="-146.25" font-family="Helvetica,sans-Serif" font-size="10.00">Simple&#45;Utility/functional</text>
<text text-anchor="middle" x="470.25" y="-133.5" font-family="Helvetica,sans-Serif" font-size="10.00">/predicate.hpp</text>
</a>
</g>
</g>
<!-- Node5&#45;&gt;Node8 -->
<g id="edge59" class="edge">
<title>Node5&#45;&gt;Node8</title>
<path fill="none" stroke="#63b8ff" d="M657.55,-348.1C579.04,-343.81 463.12,-331.89 435.25,-298.75 425.67,-287.35 432.16,-279.81 435.25,-265.25 438.88,-248.12 445.76,-245.88 451.25,-229.25 459.04,-205.63 464.65,-177.29 467.67,-159.97"/>
<polygon fill="#63b8ff" stroke="#63b8ff" points="657.2,-351.63 667.36,-348.65 657.55,-344.64 657.2,-351.63"/>
</g>
<!-- Node10 -->
<g id="node10" class="node">
<title>Node10</title>
<g id="a_node10"><a xlink:href="../../d6/deb/transform_8hpp.html" target="_top" xlink:title=" ">
<polygon fill="white" stroke="#666666" points="903.75,-229.25 776.75,-229.25 776.75,-195.75 903.75,-195.75 903.75,-229.25"/>
<text text-anchor="start" x="784.75" y="-215.75" font-family="Helvetica,sans-Serif" font-size="10.00">Simple&#45;Utility/functional</text>
<text text-anchor="middle" x="840.25" y="-203" font-family="Helvetica,sans-Serif" font-size="10.00">/transform.hpp</text>
</a>
</g>
</g>
<!-- Node5&#45;&gt;Node10 -->
<g id="edge60" class="edge">
<title>Node5&#45;&gt;Node10</title>
<path fill="none" stroke="#63b8ff" d="M806.45,-342.38C833.94,-335.36 862.47,-322.44 879.25,-298.75 894.86,-276.7 873.83,-247.4 857.11,-229.53"/>
<polygon fill="#63b8ff" stroke="#63b8ff" points="805.95,-339.14 796.99,-344.79 807.52,-345.96 805.95,-339.14"/>
</g>
<!-- Node17 -->
<g id="node17" class="node">
<title>Node17</title>
<g id="a_node17"><a xlink:href="../../d6/dbe/nullables_2base_8hpp.html" target="_top" xlink:title=" ">
<polygon fill="white" stroke="#666666" points="1437.5,-229.25 1315,-229.25 1315,-195.75 1437.5,-195.75 1437.5,-229.25"/>
<text text-anchor="start" x="1323" y="-215.75" font-family="Helvetica,sans-Serif" font-size="10.00">Simple&#45;Utility/nullables</text>
<text text-anchor="middle" x="1376.25" y="-203" font-family="Helvetica,sans-Serif" font-size="10.00">/base.hpp</text>
</a>
</g>
</g>
<!-- Node5&#45;&gt;Node17 -->
<g id="edge61" class="edge">
<title>Node5&#45;&gt;Node17</title>
<path fill="none" stroke="#63b8ff" d="M806.6,-341.27C873.97,-332.35 975.78,-317.44 1063.25,-298.75 1155.92,-278.95 1261.98,-248.35 1323.8,-229.7"/>
<polygon fill="#63b8ff" stroke="#63b8ff" points="806.55,-337.88 797.09,-342.66 807.46,-344.82 806.55,-337.88"/>
</g>
<!-- Node22 -->
<g id="node22" class="node">
<title>Node22</title>
<g id="a_node22"><a xlink:href="../../df/d80/conjunction_8hpp.html" target="_top" xlink:title=" ">
<polygon fill="white" stroke="#666666" points="140.5,-229.25 0,-229.25 0,-195.75 140.5,-195.75 140.5,-229.25"/>
<text text-anchor="start" x="8" y="-215.75" font-family="Helvetica,sans-Serif" font-size="10.00">Simple&#45;Utility/functional</text>
<text text-anchor="middle" x="70.25" y="-203" font-family="Helvetica,sans-Serif" font-size="10.00">/operators/conjunction.hpp</text>
</a>
</g>
</g>
<!-- Node5&#45;&gt;Node22 -->
<g id="edge41" class="edge">
<title>Node5&#45;&gt;Node22</title>
<path fill="none" stroke="#63b8ff" d="M657.55,-346.48C571.97,-340.71 427.97,-327.43 307.25,-298.75 234.5,-281.47 153.2,-249.24 107.22,-229.74"/>
<polygon fill="#63b8ff" stroke="#63b8ff" points="657.25,-350.03 667.46,-347.2 657.71,-343.05 657.25,-350.03"/>
</g>
<!-- Node23 -->
<g id="node23" class="node">
<title>Node23</title>
<g id="a_node23"><a xlink:href="../../d4/d7c/disjunction_8hpp.html" target="_top" xlink:title=" ">
<polygon fill="white" stroke="#666666" points="295.62,-229.25 158.88,-229.25 158.88,-195.75 295.62,-195.75 295.62,-229.25"/>
<text text-anchor="start" x="166.88" y="-215.75" font-family="Helvetica,sans-Serif" font-size="10.00">Simple&#45;Utility/functional</text>
<text text-anchor="middle" x="227.25" y="-203" font-family="Helvetica,sans-Serif" font-size="10.00">/operators/disjunction.hpp</text>
</a>
</g>
</g>
<!-- Node5&#45;&gt;Node23 -->
<g id="edge44" class="edge">
<title>Node5&#45;&gt;Node23</title>
<path fill="none" stroke="#63b8ff" d="M657.48,-347.33C584.94,-342.46 472.61,-330.09 380.25,-298.75 330.72,-281.94 278.68,-249.24 249.86,-229.58"/>
<polygon fill="#63b8ff" stroke="#63b8ff" points="657.12,-350.88 667.32,-348.03 657.57,-343.9 657.12,-350.88"/>
</g>
<!-- Node24 -->
<g id="node24" class="node">
<title>Node24</title>
<g id="a_node24"><a xlink:href="../../dc/d0a/equal_8hpp.html" target="_top" xlink:title=" ">
<polygon fill="white" stroke="#666666" points="571.75,-298.75 444.75,-298.75 444.75,-265.25 571.75,-265.25 571.75,-298.75"/>
<text text-anchor="start" x="452.75" y="-285.25" font-family="Helvetica,sans-Serif" font-size="10.00">Simple&#45;Utility/functional</text>
<text text-anchor="middle" x="508.25" y="-272.5" font-family="Helvetica,sans-Serif" font-size="10.00">/operators/equal.hpp</text>
</a>
</g>
</g>
<!-- Node5&#45;&gt;Node24 -->
<g id="edge47" class="edge">
<title>Node5&#45;&gt;Node24</title>
<path fill="none" stroke="#63b8ff" d="M668.39,-331.26C634.72,-321.11 593.87,-308.8 561.85,-299.15"/>
<polygon fill="#63b8ff" stroke="#63b8ff" points="667.01,-334.8 677.6,-334.33 669.03,-328.1 667.01,-334.8"/>
</g>
<!-- Node25 -->
<g id="node25" class="node">
<title>Node25</title>
<g id="a_node25"><a xlink:href="../../d7/dd0/equivalent_8hpp.html" target="_top" xlink:title=" ">
<polygon fill="white" stroke="#666666" points="724.5,-298.75 590,-298.75 590,-265.25 724.5,-265.25 724.5,-298.75"/>
<text text-anchor="start" x="598" y="-285.25" font-family="Helvetica,sans-Serif" font-size="10.00">Simple&#45;Utility/functional</text>
<text text-anchor="middle" x="657.25" y="-272.5" font-family="Helvetica,sans-Serif" font-size="10.00">/operators/equivalent.hpp</text>
</a>
</g>
</g>
<!-- Node5&#45;&gt;Node25 -->
<g id="edge49" class="edge">
<title>Node5&#45;&gt;Node25</title>
<path fill="none" stroke="#63b8ff" d="M706.54,-327.36C696.21,-318.06 684.54,-307.56 675.16,-299.12"/>
<polygon fill="#63b8ff" stroke="#63b8ff" points="703.7,-329.42 713.48,-333.5 708.38,-324.21 703.7,-329.42"/>
</g>
<!-- Node26 -->
<g id="node26" class="node">
<title>Node26</title>
<g id="a_node26"><a xlink:href="../../d8/dea/negation_8hpp.html" target="_top" xlink:title=" ">
<polygon fill="white" stroke="#666666" points="442.5,-229.25 314,-229.25 314,-195.75 442.5,-195.75 442.5,-229.25"/>
<text text-anchor="start" x="322" y="-215.75" font-family="Helvetica,sans-Serif" font-size="10.00">Simple&#45;Utility/functional</text>
<text text-anchor="middle" x="378.25" y="-203" font-family="Helvetica,sans-Serif" font-size="10.00">/operators/negation.hpp</text>
</a>
</g>
</g>
<!-- Node5&#45;&gt;Node26 -->
<g id="edge51" class="edge">
<title>Node5&#45;&gt;Node26</title>
<path fill="none" stroke="#63b8ff" d="M657.37,-347.95C571.86,-343.5 439.02,-331.39 402.25,-298.75 382.59,-281.3 378.48,-249.12 377.93,-229.68"/>
<polygon fill="#63b8ff" stroke="#63b8ff" points="657.17,-351.49 667.33,-348.49 657.52,-344.5 657.17,-351.49"/>
</g>
<!-- Node27 -->
<g id="node27" class="node">
<title>Node27</title>
<g id="a_node27"><a xlink:href="../../d5/db7/pipe_8hpp.html" target="_top" xlink:title=" ">
<polygon fill="white" stroke="#666666" points="869.75,-298.75 742.75,-298.75 742.75,-265.25 869.75,-265.25 869.75,-298.75"/>
<text text-anchor="start" x="750.75" y="-285.25" font-family="Helvetica,sans-Serif" font-size="10.00">Simple&#45;Utility/functional</text>
<text text-anchor="middle" x="806.25" y="-272.5" font-family="Helvetica,sans-Serif" font-size="10.00">/operators/pipe.hpp</text>
</a>
</g>
</g>
<!-- Node5&#45;&gt;Node27 -->
<g id="edge54" class="edge">
<title>Node5&#45;&gt;Node27</title>
<path fill="none" stroke="#63b8ff" d="M757.62,-327.36C767.81,-318.06 779.32,-307.56 788.58,-299.12"/>
<polygon fill="#63b8ff" stroke="#63b8ff" points="755.82,-324.18 750.79,-333.5 760.53,-329.35 755.82,-324.18"/>
</g>
<!-- Node7&#45;&gt;Node6 -->
<g id="edge7" class="edge">
<title>Node7&#45;&gt;Node6</title>
<path fill="none" stroke="#63b8ff" d="M968.44,-256.74C941.79,-224.08 903.91,-165.53 935.25,-126.25 980.17,-69.95 1048.33,-146.55 1093.25,-90.25 1102.54,-78.61 1103.29,-67.74 1093.25,-56.75 1065.05,-25.88 798.69,-15.8 666.26,-12.69"/>
<polygon fill="#63b8ff" stroke="#63b8ff" points="966.14,-258.44 975.25,-263.84 971.5,-253.94 966.14,-258.44"/>
</g>
<!-- Node7&#45;&gt;Node8 -->
<g id="edge8" class="edge">
<title>Node7&#45;&gt;Node8</title>
<path fill="none" stroke="#63b8ff" d="M915.7,-264.59C872.51,-254.84 817.16,-241.94 768.25,-229.25 682.31,-206.95 583.35,-177.98 523.86,-160.21"/>
<polygon fill="#63b8ff" stroke="#63b8ff" points="914.88,-268.22 925.41,-267 916.42,-261.39 914.88,-268.22"/>
</g>
<!-- Node7&#45;&gt;Node10 -->
<g id="edge12" class="edge">
<title>Node7&#45;&gt;Node10</title>
<path fill="none" stroke="#63b8ff" d="M944.55,-260.43C922.59,-250.55 896.66,-238.88 876.15,-229.65"/>
<polygon fill="#63b8ff" stroke="#63b8ff" points="942.77,-263.92 953.32,-264.83 945.64,-257.54 942.77,-263.92"/>
</g>
<!-- Node7&#45;&gt;Node17 -->
<g id="edge28" class="edge">
<title>Node7&#45;&gt;Node17</title>
<path fill="none" stroke="#63b8ff" d="M1064.44,-268.03C1137.13,-255.32 1246.62,-236.17 1314.65,-224.27"/>
<polygon fill="#63b8ff" stroke="#63b8ff" points="1064.24,-264.68 1054.99,-269.85 1065.44,-271.58 1064.24,-264.68"/>
</g>
<!-- Node8&#45;&gt;Node6 -->
<g id="edge9" class="edge">
<title>Node8&#45;&gt;Node6</title>
<path fill="none" stroke="#63b8ff" d="M449.84,-117.05C437.66,-98.96 426.92,-74.64 440.25,-56.75 458.43,-32.35 489.24,-20.56 518.38,-15.04"/>
<polygon fill="#63b8ff" stroke="#63b8ff" points="447.52,-118.82 456.22,-124.87 453.19,-114.72 447.52,-118.82"/>
</g>
<!-- Node9 -->
<g id="node9" class="node">
<title>Node9</title>
<g id="a_node9"><a xlink:href="../../dd/d3f/compare_8hpp.html" target="_top" xlink:title=" ">
<polygon fill="white" stroke="#666666" points="609.75,-90.25 482.75,-90.25 482.75,-56.75 609.75,-56.75 609.75,-90.25"/>
<text text-anchor="start" x="490.75" y="-76.75" font-family="Helvetica,sans-Serif" font-size="10.00">Simple&#45;Utility/functional</text>
<text text-anchor="middle" x="546.25" y="-64" font-family="Helvetica,sans-Serif" font-size="10.00">/compare.hpp</text>
</a>
</g>
</g>
<!-- Node8&#45;&gt;Node9 -->
<g id="edge10" class="edge">
<title>Node8&#45;&gt;Node9</title>
<path fill="none" stroke="#63b8ff" d="M496.3,-118.86C506.77,-109.56 518.59,-99.06 528.1,-90.62"/>
<polygon fill="#63b8ff" stroke="#63b8ff" points="494.41,-115.75 489.26,-125 499.06,-120.98 494.41,-115.75"/>
</g>
<!-- Node9&#45;&gt;Node6 -->
<g id="edge11" class="edge">
<title>Node9&#45;&gt;Node6</title>
<path fill="none" stroke="#63b8ff" d="M564.8,-47.85C571.83,-38.51 579.43,-28.42 584.84,-21.22"/>
<polygon fill="#63b8ff" stroke="#63b8ff" points="561.55,-45.35 558.34,-55.44 567.15,-49.55 561.55,-45.35"/>
</g>
<!-- Node10&#45;&gt;Node3 -->
<g id="edge27" class="edge">
<title>Node10&#45;&gt;Node3</title>
<path fill="none" stroke="#63b8ff" d="M914.68,-210.79C1061.2,-208.54 1397.05,-199.11 1676.25,-159.75 1679.38,-159.31 1682.57,-158.8 1685.78,-158.25"/>
<polygon fill="#63b8ff" stroke="#63b8ff" points="914.99,-207.3 905.04,-210.95 915.09,-214.3 914.99,-207.3"/>
</g>
<!-- Node10&#45;&gt;Node6 -->
<g id="edge13" class="edge">
<title>Node10&#45;&gt;Node6</title>
<path fill="none" stroke="#63b8ff" d="M801.37,-190.03C762.88,-167.79 703.34,-130.67 658.25,-90.25 633.52,-68.08 609.89,-36.49 598.81,-20.87"/>
<polygon fill="#63b8ff" stroke="#63b8ff" points="799.27,-193.43 809.68,-195.35 802.74,-187.35 799.27,-193.43"/>
</g>
<!-- Node10&#45;&gt;Node9 -->
<g id="edge16" class="edge">
<title>Node10&#45;&gt;Node9</title>
<path fill="none" stroke="#63b8ff" d="M765.7,-198.46C713.17,-188.38 648.11,-173.81 624.25,-159.75 594.7,-142.34 569.82,-110.15 556.56,-90.69"/>
<polygon fill="#63b8ff" stroke="#63b8ff" points="764.88,-202.06 775.36,-200.48 766.19,-195.18 764.88,-202.06"/>
</g>
<!-- Node11 -->
<g id="node11" class="node">
<title>Node11</title>
<g id="a_node11"><a xlink:href="../../d3/d23/arithmetic_8hpp.html" target="_top" xlink:title=" ">
<polygon fill="white" stroke="#666666" points="793.75,-90.25 666.75,-90.25 666.75,-56.75 793.75,-56.75 793.75,-90.25"/>
<text text-anchor="start" x="674.75" y="-76.75" font-family="Helvetica,sans-Serif" font-size="10.00">Simple&#45;Utility/functional</text>
<text text-anchor="middle" x="730.25" y="-64" font-family="Helvetica,sans-Serif" font-size="10.00">/arithmetic.hpp</text>
</a>
</g>
</g>
<!-- Node10&#45;&gt;Node11 -->
<g id="edge14" class="edge">
<title>Node10&#45;&gt;Node11</title>
<path fill="none" stroke="#63b8ff" d="M820.65,-187.09C798.2,-159.13 762.08,-114.14 743,-90.38"/>
<polygon fill="#63b8ff" stroke="#63b8ff" points="818.43,-188.91 827.42,-194.52 823.88,-184.53 818.43,-188.91"/>
</g>
<!-- Node12 -->
<g id="node12" class="node">
<title>Node12</title>
<g id="a_node12"><a xlink:href="../../d9/d5f/functional_2tuple_8hpp.html" target="_top" xlink:title=" ">
<polygon fill="white" stroke="#666666" points="938.75,-90.25 811.75,-90.25 811.75,-56.75 938.75,-56.75 938.75,-90.25"/>
<text text-anchor="start" x="819.75" y="-76.75" font-family="Helvetica,sans-Serif" font-size="10.00">Simple&#45;Utility/functional</text>
<text text-anchor="middle" x="875.25" y="-64" font-family="Helvetica,sans-Serif" font-size="10.00">/tuple.hpp</text>
</a>
</g>
</g>
<!-- Node10&#45;&gt;Node12 -->
<g id="edge17" class="edge">
<title>Node10&#45;&gt;Node12</title>
<path fill="none" stroke="#63b8ff" d="M847.05,-184.87C854.22,-156.81 865.28,-113.52 871.19,-90.38"/>
<polygon fill="#63b8ff" stroke="#63b8ff" points="843.42,-183.96 844.33,-194.52 850.2,-185.69 843.42,-183.96"/>
</g>
<!-- Node13 -->
<g id="node13" class="node">
<title>Node13</title>
<g id="a_node13"><a xlink:href="../../df/d4e/functional_2utility_8hpp.html" target="_top" xlink:title=" ">
<polygon fill="white" stroke="#666666" points="1083.75,-90.25 956.75,-90.25 956.75,-56.75 1083.75,-56.75 1083.75,-90.25"/>
<text text-anchor="start" x="964.75" y="-76.75" font-family="Helvetica,sans-Serif" font-size="10.00">Simple&#45;Utility/functional</text>
<text text-anchor="middle" x="1020.25" y="-64" font-family="Helvetica,sans-Serif" font-size="10.00">/utility.hpp</text>
</a>
</g>
</g>
<!-- Node10&#45;&gt;Node13 -->
<g id="edge19" class="edge">
<title>Node10&#45;&gt;Node13</title>
<path fill="none" stroke="#63b8ff" d="M853.85,-186.02C864.85,-167.42 881.83,-142.69 902.25,-126.25 921.42,-110.82 945.9,-99.1 967.59,-90.74"/>
<polygon fill="#63b8ff" stroke="#63b8ff" points="850.43,-183.95 848.52,-194.37 856.51,-187.42 850.43,-183.95"/>
</g>
<!-- Node14 -->
<g id="node14" class="node">
<title>Node14</title>
<g id="a_node14"><a xlink:href="../../d4/dc9/and__then_8hpp.html" target="_top" xlink:title=" ">
<polygon fill="white" stroke="#666666" points="1207.5,-159.75 1085,-159.75 1085,-126.25 1207.5,-126.25 1207.5,-159.75"/>
<text text-anchor="start" x="1093" y="-146.25" font-family="Helvetica,sans-Serif" font-size="10.00">Simple&#45;Utility/nullables</text>
<text text-anchor="middle" x="1146.25" y="-133.5" font-family="Helvetica,sans-Serif" font-size="10.00">/and_then.hpp</text>
</a>
</g>
</g>
<!-- Node10&#45;&gt;Node14 -->
<g id="edge21" class="edge">
<title>Node10&#45;&gt;Node14</title>
<path fill="none" stroke="#63b8ff" d="M914.62,-195.15C960.85,-184.98 1021.51,-171.63 1075.25,-159.75 1078.33,-159.07 1081.49,-158.37 1084.68,-157.66"/>
<polygon fill="#63b8ff" stroke="#63b8ff" points="914.1,-191.9 905.09,-197.47 915.61,-198.74 914.1,-191.9"/>
</g>
<!-- Node15 -->
<g id="node15" class="node">
<title>Node15</title>
<g id="a_node15"><a xlink:href="../../d7/d5f/fwd__value_8hpp.html" target="_top" xlink:title=" ">
<polygon fill="white" stroke="#666666" points="1348.5,-159.75 1226,-159.75 1226,-126.25 1348.5,-126.25 1348.5,-159.75"/>
<text text-anchor="start" x="1234" y="-146.25" font-family="Helvetica,sans-Serif" font-size="10.00">Simple&#45;Utility/nullables</text>
<text text-anchor="middle" x="1287.25" y="-133.5" font-family="Helvetica,sans-Serif" font-size="10.00">/fwd_value.hpp</text>
</a>
</g>
</g>
<!-- Node10&#45;&gt;Node15 -->
<g id="edge23" class="edge">
<title>Node10&#45;&gt;Node15</title>
<path fill="none" stroke="#63b8ff" d="M914.92,-203.04C991,-194 1112.24,-178.41 1216.25,-159.75 1219.36,-159.19 1222.53,-158.59 1225.74,-157.97"/>
<polygon fill="#63b8ff" stroke="#63b8ff" points="914.55,-199.68 905.03,-204.33 915.37,-206.63 914.55,-199.68"/>
</g>
<!-- Node16 -->
<g id="node16" class="node">
<title>Node16</title>
<g id="a_node16"><a xlink:href="../../d2/d0e/or__else_8hpp.html" target="_top" xlink:title=" ">
<polygon fill="white" stroke="#666666" points="1066.5,-159.75 944,-159.75 944,-126.25 1066.5,-126.25 1066.5,-159.75"/>
<text text-anchor="start" x="952" y="-146.25" font-family="Helvetica,sans-Serif" font-size="10.00">Simple&#45;Utility/nullables</text>
<text text-anchor="middle" x="1005.25" y="-133.5" font-family="Helvetica,sans-Serif" font-size="10.00">/or_else.hpp</text>
</a>
</g>
</g>
<!-- Node10&#45;&gt;Node16 -->
<g id="edge25" class="edge">
<title>Node10&#45;&gt;Node16</title>
<path fill="none" stroke="#63b8ff" d="M889.87,-191.2C914.16,-181.26 943,-169.47 965.77,-160.15"/>
<polygon fill="#63b8ff" stroke="#63b8ff" points="888.7,-188.31 880.77,-195.33 891.35,-194.79 888.7,-188.31"/>
</g>
<!-- Node11&#45;&gt;Node6 -->
<g id="edge15" class="edge">
<title>Node11&#45;&gt;Node6</title>
<path fill="none" stroke="#63b8ff" d="M683.86,-51.95C660.4,-41.56 633.03,-29.44 614.35,-21.17"/>
<polygon fill="#63b8ff" stroke="#63b8ff" points="682.07,-55.43 692.63,-56.28 684.91,-49.03 682.07,-55.43"/>
</g>
<!-- Node12&#45;&gt;Node6 -->
<g id="edge18" class="edge">
<title>Node12&#45;&gt;Node6</title>
<path fill="none" stroke="#63b8ff" d="M800.63,-56.19C739.41,-42.92 678.78,-29.9 638.36,-21.24"/>
<polygon fill="#63b8ff" stroke="#63b8ff" points="799.75,-59.79 810.26,-58.49 801.23,-52.95 799.75,-59.79"/>
</g>
<!-- Node13&#45;&gt;Node6 -->
<g id="edge20" class="edge">
<title>Node13&#45;&gt;Node6</title>
<path fill="none" stroke="#63b8ff" d="M945.52,-56.36C843.58,-39.09 735.9,-26.37 666.17,-18.86"/>
<polygon fill="#63b8ff" stroke="#63b8ff" points="944.87,-59.97 955.32,-58.21 946.05,-53.07 944.87,-59.97"/>
</g>
<!-- Node14&#45;&gt;Node4 -->
<g id="edge22" class="edge">
<title>Node14&#45;&gt;Node4</title>
<path fill="none" stroke="#63b8ff" d="M1218.22,-124.27C1270.1,-111.49 1338.18,-94.72 1380.57,-84.28"/>
<polygon fill="#63b8ff" stroke="#63b8ff" points="1217.61,-121.06 1208.74,-126.85 1219.29,-127.86 1217.61,-121.06"/>
</g>
<!-- Node15&#45;&gt;Node4 -->
<g id="edge24" class="edge">
<title>Node15&#45;&gt;Node4</title>
<path fill="none" stroke="#63b8ff" d="M1328.75,-120.94C1352.89,-108.69 1382.17,-93.83 1401,-84.27"/>
<polygon fill="#63b8ff" stroke="#63b8ff" points="1327.44,-118.19 1320.11,-125.83 1330.61,-124.43 1327.44,-118.19"/>
</g>
<!-- Node16&#45;&gt;Node4 -->
<g id="edge26" class="edge">
<title>Node16&#45;&gt;Node4</title>
<path fill="none" stroke="#63b8ff" d="M1077.37,-126.12C1177.31,-107.78 1281.15,-92.91 1348.52,-83.82"/>
<polygon fill="#63b8ff" stroke="#63b8ff" points="1076.97,-122.82 1067.77,-128.08 1078.24,-129.7 1076.97,-122.82"/>
</g>
<!-- Node17&#45;&gt;Node3 -->
<g id="edge39" class="edge">
<title>Node17&#45;&gt;Node3</title>
<path fill="none" stroke="#63b8ff" d="M1448.53,-200.02C1509.41,-190.11 1598.71,-175.03 1676.25,-159.75 1679.35,-159.14 1682.52,-158.5 1685.71,-157.84"/>
<polygon fill="#63b8ff" stroke="#63b8ff" points="1448.2,-196.69 1438.89,-201.75 1449.32,-203.6 1448.2,-196.69"/>
</g>
<!-- Node17&#45;&gt;Node4 -->
<g id="edge29" class="edge">
<title>Node17&#45;&gt;Node4</title>
<path fill="none" stroke="#63b8ff" d="M1380.59,-184.66C1383.74,-167.65 1388.61,-145.33 1395.25,-126.25 1400.56,-110.98 1409.16,-94.31 1414.76,-84.13"/>
<polygon fill="#63b8ff" stroke="#63b8ff" points="1376.97,-184.03 1378.68,-194.48 1383.86,-185.24 1376.97,-184.03"/>
</g>
<!-- Node17&#45;&gt;Node14 -->
<g id="edge32" class="edge">
<title>Node17&#45;&gt;Node14</title>
<path fill="none" stroke="#63b8ff" d="M1310.68,-192.26C1276.1,-182.11 1234.16,-169.8 1201.29,-160.15"/>
<polygon fill="#63b8ff" stroke="#63b8ff" points="1309.58,-195.87 1320.16,-195.33 1311.55,-189.16 1309.58,-195.87"/>
</g>
<!-- Node17&#45;&gt;Node15 -->
<g id="edge33" class="edge">
<title>Node17&#45;&gt;Node15</title>
<path fill="none" stroke="#63b8ff" d="M1346.47,-188.91C1334.03,-179.48 1319.86,-168.73 1308.5,-160.12"/>
<polygon fill="#63b8ff" stroke="#63b8ff" points="1344.08,-192.25 1354.16,-195.5 1348.31,-186.67 1344.08,-192.25"/>
</g>
<!-- Node17&#45;&gt;Node16 -->
<g id="edge34" class="edge">
<title>Node17&#45;&gt;Node16</title>
<path fill="none" stroke="#63b8ff" d="M1303.97,-200.02C1243.09,-190.11 1153.79,-175.03 1076.25,-159.75 1073.15,-159.14 1069.98,-158.5 1066.79,-157.84"/>
<polygon fill="#63b8ff" stroke="#63b8ff" points="1303.18,-203.6 1313.61,-201.75 1304.3,-196.69 1303.18,-203.6"/>
</g>
<!-- Node17&#45;&gt;Node18 -->
<g id="edge30" class="edge">
<title>Node17&#45;&gt;Node18</title>
<path fill="none" stroke="#63b8ff" d="M1448.77,-205.27C1536.43,-197.21 1688.23,-181.57 1817.25,-159.75 1820.36,-159.22 1823.54,-158.65 1826.75,-158.04"/>
<polygon fill="#63b8ff" stroke="#63b8ff" points="1448.53,-201.86 1438.88,-206.26 1449.16,-208.84 1448.53,-201.86"/>
</g>
<!-- Node19 -->
<g id="node19" class="node">
<title>Node19</title>
<g id="a_node19"><a xlink:href="../../d9/d20/std__optional_8hpp.html" target="_top" xlink:title=" ">
<polygon fill="white" stroke="#666666" points="1526.5,-159.75 1404,-159.75 1404,-126.25 1526.5,-126.25 1526.5,-159.75"/>
<text text-anchor="start" x="1412" y="-146.25" font-family="Helvetica,sans-Serif" font-size="10.00">Simple&#45;Utility/nullables</text>
<text text-anchor="middle" x="1465.25" y="-133.5" font-family="Helvetica,sans-Serif" font-size="10.00">/std_optional.hpp</text>
</a>
</g>
</g>
<!-- Node17&#45;&gt;Node19 -->
<g id="edge35" class="edge">
<title>Node17&#45;&gt;Node19</title>
<path fill="none" stroke="#63b8ff" d="M1406.03,-188.91C1418.47,-179.48 1432.64,-168.73 1444,-160.12"/>
<polygon fill="#63b8ff" stroke="#63b8ff" points="1404.19,-186.67 1398.34,-195.5 1408.42,-192.25 1404.19,-186.67"/>
</g>
<!-- Node20 -->
<g id="node20" class="node">
<title>Node20</title>
<g id="a_node20"><a xlink:href="../../d8/d9a/std__pointers_8hpp.html" target="_top" xlink:title=" ">
<polygon fill="white" stroke="#666666" points="1667.5,-159.75 1545,-159.75 1545,-126.25 1667.5,-126.25 1667.5,-159.75"/>
<text text-anchor="start" x="1553" y="-146.25" font-family="Helvetica,sans-Serif" font-size="10.00">Simple&#45;Utility/nullables</text>
<text text-anchor="middle" x="1606.25" y="-133.5" font-family="Helvetica,sans-Serif" font-size="10.00">/std_pointers.hpp</text>
</a>
</g>
</g>
<!-- Node17&#45;&gt;Node20 -->
<g id="edge37" class="edge">
<title>Node17&#45;&gt;Node20</title>
<path fill="none" stroke="#63b8ff" d="M1441.82,-192.26C1476.4,-182.11 1518.34,-169.8 1551.21,-160.15"/>
<polygon fill="#63b8ff" stroke="#63b8ff" points="1440.95,-189.16 1432.34,-195.33 1442.92,-195.87 1440.95,-189.16"/>
</g>
<!-- Node17&#45;&gt;Node21 -->
<g id="edge40" class="edge">
<title>Node17&#45;&gt;Node21</title>
<path fill="none" stroke="#63b8ff" d="M1448.63,-206.54C1558.84,-198.65 1775.26,-181.85 1958.25,-159.75 1973.52,-157.91 1990,-155.55 2005.21,-153.23"/>
<polygon fill="#63b8ff" stroke="#63b8ff" points="1448.7,-203.1 1438.98,-207.3 1449.2,-210.08 1448.7,-203.1"/>
</g>
<!-- Node18&#45;&gt;Node4 -->
<g id="edge31" class="edge">
<title>Node18&#45;&gt;Node4</title>
<path fill="none" stroke="#63b8ff" d="M1815.94,-126.12C1696.41,-105.45 1569.29,-90.34 1491.9,-81.9"/>
<polygon fill="#63b8ff" stroke="#63b8ff" points="1815.29,-129.73 1825.74,-128.01 1816.49,-122.84 1815.29,-129.73"/>
</g>
<!-- Node19&#45;&gt;Node4 -->
<g id="edge36" class="edge">
<title>Node19&#45;&gt;Node4</title>
<path fill="none" stroke="#63b8ff" d="M1448.54,-116.93C1440.98,-105.6 1432.49,-92.86 1426.8,-84.32"/>
<polygon fill="#63b8ff" stroke="#63b8ff" points="1446.13,-118.62 1454.59,-125 1451.95,-114.74 1446.13,-118.62"/>
</g>
<!-- Node20&#45;&gt;Node4 -->
<g id="edge38" class="edge">
<title>Node20&#45;&gt;Node4</title>
<path fill="none" stroke="#63b8ff" d="M1551.37,-122.09C1517.16,-109.67 1474.62,-94.23 1447.45,-84.37"/>
<polygon fill="#63b8ff" stroke="#63b8ff" points="1550.1,-125.71 1560.7,-125.83 1552.49,-119.13 1550.1,-125.71"/>
</g>
<!-- Node22&#45;&gt;Node6 -->
<g id="edge42" class="edge">
<title>Node22&#45;&gt;Node6</title>
<path fill="none" stroke="#63b8ff" d="M102.2,-189.13C152.26,-155.18 253.3,-90.97 348.25,-56.75 403.48,-36.85 469.04,-25.28 518.28,-18.81"/>
<polygon fill="#63b8ff" stroke="#63b8ff" points="100.45,-186.77 94.17,-195.3 104.4,-192.55 100.45,-186.77"/>
</g>
<!-- Node22&#45;&gt;Node8 -->
<g id="edge43" class="edge">
<title>Node22&#45;&gt;Node8</title>
<path fill="none" stroke="#63b8ff" d="M151.53,-195.55C246.26,-178.7 344.06,-163.26 406.39,-153.67"/>
<polygon fill="#63b8ff" stroke="#63b8ff" points="151.12,-192.25 141.9,-197.46 152.36,-199.14 151.12,-192.25"/>
</g>
<!-- Node23&#45;&gt;Node6 -->
<g id="edge45" class="edge">
<title>Node23&#45;&gt;Node6</title>
<path fill="none" stroke="#63b8ff" d="M247.2,-187.43C277.06,-153.05 336.79,-90.31 401.25,-56.75 437.53,-37.86 481.76,-26.71 518.52,-20.19"/>
<polygon fill="#63b8ff" stroke="#63b8ff" points="244.12,-184.66 240.27,-194.53 249.43,-189.21 244.12,-184.66"/>
</g>
<!-- Node23&#45;&gt;Node8 -->
<g id="edge46" class="edge">
<title>Node23&#45;&gt;Node8</title>
<path fill="none" stroke="#63b8ff" d="M296.05,-192.39C332.68,-182.22 377.22,-169.84 412.1,-160.15"/>
<polygon fill="#63b8ff" stroke="#63b8ff" points="295.15,-189.28 286.45,-195.33 297.03,-196.03 295.15,-189.28"/>
</g>
<!-- Node24&#45;&gt;Node8 -->
<g id="edge48" class="edge">
<title>Node24&#45;&gt;Node8</title>
<path fill="none" stroke="#63b8ff" d="M500.97,-254.75C493.19,-226.69 481.1,-183.13 474.66,-159.88"/>
<polygon fill="#63b8ff" stroke="#63b8ff" points="497.77,-255.32 503.82,-264.02 504.52,-253.44 497.77,-255.32"/>
</g>
<!-- Node25&#45;&gt;Node8 -->
<g id="edge50" class="edge">
<title>Node25&#45;&gt;Node8</title>
<path fill="none" stroke="#63b8ff" d="M618.25,-259.69C602.92,-250.83 585.4,-240.09 570.25,-229.25 539.46,-207.21 506.55,-177.91 487.22,-160.03"/>
<polygon fill="#63b8ff" stroke="#63b8ff" points="616.05,-263.03 626.47,-264.95 619.51,-256.95 616.05,-263.03"/>
</g>
<!-- Node26&#45;&gt;Node6 -->
<g id="edge52" class="edge">
<title>Node26&#45;&gt;Node6</title>
<path fill="none" stroke="#63b8ff" d="M379.01,-184.58C381.54,-149.51 391.52,-88.88 429.25,-56.75 454.07,-35.61 488.02,-24.27 518.5,-18.21"/>
<polygon fill="#63b8ff" stroke="#63b8ff" points="375.47,-184.24 378.4,-194.42 382.46,-184.63 375.47,-184.24"/>
</g>
<!-- Node26&#45;&gt;Node8 -->
<g id="edge53" class="edge">
<title>Node26&#45;&gt;Node8</title>
<path fill="none" stroke="#63b8ff" d="M408.66,-189.19C421.61,-179.69 436.43,-168.81 448.28,-160.12"/>
<polygon fill="#63b8ff" stroke="#63b8ff" points="407.04,-186.77 401.05,-195.5 411.19,-192.41 407.04,-186.77"/>
</g>
<!-- Node27&#45;&gt;Node6 -->
<g id="edge55" class="edge">
<title>Node27&#45;&gt;Node6</title>
<path fill="none" stroke="#63b8ff" d="M760.66,-260.24C713.91,-238.09 639.93,-200.63 581.25,-159.75 562.78,-146.88 561.85,-138.94 543.25,-126.25 514.35,-106.53 491.47,-120.11 473.25,-90.25 465.49,-77.54 464.8,-69.01 473.25,-56.75 485.73,-38.63 506.49,-27.74 527.2,-21.2"/>
<polygon fill="#63b8ff" stroke="#63b8ff" points="758.96,-263.78 769.5,-264.86 761.94,-257.44 758.96,-263.78"/>
</g>
<!-- Node27&#45;&gt;Node8 -->
<g id="edge57" class="edge">
<title>Node27&#45;&gt;Node8</title>
<path fill="none" stroke="#63b8ff" d="M731.77,-264.57C685.27,-253.73 630.22,-239.66 608.25,-229.25 585.4,-218.42 583.53,-209.42 562.25,-195.75 542.36,-182.97 519.15,-169.93 501.02,-160.14"/>
<polygon fill="#63b8ff" stroke="#63b8ff" points="730.93,-268.2 741.46,-267.04 732.5,-261.38 730.93,-268.2"/>
</g>
<!-- Node27&#45;&gt;Node10 -->
<g id="edge58" class="edge">
<title>Node27&#45;&gt;Node10</title>
<path fill="none" stroke="#63b8ff" d="M819.21,-255.28C823.59,-246.57 828.36,-237.1 832.25,-229.38"/>
<polygon fill="#63b8ff" stroke="#63b8ff" points="815.68,-253.5 814.31,-264 821.93,-256.65 815.68,-253.5"/>
</g>
<!-- Node27&#45;&gt;Node26 -->
<g id="edge56" class="edge">
<title>Node27&#45;&gt;Node26</title>
<path fill="none" stroke="#63b8ff" d="M731.91,-265.08C624.71,-245.98 511.94,-230.52 442.92,-221.59"/>
<polygon fill="#63b8ff" stroke="#63b8ff" points="731.14,-268.68 741.6,-267 732.38,-261.79 731.14,-268.68"/>
</g>
</g>
</svg>
