<?xml version="1.0" encoding="UTF-8" standalone="no"?>
<!DOCTYPE svg PUBLIC "-//W3C//DTD SVG 1.1//EN"
 "http://www.w3.org/Graphics/SVG/1.1/DTD/svg11.dtd">
<!-- Generated by graphviz version 7.0.5 (20221223.1930)
 -->
<!-- Title: Simple&#45;Utility/concepts/stl_extensions.hpp Pages: 1 -->
<svg width="2080pt" height="423pt"
 viewBox="0.00 0.00 2080.00 423.00" xmlns="http://www.w3.org/2000/svg" xmlns:xlink="http://www.w3.org/1999/xlink">
<g id="graph0" class="graph" transform="scale(1 1) rotate(0) translate(4 419)">
<title>Simple&#45;Utility/concepts/stl_extensions.hpp</title>
<!-- Node1 -->
<g id="node1" class="node">
<title>Node1</title>
<g id="a_node1"><a xlink:title=" ">
<polygon fill="#999999" stroke="#666666" points="1795,-415 1673,-415 1673,-385 1795,-385 1795,-415"/>
<text text-anchor="start" x="1681" y="-403" font-family="Helvetica,sans-Serif" font-size="10.00">Simple&#45;Utility/concepts</text>
<text text-anchor="middle" x="1734" y="-392" font-family="Helvetica,sans-Serif" font-size="10.00">/stl_extensions.hpp</text>
</a>
</g>
</g>
<!-- Node2 -->
<g id="node2" class="node">
<title>Node2</title>
<g id="a_node2"><a xlink:href="../../d1/d76/functional_2base_8hpp.html" target="_top" xlink:title=" ">
<polygon fill="white" stroke="#666666" points="656,-349 528,-349 528,-319 656,-319 656,-349"/>
<text text-anchor="start" x="536" y="-337" font-family="Helvetica,sans-Serif" font-size="10.00">Simple&#45;Utility/functional</text>
<text text-anchor="middle" x="592" y="-326" font-family="Helvetica,sans-Serif" font-size="10.00">/base.hpp</text>
</a>
</g>
</g>
<!-- Node1&#45;&gt;Node2 -->
<g id="edge1" class="edge">
<title>Node1&#45;&gt;Node2</title>
<path fill="none" stroke="#63b8ff" d="M1661.18,-394.92C1452.35,-383.22 853.77,-349.67 656.16,-338.6"/>
<polygon fill="#63b8ff" stroke="#63b8ff" points="1660.91,-398.41 1671.09,-395.47 1661.3,-391.42 1660.91,-398.41"/>
</g>
<!-- Node10 -->
<g id="node10" class="node">
<title>Node10</title>
<g id="a_node10"><a xlink:href="../../df/d4e/functional_2utility_8hpp.html" target="_top" xlink:title=" ">
<polygon fill="white" stroke="#666666" points="1942,-151 1814,-151 1814,-121 1942,-121 1942,-151"/>
<text text-anchor="start" x="1822" y="-139" font-family="Helvetica,sans-Serif" font-size="10.00">Simple&#45;Utility/functional</text>
<text text-anchor="middle" x="1878" y="-128" font-family="Helvetica,sans-Serif" font-size="10.00">/utility.hpp</text>
</a>
</g>
</g>
<!-- Node1&#45;&gt;Node10 -->
<g id="edge60" class="edge">
<title>Node1&#45;&gt;Node10</title>
<path fill="none" stroke="#63b8ff" d="M1747.44,-374.54C1776.94,-320.88 1846.56,-194.21 1870.08,-151.41"/>
<polygon fill="#63b8ff" stroke="#63b8ff" points="1744.43,-372.76 1742.68,-383.21 1750.56,-376.14 1744.43,-372.76"/>
</g>
<!-- Node16 -->
<g id="node16" class="node">
<title>Node16</title>
<g id="a_node16"><a xlink:href="../../d6/dbe/nullables_2base_8hpp.html" target="_top" xlink:title=" ">
<polygon fill="white" stroke="#666666" points="1403.5,-217 1280.5,-217 1280.5,-187 1403.5,-187 1403.5,-217"/>
<text text-anchor="start" x="1288.5" y="-205" font-family="Helvetica,sans-Serif" font-size="10.00">Simple&#45;Utility/nullables</text>
<text text-anchor="middle" x="1342" y="-194" font-family="Helvetica,sans-Serif" font-size="10.00">/base.hpp</text>
</a>
</g>
</g>
<!-- Node1&#45;&gt;Node16 -->
<g id="edge62" class="edge">
<title>Node1&#45;&gt;Node16</title>
<path fill="none" stroke="#63b8ff" d="M1695.2,-379.6C1616.63,-340.32 1440.29,-252.14 1370.87,-217.43"/>
<polygon fill="#63b8ff" stroke="#63b8ff" points="1693.31,-382.57 1703.82,-383.91 1696.44,-376.31 1693.31,-382.57"/>
</g>
<!-- Node17 -->
<g id="node17" class="node">
<title>Node17</title>
<g id="a_node17"><a xlink:href="../../d6/dca/adapter_8hpp.html" target="_top" xlink:title=" ">
<polygon fill="white" stroke="#666666" points="1795.5,-151 1672.5,-151 1672.5,-121 1795.5,-121 1795.5,-151"/>
<text text-anchor="start" x="1680.5" y="-139" font-family="Helvetica,sans-Serif" font-size="10.00">Simple&#45;Utility/nullables</text>
<text text-anchor="middle" x="1734" y="-128" font-family="Helvetica,sans-Serif" font-size="10.00">/adapter.hpp</text>
</a>
</g>
</g>
<!-- Node1&#45;&gt;Node17 -->
<g id="edge61" class="edge">
<title>Node1&#45;&gt;Node17</title>
<path fill="none" stroke="#63b8ff" d="M1734,-373.18C1734,-318.77 1734,-193.85 1734,-151.41"/>
<polygon fill="#63b8ff" stroke="#63b8ff" points="1730.5,-373.03 1734,-383.03 1737.5,-373.03 1730.5,-373.03"/>
</g>
<!-- Node20 -->
<g id="node20" class="node">
<title>Node20</title>
<g id="a_node20"><a xlink:href="../../d0/d0f/unique__handle_8hpp.html" target="_top" xlink:title=" ">
<polygon fill="white" stroke="#666666" points="2072,-151 1960,-151 1960,-121 2072,-121 2072,-151"/>
<text text-anchor="start" x="1968" y="-139" font-family="Helvetica,sans-Serif" font-size="10.00">Simple&#45;Utility/unique</text>
<text text-anchor="middle" x="2016" y="-128" font-family="Helvetica,sans-Serif" font-size="10.00">_handle.hpp</text>
</a>
</g>
</g>
<!-- Node1&#45;&gt;Node20 -->
<g id="edge63" class="edge">
<title>Node1&#45;&gt;Node20</title>
<path fill="none" stroke="#63b8ff" d="M1757.84,-376.85C1814.08,-324.6 1953.75,-194.84 2000.48,-151.41"/>
<polygon fill="#63b8ff" stroke="#63b8ff" points="1755.62,-374.14 1750.67,-383.51 1760.38,-379.27 1755.62,-374.14"/>
</g>
<!-- Node3 -->
<g id="node3" class="node">
<title>Node3</title>
<g id="a_node3"><a xlink:href="../../d2/db4/functional_8hpp.html" target="_top" xlink:title=" ">
<polygon fill="white" stroke="#666666" points="662,-19 514,-19 514,0 662,0 662,-19"/>
<text text-anchor="middle" x="588" y="-7" font-family="Helvetica,sans-Serif" font-size="10.00">Simple&#45;Utility/functional.hpp</text>
</a>
</g>
</g>
<!-- Node2&#45;&gt;Node3 -->
<g id="edge2" class="edge">
<title>Node2&#45;&gt;Node3</title>
<path fill="none" stroke="#63b8ff" d="M516.37,-332.09C356.76,-328.12 0,-307.56 0,-203 0,-203 0,-203 0,-135 0,-31.18 355.31,-13.53 513.53,-10.83"/>
<polygon fill="#63b8ff" stroke="#63b8ff" points="515.93,-335.58 526.01,-332.31 516.09,-328.58 515.93,-335.58"/>
</g>
<!-- Node4 -->
<g id="node4" class="node">
<title>Node4</title>
<g id="a_node4"><a xlink:href="../../d9/d76/bind_8hpp.html" target="_top" xlink:title=" ">
<polygon fill="white" stroke="#666666" points="913,-283 785,-283 785,-253 913,-253 913,-283"/>
<text text-anchor="start" x="793" y="-271" font-family="Helvetica,sans-Serif" font-size="10.00">Simple&#45;Utility/functional</text>
<text text-anchor="middle" x="849" y="-260" font-family="Helvetica,sans-Serif" font-size="10.00">/operators/bind.hpp</text>
</a>
</g>
</g>
<!-- Node2&#45;&gt;Node4 -->
<g id="edge3" class="edge">
<title>Node2&#45;&gt;Node4</title>
<path fill="none" stroke="#63b8ff" d="M660.92,-315.84C701.64,-305.7 752.61,-293 791.21,-283.39"/>
<polygon fill="#63b8ff" stroke="#63b8ff" points="660.32,-312.38 651.46,-318.19 662.01,-319.17 660.32,-312.38"/>
</g>
<!-- Node5 -->
<g id="node5" class="node">
<title>Node5</title>
<g id="a_node5"><a xlink:href="../../d2/d7e/predicate_8hpp.html" target="_top" xlink:title=" ">
<polygon fill="white" stroke="#666666" points="454,-151 326,-151 326,-121 454,-121 454,-151"/>
<text text-anchor="start" x="334" y="-139" font-family="Helvetica,sans-Serif" font-size="10.00">Simple&#45;Utility/functional</text>
<text text-anchor="middle" x="390" y="-128" font-family="Helvetica,sans-Serif" font-size="10.00">/predicate.hpp</text>
</a>
</g>
</g>
<!-- Node2&#45;&gt;Node5 -->
<g id="edge57" class="edge">
<title>Node2&#45;&gt;Node5</title>
<path fill="none" stroke="#63b8ff" d="M516.43,-331.16C437.16,-327.45 320.22,-316.31 292,-283 283.38,-272.83 287.42,-265.52 292,-253 293.13,-249.92 351.72,-181.53 377.76,-151.23"/>
<polygon fill="#63b8ff" stroke="#63b8ff" points="516.18,-334.65 526.32,-331.59 516.49,-327.66 516.18,-334.65"/>
</g>
<!-- Node7 -->
<g id="node7" class="node">
<title>Node7</title>
<g id="a_node7"><a xlink:href="../../d6/deb/transform_8hpp.html" target="_top" xlink:title=" ">
<polygon fill="white" stroke="#666666" points="913,-217 785,-217 785,-187 913,-187 913,-217"/>
<text text-anchor="start" x="793" y="-205" font-family="Helvetica,sans-Serif" font-size="10.00">Simple&#45;Utility/functional</text>
<text text-anchor="middle" x="849" y="-194" font-family="Helvetica,sans-Serif" font-size="10.00">/transform.hpp</text>
</a>
</g>
</g>
<!-- Node2&#45;&gt;Node7 -->
<g id="edge58" class="edge">
<title>Node2&#45;&gt;Node7</title>
<path fill="none" stroke="#63b8ff" d="M667.66,-332.51C754.72,-330.15 889.87,-320.37 922,-283 942.17,-259.55 906.27,-233.2 878.04,-217.37"/>
<polygon fill="#63b8ff" stroke="#63b8ff" points="667.66,-329.01 657.75,-332.75 667.83,-336.01 667.66,-329.01"/>
</g>
<!-- Node2&#45;&gt;Node16 -->
<g id="edge59" class="edge">
<title>Node2&#45;&gt;Node16</title>
<path fill="none" stroke="#63b8ff" d="M667.62,-323.22C737.83,-313.87 845.2,-298.88 938,-283 1059.75,-262.16 1201.15,-233.02 1280.24,-216.27"/>
<polygon fill="#63b8ff" stroke="#63b8ff" points="667.2,-319.75 657.75,-324.53 668.12,-326.69 667.2,-319.75"/>
</g>
<!-- Node21 -->
<g id="node21" class="node">
<title>Node21</title>
<g id="a_node21"><a xlink:href="../../df/d80/conjunction_8hpp.html" target="_top" xlink:title=" ">
<polygon fill="white" stroke="#666666" points="700.5,-217 559.5,-217 559.5,-187 700.5,-187 700.5,-217"/>
<text text-anchor="start" x="567.5" y="-205" font-family="Helvetica,sans-Serif" font-size="10.00">Simple&#45;Utility/functional</text>
<text text-anchor="middle" x="630" y="-194" font-family="Helvetica,sans-Serif" font-size="10.00">/operators/conjunction.hpp</text>
</a>
</g>
</g>
<!-- Node2&#45;&gt;Node21 -->
<g id="edge39" class="edge">
<title>Node2&#45;&gt;Node21</title>
<path fill="none" stroke="#63b8ff" d="M667.37,-325.23C694.13,-318.42 721.64,-305.9 738,-283 758.69,-254.05 716.4,-231.2 678.83,-217.46"/>
<polygon fill="#63b8ff" stroke="#63b8ff" points="666.83,-321.76 657.86,-327.4 668.39,-328.59 666.83,-321.76"/>
</g>
<!-- Node22 -->
<g id="node22" class="node">
<title>Node22</title>
<g id="a_node22"><a xlink:href="../../d4/d7c/disjunction_8hpp.html" target="_top" xlink:title=" ">
<polygon fill="white" stroke="#666666" points="165.5,-217 28.5,-217 28.5,-187 165.5,-187 165.5,-217"/>
<text text-anchor="start" x="36.5" y="-205" font-family="Helvetica,sans-Serif" font-size="10.00">Simple&#45;Utility/functional</text>
<text text-anchor="middle" x="97" y="-194" font-family="Helvetica,sans-Serif" font-size="10.00">/operators/disjunction.hpp</text>
</a>
</g>
</g>
<!-- Node2&#45;&gt;Node22 -->
<g id="edge42" class="edge">
<title>Node2&#45;&gt;Node22</title>
<path fill="none" stroke="#63b8ff" d="M516.59,-330.08C444.45,-325.48 333.44,-313.61 242,-283 194.56,-267.12 144.62,-235.87 117.5,-217.48"/>
<polygon fill="#63b8ff" stroke="#63b8ff" points="516.12,-333.56 526.31,-330.67 516.54,-326.57 516.12,-333.56"/>
</g>
<!-- Node23 -->
<g id="node23" class="node">
<title>Node23</title>
<g id="a_node23"><a xlink:href="../../dc/d0a/equal_8hpp.html" target="_top" xlink:title=" ">
<polygon fill="white" stroke="#666666" points="583,-283 455,-283 455,-253 583,-253 583,-283"/>
<text text-anchor="start" x="463" y="-271" font-family="Helvetica,sans-Serif" font-size="10.00">Simple&#45;Utility/functional</text>
<text text-anchor="middle" x="519" y="-260" font-family="Helvetica,sans-Serif" font-size="10.00">/operators/equal.hpp</text>
</a>
</g>
</g>
<!-- Node2&#45;&gt;Node23 -->
<g id="edge45" class="edge">
<title>Node2&#45;&gt;Node23</title>
<path fill="none" stroke="#63b8ff" d="M567.39,-311.42C556.85,-302.18 544.83,-291.65 535.41,-283.39"/>
<polygon fill="#63b8ff" stroke="#63b8ff" points="564.83,-313.84 574.66,-317.8 569.45,-308.57 564.83,-313.84"/>
</g>
<!-- Node24 -->
<g id="node24" class="node">
<title>Node24</title>
<g id="a_node24"><a xlink:href="../../d7/dd0/equivalent_8hpp.html" target="_top" xlink:title=" ">
<polygon fill="white" stroke="#666666" points="436.5,-283 301.5,-283 301.5,-253 436.5,-253 436.5,-283"/>
<text text-anchor="start" x="309.5" y="-271" font-family="Helvetica,sans-Serif" font-size="10.00">Simple&#45;Utility/functional</text>
<text text-anchor="middle" x="369" y="-260" font-family="Helvetica,sans-Serif" font-size="10.00">/operators/equivalent.hpp</text>
</a>
</g>
</g>
<!-- Node2&#45;&gt;Node24 -->
<g id="edge47" class="edge">
<title>Node2&#45;&gt;Node24</title>
<path fill="none" stroke="#63b8ff" d="M530.61,-315.38C495.55,-305.32 452.14,-292.86 419.14,-283.39"/>
<polygon fill="#63b8ff" stroke="#63b8ff" points="529.64,-318.75 540.22,-318.14 531.58,-312.02 529.64,-318.75"/>
</g>
<!-- Node25 -->
<g id="node25" class="node">
<title>Node25</title>
<g id="a_node25"><a xlink:href="../../d8/dea/negation_8hpp.html" target="_top" xlink:title=" ">
<polygon fill="white" stroke="#666666" points="312.5,-217 183.5,-217 183.5,-187 312.5,-187 312.5,-217"/>
<text text-anchor="start" x="191.5" y="-205" font-family="Helvetica,sans-Serif" font-size="10.00">Simple&#45;Utility/functional</text>
<text text-anchor="middle" x="248" y="-194" font-family="Helvetica,sans-Serif" font-size="10.00">/operators/negation.hpp</text>
</a>
</g>
</g>
<!-- Node2&#45;&gt;Node25 -->
<g id="edge49" class="edge">
<title>Node2&#45;&gt;Node25</title>
<path fill="none" stroke="#63b8ff" d="M516.14,-331.83C429.1,-328.79 293.89,-318.33 259,-283 241.96,-265.74 242.92,-235.28 245.34,-217.33"/>
<polygon fill="#63b8ff" stroke="#63b8ff" points="515.93,-335.32 526.04,-332.14 516.16,-328.32 515.93,-335.32"/>
</g>
<!-- Node26 -->
<g id="node26" class="node">
<title>Node26</title>
<g id="a_node26"><a xlink:href="../../d5/db7/pipe_8hpp.html" target="_top" xlink:title=" ">
<polygon fill="white" stroke="#666666" points="729,-283 601,-283 601,-253 729,-253 729,-283"/>
<text text-anchor="start" x="609" y="-271" font-family="Helvetica,sans-Serif" font-size="10.00">Simple&#45;Utility/functional</text>
<text text-anchor="middle" x="665" y="-260" font-family="Helvetica,sans-Serif" font-size="10.00">/operators/pipe.hpp</text>
</a>
</g>
</g>
<!-- Node2&#45;&gt;Node26 -->
<g id="edge52" class="edge">
<title>Node2&#45;&gt;Node26</title>
<path fill="none" stroke="#63b8ff" d="M616.61,-311.42C627.15,-302.18 639.17,-291.65 648.59,-283.39"/>
<polygon fill="#63b8ff" stroke="#63b8ff" points="614.55,-308.57 609.34,-317.8 619.17,-313.84 614.55,-308.57"/>
</g>
<!-- Node4&#45;&gt;Node3 -->
<g id="edge4" class="edge">
<title>Node4&#45;&gt;Node3</title>
<path fill="none" stroke="#63b8ff" d="M815.53,-246.43C802.68,-237.94 788.19,-227.61 776,-217 697.39,-148.55 618.22,-49.42 594.87,-19.43"/>
<polygon fill="#63b8ff" stroke="#63b8ff" points="813.41,-249.23 823.7,-251.72 817.21,-243.35 813.41,-249.23"/>
</g>
<!-- Node4&#45;&gt;Node5 -->
<g id="edge5" class="edge">
<title>Node4&#45;&gt;Node5</title>
<path fill="none" stroke="#63b8ff" d="M773.58,-256.93C699.3,-246.54 591.28,-230.07 551,-217 499.49,-200.29 443.85,-169.48 413.34,-151.36"/>
<polygon fill="#63b8ff" stroke="#63b8ff" points="772.85,-260.36 783.24,-258.27 773.81,-253.43 772.85,-260.36"/>
</g>
<!-- Node4&#45;&gt;Node7 -->
<g id="edge9" class="edge">
<title>Node4&#45;&gt;Node7</title>
<path fill="none" stroke="#63b8ff" d="M849,-241.39C849,-233.13 849,-224.28 849,-217.16"/>
<polygon fill="#63b8ff" stroke="#63b8ff" points="845.5,-241.28 849,-251.28 852.5,-241.28 845.5,-241.28"/>
</g>
<!-- Node4&#45;&gt;Node16 -->
<g id="edge26" class="edge">
<title>Node4&#45;&gt;Node16</title>
<path fill="none" stroke="#63b8ff" d="M924.7,-257.17C1022.25,-244.51 1190.01,-222.73 1280.25,-211.02"/>
<polygon fill="#63b8ff" stroke="#63b8ff" points="924.42,-253.68 914.95,-258.44 925.32,-260.62 924.42,-253.68"/>
</g>
<!-- Node5&#45;&gt;Node3 -->
<g id="edge6" class="edge">
<title>Node5&#45;&gt;Node3</title>
<path fill="none" stroke="#63b8ff" d="M383.59,-109.49C380.85,-92.21 380.67,-69.88 393,-55 408.51,-36.28 465.37,-24.73 513.72,-18.1"/>
<polygon fill="#63b8ff" stroke="#63b8ff" points="380.15,-110.15 385.53,-119.27 387.01,-108.78 380.15,-110.15"/>
</g>
<!-- Node6 -->
<g id="node6" class="node">
<title>Node6</title>
<g id="a_node6"><a xlink:href="../../dd/d3f/compare_8hpp.html" target="_top" xlink:title=" ">
<polygon fill="white" stroke="#666666" points="530,-85 402,-85 402,-55 530,-55 530,-85"/>
<text text-anchor="start" x="410" y="-73" font-family="Helvetica,sans-Serif" font-size="10.00">Simple&#45;Utility/functional</text>
<text text-anchor="middle" x="466" y="-62" font-family="Helvetica,sans-Serif" font-size="10.00">/compare.hpp</text>
</a>
</g>
</g>
<!-- Node5&#45;&gt;Node6 -->
<g id="edge7" class="edge">
<title>Node5&#45;&gt;Node6</title>
<path fill="none" stroke="#63b8ff" d="M415.62,-113.42C426.59,-104.18 439.11,-93.65 448.92,-85.39"/>
<polygon fill="#63b8ff" stroke="#63b8ff" points="413.42,-110.7 408.02,-119.82 417.93,-116.06 413.42,-110.7"/>
</g>
<!-- Node6&#45;&gt;Node3 -->
<g id="edge8" class="edge">
<title>Node6&#45;&gt;Node3</title>
<path fill="none" stroke="#63b8ff" d="M506.28,-49.69C527.64,-39.44 552.84,-27.36 569.55,-19.35"/>
<polygon fill="#63b8ff" stroke="#63b8ff" points="505.03,-46.41 497.52,-53.88 508.05,-52.72 505.03,-46.41"/>
</g>
<!-- Node7&#45;&gt;Node3 -->
<g id="edge10" class="edge">
<title>Node7&#45;&gt;Node3</title>
<path fill="none" stroke="#63b8ff" d="M808.47,-181.71C792.18,-173.21 773.61,-162.53 758,-151 708.7,-114.58 707.23,-92.82 659,-55 641.37,-41.18 619.26,-27.88 604.44,-19.48"/>
<polygon fill="#63b8ff" stroke="#63b8ff" points="806.42,-184.59 816.92,-186.02 809.6,-178.35 806.42,-184.59"/>
</g>
<!-- Node7&#45;&gt;Node6 -->
<g id="edge13" class="edge">
<title>Node7&#45;&gt;Node6</title>
<path fill="none" stroke="#63b8ff" d="M779.85,-183.6C746.16,-174.67 705.2,-163.12 669,-151 608.3,-130.67 539.27,-102.32 499.37,-85.39"/>
<polygon fill="#63b8ff" stroke="#63b8ff" points="778.95,-186.99 789.52,-186.14 780.74,-180.22 778.95,-186.99"/>
</g>
<!-- Node8 -->
<g id="node8" class="node">
<title>Node8</title>
<g id="a_node8"><a xlink:href="../../d3/d23/arithmetic_8hpp.html" target="_top" xlink:title=" ">
<polygon fill="white" stroke="#666666" points="839,-85 711,-85 711,-55 839,-55 839,-85"/>
<text text-anchor="start" x="719" y="-73" font-family="Helvetica,sans-Serif" font-size="10.00">Simple&#45;Utility/functional</text>
<text text-anchor="middle" x="775" y="-62" font-family="Helvetica,sans-Serif" font-size="10.00">/arithmetic.hpp</text>
</a>
</g>
</g>
<!-- Node7&#45;&gt;Node8 -->
<g id="edge11" class="edge">
<title>Node7&#45;&gt;Node8</title>
<path fill="none" stroke="#63b8ff" d="M800.04,-181.05C787.72,-173.54 776.02,-163.66 769,-151 757.59,-130.41 763.86,-102.14 769.44,-85.31"/>
<polygon fill="#63b8ff" stroke="#63b8ff" points="798.22,-184.03 808.66,-185.83 801.62,-177.91 798.22,-184.03"/>
</g>
<!-- Node9 -->
<g id="node9" class="node">
<title>Node9</title>
<g id="a_node9"><a xlink:href="../../d9/d5f/functional_2tuple_8hpp.html" target="_top" xlink:title=" ">
<polygon fill="white" stroke="#666666" points="985,-85 857,-85 857,-55 985,-55 985,-85"/>
<text text-anchor="start" x="865" y="-73" font-family="Helvetica,sans-Serif" font-size="10.00">Simple&#45;Utility/functional</text>
<text text-anchor="middle" x="921" y="-62" font-family="Helvetica,sans-Serif" font-size="10.00">/tuple.hpp</text>
</a>
</g>
</g>
<!-- Node7&#45;&gt;Node9 -->
<g id="edge14" class="edge">
<title>Node7&#45;&gt;Node9</title>
<path fill="none" stroke="#63b8ff" d="M807.15,-180.62C795.96,-172.98 785.25,-163.14 779,-151 772.9,-139.14 771.3,-131.88 779,-121 788.78,-107.19 825,-94.56 858.41,-85.44"/>
<polygon fill="#63b8ff" stroke="#63b8ff" points="804.96,-183.38 815.29,-185.72 808.67,-177.45 804.96,-183.38"/>
</g>
<!-- Node7&#45;&gt;Node10 -->
<g id="edge16" class="edge">
<title>Node7&#45;&gt;Node10</title>
<path fill="none" stroke="#63b8ff" d="M924.65,-198.39C1119.48,-191.44 1635.05,-171.64 1805,-151 1807.82,-150.66 1810.69,-150.27 1813.59,-149.85"/>
<polygon fill="#63b8ff" stroke="#63b8ff" points="924.78,-194.88 914.91,-198.73 925.03,-201.88 924.78,-194.88"/>
</g>
<!-- Node11 -->
<g id="node11" class="node">
<title>Node11</title>
<g id="a_node11"><a xlink:href="../../d4/dc9/and__then_8hpp.html" target="_top" xlink:title=" ">
<polygon fill="white" stroke="#666666" points="1051.5,-151 928.5,-151 928.5,-121 1051.5,-121 1051.5,-151"/>
<text text-anchor="start" x="936.5" y="-139" font-family="Helvetica,sans-Serif" font-size="10.00">Simple&#45;Utility/nullables</text>
<text text-anchor="middle" x="990" y="-128" font-family="Helvetica,sans-Serif" font-size="10.00">/and_then.hpp</text>
</a>
</g>
</g>
<!-- Node7&#45;&gt;Node11 -->
<g id="edge18" class="edge">
<title>Node7&#45;&gt;Node11</title>
<path fill="none" stroke="#63b8ff" d="M890.88,-181.99C912.53,-172.16 938.53,-160.36 958.46,-151.31"/>
<polygon fill="#63b8ff" stroke="#63b8ff" points="889.68,-178.69 882.02,-186.01 892.57,-185.07 889.68,-178.69"/>
</g>
<!-- Node13 -->
<g id="node13" class="node">
<title>Node13</title>
<g id="a_node13"><a xlink:href="../../d7/d5f/fwd__value_8hpp.html" target="_top" xlink:title=" ">
<polygon fill="white" stroke="#666666" points="1192.5,-151 1069.5,-151 1069.5,-121 1192.5,-121 1192.5,-151"/>
<text text-anchor="start" x="1077.5" y="-139" font-family="Helvetica,sans-Serif" font-size="10.00">Simple&#45;Utility/nullables</text>
<text text-anchor="middle" x="1131" y="-128" font-family="Helvetica,sans-Serif" font-size="10.00">/fwd_value.hpp</text>
</a>
</g>
</g>
<!-- Node7&#45;&gt;Node13 -->
<g id="edge20" class="edge">
<title>Node7&#45;&gt;Node13</title>
<path fill="none" stroke="#63b8ff" d="M923.6,-184.07C968.96,-173.78 1026.2,-160.78 1069.05,-151.06"/>
<polygon fill="#63b8ff" stroke="#63b8ff" points="923.09,-180.6 914.11,-186.22 924.64,-187.42 923.09,-180.6"/>
</g>
<!-- Node14 -->
<g id="node14" class="node">
<title>Node14</title>
<g id="a_node14"><a xlink:href="../../d2/d0e/or__else_8hpp.html" target="_top" xlink:title=" ">
<polygon fill="white" stroke="#666666" points="1333.5,-151 1210.5,-151 1210.5,-121 1333.5,-121 1333.5,-151"/>
<text text-anchor="start" x="1218.5" y="-139" font-family="Helvetica,sans-Serif" font-size="10.00">Simple&#45;Utility/nullables</text>
<text text-anchor="middle" x="1272" y="-128" font-family="Helvetica,sans-Serif" font-size="10.00">/or_else.hpp</text>
</a>
</g>
</g>
<!-- Node7&#45;&gt;Node14 -->
<g id="edge22" class="edge">
<title>Node7&#45;&gt;Node14</title>
<path fill="none" stroke="#63b8ff" d="M924.41,-191.58C996.01,-182.33 1106.58,-167.29 1202,-151 1204.69,-150.54 1207.43,-150.06 1210.2,-149.56"/>
<polygon fill="#63b8ff" stroke="#63b8ff" points="924.24,-188.07 914.76,-192.82 925.13,-195.01 924.24,-188.07"/>
</g>
<!-- Node15 -->
<g id="node15" class="node">
<title>Node15</title>
<g id="a_node15"><a xlink:href="../../d0/d48/value__or_8hpp.html" target="_top" xlink:title=" ">
<polygon fill="white" stroke="#666666" points="910.5,-151 787.5,-151 787.5,-121 910.5,-121 910.5,-151"/>
<text text-anchor="start" x="795.5" y="-139" font-family="Helvetica,sans-Serif" font-size="10.00">Simple&#45;Utility/nullables</text>
<text text-anchor="middle" x="849" y="-128" font-family="Helvetica,sans-Serif" font-size="10.00">/value_or.hpp</text>
</a>
</g>
</g>
<!-- Node7&#45;&gt;Node15 -->
<g id="edge24" class="edge">
<title>Node7&#45;&gt;Node15</title>
<path fill="none" stroke="#63b8ff" d="M849,-175.39C849,-167.13 849,-158.28 849,-151.16"/>
<polygon fill="#63b8ff" stroke="#63b8ff" points="845.5,-175.28 849,-185.28 852.5,-175.28 845.5,-175.28"/>
</g>
<!-- Node8&#45;&gt;Node3 -->
<g id="edge12" class="edge">
<title>Node8&#45;&gt;Node3</title>
<path fill="none" stroke="#63b8ff" d="M718.16,-51.22C684.56,-40.71 643.46,-27.85 616.55,-19.43"/>
<polygon fill="#63b8ff" stroke="#63b8ff" points="716.74,-54.44 727.33,-54.09 718.83,-47.76 716.74,-54.44"/>
</g>
<!-- Node9&#45;&gt;Node3 -->
<g id="edge15" class="edge">
<title>Node9&#45;&gt;Node3</title>
<path fill="none" stroke="#63b8ff" d="M845.33,-54.54C769.4,-40.83 692.51,-27.84 642.33,-19.48"/>
<polygon fill="#63b8ff" stroke="#63b8ff" points="844.57,-57.96 855.04,-56.29 845.82,-51.07 844.57,-57.96"/>
</g>
<!-- Node10&#45;&gt;Node3 -->
<g id="edge17" class="edge">
<title>Node10&#45;&gt;Node3</title>
<path fill="none" stroke="#63b8ff" d="M1802.39,-118.75C1712.44,-100.1 1557.52,-70.15 1423,-55 1143.32,-23.5 808.35,-14.19 662.24,-11.52"/>
<polygon fill="#63b8ff" stroke="#63b8ff" points="1801.58,-122.15 1812.08,-120.77 1803.01,-115.3 1801.58,-122.15"/>
</g>
<!-- Node12 -->
<g id="node12" class="node">
<title>Node12</title>
<g id="a_node12"><a xlink:href="../../d3/ddc/nullables_8hpp.html" target="_top" xlink:title=" ">
<polygon fill="white" stroke="#666666" points="1413.5,-79.5 1270.5,-79.5 1270.5,-60.5 1413.5,-60.5 1413.5,-79.5"/>
<text text-anchor="middle" x="1342" y="-67.5" font-family="Helvetica,sans-Serif" font-size="10.00">Simple&#45;Utility/nullables.hpp</text>
</a>
</g>
</g>
<!-- Node11&#45;&gt;Node12 -->
<g id="edge19" class="edge">
<title>Node11&#45;&gt;Node12</title>
<path fill="none" stroke="#63b8ff" d="M1063.15,-120.62C1148.47,-104.69 1235.82,-89.35 1289.9,-79.97"/>
<polygon fill="#63b8ff" stroke="#63b8ff" points="1062.62,-117.16 1053.43,-122.44 1063.9,-124.04 1062.62,-117.16"/>
</g>
<!-- Node13&#45;&gt;Node12 -->
<g id="edge21" class="edge">
<title>Node13&#45;&gt;Node12</title>
<path fill="none" stroke="#63b8ff" d="M1189.56,-117.24C1229.5,-105.12 1280.73,-89.59 1312.45,-79.96"/>
<polygon fill="#63b8ff" stroke="#63b8ff" points="1188.62,-113.87 1180.06,-120.12 1190.65,-120.56 1188.62,-113.87"/>
</g>
<!-- Node14&#45;&gt;Node12 -->
<g id="edge23" class="edge">
<title>Node14&#45;&gt;Node12</title>
<path fill="none" stroke="#63b8ff" d="M1295.76,-113.27C1308.27,-101.84 1322.92,-88.44 1332.33,-79.84"/>
<polygon fill="#63b8ff" stroke="#63b8ff" points="1293.67,-110.44 1288.65,-119.78 1298.39,-115.61 1293.67,-110.44"/>
</g>
<!-- Node15&#45;&gt;Node12 -->
<g id="edge25" class="edge">
<title>Node15&#45;&gt;Node12</title>
<path fill="none" stroke="#63b8ff" d="M922.11,-120.75C1050.51,-100.83 1188.3,-85.96 1270.09,-77.82"/>
<polygon fill="#63b8ff" stroke="#63b8ff" points="921.74,-117.26 912.4,-122.27 922.82,-124.18 921.74,-117.26"/>
</g>
<!-- Node16&#45;&gt;Node11 -->
<g id="edge30" class="edge">
<title>Node16&#45;&gt;Node11</title>
<path fill="none" stroke="#63b8ff" d="M1269.25,-188.44C1212.48,-178.54 1131.66,-164.25 1061,-151 1058.04,-150.44 1055,-149.87 1051.94,-149.28"/>
<polygon fill="#63b8ff" stroke="#63b8ff" points="1268.33,-191.83 1278.78,-190.1 1269.53,-184.93 1268.33,-191.83"/>
</g>
<!-- Node16&#45;&gt;Node12 -->
<g id="edge27" class="edge">
<title>Node16&#45;&gt;Node12</title>
<path fill="none" stroke="#63b8ff" d="M1415.05,-192.8C1441.18,-185.94 1468.08,-173.49 1484,-151 1510.73,-113.24 1445.4,-91.08 1394.69,-80"/>
<polygon fill="#63b8ff" stroke="#63b8ff" points="1414.34,-189.37 1405.41,-195.06 1415.95,-196.18 1414.34,-189.37"/>
</g>
<!-- Node16&#45;&gt;Node13 -->
<g id="edge31" class="edge">
<title>Node16&#45;&gt;Node13</title>
<path fill="none" stroke="#63b8ff" d="M1283.48,-183.25C1250.38,-173.21 1209.53,-160.82 1178.44,-151.39"/>
<polygon fill="#63b8ff" stroke="#63b8ff" points="1282.35,-186.56 1292.94,-186.12 1284.38,-179.87 1282.35,-186.56"/>
</g>
<!-- Node16&#45;&gt;Node14 -->
<g id="edge32" class="edge">
<title>Node16&#45;&gt;Node14</title>
<path fill="none" stroke="#63b8ff" d="M1318.03,-179.09C1307.93,-169.85 1296.46,-159.36 1287.49,-151.16"/>
<polygon fill="#63b8ff" stroke="#63b8ff" points="1315.61,-181.61 1325.35,-185.78 1320.33,-176.44 1315.61,-181.61"/>
</g>
<!-- Node16&#45;&gt;Node15 -->
<g id="edge37" class="edge">
<title>Node16&#45;&gt;Node15</title>
<path fill="none" stroke="#63b8ff" d="M1269.05,-194.07C1184.73,-185.67 1041.93,-170.22 920,-151 917.02,-150.53 913.98,-150.03 910.91,-149.5"/>
<polygon fill="#63b8ff" stroke="#63b8ff" points="1268.49,-197.54 1278.79,-195.04 1269.18,-190.57 1268.49,-197.54"/>
</g>
<!-- Node16&#45;&gt;Node17 -->
<g id="edge28" class="edge">
<title>Node16&#45;&gt;Node17</title>
<path fill="none" stroke="#63b8ff" d="M1414.86,-190.61C1480.22,-181.06 1578.7,-166.15 1664,-151 1666.68,-150.52 1669.42,-150.03 1672.19,-149.51"/>
<polygon fill="#63b8ff" stroke="#63b8ff" points="1414.75,-187.09 1405.36,-191.99 1415.76,-194.01 1414.75,-187.09"/>
</g>
<!-- Node18 -->
<g id="node18" class="node">
<title>Node18</title>
<g id="a_node18"><a xlink:href="../../d9/d20/std__optional_8hpp.html" target="_top" xlink:title=" ">
<polygon fill="white" stroke="#666666" points="1654.5,-151 1531.5,-151 1531.5,-121 1654.5,-121 1654.5,-151"/>
<text text-anchor="start" x="1539.5" y="-139" font-family="Helvetica,sans-Serif" font-size="10.00">Simple&#45;Utility/nullables</text>
<text text-anchor="middle" x="1593" y="-128" font-family="Helvetica,sans-Serif" font-size="10.00">/std_optional.hpp</text>
</a>
</g>
</g>
<!-- Node16&#45;&gt;Node18 -->
<g id="edge33" class="edge">
<title>Node16&#45;&gt;Node18</title>
<path fill="none" stroke="#63b8ff" d="M1409.57,-183.77C1449.29,-173.64 1498.94,-160.98 1536.56,-151.39"/>
<polygon fill="#63b8ff" stroke="#63b8ff" points="1408.93,-180.32 1400.11,-186.18 1410.66,-187.1 1408.93,-180.32"/>
</g>
<!-- Node19 -->
<g id="node19" class="node">
<title>Node19</title>
<g id="a_node19"><a xlink:href="../../d8/d9a/std__pointers_8hpp.html" target="_top" xlink:title=" ">
<polygon fill="white" stroke="#666666" points="1474.5,-151 1351.5,-151 1351.5,-121 1474.5,-121 1474.5,-151"/>
<text text-anchor="start" x="1359.5" y="-139" font-family="Helvetica,sans-Serif" font-size="10.00">Simple&#45;Utility/nullables</text>
<text text-anchor="middle" x="1413" y="-128" font-family="Helvetica,sans-Serif" font-size="10.00">/std_pointers.hpp</text>
</a>
</g>
</g>
<!-- Node16&#45;&gt;Node19 -->
<g id="edge35" class="edge">
<title>Node16&#45;&gt;Node19</title>
<path fill="none" stroke="#63b8ff" d="M1366.31,-179.09C1376.56,-169.85 1388.19,-159.36 1397.29,-151.16"/>
<polygon fill="#63b8ff" stroke="#63b8ff" points="1363.97,-176.49 1358.88,-185.78 1368.65,-181.69 1363.97,-176.49"/>
</g>
<!-- Node16&#45;&gt;Node20 -->
<g id="edge38" class="edge">
<title>Node16&#45;&gt;Node20</title>
<path fill="none" stroke="#63b8ff" d="M1415.08,-198.08C1529.76,-192.8 1758.74,-179.47 1951,-151 1953.85,-150.58 1956.77,-150.1 1959.71,-149.59"/>
<polygon fill="#63b8ff" stroke="#63b8ff" points="1415.02,-194.58 1405.19,-198.52 1415.34,-201.57 1415.02,-194.58"/>
</g>
<!-- Node17&#45;&gt;Node12 -->
<g id="edge29" class="edge">
<title>Node17&#45;&gt;Node12</title>
<path fill="none" stroke="#63b8ff" d="M1660.98,-120.51C1566.44,-103.89 1467.61,-89.05 1405.07,-79.97"/>
<polygon fill="#63b8ff" stroke="#63b8ff" points="1660.24,-123.93 1670.7,-122.22 1661.46,-117.04 1660.24,-123.93"/>
</g>
<!-- Node18&#45;&gt;Node12 -->
<g id="edge34" class="edge">
<title>Node18&#45;&gt;Node12</title>
<path fill="none" stroke="#63b8ff" d="M1525.46,-117.78C1477.65,-105.59 1415.45,-89.73 1377.15,-79.96"/>
<polygon fill="#63b8ff" stroke="#63b8ff" points="1524.34,-121.1 1534.89,-120.18 1526.07,-114.32 1524.34,-121.1"/>
</g>
<!-- Node19&#45;&gt;Node12 -->
<g id="edge36" class="edge">
<title>Node19&#45;&gt;Node12</title>
<path fill="none" stroke="#63b8ff" d="M1388.9,-113.27C1376.21,-101.84 1361.35,-88.44 1351.81,-79.84"/>
<polygon fill="#63b8ff" stroke="#63b8ff" points="1386.35,-115.69 1396.12,-119.78 1391.03,-110.49 1386.35,-115.69"/>
</g>
<!-- Node21&#45;&gt;Node3 -->
<g id="edge40" class="edge">
<title>Node21&#45;&gt;Node3</title>
<path fill="none" stroke="#63b8ff" d="M624.37,-175.47C614.86,-132.31 596.03,-46.92 589.94,-19.32"/>
<polygon fill="#63b8ff" stroke="#63b8ff" points="620.95,-176.19 626.52,-185.2 627.78,-174.68 620.95,-176.19"/>
</g>
<!-- Node21&#45;&gt;Node5 -->
<g id="edge41" class="edge">
<title>Node21&#45;&gt;Node5</title>
<path fill="none" stroke="#63b8ff" d="M564.91,-183.64C527,-173.53 479.78,-160.94 443.96,-151.39"/>
<polygon fill="#63b8ff" stroke="#63b8ff" points="563.81,-186.97 574.38,-186.17 565.62,-180.21 563.81,-186.97"/>
</g>
<!-- Node22&#45;&gt;Node3 -->
<g id="edge43" class="edge">
<title>Node22&#45;&gt;Node3</title>
<path fill="none" stroke="#63b8ff" d="M123.82,-179.69C165.96,-147.35 251.43,-86.34 334,-55 392.07,-32.96 461.81,-21.74 513.51,-16.08"/>
<polygon fill="#63b8ff" stroke="#63b8ff" points="121.73,-176.87 115.98,-185.77 126.02,-182.4 121.73,-176.87"/>
</g>
<!-- Node22&#45;&gt;Node5 -->
<g id="edge44" class="edge">
<title>Node22&#45;&gt;Node5</title>
<path fill="none" stroke="#63b8ff" d="M174.21,-184.13C221.39,-173.83 281.02,-160.81 325.63,-151.06"/>
<polygon fill="#63b8ff" stroke="#63b8ff" points="173.62,-180.68 164.6,-186.23 175.12,-187.52 173.62,-180.68"/>
</g>
<!-- Node23&#45;&gt;Node5 -->
<g id="edge46" class="edge">
<title>Node23&#45;&gt;Node5</title>
<path fill="none" stroke="#63b8ff" d="M480.22,-246.71C466.86,-238.59 452.41,-228.43 441,-217 421.23,-197.18 405.22,-168.4 396.7,-151.31"/>
<polygon fill="#63b8ff" stroke="#63b8ff" points="478.45,-249.73 488.85,-251.75 481.98,-243.69 478.45,-249.73"/>
</g>
<!-- Node24&#45;&gt;Node5 -->
<g id="edge48" class="edge">
<title>Node24&#45;&gt;Node5</title>
<path fill="none" stroke="#63b8ff" d="M373.14,-241.38C377.48,-214.49 384.16,-173.18 387.66,-151.47"/>
<polygon fill="#63b8ff" stroke="#63b8ff" points="369.71,-240.67 371.57,-251.1 376.62,-241.78 369.71,-240.67"/>
</g>
<!-- Node25&#45;&gt;Node3 -->
<g id="edge50" class="edge">
<title>Node25&#45;&gt;Node3</title>
<path fill="none" stroke="#63b8ff" d="M262.31,-176.78C283.26,-143.62 325.55,-84.81 378,-55 419.31,-31.52 471.56,-20.39 513.61,-15.13"/>
<polygon fill="#63b8ff" stroke="#63b8ff" points="259.33,-174.94 257.06,-185.29 265.29,-178.61 259.33,-174.94"/>
</g>
<!-- Node25&#45;&gt;Node5 -->
<g id="edge51" class="edge">
<title>Node25&#45;&gt;Node5</title>
<path fill="none" stroke="#63b8ff" d="M290.18,-181.99C311.98,-172.16 338.16,-160.36 358.24,-151.31"/>
<polygon fill="#63b8ff" stroke="#63b8ff" points="288.93,-178.72 281.25,-186.02 291.8,-185.1 288.93,-178.72"/>
</g>
<!-- Node26&#45;&gt;Node3 -->
<g id="edge53" class="edge">
<title>Node26&#45;&gt;Node3</title>
<path fill="none" stroke="#63b8ff" d="M590.36,-248.89C574.83,-241.57 560.36,-231.32 551,-217 507.97,-151.14 563.89,-49.41 582.42,-19.23"/>
<polygon fill="#63b8ff" stroke="#63b8ff" points="588.7,-251.99 599.28,-252.7 591.45,-245.55 588.7,-251.99"/>
</g>
<!-- Node26&#45;&gt;Node5 -->
<g id="edge55" class="edge">
<title>Node26&#45;&gt;Node5</title>
<path fill="none" stroke="#63b8ff" d="M589.57,-250.48C546.91,-240.41 498.33,-227.49 479,-217 462.48,-208.03 424.83,-171.75 404.19,-151.27"/>
<polygon fill="#63b8ff" stroke="#63b8ff" points="588.55,-253.83 599.08,-252.7 590.14,-247.02 588.55,-253.83"/>
</g>
<!-- Node26&#45;&gt;Node7 -->
<g id="edge56" class="edge">
<title>Node26&#45;&gt;Node7</title>
<path fill="none" stroke="#63b8ff" d="M716.93,-248.94C745.6,-238.97 780.71,-226.75 807.53,-217.43"/>
<polygon fill="#63b8ff" stroke="#63b8ff" points="716.02,-245.55 707.72,-252.14 718.32,-252.16 716.02,-245.55"/>
</g>
<!-- Node26&#45;&gt;Node25 -->
<g id="edge54" class="edge">
<title>Node26&#45;&gt;Node25</title>
<path fill="none" stroke="#63b8ff" d="M589.38,-252.6C487.11,-235.55 379.63,-220.53 312.81,-211.53"/>
<polygon fill="#63b8ff" stroke="#63b8ff" points="588.61,-256.02 599.05,-254.22 589.77,-249.12 588.61,-256.02"/>
</g>
</g>
</svg>
