<?xml version="1.0" encoding="UTF-8" standalone="no"?>
<!DOCTYPE svg PUBLIC "-//W3C//DTD SVG 1.1//EN"
 "http://www.w3.org/Graphics/SVG/1.1/DTD/svg11.dtd">
<!-- Generated by graphviz version 2.43.0 (0)
 -->
<!-- Title: /home/runner/work/Simple&#45;Utility/Simple&#45;Utility/include/Simple&#45;Utility/concepts/stl_extensions.hpp Pages: 1 -->
<svg width="2407pt" height="595pt"
 viewBox="0.00 0.00 2407.00 595.00" xmlns="http://www.w3.org/2000/svg" xmlns:xlink="http://www.w3.org/1999/xlink">
<g id="graph0" class="graph" transform="scale(1 1) rotate(0) translate(4 591)">
<title>/home/runner/work/Simple&#45;Utility/Simple&#45;Utility/include/Simple&#45;Utility/concepts/stl_extensions.hpp</title>
<polygon fill="white" stroke="transparent" points="-4,4 -4,-591 2403,-591 2403,4 -4,4"/>
<!-- Node1 -->
<g id="node1" class="node">
<title>Node1</title>
<g id="a_node1"><a xlink:title=" ">
<polygon fill="#bfbfbf" stroke="black" points="1919,-534.5 1919,-586.5 2077,-586.5 2077,-534.5 1919,-534.5"/>
<text text-anchor="start" x="1927" y="-574.5" font-family="Helvetica,sans-Serif" font-size="10.00">/home/runner/work/Simple</text>
<text text-anchor="start" x="1927" y="-563.5" font-family="Helvetica,sans-Serif" font-size="10.00">&#45;Utility/Simple&#45;Utility</text>
<text text-anchor="start" x="1927" y="-552.5" font-family="Helvetica,sans-Serif" font-size="10.00">/include/Simple&#45;Utility</text>
<text text-anchor="middle" x="1998" y="-541.5" font-family="Helvetica,sans-Serif" font-size="10.00">/concepts/stl_extensions.hpp</text>
</a>
</g>
</g>
<!-- Node2 -->
<g id="node2" class="node">
<title>Node2</title>
<g id="a_node2"><a xlink:href="../../d1/d76/functional_2base_8hpp.html" target="_top" xlink:title=" ">
<polygon fill="white" stroke="black" points="613,-445.5 613,-497.5 759,-497.5 759,-445.5 613,-445.5"/>
<text text-anchor="start" x="621" y="-485.5" font-family="Helvetica,sans-Serif" font-size="10.00">/home/runner/work/Simple</text>
<text text-anchor="start" x="621" y="-474.5" font-family="Helvetica,sans-Serif" font-size="10.00">&#45;Utility/Simple&#45;Utility</text>
<text text-anchor="start" x="621" y="-463.5" font-family="Helvetica,sans-Serif" font-size="10.00">/include/Simple&#45;Utility</text>
<text text-anchor="middle" x="686" y="-452.5" font-family="Helvetica,sans-Serif" font-size="10.00">/functional/base.hpp</text>
</a>
</g>
</g>
<!-- Node1&#45;&gt;Node2 -->
<g id="edge1" class="edge">
<title>Node1&#45;&gt;Node2</title>
<path fill="none" stroke="midnightblue" d="M1908.59,-553.57C1663.39,-537.31 983.69,-492.24 759.09,-477.35"/>
<polygon fill="midnightblue" stroke="midnightblue" points="1908.67,-557.08 1918.88,-554.25 1909.14,-550.1 1908.67,-557.08"/>
</g>
<!-- Node10 -->
<g id="node10" class="node">
<title>Node10</title>
<g id="a_node10"><a xlink:href="../../df/d4e/functional_2utility_8hpp.html" target="_top" xlink:title=" ">
<polygon fill="white" stroke="black" points="2089,-178.5 2089,-230.5 2235,-230.5 2235,-178.5 2089,-178.5"/>
<text text-anchor="start" x="2097" y="-218.5" font-family="Helvetica,sans-Serif" font-size="10.00">/home/runner/work/Simple</text>
<text text-anchor="start" x="2097" y="-207.5" font-family="Helvetica,sans-Serif" font-size="10.00">&#45;Utility/Simple&#45;Utility</text>
<text text-anchor="start" x="2097" y="-196.5" font-family="Helvetica,sans-Serif" font-size="10.00">/include/Simple&#45;Utility</text>
<text text-anchor="middle" x="2162" y="-185.5" font-family="Helvetica,sans-Serif" font-size="10.00">/functional/utility.hpp</text>
</a>
</g>
</g>
<!-- Node1&#45;&gt;Node10 -->
<g id="edge60" class="edge">
<title>Node1&#45;&gt;Node10</title>
<path fill="none" stroke="midnightblue" d="M2014.02,-524.92C2046.92,-453.9 2121.44,-293.05 2150.29,-230.78"/>
<polygon fill="midnightblue" stroke="midnightblue" points="2010.69,-523.78 2009.66,-534.32 2017.04,-526.72 2010.69,-523.78"/>
</g>
<!-- Node16 -->
<g id="node16" class="node">
<title>Node16</title>
<g id="a_node16"><a xlink:href="../../d6/dbe/nullables_2base_8hpp.html" target="_top" xlink:title=" ">
<polygon fill="white" stroke="black" points="1474,-267.5 1474,-319.5 1620,-319.5 1620,-267.5 1474,-267.5"/>
<text text-anchor="start" x="1482" y="-307.5" font-family="Helvetica,sans-Serif" font-size="10.00">/home/runner/work/Simple</text>
<text text-anchor="start" x="1482" y="-296.5" font-family="Helvetica,sans-Serif" font-size="10.00">&#45;Utility/Simple&#45;Utility</text>
<text text-anchor="start" x="1482" y="-285.5" font-family="Helvetica,sans-Serif" font-size="10.00">/include/Simple&#45;Utility</text>
<text text-anchor="middle" x="1547" y="-274.5" font-family="Helvetica,sans-Serif" font-size="10.00">/nullables/base.hpp</text>
</a>
</g>
</g>
<!-- Node1&#45;&gt;Node16 -->
<g id="edge62" class="edge">
<title>Node1&#45;&gt;Node16</title>
<path fill="none" stroke="midnightblue" d="M1946.5,-529.24C1856.61,-476.42 1672.73,-368.38 1589.55,-319.5"/>
<polygon fill="midnightblue" stroke="midnightblue" points="1944.77,-532.28 1955.16,-534.33 1948.32,-526.25 1944.77,-532.28"/>
</g>
<!-- Node17 -->
<g id="node17" class="node">
<title>Node17</title>
<g id="a_node17"><a xlink:href="../../d6/dca/adapter_8hpp.html" target="_top" xlink:title=" ">
<polygon fill="white" stroke="black" points="1925,-178.5 1925,-230.5 2071,-230.5 2071,-178.5 1925,-178.5"/>
<text text-anchor="start" x="1933" y="-218.5" font-family="Helvetica,sans-Serif" font-size="10.00">/home/runner/work/Simple</text>
<text text-anchor="start" x="1933" y="-207.5" font-family="Helvetica,sans-Serif" font-size="10.00">&#45;Utility/Simple&#45;Utility</text>
<text text-anchor="start" x="1933" y="-196.5" font-family="Helvetica,sans-Serif" font-size="10.00">/include/Simple&#45;Utility</text>
<text text-anchor="middle" x="1998" y="-185.5" font-family="Helvetica,sans-Serif" font-size="10.00">/nullables/adapter.hpp</text>
</a>
</g>
</g>
<!-- Node1&#45;&gt;Node17 -->
<g id="edge61" class="edge">
<title>Node1&#45;&gt;Node17</title>
<path fill="none" stroke="midnightblue" d="M1998,-524.04C1998,-452.58 1998,-292.8 1998,-230.78"/>
<polygon fill="midnightblue" stroke="midnightblue" points="1994.5,-524.32 1998,-534.32 2001.5,-524.33 1994.5,-524.32"/>
</g>
<!-- Node20 -->
<g id="node20" class="node">
<title>Node20</title>
<g id="a_node20"><a xlink:href="../../d0/d0f/unique__handle_8hpp.html" target="_top" xlink:title=" ">
<polygon fill="white" stroke="black" points="2253,-178.5 2253,-230.5 2399,-230.5 2399,-178.5 2253,-178.5"/>
<text text-anchor="start" x="2261" y="-218.5" font-family="Helvetica,sans-Serif" font-size="10.00">/home/runner/work/Simple</text>
<text text-anchor="start" x="2261" y="-207.5" font-family="Helvetica,sans-Serif" font-size="10.00">&#45;Utility/Simple&#45;Utility</text>
<text text-anchor="start" x="2261" y="-196.5" font-family="Helvetica,sans-Serif" font-size="10.00">/include/Simple&#45;Utility</text>
<text text-anchor="middle" x="2326" y="-185.5" font-family="Helvetica,sans-Serif" font-size="10.00">/unique_handle.hpp</text>
</a>
</g>
</g>
<!-- Node1&#45;&gt;Node20 -->
<g id="edge63" class="edge">
<title>Node1&#45;&gt;Node20</title>
<path fill="none" stroke="midnightblue" d="M2028.44,-526.64C2093.4,-456.54 2244.41,-293.56 2302.57,-230.78"/>
<polygon fill="midnightblue" stroke="midnightblue" points="2025.56,-524.61 2021.33,-534.32 2030.69,-529.37 2025.56,-524.61"/>
</g>
<!-- Node3 -->
<g id="node3" class="node">
<title>Node3</title>
<g id="a_node3"><a xlink:href="../../d9/d76/bind_8hpp.html" target="_top" xlink:title=" ">
<polygon fill="white" stroke="black" points="916.5,-356.5 916.5,-408.5 1079.5,-408.5 1079.5,-356.5 916.5,-356.5"/>
<text text-anchor="start" x="924.5" y="-396.5" font-family="Helvetica,sans-Serif" font-size="10.00">/home/runner/work/Simple</text>
<text text-anchor="start" x="924.5" y="-385.5" font-family="Helvetica,sans-Serif" font-size="10.00">&#45;Utility/Simple&#45;Utility</text>
<text text-anchor="start" x="924.5" y="-374.5" font-family="Helvetica,sans-Serif" font-size="10.00">/include/Simple&#45;Utility</text>
<text text-anchor="middle" x="998" y="-363.5" font-family="Helvetica,sans-Serif" font-size="10.00">/functional/operators/bind.hpp</text>
</a>
</g>
</g>
<!-- Node2&#45;&gt;Node3 -->
<g id="edge2" class="edge">
<title>Node2&#45;&gt;Node3</title>
<path fill="none" stroke="midnightblue" d="M769,-447.36C814.57,-434.65 870.87,-418.95 916.25,-406.3"/>
<polygon fill="midnightblue" stroke="midnightblue" points="767.84,-444.04 759.15,-450.1 769.72,-450.79 767.84,-444.04"/>
</g>
<!-- Node4 -->
<g id="node4" class="node">
<title>Node4</title>
<g id="a_node4"><a xlink:href="../../d2/d7e/predicate_8hpp.html" target="_top" xlink:title=" ">
<polygon fill="white" stroke="black" points="437,-178.5 437,-230.5 583,-230.5 583,-178.5 437,-178.5"/>
<text text-anchor="start" x="445" y="-218.5" font-family="Helvetica,sans-Serif" font-size="10.00">/home/runner/work/Simple</text>
<text text-anchor="start" x="445" y="-207.5" font-family="Helvetica,sans-Serif" font-size="10.00">&#45;Utility/Simple&#45;Utility</text>
<text text-anchor="start" x="445" y="-196.5" font-family="Helvetica,sans-Serif" font-size="10.00">/include/Simple&#45;Utility</text>
<text text-anchor="middle" x="510" y="-185.5" font-family="Helvetica,sans-Serif" font-size="10.00">/functional/predicate.hpp</text>
</a>
</g>
</g>
<!-- Node2&#45;&gt;Node4 -->
<g id="edge56" class="edge">
<title>Node2&#45;&gt;Node4</title>
<path fill="none" stroke="midnightblue" d="M602.41,-469.8C498.09,-466.95 328.53,-455.13 289,-409 197.24,-301.93 391.53,-350.88 434,-320 456.44,-303.68 451.71,-290.16 467,-267 474.97,-254.93 484.11,-241.77 491.91,-230.73"/>
<polygon fill="midnightblue" stroke="midnightblue" points="602.52,-473.31 612.61,-470.06 602.7,-466.31 602.52,-473.31"/>
</g>
<!-- Node6 -->
<g id="node6" class="node">
<title>Node6</title>
<g id="a_node6"><a xlink:href="../../d2/db4/functional_8hpp.html" target="_top" xlink:title=" ">
<polygon fill="white" stroke="black" points="617,-0.5 617,-52.5 763,-52.5 763,-0.5 617,-0.5"/>
<text text-anchor="start" x="625" y="-40.5" font-family="Helvetica,sans-Serif" font-size="10.00">/home/runner/work/Simple</text>
<text text-anchor="start" x="625" y="-29.5" font-family="Helvetica,sans-Serif" font-size="10.00">&#45;Utility/Simple&#45;Utility</text>
<text text-anchor="start" x="625" y="-18.5" font-family="Helvetica,sans-Serif" font-size="10.00">/include/Simple&#45;Utility</text>
<text text-anchor="middle" x="690" y="-7.5" font-family="Helvetica,sans-Serif" font-size="10.00">/functional.hpp</text>
</a>
</g>
</g>
<!-- Node2&#45;&gt;Node6 -->
<g id="edge58" class="edge">
<title>Node2&#45;&gt;Node6</title>
<path fill="none" stroke="midnightblue" d="M602.58,-470.64C499.19,-468.55 318.84,-457.37 173,-409 85.48,-379.97 0,-386.7 0,-294.5 0,-294.5 0,-294.5 0,-203.5 0,-77.25 439.23,-40.42 616.81,-30.69"/>
<polygon fill="midnightblue" stroke="midnightblue" points="602.58,-474.14 612.64,-470.82 602.71,-467.15 602.58,-474.14"/>
</g>
<!-- Node7 -->
<g id="node7" class="node">
<title>Node7</title>
<g id="a_node7"><a xlink:href="../../d6/deb/transform_8hpp.html" target="_top" xlink:title=" ">
<polygon fill="white" stroke="black" points="925,-267.5 925,-319.5 1071,-319.5 1071,-267.5 925,-267.5"/>
<text text-anchor="start" x="933" y="-307.5" font-family="Helvetica,sans-Serif" font-size="10.00">/home/runner/work/Simple</text>
<text text-anchor="start" x="933" y="-296.5" font-family="Helvetica,sans-Serif" font-size="10.00">&#45;Utility/Simple&#45;Utility</text>
<text text-anchor="start" x="933" y="-285.5" font-family="Helvetica,sans-Serif" font-size="10.00">/include/Simple&#45;Utility</text>
<text text-anchor="middle" x="998" y="-274.5" font-family="Helvetica,sans-Serif" font-size="10.00">/functional/transform.hpp</text>
</a>
</g>
</g>
<!-- Node2&#45;&gt;Node7 -->
<g id="edge57" class="edge">
<title>Node2&#45;&gt;Node7</title>
<path fill="none" stroke="midnightblue" d="M769.2,-470.04C874.94,-467.48 1048.62,-456 1089,-409 1104.35,-391.13 1100.05,-376.8 1089,-356 1081.04,-341.01 1067.62,-329.01 1053.49,-319.73"/>
<polygon fill="midnightblue" stroke="midnightblue" points="769.11,-466.54 759.19,-470.26 769.26,-473.54 769.11,-466.54"/>
</g>
<!-- Node2&#45;&gt;Node16 -->
<g id="edge59" class="edge">
<title>Node2&#45;&gt;Node16</title>
<path fill="none" stroke="midnightblue" d="M769.2,-461.08C854.46,-450.78 990.65,-432.56 1107,-409 1237.36,-382.6 1386.73,-341.35 1473.62,-316.23"/>
<polygon fill="midnightblue" stroke="midnightblue" points="768.57,-457.63 759.06,-462.29 769.4,-464.58 768.57,-457.63"/>
</g>
<!-- Node21 -->
<g id="node21" class="node">
<title>Node21</title>
<g id="a_node21"><a xlink:href="../../df/d80/conjunction_8hpp.html" target="_top" xlink:title=" ">
<polygon fill="white" stroke="black" points="671,-267.5 671,-319.5 869,-319.5 869,-267.5 671,-267.5"/>
<text text-anchor="start" x="679" y="-307.5" font-family="Helvetica,sans-Serif" font-size="10.00">/home/runner/work/Simple</text>
<text text-anchor="start" x="679" y="-296.5" font-family="Helvetica,sans-Serif" font-size="10.00">&#45;Utility/Simple&#45;Utility</text>
<text text-anchor="start" x="679" y="-285.5" font-family="Helvetica,sans-Serif" font-size="10.00">/include/Simple&#45;Utility</text>
<text text-anchor="middle" x="770" y="-274.5" font-family="Helvetica,sans-Serif" font-size="10.00">/functional/operators/conjunction.hpp</text>
</a>
</g>
</g>
<!-- Node2&#45;&gt;Node21 -->
<g id="edge38" class="edge">
<title>Node2&#45;&gt;Node21</title>
<path fill="none" stroke="midnightblue" d="M769.45,-463.87C806.23,-456.3 846.2,-440.72 869,-409 882.75,-389.87 880.45,-376.59 869,-356 860.49,-340.7 846.43,-328.72 831.54,-319.56"/>
<polygon fill="midnightblue" stroke="midnightblue" points="768.36,-460.51 759.18,-465.8 769.66,-467.39 768.36,-460.51"/>
</g>
<!-- Node22 -->
<g id="node22" class="node">
<title>Node22</title>
<g id="a_node22"><a xlink:href="../../d4/d7c/disjunction_8hpp.html" target="_top" xlink:title=" ">
<polygon fill="white" stroke="black" points="27.5,-267.5 27.5,-319.5 222.5,-319.5 222.5,-267.5 27.5,-267.5"/>
<text text-anchor="start" x="35.5" y="-307.5" font-family="Helvetica,sans-Serif" font-size="10.00">/home/runner/work/Simple</text>
<text text-anchor="start" x="35.5" y="-296.5" font-family="Helvetica,sans-Serif" font-size="10.00">&#45;Utility/Simple&#45;Utility</text>
<text text-anchor="start" x="35.5" y="-285.5" font-family="Helvetica,sans-Serif" font-size="10.00">/include/Simple&#45;Utility</text>
<text text-anchor="middle" x="125" y="-274.5" font-family="Helvetica,sans-Serif" font-size="10.00">/functional/operators/disjunction.hpp</text>
</a>
</g>
</g>
<!-- Node2&#45;&gt;Node22 -->
<g id="edge41" class="edge">
<title>Node2&#45;&gt;Node22</title>
<path fill="none" stroke="midnightblue" d="M602.62,-465.12C492.32,-456.95 304.66,-439.1 243,-409 200.67,-388.34 163.89,-346.74 143.09,-319.79"/>
<polygon fill="midnightblue" stroke="midnightblue" points="602.49,-468.62 612.72,-465.86 603,-461.64 602.49,-468.62"/>
</g>
<!-- Node23 -->
<g id="node23" class="node">
<title>Node23</title>
<g id="a_node23"><a xlink:href="../../dc/d0a/equal_8hpp.html" target="_top" xlink:title=" ">
<polygon fill="white" stroke="black" points="509.5,-356.5 509.5,-408.5 678.5,-408.5 678.5,-356.5 509.5,-356.5"/>
<text text-anchor="start" x="517.5" y="-396.5" font-family="Helvetica,sans-Serif" font-size="10.00">/home/runner/work/Simple</text>
<text text-anchor="start" x="517.5" y="-385.5" font-family="Helvetica,sans-Serif" font-size="10.00">&#45;Utility/Simple&#45;Utility</text>
<text text-anchor="start" x="517.5" y="-374.5" font-family="Helvetica,sans-Serif" font-size="10.00">/include/Simple&#45;Utility</text>
<text text-anchor="middle" x="594" y="-363.5" font-family="Helvetica,sans-Serif" font-size="10.00">/functional/operators/equal.hpp</text>
</a>
</g>
</g>
<!-- Node2&#45;&gt;Node23 -->
<g id="edge44" class="edge">
<title>Node2&#45;&gt;Node23</title>
<path fill="none" stroke="midnightblue" d="M652.02,-438.36C641.63,-428.54 630.37,-417.89 620.55,-408.61"/>
<polygon fill="midnightblue" stroke="midnightblue" points="649.72,-441.01 659.39,-445.34 654.53,-435.92 649.72,-441.01"/>
</g>
<!-- Node24 -->
<g id="node24" class="node">
<title>Node24</title>
<g id="a_node24"><a xlink:href="../../d7/dd0/equivalent_8hpp.html" target="_top" xlink:title=" ">
<polygon fill="white" stroke="black" points="298,-356.5 298,-408.5 492,-408.5 492,-356.5 298,-356.5"/>
<text text-anchor="start" x="306" y="-396.5" font-family="Helvetica,sans-Serif" font-size="10.00">/home/runner/work/Simple</text>
<text text-anchor="start" x="306" y="-385.5" font-family="Helvetica,sans-Serif" font-size="10.00">&#45;Utility/Simple&#45;Utility</text>
<text text-anchor="start" x="306" y="-374.5" font-family="Helvetica,sans-Serif" font-size="10.00">/include/Simple&#45;Utility</text>
<text text-anchor="middle" x="395" y="-363.5" font-family="Helvetica,sans-Serif" font-size="10.00">/functional/operators/equivalent.hpp</text>
</a>
</g>
</g>
<!-- Node2&#45;&gt;Node24 -->
<g id="edge46" class="edge">
<title>Node2&#45;&gt;Node24</title>
<path fill="none" stroke="midnightblue" d="M603.2,-445.74C564.19,-434.08 517.76,-420.2 478.65,-408.51"/>
<polygon fill="midnightblue" stroke="midnightblue" points="602.36,-449.15 612.94,-448.66 604.37,-442.44 602.36,-449.15"/>
</g>
<!-- Node25 -->
<g id="node25" class="node">
<title>Node25</title>
<g id="a_node25"><a xlink:href="../../d8/dea/negation_8hpp.html" target="_top" xlink:title=" ">
<polygon fill="white" stroke="black" points="240.5,-267.5 240.5,-319.5 425.5,-319.5 425.5,-267.5 240.5,-267.5"/>
<text text-anchor="start" x="248.5" y="-307.5" font-family="Helvetica,sans-Serif" font-size="10.00">/home/runner/work/Simple</text>
<text text-anchor="start" x="248.5" y="-296.5" font-family="Helvetica,sans-Serif" font-size="10.00">&#45;Utility/Simple&#45;Utility</text>
<text text-anchor="start" x="248.5" y="-285.5" font-family="Helvetica,sans-Serif" font-size="10.00">/include/Simple&#45;Utility</text>
<text text-anchor="middle" x="333" y="-274.5" font-family="Helvetica,sans-Serif" font-size="10.00">/functional/operators/negation.hpp</text>
</a>
</g>
</g>
<!-- Node2&#45;&gt;Node25 -->
<g id="edge48" class="edge">
<title>Node2&#45;&gt;Node25</title>
<path fill="none" stroke="midnightblue" d="M602.71,-470.97C490.56,-469.63 299.96,-459.69 256,-409 240.57,-391.2 245.79,-377.23 256,-356 262.97,-341.51 275.21,-329.37 287.9,-319.8"/>
<polygon fill="midnightblue" stroke="midnightblue" points="602.94,-474.47 612.98,-471.07 603.01,-467.47 602.94,-474.47"/>
</g>
<!-- Node26 -->
<g id="node26" class="node">
<title>Node26</title>
<g id="a_node26"><a xlink:href="../../d5/db7/pipe_8hpp.html" target="_top" xlink:title=" ">
<polygon fill="white" stroke="black" points="696.5,-356.5 696.5,-408.5 859.5,-408.5 859.5,-356.5 696.5,-356.5"/>
<text text-anchor="start" x="704.5" y="-396.5" font-family="Helvetica,sans-Serif" font-size="10.00">/home/runner/work/Simple</text>
<text text-anchor="start" x="704.5" y="-385.5" font-family="Helvetica,sans-Serif" font-size="10.00">&#45;Utility/Simple&#45;Utility</text>
<text text-anchor="start" x="704.5" y="-374.5" font-family="Helvetica,sans-Serif" font-size="10.00">/include/Simple&#45;Utility</text>
<text text-anchor="middle" x="778" y="-363.5" font-family="Helvetica,sans-Serif" font-size="10.00">/functional/operators/pipe.hpp</text>
</a>
</g>
</g>
<!-- Node2&#45;&gt;Node26 -->
<g id="edge51" class="edge">
<title>Node2&#45;&gt;Node26</title>
<path fill="none" stroke="midnightblue" d="M719.98,-438.36C730.37,-428.54 741.63,-417.89 751.45,-408.61"/>
<polygon fill="midnightblue" stroke="midnightblue" points="717.47,-435.92 712.61,-445.34 722.28,-441.01 717.47,-435.92"/>
</g>
<!-- Node3&#45;&gt;Node4 -->
<g id="edge3" class="edge">
<title>Node3&#45;&gt;Node4</title>
<path fill="none" stroke="midnightblue" d="M906.2,-363.08C893.71,-360.66 881.04,-358.24 869,-356 777.19,-338.94 747.68,-357.13 662,-320 648.7,-314.24 582.2,-262.56 541.69,-230.64"/>
<polygon fill="midnightblue" stroke="midnightblue" points="905.68,-366.55 916.16,-365.03 907.02,-359.68 905.68,-366.55"/>
</g>
<!-- Node3&#45;&gt;Node6 -->
<g id="edge24" class="edge">
<title>Node3&#45;&gt;Node6</title>
<path fill="none" stroke="midnightblue" d="M951.41,-350.41C939.27,-341.3 926.62,-330.85 916,-320 895.73,-299.29 899.31,-286.64 878,-267 855.13,-245.93 840.22,-252.76 818,-231 789.07,-202.68 730.48,-100.41 703.8,-52.54"/>
<polygon fill="midnightblue" stroke="midnightblue" points="949.57,-353.4 959.71,-356.49 953.71,-347.75 949.57,-353.4"/>
</g>
<!-- Node3&#45;&gt;Node7 -->
<g id="edge7" class="edge">
<title>Node3&#45;&gt;Node7</title>
<path fill="none" stroke="midnightblue" d="M998,-346.19C998,-337.28 998,-327.9 998,-319.61"/>
<polygon fill="midnightblue" stroke="midnightblue" points="994.5,-346.34 998,-356.34 1001.5,-346.34 994.5,-346.34"/>
</g>
<!-- Node3&#45;&gt;Node16 -->
<g id="edge25" class="edge">
<title>Node3&#45;&gt;Node16</title>
<path fill="none" stroke="midnightblue" d="M1089.49,-367C1197.37,-349.91 1374.5,-321.84 1473.75,-306.11"/>
<polygon fill="midnightblue" stroke="midnightblue" points="1088.93,-363.55 1079.6,-368.57 1090.02,-370.46 1088.93,-363.55"/>
</g>
<!-- Node5 -->
<g id="node5" class="node">
<title>Node5</title>
<g id="a_node5"><a xlink:href="../../dd/d3f/compare_8hpp.html" target="_top" xlink:title=" ">
<polygon fill="white" stroke="black" points="488,-89.5 488,-141.5 634,-141.5 634,-89.5 488,-89.5"/>
<text text-anchor="start" x="496" y="-129.5" font-family="Helvetica,sans-Serif" font-size="10.00">/home/runner/work/Simple</text>
<text text-anchor="start" x="496" y="-118.5" font-family="Helvetica,sans-Serif" font-size="10.00">&#45;Utility/Simple&#45;Utility</text>
<text text-anchor="start" x="496" y="-107.5" font-family="Helvetica,sans-Serif" font-size="10.00">/include/Simple&#45;Utility</text>
<text text-anchor="middle" x="561" y="-96.5" font-family="Helvetica,sans-Serif" font-size="10.00">/functional/compare.hpp</text>
</a>
</g>
</g>
<!-- Node4&#45;&gt;Node5 -->
<g id="edge4" class="edge">
<title>Node4&#45;&gt;Node5</title>
<path fill="none" stroke="midnightblue" d="M529.85,-169.64C535.32,-160.31 541.16,-150.35 546.28,-141.61"/>
<polygon fill="midnightblue" stroke="midnightblue" points="526.79,-167.94 524.75,-178.34 532.83,-171.48 526.79,-167.94"/>
</g>
<!-- Node4&#45;&gt;Node6 -->
<g id="edge6" class="edge">
<title>Node4&#45;&gt;Node6</title>
<path fill="none" stroke="midnightblue" d="M486.74,-169.78C472.99,-145.29 461.39,-112.48 479,-89 495.83,-66.57 562.9,-49.62 616.97,-39.25"/>
<polygon fill="midnightblue" stroke="midnightblue" points="483.74,-171.58 491.85,-178.39 489.75,-168.01 483.74,-171.58"/>
</g>
<!-- Node5&#45;&gt;Node6 -->
<g id="edge5" class="edge">
<title>Node5&#45;&gt;Node6</title>
<path fill="none" stroke="midnightblue" d="M606.96,-83.5C621.98,-73.37 638.47,-62.25 652.77,-52.61"/>
<polygon fill="midnightblue" stroke="midnightblue" points="604.65,-80.84 598.31,-89.34 608.56,-86.65 604.65,-80.84"/>
</g>
<!-- Node7&#45;&gt;Node5 -->
<g id="edge10" class="edge">
<title>Node7&#45;&gt;Node5</title>
<path fill="none" stroke="midnightblue" d="M915.25,-273.28C874.21,-262.69 824.29,-248.19 781,-231 716.57,-205.41 646.17,-166.72 602.79,-141.53"/>
<polygon fill="midnightblue" stroke="midnightblue" points="914.38,-276.67 924.94,-275.75 916.11,-269.89 914.38,-276.67"/>
</g>
<!-- Node7&#45;&gt;Node6 -->
<g id="edge15" class="edge">
<title>Node7&#45;&gt;Node6</title>
<path fill="none" stroke="midnightblue" d="M915.52,-263.91C897.02,-255.15 878.35,-244.24 863,-231 806.05,-181.89 822.16,-144.12 771,-89 758.51,-75.54 742.8,-62.87 728.55,-52.56"/>
<polygon fill="midnightblue" stroke="midnightblue" points="914.31,-267.21 924.87,-268.17 917.22,-260.84 914.31,-267.21"/>
</g>
<!-- Node8 -->
<g id="node8" class="node">
<title>Node8</title>
<g id="a_node8"><a xlink:href="../../d3/d23/arithmetic_8hpp.html" target="_top" xlink:title=" ">
<polygon fill="white" stroke="black" points="823,-89.5 823,-141.5 969,-141.5 969,-89.5 823,-89.5"/>
<text text-anchor="start" x="831" y="-129.5" font-family="Helvetica,sans-Serif" font-size="10.00">/home/runner/work/Simple</text>
<text text-anchor="start" x="831" y="-118.5" font-family="Helvetica,sans-Serif" font-size="10.00">&#45;Utility/Simple&#45;Utility</text>
<text text-anchor="start" x="831" y="-107.5" font-family="Helvetica,sans-Serif" font-size="10.00">/include/Simple&#45;Utility</text>
<text text-anchor="middle" x="896" y="-96.5" font-family="Helvetica,sans-Serif" font-size="10.00">/functional/arithmetic.hpp</text>
</a>
</g>
</g>
<!-- Node7&#45;&gt;Node8 -->
<g id="edge8" class="edge">
<title>Node7&#45;&gt;Node8</title>
<path fill="none" stroke="midnightblue" d="M915.85,-266.79C900.02,-257.99 885.44,-246.34 876,-231 859.18,-203.68 870.97,-166.13 882.32,-141.59"/>
<polygon fill="midnightblue" stroke="midnightblue" points="914.26,-269.91 924.75,-271.39 917.48,-263.69 914.26,-269.91"/>
</g>
<!-- Node9 -->
<g id="node9" class="node">
<title>Node9</title>
<g id="a_node9"><a xlink:href="../../d9/d5f/functional_2tuple_8hpp.html" target="_top" xlink:title=" ">
<polygon fill="white" stroke="black" points="987,-89.5 987,-141.5 1133,-141.5 1133,-89.5 987,-89.5"/>
<text text-anchor="start" x="995" y="-129.5" font-family="Helvetica,sans-Serif" font-size="10.00">/home/runner/work/Simple</text>
<text text-anchor="start" x="995" y="-118.5" font-family="Helvetica,sans-Serif" font-size="10.00">&#45;Utility/Simple&#45;Utility</text>
<text text-anchor="start" x="995" y="-107.5" font-family="Helvetica,sans-Serif" font-size="10.00">/include/Simple&#45;Utility</text>
<text text-anchor="middle" x="1060" y="-96.5" font-family="Helvetica,sans-Serif" font-size="10.00">/functional/tuple.hpp</text>
</a>
</g>
</g>
<!-- Node7&#45;&gt;Node9 -->
<g id="edge11" class="edge">
<title>Node7&#45;&gt;Node9</title>
<path fill="none" stroke="midnightblue" d="M920.44,-262.03C908.27,-253.8 897.31,-243.58 890,-231 878.16,-210.64 876.47,-197.28 890,-178 893.11,-173.57 942.27,-156.04 986.92,-140.83"/>
<polygon fill="midnightblue" stroke="midnightblue" points="918.7,-265.07 929.03,-267.41 922.41,-259.14 918.7,-265.07"/>
</g>
<!-- Node7&#45;&gt;Node10 -->
<g id="edge13" class="edge">
<title>Node7&#45;&gt;Node10</title>
<path fill="none" stroke="midnightblue" d="M1081.6,-287.88C1333.34,-273.96 2067.73,-233.22 2080,-231 2082.93,-230.47 2085.91,-229.86 2088.9,-229.2"/>
<polygon fill="midnightblue" stroke="midnightblue" points="1081.2,-284.4 1071.41,-288.45 1081.59,-291.39 1081.2,-284.4"/>
</g>
<!-- Node11 -->
<g id="node11" class="node">
<title>Node11</title>
<g id="a_node11"><a xlink:href="../../d4/dc9/and__then_8hpp.html" target="_top" xlink:title=" ">
<polygon fill="white" stroke="black" points="1063,-178.5 1063,-230.5 1209,-230.5 1209,-178.5 1063,-178.5"/>
<text text-anchor="start" x="1071" y="-218.5" font-family="Helvetica,sans-Serif" font-size="10.00">/home/runner/work/Simple</text>
<text text-anchor="start" x="1071" y="-207.5" font-family="Helvetica,sans-Serif" font-size="10.00">&#45;Utility/Simple&#45;Utility</text>
<text text-anchor="start" x="1071" y="-196.5" font-family="Helvetica,sans-Serif" font-size="10.00">/include/Simple&#45;Utility</text>
<text text-anchor="middle" x="1136" y="-185.5" font-family="Helvetica,sans-Serif" font-size="10.00">/nullables/and_then.hpp</text>
</a>
</g>
</g>
<!-- Node7&#45;&gt;Node11 -->
<g id="edge16" class="edge">
<title>Node7&#45;&gt;Node11</title>
<path fill="none" stroke="midnightblue" d="M1046.72,-261.79C1062.91,-251.58 1080.74,-240.34 1096.17,-230.61"/>
<polygon fill="midnightblue" stroke="midnightblue" points="1044.51,-259.04 1037.92,-267.34 1048.24,-264.96 1044.51,-259.04"/>
</g>
<!-- Node13 -->
<g id="node13" class="node">
<title>Node13</title>
<g id="a_node13"><a xlink:href="../../d7/d5f/fwd__value_8hpp.html" target="_top" xlink:title=" ">
<polygon fill="white" stroke="black" points="1227,-178.5 1227,-230.5 1373,-230.5 1373,-178.5 1227,-178.5"/>
<text text-anchor="start" x="1235" y="-218.5" font-family="Helvetica,sans-Serif" font-size="10.00">/home/runner/work/Simple</text>
<text text-anchor="start" x="1235" y="-207.5" font-family="Helvetica,sans-Serif" font-size="10.00">&#45;Utility/Simple&#45;Utility</text>
<text text-anchor="start" x="1235" y="-196.5" font-family="Helvetica,sans-Serif" font-size="10.00">/include/Simple&#45;Utility</text>
<text text-anchor="middle" x="1300" y="-185.5" font-family="Helvetica,sans-Serif" font-size="10.00">/nullables/fwd_value.hpp</text>
</a>
</g>
</g>
<!-- Node7&#45;&gt;Node13 -->
<g id="edge18" class="edge">
<title>Node7&#45;&gt;Node13</title>
<path fill="none" stroke="midnightblue" d="M1080.97,-269.91C1122.25,-258.53 1172.84,-244.33 1218,-231 1220.86,-230.16 1223.77,-229.29 1226.71,-228.41"/>
<polygon fill="midnightblue" stroke="midnightblue" points="1079.95,-266.57 1071.23,-272.6 1081.8,-273.32 1079.95,-266.57"/>
</g>
<!-- Node14 -->
<g id="node14" class="node">
<title>Node14</title>
<g id="a_node14"><a xlink:href="../../d2/d0e/or__else_8hpp.html" target="_top" xlink:title=" ">
<polygon fill="white" stroke="black" points="1391,-178.5 1391,-230.5 1537,-230.5 1537,-178.5 1391,-178.5"/>
<text text-anchor="start" x="1399" y="-218.5" font-family="Helvetica,sans-Serif" font-size="10.00">/home/runner/work/Simple</text>
<text text-anchor="start" x="1399" y="-207.5" font-family="Helvetica,sans-Serif" font-size="10.00">&#45;Utility/Simple&#45;Utility</text>
<text text-anchor="start" x="1399" y="-196.5" font-family="Helvetica,sans-Serif" font-size="10.00">/include/Simple&#45;Utility</text>
<text text-anchor="middle" x="1464" y="-185.5" font-family="Helvetica,sans-Serif" font-size="10.00">/nullables/or_else.hpp</text>
</a>
</g>
</g>
<!-- Node7&#45;&gt;Node14 -->
<g id="edge20" class="edge">
<title>Node7&#45;&gt;Node14</title>
<path fill="none" stroke="midnightblue" d="M1081.43,-282.63C1159.67,-272.55 1279.61,-254.99 1382,-231 1384.9,-230.32 1387.85,-229.59 1390.82,-228.82"/>
<polygon fill="midnightblue" stroke="midnightblue" points="1080.62,-279.2 1071.15,-283.94 1081.51,-286.15 1080.62,-279.2"/>
</g>
<!-- Node15 -->
<g id="node15" class="node">
<title>Node15</title>
<g id="a_node15"><a xlink:href="../../d0/d48/value__or_8hpp.html" target="_top" xlink:title=" ">
<polygon fill="white" stroke="black" points="899,-178.5 899,-230.5 1045,-230.5 1045,-178.5 899,-178.5"/>
<text text-anchor="start" x="907" y="-218.5" font-family="Helvetica,sans-Serif" font-size="10.00">/home/runner/work/Simple</text>
<text text-anchor="start" x="907" y="-207.5" font-family="Helvetica,sans-Serif" font-size="10.00">&#45;Utility/Simple&#45;Utility</text>
<text text-anchor="start" x="907" y="-196.5" font-family="Helvetica,sans-Serif" font-size="10.00">/include/Simple&#45;Utility</text>
<text text-anchor="middle" x="972" y="-185.5" font-family="Helvetica,sans-Serif" font-size="10.00">/nullables/value_or.hpp</text>
</a>
</g>
</g>
<!-- Node7&#45;&gt;Node15 -->
<g id="edge22" class="edge">
<title>Node7&#45;&gt;Node15</title>
<path fill="none" stroke="midnightblue" d="M987.53,-257.48C984.85,-248.49 982.01,-238.99 979.5,-230.61"/>
<polygon fill="midnightblue" stroke="midnightblue" points="984.26,-258.76 990.48,-267.34 990.97,-256.75 984.26,-258.76"/>
</g>
<!-- Node8&#45;&gt;Node6 -->
<g id="edge9" class="edge">
<title>Node8&#45;&gt;Node6</title>
<path fill="none" stroke="midnightblue" d="M827.18,-85.44C801.93,-74.77 773.58,-62.8 749.25,-52.52"/>
<polygon fill="midnightblue" stroke="midnightblue" points="826.12,-88.79 836.69,-89.45 828.84,-82.34 826.12,-88.79"/>
</g>
<!-- Node9&#45;&gt;Node6 -->
<g id="edge12" class="edge">
<title>Node9&#45;&gt;Node6</title>
<path fill="none" stroke="midnightblue" d="M976.77,-88.76C898.7,-68.62 819.3,-52.17 763.23,-41.22"/>
<polygon fill="midnightblue" stroke="midnightblue" points="976.22,-92.24 986.78,-91.37 977.98,-85.46 976.22,-92.24"/>
</g>
<!-- Node10&#45;&gt;Node6 -->
<g id="edge14" class="edge">
<title>Node10&#45;&gt;Node6</title>
<path fill="none" stroke="midnightblue" d="M2078.89,-177.8C1879.85,-127.35 1827.75,-115.1 1628,-89 1307.59,-47.13 921.7,-33.24 763.29,-29.09"/>
<polygon fill="midnightblue" stroke="midnightblue" points="2078.24,-181.24 2088.79,-180.31 2079.96,-174.46 2078.24,-181.24"/>
</g>
<!-- Node12 -->
<g id="node12" class="node">
<title>Node12</title>
<g id="a_node12"><a xlink:href="../../d3/ddc/nullables_8hpp.html" target="_top" xlink:title=" ">
<polygon fill="white" stroke="black" points="1473,-89.5 1473,-141.5 1619,-141.5 1619,-89.5 1473,-89.5"/>
<text text-anchor="start" x="1481" y="-129.5" font-family="Helvetica,sans-Serif" font-size="10.00">/home/runner/work/Simple</text>
<text text-anchor="start" x="1481" y="-118.5" font-family="Helvetica,sans-Serif" font-size="10.00">&#45;Utility/Simple&#45;Utility</text>
<text text-anchor="start" x="1481" y="-107.5" font-family="Helvetica,sans-Serif" font-size="10.00">/include/Simple&#45;Utility</text>
<text text-anchor="middle" x="1546" y="-96.5" font-family="Helvetica,sans-Serif" font-size="10.00">/nullables.hpp</text>
</a>
</g>
</g>
<!-- Node11&#45;&gt;Node12 -->
<g id="edge17" class="edge">
<title>Node11&#45;&gt;Node12</title>
<path fill="none" stroke="midnightblue" d="M1219.01,-177.85C1311.62,-155.24 1408.31,-138.18 1472.85,-127.72"/>
<polygon fill="midnightblue" stroke="midnightblue" points="1218.07,-174.48 1209.2,-180.27 1219.75,-181.28 1218.07,-174.48"/>
</g>
<!-- Node13&#45;&gt;Node12 -->
<g id="edge19" class="edge">
<title>Node13&#45;&gt;Node12</title>
<path fill="none" stroke="midnightblue" d="M1380.59,-175C1411.14,-164.19 1445.67,-151.98 1475.25,-141.52"/>
<polygon fill="midnightblue" stroke="midnightblue" points="1379.08,-171.82 1370.82,-178.45 1381.42,-178.42 1379.08,-171.82"/>
</g>
<!-- Node14&#45;&gt;Node12 -->
<g id="edge21" class="edge">
<title>Node14&#45;&gt;Node12</title>
<path fill="none" stroke="midnightblue" d="M1494.83,-170.79C1503.94,-161.13 1513.76,-150.71 1522.34,-141.61"/>
<polygon fill="midnightblue" stroke="midnightblue" points="1492.03,-168.66 1487.72,-178.34 1497.12,-173.46 1492.03,-168.66"/>
</g>
<!-- Node15&#45;&gt;Node12 -->
<g id="edge23" class="edge">
<title>Node15&#45;&gt;Node12</title>
<path fill="none" stroke="midnightblue" d="M1055.21,-177.89C1208.31,-145.53 1378.16,-129.05 1472.8,-121.58"/>
<polygon fill="midnightblue" stroke="midnightblue" points="1054.19,-174.53 1045.15,-180.05 1055.66,-181.38 1054.19,-174.53"/>
</g>
<!-- Node16&#45;&gt;Node11 -->
<g id="edge28" class="edge">
<title>Node16&#45;&gt;Node11</title>
<path fill="none" stroke="midnightblue" d="M1463.89,-279.72C1397.02,-268.78 1300.88,-251.56 1218,-231 1215.11,-230.28 1212.16,-229.52 1209.2,-228.73"/>
<polygon fill="midnightblue" stroke="midnightblue" points="1463.52,-283.21 1473.95,-281.36 1464.64,-276.3 1463.52,-283.21"/>
</g>
<!-- Node16&#45;&gt;Node12 -->
<g id="edge36" class="edge">
<title>Node16&#45;&gt;Node12</title>
<path fill="none" stroke="midnightblue" d="M1630.33,-281.65C1661.23,-273.13 1693.28,-257.96 1712,-231 1725.44,-211.65 1725.46,-197.33 1712,-178 1691.02,-147.85 1653.46,-132.45 1619.36,-124.6"/>
<polygon fill="midnightblue" stroke="midnightblue" points="1629.19,-278.33 1620.36,-284.18 1630.91,-285.11 1629.19,-278.33"/>
</g>
<!-- Node16&#45;&gt;Node13 -->
<g id="edge29" class="edge">
<title>Node16&#45;&gt;Node13</title>
<path fill="none" stroke="midnightblue" d="M1466.08,-264C1435.4,-253.19 1400.74,-240.98 1371.04,-230.52"/>
<polygon fill="midnightblue" stroke="midnightblue" points="1465.29,-267.43 1475.89,-267.45 1467.62,-260.83 1465.29,-267.43"/>
</g>
<!-- Node16&#45;&gt;Node14 -->
<g id="edge30" class="edge">
<title>Node16&#45;&gt;Node14</title>
<path fill="none" stroke="midnightblue" d="M1516.07,-260.08C1506.77,-250.34 1496.72,-239.8 1487.95,-230.61"/>
<polygon fill="midnightblue" stroke="midnightblue" points="1513.56,-262.52 1522.99,-267.34 1518.62,-257.68 1513.56,-262.52"/>
</g>
<!-- Node16&#45;&gt;Node15 -->
<g id="edge35" class="edge">
<title>Node16&#45;&gt;Node15</title>
<path fill="none" stroke="midnightblue" d="M1463.44,-286.62C1364.77,-278.63 1196.09,-261.7 1054,-231 1051.09,-230.37 1048.13,-229.68 1045.15,-228.95"/>
<polygon fill="midnightblue" stroke="midnightblue" points="1463.4,-290.13 1473.65,-287.43 1463.96,-283.15 1463.4,-290.13"/>
</g>
<!-- Node16&#45;&gt;Node17 -->
<g id="edge26" class="edge">
<title>Node16&#45;&gt;Node17</title>
<path fill="none" stroke="midnightblue" d="M1630.41,-281.91C1705.62,-271.58 1818.99,-254.05 1916,-231 1918.9,-230.31 1921.85,-229.57 1924.82,-228.8"/>
<polygon fill="midnightblue" stroke="midnightblue" points="1629.49,-278.5 1620.05,-283.32 1630.43,-285.44 1629.49,-278.5"/>
</g>
<!-- Node18 -->
<g id="node18" class="node">
<title>Node18</title>
<g id="a_node18"><a xlink:href="../../d9/d20/std__optional_8hpp.html" target="_top" xlink:title=" ">
<polygon fill="white" stroke="black" points="1759,-178.5 1759,-230.5 1907,-230.5 1907,-178.5 1759,-178.5"/>
<text text-anchor="start" x="1767" y="-218.5" font-family="Helvetica,sans-Serif" font-size="10.00">/home/runner/work/Simple</text>
<text text-anchor="start" x="1767" y="-207.5" font-family="Helvetica,sans-Serif" font-size="10.00">&#45;Utility/Simple&#45;Utility</text>
<text text-anchor="start" x="1767" y="-196.5" font-family="Helvetica,sans-Serif" font-size="10.00">/include/Simple&#45;Utility</text>
<text text-anchor="middle" x="1833" y="-185.5" font-family="Helvetica,sans-Serif" font-size="10.00">/nullables/std_optional.hpp</text>
</a>
</g>
</g>
<!-- Node16&#45;&gt;Node18 -->
<g id="edge31" class="edge">
<title>Node16&#45;&gt;Node18</title>
<path fill="none" stroke="midnightblue" d="M1629.92,-267.28C1670.69,-254.87 1719.41,-240.05 1758.92,-228.04"/>
<polygon fill="midnightblue" stroke="midnightblue" points="1628.83,-263.95 1620.28,-270.21 1630.87,-270.65 1628.83,-263.95"/>
</g>
<!-- Node19 -->
<g id="node19" class="node">
<title>Node19</title>
<g id="a_node19"><a xlink:href="../../d8/d9a/std__pointers_8hpp.html" target="_top" xlink:title=" ">
<polygon fill="white" stroke="black" points="1555,-178.5 1555,-230.5 1703,-230.5 1703,-178.5 1555,-178.5"/>
<text text-anchor="start" x="1563" y="-218.5" font-family="Helvetica,sans-Serif" font-size="10.00">/home/runner/work/Simple</text>
<text text-anchor="start" x="1563" y="-207.5" font-family="Helvetica,sans-Serif" font-size="10.00">&#45;Utility/Simple&#45;Utility</text>
<text text-anchor="start" x="1563" y="-196.5" font-family="Helvetica,sans-Serif" font-size="10.00">/include/Simple&#45;Utility</text>
<text text-anchor="middle" x="1629" y="-185.5" font-family="Helvetica,sans-Serif" font-size="10.00">/nullables/std_pointers.hpp</text>
</a>
</g>
</g>
<!-- Node16&#45;&gt;Node19 -->
<g id="edge33" class="edge">
<title>Node16&#45;&gt;Node19</title>
<path fill="none" stroke="midnightblue" d="M1577.83,-259.79C1586.94,-250.13 1596.76,-239.71 1605.34,-230.61"/>
<polygon fill="midnightblue" stroke="midnightblue" points="1575.03,-257.66 1570.72,-267.34 1580.12,-262.46 1575.03,-257.66"/>
</g>
<!-- Node16&#45;&gt;Node20 -->
<g id="edge37" class="edge">
<title>Node16&#45;&gt;Node20</title>
<path fill="none" stroke="midnightblue" d="M1630.22,-290.88C1761.75,-287.05 2025.19,-274.16 2244,-231 2246.93,-230.42 2249.89,-229.78 2252.88,-229.09"/>
<polygon fill="midnightblue" stroke="midnightblue" points="1630.11,-287.38 1620.22,-291.16 1630.31,-294.38 1630.11,-287.38"/>
</g>
<!-- Node17&#45;&gt;Node12 -->
<g id="edge27" class="edge">
<title>Node17&#45;&gt;Node12</title>
<path fill="none" stroke="midnightblue" d="M1915.07,-177.9C1807.17,-152.77 1692.12,-135.46 1619.25,-125.66"/>
<polygon fill="midnightblue" stroke="midnightblue" points="1914.28,-181.31 1924.82,-180.2 1915.89,-174.5 1914.28,-181.31"/>
</g>
<!-- Node18&#45;&gt;Node12 -->
<g id="edge32" class="edge">
<title>Node18&#45;&gt;Node12</title>
<path fill="none" stroke="midnightblue" d="M1749.01,-178.04C1707.96,-165.6 1659.02,-150.76 1619.47,-138.77"/>
<polygon fill="midnightblue" stroke="midnightblue" points="1748.13,-181.43 1758.72,-180.98 1750.16,-174.73 1748.13,-181.43"/>
</g>
<!-- Node19&#45;&gt;Node12 -->
<g id="edge34" class="edge">
<title>Node19&#45;&gt;Node12</title>
<path fill="none" stroke="midnightblue" d="M1598.07,-171.08C1588.77,-161.34 1578.72,-150.8 1569.95,-141.61"/>
<polygon fill="midnightblue" stroke="midnightblue" points="1595.56,-173.52 1604.99,-178.34 1600.62,-168.68 1595.56,-173.52"/>
</g>
<!-- Node21&#45;&gt;Node4 -->
<g id="edge39" class="edge">
<title>Node21&#45;&gt;Node4</title>
<path fill="none" stroke="midnightblue" d="M685.53,-264.24C652.61,-253.22 615.21,-240.71 583.43,-230.07"/>
<polygon fill="midnightblue" stroke="midnightblue" points="684.55,-267.6 695.15,-267.45 686.77,-260.96 684.55,-267.6"/>
</g>
<!-- Node21&#45;&gt;Node6 -->
<g id="edge40" class="edge">
<title>Node21&#45;&gt;Node6</title>
<path fill="none" stroke="midnightblue" d="M753.81,-258.25C749.99,-249.48 746.12,-239.98 743,-231 721.14,-168.06 703.51,-91.44 695.19,-52.63"/>
<polygon fill="midnightblue" stroke="midnightblue" points="750.64,-259.72 757.91,-267.43 757.03,-256.87 750.64,-259.72"/>
</g>
<!-- Node22&#45;&gt;Node4 -->
<g id="edge42" class="edge">
<title>Node22&#45;&gt;Node4</title>
<path fill="none" stroke="midnightblue" d="M232.81,-266.83C308.14,-249.57 383.07,-233.07 436.76,-221.36"/>
<polygon fill="midnightblue" stroke="midnightblue" points="231.62,-263.51 222.66,-269.16 233.19,-270.33 231.62,-263.51"/>
</g>
<!-- Node22&#45;&gt;Node6 -->
<g id="edge43" class="edge">
<title>Node22&#45;&gt;Node6</title>
<path fill="none" stroke="midnightblue" d="M159.74,-260.58C210.86,-215.38 311.13,-133.32 411,-89 477.42,-59.52 559.19,-43.64 616.99,-35.45"/>
<polygon fill="midnightblue" stroke="midnightblue" points="157.41,-257.97 152.27,-267.24 162.06,-263.2 157.41,-257.97"/>
</g>
<!-- Node23&#45;&gt;Node4 -->
<g id="edge45" class="edge">
<title>Node23&#45;&gt;Node4</title>
<path fill="none" stroke="midnightblue" d="M569.52,-347.78C563.69,-338.98 557.78,-329.34 553,-320 537.89,-290.52 525.23,-254.45 517.64,-230.77"/>
<polygon fill="midnightblue" stroke="midnightblue" points="566.77,-349.96 575.28,-356.27 572.56,-346.03 566.77,-349.96"/>
</g>
<!-- Node24&#45;&gt;Node4 -->
<g id="edge47" class="edge">
<title>Node24&#45;&gt;Node4</title>
<path fill="none" stroke="midnightblue" d="M439.11,-349.95C449.27,-341.13 459.33,-330.94 467,-320 486.26,-292.53 498.13,-255.35 504.39,-230.92"/>
<polygon fill="midnightblue" stroke="midnightblue" points="436.8,-347.32 431.37,-356.41 441.29,-352.7 436.8,-347.32"/>
</g>
<!-- Node25&#45;&gt;Node4 -->
<g id="edge49" class="edge">
<title>Node25&#45;&gt;Node4</title>
<path fill="none" stroke="midnightblue" d="M393.19,-262.92C414.55,-252.41 438.38,-240.7 458.92,-230.61"/>
<polygon fill="midnightblue" stroke="midnightblue" points="391.63,-259.78 384.2,-267.34 394.71,-266.07 391.63,-259.78"/>
</g>
<!-- Node25&#45;&gt;Node6 -->
<g id="edge50" class="edge">
<title>Node25&#45;&gt;Node6</title>
<path fill="none" stroke="midnightblue" d="M346.39,-257.82C365.8,-212.19 406.11,-132.66 466,-89 510.07,-56.87 570.1,-41.52 616.92,-34.19"/>
<polygon fill="midnightblue" stroke="midnightblue" points="343.06,-256.71 342.45,-267.29 349.52,-259.4 343.06,-256.71"/>
</g>
<!-- Node26&#45;&gt;Node4 -->
<g id="edge53" class="edge">
<title>Node26&#45;&gt;Node4</title>
<path fill="none" stroke="midnightblue" d="M686.55,-354.22C643.41,-340.84 599.5,-326.28 591,-320 589.91,-319.2 551.18,-264.15 527.67,-230.69"/>
<polygon fill="midnightblue" stroke="midnightblue" points="685.72,-357.62 696.3,-357.23 687.78,-350.94 685.72,-357.62"/>
</g>
<!-- Node26&#45;&gt;Node6 -->
<g id="edge55" class="edge">
<title>Node26&#45;&gt;Node6</title>
<path fill="none" stroke="midnightblue" d="M693.39,-351.08C680.88,-342.91 669.64,-332.7 662,-320 610.06,-233.67 654.93,-106.45 678.14,-52.82"/>
<polygon fill="midnightblue" stroke="midnightblue" points="691.87,-354.25 702.24,-356.42 695.48,-348.26 691.87,-354.25"/>
</g>
<!-- Node26&#45;&gt;Node7 -->
<g id="edge54" class="edge">
<title>Node26&#45;&gt;Node7</title>
<path fill="none" stroke="midnightblue" d="M850.78,-352.72C877.93,-341.98 908.51,-329.89 934.73,-319.52"/>
<polygon fill="midnightblue" stroke="midnightblue" points="849.35,-349.52 841.34,-356.45 851.92,-356.03 849.35,-349.52"/>
</g>
<!-- Node26&#45;&gt;Node25 -->
<g id="edge52" class="edge">
<title>Node26&#45;&gt;Node25</title>
<path fill="none" stroke="midnightblue" d="M686.27,-355.68C592.78,-334.75 495.31,-318.5 425.84,-307.86"/>
<polygon fill="midnightblue" stroke="midnightblue" points="685.65,-359.13 696.18,-357.92 687.19,-352.31 685.65,-359.13"/>
</g>
</g>
</svg>
