<?xml version="1.0" encoding="UTF-8" standalone="no"?>
<!DOCTYPE svg PUBLIC "-//W3C//DTD SVG 1.1//EN"
 "http://www.w3.org/Graphics/SVG/1.1/DTD/svg11.dtd">
<!-- Generated by graphviz version 8.0.5 (20230430.1635)
 -->
<!-- Title: Simple&#45;Utility/concepts/stl_extensions.hpp Pages: 1 -->
<svg width="2146pt" height="446pt"
 viewBox="0.00 0.00 2146.37 445.75" xmlns="http://www.w3.org/2000/svg" xmlns:xlink="http://www.w3.org/1999/xlink">
<g id="graph0" class="graph" transform="scale(1 1) rotate(0) translate(4 441.75)">
<title>Simple&#45;Utility/concepts/stl_extensions.hpp</title>
<!-- Node1 -->
<g id="node1" class="node">
<title>Node1</title>
<g id="a_node1"><a xlink:title=" ">
<polygon fill="#999999" stroke="#666666" points="776.62,-437.75 654.87,-437.75 654.87,-404.25 776.62,-404.25 776.62,-437.75"/>
<text text-anchor="start" x="662.87" y="-424.25" font-family="Helvetica,sans-Serif" font-size="10.00">Simple&#45;Utility/concepts</text>
<text text-anchor="middle" x="715.75" y="-411.5" font-family="Helvetica,sans-Serif" font-size="10.00">/stl_extensions.hpp</text>
</a>
</g>
</g>
<!-- Node2 -->
<g id="node2" class="node">
<title>Node2</title>
<g id="a_node2"><a xlink:href="../../d6/dcb/_c_r_t_p_base_8hpp.html" target="_top" xlink:title=" ">
<polygon fill="white" stroke="#666666" points="445.37,-361.88 298.12,-361.88 298.12,-341.12 445.37,-341.12 445.37,-361.88"/>
<text text-anchor="middle" x="371.75" y="-348.38" font-family="Helvetica,sans-Serif" font-size="10.00">Simple&#45;Utility/CRTPBase.hpp</text>
</a>
</g>
</g>
<!-- Node1&#45;&gt;Node2 -->
<g id="edge1" class="edge">
<title>Node1&#45;&gt;Node2</title>
<path fill="none" stroke="#63b8ff" d="M644.26,-405.97C577.81,-392.93 480.53,-373.84 421.95,-362.35"/>
<polygon fill="#63b8ff" stroke="#63b8ff" points="643.16,-409.52 653.65,-408.01 644.51,-402.65 643.16,-409.52"/>
</g>
<!-- Node3 -->
<g id="node3" class="node">
<title>Node3</title>
<g id="a_node3"><a xlink:href="../../d7/df7/_invoke_policies_8hpp.html" target="_top" xlink:title=" ">
<polygon fill="white" stroke="#666666" points="454.75,-229.25 318.75,-229.25 318.75,-195.75 454.75,-195.75 454.75,-229.25"/>
<text text-anchor="start" x="326.75" y="-215.75" font-family="Helvetica,sans-Serif" font-size="10.00">Simple&#45;Utility/functional</text>
<text text-anchor="middle" x="386.75" y="-203" font-family="Helvetica,sans-Serif" font-size="10.00">/mixins/InvokePolicies.hpp</text>
</a>
</g>
</g>
<!-- Node1&#45;&gt;Node3 -->
<g id="edge47" class="edge">
<title>Node1&#45;&gt;Node3</title>
<path fill="none" stroke="#63b8ff" d="M692.99,-396.54C674.57,-378.33 647.39,-353.16 620.75,-334.75 556.01,-290.01 472.63,-250.65 424.89,-229.64"/>
<polygon fill="#63b8ff" stroke="#63b8ff" points="689.78,-398.28 699.33,-402.88 694.73,-393.33 689.78,-398.28"/>
</g>
<!-- Node6 -->
<g id="node6" class="node">
<title>Node6</title>
<g id="a_node6"><a xlink:href="../../d8/d60/_compare_8hpp.html" target="_top" xlink:title=" ">
<polygon fill="white" stroke="#666666" points="710.25,-90.25 583.25,-90.25 583.25,-56.75 710.25,-56.75 710.25,-90.25"/>
<text text-anchor="start" x="591.25" y="-76.75" font-family="Helvetica,sans-Serif" font-size="10.00">Simple&#45;Utility/functional</text>
<text text-anchor="middle" x="646.75" y="-64" font-family="Helvetica,sans-Serif" font-size="10.00">/Compare.hpp</text>
</a>
</g>
</g>
<!-- Node1&#45;&gt;Node6 -->
<g id="edge41" class="edge">
<title>Node1&#45;&gt;Node6</title>
<path fill="none" stroke="#63b8ff" d="M700.01,-394.83C688.59,-377.3 672.3,-353.75 655.75,-334.75 610.63,-282.94 570.13,-292.27 542.75,-229.25 523.7,-185.4 543.44,-163.22 573.75,-126.25 585.57,-111.83 602.35,-99.56 616.84,-90.59"/>
<polygon fill="#63b8ff" stroke="#63b8ff" points="697.48,-396.36 705.83,-402.88 703.37,-392.57 697.48,-396.36"/>
</g>
<!-- Node10 -->
<g id="node10" class="node">
<title>Node10</title>
<g id="a_node10"><a xlink:href="../../de/d61/functional_2_utility_8hpp.html" target="_top" xlink:title=" ">
<polygon fill="white" stroke="#666666" points="159.25,-90.25 32.25,-90.25 32.25,-56.75 159.25,-56.75 159.25,-90.25"/>
<text text-anchor="start" x="40.25" y="-76.75" font-family="Helvetica,sans-Serif" font-size="10.00">Simple&#45;Utility/functional</text>
<text text-anchor="middle" x="95.75" y="-64" font-family="Helvetica,sans-Serif" font-size="10.00">/Utility.hpp</text>
</a>
</g>
</g>
<!-- Node1&#45;&gt;Node10 -->
<g id="edge43" class="edge">
<title>Node1&#45;&gt;Node10</title>
<path fill="none" stroke="#63b8ff" d="M643.68,-419.77C507.22,-418.35 216.72,-410.31 126.75,-368.25 78.28,-345.59 41.75,-336.5 41.75,-283 41.75,-283 41.75,-283 41.75,-211.5 41.75,-164.97 69.04,-115.36 84.82,-90.56"/>
<polygon fill="#63b8ff" stroke="#63b8ff" points="643.39,-423.28 653.42,-419.87 643.45,-416.28 643.39,-423.28"/>
</g>
<!-- Node11 -->
<g id="node11" class="node">
<title>Node11</title>
<g id="a_node11"><a xlink:href="../../d8/d32/_type_traits_8hpp.html" target="_top" xlink:title=" ">
<polygon fill="white" stroke="#666666" points="612.12,-361.88 463.37,-361.88 463.37,-341.12 612.12,-341.12 612.12,-361.88"/>
<text text-anchor="middle" x="537.75" y="-348.38" font-family="Helvetica,sans-Serif" font-size="10.00">Simple&#45;Utility/TypeTraits.hpp</text>
</a>
</g>
</g>
<!-- Node1&#45;&gt;Node11 -->
<g id="edge17" class="edge">
<title>Node1&#45;&gt;Node11</title>
<path fill="none" stroke="#63b8ff" d="M663.23,-400.09C630.49,-387.67 589.78,-372.23 563.78,-362.37"/>
<polygon fill="#63b8ff" stroke="#63b8ff" points="661.52,-403.56 672.11,-403.83 664,-397.01 661.52,-403.56"/>
</g>
<!-- Node12 -->
<g id="node12" class="node">
<title>Node12</title>
<g id="a_node12"><a xlink:href="../../d8/d05/_basic_closure_8hpp.html" target="_top" xlink:title=" ">
<polygon fill="white" stroke="#666666" points="280.25,-368.25 153.25,-368.25 153.25,-334.75 280.25,-334.75 280.25,-368.25"/>
<text text-anchor="start" x="161.25" y="-354.75" font-family="Helvetica,sans-Serif" font-size="10.00">Simple&#45;Utility/functional</text>
<text text-anchor="middle" x="216.75" y="-342" font-family="Helvetica,sans-Serif" font-size="10.00">/BasicClosure.hpp</text>
</a>
</g>
</g>
<!-- Node1&#45;&gt;Node12 -->
<g id="edge18" class="edge">
<title>Node1&#45;&gt;Node12</title>
<path fill="none" stroke="#63b8ff" d="M643.84,-413.38C558.73,-405.07 412.89,-389.3 288.75,-368.25 286.1,-367.8 283.4,-367.32 280.68,-366.81"/>
<polygon fill="#63b8ff" stroke="#63b8ff" points="643.38,-416.95 653.68,-414.44 644.06,-409.99 643.38,-416.95"/>
</g>
<!-- Node13 -->
<g id="node13" class="node">
<title>Node13</title>
<g id="a_node13"><a xlink:href="../../d3/d48/_composition_8hpp.html" target="_top" xlink:title=" ">
<polygon fill="white" stroke="#666666" points="909.25,-298.75 782.25,-298.75 782.25,-265.25 909.25,-265.25 909.25,-298.75"/>
<text text-anchor="start" x="790.25" y="-285.25" font-family="Helvetica,sans-Serif" font-size="10.00">Simple&#45;Utility/functional</text>
<text text-anchor="middle" x="845.75" y="-272.5" font-family="Helvetica,sans-Serif" font-size="10.00">/Composition.hpp</text>
</a>
</g>
</g>
<!-- Node1&#45;&gt;Node13 -->
<g id="edge42" class="edge">
<title>Node1&#45;&gt;Node13</title>
<path fill="none" stroke="#63b8ff" d="M740.05,-396.29C748.86,-387.56 758.84,-377.54 767.75,-368.25 790.38,-344.65 815.81,-316.54 831.31,-299.23"/>
<polygon fill="#63b8ff" stroke="#63b8ff" points="738.01,-393.37 733.34,-402.88 742.92,-398.35 738.01,-393.37"/>
</g>
<!-- Node14 -->
<g id="node14" class="node">
<title>Node14</title>
<g id="a_node14"><a xlink:href="../../d7/d0e/_conjunction_8hpp.html" target="_top" xlink:title=" ">
<polygon fill="white" stroke="#666666" points="824.25,-229.25 697.25,-229.25 697.25,-195.75 824.25,-195.75 824.25,-229.25"/>
<text text-anchor="start" x="705.25" y="-215.75" font-family="Helvetica,sans-Serif" font-size="10.00">Simple&#45;Utility/functional</text>
<text text-anchor="middle" x="760.75" y="-203" font-family="Helvetica,sans-Serif" font-size="10.00">/mixins/Conjunction.hpp</text>
</a>
</g>
</g>
<!-- Node1&#45;&gt;Node14 -->
<g id="edge44" class="edge">
<title>Node1&#45;&gt;Node14</title>
<path fill="none" stroke="#63b8ff" d="M723.3,-393.43C725.49,-385.37 727.82,-376.47 729.75,-368.25 741.6,-317.84 752.85,-257.52 757.93,-229.39"/>
<polygon fill="#63b8ff" stroke="#63b8ff" points="719.74,-392.18 720.44,-402.76 726.48,-394.05 719.74,-392.18"/>
</g>
<!-- Node15 -->
<g id="node15" class="node">
<title>Node15</title>
<g id="a_node15"><a xlink:href="../../d7/ddc/_disjunction_8hpp.html" target="_top" xlink:title=" ">
<polygon fill="white" stroke="#666666" points="1008.25,-229.25 881.25,-229.25 881.25,-195.75 1008.25,-195.75 1008.25,-229.25"/>
<text text-anchor="start" x="889.25" y="-215.75" font-family="Helvetica,sans-Serif" font-size="10.00">Simple&#45;Utility/functional</text>
<text text-anchor="middle" x="944.75" y="-203" font-family="Helvetica,sans-Serif" font-size="10.00">/mixins/Disjunction.hpp</text>
</a>
</g>
</g>
<!-- Node1&#45;&gt;Node15 -->
<g id="edge45" class="edge">
<title>Node1&#45;&gt;Node15</title>
<path fill="none" stroke="#63b8ff" d="M771.28,-399.67C816.79,-380.32 879.69,-346.95 917.75,-298.75 933.91,-278.28 940.49,-247.96 943.1,-229.54"/>
<polygon fill="#63b8ff" stroke="#63b8ff" points="770.16,-396.76 762.27,-403.82 772.85,-403.23 770.16,-396.76"/>
</g>
<!-- Node16 -->
<g id="node16" class="node">
<title>Node16</title>
<g id="a_node16"><a xlink:href="../../de/d71/_equality_8hpp.html" target="_top" xlink:title=" ">
<polygon fill="white" stroke="#666666" points="1153.25,-229.25 1026.25,-229.25 1026.25,-195.75 1153.25,-195.75 1153.25,-229.25"/>
<text text-anchor="start" x="1034.25" y="-215.75" font-family="Helvetica,sans-Serif" font-size="10.00">Simple&#45;Utility/functional</text>
<text text-anchor="middle" x="1089.75" y="-203" font-family="Helvetica,sans-Serif" font-size="10.00">/mixins/Equality.hpp</text>
</a>
</g>
</g>
<!-- Node1&#45;&gt;Node16 -->
<g id="edge46" class="edge">
<title>Node1&#45;&gt;Node16</title>
<path fill="none" stroke="#63b8ff" d="M787.03,-402.25C814.18,-393.96 844.81,-382.68 870.75,-368.25 933.36,-333.42 935.46,-305.46 994.75,-265.25 1014.33,-251.97 1037.65,-239.22 1056.29,-229.71"/>
<polygon fill="#63b8ff" stroke="#63b8ff" points="786.4,-399.09 777.81,-405.29 788.39,-405.8 786.4,-399.09"/>
</g>
<!-- Node17 -->
<g id="node17" class="node">
<title>Node17</title>
<g id="a_node17"><a xlink:href="../../d2/df5/_pipe_8hpp.html" target="_top" xlink:title=" ">
<polygon fill="white" stroke="#666666" points="679.25,-229.25 552.25,-229.25 552.25,-195.75 679.25,-195.75 679.25,-229.25"/>
<text text-anchor="start" x="560.25" y="-215.75" font-family="Helvetica,sans-Serif" font-size="10.00">Simple&#45;Utility/functional</text>
<text text-anchor="middle" x="615.75" y="-203" font-family="Helvetica,sans-Serif" font-size="10.00">/mixins/Pipe.hpp</text>
</a>
</g>
</g>
<!-- Node1&#45;&gt;Node17 -->
<g id="edge49" class="edge">
<title>Node1&#45;&gt;Node17</title>
<path fill="none" stroke="#63b8ff" d="M717.78,-393.15C718.95,-360.4 716.58,-304.55 691.75,-265.25 682.12,-250 666.18,-238.13 651.38,-229.63"/>
<polygon fill="#63b8ff" stroke="#63b8ff" points="714.24,-392.93 717.23,-403.09 721.23,-393.28 714.24,-392.93"/>
</g>
<!-- Node18 -->
<g id="node18" class="node">
<title>Node18</title>
<g id="a_node18"><a xlink:href="../../d2/dc2/_negation_8hpp.html" target="_top" xlink:title=" ">
<polygon fill="white" stroke="#666666" points="253.25,-229.25 126.25,-229.25 126.25,-195.75 253.25,-195.75 253.25,-229.25"/>
<text text-anchor="start" x="134.25" y="-215.75" font-family="Helvetica,sans-Serif" font-size="10.00">Simple&#45;Utility/functional</text>
<text text-anchor="middle" x="189.75" y="-203" font-family="Helvetica,sans-Serif" font-size="10.00">/mixins/Negation.hpp</text>
</a>
</g>
</g>
<!-- Node1&#45;&gt;Node18 -->
<g id="edge48" class="edge">
<title>Node1&#45;&gt;Node18</title>
<path fill="none" stroke="#63b8ff" d="M643.77,-418.8C497.57,-415.6 176.86,-404.5 143.75,-368.25 107.26,-328.31 151.94,-260.64 176.13,-229.75"/>
<polygon fill="#63b8ff" stroke="#63b8ff" points="643.33,-422.31 653.41,-419.02 643.48,-415.31 643.33,-422.31"/>
</g>
<!-- Node19 -->
<g id="node19" class="node">
<title>Node19</title>
<g id="a_node19"><a xlink:href="../../d6/dca/adapter_8hpp.html" target="_top" xlink:title=" ">
<polygon fill="white" stroke="#666666" points="1126,-298.75 1003.5,-298.75 1003.5,-265.25 1126,-265.25 1126,-298.75"/>
<text text-anchor="start" x="1011.5" y="-285.25" font-family="Helvetica,sans-Serif" font-size="10.00">Simple&#45;Utility/nullables</text>
<text text-anchor="middle" x="1064.75" y="-272.5" font-family="Helvetica,sans-Serif" font-size="10.00">/adapter.hpp</text>
</a>
</g>
</g>
<!-- Node1&#45;&gt;Node19 -->
<g id="edge50" class="edge">
<title>Node1&#45;&gt;Node19</title>
<path fill="none" stroke="#63b8ff" d="M787.98,-419.06C845.95,-415.43 927.61,-403.66 989.75,-368.25 1019.21,-351.46 1042.94,-318.75 1055.34,-299.09"/>
<polygon fill="#63b8ff" stroke="#63b8ff" points="787.87,-415.62 778.08,-419.66 788.26,-422.61 787.87,-415.62"/>
</g>
<!-- Node21 -->
<g id="node21" class="node">
<title>Node21</title>
<g id="a_node21"><a xlink:href="../../dd/d3c/base_8hpp.html" target="_top" xlink:title=" ">
<polygon fill="white" stroke="#666666" points="1515,-368.25 1392.5,-368.25 1392.5,-334.75 1515,-334.75 1515,-368.25"/>
<text text-anchor="start" x="1400.5" y="-354.75" font-family="Helvetica,sans-Serif" font-size="10.00">Simple&#45;Utility/nullables</text>
<text text-anchor="middle" x="1453.75" y="-342" font-family="Helvetica,sans-Serif" font-size="10.00">/base.hpp</text>
</a>
</g>
</g>
<!-- Node1&#45;&gt;Node21 -->
<g id="edge52" class="edge">
<title>Node1&#45;&gt;Node21</title>
<path fill="none" stroke="#63b8ff" d="M787.61,-413.43C932.3,-400.19 1256.53,-370.54 1392.21,-358.13"/>
<polygon fill="#63b8ff" stroke="#63b8ff" points="787.73,-409.99 778.09,-414.39 788.36,-416.96 787.73,-409.99"/>
</g>
<!-- Node28 -->
<g id="node28" class="node">
<title>Node28</title>
<g id="a_node28"><a xlink:href="../../d0/d0f/unique__handle_8hpp.html" target="_top" xlink:title=" ">
<polygon fill="white" stroke="#666666" points="2138.37,-298.75 2027.12,-298.75 2027.12,-265.25 2138.37,-265.25 2138.37,-298.75"/>
<text text-anchor="start" x="2035.12" y="-285.25" font-family="Helvetica,sans-Serif" font-size="10.00">Simple&#45;Utility/unique</text>
<text text-anchor="middle" x="2082.75" y="-272.5" font-family="Helvetica,sans-Serif" font-size="10.00">_handle.hpp</text>
</a>
</g>
</g>
<!-- Node1&#45;&gt;Node28 -->
<g id="edge68" class="edge">
<title>Node1&#45;&gt;Node28</title>
<path fill="none" stroke="#63b8ff" d="M787.62,-417.23C928.91,-411.37 1252.71,-395.96 1523.75,-368.25 1744.32,-345.7 1799.97,-340.35 2017.75,-298.75 2020.71,-298.18 2023.75,-297.57 2026.81,-296.92"/>
<polygon fill="#63b8ff" stroke="#63b8ff" points="787.8,-413.76 777.95,-417.67 788.09,-420.75 787.8,-413.76"/>
</g>
<!-- Node2&#45;&gt;Node3 -->
<g id="edge2" class="edge">
<title>Node2&#45;&gt;Node3</title>
<path fill="none" stroke="#63b8ff" d="M374,-329.94C377.01,-302.45 382.28,-254.29 385.01,-229.4"/>
<polygon fill="#63b8ff" stroke="#63b8ff" points="370.44,-329.33 372.83,-339.65 377.4,-330.09 370.44,-329.33"/>
</g>
<!-- Node4 -->
<g id="node4" class="node">
<title>Node4</title>
<g id="a_node4"><a xlink:href="../../d2/db4/functional_8hpp.html" target="_top" xlink:title=" ">
<polygon fill="white" stroke="#666666" points="647.37,-20.75 500.12,-20.75 500.12,0 647.37,0 647.37,-20.75"/>
<text text-anchor="middle" x="573.75" y="-7.25" font-family="Helvetica,sans-Serif" font-size="10.00">Simple&#45;Utility/functional.hpp</text>
</a>
</g>
</g>
<!-- Node3&#45;&gt;Node4 -->
<g id="edge3" class="edge">
<title>Node3&#45;&gt;Node4</title>
<path fill="none" stroke="#63b8ff" d="M342.3,-190.22C286.35,-160.68 202.37,-105.37 244.75,-56.75 277.14,-19.59 413.05,-11.83 499.74,-10.77"/>
<polygon fill="#63b8ff" stroke="#63b8ff" points="340.55,-193.78 351.04,-195.26 343.76,-187.56 340.55,-193.78"/>
</g>
<!-- Node5 -->
<g id="node5" class="node">
<title>Node5</title>
<g id="a_node5"><a xlink:href="../../d4/d53/_predicate_8hpp.html" target="_top" xlink:title=" ">
<polygon fill="white" stroke="#666666" points="710.25,-159.75 583.25,-159.75 583.25,-126.25 710.25,-126.25 710.25,-159.75"/>
<text text-anchor="start" x="591.25" y="-146.25" font-family="Helvetica,sans-Serif" font-size="10.00">Simple&#45;Utility/functional</text>
<text text-anchor="middle" x="646.75" y="-133.5" font-family="Helvetica,sans-Serif" font-size="10.00">/Predicate.hpp</text>
</a>
</g>
</g>
<!-- Node3&#45;&gt;Node5 -->
<g id="edge4" class="edge">
<title>Node3&#45;&gt;Node5</title>
<path fill="none" stroke="#63b8ff" d="M459.61,-192.58C498.94,-182.37 546.97,-169.9 584.53,-160.15"/>
<polygon fill="#63b8ff" stroke="#63b8ff" points="458.83,-189.43 450.03,-195.33 460.58,-196.21 458.83,-189.43"/>
</g>
<!-- Node7 -->
<g id="node7" class="node">
<title>Node7</title>
<g id="a_node7"><a xlink:href="../../d9/d8c/_transform_8hpp.html" target="_top" xlink:title=" ">
<polygon fill="white" stroke="#666666" points="454.25,-159.75 327.25,-159.75 327.25,-126.25 454.25,-126.25 454.25,-159.75"/>
<text text-anchor="start" x="335.25" y="-146.25" font-family="Helvetica,sans-Serif" font-size="10.00">Simple&#45;Utility/functional</text>
<text text-anchor="middle" x="390.75" y="-133.5" font-family="Helvetica,sans-Serif" font-size="10.00">/Transform.hpp</text>
</a>
</g>
</g>
<!-- Node3&#45;&gt;Node7 -->
<g id="edge8" class="edge">
<title>Node3&#45;&gt;Node7</title>
<path fill="none" stroke="#63b8ff" d="M388.34,-184.64C388.84,-176.25 389.37,-167.26 389.81,-159.88"/>
<polygon fill="#63b8ff" stroke="#63b8ff" points="384.79,-184.31 387.7,-194.5 391.78,-184.73 384.79,-184.31"/>
</g>
<!-- Node5&#45;&gt;Node4 -->
<g id="edge5" class="edge">
<title>Node5&#45;&gt;Node4</title>
<path fill="none" stroke="#63b8ff" d="M690.95,-120.06C702.04,-112.27 712.54,-102.36 718.75,-90.25 725.54,-77 727.57,-68.75 718.75,-56.75 702.19,-34.22 674.49,-22.57 647.7,-16.65"/>
<polygon fill="#63b8ff" stroke="#63b8ff" points="689.49,-117.49 683,-125.86 693.29,-123.36 689.49,-117.49"/>
</g>
<!-- Node5&#45;&gt;Node6 -->
<g id="edge6" class="edge">
<title>Node5&#45;&gt;Node6</title>
<path fill="none" stroke="#63b8ff" d="M646.75,-115.14C646.75,-106.75 646.75,-97.76 646.75,-90.38"/>
<polygon fill="#63b8ff" stroke="#63b8ff" points="643.25,-115 646.75,-125 650.25,-115 643.25,-115"/>
</g>
<!-- Node6&#45;&gt;Node4 -->
<g id="edge7" class="edge">
<title>Node6&#45;&gt;Node4</title>
<path fill="none" stroke="#63b8ff" d="M619.36,-49.57C607.66,-39.77 594.63,-28.86 585.5,-21.22"/>
<polygon fill="#63b8ff" stroke="#63b8ff" points="616.66,-52.7 626.57,-56.44 621.15,-47.34 616.66,-52.7"/>
</g>
<!-- Node7&#45;&gt;Node4 -->
<g id="edge9" class="edge">
<title>Node7&#45;&gt;Node4</title>
<path fill="none" stroke="#63b8ff" d="M396.48,-115.22C401.83,-96.41 411.63,-71.99 428.75,-56.75 449.14,-38.6 476.74,-27.71 502.4,-21.17"/>
<polygon fill="#63b8ff" stroke="#63b8ff" points="392.86,-114.25 393.77,-124.8 399.64,-115.99 392.86,-114.25"/>
</g>
<!-- Node7&#45;&gt;Node6 -->
<g id="edge12" class="edge">
<title>Node7&#45;&gt;Node6</title>
<path fill="none" stroke="#63b8ff" d="M462.24,-123.15C501.01,-112.93 548.43,-100.42 585.49,-90.65"/>
<polygon fill="#63b8ff" stroke="#63b8ff" points="461.84,-119.9 453.07,-125.83 463.63,-126.67 461.84,-119.9"/>
</g>
<!-- Node8 -->
<g id="node8" class="node">
<title>Node8</title>
<g id="a_node8"><a xlink:href="../../d3/dc2/_arithmetic_8hpp.html" target="_top" xlink:title=" ">
<polygon fill="white" stroke="#666666" points="565.25,-90.25 438.25,-90.25 438.25,-56.75 565.25,-56.75 565.25,-90.25"/>
<text text-anchor="start" x="446.25" y="-76.75" font-family="Helvetica,sans-Serif" font-size="10.00">Simple&#45;Utility/functional</text>
<text text-anchor="middle" x="501.75" y="-64" font-family="Helvetica,sans-Serif" font-size="10.00">/Arithmetic.hpp</text>
</a>
</g>
</g>
<!-- Node7&#45;&gt;Node8 -->
<g id="edge10" class="edge">
<title>Node7&#45;&gt;Node8</title>
<path fill="none" stroke="#63b8ff" d="M426.37,-120.34C442.29,-110.66 460.73,-99.45 475.38,-90.54"/>
<polygon fill="#63b8ff" stroke="#63b8ff" points="425.06,-117.65 418.34,-125.83 428.7,-123.63 425.06,-117.65"/>
</g>
<!-- Node9 -->
<g id="node9" class="node">
<title>Node9</title>
<g id="a_node9"><a xlink:href="../../da/dae/functional_2_tuple_8hpp.html" target="_top" xlink:title=" ">
<polygon fill="white" stroke="#666666" points="381.25,-90.25 254.25,-90.25 254.25,-56.75 381.25,-56.75 381.25,-90.25"/>
<text text-anchor="start" x="262.25" y="-76.75" font-family="Helvetica,sans-Serif" font-size="10.00">Simple&#45;Utility/functional</text>
<text text-anchor="middle" x="317.75" y="-64" font-family="Helvetica,sans-Serif" font-size="10.00">/Tuple.hpp</text>
</a>
</g>
</g>
<!-- Node7&#45;&gt;Node9 -->
<g id="edge13" class="edge">
<title>Node7&#45;&gt;Node9</title>
<path fill="none" stroke="#63b8ff" d="M365.43,-118.59C355.44,-109.35 344.22,-98.98 335.18,-90.62"/>
<polygon fill="#63b8ff" stroke="#63b8ff" points="362.73,-120.78 372.45,-125 367.48,-115.64 362.73,-120.78"/>
</g>
<!-- Node7&#45;&gt;Node10 -->
<g id="edge15" class="edge">
<title>Node7&#45;&gt;Node10</title>
<path fill="none" stroke="#63b8ff" d="M316.38,-124.98C268.03,-113.92 205.63,-99.64 159.54,-89.1"/>
<polygon fill="#63b8ff" stroke="#63b8ff" points="315.57,-128.62 326.1,-127.44 317.13,-121.79 315.57,-128.62"/>
</g>
<!-- Node8&#45;&gt;Node4 -->
<g id="edge11" class="edge">
<title>Node8&#45;&gt;Node4</title>
<path fill="none" stroke="#63b8ff" d="M528.76,-49.57C540.3,-39.77 553.15,-28.86 562.16,-21.22"/>
<polygon fill="#63b8ff" stroke="#63b8ff" points="527.02,-47.3 521.67,-56.44 531.55,-52.64 527.02,-47.3"/>
</g>
<!-- Node9&#45;&gt;Node4 -->
<g id="edge14" class="edge">
<title>Node9&#45;&gt;Node4</title>
<path fill="none" stroke="#63b8ff" d="M392.16,-54.73C437.91,-43.81 494.8,-30.22 532.59,-21.2"/>
<polygon fill="#63b8ff" stroke="#63b8ff" points="391.6,-51.51 382.69,-57.23 393.23,-58.32 391.6,-51.51"/>
</g>
<!-- Node10&#45;&gt;Node4 -->
<g id="edge16" class="edge">
<title>Node10&#45;&gt;Node4</title>
<path fill="none" stroke="#63b8ff" d="M170.24,-57.31C171.42,-57.12 172.59,-56.93 173.75,-56.75 286.97,-38.93 419.29,-25.32 499.77,-17.84"/>
<polygon fill="#63b8ff" stroke="#63b8ff" points="169.78,-54.01 160.52,-59.16 170.97,-60.91 169.78,-54.01"/>
</g>
<!-- Node12&#45;&gt;Node3 -->
<g id="edge37" class="edge">
<title>Node12&#45;&gt;Node3</title>
<path fill="none" stroke="#63b8ff" d="M254.41,-328.57C268.43,-319.86 284.21,-309.39 297.75,-298.75 325.67,-276.8 354.8,-247.47 371.84,-229.56"/>
<polygon fill="#63b8ff" stroke="#63b8ff" points="252.74,-326.1 246.03,-334.3 256.39,-332.07 252.74,-326.1"/>
</g>
<!-- Node12&#45;&gt;Node4 -->
<g id="edge19" class="edge">
<title>Node12&#45;&gt;Node4</title>
<path fill="none" stroke="#63b8ff" d="M182.57,-328.4C107.11,-277.07 -60.6,-147.25 22.75,-56.75 54.41,-22.38 356.78,-14.04 499.65,-12.02"/>
<polygon fill="#63b8ff" stroke="#63b8ff" points="180.03,-331.59 190.29,-334.27 183.94,-325.78 180.03,-331.59"/>
</g>
<!-- Node12&#45;&gt;Node5 -->
<g id="edge35" class="edge">
<title>Node12&#45;&gt;Node5</title>
<path fill="none" stroke="#63b8ff" d="M263.59,-329.85C284.52,-320.51 309.45,-309.24 331.75,-298.75 386.4,-273.04 545.32,-194.34 614.23,-160.15"/>
<polygon fill="#63b8ff" stroke="#63b8ff" points="262.38,-327 254.67,-334.27 265.23,-333.4 262.38,-327"/>
</g>
<!-- Node12&#45;&gt;Node7 -->
<g id="edge36" class="edge">
<title>Node12&#45;&gt;Node7</title>
<path fill="none" stroke="#63b8ff" d="M227.75,-324.65C242.67,-291.79 271.88,-234.67 309.75,-195.75 323.71,-181.4 342.38,-169.13 358.28,-160.15"/>
<polygon fill="#63b8ff" stroke="#63b8ff" points="224.27,-322.85 223.41,-333.41 230.67,-325.69 224.27,-322.85"/>
</g>
<!-- Node12&#45;&gt;Node13 -->
<g id="edge20" class="edge">
<title>Node12&#45;&gt;Node13</title>
<path fill="none" stroke="#63b8ff" d="M291.3,-334.46C474.32,-306.63 680.09,-292.32 781.95,-286.37"/>
<polygon fill="#63b8ff" stroke="#63b8ff" points="291.01,-331.11 281.66,-336.09 292.08,-338.03 291.01,-331.11"/>
</g>
<!-- Node12&#45;&gt;Node18 -->
<g id="edge38" class="edge">
<title>Node12&#45;&gt;Node18</title>
<path fill="none" stroke="#63b8ff" d="M211.5,-323.87C205.97,-295.81 197.44,-252.52 192.88,-229.38"/>
<polygon fill="#63b8ff" stroke="#63b8ff" points="208.23,-324.38 213.6,-333.52 215.1,-323.03 208.23,-324.38"/>
</g>
<!-- Node13&#45;&gt;Node4 -->
<g id="edge21" class="edge">
<title>Node13&#45;&gt;Node4</title>
<path fill="none" stroke="#63b8ff" d="M846.49,-253.94C846.21,-206.14 838.11,-107.08 779.75,-56.75 759.99,-39.71 698.4,-27.58 647.67,-20.17"/>
<polygon fill="#63b8ff" stroke="#63b8ff" points="842.99,-253.9 846.42,-263.93 849.99,-253.95 842.99,-253.9"/>
</g>
<!-- Node13&#45;&gt;Node14 -->
<g id="edge22" class="edge">
<title>Node13&#45;&gt;Node14</title>
<path fill="none" stroke="#63b8ff" d="M817.31,-258.41C805.43,-248.98 791.89,-238.23 781.04,-229.62"/>
<polygon fill="#63b8ff" stroke="#63b8ff" points="814.6,-261.53 824.61,-265 818.95,-256.04 814.6,-261.53"/>
</g>
<!-- Node13&#45;&gt;Node15 -->
<g id="edge25" class="edge">
<title>Node13&#45;&gt;Node15</title>
<path fill="none" stroke="#63b8ff" d="M878.32,-258.79C892.33,-249.24 908.4,-238.28 921.23,-229.54"/>
<polygon fill="#63b8ff" stroke="#63b8ff" points="876.75,-256.31 870.46,-264.83 880.7,-262.09 876.75,-256.31"/>
</g>
<!-- Node13&#45;&gt;Node16 -->
<g id="edge28" class="edge">
<title>Node13&#45;&gt;Node16</title>
<path fill="none" stroke="#63b8ff" d="M914.36,-262.02C951.22,-251.82 996.19,-239.38 1031.36,-229.65"/>
<polygon fill="#63b8ff" stroke="#63b8ff" points="913.9,-258.79 905.19,-264.83 915.76,-265.54 913.9,-258.79"/>
</g>
<!-- Node13&#45;&gt;Node17 -->
<g id="edge31" class="edge">
<title>Node13&#45;&gt;Node17</title>
<path fill="none" stroke="#63b8ff" d="M780.18,-261.76C745.6,-251.61 703.66,-239.3 670.79,-229.65"/>
<polygon fill="#63b8ff" stroke="#63b8ff" points="779.08,-265.37 789.66,-264.83 781.05,-258.66 779.08,-265.37"/>
</g>
<!-- Node14&#45;&gt;Node4 -->
<g id="edge23" class="edge">
<title>Node14&#45;&gt;Node4</title>
<path fill="none" stroke="#63b8ff" d="M769.1,-184.93C777.9,-151.24 786.84,-93.15 757.75,-56.75 743.73,-39.21 692.35,-27.47 647.43,-20.34"/>
<polygon fill="#63b8ff" stroke="#63b8ff" points="765.51,-183.78 766.18,-194.36 772.25,-185.67 765.51,-183.78"/>
</g>
<!-- Node14&#45;&gt;Node5 -->
<g id="edge24" class="edge">
<title>Node14&#45;&gt;Node5</title>
<path fill="none" stroke="#63b8ff" d="M724.16,-189.84C707.81,-180.16 688.88,-168.95 673.83,-160.04"/>
<polygon fill="#63b8ff" stroke="#63b8ff" points="722.06,-193.25 732.44,-195.33 725.62,-187.23 722.06,-193.25"/>
</g>
<!-- Node15&#45;&gt;Node4 -->
<g id="edge26" class="edge">
<title>Node15&#45;&gt;Node4</title>
<path fill="none" stroke="#63b8ff" d="M939.33,-185.25C930.58,-149.96 909.78,-88.05 866.75,-56.75 832.72,-32 722.64,-20.36 647.54,-15.17"/>
<polygon fill="#63b8ff" stroke="#63b8ff" points="936.09,-185.75 941.76,-194.7 942.91,-184.17 936.09,-185.75"/>
</g>
<!-- Node15&#45;&gt;Node5 -->
<g id="edge27" class="edge">
<title>Node15&#45;&gt;Node5</title>
<path fill="none" stroke="#63b8ff" d="M870.25,-194.63C821.1,-183.49 757.39,-169.06 710.57,-158.46"/>
<polygon fill="#63b8ff" stroke="#63b8ff" points="869.29,-198.22 879.82,-197.02 870.84,-191.4 869.29,-198.22"/>
</g>
<!-- Node16&#45;&gt;Node4 -->
<g id="edge29" class="edge">
<title>Node16&#45;&gt;Node4</title>
<path fill="none" stroke="#63b8ff" d="M1068.52,-187.63C1035.73,-152.48 969.03,-87.63 897.75,-56.75 854.16,-37.87 729.24,-24.29 647.86,-17.15"/>
<polygon fill="#63b8ff" stroke="#63b8ff" points="1065.4,-189.49 1074.74,-194.48 1070.55,-184.75 1065.4,-189.49"/>
</g>
<!-- Node16&#45;&gt;Node5 -->
<g id="edge30" class="edge">
<title>Node16&#45;&gt;Node5</title>
<path fill="none" stroke="#63b8ff" d="M1015.51,-195.61C902.23,-175.78 782.15,-160.19 710.48,-151.47"/>
<polygon fill="#63b8ff" stroke="#63b8ff" points="1014.65,-199.19 1025.1,-197.48 1015.86,-192.29 1014.65,-199.19"/>
</g>
<!-- Node17&#45;&gt;Node4 -->
<g id="edge32" class="edge">
<title>Node17&#45;&gt;Node4</title>
<path fill="none" stroke="#63b8ff" d="M678.53,-190.64C693.56,-183.01 708.27,-172.91 718.75,-159.75 747.65,-123.46 763.79,-93.72 735.75,-56.75 723.57,-40.69 677.45,-28.76 637.51,-21.17"/>
<polygon fill="#63b8ff" stroke="#63b8ff" points="677.2,-187.87 669.65,-195.3 680.19,-194.2 677.2,-187.87"/>
</g>
<!-- Node17&#45;&gt;Node5 -->
<g id="edge33" class="edge">
<title>Node17&#45;&gt;Node5</title>
<path fill="none" stroke="#63b8ff" d="M627.56,-185.78C631.56,-177.07 635.91,-167.6 639.46,-159.88"/>
<polygon fill="#63b8ff" stroke="#63b8ff" points="624.09,-183.96 623.1,-194.5 630.45,-186.88 624.09,-183.96"/>
</g>
<!-- Node17&#45;&gt;Node7 -->
<g id="edge34" class="edge">
<title>Node17&#45;&gt;Node7</title>
<path fill="none" stroke="#63b8ff" d="M551.61,-192.26C517.78,-182.11 476.75,-169.8 444.59,-160.15"/>
<polygon fill="#63b8ff" stroke="#63b8ff" points="550.27,-195.81 560.86,-195.33 552.28,-189.11 550.27,-195.81"/>
</g>
<!-- Node18&#45;&gt;Node4 -->
<g id="edge39" class="edge">
<title>Node18&#45;&gt;Node4</title>
<path fill="none" stroke="#63b8ff" d="M188.31,-184.61C188.03,-149.57 193.34,-88.97 229.75,-56.75 268.6,-22.37 410.91,-13.71 499.86,-11.73"/>
<polygon fill="#63b8ff" stroke="#63b8ff" points="184.83,-184.53 188.58,-194.44 191.83,-184.35 184.83,-184.53"/>
</g>
<!-- Node18&#45;&gt;Node5 -->
<g id="edge40" class="edge">
<title>Node18&#45;&gt;Node5</title>
<path fill="none" stroke="#63b8ff" d="M264.07,-200.52C352.7,-187.43 499.33,-165.77 583.01,-153.41"/>
<polygon fill="#63b8ff" stroke="#63b8ff" points="263.67,-197.19 254.29,-202.11 264.7,-204.12 263.67,-197.19"/>
</g>
<!-- Node20 -->
<g id="node20" class="node">
<title>Node20</title>
<g id="a_node20"><a xlink:href="../../d3/ddc/nullables_8hpp.html" target="_top" xlink:title=" ">
<polygon fill="white" stroke="#666666" points="1525.12,-222.88 1382.37,-222.88 1382.37,-202.12 1525.12,-202.12 1525.12,-222.88"/>
<text text-anchor="middle" x="1453.75" y="-209.38" font-family="Helvetica,sans-Serif" font-size="10.00">Simple&#45;Utility/nullables.hpp</text>
</a>
</g>
</g>
<!-- Node19&#45;&gt;Node20 -->
<g id="edge51" class="edge">
<title>Node19&#45;&gt;Node20</title>
<path fill="none" stroke="#63b8ff" d="M1136.93,-265.09C1229.22,-247.55 1324.13,-232.66 1386.24,-223.34"/>
<polygon fill="#63b8ff" stroke="#63b8ff" points="1136.44,-261.81 1127.28,-267.13 1137.76,-268.68 1136.44,-261.81"/>
</g>
<!-- Node21&#45;&gt;Node19 -->
<g id="edge54" class="edge">
<title>Node21&#45;&gt;Node19</title>
<path fill="none" stroke="#63b8ff" d="M1381.13,-339.89C1316.54,-330.16 1219.61,-314.86 1135.75,-298.75 1132.65,-298.15 1129.48,-297.53 1126.28,-296.87"/>
<polygon fill="#63b8ff" stroke="#63b8ff" points="1380.6,-343.5 1391.01,-341.52 1381.64,-336.57 1380.6,-343.5"/>
</g>
<!-- Node21&#45;&gt;Node20 -->
<g id="edge53" class="edge">
<title>Node21&#45;&gt;Node20</title>
<path fill="none" stroke="#63b8ff" d="M1381.66,-341.13C1355.88,-333.91 1329.37,-321.18 1313.75,-298.75 1286.75,-259.99 1353.63,-235.65 1403.99,-223.33"/>
<polygon fill="#63b8ff" stroke="#63b8ff" points="1380.69,-344.74 1391.24,-343.81 1382.41,-337.96 1380.69,-344.74"/>
</g>
<!-- Node22 -->
<g id="node22" class="node">
<title>Node22</title>
<g id="a_node22"><a xlink:href="../../d4/dc9/and__then_8hpp.html" target="_top" xlink:title=" ">
<polygon fill="white" stroke="#666666" points="1445,-298.75 1322.5,-298.75 1322.5,-265.25 1445,-265.25 1445,-298.75"/>
<text text-anchor="start" x="1330.5" y="-285.25" font-family="Helvetica,sans-Serif" font-size="10.00">Simple&#45;Utility/nullables</text>
<text text-anchor="middle" x="1383.75" y="-272.5" font-family="Helvetica,sans-Serif" font-size="10.00">/and_then.hpp</text>
</a>
</g>
</g>
<!-- Node21&#45;&gt;Node22 -->
<g id="edge55" class="edge">
<title>Node21&#45;&gt;Node22</title>
<path fill="none" stroke="#63b8ff" d="M1429.41,-327.03C1419.76,-317.73 1408.92,-307.27 1400.22,-298.88"/>
<polygon fill="#63b8ff" stroke="#63b8ff" points="1426.53,-329.08 1436.16,-333.5 1431.39,-324.04 1426.53,-329.08"/>
</g>
<!-- Node23 -->
<g id="node23" class="node">
<title>Node23</title>
<g id="a_node23"><a xlink:href="../../d7/d5f/fwd__value_8hpp.html" target="_top" xlink:title=" ">
<polygon fill="white" stroke="#666666" points="1586,-298.75 1463.5,-298.75 1463.5,-265.25 1586,-265.25 1586,-298.75"/>
<text text-anchor="start" x="1471.5" y="-285.25" font-family="Helvetica,sans-Serif" font-size="10.00">Simple&#45;Utility/nullables</text>
<text text-anchor="middle" x="1524.75" y="-272.5" font-family="Helvetica,sans-Serif" font-size="10.00">/fwd_value.hpp</text>
</a>
</g>
</g>
<!-- Node21&#45;&gt;Node23 -->
<g id="edge57" class="edge">
<title>Node21&#45;&gt;Node23</title>
<path fill="none" stroke="#63b8ff" d="M1478.44,-327.03C1488.22,-317.73 1499.22,-307.27 1508.04,-298.88"/>
<polygon fill="#63b8ff" stroke="#63b8ff" points="1476.41,-324.08 1471.58,-333.5 1481.23,-329.15 1476.41,-324.08"/>
</g>
<!-- Node24 -->
<g id="node24" class="node">
<title>Node24</title>
<g id="a_node24"><a xlink:href="../../d2/d0e/or__else_8hpp.html" target="_top" xlink:title=" ">
<polygon fill="white" stroke="#666666" points="1727,-298.75 1604.5,-298.75 1604.5,-265.25 1727,-265.25 1727,-298.75"/>
<text text-anchor="start" x="1612.5" y="-285.25" font-family="Helvetica,sans-Serif" font-size="10.00">Simple&#45;Utility/nullables</text>
<text text-anchor="middle" x="1665.75" y="-272.5" font-family="Helvetica,sans-Serif" font-size="10.00">/or_else.hpp</text>
</a>
</g>
</g>
<!-- Node21&#45;&gt;Node24 -->
<g id="edge59" class="edge">
<title>Node21&#45;&gt;Node24</title>
<path fill="none" stroke="#63b8ff" d="M1514.6,-331.13C1546.39,-321 1584.85,-308.76 1615.02,-299.15"/>
<polygon fill="#63b8ff" stroke="#63b8ff" points="1514,-327.96 1505.53,-334.33 1516.12,-334.63 1514,-327.96"/>
</g>
<!-- Node25 -->
<g id="node25" class="node">
<title>Node25</title>
<g id="a_node25"><a xlink:href="../../d9/d20/std__optional_8hpp.html" target="_top" xlink:title=" ">
<polygon fill="white" stroke="#666666" points="1868,-298.75 1745.5,-298.75 1745.5,-265.25 1868,-265.25 1868,-298.75"/>
<text text-anchor="start" x="1753.5" y="-285.25" font-family="Helvetica,sans-Serif" font-size="10.00">Simple&#45;Utility/nullables</text>
<text text-anchor="middle" x="1806.75" y="-272.5" font-family="Helvetica,sans-Serif" font-size="10.00">/std_optional.hpp</text>
</a>
</g>
</g>
<!-- Node21&#45;&gt;Node25 -->
<g id="edge61" class="edge">
<title>Node21&#45;&gt;Node25</title>
<path fill="none" stroke="#63b8ff" d="M1526.2,-337.96C1583.25,-327.91 1664.71,-313.14 1735.75,-298.75 1738.84,-298.12 1742.01,-297.47 1745.21,-296.8"/>
<polygon fill="#63b8ff" stroke="#63b8ff" points="1525.73,-334.67 1516.49,-339.84 1526.94,-341.56 1525.73,-334.67"/>
</g>
<!-- Node26 -->
<g id="node26" class="node">
<title>Node26</title>
<g id="a_node26"><a xlink:href="../../d8/d9a/std__pointers_8hpp.html" target="_top" xlink:title=" ">
<polygon fill="white" stroke="#666666" points="2009,-298.75 1886.5,-298.75 1886.5,-265.25 2009,-265.25 2009,-298.75"/>
<text text-anchor="start" x="1894.5" y="-285.25" font-family="Helvetica,sans-Serif" font-size="10.00">Simple&#45;Utility/nullables</text>
<text text-anchor="middle" x="1947.75" y="-272.5" font-family="Helvetica,sans-Serif" font-size="10.00">/std_pointers.hpp</text>
</a>
</g>
</g>
<!-- Node21&#45;&gt;Node26 -->
<g id="edge63" class="edge">
<title>Node21&#45;&gt;Node26</title>
<path fill="none" stroke="#63b8ff" d="M1526.07,-343.8C1610.54,-335.47 1754.33,-319.77 1876.75,-298.75 1879.86,-298.22 1883.04,-297.64 1886.25,-297.02"/>
<polygon fill="#63b8ff" stroke="#63b8ff" points="1525.93,-340.39 1516.32,-344.85 1526.61,-347.36 1525.93,-340.39"/>
</g>
<!-- Node27 -->
<g id="node27" class="node">
<title>Node27</title>
<g id="a_node27"><a xlink:href="../../d0/d48/value__or_8hpp.html" target="_top" xlink:title=" ">
<polygon fill="white" stroke="#666666" points="1267,-298.75 1144.5,-298.75 1144.5,-265.25 1267,-265.25 1267,-298.75"/>
<text text-anchor="start" x="1152.5" y="-285.25" font-family="Helvetica,sans-Serif" font-size="10.00">Simple&#45;Utility/nullables</text>
<text text-anchor="middle" x="1205.75" y="-272.5" font-family="Helvetica,sans-Serif" font-size="10.00">/value_or.hpp</text>
</a>
</g>
</g>
<!-- Node21&#45;&gt;Node27 -->
<g id="edge65" class="edge">
<title>Node21&#45;&gt;Node27</title>
<path fill="none" stroke="#63b8ff" d="M1384.01,-331.52C1346.55,-321.32 1300.84,-308.88 1265.1,-299.15"/>
<polygon fill="#63b8ff" stroke="#63b8ff" points="1382.78,-335.08 1393.35,-334.33 1384.62,-328.33 1382.78,-335.08"/>
</g>
<!-- Node21&#45;&gt;Node28 -->
<g id="edge67" class="edge">
<title>Node21&#45;&gt;Node28</title>
<path fill="none" stroke="#63b8ff" d="M1526.21,-347.25C1633.98,-341.64 1842.62,-327.84 2017.75,-298.75 2020.73,-298.26 2023.77,-297.7 2026.84,-297.1"/>
<polygon fill="#63b8ff" stroke="#63b8ff" points="1526.28,-343.79 1516.47,-347.79 1526.63,-350.78 1526.28,-343.79"/>
</g>
<!-- Node22&#45;&gt;Node20 -->
<g id="edge56" class="edge">
<title>Node22&#45;&gt;Node20</title>
<path fill="none" stroke="#63b8ff" d="M1407.99,-257.62C1420.17,-245.88 1434.27,-232.28 1443.56,-223.32"/>
<polygon fill="#63b8ff" stroke="#63b8ff" points="1406.11,-254.54 1401.34,-264 1410.97,-259.58 1406.11,-254.54"/>
</g>
<!-- Node23&#45;&gt;Node20 -->
<g id="edge58" class="edge">
<title>Node23&#45;&gt;Node20</title>
<path fill="none" stroke="#63b8ff" d="M1500.16,-257.62C1487.81,-245.88 1473.51,-232.28 1464.08,-223.32"/>
<polygon fill="#63b8ff" stroke="#63b8ff" points="1497.26,-259.65 1506.92,-264 1502.09,-254.58 1497.26,-259.65"/>
</g>
<!-- Node24&#45;&gt;Node20 -->
<g id="edge60" class="edge">
<title>Node24&#45;&gt;Node20</title>
<path fill="none" stroke="#63b8ff" d="M1604.71,-261.57C1565.46,-249.07 1516.12,-233.36 1484.75,-223.37"/>
<polygon fill="#63b8ff" stroke="#63b8ff" points="1603.38,-265.13 1613.97,-264.83 1605.5,-258.46 1603.38,-265.13"/>
</g>
<!-- Node25&#45;&gt;Node20 -->
<g id="edge62" class="edge">
<title>Node25&#45;&gt;Node20</title>
<path fill="none" stroke="#63b8ff" d="M1734.47,-265.03C1650.72,-248.19 1565.56,-232.92 1510.85,-223.34"/>
<polygon fill="#63b8ff" stroke="#63b8ff" points="1733.71,-268.65 1744.21,-267.2 1735.1,-261.79 1733.71,-268.65"/>
</g>
<!-- Node26&#45;&gt;Node20 -->
<g id="edge64" class="edge">
<title>Node26&#45;&gt;Node20</title>
<path fill="none" stroke="#63b8ff" d="M1875.77,-265.19C1746.5,-243.36 1607.7,-228.24 1525.53,-220.15"/>
<polygon fill="#63b8ff" stroke="#63b8ff" points="1874.8,-268.74 1885.25,-266.98 1875.98,-261.84 1874.8,-268.74"/>
</g>
<!-- Node27&#45;&gt;Node20 -->
<g id="edge66" class="edge">
<title>Node27&#45;&gt;Node20</title>
<path fill="none" stroke="#63b8ff" d="M1275.69,-261.96C1321.84,-249.4 1380.4,-233.46 1417.49,-223.37"/>
<polygon fill="#63b8ff" stroke="#63b8ff" points="1274.88,-258.83 1266.15,-264.83 1276.72,-265.58 1274.88,-258.83"/>
</g>
</g>
</svg>
