<?xml version="1.0" encoding="UTF-8" standalone="no"?>
<!DOCTYPE svg PUBLIC "-//W3C//DTD SVG 1.1//EN"
 "http://www.w3.org/Graphics/SVG/1.1/DTD/svg11.dtd">
<!-- Generated by graphviz version 8.0.5 (20230430.1635)
 -->
<!-- Title: Simple&#45;Utility/concepts/stl_extensions.hpp Pages: 1 -->
<svg width="2073pt" height="446pt"
 viewBox="0.00 0.00 2072.62 445.75" xmlns="http://www.w3.org/2000/svg" xmlns:xlink="http://www.w3.org/1999/xlink">
<g id="graph0" class="graph" transform="scale(1 1) rotate(0) translate(4 441.75)">
<title>Simple&#45;Utility/concepts/stl_extensions.hpp</title>
<!-- Node1 -->
<g id="node1" class="node">
<title>Node1</title>
<g id="a_node1"><a xlink:title=" ">
<polygon fill="#999999" stroke="#666666" points="1789.88,-437.75 1668.12,-437.75 1668.12,-404.25 1789.88,-404.25 1789.88,-437.75"/>
<text text-anchor="start" x="1676.12" y="-424.25" font-family="Helvetica,sans-Serif" font-size="10.00">Simple&#45;Utility/concepts</text>
<text text-anchor="middle" x="1729" y="-411.5" font-family="Helvetica,sans-Serif" font-size="10.00">/stl_extensions.hpp</text>
</a>
</g>
</g>
<!-- Node2 -->
<g id="node2" class="node">
<title>Node2</title>
<g id="a_node2"><a xlink:href="../../d1/d76/functional_2base_8hpp.html" target="_top" xlink:title=" ">
<polygon fill="white" stroke="#666666" points="653.5,-368.25 526.5,-368.25 526.5,-334.75 653.5,-334.75 653.5,-368.25"/>
<text text-anchor="start" x="534.5" y="-354.75" font-family="Helvetica,sans-Serif" font-size="10.00">Simple&#45;Utility/functional</text>
<text text-anchor="middle" x="590" y="-342" font-family="Helvetica,sans-Serif" font-size="10.00">/base.hpp</text>
</a>
</g>
</g>
<!-- Node1&#45;&gt;Node2 -->
<g id="edge1" class="edge">
<title>Node1&#45;&gt;Node2</title>
<path fill="none" stroke="#63b8ff" d="M1656.99,-415.73C1449.28,-403.42 851.27,-367.98 653.99,-356.29"/>
<polygon fill="#63b8ff" stroke="#63b8ff" points="1656.57,-419.27 1666.76,-416.37 1656.99,-412.29 1656.57,-419.27"/>
</g>
<!-- Node10 -->
<g id="node10" class="node">
<title>Node10</title>
<g id="a_node10"><a xlink:href="../../df/d4e/functional_2utility_8hpp.html" target="_top" xlink:title=" ">
<polygon fill="white" stroke="#666666" points="1935.5,-159.75 1808.5,-159.75 1808.5,-126.25 1935.5,-126.25 1935.5,-159.75"/>
<text text-anchor="start" x="1816.5" y="-146.25" font-family="Helvetica,sans-Serif" font-size="10.00">Simple&#45;Utility/functional</text>
<text text-anchor="middle" x="1872" y="-133.5" font-family="Helvetica,sans-Serif" font-size="10.00">/utility.hpp</text>
</a>
</g>
</g>
<!-- Node1&#45;&gt;Node10 -->
<g id="edge60" class="edge">
<title>Node1&#45;&gt;Node10</title>
<path fill="none" stroke="#63b8ff" d="M1742.25,-394.43C1771.29,-338.38 1839.85,-206.05 1863.67,-160.08"/>
<polygon fill="#63b8ff" stroke="#63b8ff" points="1738.8,-392.48 1737.31,-402.97 1745.01,-395.7 1738.8,-392.48"/>
</g>
<!-- Node16 -->
<g id="node16" class="node">
<title>Node16</title>
<g id="a_node16"><a xlink:href="../../d6/dbe/nullables_2base_8hpp.html" target="_top" xlink:title=" ">
<polygon fill="white" stroke="#666666" points="1400.25,-229.25 1277.75,-229.25 1277.75,-195.75 1400.25,-195.75 1400.25,-229.25"/>
<text text-anchor="start" x="1285.75" y="-215.75" font-family="Helvetica,sans-Serif" font-size="10.00">Simple&#45;Utility/nullables</text>
<text text-anchor="middle" x="1339" y="-203" font-family="Helvetica,sans-Serif" font-size="10.00">/base.hpp</text>
</a>
</g>
</g>
<!-- Node1&#45;&gt;Node16 -->
<g id="edge62" class="edge">
<title>Node1&#45;&gt;Node16</title>
<path fill="none" stroke="#63b8ff" d="M1688.88,-398.76C1610.64,-357.33 1439.24,-266.57 1369.46,-229.63"/>
<polygon fill="#63b8ff" stroke="#63b8ff" points="1686.92,-402.21 1697.4,-403.8 1690.2,-396.02 1686.92,-402.21"/>
</g>
<!-- Node17 -->
<g id="node17" class="node">
<title>Node17</title>
<g id="a_node17"><a xlink:href="../../d6/dca/adapter_8hpp.html" target="_top" xlink:title=" ">
<polygon fill="white" stroke="#666666" points="1790.25,-159.75 1667.75,-159.75 1667.75,-126.25 1790.25,-126.25 1790.25,-159.75"/>
<text text-anchor="start" x="1675.75" y="-146.25" font-family="Helvetica,sans-Serif" font-size="10.00">Simple&#45;Utility/nullables</text>
<text text-anchor="middle" x="1729" y="-133.5" font-family="Helvetica,sans-Serif" font-size="10.00">/adapter.hpp</text>
</a>
</g>
</g>
<!-- Node1&#45;&gt;Node17 -->
<g id="edge61" class="edge">
<title>Node1&#45;&gt;Node17</title>
<path fill="none" stroke="#63b8ff" d="M1729,-393.02C1729,-336.19 1729,-205.67 1729,-160.08"/>
<polygon fill="#63b8ff" stroke="#63b8ff" points="1725.5,-392.97 1729,-402.97 1732.5,-392.97 1725.5,-392.97"/>
</g>
<!-- Node20 -->
<g id="node20" class="node">
<title>Node20</title>
<g id="a_node20"><a xlink:href="../../d0/d0f/unique__handle_8hpp.html" target="_top" xlink:title=" ">
<polygon fill="white" stroke="#666666" points="2064.62,-159.75 1953.38,-159.75 1953.38,-126.25 2064.62,-126.25 2064.62,-159.75"/>
<text text-anchor="start" x="1961.38" y="-146.25" font-family="Helvetica,sans-Serif" font-size="10.00">Simple&#45;Utility/unique</text>
<text text-anchor="middle" x="2009" y="-133.5" font-family="Helvetica,sans-Serif" font-size="10.00">_handle.hpp</text>
</a>
</g>
</g>
<!-- Node1&#45;&gt;Node20 -->
<g id="edge63" class="edge">
<title>Node1&#45;&gt;Node20</title>
<path fill="none" stroke="#63b8ff" d="M1752.86,-396.49C1808.45,-341.69 1945.47,-206.63 1992.69,-160.08"/>
<polygon fill="#63b8ff" stroke="#63b8ff" points="1750.93,-393.46 1746.26,-402.97 1755.84,-398.44 1750.93,-393.46"/>
</g>
<!-- Node3 -->
<g id="node3" class="node">
<title>Node3</title>
<g id="a_node3"><a xlink:href="../../d2/db4/functional_8hpp.html" target="_top" xlink:title=" ">
<polygon fill="white" stroke="#666666" points="659.62,-20.75 512.38,-20.75 512.38,0 659.62,0 659.62,-20.75"/>
<text text-anchor="middle" x="586" y="-7.25" font-family="Helvetica,sans-Serif" font-size="10.00">Simple&#45;Utility/functional.hpp</text>
</a>
</g>
</g>
<!-- Node2&#45;&gt;Node3 -->
<g id="edge2" class="edge">
<title>Node2&#45;&gt;Node3</title>
<path fill="none" stroke="#63b8ff" d="M515.4,-348.71C356.7,-342.89 0,-318.16 0,-213.5 0,-213.5 0,-213.5 0,-142 0,-38.22 354.54,-16.86 512.08,-12.49"/>
<polygon fill="#63b8ff" stroke="#63b8ff" points="514.9,-352.23 525.02,-349.09 515.15,-345.24 514.9,-352.23"/>
</g>
<!-- Node4 -->
<g id="node4" class="node">
<title>Node4</title>
<g id="a_node4"><a xlink:href="../../d9/d76/bind_8hpp.html" target="_top" xlink:title=" ">
<polygon fill="white" stroke="#666666" points="909.5,-298.75 782.5,-298.75 782.5,-265.25 909.5,-265.25 909.5,-298.75"/>
<text text-anchor="start" x="790.5" y="-285.25" font-family="Helvetica,sans-Serif" font-size="10.00">Simple&#45;Utility/functional</text>
<text text-anchor="middle" x="846" y="-272.5" font-family="Helvetica,sans-Serif" font-size="10.00">/operators/bind.hpp</text>
</a>
</g>
</g>
<!-- Node2&#45;&gt;Node4 -->
<g id="edge3" class="edge">
<title>Node2&#45;&gt;Node4</title>
<path fill="none" stroke="#63b8ff" d="M661.49,-331.65C700.26,-321.43 747.68,-308.92 784.74,-299.15"/>
<polygon fill="#63b8ff" stroke="#63b8ff" points="661.1,-328.4 652.32,-334.33 662.88,-335.17 661.1,-328.4"/>
</g>
<!-- Node5 -->
<g id="node5" class="node">
<title>Node5</title>
<g id="a_node5"><a xlink:href="../../d2/d7e/predicate_8hpp.html" target="_top" xlink:title=" ">
<polygon fill="white" stroke="#666666" points="451.5,-159.75 324.5,-159.75 324.5,-126.25 451.5,-126.25 451.5,-159.75"/>
<text text-anchor="start" x="332.5" y="-146.25" font-family="Helvetica,sans-Serif" font-size="10.00">Simple&#45;Utility/functional</text>
<text text-anchor="middle" x="388" y="-133.5" font-family="Helvetica,sans-Serif" font-size="10.00">/predicate.hpp</text>
</a>
</g>
</g>
<!-- Node2&#45;&gt;Node5 -->
<g id="edge57" class="edge">
<title>Node2&#45;&gt;Node5</title>
<path fill="none" stroke="#63b8ff" d="M515.39,-348.15C436.61,-343.92 320.01,-332.04 292,-298.75 282.41,-287.36 287.11,-279.31 292,-265.25 292.54,-263.69 349.1,-192.73 375.14,-160.1"/>
<polygon fill="#63b8ff" stroke="#63b8ff" points="515.07,-351.69 525.24,-348.7 515.43,-344.7 515.07,-351.69"/>
</g>
<!-- Node7 -->
<g id="node7" class="node">
<title>Node7</title>
<g id="a_node7"><a xlink:href="../../d6/deb/transform_8hpp.html" target="_top" xlink:title=" ">
<polygon fill="white" stroke="#666666" points="909.5,-229.25 782.5,-229.25 782.5,-195.75 909.5,-195.75 909.5,-229.25"/>
<text text-anchor="start" x="790.5" y="-215.75" font-family="Helvetica,sans-Serif" font-size="10.00">Simple&#45;Utility/functional</text>
<text text-anchor="middle" x="846" y="-203" font-family="Helvetica,sans-Serif" font-size="10.00">/transform.hpp</text>
</a>
</g>
</g>
<!-- Node2&#45;&gt;Node7 -->
<g id="edge58" class="edge">
<title>Node2&#45;&gt;Node7</title>
<path fill="none" stroke="#63b8ff" d="M664.56,-349.59C751.35,-346.75 886.93,-336.26 919,-298.75 928.68,-287.43 925.84,-278.48 919,-265.25 911.01,-249.79 896.04,-237.96 881.72,-229.53"/>
<polygon fill="#63b8ff" stroke="#63b8ff" points="664.59,-346.11 654.7,-349.91 664.8,-353.11 664.59,-346.11"/>
</g>
<!-- Node2&#45;&gt;Node16 -->
<g id="edge59" class="edge">
<title>Node2&#45;&gt;Node16</title>
<path fill="none" stroke="#63b8ff" d="M664.47,-340.68C734.68,-331.11 842.76,-315.57 936,-298.75 1057.58,-276.82 1198.58,-245.67 1277.44,-227.72"/>
<polygon fill="#63b8ff" stroke="#63b8ff" points="664.4,-337.29 654.96,-342.1 665.34,-344.23 664.4,-337.29"/>
</g>
<!-- Node21 -->
<g id="node21" class="node">
<title>Node21</title>
<g id="a_node21"><a xlink:href="../../df/d80/conjunction_8hpp.html" target="_top" xlink:title=" ">
<polygon fill="white" stroke="#666666" points="697.25,-229.25 556.75,-229.25 556.75,-195.75 697.25,-195.75 697.25,-229.25"/>
<text text-anchor="start" x="564.75" y="-215.75" font-family="Helvetica,sans-Serif" font-size="10.00">Simple&#45;Utility/functional</text>
<text text-anchor="middle" x="627" y="-203" font-family="Helvetica,sans-Serif" font-size="10.00">/operators/conjunction.hpp</text>
</a>
</g>
</g>
<!-- Node2&#45;&gt;Node21 -->
<g id="edge39" class="edge">
<title>Node2&#45;&gt;Node21</title>
<path fill="none" stroke="#63b8ff" d="M664.24,-341.86C691.04,-334.75 718.69,-321.89 735,-298.75 743.58,-286.58 742.93,-277.85 735,-265.25 724.64,-248.8 707.44,-237.46 689.78,-229.7"/>
<polygon fill="#63b8ff" stroke="#63b8ff" points="663.55,-338.67 654.64,-344.4 665.18,-345.47 663.55,-338.67"/>
</g>
<!-- Node22 -->
<g id="node22" class="node">
<title>Node22</title>
<g id="a_node22"><a xlink:href="../../d4/d7c/disjunction_8hpp.html" target="_top" xlink:title=" ">
<polygon fill="white" stroke="#666666" points="164.38,-229.25 27.62,-229.25 27.62,-195.75 164.38,-195.75 164.38,-229.25"/>
<text text-anchor="start" x="35.62" y="-215.75" font-family="Helvetica,sans-Serif" font-size="10.00">Simple&#45;Utility/functional</text>
<text text-anchor="middle" x="96" y="-203" font-family="Helvetica,sans-Serif" font-size="10.00">/operators/disjunction.hpp</text>
</a>
</g>
</g>
<!-- Node2&#45;&gt;Node22 -->
<g id="edge42" class="edge">
<title>Node2&#45;&gt;Node22</title>
<path fill="none" stroke="#63b8ff" d="M515.38,-347.69C443.33,-343.07 332.06,-330.9 241,-298.75 193.64,-282.03 144.46,-249.29 117.29,-229.61"/>
<polygon fill="#63b8ff" stroke="#63b8ff" points="514.96,-351.23 525.15,-348.34 515.38,-344.24 514.96,-351.23"/>
</g>
<!-- Node23 -->
<g id="node23" class="node">
<title>Node23</title>
<g id="a_node23"><a xlink:href="../../dc/d0a/equal_8hpp.html" target="_top" xlink:title=" ">
<polygon fill="white" stroke="#666666" points="580.5,-298.75 453.5,-298.75 453.5,-265.25 580.5,-265.25 580.5,-298.75"/>
<text text-anchor="start" x="461.5" y="-285.25" font-family="Helvetica,sans-Serif" font-size="10.00">Simple&#45;Utility/functional</text>
<text text-anchor="middle" x="517" y="-272.5" font-family="Helvetica,sans-Serif" font-size="10.00">/operators/equal.hpp</text>
</a>
</g>
</g>
<!-- Node2&#45;&gt;Node23 -->
<g id="edge45" class="edge">
<title>Node2&#45;&gt;Node23</title>
<path fill="none" stroke="#63b8ff" d="M564.68,-327.09C554.69,-317.85 543.47,-307.48 534.43,-299.12"/>
<polygon fill="#63b8ff" stroke="#63b8ff" points="561.98,-329.28 571.7,-333.5 566.73,-324.14 561.98,-329.28"/>
</g>
<!-- Node24 -->
<g id="node24" class="node">
<title>Node24</title>
<g id="a_node24"><a xlink:href="../../d7/dd0/equivalent_8hpp.html" target="_top" xlink:title=" ">
<polygon fill="white" stroke="#666666" points="435.25,-298.75 300.75,-298.75 300.75,-265.25 435.25,-265.25 435.25,-298.75"/>
<text text-anchor="start" x="308.75" y="-285.25" font-family="Helvetica,sans-Serif" font-size="10.00">Simple&#45;Utility/functional</text>
<text text-anchor="middle" x="368" y="-272.5" font-family="Helvetica,sans-Serif" font-size="10.00">/operators/equivalent.hpp</text>
</a>
</g>
</g>
<!-- Node2&#45;&gt;Node24 -->
<g id="edge47" class="edge">
<title>Node2&#45;&gt;Node24</title>
<path fill="none" stroke="#63b8ff" d="M526.71,-331.26C493.34,-321.11 452.85,-308.8 421.12,-299.15"/>
<polygon fill="#63b8ff" stroke="#63b8ff" points="525.24,-334.77 535.83,-334.33 527.28,-328.07 525.24,-334.77"/>
</g>
<!-- Node25 -->
<g id="node25" class="node">
<title>Node25</title>
<g id="a_node25"><a xlink:href="../../d8/dea/negation_8hpp.html" target="_top" xlink:title=" ">
<polygon fill="white" stroke="#666666" points="311.25,-229.25 182.75,-229.25 182.75,-195.75 311.25,-195.75 311.25,-229.25"/>
<text text-anchor="start" x="190.75" y="-215.75" font-family="Helvetica,sans-Serif" font-size="10.00">Simple&#45;Utility/functional</text>
<text text-anchor="middle" x="247" y="-203" font-family="Helvetica,sans-Serif" font-size="10.00">/operators/negation.hpp</text>
</a>
</g>
</g>
<!-- Node2&#45;&gt;Node25 -->
<g id="edge49" class="edge">
<title>Node2&#45;&gt;Node25</title>
<path fill="none" stroke="#63b8ff" d="M515.48,-348.86C429,-345.3 293.78,-334.07 259,-298.75 241.07,-280.54 241.74,-248.62 244.16,-229.43"/>
<polygon fill="#63b8ff" stroke="#63b8ff" points="515.17,-352.39 525.3,-349.27 515.44,-345.39 515.17,-352.39"/>
</g>
<!-- Node26 -->
<g id="node26" class="node">
<title>Node26</title>
<g id="a_node26"><a xlink:href="../../d5/db7/pipe_8hpp.html" target="_top" xlink:title=" ">
<polygon fill="white" stroke="#666666" points="725.5,-298.75 598.5,-298.75 598.5,-265.25 725.5,-265.25 725.5,-298.75"/>
<text text-anchor="start" x="606.5" y="-285.25" font-family="Helvetica,sans-Serif" font-size="10.00">Simple&#45;Utility/functional</text>
<text text-anchor="middle" x="662" y="-272.5" font-family="Helvetica,sans-Serif" font-size="10.00">/operators/pipe.hpp</text>
</a>
</g>
</g>
<!-- Node2&#45;&gt;Node26 -->
<g id="edge52" class="edge">
<title>Node2&#45;&gt;Node26</title>
<path fill="none" stroke="#63b8ff" d="M615.03,-327.03C624.96,-317.73 636.11,-307.27 645.06,-298.88"/>
<polygon fill="#63b8ff" stroke="#63b8ff" points="612.96,-324.11 608.06,-333.5 617.75,-329.22 612.96,-324.11"/>
</g>
<!-- Node4&#45;&gt;Node3 -->
<g id="edge4" class="edge">
<title>Node4&#45;&gt;Node3</title>
<path fill="none" stroke="#63b8ff" d="M811.83,-258.91C799.42,-250.26 785.61,-239.87 774,-229.25 695.12,-157.08 616.74,-53.32 593.15,-21.22"/>
<polygon fill="#63b8ff" stroke="#63b8ff" points="809.33,-262.12 819.57,-264.88 813.28,-256.34 809.33,-262.12"/>
</g>
<!-- Node4&#45;&gt;Node5 -->
<g id="edge5" class="edge">
<title>Node4&#45;&gt;Node5</title>
<path fill="none" stroke="#63b8ff" d="M771.56,-269.33C690.27,-256.39 568.82,-236.4 548,-229.25 497.1,-211.77 442.81,-179.61 412.37,-160.17"/>
<polygon fill="#63b8ff" stroke="#63b8ff" points="770.83,-272.92 781.25,-271.03 771.92,-266.01 770.83,-272.92"/>
</g>
<!-- Node4&#45;&gt;Node7 -->
<g id="edge9" class="edge">
<title>Node4&#45;&gt;Node7</title>
<path fill="none" stroke="#63b8ff" d="M846,-254.14C846,-245.75 846,-236.76 846,-229.38"/>
<polygon fill="#63b8ff" stroke="#63b8ff" points="842.5,-254 846,-264 849.5,-254 842.5,-254"/>
</g>
<!-- Node4&#45;&gt;Node16 -->
<g id="edge26" class="edge">
<title>Node4&#45;&gt;Node16</title>
<path fill="none" stroke="#63b8ff" d="M920.6,-270.79C1018.07,-257.44 1186.97,-234.32 1277.49,-221.92"/>
<polygon fill="#63b8ff" stroke="#63b8ff" points="920.38,-267.42 910.95,-272.24 921.33,-274.36 920.38,-267.42"/>
</g>
<!-- Node5&#45;&gt;Node3 -->
<g id="edge6" class="edge">
<title>Node5&#45;&gt;Node3</title>
<path fill="none" stroke="#63b8ff" d="M381.54,-115.16C378.78,-96.68 378.74,-72.69 392,-56.75 407.46,-38.17 463.85,-26.35 511.88,-19.45"/>
<polygon fill="#63b8ff" stroke="#63b8ff" points="378.26,-115.63 383.52,-124.82 385.14,-114.35 378.26,-115.63"/>
</g>
<!-- Node6 -->
<g id="node6" class="node">
<title>Node6</title>
<g id="a_node6"><a xlink:href="../../dd/d3f/compare_8hpp.html" target="_top" xlink:title=" ">
<polygon fill="white" stroke="#666666" points="527.5,-90.25 400.5,-90.25 400.5,-56.75 527.5,-56.75 527.5,-90.25"/>
<text text-anchor="start" x="408.5" y="-76.75" font-family="Helvetica,sans-Serif" font-size="10.00">Simple&#45;Utility/functional</text>
<text text-anchor="middle" x="464" y="-64" font-family="Helvetica,sans-Serif" font-size="10.00">/compare.hpp</text>
</a>
</g>
</g>
<!-- Node5&#45;&gt;Node6 -->
<g id="edge7" class="edge">
<title>Node5&#45;&gt;Node6</title>
<path fill="none" stroke="#63b8ff" d="M414.05,-118.86C424.52,-109.56 436.34,-99.06 445.85,-90.62"/>
<polygon fill="#63b8ff" stroke="#63b8ff" points="412.16,-115.75 407.01,-125 416.81,-120.98 412.16,-115.75"/>
</g>
<!-- Node6&#45;&gt;Node3 -->
<g id="edge8" class="edge">
<title>Node6&#45;&gt;Node3</title>
<path fill="none" stroke="#63b8ff" d="M506.13,-51.39C526.61,-41.13 550.25,-29.29 566.46,-21.17"/>
<polygon fill="#63b8ff" stroke="#63b8ff" points="504.75,-48.67 497.37,-56.28 507.88,-54.93 504.75,-48.67"/>
</g>
<!-- Node7&#45;&gt;Node3 -->
<g id="edge10" class="edge">
<title>Node7&#45;&gt;Node3</title>
<path fill="none" stroke="#63b8ff" d="M802.62,-190.21C786.97,-181.68 769.58,-171.15 755,-159.75 705.22,-120.83 705.75,-96.95 657,-56.75 640.07,-42.79 618.6,-29.61 603.73,-21.09"/>
<polygon fill="#63b8ff" stroke="#63b8ff" points="800.62,-193.65 811.09,-195.26 803.91,-187.47 800.62,-193.65"/>
</g>
<!-- Node7&#45;&gt;Node6 -->
<g id="edge13" class="edge">
<title>Node7&#45;&gt;Node6</title>
<path fill="none" stroke="#63b8ff" d="M772.92,-192.44C740.24,-183.39 701.4,-171.9 667,-159.75 606.99,-138.55 539.17,-108.87 499.08,-90.7"/>
<polygon fill="#63b8ff" stroke="#63b8ff" points="771.74,-196.02 782.31,-195.29 773.59,-189.27 771.74,-196.02"/>
</g>
<!-- Node8 -->
<g id="node8" class="node">
<title>Node8</title>
<g id="a_node8"><a xlink:href="../../d3/d23/arithmetic_8hpp.html" target="_top" xlink:title=" ">
<polygon fill="white" stroke="#666666" points="836.5,-90.25 709.5,-90.25 709.5,-56.75 836.5,-56.75 836.5,-90.25"/>
<text text-anchor="start" x="717.5" y="-76.75" font-family="Helvetica,sans-Serif" font-size="10.00">Simple&#45;Utility/functional</text>
<text text-anchor="middle" x="773" y="-64" font-family="Helvetica,sans-Serif" font-size="10.00">/arithmetic.hpp</text>
</a>
</g>
</g>
<!-- Node7&#45;&gt;Node8 -->
<g id="edge11" class="edge">
<title>Node7&#45;&gt;Node8</title>
<path fill="none" stroke="#63b8ff" d="M796.04,-189.89C784.07,-182.2 772.8,-172.25 766,-159.75 754.22,-138.1 760.66,-108.68 766.64,-90.67"/>
<polygon fill="#63b8ff" stroke="#63b8ff" points="793.87,-193.27 804.26,-195.34 797.43,-187.24 793.87,-193.27"/>
</g>
<!-- Node9 -->
<g id="node9" class="node">
<title>Node9</title>
<g id="a_node9"><a xlink:href="../../d9/d5f/functional_2tuple_8hpp.html" target="_top" xlink:title=" ">
<polygon fill="white" stroke="#666666" points="981.5,-90.25 854.5,-90.25 854.5,-56.75 981.5,-56.75 981.5,-90.25"/>
<text text-anchor="start" x="862.5" y="-76.75" font-family="Helvetica,sans-Serif" font-size="10.00">Simple&#45;Utility/functional</text>
<text text-anchor="middle" x="918" y="-64" font-family="Helvetica,sans-Serif" font-size="10.00">/tuple.hpp</text>
</a>
</g>
</g>
<!-- Node7&#45;&gt;Node9 -->
<g id="edge14" class="edge">
<title>Node7&#45;&gt;Node9</title>
<path fill="none" stroke="#63b8ff" d="M802.97,-189.31C792.2,-181.51 782.01,-171.66 776,-159.75 769.3,-146.46 767.46,-138.45 776,-126.25 785.63,-112.49 821.13,-99.55 854.22,-90.06"/>
<polygon fill="#63b8ff" stroke="#63b8ff" points="800.81,-192.74 811.07,-195.37 804.69,-186.92 800.81,-192.74"/>
</g>
<!-- Node7&#45;&gt;Node10 -->
<g id="edge16" class="edge">
<title>Node7&#45;&gt;Node10</title>
<path fill="none" stroke="#63b8ff" d="M920.81,-208.97C1114.61,-202.17 1629.65,-182.47 1799,-159.75 1801.96,-159.35 1804.97,-158.9 1808.01,-158.41"/>
<polygon fill="#63b8ff" stroke="#63b8ff" points="920.76,-205.5 910.89,-209.35 921.01,-212.5 920.76,-205.5"/>
</g>
<!-- Node11 -->
<g id="node11" class="node">
<title>Node11</title>
<g id="a_node11"><a xlink:href="../../d4/dc9/and__then_8hpp.html" target="_top" xlink:title=" ">
<polygon fill="white" stroke="#666666" points="1048.25,-159.75 925.75,-159.75 925.75,-126.25 1048.25,-126.25 1048.25,-159.75"/>
<text text-anchor="start" x="933.75" y="-146.25" font-family="Helvetica,sans-Serif" font-size="10.00">Simple&#45;Utility/nullables</text>
<text text-anchor="middle" x="987" y="-133.5" font-family="Helvetica,sans-Serif" font-size="10.00">/and_then.hpp</text>
</a>
</g>
</g>
<!-- Node7&#45;&gt;Node11 -->
<g id="edge18" class="edge">
<title>Node7&#45;&gt;Node11</title>
<path fill="none" stroke="#63b8ff" d="M889.56,-190.65C910.16,-180.79 934.37,-169.2 953.5,-160.04"/>
<polygon fill="#63b8ff" stroke="#63b8ff" points="888.28,-187.86 880.77,-195.33 891.3,-194.17 888.28,-187.86"/>
</g>
<!-- Node13 -->
<g id="node13" class="node">
<title>Node13</title>
<g id="a_node13"><a xlink:href="../../d7/d5f/fwd__value_8hpp.html" target="_top" xlink:title=" ">
<polygon fill="white" stroke="#666666" points="1189.25,-159.75 1066.75,-159.75 1066.75,-126.25 1189.25,-126.25 1189.25,-159.75"/>
<text text-anchor="start" x="1074.75" y="-146.25" font-family="Helvetica,sans-Serif" font-size="10.00">Simple&#45;Utility/nullables</text>
<text text-anchor="middle" x="1128" y="-133.5" font-family="Helvetica,sans-Serif" font-size="10.00">/fwd_value.hpp</text>
</a>
</g>
</g>
<!-- Node7&#45;&gt;Node13 -->
<g id="edge20" class="edge">
<title>Node7&#45;&gt;Node13</title>
<path fill="none" stroke="#63b8ff" d="M920.42,-193.69C966.03,-182.77 1023.71,-168.96 1066.68,-158.68"/>
<polygon fill="#63b8ff" stroke="#63b8ff" points="919.9,-190.45 910.99,-196.18 921.53,-197.26 919.9,-190.45"/>
</g>
<!-- Node14 -->
<g id="node14" class="node">
<title>Node14</title>
<g id="a_node14"><a xlink:href="../../d2/d0e/or__else_8hpp.html" target="_top" xlink:title=" ">
<polygon fill="white" stroke="#666666" points="1330.25,-159.75 1207.75,-159.75 1207.75,-126.25 1330.25,-126.25 1330.25,-159.75"/>
<text text-anchor="start" x="1215.75" y="-146.25" font-family="Helvetica,sans-Serif" font-size="10.00">Simple&#45;Utility/nullables</text>
<text text-anchor="middle" x="1269" y="-133.5" font-family="Helvetica,sans-Serif" font-size="10.00">/or_else.hpp</text>
</a>
</g>
</g>
<!-- Node7&#45;&gt;Node14 -->
<g id="edge22" class="edge">
<title>Node7&#45;&gt;Node14</title>
<path fill="none" stroke="#63b8ff" d="M920.5,-202.14C991.92,-192.79 1102.66,-177.31 1198,-159.75 1201.1,-159.18 1204.28,-158.57 1207.48,-157.93"/>
<polygon fill="#63b8ff" stroke="#63b8ff" points="920.28,-198.77 910.82,-203.53 921.19,-205.71 920.28,-198.77"/>
</g>
<!-- Node15 -->
<g id="node15" class="node">
<title>Node15</title>
<g id="a_node15"><a xlink:href="../../d0/d48/value__or_8hpp.html" target="_top" xlink:title=" ">
<polygon fill="white" stroke="#666666" points="907.25,-159.75 784.75,-159.75 784.75,-126.25 907.25,-126.25 907.25,-159.75"/>
<text text-anchor="start" x="792.75" y="-146.25" font-family="Helvetica,sans-Serif" font-size="10.00">Simple&#45;Utility/nullables</text>
<text text-anchor="middle" x="846" y="-133.5" font-family="Helvetica,sans-Serif" font-size="10.00">/value_or.hpp</text>
</a>
</g>
</g>
<!-- Node7&#45;&gt;Node15 -->
<g id="edge24" class="edge">
<title>Node7&#45;&gt;Node15</title>
<path fill="none" stroke="#63b8ff" d="M846,-184.64C846,-176.25 846,-167.26 846,-159.88"/>
<polygon fill="#63b8ff" stroke="#63b8ff" points="842.5,-184.5 846,-194.5 849.5,-184.5 842.5,-184.5"/>
</g>
<!-- Node8&#45;&gt;Node3 -->
<g id="edge12" class="edge">
<title>Node8&#45;&gt;Node3</title>
<path fill="none" stroke="#63b8ff" d="M713.1,-52.92C680.68,-42.32 642.05,-29.69 615.95,-21.17"/>
<polygon fill="#63b8ff" stroke="#63b8ff" points="711.79,-56.5 722.38,-56.28 713.96,-49.85 711.79,-56.5"/>
</g>
<!-- Node9&#45;&gt;Node3 -->
<g id="edge15" class="edge">
<title>Node9&#45;&gt;Node3</title>
<path fill="none" stroke="#63b8ff" d="M843.33,-56.27C770.7,-42.14 697.12,-29.56 646.81,-21.24"/>
<polygon fill="#63b8ff" stroke="#63b8ff" points="842.55,-59.87 853.04,-58.36 843.9,-53 842.55,-59.87"/>
</g>
<!-- Node10&#45;&gt;Node3 -->
<g id="edge17" class="edge">
<title>Node10&#45;&gt;Node3</title>
<path fill="none" stroke="#63b8ff" d="M1797.72,-124.78C1708.38,-104.83 1553.6,-72.66 1419,-56.75 1140.15,-23.79 805.9,-14.73 660.09,-12.27"/>
<polygon fill="#63b8ff" stroke="#63b8ff" points="1796.76,-128.38 1807.28,-127.16 1798.29,-121.55 1796.76,-128.38"/>
</g>
<!-- Node12 -->
<g id="node12" class="node">
<title>Node12</title>
<g id="a_node12"><a xlink:href="../../d3/ddc/nullables_8hpp.html" target="_top" xlink:title=" ">
<polygon fill="white" stroke="#666666" points="1410.38,-83.88 1267.62,-83.88 1267.62,-63.12 1410.38,-63.12 1410.38,-83.88"/>
<text text-anchor="middle" x="1339" y="-70.38" font-family="Helvetica,sans-Serif" font-size="10.00">Simple&#45;Utility/nullables.hpp</text>
</a>
</g>
</g>
<!-- Node11&#45;&gt;Node12 -->
<g id="edge19" class="edge">
<title>Node11&#45;&gt;Node12</title>
<path fill="none" stroke="#63b8ff" d="M1059.25,-126.04C1142.73,-109.22 1227.59,-93.94 1282.1,-84.36"/>
<polygon fill="#63b8ff" stroke="#63b8ff" points="1058.65,-122.79 1049.54,-128.2 1060.04,-129.65 1058.65,-122.79"/>
</g>
<!-- Node13&#45;&gt;Node12 -->
<g id="edge21" class="edge">
<title>Node13&#45;&gt;Node12</title>
<path fill="none" stroke="#63b8ff" d="M1188.75,-122.57C1227.81,-110.07 1276.93,-94.36 1308.15,-84.37"/>
<polygon fill="#63b8ff" stroke="#63b8ff" points="1188,-119.45 1179.54,-125.83 1190.13,-126.12 1188,-119.45"/>
</g>
<!-- Node14&#45;&gt;Node12 -->
<g id="edge23" class="edge">
<title>Node14&#45;&gt;Node12</title>
<path fill="none" stroke="#63b8ff" d="M1293.24,-118.62C1305.42,-106.88 1319.52,-93.28 1328.81,-84.32"/>
<polygon fill="#63b8ff" stroke="#63b8ff" points="1291.36,-115.54 1286.59,-125 1296.22,-120.58 1291.36,-115.54"/>
</g>
<!-- Node15&#45;&gt;Node12 -->
<g id="edge25" class="edge">
<title>Node15&#45;&gt;Node12</title>
<path fill="none" stroke="#63b8ff" d="M917.96,-126.19C1046.94,-104.39 1185.41,-89.26 1267.39,-81.16"/>
<polygon fill="#63b8ff" stroke="#63b8ff" points="917.77,-122.84 908.5,-127.98 918.95,-129.74 917.77,-122.84"/>
</g>
<!-- Node16&#45;&gt;Node11 -->
<g id="edge30" class="edge">
<title>Node16&#45;&gt;Node11</title>
<path fill="none" stroke="#63b8ff" d="M1266.8,-198.95C1209.96,-188.88 1128.79,-174.12 1058,-159.75 1054.91,-159.12 1051.74,-158.47 1048.54,-157.8"/>
<polygon fill="#63b8ff" stroke="#63b8ff" points="1266.03,-202.54 1276.48,-200.83 1267.24,-195.65 1266.03,-202.54"/>
</g>
<!-- Node16&#45;&gt;Node12 -->
<g id="edge27" class="edge">
<title>Node16&#45;&gt;Node12</title>
<path fill="none" stroke="#63b8ff" d="M1410.92,-202.44C1437.09,-195.27 1464.12,-182.49 1480,-159.75 1507.18,-120.82 1439.83,-96.53 1389.11,-84.26"/>
<polygon fill="#63b8ff" stroke="#63b8ff" points="1410.43,-199.2 1401.57,-205.01 1412.12,-206 1410.43,-199.2"/>
</g>
<!-- Node16&#45;&gt;Node13 -->
<g id="edge31" class="edge">
<title>Node16&#45;&gt;Node13</title>
<path fill="none" stroke="#63b8ff" d="M1278.03,-191.99C1246.46,-181.9 1208.39,-169.72 1178.49,-160.15"/>
<polygon fill="#63b8ff" stroke="#63b8ff" points="1276.87,-195.62 1287.46,-195.33 1279,-188.95 1276.87,-195.62"/>
</g>
<!-- Node16&#45;&gt;Node14 -->
<g id="edge32" class="edge">
<title>Node16&#45;&gt;Node14</title>
<path fill="none" stroke="#63b8ff" d="M1314.66,-188.03C1305.01,-178.73 1294.17,-168.27 1285.47,-159.88"/>
<polygon fill="#63b8ff" stroke="#63b8ff" points="1311.78,-190.08 1321.41,-194.5 1316.64,-185.04 1311.78,-190.08"/>
</g>
<!-- Node16&#45;&gt;Node15 -->
<g id="edge37" class="edge">
<title>Node16&#45;&gt;Node15</title>
<path fill="none" stroke="#63b8ff" d="M1266.85,-204.79C1182.58,-196.45 1039.14,-180.74 917,-159.75 913.89,-159.22 910.71,-158.64 907.5,-158.02"/>
<polygon fill="#63b8ff" stroke="#63b8ff" points="1266.29,-208.35 1276.58,-205.84 1266.97,-201.38 1266.29,-208.35"/>
</g>
<!-- Node16&#45;&gt;Node17 -->
<g id="edge28" class="edge">
<title>Node16&#45;&gt;Node17</title>
<path fill="none" stroke="#63b8ff" d="M1411.14,-201.01C1475.94,-191.29 1573.57,-175.95 1658,-159.75 1661.1,-159.16 1664.27,-158.53 1667.47,-157.88"/>
<polygon fill="#63b8ff" stroke="#63b8ff" points="1411.01,-197.64 1401.64,-202.58 1412.04,-204.56 1411.01,-197.64"/>
</g>
<!-- Node18 -->
<g id="node18" class="node">
<title>Node18</title>
<g id="a_node18"><a xlink:href="../../d9/d20/std__optional_8hpp.html" target="_top" xlink:title=" ">
<polygon fill="white" stroke="#666666" points="1649.25,-159.75 1526.75,-159.75 1526.75,-126.25 1649.25,-126.25 1649.25,-159.75"/>
<text text-anchor="start" x="1534.75" y="-146.25" font-family="Helvetica,sans-Serif" font-size="10.00">Simple&#45;Utility/nullables</text>
<text text-anchor="middle" x="1588" y="-133.5" font-family="Helvetica,sans-Serif" font-size="10.00">/std_optional.hpp</text>
</a>
</g>
</g>
<!-- Node16&#45;&gt;Node18 -->
<g id="edge33" class="edge">
<title>Node16&#45;&gt;Node18</title>
<path fill="none" stroke="#63b8ff" d="M1409.02,-192.52C1446.64,-182.32 1492.52,-169.88 1528.41,-160.15"/>
<polygon fill="#63b8ff" stroke="#63b8ff" points="1408.38,-189.34 1399.64,-195.33 1410.21,-196.09 1408.38,-189.34"/>
</g>
<!-- Node19 -->
<g id="node19" class="node">
<title>Node19</title>
<g id="a_node19"><a xlink:href="../../d8/d9a/std__pointers_8hpp.html" target="_top" xlink:title=" ">
<polygon fill="white" stroke="#666666" points="1471.25,-159.75 1348.75,-159.75 1348.75,-126.25 1471.25,-126.25 1471.25,-159.75"/>
<text text-anchor="start" x="1356.75" y="-146.25" font-family="Helvetica,sans-Serif" font-size="10.00">Simple&#45;Utility/nullables</text>
<text text-anchor="middle" x="1410" y="-133.5" font-family="Helvetica,sans-Serif" font-size="10.00">/std_pointers.hpp</text>
</a>
</g>
</g>
<!-- Node16&#45;&gt;Node19 -->
<g id="edge35" class="edge">
<title>Node16&#45;&gt;Node19</title>
<path fill="none" stroke="#63b8ff" d="M1363.69,-188.03C1373.47,-178.73 1384.47,-168.27 1393.29,-159.88"/>
<polygon fill="#63b8ff" stroke="#63b8ff" points="1361.66,-185.08 1356.83,-194.5 1366.49,-190.15 1361.66,-185.08"/>
</g>
<!-- Node16&#45;&gt;Node20 -->
<g id="edge38" class="edge">
<title>Node16&#45;&gt;Node20</title>
<path fill="none" stroke="#63b8ff" d="M1411.13,-208.98C1525.16,-204.19 1753.73,-191.25 1945,-159.75 1947.6,-159.32 1950.24,-158.84 1952.91,-158.33"/>
<polygon fill="#63b8ff" stroke="#63b8ff" points="1411.31,-205.51 1401.46,-209.42 1411.6,-212.51 1411.31,-205.51"/>
</g>
<!-- Node17&#45;&gt;Node12 -->
<g id="edge29" class="edge">
<title>Node17&#45;&gt;Node12</title>
<path fill="none" stroke="#63b8ff" d="M1656.79,-126.08C1564.24,-108.52 1469.03,-93.64 1406.72,-84.33"/>
<polygon fill="#63b8ff" stroke="#63b8ff" points="1655.99,-129.68 1666.47,-128.12 1657.31,-122.81 1655.99,-129.68"/>
</g>
<!-- Node18&#45;&gt;Node12 -->
<g id="edge34" class="edge">
<title>Node18&#45;&gt;Node12</title>
<path fill="none" stroke="#63b8ff" d="M1517.77,-122.96C1471.44,-110.4 1412.65,-94.46 1375.41,-84.37"/>
<polygon fill="#63b8ff" stroke="#63b8ff" points="1516.79,-126.59 1527.36,-125.83 1518.62,-119.84 1516.79,-126.59"/>
</g>
<!-- Node19&#45;&gt;Node12 -->
<g id="edge36" class="edge">
<title>Node19&#45;&gt;Node12</title>
<path fill="none" stroke="#63b8ff" d="M1385.41,-118.62C1373.06,-106.88 1358.76,-93.28 1349.33,-84.32"/>
<polygon fill="#63b8ff" stroke="#63b8ff" points="1382.51,-120.65 1392.17,-125 1387.34,-115.58 1382.51,-120.65"/>
</g>
<!-- Node21&#45;&gt;Node3 -->
<g id="edge40" class="edge">
<title>Node21&#45;&gt;Node3</title>
<path fill="none" stroke="#63b8ff" d="M621.52,-184.74C612.27,-139.58 593.97,-50.29 587.96,-20.96"/>
<polygon fill="#63b8ff" stroke="#63b8ff" points="618.28,-185.37 623.71,-194.46 625.14,-183.96 618.28,-185.37"/>
</g>
<!-- Node21&#45;&gt;Node5 -->
<g id="edge41" class="edge">
<title>Node21&#45;&gt;Node5</title>
<path fill="none" stroke="#63b8ff" d="M559.33,-192.39C523.31,-182.22 479.5,-169.84 445.19,-160.15"/>
<polygon fill="#63b8ff" stroke="#63b8ff" points="558.18,-195.98 568.75,-195.33 560.08,-189.25 558.18,-195.98"/>
</g>
<!-- Node22&#45;&gt;Node3 -->
<g id="edge43" class="edge">
<title>Node22&#45;&gt;Node3</title>
<path fill="none" stroke="#63b8ff" d="M122.82,-188.46C164.43,-154.03 248.39,-89.67 331,-56.75 389.38,-33.49 460.01,-22.1 512.12,-16.56"/>
<polygon fill="#63b8ff" stroke="#63b8ff" points="121.02,-186.24 115.6,-195.33 125.51,-191.61 121.02,-186.24"/>
</g>
<!-- Node22&#45;&gt;Node5 -->
<g id="edge44" class="edge">
<title>Node22&#45;&gt;Node5</title>
<path fill="none" stroke="#63b8ff" d="M175.52,-193.12C222.21,-182.32 280.44,-168.86 324.13,-158.77"/>
<polygon fill="#63b8ff" stroke="#63b8ff" points="174.78,-189.93 165.83,-195.59 176.36,-196.75 174.78,-189.93"/>
</g>
<!-- Node23&#45;&gt;Node5 -->
<g id="edge46" class="edge">
<title>Node23&#45;&gt;Node5</title>
<path fill="none" stroke="#63b8ff" d="M476.85,-259.2C463.82,-250.92 449.92,-240.7 439,-229.25 419.11,-208.41 403.47,-178.48 395,-160.19"/>
<polygon fill="#63b8ff" stroke="#63b8ff" points="474.77,-262.64 485.13,-264.87 478.42,-256.67 474.77,-262.64"/>
</g>
<!-- Node24&#45;&gt;Node5 -->
<g id="edge48" class="edge">
<title>Node24&#45;&gt;Node5</title>
<path fill="none" stroke="#63b8ff" d="M371.89,-254.37C375.98,-226.31 382.3,-183.02 385.68,-159.88"/>
<polygon fill="#63b8ff" stroke="#63b8ff" points="368.31,-253.62 370.33,-264.02 375.24,-254.63 368.31,-253.62"/>
</g>
<!-- Node25&#45;&gt;Node3 -->
<g id="edge50" class="edge">
<title>Node25&#45;&gt;Node3</title>
<path fill="none" stroke="#63b8ff" d="M260.55,-186.18C280.75,-151.07 322.22,-88.38 376,-56.75 417.32,-32.45 470.06,-21.12 512.36,-15.85"/>
<polygon fill="#63b8ff" stroke="#63b8ff" points="257.04,-184.28 255.2,-194.71 263.15,-187.7 257.04,-184.28"/>
</g>
<!-- Node25&#45;&gt;Node5 -->
<g id="edge51" class="edge">
<title>Node25&#45;&gt;Node5</title>
<path fill="none" stroke="#63b8ff" d="M290.56,-190.65C311.16,-180.79 335.37,-169.2 354.5,-160.04"/>
<polygon fill="#63b8ff" stroke="#63b8ff" points="289.28,-187.86 281.77,-195.33 292.3,-194.17 289.28,-187.86"/>
</g>
<!-- Node26&#45;&gt;Node3 -->
<g id="edge53" class="edge">
<title>Node26&#45;&gt;Node3</title>
<path fill="none" stroke="#63b8ff" d="M588.23,-262.19C572.35,-254.6 557.5,-244 548,-229.25 503.29,-159.85 560.48,-53.35 579.95,-21.01"/>
<polygon fill="#63b8ff" stroke="#63b8ff" points="586.65,-265.75 597.21,-266.54 589.44,-259.34 586.65,-265.75"/>
</g>
<!-- Node26&#45;&gt;Node5 -->
<g id="edge55" class="edge">
<title>Node26&#45;&gt;Node5</title>
<path fill="none" stroke="#63b8ff" d="M587.57,-264.08C544.92,-253.63 496.16,-240.18 477,-229.25 468.54,-224.43 427.13,-183.37 403.89,-160.04"/>
<polygon fill="#63b8ff" stroke="#63b8ff" points="586.72,-267.72 597.26,-266.67 588.37,-260.91 586.72,-267.72"/>
</g>
<!-- Node26&#45;&gt;Node7 -->
<g id="edge56" class="edge">
<title>Node26&#45;&gt;Node7</title>
<path fill="none" stroke="#63b8ff" d="M716.25,-261.1C743.56,-251.08 776.24,-239.09 801.97,-229.65"/>
<polygon fill="#63b8ff" stroke="#63b8ff" points="715.26,-258.1 707.07,-264.83 717.67,-264.67 715.26,-258.1"/>
</g>
<!-- Node26&#45;&gt;Node25 -->
<g id="edge54" class="edge">
<title>Node26&#45;&gt;Node25</title>
<path fill="none" stroke="#63b8ff" d="M587.3,-264.81C485.82,-246.34 378.45,-231 311.69,-221.97"/>
<polygon fill="#63b8ff" stroke="#63b8ff" points="586.59,-268.42 597.05,-266.78 587.85,-261.54 586.59,-268.42"/>
</g>
</g>
</svg>
