<?xml version="1.0" encoding="UTF-8" standalone="no"?>
<!DOCTYPE svg PUBLIC "-//W3C//DTD SVG 1.1//EN"
 "http://www.w3.org/Graphics/SVG/1.1/DTD/svg11.dtd">
<!-- Generated by graphviz version 8.0.5 (20230430.1635)
 -->
<!-- Title: Simple&#45;Utility/functional/operators/equal.hpp Pages: 1 -->
<svg width="191pt" height="237pt"
 viewBox="0.00 0.00 191.12 237.25" xmlns="http://www.w3.org/2000/svg" xmlns:xlink="http://www.w3.org/1999/xlink">
<g id="graph0" class="graph" transform="scale(1 1) rotate(0) translate(4 233.25)">
<title>Simple&#45;Utility/functional/operators/equal.hpp</title>
<!-- Node1 -->
<g id="node1" class="node">
<title>Node1</title>
<g id="a_node1"><a xlink:title=" ">
<polygon fill="#999999" stroke="#666666" points="137.12,-229.25 10.12,-229.25 10.12,-195.75 137.12,-195.75 137.12,-229.25"/>
<text text-anchor="start" x="18.12" y="-215.75" font-family="Helvetica,sans-Serif" font-size="10.00">Simple&#45;Utility/functional</text>
<text text-anchor="middle" x="73.62" y="-203" font-family="Helvetica,sans-Serif" font-size="10.00">/operators/equal.hpp</text>
</a>
</g>
</g>
<!-- Node2 -->
<g id="node2" class="node">
<title>Node2</title>
<g id="a_node2"><a xlink:href="../../d2/d7e/predicate_8hpp.html" target="_top" xlink:title=" ">
<polygon fill="white" stroke="#666666" points="137.12,-159.75 10.12,-159.75 10.12,-126.25 137.12,-126.25 137.12,-159.75"/>
<text text-anchor="start" x="18.12" y="-146.25" font-family="Helvetica,sans-Serif" font-size="10.00">Simple&#45;Utility/functional</text>
<text text-anchor="middle" x="73.62" y="-133.5" font-family="Helvetica,sans-Serif" font-size="10.00">/predicate.hpp</text>
</a>
</g>
</g>
<!-- Node1&#45;&gt;Node2 -->
<g id="edge1" class="edge">
<title>Node1&#45;&gt;Node2</title>
<path fill="none" stroke="#63b8ff" d="M73.62,-184.64C73.62,-176.25 73.62,-167.26 73.62,-159.88"/>
<polygon fill="#63b8ff" stroke="#63b8ff" points="70.13,-184.5 73.62,-194.5 77.13,-184.5 70.13,-184.5"/>
</g>
<!-- Node3 -->
<g id="node3" class="node">
<title>Node3</title>
<g id="a_node3"><a xlink:href="../../d2/db4/functional_8hpp.html" target="_top" xlink:title=" ">
<polygon fill="white" stroke="#666666" points="147.25,-20.75 0,-20.75 0,0 147.25,0 147.25,-20.75"/>
<text text-anchor="middle" x="73.62" y="-7.25" font-family="Helvetica,sans-Serif" font-size="10.00">Simple&#45;Utility/functional.hpp</text>
</a>
</g>
</g>
<!-- Node2&#45;&gt;Node3 -->
<g id="edge2" class="edge">
<title>Node2&#45;&gt;Node3</title>
<path fill="none" stroke="#63b8ff" d="M57.37,-116.76C52.99,-108.62 48.86,-99.35 46.62,-90.25 43.08,-75.79 42.68,-71.11 46.62,-56.75 50.32,-43.32 59.15,-29.84 65.71,-21.1"/>
<polygon fill="#63b8ff" stroke="#63b8ff" points="54.69,-118.12 62.72,-125.03 60.76,-114.62 54.69,-118.12"/>
</g>
<!-- Node4 -->
<g id="node4" class="node">
<title>Node4</title>
<g id="a_node4"><a xlink:href="../../dd/d3f/compare_8hpp.html" target="_top" xlink:title=" ">
<polygon fill="white" stroke="#666666" points="183.12,-90.25 56.12,-90.25 56.12,-56.75 183.12,-56.75 183.12,-90.25"/>
<text text-anchor="start" x="64.12" y="-76.75" font-family="Helvetica,sans-Serif" font-size="10.00">Simple&#45;Utility/functional</text>
<text text-anchor="middle" x="119.62" y="-64" font-family="Helvetica,sans-Serif" font-size="10.00">/compare.hpp</text>
</a>
</g>
</g>
<!-- Node2&#45;&gt;Node4 -->
<g id="edge3" class="edge">
<title>Node2&#45;&gt;Node4</title>
<path fill="none" stroke="#63b8ff" d="M90.58,-117.13C96.67,-108.19 103.37,-98.35 108.8,-90.38"/>
<polygon fill="#63b8ff" stroke="#63b8ff" points="87.27,-114.77 84.53,-125 93.05,-118.71 87.27,-114.77"/>
</g>
<!-- Node4&#45;&gt;Node3 -->
<g id="edge4" class="edge">
<title>Node4&#45;&gt;Node3</title>
<path fill="none" stroke="#63b8ff" d="M101.07,-47.85C94.05,-38.51 86.45,-28.42 81.03,-21.22"/>
<polygon fill="#63b8ff" stroke="#63b8ff" points="98.73,-49.55 107.54,-55.44 104.32,-45.35 98.73,-49.55"/>
</g>
</g>
</svg>
