<?xml version="1.0" encoding="UTF-8" standalone="no"?>
<!DOCTYPE svg PUBLIC "-//W3C//DTD SVG 1.1//EN"
 "http://www.w3.org/Graphics/SVG/1.1/DTD/svg11.dtd">
<!-- Generated by graphviz version 8.0.5 (20230430.1635)
 -->
<!-- Title: Simple&#45;Utility/functional/Composition.hpp Pages: 1 -->
<!--zoomable 364 -->
<svg id="main" version="1.1" xmlns="http://www.w3.org/2000/svg" xmlns:xlink="http://www.w3.org/1999/xlink" xml:space="preserve" onload="init(evt)">
<style type="text/css"><![CDATA[
.edge:hover path { stroke: red; }
.edge:hover polygon { stroke: red; fill: red; }
]]></style>
<script type="text/javascript"><![CDATA[
var edges = document.getElementsByTagName('g');
if (edges && edges.length) {
  for (var i=0;i<edges.length;i++) {
    if (edges[i].id.substr(0,4)=='edge') {
      edges[i].setAttribute('class','edge');
    }
  }
}
]]></script>
        <defs>
                <circle id="rim" cx="0" cy="0" r="7"/>
                <circle id="rim2" cx="0" cy="0" r="3.5"/>
                <g id="zoomPlus">
                        <use xlink:href="#rim" fill="#404040">
                                <set attributeName="fill" to="#808080" begin="zoomplus.mouseover" end="zoomplus.mouseout"/>
                        </use>
                        <path d="M-4,0h8M0,-4v8" fill="none" stroke="white" stroke-width="1.5" pointer-events="none"/>
                </g>
                <g id="zoomMin">
                        <use xlink:href="#rim" fill="#404040">
                                <set attributeName="fill" to="#808080" begin="zoomminus.mouseover" end="zoomminus.mouseout"/>
                        </use>
                        <path d="M-4,0h8" fill="none" stroke="white" stroke-width="1.5" pointer-events="none"/>
                </g>
                <g id="dirArrow">
                        <path fill="none" stroke="white" stroke-width="1.5" d="M0,-3.0v7 M-2.5,-0.5L0,-3.0L2.5,-0.5"/>
                </g>
               <g id="resetDef">
                       <use xlink:href="#rim2" fill="#404040">
                               <set attributeName="fill" to="#808080" begin="reset.mouseover" end="reset.mouseout"/>
                       </use>
               </g>
        </defs>

<script type="text/javascript">
var viewWidth = 1030;
var viewHeight = 364;
var sectionId = 'dynsection-0';
</script>
<script xlink:href="../../svgpan.js"/>
<svg id="graph" class="graph">
<g id="viewport">
<title>Simple&#45;Utility/functional/Composition.hpp</title>
<!-- Node1 -->
<g id="node1" class="node">
<title>Node1</title>
<g id="a_node1"><a xlink:title=" ">
<polygon fill="#999999" stroke="#666666" points="525.5,-355.5 398.5,-355.5 398.5,-322 525.5,-322 525.5,-355.5"/>
<text text-anchor="start" x="406.5" y="-342" font-family="Helvetica,sans-Serif" font-size="10.00">Simple&#45;Utility/functional</text>
<text text-anchor="middle" x="462" y="-329.25" font-family="Helvetica,sans-Serif" font-size="10.00">/Composition.hpp</text>
</a>
</g>
</g>
<!-- Node2 -->
<g id="node2" class="node">
<title>Node2</title>
<g id="a_node2"><a xlink:title=" ">
<polygon fill="#e0e0e0" stroke="#999999" points="566.25,-20.75 509.75,-20.75 509.75,0 566.25,0 566.25,-20.75"/>
<text text-anchor="middle" x="538" y="-7.25" font-family="Helvetica,sans-Serif" font-size="10.00">concepts</text>
</a>
</g>
</g>
<!-- Node1&#45;&gt;Node2 -->
<g id="edge1" class="edge">
<title>Node1&#45;&gt;Node2</title>
<path fill="none" stroke="#63b8ff" d="M525.77,-331.07C601.01,-319.24 716,-287.05 716,-200.75 716,-200.75 716,-200.75 716,-129.25 716,-63.16 629.64,-31.95 577.22,-19.09"/>
<polygon fill="#63b8ff" stroke="#63b8ff" points="578.13,-15.48 567.6,-16.62 576.55,-22.3 578.13,-15.48"/>
</g>
<!-- Node3 -->
<g id="node3" class="node">
<title>Node3</title>
<g id="a_node3"><a xlink:title=" ">
<polygon fill="#e0e0e0" stroke="#999999" points="387.88,-140.62 326.12,-140.62 326.12,-119.88 387.88,-119.88 387.88,-140.62"/>
<text text-anchor="middle" x="357" y="-127.12" font-family="Helvetica,sans-Serif" font-size="10.00">functional</text>
</a>
</g>
</g>
<!-- Node1&#45;&gt;Node3 -->
<g id="edge2" class="edge">
<title>Node1&#45;&gt;Node3</title>
<path fill="none" stroke="#63b8ff" d="M437.35,-321.66C425.12,-312.53 411.07,-300.12 402,-286 374.5,-243.19 363.36,-183.11 359.22,-151.9"/>
<polygon fill="#63b8ff" stroke="#63b8ff" points="362.59,-151.61 357.91,-142.1 355.64,-152.45 362.59,-151.61"/>
</g>
<!-- Node4 -->
<g id="node4" class="node">
<title>Node4</title>
<g id="a_node4"><a xlink:title=" ">
<polygon fill="#e0e0e0" stroke="#999999" points="57.62,-20.75 18.38,-20.75 18.38,0 57.62,0 57.62,-20.75"/>
<text text-anchor="middle" x="38" y="-7.25" font-family="Helvetica,sans-Serif" font-size="10.00">tuple</text>
</a>
</g>
</g>
<!-- Node1&#45;&gt;Node4 -->
<g id="edge3" class="edge">
<title>Node1&#45;&gt;Node4</title>
<path fill="none" stroke="#63b8ff" d="M398.06,-332.98C308.56,-325.56 151.02,-309.62 99,-286 46.13,-261.99 0,-258.82 0,-200.75 0,-200.75 0,-200.75 0,-129.25 0,-93.05 16.43,-53.49 27.68,-30.64"/>
<polygon fill="#63b8ff" stroke="#63b8ff" points="31.12,-32.62 32.56,-22.12 24.88,-29.43 31.12,-32.62"/>
</g>
<!-- Node5 -->
<g id="node5" class="node">
<title>Node5</title>
<g id="a_node5"><a xlink:title=" ">
<polygon fill="#e0e0e0" stroke="#999999" points="227,-20.75 163,-20.75 163,0 227,0 227,-20.75"/>
<text text-anchor="middle" x="195" y="-7.25" font-family="Helvetica,sans-Serif" font-size="10.00">type_traits</text>
</a>
</g>
</g>
<!-- Node1&#45;&gt;Node5 -->
<g id="edge4" class="edge">
<title>Node1&#45;&gt;Node5</title>
<path fill="none" stroke="#63b8ff" d="M398.26,-333.39C342.24,-327.73 259.52,-314.9 193,-286 133.99,-260.36 76,-265.09 76,-200.75 76,-200.75 76,-200.75 76,-129.25 76,-80.08 127.92,-44.43 163.17,-25.9"/>
<polygon fill="#63b8ff" stroke="#63b8ff" points="164.27,-28.77 171.62,-21.13 161.11,-22.52 164.27,-28.77"/>
</g>
<!-- Node6 -->
<g id="node6" class="node">
<title>Node6</title>
<g id="a_node6"><a xlink:href="../../d8/dd2/_config_8hpp.html" target="_top" xlink:title=" ">
<polygon fill="white" stroke="#666666" points="876.12,-279.62 743.88,-279.62 743.88,-258.88 876.12,-258.88 876.12,-279.62"/>
<text text-anchor="middle" x="810" y="-266.12" font-family="Helvetica,sans-Serif" font-size="10.00">Simple&#45;Utility/Config.hpp</text>
</a>
</g>
</g>
<!-- Node1&#45;&gt;Node6 -->
<g id="edge5" class="edge">
<title>Node1&#45;&gt;Node6</title>
<path fill="none" stroke="#63b8ff" d="M525.91,-325.48C580.21,-315.03 660.23,-299.6 730,-286 736.38,-284.76 743.05,-283.45 749.7,-282.15"/>
<polygon fill="#63b8ff" stroke="#63b8ff" points="749.94,-285.47 759.08,-280.11 748.59,-278.6 749.94,-285.47"/>
</g>
<!-- Node7 -->
<g id="node7" class="node">
<title>Node7</title>
<g id="a_node7"><a xlink:href="../../d5/d7b/_tuple_8hpp.html" target="_top" xlink:title=" ">
<polygon fill="white" stroke="#666666" points="329.5,-279.62 202.5,-279.62 202.5,-258.88 329.5,-258.88 329.5,-279.62"/>
<text text-anchor="middle" x="266" y="-266.12" font-family="Helvetica,sans-Serif" font-size="10.00">Simple&#45;Utility/Tuple.hpp</text>
</a>
</g>
</g>
<!-- Node1&#45;&gt;Node7 -->
<g id="edge6" class="edge">
<title>Node1&#45;&gt;Node7</title>
<path fill="none" stroke="#63b8ff" d="M415.05,-321.58C381.37,-309.98 336.53,-294.54 304.86,-283.63"/>
<polygon fill="#63b8ff" stroke="#63b8ff" points="306.25,-280.07 295.66,-280.12 303.97,-286.69 306.25,-280.07"/>
</g>
<!-- Node12 -->
<g id="node12" class="node">
<title>Node12</title>
<g id="a_node12"><a xlink:href="../../df/d2e/_type_list_8hpp.html" target="_top" xlink:title=" ">
<polygon fill="white" stroke="#666666" points="357.5,-77.5 218.5,-77.5 218.5,-56.75 357.5,-56.75 357.5,-77.5"/>
<text text-anchor="middle" x="288" y="-64" font-family="Helvetica,sans-Serif" font-size="10.00">Simple&#45;Utility/TypeList.hpp</text>
</a>
</g>
</g>
<!-- Node1&#45;&gt;Node12 -->
<g id="edge23" class="edge">
<title>Node1&#45;&gt;Node12</title>
<path fill="none" stroke="#63b8ff" d="M458.17,-321.57C446.5,-272.8 411.31,-129.52 397,-113.5 383.58,-98.48 364.39,-88.3 345.85,-81.46"/>
<polygon fill="#63b8ff" stroke="#63b8ff" points="347.25,-77.9 336.65,-78 344.99,-84.53 347.25,-77.9"/>
</g>
<!-- Node13 -->
<g id="node13" class="node">
<title>Node13</title>
<g id="a_node13"><a xlink:href="../../dd/d5c/stl__extensions_8hpp.html" target="_top" xlink:title=" ">
<polygon fill="white" stroke="#666666" points="687.88,-147 566.12,-147 566.12,-113.5 687.88,-113.5 687.88,-147"/>
<text text-anchor="start" x="574.12" y="-133.5" font-family="Helvetica,sans-Serif" font-size="10.00">Simple&#45;Utility/concepts</text>
<text text-anchor="middle" x="627" y="-120.75" font-family="Helvetica,sans-Serif" font-size="10.00">/stl_extensions.hpp</text>
</a>
</g>
</g>
<!-- Node1&#45;&gt;Node13 -->
<g id="edge24" class="edge">
<title>Node1&#45;&gt;Node13</title>
<path fill="none" stroke="#63b8ff" d="M480.57,-321.87C505.5,-299.92 550.19,-258.28 581,-216.5 594.77,-197.83 607.05,-174.53 615.46,-157.01"/>
<polygon fill="#63b8ff" stroke="#63b8ff" points="618.87,-158.98 619.94,-148.44 612.53,-156.01 618.87,-158.98"/>
</g>
<!-- Node15 -->
<g id="node15" class="node">
<title>Node15</title>
<g id="a_node15"><a xlink:href="../../d8/d05/_basic_closure_8hpp.html" target="_top" xlink:title=" ">
<polygon fill="white" stroke="#666666" points="571.5,-216.5 444.5,-216.5 444.5,-183 571.5,-183 571.5,-216.5"/>
<text text-anchor="start" x="452.5" y="-203" font-family="Helvetica,sans-Serif" font-size="10.00">Simple&#45;Utility/functional</text>
<text text-anchor="middle" x="508" y="-190.25" font-family="Helvetica,sans-Serif" font-size="10.00">/BasicClosure.hpp</text>
</a>
</g>
</g>
<!-- Node1&#45;&gt;Node15 -->
<g id="edge27" class="edge">
<title>Node1&#45;&gt;Node15</title>
<path fill="none" stroke="#63b8ff" d="M467.37,-321.77C475.19,-298.46 489.82,-254.89 499.23,-226.88"/>
<polygon fill="#63b8ff" stroke="#63b8ff" points="502.8,-228.23 502.67,-217.63 496.17,-226 502.8,-228.23"/>
</g>
<!-- Node16 -->
<g id="node16" class="node">
<title>Node16</title>
<g id="a_node16"><a xlink:href="../../d6/d50/_overloaded_8hpp.html" target="_top" xlink:title=" ">
<polygon fill="white" stroke="#666666" points="1021.5,-286 894.5,-286 894.5,-252.5 1021.5,-252.5 1021.5,-286"/>
<text text-anchor="start" x="902.5" y="-272.5" font-family="Helvetica,sans-Serif" font-size="10.00">Simple&#45;Utility/functional</text>
<text text-anchor="middle" x="958" y="-259.75" font-family="Helvetica,sans-Serif" font-size="10.00">/Overloaded.hpp</text>
</a>
</g>
</g>
<!-- Node1&#45;&gt;Node16 -->
<g id="edge33" class="edge">
<title>Node1&#45;&gt;Node16</title>
<path fill="none" stroke="#63b8ff" d="M525.68,-331.78C606.5,-323.79 750.4,-308.23 883.57,-286.14"/>
<polygon fill="#63b8ff" stroke="#63b8ff" points="884.08,-289.44 893.36,-284.34 882.92,-282.54 884.08,-289.44"/>
</g>
<!-- Node8 -->
<g id="node8" class="node">
<title>Node8</title>
<g id="a_node8"><a xlink:href="../../dc/d83/_algorithm_8hpp.html" target="_top" xlink:title=" ">
<polygon fill="white" stroke="#666666" points="238.25,-216.5 133.75,-216.5 133.75,-183 238.25,-183 238.25,-216.5"/>
<text text-anchor="start" x="141.75" y="-203" font-family="Helvetica,sans-Serif" font-size="10.00">Simple&#45;Utility/tuple</text>
<text text-anchor="middle" x="186" y="-190.25" font-family="Helvetica,sans-Serif" font-size="10.00">/Algorithm.hpp</text>
</a>
</g>
</g>
<!-- Node7&#45;&gt;Node8 -->
<g id="edge7" class="edge">
<title>Node7&#45;&gt;Node8</title>
<path fill="none" stroke="#63b8ff" d="M254.54,-258.58C243.88,-249.58 227.57,-235.82 213.54,-223.98"/>
<polygon fill="#63b8ff" stroke="#63b8ff" points="216.06,-220.69 206.16,-216.92 211.55,-226.04 216.06,-220.69"/>
</g>
<!-- Node10 -->
<g id="node10" class="node">
<title>Node10</title>
<g id="a_node10"><a xlink:href="../../dd/d5a/_general_8hpp.html" target="_top" xlink:title=" ">
<polygon fill="white" stroke="#666666" points="308.25,-147 203.75,-147 203.75,-113.5 308.25,-113.5 308.25,-147"/>
<text text-anchor="start" x="211.75" y="-133.5" font-family="Helvetica,sans-Serif" font-size="10.00">Simple&#45;Utility/tuple</text>
<text text-anchor="middle" x="256" y="-120.75" font-family="Helvetica,sans-Serif" font-size="10.00">/General.hpp</text>
</a>
</g>
</g>
<!-- Node7&#45;&gt;Node10 -->
<g id="edge22" class="edge">
<title>Node7&#45;&gt;Node10</title>
<path fill="none" stroke="#63b8ff" d="M265.28,-258.4C263.76,-237.62 260.19,-188.68 257.95,-157.94"/>
<polygon fill="#63b8ff" stroke="#63b8ff" points="261.38,-157.86 257.16,-148.15 254.4,-158.37 261.38,-157.86"/>
</g>
<!-- Node8&#45;&gt;Node3 -->
<g id="edge9" class="edge">
<title>Node8&#45;&gt;Node3</title>
<path fill="none" stroke="#63b8ff" d="M226.96,-182.58C256.05,-171.1 294.68,-155.85 322.26,-144.96"/>
<polygon fill="#63b8ff" stroke="#63b8ff" points="323.23,-147.95 331.25,-141.02 320.66,-141.44 323.23,-147.95"/>
</g>
<!-- Node8&#45;&gt;Node5 -->
<g id="edge10" class="edge">
<title>Node8&#45;&gt;Node5</title>
<path fill="none" stroke="#63b8ff" d="M186.77,-182.77C188.4,-148.75 192.22,-69.21 194.03,-31.67"/>
<polygon fill="#63b8ff" stroke="#63b8ff" points="197.55,-32.22 194.53,-22.07 190.56,-31.89 197.55,-32.22"/>
</g>
<!-- Node9 -->
<g id="node9" class="node">
<title>Node9</title>
<g id="a_node9"><a xlink:title=" ">
<polygon fill="#e0e0e0" stroke="#999999" points="144.5,-20.75 83.5,-20.75 83.5,0 144.5,0 144.5,-20.75"/>
<text text-anchor="middle" x="114" y="-7.25" font-family="Helvetica,sans-Serif" font-size="10.00">algorithm</text>
</a>
</g>
</g>
<!-- Node8&#45;&gt;Node9 -->
<g id="edge8" class="edge">
<title>Node8&#45;&gt;Node9</title>
<path fill="none" stroke="#63b8ff" d="M179.86,-182.77C166.73,-148.61 135.96,-68.52 121.61,-31.18"/>
<polygon fill="#63b8ff" stroke="#63b8ff" points="124.58,-30.15 117.72,-22.07 118.04,-32.66 124.58,-30.15"/>
</g>
<!-- Node8&#45;&gt;Node10 -->
<g id="edge11" class="edge">
<title>Node8&#45;&gt;Node10</title>
<path fill="none" stroke="#63b8ff" d="M202.59,-182.75C211.31,-174.35 222.15,-163.89 231.79,-154.59"/>
<polygon fill="#63b8ff" stroke="#63b8ff" points="233.76,-157.59 238.53,-148.13 228.9,-152.55 233.76,-157.59"/>
</g>
<!-- Node10&#45;&gt;Node2 -->
<g id="edge12" class="edge">
<title>Node10&#45;&gt;Node2</title>
<path fill="none" stroke="#63b8ff" d="M297.7,-113.03C323.27,-103 356.62,-89.73 386,-77.5 427.77,-60.11 475.57,-39.14 506.23,-25.54"/>
<polygon fill="#63b8ff" stroke="#63b8ff" points="507.22,-28.49 514.94,-21.23 504.38,-22.09 507.22,-28.49"/>
</g>
<!-- Node10&#45;&gt;Node4 -->
<g id="edge13" class="edge">
<title>Node10&#45;&gt;Node4</title>
<path fill="none" stroke="#63b8ff" d="M226.15,-113.11C183.79,-90.21 106.84,-48.6 65.7,-26.35"/>
<polygon fill="#63b8ff" stroke="#63b8ff" points="67.51,-22.81 57.05,-21.14 64.18,-28.97 67.51,-22.81"/>
</g>
<!-- Node10&#45;&gt;Node5 -->
<g id="edge14" class="edge">
<title>Node10&#45;&gt;Node5</title>
<path fill="none" stroke="#63b8ff" d="M237.34,-113.3C227.46,-103.86 215.97,-91.11 209,-77.5 201.64,-63.12 198.15,-45.08 196.49,-31.48"/>
<polygon fill="#63b8ff" stroke="#63b8ff" points="199.91,-31.48 195.46,-21.87 192.94,-32.16 199.91,-31.48"/>
</g>
<!-- Node11 -->
<g id="node11" class="node">
<title>Node11</title>
<g id="a_node11"><a xlink:title=" ">
<polygon fill="#e0e0e0" stroke="#999999" points="406.38,-20.75 365.62,-20.75 365.62,0 406.38,0 406.38,-20.75"/>
<text text-anchor="middle" x="386" y="-7.25" font-family="Helvetica,sans-Serif" font-size="10.00">utility</text>
</a>
</g>
</g>
<!-- Node10&#45;&gt;Node11 -->
<g id="edge15" class="edge">
<title>Node10&#45;&gt;Node11</title>
<path fill="none" stroke="#63b8ff" d="M308.56,-114.77C328.99,-106.77 351.03,-94.83 366,-77.5 377.02,-64.74 381.97,-46.04 384.19,-31.78"/>
<polygon fill="#63b8ff" stroke="#63b8ff" points="387.76,-32.43 385.49,-22.08 380.81,-31.58 387.76,-32.43"/>
</g>
<!-- Node10&#45;&gt;Node12 -->
<g id="edge16" class="edge">
<title>Node10&#45;&gt;Node12</title>
<path fill="none" stroke="#63b8ff" d="M264.41,-113.19C268.52,-105.33 273.51,-95.81 277.84,-87.54"/>
<polygon fill="#63b8ff" stroke="#63b8ff" points="281.31,-89.45 282.85,-78.97 275.11,-86.2 281.31,-89.45"/>
</g>
<!-- Node12&#45;&gt;Node2 -->
<g id="edge18" class="edge">
<title>Node12&#45;&gt;Node2</title>
<path fill="none" stroke="#63b8ff" d="M332.98,-56.27C380.26,-45.92 453.87,-29.8 498.83,-19.95"/>
<polygon fill="#63b8ff" stroke="#63b8ff" points="499.32,-23.21 508.34,-17.65 497.82,-16.37 499.32,-23.21"/>
</g>
<!-- Node12&#45;&gt;Node4 -->
<g id="edge19" class="edge">
<title>Node12&#45;&gt;Node4</title>
<path fill="none" stroke="#63b8ff" d="M238.56,-56.31C195.09,-47.52 130.18,-34.01 74,-20.75 72.1,-20.3 70.15,-19.83 68.19,-19.34"/>
<polygon fill="#63b8ff" stroke="#63b8ff" points="69.32,-15.77 58.77,-16.7 67.6,-22.55 69.32,-15.77"/>
</g>
<!-- Node12&#45;&gt;Node5 -->
<g id="edge20" class="edge">
<title>Node12&#45;&gt;Node5</title>
<path fill="none" stroke="#63b8ff" d="M271.37,-56.34C257.36,-48.08 237.06,-36.13 220.91,-26.63"/>
<polygon fill="#63b8ff" stroke="#63b8ff" points="222.88,-23.14 212.48,-21.08 219.32,-29.17 222.88,-23.14"/>
</g>
<!-- Node12&#45;&gt;Node9 -->
<g id="edge17" class="edge">
<title>Node12&#45;&gt;Node9</title>
<path fill="none" stroke="#63b8ff" d="M256.89,-56.34C228.44,-47.38 186.15,-34.08 154.96,-24.26"/>
<polygon fill="#63b8ff" stroke="#63b8ff" points="156.43,-20.74 145.84,-21.08 154.33,-27.42 156.43,-20.74"/>
</g>
<!-- Node12&#45;&gt;Node11 -->
<g id="edge21" class="edge">
<title>Node12&#45;&gt;Node11</title>
<path fill="none" stroke="#63b8ff" d="M305.52,-56.34C320.43,-48.01 342.09,-35.91 359.18,-26.36"/>
<polygon fill="#63b8ff" stroke="#63b8ff" points="360.61,-29.01 367.63,-21.08 357.19,-22.9 360.61,-29.01"/>
</g>
<!-- Node13&#45;&gt;Node2 -->
<g id="edge26" class="edge">
<title>Node13&#45;&gt;Node2</title>
<path fill="none" stroke="#63b8ff" d="M615,-113.35C598.57,-91.59 569.14,-52.62 551.81,-29.67"/>
<polygon fill="#63b8ff" stroke="#63b8ff" points="554.22,-28.05 545.41,-22.18 548.64,-32.27 554.22,-28.05"/>
</g>
<!-- Node14 -->
<g id="node14" class="node">
<title>Node14</title>
<g id="a_node14"><a xlink:title=" ">
<polygon fill="#e0e0e0" stroke="#999999" points="659.88,-77.5 604.12,-77.5 604.12,-56.75 659.88,-56.75 659.88,-77.5"/>
<text text-anchor="middle" x="632" y="-64" font-family="Helvetica,sans-Serif" font-size="10.00">compare</text>
</a>
</g>
</g>
<!-- Node13&#45;&gt;Node14 -->
<g id="edge25" class="edge">
<title>Node13&#45;&gt;Node14</title>
<path fill="none" stroke="#63b8ff" d="M628.31,-113.19C628.92,-105.77 629.65,-96.86 630.3,-88.93"/>
<polygon fill="#63b8ff" stroke="#63b8ff" points="633.87,-89.22 631.19,-78.97 626.89,-88.65 633.87,-89.22"/>
</g>
<!-- Node15&#45;&gt;Node2 -->
<g id="edge28" class="edge">
<title>Node15&#45;&gt;Node2</title>
<path fill="none" stroke="#63b8ff" d="M510.56,-182.77C516,-148.75 528.74,-69.21 534.75,-31.67"/>
<polygon fill="#63b8ff" stroke="#63b8ff" points="538.32,-32.49 536.45,-22.07 531.41,-31.39 538.32,-32.49"/>
</g>
<!-- Node15&#45;&gt;Node3 -->
<g id="edge29" class="edge">
<title>Node15&#45;&gt;Node3</title>
<path fill="none" stroke="#63b8ff" d="M471.83,-182.58C446.49,-171.25 412.93,-156.25 388.65,-145.4"/>
<polygon fill="#63b8ff" stroke="#63b8ff" points="390.42,-141.91 379.86,-141.02 387.56,-148.3 390.42,-141.91"/>
</g>
<!-- Node15&#45;&gt;Node5 -->
<g id="edge30" class="edge">
<title>Node15&#45;&gt;Node5</title>
<path fill="none" stroke="#63b8ff" d="M497.21,-182.96C475.89,-153.12 425.29,-88.56 366,-56.75 325.41,-34.97 273.68,-23.14 237.8,-17.07"/>
<polygon fill="#63b8ff" stroke="#63b8ff" points="238.64,-13.5 228.21,-15.37 237.53,-20.41 238.64,-13.5"/>
</g>
<!-- Node15&#45;&gt;Node11 -->
<g id="edge31" class="edge">
<title>Node15&#45;&gt;Node11</title>
<path fill="none" stroke="#63b8ff" d="M508.61,-182.85C508.86,-154.49 505.54,-94.6 476,-56.75 461.37,-38.01 436.93,-26.38 417.2,-19.6"/>
<polygon fill="#63b8ff" stroke="#63b8ff" points="418.41,-15.99 407.82,-16.31 416.3,-22.66 418.41,-15.99"/>
</g>
<!-- Node15&#45;&gt;Node13 -->
<g id="edge32" class="edge">
<title>Node15&#45;&gt;Node13</title>
<path fill="none" stroke="#63b8ff" d="M536.5,-182.58C552.4,-173.57 572.39,-162.23 589.54,-152.5"/>
<polygon fill="#63b8ff" stroke="#63b8ff" points="590.76,-155.26 597.73,-147.29 587.3,-149.18 590.76,-155.26"/>
</g>
</g>
</svg>
        <g id="navigator" transform="translate(0 0)" fill="#404254">
                <rect fill="#f2f5e9" fill-opacity="0.5" stroke="#606060" stroke-width=".5" x="0" y="0" width="60" height="60"/>
                <use id="zoomplus" xlink:href="#zoomPlus" x="17" y="9" onmousedown="handleZoom(evt,'in')"/>
                <use id="zoomminus" xlink:href="#zoomMin" x="42" y="9" onmousedown="handleZoom(evt,'out')"/>
                <use id="reset" xlink:href="#resetDef" x="30" y="36" onmousedown="handleReset()"/>
                <g id="arrowUp" xlink:href="#dirArrow" transform="translate(30 24)" onmousedown="handlePan(0,-1)">
                  <use xlink:href="#rim" fill="#404040">
                        <set attributeName="fill" to="#808080" begin="arrowUp.mouseover" end="arrowUp.mouseout"/>
                  </use>
                  <path fill="none" stroke="white" stroke-width="1.5" d="M0,-3.0v7 M-2.5,-0.5L0,-3.0L2.5,-0.5"/>
                </g>
                <g id="arrowRight" xlink:href="#dirArrow" transform="rotate(90) translate(36 -43)" onmousedown="handlePan(1,0)">
                  <use xlink:href="#rim" fill="#404040">
                        <set attributeName="fill" to="#808080" begin="arrowRight.mouseover" end="arrowRight.mouseout"/>
                  </use>
                  <path fill="none" stroke="white" stroke-width="1.5" d="M0,-3.0v7 M-2.5,-0.5L0,-3.0L2.5,-0.5"/>
                </g>
                <g id="arrowDown" xlink:href="#dirArrow" transform="rotate(180) translate(-30 -48)" onmousedown="handlePan(0,1)">
                  <use xlink:href="#rim" fill="#404040">
                        <set attributeName="fill" to="#808080" begin="arrowDown.mouseover" end="arrowDown.mouseout"/>
                  </use>
                  <path fill="none" stroke="white" stroke-width="1.5" d="M0,-3.0v7 M-2.5,-0.5L0,-3.0L2.5,-0.5"/>
                </g>
                <g id="arrowLeft" xlink:href="#dirArrow" transform="rotate(270) translate(-36 17)" onmousedown="handlePan(-1,0)">
                  <use xlink:href="#rim" fill="#404040">
                        <set attributeName="fill" to="#808080" begin="arrowLeft.mouseover" end="arrowLeft.mouseout"/>
                  </use>
                  <path fill="none" stroke="white" stroke-width="1.5" d="M0,-3.0v7 M-2.5,-0.5L0,-3.0L2.5,-0.5"/>
                </g>
        </g>
        <svg viewBox="0 0 15 15" width="100%" height="30px" preserveAspectRatio="xMaxYMin meet">
         <g id="arrow_out" transform="scale(0.3 0.3)">
          <a xlink:href="_composition_8hpp__incl_org.svg" target="_base">
           <rect id="button" ry="5" rx="5" y="6" x="6" height="38" width="38"
                fill="#f2f5e9" fill-opacity="0.5" stroke="#606060" stroke-width="1.0"/>
           <path id="arrow"
             d="M 11.500037,31.436501 C 11.940474,20.09759 22.043105,11.32322 32.158766,21.979434 L 37.068811,17.246167 C 37.068811,17.246167 37.088388,32 37.088388,32 L 22.160133,31.978069 C 22.160133,31.978069 26.997745,27.140456 26.997745,27.140456 C 18.528582,18.264221 13.291696,25.230495 11.500037,31.436501 z"
             style="fill:#404040;"/>
          </a>
         </g>
        </svg>
</svg>
