<?xml version="1.0" encoding="UTF-8" standalone="no"?>
<!DOCTYPE svg PUBLIC "-//W3C//DTD SVG 1.1//EN"
 "http://www.w3.org/Graphics/SVG/1.1/DTD/svg11.dtd">
<!-- Generated by graphviz version 8.0.5 (20230430.1635)
 -->
<!-- Title: Simple&#45;Utility/TypeTraits.hpp Pages: 1 -->
<svg width="216pt" height="155pt"
 viewBox="0.00 0.00 216.25 155.00" xmlns="http://www.w3.org/2000/svg" xmlns:xlink="http://www.w3.org/1999/xlink">
<g id="graph0" class="graph" transform="scale(1 1) rotate(0) translate(4 151)">
<title>Simple&#45;Utility/TypeTraits.hpp</title>
<!-- Node1 -->
<g id="node1" class="node">
<title>Node1</title>
<g id="a_node1"><a xlink:title=" ">
<polygon fill="#999999" stroke="#666666" points="161.38,-147 12.62,-147 12.62,-126.25 161.38,-126.25 161.38,-147"/>
<text text-anchor="middle" x="87" y="-133.5" font-family="Helvetica,sans-Serif" font-size="10.00">Simple&#45;Utility/TypeTraits.hpp</text>
</a>
</g>
</g>
<!-- Node2 -->
<g id="node2" class="node">
<title>Node2</title>
<g id="a_node2"><a xlink:title=" ">
<polygon fill="#e0e0e0" stroke="#999999" points="64,-83.88 0,-83.88 0,-63.12 64,-63.12 64,-83.88"/>
<text text-anchor="middle" x="32" y="-70.38" font-family="Helvetica,sans-Serif" font-size="10.00">type_traits</text>
</a>
</g>
</g>
<!-- Node1&#45;&gt;Node2 -->
<g id="edge1" class="edge">
<title>Node1&#45;&gt;Node2</title>
<path fill="none" stroke="#63b8ff" d="M78.16,-125.8C70.02,-116.75 57.73,-103.1 47.88,-92.15"/>
<polygon fill="#63b8ff" stroke="#63b8ff" points="50.92,-90.19 41.63,-85.09 45.72,-94.87 50.92,-90.19"/>
</g>
<!-- Node3 -->
<g id="node3" class="node">
<title>Node3</title>
<g id="a_node3"><a xlink:href="../../dd/d5c/stl__extensions_8hpp.html" target="_top" xlink:title=" ">
<polygon fill="white" stroke="#666666" points="203.88,-90.25 82.12,-90.25 82.12,-56.75 203.88,-56.75 203.88,-90.25"/>
<text text-anchor="start" x="90.12" y="-76.75" font-family="Helvetica,sans-Serif" font-size="10.00">Simple&#45;Utility/concepts</text>
<text text-anchor="middle" x="143" y="-64" font-family="Helvetica,sans-Serif" font-size="10.00">/stl_extensions.hpp</text>
</a>
</g>
</g>
<!-- Node1&#45;&gt;Node3 -->
<g id="edge2" class="edge">
<title>Node1&#45;&gt;Node3</title>
<path fill="none" stroke="#63b8ff" d="M96,-125.8C102.69,-118.5 112.13,-108.19 120.8,-98.73"/>
<polygon fill="#63b8ff" stroke="#63b8ff" points="122.95,-101.47 127.13,-91.73 117.79,-96.74 122.95,-101.47"/>
</g>
<!-- Node4 -->
<g id="node4" class="node">
<title>Node4</title>
<g id="a_node4"><a xlink:title=" ">
<polygon fill="#e0e0e0" stroke="#999999" points="133.88,-20.75 78.12,-20.75 78.12,0 133.88,0 133.88,-20.75"/>
<text text-anchor="middle" x="106" y="-7.25" font-family="Helvetica,sans-Serif" font-size="10.00">compare</text>
</a>
</g>
</g>
<!-- Node3&#45;&gt;Node4 -->
<g id="edge3" class="edge">
<title>Node3&#45;&gt;Node4</title>
<path fill="none" stroke="#63b8ff" d="M133.28,-56.44C128.47,-48.49 122.63,-38.84 117.59,-30.52"/>
<polygon fill="#63b8ff" stroke="#63b8ff" points="120.13,-28.96 111.96,-22.22 114.14,-32.58 120.13,-28.96"/>
</g>
<!-- Node5 -->
<g id="node5" class="node">
<title>Node5</title>
<g id="a_node5"><a xlink:title=" ">
<polygon fill="#e0e0e0" stroke="#999999" points="208.25,-20.75 151.75,-20.75 151.75,0 208.25,0 208.25,-20.75"/>
<text text-anchor="middle" x="180" y="-7.25" font-family="Helvetica,sans-Serif" font-size="10.00">concepts</text>
</a>
</g>
</g>
<!-- Node3&#45;&gt;Node5 -->
<g id="edge4" class="edge">
<title>Node3&#45;&gt;Node5</title>
<path fill="none" stroke="#63b8ff" d="M152.72,-56.44C157.53,-48.49 163.37,-38.84 168.41,-30.52"/>
<polygon fill="#63b8ff" stroke="#63b8ff" points="171.86,-32.58 174.04,-22.22 165.87,-28.96 171.86,-32.58"/>
</g>
</g>
</svg>
