<?xml version="1.0" encoding="UTF-8" standalone="no"?>
<!DOCTYPE svg PUBLIC "-//W3C//DTD SVG 1.1//EN"
 "http://www.w3.org/Graphics/SVG/1.1/DTD/svg11.dtd">
<!-- Generated by graphviz version 8.0.5 (20230430.1635)
 -->
<!-- Title: Simple&#45;Utility/nullables/or_else.hpp Pages: 1 -->
<!--zoomable 376 -->
<svg id="main" version="1.1" xmlns="http://www.w3.org/2000/svg" xmlns:xlink="http://www.w3.org/1999/xlink" xml:space="preserve" onload="init(evt)">
<style type="text/css"><![CDATA[
.edge:hover path { stroke: red; }
.edge:hover polygon { stroke: red; fill: red; }
]]></style>
<script type="text/javascript"><![CDATA[
var edges = document.getElementsByTagName('g');
if (edges && edges.length) {
  for (var i=0;i<edges.length;i++) {
    if (edges[i].id.substr(0,4)=='edge') {
      edges[i].setAttribute('class','edge');
    }
  }
}
]]></script>
        <defs>
                <circle id="rim" cx="0" cy="0" r="7"/>
                <circle id="rim2" cx="0" cy="0" r="3.5"/>
                <g id="zoomPlus">
                        <use xlink:href="#rim" fill="#404040">
                                <set attributeName="fill" to="#808080" begin="zoomplus.mouseover" end="zoomplus.mouseout"/>
                        </use>
                        <path d="M-4,0h8M0,-4v8" fill="none" stroke="white" stroke-width="1.5" pointer-events="none"/>
                </g>
                <g id="zoomMin">
                        <use xlink:href="#rim" fill="#404040">
                                <set attributeName="fill" to="#808080" begin="zoomminus.mouseover" end="zoomminus.mouseout"/>
                        </use>
                        <path d="M-4,0h8" fill="none" stroke="white" stroke-width="1.5" pointer-events="none"/>
                </g>
                <g id="dirArrow">
                        <path fill="none" stroke="white" stroke-width="1.5" d="M0,-3.0v7 M-2.5,-0.5L0,-3.0L2.5,-0.5"/>
                </g>
               <g id="resetDef">
                       <use xlink:href="#rim2" fill="#404040">
                               <set attributeName="fill" to="#808080" begin="reset.mouseover" end="reset.mouseout"/>
                       </use>
               </g>
        </defs>

<script type="text/javascript">
var viewWidth = 988;
var viewHeight = 376;
var sectionId = 'dynsection-0';
</script>
<script xlink:href="../../svgpan.js"/>
<svg id="graph" class="graph">
<g id="viewport">
<title>Simple&#45;Utility/nullables/or_else.hpp</title>
<!-- Node1 -->
<g id="node1" class="node">
<title>Node1</title>
<g id="a_node1"><a xlink:title=" ">
<polygon fill="#999999" stroke="#666666" points="698.12,-368.25 575.62,-368.25 575.62,-334.75 698.12,-334.75 698.12,-368.25"/>
<text text-anchor="start" x="583.62" y="-354.75" font-family="Helvetica,sans-Serif" font-size="10.00">Simple&#45;Utility/nullables</text>
<text text-anchor="middle" x="636.88" y="-342" font-family="Helvetica,sans-Serif" font-size="10.00">/or_else.hpp</text>
</a>
</g>
</g>
<!-- Node2 -->
<g id="node2" class="node">
<title>Node2</title>
<g id="a_node2"><a xlink:href="../../d6/dbe/nullables_2base_8hpp.html" target="_top" xlink:title=" ">
<polygon fill="white" stroke="#666666" points="587.12,-298.75 464.62,-298.75 464.62,-265.25 587.12,-265.25 587.12,-298.75"/>
<text text-anchor="start" x="472.62" y="-285.25" font-family="Helvetica,sans-Serif" font-size="10.00">Simple&#45;Utility/nullables</text>
<text text-anchor="middle" x="525.88" y="-272.5" font-family="Helvetica,sans-Serif" font-size="10.00">/base.hpp</text>
</a>
</g>
</g>
<!-- Node1&#45;&gt;Node2 -->
<g id="edge1" class="edge">
<title>Node1&#45;&gt;Node2</title>
<path fill="none" stroke="#63b8ff" d="M610.29,-334.33C595.6,-325.4 577.16,-314.19 561.26,-304.52"/>
<polygon fill="#63b8ff" stroke="#63b8ff" points="563.61,-301.24 553.25,-299.04 559.97,-307.22 563.61,-301.24"/>
</g>
<!-- Node17 -->
<g id="node17" class="node">
<title>Node17</title>
<g id="a_node17"><a xlink:href="../../d6/deb/transform_8hpp.html" target="_top" xlink:title=" ">
<polygon fill="white" stroke="#666666" points="837.38,-298.75 710.38,-298.75 710.38,-265.25 837.38,-265.25 837.38,-298.75"/>
<text text-anchor="start" x="718.38" y="-285.25" font-family="Helvetica,sans-Serif" font-size="10.00">Simple&#45;Utility/functional</text>
<text text-anchor="middle" x="773.88" y="-272.5" font-family="Helvetica,sans-Serif" font-size="10.00">/transform.hpp</text>
</a>
</g>
</g>
<!-- Node1&#45;&gt;Node17 -->
<g id="edge27" class="edge">
<title>Node1&#45;&gt;Node17</title>
<path fill="none" stroke="#63b8ff" d="M669.69,-334.33C688.25,-325.19 711.65,-313.66 731.57,-303.84"/>
<polygon fill="#63b8ff" stroke="#63b8ff" points="732.9,-306.6 740.33,-299.04 729.81,-300.32 732.9,-306.6"/>
</g>
<!-- Node3 -->
<g id="node3" class="node">
<title>Node3</title>
<g id="a_node3"><a xlink:href="../../dd/d5c/stl__extensions_8hpp.html" target="_top" xlink:title=" ">
<polygon fill="white" stroke="#666666" points="173.75,-90.25 52,-90.25 52,-56.75 173.75,-56.75 173.75,-90.25"/>
<text text-anchor="start" x="60" y="-76.75" font-family="Helvetica,sans-Serif" font-size="10.00">Simple&#45;Utility/concepts</text>
<text text-anchor="middle" x="112.88" y="-64" font-family="Helvetica,sans-Serif" font-size="10.00">/stl_extensions.hpp</text>
</a>
</g>
</g>
<!-- Node2&#45;&gt;Node3 -->
<g id="edge2" class="edge">
<title>Node2&#45;&gt;Node3</title>
<path fill="none" stroke="#63b8ff" d="M493.47,-264.8C419.35,-227.74 237.54,-136.83 154.93,-95.53"/>
<polygon fill="#63b8ff" stroke="#63b8ff" points="156.64,-91.97 146.13,-90.63 153.51,-98.23 156.64,-91.97"/>
</g>
<!-- Node5 -->
<g id="node5" class="node">
<title>Node5</title>
<g id="a_node5"><a xlink:href="../../dd/dcd/operators_8hpp.html" target="_top" xlink:title=" ">
<polygon fill="white" stroke="#666666" points="121.75,-159.75 0,-159.75 0,-126.25 121.75,-126.25 121.75,-159.75"/>
<text text-anchor="start" x="8" y="-146.25" font-family="Helvetica,sans-Serif" font-size="10.00">Simple&#45;Utility/concepts</text>
<text text-anchor="middle" x="60.88" y="-133.5" font-family="Helvetica,sans-Serif" font-size="10.00">/operators.hpp</text>
</a>
</g>
</g>
<!-- Node2&#45;&gt;Node5 -->
<g id="edge4" class="edge">
<title>Node2&#45;&gt;Node5</title>
<path fill="none" stroke="#63b8ff" d="M464.27,-270.84C414.31,-261.92 342.34,-247.52 280.88,-229.25 219.63,-211.04 151.33,-183.37 107.32,-164.53"/>
<polygon fill="#63b8ff" stroke="#63b8ff" points="108.79,-160.92 98.22,-160.18 106.02,-167.35 108.79,-160.92"/>
</g>
<!-- Node6 -->
<g id="node6" class="node">
<title>Node6</title>
<g id="a_node6"><a xlink:href="../../d1/d76/functional_2base_8hpp.html" target="_top" xlink:title=" ">
<polygon fill="white" stroke="#666666" points="523.38,-159.75 396.38,-159.75 396.38,-126.25 523.38,-126.25 523.38,-159.75"/>
<text text-anchor="start" x="404.38" y="-146.25" font-family="Helvetica,sans-Serif" font-size="10.00">Simple&#45;Utility/functional</text>
<text text-anchor="middle" x="459.88" y="-133.5" font-family="Helvetica,sans-Serif" font-size="10.00">/base.hpp</text>
</a>
</g>
</g>
<!-- Node2&#45;&gt;Node6 -->
<g id="edge6" class="edge">
<title>Node2&#45;&gt;Node6</title>
<path fill="none" stroke="#63b8ff" d="M498.19,-264.88C485.73,-256.05 472.19,-243.91 464.88,-229.25 455.86,-211.19 455.02,-188.22 456.21,-170.68"/>
<polygon fill="#63b8ff" stroke="#63b8ff" points="459.76,-171.32 457.22,-161.04 452.79,-170.66 459.76,-171.32"/>
</g>
<!-- Node8 -->
<g id="node8" class="node">
<title>Node8</title>
<g id="a_node8"><a xlink:title=" ">
<polygon fill="#e0e0e0" stroke="#999999" points="786.88,-20.75 722.88,-20.75 722.88,0 786.88,0 786.88,-20.75"/>
<text text-anchor="middle" x="754.88" y="-7.25" font-family="Helvetica,sans-Serif" font-size="10.00">type_traits</text>
</a>
</g>
</g>
<!-- Node2&#45;&gt;Node8 -->
<g id="edge26" class="edge">
<title>Node2&#45;&gt;Node8</title>
<path fill="none" stroke="#63b8ff" d="M541.44,-264.9C563.69,-241.93 602.71,-201.84 609.88,-195.75 671.7,-143.2 721.6,-162.32 758.88,-90.25 768.39,-71.85 765.28,-47.68 761.13,-30.97"/>
<polygon fill="#63b8ff" stroke="#63b8ff" points="764.33,-30.43 758.24,-21.76 757.6,-32.34 764.33,-30.43"/>
</g>
<!-- Node10 -->
<g id="node10" class="node">
<title>Node10</title>
<g id="a_node10"><a xlink:href="../../d4/d1c/unified__base_8hpp.html" target="_top" xlink:title=" ">
<polygon fill="white" stroke="#666666" points="749.88,-90.25 637.88,-90.25 637.88,-56.75 749.88,-56.75 749.88,-90.25"/>
<text text-anchor="start" x="645.88" y="-76.75" font-family="Helvetica,sans-Serif" font-size="10.00">Simple&#45;Utility/unified</text>
<text text-anchor="middle" x="693.88" y="-64" font-family="Helvetica,sans-Serif" font-size="10.00">_base.hpp</text>
</a>
</g>
</g>
<!-- Node2&#45;&gt;Node10 -->
<g id="edge24" class="edge">
<title>Node2&#45;&gt;Node10</title>
<path fill="none" stroke="#63b8ff" d="M533.83,-264.88C542.91,-247.17 558.72,-218.27 575.88,-195.75 604.03,-158.81 642.42,-121.24 667.66,-97.92"/>
<polygon fill="#63b8ff" stroke="#63b8ff" points="669.67,-100.91 674.69,-91.58 664.95,-95.74 669.67,-100.91"/>
</g>
<!-- Node12 -->
<g id="node12" class="node">
<title>Node12</title>
<g id="a_node12"><a xlink:href="../../d9/d76/bind_8hpp.html" target="_top" xlink:title=" ">
<polygon fill="white" stroke="#666666" points="745.38,-229.25 618.38,-229.25 618.38,-195.75 745.38,-195.75 745.38,-229.25"/>
<text text-anchor="start" x="626.38" y="-215.75" font-family="Helvetica,sans-Serif" font-size="10.00">Simple&#45;Utility/functional</text>
<text text-anchor="middle" x="681.88" y="-203" font-family="Helvetica,sans-Serif" font-size="10.00">/operators/bind.hpp</text>
</a>
</g>
</g>
<!-- Node2&#45;&gt;Node12 -->
<g id="edge17" class="edge">
<title>Node2&#45;&gt;Node12</title>
<path fill="none" stroke="#63b8ff" d="M563.24,-264.83C584.68,-255.56 611.79,-243.82 634.69,-233.92"/>
<polygon fill="#63b8ff" stroke="#63b8ff" points="635.76,-236.84 643.54,-229.65 632.98,-230.41 635.76,-236.84"/>
</g>
<!-- Node16 -->
<g id="node16" class="node">
<title>Node16</title>
<g id="a_node16"><a xlink:title=" ">
<polygon fill="#e0e0e0" stroke="#999999" points="523.75,-222.88 474,-222.88 474,-202.12 523.75,-202.12 523.75,-222.88"/>
<text text-anchor="middle" x="498.88" y="-209.38" font-family="Helvetica,sans-Serif" font-size="10.00">cstddef</text>
</a>
</g>
</g>
<!-- Node2&#45;&gt;Node16 -->
<g id="edge25" class="edge">
<title>Node2&#45;&gt;Node16</title>
<path fill="none" stroke="#63b8ff" d="M519.48,-265C515.67,-255.5 510.82,-243.37 506.78,-233.27"/>
<polygon fill="#63b8ff" stroke="#63b8ff" points="509.77,-232.31 502.8,-224.32 503.27,-234.91 509.77,-232.31"/>
</g>
<!-- Node4 -->
<g id="node4" class="node">
<title>Node4</title>
<g id="a_node4"><a xlink:title=" ">
<polygon fill="#e0e0e0" stroke="#999999" points="275.12,-20.75 218.62,-20.75 218.62,0 275.12,0 275.12,-20.75"/>
<text text-anchor="middle" x="246.88" y="-7.25" font-family="Helvetica,sans-Serif" font-size="10.00">concepts</text>
</a>
</g>
</g>
<!-- Node3&#45;&gt;Node4 -->
<g id="edge3" class="edge">
<title>Node3&#45;&gt;Node4</title>
<path fill="none" stroke="#63b8ff" d="M148.43,-56.28C169.3,-46.76 195.42,-34.85 215.52,-25.68"/>
<polygon fill="#63b8ff" stroke="#63b8ff" points="216.77,-28.5 224.41,-21.17 213.86,-22.13 216.77,-28.5"/>
</g>
<!-- Node5&#45;&gt;Node4 -->
<g id="edge5" class="edge">
<title>Node5&#45;&gt;Node4</title>
<path fill="none" stroke="#63b8ff" d="M50.51,-126.06C39.85,-107.46 26.88,-76.69 42.88,-56.75 63.11,-31.51 154.13,-19.42 207.51,-14.4"/>
<polygon fill="#63b8ff" stroke="#63b8ff" points="207.64,-17.82 217.29,-13.44 207.02,-10.84 207.64,-17.82"/>
</g>
<!-- Node6&#45;&gt;Node3 -->
<g id="edge14" class="edge">
<title>Node6&#45;&gt;Node3</title>
<path fill="none" stroke="#63b8ff" d="M396.06,-130.21C340.89,-119.94 259.05,-104.49 187.88,-90.25 186.73,-90.02 185.58,-89.79 184.42,-89.56"/>
<polygon fill="#63b8ff" stroke="#63b8ff" points="185.34,-85.97 174.84,-87.4 183.95,-92.83 185.34,-85.97"/>
</g>
<!-- Node6&#45;&gt;Node4 -->
<g id="edge7" class="edge">
<title>Node6&#45;&gt;Node4</title>
<path fill="none" stroke="#63b8ff" d="M395.89,-137.05C332.72,-130.67 242.5,-117.06 220.88,-90.25 206.67,-72.64 219.65,-46.98 231.83,-29.75"/>
<polygon fill="#63b8ff" stroke="#63b8ff" points="235.09,-32.25 238.33,-22.16 229.5,-28.02 235.09,-32.25"/>
</g>
<!-- Node7 -->
<g id="node7" class="node">
<title>Node7</title>
<g id="a_node7"><a xlink:title=" ">
<polygon fill="#e0e0e0" stroke="#999999" points="431.75,-83.88 370,-83.88 370,-63.12 431.75,-63.12 431.75,-83.88"/>
<text text-anchor="middle" x="400.88" y="-70.38" font-family="Helvetica,sans-Serif" font-size="10.00">functional</text>
</a>
</g>
</g>
<!-- Node6&#45;&gt;Node7 -->
<g id="edge8" class="edge">
<title>Node6&#45;&gt;Node7</title>
<path fill="none" stroke="#63b8ff" d="M445.89,-126C437.05,-115.89 425.62,-102.81 416.48,-92.36"/>
<polygon fill="#63b8ff" stroke="#63b8ff" points="418.68,-90.55 409.46,-85.32 413.41,-95.15 418.68,-90.55"/>
</g>
<!-- Node6&#45;&gt;Node8 -->
<g id="edge9" class="edge">
<title>Node6&#45;&gt;Node8</title>
<path fill="none" stroke="#63b8ff" d="M512.85,-125.79C537.52,-117.08 566.68,-105.06 590.88,-90.25 610.08,-78.49 609.5,-68.21 628.88,-56.75 654.88,-41.37 686.95,-29.91 712.22,-22.36"/>
<polygon fill="#63b8ff" stroke="#63b8ff" points="712.97,-25.5 721.6,-19.36 711.02,-18.77 712.97,-25.5"/>
</g>
<!-- Node9 -->
<g id="node9" class="node">
<title>Node9</title>
<g id="a_node9"><a xlink:href="../../d8/dd2/_config_8hpp.html" target="_top" xlink:title=" ">
<polygon fill="white" stroke="#666666" points="582,-83.88 449.75,-83.88 449.75,-63.12 582,-63.12 582,-83.88"/>
<text text-anchor="middle" x="515.88" y="-70.38" font-family="Helvetica,sans-Serif" font-size="10.00">Simple&#45;Utility/Config.hpp</text>
</a>
</g>
</g>
<!-- Node6&#45;&gt;Node9 -->
<g id="edge10" class="edge">
<title>Node6&#45;&gt;Node9</title>
<path fill="none" stroke="#63b8ff" d="M473.15,-126C481.45,-115.99 492.17,-103.07 500.8,-92.67"/>
<polygon fill="#63b8ff" stroke="#63b8ff" points="504.04,-95.25 507.73,-85.32 498.65,-90.78 504.04,-95.25"/>
</g>
<!-- Node6&#45;&gt;Node10 -->
<g id="edge11" class="edge">
<title>Node6&#45;&gt;Node10</title>
<path fill="none" stroke="#63b8ff" d="M515.92,-125.83C549.52,-116.14 592.42,-103.77 627.68,-93.6"/>
<polygon fill="#63b8ff" stroke="#63b8ff" points="628.24,-96.79 636.88,-90.65 626.3,-90.06 628.24,-96.79"/>
</g>
<!-- Node11 -->
<g id="node11" class="node">
<title>Node11</title>
<g id="a_node11"><a xlink:href="../../d5/d8e/concepts_2utility_8hpp.html" target="_top" xlink:title=" ">
<polygon fill="white" stroke="#666666" points="351.75,-90.25 230,-90.25 230,-56.75 351.75,-56.75 351.75,-90.25"/>
<text text-anchor="start" x="238" y="-76.75" font-family="Helvetica,sans-Serif" font-size="10.00">Simple&#45;Utility/concepts</text>
<text text-anchor="middle" x="290.88" y="-64" font-family="Helvetica,sans-Serif" font-size="10.00">/utility.hpp</text>
</a>
</g>
</g>
<!-- Node6&#45;&gt;Node11 -->
<g id="edge15" class="edge">
<title>Node6&#45;&gt;Node11</title>
<path fill="none" stroke="#63b8ff" d="M419.4,-125.83C395.96,-116.47 366.27,-104.61 341.33,-94.65"/>
<polygon fill="#63b8ff" stroke="#63b8ff" points="342.9,-91.11 332.32,-90.65 340.31,-97.61 342.9,-91.11"/>
</g>
<!-- Node10&#45;&gt;Node4 -->
<g id="edge12" class="edge">
<title>Node10&#45;&gt;Node4</title>
<path fill="none" stroke="#63b8ff" d="M637.51,-63.67C622.37,-61.35 606.01,-58.9 590.88,-56.75 480.61,-41.05 350.17,-24.36 286.22,-16.3"/>
<polygon fill="#63b8ff" stroke="#63b8ff" points="286.8,-12.72 276.44,-14.94 285.93,-19.66 286.8,-12.72"/>
</g>
<!-- Node10&#45;&gt;Node8 -->
<g id="edge13" class="edge">
<title>Node10&#45;&gt;Node8</title>
<path fill="none" stroke="#63b8ff" d="M709.9,-56.44C718.36,-47.97 728.74,-37.56 737.4,-28.89"/>
<polygon fill="#63b8ff" stroke="#63b8ff" points="739.47,-31.77 744.05,-22.22 734.51,-26.82 739.47,-31.77"/>
</g>
<!-- Node11&#45;&gt;Node4 -->
<g id="edge16" class="edge">
<title>Node11&#45;&gt;Node4</title>
<path fill="none" stroke="#63b8ff" d="M279.31,-56.44C273.47,-48.32 266.34,-38.42 260.26,-29.97"/>
<polygon fill="#63b8ff" stroke="#63b8ff" points="262.64,-28.29 253.96,-22.22 256.96,-32.38 262.64,-28.29"/>
</g>
<!-- Node12&#45;&gt;Node6 -->
<g id="edge18" class="edge">
<title>Node12&#45;&gt;Node6</title>
<path fill="none" stroke="#63b8ff" d="M628.7,-195.33C596.96,-185.68 556.48,-173.37 523.11,-163.23"/>
<polygon fill="#63b8ff" stroke="#63b8ff" points="524.59,-159.71 514,-160.15 522.55,-166.41 524.59,-159.71"/>
</g>
<!-- Node13 -->
<g id="node13" class="node">
<title>Node13</title>
<g id="a_node13"><a xlink:href="../../d2/d30/general_8hpp.html" target="_top" xlink:title=" ">
<polygon fill="white" stroke="#666666" points="954.12,-159.75 849.62,-159.75 849.62,-126.25 954.12,-126.25 954.12,-159.75"/>
<text text-anchor="start" x="857.62" y="-146.25" font-family="Helvetica,sans-Serif" font-size="10.00">Simple&#45;Utility/tuple</text>
<text text-anchor="middle" x="901.88" y="-133.5" font-family="Helvetica,sans-Serif" font-size="10.00">/general.hpp</text>
</a>
</g>
</g>
<!-- Node12&#45;&gt;Node13 -->
<g id="edge19" class="edge">
<title>Node12&#45;&gt;Node13</title>
<path fill="none" stroke="#63b8ff" d="M734.57,-195.33C765.89,-185.72 805.8,-173.48 838.78,-163.36"/>
<polygon fill="#63b8ff" stroke="#63b8ff" points="839.7,-166.43 848.23,-160.15 837.64,-159.74 839.7,-166.43"/>
</g>
<!-- Node13&#45;&gt;Node4 -->
<g id="edge20" class="edge">
<title>Node13&#45;&gt;Node4</title>
<path fill="none" stroke="#63b8ff" d="M877.81,-125.85C843.93,-103.44 783.56,-64.74 758.88,-56.75 671.01,-28.31 390.5,-16.2 286.32,-12.6"/>
<polygon fill="#63b8ff" stroke="#63b8ff" points="286.48,-9.07 276.37,-12.23 286.25,-16.07 286.48,-9.07"/>
</g>
<!-- Node13&#45;&gt;Node8 -->
<g id="edge22" class="edge">
<title>Node13&#45;&gt;Node8</title>
<path fill="none" stroke="#63b8ff" d="M890.74,-125.87C877.62,-107.64 854.48,-77.76 829.88,-56.75 816.05,-44.95 798.8,-34.28 784.33,-26.26"/>
<polygon fill="#63b8ff" stroke="#63b8ff" points="786.3,-22.8 775.83,-21.15 782.98,-28.97 786.3,-22.8"/>
</g>
<!-- Node14 -->
<g id="node14" class="node">
<title>Node14</title>
<g id="a_node14"><a xlink:title=" ">
<polygon fill="#e0e0e0" stroke="#999999" points="921.5,-83.88 882.25,-83.88 882.25,-63.12 921.5,-63.12 921.5,-83.88"/>
<text text-anchor="middle" x="901.88" y="-70.38" font-family="Helvetica,sans-Serif" font-size="10.00">tuple</text>
</a>
</g>
</g>
<!-- Node13&#45;&gt;Node14 -->
<g id="edge21" class="edge">
<title>Node13&#45;&gt;Node14</title>
<path fill="none" stroke="#63b8ff" d="M901.88,-126C901.88,-116.8 901.88,-105.14 901.88,-95.24"/>
<polygon fill="#63b8ff" stroke="#63b8ff" points="905.38,-95.32 901.88,-85.32 898.38,-95.32 905.38,-95.32"/>
</g>
<!-- Node15 -->
<g id="node15" class="node">
<title>Node15</title>
<g id="a_node15"><a xlink:title=" ">
<polygon fill="#e0e0e0" stroke="#999999" points="980.25,-83.88 939.5,-83.88 939.5,-63.12 980.25,-63.12 980.25,-83.88"/>
<text text-anchor="middle" x="959.88" y="-70.38" font-family="Helvetica,sans-Serif" font-size="10.00">utility</text>
</a>
</g>
</g>
<!-- Node13&#45;&gt;Node15 -->
<g id="edge23" class="edge">
<title>Node13&#45;&gt;Node15</title>
<path fill="none" stroke="#63b8ff" d="M915.62,-126C924.31,-115.89 935.55,-102.81 944.53,-92.36"/>
<polygon fill="#63b8ff" stroke="#63b8ff" points="947.57,-95.19 951.44,-85.32 942.26,-90.63 947.57,-95.19"/>
</g>
<!-- Node17&#45;&gt;Node6 -->
<g id="edge29" class="edge">
<title>Node17&#45;&gt;Node6</title>
<path fill="none" stroke="#63b8ff" d="M775.18,-264.97C775.8,-245.68 773.62,-213.66 754.88,-195.75 723.99,-166.25 611.27,-153.3 534.46,-147.81"/>
<polygon fill="#63b8ff" stroke="#63b8ff" points="535.09,-144.27 524.87,-147.08 534.61,-151.26 535.09,-144.27"/>
</g>
<!-- Node17&#45;&gt;Node10 -->
<g id="edge28" class="edge">
<title>Node17&#45;&gt;Node10</title>
<path fill="none" stroke="#63b8ff" d="M837.72,-272.03C895.89,-260.99 968.54,-238.25 938.88,-195.75 912.32,-157.7 882.88,-179.46 840.88,-159.75 800.63,-140.86 756.83,-114.67 727.6,-96.32"/>
<polygon fill="#63b8ff" stroke="#63b8ff" points="729.97,-93.05 719.65,-90.66 726.23,-98.96 729.97,-93.05"/>
</g>
<!-- Node17&#45;&gt;Node12 -->
<g id="edge30" class="edge">
<title>Node17&#45;&gt;Node12</title>
<path fill="none" stroke="#63b8ff" d="M752.07,-265C740.24,-256.32 725.43,-245.46 712.46,-235.94"/>
<polygon fill="#63b8ff" stroke="#63b8ff" points="714.97,-232.71 704.84,-229.62 710.83,-238.35 714.97,-232.71"/>
</g>
<!-- Node18 -->
<g id="node18" class="node">
<title>Node18</title>
<g id="a_node18"><a xlink:href="../../d5/db7/pipe_8hpp.html" target="_top" xlink:title=" ">
<polygon fill="white" stroke="#666666" points="929.38,-229.25 802.38,-229.25 802.38,-195.75 929.38,-195.75 929.38,-229.25"/>
<text text-anchor="start" x="810.38" y="-215.75" font-family="Helvetica,sans-Serif" font-size="10.00">Simple&#45;Utility/functional</text>
<text text-anchor="middle" x="865.88" y="-203" font-family="Helvetica,sans-Serif" font-size="10.00">/operators/pipe.hpp</text>
</a>
</g>
</g>
<!-- Node17&#45;&gt;Node18 -->
<g id="edge31" class="edge">
<title>Node17&#45;&gt;Node18</title>
<path fill="none" stroke="#63b8ff" d="M795.68,-265C807.51,-256.32 822.32,-245.46 835.29,-235.94"/>
<polygon fill="#63b8ff" stroke="#63b8ff" points="836.92,-238.35 842.91,-229.62 832.78,-232.71 836.92,-238.35"/>
</g>
<!-- Node18&#45;&gt;Node6 -->
<g id="edge32" class="edge">
<title>Node18&#45;&gt;Node6</title>
<path fill="none" stroke="#63b8ff" d="M802.07,-198.38C797.27,-197.47 792.5,-196.58 787.88,-195.75 701.21,-180.17 601.19,-164.76 534.61,-154.86"/>
<polygon fill="#63b8ff" stroke="#63b8ff" points="535.22,-151.26 524.81,-153.26 534.19,-158.19 535.22,-151.26"/>
</g>
<!-- Node18&#45;&gt;Node13 -->
<g id="edge33" class="edge">
<title>Node18&#45;&gt;Node13</title>
<path fill="none" stroke="#63b8ff" d="M874.41,-195.5C878.58,-187.69 883.69,-178.09 888.38,-169.31"/>
<polygon fill="#63b8ff" stroke="#63b8ff" points="891.79,-171.35 893.4,-160.88 885.61,-168.06 891.79,-171.35"/>
</g>
</g>
</svg>
        <g id="navigator" transform="translate(0 0)" fill="#404254">
                <rect fill="#f2f5e9" fill-opacity="0.5" stroke="#606060" stroke-width=".5" x="0" y="0" width="60" height="60"/>
                <use id="zoomplus" xlink:href="#zoomPlus" x="17" y="9" onmousedown="handleZoom(evt,'in')"/>
                <use id="zoomminus" xlink:href="#zoomMin" x="42" y="9" onmousedown="handleZoom(evt,'out')"/>
                <use id="reset" xlink:href="#resetDef" x="30" y="36" onmousedown="handleReset()"/>
                <g id="arrowUp" xlink:href="#dirArrow" transform="translate(30 24)" onmousedown="handlePan(0,-1)">
                  <use xlink:href="#rim" fill="#404040">
                        <set attributeName="fill" to="#808080" begin="arrowUp.mouseover" end="arrowUp.mouseout"/>
                  </use>
                  <path fill="none" stroke="white" stroke-width="1.5" d="M0,-3.0v7 M-2.5,-0.5L0,-3.0L2.5,-0.5"/>
                </g>
                <g id="arrowRight" xlink:href="#dirArrow" transform="rotate(90) translate(36 -43)" onmousedown="handlePan(1,0)">
                  <use xlink:href="#rim" fill="#404040">
                        <set attributeName="fill" to="#808080" begin="arrowRight.mouseover" end="arrowRight.mouseout"/>
                  </use>
                  <path fill="none" stroke="white" stroke-width="1.5" d="M0,-3.0v7 M-2.5,-0.5L0,-3.0L2.5,-0.5"/>
                </g>
                <g id="arrowDown" xlink:href="#dirArrow" transform="rotate(180) translate(-30 -48)" onmousedown="handlePan(0,1)">
                  <use xlink:href="#rim" fill="#404040">
                        <set attributeName="fill" to="#808080" begin="arrowDown.mouseover" end="arrowDown.mouseout"/>
                  </use>
                  <path fill="none" stroke="white" stroke-width="1.5" d="M0,-3.0v7 M-2.5,-0.5L0,-3.0L2.5,-0.5"/>
                </g>
                <g id="arrowLeft" xlink:href="#dirArrow" transform="rotate(270) translate(-36 17)" onmousedown="handlePan(-1,0)">
                  <use xlink:href="#rim" fill="#404040">
                        <set attributeName="fill" to="#808080" begin="arrowLeft.mouseover" end="arrowLeft.mouseout"/>
                  </use>
                  <path fill="none" stroke="white" stroke-width="1.5" d="M0,-3.0v7 M-2.5,-0.5L0,-3.0L2.5,-0.5"/>
                </g>
        </g>
        <svg viewBox="0 0 15 15" width="100%" height="30px" preserveAspectRatio="xMaxYMin meet">
         <g id="arrow_out" transform="scale(0.3 0.3)">
          <a xlink:href="or__else_8hpp__incl_org.svg" target="_base">
           <rect id="button" ry="5" rx="5" y="6" x="6" height="38" width="38"
                fill="#f2f5e9" fill-opacity="0.5" stroke="#606060" stroke-width="1.0"/>
           <path id="arrow"
             d="M 11.500037,31.436501 C 11.940474,20.09759 22.043105,11.32322 32.158766,21.979434 L 37.068811,17.246167 C 37.068811,17.246167 37.088388,32 37.088388,32 L 22.160133,31.978069 C 22.160133,31.978069 26.997745,27.140456 26.997745,27.140456 C 18.528582,18.264221 13.291696,25.230495 11.500037,31.436501 z"
             style="fill:#404040;"/>
          </a>
         </g>
        </svg>
</svg>
