<?xml version="1.0" encoding="UTF-8" standalone="no"?>
<!DOCTYPE svg PUBLIC "-//W3C//DTD SVG 1.1//EN"
 "http://www.w3.org/Graphics/SVG/1.1/DTD/svg11.dtd">
<!-- Generated by graphviz version 8.0.5 (20230430.1635)
 -->
<!-- Title: Simple&#45;Utility/functional/Transform.hpp Pages: 1 -->
<svg width="590pt" height="168pt"
 viewBox="0.00 0.00 589.99 167.75" xmlns="http://www.w3.org/2000/svg" xmlns:xlink="http://www.w3.org/1999/xlink">
<g id="graph0" class="graph" transform="scale(1 1) rotate(0) translate(4 163.75)">
<title>Simple&#45;Utility/functional/Transform.hpp</title>
<!-- Node1 -->
<g id="node1" class="node">
<title>Node1</title>
<g id="a_node1"><a xlink:title=" ">
<polygon fill="#999999" stroke="#666666" points="291.99,-159.75 164.99,-159.75 164.99,-126.25 291.99,-126.25 291.99,-159.75"/>
<text text-anchor="start" x="172.99" y="-146.25" font-family="Helvetica,sans-Serif" font-size="10.00">Simple&#45;Utility/functional</text>
<text text-anchor="middle" x="228.49" y="-133.5" font-family="Helvetica,sans-Serif" font-size="10.00">/Transform.hpp</text>
</a>
</g>
</g>
<!-- Node2 -->
<g id="node2" class="node">
<title>Node2</title>
<g id="a_node2"><a xlink:href="../../d2/db4/functional_8hpp.html" target="_top" xlink:title=" ">
<polygon fill="white" stroke="#666666" points="302.11,-20.75 154.86,-20.75 154.86,0 302.11,0 302.11,-20.75"/>
<text text-anchor="middle" x="228.49" y="-7.25" font-family="Helvetica,sans-Serif" font-size="10.00">Simple&#45;Utility/functional.hpp</text>
</a>
</g>
</g>
<!-- Node1&#45;&gt;Node2 -->
<g id="edge1" class="edge">
<title>Node1&#45;&gt;Node2</title>
<path fill="none" stroke="#63b8ff" d="M153.78,-137.49C74.87,-129.9 -32.62,-109.75 10.49,-56.75 28.54,-34.56 98.58,-22.86 154.46,-16.94"/>
<polygon fill="#63b8ff" stroke="#63b8ff" points="153.43,-141.07 163.7,-138.48 154.06,-134.1 153.43,-141.07"/>
</g>
<!-- Node3 -->
<g id="node3" class="node">
<title>Node3</title>
<g id="a_node3"><a xlink:href="../../d3/dc2/_arithmetic_8hpp.html" target="_top" xlink:title=" ">
<polygon fill="white" stroke="#666666" points="146.99,-90.25 19.99,-90.25 19.99,-56.75 146.99,-56.75 146.99,-90.25"/>
<text text-anchor="start" x="27.99" y="-76.75" font-family="Helvetica,sans-Serif" font-size="10.00">Simple&#45;Utility/functional</text>
<text text-anchor="middle" x="83.49" y="-64" font-family="Helvetica,sans-Serif" font-size="10.00">/Arithmetic.hpp</text>
</a>
</g>
</g>
<!-- Node1&#45;&gt;Node3 -->
<g id="edge2" class="edge">
<title>Node1&#45;&gt;Node3</title>
<path fill="none" stroke="#63b8ff" d="M184.02,-121.3C162.85,-111.45 137.92,-99.84 118.18,-90.65"/>
<polygon fill="#63b8ff" stroke="#63b8ff" points="182.21,-124.78 192.75,-125.83 185.17,-118.44 182.21,-124.78"/>
</g>
<!-- Node4 -->
<g id="node4" class="node">
<title>Node4</title>
<g id="a_node4"><a xlink:href="../../d8/d60/_compare_8hpp.html" target="_top" xlink:title=" ">
<polygon fill="white" stroke="#666666" points="291.99,-90.25 164.99,-90.25 164.99,-56.75 291.99,-56.75 291.99,-90.25"/>
<text text-anchor="start" x="172.99" y="-76.75" font-family="Helvetica,sans-Serif" font-size="10.00">Simple&#45;Utility/functional</text>
<text text-anchor="middle" x="228.49" y="-64" font-family="Helvetica,sans-Serif" font-size="10.00">/Compare.hpp</text>
</a>
</g>
</g>
<!-- Node1&#45;&gt;Node4 -->
<g id="edge4" class="edge">
<title>Node1&#45;&gt;Node4</title>
<path fill="none" stroke="#63b8ff" d="M228.49,-115.14C228.49,-106.75 228.49,-97.76 228.49,-90.38"/>
<polygon fill="#63b8ff" stroke="#63b8ff" points="224.99,-115 228.49,-125 231.99,-115 224.99,-115"/>
</g>
<!-- Node5 -->
<g id="node5" class="node">
<title>Node5</title>
<g id="a_node5"><a xlink:href="../../da/dae/functional_2_tuple_8hpp.html" target="_top" xlink:title=" ">
<polygon fill="white" stroke="#666666" points="436.99,-90.25 309.99,-90.25 309.99,-56.75 436.99,-56.75 436.99,-90.25"/>
<text text-anchor="start" x="317.99" y="-76.75" font-family="Helvetica,sans-Serif" font-size="10.00">Simple&#45;Utility/functional</text>
<text text-anchor="middle" x="373.49" y="-64" font-family="Helvetica,sans-Serif" font-size="10.00">/Tuple.hpp</text>
</a>
</g>
</g>
<!-- Node1&#45;&gt;Node5 -->
<g id="edge6" class="edge">
<title>Node1&#45;&gt;Node5</title>
<path fill="none" stroke="#63b8ff" d="M272.95,-121.3C294.12,-111.45 319.05,-99.84 338.79,-90.65"/>
<polygon fill="#63b8ff" stroke="#63b8ff" points="271.81,-118.44 264.22,-125.83 274.76,-124.78 271.81,-118.44"/>
</g>
<!-- Node6 -->
<g id="node6" class="node">
<title>Node6</title>
<g id="a_node6"><a xlink:href="../../de/d61/functional_2_utility_8hpp.html" target="_top" xlink:title=" ">
<polygon fill="white" stroke="#666666" points="581.99,-90.25 454.99,-90.25 454.99,-56.75 581.99,-56.75 581.99,-90.25"/>
<text text-anchor="start" x="462.99" y="-76.75" font-family="Helvetica,sans-Serif" font-size="10.00">Simple&#45;Utility/functional</text>
<text text-anchor="middle" x="518.49" y="-64" font-family="Helvetica,sans-Serif" font-size="10.00">/Utility.hpp</text>
</a>
</g>
</g>
<!-- Node1&#45;&gt;Node6 -->
<g id="edge8" class="edge">
<title>Node1&#45;&gt;Node6</title>
<path fill="none" stroke="#63b8ff" d="M302.84,-124.69C349.75,-113.78 409.71,-99.82 454.49,-89.4"/>
<polygon fill="#63b8ff" stroke="#63b8ff" points="302.07,-121.51 293.13,-127.19 303.66,-128.33 302.07,-121.51"/>
</g>
<!-- Node3&#45;&gt;Node2 -->
<g id="edge3" class="edge">
<title>Node3&#45;&gt;Node2</title>
<path fill="none" stroke="#63b8ff" d="M131.9,-52.09C156.62,-41.67 185.55,-29.47 205.26,-21.17"/>
<polygon fill="#63b8ff" stroke="#63b8ff" points="130.82,-49.17 122.96,-56.28 133.54,-55.62 130.82,-49.17"/>
</g>
<!-- Node4&#45;&gt;Node2 -->
<g id="edge5" class="edge">
<title>Node4&#45;&gt;Node2</title>
<path fill="none" stroke="#63b8ff" d="M228.49,-45.52C228.49,-36.87 228.49,-27.82 228.49,-21.22"/>
<polygon fill="#63b8ff" stroke="#63b8ff" points="224.99,-45.44 228.49,-55.44 231.99,-45.44 224.99,-45.44"/>
</g>
<!-- Node5&#45;&gt;Node2 -->
<g id="edge7" class="edge">
<title>Node5&#45;&gt;Node2</title>
<path fill="none" stroke="#63b8ff" d="M325.07,-52.09C300.35,-41.67 271.42,-29.47 251.71,-21.17"/>
<polygon fill="#63b8ff" stroke="#63b8ff" points="323.43,-55.62 334.01,-56.28 326.15,-49.17 323.43,-55.62"/>
</g>
<!-- Node6&#45;&gt;Node2 -->
<g id="edge9" class="edge">
<title>Node6&#45;&gt;Node2</title>
<path fill="none" stroke="#63b8ff" d="M443.99,-56.23C381.04,-42.83 318.43,-29.86 276.57,-21.24"/>
<polygon fill="#63b8ff" stroke="#63b8ff" points="442.99,-59.81 453.5,-58.47 444.45,-52.96 442.99,-59.81"/>
</g>
</g>
</svg>
