<?xml version="1.0" encoding="UTF-8" standalone="no"?>
<!DOCTYPE svg PUBLIC "-//W3C//DTD SVG 1.1//EN"
 "http://www.w3.org/Graphics/SVG/1.1/DTD/svg11.dtd">
<!-- Generated by graphviz version 8.0.5 (20230430.1635)
 -->
<!-- Title: Simple&#45;Utility/functional/Compare.hpp Pages: 1 -->
<!--zoomable 572 -->
<svg id="main" version="1.1" xmlns="http://www.w3.org/2000/svg" xmlns:xlink="http://www.w3.org/1999/xlink" xml:space="preserve" onload="init(evt)">
<style type="text/css"><![CDATA[
.edge:hover path { stroke: red; }
.edge:hover polygon { stroke: red; fill: red; }
]]></style>
<script type="text/javascript"><![CDATA[
var edges = document.getElementsByTagName('g');
if (edges && edges.length) {
  for (var i=0;i<edges.length;i++) {
    if (edges[i].id.substr(0,4)=='edge') {
      edges[i].setAttribute('class','edge');
    }
  }
}
]]></script>
        <defs>
                <circle id="rim" cx="0" cy="0" r="7"/>
                <circle id="rim2" cx="0" cy="0" r="3.5"/>
                <g id="zoomPlus">
                        <use xlink:href="#rim" fill="#404040">
                                <set attributeName="fill" to="#808080" begin="zoomplus.mouseover" end="zoomplus.mouseout"/>
                        </use>
                        <path d="M-4,0h8M0,-4v8" fill="none" stroke="white" stroke-width="1.5" pointer-events="none"/>
                </g>
                <g id="zoomMin">
                        <use xlink:href="#rim" fill="#404040">
                                <set attributeName="fill" to="#808080" begin="zoomminus.mouseover" end="zoomminus.mouseout"/>
                        </use>
                        <path d="M-4,0h8" fill="none" stroke="white" stroke-width="1.5" pointer-events="none"/>
                </g>
                <g id="dirArrow">
                        <path fill="none" stroke="white" stroke-width="1.5" d="M0,-3.0v7 M-2.5,-0.5L0,-3.0L2.5,-0.5"/>
                </g>
               <g id="resetDef">
                       <use xlink:href="#rim2" fill="#404040">
                               <set attributeName="fill" to="#808080" begin="reset.mouseover" end="reset.mouseout"/>
                       </use>
               </g>
        </defs>

<script type="text/javascript">
var viewWidth = 1906;
var viewHeight = 572;
var sectionId = 'dynsection-0';
</script>
<script xlink:href="../../svgpan.js"/>
<svg id="graph" class="graph">
<g id="viewport">
<title>Simple&#45;Utility/functional/Compare.hpp</title>
<!-- Node1 -->
<g id="node1" class="node">
<title>Node1</title>
<g id="a_node1"><a xlink:title=" ">
<polygon fill="#999999" stroke="#666666" points="1061.83,-564 934.83,-564 934.83,-530.5 1061.83,-530.5 1061.83,-564"/>
<text text-anchor="start" x="942.83" y="-550.5" font-family="Helvetica,sans-Serif" font-size="10.00">Simple&#45;Utility/functional</text>
<text text-anchor="middle" x="998.33" y="-537.75" font-family="Helvetica,sans-Serif" font-size="10.00">/Compare.hpp</text>
</a>
</g>
</g>
<!-- Node2 -->
<g id="node2" class="node">
<title>Node2</title>
<g id="a_node2"><a xlink:href="../../dd/d5c/stl__extensions_8hpp.html" target="_top" xlink:title=" ">
<polygon fill="white" stroke="#666666" points="838.2,-216.5 716.45,-216.5 716.45,-183 838.2,-183 838.2,-216.5"/>
<text text-anchor="start" x="724.45" y="-203" font-family="Helvetica,sans-Serif" font-size="10.00">Simple&#45;Utility/concepts</text>
<text text-anchor="middle" x="777.33" y="-190.25" font-family="Helvetica,sans-Serif" font-size="10.00">/stl_extensions.hpp</text>
</a>
</g>
</g>
<!-- Node1&#45;&gt;Node2 -->
<g id="edge1" class="edge">
<title>Node1&#45;&gt;Node2</title>
<path fill="none" stroke="#63b8ff" d="M934.5,-546.54C764.35,-545.81 306.45,-533.61 213.33,-425 71.92,-260.08 524.05,-215.35 705.45,-204.19"/>
<polygon fill="#63b8ff" stroke="#63b8ff" points="705.44,-207.63 715.22,-203.54 705.03,-200.65 705.44,-207.63"/>
</g>
<!-- Node5 -->
<g id="node5" class="node">
<title>Node5</title>
<g id="a_node5"><a xlink:href="../../d4/d53/_predicate_8hpp.html" target="_top" xlink:title=" ">
<polygon fill="white" stroke="#666666" points="1061.83,-494.5 934.83,-494.5 934.83,-461 1061.83,-461 1061.83,-494.5"/>
<text text-anchor="start" x="942.83" y="-481" font-family="Helvetica,sans-Serif" font-size="10.00">Simple&#45;Utility/functional</text>
<text text-anchor="middle" x="998.33" y="-468.25" font-family="Helvetica,sans-Serif" font-size="10.00">/Predicate.hpp</text>
</a>
</g>
</g>
<!-- Node1&#45;&gt;Node5 -->
<g id="edge4" class="edge">
<title>Node1&#45;&gt;Node5</title>
<path fill="none" stroke="#63b8ff" d="M998.33,-530.25C998.33,-522.86 998.33,-513.87 998.33,-505.48"/>
<polygon fill="#63b8ff" stroke="#63b8ff" points="1001.83,-505.63 998.33,-495.63 994.83,-505.63 1001.83,-505.63"/>
</g>
<!-- Node26 -->
<g id="node26" class="node">
<title>Node26</title>
<g id="a_node26"><a xlink:href="../../d9/d8c/_transform_8hpp.html" target="_top" xlink:title=" ">
<polygon fill="white" stroke="#666666" points="1291.83,-494.5 1164.83,-494.5 1164.83,-461 1291.83,-461 1291.83,-494.5"/>
<text text-anchor="start" x="1172.83" y="-481" font-family="Helvetica,sans-Serif" font-size="10.00">Simple&#45;Utility/functional</text>
<text text-anchor="middle" x="1228.33" y="-468.25" font-family="Helvetica,sans-Serif" font-size="10.00">/Transform.hpp</text>
</a>
</g>
</g>
<!-- Node1&#45;&gt;Node26 -->
<g id="edge75" class="edge">
<title>Node1&#45;&gt;Node26</title>
<path fill="none" stroke="#63b8ff" d="M1053.42,-530.08C1086.3,-520.43 1128.24,-508.12 1162.81,-497.98"/>
<polygon fill="#63b8ff" stroke="#63b8ff" points="1163.68,-501.08 1172.29,-494.9 1161.71,-494.36 1163.68,-501.08"/>
</g>
<!-- Node3 -->
<g id="node3" class="node">
<title>Node3</title>
<g id="a_node3"><a xlink:title=" ">
<polygon fill="#e0e0e0" stroke="#999999" points="838.2,-140.62 782.45,-140.62 782.45,-119.88 838.2,-119.88 838.2,-140.62"/>
<text text-anchor="middle" x="810.33" y="-127.12" font-family="Helvetica,sans-Serif" font-size="10.00">compare</text>
</a>
</g>
</g>
<!-- Node2&#45;&gt;Node3 -->
<g id="edge2" class="edge">
<title>Node2&#45;&gt;Node3</title>
<path fill="none" stroke="#63b8ff" d="M785.15,-182.75C789.84,-173.15 795.85,-160.86 800.82,-150.69"/>
<polygon fill="#63b8ff" stroke="#63b8ff" points="804.28,-152.59 805.52,-142.07 797.99,-149.52 804.28,-152.59"/>
</g>
<!-- Node4 -->
<g id="node4" class="node">
<title>Node4</title>
<g id="a_node4"><a xlink:title=" ">
<polygon fill="#e0e0e0" stroke="#999999" points="932.58,-20.75 876.08,-20.75 876.08,0 932.58,0 932.58,-20.75"/>
<text text-anchor="middle" x="904.33" y="-7.25" font-family="Helvetica,sans-Serif" font-size="10.00">concepts</text>
</a>
</g>
</g>
<!-- Node2&#45;&gt;Node4 -->
<g id="edge3" class="edge">
<title>Node2&#45;&gt;Node4</title>
<path fill="none" stroke="#63b8ff" d="M772.19,-182.74C767.42,-164.88 762.53,-135.6 773.33,-113.5 793.65,-71.88 840.04,-42.29 871.79,-26.01"/>
<polygon fill="#63b8ff" stroke="#63b8ff" points="873.11,-28.76 880.53,-21.19 870.01,-22.49 873.11,-28.76"/>
</g>
<!-- Node6 -->
<g id="node6" class="node">
<title>Node6</title>
<g id="a_node6"><a xlink:href="../../d8/d05/_basic_closure_8hpp.html" target="_top" xlink:title=" ">
<polygon fill="white" stroke="#666666" points="1211.83,-286 1084.83,-286 1084.83,-252.5 1211.83,-252.5 1211.83,-286"/>
<text text-anchor="start" x="1092.83" y="-272.5" font-family="Helvetica,sans-Serif" font-size="10.00">Simple&#45;Utility/functional</text>
<text text-anchor="middle" x="1148.33" y="-259.75" font-family="Helvetica,sans-Serif" font-size="10.00">/BasicClosure.hpp</text>
</a>
</g>
</g>
<!-- Node5&#45;&gt;Node6 -->
<g id="edge5" class="edge">
<title>Node5&#45;&gt;Node6</title>
<path fill="none" stroke="#63b8ff" d="M1010.1,-460.55C1036.22,-424.58 1099.19,-337.9 1130.3,-295.06"/>
<polygon fill="#63b8ff" stroke="#63b8ff" points="1133.56,-297.53 1136.61,-287.38 1127.9,-293.41 1133.56,-297.53"/>
</g>
<!-- Node10 -->
<g id="node10" class="node">
<title>Node10</title>
<g id="a_node10"><a xlink:href="../../d7/d0e/_conjunction_8hpp.html" target="_top" xlink:title=" ">
<polygon fill="white" stroke="#666666" points="349.83,-425 222.83,-425 222.83,-391.5 349.83,-391.5 349.83,-425"/>
<text text-anchor="start" x="230.83" y="-411.5" font-family="Helvetica,sans-Serif" font-size="10.00">Simple&#45;Utility/functional</text>
<text text-anchor="middle" x="286.33" y="-398.75" font-family="Helvetica,sans-Serif" font-size="10.00">/mixins/Conjunction.hpp</text>
</a>
</g>
</g>
<!-- Node5&#45;&gt;Node10 -->
<g id="edge11" class="edge">
<title>Node5&#45;&gt;Node10</title>
<path fill="none" stroke="#63b8ff" d="M934.41,-474.43C820.8,-469.69 576.11,-456.68 361.1,-425.3"/>
<polygon fill="#63b8ff" stroke="#63b8ff" points="361.64,-421.7 351.23,-423.7 360.61,-428.62 361.64,-421.7"/>
</g>
<!-- Node20 -->
<g id="node20" class="node">
<title>Node20</title>
<g id="a_node20"><a xlink:href="../../d7/ddc/_disjunction_8hpp.html" target="_top" xlink:title=" ">
<polygon fill="white" stroke="#666666" points="494.83,-425 367.83,-425 367.83,-391.5 494.83,-391.5 494.83,-425"/>
<text text-anchor="start" x="375.83" y="-411.5" font-family="Helvetica,sans-Serif" font-size="10.00">Simple&#45;Utility/functional</text>
<text text-anchor="middle" x="431.33" y="-398.75" font-family="Helvetica,sans-Serif" font-size="10.00">/mixins/Disjunction.hpp</text>
</a>
</g>
</g>
<!-- Node5&#45;&gt;Node20 -->
<g id="edge42" class="edge">
<title>Node5&#45;&gt;Node20</title>
<path fill="none" stroke="#63b8ff" d="M934.39,-469.14C828.72,-456.56 618.19,-431.5 505.91,-418.13"/>
<polygon fill="#63b8ff" stroke="#63b8ff" points="506.38,-414.54 496.03,-416.83 505.55,-421.49 506.38,-414.54"/>
</g>
<!-- Node21 -->
<g id="node21" class="node">
<title>Node21</title>
<g id="a_node21"><a xlink:href="../../de/d71/_equality_8hpp.html" target="_top" xlink:title=" ">
<polygon fill="white" stroke="#666666" points="724.83,-425 597.83,-425 597.83,-391.5 724.83,-391.5 724.83,-425"/>
<text text-anchor="start" x="605.83" y="-411.5" font-family="Helvetica,sans-Serif" font-size="10.00">Simple&#45;Utility/functional</text>
<text text-anchor="middle" x="661.33" y="-398.75" font-family="Helvetica,sans-Serif" font-size="10.00">/mixins/Equality.hpp</text>
</a>
</g>
</g>
<!-- Node5&#45;&gt;Node21 -->
<g id="edge47" class="edge">
<title>Node5&#45;&gt;Node21</title>
<path fill="none" stroke="#63b8ff" d="M934.54,-463.97C877.93,-452.63 795.19,-436.06 735.6,-424.13"/>
<polygon fill="#63b8ff" stroke="#63b8ff" points="736.63,-420.56 726.13,-422.03 735.25,-427.43 736.63,-420.56"/>
</g>
<!-- Node22 -->
<g id="node22" class="node">
<title>Node22</title>
<g id="a_node22"><a xlink:href="../../d7/df7/_invoke_policies_8hpp.html" target="_top" xlink:title=" ">
<polygon fill="white" stroke="#666666" points="1658.33,-355.5 1522.33,-355.5 1522.33,-322 1658.33,-322 1658.33,-355.5"/>
<text text-anchor="start" x="1530.33" y="-342" font-family="Helvetica,sans-Serif" font-size="10.00">Simple&#45;Utility/functional</text>
<text text-anchor="middle" x="1590.33" y="-329.25" font-family="Helvetica,sans-Serif" font-size="10.00">/mixins/InvokePolicies.hpp</text>
</a>
</g>
</g>
<!-- Node5&#45;&gt;Node22 -->
<g id="edge53" class="edge">
<title>Node5&#45;&gt;Node22</title>
<path fill="none" stroke="#63b8ff" d="M1062.16,-464.75C1114.06,-454.77 1189.11,-439.85 1254.33,-425 1346.37,-404.03 1451.76,-376.75 1519.59,-358.77"/>
<polygon fill="#63b8ff" stroke="#63b8ff" points="1520.38,-361.92 1529.15,-355.97 1518.58,-355.15 1520.38,-361.92"/>
</g>
<!-- Node24 -->
<g id="node24" class="node">
<title>Node24</title>
<g id="a_node24"><a xlink:href="../../d2/dc2/_negation_8hpp.html" target="_top" xlink:title=" ">
<polygon fill="white" stroke="#666666" points="1061.83,-355.5 934.83,-355.5 934.83,-322 1061.83,-322 1061.83,-355.5"/>
<text text-anchor="start" x="942.83" y="-342" font-family="Helvetica,sans-Serif" font-size="10.00">Simple&#45;Utility/functional</text>
<text text-anchor="middle" x="998.33" y="-329.25" font-family="Helvetica,sans-Serif" font-size="10.00">/mixins/Negation.hpp</text>
</a>
</g>
</g>
<!-- Node5&#45;&gt;Node24 -->
<g id="edge63" class="edge">
<title>Node5&#45;&gt;Node24</title>
<path fill="none" stroke="#63b8ff" d="M998.33,-460.77C998.33,-437.67 998.33,-394.66 998.33,-366.63"/>
<polygon fill="#63b8ff" stroke="#63b8ff" points="1001.83,-366.63 998.33,-356.63 994.83,-366.63 1001.83,-366.63"/>
</g>
<!-- Node25 -->
<g id="node25" class="node">
<title>Node25</title>
<g id="a_node25"><a xlink:href="../../d2/df5/_pipe_8hpp.html" target="_top" xlink:title=" ">
<polygon fill="white" stroke="#666666" points="1245.83,-425 1118.83,-425 1118.83,-391.5 1245.83,-391.5 1245.83,-425"/>
<text text-anchor="start" x="1126.83" y="-411.5" font-family="Helvetica,sans-Serif" font-size="10.00">Simple&#45;Utility/functional</text>
<text text-anchor="middle" x="1182.33" y="-398.75" font-family="Helvetica,sans-Serif" font-size="10.00">/mixins/Pipe.hpp</text>
</a>
</g>
</g>
<!-- Node5&#45;&gt;Node25 -->
<g id="edge68" class="edge">
<title>Node5&#45;&gt;Node25</title>
<path fill="none" stroke="#63b8ff" d="M1042.4,-460.58C1068.13,-451.14 1100.81,-439.15 1128.12,-429.14"/>
<polygon fill="#63b8ff" stroke="#63b8ff" points="1129.11,-432.13 1137.29,-425.4 1126.7,-425.56 1129.11,-432.13"/>
</g>
<!-- Node6&#45;&gt;Node2 -->
<g id="edge10" class="edge">
<title>Node6&#45;&gt;Node2</title>
<path fill="none" stroke="#63b8ff" d="M1084.55,-256.65C1019.06,-244.73 917.34,-226.22 849.08,-213.81"/>
<polygon fill="#63b8ff" stroke="#63b8ff" points="849.89,-210.21 839.42,-211.87 848.64,-217.1 849.89,-210.21"/>
</g>
<!-- Node6&#45;&gt;Node4 -->
<g id="edge6" class="edge">
<title>Node6&#45;&gt;Node4</title>
<path fill="none" stroke="#63b8ff" d="M1148.62,-252.32C1148.36,-221.96 1143.72,-155.16 1110.33,-113.5 1067.68,-60.3 990.24,-32.63 943.42,-20.1"/>
<polygon fill="#63b8ff" stroke="#63b8ff" points="944.33,-16.47 933.78,-17.38 942.6,-23.25 944.33,-16.47"/>
</g>
<!-- Node7 -->
<g id="node7" class="node">
<title>Node7</title>
<g id="a_node7"><a xlink:title=" ">
<polygon fill="#e0e0e0" stroke="#999999" points="1101.2,-140.62 1039.45,-140.62 1039.45,-119.88 1101.2,-119.88 1101.2,-140.62"/>
<text text-anchor="middle" x="1070.33" y="-127.12" font-family="Helvetica,sans-Serif" font-size="10.00">functional</text>
</a>
</g>
</g>
<!-- Node6&#45;&gt;Node7 -->
<g id="edge7" class="edge">
<title>Node6&#45;&gt;Node7</title>
<path fill="none" stroke="#63b8ff" d="M1139.23,-252.27C1124.76,-226.86 1096.57,-177.35 1081.11,-150.19"/>
<polygon fill="#63b8ff" stroke="#63b8ff" points="1083.85,-148.94 1075.86,-141.98 1077.77,-152.4 1083.85,-148.94"/>
</g>
<!-- Node8 -->
<g id="node8" class="node">
<title>Node8</title>
<g id="a_node8"><a xlink:title=" ">
<polygon fill="#e0e0e0" stroke="#999999" points="1544.33,-20.75 1480.33,-20.75 1480.33,0 1544.33,0 1544.33,-20.75"/>
<text text-anchor="middle" x="1512.33" y="-7.25" font-family="Helvetica,sans-Serif" font-size="10.00">type_traits</text>
</a>
</g>
</g>
<!-- Node6&#45;&gt;Node8 -->
<g id="edge8" class="edge">
<title>Node6&#45;&gt;Node8</title>
<path fill="none" stroke="#63b8ff" d="M1171.1,-252.18C1236.52,-206.01 1424.5,-73.35 1489.72,-27.33"/>
<polygon fill="#63b8ff" stroke="#63b8ff" points="1491.27,-29.81 1497.42,-21.19 1487.23,-24.09 1491.27,-29.81"/>
</g>
<!-- Node9 -->
<g id="node9" class="node">
<title>Node9</title>
<g id="a_node9"><a xlink:title=" ">
<polygon fill="#e0e0e0" stroke="#999999" points="1823.7,-20.75 1782.95,-20.75 1782.95,0 1823.7,0 1823.7,-20.75"/>
<text text-anchor="middle" x="1803.33" y="-7.25" font-family="Helvetica,sans-Serif" font-size="10.00">utility</text>
</a>
</g>
</g>
<!-- Node6&#45;&gt;Node9 -->
<g id="edge9" class="edge">
<title>Node6&#45;&gt;Node9</title>
<path fill="none" stroke="#63b8ff" d="M1212.24,-253.87C1214.97,-253.38 1217.67,-252.92 1220.33,-252.5 1377.81,-227.42 1425.86,-266.4 1577.33,-216.5 1634.77,-197.57 1648.65,-186.65 1694.33,-147 1735.57,-111.2 1772.92,-58.32 1791.31,-30.34"/>
<polygon fill="#63b8ff" stroke="#63b8ff" points="1794.71,-32.54 1797.2,-22.24 1788.83,-28.73 1794.71,-32.54"/>
</g>
<!-- Node10&#45;&gt;Node2 -->
<g id="edge14" class="edge">
<title>Node10&#45;&gt;Node2</title>
<path fill="none" stroke="#63b8ff" d="M296.51,-391.02C317.82,-358.58 370.56,-285.99 435.33,-252.5 481.11,-228.83 619.26,-213.63 705.33,-206.19"/>
<polygon fill="#63b8ff" stroke="#63b8ff" points="705.41,-209.61 715.07,-205.28 704.81,-202.64 705.41,-209.61"/>
</g>
<!-- Node10&#45;&gt;Node4 -->
<g id="edge12" class="edge">
<title>Node10&#45;&gt;Node4</title>
<path fill="none" stroke="#63b8ff" d="M241.84,-391.08C222.19,-382.5 199.67,-370.59 182.33,-355.5 119.43,-300.78 76.33,-284.12 76.33,-200.75 76.33,-200.75 76.33,-200.75 76.33,-129.25 76.33,-48.52 701.18,-19.1 865.26,-12.76"/>
<polygon fill="#63b8ff" stroke="#63b8ff" points="864.96,-16.24 874.82,-12.36 864.7,-9.24 864.96,-16.24"/>
</g>
<!-- Node11 -->
<g id="node11" class="node">
<title>Node11</title>
<g id="a_node11"><a xlink:title=" ">
<polygon fill="#e0e0e0" stroke="#999999" points="247.95,-20.75 208.7,-20.75 208.7,0 247.95,0 247.95,-20.75"/>
<text text-anchor="middle" x="228.33" y="-7.25" font-family="Helvetica,sans-Serif" font-size="10.00">tuple</text>
</a>
</g>
</g>
<!-- Node10&#45;&gt;Node11 -->
<g id="edge13" class="edge">
<title>Node10&#45;&gt;Node11</title>
<path fill="none" stroke="#63b8ff" d="M222.43,-402.24C154.37,-395.62 52.6,-381.61 24.33,-355.5 -4.59,-328.79 0.33,-309.61 0.33,-270.25 0.33,-270.25 0.33,-270.25 0.33,-129.25 0.33,-95.31 -0.85,-79.51 24.33,-56.75 49.48,-34.01 146.68,-20.28 197.29,-14.53"/>
<polygon fill="#63b8ff" stroke="#63b8ff" points="197.65,-17.91 207.21,-13.34 196.89,-10.95 197.65,-17.91"/>
</g>
<!-- Node12 -->
<g id="node12" class="node">
<title>Node12</title>
<g id="a_node12"><a xlink:href="../../d3/d48/_composition_8hpp.html" target="_top" xlink:title=" ">
<polygon fill="white" stroke="#666666" points="775.83,-355.5 648.83,-355.5 648.83,-322 775.83,-322 775.83,-355.5"/>
<text text-anchor="start" x="656.83" y="-342" font-family="Helvetica,sans-Serif" font-size="10.00">Simple&#45;Utility/functional</text>
<text text-anchor="middle" x="712.33" y="-329.25" font-family="Helvetica,sans-Serif" font-size="10.00">/Composition.hpp</text>
</a>
</g>
</g>
<!-- Node10&#45;&gt;Node12 -->
<g id="edge15" class="edge">
<title>Node10&#45;&gt;Node12</title>
<path fill="none" stroke="#63b8ff" d="M350.27,-393.02C352.99,-392.49 355.68,-391.98 358.33,-391.5 454.37,-374 565.93,-358.48 637.74,-349.11"/>
<polygon fill="#63b8ff" stroke="#63b8ff" points="638.01,-352.47 647.48,-347.71 637.11,-345.53 638.01,-352.47"/>
</g>
<!-- Node12&#45;&gt;Node2 -->
<g id="edge39" class="edge">
<title>Node12&#45;&gt;Node2</title>
<path fill="none" stroke="#63b8ff" d="M738.74,-321.63C750.86,-312.73 764.12,-300.52 771.33,-286 780.3,-267.9 781.43,-244.94 780.51,-227.4"/>
<polygon fill="#63b8ff" stroke="#63b8ff" points="783.95,-227.47 779.68,-217.77 776.97,-228.01 783.95,-227.47"/>
</g>
<!-- Node12&#45;&gt;Node4 -->
<g id="edge16" class="edge">
<title>Node12&#45;&gt;Node4</title>
<path fill="none" stroke="#63b8ff" d="M648.53,-335.38C562.06,-328.37 418.33,-301.55 418.33,-200.75 418.33,-200.75 418.33,-200.75 418.33,-129.25 418.33,-37.56 749.16,-16.93 864.91,-12.52"/>
<polygon fill="#63b8ff" stroke="#63b8ff" points="864.87,-15.98 874.74,-12.13 864.62,-8.99 864.87,-15.98"/>
</g>
<!-- Node12&#45;&gt;Node6 -->
<g id="edge40" class="edge">
<title>Node12&#45;&gt;Node6</title>
<path fill="none" stroke="#63b8ff" d="M776.19,-327.86C855.39,-315.6 990.15,-294.74 1073.93,-281.77"/>
<polygon fill="#63b8ff" stroke="#63b8ff" points="1074.3,-285.1 1083.64,-280.11 1073.23,-278.18 1074.3,-285.1"/>
</g>
<!-- Node12&#45;&gt;Node7 -->
<g id="edge17" class="edge">
<title>Node12&#45;&gt;Node7</title>
<path fill="none" stroke="#63b8ff" d="M775.94,-327.19C809.07,-319.55 849.07,-306.79 880.33,-286 929.98,-252.97 919.52,-219.96 966.33,-183 986.5,-167.07 1012.37,-154.17 1033.26,-145.24"/>
<polygon fill="#63b8ff" stroke="#63b8ff" points="1034.47,-148.11 1042.37,-141.05 1031.79,-141.64 1034.47,-148.11"/>
</g>
<!-- Node12&#45;&gt;Node8 -->
<g id="edge19" class="edge">
<title>Node12&#45;&gt;Node8</title>
<path fill="none" stroke="#63b8ff" d="M737.08,-321.67C752.5,-311.58 772.68,-298.2 790.33,-286 854.75,-241.45 869.71,-228.7 933.33,-183 976.4,-152.06 981.8,-134.9 1030.33,-113.5 1182.91,-46.23 1382.63,-22.19 1469.2,-14.55"/>
<polygon fill="#63b8ff" stroke="#63b8ff" points="1469.25,-17.97 1478.92,-13.64 1468.66,-11 1469.25,-17.97"/>
</g>
<!-- Node12&#45;&gt;Node11 -->
<g id="edge18" class="edge">
<title>Node12&#45;&gt;Node11</title>
<path fill="none" stroke="#63b8ff" d="M648.47,-331.54C576.8,-323.62 465.88,-308.24 430.33,-286 326.78,-221.22 258.91,-82.43 236.49,-31.04"/>
<polygon fill="#63b8ff" stroke="#63b8ff" points="239.43,-30.03 232.29,-22.21 232.99,-32.78 239.43,-30.03"/>
</g>
<!-- Node13 -->
<g id="node13" class="node">
<title>Node13</title>
<g id="a_node13"><a xlink:href="../../d8/dd2/_config_8hpp.html" target="_top" xlink:title=" ">
<polygon fill="white" stroke="#666666" points="762.45,-279.62 630.2,-279.62 630.2,-258.88 762.45,-258.88 762.45,-279.62"/>
<text text-anchor="middle" x="696.33" y="-266.12" font-family="Helvetica,sans-Serif" font-size="10.00">Simple&#45;Utility/Config.hpp</text>
</a>
</g>
</g>
<!-- Node12&#45;&gt;Node13 -->
<g id="edge20" class="edge">
<title>Node12&#45;&gt;Node13</title>
<path fill="none" stroke="#63b8ff" d="M708.53,-321.75C706.33,-312.45 703.53,-300.63 701.16,-290.66"/>
<polygon fill="#63b8ff" stroke="#63b8ff" points="704.37,-289.99 698.65,-281.07 697.55,-291.61 704.37,-289.99"/>
</g>
<!-- Node14 -->
<g id="node14" class="node">
<title>Node14</title>
<g id="a_node14"><a xlink:href="../../d5/d7b/_tuple_8hpp.html" target="_top" xlink:title=" ">
<polygon fill="white" stroke="#666666" points="1598.83,-279.62 1471.83,-279.62 1471.83,-258.88 1598.83,-258.88 1598.83,-279.62"/>
<text text-anchor="middle" x="1535.33" y="-266.12" font-family="Helvetica,sans-Serif" font-size="10.00">Simple&#45;Utility/Tuple.hpp</text>
</a>
</g>
</g>
<!-- Node12&#45;&gt;Node14 -->
<g id="edge21" class="edge">
<title>Node12&#45;&gt;Node14</title>
<path fill="none" stroke="#63b8ff" d="M776.21,-332.95C932.67,-321.18 1326.61,-291.45 1386.33,-286 1410.59,-283.79 1437.04,-281.08 1460.83,-278.55"/>
<polygon fill="#63b8ff" stroke="#63b8ff" points="1460.99,-281.94 1470.56,-277.4 1460.24,-274.98 1460.99,-281.94"/>
</g>
<!-- Node18 -->
<g id="node18" class="node">
<title>Node18</title>
<g id="a_node18"><a xlink:href="../../df/d2e/_type_list_8hpp.html" target="_top" xlink:title=" ">
<polygon fill="white" stroke="#666666" points="1717.83,-77.5 1578.83,-77.5 1578.83,-56.75 1717.83,-56.75 1717.83,-77.5"/>
<text text-anchor="middle" x="1648.33" y="-64" font-family="Helvetica,sans-Serif" font-size="10.00">Simple&#45;Utility/TypeList.hpp</text>
</a>
</g>
</g>
<!-- Node12&#45;&gt;Node18 -->
<g id="edge38" class="edge">
<title>Node12&#45;&gt;Node18</title>
<path fill="none" stroke="#63b8ff" d="M776.15,-332.68C818.45,-329.4 875.18,-325.18 925.33,-322 1001.17,-317.2 1551.16,-336.07 1608.33,-286 1665.71,-235.74 1658.18,-132.57 1651.88,-88.65"/>
<polygon fill="#63b8ff" stroke="#63b8ff" points="1655.21,-88.26 1650.19,-78.93 1648.29,-89.35 1655.21,-88.26"/>
</g>
<!-- Node19 -->
<g id="node19" class="node">
<title>Node19</title>
<g id="a_node19"><a xlink:href="../../d6/d50/_overloaded_8hpp.html" target="_top" xlink:title=" ">
<polygon fill="white" stroke="#666666" points="611.83,-286 484.83,-286 484.83,-252.5 611.83,-252.5 611.83,-286"/>
<text text-anchor="start" x="492.83" y="-272.5" font-family="Helvetica,sans-Serif" font-size="10.00">Simple&#45;Utility/functional</text>
<text text-anchor="middle" x="548.33" y="-259.75" font-family="Helvetica,sans-Serif" font-size="10.00">/Overloaded.hpp</text>
</a>
</g>
</g>
<!-- Node12&#45;&gt;Node19 -->
<g id="edge41" class="edge">
<title>Node12&#45;&gt;Node19</title>
<path fill="none" stroke="#63b8ff" d="M673.04,-321.58C650.41,-312.27 621.75,-300.47 597.61,-290.53"/>
<polygon fill="#63b8ff" stroke="#63b8ff" points="599.15,-286.97 588.57,-286.4 596.49,-293.45 599.15,-286.97"/>
</g>
<!-- Node15 -->
<g id="node15" class="node">
<title>Node15</title>
<g id="a_node15"><a xlink:href="../../dc/d83/_algorithm_8hpp.html" target="_top" xlink:title=" ">
<polygon fill="white" stroke="#666666" points="1568.58,-216.5 1464.08,-216.5 1464.08,-183 1568.58,-183 1568.58,-216.5"/>
<text text-anchor="start" x="1472.08" y="-203" font-family="Helvetica,sans-Serif" font-size="10.00">Simple&#45;Utility/tuple</text>
<text text-anchor="middle" x="1516.33" y="-190.25" font-family="Helvetica,sans-Serif" font-size="10.00">/Algorithm.hpp</text>
</a>
</g>
</g>
<!-- Node14&#45;&gt;Node15 -->
<g id="edge22" class="edge">
<title>Node14&#45;&gt;Node15</title>
<path fill="none" stroke="#63b8ff" d="M1532.6,-258.58C1530.31,-250.43 1526.92,-238.38 1523.82,-227.38"/>
<polygon fill="#63b8ff" stroke="#63b8ff" points="1526.96,-226.6 1520.88,-217.92 1520.22,-228.49 1526.96,-226.6"/>
</g>
<!-- Node17 -->
<g id="node17" class="node">
<title>Node17</title>
<g id="a_node17"><a xlink:href="../../dd/d5a/_general_8hpp.html" target="_top" xlink:title=" ">
<polygon fill="white" stroke="#666666" points="1625.58,-147 1521.08,-147 1521.08,-113.5 1625.58,-113.5 1625.58,-147"/>
<text text-anchor="start" x="1529.08" y="-133.5" font-family="Helvetica,sans-Serif" font-size="10.00">Simple&#45;Utility/tuple</text>
<text text-anchor="middle" x="1573.33" y="-120.75" font-family="Helvetica,sans-Serif" font-size="10.00">/General.hpp</text>
</a>
</g>
</g>
<!-- Node14&#45;&gt;Node17 -->
<g id="edge37" class="edge">
<title>Node14&#45;&gt;Node17</title>
<path fill="none" stroke="#63b8ff" d="M1546.78,-258.52C1557.01,-249.01 1571.29,-233.51 1577.33,-216.5 1583.99,-197.71 1582.54,-175.13 1579.67,-157.93"/>
<polygon fill="#63b8ff" stroke="#63b8ff" points="1582.99,-157.65 1577.65,-148.49 1576.12,-158.98 1582.99,-157.65"/>
</g>
<!-- Node15&#45;&gt;Node7 -->
<g id="edge24" class="edge">
<title>Node15&#45;&gt;Node7</title>
<path fill="none" stroke="#63b8ff" d="M1463.85,-190.81C1374.36,-177.26 1193.99,-149.97 1112.27,-137.6"/>
<polygon fill="#63b8ff" stroke="#63b8ff" points="1113.05,-134.03 1102.64,-135.99 1112.01,-140.95 1113.05,-134.03"/>
</g>
<!-- Node15&#45;&gt;Node8 -->
<g id="edge25" class="edge">
<title>Node15&#45;&gt;Node8</title>
<path fill="none" stroke="#63b8ff" d="M1514.78,-182.91C1513.87,-172.68 1512.79,-159.07 1512.33,-147 1510.75,-106.17 1511.31,-58.38 1511.83,-31.82"/>
<polygon fill="#63b8ff" stroke="#63b8ff" points="1515.35,-31.99 1512.07,-21.92 1508.36,-31.84 1515.35,-31.99"/>
</g>
<!-- Node16 -->
<g id="node16" class="node">
<title>Node16</title>
<g id="a_node16"><a xlink:title=" ">
<polygon fill="#e0e0e0" stroke="#999999" points="1750.83,-20.75 1689.83,-20.75 1689.83,0 1750.83,0 1750.83,-20.75"/>
<text text-anchor="middle" x="1720.33" y="-7.25" font-family="Helvetica,sans-Serif" font-size="10.00">algorithm</text>
</a>
</g>
</g>
<!-- Node15&#45;&gt;Node16 -->
<g id="edge23" class="edge">
<title>Node15&#45;&gt;Node16</title>
<path fill="none" stroke="#63b8ff" d="M1568.86,-186.32C1620.78,-170.79 1696.76,-138.5 1727.33,-77.5 1734.52,-63.15 1731.83,-44.88 1727.87,-31.18"/>
<polygon fill="#63b8ff" stroke="#63b8ff" points="1730.94,-30.3 1724.44,-21.93 1724.3,-32.53 1730.94,-30.3"/>
</g>
<!-- Node15&#45;&gt;Node17 -->
<g id="edge26" class="edge">
<title>Node15&#45;&gt;Node17</title>
<path fill="none" stroke="#63b8ff" d="M1529.83,-182.75C1536.72,-174.6 1545.24,-164.51 1552.9,-155.43"/>
<polygon fill="#63b8ff" stroke="#63b8ff" points="1556.14,-158.03 1559.91,-148.13 1550.79,-153.51 1556.14,-158.03"/>
</g>
<!-- Node17&#45;&gt;Node4 -->
<g id="edge27" class="edge">
<title>Node17&#45;&gt;Node4</title>
<path fill="none" stroke="#63b8ff" d="M1552.95,-113.29C1529.62,-96 1489.54,-69.21 1450.33,-56.75 1355.77,-26.69 1052.74,-15.49 943.8,-12.37"/>
<polygon fill="#63b8ff" stroke="#63b8ff" points="944.07,-8.85 933.98,-12.07 943.88,-15.85 944.07,-8.85"/>
</g>
<!-- Node17&#45;&gt;Node8 -->
<g id="edge29" class="edge">
<title>Node17&#45;&gt;Node8</title>
<path fill="none" stroke="#63b8ff" d="M1565.1,-113.35C1554.04,-91.98 1534.38,-54 1522.43,-30.91"/>
<polygon fill="#63b8ff" stroke="#63b8ff" points="1525.11,-29.46 1517.4,-22.18 1518.89,-32.67 1525.11,-29.46"/>
</g>
<!-- Node17&#45;&gt;Node9 -->
<g id="edge30" class="edge">
<title>Node17&#45;&gt;Node9</title>
<path fill="none" stroke="#63b8ff" d="M1625.75,-117.13C1656.59,-108.68 1695.63,-95.65 1727.33,-77.5 1750.42,-64.28 1772.9,-43.42 1787.35,-28.67"/>
<polygon fill="#63b8ff" stroke="#63b8ff" points="1789.49,-31.44 1793.87,-21.79 1784.43,-26.61 1789.49,-31.44"/>
</g>
<!-- Node17&#45;&gt;Node11 -->
<g id="edge28" class="edge">
<title>Node17&#45;&gt;Node11</title>
<path fill="none" stroke="#63b8ff" d="M1520.6,-124.63C1297.45,-105.07 434.2,-29.42 259.33,-14.09"/>
<polygon fill="#63b8ff" stroke="#63b8ff" points="259.65,-10.52 249.38,-13.13 259.03,-17.49 259.65,-10.52"/>
</g>
<!-- Node17&#45;&gt;Node18 -->
<g id="edge31" class="edge">
<title>Node17&#45;&gt;Node18</title>
<path fill="none" stroke="#63b8ff" d="M1593.03,-113.19C1603.75,-104.46 1616.98,-93.67 1627.82,-84.84"/>
<polygon fill="#63b8ff" stroke="#63b8ff" points="1629.71,-87 1635.25,-77.97 1625.29,-81.57 1629.71,-87"/>
</g>
<!-- Node18&#45;&gt;Node4 -->
<g id="edge33" class="edge">
<title>Node18&#45;&gt;Node4</title>
<path fill="none" stroke="#63b8ff" d="M1578.33,-60.7C1561.31,-59.39 1543.17,-58.01 1526.33,-56.75 1306.15,-40.26 1042.06,-21.25 943.73,-14.2"/>
<polygon fill="#63b8ff" stroke="#63b8ff" points="944.07,-10.64 933.85,-13.42 943.57,-17.62 944.07,-10.64"/>
</g>
<!-- Node18&#45;&gt;Node8 -->
<g id="edge35" class="edge">
<title>Node18&#45;&gt;Node8</title>
<path fill="none" stroke="#63b8ff" d="M1624.01,-56.34C1602.45,-47.66 1570.72,-34.88 1546.59,-25.17"/>
<polygon fill="#63b8ff" stroke="#63b8ff" points="1548.01,-21.57 1537.43,-21.08 1545.4,-28.06 1548.01,-21.57"/>
</g>
<!-- Node18&#45;&gt;Node9 -->
<g id="edge36" class="edge">
<title>Node18&#45;&gt;Node9</title>
<path fill="none" stroke="#63b8ff" d="M1676.04,-56.34C1703.22,-46.74 1744.56,-32.13 1772.7,-22.19"/>
<polygon fill="#63b8ff" stroke="#63b8ff" points="1773.52,-25.26 1781.78,-18.63 1771.19,-18.66 1773.52,-25.26"/>
</g>
<!-- Node18&#45;&gt;Node11 -->
<g id="edge34" class="edge">
<title>Node18&#45;&gt;Node11</title>
<path fill="none" stroke="#63b8ff" d="M1578.36,-63.32C1531.4,-61.44 1468.15,-58.93 1412.33,-56.75 953.45,-38.84 394.51,-17.66 258.98,-12.53"/>
<polygon fill="#63b8ff" stroke="#63b8ff" points="259.35,-9.01 249.22,-12.13 259.08,-16 259.35,-9.01"/>
</g>
<!-- Node18&#45;&gt;Node16 -->
<g id="edge32" class="edge">
<title>Node18&#45;&gt;Node16</title>
<path fill="none" stroke="#63b8ff" d="M1661.2,-56.34C1671.64,-48.4 1686.59,-37.03 1698.84,-27.71"/>
<polygon fill="#63b8ff" stroke="#63b8ff" points="1700.72,-29.92 1706.56,-21.08 1696.49,-24.35 1700.72,-29.92"/>
</g>
<!-- Node20&#45;&gt;Node2 -->
<g id="edge45" class="edge">
<title>Node20&#45;&gt;Node2</title>
<path fill="none" stroke="#63b8ff" d="M428.99,-391.42C425.33,-360.04 422.2,-289.75 460.33,-252.5 494.21,-219.4 622.7,-207.44 705.33,-203.14"/>
<polygon fill="#63b8ff" stroke="#63b8ff" points="705.36,-206.6 715.17,-202.61 705.01,-199.61 705.36,-206.6"/>
</g>
<!-- Node20&#45;&gt;Node4 -->
<g id="edge43" class="edge">
<title>Node20&#45;&gt;Node4</title>
<path fill="none" stroke="#63b8ff" d="M367.35,-393.1C300.98,-378.34 206.62,-357.13 205.33,-355.5 131.7,-263.1 224.84,-189.47 315.33,-113.5 355.95,-79.39 369.56,-72.15 420.33,-56.75 503.34,-31.57 765.14,-17.57 865.05,-13.03"/>
<polygon fill="#63b8ff" stroke="#63b8ff" points="865.03,-16.49 874.86,-12.55 864.72,-9.5 865.03,-16.49"/>
</g>
<!-- Node20&#45;&gt;Node11 -->
<g id="edge44" class="edge">
<title>Node20&#45;&gt;Node11</title>
<path fill="none" stroke="#63b8ff" d="M367.68,-393.23C364.52,-392.62 361.39,-392.04 358.33,-391.5 301.33,-381.39 145.91,-391.18 100.33,-355.5 41.98,-309.83 38.33,-274.84 38.33,-200.75 38.33,-200.75 38.33,-200.75 38.33,-129.25 38.33,-95.31 37.7,-80.11 62.33,-56.75 99.36,-21.63 160.88,-13.17 197.72,-11.44"/>
<polygon fill="#63b8ff" stroke="#63b8ff" points="197.43,-14.92 207.31,-11.09 197.2,-7.92 197.43,-14.92"/>
</g>
<!-- Node20&#45;&gt;Node12 -->
<g id="edge46" class="edge">
<title>Node20&#45;&gt;Node12</title>
<path fill="none" stroke="#63b8ff" d="M495.09,-391.93C537.51,-381.74 593.4,-368.32 637.87,-357.64"/>
<polygon fill="#63b8ff" stroke="#63b8ff" points="638.42,-360.86 647.33,-355.12 636.79,-354.06 638.42,-360.86"/>
</g>
<!-- Node21&#45;&gt;Node2 -->
<g id="edge51" class="edge">
<title>Node21&#45;&gt;Node2</title>
<path fill="none" stroke="#63b8ff" d="M612.49,-391.01C542.11,-365.09 425.77,-311.27 475.33,-252.5 504.15,-218.32 625.32,-206.72 705.15,-202.77"/>
<polygon fill="#63b8ff" stroke="#63b8ff" points="705.29,-206.23 715.12,-202.27 704.97,-199.23 705.29,-206.23"/>
</g>
<!-- Node21&#45;&gt;Node4 -->
<g id="edge48" class="edge">
<title>Node21&#45;&gt;Node4</title>
<path fill="none" stroke="#63b8ff" d="M597.42,-400.95C475.39,-388.78 220.64,-362.59 214.33,-355.5 204.42,-344.38 208.95,-335.88 214.33,-322 272.94,-170.65 317.54,-123.84 465.33,-56.75 536.22,-24.56 771.24,-14.88 865.1,-12.26"/>
<polygon fill="#63b8ff" stroke="#63b8ff" points="864.93,-15.74 874.83,-11.98 864.74,-8.74 864.93,-15.74"/>
</g>
<!-- Node21&#45;&gt;Node7 -->
<g id="edge49" class="edge">
<title>Node21&#45;&gt;Node7</title>
<path fill="none" stroke="#63b8ff" d="M702.79,-391.04C726.87,-381.32 757.62,-368.38 784.33,-355.5 842.28,-327.54 859.57,-324.23 911.33,-286 969.7,-242.88 1028.27,-179.41 1055.13,-148.9"/>
<polygon fill="#63b8ff" stroke="#63b8ff" points="1058.19,-151.72 1062.13,-141.88 1052.92,-147.11 1058.19,-151.72"/>
</g>
<!-- Node21&#45;&gt;Node11 -->
<g id="edge50" class="edge">
<title>Node21&#45;&gt;Node11</title>
<path fill="none" stroke="#63b8ff" d="M597.71,-400.98C474.04,-388.66 212.61,-361.94 205.33,-355.5 103.35,-265.4 66.98,-172.62 138.33,-56.75 151.24,-35.78 177.14,-24.16 197.86,-17.94"/>
<polygon fill="#63b8ff" stroke="#63b8ff" points="198.68,-21.07 207.42,-15.08 196.86,-14.31 198.68,-21.07"/>
</g>
<!-- Node21&#45;&gt;Node12 -->
<g id="edge52" class="edge">
<title>Node21&#45;&gt;Node12</title>
<path fill="none" stroke="#63b8ff" d="M673.41,-391.25C679.51,-383.18 687.04,-373.22 693.84,-364.21"/>
<polygon fill="#63b8ff" stroke="#63b8ff" points="697.09,-366.72 700.33,-356.63 691.5,-362.5 697.09,-366.72"/>
</g>
<!-- Node22&#45;&gt;Node2 -->
<g id="edge60" class="edge">
<title>Node22&#45;&gt;Node2</title>
<path fill="none" stroke="#63b8ff" d="M1549.26,-321.52C1524.09,-311.48 1491.25,-298.22 1462.33,-286 1428.32,-271.64 1422.09,-261.63 1386.33,-252.5 1286.54,-227.02 987.92,-210.43 849.38,-203.89"/>
<polygon fill="#63b8ff" stroke="#63b8ff" points="849.64,-200.36 839.49,-203.38 849.31,-207.35 849.64,-200.36"/>
</g>
<!-- Node22&#45;&gt;Node4 -->
<g id="edge54" class="edge">
<title>Node22&#45;&gt;Node4</title>
<path fill="none" stroke="#63b8ff" d="M1606.17,-321.53C1622.13,-303.21 1642.15,-273.26 1625.33,-252.5 1576.7,-192.5 1514.79,-265.78 1455.33,-216.5 1417.13,-184.85 1442.84,-152.61 1412.33,-113.5 1386.4,-80.26 1375.58,-72.11 1336.33,-56.75 1265.2,-28.92 1036.18,-16.72 943.65,-12.84"/>
<polygon fill="#63b8ff" stroke="#63b8ff" points="943.94,-9.31 933.81,-12.4 943.66,-16.31 943.94,-9.31"/>
</g>
<!-- Node22&#45;&gt;Node6 -->
<g id="edge61" class="edge">
<title>Node22&#45;&gt;Node6</title>
<path fill="none" stroke="#63b8ff" d="M1521.88,-329.77C1449.76,-321 1332.64,-305.74 1222.86,-286.39"/>
<polygon fill="#63b8ff" stroke="#63b8ff" points="1223.72,-282.81 1213.26,-284.5 1222.5,-289.7 1223.72,-282.81"/>
</g>
<!-- Node22&#45;&gt;Node7 -->
<g id="edge55" class="edge">
<title>Node22&#45;&gt;Node7</title>
<path fill="none" stroke="#63b8ff" d="M1600.79,-321.74C1611.54,-303.06 1624.59,-272.22 1608.33,-252.5 1554.74,-187.55 1504.6,-234.41 1422.33,-216.5 1309.42,-191.92 1177.22,-158.7 1111.61,-141.91"/>
<polygon fill="#63b8ff" stroke="#63b8ff" points="1112.85,-138.36 1102.29,-139.26 1111.11,-145.14 1112.85,-138.36"/>
</g>
<!-- Node22&#45;&gt;Node8 -->
<g id="edge56" class="edge">
<title>Node22&#45;&gt;Node8</title>
<path fill="none" stroke="#63b8ff" d="M1646.94,-321.54C1665.03,-313.64 1683.43,-302.23 1695.33,-286 1756.15,-203.03 1792.13,-136.65 1727.33,-56.75 1706.09,-30.57 1611.72,-18.91 1555.31,-14.2"/>
<polygon fill="#63b8ff" stroke="#63b8ff" points="1555.81,-10.65 1545.56,-13.35 1555.25,-17.63 1555.81,-10.65"/>
</g>
<!-- Node22&#45;&gt;Node9 -->
<g id="edge57" class="edge">
<title>Node22&#45;&gt;Node9</title>
<path fill="none" stroke="#63b8ff" d="M1658.68,-336.36C1749.42,-330.46 1898.33,-304.92 1898.33,-200.75 1898.33,-200.75 1898.33,-200.75 1898.33,-129.25 1898.33,-84.62 1856.53,-47.33 1828.38,-27.29"/>
<polygon fill="#63b8ff" stroke="#63b8ff" points="1830.67,-23.93 1820.44,-21.16 1826.71,-29.7 1830.67,-23.93"/>
</g>
<!-- Node22&#45;&gt;Node17 -->
<g id="edge62" class="edge">
<title>Node22&#45;&gt;Node17</title>
<path fill="none" stroke="#63b8ff" d="M1637.39,-321.72C1653.63,-313.67 1670.06,-302.11 1679.33,-286 1686.75,-273.09 1684.56,-266.44 1679.33,-252.5 1664.14,-212.05 1628.66,-176.25 1602.92,-154.23"/>
<polygon fill="#63b8ff" stroke="#63b8ff" points="1605.54,-151.02 1595.61,-147.3 1601.05,-156.4 1605.54,-151.02"/>
</g>
<!-- Node23 -->
<g id="node23" class="node">
<title>Node23</title>
<g id="a_node23"><a xlink:href="../../d6/dcb/_c_r_t_p_base_8hpp.html" target="_top" xlink:title=" ">
<polygon fill="white" stroke="#666666" points="1376.95,-279.62 1229.7,-279.62 1229.7,-258.88 1376.95,-258.88 1376.95,-279.62"/>
<text text-anchor="middle" x="1303.33" y="-266.12" font-family="Helvetica,sans-Serif" font-size="10.00">Simple&#45;Utility/CRTPBase.hpp</text>
</a>
</g>
</g>
<!-- Node22&#45;&gt;Node23 -->
<g id="edge58" class="edge">
<title>Node22&#45;&gt;Node23</title>
<path fill="none" stroke="#63b8ff" d="M1521.95,-321.67C1470.88,-309.66 1402.14,-293.49 1355.46,-282.51"/>
<polygon fill="#63b8ff" stroke="#63b8ff" points="1356.51,-278.93 1345.98,-280.05 1354.91,-285.74 1356.51,-278.93"/>
</g>
<!-- Node23&#45;&gt;Node2 -->
<g id="edge59" class="edge">
<title>Node23&#45;&gt;Node2</title>
<path fill="none" stroke="#63b8ff" d="M1254.71,-258.42C1243.45,-256.31 1231.49,-254.21 1220.33,-252.5 1090.04,-232.55 937.15,-216.25 849.32,-207.57"/>
<polygon fill="#63b8ff" stroke="#63b8ff" points="849.71,-203.99 839.42,-206.5 849.03,-210.96 849.71,-203.99"/>
</g>
<!-- Node24&#45;&gt;Node2 -->
<g id="edge66" class="edge">
<title>Node24&#45;&gt;Node2</title>
<path fill="none" stroke="#63b8ff" d="M972.54,-321.77C932.97,-297.24 857.19,-250.26 812.58,-222.6"/>
<polygon fill="#63b8ff" stroke="#63b8ff" points="814.63,-219.14 804.29,-216.84 810.94,-225.09 814.63,-219.14"/>
</g>
<!-- Node24&#45;&gt;Node4 -->
<g id="edge64" class="edge">
<title>Node24&#45;&gt;Node4</title>
<path fill="none" stroke="#63b8ff" d="M993.66,-321.57C978,-267.18 927.28,-91.08 910.09,-31.38"/>
<polygon fill="#63b8ff" stroke="#63b8ff" points="913.25,-30.71 907.12,-22.06 906.52,-32.64 913.25,-30.71"/>
</g>
<!-- Node24&#45;&gt;Node6 -->
<g id="edge67" class="edge">
<title>Node24&#45;&gt;Node6</title>
<path fill="none" stroke="#63b8ff" d="M1034.25,-321.58C1054.77,-312.35 1080.71,-300.68 1102.66,-290.8"/>
<polygon fill="#63b8ff" stroke="#63b8ff" points="1103.75,-293.7 1111.43,-286.4 1100.87,-287.31 1103.75,-293.7"/>
</g>
<!-- Node24&#45;&gt;Node7 -->
<g id="edge65" class="edge">
<title>Node24&#45;&gt;Node7</title>
<path fill="none" stroke="#63b8ff" d="M1010.87,-321.79C1018.06,-311.96 1026.74,-298.81 1032.33,-286 1052.24,-240.31 1062.95,-182.28 1067.54,-151.91"/>
<polygon fill="#63b8ff" stroke="#63b8ff" points="1071.14,-152.43 1069.1,-142.04 1064.22,-151.44 1071.14,-152.43"/>
</g>
<!-- Node25&#45;&gt;Node2 -->
<g id="edge73" class="edge">
<title>Node25&#45;&gt;Node2</title>
<path fill="none" stroke="#63b8ff" d="M1118.51,-404.94C1064.18,-400.59 985.6,-388.52 925.33,-355.5 866.96,-323.53 817.86,-260.6 793.6,-225.65"/>
<polygon fill="#63b8ff" stroke="#63b8ff" points="796.22,-224.28 787.7,-217.99 790.44,-228.22 796.22,-224.28"/>
</g>
<!-- Node25&#45;&gt;Node4 -->
<g id="edge69" class="edge">
<title>Node25&#45;&gt;Node4</title>
<path fill="none" stroke="#63b8ff" d="M1241.73,-391.09C1314.63,-367.96 1424.23,-320.56 1386.33,-252.5 1293.28,-85.4 1041.52,-31.42 943.83,-16.45"/>
<polygon fill="#63b8ff" stroke="#63b8ff" points="944.37,-12.84 933.97,-14.85 943.35,-19.77 944.37,-12.84"/>
</g>
<!-- Node25&#45;&gt;Node11 -->
<g id="edge70" class="edge">
<title>Node25&#45;&gt;Node11</title>
<path fill="none" stroke="#63b8ff" d="M1118.62,-404.83C905.14,-395.9 228.33,-360.45 228.33,-270.25 228.33,-270.25 228.33,-270.25 228.33,-129.25 228.33,-95.09 228.33,-55.37 228.33,-31.86"/>
<polygon fill="#63b8ff" stroke="#63b8ff" points="231.83,-32.16 228.33,-22.16 224.83,-32.16 231.83,-32.16"/>
</g>
<!-- Node25&#45;&gt;Node12 -->
<g id="edge74" class="edge">
<title>Node25&#45;&gt;Node12</title>
<path fill="none" stroke="#63b8ff" d="M1118.45,-398.08C1032.11,-385.68 878.44,-363.61 786.91,-350.46"/>
<polygon fill="#63b8ff" stroke="#63b8ff" points="787.46,-346.86 777.06,-348.9 786.46,-353.79 787.46,-346.86"/>
</g>
<!-- Node25&#45;&gt;Node14 -->
<g id="edge71" class="edge">
<title>Node25&#45;&gt;Node14</title>
<path fill="none" stroke="#63b8ff" d="M1246.22,-400.65C1295.27,-393.86 1363.77,-380.6 1419.33,-355.5 1457.76,-338.13 1495.93,-306.62 1517.48,-287.16"/>
<polygon fill="#63b8ff" stroke="#63b8ff" points="1519.41,-290.21 1524.4,-280.87 1514.67,-285.06 1519.41,-290.21"/>
</g>
<!-- Node25&#45;&gt;Node18 -->
<g id="edge72" class="edge">
<title>Node25&#45;&gt;Node18</title>
<path fill="none" stroke="#63b8ff" d="M1246.2,-404.07C1370.22,-397.39 1634.39,-380.39 1667.33,-355.5 1750.55,-292.62 1685.51,-141.37 1658.59,-87.55"/>
<polygon fill="#63b8ff" stroke="#63b8ff" points="1661.3,-86.17 1653.63,-78.87 1655.07,-89.36 1661.3,-86.17"/>
</g>
<!-- Node26&#45;&gt;Node6 -->
<g id="edge76" class="edge">
<title>Node26&#45;&gt;Node6</title>
<path fill="none" stroke="#63b8ff" d="M1239.64,-460.52C1250.23,-443.22 1263.19,-415.11 1254.33,-391.5 1239.14,-351.05 1203.66,-315.25 1177.92,-293.23"/>
<polygon fill="#63b8ff" stroke="#63b8ff" points="1180.54,-290.02 1170.61,-286.3 1176.05,-295.4 1180.54,-290.02"/>
</g>
<!-- Node26&#45;&gt;Node22 -->
<g id="edge77" class="edge">
<title>Node26&#45;&gt;Node22</title>
<path fill="none" stroke="#63b8ff" d="M1292.26,-470.7C1343.07,-464.16 1415.05,-450.95 1473.33,-425 1508.14,-409.5 1542.76,-382.45 1565.2,-362.98"/>
<polygon fill="#63b8ff" stroke="#63b8ff" points="1567.01,-366.17 1572.18,-356.92 1562.37,-360.92 1567.01,-366.17"/>
</g>
<!-- Node26&#45;&gt;Node25 -->
<g id="edge78" class="edge">
<title>Node26&#45;&gt;Node25</title>
<path fill="none" stroke="#63b8ff" d="M1217.42,-460.75C1211.98,-452.77 1205.28,-442.93 1199.19,-434"/>
<polygon fill="#63b8ff" stroke="#63b8ff" points="1201.67,-432.42 1193.15,-426.13 1195.89,-436.37 1201.67,-432.42"/>
</g>
</g>
</svg>
        <g id="navigator" transform="translate(0 0)" fill="#404254">
                <rect fill="#f2f5e9" fill-opacity="0.5" stroke="#606060" stroke-width=".5" x="0" y="0" width="60" height="60"/>
                <use id="zoomplus" xlink:href="#zoomPlus" x="17" y="9" onmousedown="handleZoom(evt,'in')"/>
                <use id="zoomminus" xlink:href="#zoomMin" x="42" y="9" onmousedown="handleZoom(evt,'out')"/>
                <use id="reset" xlink:href="#resetDef" x="30" y="36" onmousedown="handleReset()"/>
                <g id="arrowUp" xlink:href="#dirArrow" transform="translate(30 24)" onmousedown="handlePan(0,-1)">
                  <use xlink:href="#rim" fill="#404040">
                        <set attributeName="fill" to="#808080" begin="arrowUp.mouseover" end="arrowUp.mouseout"/>
                  </use>
                  <path fill="none" stroke="white" stroke-width="1.5" d="M0,-3.0v7 M-2.5,-0.5L0,-3.0L2.5,-0.5"/>
                </g>
                <g id="arrowRight" xlink:href="#dirArrow" transform="rotate(90) translate(36 -43)" onmousedown="handlePan(1,0)">
                  <use xlink:href="#rim" fill="#404040">
                        <set attributeName="fill" to="#808080" begin="arrowRight.mouseover" end="arrowRight.mouseout"/>
                  </use>
                  <path fill="none" stroke="white" stroke-width="1.5" d="M0,-3.0v7 M-2.5,-0.5L0,-3.0L2.5,-0.5"/>
                </g>
                <g id="arrowDown" xlink:href="#dirArrow" transform="rotate(180) translate(-30 -48)" onmousedown="handlePan(0,1)">
                  <use xlink:href="#rim" fill="#404040">
                        <set attributeName="fill" to="#808080" begin="arrowDown.mouseover" end="arrowDown.mouseout"/>
                  </use>
                  <path fill="none" stroke="white" stroke-width="1.5" d="M0,-3.0v7 M-2.5,-0.5L0,-3.0L2.5,-0.5"/>
                </g>
                <g id="arrowLeft" xlink:href="#dirArrow" transform="rotate(270) translate(-36 17)" onmousedown="handlePan(-1,0)">
                  <use xlink:href="#rim" fill="#404040">
                        <set attributeName="fill" to="#808080" begin="arrowLeft.mouseover" end="arrowLeft.mouseout"/>
                  </use>
                  <path fill="none" stroke="white" stroke-width="1.5" d="M0,-3.0v7 M-2.5,-0.5L0,-3.0L2.5,-0.5"/>
                </g>
        </g>
        <svg viewBox="0 0 15 15" width="100%" height="30px" preserveAspectRatio="xMaxYMin meet">
         <g id="arrow_out" transform="scale(0.3 0.3)">
          <a xlink:href="_compare_8hpp__incl_org.svg" target="_base">
           <rect id="button" ry="5" rx="5" y="6" x="6" height="38" width="38"
                fill="#f2f5e9" fill-opacity="0.5" stroke="#606060" stroke-width="1.0"/>
           <path id="arrow"
             d="M 11.500037,31.436501 C 11.940474,20.09759 22.043105,11.32322 32.158766,21.979434 L 37.068811,17.246167 C 37.068811,17.246167 37.088388,32 37.088388,32 L 22.160133,31.978069 C 22.160133,31.978069 26.997745,27.140456 26.997745,27.140456 C 18.528582,18.264221 13.291696,25.230495 11.500037,31.436501 z"
             style="fill:#404040;"/>
          </a>
         </g>
        </svg>
</svg>
