<?xml version="1.0" encoding="UTF-8" standalone="no"?>
<!DOCTYPE svg PUBLIC "-//W3C//DTD SVG 1.1//EN"
 "http://www.w3.org/Graphics/SVG/1.1/DTD/svg11.dtd">
<!-- Generated by graphviz version 7.0.5 (20221223.1930)
 -->
<!-- Title: std::tuple_element&lt; index, sl::type_list::TypeList&lt; Types... &gt; &gt; Pages: 1 -->
<svg width="173pt" height="226pt"
 viewBox="0.00 0.00 173.00 226.00" xmlns="http://www.w3.org/2000/svg" xmlns:xlink="http://www.w3.org/1999/xlink">
<g id="graph0" class="graph" transform="scale(1 1) rotate(0) translate(4 222)">
<title>std::tuple_element&lt; index, sl::type_list::TypeList&lt; Types... &gt; &gt;</title>
<!-- Node1 -->
<g id="node1" class="node">
<title>Node1</title>
<g id="a_node1"><a xlink:title="Specialization of std::tuple_element for TypeList.">
<polygon fill="#999999" stroke="#666666" points="123,-41 7,-41 7,0 123,0 123,-41"/>
<text text-anchor="start" x="15" y="-29" font-family="Helvetica,sans-Serif" font-size="10.00">std::tuple_element</text>
<text text-anchor="start" x="15" y="-18" font-family="Helvetica,sans-Serif" font-size="10.00">&lt; index, sl::type_list</text>
<text text-anchor="middle" x="65" y="-7" font-family="Helvetica,sans-Serif" font-size="10.00">::TypeList&lt; Types... &gt; &gt;</text>
</a>
</g>
</g>
<!-- Node2 -->
<g id="node2" class="node">
<title>Node2</title>
<g id="a_node2"><a xlink:title=" ">
<polygon fill="white" stroke="#666666" points="116.5,-130 13.5,-130 13.5,-78 116.5,-78 116.5,-130"/>
<text text-anchor="start" x="21.5" y="-118" font-family="Helvetica,sans-Serif" font-size="10.00">sl::type_list::detail</text>
<text text-anchor="start" x="21.5" y="-107" font-family="Helvetica,sans-Serif" font-size="10.00">::element&lt; index, sl</text>
<text text-anchor="start" x="21.5" y="-96" font-family="Helvetica,sans-Serif" font-size="10.00">::type_list::TypeList</text>
<text text-anchor="middle" x="65" y="-85" font-family="Helvetica,sans-Serif" font-size="10.00">&lt; Types... &gt; &gt;</text>
</a>
</g>
</g>
<!-- Node2&#45;&gt;Node1 -->
<g id="edge1" class="edge">
<title>Node2&#45;&gt;Node1</title>
<path fill="none" stroke="#63b8ff" d="M65,-66.27C65,-57.71 65,-48.9 65,-41.39"/>
<polygon fill="#63b8ff" stroke="#63b8ff" points="61.5,-66.15 65,-76.15 68.5,-66.15 61.5,-66.15"/>
</g>
<!-- Node3 -->
<g id="node3" class="node">
<title>Node3</title>
<g id="a_node3"><a xlink:title=" ">
<polygon fill="white" stroke="#666666" points="130,-218 0,-218 0,-188 130,-188 130,-218"/>
<text text-anchor="start" x="8" y="-206" font-family="Helvetica,sans-Serif" font-size="10.00">sl::type_list::detail</text>
<text text-anchor="middle" x="65" y="-195" font-family="Helvetica,sans-Serif" font-size="10.00">::element&lt; index, Types &gt;</text>
</a>
</g>
</g>
<!-- Node3&#45;&gt;Node2 -->
<g id="edge2" class="edge">
<title>Node3&#45;&gt;Node2</title>
<path fill="none" stroke="orange" stroke-dasharray="5,2" d="M65,-176.23C65,-162.02 65,-144.44 65,-130.3"/>
<polygon fill="orange" stroke="orange" points="61.5,-176.17 65,-186.17 68.5,-176.17 61.5,-176.17"/>
<text text-anchor="start" x="65" y="-162" font-family="Helvetica,sans-Serif" font-size="10.00"> &lt; index, sl::type_list</text>
<text text-anchor="middle" x="115" y="-151" font-family="Helvetica,sans-Serif" font-size="10.00">::TypeList&lt; Types... &gt; &gt;</text>
</g>
</g>
</svg>
