<?xml version="1.0" encoding="UTF-8" standalone="no"?>
<!DOCTYPE svg PUBLIC "-//W3C//DTD SVG 1.1//EN"
 "http://www.w3.org/Graphics/SVG/1.1/DTD/svg11.dtd">
<!-- Generated by graphviz version 8.0.5 (20230430.1635)
 -->
<!-- Title: Simple&#45;Utility/functional/transform.hpp Pages: 1 -->
<svg width="898pt" height="307pt"
 viewBox="0.00 0.00 897.50 306.75" xmlns="http://www.w3.org/2000/svg" xmlns:xlink="http://www.w3.org/1999/xlink">
<g id="graph0" class="graph" transform="scale(1 1) rotate(0) translate(4 302.75)">
<title>Simple&#45;Utility/functional/transform.hpp</title>
<!-- Node1 -->
<g id="node1" class="node">
<title>Node1</title>
<g id="a_node1"><a xlink:title=" ">
<polygon fill="#999999" stroke="#666666" points="680.38,-298.75 553.38,-298.75 553.38,-265.25 680.38,-265.25 680.38,-298.75"/>
<text text-anchor="start" x="561.38" y="-285.25" font-family="Helvetica,sans-Serif" font-size="10.00">Simple&#45;Utility/functional</text>
<text text-anchor="middle" x="616.88" y="-272.5" font-family="Helvetica,sans-Serif" font-size="10.00">/transform.hpp</text>
</a>
</g>
</g>
<!-- Node2 -->
<g id="node2" class="node">
<title>Node2</title>
<g id="a_node2"><a xlink:href="../../d4/d1c/unified__base_8hpp.html" target="_top" xlink:title=" ">
<polygon fill="white" stroke="#666666" points="659.88,-90.25 547.88,-90.25 547.88,-56.75 659.88,-56.75 659.88,-90.25"/>
<text text-anchor="start" x="555.88" y="-76.75" font-family="Helvetica,sans-Serif" font-size="10.00">Simple&#45;Utility/unified</text>
<text text-anchor="middle" x="603.88" y="-64" font-family="Helvetica,sans-Serif" font-size="10.00">_base.hpp</text>
</a>
</g>
</g>
<!-- Node1&#45;&gt;Node2 -->
<g id="edge1" class="edge">
<title>Node1&#45;&gt;Node2</title>
<path fill="none" stroke="#63b8ff" d="M605.97,-265.03C599.93,-255.19 593.01,-242.04 589.88,-229.25 579.06,-185.15 588.52,-132.14 596.27,-101"/>
<polygon fill="#63b8ff" stroke="#63b8ff" points="599.85,-102.14 599.01,-91.58 593.08,-100.36 599.85,-102.14"/>
</g>
<!-- Node5 -->
<g id="node5" class="node">
<title>Node5</title>
<g id="a_node5"><a xlink:href="../../d1/d76/functional_2base_8hpp.html" target="_top" xlink:title=" ">
<polygon fill="white" stroke="#666666" points="542.38,-159.75 415.38,-159.75 415.38,-126.25 542.38,-126.25 542.38,-159.75"/>
<text text-anchor="start" x="423.38" y="-146.25" font-family="Helvetica,sans-Serif" font-size="10.00">Simple&#45;Utility/functional</text>
<text text-anchor="middle" x="478.88" y="-133.5" font-family="Helvetica,sans-Serif" font-size="10.00">/base.hpp</text>
</a>
</g>
</g>
<!-- Node1&#45;&gt;Node5 -->
<g id="edge4" class="edge">
<title>Node1&#45;&gt;Node5</title>
<path fill="none" stroke="#63b8ff" d="M596.9,-264.79C584.98,-254.86 569.7,-241.71 556.88,-229.25 536.59,-209.55 515,-185.71 499.69,-168.25"/>
<polygon fill="#63b8ff" stroke="#63b8ff" points="501.92,-166.48 492.71,-161.24 496.64,-171.08 501.92,-166.48"/>
</g>
<!-- Node10 -->
<g id="node10" class="node">
<title>Node10</title>
<g id="a_node10"><a xlink:href="../../d9/d76/bind_8hpp.html" target="_top" xlink:title=" ">
<polygon fill="white" stroke="#666666" points="871.38,-229.25 744.38,-229.25 744.38,-195.75 871.38,-195.75 871.38,-229.25"/>
<text text-anchor="start" x="752.38" y="-215.75" font-family="Helvetica,sans-Serif" font-size="10.00">Simple&#45;Utility/functional</text>
<text text-anchor="middle" x="807.88" y="-203" font-family="Helvetica,sans-Serif" font-size="10.00">/operators/bind.hpp</text>
</a>
</g>
</g>
<!-- Node1&#45;&gt;Node10 -->
<g id="edge14" class="edge">
<title>Node1&#45;&gt;Node10</title>
<path fill="none" stroke="#63b8ff" d="M662.62,-264.83C689.46,-255.35 723.56,-243.3 751.98,-233.25"/>
<polygon fill="#63b8ff" stroke="#63b8ff" points="752.91,-236.28 761.17,-229.65 750.57,-229.68 752.91,-236.28"/>
</g>
<!-- Node14 -->
<g id="node14" class="node">
<title>Node14</title>
<g id="a_node14"><a xlink:href="../../d5/db7/pipe_8hpp.html" target="_top" xlink:title=" ">
<polygon fill="white" stroke="#666666" points="726.38,-229.25 599.38,-229.25 599.38,-195.75 726.38,-195.75 726.38,-229.25"/>
<text text-anchor="start" x="607.38" y="-215.75" font-family="Helvetica,sans-Serif" font-size="10.00">Simple&#45;Utility/functional</text>
<text text-anchor="middle" x="662.88" y="-203" font-family="Helvetica,sans-Serif" font-size="10.00">/operators/pipe.hpp</text>
</a>
</g>
</g>
<!-- Node1&#45;&gt;Node14 -->
<g id="edge21" class="edge">
<title>Node1&#45;&gt;Node14</title>
<path fill="none" stroke="#63b8ff" d="M627.78,-265C633.22,-257.02 639.92,-247.18 646.01,-238.25"/>
<polygon fill="#63b8ff" stroke="#63b8ff" points="649.31,-240.62 652.05,-230.38 643.53,-236.67 649.31,-240.62"/>
</g>
<!-- Node3 -->
<g id="node3" class="node">
<title>Node3</title>
<g id="a_node3"><a xlink:title=" ">
<polygon fill="#e0e0e0" stroke="#999999" points="548.12,-20.75 491.62,-20.75 491.62,0 548.12,0 548.12,-20.75"/>
<text text-anchor="middle" x="519.88" y="-7.25" font-family="Helvetica,sans-Serif" font-size="10.00">concepts</text>
</a>
</g>
</g>
<!-- Node2&#45;&gt;Node3 -->
<g id="edge2" class="edge">
<title>Node2&#45;&gt;Node3</title>
<path fill="none" stroke="#63b8ff" d="M581.8,-56.44C569.56,-47.53 554.38,-36.49 542.12,-27.56"/>
<polygon fill="#63b8ff" stroke="#63b8ff" points="544.55,-24.27 534.4,-21.22 540.43,-29.93 544.55,-24.27"/>
</g>
<!-- Node4 -->
<g id="node4" class="node">
<title>Node4</title>
<g id="a_node4"><a xlink:title=" ">
<polygon fill="#e0e0e0" stroke="#999999" points="757.88,-20.75 693.88,-20.75 693.88,0 757.88,0 757.88,-20.75"/>
<text text-anchor="middle" x="725.88" y="-7.25" font-family="Helvetica,sans-Serif" font-size="10.00">type_traits</text>
</a>
</g>
</g>
<!-- Node2&#45;&gt;Node4 -->
<g id="edge3" class="edge">
<title>Node2&#45;&gt;Node4</title>
<path fill="none" stroke="#63b8ff" d="M636.25,-56.28C654.98,-46.89 678.38,-35.17 696.57,-26.06"/>
<polygon fill="#63b8ff" stroke="#63b8ff" points="697.96,-28.77 705.33,-21.17 694.83,-22.52 697.96,-28.77"/>
</g>
<!-- Node5&#45;&gt;Node2 -->
<g id="edge9" class="edge">
<title>Node5&#45;&gt;Node2</title>
<path fill="none" stroke="#63b8ff" d="M508.82,-125.83C525.51,-116.82 546.51,-105.48 564.53,-95.75"/>
<polygon fill="#63b8ff" stroke="#63b8ff" points="566.04,-98.37 573.18,-90.54 562.72,-92.21 566.04,-98.37"/>
</g>
<!-- Node5&#45;&gt;Node3 -->
<g id="edge5" class="edge">
<title>Node5&#45;&gt;Node3</title>
<path fill="none" stroke="#63b8ff" d="M486.51,-125.95C491.11,-115.86 496.83,-102.49 500.88,-90.25 507.35,-70.66 512.63,-47.67 515.97,-31.58"/>
<polygon fill="#63b8ff" stroke="#63b8ff" points="519.51,-32.73 518.05,-22.24 512.65,-31.35 519.51,-32.73"/>
</g>
<!-- Node5&#45;&gt;Node4 -->
<g id="edge7" class="edge">
<title>Node5&#45;&gt;Node4</title>
<path fill="none" stroke="#63b8ff" d="M542.86,-135.49C582.04,-128.99 631.63,-116.03 668.88,-90.25 690.72,-75.13 707.24,-48.82 716.73,-30.78"/>
<polygon fill="#63b8ff" stroke="#63b8ff" points="720.26,-32.53 721.6,-22.02 714,-29.4 720.26,-32.53"/>
</g>
<!-- Node6 -->
<g id="node6" class="node">
<title>Node6</title>
<g id="a_node6"><a xlink:title=" ">
<polygon fill="#e0e0e0" stroke="#999999" points="341.75,-83.88 280,-83.88 280,-63.12 341.75,-63.12 341.75,-83.88"/>
<text text-anchor="middle" x="310.88" y="-70.38" font-family="Helvetica,sans-Serif" font-size="10.00">functional</text>
</a>
</g>
</g>
<!-- Node5&#45;&gt;Node6 -->
<g id="edge6" class="edge">
<title>Node5&#45;&gt;Node6</title>
<path fill="none" stroke="#63b8ff" d="M438.63,-125.83C410.18,-114.4 372.44,-99.24 345.37,-88.36"/>
<polygon fill="#63b8ff" stroke="#63b8ff" points="346.78,-84.75 336.19,-84.27 344.17,-91.25 346.78,-84.75"/>
</g>
<!-- Node7 -->
<g id="node7" class="node">
<title>Node7</title>
<g id="a_node7"><a xlink:href="../../d8/dd2/_config_8hpp.html" target="_top" xlink:title=" ">
<polygon fill="white" stroke="#666666" points="492,-83.88 359.75,-83.88 359.75,-63.12 492,-63.12 492,-83.88"/>
<text text-anchor="middle" x="425.88" y="-70.38" font-family="Helvetica,sans-Serif" font-size="10.00">Simple&#45;Utility/Config.hpp</text>
</a>
</g>
</g>
<!-- Node5&#45;&gt;Node7 -->
<g id="edge8" class="edge">
<title>Node5&#45;&gt;Node7</title>
<path fill="none" stroke="#63b8ff" d="M466.31,-126C458.45,-115.99 448.31,-103.07 440.14,-92.67"/>
<polygon fill="#63b8ff" stroke="#63b8ff" points="442.52,-91.03 433.59,-85.32 437.01,-95.35 442.52,-91.03"/>
</g>
<!-- Node8 -->
<g id="node8" class="node">
<title>Node8</title>
<g id="a_node8"><a xlink:href="../../dd/d5c/stl__extensions_8hpp.html" target="_top" xlink:title=" ">
<polygon fill="white" stroke="#666666" points="121.75,-90.25 0,-90.25 0,-56.75 121.75,-56.75 121.75,-90.25"/>
<text text-anchor="start" x="8" y="-76.75" font-family="Helvetica,sans-Serif" font-size="10.00">Simple&#45;Utility/concepts</text>
<text text-anchor="middle" x="60.88" y="-64" font-family="Helvetica,sans-Serif" font-size="10.00">/stl_extensions.hpp</text>
</a>
</g>
</g>
<!-- Node5&#45;&gt;Node8 -->
<g id="edge10" class="edge">
<title>Node5&#45;&gt;Node8</title>
<path fill="none" stroke="#63b8ff" d="M415.14,-133.96C347.5,-125.1 237.27,-109.74 132.66,-90.51"/>
<polygon fill="#63b8ff" stroke="#63b8ff" points="133.37,-86.89 122.9,-88.51 132.1,-93.78 133.37,-86.89"/>
</g>
<!-- Node9 -->
<g id="node9" class="node">
<title>Node9</title>
<g id="a_node9"><a xlink:href="../../d5/d8e/concepts_2utility_8hpp.html" target="_top" xlink:title=" ">
<polygon fill="white" stroke="#666666" points="261.75,-90.25 140,-90.25 140,-56.75 261.75,-56.75 261.75,-90.25"/>
<text text-anchor="start" x="148" y="-76.75" font-family="Helvetica,sans-Serif" font-size="10.00">Simple&#45;Utility/concepts</text>
<text text-anchor="middle" x="200.88" y="-64" font-family="Helvetica,sans-Serif" font-size="10.00">/utility.hpp</text>
</a>
</g>
</g>
<!-- Node5&#45;&gt;Node9 -->
<g id="edge12" class="edge">
<title>Node5&#45;&gt;Node9</title>
<path fill="none" stroke="#63b8ff" d="M415.1,-126.51C372.59,-116.19 316.66,-102.61 272.61,-91.92"/>
<polygon fill="#63b8ff" stroke="#63b8ff" points="273.51,-88.29 262.97,-89.33 271.86,-95.1 273.51,-88.29"/>
</g>
<!-- Node8&#45;&gt;Node3 -->
<g id="edge11" class="edge">
<title>Node8&#45;&gt;Node3</title>
<path fill="none" stroke="#63b8ff" d="M121.88,-58.38C124.92,-57.8 127.93,-57.25 130.88,-56.75 258.12,-35.08 410.57,-20.59 480.86,-14.56"/>
<polygon fill="#63b8ff" stroke="#63b8ff" points="480.75,-17.99 490.42,-13.66 480.16,-11.02 480.75,-17.99"/>
</g>
<!-- Node9&#45;&gt;Node3 -->
<g id="edge13" class="edge">
<title>Node9&#45;&gt;Node3</title>
<path fill="none" stroke="#63b8ff" d="M261.93,-58.61C264.95,-57.97 267.95,-57.35 270.88,-56.75 344.78,-41.71 431.51,-26.44 480.65,-18.01"/>
<polygon fill="#63b8ff" stroke="#63b8ff" points="481.15,-21.3 490.42,-16.17 479.97,-14.4 481.15,-21.3"/>
</g>
<!-- Node10&#45;&gt;Node5 -->
<g id="edge15" class="edge">
<title>Node10&#45;&gt;Node5</title>
<path fill="none" stroke="#63b8ff" d="M743.9,-197.45C741.19,-196.87 738.5,-196.3 735.88,-195.75 674.54,-182.87 604.83,-168.87 553.5,-158.69"/>
<polygon fill="#63b8ff" stroke="#63b8ff" points="554.32,-155.08 543.83,-156.57 552.96,-161.95 554.32,-155.08"/>
</g>
<!-- Node11 -->
<g id="node11" class="node">
<title>Node11</title>
<g id="a_node11"><a xlink:href="../../d2/d30/general_8hpp.html" target="_top" xlink:title=" ">
<polygon fill="white" stroke="#666666" points="843.12,-159.75 738.62,-159.75 738.62,-126.25 843.12,-126.25 843.12,-159.75"/>
<text text-anchor="start" x="746.62" y="-146.25" font-family="Helvetica,sans-Serif" font-size="10.00">Simple&#45;Utility/tuple</text>
<text text-anchor="middle" x="790.88" y="-133.5" font-family="Helvetica,sans-Serif" font-size="10.00">/general.hpp</text>
</a>
</g>
</g>
<!-- Node10&#45;&gt;Node11 -->
<g id="edge16" class="edge">
<title>Node10&#45;&gt;Node11</title>
<path fill="none" stroke="#63b8ff" d="M803.85,-195.5C801.96,-188.02 799.67,-178.91 797.54,-170.45"/>
<polygon fill="#63b8ff" stroke="#63b8ff" points="800.71,-169.72 794.87,-160.88 793.92,-171.43 800.71,-169.72"/>
</g>
<!-- Node11&#45;&gt;Node3 -->
<g id="edge17" class="edge">
<title>Node11&#45;&gt;Node3</title>
<path fill="none" stroke="#63b8ff" d="M771.79,-125.77C748.73,-106.89 708.14,-75.85 668.88,-56.75 633.31,-39.45 589.75,-27.11 558.94,-19.7"/>
<polygon fill="#63b8ff" stroke="#63b8ff" points="560.14,-16.16 549.6,-17.29 558.55,-22.97 560.14,-16.16"/>
</g>
<!-- Node11&#45;&gt;Node4 -->
<g id="edge19" class="edge">
<title>Node11&#45;&gt;Node4</title>
<path fill="none" stroke="#63b8ff" d="M798.85,-125.79C806.48,-107.74 815.18,-78.29 802.88,-56.75 794.87,-42.74 780.66,-32.62 766.61,-25.55"/>
<polygon fill="#63b8ff" stroke="#63b8ff" points="768.53,-22.12 757.98,-21.13 765.61,-28.48 768.53,-22.12"/>
</g>
<!-- Node12 -->
<g id="node12" class="node">
<title>Node12</title>
<g id="a_node12"><a xlink:title=" ">
<polygon fill="#e0e0e0" stroke="#999999" points="889.5,-83.88 850.25,-83.88 850.25,-63.12 889.5,-63.12 889.5,-83.88"/>
<text text-anchor="middle" x="869.88" y="-70.38" font-family="Helvetica,sans-Serif" font-size="10.00">tuple</text>
</a>
</g>
</g>
<!-- Node11&#45;&gt;Node12 -->
<g id="edge18" class="edge">
<title>Node11&#45;&gt;Node12</title>
<path fill="none" stroke="#63b8ff" d="M809.6,-126C821.79,-115.59 837.67,-102.02 850.07,-91.42"/>
<polygon fill="#63b8ff" stroke="#63b8ff" points="852.05,-93.48 857.38,-84.32 847.5,-88.16 852.05,-93.48"/>
</g>
<!-- Node13 -->
<g id="node13" class="node">
<title>Node13</title>
<g id="a_node13"><a xlink:title=" ">
<polygon fill="#e0e0e0" stroke="#999999" points="794.25,-83.88 753.5,-83.88 753.5,-63.12 794.25,-63.12 794.25,-83.88"/>
<text text-anchor="middle" x="773.88" y="-70.38" font-family="Helvetica,sans-Serif" font-size="10.00">utility</text>
</a>
</g>
</g>
<!-- Node11&#45;&gt;Node13 -->
<g id="edge20" class="edge">
<title>Node11&#45;&gt;Node13</title>
<path fill="none" stroke="#63b8ff" d="M786.85,-126C784.5,-116.7 781.53,-104.88 779.02,-94.91"/>
<polygon fill="#63b8ff" stroke="#63b8ff" points="782.18,-94.16 776.35,-85.32 775.4,-95.87 782.18,-94.16"/>
</g>
<!-- Node14&#45;&gt;Node5 -->
<g id="edge22" class="edge">
<title>Node14&#45;&gt;Node5</title>
<path fill="none" stroke="#63b8ff" d="M618.8,-195.33C593.07,-185.89 560.39,-173.9 533.08,-163.89"/>
<polygon fill="#63b8ff" stroke="#63b8ff" points="534.5,-160.31 523.91,-160.15 532.09,-166.88 534.5,-160.31"/>
</g>
<!-- Node14&#45;&gt;Node11 -->
<g id="edge23" class="edge">
<title>Node14&#45;&gt;Node11</title>
<path fill="none" stroke="#63b8ff" d="M693.53,-195.33C710.71,-186.27 732.34,-174.87 750.84,-165.11"/>
<polygon fill="#63b8ff" stroke="#63b8ff" points="752.25,-167.8 759.47,-160.04 748.99,-161.6 752.25,-167.8"/>
</g>
</g>
</svg>
