<?xml version="1.0" encoding="UTF-8" standalone="no"?>
<!DOCTYPE svg PUBLIC "-//W3C//DTD SVG 1.1//EN"
 "http://www.w3.org/Graphics/SVG/1.1/DTD/svg11.dtd">
<!-- Generated by graphviz version 7.0.5 (20221223.1930)
 -->
<!-- Title: Simple&#45;Utility/functional/transform.hpp Pages: 1 -->
<!--zoomable 291 -->
<svg id="main" version="1.1" xmlns="http://www.w3.org/2000/svg" xmlns:xlink="http://www.w3.org/1999/xlink" xml:space="preserve" onload="init(evt)">
<style type="text/css"><![CDATA[
.edge:hover path { stroke: red; }
.edge:hover polygon { stroke: red; fill: red; }
]]></style>
<script type="text/javascript"><![CDATA[
var edges = document.getElementsByTagName('g');
if (edges && edges.length) {
  for (var i=0;i<edges.length;i++) {
    if (edges[i].id.substr(0,4)=='edge') {
      edges[i].setAttribute('class','edge');
    }
  }
}
]]></script>
        <defs>
                <circle id="rim" cx="0" cy="0" r="7"/>
                <circle id="rim2" cx="0" cy="0" r="3.5"/>
                <g id="zoomPlus">
                        <use xlink:href="#rim" fill="#404040">
                                <set attributeName="fill" to="#808080" begin="zoomplus.mouseover" end="zoomplus.mouseout"/>
                        </use>
                        <path d="M-4,0h8M0,-4v8" fill="none" stroke="white" stroke-width="1.5" pointer-events="none"/>
                </g>
                <g id="zoomMin">
                        <use xlink:href="#rim" fill="#404040">
                                <set attributeName="fill" to="#808080" begin="zoomminus.mouseover" end="zoomminus.mouseout"/>
                        </use>
                        <path d="M-4,0h8" fill="none" stroke="white" stroke-width="1.5" pointer-events="none"/>
                </g>
                <g id="dirArrow">
                        <path fill="none" stroke="white" stroke-width="1.5" d="M0,-3.0v7 M-2.5,-0.5L0,-3.0L2.5,-0.5"/>
                </g>
               <g id="resetDef">
                       <use xlink:href="#rim2" fill="#404040">
                               <set attributeName="fill" to="#808080" begin="reset.mouseover" end="reset.mouseout"/>
                       </use>
               </g>
        </defs>

<script type="text/javascript">
var viewWidth = 904;
var viewHeight = 291;
var sectionId = 'dynsection-0';
</script>
<script xlink:href="../../svgpan.js"/>
<svg id="graph" class="graph">
<g id="viewport">
<title>Simple&#45;Utility/functional/transform.hpp</title>
<!-- Node1 -->
<g id="node1" class="node">
<title>Node1</title>
<g id="a_node1"><a xlink:title=" ">
<polygon fill="#999999" stroke="#666666" points="684,-283 556,-283 556,-253 684,-253 684,-283"/>
<text text-anchor="start" x="564" y="-271" font-family="Helvetica,sans-Serif" font-size="10.00">Simple&#45;Utility/functional</text>
<text text-anchor="middle" x="620" y="-260" font-family="Helvetica,sans-Serif" font-size="10.00">/transform.hpp</text>
</a>
</g>
</g>
<!-- Node2 -->
<g id="node2" class="node">
<title>Node2</title>
<g id="a_node2"><a xlink:href="../../d4/d1c/unified__base_8hpp.html" target="_top" xlink:title=" ">
<polygon fill="white" stroke="#666666" points="663.5,-85 550.5,-85 550.5,-55 663.5,-55 663.5,-85"/>
<text text-anchor="start" x="558.5" y="-73" font-family="Helvetica,sans-Serif" font-size="10.00">Simple&#45;Utility/unified</text>
<text text-anchor="middle" x="607" y="-62" font-family="Helvetica,sans-Serif" font-size="10.00">_base.hpp</text>
</a>
</g>
</g>
<!-- Node1&#45;&gt;Node2 -->
<g id="edge1" class="edge">
<title>Node1&#45;&gt;Node2</title>
<path fill="none" stroke="#63b8ff" d="M609.93,-252.92C603.7,-243.31 596.29,-230.01 593,-217 582.53,-175.56 591.81,-125.69 599.44,-96.26"/>
<polygon fill="#63b8ff" stroke="#63b8ff" points="602.77,-97.37 602.04,-86.8 596.02,-95.51 602.77,-97.37"/>
</g>
<!-- Node5 -->
<g id="node5" class="node">
<title>Node5</title>
<g id="a_node5"><a xlink:href="../../d1/d76/functional_2base_8hpp.html" target="_top" xlink:title=" ">
<polygon fill="white" stroke="#666666" points="546,-151 418,-151 418,-121 546,-121 546,-151"/>
<text text-anchor="start" x="426" y="-139" font-family="Helvetica,sans-Serif" font-size="10.00">Simple&#45;Utility/functional</text>
<text text-anchor="middle" x="482" y="-128" font-family="Helvetica,sans-Serif" font-size="10.00">/base.hpp</text>
</a>
</g>
</g>
<!-- Node1&#45;&gt;Node5 -->
<g id="edge4" class="edge">
<title>Node1&#45;&gt;Node5</title>
<path fill="none" stroke="#63b8ff" d="M601.73,-252.59C589.63,-242.85 573.54,-229.52 560,-217 539.93,-198.44 518.33,-176.08 502.95,-159.72"/>
<polygon fill="#63b8ff" stroke="#63b8ff" points="505.52,-157.34 496.14,-152.42 500.4,-162.11 505.52,-157.34"/>
</g>
<!-- Node10 -->
<g id="node10" class="node">
<title>Node10</title>
<g id="a_node10"><a xlink:href="../../d9/d76/bind_8hpp.html" target="_top" xlink:title=" ">
<polygon fill="white" stroke="#666666" points="876,-217 748,-217 748,-187 876,-187 876,-217"/>
<text text-anchor="start" x="756" y="-205" font-family="Helvetica,sans-Serif" font-size="10.00">Simple&#45;Utility/functional</text>
<text text-anchor="middle" x="812" y="-194" font-family="Helvetica,sans-Serif" font-size="10.00">/operators/bind.hpp</text>
</a>
</g>
</g>
<!-- Node1&#45;&gt;Node10 -->
<g id="edge14" class="edge">
<title>Node1&#45;&gt;Node10</title>
<path fill="none" stroke="#63b8ff" d="M663.09,-252.64C691.15,-243.28 727.99,-231 758,-221"/>
<polygon fill="#63b8ff" stroke="#63b8ff" points="758.91,-224.39 767.29,-217.9 756.69,-217.75 758.91,-224.39"/>
</g>
<!-- Node14 -->
<g id="node14" class="node">
<title>Node14</title>
<g id="a_node14"><a xlink:href="../../d5/db7/pipe_8hpp.html" target="_top" xlink:title=" ">
<polygon fill="white" stroke="#666666" points="730,-217 602,-217 602,-187 730,-187 730,-217"/>
<text text-anchor="start" x="610" y="-205" font-family="Helvetica,sans-Serif" font-size="10.00">Simple&#45;Utility/functional</text>
<text text-anchor="middle" x="666" y="-194" font-family="Helvetica,sans-Serif" font-size="10.00">/operators/pipe.hpp</text>
</a>
</g>
</g>
<!-- Node1&#45;&gt;Node14 -->
<g id="edge21" class="edge">
<title>Node1&#45;&gt;Node14</title>
<path fill="none" stroke="#63b8ff" d="M630.21,-252.8C635.81,-245.01 642.89,-235.16 649.27,-226.28"/>
<polygon fill="#63b8ff" stroke="#63b8ff" points="651.94,-228.56 654.94,-218.39 646.26,-224.47 651.94,-228.56"/>
</g>
<!-- Node3 -->
<g id="node3" class="node">
<title>Node3</title>
<g id="a_node3"><a xlink:title=" ">
<polygon fill="#e0e0e0" stroke="#999999" points="550.5,-19 493.5,-19 493.5,0 550.5,0 550.5,-19"/>
<text text-anchor="middle" x="522" y="-7" font-family="Helvetica,sans-Serif" font-size="10.00">concepts</text>
</a>
</g>
</g>
<!-- Node2&#45;&gt;Node3 -->
<g id="edge2" class="edge">
<title>Node2&#45;&gt;Node3</title>
<path fill="none" stroke="#63b8ff" d="M585.99,-54.54C573.14,-45.7 556.73,-34.4 543.75,-25.47"/>
<polygon fill="#63b8ff" stroke="#63b8ff" points="546.07,-22.82 535.85,-20.03 542.11,-28.59 546.07,-22.82"/>
</g>
<!-- Node4 -->
<g id="node4" class="node">
<title>Node4</title>
<g id="a_node4"><a xlink:title=" ">
<polygon fill="#e0e0e0" stroke="#999999" points="762.5,-19 697.5,-19 697.5,0 762.5,0 762.5,-19"/>
<text text-anchor="middle" x="730" y="-7" font-family="Helvetica,sans-Serif" font-size="10.00">type_traits</text>
</a>
</g>
</g>
<!-- Node2&#45;&gt;Node4 -->
<g id="edge3" class="edge">
<title>Node2&#45;&gt;Node4</title>
<path fill="none" stroke="#63b8ff" d="M637.4,-54.54C656.88,-45.28 682.01,-33.33 701.17,-24.21"/>
<polygon fill="#63b8ff" stroke="#63b8ff" points="702.51,-27.45 710.03,-20 699.5,-21.13 702.51,-27.45"/>
</g>
<!-- Node5&#45;&gt;Node2 -->
<g id="edge9" class="edge">
<title>Node5&#45;&gt;Node2</title>
<path fill="none" stroke="#63b8ff" d="M510.05,-120.64C527.42,-111.74 549.95,-100.21 568.92,-90.49"/>
<polygon fill="#63b8ff" stroke="#63b8ff" points="570.39,-93.68 577.69,-86 567.2,-87.45 570.39,-93.68"/>
</g>
<!-- Node5&#45;&gt;Node3 -->
<g id="edge5" class="edge">
<title>Node5&#45;&gt;Node3</title>
<path fill="none" stroke="#63b8ff" d="M488.23,-120.73C492.43,-110.81 497.92,-97.24 502,-85 508.08,-66.73 513.64,-45.49 517.34,-30.37"/>
<polygon fill="#63b8ff" stroke="#63b8ff" points="520.71,-31.33 519.64,-20.79 513.91,-29.7 520.71,-31.33"/>
</g>
<!-- Node5&#45;&gt;Node4 -->
<g id="edge7" class="edge">
<title>Node5&#45;&gt;Node4</title>
<path fill="none" stroke="#63b8ff" d="M546.06,-128.88C585.35,-122.66 635.18,-110.15 673,-85 694.14,-70.94 710.66,-46.39 720.36,-29.33"/>
<polygon fill="#63b8ff" stroke="#63b8ff" points="723.34,-31.18 725.01,-20.72 717.18,-27.86 723.34,-31.18"/>
</g>
<!-- Node6 -->
<g id="node6" class="node">
<title>Node6</title>
<g id="a_node6"><a xlink:title=" ">
<polygon fill="#e0e0e0" stroke="#999999" points="342,-79.5 280,-79.5 280,-60.5 342,-60.5 342,-79.5"/>
<text text-anchor="middle" x="311" y="-67.5" font-family="Helvetica,sans-Serif" font-size="10.00">functional</text>
</a>
</g>
</g>
<!-- Node5&#45;&gt;Node6 -->
<g id="edge6" class="edge">
<title>Node5&#45;&gt;Node6</title>
<path fill="none" stroke="#63b8ff" d="M443.62,-120.64C414.24,-109.64 374.06,-94.6 345.65,-83.97"/>
<polygon fill="#63b8ff" stroke="#63b8ff" points="347.02,-80.74 336.43,-80.52 344.57,-87.3 347.02,-80.74"/>
</g>
<!-- Node7 -->
<g id="node7" class="node">
<title>Node7</title>
<g id="a_node7"><a xlink:href="../../d8/dd2/_config_8hpp.html" target="_top" xlink:title=" ">
<polygon fill="white" stroke="#666666" points="493.5,-79.5 360.5,-79.5 360.5,-60.5 493.5,-60.5 493.5,-79.5"/>
<text text-anchor="middle" x="427" y="-67.5" font-family="Helvetica,sans-Serif" font-size="10.00">Simple&#45;Utility/Config.hpp</text>
</a>
</g>
</g>
<!-- Node5&#45;&gt;Node7 -->
<g id="edge8" class="edge">
<title>Node5&#45;&gt;Node7</title>
<path fill="none" stroke="#63b8ff" d="M469.79,-120.8C461.56,-111.21 450.63,-98.5 441.88,-88.32"/>
<polygon fill="#63b8ff" stroke="#63b8ff" points="444.76,-86.3 435.59,-80.99 439.45,-90.86 444.76,-86.3"/>
</g>
<!-- Node8 -->
<g id="node8" class="node">
<title>Node8</title>
<g id="a_node8"><a xlink:href="../../dd/d5c/stl__extensions_8hpp.html" target="_top" xlink:title=" ">
<polygon fill="white" stroke="#666666" points="122,-85 0,-85 0,-55 122,-55 122,-85"/>
<text text-anchor="start" x="8" y="-73" font-family="Helvetica,sans-Serif" font-size="10.00">Simple&#45;Utility/concepts</text>
<text text-anchor="middle" x="61" y="-62" font-family="Helvetica,sans-Serif" font-size="10.00">/stl_extensions.hpp</text>
</a>
</g>
</g>
<!-- Node5&#45;&gt;Node8 -->
<g id="edge10" class="edge">
<title>Node5&#45;&gt;Node8</title>
<path fill="none" stroke="#63b8ff" d="M417.78,-126.95C349.68,-118.16 238.71,-103.15 133.56,-85.38"/>
<polygon fill="#63b8ff" stroke="#63b8ff" points="134.36,-81.97 123.92,-83.74 133.19,-88.87 134.36,-81.97"/>
</g>
<!-- Node9 -->
<g id="node9" class="node">
<title>Node9</title>
<g id="a_node9"><a xlink:href="../../d5/d8e/concepts_2utility_8hpp.html" target="_top" xlink:title=" ">
<polygon fill="white" stroke="#666666" points="262,-85 140,-85 140,-55 262,-55 262,-85"/>
<text text-anchor="start" x="148" y="-73" font-family="Helvetica,sans-Serif" font-size="10.00">Simple&#45;Utility/concepts</text>
<text text-anchor="middle" x="201" y="-62" font-family="Helvetica,sans-Serif" font-size="10.00">/utility.hpp</text>
</a>
</g>
</g>
<!-- Node5&#45;&gt;Node9 -->
<g id="edge12" class="edge">
<title>Node5&#45;&gt;Node9</title>
<path fill="none" stroke="#63b8ff" d="M418.59,-120.56C375.46,-110.74 318.3,-97.72 273.39,-87.49"/>
<polygon fill="#63b8ff" stroke="#63b8ff" points="274.25,-84.09 263.73,-85.29 272.7,-90.92 274.25,-84.09"/>
</g>
<!-- Node8&#45;&gt;Node3 -->
<g id="edge11" class="edge">
<title>Node8&#45;&gt;Node3</title>
<path fill="none" stroke="#63b8ff" d="M122.41,-56.41C125.31,-55.92 128.18,-55.44 131,-55 258.88,-34.97 411.62,-20.22 482.4,-13.9"/>
<polygon fill="#63b8ff" stroke="#63b8ff" points="482.27,-17.42 491.93,-13.05 481.66,-10.45 482.27,-17.42"/>
</g>
<!-- Node9&#45;&gt;Node3 -->
<g id="edge13" class="edge">
<title>Node9&#45;&gt;Node3</title>
<path fill="none" stroke="#63b8ff" d="M262.45,-56.63C265.34,-56.07 268.2,-55.53 271,-55 345.48,-40.95 432.65,-25.78 482.19,-17.28"/>
<polygon fill="#63b8ff" stroke="#63b8ff" points="482.6,-20.76 491.86,-15.62 481.42,-13.86 482.6,-20.76"/>
</g>
<!-- Node10&#45;&gt;Node5 -->
<g id="edge15" class="edge">
<title>Node10&#45;&gt;Node5</title>
<path fill="none" stroke="#63b8ff" d="M747.59,-188.51C693.08,-177.94 614.88,-162.77 557.44,-151.63"/>
<polygon fill="#63b8ff" stroke="#63b8ff" points="558.22,-148.22 547.73,-149.75 556.88,-155.09 558.22,-148.22"/>
</g>
<!-- Node11 -->
<g id="node11" class="node">
<title>Node11</title>
<g id="a_node11"><a xlink:href="../../d2/d30/general_8hpp.html" target="_top" xlink:title=" ">
<polygon fill="white" stroke="#666666" points="847.5,-151 742.5,-151 742.5,-121 847.5,-121 847.5,-151"/>
<text text-anchor="start" x="750.5" y="-139" font-family="Helvetica,sans-Serif" font-size="10.00">Simple&#45;Utility/tuple</text>
<text text-anchor="middle" x="795" y="-128" font-family="Helvetica,sans-Serif" font-size="10.00">/general.hpp</text>
</a>
</g>
</g>
<!-- Node10&#45;&gt;Node11 -->
<g id="edge16" class="edge">
<title>Node10&#45;&gt;Node11</title>
<path fill="none" stroke="#63b8ff" d="M808.23,-186.8C806.31,-179.59 803.93,-170.61 801.71,-162.27"/>
<polygon fill="#63b8ff" stroke="#63b8ff" points="805.1,-161.39 799.15,-152.63 798.34,-163.19 805.1,-161.39"/>
</g>
<!-- Node11&#45;&gt;Node3 -->
<g id="edge17" class="edge">
<title>Node11&#45;&gt;Node3</title>
<path fill="none" stroke="#63b8ff" d="M776.98,-120.72C754.02,-103.12 712.53,-73.3 673,-55 636.77,-38.23 592.73,-26.11 561.58,-18.79"/>
<polygon fill="#63b8ff" stroke="#63b8ff" points="562.73,-15.47 552.2,-16.65 561.17,-22.29 562.73,-15.47"/>
</g>
<!-- Node11&#45;&gt;Node4 -->
<g id="edge19" class="edge">
<title>Node11&#45;&gt;Node4</title>
<path fill="none" stroke="#63b8ff" d="M802.92,-120.69C811.07,-103.85 821.02,-75.57 809,-55 800.69,-40.78 785.98,-30.75 771.49,-23.87"/>
<polygon fill="#63b8ff" stroke="#63b8ff" points="773.03,-20.72 762.46,-19.99 770.27,-27.15 773.03,-20.72"/>
</g>
<!-- Node12 -->
<g id="node12" class="node">
<title>Node12</title>
<g id="a_node12"><a xlink:title=" ">
<polygon fill="#e0e0e0" stroke="#999999" points="896,-79.5 856,-79.5 856,-60.5 896,-60.5 896,-79.5"/>
<text text-anchor="middle" x="876" y="-67.5" font-family="Helvetica,sans-Serif" font-size="10.00">tuple</text>
</a>
</g>
</g>
<!-- Node11&#45;&gt;Node12 -->
<g id="edge18" class="edge">
<title>Node11&#45;&gt;Node12</title>
<path fill="none" stroke="#63b8ff" d="M812.98,-120.8C825.73,-110.72 842.85,-97.19 856.03,-86.78"/>
<polygon fill="#63b8ff" stroke="#63b8ff" points="857.94,-89.73 863.62,-80.78 853.6,-84.24 857.94,-89.73"/>
</g>
<!-- Node13 -->
<g id="node13" class="node">
<title>Node13</title>
<g id="a_node13"><a xlink:title=" ">
<polygon fill="#e0e0e0" stroke="#999999" points="799.5,-79.5 758.5,-79.5 758.5,-60.5 799.5,-60.5 799.5,-79.5"/>
<text text-anchor="middle" x="779" y="-67.5" font-family="Helvetica,sans-Serif" font-size="10.00">utility</text>
</a>
</g>
</g>
<!-- Node11&#45;&gt;Node13 -->
<g id="edge20" class="edge">
<title>Node11&#45;&gt;Node13</title>
<path fill="none" stroke="#63b8ff" d="M791.45,-120.8C789.25,-111.99 786.39,-100.55 783.97,-90.86"/>
<polygon fill="#63b8ff" stroke="#63b8ff" points="787.4,-90.17 781.58,-81.31 780.61,-91.86 787.4,-90.17"/>
</g>
<!-- Node14&#45;&gt;Node5 -->
<g id="edge22" class="edge">
<title>Node14&#45;&gt;Node5</title>
<path fill="none" stroke="#63b8ff" d="M624.71,-186.64C597.93,-177.32 562.82,-165.11 534.13,-155.13"/>
<polygon fill="#63b8ff" stroke="#63b8ff" points="535.5,-151.9 524.9,-151.92 533.2,-158.51 535.5,-151.9"/>
</g>
<!-- Node14&#45;&gt;Node11 -->
<g id="edge23" class="edge">
<title>Node14&#45;&gt;Node11</title>
<path fill="none" stroke="#63b8ff" d="M694.95,-186.64C712.96,-177.7 736.34,-166.1 755.98,-156.36"/>
<polygon fill="#63b8ff" stroke="#63b8ff" points="757.39,-159.57 764.79,-151.99 754.28,-153.3 757.39,-159.57"/>
</g>
</g>
</svg>
        <g id="navigator" transform="translate(0 0)" fill="#404254">
                <rect fill="#f2f5e9" fill-opacity="0.5" stroke="#606060" stroke-width=".5" x="0" y="0" width="60" height="60"/>
                <use id="zoomplus" xlink:href="#zoomPlus" x="17" y="9" onmousedown="handleZoom(evt,'in')"/>
                <use id="zoomminus" xlink:href="#zoomMin" x="42" y="9" onmousedown="handleZoom(evt,'out')"/>
                <use id="reset" xlink:href="#resetDef" x="30" y="36" onmousedown="handleReset()"/>
                <g id="arrowUp" xlink:href="#dirArrow" transform="translate(30 24)" onmousedown="handlePan(0,-1)">
                  <use xlink:href="#rim" fill="#404040">
                        <set attributeName="fill" to="#808080" begin="arrowUp.mouseover" end="arrowUp.mouseout"/>
                  </use>
                  <path fill="none" stroke="white" stroke-width="1.5" d="M0,-3.0v7 M-2.5,-0.5L0,-3.0L2.5,-0.5"/>
                </g>
                <g id="arrowRight" xlink:href="#dirArrow" transform="rotate(90) translate(36 -43)" onmousedown="handlePan(1,0)">
                  <use xlink:href="#rim" fill="#404040">
                        <set attributeName="fill" to="#808080" begin="arrowRight.mouseover" end="arrowRight.mouseout"/>
                  </use>
                  <path fill="none" stroke="white" stroke-width="1.5" d="M0,-3.0v7 M-2.5,-0.5L0,-3.0L2.5,-0.5"/>
                </g>
                <g id="arrowDown" xlink:href="#dirArrow" transform="rotate(180) translate(-30 -48)" onmousedown="handlePan(0,1)">
                  <use xlink:href="#rim" fill="#404040">
                        <set attributeName="fill" to="#808080" begin="arrowDown.mouseover" end="arrowDown.mouseout"/>
                  </use>
                  <path fill="none" stroke="white" stroke-width="1.5" d="M0,-3.0v7 M-2.5,-0.5L0,-3.0L2.5,-0.5"/>
                </g>
                <g id="arrowLeft" xlink:href="#dirArrow" transform="rotate(270) translate(-36 17)" onmousedown="handlePan(-1,0)">
                  <use xlink:href="#rim" fill="#404040">
                        <set attributeName="fill" to="#808080" begin="arrowLeft.mouseover" end="arrowLeft.mouseout"/>
                  </use>
                  <path fill="none" stroke="white" stroke-width="1.5" d="M0,-3.0v7 M-2.5,-0.5L0,-3.0L2.5,-0.5"/>
                </g>
        </g>
        <svg viewBox="0 0 15 15" width="100%" height="30px" preserveAspectRatio="xMaxYMin meet">
         <g id="arrow_out" transform="scale(0.3 0.3)">
          <a xlink:href="transform_8hpp__incl_org.svg" target="_base">
           <rect id="button" ry="5" rx="5" y="6" x="6" height="38" width="38"
                fill="#f2f5e9" fill-opacity="0.5" stroke="#606060" stroke-width="1.0"/>
           <path id="arrow"
             d="M 11.500037,31.436501 C 11.940474,20.09759 22.043105,11.32322 32.158766,21.979434 L 37.068811,17.246167 C 37.068811,17.246167 37.088388,32 37.088388,32 L 22.160133,31.978069 C 22.160133,31.978069 26.997745,27.140456 26.997745,27.140456 C 18.528582,18.264221 13.291696,25.230495 11.500037,31.436501 z"
             style="fill:#404040;"/>
          </a>
         </g>
        </svg>
</svg>
