<?xml version="1.0" encoding="UTF-8" standalone="no"?>
<!DOCTYPE svg PUBLIC "-//W3C//DTD SVG 1.1//EN"
 "http://www.w3.org/Graphics/SVG/1.1/DTD/svg11.dtd">
<!-- Generated by graphviz version 8.0.5 (20230430.1635)
 -->
<!-- Title: sl::functional::Composition::operator() Pages: 1 -->
<svg width="474pt" height="42pt"
 viewBox="0.00 0.00 473.75 41.50" xmlns="http://www.w3.org/2000/svg" xmlns:xlink="http://www.w3.org/1999/xlink">
<g id="graph0" class="graph" transform="scale(1 1) rotate(0) translate(4 37.5)">
<title>sl::functional::Composition::operator()</title>
<!-- Node1 -->
<g id="node1" class="node">
<title>Node1</title>
<g id="a_node1"><a xlink:title="Call operator, providing the member functionals and given arguments to the composition strategy.">
<polygon fill="#999999" stroke="#666666" points="136.75,-33.5 0,-33.5 0,0 136.75,0 136.75,-33.5"/>
<text text-anchor="start" x="8" y="-20" font-family="Helvetica,sans-Serif" font-size="10.00">sl::functional::Composition</text>
<text text-anchor="middle" x="68.38" y="-7.25" font-family="Helvetica,sans-Serif" font-size="10.00">::operator()</text>
</a>
</g>
</g>
<!-- Node2 -->
<g id="node2" class="node">
<title>Node2</title>
<g id="a_node2"><a xlink:href="../../d8/dfa/classsl_1_1functional_1_1_composition.html#aedd7b7cf1d9b12d351cf8638c439de65" target="_top" xlink:title="Getter to the member functions.">
<polygon fill="white" stroke="#666666" points="328.25,-27.12 172.75,-27.12 172.75,-6.38 328.25,-6.38 328.25,-27.12"/>
<text text-anchor="middle" x="250.5" y="-13.62" font-family="Helvetica,sans-Serif" font-size="10.00">sl::functional::Composition::fns</text>
</a>
</g>
</g>
<!-- Node1&#45;&gt;Node2 -->
<g id="edge1" class="edge">
<title>Node1&#45;&gt;Node2</title>
<path fill="none" stroke="#63b8ff" d="M137.22,-16.75C145.19,-16.75 153.41,-16.75 161.61,-16.75"/>
<polygon fill="#63b8ff" stroke="#63b8ff" points="161.35,-20.25 171.35,-16.75 161.35,-13.25 161.35,-20.25"/>
</g>
<!-- Node3 -->
<g id="node3" class="node">
<title>Node3</title>
<g id="a_node3"><a xlink:href="../../d3/df4/group___g_r_o_u_p___t_u_p_l_e___a_l_g_o_r_i_t_h_m___t_r_a_n_s_f_o_r_m___e_l_e_m_e_n_t_s.html#ga305516289bbf817ba68ebb2f3e4adf75" target="_top" xlink:title="Applies the transform on each element of the given source tuple and returns the results as a new tupl...">
<polygon fill="white" stroke="#666666" points="465.75,-33.5 364.25,-33.5 364.25,0 465.75,0 465.75,-33.5"/>
<text text-anchor="start" x="372.25" y="-20" font-family="Helvetica,sans-Serif" font-size="10.00">sl::tuple::transform</text>
<text text-anchor="middle" x="415" y="-7.25" font-family="Helvetica,sans-Serif" font-size="10.00">_elements</text>
</a>
</g>
</g>
<!-- Node2&#45;&gt;Node3 -->
<g id="edge2" class="edge">
<title>Node2&#45;&gt;Node3</title>
<path fill="none" stroke="#63b8ff" d="M328.47,-16.75C336.81,-16.75 345.22,-16.75 353.34,-16.75"/>
<polygon fill="#63b8ff" stroke="#63b8ff" points="353.19,-20.25 363.19,-16.75 353.19,-13.25 353.19,-20.25"/>
</g>
</g>
</svg>
