<?xml version="1.0" encoding="UTF-8" standalone="no"?>
<!DOCTYPE svg PUBLIC "-//W3C//DTD SVG 1.1//EN"
 "http://www.w3.org/Graphics/SVG/1.1/DTD/svg11.dtd">
<!-- Generated by graphviz version 8.0.5 (20230430.1635)
 -->
<!-- Title: Simple&#45;Utility/Tuple.hpp Pages: 1 -->
<svg width="397pt" height="281pt"
 viewBox="0.00 0.00 396.88 281.25" xmlns="http://www.w3.org/2000/svg" xmlns:xlink="http://www.w3.org/1999/xlink">
<g id="graph0" class="graph" transform="scale(1 1) rotate(0) translate(4 277.25)">
<title>Simple&#45;Utility/Tuple.hpp</title>
<!-- Node1 -->
<g id="node1" class="node">
<title>Node1</title>
<g id="a_node1"><a xlink:title=" ">
<polygon fill="#999999" stroke="#666666" points="231,-273.25 104,-273.25 104,-252.5 231,-252.5 231,-273.25"/>
<text text-anchor="middle" x="167.5" y="-259.75" font-family="Helvetica,sans-Serif" font-size="10.00">Simple&#45;Utility/Tuple.hpp</text>
</a>
</g>
</g>
<!-- Node2 -->
<g id="node2" class="node">
<title>Node2</title>
<g id="a_node2"><a xlink:href="../../dc/d83/_algorithm_8hpp.html" target="_top" xlink:title=" ">
<polygon fill="white" stroke="#666666" points="179.75,-216.5 75.25,-216.5 75.25,-183 179.75,-183 179.75,-216.5"/>
<text text-anchor="start" x="83.25" y="-203" font-family="Helvetica,sans-Serif" font-size="10.00">Simple&#45;Utility/tuple</text>
<text text-anchor="middle" x="127.5" y="-190.25" font-family="Helvetica,sans-Serif" font-size="10.00">/Algorithm.hpp</text>
</a>
</g>
</g>
<!-- Node1&#45;&gt;Node2 -->
<g id="edge1" class="edge">
<title>Node1&#45;&gt;Node2</title>
<path fill="none" stroke="#63b8ff" d="M161.07,-252.05C156.48,-245.04 150.09,-235.27 144.11,-226.13"/>
<polygon fill="#63b8ff" stroke="#63b8ff" points="146.53,-224.44 138.12,-217.98 140.67,-228.27 146.53,-224.44"/>
</g>
<!-- Node6 -->
<g id="node6" class="node">
<title>Node6</title>
<g id="a_node6"><a xlink:href="../../dd/d5a/_general_8hpp.html" target="_top" xlink:title=" ">
<polygon fill="white" stroke="#666666" points="280.75,-147 176.25,-147 176.25,-113.5 280.75,-113.5 280.75,-147"/>
<text text-anchor="start" x="184.25" y="-133.5" font-family="Helvetica,sans-Serif" font-size="10.00">Simple&#45;Utility/tuple</text>
<text text-anchor="middle" x="228.5" y="-120.75" font-family="Helvetica,sans-Serif" font-size="10.00">/General.hpp</text>
</a>
</g>
</g>
<!-- Node1&#45;&gt;Node6 -->
<g id="edge16" class="edge">
<title>Node1&#45;&gt;Node6</title>
<path fill="none" stroke="#63b8ff" d="M172.08,-252.06C181.41,-232.08 202.86,-186.14 216.46,-157.02"/>
<polygon fill="#63b8ff" stroke="#63b8ff" points="220.02,-158.68 221.08,-148.13 213.68,-155.71 220.02,-158.68"/>
</g>
<!-- Node3 -->
<g id="node3" class="node">
<title>Node3</title>
<g id="a_node3"><a xlink:title=" ">
<polygon fill="#e0e0e0" stroke="#999999" points="61,-20.75 0,-20.75 0,0 61,0 61,-20.75"/>
<text text-anchor="middle" x="30.5" y="-7.25" font-family="Helvetica,sans-Serif" font-size="10.00">algorithm</text>
</a>
</g>
</g>
<!-- Node2&#45;&gt;Node3 -->
<g id="edge2" class="edge">
<title>Node2&#45;&gt;Node3</title>
<path fill="none" stroke="#63b8ff" d="M108.72,-182.56C98.63,-173.04 86.64,-160.3 78.5,-147 55.56,-109.51 41.48,-59.48 34.92,-31.86"/>
<polygon fill="#63b8ff" stroke="#63b8ff" points="38.12,-31.17 32.49,-22.19 31.29,-32.72 38.12,-31.17"/>
</g>
<!-- Node4 -->
<g id="node4" class="node">
<title>Node4</title>
<g id="a_node4"><a xlink:title=" ">
<polygon fill="#e0e0e0" stroke="#999999" points="158.38,-140.62 96.62,-140.62 96.62,-119.88 158.38,-119.88 158.38,-140.62"/>
<text text-anchor="middle" x="127.5" y="-127.12" font-family="Helvetica,sans-Serif" font-size="10.00">functional</text>
</a>
</g>
</g>
<!-- Node2&#45;&gt;Node4 -->
<g id="edge3" class="edge">
<title>Node2&#45;&gt;Node4</title>
<path fill="none" stroke="#63b8ff" d="M127.5,-182.75C127.5,-173.55 127.5,-161.89 127.5,-151.99"/>
<polygon fill="#63b8ff" stroke="#63b8ff" points="131,-152.07 127.5,-142.07 124,-152.07 131,-152.07"/>
</g>
<!-- Node5 -->
<g id="node5" class="node">
<title>Node5</title>
<g id="a_node5"><a xlink:title=" ">
<polygon fill="#e0e0e0" stroke="#999999" points="143.5,-20.75 79.5,-20.75 79.5,0 143.5,0 143.5,-20.75"/>
<text text-anchor="middle" x="111.5" y="-7.25" font-family="Helvetica,sans-Serif" font-size="10.00">type_traits</text>
</a>
</g>
</g>
<!-- Node2&#45;&gt;Node5 -->
<g id="edge4" class="edge">
<title>Node2&#45;&gt;Node5</title>
<path fill="none" stroke="#63b8ff" d="M110.61,-182.74C101.89,-173.29 92.12,-160.54 87.5,-147 73.85,-107.02 90.47,-57.63 102.08,-30.86"/>
<polygon fill="#63b8ff" stroke="#63b8ff" points="105.54,-32.72 106.5,-22.17 99.17,-29.81 105.54,-32.72"/>
</g>
<!-- Node2&#45;&gt;Node6 -->
<g id="edge5" class="edge">
<title>Node2&#45;&gt;Node6</title>
<path fill="none" stroke="#63b8ff" d="M151.69,-182.58C164.81,-173.82 181.21,-162.85 195.49,-153.31"/>
<polygon fill="#63b8ff" stroke="#63b8ff" points="197.14,-155.75 203.51,-147.29 193.25,-149.93 197.14,-155.75"/>
</g>
<!-- Node6&#45;&gt;Node5 -->
<g id="edge8" class="edge">
<title>Node6&#45;&gt;Node5</title>
<path fill="none" stroke="#63b8ff" d="M202.23,-113.17C188.07,-103.79 170.83,-91.13 157.5,-77.5 143.49,-63.18 130.76,-44.18 122.26,-30.23"/>
<polygon fill="#63b8ff" stroke="#63b8ff" points="124.96,-28.92 116.86,-22.09 118.94,-32.48 124.96,-28.92"/>
</g>
<!-- Node7 -->
<g id="node7" class="node">
<title>Node7</title>
<g id="a_node7"><a xlink:title=" ">
<polygon fill="#e0e0e0" stroke="#999999" points="243.75,-20.75 187.25,-20.75 187.25,0 243.75,0 243.75,-20.75"/>
<text text-anchor="middle" x="215.5" y="-7.25" font-family="Helvetica,sans-Serif" font-size="10.00">concepts</text>
</a>
</g>
</g>
<!-- Node6&#45;&gt;Node7 -->
<g id="edge6" class="edge">
<title>Node6&#45;&gt;Node7</title>
<path fill="none" stroke="#63b8ff" d="M197.62,-113.05C184.55,-104.4 170.7,-92.44 163.5,-77.5 154.32,-58.46 172.15,-39.8 189.38,-27.19"/>
<polygon fill="#63b8ff" stroke="#63b8ff" points="190.9,-29.71 197.19,-21.18 186.96,-23.93 190.9,-29.71"/>
</g>
<!-- Node8 -->
<g id="node8" class="node">
<title>Node8</title>
<g id="a_node8"><a xlink:title=" ">
<polygon fill="#e0e0e0" stroke="#999999" points="320.12,-20.75 280.88,-20.75 280.88,0 320.12,0 320.12,-20.75"/>
<text text-anchor="middle" x="300.5" y="-7.25" font-family="Helvetica,sans-Serif" font-size="10.00">tuple</text>
</a>
</g>
</g>
<!-- Node6&#45;&gt;Node8 -->
<g id="edge7" class="edge">
<title>Node6&#45;&gt;Node8</title>
<path fill="none" stroke="#63b8ff" d="M278.08,-113.12C294.54,-105.13 311.06,-93.64 320.5,-77.5 329.17,-62.67 321.88,-43.74 313.77,-29.93"/>
<polygon fill="#63b8ff" stroke="#63b8ff" points="316.31,-28.41 307.94,-21.92 310.43,-32.22 316.31,-28.41"/>
</g>
<!-- Node9 -->
<g id="node9" class="node">
<title>Node9</title>
<g id="a_node9"><a xlink:title=" ">
<polygon fill="#e0e0e0" stroke="#999999" points="388.88,-20.75 348.12,-20.75 348.12,0 388.88,0 388.88,-20.75"/>
<text text-anchor="middle" x="368.5" y="-7.25" font-family="Helvetica,sans-Serif" font-size="10.00">utility</text>
</a>
</g>
</g>
<!-- Node6&#45;&gt;Node9 -->
<g id="edge9" class="edge">
<title>Node6&#45;&gt;Node9</title>
<path fill="none" stroke="#63b8ff" d="M279.65,-113.02C299.29,-104.82 320.74,-93.2 336.5,-77.5 349.33,-64.72 357.78,-45.76 362.75,-31.42"/>
<polygon fill="#63b8ff" stroke="#63b8ff" points="366.33,-32.7 366.01,-22.11 359.66,-30.59 366.33,-32.7"/>
</g>
<!-- Node10 -->
<g id="node10" class="node">
<title>Node10</title>
<g id="a_node10"><a xlink:href="../../df/d2e/_type_list_8hpp.html" target="_top" xlink:title=" ">
<polygon fill="white" stroke="#666666" points="312,-77.5 173,-77.5 173,-56.75 312,-56.75 312,-77.5"/>
<text text-anchor="middle" x="242.5" y="-64" font-family="Helvetica,sans-Serif" font-size="10.00">Simple&#45;Utility/TypeList.hpp</text>
</a>
</g>
</g>
<!-- Node6&#45;&gt;Node10 -->
<g id="edge10" class="edge">
<title>Node6&#45;&gt;Node10</title>
<path fill="none" stroke="#63b8ff" d="M232.18,-113.19C233.9,-105.68 235.97,-96.65 237.8,-88.65"/>
<polygon fill="#63b8ff" stroke="#63b8ff" points="241.42,-89.5 240.25,-78.97 234.6,-87.93 241.42,-89.5"/>
</g>
<!-- Node10&#45;&gt;Node3 -->
<g id="edge11" class="edge">
<title>Node10&#45;&gt;Node3</title>
<path fill="none" stroke="#63b8ff" d="M204.6,-56.34C167.15,-46.67 110.03,-31.92 71.53,-21.97"/>
<polygon fill="#63b8ff" stroke="#63b8ff" points="72.76,-18.41 62.2,-19.3 71.01,-25.19 72.76,-18.41"/>
</g>
<!-- Node10&#45;&gt;Node5 -->
<g id="edge14" class="edge">
<title>Node10&#45;&gt;Node5</title>
<path fill="none" stroke="#63b8ff" d="M219.08,-56.34C198.4,-47.69 168.02,-35 144.81,-25.3"/>
<polygon fill="#63b8ff" stroke="#63b8ff" points="146.29,-21.71 135.72,-21.08 143.59,-28.16 146.29,-21.71"/>
</g>
<!-- Node10&#45;&gt;Node7 -->
<g id="edge12" class="edge">
<title>Node10&#45;&gt;Node7</title>
<path fill="none" stroke="#63b8ff" d="M237.67,-56.34C234.18,-49.25 229.34,-39.44 225.08,-30.79"/>
<polygon fill="#63b8ff" stroke="#63b8ff" points="227.85,-29.5 220.29,-22.08 221.57,-32.6 227.85,-29.5"/>
</g>
<!-- Node10&#45;&gt;Node8 -->
<g id="edge13" class="edge">
<title>Node10&#45;&gt;Node8</title>
<path fill="none" stroke="#63b8ff" d="M252.87,-56.34C261.03,-48.63 272.62,-37.7 282.32,-28.54"/>
<polygon fill="#63b8ff" stroke="#63b8ff" points="284.35,-31.49 289.22,-22.08 279.55,-26.4 284.35,-31.49"/>
</g>
<!-- Node10&#45;&gt;Node9 -->
<g id="edge15" class="edge">
<title>Node10&#45;&gt;Node9</title>
<path fill="none" stroke="#63b8ff" d="M265.03,-56.34C285.31,-47.52 315.31,-34.49 337.79,-24.72"/>
<polygon fill="#63b8ff" stroke="#63b8ff" points="339.06,-27.55 346.84,-20.35 336.27,-21.13 339.06,-27.55"/>
</g>
</g>
</svg>
