<?xml version="1.0" encoding="UTF-8" standalone="no"?>
<!DOCTYPE svg PUBLIC "-//W3C//DTD SVG 1.1//EN"
 "http://www.w3.org/Graphics/SVG/1.1/DTD/svg11.dtd">
<!-- Generated by graphviz version 8.0.5 (20230430.1635)
 -->
<!-- Title: Simple&#45;Utility/functional/operators/equivalent.hpp Pages: 1 -->
<svg width="683pt" height="237pt"
 viewBox="0.00 0.00 683.26 237.25" xmlns="http://www.w3.org/2000/svg" xmlns:xlink="http://www.w3.org/1999/xlink">
<g id="graph0" class="graph" transform="scale(1 1) rotate(0) translate(4 233.25)">
<title>Simple&#45;Utility/functional/operators/equivalent.hpp</title>
<!-- Node1 -->
<g id="node1" class="node">
<title>Node1</title>
<g id="a_node1"><a xlink:title=" ">
<polygon fill="#999999" stroke="#666666" points="476.63,-229.25 342.13,-229.25 342.13,-195.75 476.63,-195.75 476.63,-229.25"/>
<text text-anchor="start" x="350.13" y="-215.75" font-family="Helvetica,sans-Serif" font-size="10.00">Simple&#45;Utility/functional</text>
<text text-anchor="middle" x="409.38" y="-203" font-family="Helvetica,sans-Serif" font-size="10.00">/operators/equivalent.hpp</text>
</a>
</g>
</g>
<!-- Node2 -->
<g id="node2" class="node">
<title>Node2</title>
<g id="a_node2"><a xlink:href="../../d5/d8e/concepts_2utility_8hpp.html" target="_top" xlink:title=" ">
<polygon fill="white" stroke="#666666" points="675.26,-90.25 553.51,-90.25 553.51,-56.75 675.26,-56.75 675.26,-90.25"/>
<text text-anchor="start" x="561.51" y="-76.75" font-family="Helvetica,sans-Serif" font-size="10.00">Simple&#45;Utility/concepts</text>
<text text-anchor="middle" x="614.38" y="-64" font-family="Helvetica,sans-Serif" font-size="10.00">/utility.hpp</text>
</a>
</g>
</g>
<!-- Node1&#45;&gt;Node2 -->
<g id="edge1" class="edge">
<title>Node1&#45;&gt;Node2</title>
<path fill="none" stroke="#63b8ff" d="M433.3,-195.52C469.85,-171.09 539.71,-124.4 581.16,-96.7"/>
<polygon fill="#63b8ff" stroke="#63b8ff" points="582.93,-99.06 589.3,-90.59 579.04,-93.24 582.93,-99.06"/>
</g>
<!-- Node4 -->
<g id="node4" class="node">
<title>Node4</title>
<g id="a_node4"><a xlink:href="../../d1/d76/functional_2base_8hpp.html" target="_top" xlink:title=" ">
<polygon fill="white" stroke="#666666" points="426.88,-159.75 299.88,-159.75 299.88,-126.25 426.88,-126.25 426.88,-159.75"/>
<text text-anchor="start" x="307.88" y="-146.25" font-family="Helvetica,sans-Serif" font-size="10.00">Simple&#45;Utility/functional</text>
<text text-anchor="middle" x="363.38" y="-133.5" font-family="Helvetica,sans-Serif" font-size="10.00">/base.hpp</text>
</a>
</g>
</g>
<!-- Node1&#45;&gt;Node4 -->
<g id="edge3" class="edge">
<title>Node1&#45;&gt;Node4</title>
<path fill="none" stroke="#63b8ff" d="M398.48,-195.5C393.04,-187.52 386.33,-177.68 380.25,-168.75"/>
<polygon fill="#63b8ff" stroke="#63b8ff" points="382.73,-167.17 374.21,-160.88 376.95,-171.12 382.73,-167.17"/>
</g>
<!-- Node3 -->
<g id="node3" class="node">
<title>Node3</title>
<g id="a_node3"><a xlink:title=" ">
<polygon fill="#e0e0e0" stroke="#999999" points="508.63,-20.75 452.13,-20.75 452.13,0 508.63,0 508.63,-20.75"/>
<text text-anchor="middle" x="480.38" y="-7.25" font-family="Helvetica,sans-Serif" font-size="10.00">concepts</text>
</a>
</g>
</g>
<!-- Node2&#45;&gt;Node3 -->
<g id="edge2" class="edge">
<title>Node2&#45;&gt;Node3</title>
<path fill="none" stroke="#63b8ff" d="M578.83,-56.28C557.96,-46.76 531.84,-34.85 511.74,-25.68"/>
<polygon fill="#63b8ff" stroke="#63b8ff" points="513.4,-22.13 502.85,-21.17 510.49,-28.5 513.4,-22.13"/>
</g>
<!-- Node4&#45;&gt;Node2 -->
<g id="edge13" class="edge">
<title>Node4&#45;&gt;Node2</title>
<path fill="none" stroke="#63b8ff" d="M423.5,-125.83C459.7,-116.1 505.95,-103.66 543.86,-93.46"/>
<polygon fill="#63b8ff" stroke="#63b8ff" points="544.57,-96.63 553.32,-90.65 542.75,-89.87 544.57,-96.63"/>
</g>
<!-- Node4&#45;&gt;Node3 -->
<g id="edge4" class="edge">
<title>Node4&#45;&gt;Node3</title>
<path fill="none" stroke="#63b8ff" d="M427.28,-135.42C456.44,-128.85 488.42,-115.86 506.38,-90.25 519.31,-71.83 506.81,-46.55 495.08,-29.62"/>
<polygon fill="#63b8ff" stroke="#63b8ff" points="497.58,-28.12 488.81,-22.17 491.96,-32.29 497.58,-28.12"/>
</g>
<!-- Node5 -->
<g id="node5" class="node">
<title>Node5</title>
<g id="a_node5"><a xlink:title=" ">
<polygon fill="#e0e0e0" stroke="#999999" points="77.26,-83.88 15.51,-83.88 15.51,-63.12 77.26,-63.12 77.26,-83.88"/>
<text text-anchor="middle" x="46.38" y="-70.38" font-family="Helvetica,sans-Serif" font-size="10.00">functional</text>
</a>
</g>
</g>
<!-- Node4&#45;&gt;Node5 -->
<g id="edge5" class="edge">
<title>Node4&#45;&gt;Node5</title>
<path fill="none" stroke="#63b8ff" d="M299.6,-133.61C242.94,-125.33 158.2,-110.89 86.38,-90.25 84.05,-89.58 81.67,-88.83 79.28,-88.02"/>
<polygon fill="#63b8ff" stroke="#63b8ff" points="80.56,-84.4 69.97,-84.26 78.16,-90.97 80.56,-84.4"/>
</g>
<!-- Node6 -->
<g id="node6" class="node">
<title>Node6</title>
<g id="a_node6"><a xlink:title=" ">
<polygon fill="#e0e0e0" stroke="#999999" points="101.38,-20.75 37.38,-20.75 37.38,0 101.38,0 101.38,-20.75"/>
<text text-anchor="middle" x="69.38" y="-7.25" font-family="Helvetica,sans-Serif" font-size="10.00">type_traits</text>
</a>
</g>
</g>
<!-- Node4&#45;&gt;Node6 -->
<g id="edge6" class="edge">
<title>Node4&#45;&gt;Node6</title>
<path fill="none" stroke="#63b8ff" d="M299.73,-142.32C207.48,-141.27 43.58,-133.22 6.38,-90.25 -3.36,-78.99 -0.4,-70 6.38,-56.75 12.98,-43.88 25.11,-33.82 36.99,-26.49"/>
<polygon fill="#63b8ff" stroke="#63b8ff" points="38.37,-29.16 45.34,-21.18 34.92,-23.07 38.37,-29.16"/>
</g>
<!-- Node7 -->
<g id="node7" class="node">
<title>Node7</title>
<g id="a_node7"><a xlink:href="../../d8/dd2/_config_8hpp.html" target="_top" xlink:title=" ">
<polygon fill="white" stroke="#666666" points="357.51,-83.88 225.26,-83.88 225.26,-63.12 357.51,-63.12 357.51,-83.88"/>
<text text-anchor="middle" x="291.38" y="-70.38" font-family="Helvetica,sans-Serif" font-size="10.00">Simple&#45;Utility/Config.hpp</text>
</a>
</g>
</g>
<!-- Node4&#45;&gt;Node7 -->
<g id="edge7" class="edge">
<title>Node4&#45;&gt;Node7</title>
<path fill="none" stroke="#63b8ff" d="M346.32,-126C335.32,-115.69 321.02,-102.28 309.77,-91.73"/>
<polygon fill="#63b8ff" stroke="#63b8ff" points="312.55,-89.61 302.86,-85.32 307.76,-94.71 312.55,-89.61"/>
</g>
<!-- Node8 -->
<g id="node8" class="node">
<title>Node8</title>
<g id="a_node8"><a xlink:href="../../d4/d1c/unified__base_8hpp.html" target="_top" xlink:title=" ">
<polygon fill="white" stroke="#666666" points="207.38,-90.25 95.38,-90.25 95.38,-56.75 207.38,-56.75 207.38,-90.25"/>
<text text-anchor="start" x="103.38" y="-76.75" font-family="Helvetica,sans-Serif" font-size="10.00">Simple&#45;Utility/unified</text>
<text text-anchor="middle" x="151.38" y="-64" font-family="Helvetica,sans-Serif" font-size="10.00">_base.hpp</text>
</a>
</g>
</g>
<!-- Node4&#45;&gt;Node8 -->
<g id="edge8" class="edge">
<title>Node4&#45;&gt;Node8</title>
<path fill="none" stroke="#63b8ff" d="M312.6,-125.83C282.56,-116.27 244.3,-104.08 212.6,-93.99"/>
<polygon fill="#63b8ff" stroke="#63b8ff" points="213.71,-90.35 203.12,-90.65 211.58,-97.02 213.71,-90.35"/>
</g>
<!-- Node9 -->
<g id="node9" class="node">
<title>Node9</title>
<g id="a_node9"><a xlink:href="../../dd/d5c/stl__extensions_8hpp.html" target="_top" xlink:title=" ">
<polygon fill="white" stroke="#666666" points="497.26,-90.25 375.51,-90.25 375.51,-56.75 497.26,-56.75 497.26,-90.25"/>
<text text-anchor="start" x="383.51" y="-76.75" font-family="Helvetica,sans-Serif" font-size="10.00">Simple&#45;Utility/concepts</text>
<text text-anchor="middle" x="436.38" y="-64" font-family="Helvetica,sans-Serif" font-size="10.00">/stl_extensions.hpp</text>
</a>
</g>
</g>
<!-- Node4&#45;&gt;Node9 -->
<g id="edge11" class="edge">
<title>Node4&#45;&gt;Node9</title>
<path fill="none" stroke="#63b8ff" d="M380.68,-126C389.71,-117.66 400.92,-107.29 410.92,-98.05"/>
<polygon fill="#63b8ff" stroke="#63b8ff" points="412.99,-100.97 417.95,-91.62 408.24,-95.83 412.99,-100.97"/>
</g>
<!-- Node8&#45;&gt;Node3 -->
<g id="edge9" class="edge">
<title>Node8&#45;&gt;Node3</title>
<path fill="none" stroke="#63b8ff" d="M207.7,-58.61C210.63,-57.96 213.54,-57.34 216.38,-56.75 295.72,-40.34 389.34,-25.25 441.06,-17.28"/>
<polygon fill="#63b8ff" stroke="#63b8ff" points="441.39,-20.62 450.75,-15.65 440.33,-13.7 441.39,-20.62"/>
</g>
<!-- Node8&#45;&gt;Node6 -->
<g id="edge10" class="edge">
<title>Node8&#45;&gt;Node6</title>
<path fill="none" stroke="#63b8ff" d="M129.84,-56.44C117.89,-47.53 103.07,-36.49 91.1,-27.56"/>
<polygon fill="#63b8ff" stroke="#63b8ff" points="93.7,-24.39 83.59,-21.22 89.51,-30 93.7,-24.39"/>
</g>
<!-- Node9&#45;&gt;Node3 -->
<g id="edge12" class="edge">
<title>Node9&#45;&gt;Node3</title>
<path fill="none" stroke="#63b8ff" d="M447.94,-56.44C453.79,-48.32 460.92,-38.42 467,-29.97"/>
<polygon fill="#63b8ff" stroke="#63b8ff" points="470.3,-32.38 473.3,-22.22 464.62,-28.29 470.3,-32.38"/>
</g>
</g>
</svg>
