<?xml version="1.0" encoding="UTF-8" standalone="no"?>
<!DOCTYPE svg PUBLIC "-//W3C//DTD SVG 1.1//EN"
 "http://www.w3.org/Graphics/SVG/1.1/DTD/svg11.dtd">
<!-- Generated by graphviz version 8.0.5 (20230430.1635)
 -->
<!-- Title: sl::unified_base&lt; TTag &gt; Pages: 1 -->
<!--zoomable 544 -->
<svg id="main" version="1.1" xmlns="http://www.w3.org/2000/svg" xmlns:xlink="http://www.w3.org/1999/xlink" xml:space="preserve" onload="init(evt)">
<style type="text/css"><![CDATA[
.edge:hover path { stroke: red; }
.edge:hover polygon { stroke: red; fill: red; }
]]></style>
<script type="text/javascript"><![CDATA[
var edges = document.getElementsByTagName('g');
if (edges && edges.length) {
  for (var i=0;i<edges.length;i++) {
    if (edges[i].id.substr(0,4)=='edge') {
      edges[i].setAttribute('class','edge');
    }
  }
}
]]></script>
        <defs>
                <circle id="rim" cx="0" cy="0" r="7"/>
                <circle id="rim2" cx="0" cy="0" r="3.5"/>
                <g id="zoomPlus">
                        <use xlink:href="#rim" fill="#404040">
                                <set attributeName="fill" to="#808080" begin="zoomplus.mouseover" end="zoomplus.mouseout"/>
                        </use>
                        <path d="M-4,0h8M0,-4v8" fill="none" stroke="white" stroke-width="1.5" pointer-events="none"/>
                </g>
                <g id="zoomMin">
                        <use xlink:href="#rim" fill="#404040">
                                <set attributeName="fill" to="#808080" begin="zoomminus.mouseover" end="zoomminus.mouseout"/>
                        </use>
                        <path d="M-4,0h8" fill="none" stroke="white" stroke-width="1.5" pointer-events="none"/>
                </g>
                <g id="dirArrow">
                        <path fill="none" stroke="white" stroke-width="1.5" d="M0,-3.0v7 M-2.5,-0.5L0,-3.0L2.5,-0.5"/>
                </g>
               <g id="resetDef">
                       <use xlink:href="#rim2" fill="#404040">
                               <set attributeName="fill" to="#808080" begin="reset.mouseover" end="reset.mouseout"/>
                       </use>
               </g>
        </defs>

<script type="text/javascript">
var viewWidth = 1327;
var viewHeight = 544;
var sectionId = 'dynsection-0';
</script>
<script xlink:href="../../svgpan.js"/>
<svg id="graph" class="graph">
<g id="viewport">
<title>sl::unified_base&lt; TTag &gt;</title>
<!-- Node1 -->
<g id="node1" class="node">
<title>Node1</title>
<g id="a_node1"><a xlink:title="Helper type, which can be used to create a unified base class for templated derived classes and thus ...">
<polygon fill="#999999" stroke="#666666" points="124.75,-401.88 0,-401.88 0,-381.12 124.75,-381.12 124.75,-401.88"/>
<text text-anchor="middle" x="62.38" y="-388.38" font-family="Helvetica,sans-Serif" font-size="10.00">sl::unified_base&lt; TTag &gt;</text>
</a>
</g>
</g>
<!-- Node2 -->
<g id="node2" class="node">
<title>Node2</title>
<g id="a_node2"><a xlink:href="../../d6/d62/structsl_1_1unified__base.html" target="_top" xlink:title=" ">
<polygon fill="white" stroke="#666666" points="418.62,-484.25 299.88,-484.25 299.88,-450.75 418.62,-450.75 418.62,-484.25"/>
<text text-anchor="start" x="307.88" y="-470.75" font-family="Helvetica,sans-Serif" font-size="10.00">sl::unified_base&lt; detail</text>
<text text-anchor="middle" x="359.25" y="-458" font-family="Helvetica,sans-Serif" font-size="10.00">::closure_base_tag &gt;</text>
</a>
</g>
</g>
<!-- Node1&#45;&gt;Node2 -->
<g id="edge1" class="edge">
<title>Node1&#45;&gt;Node2</title>
<path fill="none" stroke="orange" stroke-dasharray="5,2" d="M86.76,-408.3C101.98,-418.39 122.67,-430.58 142.75,-437.5 194,-455.16 255.51,-462.44 299.67,-465.44"/>
<polygon fill="orange" stroke="orange" points="89.27,-405.1 79.04,-402.35 85.33,-410.88 89.27,-405.1"/>
<text text-anchor="start" x="153.62" y="-477.5" font-family="Helvetica,sans-Serif" font-size="10.00"> &lt; detail::closure_base</text>
<text text-anchor="middle" x="203.12" y="-464.75" font-family="Helvetica,sans-Serif" font-size="10.00">_tag &gt;</text>
</g>
<!-- Node7 -->
<g id="node7" class="node">
<title>Node7</title>
<g id="a_node7"><a xlink:href="../../d6/d62/structsl_1_1unified__base.html" target="_top" xlink:title=" ">
<polygon fill="white" stroke="#666666" points="425,-432.25 293.5,-432.25 293.5,-398.75 425,-398.75 425,-432.25"/>
<text text-anchor="start" x="301.5" y="-418.75" font-family="Helvetica,sans-Serif" font-size="10.00">sl::unified_base&lt; detail</text>
<text text-anchor="middle" x="359.25" y="-406" font-family="Helvetica,sans-Serif" font-size="10.00">::composition_base_tag &gt;</text>
</a>
</g>
</g>
<!-- Node1&#45;&gt;Node7 -->
<g id="edge6" class="edge">
<title>Node1&#45;&gt;Node7</title>
<path fill="none" stroke="orange" stroke-dasharray="5,2" d="M136.15,-397.42C184.25,-401.34 246.75,-406.43 293.2,-410.21"/>
<polygon fill="orange" stroke="orange" points="136.44,-393.85 126.19,-396.53 135.87,-400.83 136.44,-393.85"/>
<text text-anchor="start" x="154.75" y="-423.5" font-family="Helvetica,sans-Serif" font-size="10.00"> &lt; detail::composition</text>
<text text-anchor="middle" x="203.12" y="-410.75" font-family="Helvetica,sans-Serif" font-size="10.00">_base_tag &gt;</text>
</g>
<!-- Node9 -->
<g id="node9" class="node">
<title>Node9</title>
<g id="a_node9"><a xlink:href="../../d6/d62/structsl_1_1unified__base.html" target="_top" xlink:title=" ">
<polygon fill="white" stroke="#666666" points="437,-170.25 281.5,-170.25 281.5,-136.75 437,-136.75 437,-170.25"/>
<text text-anchor="start" x="289.5" y="-156.75" font-family="Helvetica,sans-Serif" font-size="10.00">sl::unified_base&lt; detail</text>
<text text-anchor="middle" x="359.25" y="-144" font-family="Helvetica,sans-Serif" font-size="10.00">::enable_operators_base_tag &gt;</text>
</a>
</g>
</g>
<!-- Node1&#45;&gt;Node9 -->
<g id="edge8" class="edge">
<title>Node1&#45;&gt;Node9</title>
<path fill="none" stroke="orange" stroke-dasharray="5,2" d="M82.7,-373.35C98.55,-358.64 121.73,-337.55 142.75,-320 210.81,-263.19 294.77,-200.28 334.84,-170.68"/>
<polygon fill="orange" stroke="orange" points="80.63,-370.42 75.7,-379.8 85.4,-375.54 80.63,-370.42"/>
<text text-anchor="start" x="142.75" y="-335.5" font-family="Helvetica,sans-Serif" font-size="10.00"> &lt; detail::enable_operators</text>
<text text-anchor="middle" x="203.12" y="-322.75" font-family="Helvetica,sans-Serif" font-size="10.00">_base_tag &gt;</text>
</g>
<!-- Node17 -->
<g id="node17" class="node">
<title>Node17</title>
<g id="a_node17"><a xlink:href="../../d6/d62/structsl_1_1unified__base.html" target="_top" xlink:title=" ">
<polygon fill="white" stroke="#666666" points="573.75,-386.25 455,-386.25 455,-352.75 573.75,-352.75 573.75,-386.25"/>
<text text-anchor="start" x="463" y="-372.75" font-family="Helvetica,sans-Serif" font-size="10.00">sl::unified_base&lt; detail</text>
<text text-anchor="middle" x="514.38" y="-360" font-family="Helvetica,sans-Serif" font-size="10.00">::algorithm_tag &gt;</text>
</a>
</g>
</g>
<!-- Node1&#45;&gt;Node17 -->
<g id="edge19" class="edge">
<title>Node1&#45;&gt;Node17</title>
<path fill="none" stroke="orange" stroke-dasharray="5,2" d="M104.23,-377.59C116.47,-374.06 130.02,-370.77 142.75,-369 252.05,-353.81 381.24,-359.2 454.62,-364.41"/>
<polygon fill="orange" stroke="orange" points="103.42,-374.48 94.86,-380.72 105.45,-381.18 103.42,-374.48"/>
<text text-anchor="start" x="160.38" y="-384.5" font-family="Helvetica,sans-Serif" font-size="10.00"> &lt; detail::algorithm</text>
<text text-anchor="middle" x="203.12" y="-371.75" font-family="Helvetica,sans-Serif" font-size="10.00">_tag &gt;</text>
</g>
<!-- Node3 -->
<g id="node3" class="node">
<title>Node3</title>
<g id="a_node3"><a xlink:href="../../d9/de4/classsl_1_1functional_1_1closure__base__fn.html" target="_top" xlink:title="Helper type which simply stores functional objects or function pointers.">
<polygon fill="white" stroke="#666666" points="727,-484.25 616.5,-484.25 616.5,-450.75 727,-450.75 727,-484.25"/>
<text text-anchor="start" x="624.5" y="-470.75" font-family="Helvetica,sans-Serif" font-size="10.00">sl::functional::closure</text>
<text text-anchor="middle" x="671.75" y="-458" font-family="Helvetica,sans-Serif" font-size="10.00">_base_fn&lt; TFunc &gt;</text>
</a>
</g>
</g>
<!-- Node2&#45;&gt;Node3 -->
<g id="edge2" class="edge">
<title>Node2&#45;&gt;Node3</title>
<path fill="none" stroke="#8b1a1a" d="M429.97,-467.5C486.24,-467.5 564.32,-467.5 616.13,-467.5"/>
<polygon fill="#8b1a1a" stroke="#8b1a1a" points="430.02,-464 420.02,-467.5 430.02,-471 430.02,-464"/>
</g>
<!-- Node4 -->
<g id="node4" class="node">
<title>Node4</title>
<g id="a_node4"><a xlink:href="../../df/d86/classsl_1_1functional_1_1predicate__fn.html" target="_top" xlink:title="Adapter type for predicates, which accepts a functional type and enables pipe, conjunctive and disjun...">
<polygon fill="white" stroke="#666666" points="1121.38,-432.25 1001.12,-432.25 1001.12,-398.75 1121.38,-398.75 1121.38,-432.25"/>
<text text-anchor="start" x="1009.12" y="-418.75" font-family="Helvetica,sans-Serif" font-size="10.00">sl::functional::predicate</text>
<text text-anchor="middle" x="1061.25" y="-406" font-family="Helvetica,sans-Serif" font-size="10.00">_fn&lt; TFunc &gt;</text>
</a>
</g>
</g>
<!-- Node3&#45;&gt;Node4 -->
<g id="edge3" class="edge">
<title>Node3&#45;&gt;Node4</title>
<path fill="none" stroke="#63b8ff" d="M737.95,-458.75C811.39,-448.9 929.73,-433.01 1000.75,-423.48"/>
<polygon fill="#63b8ff" stroke="#63b8ff" points="737.89,-455.36 728.45,-460.16 738.82,-462.3 737.89,-455.36"/>
</g>
<!-- Node5 -->
<g id="node5" class="node">
<title>Node5</title>
<g id="a_node5"><a xlink:href="../../da/dbe/classsl_1_1functional_1_1transform__fn.html" target="_top" xlink:title="Adapter type which accepts a functional type and enables pipe chaining and currying.">
<polygon fill="white" stroke="#666666" points="1123.25,-536.25 999.25,-536.25 999.25,-502.75 1123.25,-502.75 1123.25,-536.25"/>
<text text-anchor="start" x="1007.25" y="-522.75" font-family="Helvetica,sans-Serif" font-size="10.00">sl::functional::transform</text>
<text text-anchor="middle" x="1061.25" y="-510" font-family="Helvetica,sans-Serif" font-size="10.00">_fn&lt; TFunc &gt;</text>
</a>
</g>
</g>
<!-- Node3&#45;&gt;Node5 -->
<g id="edge4" class="edge">
<title>Node3&#45;&gt;Node5</title>
<path fill="none" stroke="#63b8ff" d="M738.22,-477.07C748.76,-478.58 759.55,-480.1 769.75,-481.5 848.86,-492.38 940.2,-504.21 999.01,-511.73"/>
<polygon fill="#63b8ff" stroke="#63b8ff" points="738.76,-473.47 728.37,-475.51 737.77,-480.4 738.76,-473.47"/>
</g>
<!-- Node6 -->
<g id="node6" class="node">
<title>Node6</title>
<g id="a_node6"><a xlink:href="../../d6/d3b/classsl_1_1nullables_1_1algorithm__fn.html" target="_top" xlink:title="The core algorithm helper, which executes the held algorithm when used as the right&#45;hand&#45;side of oper...">
<polygon fill="white" stroke="#666666" points="1120.62,-484.25 1001.88,-484.25 1001.88,-450.75 1120.62,-450.75 1120.62,-484.25"/>
<text text-anchor="start" x="1009.88" y="-470.75" font-family="Helvetica,sans-Serif" font-size="10.00">sl::nullables::algorithm</text>
<text text-anchor="middle" x="1061.25" y="-458" font-family="Helvetica,sans-Serif" font-size="10.00">_fn&lt; TFunc &gt;</text>
</a>
</g>
</g>
<!-- Node3&#45;&gt;Node6 -->
<g id="edge5" class="edge">
<title>Node3&#45;&gt;Node6</title>
<path fill="none" stroke="#63b8ff" d="M738.43,-467.5C812.13,-467.5 930.6,-467.5 1001.39,-467.5"/>
<polygon fill="#63b8ff" stroke="#63b8ff" points="738.45,-464 728.45,-467.5 738.45,-471 738.45,-464"/>
</g>
<!-- Node8 -->
<g id="node8" class="node">
<title>Node8</title>
<g id="a_node8"><a xlink:href="../../d9/d09/classsl_1_1functional_1_1composition__fn.html" target="_top" xlink:title="Functional type, which composes multiple functional objects via the given operation.">
<polygon fill="white" stroke="#666666" points="748.75,-432.25 594.75,-432.25 594.75,-398.75 748.75,-398.75 748.75,-432.25"/>
<text text-anchor="start" x="602.75" y="-418.75" font-family="Helvetica,sans-Serif" font-size="10.00">sl::functional::composition</text>
<text text-anchor="middle" x="671.75" y="-406" font-family="Helvetica,sans-Serif" font-size="10.00">_fn&lt; TOperation, TFunctions &gt;</text>
</a>
</g>
</g>
<!-- Node7&#45;&gt;Node8 -->
<g id="edge7" class="edge">
<title>Node7&#45;&gt;Node8</title>
<path fill="none" stroke="#8b1a1a" d="M436.32,-415.5C484.43,-415.5 546.38,-415.5 594.52,-415.5"/>
<polygon fill="#8b1a1a" stroke="#8b1a1a" points="436.34,-412 426.34,-415.5 436.34,-419 436.34,-412"/>
</g>
<!-- Node10 -->
<g id="node10" class="node">
<title>Node10</title>
<g id="a_node10"><a xlink:href="../../d0/d50/structsl_1_1functional_1_1enable__operation.html" target="_top" xlink:title=" ">
<polygon fill="white" stroke="#666666" points="1157.75,-194.5 964.75,-194.5 964.75,-84.5 1157.75,-84.5 1157.75,-194.5"/>
<text text-anchor="start" x="972.75" y="-181" font-family="Helvetica,sans-Serif" font-size="10.00">sl::functional::enable</text>
<text text-anchor="start" x="972.75" y="-168.25" font-family="Helvetica,sans-Serif" font-size="10.00">_operation&lt; predicate</text>
<text text-anchor="start" x="972.75" y="-155.5" font-family="Helvetica,sans-Serif" font-size="10.00">_fn, operators::pipe, operators</text>
<text text-anchor="start" x="972.75" y="-142.75" font-family="Helvetica,sans-Serif" font-size="10.00">::bind_front, operators::bind</text>
<text text-anchor="start" x="972.75" y="-130" font-family="Helvetica,sans-Serif" font-size="10.00">_back, operators::disjunction,</text>
<text text-anchor="start" x="972.75" y="-117.25" font-family="Helvetica,sans-Serif" font-size="10.00"> operators::conjunction, operators</text>
<text text-anchor="start" x="972.75" y="-104.5" font-family="Helvetica,sans-Serif" font-size="10.00">::equal, operators::not_equal, operators</text>
<text text-anchor="middle" x="1061.25" y="-91.75" font-family="Helvetica,sans-Serif" font-size="10.00">::equivalent, operators::negate &gt;</text>
</a>
</g>
</g>
<!-- Node9&#45;&gt;Node10 -->
<g id="edge9" class="edge">
<title>Node9&#45;&gt;Node10</title>
<path fill="none" stroke="#8b1a1a" d="M413.17,-132.47C517.08,-94.19 754.41,-21.64 946.75,-73.5 956.43,-76.11 966.14,-79.77 975.58,-84.05"/>
<polygon fill="#8b1a1a" stroke="#8b1a1a" points="412.09,-129.51 403.94,-136.29 414.54,-136.07 412.09,-129.51"/>
</g>
<!-- Node12 -->
<g id="node12" class="node">
<title>Node12</title>
<g id="a_node12"><a xlink:href="../../d0/d50/structsl_1_1functional_1_1enable__operation.html" target="_top" xlink:title=" ">
<polygon fill="white" stroke="#666666" points="1149.88,-59 972.62,-59 972.62,0 1149.88,0 1149.88,-59"/>
<text text-anchor="start" x="980.62" y="-45.5" font-family="Helvetica,sans-Serif" font-size="10.00">sl::functional::enable</text>
<text text-anchor="start" x="980.62" y="-32.75" font-family="Helvetica,sans-Serif" font-size="10.00">_operation&lt; transform</text>
<text text-anchor="start" x="980.62" y="-20" font-family="Helvetica,sans-Serif" font-size="10.00">_fn, operators::pipe, operators</text>
<text text-anchor="middle" x="1061.25" y="-7.25" font-family="Helvetica,sans-Serif" font-size="10.00">::bind_front, operators::bind_back &gt;</text>
</a>
</g>
</g>
<!-- Node9&#45;&gt;Node12 -->
<g id="edge11" class="edge">
<title>Node9&#45;&gt;Node12</title>
<path fill="none" stroke="#8b1a1a" d="M384.82,-129.38C402.81,-113.1 428.6,-92.47 455,-80.5 625.35,-3.26 850.2,-8.57 972.25,-19.12"/>
<polygon fill="#8b1a1a" stroke="#8b1a1a" points="383.09,-126.14 378.13,-135.51 387.84,-131.28 383.09,-126.14"/>
</g>
<!-- Node14 -->
<g id="node14" class="node">
<title>Node14</title>
<g id="a_node14"><a xlink:href="../../d0/d50/structsl_1_1functional_1_1enable__operation.html" target="_top" xlink:title=" ">
<polygon fill="white" stroke="#666666" points="1144.25,-341.38 978.25,-341.38 978.25,-269.62 1144.25,-269.62 1144.25,-341.38"/>
<text text-anchor="start" x="986.25" y="-327.88" font-family="Helvetica,sans-Serif" font-size="10.00">sl::functional::enable</text>
<text text-anchor="start" x="986.25" y="-315.12" font-family="Helvetica,sans-Serif" font-size="10.00">_operation&lt; algorithm</text>
<text text-anchor="start" x="986.25" y="-302.38" font-family="Helvetica,sans-Serif" font-size="10.00">_fn, functional::operators</text>
<text text-anchor="start" x="986.25" y="-289.62" font-family="Helvetica,sans-Serif" font-size="10.00">::bind_back, functional::operators</text>
<text text-anchor="middle" x="1061.25" y="-276.88" font-family="Helvetica,sans-Serif" font-size="10.00">::bind_front &gt;</text>
</a>
</g>
</g>
<!-- Node9&#45;&gt;Node14 -->
<g id="edge13" class="edge">
<title>Node9&#45;&gt;Node14</title>
<path fill="none" stroke="#8b1a1a" d="M400.66,-175.77C472.37,-213.87 627.73,-290.12 769.75,-317.5 839.02,-330.85 919.23,-326.05 977.79,-318.94"/>
<polygon fill="#8b1a1a" stroke="#8b1a1a" points="402.58,-172.29 392.11,-170.66 399.27,-178.46 402.58,-172.29"/>
</g>
<!-- Node16 -->
<g id="node16" class="node">
<title>Node16</title>
<g id="a_node16"><a xlink:href="../../d0/d50/structsl_1_1functional_1_1enable__operation.html" target="_top" xlink:title=" ">
<polygon fill="white" stroke="#666666" points="751.75,-176.62 591.75,-176.62 591.75,-130.38 751.75,-130.38 751.75,-176.62"/>
<text text-anchor="start" x="599.75" y="-163.12" font-family="Helvetica,sans-Serif" font-size="10.00">sl::functional::enable</text>
<text text-anchor="start" x="599.75" y="-150.38" font-family="Helvetica,sans-Serif" font-size="10.00">_operation&lt; TClosureTemplate,</text>
<text text-anchor="middle" x="671.75" y="-137.62" font-family="Helvetica,sans-Serif" font-size="10.00"> TOperationTags &gt;</text>
</a>
</g>
</g>
<!-- Node9&#45;&gt;Node16 -->
<g id="edge15" class="edge">
<title>Node9&#45;&gt;Node16</title>
<path fill="none" stroke="#8b1a1a" d="M448.33,-153.5C493.31,-153.5 547.6,-153.5 591.29,-153.5"/>
<polygon fill="#8b1a1a" stroke="#8b1a1a" points="448.4,-150 438.4,-153.5 448.4,-157 448.4,-150"/>
</g>
<!-- Node11 -->
<g id="node11" class="node">
<title>Node11</title>
<g id="a_node11"><a xlink:href="../../df/d86/classsl_1_1functional_1_1predicate__fn.html" target="_top" xlink:title="Adapter type for predicates, which accepts a functional type and enables pipe, conjunctive and disjun...">
<polygon fill="white" stroke="#666666" points="1316.88,-156.25 1196.62,-156.25 1196.62,-122.75 1316.88,-122.75 1316.88,-156.25"/>
<text text-anchor="start" x="1204.62" y="-142.75" font-family="Helvetica,sans-Serif" font-size="10.00">sl::functional::predicate</text>
<text text-anchor="middle" x="1256.75" y="-130" font-family="Helvetica,sans-Serif" font-size="10.00">_fn&lt; TFunc &gt;</text>
</a>
</g>
</g>
<!-- Node10&#45;&gt;Node11 -->
<g id="edge10" class="edge">
<title>Node10&#45;&gt;Node11</title>
<path fill="none" stroke="#63b8ff" d="M1169.12,-139.5C1178.43,-139.5 1187.62,-139.5 1196.33,-139.5"/>
<polygon fill="#63b8ff" stroke="#63b8ff" points="1169.15,-136 1159.15,-139.5 1169.15,-143 1169.15,-136"/>
</g>
<!-- Node13 -->
<g id="node13" class="node">
<title>Node13</title>
<g id="a_node13"><a xlink:href="../../da/dbe/classsl_1_1functional_1_1transform__fn.html" target="_top" xlink:title="Adapter type which accepts a functional type and enables pipe chaining and currying.">
<polygon fill="white" stroke="#666666" points="1318.75,-46.25 1194.75,-46.25 1194.75,-12.75 1318.75,-12.75 1318.75,-46.25"/>
<text text-anchor="start" x="1202.75" y="-32.75" font-family="Helvetica,sans-Serif" font-size="10.00">sl::functional::transform</text>
<text text-anchor="middle" x="1256.75" y="-20" font-family="Helvetica,sans-Serif" font-size="10.00">_fn&lt; TFunc &gt;</text>
</a>
</g>
</g>
<!-- Node12&#45;&gt;Node13 -->
<g id="edge12" class="edge">
<title>Node12&#45;&gt;Node13</title>
<path fill="none" stroke="#63b8ff" d="M1161.06,-29.5C1172.37,-29.5 1183.65,-29.5 1194.27,-29.5"/>
<polygon fill="#63b8ff" stroke="#63b8ff" points="1161.22,-26 1151.22,-29.5 1161.22,-33 1161.22,-26"/>
</g>
<!-- Node15 -->
<g id="node15" class="node">
<title>Node15</title>
<g id="a_node15"><a xlink:href="../../d6/d3b/classsl_1_1nullables_1_1algorithm__fn.html" target="_top" xlink:title="The core algorithm helper, which executes the held algorithm when used as the right&#45;hand&#45;side of oper...">
<polygon fill="white" stroke="#666666" points="1316.12,-364.25 1197.38,-364.25 1197.38,-330.75 1316.12,-330.75 1316.12,-364.25"/>
<text text-anchor="start" x="1205.38" y="-350.75" font-family="Helvetica,sans-Serif" font-size="10.00">sl::nullables::algorithm</text>
<text text-anchor="middle" x="1256.75" y="-338" font-family="Helvetica,sans-Serif" font-size="10.00">_fn&lt; TFunc &gt;</text>
</a>
</g>
</g>
<!-- Node14&#45;&gt;Node15 -->
<g id="edge14" class="edge">
<title>Node14&#45;&gt;Node15</title>
<path fill="none" stroke="#63b8ff" d="M1154.95,-325.62C1169.24,-328.72 1183.64,-331.85 1196.91,-334.73"/>
<polygon fill="#63b8ff" stroke="#63b8ff" points="1156.11,-322.07 1145.59,-323.37 1154.62,-328.91 1156.11,-322.07"/>
</g>
<!-- Node16&#45;&gt;Node10 -->
<g id="edge16" class="edge">
<title>Node16&#45;&gt;Node10</title>
<path fill="none" stroke="orange" stroke-dasharray="5,2" d="M762.78,-150.25C823.28,-148.06 902.92,-145.18 964.56,-142.96"/>
<polygon fill="orange" stroke="orange" points="762.97,-146.77 753.1,-150.63 763.22,-153.77 762.97,-146.77"/>
<text text-anchor="start" x="769.75" y="-230.25" font-family="Helvetica,sans-Serif" font-size="10.00"> &lt; predicate_fn, operators</text>
<text text-anchor="start" x="769.75" y="-217.5" font-family="Helvetica,sans-Serif" font-size="10.00">::pipe, operators::bind</text>
<text text-anchor="start" x="769.75" y="-204.75" font-family="Helvetica,sans-Serif" font-size="10.00">_front, operators::bind</text>
<text text-anchor="start" x="769.75" y="-192" font-family="Helvetica,sans-Serif" font-size="10.00">_back, operators::disjunction,</text>
<text text-anchor="start" x="769.75" y="-179.25" font-family="Helvetica,sans-Serif" font-size="10.00"> operators::conjunction, operators</text>
<text text-anchor="start" x="769.75" y="-166.5" font-family="Helvetica,sans-Serif" font-size="10.00">::equal, operators::not_equal, operators</text>
<text text-anchor="middle" x="858.25" y="-153.75" font-family="Helvetica,sans-Serif" font-size="10.00">::equivalent, operators::negate &gt;</text>
</g>
<!-- Node16&#45;&gt;Node12 -->
<g id="edge17" class="edge">
<title>Node16&#45;&gt;Node12</title>
<path fill="none" stroke="orange" stroke-dasharray="5,2" d="M721.49,-124.81C736.61,-116.73 753.55,-108.45 769.75,-102.25 835.78,-76.96 913.64,-58.01 972.13,-45.8"/>
<polygon fill="orange" stroke="orange" points="719.95,-122.21 712.85,-130.08 723.31,-128.36 719.95,-122.21"/>
<text text-anchor="start" x="790" y="-131.25" font-family="Helvetica,sans-Serif" font-size="10.00"> &lt; transform_fn, operators</text>
<text text-anchor="start" x="790" y="-118.5" font-family="Helvetica,sans-Serif" font-size="10.00">::pipe, operators::bind</text>
<text text-anchor="middle" x="858.25" y="-105.75" font-family="Helvetica,sans-Serif" font-size="10.00">_front, operators::bind_back &gt;</text>
</g>
<!-- Node16&#45;&gt;Node14 -->
<g id="edge18" class="edge">
<title>Node16&#45;&gt;Node14</title>
<path fill="none" stroke="orange" stroke-dasharray="5,2" d="M697.87,-185.32C715.67,-205.48 741.36,-230.18 769.75,-243.5 841.57,-277.19 869.51,-248.41 946.75,-266.5 956.89,-268.88 967.4,-271.81 977.75,-275"/>
<polygon fill="orange" stroke="orange" points="699.9,-183.32 690.74,-178 694.59,-187.87 699.9,-183.32"/>
<text text-anchor="start" x="797.5" y="-308" font-family="Helvetica,sans-Serif" font-size="10.00"> &lt; algorithm_fn, functional</text>
<text text-anchor="start" x="797.5" y="-295.25" font-family="Helvetica,sans-Serif" font-size="10.00">::operators::bind_back,</text>
<text text-anchor="start" x="797.5" y="-282.5" font-family="Helvetica,sans-Serif" font-size="10.00"> functional::operators::bind</text>
<text text-anchor="middle" x="858.25" y="-269.75" font-family="Helvetica,sans-Serif" font-size="10.00">_front &gt;</text>
</g>
<!-- Node17&#45;&gt;Node15 -->
<g id="edge20" class="edge">
<title>Node17&#45;&gt;Node15</title>
<path fill="none" stroke="#8b1a1a" d="M584.83,-367.47C702.65,-364.02 949.24,-356.78 1157.75,-350.5 1170.43,-350.12 1184.02,-349.71 1196.93,-349.31"/>
<polygon fill="#8b1a1a" stroke="#8b1a1a" points="584.73,-364 574.83,-367.79 584.93,-371 584.73,-364"/>
</g>
</g>
</svg>
        <g id="navigator" transform="translate(0 0)" fill="#404254">
                <rect fill="#f2f5e9" fill-opacity="0.5" stroke="#606060" stroke-width=".5" x="0" y="0" width="60" height="60"/>
                <use id="zoomplus" xlink:href="#zoomPlus" x="17" y="9" onmousedown="handleZoom(evt,'in')"/>
                <use id="zoomminus" xlink:href="#zoomMin" x="42" y="9" onmousedown="handleZoom(evt,'out')"/>
                <use id="reset" xlink:href="#resetDef" x="30" y="36" onmousedown="handleReset()"/>
                <g id="arrowUp" xlink:href="#dirArrow" transform="translate(30 24)" onmousedown="handlePan(0,-1)">
                  <use xlink:href="#rim" fill="#404040">
                        <set attributeName="fill" to="#808080" begin="arrowUp.mouseover" end="arrowUp.mouseout"/>
                  </use>
                  <path fill="none" stroke="white" stroke-width="1.5" d="M0,-3.0v7 M-2.5,-0.5L0,-3.0L2.5,-0.5"/>
                </g>
                <g id="arrowRight" xlink:href="#dirArrow" transform="rotate(90) translate(36 -43)" onmousedown="handlePan(1,0)">
                  <use xlink:href="#rim" fill="#404040">
                        <set attributeName="fill" to="#808080" begin="arrowRight.mouseover" end="arrowRight.mouseout"/>
                  </use>
                  <path fill="none" stroke="white" stroke-width="1.5" d="M0,-3.0v7 M-2.5,-0.5L0,-3.0L2.5,-0.5"/>
                </g>
                <g id="arrowDown" xlink:href="#dirArrow" transform="rotate(180) translate(-30 -48)" onmousedown="handlePan(0,1)">
                  <use xlink:href="#rim" fill="#404040">
                        <set attributeName="fill" to="#808080" begin="arrowDown.mouseover" end="arrowDown.mouseout"/>
                  </use>
                  <path fill="none" stroke="white" stroke-width="1.5" d="M0,-3.0v7 M-2.5,-0.5L0,-3.0L2.5,-0.5"/>
                </g>
                <g id="arrowLeft" xlink:href="#dirArrow" transform="rotate(270) translate(-36 17)" onmousedown="handlePan(-1,0)">
                  <use xlink:href="#rim" fill="#404040">
                        <set attributeName="fill" to="#808080" begin="arrowLeft.mouseover" end="arrowLeft.mouseout"/>
                  </use>
                  <path fill="none" stroke="white" stroke-width="1.5" d="M0,-3.0v7 M-2.5,-0.5L0,-3.0L2.5,-0.5"/>
                </g>
        </g>
        <svg viewBox="0 0 15 15" width="100%" height="30px" preserveAspectRatio="xMaxYMin meet">
         <g id="arrow_out" transform="scale(0.3 0.3)">
          <a xlink:href="structsl_1_1unified__base__inherit__graph_org.svg" target="_base">
           <rect id="button" ry="5" rx="5" y="6" x="6" height="38" width="38"
                fill="#f2f5e9" fill-opacity="0.5" stroke="#606060" stroke-width="1.0"/>
           <path id="arrow"
             d="M 11.500037,31.436501 C 11.940474,20.09759 22.043105,11.32322 32.158766,21.979434 L 37.068811,17.246167 C 37.068811,17.246167 37.088388,32 37.088388,32 L 22.160133,31.978069 C 22.160133,31.978069 26.997745,27.140456 26.997745,27.140456 C 18.528582,18.264221 13.291696,25.230495 11.500037,31.436501 z"
             style="fill:#404040;"/>
          </a>
         </g>
        </svg>
</svg>
