<?xml version="1.0" encoding="UTF-8" standalone="no"?>
<!DOCTYPE svg PUBLIC "-//W3C//DTD SVG 1.1//EN"
 "http://www.w3.org/Graphics/SVG/1.1/DTD/svg11.dtd">
<!-- Generated by graphviz version 8.0.5 (20230430.1635)
 -->
<!-- Title: type&#45;list Pages: 1 -->
<!--zoomable 1043 -->
<svg id="main" version="1.1" xmlns="http://www.w3.org/2000/svg" xmlns:xlink="http://www.w3.org/1999/xlink" xml:space="preserve" onload="init(evt)">
<style type="text/css"><![CDATA[
.edge:hover path { stroke: red; }
.edge:hover polygon { stroke: red; fill: red; }
]]></style>
<script type="text/javascript"><![CDATA[
var edges = document.getElementsByTagName('g');
if (edges && edges.length) {
  for (var i=0;i<edges.length;i++) {
    if (edges[i].id.substr(0,4)=='edge') {
      edges[i].setAttribute('class','edge');
    }
  }
}
]]></script>
        <defs>
                <circle id="rim" cx="0" cy="0" r="7"/>
                <circle id="rim2" cx="0" cy="0" r="3.5"/>
                <g id="zoomPlus">
                        <use xlink:href="#rim" fill="#404040">
                                <set attributeName="fill" to="#808080" begin="zoomplus.mouseover" end="zoomplus.mouseout"/>
                        </use>
                        <path d="M-4,0h8M0,-4v8" fill="none" stroke="white" stroke-width="1.5" pointer-events="none"/>
                </g>
                <g id="zoomMin">
                        <use xlink:href="#rim" fill="#404040">
                                <set attributeName="fill" to="#808080" begin="zoomminus.mouseover" end="zoomminus.mouseout"/>
                        </use>
                        <path d="M-4,0h8" fill="none" stroke="white" stroke-width="1.5" pointer-events="none"/>
                </g>
                <g id="dirArrow">
                        <path fill="none" stroke="white" stroke-width="1.5" d="M0,-3.0v7 M-2.5,-0.5L0,-3.0L2.5,-0.5"/>
                </g>
               <g id="resetDef">
                       <use xlink:href="#rim2" fill="#404040">
                               <set attributeName="fill" to="#808080" begin="reset.mouseover" end="reset.mouseout"/>
                       </use>
               </g>
        </defs>

<script type="text/javascript">
var viewWidth = 211;
var viewHeight = 1043;
var sectionId = 'dynsection-0';
</script>
<script xlink:href="../../svgpan.js"/>
<svg id="graph" class="graph">
<g id="viewport">
<title>type&#45;list</title>
<!-- Node1 -->
<g id="node1" class="node">
<title>Node1</title>
<g id="a_node1"><a xlink:title=" ">
<polygon fill="#999999" stroke="#666666" points="53.5,-527.75 0,-527.75 0,-507 53.5,-507 53.5,-527.75"/>
<text text-anchor="middle" x="26.75" y="-514.25" font-family="Helvetica,sans-Serif" font-size="10.00">type&#45;list</text>
</a>
</g>
</g>
<!-- Node2 -->
<g id="node2" class="node">
<title>Node2</title>
<g id="a_node2"><a xlink:href="../../d4/dfe/group___g_r_o_u_p___t_y_p_e___l_i_s_t___a_p_p_e_n_d.html" target="_top" xlink:title="Adds all of given types at the end of the source type&#45;list.">
<polygon fill="white" stroke="#666666" points="171.5,-1034.75 121,-1034.75 121,-1014 171.5,-1014 171.5,-1034.75"/>
<text text-anchor="middle" x="146.25" y="-1021.25" font-family="Helvetica,sans-Serif" font-size="10.00">append</text>
</a>
</g>
</g>
<!-- Node1&#45;&gt;Node2 -->
<g id="edge1" class="edge">
<title>Node1&#45;&gt;Node2</title>
<path fill="none" stroke="black" d="M27.59,-539.02C27.39,-623.67 30.78,-931.2 89.5,-1004.38 97.09,-1013.84 109.53,-1018.83 120.74,-1021.46"/>
<polygon fill="black" stroke="black" points="31.09,-539.22 27.64,-529.2 24.09,-539.19 31.09,-539.22"/>
</g>
<!-- Node3 -->
<g id="node3" class="node">
<title>Node3</title>
<g id="a_node3"><a xlink:href="../../d6/d4e/group___g_r_o_u_p___t_y_p_e___l_i_s_t___b_a_c_k.html" target="_top" xlink:title="Defines the type member&#45;alias containing the last element of the given type&#45;list.">
<polygon fill="white" stroke="#666666" points="164.75,-995.75 127.75,-995.75 127.75,-975 164.75,-975 164.75,-995.75"/>
<text text-anchor="middle" x="146.25" y="-982.25" font-family="Helvetica,sans-Serif" font-size="10.00">back</text>
</a>
</g>
</g>
<!-- Node1&#45;&gt;Node3 -->
<g id="edge2" class="edge">
<title>Node1&#45;&gt;Node3</title>
<path fill="none" stroke="black" d="M27.85,-538.81C28.67,-618.81 35.39,-898.69 89.5,-965.38 98.7,-976.71 114.85,-981.63 127.4,-983.75"/>
<polygon fill="black" stroke="black" points="31.35,-539.1 27.77,-529.13 24.35,-539.16 31.35,-539.1"/>
</g>
<!-- Node4 -->
<g id="node4" class="node">
<title>Node4</title>
<g id="a_node4"><a xlink:href="../../d9/dd6/group___g_r_o_u_p___t_y_p_e___l_i_s_t___c_a_r_t_e_s_i_a_n___p_r_o_d_u_c_t.html" target="_top" xlink:title="Given multiple source type&#45;lists this algorithm yields a new type&#45;list combining each element of each...">
<polygon fill="white" stroke="#666666" points="193.25,-956.75 99.25,-956.75 99.25,-936 193.25,-936 193.25,-956.75"/>
<text text-anchor="middle" x="146.25" y="-943.25" font-family="Helvetica,sans-Serif" font-size="10.00">cartesian product</text>
</a>
</g>
</g>
<!-- Node1&#45;&gt;Node4 -->
<g id="edge3" class="edge">
<title>Node1&#45;&gt;Node4</title>
<path fill="none" stroke="black" d="M28.17,-538.85C30.06,-614.34 40.04,-866.21 89.5,-926.38 92.57,-930.11 96.39,-933.14 100.58,-935.61"/>
<polygon fill="black" stroke="black" points="31.65,-538.86 27.92,-528.94 24.65,-539.02 31.65,-538.86"/>
</g>
<!-- Node5 -->
<g id="node5" class="node">
<title>Node5</title>
<g id="a_node5"><a xlink:href="../../d4/d0b/group___g_r_o_u_p___t_y_p_e___l_i_s_t___c_o_m_m_o_n___c_o_n_t_a_i_n_e_r.html" target="_top" xlink:title="Trait determining whether some type&#45;lists have the container type in common.">
<polygon fill="white" stroke="#666666" points="198.5,-917.75 94,-917.75 94,-897 198.5,-897 198.5,-917.75"/>
<text text-anchor="middle" x="146.25" y="-904.25" font-family="Helvetica,sans-Serif" font-size="10.00">common_container</text>
</a>
</g>
</g>
<!-- Node1&#45;&gt;Node5 -->
<g id="edge4" class="edge">
<title>Node1&#45;&gt;Node5</title>
<path fill="none" stroke="black" d="M28.54,-538.61C31.56,-609.07 44.61,-833.63 89.5,-887.38 92.6,-891.08 96.44,-894.11 100.64,-896.57"/>
<polygon fill="black" stroke="black" points="32.01,-538.85 28.11,-529 25.02,-539.13 32.01,-538.85"/>
</g>
<!-- Node6 -->
<g id="node6" class="node">
<title>Node6</title>
<g id="a_node6"><a xlink:href="../../d7/d3b/group___g_r_o_u_p___t_y_p_e___l_i_s_t___c_o_n_c_a_t.html" target="_top" xlink:title="Appends at the end of the first type&#45;list all elements of the other type&#45;lists.">
<polygon fill="white" stroke="#666666" points="169.25,-878.75 123.25,-878.75 123.25,-858 169.25,-858 169.25,-878.75"/>
<text text-anchor="middle" x="146.25" y="-865.25" font-family="Helvetica,sans-Serif" font-size="10.00">concat</text>
</a>
</g>
</g>
<!-- Node1&#45;&gt;Node6 -->
<g id="edge5" class="edge">
<title>Node1&#45;&gt;Node6</title>
<path fill="none" stroke="black" d="M29.02,-538.9C33.3,-604.63 49.27,-801.13 89.5,-848.38 97.83,-858.16 111.32,-863.16 122.94,-865.71"/>
<polygon fill="black" stroke="black" points="32.47,-538.98 28.35,-529.21 25.48,-539.41 32.47,-538.98"/>
</g>
<!-- Node7 -->
<g id="node7" class="node">
<title>Node7</title>
<g id="a_node7"><a xlink:href="../../d6/d9c/group___g_r_o_u_p___t_y_p_e___l_i_s_t___c_o_n_t_a_i_n_s.html" target="_top" xlink:title="Queries the source type&#45;list whether it contains a specific type.">
<polygon fill="white" stroke="#666666" points="173.38,-839.75 119.12,-839.75 119.12,-819 173.38,-819 173.38,-839.75"/>
<text text-anchor="middle" x="146.25" y="-826.25" font-family="Helvetica,sans-Serif" font-size="10.00">contains</text>
</a>
</g>
</g>
<!-- Node1&#45;&gt;Node7 -->
<g id="edge6" class="edge">
<title>Node1&#45;&gt;Node7</title>
<path fill="none" stroke="black" d="M29.62,-539.08C35.25,-599.62 53.89,-768.55 89.5,-809.38 96.94,-817.9 108.27,-822.79 118.79,-825.6"/>
<polygon fill="black" stroke="black" points="33.02,-538.83 28.64,-529.19 26.05,-539.46 33.02,-538.83"/>
</g>
<!-- Node8 -->
<g id="node8" class="node">
<title>Node8</title>
<g id="a_node8"><a xlink:href="../../de/de5/group___g_r_o_u_p___t_y_p_e___l_i_s_t___c_o_u_n_t.html" target="_top" xlink:title="Determines how often the query type appears in the source type&#45;list.">
<polygon fill="white" stroke="#666666" points="167,-800.75 125.5,-800.75 125.5,-780 167,-780 167,-800.75"/>
<text text-anchor="middle" x="146.25" y="-787.25" font-family="Helvetica,sans-Serif" font-size="10.00">count</text>
</a>
</g>
</g>
<!-- Node1&#45;&gt;Node8 -->
<g id="edge7" class="edge">
<title>Node1&#45;&gt;Node8</title>
<path fill="none" stroke="black" d="M30.39,-539.03C37.46,-593.78 58.43,-735.85 89.5,-770.38 98.58,-780.46 113.12,-785.47 125.07,-787.94"/>
<polygon fill="black" stroke="black" points="33.74,-538.67 29.02,-529.19 26.8,-539.55 33.74,-538.67"/>
</g>
<!-- Node9 -->
<g id="node9" class="node">
<title>Node9</title>
<g id="a_node9"><a xlink:href="../../d1/d01/group___g_r_o_u_p___t_y_p_e___l_i_s_t___d_i_f_f_e_r_e_n_c_e.html" target="_top" xlink:title="Determines which elements of the first type&#45;list are not contained in the second type&#45;list and yields...">
<polygon fill="white" stroke="#666666" points="177.12,-761.75 115.38,-761.75 115.38,-741 177.12,-741 177.12,-761.75"/>
<text text-anchor="middle" x="146.25" y="-748.25" font-family="Helvetica,sans-Serif" font-size="10.00">difference</text>
</a>
</g>
</g>
<!-- Node1&#45;&gt;Node9 -->
<g id="edge8" class="edge">
<title>Node1&#45;&gt;Node9</title>
<path fill="none" stroke="black" d="M27.81,-538.82C29.1,-581.23 37.96,-676.45 89.5,-731.38 96.26,-738.57 105.78,-743.19 115.06,-746.14"/>
<polygon fill="black" stroke="black" points="31.3,-538.83 27.62,-528.89 24.3,-538.95 31.3,-538.83"/>
</g>
<!-- Node10 -->
<g id="node10" class="node">
<title>Node10</title>
<g id="a_node10"><a xlink:href="../../d9/d02/group___g_r_o_u_p___t_y_p_e___l_i_s_t___e_q_u_a_l.html" target="_top" xlink:title="Determines whether the source type&#45;lists contain the same elements in the same order.">
<polygon fill="white" stroke="#666666" points="166.62,-722.75 125.88,-722.75 125.88,-702 166.62,-702 166.62,-722.75"/>
<text text-anchor="middle" x="146.25" y="-709.25" font-family="Helvetica,sans-Serif" font-size="10.00">equal</text>
</a>
</g>
</g>
<!-- Node1&#45;&gt;Node10 -->
<g id="edge9" class="edge">
<title>Node1&#45;&gt;Node10</title>
<path fill="none" stroke="black" d="M29.48,-538.9C33.54,-575.36 46.83,-649.49 89.5,-692.38 99.07,-702 113.6,-707.01 125.42,-709.62"/>
<polygon fill="black" stroke="black" points="32.88,-538.69 28.43,-529.08 25.91,-539.37 32.88,-538.69"/>
</g>
<!-- Node11 -->
<g id="node11" class="node">
<title>Node11</title>
<g id="a_node11"><a xlink:href="../../d6/d1f/group___g_r_o_u_p___t_y_p_e___l_i_s_t___f_i_l_t_e_r.html" target="_top" xlink:title="Applies the given filter trait an each element and omits it from the resulting type&#45;list if the filte...">
<polygon fill="white" stroke="#666666" points="165.12,-683.75 127.38,-683.75 127.38,-663 165.12,-663 165.12,-683.75"/>
<text text-anchor="middle" x="146.25" y="-670.25" font-family="Helvetica,sans-Serif" font-size="10.00">filter</text>
</a>
</g>
</g>
<!-- Node1&#45;&gt;Node11 -->
<g id="edge10" class="edge">
<title>Node1&#45;&gt;Node11</title>
<path fill="none" stroke="black" d="M31.96,-538.68C38.9,-568.37 55.49,-622.04 89.5,-653.38 99.86,-662.92 115.1,-667.98 127.03,-670.62"/>
<polygon fill="black" stroke="black" points="35.24,-538.27 29.69,-529.24 28.4,-539.75 35.24,-538.27"/>
</g>
<!-- Node12 -->
<g id="node12" class="node">
<title>Node12</title>
<g id="a_node12"><a xlink:href="../../d0/d3f/group___g_r_o_u_p___t_y_p_e___l_i_s_t___f_r_o_n_t.html" target="_top" xlink:title="Defines the type member&#45;alias containing the first element of the given type&#45;list.">
<polygon fill="white" stroke="#666666" points="165.88,-644.75 126.62,-644.75 126.62,-624 165.88,-624 165.88,-644.75"/>
<text text-anchor="middle" x="146.25" y="-631.25" font-family="Helvetica,sans-Serif" font-size="10.00">front</text>
</a>
</g>
</g>
<!-- Node1&#45;&gt;Node12 -->
<g id="edge11" class="edge">
<title>Node1&#45;&gt;Node12</title>
<path fill="none" stroke="black" d="M35.99,-537.94C45.72,-559.77 63.88,-593.91 89.5,-614.38 100.1,-622.85 114.59,-627.9 126.14,-630.81"/>
<polygon fill="black" stroke="black" points="38.92,-536.88 31.78,-529.04 32.48,-539.62 38.92,-536.88"/>
</g>
<!-- Node13 -->
<g id="node13" class="node">
<title>Node13</title>
<g id="a_node13"><a xlink:href="../../de/df2/group___g_r_o_u_p___t_y_p_e___l_i_s_t___i_n_d_e_x___o_f.html" target="_top" xlink:title="Queries the given type&#45;list for a specific type.">
<polygon fill="white" stroke="#666666" points="173.75,-605.75 118.75,-605.75 118.75,-585 173.75,-585 173.75,-605.75"/>
<text text-anchor="middle" x="146.25" y="-592.25" font-family="Helvetica,sans-Serif" font-size="10.00">index_of</text>
</a>
</g>
</g>
<!-- Node1&#45;&gt;Node13 -->
<g id="edge12" class="edge">
<title>Node1&#45;&gt;Node13</title>
<path fill="none" stroke="black" d="M43.95,-536.2C55.57,-548.72 72.17,-564.77 89.5,-575.38 98.36,-580.8 108.9,-585.05 118.43,-588.22"/>
<polygon fill="black" stroke="black" points="47.04,-534.29 37.75,-529.19 41.84,-538.97 47.04,-534.29"/>
</g>
<!-- Node14 -->
<g id="node14" class="node">
<title>Node14</title>
<g id="a_node14"><a xlink:href="../../d7/da0/group___g_r_o_u_p___t_y_p_e___l_i_s_t___i_n_t_e_r_s_e_c_t_i_o_n.html" target="_top" xlink:title="Determines the intersection between the elements of two type&#45;lists. The order doesn&#39;t matter.">
<polygon fill="white" stroke="#666666" points="180.88,-566.75 111.62,-566.75 111.62,-546 180.88,-546 180.88,-566.75"/>
<text text-anchor="middle" x="146.25" y="-553.25" font-family="Helvetica,sans-Serif" font-size="10.00">intersection</text>
</a>
</g>
</g>
<!-- Node1&#45;&gt;Node14 -->
<g id="edge13" class="edge">
<title>Node1&#45;&gt;Node14</title>
<path fill="none" stroke="black" d="M64.08,-529.43C79.55,-534.57 97.47,-540.51 112.52,-545.51"/>
<polygon fill="black" stroke="black" points="65.42,-525.86 54.83,-526.03 63.22,-532.5 65.42,-525.86"/>
</g>
<!-- Node17 -->
<g id="node15" class="node">
<title>Node17</title>
<g id="a_node15"><a xlink:href="../../d1/d23/group___g_r_o_u_p___t_y_p_e___l_i_s_t___p_o_p_u_l_a_t_e_d___f_r_o_m.html" target="_top" xlink:title="Applies the source type&#45;list&#45;elements as template arguments of the TargetContainer.">
<polygon fill="white" stroke="#666666" points="191.38,-527.75 101.12,-527.75 101.12,-507 191.38,-507 191.38,-527.75"/>
<text text-anchor="middle" x="146.25" y="-514.25" font-family="Helvetica,sans-Serif" font-size="10.00">populated_from</text>
</a>
</g>
</g>
<!-- Node1&#45;&gt;Node17 -->
<g id="edge16" class="edge">
<title>Node1&#45;&gt;Node17</title>
<path fill="none" stroke="black" d="M64.75,-517.38C76.19,-517.38 88.9,-517.38 100.78,-517.38"/>
<polygon fill="black" stroke="black" points="64.83,-513.88 54.83,-517.38 64.83,-520.88 64.83,-513.88"/>
</g>
<!-- Node15 -->
<g id="node16" class="node">
<title>Node15</title>
<g id="a_node16"><a xlink:href="../../d4/d10/group___g_r_o_u_p___t_y_p_e___l_i_s_t___p_o_p___b_a_c_k.html" target="_top" xlink:title="Removes the last element of the given type&#45;list.">
<polygon fill="white" stroke="#666666" points="174.88,-488.75 117.62,-488.75 117.62,-468 174.88,-468 174.88,-488.75"/>
<text text-anchor="middle" x="146.25" y="-475.25" font-family="Helvetica,sans-Serif" font-size="10.00">pop back</text>
</a>
</g>
</g>
<!-- Node1&#45;&gt;Node15 -->
<g id="edge14" class="edge">
<title>Node1&#45;&gt;Node15</title>
<path fill="none" stroke="black" d="M64.03,-505.33C81.15,-499.65 101.27,-492.97 117.19,-487.69"/>
<polygon fill="black" stroke="black" points="63.22,-502.25 54.83,-508.72 65.42,-508.89 63.22,-502.25"/>
</g>
<!-- Node16 -->
<g id="node17" class="node">
<title>Node16</title>
<g id="a_node17"><a xlink:href="../../dd/d27/group___g_r_o_u_p___t_y_p_e___l_i_s_t___p_o_p___f_r_o_n_t.html" target="_top" xlink:title="Removes the first element of the given type&#45;list.">
<polygon fill="white" stroke="#666666" points="176,-449.75 116.5,-449.75 116.5,-429 176,-429 176,-449.75"/>
<text text-anchor="middle" x="146.25" y="-436.25" font-family="Helvetica,sans-Serif" font-size="10.00">pop front</text>
</a>
</g>
</g>
<!-- Node1&#45;&gt;Node16 -->
<g id="edge15" class="edge">
<title>Node1&#45;&gt;Node16</title>
<path fill="none" stroke="black" d="M43.95,-498.55C55.57,-486.03 72.17,-469.98 89.5,-459.38 97.66,-454.38 107.24,-450.38 116.15,-447.3"/>
<polygon fill="black" stroke="black" points="41.84,-495.78 37.75,-505.56 47.04,-500.46 41.84,-495.78"/>
</g>
<!-- Node18 -->
<g id="node18" class="node">
<title>Node18</title>
<g id="a_node18"><a xlink:href="../../df/dbc/group___g_r_o_u_p___t_y_p_e___l_i_s_t___p_r_e_p_e_n_d.html" target="_top" xlink:title="Adds all of given types at the begin of the source type&#45;list.">
<polygon fill="white" stroke="#666666" points="173.38,-410.75 119.12,-410.75 119.12,-390 173.38,-390 173.38,-410.75"/>
<text text-anchor="middle" x="146.25" y="-397.25" font-family="Helvetica,sans-Serif" font-size="10.00">prepend</text>
</a>
</g>
</g>
<!-- Node1&#45;&gt;Node18 -->
<g id="edge17" class="edge">
<title>Node1&#45;&gt;Node18</title>
<path fill="none" stroke="black" d="M35.99,-496.81C45.72,-474.98 63.88,-440.84 89.5,-420.38 97.93,-413.64 108.83,-409.06 118.75,-406.01"/>
<polygon fill="black" stroke="black" points="32.48,-495.13 31.78,-505.71 38.92,-497.87 32.48,-495.13"/>
</g>
<!-- Node19 -->
<g id="node19" class="node">
<title>Node19</title>
<g id="a_node19"><a xlink:href="../../d6/df3/group___g_r_o_u_p___t_y_p_e___l_i_s_t___r_e_m_o_v_e.html" target="_top" xlink:title="Removes all appearances of the given type from the source type&#45;list.">
<polygon fill="white" stroke="#666666" points="171.12,-371.75 121.38,-371.75 121.38,-351 171.12,-351 171.12,-371.75"/>
<text text-anchor="middle" x="146.25" y="-358.25" font-family="Helvetica,sans-Serif" font-size="10.00">remove</text>
</a>
</g>
</g>
<!-- Node1&#45;&gt;Node19 -->
<g id="edge18" class="edge">
<title>Node1&#45;&gt;Node19</title>
<path fill="none" stroke="black" d="M31.96,-496.07C38.9,-466.38 55.49,-412.71 89.5,-381.38 98.2,-373.36 110.33,-368.51 121.06,-365.6"/>
<polygon fill="black" stroke="black" points="28.4,-495 29.69,-505.51 35.24,-496.48 28.4,-495"/>
</g>
<!-- Node20 -->
<g id="node20" class="node">
<title>Node20</title>
<g id="a_node20"><a xlink:href="../../d2/d03/group___g_r_o_u_p___t_y_p_e___l_i_s_t___r_e_m_o_v_e___a_t.html" target="_top" xlink:title="Removes the element at the given index.">
<polygon fill="white" stroke="#666666" points="178.25,-332.75 114.25,-332.75 114.25,-312 178.25,-312 178.25,-332.75"/>
<text text-anchor="middle" x="146.25" y="-319.25" font-family="Helvetica,sans-Serif" font-size="10.00">remove_at</text>
</a>
</g>
</g>
<!-- Node1&#45;&gt;Node20 -->
<g id="edge19" class="edge">
<title>Node1&#45;&gt;Node20</title>
<path fill="none" stroke="black" d="M29.48,-495.85C33.54,-459.39 46.83,-385.26 89.5,-342.38 96.1,-335.74 105.05,-331.3 113.85,-328.32"/>
<polygon fill="black" stroke="black" points="25.91,-495.38 28.43,-505.67 32.88,-496.06 25.91,-495.38"/>
</g>
<!-- Node21 -->
<g id="node21" class="node">
<title>Node21</title>
<g id="a_node21"><a xlink:href="../../d7/d99/group___g_r_o_u_p___t_y_p_e___l_i_s_t___r_e_v_e_r_s_e.html" target="_top" xlink:title="Reverses the order of all elements.">
<polygon fill="white" stroke="#666666" points="170.38,-293.75 122.12,-293.75 122.12,-273 170.38,-273 170.38,-293.75"/>
<text text-anchor="middle" x="146.25" y="-280.25" font-family="Helvetica,sans-Serif" font-size="10.00">reverse</text>
</a>
</g>
</g>
<!-- Node1&#45;&gt;Node21 -->
<g id="edge20" class="edge">
<title>Node1&#45;&gt;Node21</title>
<path fill="none" stroke="black" d="M27.81,-495.93C29.1,-453.52 37.96,-358.3 89.5,-303.38 97.87,-294.45 110.51,-289.5 121.63,-286.76"/>
<polygon fill="black" stroke="black" points="24.3,-495.8 27.62,-505.86 31.3,-495.92 24.3,-495.8"/>
</g>
<!-- Node22 -->
<g id="node22" class="node">
<title>Node22</title>
<g id="a_node22"><a xlink:href="../../d8/daa/group___g_r_o_u_p___t_y_p_e___l_i_s_t___s_y_m_m_e_t_r_i_c___d_i_f_f_e_r_e_n_c_e.html" target="_top" xlink:title="Determines which elements are in either of the source type&#45;lists, but not in both....">
<polygon fill="white" stroke="#666666" points="203,-254.75 89.5,-254.75 89.5,-234 203,-234 203,-254.75"/>
<text text-anchor="middle" x="146.25" y="-241.25" font-family="Helvetica,sans-Serif" font-size="10.00">symmetric_difference</text>
</a>
</g>
</g>
<!-- Node1&#45;&gt;Node22 -->
<g id="edge21" class="edge">
<title>Node1&#45;&gt;Node22</title>
<path fill="none" stroke="black" d="M30.39,-495.72C37.46,-440.97 58.43,-298.9 89.5,-264.38 92.87,-260.63 96.99,-257.59 101.46,-255.11"/>
<polygon fill="black" stroke="black" points="26.8,-495.2 29.02,-505.56 33.74,-496.08 26.8,-495.2"/>
</g>
<!-- Node23 -->
<g id="node23" class="node">
<title>Node23</title>
<g id="a_node23"><a xlink:href="../../de/d34/group___g_r_o_u_p___t_y_p_e___l_i_s_t___t_a_i_l.html" target="_top" xlink:title="Skips the first element of the given type&#45;list and defines a type member&#45;alias containing the rest of...">
<polygon fill="white" stroke="#666666" points="161.38,-215.75 131.12,-215.75 131.12,-195 161.38,-195 161.38,-215.75"/>
<text text-anchor="middle" x="146.25" y="-202.25" font-family="Helvetica,sans-Serif" font-size="10.00">tail</text>
</a>
</g>
</g>
<!-- Node1&#45;&gt;Node23 -->
<g id="edge22" class="edge">
<title>Node1&#45;&gt;Node23</title>
<path fill="none" stroke="black" d="M29.62,-495.67C35.25,-435.13 53.89,-266.2 89.5,-225.38 99.91,-213.44 117.97,-208.63 130.71,-206.69"/>
<polygon fill="black" stroke="black" points="26.05,-495.29 28.64,-505.56 33.02,-495.92 26.05,-495.29"/>
</g>
<!-- Node24 -->
<g id="node24" class="node">
<title>Node24</title>
<g id="a_node24"><a xlink:href="../../d6/d02/group___g_r_o_u_p___t_y_p_e___l_i_s_t___t_r_a_n_s_f_o_r_m.html" target="_top" xlink:title="Applies the given unary operation on each element of the source type&#45;list and stores them into a new ...">
<polygon fill="white" stroke="#666666" points="177.12,-176.75 115.38,-176.75 115.38,-156 177.12,-156 177.12,-176.75"/>
<text text-anchor="middle" x="146.25" y="-163.25" font-family="Helvetica,sans-Serif" font-size="10.00">transform</text>
</a>
</g>
</g>
<!-- Node1&#45;&gt;Node24 -->
<g id="edge23" class="edge">
<title>Node1&#45;&gt;Node24</title>
<path fill="none" stroke="black" d="M29.02,-495.85C33.3,-430.12 49.27,-233.62 89.5,-186.38 95.97,-178.78 105.54,-174.07 114.93,-171.15"/>
<polygon fill="black" stroke="black" points="25.48,-495.34 28.35,-505.54 32.47,-495.77 25.48,-495.34"/>
</g>
<!-- Node25 -->
<g id="node25" class="node">
<title>Node25</title>
<g id="a_node25"><a xlink:href="../../d0/d6a/group___g_r_o_u_p___t_y_p_e___l_i_s_t___u_n_i_q_u_e.html" target="_top" xlink:title="Removes all element duplicates contained by the source type&#45;list.">
<polygon fill="white" stroke="#666666" points="169.25,-137.75 123.25,-137.75 123.25,-117 169.25,-117 169.25,-137.75"/>
<text text-anchor="middle" x="146.25" y="-124.25" font-family="Helvetica,sans-Serif" font-size="10.00">unique</text>
</a>
</g>
</g>
<!-- Node1&#45;&gt;Node25 -->
<g id="edge24" class="edge">
<title>Node1&#45;&gt;Node25</title>
<path fill="none" stroke="black" d="M28.54,-496.14C31.56,-425.68 44.61,-201.12 89.5,-147.38 97.74,-137.51 111.22,-132.51 122.87,-129.98"/>
<polygon fill="black" stroke="black" points="25.02,-495.62 28.11,-505.75 32.01,-495.9 25.02,-495.62"/>
</g>
<!-- Node26 -->
<g id="node26" class="node">
<title>Node26</title>
<g id="a_node26"><a xlink:href="../../d1/da8/group___g_r_o_u_p___t_y_p_e___l_i_s_t___u_n_o_r_d_e_r_e_d___e_q_u_a_l.html" target="_top" xlink:title="Determines whether the source type&#45;lists contain the same elements.">
<polygon fill="white" stroke="#666666" points="192.88,-98.75 99.62,-98.75 99.62,-78 192.88,-78 192.88,-98.75"/>
<text text-anchor="middle" x="146.25" y="-85.25" font-family="Helvetica,sans-Serif" font-size="10.00">unordered_equal</text>
</a>
</g>
</g>
<!-- Node1&#45;&gt;Node26 -->
<g id="edge25" class="edge">
<title>Node1&#45;&gt;Node26</title>
<path fill="none" stroke="black" d="M28.17,-495.9C30.06,-420.41 40.04,-168.54 89.5,-108.38 92.57,-104.64 96.39,-101.61 100.58,-99.14"/>
<polygon fill="black" stroke="black" points="24.65,-495.73 27.92,-505.81 31.65,-495.89 24.65,-495.73"/>
</g>
<!-- Node27 -->
<g id="node27" class="node">
<title>Node27</title>
<g id="a_node27"><a xlink:href="../../db/d0b/group___g_r_o_u_p___t_y_p_e___l_i_s_t___z_i_p.html" target="_top" xlink:title="Given multiple type&#45;lists this algorithm yields a new type&#45;list consisting of the n type&#45;lists (where...">
<polygon fill="white" stroke="#666666" points="160.65,-59.75 131.85,-59.75 131.85,-39 160.65,-39 160.65,-59.75"/>
<text text-anchor="middle" x="146.25" y="-46.25" font-family="Helvetica,sans-Serif" font-size="10.00">zip</text>
</a>
</g>
</g>
<!-- Node1&#45;&gt;Node27 -->
<g id="edge26" class="edge">
<title>Node1&#45;&gt;Node27</title>
<path fill="none" stroke="black" d="M27.85,-495.94C28.67,-415.94 35.39,-136.06 89.5,-69.38 99.74,-56.76 118.57,-52.1 131.5,-50.38"/>
<polygon fill="black" stroke="black" points="24.35,-495.59 27.77,-505.62 31.35,-495.65 24.35,-495.59"/>
</g>
<!-- Node28 -->
<g id="node28" class="node">
<title>Node28</title>
<g id="a_node28"><a xlink:href="../../d1/d28/group___g_r_o_u_p___t_y_p_e___l_i_s_t___z_i_p___n_t_h___e_l_e_m_e_n_t.html" target="_top" xlink:title="Given multiple type&#45;lists and an index n (where each type&#45;lists has at least the length n + 1) this a...">
<polygon fill="white" stroke="#666666" points="192.5,-20.75 100,-20.75 100,0 192.5,0 192.5,-20.75"/>
<text text-anchor="middle" x="146.25" y="-7.25" font-family="Helvetica,sans-Serif" font-size="10.00">zip_nth_element</text>
</a>
</g>
</g>
<!-- Node1&#45;&gt;Node28 -->
<g id="edge27" class="edge">
<title>Node1&#45;&gt;Node28</title>
<path fill="none" stroke="black" d="M27.59,-495.73C27.39,-411.08 30.78,-103.55 89.5,-30.38 92.46,-26.69 96.16,-23.68 100.23,-21.22"/>
<polygon fill="black" stroke="black" points="24.09,-495.56 27.64,-505.55 31.09,-495.53 24.09,-495.56"/>
</g>
</g>
</svg>
        <g id="navigator" transform="translate(0 0)" fill="#404254">
                <rect fill="#f2f5e9" fill-opacity="0.5" stroke="#606060" stroke-width=".5" x="0" y="0" width="60" height="60"/>
                <use id="zoomplus" xlink:href="#zoomPlus" x="17" y="9" onmousedown="handleZoom(evt,'in')"/>
                <use id="zoomminus" xlink:href="#zoomMin" x="42" y="9" onmousedown="handleZoom(evt,'out')"/>
                <use id="reset" xlink:href="#resetDef" x="30" y="36" onmousedown="handleReset()"/>
                <g id="arrowUp" xlink:href="#dirArrow" transform="translate(30 24)" onmousedown="handlePan(0,-1)">
                  <use xlink:href="#rim" fill="#404040">
                        <set attributeName="fill" to="#808080" begin="arrowUp.mouseover" end="arrowUp.mouseout"/>
                  </use>
                  <path fill="none" stroke="white" stroke-width="1.5" d="M0,-3.0v7 M-2.5,-0.5L0,-3.0L2.5,-0.5"/>
                </g>
                <g id="arrowRight" xlink:href="#dirArrow" transform="rotate(90) translate(36 -43)" onmousedown="handlePan(1,0)">
                  <use xlink:href="#rim" fill="#404040">
                        <set attributeName="fill" to="#808080" begin="arrowRight.mouseover" end="arrowRight.mouseout"/>
                  </use>
                  <path fill="none" stroke="white" stroke-width="1.5" d="M0,-3.0v7 M-2.5,-0.5L0,-3.0L2.5,-0.5"/>
                </g>
                <g id="arrowDown" xlink:href="#dirArrow" transform="rotate(180) translate(-30 -48)" onmousedown="handlePan(0,1)">
                  <use xlink:href="#rim" fill="#404040">
                        <set attributeName="fill" to="#808080" begin="arrowDown.mouseover" end="arrowDown.mouseout"/>
                  </use>
                  <path fill="none" stroke="white" stroke-width="1.5" d="M0,-3.0v7 M-2.5,-0.5L0,-3.0L2.5,-0.5"/>
                </g>
                <g id="arrowLeft" xlink:href="#dirArrow" transform="rotate(270) translate(-36 17)" onmousedown="handlePan(-1,0)">
                  <use xlink:href="#rim" fill="#404040">
                        <set attributeName="fill" to="#808080" begin="arrowLeft.mouseover" end="arrowLeft.mouseout"/>
                  </use>
                  <path fill="none" stroke="white" stroke-width="1.5" d="M0,-3.0v7 M-2.5,-0.5L0,-3.0L2.5,-0.5"/>
                </g>
        </g>
        <svg viewBox="0 0 15 15" width="100%" height="30px" preserveAspectRatio="xMaxYMin meet">
         <g id="arrow_out" transform="scale(0.3 0.3)">
          <a xlink:href="group___g_r_o_u_p___t_y_p_e___l_i_s_t_org.svg" target="_base">
           <rect id="button" ry="5" rx="5" y="6" x="6" height="38" width="38"
                fill="#f2f5e9" fill-opacity="0.5" stroke="#606060" stroke-width="1.0"/>
           <path id="arrow"
             d="M 11.500037,31.436501 C 11.940474,20.09759 22.043105,11.32322 32.158766,21.979434 L 37.068811,17.246167 C 37.068811,17.246167 37.088388,32 37.088388,32 L 22.160133,31.978069 C 22.160133,31.978069 26.997745,27.140456 26.997745,27.140456 C 18.528582,18.264221 13.291696,25.230495 11.500037,31.436501 z"
             style="fill:#404040;"/>
          </a>
         </g>
        </svg>
</svg>
