<?xml version="1.0" encoding="UTF-8" standalone="no"?>
<!DOCTYPE svg PUBLIC "-//W3C//DTD SVG 1.1//EN"
 "http://www.w3.org/Graphics/SVG/1.1/DTD/svg11.dtd">
<!-- Generated by graphviz version 7.0.5 (20221223.1930)
 -->
<!-- Title: type&#45;list Pages: 1 -->
<!--zoomable 952 -->
<svg id="main" version="1.1" xmlns="http://www.w3.org/2000/svg" xmlns:xlink="http://www.w3.org/1999/xlink" xml:space="preserve" onload="init(evt)">
<style type="text/css"><![CDATA[
.edge:hover path { stroke: red; }
.edge:hover polygon { stroke: red; fill: red; }
]]></style>
<script type="text/javascript"><![CDATA[
var edges = document.getElementsByTagName('g');
if (edges && edges.length) {
  for (var i=0;i<edges.length;i++) {
    if (edges[i].id.substr(0,4)=='edge') {
      edges[i].setAttribute('class','edge');
    }
  }
}
]]></script>
        <defs>
                <circle id="rim" cx="0" cy="0" r="7"/>
                <circle id="rim2" cx="0" cy="0" r="3.5"/>
                <g id="zoomPlus">
                        <use xlink:href="#rim" fill="#404040">
                                <set attributeName="fill" to="#808080" begin="zoomplus.mouseover" end="zoomplus.mouseout"/>
                        </use>
                        <path d="M-4,0h8M0,-4v8" fill="none" stroke="white" stroke-width="1.5" pointer-events="none"/>
                </g>
                <g id="zoomMin">
                        <use xlink:href="#rim" fill="#404040">
                                <set attributeName="fill" to="#808080" begin="zoomminus.mouseover" end="zoomminus.mouseout"/>
                        </use>
                        <path d="M-4,0h8" fill="none" stroke="white" stroke-width="1.5" pointer-events="none"/>
                </g>
                <g id="dirArrow">
                        <path fill="none" stroke="white" stroke-width="1.5" d="M0,-3.0v7 M-2.5,-0.5L0,-3.0L2.5,-0.5"/>
                </g>
               <g id="resetDef">
                       <use xlink:href="#rim2" fill="#404040">
                               <set attributeName="fill" to="#808080" begin="reset.mouseover" end="reset.mouseout"/>
                       </use>
               </g>
        </defs>

<script type="text/javascript">
var viewWidth = 212;
var viewHeight = 952;
var sectionId = 'dynsection-0';
</script>
<script xlink:href="../../svgpan.js"/>
<svg id="graph" class="graph">
<g id="viewport">
<title>type&#45;list</title>
<!-- Node1 -->
<g id="node1" class="node">
<title>Node1</title>
<g id="a_node1"><a xlink:title=" ">
<polygon fill="#999999" stroke="#666666" points="54,-481 0,-481 0,-462 54,-462 54,-481"/>
<text text-anchor="middle" x="27" y="-469" font-family="Helvetica,sans-Serif" font-size="10.00">type&#45;list</text>
</a>
</g>
</g>
<!-- Node2 -->
<g id="node2" class="node">
<title>Node2</title>
<g id="a_node2"><a xlink:href="../../d4/dfe/group___g_r_o_u_p___t_y_p_e___l_i_s_t___a_p_p_e_n_d.html" target="_top" xlink:title="Adds all of given types at the end of the source type&#45;list.">
<polygon fill="white" stroke="#666666" points="172.5,-944 121.5,-944 121.5,-925 172.5,-925 172.5,-944"/>
<text text-anchor="middle" x="147" y="-932" font-family="Helvetica,sans-Serif" font-size="10.00">append</text>
</a>
</g>
</g>
<!-- Node1&#45;&gt;Node2 -->
<g id="edge1" class="edge">
<title>Node1&#45;&gt;Node2</title>
<path fill="none" stroke="black" d="M28.07,-492.8C28.75,-572.4 35.08,-851.18 90,-916.5 97.69,-925.65 110.05,-930.19 121.2,-932.43"/>
<polygon fill="black" stroke="black" points="31.57,-492.92 28.01,-482.94 24.57,-492.96 31.57,-492.92"/>
</g>
<!-- Node3 -->
<g id="node3" class="node">
<title>Node3</title>
<g id="a_node3"><a xlink:href="../../d6/d4e/group___g_r_o_u_p___t_y_p_e___l_i_s_t___b_a_c_k.html" target="_top" xlink:title="Defines the type member&#45;alias containing the last element of the given type&#45;list.">
<polygon fill="white" stroke="#666666" points="166,-907 128,-907 128,-888 166,-888 166,-907"/>
<text text-anchor="middle" x="147" y="-895" font-family="Helvetica,sans-Serif" font-size="10.00">back</text>
</a>
</g>
</g>
<!-- Node1&#45;&gt;Node3 -->
<g id="edge2" class="edge">
<title>Node1&#45;&gt;Node3</title>
<path fill="none" stroke="black" d="M28.36,-492.46C30.06,-567.33 39.51,-820.2 90,-879.5 99.27,-890.39 115.15,-894.75 127.63,-896.47"/>
<polygon fill="black" stroke="black" points="31.87,-492.77 28.17,-482.84 24.87,-492.91 31.87,-492.77"/>
</g>
<!-- Node4 -->
<g id="node4" class="node">
<title>Node4</title>
<g id="a_node4"><a xlink:href="../../d9/dd6/group___g_r_o_u_p___t_y_p_e___l_i_s_t___c_a_r_t_e_s_i_a_n___p_r_o_d_u_c_t.html" target="_top" xlink:title="Given multiple source type&#45;lists this algorithm yields a new type&#45;list combining each element of each...">
<polygon fill="white" stroke="#666666" points="194.5,-870 99.5,-870 99.5,-851 194.5,-851 194.5,-870"/>
<text text-anchor="middle" x="147" y="-858" font-family="Helvetica,sans-Serif" font-size="10.00">cartesian product</text>
</a>
</g>
</g>
<!-- Node1&#45;&gt;Node4 -->
<g id="edge3" class="edge">
<title>Node1&#45;&gt;Node4</title>
<path fill="none" stroke="black" d="M28.72,-492.8C31.55,-563.57 44.07,-789.36 90,-842.5 92.8,-845.75 96.2,-848.41 99.91,-850.6"/>
<polygon fill="black" stroke="black" points="32.23,-492.85 28.36,-482.98 25.23,-493.11 32.23,-492.85"/>
</g>
<!-- Node5 -->
<g id="node5" class="node">
<title>Node5</title>
<g id="a_node5"><a xlink:href="../../d4/d0b/group___g_r_o_u_p___t_y_p_e___l_i_s_t___c_o_m_m_o_n___c_o_n_t_a_i_n_e_r.html" target="_top" xlink:title="Trait determining whether some type&#45;lists have the container type in common.">
<polygon fill="white" stroke="#666666" points="199.5,-833 94.5,-833 94.5,-814 199.5,-814 199.5,-833"/>
<text text-anchor="middle" x="147" y="-821" font-family="Helvetica,sans-Serif" font-size="10.00">common_container</text>
</a>
</g>
</g>
<!-- Node1&#45;&gt;Node5 -->
<g id="edge4" class="edge">
<title>Node1&#45;&gt;Node5</title>
<path fill="none" stroke="black" d="M29.16,-492.79C33.17,-558.79 48.54,-758.39 90,-805.5 92.83,-808.72 96.24,-811.37 99.97,-813.54"/>
<polygon fill="black" stroke="black" points="32.66,-492.75 28.59,-482.96 25.67,-493.15 32.66,-492.75"/>
</g>
<!-- Node6 -->
<g id="node6" class="node">
<title>Node6</title>
<g id="a_node6"><a xlink:href="../../d7/d3b/group___g_r_o_u_p___t_y_p_e___l_i_s_t___c_o_n_c_a_t.html" target="_top" xlink:title="Appends at the end of the first type&#45;list all elements of the other type&#45;lists.">
<polygon fill="white" stroke="#666666" points="170.5,-796 123.5,-796 123.5,-777 170.5,-777 170.5,-796"/>
<text text-anchor="middle" x="147" y="-784" font-family="Helvetica,sans-Serif" font-size="10.00">concat</text>
</a>
</g>
</g>
<!-- Node1&#45;&gt;Node6 -->
<g id="edge5" class="edge">
<title>Node1&#45;&gt;Node6</title>
<path fill="none" stroke="black" d="M29.66,-492.38C34.89,-553 52.91,-727.29 90,-768.5 98.4,-777.84 111.66,-782.36 123.16,-784.53"/>
<polygon fill="black" stroke="black" points="33.18,-492.45 28.86,-482.77 26.2,-493.03 33.18,-492.45"/>
</g>
<!-- Node7 -->
<g id="node7" class="node">
<title>Node7</title>
<g id="a_node7"><a xlink:href="../../d6/d9c/group___g_r_o_u_p___t_y_p_e___l_i_s_t___c_o_n_t_a_i_n_s.html" target="_top" xlink:title="Queries the source type&#45;list whether it contains a specific type.">
<polygon fill="white" stroke="#666666" points="174.5,-759 119.5,-759 119.5,-740 174.5,-740 174.5,-759"/>
<text text-anchor="middle" x="147" y="-747" font-family="Helvetica,sans-Serif" font-size="10.00">contains</text>
</a>
</g>
</g>
<!-- Node1&#45;&gt;Node7 -->
<g id="edge6" class="edge">
<title>Node1&#45;&gt;Node7</title>
<path fill="none" stroke="black" d="M30.37,-492.65C36.99,-548.18 57.39,-696.28 90,-731.5 97.49,-739.59 108.63,-744.06 119,-746.52"/>
<polygon fill="black" stroke="black" points="33.87,-492.49 29.25,-482.96 26.92,-493.29 33.87,-492.49"/>
</g>
<!-- Node8 -->
<g id="node8" class="node">
<title>Node8</title>
<g id="a_node8"><a xlink:href="../../de/de5/group___g_r_o_u_p___t_y_p_e___l_i_s_t___c_o_u_n_t.html" target="_top" xlink:title="Determines how often the query type appears in the source type&#45;list.">
<polygon fill="white" stroke="#666666" points="168,-722 126,-722 126,-703 168,-703 168,-722"/>
<text text-anchor="middle" x="147" y="-710" font-family="Helvetica,sans-Serif" font-size="10.00">count</text>
</a>
</g>
</g>
<!-- Node1&#45;&gt;Node8 -->
<g id="edge7" class="edge">
<title>Node1&#45;&gt;Node8</title>
<path fill="none" stroke="black" d="M27.62,-492.43C28,-536.05 35.13,-637.4 90,-694.5 99.27,-704.15 113.72,-708.63 125.61,-710.72"/>
<polygon fill="black" stroke="black" points="31.12,-492.6 27.66,-482.59 24.12,-492.57 31.12,-492.6"/>
</g>
<!-- Node9 -->
<g id="node9" class="node">
<title>Node9</title>
<g id="a_node9"><a xlink:href="../../d1/d01/group___g_r_o_u_p___t_y_p_e___l_i_s_t___d_i_f_f_e_r_e_n_c_e.html" target="_top" xlink:title="Determines which elements of the first type&#45;list are not contained in the second type&#45;list and yields...">
<polygon fill="white" stroke="#666666" points="178,-685 116,-685 116,-666 178,-666 178,-685"/>
<text text-anchor="middle" x="147" y="-673" font-family="Helvetica,sans-Serif" font-size="10.00">difference</text>
</a>
</g>
</g>
<!-- Node1&#45;&gt;Node9 -->
<g id="edge8" class="edge">
<title>Node1&#45;&gt;Node9</title>
<path fill="none" stroke="black" d="M29.01,-492.32C31.97,-530.43 43.69,-611.69 90,-657.5 96.9,-664.32 106.39,-668.56 115.6,-671.19"/>
<polygon fill="black" stroke="black" points="32.52,-492.43 28.39,-482.67 25.53,-492.88 32.52,-492.43"/>
</g>
<!-- Node10 -->
<g id="node10" class="node">
<title>Node10</title>
<g id="a_node10"><a xlink:href="../../d9/d02/group___g_r_o_u_p___t_y_p_e___l_i_s_t___e_q_u_a_l.html" target="_top" xlink:title="Determines whether the source type&#45;lists contain the same elements in the same order.">
<polygon fill="white" stroke="#666666" points="167.5,-648 126.5,-648 126.5,-629 167.5,-629 167.5,-648"/>
<text text-anchor="middle" x="147" y="-636" font-family="Helvetica,sans-Serif" font-size="10.00">equal</text>
</a>
</g>
</g>
<!-- Node1&#45;&gt;Node10 -->
<g id="edge9" class="edge">
<title>Node1&#45;&gt;Node10</title>
<path fill="none" stroke="black" d="M31.07,-492.61C36.84,-524.74 52.32,-585.83 90,-620.5 99.85,-629.56 114.28,-634.06 126.03,-636.29"/>
<polygon fill="black" stroke="black" points="34.56,-492.27 29.5,-482.96 27.65,-493.4 34.56,-492.27"/>
</g>
<!-- Node11 -->
<g id="node11" class="node">
<title>Node11</title>
<g id="a_node11"><a xlink:href="../../d6/d1f/group___g_r_o_u_p___t_y_p_e___l_i_s_t___f_i_l_t_e_r.html" target="_top" xlink:title="Applies the given filter trait an each element and omits it from the resulting type&#45;list if the filte...">
<polygon fill="white" stroke="#666666" points="166,-611 128,-611 128,-592 166,-592 166,-611"/>
<text text-anchor="middle" x="147" y="-599" font-family="Helvetica,sans-Serif" font-size="10.00">filter</text>
</a>
</g>
</g>
<!-- Node1&#45;&gt;Node11 -->
<g id="edge10" class="edge">
<title>Node1&#45;&gt;Node11</title>
<path fill="none" stroke="black" d="M34.13,-491.98C42.66,-517.07 60.49,-559.24 90,-583.5 100.73,-592.32 115.86,-596.85 127.69,-599.16"/>
<polygon fill="black" stroke="black" points="37.51,-491.08 31.13,-482.62 30.85,-493.21 37.51,-491.08"/>
</g>
<!-- Node12 -->
<g id="node12" class="node">
<title>Node12</title>
<g id="a_node12"><a xlink:href="../../d0/d3f/group___g_r_o_u_p___t_y_p_e___l_i_s_t___f_r_o_n_t.html" target="_top" xlink:title="Defines the type member&#45;alias containing the first element of the given type&#45;list.">
<polygon fill="white" stroke="#666666" points="167,-574 127,-574 127,-555 167,-555 167,-574"/>
<text text-anchor="middle" x="147" y="-562" font-family="Helvetica,sans-Serif" font-size="10.00">front</text>
</a>
</g>
</g>
<!-- Node1&#45;&gt;Node12 -->
<g id="edge11" class="edge">
<title>Node1&#45;&gt;Node12</title>
<path fill="none" stroke="black" d="M39.42,-490.77C50.39,-507.72 68.46,-531.9 90,-546.5 100.99,-553.95 115.26,-558.47 126.64,-561.12"/>
<polygon fill="black" stroke="black" points="42.59,-489.23 34.34,-482.59 36.64,-492.93 42.59,-489.23"/>
</g>
<!-- Node13 -->
<g id="node13" class="node">
<title>Node13</title>
<g id="a_node13"><a xlink:href="../../de/df2/group___g_r_o_u_p___t_y_p_e___l_i_s_t___i_n_d_e_x___o_f.html" target="_top" xlink:title="Queries the given type&#45;list for a specific type.">
<polygon fill="white" stroke="#666666" points="175,-537 119,-537 119,-518 175,-518 175,-537"/>
<text text-anchor="middle" x="147" y="-525" font-family="Helvetica,sans-Serif" font-size="10.00">index_of</text>
</a>
</g>
</g>
<!-- Node1&#45;&gt;Node13 -->
<g id="edge12" class="edge">
<title>Node1&#45;&gt;Node13</title>
<path fill="none" stroke="black" d="M51.3,-487.61C62.62,-494.96 76.65,-503.37 90,-509.5 99.1,-513.68 109.43,-517.29 118.73,-520.17"/>
<polygon fill="black" stroke="black" points="53.27,-484.72 43.01,-482.09 49.39,-490.55 53.27,-484.72"/>
</g>
<!-- Node14 -->
<g id="node14" class="node">
<title>Node14</title>
<g id="a_node14"><a xlink:href="../../d7/da0/group___g_r_o_u_p___t_y_p_e___l_i_s_t___i_n_t_e_r_s_e_c_t_i_o_n.html" target="_top" xlink:title="Determines the intersection between the elements of two type&#45;lists. The order doesn&#39;t matter.">
<polygon fill="white" stroke="#666666" points="182,-500 112,-500 112,-481 182,-481 182,-500"/>
<text text-anchor="middle" x="147" y="-488" font-family="Helvetica,sans-Serif" font-size="10.00">intersection</text>
</a>
</g>
</g>
<!-- Node1&#45;&gt;Node14 -->
<g id="edge13" class="edge">
<title>Node1&#45;&gt;Node14</title>
<path fill="none" stroke="black" d="M65.75,-477.58C80.44,-479.94 97.17,-482.64 111.54,-484.95"/>
<polygon fill="black" stroke="black" points="66.41,-474.14 55.98,-476 65.29,-481.05 66.41,-474.14"/>
</g>
<!-- Node17 -->
<g id="node15" class="node">
<title>Node17</title>
<g id="a_node15"><a xlink:href="../../d1/d23/group___g_r_o_u_p___t_y_p_e___l_i_s_t___p_o_p_u_l_a_t_e_d___f_r_o_m.html" target="_top" xlink:title="Applies the source type&#45;list&#45;elements as template arguments of the TargetContainer.">
<polygon fill="white" stroke="#666666" points="192.5,-463 101.5,-463 101.5,-444 192.5,-444 192.5,-463"/>
<text text-anchor="middle" x="147" y="-451" font-family="Helvetica,sans-Serif" font-size="10.00">populated_from</text>
</a>
</g>
</g>
<!-- Node1&#45;&gt;Node17 -->
<g id="edge16" class="edge">
<title>Node1&#45;&gt;Node17</title>
<path fill="none" stroke="black" d="M65.7,-465.75C76.95,-464.03 89.4,-462.13 101.07,-460.35"/>
<polygon fill="black" stroke="black" points="65.34,-462.26 55.98,-467.23 66.39,-469.18 65.34,-462.26"/>
</g>
<!-- Node15 -->
<g id="node16" class="node">
<title>Node15</title>
<g id="a_node16"><a xlink:href="../../d4/d10/group___g_r_o_u_p___t_y_p_e___l_i_s_t___p_o_p___b_a_c_k.html" target="_top" xlink:title="Removes the last element of the given type&#45;list.">
<polygon fill="white" stroke="#666666" points="176,-426 118,-426 118,-407 176,-407 176,-426"/>
<text text-anchor="middle" x="147" y="-414" font-family="Helvetica,sans-Serif" font-size="10.00">pop back</text>
</a>
</g>
</g>
<!-- Node1&#45;&gt;Node15 -->
<g id="edge14" class="edge">
<title>Node1&#45;&gt;Node15</title>
<path fill="none" stroke="black" d="M52.57,-455.72C63.72,-448.95 77.25,-441.3 90,-435.5 98.79,-431.51 108.67,-427.88 117.66,-424.9"/>
<polygon fill="black" stroke="black" points="51.03,-452.55 44.38,-460.8 54.72,-458.5 51.03,-452.55"/>
</g>
<!-- Node16 -->
<g id="node17" class="node">
<title>Node16</title>
<g id="a_node17"><a xlink:href="../../dd/d27/group___g_r_o_u_p___t_y_p_e___l_i_s_t___p_o_p___f_r_o_n_t.html" target="_top" xlink:title="Removes the first element of the given type&#45;list.">
<polygon fill="white" stroke="#666666" points="177,-389 117,-389 117,-370 177,-370 177,-389"/>
<text text-anchor="middle" x="147" y="-377" font-family="Helvetica,sans-Serif" font-size="10.00">pop front</text>
</a>
</g>
</g>
<!-- Node1&#45;&gt;Node16 -->
<g id="edge15" class="edge">
<title>Node1&#45;&gt;Node16</title>
<path fill="none" stroke="black" d="M39.95,-452.3C51.07,-435.89 69.04,-412.74 90,-398.5 97.98,-393.08 107.65,-389.07 116.7,-386.18"/>
<polygon fill="black" stroke="black" points="37.31,-449.95 34.78,-460.24 43.17,-453.77 37.31,-449.95"/>
</g>
<!-- Node18 -->
<g id="node18" class="node">
<title>Node18</title>
<g id="a_node18"><a xlink:href="../../df/dbc/group___g_r_o_u_p___t_y_p_e___l_i_s_t___p_r_e_p_e_n_d.html" target="_top" xlink:title="Adds all of given types at the begin of the source type&#45;list.">
<polygon fill="white" stroke="#666666" points="174.5,-352 119.5,-352 119.5,-333 174.5,-333 174.5,-352"/>
<text text-anchor="middle" x="147" y="-340" font-family="Helvetica,sans-Serif" font-size="10.00">prepend</text>
</a>
</g>
</g>
<!-- Node1&#45;&gt;Node18 -->
<g id="edge17" class="edge">
<title>Node1&#45;&gt;Node18</title>
<path fill="none" stroke="black" d="M34.42,-451.09C43.17,-426.48 61.14,-385.43 90,-361.5 98.3,-354.62 109.21,-350.19 119.2,-347.35"/>
<polygon fill="black" stroke="black" points="31.2,-449.68 31.34,-460.28 37.84,-451.91 31.2,-449.68"/>
</g>
<!-- Node19 -->
<g id="node19" class="node">
<title>Node19</title>
<g id="a_node19"><a xlink:href="../../d6/df3/group___g_r_o_u_p___t_y_p_e___l_i_s_t___r_e_m_o_v_e.html" target="_top" xlink:title="Removes all appearances of the given type from the source type&#45;list.">
<polygon fill="white" stroke="#666666" points="172,-315 122,-315 122,-296 172,-296 172,-315"/>
<text text-anchor="middle" x="147" y="-303" font-family="Helvetica,sans-Serif" font-size="10.00">remove</text>
</a>
</g>
</g>
<!-- Node1&#45;&gt;Node19 -->
<g id="edge18" class="edge">
<title>Node1&#45;&gt;Node19</title>
<path fill="none" stroke="black" d="M31.22,-450.75C37.2,-419.14 52.94,-358.98 90,-324.5 98.64,-316.46 110.82,-311.81 121.62,-309.12"/>
<polygon fill="black" stroke="black" points="27.84,-449.76 29.59,-460.21 34.74,-450.95 27.84,-449.76"/>
</g>
<!-- Node20 -->
<g id="node20" class="node">
<title>Node20</title>
<g id="a_node20"><a xlink:href="../../d2/d03/group___g_r_o_u_p___t_y_p_e___l_i_s_t___r_e_m_o_v_e___a_t.html" target="_top" xlink:title="Removes the element at the given index.">
<polygon fill="white" stroke="#666666" points="179.5,-278 114.5,-278 114.5,-259 179.5,-259 179.5,-278"/>
<text text-anchor="middle" x="147" y="-266" font-family="Helvetica,sans-Serif" font-size="10.00">remove_at</text>
</a>
</g>
</g>
<!-- Node1&#45;&gt;Node20 -->
<g id="edge19" class="edge">
<title>Node1&#45;&gt;Node20</title>
<path fill="none" stroke="black" d="M29.19,-450.44C32.46,-412.62 44.65,-332.95 90,-287.5 96.53,-280.96 105.39,-276.67 114.13,-273.86"/>
<polygon fill="black" stroke="black" points="25.73,-449.81 28.5,-460.04 32.71,-450.31 25.73,-449.81"/>
</g>
<!-- Node21 -->
<g id="node21" class="node">
<title>Node21</title>
<g id="a_node21"><a xlink:href="../../d7/d99/group___g_r_o_u_p___t_y_p_e___l_i_s_t___r_e_v_e_r_s_e.html" target="_top" xlink:title="Reverses the order of all elements.">
<polygon fill="white" stroke="#666666" points="171.5,-241 122.5,-241 122.5,-222 171.5,-222 171.5,-241"/>
<text text-anchor="middle" x="147" y="-229" font-family="Helvetica,sans-Serif" font-size="10.00">reverse</text>
</a>
</g>
</g>
<!-- Node1&#45;&gt;Node21 -->
<g id="edge20" class="edge">
<title>Node1&#45;&gt;Node21</title>
<path fill="none" stroke="black" d="M27.76,-450.23C28.46,-406.79 36.22,-307.24 90,-250.5 98.4,-241.63 111.1,-236.9 122.27,-234.38"/>
<polygon fill="black" stroke="black" points="24.27,-450.05 27.74,-460.06 31.27,-450.07 24.27,-450.05"/>
</g>
<!-- Node22 -->
<g id="node22" class="node">
<title>Node22</title>
<g id="a_node22"><a xlink:href="../../d8/daa/group___g_r_o_u_p___t_y_p_e___l_i_s_t___s_y_m_m_e_t_r_i_c___d_i_f_f_e_r_e_n_c_e.html" target="_top" xlink:title="Determines which elements are in either of the source type&#45;lists, but not in both....">
<polygon fill="white" stroke="#666666" points="204,-204 90,-204 90,-185 204,-185 204,-204"/>
<text text-anchor="middle" x="147" y="-192" font-family="Helvetica,sans-Serif" font-size="10.00">symmetric_difference</text>
</a>
</g>
</g>
<!-- Node1&#45;&gt;Node22 -->
<g id="edge21" class="edge">
<title>Node1&#45;&gt;Node22</title>
<path fill="none" stroke="black" d="M30.42,-450.54C37.18,-395.5 57.88,-248.7 90,-213.5 93.39,-209.78 97.54,-206.79 102.02,-204.39"/>
<polygon fill="black" stroke="black" points="26.99,-449.79 29.28,-460.13 33.94,-450.62 26.99,-449.79"/>
</g>
<!-- Node23 -->
<g id="node23" class="node">
<title>Node23</title>
<g id="a_node23"><a xlink:href="../../de/d34/group___g_r_o_u_p___t_y_p_e___l_i_s_t___t_a_i_l.html" target="_top" xlink:title="Skips the first element of the given type&#45;list and defines a type member&#45;alias containing the rest of...">
<polygon fill="white" stroke="#666666" points="162.5,-167 131.5,-167 131.5,-148 162.5,-148 162.5,-167"/>
<text text-anchor="middle" x="147" y="-155" font-family="Helvetica,sans-Serif" font-size="10.00">tail</text>
</a>
</g>
</g>
<!-- Node1&#45;&gt;Node23 -->
<g id="edge22" class="edge">
<title>Node1&#45;&gt;Node23</title>
<path fill="none" stroke="black" d="M29.75,-450.38C35.17,-389.88 53.53,-217.63 90,-176.5 100.49,-164.67 118.62,-160.2 131.41,-158.51"/>
<polygon fill="black" stroke="black" points="26.29,-449.74 28.92,-460 33.27,-450.34 26.29,-449.74"/>
</g>
<!-- Node24 -->
<g id="node24" class="node">
<title>Node24</title>
<g id="a_node24"><a xlink:href="../../d6/d02/group___g_r_o_u_p___t_y_p_e___l_i_s_t___t_r_a_n_s_f_o_r_m.html" target="_top" xlink:title="Applies the given unary operation on each element of the source type&#45;list and stores them into a new ...">
<polygon fill="white" stroke="#666666" points="178,-130 116,-130 116,-111 178,-111 178,-130"/>
<text text-anchor="middle" x="147" y="-118" font-family="Helvetica,sans-Serif" font-size="10.00">transform</text>
</a>
</g>
</g>
<!-- Node1&#45;&gt;Node24 -->
<g id="edge23" class="edge">
<title>Node1&#45;&gt;Node24</title>
<path fill="none" stroke="black" d="M29.21,-450.37C33.37,-384.84 49.13,-186.65 90,-139.5 96.52,-131.97 106.14,-127.42 115.58,-124.68"/>
<polygon fill="black" stroke="black" points="25.73,-449.92 28.62,-460.11 32.72,-450.34 25.73,-449.92"/>
</g>
<!-- Node25 -->
<g id="node25" class="node">
<title>Node25</title>
<g id="a_node25"><a xlink:href="../../d1/da8/group___g_r_o_u_p___t_y_p_e___l_i_s_t___u_n_o_r_d_e_r_e_d___e_q_u_a_l.html" target="_top" xlink:title="Determines whether the source type&#45;lists contain the same elements.">
<polygon fill="white" stroke="#666666" points="194,-93 100,-93 100,-74 194,-74 194,-93"/>
<text text-anchor="middle" x="147" y="-81" font-family="Helvetica,sans-Serif" font-size="10.00">unordered_equal</text>
</a>
</g>
</g>
<!-- Node1&#45;&gt;Node25 -->
<g id="edge24" class="edge">
<title>Node1&#45;&gt;Node25</title>
<path fill="none" stroke="black" d="M28.77,-450.34C31.76,-380.04 44.72,-155.71 90,-102.5 93.13,-98.83 96.99,-95.86 101.22,-93.47"/>
<polygon fill="black" stroke="black" points="25.29,-449.95 28.39,-460.08 32.28,-450.23 25.29,-449.95"/>
</g>
<!-- Node26 -->
<g id="node26" class="node">
<title>Node26</title>
<g id="a_node26"><a xlink:href="../../db/d0b/group___g_r_o_u_p___t_y_p_e___l_i_s_t___z_i_p.html" target="_top" xlink:title="Given multiple type&#45;lists this algorithm yields a new type&#45;list consisting of the n type&#45;lists (where...">
<polygon fill="white" stroke="#666666" points="161.5,-56 132.5,-56 132.5,-37 161.5,-37 161.5,-56"/>
<text text-anchor="middle" x="147" y="-44" font-family="Helvetica,sans-Serif" font-size="10.00">zip</text>
</a>
</g>
</g>
<!-- Node1&#45;&gt;Node26 -->
<g id="edge25" class="edge">
<title>Node1&#45;&gt;Node26</title>
<path fill="none" stroke="black" d="M28.41,-450.67C30.27,-376.26 40.21,-124.91 90,-65.5 100.42,-53.07 119.31,-48.74 132.24,-47.26"/>
<polygon fill="black" stroke="black" points="24.92,-450.14 28.19,-460.22 31.92,-450.3 24.92,-450.14"/>
</g>
<!-- Node27 -->
<g id="node27" class="node">
<title>Node27</title>
<g id="a_node27"><a xlink:href="../../d1/d28/group___g_r_o_u_p___t_y_p_e___l_i_s_t___z_i_p___n_t_h___e_l_e_m_e_n_t.html" target="_top" xlink:title="Given multiple type&#45;lists and an index n (where each type&#45;lists has at least the length n + 1) this a...">
<polygon fill="white" stroke="#666666" points="193.5,-19 100.5,-19 100.5,0 193.5,0 193.5,-19"/>
<text text-anchor="middle" x="147" y="-7" font-family="Helvetica,sans-Serif" font-size="10.00">zip_nth_element</text>
</a>
</g>
</g>
<!-- Node1&#45;&gt;Node27 -->
<g id="edge26" class="edge">
<title>Node1&#45;&gt;Node27</title>
<path fill="none" stroke="black" d="M28.12,-450.32C28.97,-371.18 35.83,-93.96 90,-28.5 93.08,-24.78 96.91,-21.79 101.12,-19.38"/>
<polygon fill="black" stroke="black" points="24.62,-450.09 28.03,-460.11 31.62,-450.14 24.62,-450.09"/>
</g>
</g>
</svg>
        <g id="navigator" transform="translate(0 0)" fill="#404254">
                <rect fill="#f2f5e9" fill-opacity="0.5" stroke="#606060" stroke-width=".5" x="0" y="0" width="60" height="60"/>
                <use id="zoomplus" xlink:href="#zoomPlus" x="17" y="9" onmousedown="handleZoom(evt,'in')"/>
                <use id="zoomminus" xlink:href="#zoomMin" x="42" y="9" onmousedown="handleZoom(evt,'out')"/>
                <use id="reset" xlink:href="#resetDef" x="30" y="36" onmousedown="handleReset()"/>
                <g id="arrowUp" xlink:href="#dirArrow" transform="translate(30 24)" onmousedown="handlePan(0,-1)">
                  <use xlink:href="#rim" fill="#404040">
                        <set attributeName="fill" to="#808080" begin="arrowUp.mouseover" end="arrowUp.mouseout"/>
                  </use>
                  <path fill="none" stroke="white" stroke-width="1.5" d="M0,-3.0v7 M-2.5,-0.5L0,-3.0L2.5,-0.5"/>
                </g>
                <g id="arrowRight" xlink:href="#dirArrow" transform="rotate(90) translate(36 -43)" onmousedown="handlePan(1,0)">
                  <use xlink:href="#rim" fill="#404040">
                        <set attributeName="fill" to="#808080" begin="arrowRight.mouseover" end="arrowRight.mouseout"/>
                  </use>
                  <path fill="none" stroke="white" stroke-width="1.5" d="M0,-3.0v7 M-2.5,-0.5L0,-3.0L2.5,-0.5"/>
                </g>
                <g id="arrowDown" xlink:href="#dirArrow" transform="rotate(180) translate(-30 -48)" onmousedown="handlePan(0,1)">
                  <use xlink:href="#rim" fill="#404040">
                        <set attributeName="fill" to="#808080" begin="arrowDown.mouseover" end="arrowDown.mouseout"/>
                  </use>
                  <path fill="none" stroke="white" stroke-width="1.5" d="M0,-3.0v7 M-2.5,-0.5L0,-3.0L2.5,-0.5"/>
                </g>
                <g id="arrowLeft" xlink:href="#dirArrow" transform="rotate(270) translate(-36 17)" onmousedown="handlePan(-1,0)">
                  <use xlink:href="#rim" fill="#404040">
                        <set attributeName="fill" to="#808080" begin="arrowLeft.mouseover" end="arrowLeft.mouseout"/>
                  </use>
                  <path fill="none" stroke="white" stroke-width="1.5" d="M0,-3.0v7 M-2.5,-0.5L0,-3.0L2.5,-0.5"/>
                </g>
        </g>
        <svg viewBox="0 0 15 15" width="100%" height="30px" preserveAspectRatio="xMaxYMin meet">
         <g id="arrow_out" transform="scale(0.3 0.3)">
          <a xlink:href="group___g_r_o_u_p___t_y_p_e___l_i_s_t_org.svg" target="_base">
           <rect id="button" ry="5" rx="5" y="6" x="6" height="38" width="38"
                fill="#f2f5e9" fill-opacity="0.5" stroke="#606060" stroke-width="1.0"/>
           <path id="arrow"
             d="M 11.500037,31.436501 C 11.940474,20.09759 22.043105,11.32322 32.158766,21.979434 L 37.068811,17.246167 C 37.068811,17.246167 37.088388,32 37.088388,32 L 22.160133,31.978069 C 22.160133,31.978069 26.997745,27.140456 26.997745,27.140456 C 18.528582,18.264221 13.291696,25.230495 11.500037,31.436501 z"
             style="fill:#404040;"/>
          </a>
         </g>
        </svg>
</svg>
