<?xml version="1.0" encoding="UTF-8" standalone="no"?>
<!DOCTYPE svg PUBLIC "-//W3C//DTD SVG 1.1//EN"
 "http://www.w3.org/Graphics/SVG/1.1/DTD/svg11.dtd">
<!-- Generated by graphviz version 8.0.5 (20230430.1635)
 -->
<!-- Title: Simple&#45;Utility/tuple/general.hpp Pages: 1 -->
<svg width="2057pt" height="376pt"
 viewBox="0.00 0.00 2057.00 376.25" xmlns="http://www.w3.org/2000/svg" xmlns:xlink="http://www.w3.org/1999/xlink">
<g id="graph0" class="graph" transform="scale(1 1) rotate(0) translate(4 372.25)">
<title>Simple&#45;Utility/tuple/general.hpp</title>
<!-- Node1 -->
<g id="node1" class="node">
<title>Node1</title>
<g id="a_node1"><a xlink:title=" ">
<polygon fill="#999999" stroke="#666666" points="1902.88,-368.25 1798.38,-368.25 1798.38,-334.75 1902.88,-334.75 1902.88,-368.25"/>
<text text-anchor="start" x="1806.38" y="-354.75" font-family="Helvetica,sans-Serif" font-size="10.00">Simple&#45;Utility/tuple</text>
<text text-anchor="middle" x="1850.62" y="-342" font-family="Helvetica,sans-Serif" font-size="10.00">/general.hpp</text>
</a>
</g>
</g>
<!-- Node2 -->
<g id="node2" class="node">
<title>Node2</title>
<g id="a_node2"><a xlink:href="../../d9/d76/bind_8hpp.html" target="_top" xlink:title=" ">
<polygon fill="white" stroke="#666666" points="1391.12,-229.25 1264.12,-229.25 1264.12,-195.75 1391.12,-195.75 1391.12,-229.25"/>
<text text-anchor="start" x="1272.12" y="-215.75" font-family="Helvetica,sans-Serif" font-size="10.00">Simple&#45;Utility/functional</text>
<text text-anchor="middle" x="1327.62" y="-203" font-family="Helvetica,sans-Serif" font-size="10.00">/operators/bind.hpp</text>
</a>
</g>
</g>
<!-- Node1&#45;&gt;Node2 -->
<g id="edge1" class="edge">
<title>Node1&#45;&gt;Node2</title>
<path fill="none" stroke="#63b8ff" d="M1787.73,-334.02C1686.74,-307.57 1489.63,-255.94 1389.37,-229.67"/>
<polygon fill="#63b8ff" stroke="#63b8ff" points="1786.52,-337.59 1797.08,-336.74 1788.3,-330.82 1786.52,-337.59"/>
</g>
<!-- Node20 -->
<g id="node20" class="node">
<title>Node20</title>
<g id="a_node20"><a xlink:href="../../d5/db7/pipe_8hpp.html" target="_top" xlink:title=" ">
<polygon fill="white" stroke="#666666" points="1868.12,-298.75 1741.12,-298.75 1741.12,-265.25 1868.12,-265.25 1868.12,-298.75"/>
<text text-anchor="start" x="1749.12" y="-285.25" font-family="Helvetica,sans-Serif" font-size="10.00">Simple&#45;Utility/functional</text>
<text text-anchor="middle" x="1804.62" y="-272.5" font-family="Helvetica,sans-Serif" font-size="10.00">/operators/pipe.hpp</text>
</a>
</g>
</g>
<!-- Node1&#45;&gt;Node20 -->
<g id="edge37" class="edge">
<title>Node1&#45;&gt;Node20</title>
<path fill="none" stroke="#63b8ff" d="M1833.67,-325.63C1827.58,-316.69 1820.88,-306.85 1815.45,-298.88"/>
<polygon fill="#63b8ff" stroke="#63b8ff" points="1831.2,-327.21 1839.72,-333.5 1836.98,-323.27 1831.2,-327.21"/>
</g>
<!-- Node22 -->
<g id="node22" class="node">
<title>Node22</title>
<g id="a_node22"><a xlink:href="../../d3/d6f/tuple_8hpp.html" target="_top" xlink:title=" ">
<polygon fill="white" stroke="#666666" points="2049,-222.88 1924.25,-222.88 1924.25,-202.12 2049,-202.12 2049,-222.88"/>
<text text-anchor="middle" x="1986.62" y="-209.38" font-family="Helvetica,sans-Serif" font-size="10.00">Simple&#45;Utility/tuple.hpp</text>
</a>
</g>
</g>
<!-- Node1&#45;&gt;Node22 -->
<g id="edge44" class="edge">
<title>Node1&#45;&gt;Node22</title>
<path fill="none" stroke="#63b8ff" d="M1869.49,-325.73C1883.38,-308.11 1903.17,-284.29 1922.62,-265.25 1938.86,-249.36 1959.62,-233.24 1973.02,-223.31"/>
<polygon fill="#63b8ff" stroke="#63b8ff" points="1866.18,-323.28 1862.79,-333.32 1871.7,-327.58 1866.18,-323.28"/>
</g>
<!-- Node23 -->
<g id="node23" class="node">
<title>Node23</title>
<g id="a_node23"><a xlink:href="../../de/d55/algorithm_8hpp.html" target="_top" xlink:title=" ">
<polygon fill="white" stroke="#666666" points="2035.88,-298.75 1931.38,-298.75 1931.38,-265.25 2035.88,-265.25 2035.88,-298.75"/>
<text text-anchor="start" x="1939.38" y="-285.25" font-family="Helvetica,sans-Serif" font-size="10.00">Simple&#45;Utility/tuple</text>
<text text-anchor="middle" x="1983.62" y="-272.5" font-family="Helvetica,sans-Serif" font-size="10.00">/algorithm.hpp</text>
</a>
</g>
</g>
<!-- Node1&#45;&gt;Node23 -->
<g id="edge45" class="edge">
<title>Node1&#45;&gt;Node23</title>
<path fill="none" stroke="#63b8ff" d="M1892.24,-329.38C1911.56,-319.58 1934.14,-308.11 1952.03,-299.04"/>
<polygon fill="#63b8ff" stroke="#63b8ff" points="1890.82,-326.69 1883.48,-334.33 1893.98,-332.93 1890.82,-326.69"/>
</g>
<!-- Node3 -->
<g id="node3" class="node">
<title>Node3</title>
<g id="a_node3"><a xlink:href="../../d2/db4/functional_8hpp.html" target="_top" xlink:title=" ">
<polygon fill="white" stroke="#666666" points="1657.25,-20.75 1510,-20.75 1510,0 1657.25,0 1657.25,-20.75"/>
<text text-anchor="middle" x="1583.62" y="-7.25" font-family="Helvetica,sans-Serif" font-size="10.00">Simple&#45;Utility/functional.hpp</text>
</a>
</g>
</g>
<!-- Node2&#45;&gt;Node3 -->
<g id="edge2" class="edge">
<title>Node2&#45;&gt;Node3</title>
<path fill="none" stroke="#63b8ff" d="M1282.29,-190.44C1224.78,-160.97 1138.01,-105.57 1181.62,-56.75 1203.06,-32.76 1399.79,-19.86 1509.88,-14.47"/>
<polygon fill="#63b8ff" stroke="#63b8ff" points="1280.44,-193.93 1290.95,-195.28 1283.58,-187.67 1280.44,-193.93"/>
</g>
<!-- Node4 -->
<g id="node4" class="node">
<title>Node4</title>
<g id="a_node4"><a xlink:href="../../d2/d7e/predicate_8hpp.html" target="_top" xlink:title=" ">
<polygon fill="white" stroke="#666666" points="1792.12,-159.75 1665.12,-159.75 1665.12,-126.25 1792.12,-126.25 1792.12,-159.75"/>
<text text-anchor="start" x="1673.12" y="-146.25" font-family="Helvetica,sans-Serif" font-size="10.00">Simple&#45;Utility/functional</text>
<text text-anchor="middle" x="1728.62" y="-133.5" font-family="Helvetica,sans-Serif" font-size="10.00">/predicate.hpp</text>
</a>
</g>
</g>
<!-- Node2&#45;&gt;Node4 -->
<g id="edge3" class="edge">
<title>Node2&#45;&gt;Node4</title>
<path fill="none" stroke="#63b8ff" d="M1401.99,-198.98C1477.56,-186.26 1593.37,-166.77 1664.87,-154.73"/>
<polygon fill="#63b8ff" stroke="#63b8ff" points="1401.89,-195.62 1392.61,-200.73 1403.05,-202.52 1401.89,-195.62"/>
</g>
<!-- Node6 -->
<g id="node6" class="node">
<title>Node6</title>
<g id="a_node6"><a xlink:href="../../d6/deb/transform_8hpp.html" target="_top" xlink:title=" ">
<polygon fill="white" stroke="#666666" points="1391.12,-159.75 1264.12,-159.75 1264.12,-126.25 1391.12,-126.25 1391.12,-159.75"/>
<text text-anchor="start" x="1272.12" y="-146.25" font-family="Helvetica,sans-Serif" font-size="10.00">Simple&#45;Utility/functional</text>
<text text-anchor="middle" x="1327.62" y="-133.5" font-family="Helvetica,sans-Serif" font-size="10.00">/transform.hpp</text>
</a>
</g>
</g>
<!-- Node2&#45;&gt;Node6 -->
<g id="edge7" class="edge">
<title>Node2&#45;&gt;Node6</title>
<path fill="none" stroke="#63b8ff" d="M1327.62,-184.64C1327.62,-176.25 1327.62,-167.26 1327.62,-159.88"/>
<polygon fill="#63b8ff" stroke="#63b8ff" points="1324.13,-184.5 1327.62,-194.5 1331.13,-184.5 1324.13,-184.5"/>
</g>
<!-- Node15 -->
<g id="node15" class="node">
<title>Node15</title>
<g id="a_node15"><a xlink:href="../../d6/dbe/nullables_2base_8hpp.html" target="_top" xlink:title=" ">
<polygon fill="white" stroke="#666666" points="641.88,-159.75 519.38,-159.75 519.38,-126.25 641.88,-126.25 641.88,-159.75"/>
<text text-anchor="start" x="527.38" y="-146.25" font-family="Helvetica,sans-Serif" font-size="10.00">Simple&#45;Utility/nullables</text>
<text text-anchor="middle" x="580.62" y="-133.5" font-family="Helvetica,sans-Serif" font-size="10.00">/base.hpp</text>
</a>
</g>
</g>
<!-- Node2&#45;&gt;Node15 -->
<g id="edge24" class="edge">
<title>Node2&#45;&gt;Node15</title>
<path fill="none" stroke="#63b8ff" d="M1253.21,-204.78C1105.71,-191.45 778.76,-161.9 642.31,-149.57"/>
<polygon fill="#63b8ff" stroke="#63b8ff" points="1252.66,-208.33 1262.94,-205.74 1253.29,-201.36 1252.66,-208.33"/>
</g>
<!-- Node4&#45;&gt;Node3 -->
<g id="edge4" class="edge">
<title>Node4&#45;&gt;Node3</title>
<path fill="none" stroke="#63b8ff" d="M1772.82,-120.06C1783.92,-112.27 1794.42,-102.36 1800.62,-90.25 1807.42,-77 1810.01,-68.31 1800.62,-56.75 1782.69,-34.68 1713.18,-22.97 1657.59,-17.02"/>
<polygon fill="#63b8ff" stroke="#63b8ff" points="1771.36,-117.49 1764.87,-125.86 1775.17,-123.36 1771.36,-117.49"/>
</g>
<!-- Node5 -->
<g id="node5" class="node">
<title>Node5</title>
<g id="a_node5"><a xlink:href="../../dd/d3f/compare_8hpp.html" target="_top" xlink:title=" ">
<polygon fill="white" stroke="#666666" points="1792.12,-90.25 1665.12,-90.25 1665.12,-56.75 1792.12,-56.75 1792.12,-90.25"/>
<text text-anchor="start" x="1673.12" y="-76.75" font-family="Helvetica,sans-Serif" font-size="10.00">Simple&#45;Utility/functional</text>
<text text-anchor="middle" x="1728.62" y="-64" font-family="Helvetica,sans-Serif" font-size="10.00">/compare.hpp</text>
</a>
</g>
</g>
<!-- Node4&#45;&gt;Node5 -->
<g id="edge5" class="edge">
<title>Node4&#45;&gt;Node5</title>
<path fill="none" stroke="#63b8ff" d="M1728.62,-115.14C1728.62,-106.75 1728.62,-97.76 1728.62,-90.38"/>
<polygon fill="#63b8ff" stroke="#63b8ff" points="1725.13,-115 1728.62,-125 1732.13,-115 1725.13,-115"/>
</g>
<!-- Node5&#45;&gt;Node3 -->
<g id="edge6" class="edge">
<title>Node5&#45;&gt;Node3</title>
<path fill="none" stroke="#63b8ff" d="M1680.21,-52.09C1655.49,-41.67 1626.56,-29.47 1606.85,-21.17"/>
<polygon fill="#63b8ff" stroke="#63b8ff" points="1678.57,-55.62 1689.15,-56.28 1681.29,-49.17 1678.57,-55.62"/>
</g>
<!-- Node6&#45;&gt;Node3 -->
<g id="edge8" class="edge">
<title>Node6&#45;&gt;Node3</title>
<path fill="none" stroke="#63b8ff" d="M1397.8,-122.49C1422.05,-114.29 1448.83,-103.53 1471.62,-90.25 1491.37,-78.75 1492.2,-70.27 1510.62,-56.75 1528.91,-43.33 1551.22,-29.85 1566.33,-21.11"/>
<polygon fill="#63b8ff" stroke="#63b8ff" points="1396.99,-119.4 1388.59,-125.85 1399.18,-126.05 1396.99,-119.4"/>
</g>
<!-- Node6&#45;&gt;Node5 -->
<g id="edge11" class="edge">
<title>Node6&#45;&gt;Node5</title>
<path fill="none" stroke="#63b8ff" d="M1402.41,-131.42C1469.03,-121.7 1569.06,-106.4 1655.62,-90.25 1658.68,-89.68 1661.81,-89.08 1664.97,-88.45"/>
<polygon fill="#63b8ff" stroke="#63b8ff" points="1402,-128.09 1392.61,-132.99 1403.01,-135.01 1402,-128.09"/>
</g>
<!-- Node7 -->
<g id="node7" class="node">
<title>Node7</title>
<g id="a_node7"><a xlink:href="../../d3/d23/arithmetic_8hpp.html" target="_top" xlink:title=" ">
<polygon fill="white" stroke="#666666" points="1647.12,-90.25 1520.12,-90.25 1520.12,-56.75 1647.12,-56.75 1647.12,-90.25"/>
<text text-anchor="start" x="1528.12" y="-76.75" font-family="Helvetica,sans-Serif" font-size="10.00">Simple&#45;Utility/functional</text>
<text text-anchor="middle" x="1583.62" y="-64" font-family="Helvetica,sans-Serif" font-size="10.00">/arithmetic.hpp</text>
</a>
</g>
</g>
<!-- Node6&#45;&gt;Node7 -->
<g id="edge9" class="edge">
<title>Node6&#45;&gt;Node7</title>
<path fill="none" stroke="#63b8ff" d="M1399.12,-123.15C1437.88,-112.93 1485.3,-100.42 1522.36,-90.65"/>
<polygon fill="#63b8ff" stroke="#63b8ff" points="1398.72,-119.9 1389.94,-125.83 1400.51,-126.67 1398.72,-119.9"/>
</g>
<!-- Node8 -->
<g id="node8" class="node">
<title>Node8</title>
<g id="a_node8"><a xlink:href="../../d9/d5f/functional_2tuple_8hpp.html" target="_top" xlink:title=" ">
<polygon fill="white" stroke="#666666" points="1318.12,-90.25 1191.12,-90.25 1191.12,-56.75 1318.12,-56.75 1318.12,-90.25"/>
<text text-anchor="start" x="1199.12" y="-76.75" font-family="Helvetica,sans-Serif" font-size="10.00">Simple&#45;Utility/functional</text>
<text text-anchor="middle" x="1254.62" y="-64" font-family="Helvetica,sans-Serif" font-size="10.00">/tuple.hpp</text>
</a>
</g>
</g>
<!-- Node6&#45;&gt;Node8 -->
<g id="edge12" class="edge">
<title>Node6&#45;&gt;Node8</title>
<path fill="none" stroke="#63b8ff" d="M1302.3,-118.59C1292.32,-109.35 1281.1,-98.98 1272.05,-90.62"/>
<polygon fill="#63b8ff" stroke="#63b8ff" points="1299.61,-120.78 1309.33,-125 1304.36,-115.64 1299.61,-120.78"/>
</g>
<!-- Node9 -->
<g id="node9" class="node">
<title>Node9</title>
<g id="a_node9"><a xlink:href="../../df/d4e/functional_2utility_8hpp.html" target="_top" xlink:title=" ">
<polygon fill="white" stroke="#666666" points="1463.12,-90.25 1336.12,-90.25 1336.12,-56.75 1463.12,-56.75 1463.12,-90.25"/>
<text text-anchor="start" x="1344.12" y="-76.75" font-family="Helvetica,sans-Serif" font-size="10.00">Simple&#45;Utility/functional</text>
<text text-anchor="middle" x="1399.62" y="-64" font-family="Helvetica,sans-Serif" font-size="10.00">/utility.hpp</text>
</a>
</g>
</g>
<!-- Node6&#45;&gt;Node9 -->
<g id="edge14" class="edge">
<title>Node6&#45;&gt;Node9</title>
<path fill="none" stroke="#63b8ff" d="M1352.66,-118.53C1362.58,-109.23 1373.74,-98.77 1382.68,-90.38"/>
<polygon fill="#63b8ff" stroke="#63b8ff" points="1350.59,-115.61 1345.69,-125 1355.38,-120.72 1350.59,-115.61"/>
</g>
<!-- Node10 -->
<g id="node10" class="node">
<title>Node10</title>
<g id="a_node10"><a xlink:href="../../d4/dc9/and__then_8hpp.html" target="_top" xlink:title=" ">
<polygon fill="white" stroke="#666666" points="1134.88,-90.25 1012.38,-90.25 1012.38,-56.75 1134.88,-56.75 1134.88,-90.25"/>
<text text-anchor="start" x="1020.38" y="-76.75" font-family="Helvetica,sans-Serif" font-size="10.00">Simple&#45;Utility/nullables</text>
<text text-anchor="middle" x="1073.62" y="-64" font-family="Helvetica,sans-Serif" font-size="10.00">/and_then.hpp</text>
</a>
</g>
</g>
<!-- Node6&#45;&gt;Node10 -->
<g id="edge16" class="edge">
<title>Node6&#45;&gt;Node10</title>
<path fill="none" stroke="#63b8ff" d="M1256.2,-123.02C1217.83,-112.82 1171.02,-100.38 1134.41,-90.65"/>
<polygon fill="#63b8ff" stroke="#63b8ff" points="1255.22,-126.65 1265.79,-125.83 1257.02,-119.88 1255.22,-126.65"/>
</g>
<!-- Node12 -->
<g id="node12" class="node">
<title>Node12</title>
<g id="a_node12"><a xlink:href="../../d7/d5f/fwd__value_8hpp.html" target="_top" xlink:title=" ">
<polygon fill="white" stroke="#666666" points="711.88,-90.25 589.38,-90.25 589.38,-56.75 711.88,-56.75 711.88,-90.25"/>
<text text-anchor="start" x="597.38" y="-76.75" font-family="Helvetica,sans-Serif" font-size="10.00">Simple&#45;Utility/nullables</text>
<text text-anchor="middle" x="650.62" y="-64" font-family="Helvetica,sans-Serif" font-size="10.00">/fwd_value.hpp</text>
</a>
</g>
</g>
<!-- Node6&#45;&gt;Node12 -->
<g id="edge18" class="edge">
<title>Node6&#45;&gt;Node12</title>
<path fill="none" stroke="#63b8ff" d="M1253.31,-138.84C1138.65,-133.26 911.98,-119.36 721.62,-90.25 718.5,-89.77 715.32,-89.24 712.1,-88.66"/>
<polygon fill="#63b8ff" stroke="#63b8ff" points="1252.89,-142.38 1263.05,-139.36 1253.22,-135.38 1252.89,-142.38"/>
</g>
<!-- Node13 -->
<g id="node13" class="node">
<title>Node13</title>
<g id="a_node13"><a xlink:href="../../d2/d0e/or__else_8hpp.html" target="_top" xlink:title=" ">
<polygon fill="white" stroke="#666666" points="852.88,-90.25 730.38,-90.25 730.38,-56.75 852.88,-56.75 852.88,-90.25"/>
<text text-anchor="start" x="738.38" y="-76.75" font-family="Helvetica,sans-Serif" font-size="10.00">Simple&#45;Utility/nullables</text>
<text text-anchor="middle" x="791.62" y="-64" font-family="Helvetica,sans-Serif" font-size="10.00">/or_else.hpp</text>
</a>
</g>
</g>
<!-- Node6&#45;&gt;Node13 -->
<g id="edge20" class="edge">
<title>Node6&#45;&gt;Node13</title>
<path fill="none" stroke="#63b8ff" d="M1252.88,-136.17C1160.73,-128.42 999.49,-112.98 862.62,-90.25 859.51,-89.73 856.33,-89.17 853.12,-88.57"/>
<polygon fill="#63b8ff" stroke="#63b8ff" points="1252.51,-139.74 1262.77,-137.08 1253.1,-132.76 1252.51,-139.74"/>
</g>
<!-- Node14 -->
<g id="node14" class="node">
<title>Node14</title>
<g id="a_node14"><a xlink:href="../../d0/d48/value__or_8hpp.html" target="_top" xlink:title=" ">
<polygon fill="white" stroke="#666666" points="993.88,-90.25 871.38,-90.25 871.38,-56.75 993.88,-56.75 993.88,-90.25"/>
<text text-anchor="start" x="879.38" y="-76.75" font-family="Helvetica,sans-Serif" font-size="10.00">Simple&#45;Utility/nullables</text>
<text text-anchor="middle" x="932.62" y="-64" font-family="Helvetica,sans-Serif" font-size="10.00">/value_or.hpp</text>
</a>
</g>
</g>
<!-- Node6&#45;&gt;Node14 -->
<g id="edge22" class="edge">
<title>Node6&#45;&gt;Node14</title>
<path fill="none" stroke="#63b8ff" d="M1253.12,-131.4C1187.31,-121.72 1088.83,-106.49 1003.62,-90.25 1000.52,-89.66 997.35,-89.03 994.15,-88.39"/>
<polygon fill="#63b8ff" stroke="#63b8ff" points="1252.4,-134.97 1262.8,-132.96 1253.41,-128.05 1252.4,-134.97"/>
</g>
<!-- Node7&#45;&gt;Node3 -->
<g id="edge10" class="edge">
<title>Node7&#45;&gt;Node3</title>
<path fill="none" stroke="#63b8ff" d="M1583.62,-45.52C1583.62,-36.87 1583.62,-27.82 1583.62,-21.22"/>
<polygon fill="#63b8ff" stroke="#63b8ff" points="1580.13,-45.44 1583.62,-55.44 1587.13,-45.44 1580.13,-45.44"/>
</g>
<!-- Node8&#45;&gt;Node3 -->
<g id="edge13" class="edge">
<title>Node8&#45;&gt;Node3</title>
<path fill="none" stroke="#63b8ff" d="M1329.2,-56.28C1401.19,-42.2 1474.05,-29.59 1523.78,-21.23"/>
<polygon fill="#63b8ff" stroke="#63b8ff" points="1328.72,-53 1319.59,-58.37 1330.07,-59.87 1328.72,-53"/>
</g>
<!-- Node9&#45;&gt;Node3 -->
<g id="edge15" class="edge">
<title>Node9&#45;&gt;Node3</title>
<path fill="none" stroke="#63b8ff" d="M1458.57,-52.92C1490.47,-42.32 1528.48,-29.69 1554.15,-21.17"/>
<polygon fill="#63b8ff" stroke="#63b8ff" points="1457.84,-49.81 1449.45,-56.28 1460.04,-56.45 1457.84,-49.81"/>
</g>
<!-- Node11 -->
<g id="node11" class="node">
<title>Node11</title>
<g id="a_node11"><a xlink:href="../../d3/ddc/nullables_8hpp.html" target="_top" xlink:title=" ">
<polygon fill="white" stroke="#666666" points="652,-20.75 509.25,-20.75 509.25,0 652,0 652,-20.75"/>
<text text-anchor="middle" x="580.62" y="-7.25" font-family="Helvetica,sans-Serif" font-size="10.00">Simple&#45;Utility/nullables.hpp</text>
</a>
</g>
</g>
<!-- Node10&#45;&gt;Node11 -->
<g id="edge17" class="edge">
<title>Node10&#45;&gt;Node11</title>
<path fill="none" stroke="#63b8ff" d="M1001.29,-56.65C872.47,-35.95 734.17,-23.2 652.26,-16.64"/>
<polygon fill="#63b8ff" stroke="#63b8ff" points="1000.7,-60.27 1011.13,-58.42 1001.83,-53.36 1000.7,-60.27"/>
</g>
<!-- Node12&#45;&gt;Node11 -->
<g id="edge19" class="edge">
<title>Node12&#45;&gt;Node11</title>
<path fill="none" stroke="#63b8ff" d="M624.04,-49.28C612.9,-39.56 600.56,-28.79 591.9,-21.22"/>
<polygon fill="#63b8ff" stroke="#63b8ff" points="621.4,-52.5 631.23,-56.44 626,-47.23 621.4,-52.5"/>
</g>
<!-- Node13&#45;&gt;Node11 -->
<g id="edge21" class="edge">
<title>Node13&#45;&gt;Node11</title>
<path fill="none" stroke="#63b8ff" d="M725.45,-53.33C688.59,-42.65 644.25,-29.81 614.42,-21.17"/>
<polygon fill="#63b8ff" stroke="#63b8ff" points="724.06,-56.86 734.63,-56.28 726,-50.14 724.06,-56.86"/>
</g>
<!-- Node14&#45;&gt;Node11 -->
<g id="edge23" class="edge">
<title>Node14&#45;&gt;Node11</title>
<path fill="none" stroke="#63b8ff" d="M860.53,-56.61C782.06,-41.76 703.25,-29.39 648.67,-21.23"/>
<polygon fill="#63b8ff" stroke="#63b8ff" points="859.62,-60.19 870.1,-58.62 860.93,-53.31 859.62,-60.19"/>
</g>
<!-- Node15&#45;&gt;Node10 -->
<g id="edge28" class="edge">
<title>Node15&#45;&gt;Node10</title>
<path fill="none" stroke="#63b8ff" d="M652.78,-135.29C737.05,-126.95 880.49,-111.24 1002.62,-90.25 1005.74,-89.72 1008.92,-89.14 1012.12,-88.52"/>
<polygon fill="#63b8ff" stroke="#63b8ff" points="652.66,-131.88 643.04,-136.34 653.34,-138.85 652.66,-131.88"/>
</g>
<!-- Node15&#45;&gt;Node11 -->
<g id="edge25" class="edge">
<title>Node15&#45;&gt;Node11</title>
<path fill="none" stroke="#63b8ff" d="M508.21,-142.51C406.02,-140.78 238.3,-127.56 298.62,-56.75 325.12,-25.66 434.3,-15.79 508.78,-12.71"/>
<polygon fill="#63b8ff" stroke="#63b8ff" points="508.06,-146.02 518.11,-142.65 508.15,-139.02 508.06,-146.02"/>
</g>
<!-- Node15&#45;&gt;Node12 -->
<g id="edge29" class="edge">
<title>Node15&#45;&gt;Node12</title>
<path fill="none" stroke="#63b8ff" d="M604.96,-118.53C614.61,-109.23 625.46,-98.77 634.16,-90.38"/>
<polygon fill="#63b8ff" stroke="#63b8ff" points="602.98,-115.54 598.21,-125 607.84,-120.58 602.98,-115.54"/>
</g>
<!-- Node15&#45;&gt;Node13 -->
<g id="edge30" class="edge">
<title>Node15&#45;&gt;Node13</title>
<path fill="none" stroke="#63b8ff" d="M641.6,-122.49C673.16,-112.4 711.24,-100.22 741.13,-90.65"/>
<polygon fill="#63b8ff" stroke="#63b8ff" points="640.62,-119.45 632.16,-125.83 642.76,-126.12 640.62,-119.45"/>
</g>
<!-- Node15&#45;&gt;Node14 -->
<g id="edge35" class="edge">
<title>Node15&#45;&gt;Node14</title>
<path fill="none" stroke="#63b8ff" d="M652.82,-129.45C709.66,-119.38 790.84,-104.62 861.62,-90.25 864.72,-89.62 867.88,-88.97 871.08,-88.3"/>
<polygon fill="#63b8ff" stroke="#63b8ff" points="652.38,-126.15 643.14,-131.33 653.6,-133.04 652.38,-126.15"/>
</g>
<!-- Node16 -->
<g id="node16" class="node">
<title>Node16</title>
<g id="a_node16"><a xlink:href="../../d6/dca/adapter_8hpp.html" target="_top" xlink:title=" ">
<polygon fill="white" stroke="#666666" points="429.88,-90.25 307.38,-90.25 307.38,-56.75 429.88,-56.75 429.88,-90.25"/>
<text text-anchor="start" x="315.38" y="-76.75" font-family="Helvetica,sans-Serif" font-size="10.00">Simple&#45;Utility/nullables</text>
<text text-anchor="middle" x="368.62" y="-64" font-family="Helvetica,sans-Serif" font-size="10.00">/adapter.hpp</text>
</a>
</g>
</g>
<!-- Node15&#45;&gt;Node16 -->
<g id="edge26" class="edge">
<title>Node15&#45;&gt;Node16</title>
<path fill="none" stroke="#63b8ff" d="M519.78,-122.63C487.98,-112.5 449.52,-100.26 419.36,-90.65"/>
<polygon fill="#63b8ff" stroke="#63b8ff" points="518.26,-126.13 528.85,-125.83 520.38,-119.46 518.26,-126.13"/>
</g>
<!-- Node17 -->
<g id="node17" class="node">
<title>Node17</title>
<g id="a_node17"><a xlink:href="../../d9/d20/std__optional_8hpp.html" target="_top" xlink:title=" ">
<polygon fill="white" stroke="#666666" points="570.88,-90.25 448.38,-90.25 448.38,-56.75 570.88,-56.75 570.88,-90.25"/>
<text text-anchor="start" x="456.38" y="-76.75" font-family="Helvetica,sans-Serif" font-size="10.00">Simple&#45;Utility/nullables</text>
<text text-anchor="middle" x="509.62" y="-64" font-family="Helvetica,sans-Serif" font-size="10.00">/std_optional.hpp</text>
</a>
</g>
</g>
<!-- Node15&#45;&gt;Node17 -->
<g id="edge31" class="edge">
<title>Node15&#45;&gt;Node17</title>
<path fill="none" stroke="#63b8ff" d="M555.94,-118.53C546.15,-109.23 535.15,-98.77 526.33,-90.38"/>
<polygon fill="#63b8ff" stroke="#63b8ff" points="553.14,-120.65 562.8,-125 557.96,-115.58 553.14,-120.65"/>
</g>
<!-- Node18 -->
<g id="node18" class="node">
<title>Node18</title>
<g id="a_node18"><a xlink:href="../../d8/d9a/std__pointers_8hpp.html" target="_top" xlink:title=" ">
<polygon fill="white" stroke="#666666" points="251.88,-90.25 129.38,-90.25 129.38,-56.75 251.88,-56.75 251.88,-90.25"/>
<text text-anchor="start" x="137.38" y="-76.75" font-family="Helvetica,sans-Serif" font-size="10.00">Simple&#45;Utility/nullables</text>
<text text-anchor="middle" x="190.62" y="-64" font-family="Helvetica,sans-Serif" font-size="10.00">/std_pointers.hpp</text>
</a>
</g>
</g>
<!-- Node15&#45;&gt;Node18 -->
<g id="edge33" class="edge">
<title>Node15&#45;&gt;Node18</title>
<path fill="none" stroke="#63b8ff" d="M508.15,-131.02C444.2,-121.12 348.53,-105.76 265.62,-90.25 261.18,-89.42 256.59,-88.53 251.98,-87.61"/>
<polygon fill="#63b8ff" stroke="#63b8ff" points="507.5,-134.62 517.92,-132.69 508.57,-127.7 507.5,-134.62"/>
</g>
<!-- Node19 -->
<g id="node19" class="node">
<title>Node19</title>
<g id="a_node19"><a xlink:href="../../d0/d0f/unique__handle_8hpp.html" target="_top" xlink:title=" ">
<polygon fill="white" stroke="#666666" points="111.25,-90.25 0,-90.25 0,-56.75 111.25,-56.75 111.25,-90.25"/>
<text text-anchor="start" x="8" y="-76.75" font-family="Helvetica,sans-Serif" font-size="10.00">Simple&#45;Utility/unique</text>
<text text-anchor="middle" x="55.62" y="-64" font-family="Helvetica,sans-Serif" font-size="10.00">_handle.hpp</text>
</a>
</g>
</g>
<!-- Node15&#45;&gt;Node19 -->
<g id="edge36" class="edge">
<title>Node15&#45;&gt;Node19</title>
<path fill="none" stroke="#63b8ff" d="M508.14,-136.68C417.17,-129.35 256.56,-114.27 120.62,-90.25 117.65,-89.72 114.61,-89.14 111.55,-88.52"/>
<polygon fill="#63b8ff" stroke="#63b8ff" points="507.64,-140.23 517.89,-137.53 508.2,-133.25 507.64,-140.23"/>
</g>
<!-- Node16&#45;&gt;Node11 -->
<g id="edge27" class="edge">
<title>Node16&#45;&gt;Node11</title>
<path fill="none" stroke="#63b8ff" d="M435.11,-53.33C472.15,-42.65 516.7,-29.81 546.67,-21.17"/>
<polygon fill="#63b8ff" stroke="#63b8ff" points="434.52,-50.15 425.88,-56.28 436.46,-56.87 434.52,-50.15"/>
</g>
<!-- Node17&#45;&gt;Node11 -->
<g id="edge32" class="edge">
<title>Node17&#45;&gt;Node11</title>
<path fill="none" stroke="#63b8ff" d="M536.59,-49.28C547.88,-39.56 560.4,-28.79 569.19,-21.22"/>
<polygon fill="#63b8ff" stroke="#63b8ff" points="534.57,-47.26 529.28,-56.44 539.14,-52.57 534.57,-47.26"/>
</g>
<!-- Node18&#45;&gt;Node11 -->
<g id="edge34" class="edge">
<title>Node18&#45;&gt;Node11</title>
<path fill="none" stroke="#63b8ff" d="M262.77,-57.26C263.73,-57.09 264.68,-56.92 265.62,-56.75 348.73,-42.05 444.81,-28.74 508.79,-20.39"/>
<polygon fill="#63b8ff" stroke="#63b8ff" points="262.55,-53.93 253.37,-59.21 263.84,-60.81 262.55,-53.93"/>
</g>
<!-- Node20&#45;&gt;Node3 -->
<g id="edge38" class="edge">
<title>Node20&#45;&gt;Node3</title>
<path fill="none" stroke="#63b8ff" d="M1849.42,-259.18C1860.67,-251.39 1871.32,-241.45 1877.62,-229.25 1903.37,-179.44 1898.01,-109.43 1840.62,-56.75 1814.42,-32.7 1723.7,-21.08 1657.45,-15.69"/>
<polygon fill="#63b8ff" stroke="#63b8ff" points="1847.9,-256.64 1841.35,-264.97 1851.66,-262.54 1847.9,-256.64"/>
</g>
<!-- Node20&#45;&gt;Node4 -->
<g id="edge42" class="edge">
<title>Node20&#45;&gt;Node4</title>
<path fill="none" stroke="#63b8ff" d="M1760.1,-259.04C1748.86,-251.24 1738.14,-241.33 1731.62,-229.25 1719.95,-207.61 1722.16,-178.19 1725.15,-160.18"/>
<polygon fill="#63b8ff" stroke="#63b8ff" points="1757.85,-262.39 1768.16,-264.83 1761.62,-256.49 1757.85,-262.39"/>
</g>
<!-- Node20&#45;&gt;Node6 -->
<g id="edge43" class="edge">
<title>Node20&#45;&gt;Node6</title>
<path fill="none" stroke="#63b8ff" d="M1738.22,-261.93C1643.8,-234.81 1472.42,-185.59 1383.9,-160.16"/>
<polygon fill="#63b8ff" stroke="#63b8ff" points="1736.93,-265.48 1747.5,-264.88 1738.86,-258.76 1736.93,-265.48"/>
</g>
<!-- Node21 -->
<g id="node21" class="node">
<title>Node21</title>
<g id="a_node21"><a xlink:href="../../d8/dea/negation_8hpp.html" target="_top" xlink:title=" ">
<polygon fill="white" stroke="#666666" points="1868.88,-229.25 1740.38,-229.25 1740.38,-195.75 1868.88,-195.75 1868.88,-229.25"/>
<text text-anchor="start" x="1748.38" y="-215.75" font-family="Helvetica,sans-Serif" font-size="10.00">Simple&#45;Utility/functional</text>
<text text-anchor="middle" x="1804.62" y="-203" font-family="Helvetica,sans-Serif" font-size="10.00">/operators/negation.hpp</text>
</a>
</g>
</g>
<!-- Node20&#45;&gt;Node21 -->
<g id="edge39" class="edge">
<title>Node20&#45;&gt;Node21</title>
<path fill="none" stroke="#63b8ff" d="M1804.62,-254.14C1804.62,-245.75 1804.62,-236.76 1804.62,-229.38"/>
<polygon fill="#63b8ff" stroke="#63b8ff" points="1801.13,-254 1804.62,-264 1808.13,-254 1801.13,-254"/>
</g>
<!-- Node21&#45;&gt;Node3 -->
<g id="edge40" class="edge">
<title>Node21&#45;&gt;Node3</title>
<path fill="none" stroke="#63b8ff" d="M1817.17,-185.27C1831.27,-151.53 1848.53,-92.98 1818.62,-56.75 1798.42,-32.27 1718.66,-20.85 1657.61,-15.62"/>
<polygon fill="#63b8ff" stroke="#63b8ff" points="1813.59,-183.73 1812.77,-194.29 1820,-186.54 1813.59,-183.73"/>
</g>
<!-- Node21&#45;&gt;Node4 -->
<g id="edge41" class="edge">
<title>Node21&#45;&gt;Node4</title>
<path fill="none" stroke="#63b8ff" d="M1778.57,-188.36C1768.1,-179.06 1756.28,-168.56 1746.77,-160.12"/>
<polygon fill="#63b8ff" stroke="#63b8ff" points="1775.81,-190.48 1785.61,-194.5 1780.46,-185.25 1775.81,-190.48"/>
</g>
<!-- Node23&#45;&gt;Node22 -->
<g id="edge46" class="edge">
<title>Node23&#45;&gt;Node22</title>
<path fill="none" stroke="#63b8ff" d="M1984.82,-254.22C1985.3,-243.33 1985.83,-231.43 1986.19,-223.32"/>
<polygon fill="#63b8ff" stroke="#63b8ff" points="1981.28,-253.86 1984.34,-264 1988.28,-254.17 1981.28,-253.86"/>
</g>
</g>
</svg>
