<?xml version="1.0" encoding="UTF-8" standalone="no"?>
<!DOCTYPE svg PUBLIC "-//W3C//DTD SVG 1.1//EN"
 "http://www.w3.org/Graphics/SVG/1.1/DTD/svg11.dtd">
<!-- Generated by graphviz version 2.43.0 (0)
 -->
<!-- Title: /home/runner/work/Simple&#45;Utility/Simple&#45;Utility/include/Simple&#45;Utility/tuple/general.hpp Pages: 1 -->
<svg width="2354pt" height="506pt"
 viewBox="0.00 0.00 2354.00 506.00" xmlns="http://www.w3.org/2000/svg" xmlns:xlink="http://www.w3.org/1999/xlink">
<g id="graph0" class="graph" transform="scale(1 1) rotate(0) translate(4 502)">
<title>/home/runner/work/Simple&#45;Utility/Simple&#45;Utility/include/Simple&#45;Utility/tuple/general.hpp</title>
<polygon fill="white" stroke="transparent" points="-4,4 -4,-502 2350,-502 2350,4 -4,4"/>
<!-- Node1 -->
<g id="node1" class="node">
<title>Node1</title>
<g id="a_node1"><a xlink:title=" ">
<polygon fill="#bfbfbf" stroke="black" points="2034,-445.5 2034,-497.5 2180,-497.5 2180,-445.5 2034,-445.5"/>
<text text-anchor="start" x="2042" y="-485.5" font-family="Helvetica,sans-Serif" font-size="10.00">/home/runner/work/Simple</text>
<text text-anchor="start" x="2042" y="-474.5" font-family="Helvetica,sans-Serif" font-size="10.00">&#45;Utility/Simple&#45;Utility</text>
<text text-anchor="start" x="2042" y="-463.5" font-family="Helvetica,sans-Serif" font-size="10.00">/include/Simple&#45;Utility</text>
<text text-anchor="middle" x="2107" y="-452.5" font-family="Helvetica,sans-Serif" font-size="10.00">/tuple/general.hpp</text>
</a>
</g>
</g>
<!-- Node2 -->
<g id="node2" class="node">
<title>Node2</title>
<g id="a_node2"><a xlink:href="../../d9/d76/bind_8hpp.html" target="_top" xlink:title=" ">
<polygon fill="white" stroke="black" points="1465.5,-267.5 1465.5,-319.5 1628.5,-319.5 1628.5,-267.5 1465.5,-267.5"/>
<text text-anchor="start" x="1473.5" y="-307.5" font-family="Helvetica,sans-Serif" font-size="10.00">/home/runner/work/Simple</text>
<text text-anchor="start" x="1473.5" y="-296.5" font-family="Helvetica,sans-Serif" font-size="10.00">&#45;Utility/Simple&#45;Utility</text>
<text text-anchor="start" x="1473.5" y="-285.5" font-family="Helvetica,sans-Serif" font-size="10.00">/include/Simple&#45;Utility</text>
<text text-anchor="middle" x="1547" y="-274.5" font-family="Helvetica,sans-Serif" font-size="10.00">/functional/operators/bind.hpp</text>
</a>
</g>
</g>
<!-- Node1&#45;&gt;Node2 -->
<g id="edge1" class="edge">
<title>Node1&#45;&gt;Node2</title>
<path fill="none" stroke="midnightblue" d="M2023.99,-444.41C1916.91,-410.76 1731.93,-352.62 1626.56,-319.5"/>
<polygon fill="midnightblue" stroke="midnightblue" points="2023.2,-447.83 2033.79,-447.49 2025.3,-441.15 2023.2,-447.83"/>
</g>
<!-- Node20 -->
<g id="node20" class="node">
<title>Node20</title>
<g id="a_node20"><a xlink:href="../../d5/db7/pipe_8hpp.html" target="_top" xlink:title=" ">
<polygon fill="white" stroke="black" points="1970.5,-356.5 1970.5,-408.5 2133.5,-408.5 2133.5,-356.5 1970.5,-356.5"/>
<text text-anchor="start" x="1978.5" y="-396.5" font-family="Helvetica,sans-Serif" font-size="10.00">/home/runner/work/Simple</text>
<text text-anchor="start" x="1978.5" y="-385.5" font-family="Helvetica,sans-Serif" font-size="10.00">&#45;Utility/Simple&#45;Utility</text>
<text text-anchor="start" x="1978.5" y="-374.5" font-family="Helvetica,sans-Serif" font-size="10.00">/include/Simple&#45;Utility</text>
<text text-anchor="middle" x="2052" y="-363.5" font-family="Helvetica,sans-Serif" font-size="10.00">/functional/operators/pipe.hpp</text>
</a>
</g>
</g>
<!-- Node1&#45;&gt;Node20 -->
<g id="edge37" class="edge">
<title>Node1&#45;&gt;Node20</title>
<path fill="none" stroke="midnightblue" d="M2085.59,-436.64C2079.69,-427.31 2073.4,-417.35 2067.87,-408.61"/>
<polygon fill="midnightblue" stroke="midnightblue" points="2082.79,-438.75 2091.09,-445.34 2088.71,-435.01 2082.79,-438.75"/>
</g>
<!-- Node22 -->
<g id="node22" class="node">
<title>Node22</title>
<g id="a_node22"><a xlink:href="../../de/d55/algorithm_8hpp.html" target="_top" xlink:title=" ">
<polygon fill="white" stroke="black" points="2197,-356.5 2197,-408.5 2343,-408.5 2343,-356.5 2197,-356.5"/>
<text text-anchor="start" x="2205" y="-396.5" font-family="Helvetica,sans-Serif" font-size="10.00">/home/runner/work/Simple</text>
<text text-anchor="start" x="2205" y="-385.5" font-family="Helvetica,sans-Serif" font-size="10.00">&#45;Utility/Simple&#45;Utility</text>
<text text-anchor="start" x="2205" y="-374.5" font-family="Helvetica,sans-Serif" font-size="10.00">/include/Simple&#45;Utility</text>
<text text-anchor="middle" x="2270" y="-363.5" font-family="Helvetica,sans-Serif" font-size="10.00">/tuple/algorithm.hpp</text>
</a>
</g>
</g>
<!-- Node1&#45;&gt;Node22 -->
<g id="edge44" class="edge">
<title>Node1&#45;&gt;Node22</title>
<path fill="none" stroke="midnightblue" d="M2163.22,-440.49C2182.69,-430.1 2204.3,-418.57 2222.96,-408.61"/>
<polygon fill="midnightblue" stroke="midnightblue" points="2161.32,-437.54 2154.15,-445.34 2164.62,-443.71 2161.32,-437.54"/>
</g>
<!-- Node23 -->
<g id="node23" class="node">
<title>Node23</title>
<g id="a_node23"><a xlink:href="../../d3/d6f/tuple_8hpp.html" target="_top" xlink:title=" ">
<polygon fill="white" stroke="black" points="2200,-267.5 2200,-319.5 2346,-319.5 2346,-267.5 2200,-267.5"/>
<text text-anchor="start" x="2208" y="-307.5" font-family="Helvetica,sans-Serif" font-size="10.00">/home/runner/work/Simple</text>
<text text-anchor="start" x="2208" y="-296.5" font-family="Helvetica,sans-Serif" font-size="10.00">&#45;Utility/Simple&#45;Utility</text>
<text text-anchor="start" x="2208" y="-285.5" font-family="Helvetica,sans-Serif" font-size="10.00">/include/Simple&#45;Utility</text>
<text text-anchor="middle" x="2273" y="-274.5" font-family="Helvetica,sans-Serif" font-size="10.00">/tuple.hpp</text>
</a>
</g>
</g>
<!-- Node1&#45;&gt;Node23 -->
<g id="edge46" class="edge">
<title>Node1&#45;&gt;Node23</title>
<path fill="none" stroke="midnightblue" d="M2126.74,-436.71C2141.74,-412.66 2163.85,-380.4 2188,-356 2201.32,-342.53 2217.85,-329.86 2232.78,-319.56"/>
<polygon fill="midnightblue" stroke="midnightblue" points="2123.59,-435.14 2121.35,-445.5 2129.56,-438.8 2123.59,-435.14"/>
</g>
<!-- Node3 -->
<g id="node3" class="node">
<title>Node3</title>
<g id="a_node3"><a xlink:href="../../d2/d7e/predicate_8hpp.html" target="_top" xlink:title=" ">
<polygon fill="white" stroke="black" points="1922,-178.5 1922,-230.5 2068,-230.5 2068,-178.5 1922,-178.5"/>
<text text-anchor="start" x="1930" y="-218.5" font-family="Helvetica,sans-Serif" font-size="10.00">/home/runner/work/Simple</text>
<text text-anchor="start" x="1930" y="-207.5" font-family="Helvetica,sans-Serif" font-size="10.00">&#45;Utility/Simple&#45;Utility</text>
<text text-anchor="start" x="1930" y="-196.5" font-family="Helvetica,sans-Serif" font-size="10.00">/include/Simple&#45;Utility</text>
<text text-anchor="middle" x="1995" y="-185.5" font-family="Helvetica,sans-Serif" font-size="10.00">/functional/predicate.hpp</text>
</a>
</g>
</g>
<!-- Node2&#45;&gt;Node3 -->
<g id="edge2" class="edge">
<title>Node2&#45;&gt;Node3</title>
<path fill="none" stroke="midnightblue" d="M1638.66,-274.7C1722.31,-258.46 1844.36,-234.75 1921.7,-219.73"/>
<polygon fill="midnightblue" stroke="midnightblue" points="1637.8,-271.3 1628.65,-276.64 1639.13,-278.17 1637.8,-271.3"/>
</g>
<!-- Node5 -->
<g id="node5" class="node">
<title>Node5</title>
<g id="a_node5"><a xlink:href="../../d2/db4/functional_8hpp.html" target="_top" xlink:title=" ">
<polygon fill="white" stroke="black" points="1758,-0.5 1758,-52.5 1904,-52.5 1904,-0.5 1758,-0.5"/>
<text text-anchor="start" x="1766" y="-40.5" font-family="Helvetica,sans-Serif" font-size="10.00">/home/runner/work/Simple</text>
<text text-anchor="start" x="1766" y="-29.5" font-family="Helvetica,sans-Serif" font-size="10.00">&#45;Utility/Simple&#45;Utility</text>
<text text-anchor="start" x="1766" y="-18.5" font-family="Helvetica,sans-Serif" font-size="10.00">/include/Simple&#45;Utility</text>
<text text-anchor="middle" x="1831" y="-7.5" font-family="Helvetica,sans-Serif" font-size="10.00">/functional.hpp</text>
</a>
</g>
</g>
<!-- Node2&#45;&gt;Node5 -->
<g id="edge23" class="edge">
<title>Node2&#45;&gt;Node5</title>
<path fill="none" stroke="midnightblue" d="M1492.34,-262.18C1426.5,-221.88 1330.84,-148.81 1383,-89 1407.22,-61.23 1636.88,-41.11 1757.62,-32.36"/>
<polygon fill="midnightblue" stroke="midnightblue" points="1490.64,-265.24 1501.02,-267.4 1494.26,-259.24 1490.64,-265.24"/>
</g>
<!-- Node6 -->
<g id="node6" class="node">
<title>Node6</title>
<g id="a_node6"><a xlink:href="../../d6/deb/transform_8hpp.html" target="_top" xlink:title=" ">
<polygon fill="white" stroke="black" points="1474,-178.5 1474,-230.5 1620,-230.5 1620,-178.5 1474,-178.5"/>
<text text-anchor="start" x="1482" y="-218.5" font-family="Helvetica,sans-Serif" font-size="10.00">/home/runner/work/Simple</text>
<text text-anchor="start" x="1482" y="-207.5" font-family="Helvetica,sans-Serif" font-size="10.00">&#45;Utility/Simple&#45;Utility</text>
<text text-anchor="start" x="1482" y="-196.5" font-family="Helvetica,sans-Serif" font-size="10.00">/include/Simple&#45;Utility</text>
<text text-anchor="middle" x="1547" y="-185.5" font-family="Helvetica,sans-Serif" font-size="10.00">/functional/transform.hpp</text>
</a>
</g>
</g>
<!-- Node2&#45;&gt;Node6 -->
<g id="edge6" class="edge">
<title>Node2&#45;&gt;Node6</title>
<path fill="none" stroke="midnightblue" d="M1547,-257.19C1547,-248.28 1547,-238.9 1547,-230.61"/>
<polygon fill="midnightblue" stroke="midnightblue" points="1543.5,-257.34 1547,-267.34 1550.5,-257.34 1543.5,-257.34"/>
</g>
<!-- Node15 -->
<g id="node15" class="node">
<title>Node15</title>
<g id="a_node15"><a xlink:href="../../d6/dbe/nullables_2base_8hpp.html" target="_top" xlink:title=" ">
<polygon fill="white" stroke="black" points="616,-178.5 616,-230.5 762,-230.5 762,-178.5 616,-178.5"/>
<text text-anchor="start" x="624" y="-218.5" font-family="Helvetica,sans-Serif" font-size="10.00">/home/runner/work/Simple</text>
<text text-anchor="start" x="624" y="-207.5" font-family="Helvetica,sans-Serif" font-size="10.00">&#45;Utility/Simple&#45;Utility</text>
<text text-anchor="start" x="624" y="-196.5" font-family="Helvetica,sans-Serif" font-size="10.00">/include/Simple&#45;Utility</text>
<text text-anchor="middle" x="689" y="-185.5" font-family="Helvetica,sans-Serif" font-size="10.00">/nullables/base.hpp</text>
</a>
</g>
</g>
<!-- Node2&#45;&gt;Node15 -->
<g id="edge24" class="edge">
<title>Node2&#45;&gt;Node15</title>
<path fill="none" stroke="midnightblue" d="M1455.11,-283.18C1283.67,-265.8 918.32,-228.75 762.2,-212.92"/>
<polygon fill="midnightblue" stroke="midnightblue" points="1454.82,-286.67 1465.12,-284.2 1455.52,-279.71 1454.82,-286.67"/>
</g>
<!-- Node4 -->
<g id="node4" class="node">
<title>Node4</title>
<g id="a_node4"><a xlink:href="../../dd/d3f/compare_8hpp.html" target="_top" xlink:title=" ">
<polygon fill="white" stroke="black" points="1922,-89.5 1922,-141.5 2068,-141.5 2068,-89.5 1922,-89.5"/>
<text text-anchor="start" x="1930" y="-129.5" font-family="Helvetica,sans-Serif" font-size="10.00">/home/runner/work/Simple</text>
<text text-anchor="start" x="1930" y="-118.5" font-family="Helvetica,sans-Serif" font-size="10.00">&#45;Utility/Simple&#45;Utility</text>
<text text-anchor="start" x="1930" y="-107.5" font-family="Helvetica,sans-Serif" font-size="10.00">/include/Simple&#45;Utility</text>
<text text-anchor="middle" x="1995" y="-96.5" font-family="Helvetica,sans-Serif" font-size="10.00">/functional/compare.hpp</text>
</a>
</g>
</g>
<!-- Node3&#45;&gt;Node4 -->
<g id="edge3" class="edge">
<title>Node3&#45;&gt;Node4</title>
<path fill="none" stroke="midnightblue" d="M1995,-168.19C1995,-159.28 1995,-149.9 1995,-141.61"/>
<polygon fill="midnightblue" stroke="midnightblue" points="1991.5,-168.34 1995,-178.34 1998.5,-168.34 1991.5,-168.34"/>
</g>
<!-- Node3&#45;&gt;Node5 -->
<g id="edge5" class="edge">
<title>Node3&#45;&gt;Node5</title>
<path fill="none" stroke="midnightblue" d="M2051.43,-172.34C2061.75,-163.92 2071.1,-153.8 2077,-142 2087.53,-120.93 2091.5,-107.57 2077,-89 2055.83,-61.89 1968.86,-44.96 1904.3,-35.89"/>
<polygon fill="midnightblue" stroke="midnightblue" points="2049.24,-169.61 2043.4,-178.46 2053.47,-175.19 2049.24,-169.61"/>
</g>
<!-- Node4&#45;&gt;Node5 -->
<g id="edge4" class="edge">
<title>Node4&#45;&gt;Node5</title>
<path fill="none" stroke="midnightblue" d="M1938.7,-84.64C1919.04,-74.2 1897.19,-62.61 1878.33,-52.61"/>
<polygon fill="midnightblue" stroke="midnightblue" points="1937.09,-87.74 1947.56,-89.34 1940.37,-81.56 1937.09,-87.74"/>
</g>
<!-- Node6&#45;&gt;Node4 -->
<g id="edge9" class="edge">
<title>Node6&#45;&gt;Node4</title>
<path fill="none" stroke="midnightblue" d="M1630.42,-192.75C1705.03,-182.37 1817.07,-164.86 1913,-142 1915.9,-141.31 1918.85,-140.57 1921.82,-139.79"/>
<polygon fill="midnightblue" stroke="midnightblue" points="1629.58,-189.34 1620.15,-194.17 1630.53,-196.27 1629.58,-189.34"/>
</g>
<!-- Node6&#45;&gt;Node5 -->
<g id="edge14" class="edge">
<title>Node6&#45;&gt;Node5</title>
<path fill="none" stroke="midnightblue" d="M1629.93,-182.96C1657.53,-173.49 1687.25,-160.2 1711,-142 1734.01,-124.37 1728.73,-109.71 1749,-89 1762.07,-75.65 1778.21,-62.9 1792.71,-52.51"/>
<polygon fill="midnightblue" stroke="midnightblue" points="1628.67,-179.69 1620.27,-186.16 1630.87,-186.34 1628.67,-179.69"/>
</g>
<!-- Node7 -->
<g id="node7" class="node">
<title>Node7</title>
<g id="a_node7"><a xlink:href="../../d3/d23/arithmetic_8hpp.html" target="_top" xlink:title=" ">
<polygon fill="white" stroke="black" points="1758,-89.5 1758,-141.5 1904,-141.5 1904,-89.5 1758,-89.5"/>
<text text-anchor="start" x="1766" y="-129.5" font-family="Helvetica,sans-Serif" font-size="10.00">/home/runner/work/Simple</text>
<text text-anchor="start" x="1766" y="-118.5" font-family="Helvetica,sans-Serif" font-size="10.00">&#45;Utility/Simple&#45;Utility</text>
<text text-anchor="start" x="1766" y="-107.5" font-family="Helvetica,sans-Serif" font-size="10.00">/include/Simple&#45;Utility</text>
<text text-anchor="middle" x="1831" y="-96.5" font-family="Helvetica,sans-Serif" font-size="10.00">/functional/arithmetic.hpp</text>
</a>
</g>
</g>
<!-- Node6&#45;&gt;Node7 -->
<g id="edge7" class="edge">
<title>Node6&#45;&gt;Node7</title>
<path fill="none" stroke="midnightblue" d="M1629.71,-178.16C1670.18,-165.77 1718.48,-150.97 1757.62,-138.98"/>
<polygon fill="midnightblue" stroke="midnightblue" points="1628.67,-174.82 1620.14,-181.1 1630.72,-181.51 1628.67,-174.82"/>
</g>
<!-- Node8 -->
<g id="node8" class="node">
<title>Node8</title>
<g id="a_node8"><a xlink:href="../../d9/d5f/functional_2tuple_8hpp.html" target="_top" xlink:title=" ">
<polygon fill="white" stroke="black" points="1392,-89.5 1392,-141.5 1538,-141.5 1538,-89.5 1392,-89.5"/>
<text text-anchor="start" x="1400" y="-129.5" font-family="Helvetica,sans-Serif" font-size="10.00">/home/runner/work/Simple</text>
<text text-anchor="start" x="1400" y="-118.5" font-family="Helvetica,sans-Serif" font-size="10.00">&#45;Utility/Simple&#45;Utility</text>
<text text-anchor="start" x="1400" y="-107.5" font-family="Helvetica,sans-Serif" font-size="10.00">/include/Simple&#45;Utility</text>
<text text-anchor="middle" x="1465" y="-96.5" font-family="Helvetica,sans-Serif" font-size="10.00">/functional/tuple.hpp</text>
</a>
</g>
</g>
<!-- Node6&#45;&gt;Node8 -->
<g id="edge10" class="edge">
<title>Node6&#45;&gt;Node8</title>
<path fill="none" stroke="midnightblue" d="M1516.17,-170.79C1507.06,-161.13 1497.24,-150.71 1488.66,-141.61"/>
<polygon fill="midnightblue" stroke="midnightblue" points="1513.88,-173.46 1523.28,-178.34 1518.97,-168.66 1513.88,-173.46"/>
</g>
<!-- Node9 -->
<g id="node9" class="node">
<title>Node9</title>
<g id="a_node9"><a xlink:href="../../df/d4e/functional_2utility_8hpp.html" target="_top" xlink:title=" ">
<polygon fill="white" stroke="black" points="1556,-89.5 1556,-141.5 1702,-141.5 1702,-89.5 1556,-89.5"/>
<text text-anchor="start" x="1564" y="-129.5" font-family="Helvetica,sans-Serif" font-size="10.00">/home/runner/work/Simple</text>
<text text-anchor="start" x="1564" y="-118.5" font-family="Helvetica,sans-Serif" font-size="10.00">&#45;Utility/Simple&#45;Utility</text>
<text text-anchor="start" x="1564" y="-107.5" font-family="Helvetica,sans-Serif" font-size="10.00">/include/Simple&#45;Utility</text>
<text text-anchor="middle" x="1629" y="-96.5" font-family="Helvetica,sans-Serif" font-size="10.00">/functional/utility.hpp</text>
</a>
</g>
</g>
<!-- Node6&#45;&gt;Node9 -->
<g id="edge12" class="edge">
<title>Node6&#45;&gt;Node9</title>
<path fill="none" stroke="midnightblue" d="M1577.83,-170.79C1586.94,-161.13 1596.76,-150.71 1605.34,-141.61"/>
<polygon fill="midnightblue" stroke="midnightblue" points="1575.03,-168.66 1570.72,-178.34 1580.12,-173.46 1575.03,-168.66"/>
</g>
<!-- Node10 -->
<g id="node10" class="node">
<title>Node10</title>
<g id="a_node10"><a xlink:href="../../d4/dc9/and__then_8hpp.html" target="_top" xlink:title=" ">
<polygon fill="white" stroke="black" points="1190,-89.5 1190,-141.5 1336,-141.5 1336,-89.5 1190,-89.5"/>
<text text-anchor="start" x="1198" y="-129.5" font-family="Helvetica,sans-Serif" font-size="10.00">/home/runner/work/Simple</text>
<text text-anchor="start" x="1198" y="-118.5" font-family="Helvetica,sans-Serif" font-size="10.00">&#45;Utility/Simple&#45;Utility</text>
<text text-anchor="start" x="1198" y="-107.5" font-family="Helvetica,sans-Serif" font-size="10.00">/include/Simple&#45;Utility</text>
<text text-anchor="middle" x="1263" y="-96.5" font-family="Helvetica,sans-Serif" font-size="10.00">/nullables/and_then.hpp</text>
</a>
</g>
</g>
<!-- Node6&#45;&gt;Node10 -->
<g id="edge15" class="edge">
<title>Node6&#45;&gt;Node10</title>
<path fill="none" stroke="midnightblue" d="M1464.29,-178.16C1423.82,-165.77 1375.52,-150.97 1336.38,-138.98"/>
<polygon fill="midnightblue" stroke="midnightblue" points="1463.28,-181.51 1473.86,-181.1 1465.33,-174.82 1463.28,-181.51"/>
</g>
<!-- Node12 -->
<g id="node12" class="node">
<title>Node12</title>
<g id="a_node12"><a xlink:href="../../d7/d5f/fwd__value_8hpp.html" target="_top" xlink:title=" ">
<polygon fill="white" stroke="black" points="698,-89.5 698,-141.5 844,-141.5 844,-89.5 698,-89.5"/>
<text text-anchor="start" x="706" y="-129.5" font-family="Helvetica,sans-Serif" font-size="10.00">/home/runner/work/Simple</text>
<text text-anchor="start" x="706" y="-118.5" font-family="Helvetica,sans-Serif" font-size="10.00">&#45;Utility/Simple&#45;Utility</text>
<text text-anchor="start" x="706" y="-107.5" font-family="Helvetica,sans-Serif" font-size="10.00">/include/Simple&#45;Utility</text>
<text text-anchor="middle" x="771" y="-96.5" font-family="Helvetica,sans-Serif" font-size="10.00">/nullables/fwd_value.hpp</text>
</a>
</g>
</g>
<!-- Node6&#45;&gt;Node12 -->
<g id="edge17" class="edge">
<title>Node6&#45;&gt;Node12</title>
<path fill="none" stroke="midnightblue" d="M1463.48,-201.83C1332.3,-197.92 1070.5,-184.95 853,-142 850.07,-141.42 847.11,-140.78 844.12,-140.08"/>
<polygon fill="midnightblue" stroke="midnightblue" points="1463.75,-205.34 1473.84,-202.13 1463.95,-198.34 1463.75,-205.34"/>
</g>
<!-- Node13 -->
<g id="node13" class="node">
<title>Node13</title>
<g id="a_node13"><a xlink:href="../../d2/d0e/or__else_8hpp.html" target="_top" xlink:title=" ">
<polygon fill="white" stroke="black" points="862,-89.5 862,-141.5 1008,-141.5 1008,-89.5 862,-89.5"/>
<text text-anchor="start" x="870" y="-129.5" font-family="Helvetica,sans-Serif" font-size="10.00">/home/runner/work/Simple</text>
<text text-anchor="start" x="870" y="-118.5" font-family="Helvetica,sans-Serif" font-size="10.00">&#45;Utility/Simple&#45;Utility</text>
<text text-anchor="start" x="870" y="-107.5" font-family="Helvetica,sans-Serif" font-size="10.00">/include/Simple&#45;Utility</text>
<text text-anchor="middle" x="935" y="-96.5" font-family="Helvetica,sans-Serif" font-size="10.00">/nullables/or_else.hpp</text>
</a>
</g>
</g>
<!-- Node6&#45;&gt;Node13 -->
<g id="edge19" class="edge">
<title>Node6&#45;&gt;Node13</title>
<path fill="none" stroke="midnightblue" d="M1463.65,-198.64C1358.59,-191.41 1172.89,-174.98 1017,-142 1014.08,-141.38 1011.12,-140.71 1008.14,-139.98"/>
<polygon fill="midnightblue" stroke="midnightblue" points="1463.65,-202.14 1473.87,-199.33 1464.13,-195.16 1463.65,-202.14"/>
</g>
<!-- Node14 -->
<g id="node14" class="node">
<title>Node14</title>
<g id="a_node14"><a xlink:href="../../d0/d48/value__or_8hpp.html" target="_top" xlink:title=" ">
<polygon fill="white" stroke="black" points="1026,-89.5 1026,-141.5 1172,-141.5 1172,-89.5 1026,-89.5"/>
<text text-anchor="start" x="1034" y="-129.5" font-family="Helvetica,sans-Serif" font-size="10.00">/home/runner/work/Simple</text>
<text text-anchor="start" x="1034" y="-118.5" font-family="Helvetica,sans-Serif" font-size="10.00">&#45;Utility/Simple&#45;Utility</text>
<text text-anchor="start" x="1034" y="-107.5" font-family="Helvetica,sans-Serif" font-size="10.00">/include/Simple&#45;Utility</text>
<text text-anchor="middle" x="1099" y="-96.5" font-family="Helvetica,sans-Serif" font-size="10.00">/nullables/value_or.hpp</text>
</a>
</g>
</g>
<!-- Node6&#45;&gt;Node14 -->
<g id="edge21" class="edge">
<title>Node6&#45;&gt;Node14</title>
<path fill="none" stroke="midnightblue" d="M1463.58,-192.75C1388.97,-182.37 1276.93,-164.86 1181,-142 1178.1,-141.31 1175.15,-140.57 1172.18,-139.79"/>
<polygon fill="midnightblue" stroke="midnightblue" points="1463.47,-196.27 1473.85,-194.17 1464.42,-189.34 1463.47,-196.27"/>
</g>
<!-- Node7&#45;&gt;Node5 -->
<g id="edge8" class="edge">
<title>Node7&#45;&gt;Node5</title>
<path fill="none" stroke="midnightblue" d="M1831,-79.19C1831,-70.28 1831,-60.9 1831,-52.61"/>
<polygon fill="midnightblue" stroke="midnightblue" points="1827.5,-79.34 1831,-89.34 1834.5,-79.34 1827.5,-79.34"/>
</g>
<!-- Node8&#45;&gt;Node5 -->
<g id="edge11" class="edge">
<title>Node8&#45;&gt;Node5</title>
<path fill="none" stroke="midnightblue" d="M1548.06,-88.8C1624.81,-68.87 1702.67,-52.47 1757.91,-41.48"/>
<polygon fill="midnightblue" stroke="midnightblue" points="1547.01,-85.46 1538.23,-91.38 1548.79,-92.23 1547.01,-85.46"/>
</g>
<!-- Node9&#45;&gt;Node5 -->
<g id="edge13" class="edge">
<title>Node9&#45;&gt;Node5</title>
<path fill="none" stroke="midnightblue" d="M1696.48,-85.44C1721.24,-74.77 1749.04,-62.8 1772.91,-52.52"/>
<polygon fill="midnightblue" stroke="midnightblue" points="1694.96,-82.28 1687.16,-89.45 1697.72,-88.71 1694.96,-82.28"/>
</g>
<!-- Node11 -->
<g id="node11" class="node">
<title>Node11</title>
<g id="a_node11"><a xlink:href="../../d3/ddc/nullables_8hpp.html" target="_top" xlink:title=" ">
<polygon fill="white" stroke="black" points="616,-0.5 616,-52.5 762,-52.5 762,-0.5 616,-0.5"/>
<text text-anchor="start" x="624" y="-40.5" font-family="Helvetica,sans-Serif" font-size="10.00">/home/runner/work/Simple</text>
<text text-anchor="start" x="624" y="-29.5" font-family="Helvetica,sans-Serif" font-size="10.00">&#45;Utility/Simple&#45;Utility</text>
<text text-anchor="start" x="624" y="-18.5" font-family="Helvetica,sans-Serif" font-size="10.00">/include/Simple&#45;Utility</text>
<text text-anchor="middle" x="689" y="-7.5" font-family="Helvetica,sans-Serif" font-size="10.00">/nullables.hpp</text>
</a>
</g>
</g>
<!-- Node10&#45;&gt;Node11 -->
<g id="edge16" class="edge">
<title>Node10&#45;&gt;Node11</title>
<path fill="none" stroke="midnightblue" d="M1179.79,-88.89C1026.69,-56.53 856.84,-40.05 762.2,-32.58"/>
<polygon fill="midnightblue" stroke="midnightblue" points="1179.34,-92.38 1189.85,-91.05 1180.81,-85.53 1179.34,-92.38"/>
</g>
<!-- Node12&#45;&gt;Node11 -->
<g id="edge18" class="edge">
<title>Node12&#45;&gt;Node11</title>
<path fill="none" stroke="midnightblue" d="M740.17,-81.79C731.06,-72.13 721.24,-61.71 712.66,-52.61"/>
<polygon fill="midnightblue" stroke="midnightblue" points="737.88,-84.46 747.28,-89.34 742.97,-79.66 737.88,-84.46"/>
</g>
<!-- Node13&#45;&gt;Node11 -->
<g id="edge20" class="edge">
<title>Node13&#45;&gt;Node11</title>
<path fill="none" stroke="midnightblue" d="M854.41,-86C823.86,-75.19 789.33,-62.98 759.75,-52.52"/>
<polygon fill="midnightblue" stroke="midnightblue" points="853.58,-89.42 864.18,-89.45 855.92,-82.82 853.58,-89.42"/>
</g>
<!-- Node14&#45;&gt;Node11 -->
<g id="edge22" class="edge">
<title>Node14&#45;&gt;Node11</title>
<path fill="none" stroke="midnightblue" d="M1015.99,-88.85C923.38,-66.24 826.69,-49.18 762.15,-38.72"/>
<polygon fill="midnightblue" stroke="midnightblue" points="1015.25,-92.28 1025.8,-91.27 1016.93,-85.48 1015.25,-92.28"/>
</g>
<!-- Node15&#45;&gt;Node10 -->
<g id="edge27" class="edge">
<title>Node15&#45;&gt;Node10</title>
<path fill="none" stroke="midnightblue" d="M772.39,-197.6C870.86,-189.6 1039.2,-172.66 1181,-142 1183.91,-141.37 1186.87,-140.68 1189.85,-139.95"/>
<polygon fill="midnightblue" stroke="midnightblue" points="771.89,-194.13 762.2,-198.42 772.45,-201.11 771.89,-194.13"/>
</g>
<!-- Node15&#45;&gt;Node11 -->
<g id="edge35" class="edge">
<title>Node15&#45;&gt;Node11</title>
<path fill="none" stroke="midnightblue" d="M605.39,-201.65C485.95,-196.05 288.3,-174.09 359,-89 390.98,-50.51 528.59,-35.98 615.69,-30.59"/>
<polygon fill="midnightblue" stroke="midnightblue" points="605.48,-205.16 615.63,-202.1 605.79,-198.16 605.48,-205.16"/>
</g>
<!-- Node15&#45;&gt;Node12 -->
<g id="edge28" class="edge">
<title>Node15&#45;&gt;Node12</title>
<path fill="none" stroke="midnightblue" d="M719.83,-170.79C728.94,-161.13 738.76,-150.71 747.34,-141.61"/>
<polygon fill="midnightblue" stroke="midnightblue" points="717.03,-168.66 712.72,-178.34 722.12,-173.46 717.03,-168.66"/>
</g>
<!-- Node15&#45;&gt;Node13 -->
<g id="edge29" class="edge">
<title>Node15&#45;&gt;Node13</title>
<path fill="none" stroke="midnightblue" d="M769.59,-175C800.14,-164.19 834.67,-151.98 864.25,-141.52"/>
<polygon fill="midnightblue" stroke="midnightblue" points="768.08,-171.82 759.82,-178.45 770.42,-178.42 768.08,-171.82"/>
</g>
<!-- Node15&#45;&gt;Node14 -->
<g id="edge34" class="edge">
<title>Node15&#45;&gt;Node14</title>
<path fill="none" stroke="midnightblue" d="M772.18,-190.65C838.83,-179.69 934.5,-162.49 1017,-142 1019.89,-141.28 1022.84,-140.52 1025.8,-139.73"/>
<polygon fill="midnightblue" stroke="midnightblue" points="771.46,-187.22 762.15,-192.28 772.59,-194.13 771.46,-187.22"/>
</g>
<!-- Node16 -->
<g id="node16" class="node">
<title>Node16</title>
<g id="a_node16"><a xlink:href="../../d6/dca/adapter_8hpp.html" target="_top" xlink:title=" ">
<polygon fill="white" stroke="black" points="368,-89.5 368,-141.5 514,-141.5 514,-89.5 368,-89.5"/>
<text text-anchor="start" x="376" y="-129.5" font-family="Helvetica,sans-Serif" font-size="10.00">/home/runner/work/Simple</text>
<text text-anchor="start" x="376" y="-118.5" font-family="Helvetica,sans-Serif" font-size="10.00">&#45;Utility/Simple&#45;Utility</text>
<text text-anchor="start" x="376" y="-107.5" font-family="Helvetica,sans-Serif" font-size="10.00">/include/Simple&#45;Utility</text>
<text text-anchor="middle" x="441" y="-96.5" font-family="Helvetica,sans-Serif" font-size="10.00">/nullables/adapter.hpp</text>
</a>
</g>
</g>
<!-- Node15&#45;&gt;Node16 -->
<g id="edge25" class="edge">
<title>Node15&#45;&gt;Node16</title>
<path fill="none" stroke="midnightblue" d="M608.15,-175.14C577.25,-164.3 542.27,-152.03 512.32,-141.52"/>
<polygon fill="midnightblue" stroke="midnightblue" points="607.01,-178.45 617.6,-178.45 609.32,-171.84 607.01,-178.45"/>
</g>
<!-- Node17 -->
<g id="node17" class="node">
<title>Node17</title>
<g id="a_node17"><a xlink:href="../../d9/d20/std__optional_8hpp.html" target="_top" xlink:title=" ">
<polygon fill="white" stroke="black" points="532,-89.5 532,-141.5 680,-141.5 680,-89.5 532,-89.5"/>
<text text-anchor="start" x="540" y="-129.5" font-family="Helvetica,sans-Serif" font-size="10.00">/home/runner/work/Simple</text>
<text text-anchor="start" x="540" y="-118.5" font-family="Helvetica,sans-Serif" font-size="10.00">&#45;Utility/Simple&#45;Utility</text>
<text text-anchor="start" x="540" y="-107.5" font-family="Helvetica,sans-Serif" font-size="10.00">/include/Simple&#45;Utility</text>
<text text-anchor="middle" x="606" y="-96.5" font-family="Helvetica,sans-Serif" font-size="10.00">/nullables/std_optional.hpp</text>
</a>
</g>
</g>
<!-- Node15&#45;&gt;Node17 -->
<g id="edge30" class="edge">
<title>Node15&#45;&gt;Node17</title>
<path fill="none" stroke="midnightblue" d="M658.07,-171.08C648.77,-161.34 638.72,-150.8 629.95,-141.61"/>
<polygon fill="midnightblue" stroke="midnightblue" points="655.56,-173.52 664.99,-178.34 660.62,-168.68 655.56,-173.52"/>
</g>
<!-- Node18 -->
<g id="node18" class="node">
<title>Node18</title>
<g id="a_node18"><a xlink:href="../../d8/d9a/std__pointers_8hpp.html" target="_top" xlink:title=" ">
<polygon fill="white" stroke="black" points="164,-89.5 164,-141.5 312,-141.5 312,-89.5 164,-89.5"/>
<text text-anchor="start" x="172" y="-129.5" font-family="Helvetica,sans-Serif" font-size="10.00">/home/runner/work/Simple</text>
<text text-anchor="start" x="172" y="-118.5" font-family="Helvetica,sans-Serif" font-size="10.00">&#45;Utility/Simple&#45;Utility</text>
<text text-anchor="start" x="172" y="-107.5" font-family="Helvetica,sans-Serif" font-size="10.00">/include/Simple&#45;Utility</text>
<text text-anchor="middle" x="238" y="-96.5" font-family="Helvetica,sans-Serif" font-size="10.00">/nullables/std_pointers.hpp</text>
</a>
</g>
</g>
<!-- Node15&#45;&gt;Node18 -->
<g id="edge32" class="edge">
<title>Node15&#45;&gt;Node18</title>
<path fill="none" stroke="midnightblue" d="M605.68,-192.15C531.76,-181.42 421.07,-163.75 326,-142 321.5,-140.97 316.9,-139.85 312.26,-138.67"/>
<polygon fill="midnightblue" stroke="midnightblue" points="605.46,-195.65 615.86,-193.61 606.46,-188.72 605.46,-195.65"/>
</g>
<!-- Node19 -->
<g id="node19" class="node">
<title>Node19</title>
<g id="a_node19"><a xlink:href="../../d0/d0f/unique__handle_8hpp.html" target="_top" xlink:title=" ">
<polygon fill="white" stroke="black" points="0,-89.5 0,-141.5 146,-141.5 146,-89.5 0,-89.5"/>
<text text-anchor="start" x="8" y="-129.5" font-family="Helvetica,sans-Serif" font-size="10.00">/home/runner/work/Simple</text>
<text text-anchor="start" x="8" y="-118.5" font-family="Helvetica,sans-Serif" font-size="10.00">&#45;Utility/Simple&#45;Utility</text>
<text text-anchor="start" x="8" y="-107.5" font-family="Helvetica,sans-Serif" font-size="10.00">/include/Simple&#45;Utility</text>
<text text-anchor="middle" x="73" y="-96.5" font-family="Helvetica,sans-Serif" font-size="10.00">/unique_handle.hpp</text>
</a>
</g>
</g>
<!-- Node15&#45;&gt;Node19 -->
<g id="edge36" class="edge">
<title>Node15&#45;&gt;Node19</title>
<path fill="none" stroke="midnightblue" d="M605.46,-198.72C499.69,-191.57 312.29,-175.21 155,-142 152.08,-141.38 149.12,-140.71 146.14,-139.99"/>
<polygon fill="midnightblue" stroke="midnightblue" points="605.54,-202.24 615.75,-199.41 606.01,-195.25 605.54,-202.24"/>
</g>
<!-- Node16&#45;&gt;Node11 -->
<g id="edge26" class="edge">
<title>Node16&#45;&gt;Node11</title>
<path fill="none" stroke="midnightblue" d="M521.85,-86.14C552.75,-75.3 587.73,-63.03 617.68,-52.52"/>
<polygon fill="midnightblue" stroke="midnightblue" points="520.68,-82.84 512.4,-89.45 522.99,-89.45 520.68,-82.84"/>
</g>
<!-- Node17&#45;&gt;Node11 -->
<g id="edge31" class="edge">
<title>Node17&#45;&gt;Node11</title>
<path fill="none" stroke="midnightblue" d="M636.93,-82.08C646.23,-72.34 656.28,-61.8 665.05,-52.61"/>
<polygon fill="midnightblue" stroke="midnightblue" points="634.38,-79.68 630.01,-89.34 639.44,-84.52 634.38,-79.68"/>
</g>
<!-- Node18&#45;&gt;Node11 -->
<g id="edge33" class="edge">
<title>Node18&#45;&gt;Node11</title>
<path fill="none" stroke="midnightblue" d="M322.18,-89.89C323.46,-89.59 324.74,-89.29 326,-89 425.54,-66.22 542.2,-47.93 615.86,-37.39"/>
<polygon fill="midnightblue" stroke="midnightblue" points="321.13,-86.54 312.26,-92.33 322.81,-93.34 321.13,-86.54"/>
</g>
<!-- Node20&#45;&gt;Node3 -->
<g id="edge41" class="edge">
<title>Node20&#45;&gt;Node3</title>
<path fill="none" stroke="midnightblue" d="M1979.36,-350.81C1967.6,-342.56 1957,-332.39 1950,-320 1938.42,-299.49 1942.68,-289.39 1950,-267 1954.32,-253.8 1962.66,-241.08 1971,-230.67"/>
<polygon fill="midnightblue" stroke="midnightblue" points="1977.81,-353.97 1988.1,-356.48 1981.62,-348.1 1977.81,-353.97"/>
</g>
<!-- Node20&#45;&gt;Node5 -->
<g id="edge43" class="edge">
<title>Node20&#45;&gt;Node5</title>
<path fill="none" stroke="midnightblue" d="M2123.94,-350.69C2135.59,-342.45 2146.08,-332.31 2153,-320 2185.09,-262.89 2178.96,-150.28 2119,-89 2089.63,-58.99 1979.39,-42.17 1904.15,-33.97"/>
<polygon fill="midnightblue" stroke="midnightblue" points="2121.73,-347.95 2115.28,-356.36 2125.57,-353.81 2121.73,-347.95"/>
</g>
<!-- Node20&#45;&gt;Node6 -->
<g id="edge42" class="edge">
<title>Node20&#45;&gt;Node6</title>
<path fill="none" stroke="midnightblue" d="M1970.68,-353.16C1873.37,-319.24 1711.95,-262.99 1618.98,-230.59"/>
<polygon fill="midnightblue" stroke="midnightblue" points="1969.59,-356.48 1980.18,-356.47 1971.89,-349.87 1969.59,-356.48"/>
</g>
<!-- Node21 -->
<g id="node21" class="node">
<title>Node21</title>
<g id="a_node21"><a xlink:href="../../d8/dea/negation_8hpp.html" target="_top" xlink:title=" ">
<polygon fill="white" stroke="black" points="1959.5,-267.5 1959.5,-319.5 2144.5,-319.5 2144.5,-267.5 1959.5,-267.5"/>
<text text-anchor="start" x="1967.5" y="-307.5" font-family="Helvetica,sans-Serif" font-size="10.00">/home/runner/work/Simple</text>
<text text-anchor="start" x="1967.5" y="-296.5" font-family="Helvetica,sans-Serif" font-size="10.00">&#45;Utility/Simple&#45;Utility</text>
<text text-anchor="start" x="1967.5" y="-285.5" font-family="Helvetica,sans-Serif" font-size="10.00">/include/Simple&#45;Utility</text>
<text text-anchor="middle" x="2052" y="-274.5" font-family="Helvetica,sans-Serif" font-size="10.00">/functional/operators/negation.hpp</text>
</a>
</g>
</g>
<!-- Node20&#45;&gt;Node21 -->
<g id="edge38" class="edge">
<title>Node20&#45;&gt;Node21</title>
<path fill="none" stroke="midnightblue" d="M2052,-346.19C2052,-337.28 2052,-327.9 2052,-319.61"/>
<polygon fill="midnightblue" stroke="midnightblue" points="2048.5,-346.34 2052,-356.34 2055.5,-346.34 2048.5,-346.34"/>
</g>
<!-- Node21&#45;&gt;Node3 -->
<g id="edge39" class="edge">
<title>Node21&#45;&gt;Node3</title>
<path fill="none" stroke="midnightblue" d="M2030,-258.93C2023.83,-249.51 2017.24,-239.44 2011.45,-230.61"/>
<polygon fill="midnightblue" stroke="midnightblue" points="2027.11,-260.89 2035.51,-267.34 2032.96,-257.05 2027.11,-260.89"/>
</g>
<!-- Node21&#45;&gt;Node5 -->
<g id="edge40" class="edge">
<title>Node21&#45;&gt;Node5</title>
<path fill="none" stroke="midnightblue" d="M2074.48,-258.76C2100.55,-214.98 2135.23,-138.38 2096,-89 2072.42,-59.32 1974.25,-42.69 1904.28,-34.4"/>
<polygon fill="midnightblue" stroke="midnightblue" points="2071.47,-256.96 2069.24,-267.32 2077.45,-260.62 2071.47,-256.96"/>
</g>
<!-- Node22&#45;&gt;Node23 -->
<g id="edge45" class="edge">
<title>Node22&#45;&gt;Node23</title>
<path fill="none" stroke="midnightblue" d="M2271.22,-346.19C2271.52,-337.28 2271.85,-327.9 2272.13,-319.61"/>
<polygon fill="midnightblue" stroke="midnightblue" points="2267.71,-346.22 2270.87,-356.34 2274.71,-346.46 2267.71,-346.22"/>
</g>
</g>
</svg>
