<?xml version="1.0" encoding="UTF-8" standalone="no"?>
<!DOCTYPE svg PUBLIC "-//W3C//DTD SVG 1.1//EN"
 "http://www.w3.org/Graphics/SVG/1.1/DTD/svg11.dtd">
<!-- Generated by graphviz version 7.0.5 (20221223.1930)
 -->
<!-- Title: Simple&#45;Utility/tuple/general.hpp Pages: 1 -->
<!--zoomable 357 -->
<svg id="main" version="1.1" xmlns="http://www.w3.org/2000/svg" xmlns:xlink="http://www.w3.org/1999/xlink" xml:space="preserve" onload="init(evt)">
<style type="text/css"><![CDATA[
.edge:hover path { stroke: red; }
.edge:hover polygon { stroke: red; fill: red; }
]]></style>
<script type="text/javascript"><![CDATA[
var edges = document.getElementsByTagName('g');
if (edges && edges.length) {
  for (var i=0;i<edges.length;i++) {
    if (edges[i].id.substr(0,4)=='edge') {
      edges[i].setAttribute('class','edge');
    }
  }
}
]]></script>
        <defs>
                <circle id="rim" cx="0" cy="0" r="7"/>
                <circle id="rim2" cx="0" cy="0" r="3.5"/>
                <g id="zoomPlus">
                        <use xlink:href="#rim" fill="#404040">
                                <set attributeName="fill" to="#808080" begin="zoomplus.mouseover" end="zoomplus.mouseout"/>
                        </use>
                        <path d="M-4,0h8M0,-4v8" fill="none" stroke="white" stroke-width="1.5" pointer-events="none"/>
                </g>
                <g id="zoomMin">
                        <use xlink:href="#rim" fill="#404040">
                                <set attributeName="fill" to="#808080" begin="zoomminus.mouseover" end="zoomminus.mouseout"/>
                        </use>
                        <path d="M-4,0h8" fill="none" stroke="white" stroke-width="1.5" pointer-events="none"/>
                </g>
                <g id="dirArrow">
                        <path fill="none" stroke="white" stroke-width="1.5" d="M0,-3.0v7 M-2.5,-0.5L0,-3.0L2.5,-0.5"/>
                </g>
               <g id="resetDef">
                       <use xlink:href="#rim2" fill="#404040">
                               <set attributeName="fill" to="#808080" begin="reset.mouseover" end="reset.mouseout"/>
                       </use>
               </g>
        </defs>

<script type="text/javascript">
var viewWidth = 2065;
var viewHeight = 357;
var sectionId = 'dynsection-1';
</script>
<script xlink:href="../../svgpan.js"/>
<svg id="graph" class="graph">
<g id="viewport">
<title>Simple&#45;Utility/tuple/general.hpp</title>
<!-- Node1 -->
<g id="node1" class="node">
<title>Node1</title>
<g id="a_node1"><a xlink:title=" ">
<polygon fill="#999999" stroke="#666666" points="1908.5,-349 1803.5,-349 1803.5,-319 1908.5,-319 1908.5,-349"/>
<text text-anchor="start" x="1811.5" y="-337" font-family="Helvetica,sans-Serif" font-size="10.00">Simple&#45;Utility/tuple</text>
<text text-anchor="middle" x="1856" y="-326" font-family="Helvetica,sans-Serif" font-size="10.00">/general.hpp</text>
</a>
</g>
</g>
<!-- Node2 -->
<g id="node2" class="node">
<title>Node2</title>
<g id="a_node2"><a xlink:href="../../d9/d76/bind_8hpp.html" target="_top" xlink:title=" ">
<polygon fill="white" stroke="#666666" points="1396,-217 1268,-217 1268,-187 1396,-187 1396,-217"/>
<text text-anchor="start" x="1276" y="-205" font-family="Helvetica,sans-Serif" font-size="10.00">Simple&#45;Utility/functional</text>
<text text-anchor="middle" x="1332" y="-194" font-family="Helvetica,sans-Serif" font-size="10.00">/operators/bind.hpp</text>
</a>
</g>
</g>
<!-- Node1&#45;&gt;Node2 -->
<g id="edge1" class="edge">
<title>Node1&#45;&gt;Node2</title>
<path fill="none" stroke="#63b8ff" d="M1792.23,-317.18C1689.57,-291.71 1489.15,-241.99 1390.17,-217.43"/>
<polygon fill="#63b8ff" stroke="#63b8ff" points="1791.34,-320.56 1801.89,-319.58 1793.03,-313.77 1791.34,-320.56"/>
</g>
<!-- Node20 -->
<g id="node20" class="node">
<title>Node20</title>
<g id="a_node20"><a xlink:href="../../d5/db7/pipe_8hpp.html" target="_top" xlink:title=" ">
<polygon fill="white" stroke="#666666" points="1874,-283 1746,-283 1746,-253 1874,-253 1874,-283"/>
<text text-anchor="start" x="1754" y="-271" font-family="Helvetica,sans-Serif" font-size="10.00">Simple&#45;Utility/functional</text>
<text text-anchor="middle" x="1810" y="-260" font-family="Helvetica,sans-Serif" font-size="10.00">/operators/pipe.hpp</text>
</a>
</g>
</g>
<!-- Node1&#45;&gt;Node20 -->
<g id="edge37" class="edge">
<title>Node1&#45;&gt;Node20</title>
<path fill="none" stroke="#63b8ff" d="M1839.24,-309.68C1832.85,-300.79 1825.77,-290.95 1820.18,-283.16"/>
<polygon fill="#63b8ff" stroke="#63b8ff" points="1836.23,-311.49 1844.91,-317.57 1841.91,-307.4 1836.23,-311.49"/>
</g>
<!-- Node22 -->
<g id="node22" class="node">
<title>Node22</title>
<g id="a_node22"><a xlink:href="../../d3/d6f/tuple_8hpp.html" target="_top" xlink:title=" ">
<polygon fill="white" stroke="#666666" points="2056.5,-211.5 1931.5,-211.5 1931.5,-192.5 2056.5,-192.5 2056.5,-211.5"/>
<text text-anchor="middle" x="1994" y="-199.5" font-family="Helvetica,sans-Serif" font-size="10.00">Simple&#45;Utility/tuple.hpp</text>
</a>
</g>
</g>
<!-- Node1&#45;&gt;Node22 -->
<g id="edge44" class="edge">
<title>Node1&#45;&gt;Node22</title>
<path fill="none" stroke="#63b8ff" d="M1875.27,-310.27C1889.7,-293.74 1910.26,-271.16 1930,-253 1947.02,-237.34 1968.5,-221.23 1981.74,-211.67"/>
<polygon fill="#63b8ff" stroke="#63b8ff" points="1872.81,-307.77 1868.92,-317.62 1878.1,-312.34 1872.81,-307.77"/>
</g>
<!-- Node23 -->
<g id="node23" class="node">
<title>Node23</title>
<g id="a_node23"><a xlink:href="../../de/d55/algorithm_8hpp.html" target="_top" xlink:title=" ">
<polygon fill="white" stroke="#666666" points="2043.5,-283 1938.5,-283 1938.5,-253 2043.5,-253 2043.5,-283"/>
<text text-anchor="start" x="1946.5" y="-271" font-family="Helvetica,sans-Serif" font-size="10.00">Simple&#45;Utility/tuple</text>
<text text-anchor="middle" x="1991" y="-260" font-family="Helvetica,sans-Serif" font-size="10.00">/algorithm.hpp</text>
</a>
</g>
</g>
<!-- Node1&#45;&gt;Node23 -->
<g id="edge45" class="edge">
<title>Node1&#45;&gt;Node23</title>
<path fill="none" stroke="#63b8ff" d="M1896.66,-313.72C1917.28,-303.95 1941.89,-292.28 1960.8,-283.31"/>
<polygon fill="#63b8ff" stroke="#63b8ff" points="1895.2,-310.54 1887.66,-317.99 1898.2,-316.87 1895.2,-310.54"/>
</g>
<!-- Node3 -->
<g id="node3" class="node">
<title>Node3</title>
<g id="a_node3"><a xlink:href="../../d2/db4/functional_8hpp.html" target="_top" xlink:title=" ">
<polygon fill="white" stroke="#666666" points="1663,-19 1515,-19 1515,0 1663,0 1663,-19"/>
<text text-anchor="middle" x="1589" y="-7" font-family="Helvetica,sans-Serif" font-size="10.00">Simple&#45;Utility/functional.hpp</text>
</a>
</g>
</g>
<!-- Node2&#45;&gt;Node3 -->
<g id="edge2" class="edge">
<title>Node2&#45;&gt;Node3</title>
<path fill="none" stroke="#63b8ff" d="M1287.67,-181.8C1230.57,-154.51 1143.45,-102.51 1186,-55 1207.49,-31.01 1404.19,-18.58 1514.62,-13.44"/>
<polygon fill="#63b8ff" stroke="#63b8ff" points="1286.03,-184.9 1296.57,-185.96 1289,-178.56 1286.03,-184.9"/>
</g>
<!-- Node4 -->
<g id="node4" class="node">
<title>Node4</title>
<g id="a_node4"><a xlink:href="../../d2/d7e/predicate_8hpp.html" target="_top" xlink:title=" ">
<polygon fill="white" stroke="#666666" points="1799,-151 1671,-151 1671,-121 1799,-121 1799,-151"/>
<text text-anchor="start" x="1679" y="-139" font-family="Helvetica,sans-Serif" font-size="10.00">Simple&#45;Utility/functional</text>
<text text-anchor="middle" x="1735" y="-128" font-family="Helvetica,sans-Serif" font-size="10.00">/predicate.hpp</text>
</a>
</g>
</g>
<!-- Node2&#45;&gt;Node4 -->
<g id="edge3" class="edge">
<title>Node2&#45;&gt;Node4</title>
<path fill="none" stroke="#63b8ff" d="M1407.66,-188.98C1483.5,-176.94 1599,-158.6 1670.59,-147.23"/>
<polygon fill="#63b8ff" stroke="#63b8ff" points="1407.12,-185.53 1397.8,-190.55 1408.22,-192.44 1407.12,-185.53"/>
</g>
<!-- Node6 -->
<g id="node6" class="node">
<title>Node6</title>
<g id="a_node6"><a xlink:href="../../d6/deb/transform_8hpp.html" target="_top" xlink:title=" ">
<polygon fill="white" stroke="#666666" points="1396,-151 1268,-151 1268,-121 1396,-121 1396,-151"/>
<text text-anchor="start" x="1276" y="-139" font-family="Helvetica,sans-Serif" font-size="10.00">Simple&#45;Utility/functional</text>
<text text-anchor="middle" x="1332" y="-128" font-family="Helvetica,sans-Serif" font-size="10.00">/transform.hpp</text>
</a>
</g>
</g>
<!-- Node2&#45;&gt;Node6 -->
<g id="edge7" class="edge">
<title>Node2&#45;&gt;Node6</title>
<path fill="none" stroke="#63b8ff" d="M1332,-175.39C1332,-167.13 1332,-158.28 1332,-151.16"/>
<polygon fill="#63b8ff" stroke="#63b8ff" points="1328.5,-175.28 1332,-185.28 1335.5,-175.28 1328.5,-175.28"/>
</g>
<!-- Node15 -->
<g id="node15" class="node">
<title>Node15</title>
<g id="a_node15"><a xlink:href="../../d6/dbe/nullables_2base_8hpp.html" target="_top" xlink:title=" ">
<polygon fill="white" stroke="#666666" points="645.5,-151 522.5,-151 522.5,-121 645.5,-121 645.5,-151"/>
<text text-anchor="start" x="530.5" y="-139" font-family="Helvetica,sans-Serif" font-size="10.00">Simple&#45;Utility/nullables</text>
<text text-anchor="middle" x="584" y="-128" font-family="Helvetica,sans-Serif" font-size="10.00">/base.hpp</text>
</a>
</g>
</g>
<!-- Node2&#45;&gt;Node15 -->
<g id="edge24" class="edge">
<title>Node2&#45;&gt;Node15</title>
<path fill="none" stroke="#63b8ff" d="M1256.37,-194.53C1108.19,-181.85 782.25,-153.96 645.9,-142.3"/>
<polygon fill="#63b8ff" stroke="#63b8ff" points="1255.81,-197.99 1266.07,-195.36 1256.41,-191.02 1255.81,-197.99"/>
</g>
<!-- Node4&#45;&gt;Node3 -->
<g id="edge4" class="edge">
<title>Node4&#45;&gt;Node3</title>
<path fill="none" stroke="#63b8ff" d="M1774.01,-114.82C1799.55,-98.97 1825.25,-76.11 1808,-55 1789.83,-32.77 1719.47,-21.37 1663.34,-15.71"/>
<polygon fill="#63b8ff" stroke="#63b8ff" points="1772.46,-111.67 1765.63,-119.77 1776.02,-117.7 1772.46,-111.67"/>
</g>
<!-- Node5 -->
<g id="node5" class="node">
<title>Node5</title>
<g id="a_node5"><a xlink:href="../../dd/d3f/compare_8hpp.html" target="_top" xlink:title=" ">
<polygon fill="white" stroke="#666666" points="1799,-85 1671,-85 1671,-55 1799,-55 1799,-85"/>
<text text-anchor="start" x="1679" y="-73" font-family="Helvetica,sans-Serif" font-size="10.00">Simple&#45;Utility/functional</text>
<text text-anchor="middle" x="1735" y="-62" font-family="Helvetica,sans-Serif" font-size="10.00">/compare.hpp</text>
</a>
</g>
</g>
<!-- Node4&#45;&gt;Node5 -->
<g id="edge5" class="edge">
<title>Node4&#45;&gt;Node5</title>
<path fill="none" stroke="#63b8ff" d="M1735,-109.39C1735,-101.13 1735,-92.28 1735,-85.16"/>
<polygon fill="#63b8ff" stroke="#63b8ff" points="1731.5,-109.28 1735,-119.28 1738.5,-109.28 1731.5,-109.28"/>
</g>
<!-- Node5&#45;&gt;Node3 -->
<g id="edge6" class="edge">
<title>Node5&#45;&gt;Node3</title>
<path fill="none" stroke="#63b8ff" d="M1688.53,-50.38C1662.61,-40 1631.53,-27.54 1611.08,-19.35"/>
<polygon fill="#63b8ff" stroke="#63b8ff" points="1686.92,-53.51 1697.51,-53.98 1689.52,-47.01 1686.92,-53.51"/>
</g>
<!-- Node6&#45;&gt;Node3 -->
<g id="edge8" class="edge">
<title>Node6&#45;&gt;Node3</title>
<path fill="none" stroke="#63b8ff" d="M1399,-117.29C1424.54,-109.21 1453.4,-98.41 1478,-85 1496.89,-74.7 1498.34,-67.29 1516,-55 1535.13,-41.69 1558.25,-27.97 1573.27,-19.35"/>
<polygon fill="#63b8ff" stroke="#63b8ff" points="1398.26,-113.85 1389.73,-120.14 1400.32,-120.54 1398.26,-113.85"/>
</g>
<!-- Node6&#45;&gt;Node5 -->
<g id="edge11" class="edge">
<title>Node6&#45;&gt;Node5</title>
<path fill="none" stroke="#63b8ff" d="M1407.59,-124.41C1474.56,-114.81 1574.94,-99.94 1662,-85 1664.8,-84.52 1667.65,-84.02 1670.54,-83.5"/>
<polygon fill="#63b8ff" stroke="#63b8ff" points="1407.21,-120.92 1397.81,-125.8 1408.2,-127.85 1407.21,-120.92"/>
</g>
<!-- Node7 -->
<g id="node7" class="node">
<title>Node7</title>
<g id="a_node7"><a xlink:href="../../d3/d23/arithmetic_8hpp.html" target="_top" xlink:title=" ">
<polygon fill="white" stroke="#666666" points="1653,-85 1525,-85 1525,-55 1653,-55 1653,-85"/>
<text text-anchor="start" x="1533" y="-73" font-family="Helvetica,sans-Serif" font-size="10.00">Simple&#45;Utility/functional</text>
<text text-anchor="middle" x="1589" y="-62" font-family="Helvetica,sans-Serif" font-size="10.00">/arithmetic.hpp</text>
</a>
</g>
</g>
<!-- Node6&#45;&gt;Node7 -->
<g id="edge9" class="edge">
<title>Node6&#45;&gt;Node7</title>
<path fill="none" stroke="#63b8ff" d="M1400.92,-117.84C1441.64,-107.7 1492.61,-95 1531.21,-85.39"/>
<polygon fill="#63b8ff" stroke="#63b8ff" points="1400.32,-114.38 1391.46,-120.19 1402.01,-121.17 1400.32,-114.38"/>
</g>
<!-- Node8 -->
<g id="node8" class="node">
<title>Node8</title>
<g id="a_node8"><a xlink:href="../../d9/d5f/functional_2tuple_8hpp.html" target="_top" xlink:title=" ">
<polygon fill="white" stroke="#666666" points="1323,-85 1195,-85 1195,-55 1323,-55 1323,-85"/>
<text text-anchor="start" x="1203" y="-73" font-family="Helvetica,sans-Serif" font-size="10.00">Simple&#45;Utility/functional</text>
<text text-anchor="middle" x="1259" y="-62" font-family="Helvetica,sans-Serif" font-size="10.00">/tuple.hpp</text>
</a>
</g>
</g>
<!-- Node6&#45;&gt;Node8 -->
<g id="edge12" class="edge">
<title>Node6&#45;&gt;Node8</title>
<path fill="none" stroke="#63b8ff" d="M1307.39,-113.42C1296.85,-104.18 1284.83,-93.65 1275.41,-85.39"/>
<polygon fill="#63b8ff" stroke="#63b8ff" points="1304.83,-115.84 1314.66,-119.8 1309.45,-110.57 1304.83,-115.84"/>
</g>
<!-- Node9 -->
<g id="node9" class="node">
<title>Node9</title>
<g id="a_node9"><a xlink:href="../../df/d4e/functional_2utility_8hpp.html" target="_top" xlink:title=" ">
<polygon fill="white" stroke="#666666" points="1469,-85 1341,-85 1341,-55 1469,-55 1469,-85"/>
<text text-anchor="start" x="1349" y="-73" font-family="Helvetica,sans-Serif" font-size="10.00">Simple&#45;Utility/functional</text>
<text text-anchor="middle" x="1405" y="-62" font-family="Helvetica,sans-Serif" font-size="10.00">/utility.hpp</text>
</a>
</g>
</g>
<!-- Node6&#45;&gt;Node9 -->
<g id="edge14" class="edge">
<title>Node6&#45;&gt;Node9</title>
<path fill="none" stroke="#63b8ff" d="M1356.61,-113.42C1367.15,-104.18 1379.17,-93.65 1388.59,-85.39"/>
<polygon fill="#63b8ff" stroke="#63b8ff" points="1354.55,-110.57 1349.34,-119.8 1359.17,-115.84 1354.55,-110.57"/>
</g>
<!-- Node10 -->
<g id="node10" class="node">
<title>Node10</title>
<g id="a_node10"><a xlink:href="../../d4/dc9/and__then_8hpp.html" target="_top" xlink:title=" ">
<polygon fill="white" stroke="#666666" points="1138.5,-85 1015.5,-85 1015.5,-55 1138.5,-55 1138.5,-85"/>
<text text-anchor="start" x="1023.5" y="-73" font-family="Helvetica,sans-Serif" font-size="10.00">Simple&#45;Utility/nullables</text>
<text text-anchor="middle" x="1077" y="-62" font-family="Helvetica,sans-Serif" font-size="10.00">/and_then.hpp</text>
</a>
</g>
</g>
<!-- Node6&#45;&gt;Node10 -->
<g id="edge16" class="edge">
<title>Node6&#45;&gt;Node10</title>
<path fill="none" stroke="#63b8ff" d="M1263.36,-117.77C1223,-107.64 1172.56,-94.98 1134.34,-85.39"/>
<polygon fill="#63b8ff" stroke="#63b8ff" points="1262.44,-121.15 1272.99,-120.19 1264.14,-114.36 1262.44,-121.15"/>
</g>
<!-- Node12 -->
<g id="node12" class="node">
<title>Node12</title>
<g id="a_node12"><a xlink:href="../../d7/d5f/fwd__value_8hpp.html" target="_top" xlink:title=" ">
<polygon fill="white" stroke="#666666" points="715.5,-85 592.5,-85 592.5,-55 715.5,-55 715.5,-85"/>
<text text-anchor="start" x="600.5" y="-73" font-family="Helvetica,sans-Serif" font-size="10.00">Simple&#45;Utility/nullables</text>
<text text-anchor="middle" x="654" y="-62" font-family="Helvetica,sans-Serif" font-size="10.00">/fwd_value.hpp</text>
</a>
</g>
</g>
<!-- Node6&#45;&gt;Node12 -->
<g id="edge18" class="edge">
<title>Node6&#45;&gt;Node12</title>
<path fill="none" stroke="#63b8ff" d="M1256.35,-131.59C1141.05,-125.75 914.63,-111.81 724,-85 721.3,-84.62 718.55,-84.2 715.77,-83.76"/>
<polygon fill="#63b8ff" stroke="#63b8ff" points="1256.16,-135.08 1266.32,-132.08 1256.51,-128.09 1256.16,-135.08"/>
</g>
<!-- Node13 -->
<g id="node13" class="node">
<title>Node13</title>
<g id="a_node13"><a xlink:href="../../d2/d0e/or__else_8hpp.html" target="_top" xlink:title=" ">
<polygon fill="white" stroke="#666666" points="856.5,-85 733.5,-85 733.5,-55 856.5,-55 856.5,-85"/>
<text text-anchor="start" x="741.5" y="-73" font-family="Helvetica,sans-Serif" font-size="10.00">Simple&#45;Utility/nullables</text>
<text text-anchor="middle" x="795" y="-62" font-family="Helvetica,sans-Serif" font-size="10.00">/or_else.hpp</text>
</a>
</g>
</g>
<!-- Node6&#45;&gt;Node13 -->
<g id="edge20" class="edge">
<title>Node6&#45;&gt;Node13</title>
<path fill="none" stroke="#63b8ff" d="M1256.33,-129.02C1163.74,-121.22 1002.34,-106.04 865,-85 862.3,-84.59 859.56,-84.14 856.78,-83.67"/>
<polygon fill="#63b8ff" stroke="#63b8ff" points="1255.79,-132.49 1266.04,-129.84 1256.37,-125.52 1255.79,-132.49"/>
</g>
<!-- Node14 -->
<g id="node14" class="node">
<title>Node14</title>
<g id="a_node14"><a xlink:href="../../d0/d48/value__or_8hpp.html" target="_top" xlink:title=" ">
<polygon fill="white" stroke="#666666" points="997.5,-85 874.5,-85 874.5,-55 997.5,-55 997.5,-85"/>
<text text-anchor="start" x="882.5" y="-73" font-family="Helvetica,sans-Serif" font-size="10.00">Simple&#45;Utility/nullables</text>
<text text-anchor="middle" x="936" y="-62" font-family="Helvetica,sans-Serif" font-size="10.00">/value_or.hpp</text>
</a>
</g>
</g>
<!-- Node6&#45;&gt;Node14 -->
<g id="edge22" class="edge">
<title>Node6&#45;&gt;Node14</title>
<path fill="none" stroke="#63b8ff" d="M1256.38,-124.39C1190.2,-114.87 1091.55,-100.11 1006,-85 1003.31,-84.53 1000.57,-84.03 997.81,-83.52"/>
<polygon fill="#63b8ff" stroke="#63b8ff" points="1255.64,-127.82 1266.03,-125.77 1256.63,-120.89 1255.64,-127.82"/>
</g>
<!-- Node7&#45;&gt;Node3 -->
<g id="edge10" class="edge">
<title>Node7&#45;&gt;Node3</title>
<path fill="none" stroke="#63b8ff" d="M1589,-43.3C1589,-34.65 1589,-25.58 1589,-19.18"/>
<polygon fill="#63b8ff" stroke="#63b8ff" points="1585.5,-43.03 1589,-53.03 1592.5,-43.03 1585.5,-43.03"/>
</g>
<!-- Node8&#45;&gt;Node3 -->
<g id="edge13" class="edge">
<title>Node8&#45;&gt;Node3</title>
<path fill="none" stroke="#63b8ff" d="M1334.58,-54.55C1409.95,-40.86 1486.22,-27.81 1535.79,-19.43"/>
<polygon fill="#63b8ff" stroke="#63b8ff" points="1334.18,-51.06 1324.96,-56.3 1335.43,-57.95 1334.18,-51.06"/>
</g>
<!-- Node9&#45;&gt;Node3 -->
<g id="edge15" class="edge">
<title>Node9&#45;&gt;Node3</title>
<path fill="none" stroke="#63b8ff" d="M1461.36,-51.08C1494.34,-40.6 1534.54,-27.81 1560.91,-19.43"/>
<polygon fill="#63b8ff" stroke="#63b8ff" points="1460.4,-47.72 1451.93,-54.08 1462.52,-54.39 1460.4,-47.72"/>
</g>
<!-- Node11 -->
<g id="node11" class="node">
<title>Node11</title>
<g id="a_node11"><a xlink:href="../../d3/ddc/nullables_8hpp.html" target="_top" xlink:title=" ">
<polygon fill="white" stroke="#666666" points="655.5,-19 512.5,-19 512.5,0 655.5,0 655.5,-19"/>
<text text-anchor="middle" x="584" y="-7" font-family="Helvetica,sans-Serif" font-size="10.00">Simple&#45;Utility/nullables.hpp</text>
</a>
</g>
</g>
<!-- Node10&#45;&gt;Node11 -->
<g id="edge17" class="edge">
<title>Node10&#45;&gt;Node11</title>
<path fill="none" stroke="#63b8ff" d="M1003.9,-54.78C875.54,-35.77 737.74,-22.93 655.93,-16.11"/>
<polygon fill="#63b8ff" stroke="#63b8ff" points="1003.2,-58.21 1013.6,-56.23 1004.23,-51.29 1003.2,-58.21"/>
</g>
<!-- Node12&#45;&gt;Node11 -->
<g id="edge19" class="edge">
<title>Node12&#45;&gt;Node11</title>
<path fill="none" stroke="#63b8ff" d="M628.13,-47.38C616.43,-37.6 603.26,-26.6 594.38,-19.18"/>
<polygon fill="#63b8ff" stroke="#63b8ff" points="625.62,-49.84 635.54,-53.57 630.11,-44.47 625.62,-49.84"/>
</g>
<!-- Node13&#45;&gt;Node11 -->
<g id="edge21" class="edge">
<title>Node13&#45;&gt;Node11</title>
<path fill="none" stroke="#63b8ff" d="M731.85,-51.49C693.76,-40.93 646.85,-27.92 616.22,-19.43"/>
<polygon fill="#63b8ff" stroke="#63b8ff" points="730.81,-54.84 741.38,-54.13 732.68,-48.09 730.81,-54.84"/>
</g>
<!-- Node14&#45;&gt;Node11 -->
<g id="edge23" class="edge">
<title>Node14&#45;&gt;Node11</title>
<path fill="none" stroke="#63b8ff" d="M863.14,-54.71C781.92,-40.41 699.5,-27.66 644.95,-19.48"/>
<polygon fill="#63b8ff" stroke="#63b8ff" points="862.12,-58.08 872.58,-56.38 863.34,-51.19 862.12,-58.08"/>
</g>
<!-- Node15&#45;&gt;Node10 -->
<g id="edge28" class="edge">
<title>Node15&#45;&gt;Node10</title>
<path fill="none" stroke="#63b8ff" d="M656.95,-128.07C741.27,-119.67 884.07,-104.22 1006,-85 1008.98,-84.53 1012.02,-84.03 1015.09,-83.5"/>
<polygon fill="#63b8ff" stroke="#63b8ff" points="656.82,-124.57 647.21,-129.04 657.51,-131.54 656.82,-124.57"/>
</g>
<!-- Node15&#45;&gt;Node11 -->
<g id="edge25" class="edge">
<title>Node15&#45;&gt;Node11</title>
<path fill="none" stroke="#63b8ff" d="M510.91,-132.42C436.14,-128.06 327.3,-116.36 301,-85 292.43,-74.78 292.34,-65.13 301,-55 327.67,-23.81 437.52,-14.34 512.25,-11.55"/>
<polygon fill="#63b8ff" stroke="#63b8ff" points="510.46,-135.9 520.63,-132.95 510.84,-128.91 510.46,-135.9"/>
</g>
<!-- Node15&#45;&gt;Node12 -->
<g id="edge29" class="edge">
<title>Node15&#45;&gt;Node12</title>
<path fill="none" stroke="#63b8ff" d="M607.97,-113.09C618.07,-103.85 629.54,-93.36 638.51,-85.16"/>
<polygon fill="#63b8ff" stroke="#63b8ff" points="605.67,-110.44 600.65,-119.78 610.39,-115.61 605.67,-110.44"/>
</g>
<!-- Node15&#45;&gt;Node13 -->
<g id="edge30" class="edge">
<title>Node15&#45;&gt;Node13</title>
<path fill="none" stroke="#63b8ff" d="M642.52,-117.25C675.62,-107.21 716.47,-94.82 747.56,-85.39"/>
<polygon fill="#63b8ff" stroke="#63b8ff" points="641.62,-113.87 633.06,-120.12 643.65,-120.56 641.62,-113.87"/>
</g>
<!-- Node15&#45;&gt;Node14 -->
<g id="edge35" class="edge">
<title>Node15&#45;&gt;Node14</title>
<path fill="none" stroke="#63b8ff" d="M656.75,-122.44C713.52,-112.54 794.34,-98.25 865,-85 867.96,-84.44 871,-83.87 874.06,-83.28"/>
<polygon fill="#63b8ff" stroke="#63b8ff" points="656.47,-118.93 647.22,-124.1 657.67,-125.83 656.47,-118.93"/>
</g>
<!-- Node16 -->
<g id="node16" class="node">
<title>Node16</title>
<g id="a_node16"><a xlink:href="../../d6/dca/adapter_8hpp.html" target="_top" xlink:title=" ">
<polygon fill="white" stroke="#666666" points="433.5,-85 310.5,-85 310.5,-55 433.5,-55 433.5,-85"/>
<text text-anchor="start" x="318.5" y="-73" font-family="Helvetica,sans-Serif" font-size="10.00">Simple&#45;Utility/nullables</text>
<text text-anchor="middle" x="372" y="-62" font-family="Helvetica,sans-Serif" font-size="10.00">/adapter.hpp</text>
</a>
</g>
</g>
<!-- Node15&#45;&gt;Node16 -->
<g id="edge26" class="edge">
<title>Node15&#45;&gt;Node16</title>
<path fill="none" stroke="#63b8ff" d="M525.2,-117.25C491.95,-107.21 450.9,-94.82 419.67,-85.39"/>
<polygon fill="#63b8ff" stroke="#63b8ff" points="524.12,-120.58 534.71,-120.12 526.15,-113.88 524.12,-120.58"/>
</g>
<!-- Node17 -->
<g id="node17" class="node">
<title>Node17</title>
<g id="a_node17"><a xlink:href="../../d9/d20/std__optional_8hpp.html" target="_top" xlink:title=" ">
<polygon fill="white" stroke="#666666" points="574.5,-85 451.5,-85 451.5,-55 574.5,-55 574.5,-85"/>
<text text-anchor="start" x="459.5" y="-73" font-family="Helvetica,sans-Serif" font-size="10.00">Simple&#45;Utility/nullables</text>
<text text-anchor="middle" x="513" y="-62" font-family="Helvetica,sans-Serif" font-size="10.00">/std_optional.hpp</text>
</a>
</g>
</g>
<!-- Node15&#45;&gt;Node17 -->
<g id="edge31" class="edge">
<title>Node15&#45;&gt;Node17</title>
<path fill="none" stroke="#63b8ff" d="M559.69,-113.09C549.44,-103.85 537.81,-93.36 528.71,-85.16"/>
<polygon fill="#63b8ff" stroke="#63b8ff" points="557.35,-115.69 567.12,-119.78 562.03,-110.49 557.35,-115.69"/>
</g>
<!-- Node18 -->
<g id="node18" class="node">
<title>Node18</title>
<g id="a_node18"><a xlink:href="../../d8/d9a/std__pointers_8hpp.html" target="_top" xlink:title=" ">
<polygon fill="white" stroke="#666666" points="253.5,-85 130.5,-85 130.5,-55 253.5,-55 253.5,-85"/>
<text text-anchor="start" x="138.5" y="-73" font-family="Helvetica,sans-Serif" font-size="10.00">Simple&#45;Utility/nullables</text>
<text text-anchor="middle" x="192" y="-62" font-family="Helvetica,sans-Serif" font-size="10.00">/std_pointers.hpp</text>
</a>
</g>
</g>
<!-- Node15&#45;&gt;Node18 -->
<g id="edge33" class="edge">
<title>Node15&#45;&gt;Node18</title>
<path fill="none" stroke="#63b8ff" d="M510.97,-123.98C446.86,-114.18 351.15,-99.23 268,-85 263.37,-84.21 258.59,-83.37 253.78,-82.51"/>
<polygon fill="#63b8ff" stroke="#63b8ff" points="510.25,-127.41 520.67,-125.46 511.31,-120.49 510.25,-127.41"/>
</g>
<!-- Node19 -->
<g id="node19" class="node">
<title>Node19</title>
<g id="a_node19"><a xlink:href="../../d0/d0f/unique__handle_8hpp.html" target="_top" xlink:title=" ">
<polygon fill="white" stroke="#666666" points="112,-85 0,-85 0,-55 112,-55 112,-85"/>
<text text-anchor="start" x="8" y="-73" font-family="Helvetica,sans-Serif" font-size="10.00">Simple&#45;Utility/unique</text>
<text text-anchor="middle" x="56" y="-62" font-family="Helvetica,sans-Serif" font-size="10.00">_handle.hpp</text>
</a>
</g>
</g>
<!-- Node15&#45;&gt;Node19 -->
<g id="edge36" class="edge">
<title>Node15&#45;&gt;Node19</title>
<path fill="none" stroke="#63b8ff" d="M510.96,-129.49C419.46,-122.04 258.01,-107.09 121,-85 118.15,-84.54 115.24,-84.04 112.3,-83.5"/>
<polygon fill="#63b8ff" stroke="#63b8ff" points="510.56,-132.97 520.8,-130.28 511.12,-125.99 510.56,-132.97"/>
</g>
<!-- Node16&#45;&gt;Node11 -->
<g id="edge27" class="edge">
<title>Node16&#45;&gt;Node11</title>
<path fill="none" stroke="#63b8ff" d="M435.45,-51.49C473.72,-40.93 520.86,-27.92 551.63,-19.43"/>
<polygon fill="#63b8ff" stroke="#63b8ff" points="434.57,-48.1 425.86,-54.14 436.43,-54.85 434.57,-48.1"/>
</g>
<!-- Node17&#45;&gt;Node11 -->
<g id="edge32" class="edge">
<title>Node17&#45;&gt;Node11</title>
<path fill="none" stroke="#63b8ff" d="M539.24,-47.38C551.11,-37.6 564.46,-26.6 573.47,-19.18"/>
<polygon fill="#63b8ff" stroke="#63b8ff" points="537.21,-44.52 531.72,-53.58 541.66,-49.92 537.21,-44.52"/>
</g>
<!-- Node18&#45;&gt;Node11 -->
<g id="edge34" class="edge">
<title>Node18&#45;&gt;Node11</title>
<path fill="none" stroke="#63b8ff" d="M264.94,-55.5C265.96,-55.33 266.99,-55.16 268,-55 352.49,-41.28 450.09,-27.91 514.21,-19.47"/>
<polygon fill="#63b8ff" stroke="#63b8ff" points="264.53,-52.02 255.26,-57.14 265.7,-58.92 264.53,-52.02"/>
</g>
<!-- Node20&#45;&gt;Node3 -->
<g id="edge38" class="edge">
<title>Node20&#45;&gt;Node3</title>
<path fill="none" stroke="#63b8ff" d="M1853.9,-246.78C1865.46,-239.18 1876.51,-229.31 1883,-217 1908.02,-169.53 1907.41,-110.45 1846,-55 1819.7,-31.25 1729.51,-19.91 1663.37,-14.68"/>
<polygon fill="#63b8ff" stroke="#63b8ff" points="1852.23,-243.7 1845.46,-251.86 1855.83,-249.7 1852.23,-243.7"/>
</g>
<!-- Node20&#45;&gt;Node4 -->
<g id="edge42" class="edge">
<title>Node20&#45;&gt;Node4</title>
<path fill="none" stroke="#63b8ff" d="M1765.6,-246.85C1753.89,-239.25 1742.67,-229.37 1736,-217 1724.86,-196.34 1727.99,-168.09 1731.41,-151.28"/>
<polygon fill="#63b8ff" stroke="#63b8ff" points="1763.78,-249.83 1774.17,-251.93 1767.35,-243.81 1763.78,-249.83"/>
</g>
<!-- Node20&#45;&gt;Node6 -->
<g id="edge43" class="edge">
<title>Node20&#45;&gt;Node6</title>
<path fill="none" stroke="#63b8ff" d="M1746.11,-249.63C1650.97,-223.75 1473.76,-175.55 1385.22,-151.47"/>
<polygon fill="#63b8ff" stroke="#63b8ff" points="1744.99,-252.95 1755.56,-252.19 1746.83,-246.19 1744.99,-252.95"/>
</g>
<!-- Node21 -->
<g id="node21" class="node">
<title>Node21</title>
<g id="a_node21"><a xlink:href="../../d8/dea/negation_8hpp.html" target="_top" xlink:title=" ">
<polygon fill="white" stroke="#666666" points="1874.5,-217 1745.5,-217 1745.5,-187 1874.5,-187 1874.5,-217"/>
<text text-anchor="start" x="1753.5" y="-205" font-family="Helvetica,sans-Serif" font-size="10.00">Simple&#45;Utility/functional</text>
<text text-anchor="middle" x="1810" y="-194" font-family="Helvetica,sans-Serif" font-size="10.00">/operators/negation.hpp</text>
</a>
</g>
</g>
<!-- Node20&#45;&gt;Node21 -->
<g id="edge39" class="edge">
<title>Node20&#45;&gt;Node21</title>
<path fill="none" stroke="#63b8ff" d="M1810,-241.39C1810,-233.13 1810,-224.28 1810,-217.16"/>
<polygon fill="#63b8ff" stroke="#63b8ff" points="1806.5,-241.28 1810,-251.28 1813.5,-241.28 1806.5,-241.28"/>
</g>
<!-- Node21&#45;&gt;Node3 -->
<g id="edge40" class="edge">
<title>Node21&#45;&gt;Node3</title>
<path fill="none" stroke="#63b8ff" d="M1822.24,-176.4C1836.11,-144.59 1853.37,-89.22 1825,-55 1804.68,-30.49 1724.58,-19.38 1663.28,-14.41"/>
<polygon fill="#63b8ff" stroke="#63b8ff" points="1819.18,-174.67 1818.18,-185.22 1825.54,-177.6 1819.18,-174.67"/>
</g>
<!-- Node21&#45;&gt;Node4 -->
<g id="edge41" class="edge">
<title>Node21&#45;&gt;Node4</title>
<path fill="none" stroke="#63b8ff" d="M1784.71,-179.42C1773.89,-170.18 1761.54,-159.65 1751.86,-151.39"/>
<polygon fill="#63b8ff" stroke="#63b8ff" points="1782.32,-181.99 1792.2,-185.81 1786.87,-176.66 1782.32,-181.99"/>
</g>
<!-- Node23&#45;&gt;Node22 -->
<g id="edge46" class="edge">
<title>Node23&#45;&gt;Node22</title>
<path fill="none" stroke="#63b8ff" d="M1992.19,-241.59C1992.68,-231.06 1993.23,-219.53 1993.59,-211.84"/>
<polygon fill="#63b8ff" stroke="#63b8ff" points="1988.71,-241.13 1991.74,-251.28 1995.7,-241.46 1988.71,-241.13"/>
</g>
</g>
</svg>
        <g id="navigator" transform="translate(0 0)" fill="#404254">
                <rect fill="#f2f5e9" fill-opacity="0.5" stroke="#606060" stroke-width=".5" x="0" y="0" width="60" height="60"/>
                <use id="zoomplus" xlink:href="#zoomPlus" x="17" y="9" onmousedown="handleZoom(evt,'in')"/>
                <use id="zoomminus" xlink:href="#zoomMin" x="42" y="9" onmousedown="handleZoom(evt,'out')"/>
                <use id="reset" xlink:href="#resetDef" x="30" y="36" onmousedown="handleReset()"/>
                <g id="arrowUp" xlink:href="#dirArrow" transform="translate(30 24)" onmousedown="handlePan(0,-1)">
                  <use xlink:href="#rim" fill="#404040">
                        <set attributeName="fill" to="#808080" begin="arrowUp.mouseover" end="arrowUp.mouseout"/>
                  </use>
                  <path fill="none" stroke="white" stroke-width="1.5" d="M0,-3.0v7 M-2.5,-0.5L0,-3.0L2.5,-0.5"/>
                </g>
                <g id="arrowRight" xlink:href="#dirArrow" transform="rotate(90) translate(36 -43)" onmousedown="handlePan(1,0)">
                  <use xlink:href="#rim" fill="#404040">
                        <set attributeName="fill" to="#808080" begin="arrowRight.mouseover" end="arrowRight.mouseout"/>
                  </use>
                  <path fill="none" stroke="white" stroke-width="1.5" d="M0,-3.0v7 M-2.5,-0.5L0,-3.0L2.5,-0.5"/>
                </g>
                <g id="arrowDown" xlink:href="#dirArrow" transform="rotate(180) translate(-30 -48)" onmousedown="handlePan(0,1)">
                  <use xlink:href="#rim" fill="#404040">
                        <set attributeName="fill" to="#808080" begin="arrowDown.mouseover" end="arrowDown.mouseout"/>
                  </use>
                  <path fill="none" stroke="white" stroke-width="1.5" d="M0,-3.0v7 M-2.5,-0.5L0,-3.0L2.5,-0.5"/>
                </g>
                <g id="arrowLeft" xlink:href="#dirArrow" transform="rotate(270) translate(-36 17)" onmousedown="handlePan(-1,0)">
                  <use xlink:href="#rim" fill="#404040">
                        <set attributeName="fill" to="#808080" begin="arrowLeft.mouseover" end="arrowLeft.mouseout"/>
                  </use>
                  <path fill="none" stroke="white" stroke-width="1.5" d="M0,-3.0v7 M-2.5,-0.5L0,-3.0L2.5,-0.5"/>
                </g>
        </g>
        <svg viewBox="0 0 15 15" width="100%" height="30px" preserveAspectRatio="xMaxYMin meet">
         <g id="arrow_out" transform="scale(0.3 0.3)">
          <a xlink:href="general_8hpp__dep__incl_org.svg" target="_base">
           <rect id="button" ry="5" rx="5" y="6" x="6" height="38" width="38"
                fill="#f2f5e9" fill-opacity="0.5" stroke="#606060" stroke-width="1.0"/>
           <path id="arrow"
             d="M 11.500037,31.436501 C 11.940474,20.09759 22.043105,11.32322 32.158766,21.979434 L 37.068811,17.246167 C 37.068811,17.246167 37.088388,32 37.088388,32 L 22.160133,31.978069 C 22.160133,31.978069 26.997745,27.140456 26.997745,27.140456 C 18.528582,18.264221 13.291696,25.230495 11.500037,31.436501 z"
             style="fill:#404040;"/>
          </a>
         </g>
        </svg>
</svg>
