<?xml version="1.0" encoding="UTF-8" standalone="no"?>
<!DOCTYPE svg PUBLIC "-//W3C//DTD SVG 1.1//EN"
 "http://www.w3.org/Graphics/SVG/1.1/DTD/svg11.dtd">
<!-- Generated by graphviz version 2.43.0 (0)
 -->
<!-- Title: /home/runner/work/Simple&#45;Utility/Simple&#45;Utility/include/Simple&#45;Utility/functional/arithmetic.hpp Pages: 1 -->
<svg width="939pt" height="385pt"
 viewBox="0.00 0.00 939.29 385.00" xmlns="http://www.w3.org/2000/svg" xmlns:xlink="http://www.w3.org/1999/xlink">
<g id="graph0" class="graph" transform="scale(1 1) rotate(0) translate(4 381)">
<title>/home/runner/work/Simple&#45;Utility/Simple&#45;Utility/include/Simple&#45;Utility/functional/arithmetic.hpp</title>
<polygon fill="white" stroke="transparent" points="-4,4 -4,-381 935.29,-381 935.29,4 -4,4"/>
<!-- Node1 -->
<g id="node1" class="node">
<title>Node1</title>
<g id="a_node1"><a xlink:title=" ">
<polygon fill="#bfbfbf" stroke="black" points="123.79,-324.5 123.79,-376.5 269.79,-376.5 269.79,-324.5 123.79,-324.5"/>
<text text-anchor="start" x="131.79" y="-364.5" font-family="Helvetica,sans-Serif" font-size="10.00">/home/runner/work/Simple</text>
<text text-anchor="start" x="131.79" y="-353.5" font-family="Helvetica,sans-Serif" font-size="10.00">&#45;Utility/Simple&#45;Utility</text>
<text text-anchor="start" x="131.79" y="-342.5" font-family="Helvetica,sans-Serif" font-size="10.00">/include/Simple&#45;Utility</text>
<text text-anchor="middle" x="196.79" y="-331.5" font-family="Helvetica,sans-Serif" font-size="10.00">/functional/arithmetic.hpp</text>
</a>
</g>
</g>
<!-- Node2 -->
<g id="node2" class="node">
<title>Node2</title>
<g id="a_node2"><a xlink:href="../../dd/dcd/operators_8hpp.html" target="_top" xlink:title=" ">
<polygon fill="white" stroke="black" points="55.29,-257.5 55.29,-287.5 186.29,-287.5 186.29,-257.5 55.29,-257.5"/>
<text text-anchor="start" x="63.29" y="-275.5" font-family="Helvetica,sans-Serif" font-size="10.00">Simple&#45;Utility/concepts</text>
<text text-anchor="middle" x="120.79" y="-264.5" font-family="Helvetica,sans-Serif" font-size="10.00">/operators.hpp</text>
</a>
</g>
</g>
<!-- Node1&#45;&gt;Node2 -->
<g id="edge1" class="edge">
<title>Node1&#45;&gt;Node2</title>
<path fill="none" stroke="midnightblue" d="M171.49,-324.19C162.04,-314.75 151.41,-304.12 142.34,-295.04"/>
<polygon fill="midnightblue" stroke="midnightblue" points="144.69,-292.44 135.14,-287.85 139.74,-297.39 144.69,-292.44"/>
</g>
<!-- Node4 -->
<g id="node4" class="node">
<title>Node4</title>
<g id="a_node4"><a xlink:href="../../d6/deb/transform_8hpp.html" target="_top" xlink:title=" ">
<polygon fill="white" stroke="black" points="354.79,-257.5 354.79,-287.5 490.79,-287.5 490.79,-257.5 354.79,-257.5"/>
<text text-anchor="start" x="362.79" y="-275.5" font-family="Helvetica,sans-Serif" font-size="10.00">Simple&#45;Utility/functional</text>
<text text-anchor="middle" x="422.79" y="-264.5" font-family="Helvetica,sans-Serif" font-size="10.00">/transform.hpp</text>
</a>
</g>
</g>
<!-- Node1&#45;&gt;Node4 -->
<g id="edge3" class="edge">
<title>Node1&#45;&gt;Node4</title>
<path fill="none" stroke="midnightblue" d="M269.86,-324.93C302.88,-313.83 341.12,-300.96 371.11,-290.88"/>
<polygon fill="midnightblue" stroke="midnightblue" points="372.58,-294.08 380.94,-287.58 370.34,-287.45 372.58,-294.08"/>
</g>
<!-- Node3 -->
<g id="node3" class="node">
<title>Node3</title>
<g id="a_node3"><a xlink:title=" ">
<polygon fill="white" stroke="#bfbfbf" points="266.79,-0.5 266.79,-19.5 326.79,-19.5 326.79,-0.5 266.79,-0.5"/>
<text text-anchor="middle" x="296.79" y="-7.5" font-family="Helvetica,sans-Serif" font-size="10.00">concepts</text>
</a>
</g>
</g>
<!-- Node2&#45;&gt;Node3 -->
<g id="edge2" class="edge">
<title>Node2&#45;&gt;Node3</title>
<path fill="none" stroke="midnightblue" d="M103.79,-257.24C61.96,-220.5 -38.58,-120.98 16.79,-56 47.09,-20.44 186.32,-12.87 256.34,-11.34"/>
<polygon fill="midnightblue" stroke="midnightblue" points="256.62,-14.83 266.55,-11.15 256.49,-7.83 256.62,-14.83"/>
</g>
<!-- Node5 -->
<g id="node5" class="node">
<title>Node5</title>
<g id="a_node5"><a xlink:href="../../d4/d1c/unified__base_8hpp.html" target="_top" xlink:title=" ">
<polygon fill="white" stroke="black" points="612.79,-56.5 612.79,-86.5 732.79,-86.5 732.79,-56.5 612.79,-56.5"/>
<text text-anchor="start" x="620.79" y="-74.5" font-family="Helvetica,sans-Serif" font-size="10.00">Simple&#45;Utility/unified</text>
<text text-anchor="middle" x="672.79" y="-63.5" font-family="Helvetica,sans-Serif" font-size="10.00">_base.hpp</text>
</a>
</g>
</g>
<!-- Node4&#45;&gt;Node5 -->
<g id="edge4" class="edge">
<title>Node4&#45;&gt;Node5</title>
<path fill="none" stroke="midnightblue" d="M490.81,-265.25C550.86,-258.25 632.14,-244.65 653.79,-221 684.86,-187.07 682.05,-129.08 677.36,-96.51"/>
<polygon fill="midnightblue" stroke="midnightblue" points="680.79,-95.82 675.74,-86.51 673.88,-96.94 680.79,-95.82"/>
</g>
<!-- Node7 -->
<g id="node7" class="node">
<title>Node7</title>
<g id="a_node7"><a xlink:href="../../d1/d76/functional_2base_8hpp.html" target="_top" xlink:title=" ">
<polygon fill="white" stroke="black" points="312.79,-123.5 312.79,-153.5 448.79,-153.5 448.79,-123.5 312.79,-123.5"/>
<text text-anchor="start" x="320.79" y="-141.5" font-family="Helvetica,sans-Serif" font-size="10.00">Simple&#45;Utility/functional</text>
<text text-anchor="middle" x="380.79" y="-130.5" font-family="Helvetica,sans-Serif" font-size="10.00">/base.hpp</text>
</a>
</g>
</g>
<!-- Node4&#45;&gt;Node7 -->
<g id="edge7" class="edge">
<title>Node4&#45;&gt;Node7</title>
<path fill="none" stroke="midnightblue" d="M386.8,-257.35C371.24,-249.22 354.61,-237.32 345.79,-221 335.33,-201.62 347.49,-178.44 360.26,-161.77"/>
<polygon fill="midnightblue" stroke="midnightblue" points="363.24,-163.65 366.87,-153.7 357.83,-159.22 363.24,-163.65"/>
</g>
<!-- Node12 -->
<g id="node12" class="node">
<title>Node12</title>
<g id="a_node12"><a xlink:href="../../d9/d76/bind_8hpp.html" target="_top" xlink:title=" ">
<polygon fill="white" stroke="black" points="508.79,-190.5 508.79,-220.5 644.79,-220.5 644.79,-190.5 508.79,-190.5"/>
<text text-anchor="start" x="516.79" y="-208.5" font-family="Helvetica,sans-Serif" font-size="10.00">Simple&#45;Utility/functional</text>
<text text-anchor="middle" x="576.79" y="-197.5" font-family="Helvetica,sans-Serif" font-size="10.00">/operators/bind.hpp</text>
</a>
</g>
</g>
<!-- Node4&#45;&gt;Node12 -->
<g id="edge17" class="edge">
<title>Node4&#45;&gt;Node12</title>
<path fill="none" stroke="midnightblue" d="M456.21,-257.4C479.01,-247.77 509.42,-234.94 534,-224.56"/>
<polygon fill="midnightblue" stroke="midnightblue" points="535.59,-227.69 543.44,-220.58 532.87,-221.24 535.59,-227.69"/>
</g>
<!-- Node16 -->
<g id="node16" class="node">
<title>Node16</title>
<g id="a_node16"><a xlink:href="../../d5/db7/pipe_8hpp.html" target="_top" xlink:title=" ">
<polygon fill="white" stroke="black" points="354.79,-190.5 354.79,-220.5 490.79,-220.5 490.79,-190.5 354.79,-190.5"/>
<text text-anchor="start" x="362.79" y="-208.5" font-family="Helvetica,sans-Serif" font-size="10.00">Simple&#45;Utility/functional</text>
<text text-anchor="middle" x="422.79" y="-197.5" font-family="Helvetica,sans-Serif" font-size="10.00">/operators/pipe.hpp</text>
</a>
</g>
</g>
<!-- Node4&#45;&gt;Node16 -->
<g id="edge24" class="edge">
<title>Node4&#45;&gt;Node16</title>
<path fill="none" stroke="midnightblue" d="M422.79,-257.4C422.79,-249.64 422.79,-239.81 422.79,-230.86"/>
<polygon fill="midnightblue" stroke="midnightblue" points="426.29,-230.58 422.79,-220.58 419.29,-230.58 426.29,-230.58"/>
</g>
<!-- Node5&#45;&gt;Node3 -->
<g id="edge5" class="edge">
<title>Node5&#45;&gt;Node3</title>
<path fill="none" stroke="midnightblue" d="M612.38,-60.94C535.14,-48.72 403.49,-27.88 337.31,-17.41"/>
<polygon fill="midnightblue" stroke="midnightblue" points="337.69,-13.93 327.26,-15.82 336.59,-20.84 337.69,-13.93"/>
</g>
<!-- Node6 -->
<g id="node6" class="node">
<title>Node6</title>
<g id="a_node6"><a xlink:title=" ">
<polygon fill="white" stroke="#bfbfbf" points="638.29,-0.5 638.29,-19.5 707.29,-19.5 707.29,-0.5 638.29,-0.5"/>
<text text-anchor="middle" x="672.79" y="-7.5" font-family="Helvetica,sans-Serif" font-size="10.00">type_traits</text>
</a>
</g>
</g>
<!-- Node5&#45;&gt;Node6 -->
<g id="edge6" class="edge">
<title>Node5&#45;&gt;Node6</title>
<path fill="none" stroke="midnightblue" d="M672.79,-56.4C672.79,-48.47 672.79,-38.46 672.79,-29.86"/>
<polygon fill="midnightblue" stroke="midnightblue" points="676.29,-29.66 672.79,-19.66 669.29,-29.66 676.29,-29.66"/>
</g>
<!-- Node7&#45;&gt;Node3 -->
<g id="edge8" class="edge">
<title>Node7&#45;&gt;Node3</title>
<path fill="none" stroke="midnightblue" d="M312.7,-137.92C220.44,-136.87 63.05,-128.8 26.79,-87 17.77,-76.59 17.89,-66.51 26.79,-56 55.73,-21.84 188.34,-13.59 256.33,-11.61"/>
<polygon fill="midnightblue" stroke="midnightblue" points="256.76,-15.1 266.66,-11.34 256.58,-8.1 256.76,-15.1"/>
</g>
<!-- Node7&#45;&gt;Node5 -->
<g id="edge12" class="edge">
<title>Node7&#45;&gt;Node5</title>
<path fill="none" stroke="midnightblue" d="M443.79,-123.48C490.54,-113.07 554.27,-98.88 602.64,-88.12"/>
<polygon fill="midnightblue" stroke="midnightblue" points="603.4,-91.53 612.4,-85.94 601.88,-84.7 603.4,-91.53"/>
</g>
<!-- Node7&#45;&gt;Node6 -->
<g id="edge10" class="edge">
<title>Node7&#45;&gt;Node6</title>
<path fill="none" stroke="midnightblue" d="M449.23,-125.95C485.25,-118.13 529.38,-105.74 565.79,-87 585.17,-77.02 586.2,-68.86 603.79,-56 618.8,-45.03 636.36,-33.6 650.01,-25"/>
<polygon fill="midnightblue" stroke="midnightblue" points="652.13,-27.81 658.76,-19.54 648.42,-21.87 652.13,-27.81"/>
</g>
<!-- Node8 -->
<g id="node8" class="node">
<title>Node8</title>
<g id="a_node8"><a xlink:title=" ">
<polygon fill="white" stroke="#bfbfbf" points="185.29,-62 185.29,-81 250.29,-81 250.29,-62 185.29,-62"/>
<text text-anchor="middle" x="217.79" y="-69" font-family="Helvetica,sans-Serif" font-size="10.00">functional</text>
</a>
</g>
</g>
<!-- Node7&#45;&gt;Node8 -->
<g id="edge9" class="edge">
<title>Node7&#45;&gt;Node8</title>
<path fill="none" stroke="midnightblue" d="M345.43,-123.4C316.57,-111.89 276.22,-95.8 248.66,-84.81"/>
<polygon fill="midnightblue" stroke="midnightblue" points="249.71,-81.46 239.13,-81.01 247.12,-87.96 249.71,-81.46"/>
</g>
<!-- Node9 -->
<g id="node9" class="node">
<title>Node9</title>
<g id="a_node9"><a xlink:href="../../d8/dd2/_config_8hpp.html" target="_top" xlink:title=" ">
<polygon fill="white" stroke="black" points="268.29,-62 268.29,-81 407.29,-81 407.29,-62 268.29,-62"/>
<text text-anchor="middle" x="337.79" y="-69" font-family="Helvetica,sans-Serif" font-size="10.00">Simple&#45;Utility/Config.hpp</text>
</a>
</g>
</g>
<!-- Node7&#45;&gt;Node9 -->
<g id="edge11" class="edge">
<title>Node7&#45;&gt;Node9</title>
<path fill="none" stroke="midnightblue" d="M371.46,-123.4C364.89,-113.46 356.06,-100.11 349.09,-89.57"/>
<polygon fill="midnightblue" stroke="midnightblue" points="351.98,-87.6 343.55,-81.19 346.14,-91.47 351.98,-87.6"/>
</g>
<!-- Node10 -->
<g id="node10" class="node">
<title>Node10</title>
<g id="a_node10"><a xlink:href="../../dd/d5c/stl__extensions_8hpp.html" target="_top" xlink:title=" ">
<polygon fill="white" stroke="black" points="425.29,-56.5 425.29,-86.5 556.29,-86.5 556.29,-56.5 425.29,-56.5"/>
<text text-anchor="start" x="433.29" y="-74.5" font-family="Helvetica,sans-Serif" font-size="10.00">Simple&#45;Utility/concepts</text>
<text text-anchor="middle" x="490.79" y="-63.5" font-family="Helvetica,sans-Serif" font-size="10.00">/stl_extensions.hpp</text>
</a>
</g>
</g>
<!-- Node7&#45;&gt;Node10 -->
<g id="edge13" class="edge">
<title>Node7&#45;&gt;Node10</title>
<path fill="none" stroke="midnightblue" d="M404.66,-123.4C420.37,-114.11 441.14,-101.84 458.35,-91.67"/>
<polygon fill="midnightblue" stroke="midnightblue" points="460.14,-94.68 466.97,-86.58 456.58,-88.65 460.14,-94.68"/>
</g>
<!-- Node11 -->
<g id="node11" class="node">
<title>Node11</title>
<g id="a_node11"><a xlink:href="../../d5/d8e/concepts_2utility_8hpp.html" target="_top" xlink:title=" ">
<polygon fill="white" stroke="black" points="36.29,-56.5 36.29,-86.5 167.29,-86.5 167.29,-56.5 36.29,-56.5"/>
<text text-anchor="start" x="44.29" y="-74.5" font-family="Helvetica,sans-Serif" font-size="10.00">Simple&#45;Utility/concepts</text>
<text text-anchor="middle" x="101.79" y="-63.5" font-family="Helvetica,sans-Serif" font-size="10.00">/utility.hpp</text>
</a>
</g>
</g>
<!-- Node7&#45;&gt;Node11 -->
<g id="edge15" class="edge">
<title>Node7&#45;&gt;Node11</title>
<path fill="none" stroke="midnightblue" d="M320.6,-123.48C277.02,-113.32 217.98,-99.57 172.21,-88.91"/>
<polygon fill="midnightblue" stroke="midnightblue" points="172.9,-85.47 162.36,-86.61 171.31,-92.29 172.9,-85.47"/>
</g>
<!-- Node10&#45;&gt;Node3 -->
<g id="edge14" class="edge">
<title>Node10&#45;&gt;Node3</title>
<path fill="none" stroke="midnightblue" d="M444.82,-56.4C411.15,-46.07 366.02,-32.23 334.47,-22.56"/>
<polygon fill="midnightblue" stroke="midnightblue" points="335.33,-19.16 324.74,-19.57 333.27,-25.85 335.33,-19.16"/>
</g>
<!-- Node11&#45;&gt;Node3 -->
<g id="edge16" class="edge">
<title>Node11&#45;&gt;Node3</title>
<path fill="none" stroke="midnightblue" d="M148.01,-56.4C181.85,-46.07 227.21,-32.23 258.92,-22.56"/>
<polygon fill="midnightblue" stroke="midnightblue" points="260.16,-25.84 268.7,-19.57 258.12,-19.14 260.16,-25.84"/>
</g>
<!-- Node12&#45;&gt;Node7 -->
<g id="edge18" class="edge">
<title>Node12&#45;&gt;Node7</title>
<path fill="none" stroke="midnightblue" d="M534.26,-190.4C504.47,-180.52 464.48,-167.25 432.79,-156.74"/>
<polygon fill="midnightblue" stroke="midnightblue" points="433.83,-153.4 423.24,-153.58 431.63,-160.05 433.83,-153.4"/>
</g>
<!-- Node13 -->
<g id="node13" class="node">
<title>Node13</title>
<g id="a_node13"><a xlink:href="../../d2/d30/general_8hpp.html" target="_top" xlink:title=" ">
<polygon fill="white" stroke="black" points="723.79,-123.5 723.79,-153.5 835.79,-153.5 835.79,-123.5 723.79,-123.5"/>
<text text-anchor="start" x="731.79" y="-141.5" font-family="Helvetica,sans-Serif" font-size="10.00">Simple&#45;Utility/tuple</text>
<text text-anchor="middle" x="779.79" y="-130.5" font-family="Helvetica,sans-Serif" font-size="10.00">/general.hpp</text>
</a>
</g>
</g>
<!-- Node12&#45;&gt;Node13 -->
<g id="edge19" class="edge">
<title>Node12&#45;&gt;Node13</title>
<path fill="none" stroke="midnightblue" d="M620.84,-190.4C651.7,-180.52 693.12,-167.25 725.94,-156.74"/>
<polygon fill="midnightblue" stroke="midnightblue" points="727.38,-159.96 735.83,-153.58 725.24,-153.29 727.38,-159.96"/>
</g>
<!-- Node13&#45;&gt;Node3 -->
<g id="edge20" class="edge">
<title>Node13&#45;&gt;Node3</title>
<path fill="none" stroke="midnightblue" d="M777.54,-123.26C773.75,-104.47 764.19,-71.91 741.79,-56 709.17,-32.82 440.47,-17.79 337.1,-12.82"/>
<polygon fill="midnightblue" stroke="midnightblue" points="337.21,-9.32 327.05,-12.34 336.88,-16.31 337.21,-9.32"/>
</g>
<!-- Node13&#45;&gt;Node6 -->
<g id="edge22" class="edge">
<title>Node13&#45;&gt;Node6</title>
<path fill="none" stroke="midnightblue" d="M783.03,-123.4C786.19,-105.92 788.73,-76.01 774.79,-56 761.52,-36.94 738.28,-25.86 717.33,-19.47"/>
<polygon fill="midnightblue" stroke="midnightblue" points="718.17,-16.07 707.6,-16.77 716.3,-22.82 718.17,-16.07"/>
</g>
<!-- Node14 -->
<g id="node14" class="node">
<title>Node14</title>
<g id="a_node14"><a xlink:title=" ">
<polygon fill="white" stroke="#bfbfbf" points="827.29,-62 827.29,-81 868.29,-81 868.29,-62 827.29,-62"/>
<text text-anchor="middle" x="847.79" y="-69" font-family="Helvetica,sans-Serif" font-size="10.00">tuple</text>
</a>
</g>
</g>
<!-- Node13&#45;&gt;Node14 -->
<g id="edge21" class="edge">
<title>Node13&#45;&gt;Node14</title>
<path fill="none" stroke="midnightblue" d="M794.55,-123.4C805.36,-113.06 820.05,-99.02 831.26,-88.31"/>
<polygon fill="midnightblue" stroke="midnightblue" points="833.89,-90.63 838.7,-81.19 829.05,-85.57 833.89,-90.63"/>
</g>
<!-- Node15 -->
<g id="node15" class="node">
<title>Node15</title>
<g id="a_node15"><a xlink:title=" ">
<polygon fill="white" stroke="#bfbfbf" points="886.29,-62 886.29,-81 931.29,-81 931.29,-62 886.29,-62"/>
<text text-anchor="middle" x="908.79" y="-69" font-family="Helvetica,sans-Serif" font-size="10.00">utility</text>
</a>
</g>
</g>
<!-- Node13&#45;&gt;Node15 -->
<g id="edge23" class="edge">
<title>Node13&#45;&gt;Node15</title>
<path fill="none" stroke="midnightblue" d="M807.78,-123.4C830.12,-112.14 861.16,-96.5 882.92,-85.54"/>
<polygon fill="midnightblue" stroke="midnightblue" points="884.56,-88.63 891.91,-81.01 881.41,-82.38 884.56,-88.63"/>
</g>
<!-- Node16&#45;&gt;Node7 -->
<g id="edge25" class="edge">
<title>Node16&#45;&gt;Node7</title>
<path fill="none" stroke="midnightblue" d="M413.68,-190.4C408.34,-182.13 401.47,-171.51 395.4,-162.1"/>
<polygon fill="midnightblue" stroke="midnightblue" points="398.26,-160.08 389.89,-153.58 392.38,-163.88 398.26,-160.08"/>
</g>
<!-- Node16&#45;&gt;Node13 -->
<g id="edge26" class="edge">
<title>Node16&#45;&gt;Node13</title>
<path fill="none" stroke="midnightblue" d="M490.81,-191.66C493.84,-191.1 496.85,-190.54 499.79,-190 573,-176.51 657.05,-161.4 713.8,-151.25"/>
<polygon fill="midnightblue" stroke="midnightblue" points="714.5,-154.69 723.72,-149.48 713.26,-147.8 714.5,-154.69"/>
</g>
</g>
</svg>
