<?xml version="1.0" encoding="UTF-8" standalone="no"?>
<!DOCTYPE svg PUBLIC "-//W3C//DTD SVG 1.1//EN"
 "http://www.w3.org/Graphics/SVG/1.1/DTD/svg11.dtd">
<!-- Generated by graphviz version 7.0.5 (20221223.1930)
 -->
<!-- Title: Simple&#45;Utility/functional/arithmetic.hpp Pages: 1 -->
<svg width="906pt" height="357pt"
 viewBox="0.00 0.00 905.92 357.00" xmlns="http://www.w3.org/2000/svg" xmlns:xlink="http://www.w3.org/1999/xlink">
<g id="graph0" class="graph" transform="scale(1 1) rotate(0) translate(4 353)">
<title>Simple&#45;Utility/functional/arithmetic.hpp</title>
<!-- Node1 -->
<g id="node1" class="node">
<title>Node1</title>
<g id="a_node1"><a xlink:title=" ">
<polygon fill="#999999" stroke="#666666" points="255.42,-349 127.42,-349 127.42,-319 255.42,-319 255.42,-349"/>
<text text-anchor="start" x="135.42" y="-337" font-family="Helvetica,sans-Serif" font-size="10.00">Simple&#45;Utility/functional</text>
<text text-anchor="middle" x="191.42" y="-326" font-family="Helvetica,sans-Serif" font-size="10.00">/arithmetic.hpp</text>
</a>
</g>
</g>
<!-- Node2 -->
<g id="node2" class="node">
<title>Node2</title>
<g id="a_node2"><a xlink:href="../../dd/dcd/operators_8hpp.html" target="_top" xlink:title=" ">
<polygon fill="white" stroke="#666666" points="181.42,-283 59.42,-283 59.42,-253 181.42,-253 181.42,-283"/>
<text text-anchor="start" x="67.42" y="-271" font-family="Helvetica,sans-Serif" font-size="10.00">Simple&#45;Utility/concepts</text>
<text text-anchor="middle" x="120.42" y="-260" font-family="Helvetica,sans-Serif" font-size="10.00">/operators.hpp</text>
</a>
</g>
</g>
<!-- Node1&#45;&gt;Node2 -->
<g id="edge1" class="edge">
<title>Node1&#45;&gt;Node2</title>
<path fill="none" stroke="#63b8ff" d="M175.67,-318.8C166.57,-310.59 154.93,-300.1 144.68,-290.87"/>
<polygon fill="#63b8ff" stroke="#63b8ff" points="147.03,-288.27 137.26,-284.18 142.35,-293.47 147.03,-288.27"/>
</g>
<!-- Node4 -->
<g id="node4" class="node">
<title>Node4</title>
<g id="a_node4"><a xlink:href="../../d6/deb/transform_8hpp.html" target="_top" xlink:title=" ">
<polygon fill="white" stroke="#666666" points="473.42,-283 345.42,-283 345.42,-253 473.42,-253 473.42,-283"/>
<text text-anchor="start" x="353.42" y="-271" font-family="Helvetica,sans-Serif" font-size="10.00">Simple&#45;Utility/functional</text>
<text text-anchor="middle" x="409.42" y="-260" font-family="Helvetica,sans-Serif" font-size="10.00">/transform.hpp</text>
</a>
</g>
</g>
<!-- Node1&#45;&gt;Node4 -->
<g id="edge3" class="edge">
<title>Node1&#45;&gt;Node4</title>
<path fill="none" stroke="#63b8ff" d="M240.62,-318.56C272.92,-309.08 315.35,-296.62 349.6,-286.56"/>
<polygon fill="#63b8ff" stroke="#63b8ff" points="350.35,-289.99 358.96,-283.82 348.38,-283.28 350.35,-289.99"/>
</g>
<!-- Node3 -->
<g id="node3" class="node">
<title>Node3</title>
<g id="a_node3"><a xlink:title=" ">
<polygon fill="#e0e0e0" stroke="#999999" points="315.92,-19 258.92,-19 258.92,0 315.92,0 315.92,-19"/>
<text text-anchor="middle" x="287.42" y="-7" font-family="Helvetica,sans-Serif" font-size="10.00">concepts</text>
</a>
</g>
</g>
<!-- Node2&#45;&gt;Node3 -->
<g id="edge2" class="edge">
<title>Node2&#45;&gt;Node3</title>
<path fill="none" stroke="#63b8ff" d="M103.21,-252.74C61.44,-216.47 -37.97,-119.06 16.42,-55 45.6,-20.64 179.49,-12.76 247.51,-10.99"/>
<polygon fill="#63b8ff" stroke="#63b8ff" points="247.19,-14.5 257.11,-10.77 247.04,-7.5 247.19,-14.5"/>
</g>
<!-- Node5 -->
<g id="node5" class="node">
<title>Node5</title>
<g id="a_node5"><a xlink:href="../../d4/d1c/unified__base_8hpp.html" target="_top" xlink:title=" ">
<polygon fill="white" stroke="#666666" points="703.92,-85 590.92,-85 590.92,-55 703.92,-55 703.92,-85"/>
<text text-anchor="start" x="598.92" y="-73" font-family="Helvetica,sans-Serif" font-size="10.00">Simple&#45;Utility/unified</text>
<text text-anchor="middle" x="647.42" y="-62" font-family="Helvetica,sans-Serif" font-size="10.00">_base.hpp</text>
</a>
</g>
</g>
<!-- Node4&#45;&gt;Node5 -->
<g id="edge4" class="edge">
<title>Node4&#45;&gt;Node5</title>
<path fill="none" stroke="#63b8ff" d="M473.65,-260.44C530.62,-253.24 607.9,-239.58 628.42,-217 658.31,-184.13 656.37,-128.6 652.05,-96.33"/>
<polygon fill="#63b8ff" stroke="#63b8ff" points="655.55,-96.04 650.57,-86.69 648.63,-97.1 655.55,-96.04"/>
</g>
<!-- Node7 -->
<g id="node7" class="node">
<title>Node7</title>
<g id="a_node7"><a xlink:href="../../d1/d76/functional_2base_8hpp.html" target="_top" xlink:title=" ">
<polygon fill="white" stroke="#666666" points="432.42,-151 304.42,-151 304.42,-121 432.42,-121 432.42,-151"/>
<text text-anchor="start" x="312.42" y="-139" font-family="Helvetica,sans-Serif" font-size="10.00">Simple&#45;Utility/functional</text>
<text text-anchor="middle" x="368.42" y="-128" font-family="Helvetica,sans-Serif" font-size="10.00">/base.hpp</text>
</a>
</g>
</g>
<!-- Node4&#45;&gt;Node7 -->
<g id="edge7" class="edge">
<title>Node4&#45;&gt;Node7</title>
<path fill="none" stroke="#63b8ff" d="M375.26,-252.64C360.5,-244.51 344.73,-232.76 336.42,-217 326.69,-198.53 337.09,-176.41 348.55,-160.12"/>
<polygon fill="#63b8ff" stroke="#63b8ff" points="351.1,-162.55 354.37,-152.48 345.53,-158.31 351.1,-162.55"/>
</g>
<!-- Node12 -->
<g id="node12" class="node">
<title>Node12</title>
<g id="a_node12"><a xlink:href="../../d9/d76/bind_8hpp.html" target="_top" xlink:title=" ">
<polygon fill="white" stroke="#666666" points="619.42,-217 491.42,-217 491.42,-187 619.42,-187 619.42,-217"/>
<text text-anchor="start" x="499.42" y="-205" font-family="Helvetica,sans-Serif" font-size="10.00">Simple&#45;Utility/functional</text>
<text text-anchor="middle" x="555.42" y="-194" font-family="Helvetica,sans-Serif" font-size="10.00">/operators/bind.hpp</text>
</a>
</g>
</g>
<!-- Node4&#45;&gt;Node12 -->
<g id="edge17" class="edge">
<title>Node4&#45;&gt;Node12</title>
<path fill="none" stroke="#63b8ff" d="M442.19,-252.64C462.87,-243.57 489.83,-231.75 512.25,-221.93"/>
<polygon fill="#63b8ff" stroke="#63b8ff" points="513.38,-225.25 521.13,-218.03 510.57,-218.84 513.38,-225.25"/>
</g>
<!-- Node16 -->
<g id="node16" class="node">
<title>Node16</title>
<g id="a_node16"><a xlink:href="../../d5/db7/pipe_8hpp.html" target="_top" xlink:title=" ">
<polygon fill="white" stroke="#666666" points="473.42,-217 345.42,-217 345.42,-187 473.42,-187 473.42,-217"/>
<text text-anchor="start" x="353.42" y="-205" font-family="Helvetica,sans-Serif" font-size="10.00">Simple&#45;Utility/functional</text>
<text text-anchor="middle" x="409.42" y="-194" font-family="Helvetica,sans-Serif" font-size="10.00">/operators/pipe.hpp</text>
</a>
</g>
</g>
<!-- Node4&#45;&gt;Node16 -->
<g id="edge24" class="edge">
<title>Node4&#45;&gt;Node16</title>
<path fill="none" stroke="#63b8ff" d="M409.42,-252.8C409.42,-245.67 409.42,-236.82 409.42,-228.56"/>
<polygon fill="#63b8ff" stroke="#63b8ff" points="412.92,-228.68 409.42,-218.68 405.92,-228.68 412.92,-228.68"/>
</g>
<!-- Node5&#45;&gt;Node3 -->
<g id="edge5" class="edge">
<title>Node5&#45;&gt;Node3</title>
<path fill="none" stroke="#63b8ff" d="M590.78,-59.8C517.52,-47.89 391.74,-27.45 327.59,-17.03"/>
<polygon fill="#63b8ff" stroke="#63b8ff" points="328.28,-13.59 317.85,-15.44 327.16,-20.5 328.28,-13.59"/>
</g>
<!-- Node6 -->
<g id="node6" class="node">
<title>Node6</title>
<g id="a_node6"><a xlink:title=" ">
<polygon fill="#e0e0e0" stroke="#999999" points="679.92,-19 614.92,-19 614.92,0 679.92,0 679.92,-19"/>
<text text-anchor="middle" x="647.42" y="-7" font-family="Helvetica,sans-Serif" font-size="10.00">type_traits</text>
</a>
</g>
</g>
<!-- Node5&#45;&gt;Node6 -->
<g id="edge6" class="edge">
<title>Node5&#45;&gt;Node6</title>
<path fill="none" stroke="#63b8ff" d="M647.42,-54.54C647.42,-47.34 647.42,-38.53 647.42,-30.68"/>
<polygon fill="#63b8ff" stroke="#63b8ff" points="650.92,-30.69 647.42,-20.69 643.92,-30.69 650.92,-30.69"/>
</g>
<!-- Node7&#45;&gt;Node3 -->
<g id="edge8" class="edge">
<title>Node7&#45;&gt;Node3</title>
<path fill="none" stroke="#63b8ff" d="M303.95,-135.02C216.14,-133.51 65.9,-124.97 31.42,-85 -29,-14.95 160.94,-8.87 247.16,-9.57"/>
<polygon fill="#63b8ff" stroke="#63b8ff" points="247.05,-13.07 257.09,-9.69 247.13,-6.07 247.05,-13.07"/>
</g>
<!-- Node7&#45;&gt;Node5 -->
<g id="edge12" class="edge">
<title>Node7&#45;&gt;Node5</title>
<path fill="none" stroke="#63b8ff" d="M431.39,-120.56C475.54,-110.43 534.51,-96.9 579.68,-86.54"/>
<polygon fill="#63b8ff" stroke="#63b8ff" points="580.41,-89.96 589.38,-84.32 578.85,-83.14 580.41,-89.96"/>
</g>
<!-- Node7&#45;&gt;Node6 -->
<g id="edge10" class="edge">
<title>Node7&#45;&gt;Node6</title>
<path fill="none" stroke="#63b8ff" d="M432.53,-122.8C466.63,-114.82 508.58,-102.57 543.42,-85 562.95,-75.15 564.73,-67.85 582.42,-55 596.22,-44.98 612,-34.17 624.55,-25.71"/>
<polygon fill="#63b8ff" stroke="#63b8ff" points="626.21,-28.81 632.57,-20.33 622.32,-22.99 626.21,-28.81"/>
</g>
<!-- Node8 -->
<g id="node8" class="node">
<title>Node8</title>
<g id="a_node8"><a xlink:title=" ">
<polygon fill="#e0e0e0" stroke="#999999" points="242.42,-79.5 180.42,-79.5 180.42,-60.5 242.42,-60.5 242.42,-79.5"/>
<text text-anchor="middle" x="211.42" y="-67.5" font-family="Helvetica,sans-Serif" font-size="10.00">functional</text>
</a>
</g>
</g>
<!-- Node7&#45;&gt;Node8 -->
<g id="edge9" class="edge">
<title>Node7&#45;&gt;Node8</title>
<path fill="none" stroke="#63b8ff" d="M333.19,-120.64C306.45,-109.74 269.98,-94.87 243.93,-84.25"/>
<polygon fill="#63b8ff" stroke="#63b8ff" points="245.45,-81.09 234.87,-80.56 242.81,-87.57 245.45,-81.09"/>
</g>
<!-- Node9 -->
<g id="node9" class="node">
<title>Node9</title>
<g id="a_node9"><a xlink:href="../../d8/dd2/_config_8hpp.html" target="_top" xlink:title=" ">
<polygon fill="white" stroke="#666666" points="393.92,-79.5 260.92,-79.5 260.92,-60.5 393.92,-60.5 393.92,-79.5"/>
<text text-anchor="middle" x="327.42" y="-67.5" font-family="Helvetica,sans-Serif" font-size="10.00">Simple&#45;Utility/Config.hpp</text>
</a>
</g>
</g>
<!-- Node7&#45;&gt;Node9 -->
<g id="edge11" class="edge">
<title>Node7&#45;&gt;Node9</title>
<path fill="none" stroke="#63b8ff" d="M359.33,-120.8C353.37,-111.5 345.54,-99.27 339.12,-89.26"/>
<polygon fill="#63b8ff" stroke="#63b8ff" points="342.25,-87.65 333.91,-81.12 336.35,-91.43 342.25,-87.65"/>
</g>
<!-- Node10 -->
<g id="node10" class="node">
<title>Node10</title>
<g id="a_node10"><a xlink:href="../../dd/d5c/stl__extensions_8hpp.html" target="_top" xlink:title=" ">
<polygon fill="white" stroke="#666666" points="534.42,-85 412.42,-85 412.42,-55 534.42,-55 534.42,-85"/>
<text text-anchor="start" x="420.42" y="-73" font-family="Helvetica,sans-Serif" font-size="10.00">Simple&#45;Utility/concepts</text>
<text text-anchor="middle" x="473.42" y="-62" font-family="Helvetica,sans-Serif" font-size="10.00">/stl_extensions.hpp</text>
</a>
</g>
</g>
<!-- Node7&#45;&gt;Node10 -->
<g id="edge13" class="edge">
<title>Node7&#45;&gt;Node10</title>
<path fill="none" stroke="#63b8ff" d="M391.99,-120.64C406.31,-111.91 424.81,-100.63 440.55,-91.04"/>
<polygon fill="#63b8ff" stroke="#63b8ff" points="441.93,-94.3 448.65,-86.1 438.29,-88.32 441.93,-94.3"/>
</g>
<!-- Node11 -->
<g id="node11" class="node">
<title>Node11</title>
<g id="a_node11"><a xlink:href="../../d5/d8e/concepts_2utility_8hpp.html" target="_top" xlink:title=" ">
<polygon fill="white" stroke="#666666" points="162.42,-85 40.42,-85 40.42,-55 162.42,-55 162.42,-85"/>
<text text-anchor="start" x="48.42" y="-73" font-family="Helvetica,sans-Serif" font-size="10.00">Simple&#45;Utility/concepts</text>
<text text-anchor="middle" x="101.42" y="-62" font-family="Helvetica,sans-Serif" font-size="10.00">/utility.hpp</text>
</a>
</g>
</g>
<!-- Node7&#45;&gt;Node11 -->
<g id="edge15" class="edge">
<title>Node7&#45;&gt;Node11</title>
<path fill="none" stroke="#63b8ff" d="M308.17,-120.56C267.93,-110.91 214.83,-98.18 172.53,-88.04"/>
<polygon fill="#63b8ff" stroke="#63b8ff" points="173.47,-84.67 162.93,-85.74 171.84,-91.48 173.47,-84.67"/>
</g>
<!-- Node10&#45;&gt;Node3 -->
<g id="edge14" class="edge">
<title>Node10&#45;&gt;Node3</title>
<path fill="none" stroke="#63b8ff" d="M427.45,-54.54C396.44,-44.79 355.98,-32.06 326.53,-22.8"/>
<polygon fill="#63b8ff" stroke="#63b8ff" points="327.86,-19.55 317.27,-19.89 325.76,-26.23 327.86,-19.55"/>
</g>
<!-- Node11&#45;&gt;Node3 -->
<g id="edge16" class="edge">
<title>Node11&#45;&gt;Node3</title>
<path fill="none" stroke="#63b8ff" d="M147.4,-54.54C178.4,-44.79 218.87,-32.06 248.32,-22.8"/>
<polygon fill="#63b8ff" stroke="#63b8ff" points="249.09,-26.23 257.58,-19.89 246.99,-19.55 249.09,-26.23"/>
</g>
<!-- Node12&#45;&gt;Node7 -->
<g id="edge18" class="edge">
<title>Node12&#45;&gt;Node7</title>
<path fill="none" stroke="#63b8ff" d="M513.46,-186.64C486.25,-177.32 450.56,-165.11 421.4,-155.13"/>
<polygon fill="#63b8ff" stroke="#63b8ff" points="422.6,-151.84 412.01,-151.92 420.33,-158.47 422.6,-151.84"/>
</g>
<!-- Node13 -->
<g id="node13" class="node">
<title>Node13</title>
<g id="a_node13"><a xlink:href="../../d2/d30/general_8hpp.html" target="_top" xlink:title=" ">
<polygon fill="white" stroke="#666666" points="803.92,-151 698.92,-151 698.92,-121 803.92,-121 803.92,-151"/>
<text text-anchor="start" x="706.92" y="-139" font-family="Helvetica,sans-Serif" font-size="10.00">Simple&#45;Utility/tuple</text>
<text text-anchor="middle" x="751.42" y="-128" font-family="Helvetica,sans-Serif" font-size="10.00">/general.hpp</text>
</a>
</g>
</g>
<!-- Node12&#45;&gt;Node13 -->
<g id="edge19" class="edge">
<title>Node12&#45;&gt;Node13</title>
<path fill="none" stroke="#63b8ff" d="M599.41,-186.64C628.06,-177.28 665.66,-165 696.3,-155"/>
<polygon fill="#63b8ff" stroke="#63b8ff" points="697.39,-158.33 705.81,-151.9 695.22,-151.67 697.39,-158.33"/>
</g>
<!-- Node13&#45;&gt;Node3 -->
<g id="edge20" class="edge">
<title>Node13&#45;&gt;Node3</title>
<path fill="none" stroke="#63b8ff" d="M749.02,-120.71C745.08,-102.22 735.39,-70.54 713.42,-55 652.01,-11.55 421.54,-8.99 327.63,-9.82"/>
<polygon fill="#63b8ff" stroke="#63b8ff" points="327.82,-6.32 317.86,-9.93 327.9,-13.32 327.82,-6.32"/>
</g>
<!-- Node13&#45;&gt;Node6 -->
<g id="edge22" class="edge">
<title>Node13&#45;&gt;Node6</title>
<path fill="none" stroke="#63b8ff" d="M754.67,-120.57C757.67,-103.35 759.89,-74.45 746.42,-55 733.67,-36.57 711.39,-25.65 691.19,-19.26"/>
<polygon fill="#63b8ff" stroke="#63b8ff" points="692.29,-15.93 681.71,-16.56 690.37,-22.66 692.29,-15.93"/>
</g>
<!-- Node14 -->
<g id="node14" class="node">
<title>Node14</title>
<g id="a_node14"><a xlink:title=" ">
<polygon fill="#e0e0e0" stroke="#999999" points="838.42,-79.5 798.42,-79.5 798.42,-60.5 838.42,-60.5 838.42,-79.5"/>
<text text-anchor="middle" x="818.42" y="-67.5" font-family="Helvetica,sans-Serif" font-size="10.00">tuple</text>
</a>
</g>
</g>
<!-- Node13&#45;&gt;Node14 -->
<g id="edge21" class="edge">
<title>Node13&#45;&gt;Node14</title>
<path fill="none" stroke="#63b8ff" d="M766.29,-120.8C776.53,-111.01 790.18,-97.98 800.94,-87.7"/>
<polygon fill="#63b8ff" stroke="#63b8ff" points="803.26,-90.33 808.07,-80.89 798.42,-85.27 803.26,-90.33"/>
</g>
<!-- Node15 -->
<g id="node15" class="node">
<title>Node15</title>
<g id="a_node15"><a xlink:title=" ">
<polygon fill="#e0e0e0" stroke="#999999" points="897.92,-79.5 856.92,-79.5 856.92,-60.5 897.92,-60.5 897.92,-79.5"/>
<text text-anchor="middle" x="877.42" y="-67.5" font-family="Helvetica,sans-Serif" font-size="10.00">utility</text>
</a>
</g>
</g>
<!-- Node13&#45;&gt;Node15 -->
<g id="edge23" class="edge">
<title>Node13&#45;&gt;Node15</title>
<path fill="none" stroke="#63b8ff" d="M779.7,-120.64C800.59,-110.03 828.87,-95.66 849.64,-85.11"/>
<polygon fill="#63b8ff" stroke="#63b8ff" points="851.05,-88.32 858.38,-80.67 847.88,-82.08 851.05,-88.32"/>
</g>
<!-- Node16&#45;&gt;Node7 -->
<g id="edge25" class="edge">
<title>Node16&#45;&gt;Node7</title>
<path fill="none" stroke="#63b8ff" d="M400.33,-186.8C395.44,-179.17 389.29,-169.57 383.7,-160.84"/>
<polygon fill="#63b8ff" stroke="#63b8ff" points="386.66,-158.97 378.31,-152.44 380.76,-162.75 386.66,-158.97"/>
</g>
<!-- Node16&#45;&gt;Node13 -->
<g id="edge26" class="edge">
<title>Node16&#45;&gt;Node13</title>
<path fill="none" stroke="#63b8ff" d="M473.91,-188.61C476.79,-188.07 479.63,-187.53 482.42,-187 552.47,-173.77 632.84,-158.87 687.35,-148.8"/>
<polygon fill="#63b8ff" stroke="#63b8ff" points="687.89,-152.26 697.09,-147.01 686.62,-145.38 687.89,-152.26"/>
</g>
</g>
</svg>
