<?xml version="1.0" encoding="UTF-8" standalone="no"?>
<!DOCTYPE svg PUBLIC "-//W3C//DTD SVG 1.1//EN"
 "http://www.w3.org/Graphics/SVG/1.1/DTD/svg11.dtd">
<!-- Generated by graphviz version 8.0.5 (20230430.1635)
 -->
<!-- Title: Simple&#45;Utility/functional/arithmetic.hpp Pages: 1 -->
<!--zoomable 376 -->
<svg id="main" version="1.1" xmlns="http://www.w3.org/2000/svg" xmlns:xlink="http://www.w3.org/1999/xlink" xml:space="preserve" onload="init(evt)">
<style type="text/css"><![CDATA[
.edge:hover path { stroke: red; }
.edge:hover polygon { stroke: red; fill: red; }
]]></style>
<script type="text/javascript"><![CDATA[
var edges = document.getElementsByTagName('g');
if (edges && edges.length) {
  for (var i=0;i<edges.length;i++) {
    if (edges[i].id.substr(0,4)=='edge') {
      edges[i].setAttribute('class','edge');
    }
  }
}
]]></script>
        <defs>
                <circle id="rim" cx="0" cy="0" r="7"/>
                <circle id="rim2" cx="0" cy="0" r="3.5"/>
                <g id="zoomPlus">
                        <use xlink:href="#rim" fill="#404040">
                                <set attributeName="fill" to="#808080" begin="zoomplus.mouseover" end="zoomplus.mouseout"/>
                        </use>
                        <path d="M-4,0h8M0,-4v8" fill="none" stroke="white" stroke-width="1.5" pointer-events="none"/>
                </g>
                <g id="zoomMin">
                        <use xlink:href="#rim" fill="#404040">
                                <set attributeName="fill" to="#808080" begin="zoomminus.mouseover" end="zoomminus.mouseout"/>
                        </use>
                        <path d="M-4,0h8" fill="none" stroke="white" stroke-width="1.5" pointer-events="none"/>
                </g>
                <g id="dirArrow">
                        <path fill="none" stroke="white" stroke-width="1.5" d="M0,-3.0v7 M-2.5,-0.5L0,-3.0L2.5,-0.5"/>
                </g>
               <g id="resetDef">
                       <use xlink:href="#rim2" fill="#404040">
                               <set attributeName="fill" to="#808080" begin="reset.mouseover" end="reset.mouseout"/>
                       </use>
               </g>
        </defs>

<script type="text/javascript">
var viewWidth = 902;
var viewHeight = 376;
var sectionId = 'dynsection-0';
</script>
<script xlink:href="../../svgpan.js"/>
<svg id="graph" class="graph">
<g id="viewport">
<title>Simple&#45;Utility/functional/arithmetic.hpp</title>
<!-- Node1 -->
<g id="node1" class="node">
<title>Node1</title>
<g id="a_node1"><a xlink:title=" ">
<polygon fill="#999999" stroke="#666666" points="255.98,-368.25 128.98,-368.25 128.98,-334.75 255.98,-334.75 255.98,-368.25"/>
<text text-anchor="start" x="136.98" y="-354.75" font-family="Helvetica,sans-Serif" font-size="10.00">Simple&#45;Utility/functional</text>
<text text-anchor="middle" x="192.48" y="-342" font-family="Helvetica,sans-Serif" font-size="10.00">/arithmetic.hpp</text>
</a>
</g>
</g>
<!-- Node2 -->
<g id="node2" class="node">
<title>Node2</title>
<g id="a_node2"><a xlink:href="../../dd/dcd/operators_8hpp.html" target="_top" xlink:title=" ">
<polygon fill="white" stroke="#666666" points="182.36,-298.75 60.61,-298.75 60.61,-265.25 182.36,-265.25 182.36,-298.75"/>
<text text-anchor="start" x="68.61" y="-285.25" font-family="Helvetica,sans-Serif" font-size="10.00">Simple&#45;Utility/concepts</text>
<text text-anchor="middle" x="121.48" y="-272.5" font-family="Helvetica,sans-Serif" font-size="10.00">/operators.hpp</text>
</a>
</g>
</g>
<!-- Node1&#45;&gt;Node2 -->
<g id="edge1" class="edge">
<title>Node1&#45;&gt;Node2</title>
<path fill="none" stroke="#63b8ff" d="M175.65,-334.5C166.81,-326.1 155.81,-315.64 146.03,-306.34"/>
<polygon fill="#63b8ff" stroke="#63b8ff" points="148.84,-304.24 139.19,-299.88 144.02,-309.31 148.84,-304.24"/>
</g>
<!-- Node4 -->
<g id="node4" class="node">
<title>Node4</title>
<g id="a_node4"><a xlink:href="../../d6/deb/transform_8hpp.html" target="_top" xlink:title=" ">
<polygon fill="white" stroke="#666666" points="471.98,-298.75 344.98,-298.75 344.98,-265.25 471.98,-265.25 471.98,-298.75"/>
<text text-anchor="start" x="352.98" y="-285.25" font-family="Helvetica,sans-Serif" font-size="10.00">Simple&#45;Utility/functional</text>
<text text-anchor="middle" x="408.48" y="-272.5" font-family="Helvetica,sans-Serif" font-size="10.00">/transform.hpp</text>
</a>
</g>
</g>
<!-- Node1&#45;&gt;Node4 -->
<g id="edge3" class="edge">
<title>Node1&#45;&gt;Node4</title>
<path fill="none" stroke="#63b8ff" d="M244.22,-334.33C274.96,-324.72 314.15,-312.48 346.53,-302.36"/>
<polygon fill="#63b8ff" stroke="#63b8ff" points="347.29,-305.48 355.79,-299.15 345.2,-298.79 347.29,-305.48"/>
</g>
<!-- Node3 -->
<g id="node3" class="node">
<title>Node3</title>
<g id="a_node3"><a xlink:title=" ">
<polygon fill="#e0e0e0" stroke="#999999" points="315.73,-20.75 259.23,-20.75 259.23,0 315.73,0 315.73,-20.75"/>
<text text-anchor="middle" x="287.48" y="-7.25" font-family="Helvetica,sans-Serif" font-size="10.00">concepts</text>
</a>
</g>
</g>
<!-- Node2&#45;&gt;Node3 -->
<g id="edge2" class="edge">
<title>Node2&#45;&gt;Node3</title>
<path fill="none" stroke="#63b8ff" d="M103.04,-264.99C60.06,-225.8 -38.92,-123.42 17.48,-56.75 46.56,-22.37 180.47,-14.03 248.13,-12.01"/>
<polygon fill="#63b8ff" stroke="#63b8ff" points="247.88,-15.49 257.78,-11.73 247.69,-8.49 247.88,-15.49"/>
</g>
<!-- Node5 -->
<g id="node5" class="node">
<title>Node5</title>
<g id="a_node5"><a xlink:href="../../d4/d1c/unified__base_8hpp.html" target="_top" xlink:title=" ">
<polygon fill="white" stroke="#666666" points="701.48,-90.25 589.48,-90.25 589.48,-56.75 701.48,-56.75 701.48,-90.25"/>
<text text-anchor="start" x="597.48" y="-76.75" font-family="Helvetica,sans-Serif" font-size="10.00">Simple&#45;Utility/unified</text>
<text text-anchor="middle" x="645.48" y="-64" font-family="Helvetica,sans-Serif" font-size="10.00">_base.hpp</text>
</a>
</g>
</g>
<!-- Node4&#45;&gt;Node5 -->
<g id="edge4" class="edge">
<title>Node4&#45;&gt;Node5</title>
<path fill="none" stroke="#63b8ff" d="M472.48,-273.9C529.23,-266.22 606.18,-251.93 626.48,-229.25 657.94,-194.09 655.37,-135.07 650.52,-100.98"/>
<polygon fill="#63b8ff" stroke="#63b8ff" points="653.87,-100.77 648.84,-91.45 646.96,-101.88 653.87,-100.77"/>
</g>
<!-- Node7 -->
<g id="node7" class="node">
<title>Node7</title>
<g id="a_node7"><a xlink:href="../../d1/d76/functional_2base_8hpp.html" target="_top" xlink:title=" ">
<polygon fill="white" stroke="#666666" points="431.98,-159.75 304.98,-159.75 304.98,-126.25 431.98,-126.25 431.98,-159.75"/>
<text text-anchor="start" x="312.98" y="-146.25" font-family="Helvetica,sans-Serif" font-size="10.00">Simple&#45;Utility/functional</text>
<text text-anchor="middle" x="368.48" y="-133.5" font-family="Helvetica,sans-Serif" font-size="10.00">/base.hpp</text>
</a>
</g>
</g>
<!-- Node4&#45;&gt;Node7 -->
<g id="edge7" class="edge">
<title>Node4&#45;&gt;Node7</title>
<path fill="none" stroke="#63b8ff" d="M372.76,-264.97C358.44,-256.54 343.47,-244.71 335.48,-229.25 325.3,-209.56 336.05,-185.98 347.92,-168.62"/>
<polygon fill="#63b8ff" stroke="#63b8ff" points="351.04,-171.29 354.13,-161.16 345.39,-167.15 351.04,-171.29"/>
</g>
<!-- Node12 -->
<g id="node12" class="node">
<title>Node12</title>
<g id="a_node12"><a xlink:href="../../d9/d76/bind_8hpp.html" target="_top" xlink:title=" ">
<polygon fill="white" stroke="#666666" points="616.98,-229.25 489.98,-229.25 489.98,-195.75 616.98,-195.75 616.98,-229.25"/>
<text text-anchor="start" x="497.98" y="-215.75" font-family="Helvetica,sans-Serif" font-size="10.00">Simple&#45;Utility/functional</text>
<text text-anchor="middle" x="553.48" y="-203" font-family="Helvetica,sans-Serif" font-size="10.00">/operators/bind.hpp</text>
</a>
</g>
</g>
<!-- Node4&#45;&gt;Node12 -->
<g id="edge17" class="edge">
<title>Node4&#45;&gt;Node12</title>
<path fill="none" stroke="#63b8ff" d="M443.21,-264.83C462.96,-255.64 487.89,-244.03 509.05,-234.18"/>
<polygon fill="#63b8ff" stroke="#63b8ff" points="510.19,-237.05 517.78,-229.65 507.24,-230.7 510.19,-237.05"/>
</g>
<!-- Node16 -->
<g id="node16" class="node">
<title>Node16</title>
<g id="a_node16"><a xlink:href="../../d5/db7/pipe_8hpp.html" target="_top" xlink:title=" ">
<polygon fill="white" stroke="#666666" points="471.98,-229.25 344.98,-229.25 344.98,-195.75 471.98,-195.75 471.98,-229.25"/>
<text text-anchor="start" x="352.98" y="-215.75" font-family="Helvetica,sans-Serif" font-size="10.00">Simple&#45;Utility/functional</text>
<text text-anchor="middle" x="408.48" y="-203" font-family="Helvetica,sans-Serif" font-size="10.00">/operators/pipe.hpp</text>
</a>
</g>
</g>
<!-- Node4&#45;&gt;Node16 -->
<g id="edge24" class="edge">
<title>Node4&#45;&gt;Node16</title>
<path fill="none" stroke="#63b8ff" d="M408.48,-265C408.48,-257.61 408.48,-248.62 408.48,-240.23"/>
<polygon fill="#63b8ff" stroke="#63b8ff" points="411.98,-240.38 408.48,-230.38 404.98,-240.38 411.98,-240.38"/>
</g>
<!-- Node5&#45;&gt;Node3 -->
<g id="edge5" class="edge">
<title>Node5&#45;&gt;Node3</title>
<path fill="none" stroke="#63b8ff" d="M589.15,-62.88C515.96,-50.39 390.06,-28.89 326.54,-18.04"/>
<polygon fill="#63b8ff" stroke="#63b8ff" points="327.25,-14.44 316.8,-16.21 326.07,-21.34 327.25,-14.44"/>
</g>
<!-- Node6 -->
<g id="node6" class="node">
<title>Node6</title>
<g id="a_node6"><a xlink:title=" ">
<polygon fill="#e0e0e0" stroke="#999999" points="677.48,-20.75 613.48,-20.75 613.48,0 677.48,0 677.48,-20.75"/>
<text text-anchor="middle" x="645.48" y="-7.25" font-family="Helvetica,sans-Serif" font-size="10.00">type_traits</text>
</a>
</g>
</g>
<!-- Node5&#45;&gt;Node6 -->
<g id="edge6" class="edge">
<title>Node5&#45;&gt;Node6</title>
<path fill="none" stroke="#63b8ff" d="M645.48,-56.44C645.48,-49.02 645.48,-40.11 645.48,-32.18"/>
<polygon fill="#63b8ff" stroke="#63b8ff" points="648.98,-32.22 645.48,-22.22 641.98,-32.22 648.98,-32.22"/>
</g>
<!-- Node7&#45;&gt;Node3 -->
<g id="edge8" class="edge">
<title>Node7&#45;&gt;Node3</title>
<path fill="none" stroke="#63b8ff" d="M304.54,-141.64C217.02,-139.64 66.82,-130.29 32.48,-90.25 -27.94,-19.81 162.21,-11.31 247.88,-10.95"/>
<polygon fill="#63b8ff" stroke="#63b8ff" points="247.76,-14.45 257.76,-10.94 247.76,-7.45 247.76,-14.45"/>
</g>
<!-- Node7&#45;&gt;Node5 -->
<g id="edge12" class="edge">
<title>Node7&#45;&gt;Node5</title>
<path fill="none" stroke="#63b8ff" d="M432.38,-126.43C476.31,-115.72 534.51,-101.54 578.99,-90.7"/>
<polygon fill="#63b8ff" stroke="#63b8ff" points="579.52,-93.93 588.41,-88.16 577.87,-87.13 579.52,-93.93"/>
</g>
<!-- Node7&#45;&gt;Node6 -->
<g id="edge10" class="edge">
<title>Node7&#45;&gt;Node6</title>
<path fill="none" stroke="#63b8ff" d="M432.29,-130.02C466.4,-121.92 508.29,-109.18 542.48,-90.25 562.18,-79.34 562.78,-70.66 580.48,-56.75 593.67,-46.38 609.04,-35.6 621.52,-27.15"/>
<polygon fill="#63b8ff" stroke="#63b8ff" points="623.06,-29.66 629.42,-21.18 619.17,-23.84 623.06,-29.66"/>
</g>
<!-- Node8 -->
<g id="node8" class="node">
<title>Node8</title>
<g id="a_node8"><a xlink:title=" ">
<polygon fill="#e0e0e0" stroke="#999999" points="243.36,-83.88 181.61,-83.88 181.61,-63.12 243.36,-63.12 243.36,-83.88"/>
<text text-anchor="middle" x="212.48" y="-70.38" font-family="Helvetica,sans-Serif" font-size="10.00">functional</text>
</a>
</g>
</g>
<!-- Node7&#45;&gt;Node8 -->
<g id="edge9" class="edge">
<title>Node7&#45;&gt;Node8</title>
<path fill="none" stroke="#63b8ff" d="M331.11,-125.83C304.81,-114.45 269.96,-99.37 244.84,-88.5"/>
<polygon fill="#63b8ff" stroke="#63b8ff" points="246.63,-85.03 236.06,-84.27 243.85,-91.45 246.63,-85.03"/>
</g>
<!-- Node9 -->
<g id="node9" class="node">
<title>Node9</title>
<g id="a_node9"><a xlink:href="../../d8/dd2/_config_8hpp.html" target="_top" xlink:title=" ">
<polygon fill="white" stroke="#666666" points="393.61,-83.88 261.36,-83.88 261.36,-63.12 393.61,-63.12 393.61,-83.88"/>
<text text-anchor="middle" x="327.48" y="-70.38" font-family="Helvetica,sans-Serif" font-size="10.00">Simple&#45;Utility/Config.hpp</text>
</a>
</g>
</g>
<!-- Node7&#45;&gt;Node9 -->
<g id="edge11" class="edge">
<title>Node7&#45;&gt;Node9</title>
<path fill="none" stroke="#63b8ff" d="M358.76,-126C352.87,-116.3 345.31,-103.85 339.1,-93.62"/>
<polygon fill="#63b8ff" stroke="#63b8ff" points="341.63,-92.05 333.45,-85.32 335.65,-95.69 341.63,-92.05"/>
</g>
<!-- Node10 -->
<g id="node10" class="node">
<title>Node10</title>
<g id="a_node10"><a xlink:href="../../dd/d5c/stl__extensions_8hpp.html" target="_top" xlink:title=" ">
<polygon fill="white" stroke="#666666" points="533.36,-90.25 411.61,-90.25 411.61,-56.75 533.36,-56.75 533.36,-90.25"/>
<text text-anchor="start" x="419.61" y="-76.75" font-family="Helvetica,sans-Serif" font-size="10.00">Simple&#45;Utility/concepts</text>
<text text-anchor="middle" x="472.48" y="-64" font-family="Helvetica,sans-Serif" font-size="10.00">/stl_extensions.hpp</text>
</a>
</g>
</g>
<!-- Node7&#45;&gt;Node10 -->
<g id="edge13" class="edge">
<title>Node7&#45;&gt;Node10</title>
<path fill="none" stroke="#63b8ff" d="M393.39,-125.83C407.03,-116.98 424.11,-105.89 438.91,-96.29"/>
<polygon fill="#63b8ff" stroke="#63b8ff" points="440.29,-98.92 446.77,-90.54 436.48,-93.04 440.29,-98.92"/>
</g>
<!-- Node11 -->
<g id="node11" class="node">
<title>Node11</title>
<g id="a_node11"><a xlink:href="../../d5/d8e/concepts_2utility_8hpp.html" target="_top" xlink:title=" ">
<polygon fill="white" stroke="#666666" points="163.36,-90.25 41.61,-90.25 41.61,-56.75 163.36,-56.75 163.36,-90.25"/>
<text text-anchor="start" x="49.61" y="-76.75" font-family="Helvetica,sans-Serif" font-size="10.00">Simple&#45;Utility/concepts</text>
<text text-anchor="middle" x="102.48" y="-64" font-family="Helvetica,sans-Serif" font-size="10.00">/utility.hpp</text>
</a>
</g>
</g>
<!-- Node7&#45;&gt;Node11 -->
<g id="edge15" class="edge">
<title>Node7&#45;&gt;Node11</title>
<path fill="none" stroke="#63b8ff" d="M304.77,-125.83C265.54,-115.88 215.17,-103.1 174.5,-92.78"/>
<polygon fill="#63b8ff" stroke="#63b8ff" points="175.4,-89.14 164.84,-90.07 173.67,-95.92 175.4,-89.14"/>
</g>
<!-- Node10&#45;&gt;Node3 -->
<g id="edge14" class="edge">
<title>Node10&#45;&gt;Node3</title>
<path fill="none" stroke="#63b8ff" d="M423.39,-56.28C393.02,-46.24 354.57,-33.54 326.32,-24.21"/>
<polygon fill="#63b8ff" stroke="#63b8ff" points="327.63,-20.62 317.03,-20.81 325.43,-27.27 327.63,-20.62"/>
</g>
<!-- Node11&#45;&gt;Node3 -->
<g id="edge16" class="edge">
<title>Node11&#45;&gt;Node3</title>
<path fill="none" stroke="#63b8ff" d="M151.57,-56.28C181.95,-46.24 220.4,-33.54 248.64,-24.21"/>
<polygon fill="#63b8ff" stroke="#63b8ff" points="249.53,-27.27 257.93,-20.81 247.34,-20.62 249.53,-27.27"/>
</g>
<!-- Node12&#45;&gt;Node7 -->
<g id="edge18" class="edge">
<title>Node12&#45;&gt;Node7</title>
<path fill="none" stroke="#63b8ff" d="M509.17,-195.33C483.29,-185.89 450.43,-173.9 422.98,-163.89"/>
<polygon fill="#63b8ff" stroke="#63b8ff" points="424.35,-160.29 413.75,-160.15 421.95,-166.87 424.35,-160.29"/>
</g>
<!-- Node13 -->
<g id="node13" class="node">
<title>Node13</title>
<g id="a_node13"><a xlink:href="../../d2/d30/general_8hpp.html" target="_top" xlink:title=" ">
<polygon fill="white" stroke="#666666" points="800.73,-159.75 696.23,-159.75 696.23,-126.25 800.73,-126.25 800.73,-159.75"/>
<text text-anchor="start" x="704.23" y="-146.25" font-family="Helvetica,sans-Serif" font-size="10.00">Simple&#45;Utility/tuple</text>
<text text-anchor="middle" x="748.48" y="-133.5" font-family="Helvetica,sans-Serif" font-size="10.00">/general.hpp</text>
</a>
</g>
</g>
<!-- Node12&#45;&gt;Node13 -->
<g id="edge19" class="edge">
<title>Node12&#45;&gt;Node13</title>
<path fill="none" stroke="#63b8ff" d="M600.19,-195.33C627.7,-185.81 662.71,-173.69 691.8,-163.62"/>
<polygon fill="#63b8ff" stroke="#63b8ff" points="692.51,-166.73 700.82,-160.15 690.22,-160.12 692.51,-166.73"/>
</g>
<!-- Node13&#45;&gt;Node3 -->
<g id="edge20" class="edge">
<title>Node13&#45;&gt;Node3</title>
<path fill="none" stroke="#63b8ff" d="M746.17,-125.79C742.42,-106 733.01,-73.15 710.48,-56.75 649.93,-12.68 419.87,-9.96 326.86,-10.73"/>
<polygon fill="#63b8ff" stroke="#63b8ff" points="326.92,-7.24 316.96,-10.84 326.99,-14.24 326.92,-7.24"/>
</g>
<!-- Node13&#45;&gt;Node6 -->
<g id="edge22" class="edge">
<title>Node13&#45;&gt;Node6</title>
<path fill="none" stroke="#63b8ff" d="M752.08,-126C755.27,-107.62 757.5,-77.34 743.48,-56.75 730.72,-38.01 708.15,-26.85 687.88,-20.29"/>
<polygon fill="#63b8ff" stroke="#63b8ff" points="689.14,-16.72 678.56,-17.26 687.17,-23.44 689.14,-16.72"/>
</g>
<!-- Node14 -->
<g id="node14" class="node">
<title>Node14</title>
<g id="a_node14"><a xlink:title=" ">
<polygon fill="#e0e0e0" stroke="#999999" points="835.11,-83.88 795.86,-83.88 795.86,-63.12 835.11,-63.12 835.11,-83.88"/>
<text text-anchor="middle" x="815.48" y="-70.38" font-family="Helvetica,sans-Serif" font-size="10.00">tuple</text>
</a>
</g>
</g>
<!-- Node13&#45;&gt;Node14 -->
<g id="edge21" class="edge">
<title>Node13&#45;&gt;Node14</title>
<path fill="none" stroke="#63b8ff" d="M764.36,-126C774.5,-115.79 787.64,-102.55 798.07,-92.04"/>
<polygon fill="#63b8ff" stroke="#63b8ff" points="800.17,-94.88 804.73,-85.32 795.2,-89.95 800.17,-94.88"/>
</g>
<!-- Node15 -->
<g id="node15" class="node">
<title>Node15</title>
<g id="a_node15"><a xlink:title=" ">
<polygon fill="#e0e0e0" stroke="#999999" points="893.86,-83.88 853.11,-83.88 853.11,-63.12 893.86,-63.12 893.86,-83.88"/>
<text text-anchor="middle" x="873.48" y="-70.38" font-family="Helvetica,sans-Serif" font-size="10.00">utility</text>
</a>
</g>
</g>
<!-- Node13&#45;&gt;Node15 -->
<g id="edge23" class="edge">
<title>Node13&#45;&gt;Node15</title>
<path fill="none" stroke="#63b8ff" d="M778.33,-125.94C797.29,-115.73 822.33,-102.23 844.48,-90.25 844.92,-90.01 845.37,-89.77 845.81,-89.53"/>
<polygon fill="#63b8ff" stroke="#63b8ff" points="847.26,-92.18 854.39,-84.34 843.93,-86.03 847.26,-92.18"/>
</g>
<!-- Node16&#45;&gt;Node7 -->
<g id="edge25" class="edge">
<title>Node16&#45;&gt;Node7</title>
<path fill="none" stroke="#63b8ff" d="M399,-195.5C394.37,-187.69 388.68,-178.09 383.48,-169.31"/>
<polygon fill="#63b8ff" stroke="#63b8ff" points="386,-167.7 377.89,-160.88 379.98,-171.27 386,-167.7"/>
</g>
<!-- Node16&#45;&gt;Node13 -->
<g id="edge26" class="edge">
<title>Node16&#45;&gt;Node13</title>
<path fill="none" stroke="#63b8ff" d="M472.17,-197.68C475.31,-197.02 478.43,-196.37 481.48,-195.75 551.19,-181.48 631.36,-166.07 685.51,-155.82"/>
<polygon fill="#63b8ff" stroke="#63b8ff" points="685.8,-159.14 694.98,-153.84 684.5,-152.26 685.8,-159.14"/>
</g>
</g>
</svg>
        <g id="navigator" transform="translate(0 0)" fill="#404254">
                <rect fill="#f2f5e9" fill-opacity="0.5" stroke="#606060" stroke-width=".5" x="0" y="0" width="60" height="60"/>
                <use id="zoomplus" xlink:href="#zoomPlus" x="17" y="9" onmousedown="handleZoom(evt,'in')"/>
                <use id="zoomminus" xlink:href="#zoomMin" x="42" y="9" onmousedown="handleZoom(evt,'out')"/>
                <use id="reset" xlink:href="#resetDef" x="30" y="36" onmousedown="handleReset()"/>
                <g id="arrowUp" xlink:href="#dirArrow" transform="translate(30 24)" onmousedown="handlePan(0,-1)">
                  <use xlink:href="#rim" fill="#404040">
                        <set attributeName="fill" to="#808080" begin="arrowUp.mouseover" end="arrowUp.mouseout"/>
                  </use>
                  <path fill="none" stroke="white" stroke-width="1.5" d="M0,-3.0v7 M-2.5,-0.5L0,-3.0L2.5,-0.5"/>
                </g>
                <g id="arrowRight" xlink:href="#dirArrow" transform="rotate(90) translate(36 -43)" onmousedown="handlePan(1,0)">
                  <use xlink:href="#rim" fill="#404040">
                        <set attributeName="fill" to="#808080" begin="arrowRight.mouseover" end="arrowRight.mouseout"/>
                  </use>
                  <path fill="none" stroke="white" stroke-width="1.5" d="M0,-3.0v7 M-2.5,-0.5L0,-3.0L2.5,-0.5"/>
                </g>
                <g id="arrowDown" xlink:href="#dirArrow" transform="rotate(180) translate(-30 -48)" onmousedown="handlePan(0,1)">
                  <use xlink:href="#rim" fill="#404040">
                        <set attributeName="fill" to="#808080" begin="arrowDown.mouseover" end="arrowDown.mouseout"/>
                  </use>
                  <path fill="none" stroke="white" stroke-width="1.5" d="M0,-3.0v7 M-2.5,-0.5L0,-3.0L2.5,-0.5"/>
                </g>
                <g id="arrowLeft" xlink:href="#dirArrow" transform="rotate(270) translate(-36 17)" onmousedown="handlePan(-1,0)">
                  <use xlink:href="#rim" fill="#404040">
                        <set attributeName="fill" to="#808080" begin="arrowLeft.mouseover" end="arrowLeft.mouseout"/>
                  </use>
                  <path fill="none" stroke="white" stroke-width="1.5" d="M0,-3.0v7 M-2.5,-0.5L0,-3.0L2.5,-0.5"/>
                </g>
        </g>
        <svg viewBox="0 0 15 15" width="100%" height="30px" preserveAspectRatio="xMaxYMin meet">
         <g id="arrow_out" transform="scale(0.3 0.3)">
          <a xlink:href="arithmetic_8hpp__incl_org.svg" target="_base">
           <rect id="button" ry="5" rx="5" y="6" x="6" height="38" width="38"
                fill="#f2f5e9" fill-opacity="0.5" stroke="#606060" stroke-width="1.0"/>
           <path id="arrow"
             d="M 11.500037,31.436501 C 11.940474,20.09759 22.043105,11.32322 32.158766,21.979434 L 37.068811,17.246167 C 37.068811,17.246167 37.088388,32 37.088388,32 L 22.160133,31.978069 C 22.160133,31.978069 26.997745,27.140456 26.997745,27.140456 C 18.528582,18.264221 13.291696,25.230495 11.500037,31.436501 z"
             style="fill:#404040;"/>
          </a>
         </g>
        </svg>
</svg>
