<?xml version="1.0" encoding="UTF-8" standalone="no"?>
<!DOCTYPE svg PUBLIC "-//W3C//DTD SVG 1.1//EN"
 "http://www.w3.org/Graphics/SVG/1.1/DTD/svg11.dtd">
<!-- Generated by graphviz version 2.43.0 (0)
 -->
<!-- Title: sl::tuple::is_nothrow_apply_invocable&lt; TFunc, TTuple &gt; Pages: 1 -->
<svg width="862pt" height="78pt"
 viewBox="0.00 0.00 862.00 77.50" xmlns="http://www.w3.org/2000/svg" xmlns:xlink="http://www.w3.org/1999/xlink">
<g id="graph0" class="graph" transform="scale(1 1) rotate(0) translate(4 73.5)">
<title>sl::tuple::is_nothrow_apply_invocable&lt; TFunc, TTuple &gt;</title>
<polygon fill="white" stroke="transparent" points="-4,4 -4,-73.5 858,-73.5 858,4 -4,4"/>
<!-- Node1 -->
<g id="node1" class="node">
<title>Node1</title>
<g id="a_node1"><a xlink:title="Trait type determining whether the function is invocable with elements of the given tuple without thr...">
<polygon fill="#bfbfbf" stroke="black" points="710,-17 710,-58 854,-58 854,-17 710,-17"/>
<text text-anchor="start" x="718" y="-46" font-family="Helvetica,sans-Serif" font-size="10.00">sl::tuple::is_nothrow</text>
<text text-anchor="start" x="718" y="-35" font-family="Helvetica,sans-Serif" font-size="10.00">_apply_invocable&lt; TFunc,</text>
<text text-anchor="middle" x="782" y="-24" font-family="Helvetica,sans-Serif" font-size="10.00"> TTuple &gt;</text>
</a>
</g>
</g>
<!-- Node2 -->
<g id="node2" class="node">
<title>Node2</title>
<g id="a_node2"><a xlink:title=" ">
<polygon fill="white" stroke="#bfbfbf" points="515,-6 515,-69 673,-69 673,-6 515,-6"/>
<text text-anchor="start" x="523" y="-57" font-family="Helvetica,sans-Serif" font-size="10.00">sl::tuple::detail::</text>
<text text-anchor="start" x="523" y="-46" font-family="Helvetica,sans-Serif" font-size="10.00">is_nothrow_apply_invocable</text>
<text text-anchor="start" x="523" y="-35" font-family="Helvetica,sans-Serif" font-size="10.00">&lt; TFunc, TTuple, std::make</text>
<text text-anchor="start" x="523" y="-24" font-family="Helvetica,sans-Serif" font-size="10.00">_index_sequence&lt; std::tuple</text>
<text text-anchor="middle" x="594" y="-13" font-family="Helvetica,sans-Serif" font-size="10.00">_size_v&lt; TTuple &gt; &gt; &gt;</text>
</a>
</g>
</g>
<!-- Node2&#45;&gt;Node1 -->
<g id="edge1" class="edge">
<title>Node2&#45;&gt;Node1</title>
<path fill="none" stroke="midnightblue" d="M683.16,-37.5C692.14,-37.5 701.18,-37.5 709.94,-37.5"/>
<polygon fill="midnightblue" stroke="midnightblue" points="683.07,-34 673.07,-37.5 683.07,-41 683.07,-34"/>
</g>
<!-- Node3 -->
<g id="node3" class="node">
<title>Node3</title>
<g id="a_node3"><a xlink:title=" ">
<polygon fill="white" stroke="#bfbfbf" points="0,-30 0,-49 89,-49 89,-30 0,-30"/>
<text text-anchor="middle" x="44.5" y="-37" font-family="Helvetica,sans-Serif" font-size="10.00">std::false_type</text>
</a>
</g>
</g>
<!-- Node3&#45;&gt;Node2 -->
<g id="edge2" class="edge">
<title>Node3&#45;&gt;Node2</title>
<path fill="none" stroke="midnightblue" d="M99.27,-45.02C101.88,-45.2 104.47,-45.37 107,-45.5 280.09,-54.71 323.9,-56.49 497,-47.5 502.86,-47.2 508.91,-46.79 514.99,-46.31"/>
<polygon fill="midnightblue" stroke="midnightblue" points="99.38,-41.52 89.14,-44.24 98.84,-48.5 99.38,-41.52"/>
</g>
<!-- Node4 -->
<g id="node4" class="node">
<title>Node4</title>
<g id="a_node4"><a xlink:title=" ">
<polygon fill="white" stroke="#bfbfbf" points="126,-0.5 126,-30.5 309,-30.5 309,-0.5 126,-0.5"/>
<text text-anchor="start" x="134" y="-18.5" font-family="Helvetica,sans-Serif" font-size="10.00">sl::tuple::detail::</text>
<text text-anchor="middle" x="217.5" y="-7.5" font-family="Helvetica,sans-Serif" font-size="10.00">is_nothrow_apply_invocable&lt;... &gt;</text>
</a>
</g>
</g>
<!-- Node3&#45;&gt;Node4 -->
<g id="edge4" class="edge">
<title>Node3&#45;&gt;Node4</title>
<path fill="none" stroke="midnightblue" d="M99.17,-31.97C107.66,-30.78 116.63,-29.52 125.68,-28.25"/>
<polygon fill="midnightblue" stroke="midnightblue" points="98.51,-28.53 89.09,-33.38 99.48,-35.46 98.51,-28.53"/>
</g>
<!-- Node4&#45;&gt;Node2 -->
<g id="edge3" class="edge">
<title>Node4&#45;&gt;Node2</title>
<path fill="none" stroke="orange" stroke-dasharray="5,2" d="M319.21,-9.28C372.28,-7.48 438.36,-7.57 497,-14.5 502.87,-15.19 508.9,-16.12 514.95,-17.2"/>
<polygon fill="orange" stroke="orange" points="318.99,-5.79 309.12,-9.65 319.24,-12.78 318.99,-5.79"/>
<text text-anchor="start" x="327" y="-39.5" font-family="Helvetica,sans-Serif" font-size="10.00"> &lt; TFunc, TTuple, std</text>
<text text-anchor="start" x="327" y="-28.5" font-family="Helvetica,sans-Serif" font-size="10.00">::make_index_sequence</text>
<text text-anchor="middle" x="412" y="-17.5" font-family="Helvetica,sans-Serif" font-size="10.00">&lt; std::tuple_size_v&lt; TTuple &gt; &gt; &gt;</text>
</g>
</g>
</svg>
