<?xml version="1.0" encoding="UTF-8" standalone="no"?>
<!DOCTYPE svg PUBLIC "-//W3C//DTD SVG 1.1//EN"
 "http://www.w3.org/Graphics/SVG/1.1/DTD/svg11.dtd">
<!-- Generated by graphviz version 8.0.5 (20230430.1635)
 -->
<!-- Title: sl::tuple::is_nothrow_apply_invocable&lt; TFunc, TTuple &gt; Pages: 1 -->
<svg width="789pt" height="83pt"
 viewBox="0.00 0.00 788.75 82.62" xmlns="http://www.w3.org/2000/svg" xmlns:xlink="http://www.w3.org/1999/xlink">
<g id="graph0" class="graph" transform="scale(1 1) rotate(0) translate(4 78.62)">
<title>sl::tuple::is_nothrow_apply_invocable&lt; TFunc, TTuple &gt;</title>
<!-- Node1 -->
<g id="node1" class="node">
<title>Node1</title>
<g id="a_node1"><a xlink:title="Trait type determining whether the function is invocable with elements of the given tuple without thr...">
<polygon fill="#999999" stroke="#666666" points="780.75,-61.88 648.5,-61.88 648.5,-15.62 780.75,-15.62 780.75,-61.88"/>
<text text-anchor="start" x="656.5" y="-48.38" font-family="Helvetica,sans-Serif" font-size="10.00">sl::tuple::is_nothrow</text>
<text text-anchor="start" x="656.5" y="-35.62" font-family="Helvetica,sans-Serif" font-size="10.00">_apply_invocable&lt; TFunc,</text>
<text text-anchor="middle" x="714.62" y="-22.88" font-family="Helvetica,sans-Serif" font-size="10.00"> TTuple &gt;</text>
</a>
</g>
</g>
<!-- Node2 -->
<g id="node2" class="node">
<title>Node2</title>
<g id="a_node2"><a xlink:title=" ">
<polygon fill="white" stroke="#666666" points="611.5,-74.62 466.5,-74.62 466.5,-2.88 611.5,-2.88 611.5,-74.62"/>
<text text-anchor="start" x="474.5" y="-61.12" font-family="Helvetica,sans-Serif" font-size="10.00">sl::tuple::detail::</text>
<text text-anchor="start" x="474.5" y="-48.38" font-family="Helvetica,sans-Serif" font-size="10.00">is_nothrow_apply_invocable</text>
<text text-anchor="start" x="474.5" y="-35.62" font-family="Helvetica,sans-Serif" font-size="10.00">&lt; TFunc, TTuple, std::make</text>
<text text-anchor="start" x="474.5" y="-22.88" font-family="Helvetica,sans-Serif" font-size="10.00">_index_sequence&lt; std::tuple</text>
<text text-anchor="middle" x="539" y="-10.12" font-family="Helvetica,sans-Serif" font-size="10.00">_size_v&lt; TTuple &gt; &gt; &gt;</text>
</a>
</g>
</g>
<!-- Node2&#45;&gt;Node1 -->
<g id="edge1" class="edge">
<title>Node2&#45;&gt;Node1</title>
<path fill="none" stroke="#63b8ff" d="M622.67,-38.75C631.24,-38.75 639.86,-38.75 648.2,-38.75"/>
<polygon fill="#63b8ff" stroke="#63b8ff" points="622.87,-35.25 612.87,-38.75 622.87,-42.25 622.87,-35.25"/>
</g>
<!-- Node3 -->
<g id="node3" class="node">
<title>Node3</title>
<g id="a_node3"><a xlink:title=" ">
<polygon fill="white" stroke="#666666" points="81.25,-53.12 0,-53.12 0,-32.38 81.25,-32.38 81.25,-53.12"/>
<text text-anchor="middle" x="40.62" y="-39.62" font-family="Helvetica,sans-Serif" font-size="10.00">std::false_type</text>
</a>
</g>
</g>
<!-- Node3&#45;&gt;Node2 -->
<g id="edge2" class="edge">
<title>Node3&#45;&gt;Node2</title>
<path fill="none" stroke="#63b8ff" d="M92.43,-47.35C94.74,-47.5 97.02,-47.63 99.25,-47.75 254.26,-55.99 293.67,-62.94 448.5,-51.75 454.29,-51.33 460.28,-50.76 466.29,-50.09"/>
<polygon fill="#63b8ff" stroke="#63b8ff" points="92.82,-43.79 82.59,-46.57 92.31,-50.77 92.82,-43.79"/>
</g>
<!-- Node4 -->
<g id="node4" class="node">
<title>Node4</title>
<g id="a_node4"><a xlink:title=" ">
<polygon fill="white" stroke="#666666" points="284.25,-33.5 118.25,-33.5 118.25,0 284.25,0 284.25,-33.5"/>
<text text-anchor="start" x="126.25" y="-20" font-family="Helvetica,sans-Serif" font-size="10.00">sl::tuple::detail::</text>
<text text-anchor="middle" x="201.25" y="-7.25" font-family="Helvetica,sans-Serif" font-size="10.00">is_nothrow_apply_invocable&lt;... &gt;</text>
</a>
</g>
</g>
<!-- Node3&#45;&gt;Node4 -->
<g id="edge4" class="edge">
<title>Node3&#45;&gt;Node4</title>
<path fill="none" stroke="#63b8ff" d="M92.43,-34.42C100.57,-33.09 109.17,-31.68 117.82,-30.26"/>
<polygon fill="#63b8ff" stroke="#63b8ff" points="91.95,-31.12 82.65,-36.19 93.09,-38.03 91.95,-31.12"/>
</g>
<!-- Node4&#45;&gt;Node2 -->
<g id="edge3" class="edge">
<title>Node4&#45;&gt;Node2</title>
<path fill="none" stroke="orange" stroke-dasharray="5,2" d="M295.62,-8.93C341.82,-6.74 398.31,-6.56 448.5,-13.5 454.26,-14.3 460.17,-15.37 466.07,-16.62"/>
<polygon fill="orange" stroke="orange" points="295.52,-5.49 285.72,-9.5 295.88,-12.48 295.52,-5.49"/>
<text text-anchor="start" x="302.25" y="-42.5" font-family="Helvetica,sans-Serif" font-size="10.00"> &lt; TFunc, TTuple, std</text>
<text text-anchor="start" x="302.25" y="-29.75" font-family="Helvetica,sans-Serif" font-size="10.00">::make_index_sequence</text>
<text text-anchor="middle" x="375.38" y="-17" font-family="Helvetica,sans-Serif" font-size="10.00">&lt; std::tuple_size_v&lt; TTuple &gt; &gt; &gt;</text>
</g>
</g>
</svg>
