<?xml version="1.0" encoding="UTF-8" standalone="no"?>
<!DOCTYPE svg PUBLIC "-//W3C//DTD SVG 1.1//EN"
 "http://www.w3.org/Graphics/SVG/1.1/DTD/svg11.dtd">
<!-- Generated by graphviz version 2.43.0 (0)
 -->
<!-- Title: /home/runner/work/Simple&#45;Utility/Simple&#45;Utility/include/Simple&#45;Utility/nullables/base.hpp Pages: 1 -->
<svg width="1344pt" height="239pt"
 viewBox="0.00 0.00 1344.00 239.00" xmlns="http://www.w3.org/2000/svg" xmlns:xlink="http://www.w3.org/1999/xlink">
<g id="graph0" class="graph" transform="scale(1 1) rotate(0) translate(4 235)">
<title>/home/runner/work/Simple&#45;Utility/Simple&#45;Utility/include/Simple&#45;Utility/nullables/base.hpp</title>
<polygon fill="white" stroke="transparent" points="-4,4 -4,-235 1340,-235 1340,4 -4,4"/>
<!-- Node1 -->
<g id="node1" class="node">
<title>Node1</title>
<g id="a_node1"><a xlink:title=" ">
<polygon fill="#bfbfbf" stroke="black" points="530,-178.5 530,-230.5 676,-230.5 676,-178.5 530,-178.5"/>
<text text-anchor="start" x="538" y="-218.5" font-family="Helvetica,sans-Serif" font-size="10.00">/home/runner/work/Simple</text>
<text text-anchor="start" x="538" y="-207.5" font-family="Helvetica,sans-Serif" font-size="10.00">&#45;Utility/Simple&#45;Utility</text>
<text text-anchor="start" x="538" y="-196.5" font-family="Helvetica,sans-Serif" font-size="10.00">/include/Simple&#45;Utility</text>
<text text-anchor="middle" x="603" y="-185.5" font-family="Helvetica,sans-Serif" font-size="10.00">/nullables/base.hpp</text>
</a>
</g>
</g>
<!-- Node2 -->
<g id="node2" class="node">
<title>Node2</title>
<g id="a_node2"><a xlink:href="../../d6/dca/adapter_8hpp.html" target="_top" xlink:title=" ">
<polygon fill="white" stroke="black" points="0,-89.5 0,-141.5 146,-141.5 146,-89.5 0,-89.5"/>
<text text-anchor="start" x="8" y="-129.5" font-family="Helvetica,sans-Serif" font-size="10.00">/home/runner/work/Simple</text>
<text text-anchor="start" x="8" y="-118.5" font-family="Helvetica,sans-Serif" font-size="10.00">&#45;Utility/Simple&#45;Utility</text>
<text text-anchor="start" x="8" y="-107.5" font-family="Helvetica,sans-Serif" font-size="10.00">/include/Simple&#45;Utility</text>
<text text-anchor="middle" x="73" y="-96.5" font-family="Helvetica,sans-Serif" font-size="10.00">/nullables/adapter.hpp</text>
</a>
</g>
</g>
<!-- Node1&#45;&gt;Node2 -->
<g id="edge1" class="edge">
<title>Node1&#45;&gt;Node2</title>
<path fill="none" stroke="midnightblue" d="M519.82,-195.65C430.31,-186.34 284.09,-168.65 160,-142 155.54,-141.04 150.97,-139.97 146.38,-138.83"/>
<polygon fill="midnightblue" stroke="midnightblue" points="519.61,-199.14 529.91,-196.68 520.32,-192.18 519.61,-199.14"/>
</g>
<!-- Node3 -->
<g id="node3" class="node">
<title>Node3</title>
<g id="a_node3"><a xlink:href="../../d3/ddc/nullables_8hpp.html" target="_top" xlink:title=" ">
<polygon fill="white" stroke="black" points="448,-0.5 448,-52.5 594,-52.5 594,-0.5 448,-0.5"/>
<text text-anchor="start" x="456" y="-40.5" font-family="Helvetica,sans-Serif" font-size="10.00">/home/runner/work/Simple</text>
<text text-anchor="start" x="456" y="-29.5" font-family="Helvetica,sans-Serif" font-size="10.00">&#45;Utility/Simple&#45;Utility</text>
<text text-anchor="start" x="456" y="-18.5" font-family="Helvetica,sans-Serif" font-size="10.00">/include/Simple&#45;Utility</text>
<text text-anchor="middle" x="521" y="-7.5" font-family="Helvetica,sans-Serif" font-size="10.00">/nullables.hpp</text>
</a>
</g>
</g>
<!-- Node1&#45;&gt;Node3 -->
<g id="edge15" class="edge">
<title>Node1&#45;&gt;Node3</title>
<path fill="none" stroke="midnightblue" d="M519.7,-203.29C412.27,-201.04 234.29,-189.95 193,-142 119.1,-56.19 330.02,-34.66 447.73,-29.28"/>
<polygon fill="midnightblue" stroke="midnightblue" points="519.81,-206.79 529.87,-203.48 519.94,-199.79 519.81,-206.79"/>
</g>
<!-- Node4 -->
<g id="node4" class="node">
<title>Node4</title>
<g id="a_node4"><a xlink:href="../../d4/dc9/and__then_8hpp.html" target="_top" xlink:title=" ">
<polygon fill="white" stroke="black" points="202,-89.5 202,-141.5 348,-141.5 348,-89.5 202,-89.5"/>
<text text-anchor="start" x="210" y="-129.5" font-family="Helvetica,sans-Serif" font-size="10.00">/home/runner/work/Simple</text>
<text text-anchor="start" x="210" y="-118.5" font-family="Helvetica,sans-Serif" font-size="10.00">&#45;Utility/Simple&#45;Utility</text>
<text text-anchor="start" x="210" y="-107.5" font-family="Helvetica,sans-Serif" font-size="10.00">/include/Simple&#45;Utility</text>
<text text-anchor="middle" x="275" y="-96.5" font-family="Helvetica,sans-Serif" font-size="10.00">/nullables/and_then.hpp</text>
</a>
</g>
</g>
<!-- Node1&#45;&gt;Node4 -->
<g id="edge3" class="edge">
<title>Node1&#45;&gt;Node4</title>
<path fill="none" stroke="midnightblue" d="M519.8,-183.94C471.99,-172.39 410.92,-157.11 357,-142 354.13,-141.2 351.21,-140.36 348.26,-139.51"/>
<polygon fill="midnightblue" stroke="midnightblue" points="519.25,-187.41 529.79,-186.34 520.89,-180.6 519.25,-187.41"/>
</g>
<!-- Node5 -->
<g id="node5" class="node">
<title>Node5</title>
<g id="a_node5"><a xlink:href="../../d7/d5f/fwd__value_8hpp.html" target="_top" xlink:title=" ">
<polygon fill="white" stroke="black" points="366,-89.5 366,-141.5 512,-141.5 512,-89.5 366,-89.5"/>
<text text-anchor="start" x="374" y="-129.5" font-family="Helvetica,sans-Serif" font-size="10.00">/home/runner/work/Simple</text>
<text text-anchor="start" x="374" y="-118.5" font-family="Helvetica,sans-Serif" font-size="10.00">&#45;Utility/Simple&#45;Utility</text>
<text text-anchor="start" x="374" y="-107.5" font-family="Helvetica,sans-Serif" font-size="10.00">/include/Simple&#45;Utility</text>
<text text-anchor="middle" x="439" y="-96.5" font-family="Helvetica,sans-Serif" font-size="10.00">/nullables/fwd_value.hpp</text>
</a>
</g>
</g>
<!-- Node1&#45;&gt;Node5 -->
<g id="edge5" class="edge">
<title>Node1&#45;&gt;Node5</title>
<path fill="none" stroke="midnightblue" d="M546.7,-173.64C527.04,-163.2 505.19,-151.61 486.33,-141.61"/>
<polygon fill="midnightblue" stroke="midnightblue" points="545.09,-176.74 555.56,-178.34 548.37,-170.56 545.09,-176.74"/>
</g>
<!-- Node6 -->
<g id="node6" class="node">
<title>Node6</title>
<g id="a_node6"><a xlink:href="../../d2/d0e/or__else_8hpp.html" target="_top" xlink:title=" ">
<polygon fill="white" stroke="black" points="530,-89.5 530,-141.5 676,-141.5 676,-89.5 530,-89.5"/>
<text text-anchor="start" x="538" y="-129.5" font-family="Helvetica,sans-Serif" font-size="10.00">/home/runner/work/Simple</text>
<text text-anchor="start" x="538" y="-118.5" font-family="Helvetica,sans-Serif" font-size="10.00">&#45;Utility/Simple&#45;Utility</text>
<text text-anchor="start" x="538" y="-107.5" font-family="Helvetica,sans-Serif" font-size="10.00">/include/Simple&#45;Utility</text>
<text text-anchor="middle" x="603" y="-96.5" font-family="Helvetica,sans-Serif" font-size="10.00">/nullables/or_else.hpp</text>
</a>
</g>
</g>
<!-- Node1&#45;&gt;Node6 -->
<g id="edge7" class="edge">
<title>Node1&#45;&gt;Node6</title>
<path fill="none" stroke="midnightblue" d="M603,-168.19C603,-159.28 603,-149.9 603,-141.61"/>
<polygon fill="midnightblue" stroke="midnightblue" points="599.5,-168.34 603,-178.34 606.5,-168.34 599.5,-168.34"/>
</g>
<!-- Node7 -->
<g id="node7" class="node">
<title>Node7</title>
<g id="a_node7"><a xlink:href="../../d9/d20/std__optional_8hpp.html" target="_top" xlink:title=" ">
<polygon fill="white" stroke="black" points="694,-89.5 694,-141.5 842,-141.5 842,-89.5 694,-89.5"/>
<text text-anchor="start" x="702" y="-129.5" font-family="Helvetica,sans-Serif" font-size="10.00">/home/runner/work/Simple</text>
<text text-anchor="start" x="702" y="-118.5" font-family="Helvetica,sans-Serif" font-size="10.00">&#45;Utility/Simple&#45;Utility</text>
<text text-anchor="start" x="702" y="-107.5" font-family="Helvetica,sans-Serif" font-size="10.00">/include/Simple&#45;Utility</text>
<text text-anchor="middle" x="768" y="-96.5" font-family="Helvetica,sans-Serif" font-size="10.00">/nullables/std_optional.hpp</text>
</a>
</g>
</g>
<!-- Node1&#45;&gt;Node7 -->
<g id="edge9" class="edge">
<title>Node1&#45;&gt;Node7</title>
<path fill="none" stroke="midnightblue" d="M659.64,-173.64C679.42,-163.2 701.41,-151.61 720.38,-141.61"/>
<polygon fill="midnightblue" stroke="midnightblue" points="657.94,-170.58 650.72,-178.34 661.2,-176.77 657.94,-170.58"/>
</g>
<!-- Node8 -->
<g id="node8" class="node">
<title>Node8</title>
<g id="a_node8"><a xlink:href="../../d8/d9a/std__pointers_8hpp.html" target="_top" xlink:title=" ">
<polygon fill="white" stroke="black" points="860,-89.5 860,-141.5 1008,-141.5 1008,-89.5 860,-89.5"/>
<text text-anchor="start" x="868" y="-129.5" font-family="Helvetica,sans-Serif" font-size="10.00">/home/runner/work/Simple</text>
<text text-anchor="start" x="868" y="-118.5" font-family="Helvetica,sans-Serif" font-size="10.00">&#45;Utility/Simple&#45;Utility</text>
<text text-anchor="start" x="868" y="-107.5" font-family="Helvetica,sans-Serif" font-size="10.00">/include/Simple&#45;Utility</text>
<text text-anchor="middle" x="934" y="-96.5" font-family="Helvetica,sans-Serif" font-size="10.00">/nullables/std_pointers.hpp</text>
</a>
</g>
</g>
<!-- Node1&#45;&gt;Node8 -->
<g id="edge11" class="edge">
<title>Node1&#45;&gt;Node8</title>
<path fill="none" stroke="midnightblue" d="M686.04,-184.12C734.35,-172.54 796.31,-157.17 851,-142 853.91,-141.19 856.86,-140.36 859.85,-139.5"/>
<polygon fill="midnightblue" stroke="midnightblue" points="685.17,-180.72 676.25,-186.45 686.79,-187.53 685.17,-180.72"/>
</g>
<!-- Node9 -->
<g id="node9" class="node">
<title>Node9</title>
<g id="a_node9"><a xlink:href="../../d0/d48/value__or_8hpp.html" target="_top" xlink:title=" ">
<polygon fill="white" stroke="black" points="1026,-89.5 1026,-141.5 1172,-141.5 1172,-89.5 1026,-89.5"/>
<text text-anchor="start" x="1034" y="-129.5" font-family="Helvetica,sans-Serif" font-size="10.00">/home/runner/work/Simple</text>
<text text-anchor="start" x="1034" y="-118.5" font-family="Helvetica,sans-Serif" font-size="10.00">&#45;Utility/Simple&#45;Utility</text>
<text text-anchor="start" x="1034" y="-107.5" font-family="Helvetica,sans-Serif" font-size="10.00">/include/Simple&#45;Utility</text>
<text text-anchor="middle" x="1099" y="-96.5" font-family="Helvetica,sans-Serif" font-size="10.00">/nullables/value_or.hpp</text>
</a>
</g>
</g>
<!-- Node1&#45;&gt;Node9 -->
<g id="edge13" class="edge">
<title>Node1&#45;&gt;Node9</title>
<path fill="none" stroke="midnightblue" d="M686.18,-194.96C770.28,-185.43 903.66,-167.88 1017,-142 1019.91,-141.34 1022.86,-140.62 1025.83,-139.87"/>
<polygon fill="midnightblue" stroke="midnightblue" points="685.72,-191.49 676.17,-196.08 686.5,-198.44 685.72,-191.49"/>
</g>
<!-- Node10 -->
<g id="node10" class="node">
<title>Node10</title>
<g id="a_node10"><a xlink:href="../../d0/d0f/unique__handle_8hpp.html" target="_top" xlink:title=" ">
<polygon fill="white" stroke="black" points="1190,-89.5 1190,-141.5 1336,-141.5 1336,-89.5 1190,-89.5"/>
<text text-anchor="start" x="1198" y="-129.5" font-family="Helvetica,sans-Serif" font-size="10.00">/home/runner/work/Simple</text>
<text text-anchor="start" x="1198" y="-118.5" font-family="Helvetica,sans-Serif" font-size="10.00">&#45;Utility/Simple&#45;Utility</text>
<text text-anchor="start" x="1198" y="-107.5" font-family="Helvetica,sans-Serif" font-size="10.00">/include/Simple&#45;Utility</text>
<text text-anchor="middle" x="1263" y="-96.5" font-family="Helvetica,sans-Serif" font-size="10.00">/unique_handle.hpp</text>
</a>
</g>
</g>
<!-- Node1&#45;&gt;Node10 -->
<g id="edge16" class="edge">
<title>Node1&#45;&gt;Node10</title>
<path fill="none" stroke="midnightblue" d="M686.56,-199.74C799.66,-193.49 1007.3,-177.89 1181,-142 1183.92,-141.4 1186.88,-140.73 1189.87,-140.02"/>
<polygon fill="midnightblue" stroke="midnightblue" points="686.04,-196.26 676.25,-200.3 686.42,-203.25 686.04,-196.26"/>
</g>
<!-- Node2&#45;&gt;Node3 -->
<g id="edge2" class="edge">
<title>Node2&#45;&gt;Node3</title>
<path fill="none" stroke="midnightblue" d="M156.22,-89.89C157.49,-89.59 158.75,-89.29 160,-89 258.8,-66.19 374.63,-47.93 447.9,-37.4"/>
<polygon fill="midnightblue" stroke="midnightblue" points="155.27,-86.52 146.41,-92.33 156.96,-93.31 155.27,-86.52"/>
</g>
<!-- Node4&#45;&gt;Node3 -->
<g id="edge4" class="edge">
<title>Node4&#45;&gt;Node3</title>
<path fill="none" stroke="midnightblue" d="M355.59,-86C386.14,-75.19 420.67,-62.98 450.25,-52.52"/>
<polygon fill="midnightblue" stroke="midnightblue" points="354.08,-82.82 345.82,-89.45 356.42,-89.42 354.08,-82.82"/>
</g>
<!-- Node5&#45;&gt;Node3 -->
<g id="edge6" class="edge">
<title>Node5&#45;&gt;Node3</title>
<path fill="none" stroke="midnightblue" d="M469.83,-81.79C478.94,-72.13 488.76,-61.71 497.34,-52.61"/>
<polygon fill="midnightblue" stroke="midnightblue" points="467.03,-79.66 462.72,-89.34 472.12,-84.46 467.03,-79.66"/>
</g>
<!-- Node6&#45;&gt;Node3 -->
<g id="edge8" class="edge">
<title>Node6&#45;&gt;Node3</title>
<path fill="none" stroke="midnightblue" d="M572.17,-81.79C563.06,-72.13 553.24,-61.71 544.66,-52.61"/>
<polygon fill="midnightblue" stroke="midnightblue" points="569.88,-84.46 579.28,-89.34 574.97,-79.66 569.88,-84.46"/>
</g>
<!-- Node7&#45;&gt;Node3 -->
<g id="edge10" class="edge">
<title>Node7&#45;&gt;Node3</title>
<path fill="none" stroke="midnightblue" d="M687.08,-86C656.4,-75.19 621.74,-62.98 592.04,-52.52"/>
<polygon fill="midnightblue" stroke="midnightblue" points="686.29,-89.43 696.89,-89.45 688.62,-82.83 686.29,-89.43"/>
</g>
<!-- Node8&#45;&gt;Node3 -->
<g id="edge12" class="edge">
<title>Node8&#45;&gt;Node3</title>
<path fill="none" stroke="midnightblue" d="M850.01,-88.86C756.63,-66.28 659.17,-49.18 594.26,-38.7"/>
<polygon fill="midnightblue" stroke="midnightblue" points="849.36,-92.3 859.9,-91.28 851.02,-85.5 849.36,-92.3"/>
</g>
<!-- Node9&#45;&gt;Node3 -->
<g id="edge14" class="edge">
<title>Node9&#45;&gt;Node3</title>
<path fill="none" stroke="midnightblue" d="M1015.7,-88.88C861.21,-56.31 689.7,-39.89 594.38,-32.49"/>
<polygon fill="midnightblue" stroke="midnightblue" points="1015.34,-92.38 1025.85,-91.05 1016.81,-85.53 1015.34,-92.38"/>
</g>
</g>
</svg>
