<?xml version="1.0" encoding="UTF-8" standalone="no"?>
<!DOCTYPE svg PUBLIC "-//W3C//DTD SVG 1.1//EN"
 "http://www.w3.org/Graphics/SVG/1.1/DTD/svg11.dtd">
<!-- Generated by graphviz version 7.0.5 (20221223.1930)
 -->
<!-- Title: Simple&#45;Utility/nullables/base.hpp Pages: 1 -->
<svg width="1124pt" height="159pt"
 viewBox="0.00 0.00 1123.70 159.00" xmlns="http://www.w3.org/2000/svg" xmlns:xlink="http://www.w3.org/1999/xlink">
<g id="graph0" class="graph" transform="scale(1 1) rotate(0) translate(4 155)">
<title>Simple&#45;Utility/nullables/base.hpp</title>
<!-- Node1 -->
<g id="node1" class="node">
<title>Node1</title>
<g id="a_node1"><a xlink:title=" ">
<polygon fill="#999999" stroke="#666666" points="562.2,-151 439.2,-151 439.2,-121 562.2,-121 562.2,-151"/>
<text text-anchor="start" x="447.2" y="-139" font-family="Helvetica,sans-Serif" font-size="10.00">Simple&#45;Utility/nullables</text>
<text text-anchor="middle" x="500.7" y="-128" font-family="Helvetica,sans-Serif" font-size="10.00">/base.hpp</text>
</a>
</g>
</g>
<!-- Node2 -->
<g id="node2" class="node">
<title>Node2</title>
<g id="a_node2"><a xlink:href="../../d3/ddc/nullables_8hpp.html" target="_top" xlink:title=" ">
<polygon fill="white" stroke="#666666" points="501.2,-19 358.2,-19 358.2,0 501.2,0 501.2,-19"/>
<text text-anchor="middle" x="429.7" y="-7" font-family="Helvetica,sans-Serif" font-size="10.00">Simple&#45;Utility/nullables.hpp</text>
</a>
</g>
</g>
<!-- Node1&#45;&gt;Node2 -->
<g id="edge1" class="edge">
<title>Node1&#45;&gt;Node2</title>
<path fill="none" stroke="#63b8ff" d="M427.63,-132.91C296.99,-128.4 34.37,-115.61 6.7,-85 -2.24,-75.11 -2.22,-64.91 6.7,-55 29.71,-29.45 243.14,-17.52 357.73,-12.92"/>
<polygon fill="#63b8ff" stroke="#63b8ff" points="427.47,-136.4 437.58,-133.24 427.7,-129.41 427.47,-136.4"/>
</g>
<!-- Node3 -->
<g id="node3" class="node">
<title>Node3</title>
<g id="a_node3"><a xlink:href="../../d6/dca/adapter_8hpp.html" target="_top" xlink:title=" ">
<polygon fill="white" stroke="#666666" points="139.2,-85 16.2,-85 16.2,-55 139.2,-55 139.2,-85"/>
<text text-anchor="start" x="24.2" y="-73" font-family="Helvetica,sans-Serif" font-size="10.00">Simple&#45;Utility/nullables</text>
<text text-anchor="middle" x="77.7" y="-62" font-family="Helvetica,sans-Serif" font-size="10.00">/adapter.hpp</text>
</a>
</g>
</g>
<!-- Node1&#45;&gt;Node3 -->
<g id="edge2" class="edge">
<title>Node1&#45;&gt;Node3</title>
<path fill="none" stroke="#63b8ff" d="M427.88,-125.91C356.37,-116.7 244.27,-101.48 147.7,-85 145.01,-84.54 142.27,-84.06 139.5,-83.56"/>
<polygon fill="#63b8ff" stroke="#63b8ff" points="427.13,-129.34 437.5,-127.15 428.02,-122.4 427.13,-129.34"/>
</g>
<!-- Node4 -->
<g id="node4" class="node">
<title>Node4</title>
<g id="a_node4"><a xlink:href="../../d4/dc9/and__then_8hpp.html" target="_top" xlink:title=" ">
<polygon fill="white" stroke="#666666" points="280.2,-85 157.2,-85 157.2,-55 280.2,-55 280.2,-85"/>
<text text-anchor="start" x="165.2" y="-73" font-family="Helvetica,sans-Serif" font-size="10.00">Simple&#45;Utility/nullables</text>
<text text-anchor="middle" x="218.7" y="-62" font-family="Helvetica,sans-Serif" font-size="10.00">/and_then.hpp</text>
</a>
</g>
</g>
<!-- Node1&#45;&gt;Node4 -->
<g id="edge4" class="edge">
<title>Node1&#45;&gt;Node4</title>
<path fill="none" stroke="#63b8ff" d="M427.78,-118.45C382.09,-108.08 323.85,-94.86 280.44,-85.01"/>
<polygon fill="#63b8ff" stroke="#63b8ff" points="426.81,-121.82 437.34,-120.62 428.36,-114.99 426.81,-121.82"/>
</g>
<!-- Node5 -->
<g id="node5" class="node">
<title>Node5</title>
<g id="a_node5"><a xlink:href="../../d7/d5f/fwd__value_8hpp.html" target="_top" xlink:title=" ">
<polygon fill="white" stroke="#666666" points="421.2,-85 298.2,-85 298.2,-55 421.2,-55 421.2,-85"/>
<text text-anchor="start" x="306.2" y="-73" font-family="Helvetica,sans-Serif" font-size="10.00">Simple&#45;Utility/nullables</text>
<text text-anchor="middle" x="359.7" y="-62" font-family="Helvetica,sans-Serif" font-size="10.00">/fwd_value.hpp</text>
</a>
</g>
</g>
<!-- Node1&#45;&gt;Node5 -->
<g id="edge6" class="edge">
<title>Node1&#45;&gt;Node5</title>
<path fill="none" stroke="#63b8ff" d="M458.82,-115.99C437.17,-106.16 411.17,-94.36 391.24,-85.31"/>
<polygon fill="#63b8ff" stroke="#63b8ff" points="457.13,-119.07 467.68,-120.01 460.02,-112.69 457.13,-119.07"/>
</g>
<!-- Node6 -->
<g id="node6" class="node">
<title>Node6</title>
<g id="a_node6"><a xlink:href="../../d2/d0e/or__else_8hpp.html" target="_top" xlink:title=" ">
<polygon fill="white" stroke="#666666" points="562.2,-85 439.2,-85 439.2,-55 562.2,-55 562.2,-85"/>
<text text-anchor="start" x="447.2" y="-73" font-family="Helvetica,sans-Serif" font-size="10.00">Simple&#45;Utility/nullables</text>
<text text-anchor="middle" x="500.7" y="-62" font-family="Helvetica,sans-Serif" font-size="10.00">/or_else.hpp</text>
</a>
</g>
</g>
<!-- Node1&#45;&gt;Node6 -->
<g id="edge8" class="edge">
<title>Node1&#45;&gt;Node6</title>
<path fill="none" stroke="#63b8ff" d="M500.7,-109.39C500.7,-101.13 500.7,-92.28 500.7,-85.16"/>
<polygon fill="#63b8ff" stroke="#63b8ff" points="497.2,-109.28 500.7,-119.28 504.2,-109.28 497.2,-109.28"/>
</g>
<!-- Node7 -->
<g id="node7" class="node">
<title>Node7</title>
<g id="a_node7"><a xlink:href="../../d9/d20/std__optional_8hpp.html" target="_top" xlink:title=" ">
<polygon fill="white" stroke="#666666" points="703.2,-85 580.2,-85 580.2,-55 703.2,-55 703.2,-85"/>
<text text-anchor="start" x="588.2" y="-73" font-family="Helvetica,sans-Serif" font-size="10.00">Simple&#45;Utility/nullables</text>
<text text-anchor="middle" x="641.7" y="-62" font-family="Helvetica,sans-Serif" font-size="10.00">/std_optional.hpp</text>
</a>
</g>
</g>
<!-- Node1&#45;&gt;Node7 -->
<g id="edge10" class="edge">
<title>Node1&#45;&gt;Node7</title>
<path fill="none" stroke="#63b8ff" d="M542.58,-115.99C564.23,-106.16 590.23,-94.36 610.16,-85.31"/>
<polygon fill="#63b8ff" stroke="#63b8ff" points="541.38,-112.69 533.72,-120.01 544.27,-119.07 541.38,-112.69"/>
</g>
<!-- Node8 -->
<g id="node8" class="node">
<title>Node8</title>
<g id="a_node8"><a xlink:href="../../d8/d9a/std__pointers_8hpp.html" target="_top" xlink:title=" ">
<polygon fill="white" stroke="#666666" points="844.2,-85 721.2,-85 721.2,-55 844.2,-55 844.2,-85"/>
<text text-anchor="start" x="729.2" y="-73" font-family="Helvetica,sans-Serif" font-size="10.00">Simple&#45;Utility/nullables</text>
<text text-anchor="middle" x="782.7" y="-62" font-family="Helvetica,sans-Serif" font-size="10.00">/std_pointers.hpp</text>
</a>
</g>
</g>
<!-- Node1&#45;&gt;Node8 -->
<g id="edge12" class="edge">
<title>Node1&#45;&gt;Node8</title>
<path fill="none" stroke="#63b8ff" d="M573.62,-118.45C619.31,-108.08 677.55,-94.86 720.96,-85.01"/>
<polygon fill="#63b8ff" stroke="#63b8ff" points="573.04,-114.99 564.06,-120.62 574.59,-121.82 573.04,-114.99"/>
</g>
<!-- Node9 -->
<g id="node9" class="node">
<title>Node9</title>
<g id="a_node9"><a xlink:href="../../d0/d48/value__or_8hpp.html" target="_top" xlink:title=" ">
<polygon fill="white" stroke="#666666" points="985.2,-85 862.2,-85 862.2,-55 985.2,-55 985.2,-85"/>
<text text-anchor="start" x="870.2" y="-73" font-family="Helvetica,sans-Serif" font-size="10.00">Simple&#45;Utility/nullables</text>
<text text-anchor="middle" x="923.7" y="-62" font-family="Helvetica,sans-Serif" font-size="10.00">/value_or.hpp</text>
</a>
</g>
</g>
<!-- Node1&#45;&gt;Node9 -->
<g id="edge14" class="edge">
<title>Node1&#45;&gt;Node9</title>
<path fill="none" stroke="#63b8ff" d="M573.52,-125.91C645.03,-116.7 757.13,-101.48 853.7,-85 856.39,-84.54 859.13,-84.06 861.9,-83.56"/>
<polygon fill="#63b8ff" stroke="#63b8ff" points="573.38,-122.4 563.9,-127.15 574.27,-129.34 573.38,-122.4"/>
</g>
<!-- Node10 -->
<g id="node10" class="node">
<title>Node10</title>
<g id="a_node10"><a xlink:href="../../d0/d0f/unique__handle_8hpp.html" target="_top" xlink:title=" ">
<polygon fill="white" stroke="#666666" points="1115.7,-85 1003.7,-85 1003.7,-55 1115.7,-55 1115.7,-85"/>
<text text-anchor="start" x="1011.7" y="-73" font-family="Helvetica,sans-Serif" font-size="10.00">Simple&#45;Utility/unique</text>
<text text-anchor="middle" x="1059.7" y="-62" font-family="Helvetica,sans-Serif" font-size="10.00">_handle.hpp</text>
</a>
</g>
</g>
<!-- Node1&#45;&gt;Node10 -->
<g id="edge16" class="edge">
<title>Node1&#45;&gt;Node10</title>
<path fill="none" stroke="#63b8ff" d="M574,-130.14C670.74,-123.15 846.19,-108.43 994.7,-85 997.55,-84.55 1000.46,-84.05 1003.4,-83.53"/>
<polygon fill="#63b8ff" stroke="#63b8ff" points="573.83,-126.64 564.1,-130.85 574.33,-133.63 573.83,-126.64"/>
</g>
<!-- Node3&#45;&gt;Node2 -->
<g id="edge3" class="edge">
<title>Node3&#45;&gt;Node2</title>
<path fill="none" stroke="#63b8ff" d="M150.82,-54.48C231.12,-40.28 313.32,-27.63 367.97,-19.5"/>
<polygon fill="#63b8ff" stroke="#63b8ff" points="150.23,-51.03 141,-56.23 151.46,-57.92 150.23,-51.03"/>
</g>
<!-- Node4&#45;&gt;Node2 -->
<g id="edge5" class="edge">
<title>Node4&#45;&gt;Node2</title>
<path fill="none" stroke="#63b8ff" d="M281.85,-51.49C319.94,-40.93 366.85,-27.92 397.48,-19.43"/>
<polygon fill="#63b8ff" stroke="#63b8ff" points="281.02,-48.09 272.32,-54.13 282.89,-54.84 281.02,-48.09"/>
</g>
<!-- Node5&#45;&gt;Node2 -->
<g id="edge7" class="edge">
<title>Node5&#45;&gt;Node2</title>
<path fill="none" stroke="#63b8ff" d="M385.57,-47.38C397.27,-37.6 410.44,-26.6 419.32,-19.18"/>
<polygon fill="#63b8ff" stroke="#63b8ff" points="383.59,-44.47 378.16,-53.57 388.08,-49.84 383.59,-44.47"/>
</g>
<!-- Node6&#45;&gt;Node2 -->
<g id="edge9" class="edge">
<title>Node6&#45;&gt;Node2</title>
<path fill="none" stroke="#63b8ff" d="M474.46,-47.38C462.59,-37.6 449.24,-26.6 440.23,-19.18"/>
<polygon fill="#63b8ff" stroke="#63b8ff" points="472.04,-49.92 481.98,-53.58 476.49,-44.52 472.04,-49.92"/>
</g>
<!-- Node7&#45;&gt;Node2 -->
<g id="edge11" class="edge">
<title>Node7&#45;&gt;Node2</title>
<path fill="none" stroke="#63b8ff" d="M578.25,-51.49C539.98,-40.93 492.84,-27.92 462.07,-19.43"/>
<polygon fill="#63b8ff" stroke="#63b8ff" points="577.27,-54.85 587.84,-54.14 579.13,-48.1 577.27,-54.85"/>
</g>
<!-- Node8&#45;&gt;Node2 -->
<g id="edge13" class="edge">
<title>Node8&#45;&gt;Node2</title>
<path fill="none" stroke="#63b8ff" d="M710.03,-54.56C629.33,-40.3 546.6,-27.63 491.65,-19.49"/>
<polygon fill="#63b8ff" stroke="#63b8ff" points="708.94,-57.92 719.4,-56.23 710.17,-51.03 708.94,-57.92"/>
</g>
<!-- Node9&#45;&gt;Node2 -->
<g id="edge15" class="edge">
<title>Node9&#45;&gt;Node2</title>
<path fill="none" stroke="#63b8ff" d="M850.73,-54.63C722.45,-35.52 583.76,-22.74 501.6,-16"/>
<polygon fill="#63b8ff" stroke="#63b8ff" points="850.01,-58.06 860.42,-56.09 851.06,-51.14 850.01,-58.06"/>
</g>
</g>
</svg>
