<?xml version="1.0" encoding="UTF-8" standalone="no"?>
<!DOCTYPE svg PUBLIC "-//W3C//DTD SVG 1.1//EN"
 "http://www.w3.org/Graphics/SVG/1.1/DTD/svg11.dtd">
<!-- Generated by graphviz version 7.0.5 (20221223.1930)
 -->
<!-- Title: Simple&#45;Utility/functional/predicate.hpp Pages: 1 -->
<svg width="1064pt" height="357pt"
 viewBox="0.00 0.00 1064.00 357.00" xmlns="http://www.w3.org/2000/svg" xmlns:xlink="http://www.w3.org/1999/xlink">
<g id="graph0" class="graph" transform="scale(1 1) rotate(0) translate(4 353)">
<title>Simple&#45;Utility/functional/predicate.hpp</title>
<!-- Node1 -->
<g id="node1" class="node">
<title>Node1</title>
<g id="a_node1"><a xlink:title=" ">
<polygon fill="#999999" stroke="#666666" points="651.5,-349 523.5,-349 523.5,-319 651.5,-319 651.5,-349"/>
<text text-anchor="start" x="531.5" y="-337" font-family="Helvetica,sans-Serif" font-size="10.00">Simple&#45;Utility/functional</text>
<text text-anchor="middle" x="587.5" y="-326" font-family="Helvetica,sans-Serif" font-size="10.00">/predicate.hpp</text>
</a>
</g>
</g>
<!-- Node2 -->
<g id="node2" class="node">
<title>Node2</title>
<g id="a_node2"><a xlink:href="../../d1/d76/functional_2base_8hpp.html" target="_top" xlink:title=" ">
<polygon fill="white" stroke="#666666" points="666.5,-151 538.5,-151 538.5,-121 666.5,-121 666.5,-151"/>
<text text-anchor="start" x="546.5" y="-139" font-family="Helvetica,sans-Serif" font-size="10.00">Simple&#45;Utility/functional</text>
<text text-anchor="middle" x="602.5" y="-128" font-family="Helvetica,sans-Serif" font-size="10.00">/base.hpp</text>
</a>
</g>
</g>
<!-- Node1&#45;&gt;Node2 -->
<g id="edge1" class="edge">
<title>Node1&#45;&gt;Node2</title>
<path fill="none" stroke="#63b8ff" d="M590.43,-318.8C594.75,-297.01 602.65,-253.98 605.5,-217 606.53,-203.71 605.9,-200.33 605.5,-187 605.26,-179.13 604.82,-170.57 604.34,-162.79"/>
<polygon fill="#63b8ff" stroke="#63b8ff" points="607.84,-162.69 603.69,-152.94 600.86,-163.15 607.84,-162.69"/>
</g>
<!-- Node10 -->
<g id="node10" class="node">
<title>Node10</title>
<g id="a_node10"><a xlink:href="../../d9/d76/bind_8hpp.html" target="_top" xlink:title=" ">
<polygon fill="white" stroke="#666666" points="1002.5,-217 874.5,-217 874.5,-187 1002.5,-187 1002.5,-217"/>
<text text-anchor="start" x="882.5" y="-205" font-family="Helvetica,sans-Serif" font-size="10.00">Simple&#45;Utility/functional</text>
<text text-anchor="middle" x="938.5" y="-194" font-family="Helvetica,sans-Serif" font-size="10.00">/operators/bind.hpp</text>
</a>
</g>
</g>
<!-- Node1&#45;&gt;Node10 -->
<g id="edge13" class="edge">
<title>Node1&#45;&gt;Node10</title>
<path fill="none" stroke="#63b8ff" d="M651.68,-322.29C693.52,-314.18 748.81,-301.27 795.5,-283 836.08,-267.12 879.3,-241.6 907.47,-223.66"/>
<polygon fill="#63b8ff" stroke="#63b8ff" points="909.35,-226.61 915.86,-218.25 905.56,-220.73 909.35,-226.61"/>
</g>
<!-- Node14 -->
<g id="node14" class="node">
<title>Node14</title>
<g id="a_node14"><a xlink:href="../../df/d80/conjunction_8hpp.html" target="_top" xlink:title=" ">
<polygon fill="white" stroke="#666666" points="141,-217 0,-217 0,-187 141,-187 141,-217"/>
<text text-anchor="start" x="8" y="-205" font-family="Helvetica,sans-Serif" font-size="10.00">Simple&#45;Utility/functional</text>
<text text-anchor="middle" x="70.5" y="-194" font-family="Helvetica,sans-Serif" font-size="10.00">/operators/conjunction.hpp</text>
</a>
</g>
</g>
<!-- Node1&#45;&gt;Node14 -->
<g id="edge20" class="edge">
<title>Node1&#45;&gt;Node14</title>
<path fill="none" stroke="#63b8ff" d="M523.1,-318.66C480.09,-308.95 422.3,-295.63 371.5,-283 289.13,-262.52 194.59,-237.08 133.79,-220.46"/>
<polygon fill="#63b8ff" stroke="#63b8ff" points="134.87,-217.12 124.3,-217.86 133.02,-223.88 134.87,-217.12"/>
</g>
<!-- Node15 -->
<g id="node15" class="node">
<title>Node15</title>
<g id="a_node15"><a xlink:href="../../d4/d7c/disjunction_8hpp.html" target="_top" xlink:title=" ">
<polygon fill="white" stroke="#666666" points="296,-217 159,-217 159,-187 296,-187 296,-217"/>
<text text-anchor="start" x="167" y="-205" font-family="Helvetica,sans-Serif" font-size="10.00">Simple&#45;Utility/functional</text>
<text text-anchor="middle" x="227.5" y="-194" font-family="Helvetica,sans-Serif" font-size="10.00">/operators/disjunction.hpp</text>
</a>
</g>
</g>
<!-- Node1&#45;&gt;Node15 -->
<g id="edge23" class="edge">
<title>Node1&#45;&gt;Node15</title>
<path fill="none" stroke="#63b8ff" d="M547.6,-318.59C481.78,-294.82 350.55,-247.43 278.23,-221.32"/>
<polygon fill="#63b8ff" stroke="#63b8ff" points="279.6,-218.09 269,-217.99 277.22,-224.68 279.6,-218.09"/>
</g>
<!-- Node16 -->
<g id="node16" class="node">
<title>Node16</title>
<g id="a_node16"><a xlink:href="../../dc/d0a/equal_8hpp.html" target="_top" xlink:title=" ">
<polygon fill="white" stroke="#666666" points="442.5,-217 314.5,-217 314.5,-187 442.5,-187 442.5,-217"/>
<text text-anchor="start" x="322.5" y="-205" font-family="Helvetica,sans-Serif" font-size="10.00">Simple&#45;Utility/functional</text>
<text text-anchor="middle" x="378.5" y="-194" font-family="Helvetica,sans-Serif" font-size="10.00">/operators/equal.hpp</text>
</a>
</g>
</g>
<!-- Node1&#45;&gt;Node16 -->
<g id="edge26" class="edge">
<title>Node1&#45;&gt;Node16</title>
<path fill="none" stroke="#63b8ff" d="M564.33,-318.59C527.14,-295.46 453.98,-249.95 411.39,-223.46"/>
<polygon fill="#63b8ff" stroke="#63b8ff" points="413.39,-220.58 403.05,-218.27 409.7,-226.53 413.39,-220.58"/>
</g>
<!-- Node17 -->
<g id="node17" class="node">
<title>Node17</title>
<g id="a_node17"><a xlink:href="../../d7/dd0/equivalent_8hpp.html" target="_top" xlink:title=" ">
<polygon fill="white" stroke="#666666" points="596,-217 461,-217 461,-187 596,-187 596,-217"/>
<text text-anchor="start" x="469" y="-205" font-family="Helvetica,sans-Serif" font-size="10.00">Simple&#45;Utility/functional</text>
<text text-anchor="middle" x="528.5" y="-194" font-family="Helvetica,sans-Serif" font-size="10.00">/operators/equivalent.hpp</text>
</a>
</g>
</g>
<!-- Node1&#45;&gt;Node17 -->
<g id="edge29" class="edge">
<title>Node1&#45;&gt;Node17</title>
<path fill="none" stroke="#63b8ff" d="M580.96,-318.59C570.99,-296.63 551.87,-254.5 539.67,-227.62"/>
<polygon fill="#63b8ff" stroke="#63b8ff" points="543.01,-226.51 535.69,-218.85 536.64,-229.4 543.01,-226.51"/>
</g>
<!-- Node18 -->
<g id="node18" class="node">
<title>Node18</title>
<g id="a_node18"><a xlink:href="../../d8/dea/negation_8hpp.html" target="_top" xlink:title=" ">
<polygon fill="white" stroke="#666666" points="765,-283 636,-283 636,-253 765,-253 765,-283"/>
<text text-anchor="start" x="644" y="-271" font-family="Helvetica,sans-Serif" font-size="10.00">Simple&#45;Utility/functional</text>
<text text-anchor="middle" x="700.5" y="-260" font-family="Helvetica,sans-Serif" font-size="10.00">/operators/negation.hpp</text>
</a>
</g>
</g>
<!-- Node1&#45;&gt;Node18 -->
<g id="edge32" class="edge">
<title>Node1&#45;&gt;Node18</title>
<path fill="none" stroke="#63b8ff" d="M612.86,-318.64C628.42,-309.83 648.55,-298.42 665.6,-288.77"/>
<polygon fill="#63b8ff" stroke="#63b8ff" points="666.93,-292.03 673.91,-284.06 663.48,-285.94 666.93,-292.03"/>
</g>
<!-- Node19 -->
<g id="node19" class="node">
<title>Node19</title>
<g id="a_node19"><a xlink:href="../../d5/db7/pipe_8hpp.html" target="_top" xlink:title=" ">
<polygon fill="white" stroke="#666666" points="856.5,-217 728.5,-217 728.5,-187 856.5,-187 856.5,-217"/>
<text text-anchor="start" x="736.5" y="-205" font-family="Helvetica,sans-Serif" font-size="10.00">Simple&#45;Utility/functional</text>
<text text-anchor="middle" x="792.5" y="-194" font-family="Helvetica,sans-Serif" font-size="10.00">/operators/pipe.hpp</text>
</a>
</g>
</g>
<!-- Node1&#45;&gt;Node19 -->
<g id="edge38" class="edge">
<title>Node1&#45;&gt;Node19</title>
<path fill="none" stroke="#63b8ff" d="M651.82,-332.02C692.41,-327.92 742.95,-315.84 774.5,-283 788.22,-268.72 792.34,-246.35 793.25,-228.89"/>
<polygon fill="#63b8ff" stroke="#63b8ff" points="796.75,-229.05 793.41,-219 789.75,-228.94 796.75,-229.05"/>
</g>
<!-- Node3 -->
<g id="node3" class="node">
<title>Node3</title>
<g id="a_node3"><a xlink:title=" ">
<polygon fill="#e0e0e0" stroke="#999999" points="631,-19 574,-19 574,0 631,0 631,-19"/>
<text text-anchor="middle" x="602.5" y="-7" font-family="Helvetica,sans-Serif" font-size="10.00">concepts</text>
</a>
</g>
</g>
<!-- Node2&#45;&gt;Node3 -->
<g id="edge2" class="edge">
<title>Node2&#45;&gt;Node3</title>
<path fill="none" stroke="#63b8ff" d="M602.5,-120.72C602.5,-98.64 602.5,-56.12 602.5,-30.83"/>
<polygon fill="#63b8ff" stroke="#63b8ff" points="606,-30.9 602.5,-20.9 599,-30.9 606,-30.9"/>
</g>
<!-- Node4 -->
<g id="node4" class="node">
<title>Node4</title>
<g id="a_node4"><a xlink:title=" ">
<polygon fill="#e0e0e0" stroke="#999999" points="862.5,-79.5 800.5,-79.5 800.5,-60.5 862.5,-60.5 862.5,-79.5"/>
<text text-anchor="middle" x="831.5" y="-67.5" font-family="Helvetica,sans-Serif" font-size="10.00">functional</text>
</a>
</g>
</g>
<!-- Node2&#45;&gt;Node4 -->
<g id="edge3" class="edge">
<title>Node2&#45;&gt;Node4</title>
<path fill="none" stroke="#63b8ff" d="M657.8,-120.53C694.41,-110.82 743.44,-97.55 786.5,-85 788.48,-84.42 790.5,-83.83 792.54,-83.22"/>
<polygon fill="#63b8ff" stroke="#63b8ff" points="793.46,-86.59 802.01,-80.34 791.43,-79.9 793.46,-86.59"/>
</g>
<!-- Node5 -->
<g id="node5" class="node">
<title>Node5</title>
<g id="a_node5"><a xlink:title=" ">
<polygon fill="#e0e0e0" stroke="#999999" points="805,-19 740,-19 740,0 805,0 805,-19"/>
<text text-anchor="middle" x="772.5" y="-7" font-family="Helvetica,sans-Serif" font-size="10.00">type_traits</text>
</a>
</g>
</g>
<!-- Node2&#45;&gt;Node5 -->
<g id="edge4" class="edge">
<title>Node2&#45;&gt;Node5</title>
<path fill="none" stroke="#63b8ff" d="M665.71,-120.55C701.31,-111.21 741.07,-98.33 753.5,-85 767.28,-70.22 771.41,-46.86 772.48,-30.24"/>
<polygon fill="#63b8ff" stroke="#63b8ff" points="775.97,-30.72 772.77,-20.62 768.97,-30.51 775.97,-30.72"/>
</g>
<!-- Node6 -->
<g id="node6" class="node">
<title>Node6</title>
<g id="a_node6"><a xlink:href="../../d8/dd2/_config_8hpp.html" target="_top" xlink:title=" ">
<polygon fill="white" stroke="#666666" points="434,-79.5 301,-79.5 301,-60.5 434,-60.5 434,-79.5"/>
<text text-anchor="middle" x="367.5" y="-67.5" font-family="Helvetica,sans-Serif" font-size="10.00">Simple&#45;Utility/Config.hpp</text>
</a>
</g>
</g>
<!-- Node2&#45;&gt;Node6 -->
<g id="edge5" class="edge">
<title>Node2&#45;&gt;Node6</title>
<path fill="none" stroke="#63b8ff" d="M549.47,-120.56C507.82,-109.22 450.53,-93.61 411.43,-82.96"/>
<polygon fill="#63b8ff" stroke="#63b8ff" points="412.44,-79.61 401.87,-80.36 410.6,-86.37 412.44,-79.61"/>
</g>
<!-- Node7 -->
<g id="node7" class="node">
<title>Node7</title>
<g id="a_node7"><a xlink:href="../../d4/d1c/unified__base_8hpp.html" target="_top" xlink:title=" ">
<polygon fill="white" stroke="#666666" points="744,-85 631,-85 631,-55 744,-55 744,-85"/>
<text text-anchor="start" x="639" y="-73" font-family="Helvetica,sans-Serif" font-size="10.00">Simple&#45;Utility/unified</text>
<text text-anchor="middle" x="687.5" y="-62" font-family="Helvetica,sans-Serif" font-size="10.00">_base.hpp</text>
</a>
</g>
</g>
<!-- Node2&#45;&gt;Node7 -->
<g id="edge6" class="edge">
<title>Node2&#45;&gt;Node7</title>
<path fill="none" stroke="#63b8ff" d="M621.36,-120.8C632.51,-112.4 646.84,-101.62 659.31,-92.23"/>
<polygon fill="#63b8ff" stroke="#63b8ff" points="661.3,-95.11 667.19,-86.3 657.09,-89.51 661.3,-95.11"/>
</g>
<!-- Node8 -->
<g id="node8" class="node">
<title>Node8</title>
<g id="a_node8"><a xlink:href="../../dd/d5c/stl__extensions_8hpp.html" target="_top" xlink:title=" ">
<polygon fill="white" stroke="#666666" points="574.5,-85 452.5,-85 452.5,-55 574.5,-55 574.5,-85"/>
<text text-anchor="start" x="460.5" y="-73" font-family="Helvetica,sans-Serif" font-size="10.00">Simple&#45;Utility/concepts</text>
<text text-anchor="middle" x="513.5" y="-62" font-family="Helvetica,sans-Serif" font-size="10.00">/stl_extensions.hpp</text>
</a>
</g>
</g>
<!-- Node2&#45;&gt;Node8 -->
<g id="edge9" class="edge">
<title>Node2&#45;&gt;Node8</title>
<path fill="none" stroke="#63b8ff" d="M582.75,-120.8C570.96,-112.32 555.78,-101.4 542.64,-91.95"/>
<polygon fill="#63b8ff" stroke="#63b8ff" points="544.9,-89.27 534.73,-86.27 540.81,-94.95 544.9,-89.27"/>
</g>
<!-- Node9 -->
<g id="node9" class="node">
<title>Node9</title>
<g id="a_node9"><a xlink:href="../../d5/d8e/concepts_2utility_8hpp.html" target="_top" xlink:title=" ">
<polygon fill="white" stroke="#666666" points="282.5,-85 160.5,-85 160.5,-55 282.5,-55 282.5,-85"/>
<text text-anchor="start" x="168.5" y="-73" font-family="Helvetica,sans-Serif" font-size="10.00">Simple&#45;Utility/concepts</text>
<text text-anchor="middle" x="221.5" y="-62" font-family="Helvetica,sans-Serif" font-size="10.00">/utility.hpp</text>
</a>
</g>
</g>
<!-- Node2&#45;&gt;Node9 -->
<g id="edge11" class="edge">
<title>Node2&#45;&gt;Node9</title>
<path fill="none" stroke="#63b8ff" d="M538.05,-125.37C477.59,-116.17 384.37,-101.56 294.2,-85.45"/>
<polygon fill="#63b8ff" stroke="#63b8ff" points="294.89,-82.02 284.42,-83.69 293.65,-88.91 294.89,-82.02"/>
</g>
<!-- Node7&#45;&gt;Node3 -->
<g id="edge7" class="edge">
<title>Node7&#45;&gt;Node3</title>
<path fill="none" stroke="#63b8ff" d="M666.49,-54.54C653.64,-45.7 637.23,-34.4 624.25,-25.47"/>
<polygon fill="#63b8ff" stroke="#63b8ff" points="626.57,-22.82 616.35,-20.03 622.61,-28.59 626.57,-22.82"/>
</g>
<!-- Node7&#45;&gt;Node5 -->
<g id="edge8" class="edge">
<title>Node7&#45;&gt;Node5</title>
<path fill="none" stroke="#63b8ff" d="M708.51,-54.54C721.36,-45.7 737.77,-34.4 750.75,-25.47"/>
<polygon fill="#63b8ff" stroke="#63b8ff" points="752.39,-28.59 758.65,-20.03 748.43,-22.82 752.39,-28.59"/>
</g>
<!-- Node8&#45;&gt;Node3 -->
<g id="edge10" class="edge">
<title>Node8&#45;&gt;Node3</title>
<path fill="none" stroke="#63b8ff" d="M535.5,-54.54C548.87,-45.75 565.92,-34.54 579.48,-25.63"/>
<polygon fill="#63b8ff" stroke="#63b8ff" points="581.34,-28.6 587.78,-20.18 577.5,-22.75 581.34,-28.6"/>
</g>
<!-- Node9&#45;&gt;Node3 -->
<g id="edge12" class="edge">
<title>Node9&#45;&gt;Node3</title>
<path fill="none" stroke="#63b8ff" d="M282.92,-56.52C285.82,-55.99 288.69,-55.48 291.5,-55 388.52,-38.37 503.3,-23.07 562.59,-15.49"/>
<polygon fill="#63b8ff" stroke="#63b8ff" points="562.71,-19.01 572.19,-14.27 561.83,-12.06 562.71,-19.01"/>
</g>
<!-- Node10&#45;&gt;Node2 -->
<g id="edge14" class="edge">
<title>Node10&#45;&gt;Node2</title>
<path fill="none" stroke="#63b8ff" d="M874.01,-188.63C871.14,-188.08 868.29,-187.53 865.5,-187 802.34,-174.94 730.64,-161.31 678.07,-151.33"/>
<polygon fill="#63b8ff" stroke="#63b8ff" points="678.78,-147.91 668.3,-149.48 677.47,-154.78 678.78,-147.91"/>
</g>
<!-- Node11 -->
<g id="node11" class="node">
<title>Node11</title>
<g id="a_node11"><a xlink:href="../../d2/d30/general_8hpp.html" target="_top" xlink:title=" ">
<polygon fill="white" stroke="#666666" points="991,-151 886,-151 886,-121 991,-121 991,-151"/>
<text text-anchor="start" x="894" y="-139" font-family="Helvetica,sans-Serif" font-size="10.00">Simple&#45;Utility/tuple</text>
<text text-anchor="middle" x="938.5" y="-128" font-family="Helvetica,sans-Serif" font-size="10.00">/general.hpp</text>
</a>
</g>
</g>
<!-- Node10&#45;&gt;Node11 -->
<g id="edge15" class="edge">
<title>Node10&#45;&gt;Node11</title>
<path fill="none" stroke="#63b8ff" d="M938.5,-186.8C938.5,-179.67 938.5,-170.82 938.5,-162.56"/>
<polygon fill="#63b8ff" stroke="#63b8ff" points="942,-162.68 938.5,-152.68 935,-162.68 942,-162.68"/>
</g>
<!-- Node11&#45;&gt;Node3 -->
<g id="edge16" class="edge">
<title>Node11&#45;&gt;Node3</title>
<path fill="none" stroke="#63b8ff" d="M930.89,-120.76C920.23,-102.33 899.03,-70.72 871.5,-55 833.19,-33.13 708.05,-19.51 642.84,-13.73"/>
<polygon fill="#63b8ff" stroke="#63b8ff" points="643.17,-10.24 632.91,-12.87 642.57,-17.22 643.17,-10.24"/>
</g>
<!-- Node11&#45;&gt;Node5 -->
<g id="edge18" class="edge">
<title>Node11&#45;&gt;Node5</title>
<path fill="none" stroke="#63b8ff" d="M951.42,-120.63C965.23,-103.47 983.16,-74.64 967.5,-55 948.98,-31.78 868.14,-19.72 816.54,-14.28"/>
<polygon fill="#63b8ff" stroke="#63b8ff" points="817.18,-10.82 806.88,-13.3 816.48,-17.79 817.18,-10.82"/>
</g>
<!-- Node12 -->
<g id="node12" class="node">
<title>Node12</title>
<g id="a_node12"><a xlink:title=" ">
<polygon fill="#e0e0e0" stroke="#999999" points="958.5,-79.5 918.5,-79.5 918.5,-60.5 958.5,-60.5 958.5,-79.5"/>
<text text-anchor="middle" x="938.5" y="-67.5" font-family="Helvetica,sans-Serif" font-size="10.00">tuple</text>
</a>
</g>
</g>
<!-- Node11&#45;&gt;Node12 -->
<g id="edge17" class="edge">
<title>Node11&#45;&gt;Node12</title>
<path fill="none" stroke="#63b8ff" d="M938.5,-120.8C938.5,-112.09 938.5,-100.81 938.5,-91.18"/>
<polygon fill="#63b8ff" stroke="#63b8ff" points="942,-91.36 938.5,-81.36 935,-91.36 942,-91.36"/>
</g>
<!-- Node13 -->
<g id="node13" class="node">
<title>Node13</title>
<g id="a_node13"><a xlink:title=" ">
<polygon fill="#e0e0e0" stroke="#999999" points="1056,-79.5 1015,-79.5 1015,-60.5 1056,-60.5 1056,-79.5"/>
<text text-anchor="middle" x="1035.5" y="-67.5" font-family="Helvetica,sans-Serif" font-size="10.00">utility</text>
</a>
</g>
</g>
<!-- Node11&#45;&gt;Node13 -->
<g id="edge19" class="edge">
<title>Node11&#45;&gt;Node13</title>
<path fill="none" stroke="#63b8ff" d="M960.03,-120.8C975.59,-110.53 996.6,-96.67 1012.49,-86.18"/>
<polygon fill="#63b8ff" stroke="#63b8ff" points="1014.41,-89.11 1020.83,-80.68 1010.56,-83.26 1014.41,-89.11"/>
</g>
<!-- Node14&#45;&gt;Node2 -->
<g id="edge22" class="edge">
<title>Node14&#45;&gt;Node2</title>
<path fill="none" stroke="#63b8ff" d="M141.1,-188.25C143.93,-187.82 146.74,-187.4 149.5,-187 281.88,-167.99 436.92,-152.28 527,-143.81"/>
<polygon fill="#63b8ff" stroke="#63b8ff" points="527.06,-147.32 536.69,-142.9 526.4,-140.35 527.06,-147.32"/>
</g>
<!-- Node14&#45;&gt;Node9 -->
<g id="edge21" class="edge">
<title>Node14&#45;&gt;Node9</title>
<path fill="none" stroke="#63b8ff" d="M87.24,-186.59C113.65,-163.85 165.19,-119.48 196.16,-92.81"/>
<polygon fill="#63b8ff" stroke="#63b8ff" points="198.25,-95.64 203.54,-86.46 193.68,-90.33 198.25,-95.64"/>
</g>
<!-- Node15&#45;&gt;Node2 -->
<g id="edge25" class="edge">
<title>Node15&#45;&gt;Node2</title>
<path fill="none" stroke="#63b8ff" d="M296.4,-188.59C299.47,-188.05 302.52,-187.52 305.5,-187 380.76,-173.91 466.84,-159.48 526.88,-149.5"/>
<polygon fill="#63b8ff" stroke="#63b8ff" points="527.37,-152.97 536.66,-147.87 526.23,-146.06 527.37,-152.97"/>
</g>
<!-- Node15&#45;&gt;Node9 -->
<g id="edge24" class="edge">
<title>Node15&#45;&gt;Node9</title>
<path fill="none" stroke="#63b8ff" d="M226.83,-186.59C225.83,-164.92 223.93,-123.62 222.69,-96.7"/>
<polygon fill="#63b8ff" stroke="#63b8ff" points="226.2,-96.81 222.24,-86.99 219.2,-97.14 226.2,-96.81"/>
</g>
<!-- Node16&#45;&gt;Node2 -->
<g id="edge28" class="edge">
<title>Node16&#45;&gt;Node2</title>
<path fill="none" stroke="#63b8ff" d="M429.05,-186.56C462.38,-177.04 506.22,-164.51 541.49,-154.43"/>
<polygon fill="#63b8ff" stroke="#63b8ff" points="542.03,-157.92 550.68,-151.81 540.1,-151.19 542.03,-157.92"/>
</g>
<!-- Node16&#45;&gt;Node9 -->
<g id="edge27" class="edge">
<title>Node16&#45;&gt;Node9</title>
<path fill="none" stroke="#63b8ff" d="M361.1,-186.59C333.63,-163.85 280.05,-119.48 247.84,-92.81"/>
<polygon fill="#63b8ff" stroke="#63b8ff" points="250.08,-90.12 240.15,-86.44 245.62,-95.51 250.08,-90.12"/>
</g>
<!-- Node17&#45;&gt;Node2 -->
<g id="edge31" class="edge">
<title>Node17&#45;&gt;Node2</title>
<path fill="none" stroke="#63b8ff" d="M544.92,-186.8C554.44,-178.57 566.61,-168.04 577.31,-158.78"/>
<polygon fill="#63b8ff" stroke="#63b8ff" points="579.45,-161.56 584.72,-152.38 574.87,-156.27 579.45,-161.56"/>
</g>
<!-- Node17&#45;&gt;Node9 -->
<g id="edge30" class="edge">
<title>Node17&#45;&gt;Node9</title>
<path fill="none" stroke="#63b8ff" d="M494.47,-186.59C438.69,-162.97 327.81,-116.02 265.91,-89.81"/>
<polygon fill="#63b8ff" stroke="#63b8ff" points="267.65,-86.74 257.07,-86.06 264.92,-93.19 267.65,-86.74"/>
</g>
<!-- Node18&#45;&gt;Node2 -->
<g id="edge33" class="edge">
<title>Node18&#45;&gt;Node2</title>
<path fill="none" stroke="#63b8ff" d="M689.64,-252.59C672.86,-230.34 640.47,-187.37 620.26,-160.55"/>
<polygon fill="#63b8ff" stroke="#63b8ff" points="623.14,-158.56 614.32,-152.68 617.55,-162.77 623.14,-158.56"/>
</g>
<!-- Node18&#45;&gt;Node4 -->
<g id="edge37" class="edge">
<title>Node18&#45;&gt;Node4</title>
<path fill="none" stroke="#63b8ff" d="M701.61,-252.6C703.41,-235.92 707.99,-208.04 719.5,-187 742.61,-144.75 785.23,-106.9 810.71,-86.62"/>
<polygon fill="#63b8ff" stroke="#63b8ff" points="812.62,-89.57 818.37,-80.66 808.32,-84.04 812.62,-89.57"/>
</g>
<!-- Node18&#45;&gt;Node19 -->
<g id="edge34" class="edge">
<title>Node18&#45;&gt;Node19</title>
<path fill="none" stroke="#63b8ff" d="M720.92,-252.8C733.1,-244.32 748.79,-233.4 762.38,-223.95"/>
<polygon fill="#63b8ff" stroke="#63b8ff" points="764.37,-226.83 770.58,-218.25 760.37,-221.09 764.37,-226.83"/>
</g>
<!-- Node19&#45;&gt;Node2 -->
<g id="edge35" class="edge">
<title>Node19&#45;&gt;Node2</title>
<path fill="none" stroke="#63b8ff" d="M749.86,-186.64C722.09,-177.28 685.64,-165 655.93,-155"/>
<polygon fill="#63b8ff" stroke="#63b8ff" points="657.35,-151.78 646.76,-151.91 655.12,-158.42 657.35,-151.78"/>
</g>
<!-- Node19&#45;&gt;Node11 -->
<g id="edge36" class="edge">
<title>Node19&#45;&gt;Node11</title>
<path fill="none" stroke="#63b8ff" d="M825.27,-186.64C845.95,-177.57 872.9,-165.75 895.32,-155.93"/>
<polygon fill="#63b8ff" stroke="#63b8ff" points="896.45,-159.25 904.21,-152.03 893.64,-152.84 896.45,-159.25"/>
</g>
</g>
</svg>
