<?xml version="1.0" encoding="UTF-8" standalone="no"?>
<!DOCTYPE svg PUBLIC "-//W3C//DTD SVG 1.1//EN"
 "http://www.w3.org/Graphics/SVG/1.1/DTD/svg11.dtd">
<!-- Generated by graphviz version 2.43.0 (0)
 -->
<!-- Title: /home/runner/work/Simple&#45;Utility/Simple&#45;Utility/include/Simple&#45;Utility/functional/predicate.hpp Pages: 1 -->
<svg width="1107pt" height="385pt"
 viewBox="0.00 0.00 1106.50 385.00" xmlns="http://www.w3.org/2000/svg" xmlns:xlink="http://www.w3.org/1999/xlink">
<g id="graph0" class="graph" transform="scale(1 1) rotate(0) translate(4 381)">
<title>/home/runner/work/Simple&#45;Utility/Simple&#45;Utility/include/Simple&#45;Utility/functional/predicate.hpp</title>
<polygon fill="white" stroke="transparent" points="-4,4 -4,-381 1102.5,-381 1102.5,4 -4,4"/>
<!-- Node1 -->
<g id="node1" class="node">
<title>Node1</title>
<g id="a_node1"><a xlink:title=" ">
<polygon fill="#bfbfbf" stroke="black" points="537,-324.5 537,-376.5 683,-376.5 683,-324.5 537,-324.5"/>
<text text-anchor="start" x="545" y="-364.5" font-family="Helvetica,sans-Serif" font-size="10.00">/home/runner/work/Simple</text>
<text text-anchor="start" x="545" y="-353.5" font-family="Helvetica,sans-Serif" font-size="10.00">&#45;Utility/Simple&#45;Utility</text>
<text text-anchor="start" x="545" y="-342.5" font-family="Helvetica,sans-Serif" font-size="10.00">/include/Simple&#45;Utility</text>
<text text-anchor="middle" x="610" y="-331.5" font-family="Helvetica,sans-Serif" font-size="10.00">/functional/predicate.hpp</text>
</a>
</g>
</g>
<!-- Node2 -->
<g id="node2" class="node">
<title>Node2</title>
<g id="a_node2"><a xlink:href="../../d1/d76/functional_2base_8hpp.html" target="_top" xlink:title=" ">
<polygon fill="white" stroke="black" points="561,-123.5 561,-153.5 697,-153.5 697,-123.5 561,-123.5"/>
<text text-anchor="start" x="569" y="-141.5" font-family="Helvetica,sans-Serif" font-size="10.00">Simple&#45;Utility/functional</text>
<text text-anchor="middle" x="629" y="-130.5" font-family="Helvetica,sans-Serif" font-size="10.00">/base.hpp</text>
</a>
</g>
</g>
<!-- Node1&#45;&gt;Node2 -->
<g id="edge1" class="edge">
<title>Node1&#45;&gt;Node2</title>
<path fill="none" stroke="midnightblue" d="M615.41,-324.05C620.6,-298.23 628.07,-257.05 631,-221 632.11,-207.27 631.27,-203.78 631,-190 630.83,-181.46 630.5,-172.11 630.16,-163.81"/>
<polygon fill="midnightblue" stroke="midnightblue" points="633.65,-163.48 629.71,-153.64 626.65,-163.79 633.65,-163.48"/>
</g>
<!-- Node10 -->
<g id="node10" class="node">
<title>Node10</title>
<g id="a_node10"><a xlink:href="../../d9/d76/bind_8hpp.html" target="_top" xlink:title=" ">
<polygon fill="white" stroke="black" points="908,-190.5 908,-220.5 1044,-220.5 1044,-190.5 908,-190.5"/>
<text text-anchor="start" x="916" y="-208.5" font-family="Helvetica,sans-Serif" font-size="10.00">Simple&#45;Utility/functional</text>
<text text-anchor="middle" x="976" y="-197.5" font-family="Helvetica,sans-Serif" font-size="10.00">/operators/bind.hpp</text>
</a>
</g>
</g>
<!-- Node1&#45;&gt;Node10 -->
<g id="edge13" class="edge">
<title>Node1&#45;&gt;Node10</title>
<path fill="none" stroke="midnightblue" d="M683.11,-332.6C725.08,-321.88 778.34,-306.56 824,-288 867.36,-270.38 914.45,-243.89 944.54,-225.93"/>
<polygon fill="midnightblue" stroke="midnightblue" points="946.55,-228.81 953.31,-220.65 942.94,-222.81 946.55,-228.81"/>
</g>
<!-- Node14 -->
<g id="node14" class="node">
<title>Node14</title>
<g id="a_node14"><a xlink:href="../../df/d80/conjunction_8hpp.html" target="_top" xlink:title=" ">
<polygon fill="white" stroke="black" points="0,-190.5 0,-220.5 146,-220.5 146,-190.5 0,-190.5"/>
<text text-anchor="start" x="8" y="-208.5" font-family="Helvetica,sans-Serif" font-size="10.00">Simple&#45;Utility/functional</text>
<text text-anchor="middle" x="73" y="-197.5" font-family="Helvetica,sans-Serif" font-size="10.00">/operators/conjunction.hpp</text>
</a>
</g>
</g>
<!-- Node1&#45;&gt;Node14 -->
<g id="edge20" class="edge">
<title>Node1&#45;&gt;Node14</title>
<path fill="none" stroke="midnightblue" d="M536.92,-330.53C490.52,-318.44 429.21,-302.41 375,-288 291.6,-265.83 195.38,-239.78 134.39,-223.21"/>
<polygon fill="midnightblue" stroke="midnightblue" points="135.1,-219.78 124.53,-220.54 133.27,-226.54 135.1,-219.78"/>
</g>
<!-- Node15 -->
<g id="node15" class="node">
<title>Node15</title>
<g id="a_node15"><a xlink:href="../../d4/d7c/disjunction_8hpp.html" target="_top" xlink:title=" ">
<polygon fill="white" stroke="black" points="164.5,-190.5 164.5,-220.5 307.5,-220.5 307.5,-190.5 164.5,-190.5"/>
<text text-anchor="start" x="172.5" y="-208.5" font-family="Helvetica,sans-Serif" font-size="10.00">Simple&#45;Utility/functional</text>
<text text-anchor="middle" x="236" y="-197.5" font-family="Helvetica,sans-Serif" font-size="10.00">/operators/disjunction.hpp</text>
</a>
</g>
</g>
<!-- Node1&#45;&gt;Node15 -->
<g id="edge23" class="edge">
<title>Node1&#45;&gt;Node15</title>
<path fill="none" stroke="midnightblue" d="M544.43,-324.43C469.5,-295.78 348.76,-249.61 282.77,-224.38"/>
<polygon fill="midnightblue" stroke="midnightblue" points="283.64,-220.97 273.05,-220.67 281.14,-227.51 283.64,-220.97"/>
</g>
<!-- Node16 -->
<g id="node16" class="node">
<title>Node16</title>
<g id="a_node16"><a xlink:href="../../dc/d0a/equal_8hpp.html" target="_top" xlink:title=" ">
<polygon fill="white" stroke="black" points="326,-190.5 326,-220.5 462,-220.5 462,-190.5 326,-190.5"/>
<text text-anchor="start" x="334" y="-208.5" font-family="Helvetica,sans-Serif" font-size="10.00">Simple&#45;Utility/functional</text>
<text text-anchor="middle" x="394" y="-197.5" font-family="Helvetica,sans-Serif" font-size="10.00">/operators/equal.hpp</text>
</a>
</g>
</g>
<!-- Node1&#45;&gt;Node16 -->
<g id="edge26" class="edge">
<title>Node1&#45;&gt;Node16</title>
<path fill="none" stroke="midnightblue" d="M571.88,-324.26C529.72,-296.35 462.67,-251.96 424.06,-226.4"/>
<polygon fill="midnightblue" stroke="midnightblue" points="425.62,-223.23 415.35,-220.63 421.75,-229.07 425.62,-223.23"/>
</g>
<!-- Node17 -->
<g id="node17" class="node">
<title>Node17</title>
<g id="a_node17"><a xlink:href="../../d7/dd0/equivalent_8hpp.html" target="_top" xlink:title=" ">
<polygon fill="white" stroke="black" points="480,-190.5 480,-220.5 622,-220.5 622,-190.5 480,-190.5"/>
<text text-anchor="start" x="488" y="-208.5" font-family="Helvetica,sans-Serif" font-size="10.00">Simple&#45;Utility/functional</text>
<text text-anchor="middle" x="551" y="-197.5" font-family="Helvetica,sans-Serif" font-size="10.00">/operators/equivalent.hpp</text>
</a>
</g>
</g>
<!-- Node1&#45;&gt;Node17 -->
<g id="edge29" class="edge">
<title>Node1&#45;&gt;Node17</title>
<path fill="none" stroke="midnightblue" d="M599.59,-324.26C588.61,-297.65 571.44,-256.05 560.73,-230.08"/>
<polygon fill="midnightblue" stroke="midnightblue" points="563.88,-228.54 556.83,-220.63 557.41,-231.21 563.88,-228.54"/>
</g>
<!-- Node18 -->
<g id="node18" class="node">
<title>Node18</title>
<g id="a_node18"><a xlink:href="../../d8/dea/negation_8hpp.html" target="_top" xlink:title=" ">
<polygon fill="white" stroke="black" points="658,-257.5 658,-287.5 794,-287.5 794,-257.5 658,-257.5"/>
<text text-anchor="start" x="666" y="-275.5" font-family="Helvetica,sans-Serif" font-size="10.00">Simple&#45;Utility/functional</text>
<text text-anchor="middle" x="726" y="-264.5" font-family="Helvetica,sans-Serif" font-size="10.00">/operators/negation.hpp</text>
</a>
</g>
</g>
<!-- Node1&#45;&gt;Node18 -->
<g id="edge32" class="edge">
<title>Node1&#45;&gt;Node18</title>
<path fill="none" stroke="midnightblue" d="M648.3,-324.4C663.72,-314.31 681.23,-302.83 695.73,-293.33"/>
<polygon fill="midnightblue" stroke="midnightblue" points="697.87,-296.11 704.32,-287.71 694.03,-290.26 697.87,-296.11"/>
</g>
<!-- Node19 -->
<g id="node19" class="node">
<title>Node19</title>
<g id="a_node19"><a xlink:href="../../d5/db7/pipe_8hpp.html" target="_top" xlink:title=" ">
<polygon fill="white" stroke="black" points="754,-190.5 754,-220.5 890,-220.5 890,-190.5 754,-190.5"/>
<text text-anchor="start" x="762" y="-208.5" font-family="Helvetica,sans-Serif" font-size="10.00">Simple&#45;Utility/functional</text>
<text text-anchor="middle" x="822" y="-197.5" font-family="Helvetica,sans-Serif" font-size="10.00">/operators/pipe.hpp</text>
</a>
</g>
</g>
<!-- Node1&#45;&gt;Node19 -->
<g id="edge38" class="edge">
<title>Node1&#45;&gt;Node19</title>
<path fill="none" stroke="midnightblue" d="M683.12,-343.63C723.83,-336.56 772.34,-321.2 803,-288 817.27,-272.55 821.48,-248.51 822.44,-230.54"/>
<polygon fill="midnightblue" stroke="midnightblue" points="825.94,-230.59 822.68,-220.51 818.94,-230.43 825.94,-230.59"/>
</g>
<!-- Node3 -->
<g id="node3" class="node">
<title>Node3</title>
<g id="a_node3"><a xlink:title=" ">
<polygon fill="white" stroke="#bfbfbf" points="599,-0.5 599,-19.5 659,-19.5 659,-0.5 599,-0.5"/>
<text text-anchor="middle" x="629" y="-7.5" font-family="Helvetica,sans-Serif" font-size="10.00">concepts</text>
</a>
</g>
</g>
<!-- Node2&#45;&gt;Node3 -->
<g id="edge2" class="edge">
<title>Node2&#45;&gt;Node3</title>
<path fill="none" stroke="midnightblue" d="M629,-123.48C629,-100.72 629,-55.7 629,-30.06"/>
<polygon fill="midnightblue" stroke="midnightblue" points="632.5,-29.79 629,-19.79 625.5,-29.79 632.5,-29.79"/>
</g>
<!-- Node4 -->
<g id="node4" class="node">
<title>Node4</title>
<g id="a_node4"><a xlink:title=" ">
<polygon fill="white" stroke="#bfbfbf" points="833.5,-62 833.5,-81 898.5,-81 898.5,-62 833.5,-62"/>
<text text-anchor="middle" x="866" y="-69" font-family="Helvetica,sans-Serif" font-size="10.00">functional</text>
</a>
</g>
</g>
<!-- Node2&#45;&gt;Node4 -->
<g id="edge3" class="edge">
<title>Node2&#45;&gt;Node4</title>
<path fill="none" stroke="midnightblue" d="M684.03,-123.49C722.05,-113.65 773.73,-99.99 819,-87 822.2,-86.08 825.52,-85.11 828.84,-84.11"/>
<polygon fill="midnightblue" stroke="midnightblue" points="830.16,-87.37 838.72,-81.12 828.13,-80.67 830.16,-87.37"/>
</g>
<!-- Node5 -->
<g id="node5" class="node">
<title>Node5</title>
<g id="a_node5"><a xlink:title=" ">
<polygon fill="white" stroke="#bfbfbf" points="770.5,-0.5 770.5,-19.5 839.5,-19.5 839.5,-0.5 770.5,-0.5"/>
<text text-anchor="middle" x="805" y="-7.5" font-family="Helvetica,sans-Serif" font-size="10.00">type_traits</text>
</a>
</g>
</g>
<!-- Node2&#45;&gt;Node5 -->
<g id="edge4" class="edge">
<title>Node2&#45;&gt;Node5</title>
<path fill="none" stroke="midnightblue" d="M693.47,-123.46C730.81,-114.09 772.94,-100.95 786,-87 800.35,-71.67 804.3,-47.19 805.18,-30.17"/>
<polygon fill="midnightblue" stroke="midnightblue" points="808.68,-29.86 805.38,-19.79 801.69,-29.72 808.68,-29.86"/>
</g>
<!-- Node6 -->
<g id="node6" class="node">
<title>Node6</title>
<g id="a_node6"><a xlink:href="../../d8/dd2/_config_8hpp.html" target="_top" xlink:title=" ">
<polygon fill="white" stroke="black" points="312.5,-62 312.5,-81 451.5,-81 451.5,-62 312.5,-62"/>
<text text-anchor="middle" x="382" y="-69" font-family="Helvetica,sans-Serif" font-size="10.00">Simple&#45;Utility/Config.hpp</text>
</a>
</g>
</g>
<!-- Node2&#45;&gt;Node6 -->
<g id="edge5" class="edge">
<title>Node2&#45;&gt;Node6</title>
<path fill="none" stroke="midnightblue" d="M575.71,-123.48C530.38,-111.55 466.15,-94.64 424.28,-83.63"/>
<polygon fill="midnightblue" stroke="midnightblue" points="424.97,-80.19 414.41,-81.03 423.19,-86.96 424.97,-80.19"/>
</g>
<!-- Node7 -->
<g id="node7" class="node">
<title>Node7</title>
<g id="a_node7"><a xlink:href="../../d4/d1c/unified__base_8hpp.html" target="_top" xlink:title=" ">
<polygon fill="white" stroke="black" points="657,-56.5 657,-86.5 777,-86.5 777,-56.5 657,-56.5"/>
<text text-anchor="start" x="665" y="-74.5" font-family="Helvetica,sans-Serif" font-size="10.00">Simple&#45;Utility/unified</text>
<text text-anchor="middle" x="717" y="-63.5" font-family="Helvetica,sans-Serif" font-size="10.00">_base.hpp</text>
</a>
</g>
</g>
<!-- Node2&#45;&gt;Node7 -->
<g id="edge6" class="edge">
<title>Node2&#45;&gt;Node7</title>
<path fill="none" stroke="midnightblue" d="M648.09,-123.4C660.32,-114.37 676.37,-102.51 689.9,-92.52"/>
<polygon fill="midnightblue" stroke="midnightblue" points="691.98,-95.33 697.94,-86.58 687.82,-89.7 691.98,-95.33"/>
</g>
<!-- Node8 -->
<g id="node8" class="node">
<title>Node8</title>
<g id="a_node8"><a xlink:href="../../dd/d5c/stl__extensions_8hpp.html" target="_top" xlink:title=" ">
<polygon fill="white" stroke="black" points="469.5,-56.5 469.5,-86.5 600.5,-86.5 600.5,-56.5 469.5,-56.5"/>
<text text-anchor="start" x="477.5" y="-74.5" font-family="Helvetica,sans-Serif" font-size="10.00">Simple&#45;Utility/concepts</text>
<text text-anchor="middle" x="535" y="-63.5" font-family="Helvetica,sans-Serif" font-size="10.00">/stl_extensions.hpp</text>
</a>
</g>
</g>
<!-- Node2&#45;&gt;Node8 -->
<g id="edge9" class="edge">
<title>Node2&#45;&gt;Node8</title>
<path fill="none" stroke="midnightblue" d="M608.6,-123.4C595.55,-114.37 578.4,-102.51 563.95,-92.52"/>
<polygon fill="midnightblue" stroke="midnightblue" points="565.57,-89.39 555.36,-86.58 561.59,-95.14 565.57,-89.39"/>
</g>
<!-- Node9 -->
<g id="node9" class="node">
<title>Node9</title>
<g id="a_node9"><a xlink:href="../../d5/d8e/concepts_2utility_8hpp.html" target="_top" xlink:title=" ">
<polygon fill="white" stroke="black" points="163.5,-56.5 163.5,-86.5 294.5,-86.5 294.5,-56.5 163.5,-56.5"/>
<text text-anchor="start" x="171.5" y="-74.5" font-family="Helvetica,sans-Serif" font-size="10.00">Simple&#45;Utility/concepts</text>
<text text-anchor="middle" x="229" y="-63.5" font-family="Helvetica,sans-Serif" font-size="10.00">/utility.hpp</text>
</a>
</g>
</g>
<!-- Node2&#45;&gt;Node9 -->
<g id="edge11" class="edge">
<title>Node2&#45;&gt;Node9</title>
<path fill="none" stroke="midnightblue" d="M560.81,-127.74C497.02,-118.43 398.84,-103.63 304.72,-87.27"/>
<polygon fill="midnightblue" stroke="midnightblue" points="305.2,-83.8 294.74,-85.52 303.99,-90.69 305.2,-83.8"/>
</g>
<!-- Node7&#45;&gt;Node3 -->
<g id="edge7" class="edge">
<title>Node7&#45;&gt;Node3</title>
<path fill="none" stroke="midnightblue" d="M696.15,-56.4C682.3,-47.04 664.19,-34.79 650.26,-25.38"/>
<polygon fill="midnightblue" stroke="midnightblue" points="652.05,-22.36 641.8,-19.66 648.13,-28.16 652.05,-22.36"/>
</g>
<!-- Node7&#45;&gt;Node5 -->
<g id="edge8" class="edge">
<title>Node7&#45;&gt;Node5</title>
<path fill="none" stroke="midnightblue" d="M737.85,-56.4C751.7,-47.04 769.81,-34.79 783.74,-25.38"/>
<polygon fill="midnightblue" stroke="midnightblue" points="785.87,-28.16 792.2,-19.66 781.95,-22.36 785.87,-28.16"/>
</g>
<!-- Node8&#45;&gt;Node3 -->
<g id="edge10" class="edge">
<title>Node8&#45;&gt;Node3</title>
<path fill="none" stroke="midnightblue" d="M557.28,-56.4C572.2,-46.95 591.78,-34.56 606.71,-25.11"/>
<polygon fill="midnightblue" stroke="midnightblue" points="608.74,-27.96 615.32,-19.66 605,-22.05 608.74,-27.96"/>
</g>
<!-- Node9&#45;&gt;Node3 -->
<g id="edge12" class="edge">
<title>Node9&#45;&gt;Node3</title>
<path fill="none" stroke="midnightblue" d="M294.73,-57.42C297.52,-56.93 300.29,-56.45 303,-56 405.55,-38.89 527.03,-23.37 588.71,-15.82"/>
<polygon fill="midnightblue" stroke="midnightblue" points="589.3,-19.27 598.8,-14.59 588.45,-12.33 589.3,-19.27"/>
</g>
<!-- Node10&#45;&gt;Node2 -->
<g id="edge14" class="edge">
<title>Node10&#45;&gt;Node2</title>
<path fill="none" stroke="midnightblue" d="M907.98,-191.69C904.95,-191.12 901.94,-190.55 899,-190 834.36,-177.87 761,-164.15 707.08,-154.08"/>
<polygon fill="midnightblue" stroke="midnightblue" points="707.72,-150.64 697.25,-152.24 706.44,-157.52 707.72,-150.64"/>
</g>
<!-- Node11 -->
<g id="node11" class="node">
<title>Node11</title>
<g id="a_node11"><a xlink:href="../../d2/d30/general_8hpp.html" target="_top" xlink:title=" ">
<polygon fill="white" stroke="black" points="920,-123.5 920,-153.5 1032,-153.5 1032,-123.5 920,-123.5"/>
<text text-anchor="start" x="928" y="-141.5" font-family="Helvetica,sans-Serif" font-size="10.00">Simple&#45;Utility/tuple</text>
<text text-anchor="middle" x="976" y="-130.5" font-family="Helvetica,sans-Serif" font-size="10.00">/general.hpp</text>
</a>
</g>
</g>
<!-- Node10&#45;&gt;Node11 -->
<g id="edge15" class="edge">
<title>Node10&#45;&gt;Node11</title>
<path fill="none" stroke="midnightblue" d="M976,-190.4C976,-182.64 976,-172.81 976,-163.86"/>
<polygon fill="midnightblue" stroke="midnightblue" points="979.5,-163.58 976,-153.58 972.5,-163.58 979.5,-163.58"/>
</g>
<!-- Node11&#45;&gt;Node3 -->
<g id="edge16" class="edge">
<title>Node11&#45;&gt;Node3</title>
<path fill="none" stroke="midnightblue" d="M968.49,-123.3C957.75,-104.55 936.18,-72.05 908,-56 868.04,-33.24 736.98,-19.68 669.68,-14.05"/>
<polygon fill="midnightblue" stroke="midnightblue" points="669.71,-10.55 659.45,-13.22 669.14,-17.52 669.71,-10.55"/>
</g>
<!-- Node11&#45;&gt;Node5 -->
<g id="edge18" class="edge">
<title>Node11&#45;&gt;Node5</title>
<path fill="none" stroke="midnightblue" d="M988.81,-123.47C1003.1,-106.07 1022.21,-76.24 1006,-56 986.82,-32.06 903.08,-20 849.92,-14.64"/>
<polygon fill="midnightblue" stroke="midnightblue" points="850.01,-11.14 839.72,-13.66 849.34,-18.1 850.01,-11.14"/>
</g>
<!-- Node12 -->
<g id="node12" class="node">
<title>Node12</title>
<g id="a_node12"><a xlink:title=" ">
<polygon fill="white" stroke="#bfbfbf" points="955.5,-62 955.5,-81 996.5,-81 996.5,-62 955.5,-62"/>
<text text-anchor="middle" x="976" y="-69" font-family="Helvetica,sans-Serif" font-size="10.00">tuple</text>
</a>
</g>
</g>
<!-- Node11&#45;&gt;Node12 -->
<g id="edge17" class="edge">
<title>Node11&#45;&gt;Node12</title>
<path fill="none" stroke="midnightblue" d="M976,-123.4C976,-114.06 976,-101.71 976,-91.52"/>
<polygon fill="midnightblue" stroke="midnightblue" points="979.5,-91.19 976,-81.19 972.5,-91.19 979.5,-91.19"/>
</g>
<!-- Node13 -->
<g id="node13" class="node">
<title>Node13</title>
<g id="a_node13"><a xlink:title=" ">
<polygon fill="white" stroke="#bfbfbf" points="1053.5,-62 1053.5,-81 1098.5,-81 1098.5,-62 1053.5,-62"/>
<text text-anchor="middle" x="1076" y="-69" font-family="Helvetica,sans-Serif" font-size="10.00">utility</text>
</a>
</g>
</g>
<!-- Node11&#45;&gt;Node13 -->
<g id="edge19" class="edge">
<title>Node11&#45;&gt;Node13</title>
<path fill="none" stroke="midnightblue" d="M997.7,-123.4C1014.47,-112.5 1037.57,-97.48 1054.33,-86.58"/>
<polygon fill="midnightblue" stroke="midnightblue" points="1056.44,-89.39 1062.91,-81.01 1052.62,-83.52 1056.44,-89.39"/>
</g>
<!-- Node14&#45;&gt;Node2 -->
<g id="edge22" class="edge">
<title>Node14&#45;&gt;Node2</title>
<path fill="none" stroke="midnightblue" d="M146.28,-191.28C149.22,-190.84 152.14,-190.41 155,-190 293.95,-170.34 456.79,-154.57 550.91,-146.16"/>
<polygon fill="midnightblue" stroke="midnightblue" points="551.27,-149.64 560.92,-145.27 550.65,-142.67 551.27,-149.64"/>
</g>
<!-- Node14&#45;&gt;Node9 -->
<g id="edge21" class="edge">
<title>Node14&#45;&gt;Node9</title>
<path fill="none" stroke="midnightblue" d="M89.69,-190.37C117.26,-167.05 172.41,-120.38 204.43,-93.29"/>
<polygon fill="midnightblue" stroke="midnightblue" points="207.05,-95.66 212.43,-86.52 202.53,-90.31 207.05,-95.66"/>
</g>
<!-- Node15&#45;&gt;Node2 -->
<g id="edge25" class="edge">
<title>Node15&#45;&gt;Node2</title>
<path fill="none" stroke="midnightblue" d="M307.54,-191.63C310.74,-191.07 313.9,-190.53 317,-190 396.58,-176.44 487.75,-161.78 550.89,-151.77"/>
<polygon fill="midnightblue" stroke="midnightblue" points="551.45,-155.23 560.78,-150.21 550.35,-148.31 551.45,-155.23"/>
</g>
<!-- Node15&#45;&gt;Node9 -->
<g id="edge24" class="edge">
<title>Node15&#45;&gt;Node9</title>
<path fill="none" stroke="midnightblue" d="M235.25,-190.37C234.07,-168.04 231.75,-124.31 230.29,-96.85"/>
<polygon fill="midnightblue" stroke="midnightblue" points="233.77,-96.33 229.74,-86.52 226.78,-96.7 233.77,-96.33"/>
</g>
<!-- Node16&#45;&gt;Node2 -->
<g id="edge28" class="edge">
<title>Node16&#45;&gt;Node2</title>
<path fill="none" stroke="midnightblue" d="M444.7,-190.48C480.87,-180.47 529.68,-166.97 567.98,-156.38"/>
<polygon fill="midnightblue" stroke="midnightblue" points="569.28,-159.65 577.98,-153.61 567.41,-152.9 569.28,-159.65"/>
</g>
<!-- Node16&#45;&gt;Node9 -->
<g id="edge27" class="edge">
<title>Node16&#45;&gt;Node9</title>
<path fill="none" stroke="midnightblue" d="M376.34,-190.37C347.07,-166.95 288.36,-119.99 254.56,-92.94"/>
<polygon fill="midnightblue" stroke="midnightblue" points="256.53,-90.04 246.53,-86.52 252.15,-95.5 256.53,-90.04"/>
</g>
<!-- Node17&#45;&gt;Node2 -->
<g id="edge31" class="edge">
<title>Node17&#45;&gt;Node2</title>
<path fill="none" stroke="midnightblue" d="M567.92,-190.4C578.55,-181.54 592.45,-169.96 604.3,-160.09"/>
<polygon fill="midnightblue" stroke="midnightblue" points="606.67,-162.67 612.11,-153.58 602.19,-157.29 606.67,-162.67"/>
</g>
<!-- Node17&#45;&gt;Node9 -->
<g id="edge30" class="edge">
<title>Node17&#45;&gt;Node9</title>
<path fill="none" stroke="midnightblue" d="M516.85,-190.5C458.03,-166.39 337.73,-117.07 272.83,-90.47"/>
<polygon fill="midnightblue" stroke="midnightblue" points="273.87,-87.11 263.29,-86.56 271.21,-93.59 273.87,-87.11"/>
</g>
<!-- Node18&#45;&gt;Node2 -->
<g id="edge33" class="edge">
<title>Node18&#45;&gt;Node2</title>
<path fill="none" stroke="midnightblue" d="M715.62,-257.37C698.77,-234.45 665.35,-188.97 645.31,-161.69"/>
<polygon fill="midnightblue" stroke="midnightblue" points="648.05,-159.51 639.31,-153.52 642.41,-163.66 648.05,-159.51"/>
</g>
<!-- Node18&#45;&gt;Node4 -->
<g id="edge37" class="edge">
<title>Node18&#45;&gt;Node4</title>
<path fill="none" stroke="midnightblue" d="M726.88,-257.37C728.45,-240.39 732.84,-211.5 745,-190 770.12,-145.57 817.12,-107.17 844.57,-87.19"/>
<polygon fill="midnightblue" stroke="midnightblue" points="846.95,-89.79 853.07,-81.14 842.89,-84.09 846.95,-89.79"/>
</g>
<!-- Node18&#45;&gt;Node19 -->
<g id="edge34" class="edge">
<title>Node18&#45;&gt;Node19</title>
<path fill="none" stroke="midnightblue" d="M746.83,-257.4C760.29,-248.28 778,-236.29 792.85,-226.24"/>
<polygon fill="midnightblue" stroke="midnightblue" points="794.89,-229.08 801.21,-220.58 790.97,-223.28 794.89,-229.08"/>
</g>
<!-- Node19&#45;&gt;Node2 -->
<g id="edge35" class="edge">
<title>Node19&#45;&gt;Node2</title>
<path fill="none" stroke="midnightblue" d="M780.12,-190.4C750.91,-180.56 711.74,-167.37 680.6,-156.88"/>
<polygon fill="midnightblue" stroke="midnightblue" points="681.39,-153.45 670.8,-153.58 679.16,-160.09 681.39,-153.45"/>
</g>
<!-- Node19&#45;&gt;Node11 -->
<g id="edge36" class="edge">
<title>Node19&#45;&gt;Node11</title>
<path fill="none" stroke="midnightblue" d="M855.42,-190.4C878.22,-180.77 908.63,-167.94 933.2,-157.56"/>
<polygon fill="midnightblue" stroke="midnightblue" points="934.8,-160.69 942.65,-153.58 932.08,-154.24 934.8,-160.69"/>
</g>
</g>
</svg>
