<?xml version="1.0" encoding="UTF-8" standalone="no"?>
<!DOCTYPE svg PUBLIC "-//W3C//DTD SVG 1.1//EN"
 "http://www.w3.org/Graphics/SVG/1.1/DTD/svg11.dtd">
<!-- Generated by graphviz version 8.0.5 (20230430.1635)
 -->
<!-- Title: Simple&#45;Utility/functional/predicate.hpp Pages: 1 -->
<svg width="1059pt" height="376pt"
 viewBox="0.00 0.00 1058.62 376.25" xmlns="http://www.w3.org/2000/svg" xmlns:xlink="http://www.w3.org/1999/xlink">
<g id="graph0" class="graph" transform="scale(1 1) rotate(0) translate(4 372.25)">
<title>Simple&#45;Utility/functional/predicate.hpp</title>
<!-- Node1 -->
<g id="node1" class="node">
<title>Node1</title>
<g id="a_node1"><a xlink:title=" ">
<polygon fill="#999999" stroke="#666666" points="648.75,-368.25 521.75,-368.25 521.75,-334.75 648.75,-334.75 648.75,-368.25"/>
<text text-anchor="start" x="529.75" y="-354.75" font-family="Helvetica,sans-Serif" font-size="10.00">Simple&#45;Utility/functional</text>
<text text-anchor="middle" x="585.25" y="-342" font-family="Helvetica,sans-Serif" font-size="10.00">/predicate.hpp</text>
</a>
</g>
</g>
<!-- Node2 -->
<g id="node2" class="node">
<title>Node2</title>
<g id="a_node2"><a xlink:href="../../d1/d76/functional_2base_8hpp.html" target="_top" xlink:title=" ">
<polygon fill="white" stroke="#666666" points="663.75,-159.75 536.75,-159.75 536.75,-126.25 663.75,-126.25 663.75,-159.75"/>
<text text-anchor="start" x="544.75" y="-146.25" font-family="Helvetica,sans-Serif" font-size="10.00">Simple&#45;Utility/functional</text>
<text text-anchor="middle" x="600.25" y="-133.5" font-family="Helvetica,sans-Serif" font-size="10.00">/base.hpp</text>
</a>
</g>
</g>
<!-- Node1&#45;&gt;Node2 -->
<g id="edge1" class="edge">
<title>Node1&#45;&gt;Node2</title>
<path fill="none" stroke="#63b8ff" d="M588.22,-334.49C592.35,-311.36 599.6,-267.21 602.25,-229.25 603.29,-214.4 602.54,-210.64 602.25,-195.75 602.09,-187.56 601.79,-178.65 601.47,-170.57"/>
<polygon fill="#63b8ff" stroke="#63b8ff" points="604.94,-170.69 601.02,-160.85 597.95,-170.99 604.94,-170.69"/>
</g>
<!-- Node10 -->
<g id="node10" class="node">
<title>Node10</title>
<g id="a_node10"><a xlink:href="../../d9/d76/bind_8hpp.html" target="_top" xlink:title=" ">
<polygon fill="white" stroke="#666666" points="997.75,-229.25 870.75,-229.25 870.75,-195.75 997.75,-195.75 997.75,-229.25"/>
<text text-anchor="start" x="878.75" y="-215.75" font-family="Helvetica,sans-Serif" font-size="10.00">Simple&#45;Utility/functional</text>
<text text-anchor="middle" x="934.25" y="-203" font-family="Helvetica,sans-Serif" font-size="10.00">/operators/bind.hpp</text>
</a>
</g>
</g>
<!-- Node1&#45;&gt;Node10 -->
<g id="edge13" class="edge">
<title>Node1&#45;&gt;Node10</title>
<path fill="none" stroke="#63b8ff" d="M648.84,-339.67C690.6,-331.34 745.88,-317.96 792.25,-298.75 832.82,-281.94 875.53,-254.84 903.38,-235.72"/>
<polygon fill="#63b8ff" stroke="#63b8ff" points="905.02,-238.15 911.23,-229.56 901.02,-232.4 905.02,-238.15"/>
</g>
<!-- Node14 -->
<g id="node14" class="node">
<title>Node14</title>
<g id="a_node14"><a xlink:href="../../df/d80/conjunction_8hpp.html" target="_top" xlink:title=" ">
<polygon fill="white" stroke="#666666" points="140.5,-229.25 0,-229.25 0,-195.75 140.5,-195.75 140.5,-229.25"/>
<text text-anchor="start" x="8" y="-215.75" font-family="Helvetica,sans-Serif" font-size="10.00">Simple&#45;Utility/functional</text>
<text text-anchor="middle" x="70.25" y="-203" font-family="Helvetica,sans-Serif" font-size="10.00">/operators/conjunction.hpp</text>
</a>
</g>
</g>
<!-- Node1&#45;&gt;Node14 -->
<g id="edge20" class="edge">
<title>Node1&#45;&gt;Node14</title>
<path fill="none" stroke="#63b8ff" d="M521.48,-336.9C476.29,-327 414.34,-312.91 360.25,-298.75 280.99,-278 190.54,-250.86 132.04,-232.83"/>
<polygon fill="#63b8ff" stroke="#63b8ff" points="133.44,-229.29 122.85,-229.68 131.37,-235.98 133.44,-229.29"/>
</g>
<!-- Node15 -->
<g id="node15" class="node">
<title>Node15</title>
<g id="a_node15"><a xlink:href="../../d4/d7c/disjunction_8hpp.html" target="_top" xlink:title=" ">
<polygon fill="white" stroke="#666666" points="295.62,-229.25 158.88,-229.25 158.88,-195.75 295.62,-195.75 295.62,-229.25"/>
<text text-anchor="start" x="166.88" y="-215.75" font-family="Helvetica,sans-Serif" font-size="10.00">Simple&#45;Utility/functional</text>
<text text-anchor="middle" x="227.25" y="-203" font-family="Helvetica,sans-Serif" font-size="10.00">/operators/disjunction.hpp</text>
</a>
</g>
</g>
<!-- Node1&#45;&gt;Node15 -->
<g id="edge23" class="edge">
<title>Node1&#45;&gt;Node15</title>
<path fill="none" stroke="#63b8ff" d="M543.13,-334.38C477.51,-309.27 351,-260.86 279.61,-233.54"/>
<polygon fill="#63b8ff" stroke="#63b8ff" points="281.08,-229.97 270.49,-229.66 278.58,-236.51 281.08,-229.97"/>
</g>
<!-- Node16 -->
<g id="node16" class="node">
<title>Node16</title>
<g id="a_node16"><a xlink:href="../../dc/d0a/equal_8hpp.html" target="_top" xlink:title=" ">
<polygon fill="white" stroke="#666666" points="440.75,-229.25 313.75,-229.25 313.75,-195.75 440.75,-195.75 440.75,-229.25"/>
<text text-anchor="start" x="321.75" y="-215.75" font-family="Helvetica,sans-Serif" font-size="10.00">Simple&#45;Utility/functional</text>
<text text-anchor="middle" x="377.25" y="-203" font-family="Helvetica,sans-Serif" font-size="10.00">/operators/equal.hpp</text>
</a>
</g>
</g>
<!-- Node1&#45;&gt;Node16 -->
<g id="edge26" class="edge">
<title>Node1&#45;&gt;Node16</title>
<path fill="none" stroke="#63b8ff" d="M560.98,-334.52C523.82,-310.04 452.72,-263.21 410.69,-235.53"/>
<polygon fill="#63b8ff" stroke="#63b8ff" points="412.96,-232.17 402.68,-229.59 409.11,-238.02 412.96,-232.17"/>
</g>
<!-- Node17 -->
<g id="node17" class="node">
<title>Node17</title>
<g id="a_node17"><a xlink:href="../../d7/dd0/equivalent_8hpp.html" target="_top" xlink:title=" ">
<polygon fill="white" stroke="#666666" points="593.5,-229.25 459,-229.25 459,-195.75 593.5,-195.75 593.5,-229.25"/>
<text text-anchor="start" x="467" y="-215.75" font-family="Helvetica,sans-Serif" font-size="10.00">Simple&#45;Utility/functional</text>
<text text-anchor="middle" x="526.25" y="-203" font-family="Helvetica,sans-Serif" font-size="10.00">/operators/equivalent.hpp</text>
</a>
</g>
</g>
<!-- Node1&#45;&gt;Node17 -->
<g id="edge29" class="edge">
<title>Node1&#45;&gt;Node17</title>
<path fill="none" stroke="#63b8ff" d="M578.37,-334.52C568.29,-311.11 549.4,-267.25 537.34,-239.26"/>
<polygon fill="#63b8ff" stroke="#63b8ff" points="540.26,-238.18 533.09,-230.38 533.83,-240.95 540.26,-238.18"/>
</g>
<!-- Node18 -->
<g id="node18" class="node">
<title>Node18</title>
<g id="a_node18"><a xlink:href="../../d8/dea/negation_8hpp.html" target="_top" xlink:title=" ">
<polygon fill="white" stroke="#666666" points="761.5,-298.75 633,-298.75 633,-265.25 761.5,-265.25 761.5,-298.75"/>
<text text-anchor="start" x="641" y="-285.25" font-family="Helvetica,sans-Serif" font-size="10.00">Simple&#45;Utility/functional</text>
<text text-anchor="middle" x="697.25" y="-272.5" font-family="Helvetica,sans-Serif" font-size="10.00">/operators/negation.hpp</text>
</a>
</g>
</g>
<!-- Node1&#45;&gt;Node18 -->
<g id="edge32" class="edge">
<title>Node1&#45;&gt;Node18</title>
<path fill="none" stroke="#63b8ff" d="M612.08,-334.33C626.9,-325.4 645.51,-314.19 661.54,-304.52"/>
<polygon fill="#63b8ff" stroke="#63b8ff" points="662.88,-307.2 669.64,-299.04 659.27,-301.2 662.88,-307.2"/>
</g>
<!-- Node19 -->
<g id="node19" class="node">
<title>Node19</title>
<g id="a_node19"><a xlink:href="../../d5/db7/pipe_8hpp.html" target="_top" xlink:title=" ">
<polygon fill="white" stroke="#666666" points="852.75,-229.25 725.75,-229.25 725.75,-195.75 852.75,-195.75 852.75,-229.25"/>
<text text-anchor="start" x="733.75" y="-215.75" font-family="Helvetica,sans-Serif" font-size="10.00">Simple&#45;Utility/functional</text>
<text text-anchor="middle" x="789.25" y="-203" font-family="Helvetica,sans-Serif" font-size="10.00">/operators/pipe.hpp</text>
</a>
</g>
</g>
<!-- Node1&#45;&gt;Node19 -->
<g id="edge38" class="edge">
<title>Node1&#45;&gt;Node19</title>
<path fill="none" stroke="#63b8ff" d="M648.97,-348.7C689.15,-344.12 739.16,-331.55 770.25,-298.75 784.94,-283.26 789.22,-259.02 790.09,-240.35"/>
<polygon fill="#63b8ff" stroke="#63b8ff" points="793.6,-240.62 790.26,-230.56 786.61,-240.51 793.6,-240.62"/>
</g>
<!-- Node3 -->
<g id="node3" class="node">
<title>Node3</title>
<g id="a_node3"><a xlink:title=" ">
<polygon fill="#e0e0e0" stroke="#999999" points="628.5,-20.75 572,-20.75 572,0 628.5,0 628.5,-20.75"/>
<text text-anchor="middle" x="600.25" y="-7.25" font-family="Helvetica,sans-Serif" font-size="10.00">concepts</text>
</a>
</g>
</g>
<!-- Node2&#45;&gt;Node3 -->
<g id="edge2" class="edge">
<title>Node2&#45;&gt;Node3</title>
<path fill="none" stroke="#63b8ff" d="M600.25,-125.98C600.25,-102.34 600.25,-58.09 600.25,-32.04"/>
<polygon fill="#63b8ff" stroke="#63b8ff" points="603.75,-32.18 600.25,-22.18 596.75,-32.18 603.75,-32.18"/>
</g>
<!-- Node4 -->
<g id="node4" class="node">
<title>Node4</title>
<g id="a_node4"><a xlink:title=" ">
<polygon fill="#e0e0e0" stroke="#999999" points="858.12,-83.88 796.38,-83.88 796.38,-63.12 858.12,-63.12 858.12,-83.88"/>
<text text-anchor="middle" x="827.25" y="-70.38" font-family="Helvetica,sans-Serif" font-size="10.00">functional</text>
</a>
</g>
</g>
<!-- Node2&#45;&gt;Node4 -->
<g id="edge3" class="edge">
<title>Node2&#45;&gt;Node4</title>
<path fill="none" stroke="#63b8ff" d="M660.77,-125.76C696.31,-115.99 742.01,-103 782.25,-90.25 784.8,-89.44 787.43,-88.58 790.07,-87.71"/>
<polygon fill="#63b8ff" stroke="#63b8ff" points="790.87,-90.79 799.21,-84.26 788.62,-84.16 790.87,-90.79"/>
</g>
<!-- Node5 -->
<g id="node5" class="node">
<title>Node5</title>
<g id="a_node5"><a xlink:title=" ">
<polygon fill="#e0e0e0" stroke="#999999" points="800.25,-20.75 736.25,-20.75 736.25,0 800.25,0 800.25,-20.75"/>
<text text-anchor="middle" x="768.25" y="-7.25" font-family="Helvetica,sans-Serif" font-size="10.00">type_traits</text>
</a>
</g>
</g>
<!-- Node2&#45;&gt;Node5 -->
<g id="edge4" class="edge">
<title>Node2&#45;&gt;Node5</title>
<path fill="none" stroke="#63b8ff" d="M663.91,-126.43C698.76,-116.68 737.25,-103.49 749.25,-90.25 763.62,-74.4 767.63,-49.58 768.51,-32.02"/>
<polygon fill="#63b8ff" stroke="#63b8ff" points="772.02,-32.29 768.71,-22.22 765.02,-32.16 772.02,-32.29"/>
</g>
<!-- Node6 -->
<g id="node6" class="node">
<title>Node6</title>
<g id="a_node6"><a xlink:href="../../d8/dd2/_config_8hpp.html" target="_top" xlink:title=" ">
<polygon fill="white" stroke="#666666" points="432.38,-83.88 300.12,-83.88 300.12,-63.12 432.38,-63.12 432.38,-83.88"/>
<text text-anchor="middle" x="366.25" y="-70.38" font-family="Helvetica,sans-Serif" font-size="10.00">Simple&#45;Utility/Config.hpp</text>
</a>
</g>
</g>
<!-- Node2&#45;&gt;Node6 -->
<g id="edge5" class="edge">
<title>Node2&#45;&gt;Node6</title>
<path fill="none" stroke="#63b8ff" d="M544.2,-125.83C503.29,-114.03 448.59,-98.25 410.69,-87.32"/>
<polygon fill="#63b8ff" stroke="#63b8ff" points="412.04,-83.78 401.46,-84.37 410.1,-90.5 412.04,-83.78"/>
</g>
<!-- Node7 -->
<g id="node7" class="node">
<title>Node7</title>
<g id="a_node7"><a xlink:href="../../d4/d1c/unified__base_8hpp.html" target="_top" xlink:title=" ">
<polygon fill="white" stroke="#666666" points="740.25,-90.25 628.25,-90.25 628.25,-56.75 740.25,-56.75 740.25,-90.25"/>
<text text-anchor="start" x="636.25" y="-76.75" font-family="Helvetica,sans-Serif" font-size="10.00">Simple&#45;Utility/unified</text>
<text text-anchor="middle" x="684.25" y="-64" font-family="Helvetica,sans-Serif" font-size="10.00">_base.hpp</text>
</a>
</g>
</g>
<!-- Node2&#45;&gt;Node7 -->
<g id="edge6" class="edge">
<title>Node2&#45;&gt;Node7</title>
<path fill="none" stroke="#63b8ff" d="M620.16,-126C630.75,-117.49 643.96,-106.87 655.64,-97.49"/>
<polygon fill="#63b8ff" stroke="#63b8ff" points="657.59,-99.61 663.19,-90.62 653.21,-94.15 657.59,-99.61"/>
</g>
<!-- Node8 -->
<g id="node8" class="node">
<title>Node8</title>
<g id="a_node8"><a xlink:href="../../dd/d5c/stl__extensions_8hpp.html" target="_top" xlink:title=" ">
<polygon fill="white" stroke="#666666" points="572.12,-90.25 450.38,-90.25 450.38,-56.75 572.12,-56.75 572.12,-90.25"/>
<text text-anchor="start" x="458.38" y="-76.75" font-family="Helvetica,sans-Serif" font-size="10.00">Simple&#45;Utility/concepts</text>
<text text-anchor="middle" x="511.25" y="-64" font-family="Helvetica,sans-Serif" font-size="10.00">/stl_extensions.hpp</text>
</a>
</g>
</g>
<!-- Node2&#45;&gt;Node8 -->
<g id="edge9" class="edge">
<title>Node2&#45;&gt;Node8</title>
<path fill="none" stroke="#63b8ff" d="M579.16,-126C567.82,-117.41 553.66,-106.66 541.2,-97.22"/>
<polygon fill="#63b8ff" stroke="#63b8ff" points="543.58,-93.87 533.5,-90.62 539.35,-99.45 543.58,-93.87"/>
</g>
<!-- Node9 -->
<g id="node9" class="node">
<title>Node9</title>
<g id="a_node9"><a xlink:href="../../d5/d8e/concepts_2utility_8hpp.html" target="_top" xlink:title=" ">
<polygon fill="white" stroke="#666666" points="282.12,-90.25 160.38,-90.25 160.38,-56.75 282.12,-56.75 282.12,-90.25"/>
<text text-anchor="start" x="168.38" y="-76.75" font-family="Helvetica,sans-Serif" font-size="10.00">Simple&#45;Utility/concepts</text>
<text text-anchor="middle" x="221.25" y="-64" font-family="Helvetica,sans-Serif" font-size="10.00">/utility.hpp</text>
</a>
</g>
</g>
<!-- Node2&#45;&gt;Node9 -->
<g id="edge11" class="edge">
<title>Node2&#45;&gt;Node9</title>
<path fill="none" stroke="#63b8ff" d="M536.45,-132.37C476.22,-123.04 383.14,-108.01 292.98,-90.53"/>
<polygon fill="#63b8ff" stroke="#63b8ff" points="293.78,-86.92 283.29,-88.44 292.44,-93.79 293.78,-86.92"/>
</g>
<!-- Node7&#45;&gt;Node3 -->
<g id="edge7" class="edge">
<title>Node7&#45;&gt;Node3</title>
<path fill="none" stroke="#63b8ff" d="M662.18,-56.44C649.94,-47.53 634.76,-36.49 622.49,-27.56"/>
<polygon fill="#63b8ff" stroke="#63b8ff" points="624.92,-24.27 614.78,-21.22 620.8,-29.93 624.92,-24.27"/>
</g>
<!-- Node7&#45;&gt;Node5 -->
<g id="edge8" class="edge">
<title>Node7&#45;&gt;Node5</title>
<path fill="none" stroke="#63b8ff" d="M706.32,-56.44C718.56,-47.53 733.74,-36.49 746.01,-27.56"/>
<polygon fill="#63b8ff" stroke="#63b8ff" points="747.7,-29.93 753.72,-21.22 743.58,-24.27 747.7,-29.93"/>
</g>
<!-- Node8&#45;&gt;Node3 -->
<g id="edge10" class="edge">
<title>Node8&#45;&gt;Node3</title>
<path fill="none" stroke="#63b8ff" d="M534.63,-56.44C547.73,-47.45 564,-36.27 577.07,-27.3"/>
<polygon fill="#63b8ff" stroke="#63b8ff" points="578.66,-29.76 584.92,-21.22 574.7,-23.99 578.66,-29.76"/>
</g>
<!-- Node9&#45;&gt;Node3 -->
<g id="edge12" class="edge">
<title>Node9&#45;&gt;Node3</title>
<path fill="none" stroke="#63b8ff" d="M282.28,-58.48C285.31,-57.88 288.31,-57.3 291.25,-56.75 387.66,-38.85 502.06,-23.6 560.92,-16.18"/>
<polygon fill="#63b8ff" stroke="#63b8ff" points="561.1,-19.56 570.59,-14.85 560.23,-12.62 561.1,-19.56"/>
</g>
<!-- Node10&#45;&gt;Node2 -->
<g id="edge14" class="edge">
<title>Node10&#45;&gt;Node2</title>
<path fill="none" stroke="#63b8ff" d="M870.27,-197.43C867.56,-196.86 864.88,-196.3 862.25,-195.75 799.08,-182.6 727.17,-168.46 674.68,-158.28"/>
<polygon fill="#63b8ff" stroke="#63b8ff" points="675.6,-154.7 665.12,-156.24 674.27,-161.58 675.6,-154.7"/>
</g>
<!-- Node11 -->
<g id="node11" class="node">
<title>Node11</title>
<g id="a_node11"><a xlink:href="../../d2/d30/general_8hpp.html" target="_top" xlink:title=" ">
<polygon fill="white" stroke="#666666" points="986.5,-159.75 882,-159.75 882,-126.25 986.5,-126.25 986.5,-159.75"/>
<text text-anchor="start" x="890" y="-146.25" font-family="Helvetica,sans-Serif" font-size="10.00">Simple&#45;Utility/tuple</text>
<text text-anchor="middle" x="934.25" y="-133.5" font-family="Helvetica,sans-Serif" font-size="10.00">/general.hpp</text>
</a>
</g>
</g>
<!-- Node10&#45;&gt;Node11 -->
<g id="edge15" class="edge">
<title>Node10&#45;&gt;Node11</title>
<path fill="none" stroke="#63b8ff" d="M934.25,-195.5C934.25,-188.11 934.25,-179.12 934.25,-170.73"/>
<polygon fill="#63b8ff" stroke="#63b8ff" points="937.75,-170.88 934.25,-160.88 930.75,-170.88 937.75,-170.88"/>
</g>
<!-- Node11&#45;&gt;Node3 -->
<g id="edge16" class="edge">
<title>Node11&#45;&gt;Node3</title>
<path fill="none" stroke="#63b8ff" d="M926.33,-125.83C915.76,-106.09 895.08,-73.3 867.25,-56.75 829.43,-34.26 704.18,-20.4 639.57,-14.57"/>
<polygon fill="#63b8ff" stroke="#63b8ff" points="640.26,-11.03 629.99,-13.64 639.65,-18.01 640.26,-11.03"/>
</g>
<!-- Node11&#45;&gt;Node5 -->
<g id="edge18" class="edge">
<title>Node11&#45;&gt;Node5</title>
<path fill="none" stroke="#63b8ff" d="M947.96,-126C961.99,-107.6 979.58,-77.32 963.25,-56.75 944.67,-33.36 863.13,-20.92 811.55,-15.27"/>
<polygon fill="#63b8ff" stroke="#63b8ff" points="812.03,-11.7 801.72,-14.14 811.3,-18.66 812.03,-11.7"/>
</g>
<!-- Node12 -->
<g id="node12" class="node">
<title>Node12</title>
<g id="a_node12"><a xlink:title=" ">
<polygon fill="#e0e0e0" stroke="#999999" points="953.88,-83.88 914.62,-83.88 914.62,-63.12 953.88,-63.12 953.88,-83.88"/>
<text text-anchor="middle" x="934.25" y="-70.38" font-family="Helvetica,sans-Serif" font-size="10.00">tuple</text>
</a>
</g>
</g>
<!-- Node11&#45;&gt;Node12 -->
<g id="edge17" class="edge">
<title>Node11&#45;&gt;Node12</title>
<path fill="none" stroke="#63b8ff" d="M934.25,-126C934.25,-116.8 934.25,-105.14 934.25,-95.24"/>
<polygon fill="#63b8ff" stroke="#63b8ff" points="937.75,-95.32 934.25,-85.32 930.75,-95.32 937.75,-95.32"/>
</g>
<!-- Node13 -->
<g id="node13" class="node">
<title>Node13</title>
<g id="a_node13"><a xlink:title=" ">
<polygon fill="#e0e0e0" stroke="#999999" points="1050.62,-83.88 1009.88,-83.88 1009.88,-63.12 1050.62,-63.12 1050.62,-83.88"/>
<text text-anchor="middle" x="1030.25" y="-70.38" font-family="Helvetica,sans-Serif" font-size="10.00">utility</text>
</a>
</g>
</g>
<!-- Node11&#45;&gt;Node13 -->
<g id="edge19" class="edge">
<title>Node11&#45;&gt;Node13</title>
<path fill="none" stroke="#63b8ff" d="M957,-126C972.24,-115.28 992.24,-101.23 1007.49,-90.51"/>
<polygon fill="#63b8ff" stroke="#63b8ff" points="1009.11,-92.94 1015.28,-84.32 1005.09,-87.21 1009.11,-92.94"/>
</g>
<!-- Node14&#45;&gt;Node2 -->
<g id="edge22" class="edge">
<title>Node14&#45;&gt;Node2</title>
<path fill="none" stroke="#63b8ff" d="M140.87,-197.28C144.03,-196.74 147.17,-196.23 150.25,-195.75 281.72,-175.28 435.97,-159.26 525.46,-150.76"/>
<polygon fill="#63b8ff" stroke="#63b8ff" points="525.69,-154.16 535.32,-149.73 525.03,-147.19 525.69,-154.16"/>
</g>
<!-- Node14&#45;&gt;Node9 -->
<g id="edge21" class="edge">
<title>Node14&#45;&gt;Node9</title>
<path fill="none" stroke="#63b8ff" d="M87.87,-195.52C114.46,-171.39 165.01,-125.53 195.66,-97.72"/>
<polygon fill="#63b8ff" stroke="#63b8ff" points="197.69,-100.69 202.75,-91.38 192.99,-95.51 197.69,-100.69"/>
</g>
<!-- Node15&#45;&gt;Node2 -->
<g id="edge25" class="edge">
<title>Node15&#45;&gt;Node2</title>
<path fill="none" stroke="#63b8ff" d="M296.08,-197.32C298.84,-196.78 301.57,-196.26 304.25,-195.75 379.56,-181.47 465.93,-166.53 525.85,-156.4"/>
<polygon fill="#63b8ff" stroke="#63b8ff" points="526.07,-159.74 535.35,-154.63 524.91,-152.84 526.07,-159.74"/>
</g>
<!-- Node15&#45;&gt;Node9 -->
<g id="edge24" class="edge">
<title>Node15&#45;&gt;Node9</title>
<path fill="none" stroke="#63b8ff" d="M226.55,-195.52C225.53,-172.31 223.64,-129.02 222.41,-101"/>
<polygon fill="#63b8ff" stroke="#63b8ff" points="225.88,-101.22 221.95,-91.38 218.89,-101.53 225.88,-101.22"/>
</g>
<!-- Node16&#45;&gt;Node2 -->
<g id="edge28" class="edge">
<title>Node16&#45;&gt;Node2</title>
<path fill="none" stroke="#63b8ff" d="M430.66,-195.33C462.54,-185.68 503.21,-173.37 536.73,-163.23"/>
<polygon fill="#63b8ff" stroke="#63b8ff" points="537.33,-166.4 545.89,-160.15 535.3,-159.7 537.33,-166.4"/>
</g>
<!-- Node16&#45;&gt;Node9 -->
<g id="edge27" class="edge">
<title>Node16&#45;&gt;Node9</title>
<path fill="none" stroke="#63b8ff" d="M359.05,-195.52C331.46,-171.28 278.91,-125.14 247.28,-97.36"/>
<polygon fill="#63b8ff" stroke="#63b8ff" points="250.16,-94.35 240.33,-90.38 245.54,-99.61 250.16,-94.35"/>
</g>
<!-- Node17&#45;&gt;Node2 -->
<g id="edge31" class="edge">
<title>Node17&#45;&gt;Node2</title>
<path fill="none" stroke="#63b8ff" d="M543.79,-195.5C553.03,-187.07 564.53,-176.58 574.74,-167.27"/>
<polygon fill="#63b8ff" stroke="#63b8ff" points="576.55,-170.44 581.58,-161.12 571.84,-165.27 576.55,-170.44"/>
</g>
<!-- Node17&#45;&gt;Node9 -->
<g id="edge30" class="edge">
<title>Node17&#45;&gt;Node9</title>
<path fill="none" stroke="#63b8ff" d="M490.37,-195.38C434.73,-170.39 327.72,-122.32 266.74,-94.93"/>
<polygon fill="#63b8ff" stroke="#63b8ff" points="268.55,-91.46 258,-90.56 265.69,-97.85 268.55,-91.46"/>
</g>
<!-- Node18&#45;&gt;Node2 -->
<g id="edge33" class="edge">
<title>Node18&#45;&gt;Node2</title>
<path fill="none" stroke="#63b8ff" d="M685.93,-265.02C669.14,-241.3 637.49,-196.59 617.71,-168.66"/>
<polygon fill="#63b8ff" stroke="#63b8ff" points="620.13,-167.02 611.49,-160.88 614.42,-171.07 620.13,-167.02"/>
</g>
<!-- Node18&#45;&gt;Node4 -->
<g id="edge37" class="edge">
<title>Node18&#45;&gt;Node4</title>
<path fill="none" stroke="#63b8ff" d="M698.61,-264.76C700.65,-246.95 705.59,-217.96 717.25,-195.75 739.97,-152.5 781.77,-112.66 806.79,-91.16"/>
<polygon fill="#63b8ff" stroke="#63b8ff" points="808.78,-93.21 814.18,-84.09 804.27,-87.86 808.78,-93.21"/>
</g>
<!-- Node18&#45;&gt;Node19 -->
<g id="edge34" class="edge">
<title>Node18&#45;&gt;Node19</title>
<path fill="none" stroke="#63b8ff" d="M719.05,-265C730.88,-256.32 745.7,-245.46 758.66,-235.94"/>
<polygon fill="#63b8ff" stroke="#63b8ff" points="760.29,-238.35 766.28,-229.62 756.15,-232.71 760.29,-238.35"/>
</g>
<!-- Node19&#45;&gt;Node2 -->
<g id="edge35" class="edge">
<title>Node19&#45;&gt;Node2</title>
<path fill="none" stroke="#63b8ff" d="M743.98,-195.33C717.43,-185.85 683.68,-173.8 655.56,-163.75"/>
<polygon fill="#63b8ff" stroke="#63b8ff" points="657.07,-160.22 646.48,-160.15 654.72,-166.81 657.07,-160.22"/>
</g>
<!-- Node19&#45;&gt;Node11 -->
<g id="edge36" class="edge">
<title>Node19&#45;&gt;Node11</title>
<path fill="none" stroke="#63b8ff" d="M823.98,-195.33C843.73,-186.14 868.66,-174.53 889.82,-164.68"/>
<polygon fill="#63b8ff" stroke="#63b8ff" points="890.96,-167.55 898.55,-160.15 888.01,-161.2 890.96,-167.55"/>
</g>
</g>
</svg>
