<?xml version="1.0" encoding="UTF-8" standalone="no"?>
<!DOCTYPE svg PUBLIC "-//W3C//DTD SVG 1.1//EN"
 "http://www.w3.org/Graphics/SVG/1.1/DTD/svg11.dtd">
<!-- Generated by graphviz version 2.43.0 (0)
 -->
<!-- Title: sl::functional::transform_fn&lt; TFunc &gt; Pages: 1 -->
<svg width="1235pt" height="148pt"
 viewBox="0.00 0.00 1235.00 147.50" xmlns="http://www.w3.org/2000/svg" xmlns:xlink="http://www.w3.org/1999/xlink">
<g id="graph0" class="graph" transform="scale(1 1) rotate(0) translate(4 143.5)">
<title>sl::functional::transform_fn&lt; TFunc &gt;</title>
<polygon fill="white" stroke="transparent" points="-4,4 -4,-143.5 1231,-143.5 1231,4 -4,4"/>
<!-- Node1 -->
<g id="node1" class="node">
<title>Node1</title>
<g id="a_node1"><a xlink:title="Adapter type which accepts a functional type and enables pipe chaining and currying.">
<polygon fill="#bfbfbf" stroke="black" points="1093,-69 1093,-99 1227,-99 1227,-69 1093,-69"/>
<text text-anchor="start" x="1101" y="-87" font-family="Helvetica,sans-Serif" font-size="10.00">sl::functional::transform</text>
<text text-anchor="middle" x="1160" y="-76" font-family="Helvetica,sans-Serif" font-size="10.00">_fn&lt; TFunc &gt;</text>
</a>
</g>
</g>
<!-- Node2 -->
<g id="node2" class="node">
<title>Node2</title>
<g id="a_node2"><a xlink:href="../../d9/de4/classsl_1_1functional_1_1closure__base__fn.html" target="_top" xlink:title="Helper type which simply stores functional objects or function pointers.">
<polygon fill="white" stroke="black" points="712.5,-105 712.5,-135 833.5,-135 833.5,-105 712.5,-105"/>
<text text-anchor="start" x="720.5" y="-123" font-family="Helvetica,sans-Serif" font-size="10.00">sl::functional::closure</text>
<text text-anchor="middle" x="773" y="-112" font-family="Helvetica,sans-Serif" font-size="10.00">_base_fn&lt; TFunc &gt;</text>
</a>
</g>
</g>
<!-- Node2&#45;&gt;Node1 -->
<g id="edge1" class="edge">
<title>Node2&#45;&gt;Node1</title>
<path fill="none" stroke="midnightblue" d="M843.9,-113.46C914.76,-106.84 1023.57,-96.66 1092.99,-90.17"/>
<polygon fill="midnightblue" stroke="midnightblue" points="843.36,-110 833.73,-114.41 844.02,-116.97 843.36,-110"/>
</g>
<!-- Node3 -->
<g id="node3" class="node">
<title>Node3</title>
<g id="a_node3"><a xlink:href="../../d6/d62/structsl_1_1unified__base.html" target="_top" xlink:title=" ">
<polygon fill="white" stroke="black" points="324.5,-109 324.5,-139 455.5,-139 455.5,-109 324.5,-109"/>
<text text-anchor="start" x="332.5" y="-127" font-family="Helvetica,sans-Serif" font-size="10.00">sl::unified_base&lt; detail</text>
<text text-anchor="middle" x="390" y="-116" font-family="Helvetica,sans-Serif" font-size="10.00">::closure_base_tag &gt;</text>
</a>
</g>
</g>
<!-- Node3&#45;&gt;Node2 -->
<g id="edge2" class="edge">
<title>Node3&#45;&gt;Node2</title>
<path fill="none" stroke="#8b1a1a" d="M466.01,-123.21C538.19,-122.45 645.89,-121.32 712.39,-120.63"/>
<polygon fill="#8b1a1a" stroke="#8b1a1a" points="465.59,-119.72 455.63,-123.32 465.67,-126.72 465.59,-119.72"/>
</g>
<!-- Node4 -->
<g id="node4" class="node">
<title>Node4</title>
<g id="a_node4"><a xlink:href="../../d6/d62/structsl_1_1unified__base.html" target="_top" xlink:title="Helper type, which can be used to create a unified base class for templated derived classes and thus ...">
<polygon fill="white" stroke="black" points="0,-89.5 0,-108.5 137,-108.5 137,-89.5 0,-89.5"/>
<text text-anchor="middle" x="68.5" y="-96.5" font-family="Helvetica,sans-Serif" font-size="10.00">sl::unified_base&lt; TTag &gt;</text>
</a>
</g>
</g>
<!-- Node4&#45;&gt;Node3 -->
<g id="edge3" class="edge">
<title>Node4&#45;&gt;Node3</title>
<path fill="none" stroke="orange" stroke-dasharray="5,2" d="M147.52,-105.11C201.78,-109.35 273.26,-114.94 324.34,-118.94"/>
<polygon fill="orange" stroke="orange" points="147.5,-101.59 137.26,-104.3 146.95,-108.57 147.5,-101.59"/>
<text text-anchor="start" x="165.5" y="-129" font-family="Helvetica,sans-Serif" font-size="10.00"> &lt; detail::closure_base</text>
<text text-anchor="middle" x="221.5" y="-118" font-family="Helvetica,sans-Serif" font-size="10.00">_tag &gt;</text>
</g>
<!-- Node6 -->
<g id="node6" class="node">
<title>Node6</title>
<g id="a_node6"><a xlink:href="../../d6/d62/structsl_1_1unified__base.html" target="_top" xlink:title=" ">
<polygon fill="white" stroke="black" points="306,-60 306,-90 474,-90 474,-60 306,-60"/>
<text text-anchor="start" x="314" y="-78" font-family="Helvetica,sans-Serif" font-size="10.00">sl::unified_base&lt; detail</text>
<text text-anchor="middle" x="390" y="-67" font-family="Helvetica,sans-Serif" font-size="10.00">::enable_operators_base_tag &gt;</text>
</a>
</g>
</g>
<!-- Node4&#45;&gt;Node6 -->
<g id="edge6" class="edge">
<title>Node4&#45;&gt;Node6</title>
<path fill="none" stroke="orange" stroke-dasharray="5,2" d="M112.83,-86.98C126.24,-83.77 141.14,-80.72 155,-79 204.8,-72.82 261.01,-71.67 305.85,-72.14"/>
<polygon fill="orange" stroke="orange" points="111.77,-83.64 102.91,-89.45 113.46,-90.43 111.77,-83.64"/>
<text text-anchor="start" x="155" y="-93" font-family="Helvetica,sans-Serif" font-size="10.00"> &lt; detail::enable_operators</text>
<text text-anchor="middle" x="221.5" y="-82" font-family="Helvetica,sans-Serif" font-size="10.00">_base_tag &gt;</text>
</g>
<!-- Node5 -->
<g id="node5" class="node">
<title>Node5</title>
<g id="a_node5"><a xlink:href="../../d0/d50/structsl_1_1functional_1_1enable__operation.html" target="_top" xlink:title=" ">
<polygon fill="white" stroke="black" points="865,-23 865,-75 1056,-75 1056,-23 865,-23"/>
<text text-anchor="start" x="873" y="-63" font-family="Helvetica,sans-Serif" font-size="10.00">sl::functional::enable</text>
<text text-anchor="start" x="873" y="-52" font-family="Helvetica,sans-Serif" font-size="10.00">_operation&lt; transform</text>
<text text-anchor="start" x="873" y="-41" font-family="Helvetica,sans-Serif" font-size="10.00">_fn, operators::pipe, operators</text>
<text text-anchor="middle" x="960.5" y="-30" font-family="Helvetica,sans-Serif" font-size="10.00">::bind_front, operators::bind_back &gt;</text>
</a>
</g>
</g>
<!-- Node5&#45;&gt;Node1 -->
<g id="edge4" class="edge">
<title>Node5&#45;&gt;Node1</title>
<path fill="none" stroke="midnightblue" d="M1066.07,-67.53C1075.15,-69.14 1084.16,-70.74 1092.8,-72.27"/>
<polygon fill="midnightblue" stroke="midnightblue" points="1066.66,-64.08 1056.2,-65.78 1065.44,-70.97 1066.66,-64.08"/>
</g>
<!-- Node6&#45;&gt;Node5 -->
<g id="edge5" class="edge">
<title>Node6&#45;&gt;Node5</title>
<path fill="none" stroke="#8b1a1a" d="M484.22,-79.68C576.59,-83.08 721.96,-85.07 847,-72 852.85,-71.39 858.84,-70.61 864.87,-69.72"/>
<polygon fill="#8b1a1a" stroke="#8b1a1a" points="484.19,-76.18 474.06,-79.3 483.92,-83.17 484.19,-76.18"/>
</g>
<!-- Node8 -->
<g id="node8" class="node">
<title>Node8</title>
<g id="a_node8"><a xlink:href="../../d0/d50/structsl_1_1functional_1_1enable__operation.html" target="_top" xlink:title=" ">
<polygon fill="white" stroke="black" points="511,-16.5 511,-57.5 681,-57.5 681,-16.5 511,-16.5"/>
<text text-anchor="start" x="519" y="-45.5" font-family="Helvetica,sans-Serif" font-size="10.00">sl::functional::enable</text>
<text text-anchor="start" x="519" y="-34.5" font-family="Helvetica,sans-Serif" font-size="10.00">_operation&lt; TClosureTemplate,</text>
<text text-anchor="middle" x="596" y="-23.5" font-family="Helvetica,sans-Serif" font-size="10.00"> TOperationTags &gt;</text>
</a>
</g>
</g>
<!-- Node6&#45;&gt;Node8 -->
<g id="edge9" class="edge">
<title>Node6&#45;&gt;Node8</title>
<path fill="none" stroke="#8b1a1a" d="M481.7,-58.11C491.43,-56.29 501.29,-54.46 510.94,-52.66"/>
<polygon fill="#8b1a1a" stroke="#8b1a1a" points="480.82,-54.71 471.63,-59.98 482.1,-61.59 480.82,-54.71"/>
</g>
<!-- Node7 -->
<g id="node7" class="node">
<title>Node7</title>
<g id="a_node7"><a xlink:title=" ">
<polygon fill="white" stroke="#bfbfbf" points="344,-0.5 344,-19.5 436,-19.5 436,-0.5 344,-0.5"/>
<text text-anchor="middle" x="390" y="-7.5" font-family="Helvetica,sans-Serif" font-size="10.00">TOperationTags</text>
</a>
</g>
</g>
<!-- Node7&#45;&gt;Node5 -->
<g id="edge7" class="edge">
<title>Node7&#45;&gt;Node5</title>
<path fill="none" stroke="midnightblue" d="M446.07,-8.33C466.47,-7.79 489.79,-7.27 511,-7 586.55,-6.06 605.64,-1.58 681,-7 755.35,-12.35 773.3,-19.78 847,-31 852.87,-31.89 858.9,-32.82 864.99,-33.77"/>
<polygon fill="midnightblue" stroke="midnightblue" points="445.91,-4.84 436.01,-8.61 446.1,-11.83 445.91,-4.84"/>
</g>
<!-- Node7&#45;&gt;Node8 -->
<g id="edge10" class="edge">
<title>Node7&#45;&gt;Node8</title>
<path fill="none" stroke="midnightblue" d="M446.11,-17.29C465.98,-19.92 488.88,-22.96 510.67,-25.84"/>
<polygon fill="midnightblue" stroke="midnightblue" points="446.39,-13.8 436.02,-15.96 445.48,-20.74 446.39,-13.8"/>
</g>
<!-- Node8&#45;&gt;Node5 -->
<g id="edge8" class="edge">
<title>Node8&#45;&gt;Node5</title>
<path fill="none" stroke="orange" stroke-dasharray="5,2" d="M691.37,-35.96C738.2,-35.9 795.6,-36.51 847,-39 852.78,-39.28 858.72,-39.63 864.71,-40.02"/>
<polygon fill="orange" stroke="orange" points="691.23,-32.46 681.24,-35.98 691.24,-39.46 691.23,-32.46"/>
<text text-anchor="start" x="699" y="-64" font-family="Helvetica,sans-Serif" font-size="10.00"> &lt; transform_fn, operators</text>
<text text-anchor="start" x="699" y="-53" font-family="Helvetica,sans-Serif" font-size="10.00">::pipe, operators::bind</text>
<text text-anchor="middle" x="773" y="-42" font-family="Helvetica,sans-Serif" font-size="10.00">_front, operators::bind_back &gt;</text>
</g>
</g>
</svg>
