<?xml version="1.0" encoding="UTF-8" standalone="no"?>
<!DOCTYPE svg PUBLIC "-//W3C//DTD SVG 1.1//EN"
 "http://www.w3.org/Graphics/SVG/1.1/DTD/svg11.dtd">
<!-- Generated by graphviz version 7.0.5 (20221223.1930)
 -->
<!-- Title: sl::tuple::is_nothrow_apply_invocable&lt; TFunc, TTuple &gt; Pages: 1 -->
<svg width="793pt" height="76pt"
 viewBox="0.00 0.00 793.00 75.50" xmlns="http://www.w3.org/2000/svg" xmlns:xlink="http://www.w3.org/1999/xlink">
<g id="graph0" class="graph" transform="scale(1 1) rotate(0) translate(4 71.5)">
<title>sl::tuple::is_nothrow_apply_invocable&lt; TFunc, TTuple &gt;</title>
<!-- Node1 -->
<g id="node1" class="node">
<title>Node1</title>
<g id="a_node1"><a xlink:title="Trait type determining whether the function is invocable with elements of the given tuple without thr...">
<polygon fill="#999999" stroke="#666666" points="785,-56.5 652,-56.5 652,-15.5 785,-15.5 785,-56.5"/>
<text text-anchor="start" x="660" y="-44.5" font-family="Helvetica,sans-Serif" font-size="10.00">sl::tuple::is_nothrow</text>
<text text-anchor="start" x="660" y="-33.5" font-family="Helvetica,sans-Serif" font-size="10.00">_apply_invocable&lt; TFunc,</text>
<text text-anchor="middle" x="718.5" y="-22.5" font-family="Helvetica,sans-Serif" font-size="10.00"> TTuple &gt;</text>
</a>
</g>
</g>
<!-- Node2 -->
<g id="node2" class="node">
<title>Node2</title>
<g id="a_node2"><a xlink:title=" ">
<polygon fill="white" stroke="#666666" points="615,-67.5 469,-67.5 469,-4.5 615,-4.5 615,-67.5"/>
<text text-anchor="start" x="477" y="-55.5" font-family="Helvetica,sans-Serif" font-size="10.00">sl::tuple::detail::</text>
<text text-anchor="start" x="477" y="-44.5" font-family="Helvetica,sans-Serif" font-size="10.00">is_nothrow_apply_invocable</text>
<text text-anchor="start" x="477" y="-33.5" font-family="Helvetica,sans-Serif" font-size="10.00">&lt; TFunc, TTuple, std::make</text>
<text text-anchor="start" x="477" y="-22.5" font-family="Helvetica,sans-Serif" font-size="10.00">_index_sequence&lt; std::tuple</text>
<text text-anchor="middle" x="542" y="-11.5" font-family="Helvetica,sans-Serif" font-size="10.00">_size_v&lt; TTuple &gt; &gt; &gt;</text>
</a>
</g>
</g>
<!-- Node2&#45;&gt;Node1 -->
<g id="edge1" class="edge">
<title>Node2&#45;&gt;Node1</title>
<path fill="none" stroke="#63b8ff" d="M626.81,-36C635.15,-36 643.53,-36 651.65,-36"/>
<polygon fill="#63b8ff" stroke="#63b8ff" points="627,-32.5 617,-36 627,-39.5 627,-32.5"/>
</g>
<!-- Node3 -->
<g id="node3" class="node">
<title>Node3</title>
<g id="a_node3"><a xlink:title=" ">
<polygon fill="white" stroke="#666666" points="82,-47.5 0,-47.5 0,-28.5 82,-28.5 82,-47.5"/>
<text text-anchor="middle" x="41" y="-35.5" font-family="Helvetica,sans-Serif" font-size="10.00">std::false_type</text>
</a>
</g>
</g>
<!-- Node3&#45;&gt;Node2 -->
<g id="edge2" class="edge">
<title>Node3&#45;&gt;Node2</title>
<path fill="none" stroke="#63b8ff" d="M93.7,-42.64C95.82,-42.78 97.93,-42.9 100,-43 255.81,-50.85 295.23,-54.63 451,-46 456.81,-45.68 462.82,-45.24 468.85,-44.73"/>
<polygon fill="#63b8ff" stroke="#63b8ff" points="93.95,-39.15 83.73,-41.95 93.47,-46.14 93.95,-39.15"/>
</g>
<!-- Node4 -->
<g id="node4" class="node">
<title>Node4</title>
<g id="a_node4"><a xlink:title=" ">
<polygon fill="white" stroke="#666666" points="286,-30 119,-30 119,0 286,0 286,-30"/>
<text text-anchor="start" x="127" y="-18" font-family="Helvetica,sans-Serif" font-size="10.00">sl::tuple::detail::</text>
<text text-anchor="middle" x="202.5" y="-7" font-family="Helvetica,sans-Serif" font-size="10.00">is_nothrow_apply_invocable&lt;... &gt;</text>
</a>
</g>
</g>
<!-- Node3&#45;&gt;Node4 -->
<g id="edge4" class="edge">
<title>Node3&#45;&gt;Node4</title>
<path fill="none" stroke="#63b8ff" d="M93.64,-30.55C101.66,-29.4 110.12,-28.18 118.62,-26.95"/>
<polygon fill="#63b8ff" stroke="#63b8ff" points="93.14,-27.09 83.75,-31.98 94.14,-34.02 93.14,-27.09"/>
</g>
<!-- Node4&#45;&gt;Node2 -->
<g id="edge3" class="edge">
<title>Node4&#45;&gt;Node2</title>
<path fill="none" stroke="orange" stroke-dasharray="5,2" d="M297.57,-8.38C343.94,-6.6 400.58,-6.66 451,-13 456.76,-13.72 462.68,-14.7 468.6,-15.84"/>
<polygon fill="orange" stroke="orange" points="297.68,-4.87 287.83,-8.79 297.97,-11.87 297.68,-4.87"/>
<text text-anchor="start" x="304" y="-38" font-family="Helvetica,sans-Serif" font-size="10.00"> &lt; TFunc, TTuple, std</text>
<text text-anchor="start" x="304" y="-27" font-family="Helvetica,sans-Serif" font-size="10.00">::make_index_sequence</text>
<text text-anchor="middle" x="377.5" y="-16" font-family="Helvetica,sans-Serif" font-size="10.00">&lt; std::tuple_size_v&lt; TTuple &gt; &gt; &gt;</text>
</g>
</g>
</svg>
