<?xml version="1.0" encoding="UTF-8" standalone="no"?>
<!DOCTYPE svg PUBLIC "-//W3C//DTD SVG 1.1//EN"
 "http://www.w3.org/Graphics/SVG/1.1/DTD/svg11.dtd">
<!-- Generated by graphviz version 8.0.5 (20230430.1635)
 -->
<!-- Title: sl::functional::transform_fn&lt; TFunc &gt; Pages: 1 -->
<svg width="1153pt" height="153pt"
 viewBox="0.00 0.00 1152.75 153.12" xmlns="http://www.w3.org/2000/svg" xmlns:xlink="http://www.w3.org/1999/xlink">
<g id="graph0" class="graph" transform="scale(1 1) rotate(0) translate(4 149.12)">
<title>sl::functional::transform_fn&lt; TFunc &gt;</title>
<!-- Node1 -->
<g id="node1" class="node">
<title>Node1</title>
<g id="a_node1"><a xlink:title="Adapter type which accepts a functional type and enables pipe chaining and currying.">
<polygon fill="#999999" stroke="#666666" points="1144.75,-104.12 1020.75,-104.12 1020.75,-70.62 1144.75,-70.62 1144.75,-104.12"/>
<text text-anchor="start" x="1028.75" y="-90.62" font-family="Helvetica,sans-Serif" font-size="10.00">sl::functional::transform</text>
<text text-anchor="middle" x="1082.75" y="-77.88" font-family="Helvetica,sans-Serif" font-size="10.00">_fn&lt; TFunc &gt;</text>
</a>
</g>
</g>
<!-- Node2 -->
<g id="node2" class="node">
<title>Node2</title>
<g id="a_node2"><a xlink:href="../../d9/de4/classsl_1_1functional_1_1closure__base__fn.html" target="_top" xlink:title="Helper type which simply stores functional objects or function pointers.">
<polygon fill="white" stroke="#666666" points="775.5,-142.12 665,-142.12 665,-108.62 775.5,-108.62 775.5,-142.12"/>
<text text-anchor="start" x="673" y="-128.62" font-family="Helvetica,sans-Serif" font-size="10.00">sl::functional::closure</text>
<text text-anchor="middle" x="720.25" y="-115.88" font-family="Helvetica,sans-Serif" font-size="10.00">_base_fn&lt; TFunc &gt;</text>
</a>
</g>
</g>
<!-- Node2&#45;&gt;Node1 -->
<g id="edge1" class="edge">
<title>Node2&#45;&gt;Node1</title>
<path fill="none" stroke="#63b8ff" d="M786.36,-118.51C852.82,-111.51 955.19,-100.72 1020.29,-93.85"/>
<polygon fill="#63b8ff" stroke="#63b8ff" points="786.19,-115.12 776.61,-119.64 786.92,-122.08 786.19,-115.12"/>
</g>
<!-- Node3 -->
<g id="node3" class="node">
<title>Node3</title>
<g id="a_node3"><a xlink:href="../../d6/d62/structsl_1_1unified__base.html" target="_top" xlink:title=" ">
<polygon fill="white" stroke="#666666" points="418.62,-145.12 299.88,-145.12 299.88,-111.62 418.62,-111.62 418.62,-145.12"/>
<text text-anchor="start" x="307.88" y="-131.62" font-family="Helvetica,sans-Serif" font-size="10.00">sl::unified_base&lt; detail</text>
<text text-anchor="middle" x="359.25" y="-118.88" font-family="Helvetica,sans-Serif" font-size="10.00">::closure_base_tag &gt;</text>
</a>
</g>
</g>
<!-- Node3&#45;&gt;Node2 -->
<g id="edge2" class="edge">
<title>Node3&#45;&gt;Node2</title>
<path fill="none" stroke="#8b1a1a" d="M429.42,-127.8C497.98,-127.22 601.63,-126.36 664.62,-125.83"/>
<polygon fill="#8b1a1a" stroke="#8b1a1a" points="429.7,-124.3 419.73,-127.89 429.76,-131.3 429.7,-124.3"/>
</g>
<!-- Node4 -->
<g id="node4" class="node">
<title>Node4</title>
<g id="a_node4"><a xlink:href="../../d6/d62/structsl_1_1unified__base.html" target="_top" xlink:title="Helper type, which can be used to create a unified base class for templated derived classes and thus ...">
<polygon fill="white" stroke="#666666" points="124.75,-111.75 0,-111.75 0,-91 124.75,-91 124.75,-111.75"/>
<text text-anchor="middle" x="62.38" y="-98.25" font-family="Helvetica,sans-Serif" font-size="10.00">sl::unified_base&lt; TTag &gt;</text>
</a>
</g>
</g>
<!-- Node4&#45;&gt;Node3 -->
<g id="edge3" class="edge">
<title>Node4&#45;&gt;Node3</title>
<path fill="none" stroke="orange" stroke-dasharray="5,2" d="M136,-108.03C186.34,-112.63 252.52,-118.69 299.53,-123"/>
<polygon fill="orange" stroke="orange" points="136.47,-104.46 126.19,-107.04 135.83,-111.43 136.47,-104.46"/>
<text text-anchor="start" x="153.62" y="-135.38" font-family="Helvetica,sans-Serif" font-size="10.00"> &lt; detail::closure_base</text>
<text text-anchor="middle" x="203.12" y="-122.62" font-family="Helvetica,sans-Serif" font-size="10.00">_tag &gt;</text>
</g>
<!-- Node6 -->
<g id="node6" class="node">
<title>Node6</title>
<g id="a_node6"><a xlink:href="../../d6/d62/structsl_1_1unified__base.html" target="_top" xlink:title=" ">
<polygon fill="white" stroke="#666666" points="437,-93.12 281.5,-93.12 281.5,-59.62 437,-59.62 437,-93.12"/>
<text text-anchor="start" x="289.5" y="-79.62" font-family="Helvetica,sans-Serif" font-size="10.00">sl::unified_base&lt; detail</text>
<text text-anchor="middle" x="359.25" y="-66.88" font-family="Helvetica,sans-Serif" font-size="10.00">::enable_operators_base_tag &gt;</text>
</a>
</g>
</g>
<!-- Node4&#45;&gt;Node6 -->
<g id="edge6" class="edge">
<title>Node4&#45;&gt;Node6</title>
<path fill="none" stroke="orange" stroke-dasharray="5,2" d="M106.55,-87.6C118.18,-84.46 130.84,-81.56 142.75,-79.88 188.32,-73.44 239.85,-72.38 281.09,-73.01"/>
<polygon fill="orange" stroke="orange" points="105.88,-84.43 97.21,-90.52 107.78,-91.17 105.88,-84.43"/>
<text text-anchor="start" x="142.75" y="-95.38" font-family="Helvetica,sans-Serif" font-size="10.00"> &lt; detail::enable_operators</text>
<text text-anchor="middle" x="203.12" y="-82.62" font-family="Helvetica,sans-Serif" font-size="10.00">_base_tag &gt;</text>
</g>
<!-- Node5 -->
<g id="node5" class="node">
<title>Node5</title>
<g id="a_node5"><a xlink:href="../../d0/d50/structsl_1_1functional_1_1enable__operation.html" target="_top" xlink:title=" ">
<polygon fill="white" stroke="#666666" points="983.75,-79.88 806.5,-79.88 806.5,-20.88 983.75,-20.88 983.75,-79.88"/>
<text text-anchor="start" x="814.5" y="-66.38" font-family="Helvetica,sans-Serif" font-size="10.00">sl::functional::enable</text>
<text text-anchor="start" x="814.5" y="-53.62" font-family="Helvetica,sans-Serif" font-size="10.00">_operation&lt; transform</text>
<text text-anchor="start" x="814.5" y="-40.88" font-family="Helvetica,sans-Serif" font-size="10.00">_fn, operators::pipe, operators</text>
<text text-anchor="middle" x="895.12" y="-28.12" font-family="Helvetica,sans-Serif" font-size="10.00">::bind_front, operators::bind_back &gt;</text>
</a>
</g>
</g>
<!-- Node5&#45;&gt;Node1 -->
<g id="edge4" class="edge">
<title>Node5&#45;&gt;Node1</title>
<path fill="none" stroke="#63b8ff" d="M994.7,-70.02C1003.42,-71.76 1012.08,-73.49 1020.35,-75.14"/>
<polygon fill="#63b8ff" stroke="#63b8ff" points="995.54,-66.42 985.05,-67.9 994.17,-73.29 995.54,-66.42"/>
</g>
<!-- Node6&#45;&gt;Node5 -->
<g id="edge5" class="edge">
<title>Node6&#45;&gt;Node5</title>
<path fill="none" stroke="#8b1a1a" d="M448.03,-82.53C534.86,-87.17 671.36,-90.58 788.5,-76.38 794.31,-75.67 800.26,-74.75 806.24,-73.69"/>
<polygon fill="#8b1a1a" stroke="#8b1a1a" points="448.35,-78.99 438.17,-81.93 447.96,-85.98 448.35,-78.99"/>
</g>
<!-- Node8 -->
<g id="node8" class="node">
<title>Node8</title>
<g id="a_node8"><a xlink:href="../../d0/d50/structsl_1_1functional_1_1enable__operation.html" target="_top" xlink:title=" ">
<polygon fill="white" stroke="#666666" points="634,-62.5 474,-62.5 474,-16.25 634,-16.25 634,-62.5"/>
<text text-anchor="start" x="482" y="-49" font-family="Helvetica,sans-Serif" font-size="10.00">sl::functional::enable</text>
<text text-anchor="start" x="482" y="-36.25" font-family="Helvetica,sans-Serif" font-size="10.00">_operation&lt; TClosureTemplate,</text>
<text text-anchor="middle" x="554" y="-23.5" font-family="Helvetica,sans-Serif" font-size="10.00"> TOperationTags &gt;</text>
</a>
</g>
</g>
<!-- Node6&#45;&gt;Node8 -->
<g id="edge9" class="edge">
<title>Node6&#45;&gt;Node8</title>
<path fill="none" stroke="#8b1a1a" d="M448,-59.53C456.53,-57.89 465.15,-56.24 473.59,-54.62"/>
<polygon fill="#8b1a1a" stroke="#8b1a1a" points="447.42,-56.27 438.26,-61.59 448.74,-63.14 447.42,-56.27"/>
</g>
<!-- Node7 -->
<g id="node7" class="node">
<title>Node7</title>
<g id="a_node7"><a xlink:title=" ">
<polygon fill="white" stroke="#666666" points="404,-20.75 314.5,-20.75 314.5,0 404,0 404,-20.75"/>
<text text-anchor="middle" x="359.25" y="-7.25" font-family="Helvetica,sans-Serif" font-size="10.00">TOperationTags</text>
</a>
</g>
</g>
<!-- Node7&#45;&gt;Node5 -->
<g id="edge7" class="edge">
<title>Node7&#45;&gt;Node5</title>
<path fill="none" stroke="#63b8ff" d="M415.25,-8.63C433.9,-8.12 454.85,-7.63 474,-7.38 545.1,-6.44 563.12,-1.68 634,-7.38 703.34,-12.95 719.88,-20.98 788.5,-32.38 794.28,-33.34 800.24,-34.33 806.24,-35.34"/>
<polygon fill="#63b8ff" stroke="#63b8ff" points="415.17,-5.16 405.27,-8.94 415.36,-12.16 415.17,-5.16"/>
</g>
<!-- Node7&#45;&gt;Node8 -->
<g id="edge10" class="edge">
<title>Node7&#45;&gt;Node8</title>
<path fill="none" stroke="#63b8ff" d="M415.19,-18.64C433.42,-21.38 454.1,-24.5 473.79,-27.46"/>
<polygon fill="#63b8ff" stroke="#63b8ff" points="415.88,-15.06 405.47,-17.03 414.84,-21.98 415.88,-15.06"/>
</g>
<!-- Node8&#45;&gt;Node5 -->
<g id="edge8" class="edge">
<title>Node8&#45;&gt;Node5</title>
<path fill="none" stroke="orange" stroke-dasharray="5,2" d="M645.21,-38.17C647.5,-38.16 649.76,-38.14 652,-38.12 712.67,-37.73 727.93,-34.62 788.5,-38.12 794.21,-38.46 800.09,-38.89 806.01,-39.39"/>
<polygon fill="orange" stroke="orange" points="645.37,-34.68 635.4,-38.27 645.43,-41.68 645.37,-34.68"/>
<text text-anchor="start" x="652" y="-66.12" font-family="Helvetica,sans-Serif" font-size="10.00"> &lt; transform_fn, operators</text>
<text text-anchor="start" x="652" y="-53.38" font-family="Helvetica,sans-Serif" font-size="10.00">::pipe, operators::bind</text>
<text text-anchor="middle" x="720.25" y="-40.62" font-family="Helvetica,sans-Serif" font-size="10.00">_front, operators::bind_back &gt;</text>
</g>
</g>
</svg>
