<?xml version="1.0" encoding="UTF-8" standalone="no"?>
<!DOCTYPE svg PUBLIC "-//W3C//DTD SVG 1.1//EN"
 "http://www.w3.org/Graphics/SVG/1.1/DTD/svg11.dtd">
<!-- Generated by graphviz version 2.43.0 (0)
 -->
<!-- Title: sl::nullables::fwd_value_fn Pages: 1 -->
<svg width="240pt" height="39pt"
 viewBox="0.00 0.00 240.00 39.00" xmlns="http://www.w3.org/2000/svg" xmlns:xlink="http://www.w3.org/1999/xlink">
<g id="graph0" class="graph" transform="scale(1 1) rotate(0) translate(4 35)">
<title>sl::nullables::fwd_value_fn</title>
<polygon fill="white" stroke="transparent" points="-4,4 -4,-35 236,-35 236,4 -4,4"/>
<!-- Node1 -->
<g id="node1" class="node">
<title>Node1</title>
<g id="a_node1"><a xlink:title="Creates a functional object which can be used for composing with other functional objects.">
<polygon fill="#bfbfbf" stroke="black" points="0,-0.5 0,-30.5 98,-30.5 98,-0.5 0,-0.5"/>
<text text-anchor="start" x="8" y="-18.5" font-family="Helvetica,sans-Serif" font-size="10.00">sl::nullables::fwd</text>
<text text-anchor="middle" x="49" y="-7.5" font-family="Helvetica,sans-Serif" font-size="10.00">_value_fn</text>
</a>
</g>
</g>
<!-- Node2 -->
<g id="node2" class="node">
<title>Node2</title>
<g id="a_node2"><a xlink:href="../../d6/d1d/group___g_r_o_u_p___n_u_l_l_a_b_l_e_s___a_l_g_o_r_i_t_h_m_s.html#ga9148a75e548d317067046fd31a4b8277" target="_top" xlink:title="Passes the value of the input_nullable to the function if it&#39;s not equal to its null&#45;object.">
<polygon fill="white" stroke="black" points="134,-0.5 134,-30.5 232,-30.5 232,-0.5 134,-0.5"/>
<text text-anchor="start" x="142" y="-18.5" font-family="Helvetica,sans-Serif" font-size="10.00">sl::nullables::fwd</text>
<text text-anchor="middle" x="183" y="-7.5" font-family="Helvetica,sans-Serif" font-size="10.00">_value</text>
</a>
</g>
</g>
<!-- Node1&#45;&gt;Node2 -->
<g id="edge1" class="edge">
<title>Node1&#45;&gt;Node2</title>
<path fill="none" stroke="midnightblue" d="M98.03,-15.5C106.31,-15.5 115,-15.5 123.52,-15.5"/>
<polygon fill="midnightblue" stroke="midnightblue" points="123.79,-19 133.79,-15.5 123.79,-12 123.79,-19"/>
</g>
</g>
</svg>
