<?xml version="1.0" encoding="UTF-8" standalone="no"?>
<!DOCTYPE svg PUBLIC "-//W3C//DTD SVG 1.1//EN"
 "http://www.w3.org/Graphics/SVG/1.1/DTD/svg11.dtd">
<!-- Generated by graphviz version 2.43.0 (0)
 -->
<!-- Title: /home/runner/work/Simple&#45;Utility/Simple&#45;Utility/include/Simple&#45;Utility/tuple/general.hpp Pages: 1 -->
<svg width="278pt" height="117pt"
 viewBox="0.00 0.00 277.50 117.00" xmlns="http://www.w3.org/2000/svg" xmlns:xlink="http://www.w3.org/1999/xlink">
<g id="graph0" class="graph" transform="scale(1 1) rotate(0) translate(4 113)">
<title>/home/runner/work/Simple&#45;Utility/Simple&#45;Utility/include/Simple&#45;Utility/tuple/general.hpp</title>
<polygon fill="white" stroke="transparent" points="-4,4 -4,-113 273.5,-113 273.5,4 -4,4"/>
<!-- Node1 -->
<g id="node1" class="node">
<title>Node1</title>
<g id="a_node1"><a xlink:title=" ">
<polygon fill="#bfbfbf" stroke="black" points="62,-56.5 62,-108.5 208,-108.5 208,-56.5 62,-56.5"/>
<text text-anchor="start" x="70" y="-96.5" font-family="Helvetica,sans-Serif" font-size="10.00">/home/runner/work/Simple</text>
<text text-anchor="start" x="70" y="-85.5" font-family="Helvetica,sans-Serif" font-size="10.00">&#45;Utility/Simple&#45;Utility</text>
<text text-anchor="start" x="70" y="-74.5" font-family="Helvetica,sans-Serif" font-size="10.00">/include/Simple&#45;Utility</text>
<text text-anchor="middle" x="135" y="-63.5" font-family="Helvetica,sans-Serif" font-size="10.00">/tuple/general.hpp</text>
</a>
</g>
</g>
<!-- Node2 -->
<g id="node2" class="node">
<title>Node2</title>
<g id="a_node2"><a xlink:title=" ">
<polygon fill="white" stroke="#bfbfbf" points="0,-0.5 0,-19.5 60,-19.5 60,-0.5 0,-0.5"/>
<text text-anchor="middle" x="30" y="-7.5" font-family="Helvetica,sans-Serif" font-size="10.00">concepts</text>
</a>
</g>
</g>
<!-- Node1&#45;&gt;Node2 -->
<g id="edge1" class="edge">
<title>Node1&#45;&gt;Node2</title>
<path fill="none" stroke="midnightblue" d="M97.69,-56.45C82.17,-46.03 64.71,-34.31 51.42,-25.38"/>
<polygon fill="midnightblue" stroke="midnightblue" points="53.2,-22.36 42.95,-19.7 49.3,-28.18 53.2,-22.36"/>
</g>
<!-- Node3 -->
<g id="node3" class="node">
<title>Node3</title>
<g id="a_node3"><a xlink:title=" ">
<polygon fill="white" stroke="#bfbfbf" points="78.5,-0.5 78.5,-19.5 119.5,-19.5 119.5,-0.5 78.5,-0.5"/>
<text text-anchor="middle" x="99" y="-7.5" font-family="Helvetica,sans-Serif" font-size="10.00">tuple</text>
</a>
</g>
</g>
<!-- Node1&#45;&gt;Node3 -->
<g id="edge2" class="edge">
<title>Node1&#45;&gt;Node3</title>
<path fill="none" stroke="midnightblue" d="M122.21,-56.45C117.55,-47.33 112.39,-37.22 108.12,-28.85"/>
<polygon fill="midnightblue" stroke="midnightblue" points="111.11,-27.01 103.44,-19.7 104.87,-30.19 111.11,-27.01"/>
</g>
<!-- Node4 -->
<g id="node4" class="node">
<title>Node4</title>
<g id="a_node4"><a xlink:title=" ">
<polygon fill="white" stroke="#bfbfbf" points="137.5,-0.5 137.5,-19.5 206.5,-19.5 206.5,-0.5 137.5,-0.5"/>
<text text-anchor="middle" x="172" y="-7.5" font-family="Helvetica,sans-Serif" font-size="10.00">type_traits</text>
</a>
</g>
</g>
<!-- Node1&#45;&gt;Node4 -->
<g id="edge3" class="edge">
<title>Node1&#45;&gt;Node4</title>
<path fill="none" stroke="midnightblue" d="M148.15,-56.45C152.99,-47.23 158.36,-37 162.78,-28.58"/>
<polygon fill="midnightblue" stroke="midnightblue" points="165.89,-30.18 167.44,-19.7 159.69,-26.92 165.89,-30.18"/>
</g>
<!-- Node5 -->
<g id="node5" class="node">
<title>Node5</title>
<g id="a_node5"><a xlink:title=" ">
<polygon fill="white" stroke="#bfbfbf" points="224.5,-0.5 224.5,-19.5 269.5,-19.5 269.5,-0.5 224.5,-0.5"/>
<text text-anchor="middle" x="247" y="-7.5" font-family="Helvetica,sans-Serif" font-size="10.00">utility</text>
</a>
</g>
</g>
<!-- Node1&#45;&gt;Node5 -->
<g id="edge4" class="edge">
<title>Node1&#45;&gt;Node5</title>
<path fill="none" stroke="midnightblue" d="M174.8,-56.45C191.62,-45.86 210.56,-33.94 224.83,-24.96"/>
<polygon fill="midnightblue" stroke="midnightblue" points="226.86,-27.82 233.45,-19.53 223.13,-21.89 226.86,-27.82"/>
</g>
</g>
</svg>
