<?xml version="1.0" encoding="UTF-8" standalone="no"?>
<!DOCTYPE svg PUBLIC "-//W3C//DTD SVG 1.1//EN"
 "http://www.w3.org/Graphics/SVG/1.1/DTD/svg11.dtd">
<!-- Generated by graphviz version 8.0.5 (20230430.1635)
 -->
<!-- Title: Simple&#45;Utility/tuple/general.hpp Pages: 1 -->
<svg width="263pt" height="98pt"
 viewBox="0.00 0.00 262.62 98.25" xmlns="http://www.w3.org/2000/svg" xmlns:xlink="http://www.w3.org/1999/xlink">
<g id="graph0" class="graph" transform="scale(1 1) rotate(0) translate(4 94.25)">
<title>Simple&#45;Utility/tuple/general.hpp</title>
<!-- Node1 -->
<g id="node1" class="node">
<title>Node1</title>
<g id="a_node1"><a xlink:title=" ">
<polygon fill="#999999" stroke="#666666" points="181.5,-90.25 77,-90.25 77,-56.75 181.5,-56.75 181.5,-90.25"/>
<text text-anchor="start" x="85" y="-76.75" font-family="Helvetica,sans-Serif" font-size="10.00">Simple&#45;Utility/tuple</text>
<text text-anchor="middle" x="129.25" y="-64" font-family="Helvetica,sans-Serif" font-size="10.00">/general.hpp</text>
</a>
</g>
</g>
<!-- Node2 -->
<g id="node2" class="node">
<title>Node2</title>
<g id="a_node2"><a xlink:title=" ">
<polygon fill="#e0e0e0" stroke="#999999" points="56.5,-20.75 0,-20.75 0,0 56.5,0 56.5,-20.75"/>
<text text-anchor="middle" x="28.25" y="-7.25" font-family="Helvetica,sans-Serif" font-size="10.00">concepts</text>
</a>
</g>
</g>
<!-- Node1&#45;&gt;Node2 -->
<g id="edge1" class="edge">
<title>Node1&#45;&gt;Node2</title>
<path fill="none" stroke="#63b8ff" d="M102.45,-56.28C87.3,-47.11 68.47,-35.72 53.57,-26.7"/>
<polygon fill="#63b8ff" stroke="#63b8ff" points="55.79,-23.35 45.43,-21.17 52.17,-29.34 55.79,-23.35"/>
</g>
<!-- Node3 -->
<g id="node3" class="node">
<title>Node3</title>
<g id="a_node3"><a xlink:title=" ">
<polygon fill="#e0e0e0" stroke="#999999" points="113.88,-20.75 74.62,-20.75 74.62,0 113.88,0 113.88,-20.75"/>
<text text-anchor="middle" x="94.25" y="-7.25" font-family="Helvetica,sans-Serif" font-size="10.00">tuple</text>
</a>
</g>
</g>
<!-- Node1&#45;&gt;Node3 -->
<g id="edge2" class="edge">
<title>Node1&#45;&gt;Node3</title>
<path fill="none" stroke="#63b8ff" d="M120.05,-56.44C115.5,-48.49 109.98,-38.84 105.21,-30.52"/>
<polygon fill="#63b8ff" stroke="#63b8ff" points="107.89,-29.16 99.89,-22.22 101.82,-32.63 107.89,-29.16"/>
</g>
<!-- Node4 -->
<g id="node4" class="node">
<title>Node4</title>
<g id="a_node4"><a xlink:title=" ">
<polygon fill="#e0e0e0" stroke="#999999" points="196.25,-20.75 132.25,-20.75 132.25,0 196.25,0 196.25,-20.75"/>
<text text-anchor="middle" x="164.25" y="-7.25" font-family="Helvetica,sans-Serif" font-size="10.00">type_traits</text>
</a>
</g>
</g>
<!-- Node1&#45;&gt;Node4 -->
<g id="edge3" class="edge">
<title>Node1&#45;&gt;Node4</title>
<path fill="none" stroke="#63b8ff" d="M138.45,-56.44C143,-48.49 148.52,-38.84 153.29,-30.52"/>
<polygon fill="#63b8ff" stroke="#63b8ff" points="156.68,-32.63 158.61,-22.22 150.61,-29.16 156.68,-32.63"/>
</g>
<!-- Node5 -->
<g id="node5" class="node">
<title>Node5</title>
<g id="a_node5"><a xlink:title=" ">
<polygon fill="#e0e0e0" stroke="#999999" points="254.62,-20.75 213.88,-20.75 213.88,0 254.62,0 254.62,-20.75"/>
<text text-anchor="middle" x="234.25" y="-7.25" font-family="Helvetica,sans-Serif" font-size="10.00">utility</text>
</a>
</g>
</g>
<!-- Node1&#45;&gt;Node5 -->
<g id="edge4" class="edge">
<title>Node1&#45;&gt;Node5</title>
<path fill="none" stroke="#63b8ff" d="M157.11,-56.28C173.01,-47.02 192.81,-35.5 208.37,-26.44"/>
<polygon fill="#63b8ff" stroke="#63b8ff" points="209.55,-29.22 216.43,-21.17 206.03,-23.17 209.55,-29.22"/>
</g>
</g>
</svg>
