<?xml version="1.0" encoding="UTF-8" standalone="no"?>
<!DOCTYPE svg PUBLIC "-//W3C//DTD SVG 1.1//EN"
 "http://www.w3.org/Graphics/SVG/1.1/DTD/svg11.dtd">
<!-- Generated by graphviz version 7.0.5 (20221223.1930)
 -->
<!-- Title: sl::type_list::equal&lt; FirstContainer&lt; Elements... &gt;, SecondContainer&lt; Elements... &gt;, Others... &gt; Pages: 1 -->
<svg width="263pt" height="282pt"
 viewBox="0.00 0.00 262.50 282.00" xmlns="http://www.w3.org/2000/svg" xmlns:xlink="http://www.w3.org/1999/xlink">
<g id="graph0" class="graph" transform="scale(1 1) rotate(0) translate(4 278)">
<title>sl::type_list::equal&lt; FirstContainer&lt; Elements... &gt;, SecondContainer&lt; Elements... &gt;, Others... &gt;</title>
<!-- Node1 -->
<g id="node1" class="node">
<title>Node1</title>
<g id="a_node1"><a xlink:title="Specialization, determining whether the first two type&#45;lists have equal template arguments.">
<polygon fill="#999999" stroke="#666666" points="165,-52 0,-52 0,0 165,0 165,-52"/>
<text text-anchor="start" x="8" y="-40" font-family="Helvetica,sans-Serif" font-size="10.00">sl::type_list::equal</text>
<text text-anchor="start" x="8" y="-29" font-family="Helvetica,sans-Serif" font-size="10.00">&lt; FirstContainer&lt; Elements...</text>
<text text-anchor="start" x="8" y="-18" font-family="Helvetica,sans-Serif" font-size="10.00"> &gt;, SecondContainer&lt; Elements...</text>
<text text-anchor="middle" x="82.5" y="-7" font-family="Helvetica,sans-Serif" font-size="10.00"> &gt;, Others... &gt;</text>
</a>
</g>
</g>
<!-- Node2 -->
<g id="node2" class="node">
<title>Node2</title>
<g id="a_node2"><a xlink:href="../../dd/d9c/structsl_1_1type__list_1_1equal.html" target="_top" xlink:title=" ">
<polygon fill="white" stroke="#666666" points="156.5,-130 8.5,-130 8.5,-89 156.5,-89 156.5,-130"/>
<text text-anchor="start" x="16.5" y="-118" font-family="Helvetica,sans-Serif" font-size="10.00">sl::type_list::equal</text>
<text text-anchor="start" x="16.5" y="-107" font-family="Helvetica,sans-Serif" font-size="10.00">&lt; FirstContainer&lt; Elements...</text>
<text text-anchor="middle" x="82.5" y="-96" font-family="Helvetica,sans-Serif" font-size="10.00"> &gt;, Others... &gt;</text>
</a>
</g>
</g>
<!-- Node2&#45;&gt;Node1 -->
<g id="edge1" class="edge">
<title>Node2&#45;&gt;Node1</title>
<path fill="none" stroke="#63b8ff" d="M82.5,-77.28C82.5,-69.06 82.5,-60.29 82.5,-52.41"/>
<polygon fill="#63b8ff" stroke="#63b8ff" points="79,-77.26 82.5,-87.26 86,-77.26 79,-77.26"/>
</g>
<!-- Node3 -->
<g id="node3" class="node">
<title>Node3</title>
<g id="a_node3"><a xlink:title=" ">
<polygon fill="white" stroke="#666666" points="119.5,-274 37.5,-274 37.5,-255 119.5,-255 119.5,-274"/>
<text text-anchor="middle" x="78.5" y="-262" font-family="Helvetica,sans-Serif" font-size="10.00">std::false_type</text>
</a>
</g>
</g>
<!-- Node3&#45;&gt;Node2 -->
<g id="edge2" class="edge">
<title>Node3&#45;&gt;Node2</title>
<path fill="none" stroke="#63b8ff" d="M79.02,-243.63C79.79,-214.29 81.21,-159.67 81.98,-130.34"/>
<polygon fill="#63b8ff" stroke="#63b8ff" points="75.53,-243.23 78.77,-253.32 82.53,-243.42 75.53,-243.23"/>
</g>
<!-- Node4 -->
<g id="node4" class="node">
<title>Node4</title>
<g id="a_node4"><a xlink:href="../../dd/d9c/structsl_1_1type__list_1_1equal.html" target="_top" xlink:title="Primary template yields false.">
<polygon fill="white" stroke="#666666" points="190.5,-218 94.5,-218 94.5,-188 190.5,-188 190.5,-218"/>
<text text-anchor="start" x="102.5" y="-206" font-family="Helvetica,sans-Serif" font-size="10.00">sl::type_list::equal</text>
<text text-anchor="middle" x="142.5" y="-195" font-family="Helvetica,sans-Serif" font-size="10.00">&lt; First, Others &gt;</text>
</a>
</g>
</g>
<!-- Node3&#45;&gt;Node4 -->
<g id="edge4" class="edge">
<title>Node3&#45;&gt;Node4</title>
<path fill="none" stroke="#63b8ff" d="M96.09,-247.15C105.79,-238.13 117.72,-227.04 127.06,-218.36"/>
<polygon fill="#63b8ff" stroke="#63b8ff" points="93.99,-244.32 89.05,-253.69 98.76,-249.44 93.99,-244.32"/>
</g>
<!-- Node4&#45;&gt;Node2 -->
<g id="edge3" class="edge">
<title>Node4&#45;&gt;Node2</title>
<path fill="none" stroke="orange" stroke-dasharray="5,2" d="M126.89,-178.19C117.17,-163.36 104.8,-144.51 95.59,-130.47"/>
<polygon fill="orange" stroke="orange" points="123.88,-179.99 132.3,-186.44 129.74,-176.16 123.88,-179.99"/>
<text text-anchor="start" x="120.5" y="-162" font-family="Helvetica,sans-Serif" font-size="10.00"> &lt; FirstContainer&lt; Elements...</text>
<text text-anchor="middle" x="187.5" y="-151" font-family="Helvetica,sans-Serif" font-size="10.00"> &gt;, Others... &gt;</text>
</g>
</g>
</svg>
