<?xml version="1.0" encoding="UTF-8" standalone="no"?>
<!DOCTYPE svg PUBLIC "-//W3C//DTD SVG 1.1//EN"
 "http://www.w3.org/Graphics/SVG/1.1/DTD/svg11.dtd">
<!-- Generated by graphviz version 8.0.5 (20230430.1635)
 -->
<!-- Title: Simple&#45;Utility/functional/Tuple.hpp Pages: 1 -->
<svg width="1373pt" height="585pt"
 viewBox="0.00 0.00 1372.89 584.75" xmlns="http://www.w3.org/2000/svg" xmlns:xlink="http://www.w3.org/1999/xlink">
<g id="graph0" class="graph" transform="scale(1 1) rotate(0) translate(4 580.75)">
<title>Simple&#45;Utility/functional/Tuple.hpp</title>
<!-- Node1 -->
<g id="node1" class="node">
<title>Node1</title>
<g id="a_node1"><a xlink:title=" ">
<polygon fill="#999999" stroke="#666666" points="1314.38,-576.75 1187.38,-576.75 1187.38,-543.25 1314.38,-543.25 1314.38,-576.75"/>
<text text-anchor="start" x="1195.38" y="-563.25" font-family="Helvetica,sans-Serif" font-size="10.00">Simple&#45;Utility/functional</text>
<text text-anchor="middle" x="1250.88" y="-550.5" font-family="Helvetica,sans-Serif" font-size="10.00">/Tuple.hpp</text>
</a>
</g>
</g>
<!-- Node2 -->
<g id="node2" class="node">
<title>Node2</title>
<g id="a_node2"><a xlink:href="../../d8/d57/concepts_2_utility_8hpp.html" target="_top" xlink:title=" ">
<polygon fill="white" stroke="#666666" points="121.75,-437.75 0,-437.75 0,-404.25 121.75,-404.25 121.75,-437.75"/>
<text text-anchor="start" x="8" y="-424.25" font-family="Helvetica,sans-Serif" font-size="10.00">Simple&#45;Utility/concepts</text>
<text text-anchor="middle" x="60.88" y="-411.5" font-family="Helvetica,sans-Serif" font-size="10.00">/utility.hpp</text>
</a>
</g>
</g>
<!-- Node1&#45;&gt;Node2 -->
<g id="edge1" class="edge">
<title>Node1&#45;&gt;Node2</title>
<path fill="none" stroke="#63b8ff" d="M1187.1,-554.28C1016.11,-541.15 533.46,-500.96 135.88,-437.75 134.9,-437.59 133.91,-437.44 132.92,-437.27"/>
<polygon fill="#63b8ff" stroke="#63b8ff" points="133.63,-433.67 123.18,-435.39 132.42,-440.56 133.63,-433.67"/>
</g>
<!-- Node4 -->
<g id="node4" class="node">
<title>Node4</title>
<g id="a_node4"><a xlink:href="../../d9/d8c/_transform_8hpp.html" target="_top" xlink:title=" ">
<polygon fill="white" stroke="#666666" points="1068.38,-507.25 941.38,-507.25 941.38,-473.75 1068.38,-473.75 1068.38,-507.25"/>
<text text-anchor="start" x="949.38" y="-493.75" font-family="Helvetica,sans-Serif" font-size="10.00">Simple&#45;Utility/functional</text>
<text text-anchor="middle" x="1004.88" y="-481" font-family="Helvetica,sans-Serif" font-size="10.00">/Transform.hpp</text>
</a>
</g>
</g>
<!-- Node1&#45;&gt;Node4 -->
<g id="edge3" class="edge">
<title>Node1&#45;&gt;Node4</title>
<path fill="none" stroke="#63b8ff" d="M1191.95,-542.83C1156.48,-533.1 1111.15,-520.66 1073.99,-510.46"/>
<polygon fill="#63b8ff" stroke="#63b8ff" points="1075.31,-506.92 1064.74,-507.65 1073.46,-513.67 1075.31,-506.92"/>
</g>
<!-- Node8 -->
<g id="node8" class="node">
<title>Node8</title>
<g id="a_node8"><a xlink:title=" ">
<polygon fill="#e0e0e0" stroke="#999999" points="999.25,-20.75 958.5,-20.75 958.5,0 999.25,0 999.25,-20.75"/>
<text text-anchor="middle" x="978.88" y="-7.25" font-family="Helvetica,sans-Serif" font-size="10.00">utility</text>
</a>
</g>
</g>
<!-- Node1&#45;&gt;Node8 -->
<g id="edge57" class="edge">
<title>Node1&#45;&gt;Node8</title>
<path fill="none" stroke="#63b8ff" d="M1266.99,-542.89C1289.3,-518.8 1326.88,-470.96 1326.88,-422 1326.88,-422 1326.88,-422 1326.88,-281 1326.88,-155.39 1259.64,-126.05 1154.88,-56.75 1110.27,-27.25 1047.6,-16.92 1010.32,-13.31"/>
<polygon fill="#63b8ff" stroke="#63b8ff" points="1010.88,-9.76 1000.61,-12.39 1010.28,-16.73 1010.88,-9.76"/>
</g>
<!-- Node13 -->
<g id="node13" class="node">
<title>Node13</title>
<g id="a_node13"><a xlink:href="../../dd/d5a/_general_8hpp.html" target="_top" xlink:title=" ">
<polygon fill="white" stroke="#666666" points="1035.12,-159.75 930.62,-159.75 930.62,-126.25 1035.12,-126.25 1035.12,-159.75"/>
<text text-anchor="start" x="938.62" y="-146.25" font-family="Helvetica,sans-Serif" font-size="10.00">Simple&#45;Utility/tuple</text>
<text text-anchor="middle" x="982.88" y="-133.5" font-family="Helvetica,sans-Serif" font-size="10.00">/General.hpp</text>
</a>
</g>
</g>
<!-- Node1&#45;&gt;Node13 -->
<g id="edge55" class="edge">
<title>Node1&#45;&gt;Node13</title>
<path fill="none" stroke="#63b8ff" d="M1250.88,-542.97C1250.88,-517.39 1250.88,-465.76 1250.88,-422 1250.88,-422 1250.88,-422 1250.88,-281 1250.88,-189.54 1125.61,-159.11 1046.36,-149"/>
<polygon fill="#63b8ff" stroke="#63b8ff" points="1046.85,-145.41 1036.5,-147.7 1046.02,-152.36 1046.85,-145.41"/>
</g>
<!-- Node14 -->
<g id="node14" class="node">
<title>Node14</title>
<g id="a_node14"><a xlink:title=" ">
<polygon fill="#e0e0e0" stroke="#999999" points="1308.5,-20.75 1269.25,-20.75 1269.25,0 1308.5,0 1308.5,-20.75"/>
<text text-anchor="middle" x="1288.88" y="-7.25" font-family="Helvetica,sans-Serif" font-size="10.00">tuple</text>
</a>
</g>
</g>
<!-- Node1&#45;&gt;Node14 -->
<g id="edge56" class="edge">
<title>Node1&#45;&gt;Node14</title>
<path fill="none" stroke="#63b8ff" d="M1293.42,-542.97C1310.36,-534.65 1328.69,-522.89 1340.88,-507.25 1365.06,-476.2 1364.88,-461.36 1364.88,-422 1364.88,-422 1364.88,-422 1364.88,-142 1364.88,-96.2 1329.54,-52.12 1307.05,-28.72"/>
<polygon fill="#63b8ff" stroke="#63b8ff" points="1309.98,-26.69 1300.44,-22.06 1305.01,-31.62 1309.98,-26.69"/>
</g>
<!-- Node3 -->
<g id="node3" class="node">
<title>Node3</title>
<g id="a_node3"><a xlink:title=" ">
<polygon fill="#e0e0e0" stroke="#999999" points="435.12,-20.75 378.62,-20.75 378.62,0 435.12,0 435.12,-20.75"/>
<text text-anchor="middle" x="406.88" y="-7.25" font-family="Helvetica,sans-Serif" font-size="10.00">concepts</text>
</a>
</g>
</g>
<!-- Node2&#45;&gt;Node3 -->
<g id="edge2" class="edge">
<title>Node2&#45;&gt;Node3</title>
<path fill="none" stroke="#63b8ff" d="M62.03,-403.98C63.78,-378.42 66.88,-326.81 66.88,-283 66.88,-283 66.88,-283 66.88,-142 66.88,-101.68 66.49,-82.05 97.88,-56.75 144.14,-19.45 304.33,-30.95 362.88,-20.75 364.62,-20.45 366.4,-20.12 368.2,-19.78"/>
<polygon fill="#63b8ff" stroke="#63b8ff" points="368.4,-23.11 377.53,-17.74 367.04,-16.25 368.4,-23.11"/>
</g>
<!-- Node5 -->
<g id="node5" class="node">
<title>Node5</title>
<g id="a_node5"><a xlink:href="../../d8/d05/_basic_closure_8hpp.html" target="_top" xlink:title=" ">
<polygon fill="white" stroke="#666666" points="646.38,-159.75 519.38,-159.75 519.38,-126.25 646.38,-126.25 646.38,-159.75"/>
<text text-anchor="start" x="527.38" y="-146.25" font-family="Helvetica,sans-Serif" font-size="10.00">Simple&#45;Utility/functional</text>
<text text-anchor="middle" x="582.88" y="-133.5" font-family="Helvetica,sans-Serif" font-size="10.00">/BasicClosure.hpp</text>
</a>
</g>
</g>
<!-- Node4&#45;&gt;Node5 -->
<g id="edge4" class="edge">
<title>Node4&#45;&gt;Node5</title>
<path fill="none" stroke="#63b8ff" d="M941.13,-481.5C786.28,-460.63 397.43,-399.06 321.88,-298.75 265.59,-224.02 413,-178.5 508.58,-157.63"/>
<polygon fill="#63b8ff" stroke="#63b8ff" points="509.05,-160.89 518.1,-155.38 507.59,-154.05 509.05,-160.89"/>
</g>
<!-- Node11 -->
<g id="node11" class="node">
<title>Node11</title>
<g id="a_node11"><a xlink:href="../../d7/df7/_invoke_policies_8hpp.html" target="_top" xlink:title=" ">
<polygon fill="white" stroke="#666666" points="838.88,-229.25 702.88,-229.25 702.88,-195.75 838.88,-195.75 838.88,-229.25"/>
<text text-anchor="start" x="710.88" y="-215.75" font-family="Helvetica,sans-Serif" font-size="10.00">Simple&#45;Utility/functional</text>
<text text-anchor="middle" x="770.88" y="-203" font-family="Helvetica,sans-Serif" font-size="10.00">/mixins/InvokePolicies.hpp</text>
</a>
</g>
</g>
<!-- Node4&#45;&gt;Node11 -->
<g id="edge12" class="edge">
<title>Node4&#45;&gt;Node11</title>
<path fill="none" stroke="#63b8ff" d="M1008.68,-473.54C1017.3,-433.14 1033.67,-325.71 980.88,-265.25 976.33,-260.04 907.46,-243.69 849.81,-230.74"/>
<polygon fill="#63b8ff" stroke="#63b8ff" points="850.72,-227.14 840.2,-228.37 849.19,-233.97 850.72,-227.14"/>
</g>
<!-- Node17 -->
<g id="node17" class="node">
<title>Node17</title>
<g id="a_node17"><a xlink:href="../../d2/df5/_pipe_8hpp.html" target="_top" xlink:title=" ">
<polygon fill="white" stroke="#666666" points="972.38,-437.75 845.38,-437.75 845.38,-404.25 972.38,-404.25 972.38,-437.75"/>
<text text-anchor="start" x="853.38" y="-424.25" font-family="Helvetica,sans-Serif" font-size="10.00">Simple&#45;Utility/functional</text>
<text text-anchor="middle" x="908.88" y="-411.5" font-family="Helvetica,sans-Serif" font-size="10.00">/mixins/Pipe.hpp</text>
</a>
</g>
</g>
<!-- Node4&#45;&gt;Node17 -->
<g id="edge32" class="edge">
<title>Node4&#45;&gt;Node17</title>
<path fill="none" stroke="#63b8ff" d="M982.12,-473.5C969.78,-464.82 954.32,-453.96 940.79,-444.44"/>
<polygon fill="#63b8ff" stroke="#63b8ff" points="942.99,-441 932.8,-438.12 938.96,-446.73 942.99,-441"/>
</g>
<!-- Node5&#45;&gt;Node3 -->
<g id="edge5" class="edge">
<title>Node5&#45;&gt;Node3</title>
<path fill="none" stroke="#63b8ff" d="M561.29,-125.98C527.56,-100.95 462.71,-52.82 428.78,-27.64"/>
<polygon fill="#63b8ff" stroke="#63b8ff" points="431.2,-24.33 421.09,-21.18 427.03,-29.95 431.2,-24.33"/>
</g>
<!-- Node6 -->
<g id="node6" class="node">
<title>Node6</title>
<g id="a_node6"><a xlink:title=" ">
<polygon fill="#e0e0e0" stroke="#999999" points="721.75,-83.88 660,-83.88 660,-63.12 721.75,-63.12 721.75,-83.88"/>
<text text-anchor="middle" x="690.88" y="-70.38" font-family="Helvetica,sans-Serif" font-size="10.00">functional</text>
</a>
</g>
</g>
<!-- Node5&#45;&gt;Node6 -->
<g id="edge6" class="edge">
<title>Node5&#45;&gt;Node6</title>
<path fill="none" stroke="#63b8ff" d="M608.74,-125.83C626.22,-114.91 649.16,-100.57 666.35,-89.83"/>
<polygon fill="#63b8ff" stroke="#63b8ff" points="667.62,-92.54 674.24,-84.27 663.91,-86.6 667.62,-92.54"/>
</g>
<!-- Node7 -->
<g id="node7" class="node">
<title>Node7</title>
<g id="a_node7"><a xlink:title=" ">
<polygon fill="#e0e0e0" stroke="#999999" points="858.88,-20.75 794.88,-20.75 794.88,0 858.88,0 858.88,-20.75"/>
<text text-anchor="middle" x="826.88" y="-7.25" font-family="Helvetica,sans-Serif" font-size="10.00">type_traits</text>
</a>
</g>
</g>
<!-- Node5&#45;&gt;Node7 -->
<g id="edge7" class="edge">
<title>Node5&#45;&gt;Node7</title>
<path fill="none" stroke="#63b8ff" d="M584.34,-125.88C587,-106.51 594.4,-74.4 614.88,-56.75 639.82,-35.26 729.68,-21.95 784.08,-15.68"/>
<polygon fill="#63b8ff" stroke="#63b8ff" points="784.23,-19.07 793.78,-14.48 783.46,-12.11 784.23,-19.07"/>
</g>
<!-- Node5&#45;&gt;Node8 -->
<g id="edge8" class="edge">
<title>Node5&#45;&gt;Node8</title>
<path fill="none" stroke="#63b8ff" d="M593.63,-125.78C608.77,-103.47 636.15,-65.13 650.88,-56.75 676.42,-42.21 870.46,-21.94 947.5,-14.38"/>
<polygon fill="#63b8ff" stroke="#63b8ff" points="947.78,-17.77 957.4,-13.32 947.1,-10.8 947.78,-17.77"/>
</g>
<!-- Node9 -->
<g id="node9" class="node">
<title>Node9</title>
<g id="a_node9"><a xlink:href="../../dd/d5c/stl__extensions_8hpp.html" target="_top" xlink:title=" ">
<polygon fill="white" stroke="#666666" points="386.75,-90.25 265,-90.25 265,-56.75 386.75,-56.75 386.75,-90.25"/>
<text text-anchor="start" x="273" y="-76.75" font-family="Helvetica,sans-Serif" font-size="10.00">Simple&#45;Utility/concepts</text>
<text text-anchor="middle" x="325.88" y="-64" font-family="Helvetica,sans-Serif" font-size="10.00">/stl_extensions.hpp</text>
</a>
</g>
</g>
<!-- Node5&#45;&gt;Node9 -->
<g id="edge9" class="edge">
<title>Node5&#45;&gt;Node9</title>
<path fill="none" stroke="#63b8ff" d="M521.32,-125.83C483.97,-116.02 436.15,-103.46 397.16,-93.22"/>
<polygon fill="#63b8ff" stroke="#63b8ff" points="398.49,-89.69 387.93,-90.54 396.71,-96.46 398.49,-89.69"/>
</g>
<!-- Node9&#45;&gt;Node3 -->
<g id="edge11" class="edge">
<title>Node9&#45;&gt;Node3</title>
<path fill="none" stroke="#63b8ff" d="M347.16,-56.44C358.84,-47.62 373.31,-36.7 385.08,-27.82"/>
<polygon fill="#63b8ff" stroke="#63b8ff" points="386.96,-30.03 392.83,-21.22 382.74,-24.45 386.96,-30.03"/>
</g>
<!-- Node10 -->
<g id="node10" class="node">
<title>Node10</title>
<g id="a_node10"><a xlink:title=" ">
<polygon fill="#e0e0e0" stroke="#999999" points="353.75,-20.75 298,-20.75 298,0 353.75,0 353.75,-20.75"/>
<text text-anchor="middle" x="325.88" y="-7.25" font-family="Helvetica,sans-Serif" font-size="10.00">compare</text>
</a>
</g>
</g>
<!-- Node9&#45;&gt;Node10 -->
<g id="edge10" class="edge">
<title>Node9&#45;&gt;Node10</title>
<path fill="none" stroke="#63b8ff" d="M325.88,-56.44C325.88,-49.02 325.88,-40.11 325.88,-32.18"/>
<polygon fill="#63b8ff" stroke="#63b8ff" points="329.38,-32.22 325.88,-22.22 322.38,-32.22 329.38,-32.22"/>
</g>
<!-- Node11&#45;&gt;Node3 -->
<g id="edge13" class="edge">
<title>Node11&#45;&gt;Node3</title>
<path fill="none" stroke="#63b8ff" d="M772.02,-195.46C773.33,-163.71 771.25,-92.77 730.88,-56.75 689.52,-19.85 522.93,-12.84 446.08,-11.59"/>
<polygon fill="#63b8ff" stroke="#63b8ff" points="446.46,-8.08 436.41,-11.45 446.37,-15.08 446.46,-8.08"/>
</g>
<!-- Node11&#45;&gt;Node5 -->
<g id="edge20" class="edge">
<title>Node11&#45;&gt;Node5</title>
<path fill="none" stroke="#63b8ff" d="M725.84,-195.33C699.43,-185.85 665.86,-173.8 637.89,-163.75"/>
<polygon fill="#63b8ff" stroke="#63b8ff" points="639.46,-160.24 628.86,-160.15 637.09,-166.83 639.46,-160.24"/>
</g>
<!-- Node11&#45;&gt;Node6 -->
<g id="edge14" class="edge">
<title>Node11&#45;&gt;Node6</title>
<path fill="none" stroke="#63b8ff" d="M759.79,-195.41C752.96,-185.31 744.15,-171.94 736.88,-159.75 723.67,-137.63 709.8,-111.45 700.78,-94"/>
<polygon fill="#63b8ff" stroke="#63b8ff" points="703.52,-92.67 695.85,-85.37 697.3,-95.87 703.52,-92.67"/>
</g>
<!-- Node11&#45;&gt;Node7 -->
<g id="edge15" class="edge">
<title>Node11&#45;&gt;Node7</title>
<path fill="none" stroke="#63b8ff" d="M774.99,-195.63C782.31,-167.55 798.23,-107.28 812.88,-56.75 815.28,-48.45 818.06,-39.34 820.51,-31.48"/>
<polygon fill="#63b8ff" stroke="#63b8ff" points="824.12,-32.67 823.77,-22.08 817.44,-30.57 824.12,-32.67"/>
</g>
<!-- Node11&#45;&gt;Node8 -->
<g id="edge16" class="edge">
<title>Node11&#45;&gt;Node8</title>
<path fill="none" stroke="#63b8ff" d="M787.54,-195.46C826.24,-158.23 921.88,-66.21 961.38,-28.21"/>
<polygon fill="#63b8ff" stroke="#63b8ff" points="963.13,-31.41 967.91,-21.96 958.28,-26.37 963.13,-31.41"/>
</g>
<!-- Node11&#45;&gt;Node9 -->
<g id="edge19" class="edge">
<title>Node11&#45;&gt;Node9</title>
<path fill="none" stroke="#63b8ff" d="M702.42,-202.49C649.1,-194.39 573.68,-180.53 509.88,-159.75 495.66,-155.12 419.35,-119.13 369.58,-95.41"/>
<polygon fill="#63b8ff" stroke="#63b8ff" points="371.23,-91.85 360.69,-90.7 368.21,-98.16 371.23,-91.85"/>
</g>
<!-- Node12 -->
<g id="node12" class="node">
<title>Node12</title>
<g id="a_node12"><a xlink:href="../../d6/dcb/_c_r_t_p_base_8hpp.html" target="_top" xlink:title=" ">
<polygon fill="white" stroke="#666666" points="424.5,-153.38 277.25,-153.38 277.25,-132.62 424.5,-132.62 424.5,-153.38"/>
<text text-anchor="middle" x="350.88" y="-139.88" font-family="Helvetica,sans-Serif" font-size="10.00">Simple&#45;Utility/CRTPBase.hpp</text>
</a>
</g>
</g>
<!-- Node11&#45;&gt;Node12 -->
<g id="edge17" class="edge">
<title>Node11&#45;&gt;Node12</title>
<path fill="none" stroke="#63b8ff" d="M702.46,-200.5C625.54,-188.14 501.17,-168.15 422.83,-155.56"/>
<polygon fill="#63b8ff" stroke="#63b8ff" points="423.51,-151.97 413.09,-153.84 422.4,-158.88 423.51,-151.97"/>
</g>
<!-- Node11&#45;&gt;Node13 -->
<g id="edge21" class="edge">
<title>Node11&#45;&gt;Node13</title>
<path fill="none" stroke="#63b8ff" d="M821.65,-195.33C851.7,-185.77 889.96,-173.58 921.66,-163.49"/>
<polygon fill="#63b8ff" stroke="#63b8ff" points="922.68,-166.52 931.14,-160.15 920.55,-159.85 922.68,-166.52"/>
</g>
<!-- Node12&#45;&gt;Node9 -->
<g id="edge18" class="edge">
<title>Node12&#45;&gt;Node9</title>
<path fill="none" stroke="#63b8ff" d="M347.29,-132.33C344.24,-124.1 339.72,-111.88 335.61,-100.79"/>
<polygon fill="#63b8ff" stroke="#63b8ff" points="338.62,-99.83 331.86,-91.67 332.05,-102.26 338.62,-99.83"/>
</g>
<!-- Node13&#45;&gt;Node3 -->
<g id="edge22" class="edge">
<title>Node13&#45;&gt;Node3</title>
<path fill="none" stroke="#63b8ff" d="M949.38,-125.89C907.3,-106.37 832.41,-73.95 764.88,-56.75 651.24,-27.8 512.4,-16.93 445.95,-13.17"/>
<polygon fill="#63b8ff" stroke="#63b8ff" points="446.34,-9.64 436.17,-12.59 445.96,-16.63 446.34,-9.64"/>
</g>
<!-- Node13&#45;&gt;Node7 -->
<g id="edge24" class="edge">
<title>Node13&#45;&gt;Node7</title>
<path fill="none" stroke="#63b8ff" d="M973.44,-125.8C961.98,-107.22 941.14,-76.75 916.88,-56.75 900.96,-43.63 880.62,-32.97 863.31,-25.29"/>
<polygon fill="#63b8ff" stroke="#63b8ff" points="865.09,-21.82 854.52,-21.12 862.34,-28.26 865.09,-21.82"/>
</g>
<!-- Node13&#45;&gt;Node8 -->
<g id="edge25" class="edge">
<title>Node13&#45;&gt;Node8</title>
<path fill="none" stroke="#63b8ff" d="M982.38,-125.98C981.66,-102.34 980.31,-58.09 979.51,-32.04"/>
<polygon fill="#63b8ff" stroke="#63b8ff" points="982.98,-32.07 979.18,-22.18 975.98,-32.28 982.98,-32.07"/>
</g>
<!-- Node13&#45;&gt;Node14 -->
<g id="edge23" class="edge">
<title>Node13&#45;&gt;Node14</title>
<path fill="none" stroke="#63b8ff" d="M1035.59,-129.65C1070.24,-120.68 1116.16,-107.18 1154.88,-90.25 1195.89,-72.32 1239.99,-44.53 1265.97,-27.17"/>
<polygon fill="#63b8ff" stroke="#63b8ff" points="1267.67,-29.57 1274,-21.07 1263.75,-23.77 1267.67,-29.57"/>
</g>
<!-- Node15 -->
<g id="node15" class="node">
<title>Node15</title>
<g id="a_node15"><a xlink:href="../../df/d2e/_type_list_8hpp.html" target="_top" xlink:title=" ">
<polygon fill="white" stroke="#666666" points="1146.38,-83.88 1007.38,-83.88 1007.38,-63.12 1146.38,-63.12 1146.38,-83.88"/>
<text text-anchor="middle" x="1076.88" y="-70.38" font-family="Helvetica,sans-Serif" font-size="10.00">Simple&#45;Utility/TypeList.hpp</text>
</a>
</g>
</g>
<!-- Node13&#45;&gt;Node15 -->
<g id="edge26" class="edge">
<title>Node13&#45;&gt;Node15</title>
<path fill="none" stroke="#63b8ff" d="M1005.15,-126C1020.08,-115.28 1039.66,-101.23 1054.59,-90.51"/>
<polygon fill="#63b8ff" stroke="#63b8ff" points="1056.12,-93 1062.2,-84.32 1052.03,-87.31 1056.12,-93"/>
</g>
<!-- Node15&#45;&gt;Node3 -->
<g id="edge28" class="edge">
<title>Node15&#45;&gt;Node3</title>
<path fill="none" stroke="#63b8ff" d="M1007.19,-65.5C979.13,-62.71 946.47,-59.52 916.88,-56.75 741.33,-40.3 531.66,-22.1 446.12,-14.74"/>
<polygon fill="#63b8ff" stroke="#63b8ff" points="446.62,-11.18 436.36,-13.81 446.02,-18.16 446.62,-11.18"/>
</g>
<!-- Node15&#45;&gt;Node7 -->
<g id="edge30" class="edge">
<title>Node15&#45;&gt;Node7</title>
<path fill="none" stroke="#63b8ff" d="M1036.71,-62.68C990.87,-51.47 916.2,-33.22 869.4,-21.77"/>
<polygon fill="#63b8ff" stroke="#63b8ff" points="870.54,-18.2 859.99,-19.23 868.88,-25 870.54,-18.2"/>
</g>
<!-- Node15&#45;&gt;Node8 -->
<g id="edge31" class="edge">
<title>Node15&#45;&gt;Node8</title>
<path fill="none" stroke="#63b8ff" d="M1061.13,-62.68C1045.56,-52.97 1021.5,-37.96 1003.42,-26.68"/>
<polygon fill="#63b8ff" stroke="#63b8ff" points="1005.92,-23.49 995.58,-21.17 1002.21,-29.43 1005.92,-23.49"/>
</g>
<!-- Node15&#45;&gt;Node14 -->
<g id="edge29" class="edge">
<title>Node15&#45;&gt;Node14</title>
<path fill="none" stroke="#63b8ff" d="M1110.94,-62.68C1151.72,-50.92 1219.4,-31.41 1258.48,-20.14"/>
<polygon fill="#63b8ff" stroke="#63b8ff" points="1259.29,-23.26 1267.93,-17.12 1257.36,-16.53 1259.29,-23.26"/>
</g>
<!-- Node16 -->
<g id="node16" class="node">
<title>Node16</title>
<g id="a_node16"><a xlink:title=" ">
<polygon fill="#e0e0e0" stroke="#999999" points="1175.38,-20.75 1114.38,-20.75 1114.38,0 1175.38,0 1175.38,-20.75"/>
<text text-anchor="middle" x="1144.88" y="-7.25" font-family="Helvetica,sans-Serif" font-size="10.00">algorithm</text>
</a>
</g>
</g>
<!-- Node15&#45;&gt;Node16 -->
<g id="edge27" class="edge">
<title>Node15&#45;&gt;Node16</title>
<path fill="none" stroke="#63b8ff" d="M1087.8,-62.68C1098.17,-53.36 1113.97,-39.16 1126.31,-28.06"/>
<polygon fill="#63b8ff" stroke="#63b8ff" points="1128.1,-31.26 1133.2,-21.97 1123.42,-26.05 1128.1,-31.26"/>
</g>
<!-- Node17&#45;&gt;Node3 -->
<g id="edge33" class="edge">
<title>Node17&#45;&gt;Node3</title>
<path fill="none" stroke="#63b8ff" d="M845.1,-420.63C735.93,-420.33 506.91,-413.68 319.88,-368.25 222.79,-344.67 111.88,-382.91 111.88,-283 111.88,-283 111.88,-283 111.88,-142 111.88,-83.6 159.73,-83.06 211.88,-56.75 218.88,-53.22 312.91,-32.12 367.8,-19.97"/>
<polygon fill="#63b8ff" stroke="#63b8ff" points="368.2,-23.25 377.21,-17.67 366.69,-16.41 368.2,-23.25"/>
</g>
<!-- Node17&#45;&gt;Node9 -->
<g id="edge43" class="edge">
<title>Node17&#45;&gt;Node9</title>
<path fill="none" stroke="#63b8ff" d="M845.07,-416.93C698,-408.52 341.45,-380.03 258.88,-298.75 204.18,-244.91 210.9,-191.77 250.88,-126.25 258.29,-114.09 269.77,-104.08 281.54,-96.22"/>
<polygon fill="#63b8ff" stroke="#63b8ff" points="282.89,-98.87 289.53,-90.62 279.19,-92.93 282.89,-98.87"/>
</g>
<!-- Node17&#45;&gt;Node14 -->
<g id="edge34" class="edge">
<title>Node17&#45;&gt;Node14</title>
<path fill="none" stroke="#63b8ff" d="M972.76,-415.52C1046.8,-409.14 1162.99,-395.12 1196.88,-368.25 1303.09,-284.01 1296.51,-94.76 1291.08,-32.02"/>
<polygon fill="#63b8ff" stroke="#63b8ff" points="1294.49,-31.85 1290.05,-22.23 1287.52,-32.52 1294.49,-31.85"/>
</g>
<!-- Node17&#45;&gt;Node15 -->
<g id="edge42" class="edge">
<title>Node17&#45;&gt;Node15</title>
<path fill="none" stroke="#63b8ff" d="M972.6,-418.55C1061.75,-412.74 1212.88,-387.49 1212.88,-283 1212.88,-283 1212.88,-283 1212.88,-211.5 1212.88,-152.64 1148.87,-110.07 1108.68,-89.13"/>
<polygon fill="#63b8ff" stroke="#63b8ff" points="1110.53,-85.64 1100.03,-84.28 1107.39,-91.9 1110.53,-85.64"/>
</g>
<!-- Node18 -->
<g id="node18" class="node">
<title>Node18</title>
<g id="a_node18"><a xlink:href="../../d5/d7b/_tuple_8hpp.html" target="_top" xlink:title=" ">
<polygon fill="white" stroke="#666666" points="972.38,-292.38 845.38,-292.38 845.38,-271.62 972.38,-271.62 972.38,-292.38"/>
<text text-anchor="middle" x="908.88" y="-278.88" font-family="Helvetica,sans-Serif" font-size="10.00">Simple&#45;Utility/Tuple.hpp</text>
</a>
</g>
</g>
<!-- Node17&#45;&gt;Node18 -->
<g id="edge35" class="edge">
<title>Node17&#45;&gt;Node18</title>
<path fill="none" stroke="#63b8ff" d="M908.88,-404.02C908.88,-379.05 908.88,-330.84 908.88,-303.4"/>
<polygon fill="#63b8ff" stroke="#63b8ff" points="912.38,-303.73 908.88,-293.73 905.38,-303.73 912.38,-303.73"/>
</g>
<!-- Node20 -->
<g id="node20" class="node">
<title>Node20</title>
<g id="a_node20"><a xlink:href="../../d3/d48/_composition_8hpp.html" target="_top" xlink:title=" ">
<polygon fill="white" stroke="#666666" points="700.38,-368.25 573.38,-368.25 573.38,-334.75 700.38,-334.75 700.38,-368.25"/>
<text text-anchor="start" x="581.38" y="-354.75" font-family="Helvetica,sans-Serif" font-size="10.00">Simple&#45;Utility/functional</text>
<text text-anchor="middle" x="636.88" y="-342" font-family="Helvetica,sans-Serif" font-size="10.00">/Composition.hpp</text>
</a>
</g>
</g>
<!-- Node17&#45;&gt;Node20 -->
<g id="edge44" class="edge">
<title>Node17&#45;&gt;Node20</title>
<path fill="none" stroke="#63b8ff" d="M845.1,-404.17C805.01,-394.22 753.11,-381.34 711.16,-370.93"/>
<polygon fill="#63b8ff" stroke="#63b8ff" points="712.27,-367.36 701.72,-368.34 710.58,-374.15 712.27,-367.36"/>
</g>
<!-- Node18&#45;&gt;Node13 -->
<g id="edge41" class="edge">
<title>Node18&#45;&gt;Node13</title>
<path fill="none" stroke="#63b8ff" d="M926.08,-271.26C940.26,-262.27 959.65,-247.56 969.88,-229.25 979.77,-211.54 982.83,-188.68 983.52,-171.1"/>
<polygon fill="#63b8ff" stroke="#63b8ff" points="987.03,-171.2 983.68,-161.16 980.03,-171.1 987.03,-171.2"/>
</g>
<!-- Node19 -->
<g id="node19" class="node">
<title>Node19</title>
<g id="a_node19"><a xlink:href="../../dc/d83/_algorithm_8hpp.html" target="_top" xlink:title=" ">
<polygon fill="white" stroke="#666666" points="961.12,-229.25 856.62,-229.25 856.62,-195.75 961.12,-195.75 961.12,-229.25"/>
<text text-anchor="start" x="864.62" y="-215.75" font-family="Helvetica,sans-Serif" font-size="10.00">Simple&#45;Utility/tuple</text>
<text text-anchor="middle" x="908.88" y="-203" font-family="Helvetica,sans-Serif" font-size="10.00">/Algorithm.hpp</text>
</a>
</g>
</g>
<!-- Node18&#45;&gt;Node19 -->
<g id="edge36" class="edge">
<title>Node18&#45;&gt;Node19</title>
<path fill="none" stroke="#63b8ff" d="M908.88,-271.33C908.88,-263.27 908.88,-251.38 908.88,-240.47"/>
<polygon fill="#63b8ff" stroke="#63b8ff" points="912.38,-240.67 908.88,-230.67 905.38,-240.67 912.38,-240.67"/>
</g>
<!-- Node19&#45;&gt;Node6 -->
<g id="edge38" class="edge">
<title>Node19&#45;&gt;Node6</title>
<path fill="none" stroke="#63b8ff" d="M883.44,-195.52C841.22,-168.99 757.21,-116.19 715.52,-89.99"/>
<polygon fill="#63b8ff" stroke="#63b8ff" points="717.68,-86.59 707.36,-84.23 713.96,-92.51 717.68,-86.59"/>
</g>
<!-- Node19&#45;&gt;Node7 -->
<g id="edge39" class="edge">
<title>Node19&#45;&gt;Node7</title>
<path fill="none" stroke="#63b8ff" d="M902.3,-195.46C887.4,-159.08 851.07,-70.42 834.88,-30.92"/>
<polygon fill="#63b8ff" stroke="#63b8ff" points="837.83,-29.89 830.8,-21.96 831.35,-32.54 837.83,-29.89"/>
</g>
<!-- Node19&#45;&gt;Node13 -->
<g id="edge40" class="edge">
<title>Node19&#45;&gt;Node13</title>
<path fill="none" stroke="#63b8ff" d="M926.41,-195.5C935.65,-187.07 947.16,-176.58 957.37,-167.27"/>
<polygon fill="#63b8ff" stroke="#63b8ff" points="959.18,-170.44 964.21,-161.12 954.46,-165.27 959.18,-170.44"/>
</g>
<!-- Node19&#45;&gt;Node16 -->
<g id="edge37" class="edge">
<title>Node19&#45;&gt;Node16</title>
<path fill="none" stroke="#63b8ff" d="M961.56,-203.34C1021.45,-190.85 1115.95,-160.54 1154.88,-90.25 1165.08,-71.83 1159.57,-47.34 1153.45,-30.57"/>
<polygon fill="#63b8ff" stroke="#63b8ff" points="1156.49,-29.76 1149.5,-21.8 1150,-32.39 1156.49,-29.76"/>
</g>
<!-- Node20&#45;&gt;Node3 -->
<g id="edge45" class="edge">
<title>Node20&#45;&gt;Node3</title>
<path fill="none" stroke="#63b8ff" d="M573.25,-349.12C478.74,-345.88 307.22,-335.02 258.88,-298.75 193.71,-249.86 168.79,-202.72 196.88,-126.25 210.84,-88.22 221.97,-78.94 255.88,-56.75 274.4,-44.63 329.82,-29.7 368.1,-20.36"/>
<polygon fill="#63b8ff" stroke="#63b8ff" points="368.5,-23.63 377.4,-17.88 366.86,-16.82 368.5,-23.63"/>
</g>
<!-- Node20&#45;&gt;Node5 -->
<g id="edge53" class="edge">
<title>Node20&#45;&gt;Node5</title>
<path fill="none" stroke="#63b8ff" d="M633.32,-334.42C629.47,-317.25 623.05,-289.25 616.88,-265.25 608.42,-232.39 597.71,-194.8 590.6,-170.3"/>
<polygon fill="#63b8ff" stroke="#63b8ff" points="593.76,-169.64 587.61,-161.02 587.04,-171.6 593.76,-169.64"/>
</g>
<!-- Node20&#45;&gt;Node6 -->
<g id="edge46" class="edge">
<title>Node20&#45;&gt;Node6</title>
<path fill="none" stroke="#63b8ff" d="M640.01,-334.47C649.28,-287.08 676.56,-147.68 686.87,-94.99"/>
<polygon fill="#63b8ff" stroke="#63b8ff" points="690.47,-95.82 688.95,-85.34 683.6,-94.48 690.47,-95.82"/>
</g>
<!-- Node20&#45;&gt;Node7 -->
<g id="edge48" class="edge">
<title>Node20&#45;&gt;Node7</title>
<path fill="none" stroke="#63b8ff" d="M573.06,-349.39C490.49,-346.44 353.44,-335.93 321.88,-298.75 312.24,-287.4 315.33,-278.63 321.88,-265.25 338.45,-231.36 555.51,-72.31 589.88,-56.75 653.43,-27.97 734.59,-17.44 783.55,-13.58"/>
<polygon fill="#63b8ff" stroke="#63b8ff" points="783.66,-17.01 793.38,-12.8 783.16,-10.03 783.66,-17.01"/>
</g>
<!-- Node20&#45;&gt;Node9 -->
<g id="edge52" class="edge">
<title>Node20&#45;&gt;Node9</title>
<path fill="none" stroke="#63b8ff" d="M572.99,-349.78C483.59,-347.36 327.74,-337.52 288.88,-298.75 234.2,-244.2 236.3,-196.73 267.88,-126.25 272.86,-115.12 281.55,-105.41 290.71,-97.49"/>
<polygon fill="#63b8ff" stroke="#63b8ff" points="292.53,-99.71 298.16,-90.73 288.16,-94.24 292.53,-99.71"/>
</g>
<!-- Node20&#45;&gt;Node14 -->
<g id="edge47" class="edge">
<title>Node20&#45;&gt;Node14</title>
<path fill="none" stroke="#63b8ff" d="M700.54,-346.75C792.89,-340.46 958.79,-325.75 1011.88,-298.75 1141.01,-233.08 1243.96,-83.01 1277.38,-30.19"/>
<polygon fill="#63b8ff" stroke="#63b8ff" points="1280.8,-32.32 1283.12,-21.98 1274.86,-28.61 1280.8,-32.32"/>
</g>
<!-- Node20&#45;&gt;Node15 -->
<g id="edge51" class="edge">
<title>Node20&#45;&gt;Node15</title>
<path fill="none" stroke="#63b8ff" d="M700.54,-348.08C787.59,-343.59 937.88,-331.25 980.88,-298.75 1048.34,-247.75 1068.97,-139.87 1074.78,-94.87"/>
<polygon fill="#63b8ff" stroke="#63b8ff" points="1078.34,-95.51 1076.03,-85.18 1071.39,-94.7 1078.34,-95.51"/>
</g>
<!-- Node20&#45;&gt;Node18 -->
<g id="edge50" class="edge">
<title>Node20&#45;&gt;Node18</title>
<path fill="none" stroke="#63b8ff" d="M700.65,-334.67C748.81,-322.72 813.99,-306.55 858.52,-295.5"/>
<polygon fill="#63b8ff" stroke="#63b8ff" points="859.23,-298.68 868.09,-292.87 857.54,-291.88 859.23,-298.68"/>
</g>
<!-- Node21 -->
<g id="node21" class="node">
<title>Node21</title>
<g id="a_node21"><a xlink:href="../../d8/dd2/_config_8hpp.html" target="_top" xlink:title=" ">
<polygon fill="white" stroke="#666666" points="463,-292.38 330.75,-292.38 330.75,-271.62 463,-271.62 463,-292.38"/>
<text text-anchor="middle" x="396.88" y="-278.88" font-family="Helvetica,sans-Serif" font-size="10.00">Simple&#45;Utility/Config.hpp</text>
</a>
</g>
</g>
<!-- Node20&#45;&gt;Node21 -->
<g id="edge49" class="edge">
<title>Node20&#45;&gt;Node21</title>
<path fill="none" stroke="#63b8ff" d="M579.39,-334.33C537.43,-322.53 481.33,-306.75 442.45,-295.82"/>
<polygon fill="#63b8ff" stroke="#63b8ff" points="443.54,-292.21 432.97,-292.87 441.65,-298.95 443.54,-292.21"/>
</g>
<!-- Node22 -->
<g id="node22" class="node">
<title>Node22</title>
<g id="a_node22"><a xlink:href="../../d6/d50/_overloaded_8hpp.html" target="_top" xlink:title=" ">
<polygon fill="white" stroke="#666666" points="608.38,-298.75 481.38,-298.75 481.38,-265.25 608.38,-265.25 608.38,-298.75"/>
<text text-anchor="start" x="489.38" y="-285.25" font-family="Helvetica,sans-Serif" font-size="10.00">Simple&#45;Utility/functional</text>
<text text-anchor="middle" x="544.88" y="-272.5" font-family="Helvetica,sans-Serif" font-size="10.00">/Overloaded.hpp</text>
</a>
</g>
</g>
<!-- Node20&#45;&gt;Node22 -->
<g id="edge54" class="edge">
<title>Node20&#45;&gt;Node22</title>
<path fill="none" stroke="#63b8ff" d="M615.07,-334.5C603.24,-325.82 588.43,-314.96 575.46,-305.44"/>
<polygon fill="#63b8ff" stroke="#63b8ff" points="577.97,-302.21 567.84,-299.12 573.83,-307.85 577.97,-302.21"/>
</g>
</g>
</svg>
