<?xml version="1.0" encoding="UTF-8" standalone="no"?>
<!DOCTYPE svg PUBLIC "-//W3C//DTD SVG 1.1//EN"
 "http://www.w3.org/Graphics/SVG/1.1/DTD/svg11.dtd">
<!-- Generated by graphviz version 8.0.5 (20230430.1635)
 -->
<!-- Title: type&#45;traits Pages: 1 -->
<!--zoomable 458 -->
<svg id="main" version="1.1" xmlns="http://www.w3.org/2000/svg" xmlns:xlink="http://www.w3.org/1999/xlink" xml:space="preserve" onload="init(evt)">
<style type="text/css"><![CDATA[
.edge:hover path { stroke: red; }
.edge:hover polygon { stroke: red; fill: red; }
]]></style>
<script type="text/javascript"><![CDATA[
var edges = document.getElementsByTagName('g');
if (edges && edges.length) {
  for (var i=0;i<edges.length;i++) {
    if (edges[i].id.substr(0,4)=='edge') {
      edges[i].setAttribute('class','edge');
    }
  }
}
]]></script>
        <defs>
                <circle id="rim" cx="0" cy="0" r="7"/>
                <circle id="rim2" cx="0" cy="0" r="3.5"/>
                <g id="zoomPlus">
                        <use xlink:href="#rim" fill="#404040">
                                <set attributeName="fill" to="#808080" begin="zoomplus.mouseover" end="zoomplus.mouseout"/>
                        </use>
                        <path d="M-4,0h8M0,-4v8" fill="none" stroke="white" stroke-width="1.5" pointer-events="none"/>
                </g>
                <g id="zoomMin">
                        <use xlink:href="#rim" fill="#404040">
                                <set attributeName="fill" to="#808080" begin="zoomminus.mouseover" end="zoomminus.mouseout"/>
                        </use>
                        <path d="M-4,0h8" fill="none" stroke="white" stroke-width="1.5" pointer-events="none"/>
                </g>
                <g id="dirArrow">
                        <path fill="none" stroke="white" stroke-width="1.5" d="M0,-3.0v7 M-2.5,-0.5L0,-3.0L2.5,-0.5"/>
                </g>
               <g id="resetDef">
                       <use xlink:href="#rim2" fill="#404040">
                               <set attributeName="fill" to="#808080" begin="reset.mouseover" end="reset.mouseout"/>
                       </use>
               </g>
        </defs>

<script type="text/javascript">
var viewWidth = 222;
var viewHeight = 458;
var sectionId = 'dynsection-0';
</script>
<script xlink:href="../../svgpan.js"/>
<svg id="graph" class="graph">
<g id="viewport">
<title>type&#45;traits</title>
<!-- Node1 -->
<g id="node1" class="node">
<title>Node1</title>
<g id="a_node1"><a xlink:title=" ">
<polygon fill="#999999" stroke="#666666" points="63.25,-234.75 0,-234.75 0,-214 63.25,-214 63.25,-234.75"/>
<text text-anchor="middle" x="31.62" y="-221.25" font-family="Helvetica,sans-Serif" font-size="10.00">type&#45;traits</text>
</a>
</g>
</g>
<!-- Node2 -->
<g id="node2" class="node">
<title>Node2</title>
<g id="a_node2"><a xlink:href="../../d0/d4c/group___g_r_o_u_p___t_y_p_e___t_r_a_i_t_s___a_d_d___t_y_p_e___c_o_n_s_t.html" target="_top" xlink:title="This trait adds the const qualification to the actual type, instead of the top&#45;level reference or poi...">
<polygon fill="white" stroke="#666666" points="200.38,-449.75 112.38,-449.75 112.38,-429 200.38,-429 200.38,-449.75"/>
<text text-anchor="middle" x="156.38" y="-436.25" font-family="Helvetica,sans-Serif" font-size="10.00">add_type_const</text>
</a>
</g>
</g>
<!-- Node1&#45;&gt;Node2 -->
<g id="edge1" class="edge">
<title>Node1&#45;&gt;Node2</title>
<path fill="none" stroke="black" d="M34,-245.86C37.69,-285.5 51.07,-370.56 99.25,-419.38 102.88,-423.06 107.24,-426.06 111.89,-428.52"/>
<polygon fill="black" stroke="black" points="37.41,-245.58 33.13,-235.89 30.44,-246.14 37.41,-245.58"/>
</g>
<!-- Node3 -->
<g id="node3" class="node">
<title>Node3</title>
<g id="a_node3"><a xlink:href="../../dd/d08/group___g_r_o_u_p___t_y_p_e___t_r_a_i_t_s___a_d_d___t_y_p_e___c_v.html" target="_top" xlink:title="This trait adds the const and volatile qualifications to the actual type, instead of the top&#45;level re...">
<polygon fill="white" stroke="#666666" points="192.5,-410.75 120.25,-410.75 120.25,-390 192.5,-390 192.5,-410.75"/>
<text text-anchor="middle" x="156.38" y="-397.25" font-family="Helvetica,sans-Serif" font-size="10.00">add_type_cv</text>
</a>
</g>
</g>
<!-- Node1&#45;&gt;Node3 -->
<g id="edge2" class="edge">
<title>Node1&#45;&gt;Node3</title>
<path fill="none" stroke="black" d="M36.16,-245.93C42.73,-279.27 59.89,-343.36 99.25,-380.38 105.05,-385.83 112.44,-389.82 119.94,-392.72"/>
<polygon fill="black" stroke="black" points="39.43,-245.36 34.2,-236.15 32.54,-246.61 39.43,-245.36"/>
</g>
<!-- Node4 -->
<g id="node4" class="node">
<title>Node4</title>
<g id="a_node4"><a xlink:href="../../de/df8/group___g_r_o_u_p___t_y_p_e___t_r_a_i_t_s___a_d_d___t_y_p_e___v_o_l_a_t_i_l_e.html" target="_top" xlink:title="This trait adds the volatile qualification to the actual type, instead of the top&#45;level reference or ...">
<polygon fill="white" stroke="#666666" points="204.5,-371.75 108.25,-371.75 108.25,-351 204.5,-351 204.5,-371.75"/>
<text text-anchor="middle" x="156.38" y="-358.25" font-family="Helvetica,sans-Serif" font-size="10.00">add_type_volatile</text>
</a>
</g>
</g>
<!-- Node1&#45;&gt;Node4 -->
<g id="edge3" class="edge">
<title>Node1&#45;&gt;Node4</title>
<path fill="none" stroke="black" d="M39.41,-245.34C48.85,-271.36 68.36,-315.47 99.25,-341.38 103.61,-345.03 108.69,-348.04 113.97,-350.51"/>
<polygon fill="black" stroke="black" points="42.44,-244.4 35.87,-236.09 35.82,-246.69 42.44,-244.4"/>
</g>
<!-- Node5 -->
<g id="node5" class="node">
<title>Node5</title>
<g id="a_node5"><a xlink:href="../../d9/dbb/group___g_r_o_u_p___t_y_p_e___t_r_a_i_t_s___c_v___q_u_a_l_i_f_i_e_d___t_y_p_e.html" target="_top" xlink:title="This trait decays every reference or pointer category and yields the (possibly cv&#45;qualified) underlyi...">
<polygon fill="white" stroke="#666666" points="203.38,-332.75 109.38,-332.75 109.38,-312 203.38,-312 203.38,-332.75"/>
<text text-anchor="middle" x="156.38" y="-319.25" font-family="Helvetica,sans-Serif" font-size="10.00">cv_qualified_type</text>
</a>
</g>
</g>
<!-- Node1&#45;&gt;Node5 -->
<g id="edge4" class="edge">
<title>Node1&#45;&gt;Node5</title>
<path fill="none" stroke="black" d="M44.88,-243.82C56.82,-261.34 76.48,-286.69 99.25,-302.38 104.53,-306.01 110.55,-309.06 116.63,-311.59"/>
<polygon fill="black" stroke="black" points="47.49,-242.43 39.07,-236 41.65,-246.28 47.49,-242.43"/>
</g>
<!-- Node6 -->
<g id="node6" class="node">
<title>Node6</title>
<g id="a_node6"><a xlink:href="../../d2/d88/group___g_r_o_u_p___t_y_p_e___t_r_a_i_t_s___q_u_a_l_i_f_i_e_d___c_a_t_e_g_o_r_y___a_s.html" target="_top" xlink:title="This trait either applies any qualification and value&#45;category from the source type on the target typ...">
<polygon fill="white" stroke="#666666" points="213.5,-293.75 99.25,-293.75 99.25,-273 213.5,-273 213.5,-293.75"/>
<text text-anchor="middle" x="156.38" y="-280.25" font-family="Helvetica,sans-Serif" font-size="10.00">qualified_category_as</text>
</a>
</g>
</g>
<!-- Node1&#45;&gt;Node6 -->
<g id="edge5" class="edge">
<title>Node1&#45;&gt;Node6</title>
<path fill="none" stroke="black" d="M58.22,-240.87C70.36,-248.31 85.25,-256.85 99.25,-263.38 106.38,-266.69 114.22,-269.81 121.72,-272.54"/>
<polygon fill="black" stroke="black" points="60.47,-237.53 50.13,-235.21 56.77,-243.47 60.47,-237.53"/>
</g>
<!-- Node7 -->
<g id="node7" class="node">
<title>Node7</title>
<g id="a_node7"><a xlink:href="../../d2/da7/group___g_r_o_u_p___t_y_p_e___t_r_a_i_t_s___r_e_m_o_v_e___t_y_p_e___c_o_n_s_t.html" target="_top" xlink:title="This trait removes the const qualification of the actual type, instead of the top&#45;level reference or ...">
<polygon fill="white" stroke="#666666" points="208.62,-254.75 104.12,-254.75 104.12,-234 208.62,-234 208.62,-254.75"/>
<text text-anchor="middle" x="156.38" y="-241.25" font-family="Helvetica,sans-Serif" font-size="10.00">remove_type_const</text>
</a>
</g>
</g>
<!-- Node1&#45;&gt;Node7 -->
<g id="edge6" class="edge">
<title>Node1&#45;&gt;Node7</title>
<path fill="none" stroke="black" d="M74.35,-231.17C83.84,-232.72 94.03,-234.38 103.87,-235.98"/>
<polygon fill="black" stroke="black" points="75.03,-227.58 64.6,-229.42 73.91,-234.48 75.03,-227.58"/>
</g>
<!-- Node10 -->
<g id="node8" class="node">
<title>Node10</title>
<g id="a_node8"><a xlink:href="../../d6/dc5/group___g_r_o_u_p___t_y_p_e___t_r_a_i_t_s___r_e_m_o_v_e___t_y_p_e___c_o_n_s_t_n_e_s_s___a_s.html" target="_top" xlink:title="This trait either applies the const qualification on the actual type of To, or removes it.">
<polygon fill="white" stroke="#666666" points="206.75,-215.75 106,-215.75 106,-195 206.75,-195 206.75,-215.75"/>
<text text-anchor="middle" x="156.38" y="-202.25" font-family="Helvetica,sans-Serif" font-size="10.00">type_constness_as</text>
</a>
</g>
</g>
<!-- Node1&#45;&gt;Node10 -->
<g id="edge9" class="edge">
<title>Node1&#45;&gt;Node10</title>
<path fill="none" stroke="black" d="M74.23,-217.94C84.36,-216.37 95.31,-214.67 105.78,-213.05"/>
<polygon fill="black" stroke="black" points="73.95,-214.59 64.6,-219.58 75.02,-221.51 73.95,-214.59"/>
</g>
<!-- Node8 -->
<g id="node9" class="node">
<title>Node8</title>
<g id="a_node9"><a xlink:href="../../dd/dca/group___g_r_o_u_p___t_y_p_e___t_r_a_i_t_s___r_e_m_o_v_e___t_y_p_e___c_v.html" target="_top" xlink:title="This trait removes the const and volatile qualifications from the actual type, instead of the top&#45;lev...">
<polygon fill="white" stroke="#666666" points="200.75,-176.75 112,-176.75 112,-156 200.75,-156 200.75,-176.75"/>
<text text-anchor="middle" x="156.38" y="-163.25" font-family="Helvetica,sans-Serif" font-size="10.00">remove_type_cv</text>
</a>
</g>
</g>
<!-- Node1&#45;&gt;Node8 -->
<g id="edge7" class="edge">
<title>Node1&#45;&gt;Node8</title>
<path fill="none" stroke="black" d="M59.13,-207.83C71.12,-200.72 85.64,-192.62 99.25,-186.38 106.49,-183.05 114.45,-179.92 122.05,-177.16"/>
<polygon fill="black" stroke="black" points="57.47,-205.35 50.72,-213.51 61.09,-211.34 57.47,-205.35"/>
</g>
<!-- Node11 -->
<g id="node10" class="node">
<title>Node11</title>
<g id="a_node10"><a xlink:href="../../d1/dd3/group___g_r_o_u_p___t_y_p_e___t_r_a_i_t_s___r_e_m_o_v_e___t_y_p_e___q_u_a_l_i_f_i_c_a_t_i_o_n___a_s.html" target="_top" xlink:title="This trait either applies the const and/or volatile qualifications on the actual type of To,...">
<polygon fill="white" stroke="#666666" points="212,-137.75 100.75,-137.75 100.75,-117 212,-117 212,-137.75"/>
<text text-anchor="middle" x="156.38" y="-124.25" font-family="Helvetica,sans-Serif" font-size="10.00">type_qualification_as</text>
</a>
</g>
</g>
<!-- Node1&#45;&gt;Node11 -->
<g id="edge10" class="edge">
<title>Node1&#45;&gt;Node11</title>
<path fill="none" stroke="black" d="M45.13,-204.9C57.13,-187.62 76.72,-162.79 99.25,-147.38 104.54,-143.75 110.56,-140.71 116.65,-138.19"/>
<polygon fill="black" stroke="black" points="41.95,-202.37 39.27,-212.62 47.76,-206.27 41.95,-202.37"/>
</g>
<!-- Node9 -->
<g id="node11" class="node">
<title>Node9</title>
<g id="a_node11"><a xlink:href="../../de/d5d/group___g_r_o_u_p___t_y_p_e___t_r_a_i_t_s___r_e_m_o_v_e___t_y_p_e___v_o_l_a_t_i_l_e.html" target="_top" xlink:title="This trait removes the volatile qualification of the actual type, instead of the top&#45;level reference ...">
<polygon fill="white" stroke="#666666" points="212.75,-98.75 100,-98.75 100,-78 212.75,-78 212.75,-98.75"/>
<text text-anchor="middle" x="156.38" y="-85.25" font-family="Helvetica,sans-Serif" font-size="10.00">remove_type_volatile</text>
</a>
</g>
</g>
<!-- Node1&#45;&gt;Node9 -->
<g id="edge8" class="edge">
<title>Node1&#45;&gt;Node9</title>
<path fill="none" stroke="black" d="M39.46,-203.59C48.95,-177.79 68.51,-134.05 99.25,-108.38 103.7,-104.66 108.88,-101.62 114.27,-99.12"/>
<polygon fill="black" stroke="black" points="35.9,-202.15 35.9,-212.75 42.51,-204.47 35.9,-202.15"/>
</g>
<!-- Node12 -->
<g id="node12" class="node">
<title>Node12</title>
<g id="a_node12"><a xlink:href="../../d4/d8f/group___g_r_o_u_p___t_y_p_e___t_r_a_i_t_s___r_e_m_o_v_e___t_y_p_e___v_o_l_a_t_i_l_e_n_e_s_s___a_s.html" target="_top" xlink:title="This trait either applies the volatile qualification on the actual type of To, or removes it.">
<polygon fill="white" stroke="#666666" points="210.88,-59.75 101.88,-59.75 101.88,-39 210.88,-39 210.88,-59.75"/>
<text text-anchor="middle" x="156.38" y="-46.25" font-family="Helvetica,sans-Serif" font-size="10.00">type_volatileness_as</text>
</a>
</g>
</g>
<!-- Node1&#45;&gt;Node12 -->
<g id="edge11" class="edge">
<title>Node1&#45;&gt;Node12</title>
<path fill="none" stroke="black" d="M36.2,-202.95C42.82,-169.82 60.06,-106.15 99.25,-69.38 103.17,-65.69 107.82,-62.68 112.73,-60.22"/>
<polygon fill="black" stroke="black" points="32.6,-202.2 34.22,-212.67 39.48,-203.47 32.6,-202.2"/>
</g>
<!-- Node13 -->
<g id="node13" class="node">
<title>Node13</title>
<g id="a_node13"><a xlink:href="../../df/d5f/group___g_r_o_u_p___t_y_p_e___t_r_a_i_t_s___v_a_l_u_e___c_a_t_e_g_o_r_y___a_s.html" target="_top" xlink:title="This trait modifies the value category (value, lvalue&#45;reference, rvalue&#45;reference) of the target type...">
<polygon fill="white" stroke="#666666" points="205.62,-20.75 107.12,-20.75 107.12,0 205.62,0 205.62,-20.75"/>
<text text-anchor="middle" x="156.38" y="-7.25" font-family="Helvetica,sans-Serif" font-size="10.00">value_category_as</text>
</a>
</g>
</g>
<!-- Node1&#45;&gt;Node13 -->
<g id="edge12" class="edge">
<title>Node1&#45;&gt;Node13</title>
<path fill="none" stroke="black" d="M34.04,-203C37.78,-163.56 51.25,-78.93 99.25,-30.38 102.89,-26.7 107.24,-23.69 111.9,-21.24"/>
<polygon fill="black" stroke="black" points="30.47,-202.66 33.15,-212.91 37.45,-203.23 30.47,-202.66"/>
</g>
</g>
</svg>
        <g id="navigator" transform="translate(0 0)" fill="#404254">
                <rect fill="#f2f5e9" fill-opacity="0.5" stroke="#606060" stroke-width=".5" x="0" y="0" width="60" height="60"/>
                <use id="zoomplus" xlink:href="#zoomPlus" x="17" y="9" onmousedown="handleZoom(evt,'in')"/>
                <use id="zoomminus" xlink:href="#zoomMin" x="42" y="9" onmousedown="handleZoom(evt,'out')"/>
                <use id="reset" xlink:href="#resetDef" x="30" y="36" onmousedown="handleReset()"/>
                <g id="arrowUp" xlink:href="#dirArrow" transform="translate(30 24)" onmousedown="handlePan(0,-1)">
                  <use xlink:href="#rim" fill="#404040">
                        <set attributeName="fill" to="#808080" begin="arrowUp.mouseover" end="arrowUp.mouseout"/>
                  </use>
                  <path fill="none" stroke="white" stroke-width="1.5" d="M0,-3.0v7 M-2.5,-0.5L0,-3.0L2.5,-0.5"/>
                </g>
                <g id="arrowRight" xlink:href="#dirArrow" transform="rotate(90) translate(36 -43)" onmousedown="handlePan(1,0)">
                  <use xlink:href="#rim" fill="#404040">
                        <set attributeName="fill" to="#808080" begin="arrowRight.mouseover" end="arrowRight.mouseout"/>
                  </use>
                  <path fill="none" stroke="white" stroke-width="1.5" d="M0,-3.0v7 M-2.5,-0.5L0,-3.0L2.5,-0.5"/>
                </g>
                <g id="arrowDown" xlink:href="#dirArrow" transform="rotate(180) translate(-30 -48)" onmousedown="handlePan(0,1)">
                  <use xlink:href="#rim" fill="#404040">
                        <set attributeName="fill" to="#808080" begin="arrowDown.mouseover" end="arrowDown.mouseout"/>
                  </use>
                  <path fill="none" stroke="white" stroke-width="1.5" d="M0,-3.0v7 M-2.5,-0.5L0,-3.0L2.5,-0.5"/>
                </g>
                <g id="arrowLeft" xlink:href="#dirArrow" transform="rotate(270) translate(-36 17)" onmousedown="handlePan(-1,0)">
                  <use xlink:href="#rim" fill="#404040">
                        <set attributeName="fill" to="#808080" begin="arrowLeft.mouseover" end="arrowLeft.mouseout"/>
                  </use>
                  <path fill="none" stroke="white" stroke-width="1.5" d="M0,-3.0v7 M-2.5,-0.5L0,-3.0L2.5,-0.5"/>
                </g>
        </g>
        <svg viewBox="0 0 15 15" width="100%" height="30px" preserveAspectRatio="xMaxYMin meet">
         <g id="arrow_out" transform="scale(0.3 0.3)">
          <a xlink:href="group___g_r_o_u_p___t_y_p_e___t_r_a_i_t_s_org.svg" target="_base">
           <rect id="button" ry="5" rx="5" y="6" x="6" height="38" width="38"
                fill="#f2f5e9" fill-opacity="0.5" stroke="#606060" stroke-width="1.0"/>
           <path id="arrow"
             d="M 11.500037,31.436501 C 11.940474,20.09759 22.043105,11.32322 32.158766,21.979434 L 37.068811,17.246167 C 37.068811,17.246167 37.088388,32 37.088388,32 L 22.160133,31.978069 C 22.160133,31.978069 26.997745,27.140456 26.997745,27.140456 C 18.528582,18.264221 13.291696,25.230495 11.500037,31.436501 z"
             style="fill:#404040;"/>
          </a>
         </g>
        </svg>
</svg>
