<?xml version="1.0" encoding="UTF-8" standalone="no"?>
<!DOCTYPE svg PUBLIC "-//W3C//DTD SVG 1.1//EN"
 "http://www.w3.org/Graphics/SVG/1.1/DTD/svg11.dtd">
<!-- Generated by graphviz version 8.0.5 (20230430.1635)
 -->
<!-- Title: Simple&#45;Utility/tuple/General.hpp Pages: 1 -->
<svg width="953pt" height="503pt"
 viewBox="0.00 0.00 952.62 502.50" xmlns="http://www.w3.org/2000/svg" xmlns:xlink="http://www.w3.org/1999/xlink">
<g id="graph0" class="graph" transform="scale(1 1) rotate(0) translate(4 498.5)">
<title>Simple&#45;Utility/tuple/General.hpp</title>
<!-- Node1 -->
<g id="node1" class="node">
<title>Node1</title>
<g id="a_node1"><a xlink:title=" ">
<polygon fill="#999999" stroke="#666666" points="678.37,-494.5 573.87,-494.5 573.87,-461 678.37,-461 678.37,-494.5"/>
<text text-anchor="start" x="581.87" y="-481" font-family="Helvetica,sans-Serif" font-size="10.00">Simple&#45;Utility/tuple</text>
<text text-anchor="middle" x="626.12" y="-468.25" font-family="Helvetica,sans-Serif" font-size="10.00">/General.hpp</text>
</a>
</g>
</g>
<!-- Node2 -->
<g id="node2" class="node">
<title>Node2</title>
<g id="a_node2"><a xlink:href="../../d5/d7b/_tuple_8hpp.html" target="_top" xlink:title=" ">
<polygon fill="white" stroke="#666666" points="574.62,-355.5 447.62,-355.5 447.62,-334.75 574.62,-334.75 574.62,-355.5"/>
<text text-anchor="middle" x="511.12" y="-342" font-family="Helvetica,sans-Serif" font-size="10.00">Simple&#45;Utility/Tuple.hpp</text>
</a>
</g>
</g>
<!-- Node1&#45;&gt;Node2 -->
<g id="edge1" class="edge">
<title>Node1&#45;&gt;Node2</title>
<path fill="none" stroke="#63b8ff" d="M563.75,-455.99C549.1,-448.38 534.92,-438.26 525.12,-425 509.74,-404.2 509.32,-371.99 510.24,-355.93"/>
<polygon fill="#63b8ff" stroke="#63b8ff" points="561.88,-459.46 572.41,-460.64 564.92,-453.15 561.88,-459.46"/>
</g>
<!-- Node13 -->
<g id="node13" class="node">
<title>Node13</title>
<g id="a_node13"><a xlink:href="../../da/dae/functional_2_tuple_8hpp.html" target="_top" xlink:title=" ">
<polygon fill="white" stroke="#666666" points="944.62,-90.25 817.62,-90.25 817.62,-56.75 944.62,-56.75 944.62,-90.25"/>
<text text-anchor="start" x="825.62" y="-76.75" font-family="Helvetica,sans-Serif" font-size="10.00">Simple&#45;Utility/functional</text>
<text text-anchor="middle" x="881.12" y="-64" font-family="Helvetica,sans-Serif" font-size="10.00">/Tuple.hpp</text>
</a>
</g>
</g>
<!-- Node1&#45;&gt;Node13 -->
<g id="edge29" class="edge">
<title>Node1&#45;&gt;Node13</title>
<path fill="none" stroke="#63b8ff" d="M689.27,-468.06C756.74,-454.8 854.12,-422.45 854.12,-346.12 854.12,-346.12 854.12,-346.12 854.12,-211.5 854.12,-167.14 867.92,-116.19 875.78,-90.74"/>
<polygon fill="#63b8ff" stroke="#63b8ff" points="688.9,-464.75 679.71,-470.03 690.18,-471.63 688.9,-464.75"/>
</g>
<!-- Node15 -->
<g id="node15" class="node">
<title>Node15</title>
<g id="a_node15"><a xlink:href="../../d7/df7/_invoke_policies_8hpp.html" target="_top" xlink:title=" ">
<polygon fill="white" stroke="#666666" points="733.12,-229.25 597.12,-229.25 597.12,-195.75 733.12,-195.75 733.12,-229.25"/>
<text text-anchor="start" x="605.12" y="-215.75" font-family="Helvetica,sans-Serif" font-size="10.00">Simple&#45;Utility/functional</text>
<text text-anchor="middle" x="665.12" y="-203" font-family="Helvetica,sans-Serif" font-size="10.00">/mixins/InvokePolicies.hpp</text>
</a>
</g>
</g>
<!-- Node1&#45;&gt;Node15 -->
<g id="edge30" class="edge">
<title>Node1&#45;&gt;Node15</title>
<path fill="none" stroke="#63b8ff" d="M638.4,-450.87C641.76,-442.75 645.04,-433.65 647.12,-425 664.21,-353.68 665.61,-265.44 665.38,-229.68"/>
<polygon fill="#63b8ff" stroke="#63b8ff" points="634.83,-449.28 634.03,-459.85 641.24,-452.09 634.83,-449.28"/>
</g>
<!-- Node16 -->
<g id="node16" class="node">
<title>Node16</title>
<g id="a_node16"><a xlink:href="../../dc/d83/_algorithm_8hpp.html" target="_top" xlink:title=" ">
<polygon fill="white" stroke="#666666" points="638.37,-425 533.87,-425 533.87,-391.5 638.37,-391.5 638.37,-425"/>
<text text-anchor="start" x="541.87" y="-411.5" font-family="Helvetica,sans-Serif" font-size="10.00">Simple&#45;Utility/tuple</text>
<text text-anchor="middle" x="586.12" y="-398.75" font-family="Helvetica,sans-Serif" font-size="10.00">/Algorithm.hpp</text>
</a>
</g>
</g>
<!-- Node1&#45;&gt;Node16 -->
<g id="edge34" class="edge">
<title>Node1&#45;&gt;Node16</title>
<path fill="none" stroke="#63b8ff" d="M611.04,-451.31C605.84,-442.52 600.15,-432.93 595.53,-425.13"/>
<polygon fill="#63b8ff" stroke="#63b8ff" points="608.53,-452.93 616.64,-459.75 614.55,-449.37 608.53,-452.93"/>
</g>
<!-- Node3 -->
<g id="node3" class="node">
<title>Node3</title>
<g id="a_node3"><a xlink:href="../../d3/d48/_composition_8hpp.html" target="_top" xlink:title=" ">
<polygon fill="white" stroke="#666666" points="359.62,-298.75 232.62,-298.75 232.62,-265.25 359.62,-265.25 359.62,-298.75"/>
<text text-anchor="start" x="240.62" y="-285.25" font-family="Helvetica,sans-Serif" font-size="10.00">Simple&#45;Utility/functional</text>
<text text-anchor="middle" x="296.12" y="-272.5" font-family="Helvetica,sans-Serif" font-size="10.00">/Composition.hpp</text>
</a>
</g>
</g>
<!-- Node2&#45;&gt;Node3 -->
<g id="edge2" class="edge">
<title>Node2&#45;&gt;Node3</title>
<path fill="none" stroke="#63b8ff" d="M466.36,-331.4C433.52,-322.06 388.65,-309.31 353.22,-299.23"/>
<polygon fill="#63b8ff" stroke="#63b8ff" points="465,-334.94 475.58,-334.3 466.91,-328.2 465,-334.94"/>
</g>
<!-- Node10 -->
<g id="node10" class="node">
<title>Node10</title>
<g id="a_node10"><a xlink:href="../../d2/df5/_pipe_8hpp.html" target="_top" xlink:title=" ">
<polygon fill="white" stroke="#666666" points="577.62,-229.25 450.62,-229.25 450.62,-195.75 577.62,-195.75 577.62,-229.25"/>
<text text-anchor="start" x="458.62" y="-215.75" font-family="Helvetica,sans-Serif" font-size="10.00">Simple&#45;Utility/functional</text>
<text text-anchor="middle" x="514.12" y="-203" font-family="Helvetica,sans-Serif" font-size="10.00">/mixins/Pipe.hpp</text>
</a>
</g>
</g>
<!-- Node2&#45;&gt;Node10 -->
<g id="edge28" class="edge">
<title>Node2&#45;&gt;Node10</title>
<path fill="none" stroke="#63b8ff" d="M511.59,-323.43C512.19,-297.32 513.21,-252.98 513.75,-229.38"/>
<polygon fill="#63b8ff" stroke="#63b8ff" points="508.07,-323.23 511.34,-333.31 515.07,-323.39 508.07,-323.23"/>
</g>
<!-- Node4 -->
<g id="node4" class="node">
<title>Node4</title>
<g id="a_node4"><a xlink:href="../../d2/db4/functional_8hpp.html" target="_top" xlink:title=" ">
<polygon fill="white" stroke="#666666" points="449.74,-20.75 302.49,-20.75 302.49,0 449.74,0 449.74,-20.75"/>
<text text-anchor="middle" x="376.12" y="-7.25" font-family="Helvetica,sans-Serif" font-size="10.00">Simple&#45;Utility/functional.hpp</text>
</a>
</g>
</g>
<!-- Node3&#45;&gt;Node4 -->
<g id="edge3" class="edge">
<title>Node3&#45;&gt;Node4</title>
<path fill="none" stroke="#63b8ff" d="M221.83,-278.25C145.18,-273.67 33.13,-261.5 6.12,-229.25 -3.44,-217.83 -0.08,-209.29 6.12,-195.75 45.47,-109.79 82.54,-98.97 167.12,-56.75 209.14,-35.77 260.67,-24.45 302.04,-18.36"/>
<polygon fill="#63b8ff" stroke="#63b8ff" points="221.21,-281.78 231.39,-278.85 221.61,-274.79 221.21,-281.78"/>
</g>
<!-- Node5 -->
<g id="node5" class="node">
<title>Node5</title>
<g id="a_node5"><a xlink:href="../../d7/d0e/_conjunction_8hpp.html" target="_top" xlink:title=" ">
<polygon fill="white" stroke="#666666" points="142.62,-229.25 15.62,-229.25 15.62,-195.75 142.62,-195.75 142.62,-229.25"/>
<text text-anchor="start" x="23.62" y="-215.75" font-family="Helvetica,sans-Serif" font-size="10.00">Simple&#45;Utility/functional</text>
<text text-anchor="middle" x="79.12" y="-203" font-family="Helvetica,sans-Serif" font-size="10.00">/mixins/Conjunction.hpp</text>
</a>
</g>
</g>
<!-- Node3&#45;&gt;Node5 -->
<g id="edge4" class="edge">
<title>Node3&#45;&gt;Node5</title>
<path fill="none" stroke="#63b8ff" d="M233.83,-261.63C201.29,-251.5 161.93,-239.26 131.05,-229.65"/>
<polygon fill="#63b8ff" stroke="#63b8ff" points="232.55,-265.2 243.14,-264.83 234.63,-258.52 232.55,-265.2"/>
</g>
<!-- Node8 -->
<g id="node8" class="node">
<title>Node8</title>
<g id="a_node8"><a xlink:href="../../d7/ddc/_disjunction_8hpp.html" target="_top" xlink:title=" ">
<polygon fill="white" stroke="#666666" points="287.62,-229.25 160.62,-229.25 160.62,-195.75 287.62,-195.75 287.62,-229.25"/>
<text text-anchor="start" x="168.62" y="-215.75" font-family="Helvetica,sans-Serif" font-size="10.00">Simple&#45;Utility/functional</text>
<text text-anchor="middle" x="224.12" y="-203" font-family="Helvetica,sans-Serif" font-size="10.00">/mixins/Disjunction.hpp</text>
</a>
</g>
</g>
<!-- Node3&#45;&gt;Node8 -->
<g id="edge10" class="edge">
<title>Node3&#45;&gt;Node8</title>
<path fill="none" stroke="#63b8ff" d="M271.08,-257.53C261.16,-248.23 250.01,-237.77 241.06,-229.38"/>
<polygon fill="#63b8ff" stroke="#63b8ff" points="268.37,-259.72 278.06,-264 273.15,-254.61 268.37,-259.72"/>
</g>
<!-- Node9 -->
<g id="node9" class="node">
<title>Node9</title>
<g id="a_node9"><a xlink:href="../../de/d71/_equality_8hpp.html" target="_top" xlink:title=" ">
<polygon fill="white" stroke="#666666" points="432.62,-229.25 305.62,-229.25 305.62,-195.75 432.62,-195.75 432.62,-229.25"/>
<text text-anchor="start" x="313.62" y="-215.75" font-family="Helvetica,sans-Serif" font-size="10.00">Simple&#45;Utility/functional</text>
<text text-anchor="middle" x="369.12" y="-203" font-family="Helvetica,sans-Serif" font-size="10.00">/mixins/Equality.hpp</text>
</a>
</g>
</g>
<!-- Node3&#45;&gt;Node9 -->
<g id="edge13" class="edge">
<title>Node3&#45;&gt;Node9</title>
<path fill="none" stroke="#63b8ff" d="M321.44,-257.59C331.42,-248.35 342.64,-237.98 351.69,-229.62"/>
<polygon fill="#63b8ff" stroke="#63b8ff" points="319.38,-254.64 314.42,-264 324.14,-259.78 319.38,-254.64"/>
</g>
<!-- Node3&#45;&gt;Node10 -->
<g id="edge16" class="edge">
<title>Node3&#45;&gt;Node10</title>
<path fill="none" stroke="#63b8ff" d="M358.69,-261.63C391.38,-251.5 430.93,-239.26 461.95,-229.65"/>
<polygon fill="#63b8ff" stroke="#63b8ff" points="357.85,-258.53 349.33,-264.83 359.92,-265.22 357.85,-258.53"/>
</g>
<!-- Node5&#45;&gt;Node4 -->
<g id="edge5" class="edge">
<title>Node5&#45;&gt;Node4</title>
<path fill="none" stroke="#63b8ff" d="M93.66,-186.23C114.84,-151.73 157.44,-90.33 210.12,-56.75 238.33,-38.76 273.63,-27.83 304.42,-21.22"/>
<polygon fill="#63b8ff" stroke="#63b8ff" points="90.18,-184.24 88.03,-194.61 96.18,-187.84 90.18,-184.24"/>
</g>
<!-- Node6 -->
<g id="node6" class="node">
<title>Node6</title>
<g id="a_node6"><a xlink:href="../../d4/d53/_predicate_8hpp.html" target="_top" xlink:title=" ">
<polygon fill="white" stroke="#666666" points="393.62,-159.75 266.62,-159.75 266.62,-126.25 393.62,-126.25 393.62,-159.75"/>
<text text-anchor="start" x="274.62" y="-146.25" font-family="Helvetica,sans-Serif" font-size="10.00">Simple&#45;Utility/functional</text>
<text text-anchor="middle" x="330.12" y="-133.5" font-family="Helvetica,sans-Serif" font-size="10.00">/Predicate.hpp</text>
</a>
</g>
</g>
<!-- Node5&#45;&gt;Node6 -->
<g id="edge6" class="edge">
<title>Node5&#45;&gt;Node6</title>
<path fill="none" stroke="#63b8ff" d="M149.7,-192.52C187.62,-182.32 233.87,-169.88 270.05,-160.15"/>
<polygon fill="#63b8ff" stroke="#63b8ff" points="148.99,-189.36 140.24,-195.33 150.81,-196.11 148.99,-189.36"/>
</g>
<!-- Node6&#45;&gt;Node4 -->
<g id="edge7" class="edge">
<title>Node6&#45;&gt;Node4</title>
<path fill="none" stroke="#63b8ff" d="M285.32,-120.18C274.07,-112.39 263.42,-102.45 257.12,-90.25 250.28,-77.02 248.67,-69.01 257.12,-56.75 269.6,-38.63 290.36,-27.74 311.07,-21.2"/>
<polygon fill="#63b8ff" stroke="#63b8ff" points="283.08,-123.54 293.39,-125.97 286.85,-117.64 283.08,-123.54"/>
</g>
<!-- Node7 -->
<g id="node7" class="node">
<title>Node7</title>
<g id="a_node7"><a xlink:href="../../d8/d60/_compare_8hpp.html" target="_top" xlink:title=" ">
<polygon fill="white" stroke="#666666" points="393.62,-90.25 266.62,-90.25 266.62,-56.75 393.62,-56.75 393.62,-90.25"/>
<text text-anchor="start" x="274.62" y="-76.75" font-family="Helvetica,sans-Serif" font-size="10.00">Simple&#45;Utility/functional</text>
<text text-anchor="middle" x="330.12" y="-64" font-family="Helvetica,sans-Serif" font-size="10.00">/Compare.hpp</text>
</a>
</g>
</g>
<!-- Node6&#45;&gt;Node7 -->
<g id="edge8" class="edge">
<title>Node6&#45;&gt;Node7</title>
<path fill="none" stroke="#63b8ff" d="M330.12,-115.14C330.12,-106.75 330.12,-97.76 330.12,-90.38"/>
<polygon fill="#63b8ff" stroke="#63b8ff" points="326.62,-115 330.12,-125 333.62,-115 326.62,-115"/>
</g>
<!-- Node7&#45;&gt;Node4 -->
<g id="edge9" class="edge">
<title>Node7&#45;&gt;Node4</title>
<path fill="none" stroke="#63b8ff" d="M348.67,-47.85C355.7,-38.51 363.29,-28.42 368.71,-21.22"/>
<polygon fill="#63b8ff" stroke="#63b8ff" points="345.42,-45.35 342.2,-55.44 351.01,-49.55 345.42,-45.35"/>
</g>
<!-- Node8&#45;&gt;Node4 -->
<g id="edge11" class="edge">
<title>Node8&#45;&gt;Node4</title>
<path fill="none" stroke="#63b8ff" d="M216.51,-185.14C208.58,-151.66 200.84,-93.8 229.12,-56.75 246.46,-34.03 274.98,-22.38 302.31,-16.51"/>
<polygon fill="#63b8ff" stroke="#63b8ff" points="213.29,-185.67 219.16,-194.49 220.07,-183.93 213.29,-185.67"/>
</g>
<!-- Node8&#45;&gt;Node6 -->
<g id="edge12" class="edge">
<title>Node8&#45;&gt;Node6</title>
<path fill="none" stroke="#63b8ff" d="M258.56,-189.57C273.67,-179.95 291.07,-168.86 304.94,-160.04"/>
<polygon fill="#63b8ff" stroke="#63b8ff" points="257.06,-187.01 250.51,-195.33 260.82,-192.91 257.06,-187.01"/>
</g>
<!-- Node9&#45;&gt;Node4 -->
<g id="edge14" class="edge">
<title>Node9&#45;&gt;Node4</title>
<path fill="none" stroke="#63b8ff" d="M296.28,-190.75C281.24,-183.26 267,-173.2 257.12,-159.75 229.92,-122.71 221.6,-94.28 248.12,-56.75 260.84,-38.75 281.34,-27.84 302.25,-21.25"/>
<polygon fill="#63b8ff" stroke="#63b8ff" points="294.68,-194.32 305.23,-195.3 297.6,-187.96 294.68,-194.32"/>
</g>
<!-- Node9&#45;&gt;Node6 -->
<g id="edge15" class="edge">
<title>Node9&#45;&gt;Node6</title>
<path fill="none" stroke="#63b8ff" d="M354.42,-186.06C349.34,-177.27 343.8,-167.68 339.29,-159.88"/>
<polygon fill="#63b8ff" stroke="#63b8ff" points="351.84,-187.6 359.88,-194.5 357.9,-184.09 351.84,-187.6"/>
</g>
<!-- Node10&#45;&gt;Node4 -->
<g id="edge17" class="edge">
<title>Node10&#45;&gt;Node4</title>
<path fill="none" stroke="#63b8ff" d="M496.84,-186.44C466.1,-141.86 403.21,-50.66 382.73,-20.96"/>
<polygon fill="#63b8ff" stroke="#63b8ff" points="494.5,-188.22 503.06,-194.46 500.26,-184.24 494.5,-188.22"/>
</g>
<!-- Node10&#45;&gt;Node6 -->
<g id="edge18" class="edge">
<title>Node10&#45;&gt;Node6</title>
<path fill="none" stroke="#63b8ff" d="M459.87,-191.6C432.56,-181.58 399.88,-169.59 374.15,-160.15"/>
<polygon fill="#63b8ff" stroke="#63b8ff" points="458.45,-195.17 469.05,-195.33 460.86,-188.6 458.45,-195.17"/>
</g>
<!-- Node11 -->
<g id="node11" class="node">
<title>Node11</title>
<g id="a_node11"><a xlink:href="../../d9/d8c/_transform_8hpp.html" target="_top" xlink:title=" ">
<polygon fill="white" stroke="#666666" points="615.62,-159.75 488.62,-159.75 488.62,-126.25 615.62,-126.25 615.62,-159.75"/>
<text text-anchor="start" x="496.62" y="-146.25" font-family="Helvetica,sans-Serif" font-size="10.00">Simple&#45;Utility/functional</text>
<text text-anchor="middle" x="552.12" y="-133.5" font-family="Helvetica,sans-Serif" font-size="10.00">/Transform.hpp</text>
</a>
</g>
</g>
<!-- Node10&#45;&gt;Node11 -->
<g id="edge19" class="edge">
<title>Node10&#45;&gt;Node11</title>
<path fill="none" stroke="#63b8ff" d="M528.44,-186.06C533.39,-177.27 538.79,-167.68 543.18,-159.88"/>
<polygon fill="#63b8ff" stroke="#63b8ff" points="524.98,-184.07 523.12,-194.5 531.08,-187.51 524.98,-184.07"/>
</g>
<!-- Node11&#45;&gt;Node4 -->
<g id="edge20" class="edge">
<title>Node11&#45;&gt;Node4</title>
<path fill="none" stroke="#63b8ff" d="M519.99,-119.69C507.18,-110.68 492.36,-100.09 479.12,-90.25 459.68,-75.8 455.34,-71.5 436.12,-56.75 419.96,-44.34 401.21,-30.21 389.03,-21.06"/>
<polygon fill="#63b8ff" stroke="#63b8ff" points="517.72,-123.07 527.91,-125.95 521.73,-117.34 517.72,-123.07"/>
</g>
<!-- Node11&#45;&gt;Node7 -->
<g id="edge23" class="edge">
<title>Node11&#45;&gt;Node7</title>
<path fill="none" stroke="#63b8ff" d="M488.83,-122.76C455.46,-112.61 414.97,-100.3 383.24,-90.65"/>
<polygon fill="#63b8ff" stroke="#63b8ff" points="487.36,-126.27 497.94,-125.83 489.39,-119.57 487.36,-126.27"/>
</g>
<!-- Node12 -->
<g id="node12" class="node">
<title>Node12</title>
<g id="a_node12"><a xlink:href="../../d3/dc2/_arithmetic_8hpp.html" target="_top" xlink:title=" ">
<polygon fill="white" stroke="#666666" points="615.62,-90.25 488.62,-90.25 488.62,-56.75 615.62,-56.75 615.62,-90.25"/>
<text text-anchor="start" x="496.62" y="-76.75" font-family="Helvetica,sans-Serif" font-size="10.00">Simple&#45;Utility/functional</text>
<text text-anchor="middle" x="552.12" y="-64" font-family="Helvetica,sans-Serif" font-size="10.00">/Arithmetic.hpp</text>
</a>
</g>
</g>
<!-- Node11&#45;&gt;Node12 -->
<g id="edge21" class="edge">
<title>Node11&#45;&gt;Node12</title>
<path fill="none" stroke="#63b8ff" d="M552.12,-115.14C552.12,-106.75 552.12,-97.76 552.12,-90.38"/>
<polygon fill="#63b8ff" stroke="#63b8ff" points="548.62,-115 552.12,-125 555.62,-115 548.62,-115"/>
</g>
<!-- Node11&#45;&gt;Node13 -->
<g id="edge24" class="edge">
<title>Node11&#45;&gt;Node13</title>
<path fill="none" stroke="#63b8ff" d="M626.41,-126.76C683.85,-114.97 762.54,-98.83 817.19,-87.62"/>
<polygon fill="#63b8ff" stroke="#63b8ff" points="626.04,-123.47 616.94,-128.91 627.44,-130.32 626.04,-123.47"/>
</g>
<!-- Node14 -->
<g id="node14" class="node">
<title>Node14</title>
<g id="a_node14"><a xlink:href="../../de/d61/functional_2_utility_8hpp.html" target="_top" xlink:title=" ">
<polygon fill="white" stroke="#666666" points="760.62,-90.25 633.62,-90.25 633.62,-56.75 760.62,-56.75 760.62,-90.25"/>
<text text-anchor="start" x="641.62" y="-76.75" font-family="Helvetica,sans-Serif" font-size="10.00">Simple&#45;Utility/functional</text>
<text text-anchor="middle" x="697.12" y="-64" font-family="Helvetica,sans-Serif" font-size="10.00">/Utility.hpp</text>
</a>
</g>
</g>
<!-- Node11&#45;&gt;Node14 -->
<g id="edge26" class="edge">
<title>Node11&#45;&gt;Node14</title>
<path fill="none" stroke="#63b8ff" d="M596.59,-121.3C617.75,-111.45 642.68,-99.84 662.42,-90.65"/>
<polygon fill="#63b8ff" stroke="#63b8ff" points="595.44,-118.44 587.85,-125.83 598.39,-124.78 595.44,-118.44"/>
</g>
<!-- Node12&#45;&gt;Node4 -->
<g id="edge22" class="edge">
<title>Node12&#45;&gt;Node4</title>
<path fill="none" stroke="#63b8ff" d="M495.34,-52.78C464.91,-42.21 428.76,-29.66 404.31,-21.17"/>
<polygon fill="#63b8ff" stroke="#63b8ff" points="493.82,-56.31 504.42,-56.28 496.12,-49.69 493.82,-56.31"/>
</g>
<!-- Node13&#45;&gt;Node4 -->
<g id="edge25" class="edge">
<title>Node13&#45;&gt;Node4</title>
<path fill="none" stroke="#63b8ff" d="M806.63,-57.3C805.45,-57.11 804.28,-56.93 803.12,-56.75 679.88,-37.8 535.42,-24.25 450.06,-17.12"/>
<polygon fill="#63b8ff" stroke="#63b8ff" points="805.91,-60.9 816.35,-59.12 807.08,-54 805.91,-60.9"/>
</g>
<!-- Node14&#45;&gt;Node4 -->
<g id="edge27" class="edge">
<title>Node14&#45;&gt;Node4</title>
<path fill="none" stroke="#63b8ff" d="M622.77,-56.31C552.37,-42.32 481.26,-29.59 433.09,-21.17"/>
<polygon fill="#63b8ff" stroke="#63b8ff" points="621.66,-59.86 632.15,-58.39 623.03,-52.99 621.66,-59.86"/>
</g>
<!-- Node15&#45;&gt;Node4 -->
<g id="edge31" class="edge">
<title>Node15&#45;&gt;Node4</title>
<path fill="none" stroke="#63b8ff" d="M699.24,-189.09C742.9,-157.76 808.54,-99.85 770.12,-56.75 749.24,-33.33 558.4,-20.26 450.18,-14.67"/>
<polygon fill="#63b8ff" stroke="#63b8ff" points="697.48,-186.75 691.31,-195.36 701.5,-192.48 697.48,-186.75"/>
</g>
<!-- Node15&#45;&gt;Node6 -->
<g id="edge32" class="edge">
<title>Node15&#45;&gt;Node6</title>
<path fill="none" stroke="#63b8ff" d="M586.05,-195.53C514.3,-181.07 443.58,-166.83 394.02,-156.86"/>
<polygon fill="#63b8ff" stroke="#63b8ff" points="585.14,-199.12 595.63,-197.67 586.52,-192.26 585.14,-199.12"/>
</g>
<!-- Node15&#45;&gt;Node11 -->
<g id="edge33" class="edge">
<title>Node15&#45;&gt;Node11</title>
<path fill="none" stroke="#63b8ff" d="M628.85,-189.84C612.65,-180.16 593.88,-168.95 578.96,-160.04"/>
<polygon fill="#63b8ff" stroke="#63b8ff" points="626.67,-193.21 637.05,-195.33 630.26,-187.2 626.67,-193.21"/>
</g>
<!-- Node16&#45;&gt;Node2 -->
<g id="edge35" class="edge">
<title>Node16&#45;&gt;Node2</title>
<path fill="none" stroke="#63b8ff" d="M557.98,-384.32C545.96,-374.52 532.57,-363.61 523.19,-355.97"/>
<polygon fill="#63b8ff" stroke="#63b8ff" points="555.45,-387.59 565.41,-391.19 559.87,-382.16 555.45,-387.59"/>
</g>
</g>
</svg>
