<?xml version="1.0" encoding="UTF-8" standalone="no"?>
<!DOCTYPE svg PUBLIC "-//W3C//DTD SVG 1.1//EN"
 "http://www.w3.org/Graphics/SVG/1.1/DTD/svg11.dtd">
<!-- Generated by graphviz version 8.0.5 (20230430.1635)
 -->
<!-- Title: sl::type_list::equal&lt; FirstContainer&lt; Elements... &gt;, SecondContainer&lt; Elements... &gt;, Others... &gt; Pages: 1 -->
<svg width="262pt" height="303pt"
 viewBox="0.00 0.00 261.75 303.00" xmlns="http://www.w3.org/2000/svg" xmlns:xlink="http://www.w3.org/1999/xlink">
<g id="graph0" class="graph" transform="scale(1 1) rotate(0) translate(4 299)">
<title>sl::type_list::equal&lt; FirstContainer&lt; Elements... &gt;, SecondContainer&lt; Elements... &gt;, Others... &gt;</title>
<!-- Node1 -->
<g id="node1" class="node">
<title>Node1</title>
<g id="a_node1"><a xlink:title="Specialization, determining whether the first two type&#45;lists have equal template arguments.">
<polygon fill="#999999" stroke="#666666" points="164.5,-59 0,-59 0,0 164.5,0 164.5,-59"/>
<text text-anchor="start" x="8" y="-45.5" font-family="Helvetica,sans-Serif" font-size="10.00">sl::type_list::equal</text>
<text text-anchor="start" x="8" y="-32.75" font-family="Helvetica,sans-Serif" font-size="10.00">&lt; FirstContainer&lt; Elements...</text>
<text text-anchor="start" x="8" y="-20" font-family="Helvetica,sans-Serif" font-size="10.00"> &gt;, SecondContainer&lt; Elements...</text>
<text text-anchor="middle" x="82.25" y="-7.25" font-family="Helvetica,sans-Serif" font-size="10.00"> &gt;, Others... &gt;</text>
</a>
</g>
</g>
<!-- Node2 -->
<g id="node2" class="node">
<title>Node2</title>
<g id="a_node2"><a xlink:href="../../dd/d9c/structsl_1_1type__list_1_1equal.html" target="_top" xlink:title=" ">
<polygon fill="white" stroke="#666666" points="155.88,-142.25 8.62,-142.25 8.62,-96 155.88,-96 155.88,-142.25"/>
<text text-anchor="start" x="16.62" y="-128.75" font-family="Helvetica,sans-Serif" font-size="10.00">sl::type_list::equal</text>
<text text-anchor="start" x="16.62" y="-116" font-family="Helvetica,sans-Serif" font-size="10.00">&lt; FirstContainer&lt; Elements...</text>
<text text-anchor="middle" x="82.25" y="-103.25" font-family="Helvetica,sans-Serif" font-size="10.00"> &gt;, Others... &gt;</text>
</a>
</g>
</g>
<!-- Node2&#45;&gt;Node1 -->
<g id="edge1" class="edge">
<title>Node2&#45;&gt;Node1</title>
<path fill="none" stroke="#63b8ff" d="M82.25,-84.62C82.25,-76.27 82.25,-67.39 82.25,-59.28"/>
<polygon fill="#63b8ff" stroke="#63b8ff" points="78.75,-84.56 82.25,-94.56 85.75,-84.56 78.75,-84.56"/>
</g>
<!-- Node3 -->
<g id="node3" class="node">
<title>Node3</title>
<g id="a_node3"><a xlink:title=" ">
<polygon fill="white" stroke="#666666" points="118.88,-295 37.62,-295 37.62,-274.25 118.88,-274.25 118.88,-295"/>
<text text-anchor="middle" x="78.25" y="-281.5" font-family="Helvetica,sans-Serif" font-size="10.00">std::false_type</text>
</a>
</g>
</g>
<!-- Node3&#45;&gt;Node2 -->
<g id="edge2" class="edge">
<title>Node3&#45;&gt;Node2</title>
<path fill="none" stroke="#63b8ff" d="M78.75,-263.21C79.5,-232.46 80.92,-174.5 81.7,-142.59"/>
<polygon fill="#63b8ff" stroke="#63b8ff" points="75.23,-262.8 78.49,-272.89 82.23,-262.98 75.23,-262.8"/>
</g>
<!-- Node4 -->
<g id="node4" class="node">
<title>Node4</title>
<g id="a_node4"><a xlink:href="../../dd/d9c/structsl_1_1type__list_1_1equal.html" target="_top" xlink:title="Primary template yields false.">
<polygon fill="white" stroke="#666666" points="190,-237.25 94.5,-237.25 94.5,-203.75 190,-203.75 190,-237.25"/>
<text text-anchor="start" x="102.5" y="-223.75" font-family="Helvetica,sans-Serif" font-size="10.00">sl::type_list::equal</text>
<text text-anchor="middle" x="142.25" y="-211" font-family="Helvetica,sans-Serif" font-size="10.00">&lt; First, Others &gt;</text>
</a>
</g>
</g>
<!-- Node3&#45;&gt;Node4 -->
<g id="edge4" class="edge">
<title>Node3&#45;&gt;Node4</title>
<path fill="none" stroke="#63b8ff" d="M96.06,-266.33C105.31,-257.36 116.53,-246.46 125.6,-237.66"/>
<polygon fill="#63b8ff" stroke="#63b8ff" points="93.99,-263.44 89.25,-272.92 98.86,-268.46 93.99,-263.44"/>
</g>
<!-- Node4&#45;&gt;Node2 -->
<g id="edge3" class="edge">
<title>Node4&#45;&gt;Node2</title>
<path fill="none" stroke="orange" stroke-dasharray="5,2" d="M127.04,-194.3C117.45,-178.42 105.17,-158.08 95.89,-142.72"/>
<polygon fill="orange" stroke="orange" points="124.44,-195.78 132.61,-202.53 130.44,-192.16 124.44,-195.78"/>
<text text-anchor="start" x="120.25" y="-176.25" font-family="Helvetica,sans-Serif" font-size="10.00"> &lt; FirstContainer&lt; Elements...</text>
<text text-anchor="middle" x="187" y="-163.5" font-family="Helvetica,sans-Serif" font-size="10.00"> &gt;, Others... &gt;</text>
</g>
</g>
</svg>
