<?xml version="1.0" encoding="UTF-8" standalone="no"?>
<!DOCTYPE svg PUBLIC "-//W3C//DTD SVG 1.1//EN"
 "http://www.w3.org/Graphics/SVG/1.1/DTD/svg11.dtd">
<!-- Generated by graphviz version 8.0.5 (20230430.1635)
 -->
<!-- Title: sl::unique_handle::is_valid Pages: 1 -->
<svg width="243pt" height="94pt"
 viewBox="0.00 0.00 242.50 93.50" xmlns="http://www.w3.org/2000/svg" xmlns:xlink="http://www.w3.org/1999/xlink">
<g id="graph0" class="graph" transform="scale(1 1) rotate(0) translate(4 89.5)">
<title>sl::unique_handle::is_valid</title>
<!-- Node1 -->
<g id="node1" class="node">
<title>Node1</title>
<g id="a_node1"><a xlink:title="Checks whether the value is initialized.">
<polygon fill="#999999" stroke="#666666" points="234.5,-59.5 135.25,-59.5 135.25,-26 234.5,-26 234.5,-59.5"/>
<text text-anchor="start" x="143.25" y="-46" font-family="Helvetica,sans-Serif" font-size="10.00">sl::unique_handle::</text>
<text text-anchor="middle" x="184.88" y="-33.25" font-family="Helvetica,sans-Serif" font-size="10.00">is_valid</text>
</a>
</g>
</g>
<!-- Node2 -->
<g id="node2" class="node">
<title>Node2</title>
<g id="a_node2"><a xlink:href="../../da/da9/classsl_1_1unique__handle.html#a2430f32a657d572e3c3d5762d9b6158d" target="_top" xlink:title="Three&#45;way&#45;comparison operator overload for comparison of unique_handle and nullhandle_t.">
<polygon fill="white" stroke="#666666" points="99.25,-85.5 0,-85.5 0,-52 99.25,-52 99.25,-85.5"/>
<text text-anchor="start" x="8" y="-72" font-family="Helvetica,sans-Serif" font-size="10.00">sl::unique_handle::</text>
<text text-anchor="middle" x="49.62" y="-59.25" font-family="Helvetica,sans-Serif" font-size="10.00">operator&lt;=&gt;</text>
</a>
</g>
</g>
<!-- Node1&#45;&gt;Node2 -->
<g id="edge1" class="edge">
<title>Node1&#45;&gt;Node2</title>
<path fill="none" stroke="#63b8ff" d="M124.25,-54.38C115.97,-56 107.54,-57.65 99.48,-59.22"/>
<polygon fill="#63b8ff" stroke="#63b8ff" points="124.87,-57.63 134.01,-52.28 123.53,-50.76 124.87,-57.63"/>
</g>
<!-- Node3 -->
<g id="node3" class="node">
<title>Node3</title>
<g id="a_node3"><a xlink:href="../../da/da9/classsl_1_1unique__handle.html#a67483386bd7964d04e1b7e4d7747d17b" target="_top" xlink:title="Equality&#45;comparison operator overload for comparison of unique_handle and nullhandle_t.">
<polygon fill="white" stroke="#666666" points="99.25,-33.5 0,-33.5 0,0 99.25,0 99.25,-33.5"/>
<text text-anchor="start" x="8" y="-20" font-family="Helvetica,sans-Serif" font-size="10.00">sl::unique_handle::</text>
<text text-anchor="middle" x="49.62" y="-7.25" font-family="Helvetica,sans-Serif" font-size="10.00">operator==</text>
</a>
</g>
</g>
<!-- Node1&#45;&gt;Node3 -->
<g id="edge2" class="edge">
<title>Node1&#45;&gt;Node3</title>
<path fill="none" stroke="#63b8ff" d="M124.25,-31.12C115.97,-29.5 107.54,-27.85 99.48,-26.28"/>
<polygon fill="#63b8ff" stroke="#63b8ff" points="123.53,-34.74 134.01,-33.22 124.87,-27.87 123.53,-34.74"/>
</g>
</g>
</svg>
