<?xml version="1.0" encoding="UTF-8" standalone="no"?>
<!DOCTYPE svg PUBLIC "-//W3C//DTD SVG 1.1//EN"
 "http://www.w3.org/Graphics/SVG/1.1/DTD/svg11.dtd">
<!-- Generated by graphviz version 7.0.5 (20221223.1930)
 -->
<!-- Title: sl::unique_handle::is_valid Pages: 1 -->
<svg width="244pt" height="86pt"
 viewBox="0.00 0.00 244.00 86.00" xmlns="http://www.w3.org/2000/svg" xmlns:xlink="http://www.w3.org/1999/xlink">
<g id="graph0" class="graph" transform="scale(1 1) rotate(0) translate(4 82)">
<title>sl::unique_handle::is_valid</title>
<!-- Node1 -->
<g id="node1" class="node">
<title>Node1</title>
<g id="a_node1"><a xlink:title="Checks whether the value is initialized.">
<polygon fill="#999999" stroke="#666666" points="236,-54 136,-54 136,-24 236,-24 236,-54"/>
<text text-anchor="start" x="144" y="-42" font-family="Helvetica,sans-Serif" font-size="10.00">sl::unique_handle::</text>
<text text-anchor="middle" x="186" y="-31" font-family="Helvetica,sans-Serif" font-size="10.00">is_valid</text>
</a>
</g>
</g>
<!-- Node2 -->
<g id="node2" class="node">
<title>Node2</title>
<g id="a_node2"><a xlink:href="../../da/da9/classsl_1_1unique__handle.html#a2430f32a657d572e3c3d5762d9b6158d" target="_top" xlink:title="Three&#45;way&#45;comparison operator overload for comparison of unique_handle and nullhandle_t.">
<polygon fill="white" stroke="#666666" points="100,-78 0,-78 0,-48 100,-48 100,-78"/>
<text text-anchor="start" x="8" y="-66" font-family="Helvetica,sans-Serif" font-size="10.00">sl::unique_handle::</text>
<text text-anchor="middle" x="50" y="-55" font-family="Helvetica,sans-Serif" font-size="10.00">operator&lt;=&gt;</text>
</a>
</g>
</g>
<!-- Node1&#45;&gt;Node2 -->
<g id="edge1" class="edge">
<title>Node1&#45;&gt;Node2</title>
<path fill="none" stroke="#63b8ff" d="M124.76,-49.79C116.52,-51.27 108.14,-52.77 100.13,-54.2"/>
<polygon fill="#63b8ff" stroke="#63b8ff" points="125.15,-53.28 134.37,-48.07 123.91,-46.39 125.15,-53.28"/>
</g>
<!-- Node3 -->
<g id="node3" class="node">
<title>Node3</title>
<g id="a_node3"><a xlink:href="../../da/da9/classsl_1_1unique__handle.html#a67483386bd7964d04e1b7e4d7747d17b" target="_top" xlink:title="Equality&#45;comparison operator overload for comparison of unique_handle and nullhandle_t.">
<polygon fill="white" stroke="#666666" points="100,-30 0,-30 0,0 100,0 100,-30"/>
<text text-anchor="start" x="8" y="-18" font-family="Helvetica,sans-Serif" font-size="10.00">sl::unique_handle::</text>
<text text-anchor="middle" x="50" y="-7" font-family="Helvetica,sans-Serif" font-size="10.00">operator==</text>
</a>
</g>
</g>
<!-- Node1&#45;&gt;Node3 -->
<g id="edge2" class="edge">
<title>Node1&#45;&gt;Node3</title>
<path fill="none" stroke="#63b8ff" d="M124.76,-28.21C116.52,-26.73 108.14,-25.23 100.13,-23.8"/>
<polygon fill="#63b8ff" stroke="#63b8ff" points="123.91,-31.61 134.37,-29.93 125.15,-24.72 123.91,-31.61"/>
</g>
</g>
</svg>
