<?xml version="1.0" encoding="UTF-8" standalone="no"?>
<!DOCTYPE svg PUBLIC "-//W3C//DTD SVG 1.1//EN"
 "http://www.w3.org/Graphics/SVG/1.1/DTD/svg11.dtd">
<!-- Generated by graphviz version 7.0.5 (20221223.1930)
 -->
<!-- Title: Simple&#45;Utility/functional/operators/negation.hpp Pages: 1 -->
<svg width="855pt" height="291pt"
 viewBox="0.00 0.00 854.50 291.00" xmlns="http://www.w3.org/2000/svg" xmlns:xlink="http://www.w3.org/1999/xlink">
<g id="graph0" class="graph" transform="scale(1 1) rotate(0) translate(4 287)">
<title>Simple&#45;Utility/functional/operators/negation.hpp</title>
<!-- Node1 -->
<g id="node1" class="node">
<title>Node1</title>
<g id="a_node1"><a xlink:title=" ">
<polygon fill="#999999" stroke="#666666" points="375.5,-283 246.5,-283 246.5,-253 375.5,-253 375.5,-283"/>
<text text-anchor="start" x="254.5" y="-271" font-family="Helvetica,sans-Serif" font-size="10.00">Simple&#45;Utility/functional</text>
<text text-anchor="middle" x="311" y="-260" font-family="Helvetica,sans-Serif" font-size="10.00">/operators/negation.hpp</text>
</a>
</g>
</g>
<!-- Node2 -->
<g id="node2" class="node">
<title>Node2</title>
<g id="a_node2"><a xlink:href="../../d1/d76/functional_2base_8hpp.html" target="_top" xlink:title=" ">
<polygon fill="white" stroke="#666666" points="434,-151 306,-151 306,-121 434,-121 434,-151"/>
<text text-anchor="start" x="314" y="-139" font-family="Helvetica,sans-Serif" font-size="10.00">Simple&#45;Utility/functional</text>
<text text-anchor="middle" x="370" y="-128" font-family="Helvetica,sans-Serif" font-size="10.00">/base.hpp</text>
</a>
</g>
</g>
<!-- Node1&#45;&gt;Node2 -->
<g id="edge1" class="edge">
<title>Node1&#45;&gt;Node2</title>
<path fill="none" stroke="#63b8ff" d="M312.46,-252.78C314.59,-236.27 319.48,-208.55 330,-187 334.75,-177.27 341.67,-167.71 348.42,-159.6"/>
<polygon fill="#63b8ff" stroke="#63b8ff" points="350.9,-162.09 354.86,-152.26 345.63,-157.47 350.9,-162.09"/>
</g>
<!-- Node4 -->
<g id="node4" class="node">
<title>Node4</title>
<g id="a_node4"><a xlink:title=" ">
<polygon fill="#e0e0e0" stroke="#999999" points="62,-79.5 0,-79.5 0,-60.5 62,-60.5 62,-79.5"/>
<text text-anchor="middle" x="31" y="-67.5" font-family="Helvetica,sans-Serif" font-size="10.00">functional</text>
</a>
</g>
</g>
<!-- Node1&#45;&gt;Node4 -->
<g id="edge20" class="edge">
<title>Node1&#45;&gt;Node4</title>
<path fill="none" stroke="#63b8ff" d="M290.41,-252.59C239.04,-216.63 105.55,-123.18 52.85,-86.3"/>
<polygon fill="#63b8ff" stroke="#63b8ff" points="55.16,-83.64 44.96,-80.77 51.14,-89.37 55.16,-83.64"/>
</g>
<!-- Node10 -->
<g id="node10" class="node">
<title>Node10</title>
<g id="a_node10"><a xlink:href="../../d5/db7/pipe_8hpp.html" target="_top" xlink:title=" ">
<polygon fill="white" stroke="#666666" points="467,-217 339,-217 339,-187 467,-187 467,-217"/>
<text text-anchor="start" x="347" y="-205" font-family="Helvetica,sans-Serif" font-size="10.00">Simple&#45;Utility/functional</text>
<text text-anchor="middle" x="403" y="-194" font-family="Helvetica,sans-Serif" font-size="10.00">/operators/pipe.hpp</text>
</a>
</g>
</g>
<!-- Node1&#45;&gt;Node10 -->
<g id="edge13" class="edge">
<title>Node1&#45;&gt;Node10</title>
<path fill="none" stroke="#63b8ff" d="M331.42,-252.8C343.6,-244.32 359.29,-233.4 372.88,-223.95"/>
<polygon fill="#63b8ff" stroke="#63b8ff" points="374.87,-226.83 381.08,-218.25 370.87,-221.09 374.87,-226.83"/>
</g>
<!-- Node3 -->
<g id="node3" class="node">
<title>Node3</title>
<g id="a_node3"><a xlink:title=" ">
<polygon fill="#e0e0e0" stroke="#999999" points="398.5,-19 341.5,-19 341.5,0 398.5,0 398.5,-19"/>
<text text-anchor="middle" x="370" y="-7" font-family="Helvetica,sans-Serif" font-size="10.00">concepts</text>
</a>
</g>
</g>
<!-- Node2&#45;&gt;Node3 -->
<g id="edge2" class="edge">
<title>Node2&#45;&gt;Node3</title>
<path fill="none" stroke="#63b8ff" d="M370,-120.72C370,-98.64 370,-56.12 370,-30.83"/>
<polygon fill="#63b8ff" stroke="#63b8ff" points="373.5,-30.9 370,-20.9 366.5,-30.9 373.5,-30.9"/>
</g>
<!-- Node2&#45;&gt;Node4 -->
<g id="edge3" class="edge">
<title>Node2&#45;&gt;Node4</title>
<path fill="none" stroke="#63b8ff" d="M305.78,-125.58C231.62,-114.47 114.27,-96.1 71,-85 69.14,-84.52 67.24,-84 65.33,-83.44"/>
<polygon fill="#63b8ff" stroke="#63b8ff" points="66.52,-80.14 55.93,-80.43 64.39,-86.81 66.52,-80.14"/>
</g>
<!-- Node5 -->
<g id="node5" class="node">
<title>Node5</title>
<g id="a_node5"><a xlink:title=" ">
<polygon fill="#e0e0e0" stroke="#999999" points="723.5,-19 658.5,-19 658.5,0 723.5,0 723.5,-19"/>
<text text-anchor="middle" x="691" y="-7" font-family="Helvetica,sans-Serif" font-size="10.00">type_traits</text>
</a>
</g>
</g>
<!-- Node2&#45;&gt;Node5 -->
<g id="edge4" class="edge">
<title>Node2&#45;&gt;Node5</title>
<path fill="none" stroke="#63b8ff" d="M434.31,-132.42C512.49,-127.96 638.18,-116.04 672,-85 686.89,-71.33 690.81,-47.77 691.53,-30.8"/>
<polygon fill="#63b8ff" stroke="#63b8ff" points="695.03,-30.91 691.58,-20.9 688.03,-30.88 695.03,-30.91"/>
</g>
<!-- Node6 -->
<g id="node6" class="node">
<title>Node6</title>
<g id="a_node6"><a xlink:href="../../d8/dd2/_config_8hpp.html" target="_top" xlink:title=" ">
<polygon fill="white" stroke="#666666" points="662.5,-79.5 529.5,-79.5 529.5,-60.5 662.5,-60.5 662.5,-79.5"/>
<text text-anchor="middle" x="596" y="-67.5" font-family="Helvetica,sans-Serif" font-size="10.00">Simple&#45;Utility/Config.hpp</text>
</a>
</g>
</g>
<!-- Node2&#45;&gt;Node6 -->
<g id="edge5" class="edge">
<title>Node2&#45;&gt;Node6</title>
<path fill="none" stroke="#63b8ff" d="M421,-120.56C461.05,-109.22 516.15,-93.61 553.76,-82.96"/>
<polygon fill="#63b8ff" stroke="#63b8ff" points="554.23,-86.47 562.89,-80.38 552.32,-79.73 554.23,-86.47"/>
</g>
<!-- Node7 -->
<g id="node7" class="node">
<title>Node7</title>
<g id="a_node7"><a xlink:href="../../d4/d1c/unified__base_8hpp.html" target="_top" xlink:title=" ">
<polygon fill="white" stroke="#666666" points="511.5,-85 398.5,-85 398.5,-55 511.5,-55 511.5,-85"/>
<text text-anchor="start" x="406.5" y="-73" font-family="Helvetica,sans-Serif" font-size="10.00">Simple&#45;Utility/unified</text>
<text text-anchor="middle" x="455" y="-62" font-family="Helvetica,sans-Serif" font-size="10.00">_base.hpp</text>
</a>
</g>
</g>
<!-- Node2&#45;&gt;Node7 -->
<g id="edge6" class="edge">
<title>Node2&#45;&gt;Node7</title>
<path fill="none" stroke="#63b8ff" d="M388.86,-120.8C400.01,-112.4 414.34,-101.62 426.81,-92.23"/>
<polygon fill="#63b8ff" stroke="#63b8ff" points="428.8,-95.11 434.69,-86.3 424.59,-89.51 428.8,-95.11"/>
</g>
<!-- Node8 -->
<g id="node8" class="node">
<title>Node8</title>
<g id="a_node8"><a xlink:href="../../dd/d5c/stl__extensions_8hpp.html" target="_top" xlink:title=" ">
<polygon fill="white" stroke="#666666" points="202,-85 80,-85 80,-55 202,-55 202,-85"/>
<text text-anchor="start" x="88" y="-73" font-family="Helvetica,sans-Serif" font-size="10.00">Simple&#45;Utility/concepts</text>
<text text-anchor="middle" x="141" y="-62" font-family="Helvetica,sans-Serif" font-size="10.00">/stl_extensions.hpp</text>
</a>
</g>
</g>
<!-- Node2&#45;&gt;Node8 -->
<g id="edge9" class="edge">
<title>Node2&#45;&gt;Node8</title>
<path fill="none" stroke="#63b8ff" d="M318.32,-120.56C284.25,-111.04 239.43,-98.51 203.38,-88.43"/>
<polygon fill="#63b8ff" stroke="#63b8ff" points="204.52,-85.12 193.95,-85.8 202.64,-91.86 204.52,-85.12"/>
</g>
<!-- Node9 -->
<g id="node9" class="node">
<title>Node9</title>
<g id="a_node9"><a xlink:href="../../d5/d8e/concepts_2utility_8hpp.html" target="_top" xlink:title=" ">
<polygon fill="white" stroke="#666666" points="342,-85 220,-85 220,-55 342,-55 342,-85"/>
<text text-anchor="start" x="228" y="-73" font-family="Helvetica,sans-Serif" font-size="10.00">Simple&#45;Utility/concepts</text>
<text text-anchor="middle" x="281" y="-62" font-family="Helvetica,sans-Serif" font-size="10.00">/utility.hpp</text>
</a>
</g>
</g>
<!-- Node2&#45;&gt;Node9 -->
<g id="edge11" class="edge">
<title>Node2&#45;&gt;Node9</title>
<path fill="none" stroke="#63b8ff" d="M350.25,-120.8C338.46,-112.32 323.28,-101.4 310.14,-91.95"/>
<polygon fill="#63b8ff" stroke="#63b8ff" points="312.4,-89.27 302.23,-86.27 308.31,-94.95 312.4,-89.27"/>
</g>
<!-- Node7&#45;&gt;Node3 -->
<g id="edge7" class="edge">
<title>Node7&#45;&gt;Node3</title>
<path fill="none" stroke="#63b8ff" d="M433.99,-54.54C421.14,-45.7 404.73,-34.4 391.75,-25.47"/>
<polygon fill="#63b8ff" stroke="#63b8ff" points="394.07,-22.82 383.85,-20.03 390.11,-28.59 394.07,-22.82"/>
</g>
<!-- Node7&#45;&gt;Node5 -->
<g id="edge8" class="edge">
<title>Node7&#45;&gt;Node5</title>
<path fill="none" stroke="#63b8ff" d="M511.83,-54.91C553.54,-44.57 609.34,-30.74 647.52,-21.28"/>
<polygon fill="#63b8ff" stroke="#63b8ff" points="647.95,-24.78 656.82,-18.97 646.27,-17.98 647.95,-24.78"/>
</g>
<!-- Node8&#45;&gt;Node3 -->
<g id="edge10" class="edge">
<title>Node8&#45;&gt;Node3</title>
<path fill="none" stroke="#63b8ff" d="M197.61,-54.54C238.9,-43.99 293.82,-29.96 330.46,-20.6"/>
<polygon fill="#63b8ff" stroke="#63b8ff" points="330.93,-24.09 339.75,-18.23 329.19,-17.31 330.93,-24.09"/>
</g>
<!-- Node9&#45;&gt;Node3 -->
<g id="edge12" class="edge">
<title>Node9&#45;&gt;Node3</title>
<path fill="none" stroke="#63b8ff" d="M303,-54.54C316.37,-45.75 333.42,-34.54 346.98,-25.63"/>
<polygon fill="#63b8ff" stroke="#63b8ff" points="348.84,-28.6 355.28,-20.18 345,-22.75 348.84,-28.6"/>
</g>
<!-- Node10&#45;&gt;Node2 -->
<g id="edge14" class="edge">
<title>Node10&#45;&gt;Node2</title>
<path fill="none" stroke="#63b8ff" d="M395.68,-186.8C391.79,-179.26 386.9,-169.78 382.44,-161.13"/>
<polygon fill="#63b8ff" stroke="#63b8ff" points="385.69,-159.79 378,-152.51 379.47,-163 385.69,-159.79"/>
</g>
<!-- Node11 -->
<g id="node11" class="node">
<title>Node11</title>
<g id="a_node11"><a xlink:href="../../d2/d30/general_8hpp.html" target="_top" xlink:title=" ">
<polygon fill="white" stroke="#666666" points="824.5,-85 719.5,-85 719.5,-55 824.5,-55 824.5,-85"/>
<text text-anchor="start" x="727.5" y="-73" font-family="Helvetica,sans-Serif" font-size="10.00">Simple&#45;Utility/tuple</text>
<text text-anchor="middle" x="772" y="-62" font-family="Helvetica,sans-Serif" font-size="10.00">/general.hpp</text>
</a>
</g>
</g>
<!-- Node10&#45;&gt;Node11 -->
<g id="edge15" class="edge">
<title>Node10&#45;&gt;Node11</title>
<path fill="none" stroke="#63b8ff" d="M443.9,-186.59C511.5,-162.77 646.43,-115.24 720.45,-89.16"/>
<polygon fill="#63b8ff" stroke="#63b8ff" points="721.22,-92.6 729.49,-85.98 718.9,-86 721.22,-92.6"/>
</g>
<!-- Node11&#45;&gt;Node3 -->
<g id="edge16" class="edge">
<title>Node11&#45;&gt;Node3</title>
<path fill="none" stroke="#63b8ff" d="M719.03,-61.29C637.37,-49.41 482.57,-26.88 409.75,-16.28"/>
<polygon fill="#63b8ff" stroke="#63b8ff" points="410.69,-12.88 400.29,-14.91 409.68,-19.81 410.69,-12.88"/>
</g>
<!-- Node11&#45;&gt;Node5 -->
<g id="edge18" class="edge">
<title>Node11&#45;&gt;Node5</title>
<path fill="none" stroke="#63b8ff" d="M751.98,-54.54C739.85,-45.78 724.4,-34.63 712.09,-25.73"/>
<polygon fill="#63b8ff" stroke="#63b8ff" points="714.39,-23.08 704.24,-20.06 710.3,-28.75 714.39,-23.08"/>
</g>
<!-- Node12 -->
<g id="node12" class="node">
<title>Node12</title>
<g id="a_node12"><a xlink:title=" ">
<polygon fill="#e0e0e0" stroke="#999999" points="787,-19 747,-19 747,0 787,0 787,-19"/>
<text text-anchor="middle" x="767" y="-7" font-family="Helvetica,sans-Serif" font-size="10.00">tuple</text>
</a>
</g>
</g>
<!-- Node11&#45;&gt;Node12 -->
<g id="edge17" class="edge">
<title>Node11&#45;&gt;Node12</title>
<path fill="none" stroke="#63b8ff" d="M770.76,-54.54C770.14,-47.26 769.38,-38.31 768.7,-30.39"/>
<polygon fill="#63b8ff" stroke="#63b8ff" points="772.21,-30.35 767.87,-20.68 765.23,-30.94 772.21,-30.35"/>
</g>
<!-- Node13 -->
<g id="node13" class="node">
<title>Node13</title>
<g id="a_node13"><a xlink:title=" ">
<polygon fill="#e0e0e0" stroke="#999999" points="846.5,-19 805.5,-19 805.5,0 846.5,0 846.5,-19"/>
<text text-anchor="middle" x="826" y="-7" font-family="Helvetica,sans-Serif" font-size="10.00">utility</text>
</a>
</g>
</g>
<!-- Node11&#45;&gt;Node13 -->
<g id="edge19" class="edge">
<title>Node11&#45;&gt;Node13</title>
<path fill="none" stroke="#63b8ff" d="M785.35,-54.54C792.87,-46.39 802.31,-36.16 810.2,-27.61"/>
<polygon fill="#63b8ff" stroke="#63b8ff" points="812.75,-30.01 816.97,-20.29 807.61,-25.26 812.75,-30.01"/>
</g>
</g>
</svg>
